<?xml version="1.0" encoding="utf-8" standalone="no"?>
<!DOCTYPE svg PUBLIC "-//W3C//DTD SVG 1.1//EN"
  "http://www.w3.org/Graphics/SVG/1.1/DTD/svg11.dtd">
<svg xmlns:xlink="http://www.w3.org/1999/xlink" width="1372.59375pt" height="390.418188pt" viewBox="0 0 1372.59375 390.418188" xmlns="http://www.w3.org/2000/svg" version="1.1">
 <metadata>
  <rdf:RDF xmlns:dc="http://purl.org/dc/elements/1.1/" xmlns:cc="http://creativecommons.org/ns#" xmlns:rdf="http://www.w3.org/1999/02/22-rdf-syntax-ns#">
   <cc:Work>
    <dc:type rdf:resource="http://purl.org/dc/dcmitype/StillImage"/>
    <dc:date>2022-06-27T18:15:36.741035</dc:date>
    <dc:format>image/svg+xml</dc:format>
    <dc:creator>
     <cc:Agent>
      <dc:title>Matplotlib v3.5.2, https://matplotlib.org/</dc:title>
     </cc:Agent>
    </dc:creator>
   </cc:Work>
  </rdf:RDF>
 </metadata>
 <defs>
  <style type="text/css">*{stroke-linejoin: round; stroke-linecap: butt}</style>
 </defs>
 <g id="figure_1">
  <g id="patch_1">
   <path d="M 0 390.418188 
L 1372.59375 390.418188 
L 1372.59375 -0 
L 0 -0 
z
" style="fill: #ffffff"/>
  </g>
  <g id="axes_1">
   <g id="patch_2">
    <path d="M 26.19375 367.701 
L 1365.39375 367.701 
L 1365.39375 35.061 
L 26.19375 35.061 
z
" style="fill: #ffffff"/>
   </g>
   <g id="matplotlib.axis_1">
    <g id="xtick_1">
     <g id="line2d_1">
      <defs>
       <path id="ma3ac0e580f" d="M 0 0 
L 0 3.5 
" style="stroke: #000000; stroke-width: 0.8"/>
      </defs>
      <g>
       <use xlink:href="#ma3ac0e580f" x="57.240197" y="367.701" style="stroke: #000000; stroke-width: 0.8"/>
      </g>
     </g>
     <g id="text_1">
      <!-- 2020-01 -->
      <g transform="translate(37.750353 381.55725)scale(0.1 -0.1)">
       <defs>
        <path id="WenQuanYiZenHei-32" d="M 3488 0 
L 369 0 
L 369 456 
L 2150 1850 
Q 2931 2463 2931 3144 
Q 2931 3619 2488 3863 
Q 2231 4013 1931 4013 
Q 1425 4013 1113 3619 
Q 894 3356 881 3013 
L 369 3169 
Q 531 3981 1213 4300 
Q 1544 4456 1950 4456 
Q 2631 4456 3088 4044 
L 3225 3888 
L 3350 3706 
Q 3481 3444 3481 3144 
Q 3481 2313 2519 1569 
L 1069 456 
L 3488 456 
L 3488 0 
z
" transform="scale(0.015625)"/>
        <path id="WenQuanYiZenHei-30" d="M 3581 2175 
Q 3581 1288 3169 638 
Q 2713 -63 1938 -63 
Q 1025 -63 563 831 
Q 256 1425 256 2188 
Q 256 3188 700 3819 
Q 1138 4456 1888 4456 
Q 2863 4456 3306 3500 
Q 3581 2925 3581 2175 
z
M 3019 2100 
Q 3019 3356 2500 3806 
L 2350 3919 
Q 2144 4031 1888 4031 
Q 1100 4031 888 2956 
Q 819 2625 819 2225 
Q 819 1013 1338 569 
Q 1588 356 1938 356 
Q 2675 356 2925 1294 
Q 3019 1663 3019 2100 
z
" transform="scale(0.015625)"/>
        <path id="WenQuanYiZenHei-2d" d="M 1363 1444 
L 0 1444 
L 0 1844 
L 1363 1844 
L 1363 1444 
z
" transform="scale(0.015625)"/>
        <path id="WenQuanYiZenHei-31" d="M 3556 0 
L 488 0 
L 488 406 
L 1800 406 
L 1800 3725 
Q 1231 3125 588 2788 
L 588 3338 
Q 1456 3781 1931 4388 
L 2331 4388 
L 2331 406 
L 3556 406 
L 3556 0 
z
" transform="scale(0.015625)"/>
       </defs>
       <use xlink:href="#WenQuanYiZenHei-32"/>
       <use xlink:href="#WenQuanYiZenHei-30" x="59.960938"/>
       <use xlink:href="#WenQuanYiZenHei-32" x="119.921875"/>
       <use xlink:href="#WenQuanYiZenHei-30" x="179.882812"/>
       <use xlink:href="#WenQuanYiZenHei-2d" x="239.84375"/>
       <use xlink:href="#WenQuanYiZenHei-30" x="269.824219"/>
       <use xlink:href="#WenQuanYiZenHei-31" x="329.785156"/>
      </g>
     </g>
    </g>
    <g id="xtick_2">
     <g id="line2d_2">
      <g>
       <use xlink:href="#ma3ac0e580f" x="180.612539" y="367.701" style="stroke: #000000; stroke-width: 0.8"/>
      </g>
     </g>
     <g id="text_2">
      <!-- 2020-04 -->
      <g transform="translate(161.122695 381.55725)scale(0.1 -0.1)">
       <defs>
        <path id="WenQuanYiZenHei-34" d="M 3631 1025 
L 2913 1025 
L 2913 0 
L 2381 0 
L 2381 1025 
L 219 1025 
L 219 1388 
L 2225 4388 
L 2913 4388 
L 2913 1444 
L 3631 1444 
L 3631 1025 
z
M 2381 1444 
L 2381 3963 
L 788 1444 
L 2381 1444 
z
" transform="scale(0.015625)"/>
       </defs>
       <use xlink:href="#WenQuanYiZenHei-32"/>
       <use xlink:href="#WenQuanYiZenHei-30" x="59.960938"/>
       <use xlink:href="#WenQuanYiZenHei-32" x="119.921875"/>
       <use xlink:href="#WenQuanYiZenHei-30" x="179.882812"/>
       <use xlink:href="#WenQuanYiZenHei-2d" x="239.84375"/>
       <use xlink:href="#WenQuanYiZenHei-30" x="269.824219"/>
       <use xlink:href="#WenQuanYiZenHei-34" x="329.785156"/>
      </g>
     </g>
    </g>
    <g id="xtick_3">
     <g id="line2d_3">
      <g>
       <use xlink:href="#ma3ac0e580f" x="303.984882" y="367.701" style="stroke: #000000; stroke-width: 0.8"/>
      </g>
     </g>
     <g id="text_3">
      <!-- 2020-07 -->
      <g transform="translate(284.495038 381.55725)scale(0.1 -0.1)">
       <defs>
        <path id="WenQuanYiZenHei-37" d="M 3400 4056 
Q 1838 2175 1838 0 
L 1275 0 
Q 1269 1438 2056 2825 
Q 2381 3400 2825 3913 
L 444 3913 
L 500 4388 
L 3400 4388 
L 3400 4056 
z
" transform="scale(0.015625)"/>
       </defs>
       <use xlink:href="#WenQuanYiZenHei-32"/>
       <use xlink:href="#WenQuanYiZenHei-30" x="59.960938"/>
       <use xlink:href="#WenQuanYiZenHei-32" x="119.921875"/>
       <use xlink:href="#WenQuanYiZenHei-30" x="179.882812"/>
       <use xlink:href="#WenQuanYiZenHei-2d" x="239.84375"/>
       <use xlink:href="#WenQuanYiZenHei-30" x="269.824219"/>
       <use xlink:href="#WenQuanYiZenHei-37" x="329.785156"/>
      </g>
     </g>
    </g>
    <g id="xtick_4">
     <g id="line2d_4">
      <g>
       <use xlink:href="#ma3ac0e580f" x="428.712964" y="367.701" style="stroke: #000000; stroke-width: 0.8"/>
      </g>
     </g>
     <g id="text_4">
      <!-- 2020-10 -->
      <g transform="translate(409.223121 381.55725)scale(0.1 -0.1)">
       <use xlink:href="#WenQuanYiZenHei-32"/>
       <use xlink:href="#WenQuanYiZenHei-30" x="59.960938"/>
       <use xlink:href="#WenQuanYiZenHei-32" x="119.921875"/>
       <use xlink:href="#WenQuanYiZenHei-30" x="179.882812"/>
       <use xlink:href="#WenQuanYiZenHei-2d" x="239.84375"/>
       <use xlink:href="#WenQuanYiZenHei-31" x="269.824219"/>
       <use xlink:href="#WenQuanYiZenHei-30" x="329.785156"/>
      </g>
     </g>
    </g>
    <g id="xtick_5">
     <g id="line2d_5">
      <g>
       <use xlink:href="#ma3ac0e580f" x="553.441047" y="367.701" style="stroke: #000000; stroke-width: 0.8"/>
      </g>
     </g>
     <g id="text_5">
      <!-- 2021-01 -->
      <g transform="translate(533.951203 381.55725)scale(0.1 -0.1)">
       <use xlink:href="#WenQuanYiZenHei-32"/>
       <use xlink:href="#WenQuanYiZenHei-30" x="59.960938"/>
       <use xlink:href="#WenQuanYiZenHei-32" x="119.921875"/>
       <use xlink:href="#WenQuanYiZenHei-31" x="179.882812"/>
       <use xlink:href="#WenQuanYiZenHei-2d" x="239.84375"/>
       <use xlink:href="#WenQuanYiZenHei-30" x="269.824219"/>
       <use xlink:href="#WenQuanYiZenHei-31" x="329.785156"/>
      </g>
     </g>
    </g>
    <g id="xtick_6">
     <g id="line2d_6">
      <g>
       <use xlink:href="#ma3ac0e580f" x="675.45765" y="367.701" style="stroke: #000000; stroke-width: 0.8"/>
      </g>
     </g>
     <g id="text_6">
      <!-- 2021-04 -->
      <g transform="translate(655.967806 381.55725)scale(0.1 -0.1)">
       <use xlink:href="#WenQuanYiZenHei-32"/>
       <use xlink:href="#WenQuanYiZenHei-30" x="59.960938"/>
       <use xlink:href="#WenQuanYiZenHei-32" x="119.921875"/>
       <use xlink:href="#WenQuanYiZenHei-31" x="179.882812"/>
       <use xlink:href="#WenQuanYiZenHei-2d" x="239.84375"/>
       <use xlink:href="#WenQuanYiZenHei-30" x="269.824219"/>
       <use xlink:href="#WenQuanYiZenHei-34" x="329.785156"/>
      </g>
     </g>
    </g>
    <g id="xtick_7">
     <g id="line2d_7">
      <g>
       <use xlink:href="#ma3ac0e580f" x="798.829992" y="367.701" style="stroke: #000000; stroke-width: 0.8"/>
      </g>
     </g>
     <g id="text_7">
      <!-- 2021-07 -->
      <g transform="translate(779.340148 381.55725)scale(0.1 -0.1)">
       <use xlink:href="#WenQuanYiZenHei-32"/>
       <use xlink:href="#WenQuanYiZenHei-30" x="59.960938"/>
       <use xlink:href="#WenQuanYiZenHei-32" x="119.921875"/>
       <use xlink:href="#WenQuanYiZenHei-31" x="179.882812"/>
       <use xlink:href="#WenQuanYiZenHei-2d" x="239.84375"/>
       <use xlink:href="#WenQuanYiZenHei-30" x="269.824219"/>
       <use xlink:href="#WenQuanYiZenHei-37" x="329.785156"/>
      </g>
     </g>
    </g>
    <g id="xtick_8">
     <g id="line2d_8">
      <g>
       <use xlink:href="#ma3ac0e580f" x="923.558075" y="367.701" style="stroke: #000000; stroke-width: 0.8"/>
      </g>
     </g>
     <g id="text_8">
      <!-- 2021-10 -->
      <g transform="translate(904.068231 381.55725)scale(0.1 -0.1)">
       <use xlink:href="#WenQuanYiZenHei-32"/>
       <use xlink:href="#WenQuanYiZenHei-30" x="59.960938"/>
       <use xlink:href="#WenQuanYiZenHei-32" x="119.921875"/>
       <use xlink:href="#WenQuanYiZenHei-31" x="179.882812"/>
       <use xlink:href="#WenQuanYiZenHei-2d" x="239.84375"/>
       <use xlink:href="#WenQuanYiZenHei-31" x="269.824219"/>
       <use xlink:href="#WenQuanYiZenHei-30" x="329.785156"/>
      </g>
     </g>
    </g>
    <g id="xtick_9">
     <g id="line2d_9">
      <g>
       <use xlink:href="#ma3ac0e580f" x="1048.286157" y="367.701" style="stroke: #000000; stroke-width: 0.8"/>
      </g>
     </g>
     <g id="text_9">
      <!-- 2022-01 -->
      <g transform="translate(1028.796314 381.55725)scale(0.1 -0.1)">
       <use xlink:href="#WenQuanYiZenHei-32"/>
       <use xlink:href="#WenQuanYiZenHei-30" x="59.960938"/>
       <use xlink:href="#WenQuanYiZenHei-32" x="119.921875"/>
       <use xlink:href="#WenQuanYiZenHei-32" x="179.882812"/>
       <use xlink:href="#WenQuanYiZenHei-2d" x="239.84375"/>
       <use xlink:href="#WenQuanYiZenHei-30" x="269.824219"/>
       <use xlink:href="#WenQuanYiZenHei-31" x="329.785156"/>
      </g>
     </g>
    </g>
    <g id="xtick_10">
     <g id="line2d_10">
      <g>
       <use xlink:href="#ma3ac0e580f" x="1170.30276" y="367.701" style="stroke: #000000; stroke-width: 0.8"/>
      </g>
     </g>
     <g id="text_10">
      <!-- 2022-04 -->
      <g transform="translate(1150.812916 381.55725)scale(0.1 -0.1)">
       <use xlink:href="#WenQuanYiZenHei-32"/>
       <use xlink:href="#WenQuanYiZenHei-30" x="59.960938"/>
       <use xlink:href="#WenQuanYiZenHei-32" x="119.921875"/>
       <use xlink:href="#WenQuanYiZenHei-32" x="179.882812"/>
       <use xlink:href="#WenQuanYiZenHei-2d" x="239.84375"/>
       <use xlink:href="#WenQuanYiZenHei-30" x="269.824219"/>
       <use xlink:href="#WenQuanYiZenHei-34" x="329.785156"/>
      </g>
     </g>
    </g>
    <g id="xtick_11">
     <g id="line2d_11">
      <g>
       <use xlink:href="#ma3ac0e580f" x="1293.675103" y="367.701" style="stroke: #000000; stroke-width: 0.8"/>
      </g>
     </g>
     <g id="text_11">
      <!-- 2022-07 -->
      <g transform="translate(1274.185259 381.55725)scale(0.1 -0.1)">
       <use xlink:href="#WenQuanYiZenHei-32"/>
       <use xlink:href="#WenQuanYiZenHei-30" x="59.960938"/>
       <use xlink:href="#WenQuanYiZenHei-32" x="119.921875"/>
       <use xlink:href="#WenQuanYiZenHei-32" x="179.882812"/>
       <use xlink:href="#WenQuanYiZenHei-2d" x="239.84375"/>
       <use xlink:href="#WenQuanYiZenHei-30" x="269.824219"/>
       <use xlink:href="#WenQuanYiZenHei-37" x="329.785156"/>
      </g>
     </g>
    </g>
   </g>
   <g id="matplotlib.axis_2">
    <g id="ytick_1">
     <g id="line2d_12">
      <defs>
       <path id="m5777e955c5" d="M 0 0 
L -3.5 0 
" style="stroke: #000000; stroke-width: 0.8"/>
      </defs>
      <g>
       <use xlink:href="#m5777e955c5" x="26.19375" y="348.981" style="stroke: #000000; stroke-width: 0.8"/>
      </g>
     </g>
     <g id="text_12">
      <!-- 0 -->
      <g transform="translate(13.196875 352.409125)scale(0.1 -0.1)">
       <use xlink:href="#WenQuanYiZenHei-30"/>
      </g>
     </g>
    </g>
    <g id="ytick_2">
     <g id="line2d_13">
      <g>
       <use xlink:href="#m5777e955c5" x="26.19375" y="276.981" style="stroke: #000000; stroke-width: 0.8"/>
      </g>
     </g>
     <g id="text_13">
      <!-- 20 -->
      <g transform="translate(7.2 280.409125)scale(0.1 -0.1)">
       <use xlink:href="#WenQuanYiZenHei-32"/>
       <use xlink:href="#WenQuanYiZenHei-30" x="59.960938"/>
      </g>
     </g>
    </g>
    <g id="ytick_3">
     <g id="line2d_14">
      <g>
       <use xlink:href="#m5777e955c5" x="26.19375" y="204.981" style="stroke: #000000; stroke-width: 0.8"/>
      </g>
     </g>
     <g id="text_14">
      <!-- 40 -->
      <g transform="translate(7.2 208.409125)scale(0.1 -0.1)">
       <use xlink:href="#WenQuanYiZenHei-34"/>
       <use xlink:href="#WenQuanYiZenHei-30" x="59.960938"/>
      </g>
     </g>
    </g>
    <g id="ytick_4">
     <g id="line2d_15">
      <g>
       <use xlink:href="#m5777e955c5" x="26.19375" y="132.981" style="stroke: #000000; stroke-width: 0.8"/>
      </g>
     </g>
     <g id="text_15">
      <!-- 60 -->
      <g transform="translate(7.2 136.409125)scale(0.1 -0.1)">
       <defs>
        <path id="WenQuanYiZenHei-36" d="M 3550 1431 
Q 3550 725 3006 288 
Q 2581 -63 1994 -63 
Q 1013 -63 563 825 
Q 288 1363 288 2081 
Q 288 3294 856 3938 
Q 1319 4456 2075 4456 
Q 2969 4456 3363 3756 
Q 3431 3631 3481 3481 
L 2988 3350 
Q 2750 3994 2075 4006 
Q 1056 4006 844 2669 
Q 794 2356 794 1981 
L 806 1981 
Q 1006 2506 1544 2744 
Q 1819 2869 2119 2869 
Q 2788 2869 3213 2375 
Q 3550 1975 3550 1431 
z
M 3038 1406 
Q 3038 1906 2656 2213 
Q 2381 2431 2038 2431 
Q 1525 2431 1181 2044 
Q 919 1744 919 1356 
Q 919 881 1344 581 
Q 1631 375 1981 375 
Q 2519 375 2838 781 
Q 3038 1050 3038 1406 
z
" transform="scale(0.015625)"/>
       </defs>
       <use xlink:href="#WenQuanYiZenHei-36"/>
       <use xlink:href="#WenQuanYiZenHei-30" x="59.960938"/>
      </g>
     </g>
    </g>
    <g id="ytick_5">
     <g id="line2d_16">
      <g>
       <use xlink:href="#m5777e955c5" x="26.19375" y="60.981" style="stroke: #000000; stroke-width: 0.8"/>
      </g>
     </g>
     <g id="text_16">
      <!-- 80 -->
      <g transform="translate(7.2 64.409125)scale(0.1 -0.1)">
       <defs>
        <path id="WenQuanYiZenHei-38" d="M 3619 1175 
Q 3619 431 2850 100 
Q 2444 -63 1944 -63 
Q 1231 -63 725 269 
Q 225 594 225 1125 
Q 225 1881 1269 2281 
Q 719 2481 519 2938 
Q 444 3119 444 3319 
Q 444 4000 1144 4294 
Q 1519 4456 1963 4456 
Q 2669 4456 3094 4094 
Q 3425 3813 3425 3369 
Q 3425 2638 2575 2356 
Q 3231 2056 3450 1725 
Q 3619 1488 3619 1175 
z
M 2944 3344 
Q 2944 3906 2288 4019 
Q 2138 4044 1969 4044 
Q 1438 4044 1163 3775 
Q 1000 3613 1000 3375 
Q 1000 2925 1594 2663 
Q 1756 2588 1931 2550 
Q 2581 2725 2788 2956 
Q 2944 3125 2944 3344 
z
M 3075 1094 
Q 3075 1738 1875 2050 
Q 1094 1881 850 1463 
Q 763 1313 763 1131 
Q 763 569 1456 406 
Q 1681 344 1944 344 
Q 2519 344 2850 619 
Q 3075 813 3075 1094 
z
" transform="scale(0.015625)"/>
       </defs>
       <use xlink:href="#WenQuanYiZenHei-38"/>
       <use xlink:href="#WenQuanYiZenHei-30" x="59.960938"/>
      </g>
     </g>
    </g>
   </g>
   <g id="line2d_17">
    <path d="M 87.066477 320.181 
L 88.422217 298.581 
L 89.777957 330.981 
L 91.133697 251.781 
L 92.489437 305.781 
L 93.845177 309.381 
L 95.200917 276.981 
L 96.556657 338.181 
L 97.912397 258.981 
L 99.268138 244.581 
L 100.623878 266.181 
L 101.979618 273.381 
L 103.335358 291.381 
L 104.691098 258.981 
L 106.046838 273.381 
L 107.402578 266.181 
L 108.758318 284.181 
L 110.114058 309.381 
L 111.469798 309.381 
L 112.825538 330.981 
L 114.181278 312.981 
L 115.537018 298.581 
L 116.892758 327.381 
L 118.248498 338.181 
L 119.604238 330.981 
L 120.959978 345.381 
L 122.315718 327.381 
L 123.671458 327.381 
L 125.027198 341.781 
L 126.382938 345.381 
L 127.738678 338.181 
L 129.094418 348.981 
L 130.450158 348.981 
L 131.805898 345.381 
L 133.161638 348.981 
L 134.517378 312.981 
L 135.873118 348.981 
L 138.584598 341.781 
L 141.296078 348.981 
L 142.651818 334.581 
L 144.007558 348.981 
L 145.363298 334.581 
L 146.719039 334.581 
L 149.430519 348.981 
L 150.786259 345.381 
L 152.141999 327.381 
L 153.497739 348.981 
L 154.853479 345.381 
L 156.209219 345.381 
L 157.564959 330.981 
L 158.920699 312.981 
L 160.276439 334.581 
L 161.632179 302.181 
L 162.987919 309.381 
L 164.343659 309.381 
L 165.699399 302.181 
L 167.055139 284.181 
L 168.410879 294.981 
L 169.766619 273.381 
L 171.122359 338.181 
L 172.478099 330.981 
L 173.833839 338.181 
L 175.189579 334.581 
L 176.545319 334.581 
L 177.901059 348.981 
L 179.256799 338.181 
L 180.612539 348.981 
L 181.968279 341.781 
L 183.324019 341.781 
L 184.679759 345.381 
L 187.391239 345.381 
L 188.746979 348.981 
L 190.102719 345.381 
L 191.458459 348.981 
L 192.814199 348.981 
L 194.16994 345.381 
L 195.52568 348.981 
L 198.23716 348.981 
L 199.5929 345.381 
L 200.94864 338.181 
L 202.30438 348.981 
L 264.668421 348.981 
L 266.024161 345.381 
L 267.379901 348.981 
L 275.514341 348.981 
L 276.870081 345.381 
L 278.225821 327.381 
L 279.581561 219.381 
L 280.937301 219.381 
L 282.293041 251.781 
L 283.648781 237.381 
L 285.004521 273.381 
L 286.360261 258.981 
L 287.716001 348.981 
L 289.071741 190.581 
L 290.427482 316.581 
L 291.783222 302.181 
L 293.138962 323.781 
L 294.494702 302.181 
L 295.850442 309.381 
L 297.206182 287.781 
L 298.561922 298.581 
L 299.917662 323.781 
L 301.273402 323.781 
L 302.629142 338.181 
L 303.984882 345.381 
L 305.340622 341.781 
L 306.696362 345.381 
L 308.052102 341.781 
L 310.763582 348.981 
L 337.878383 348.981 
L 339.234123 341.781 
L 340.589863 345.381 
L 341.945603 345.381 
L 343.301343 348.981 
L 348.724303 348.981 
L 350.080043 345.381 
L 351.435783 348.981 
L 352.791523 345.381 
L 354.147263 348.981 
L 417.867044 348.981 
L 419.222784 345.381 
L 420.578524 348.981 
L 440.914625 348.981 
L 442.270365 345.381 
L 443.626105 348.981 
L 451.760545 348.981 
L 453.116285 345.381 
L 454.472025 348.981 
L 457.183505 348.981 
L 458.539245 341.781 
L 459.894985 348.981 
L 461.250725 348.981 
L 462.606465 345.381 
L 463.962205 348.981 
L 465.317945 345.381 
L 466.673685 348.981 
L 470.740905 348.981 
L 472.096645 341.781 
L 473.452385 348.981 
L 474.808125 345.381 
L 476.163865 348.981 
L 480.231085 348.981 
L 481.586826 341.781 
L 482.942566 348.981 
L 493.788486 348.981 
L 495.144226 345.381 
L 496.499966 348.981 
L 497.855706 345.381 
L 499.211446 345.381 
L 500.567186 348.981 
L 508.701626 348.981 
L 510.057366 345.381 
L 511.413106 348.981 
L 514.124586 348.981 
L 515.480326 345.381 
L 516.836066 348.981 
L 524.970506 348.981 
L 526.326246 341.781 
L 527.681986 345.381 
L 530.393467 345.381 
L 531.749207 348.981 
L 533.104947 348.981 
L 534.460687 341.781 
L 535.816427 341.781 
L 537.172167 348.981 
L 542.595127 348.981 
L 543.950867 341.781 
L 545.306607 320.181 
L 546.662347 345.381 
L 548.018087 323.781 
L 549.373827 345.381 
L 550.729567 341.781 
L 552.085307 330.981 
L 553.441047 345.381 
L 554.796787 341.781 
L 556.152527 341.781 
L 557.508267 345.381 
L 558.864007 345.381 
L 560.219747 348.981 
L 561.575487 345.381 
L 562.931227 348.981 
L 564.286967 345.381 
L 566.998447 345.381 
L 568.354187 348.981 
L 569.709927 345.381 
L 571.065667 348.981 
L 572.421407 341.781 
L 573.777147 341.781 
L 575.132887 338.181 
L 576.488628 345.381 
L 577.844368 323.781 
L 579.200108 338.181 
L 581.911588 338.181 
L 583.267328 341.781 
L 584.623068 338.181 
L 585.978808 341.781 
L 587.334548 334.581 
L 588.690288 348.981 
L 590.046028 345.381 
L 591.401768 345.381 
L 592.757508 348.981 
L 594.113248 341.781 
L 596.824728 348.981 
L 598.180468 330.981 
L 599.536208 348.981 
L 600.891948 348.981 
L 602.247688 341.781 
L 603.603428 348.981 
L 621.228048 348.981 
L 622.583788 345.381 
L 623.939528 348.981 
L 630.718229 348.981 
L 632.073969 341.781 
L 633.429709 348.981 
L 675.45765 348.981 
L 676.81339 345.381 
L 678.16913 348.981 
L 679.52487 341.781 
L 680.88061 348.981 
L 682.23635 345.381 
L 683.59209 348.981 
L 684.94783 345.381 
L 689.01505 345.381 
L 690.37079 348.981 
L 743.244651 348.981 
L 744.600391 345.381 
L 745.956131 348.981 
L 748.667611 348.981 
L 750.023351 345.381 
L 751.379091 348.981 
L 758.157791 348.981 
L 759.513531 345.381 
L 760.869271 345.381 
L 762.225011 341.781 
L 764.936491 348.981 
L 767.647972 341.781 
L 769.003712 348.981 
L 770.359452 345.381 
L 771.715192 345.381 
L 773.070932 348.981 
L 774.426672 345.381 
L 775.782412 345.381 
L 777.138152 348.981 
L 778.493892 345.381 
L 779.849632 348.981 
L 781.205372 345.381 
L 782.561112 348.981 
L 783.916852 341.781 
L 785.272592 348.981 
L 787.984072 348.981 
L 789.339812 345.381 
L 790.695552 348.981 
L 793.407032 341.781 
L 794.762772 352.581 
L 796.118512 348.981 
L 812.387392 348.981 
L 813.743132 345.381 
L 815.098872 348.981 
L 819.166093 348.981 
L 820.521833 334.581 
L 821.877573 345.381 
L 823.233313 345.381 
L 824.589053 348.981 
L 830.012013 348.981 
L 831.367753 345.381 
L 832.723493 348.981 
L 834.079233 345.381 
L 836.790713 345.381 
L 838.146453 348.981 
L 839.502193 348.981 
L 840.857933 327.381 
L 842.213673 345.381 
L 843.569413 348.981 
L 844.925153 338.181 
L 846.280893 348.981 
L 848.992373 348.981 
L 850.348113 338.181 
L 851.703853 348.981 
L 853.059593 345.381 
L 854.415333 348.981 
L 858.482553 348.981 
L 859.838293 341.781 
L 861.194033 348.981 
L 862.549773 341.781 
L 863.905514 345.381 
L 865.261254 341.781 
L 866.616994 341.781 
L 867.972734 345.381 
L 869.328474 341.781 
L 870.684214 348.981 
L 878.818654 348.981 
L 880.174394 345.381 
L 881.530134 345.381 
L 882.885874 348.981 
L 885.597354 348.981 
L 886.953094 345.381 
L 888.308834 348.981 
L 897.799014 348.981 
L 899.154754 345.381 
L 900.510494 348.981 
L 912.712155 348.981 
L 914.067895 345.381 
L 915.423635 348.981 
L 916.779375 338.181 
L 918.135115 348.981 
L 920.846595 348.981 
L 922.202335 345.381 
L 923.558075 348.981 
L 924.913815 348.981 
L 926.269555 345.381 
L 927.625295 348.981 
L 928.981035 348.981 
L 930.336775 345.381 
L 931.692515 348.981 
L 937.115475 348.981 
L 938.471215 345.381 
L 939.826955 348.981 
L 942.538435 348.981 
L 943.894175 345.381 
L 945.249915 348.981 
L 946.605655 348.981 
L 947.961395 345.381 
L 949.317135 348.981 
L 950.672875 345.381 
L 952.028615 327.381 
L 953.384355 330.981 
L 954.740095 341.781 
L 956.095835 334.581 
L 957.451575 338.181 
L 958.807315 334.581 
L 960.163056 338.181 
L 961.518796 334.581 
L 962.874536 345.381 
L 964.230276 348.981 
L 965.586016 341.781 
L 966.941756 316.581 
L 968.297496 348.981 
L 971.008976 348.981 
L 972.364716 345.381 
L 976.431936 345.381 
L 977.787676 341.781 
L 979.143416 334.581 
L 981.854896 348.981 
L 983.210636 348.981 
L 984.566376 345.381 
L 985.922116 345.381 
L 987.277856 338.181 
L 988.633596 348.981 
L 989.989336 348.981 
L 991.345076 345.381 
L 992.700816 348.981 
L 1006.258216 348.981 
L 1007.613957 338.181 
L 1008.969697 348.981 
L 1011.681177 348.981 
L 1013.036917 345.381 
L 1014.392657 348.981 
L 1015.748397 348.981 
L 1017.104137 345.381 
L 1018.459877 348.981 
L 1019.815617 348.981 
L 1021.171357 341.781 
L 1022.527097 348.981 
L 1025.238577 348.981 
L 1026.594317 345.381 
L 1027.950057 345.381 
L 1029.305797 348.981 
L 1030.661537 334.581 
L 1032.017277 345.381 
L 1033.373017 348.981 
L 1037.440237 348.981 
L 1040.151717 341.781 
L 1041.507457 348.981 
L 1042.863197 348.981 
L 1044.218937 345.381 
L 1045.574677 348.981 
L 1046.930417 341.781 
L 1048.286157 348.981 
L 1049.641897 334.581 
L 1050.997637 348.981 
L 1052.353377 345.381 
L 1053.709117 348.981 
L 1055.064858 345.381 
L 1056.420598 348.981 
L 1057.776338 345.381 
L 1059.132078 348.981 
L 1061.843558 341.781 
L 1063.199298 345.381 
L 1064.555038 345.381 
L 1065.910778 348.981 
L 1067.266518 341.781 
L 1068.622258 345.381 
L 1069.977998 334.581 
L 1071.333738 327.381 
L 1072.689478 334.581 
L 1074.045218 323.781 
L 1075.400958 309.381 
L 1078.112438 323.781 
L 1079.468178 320.181 
L 1080.823918 291.381 
L 1082.179658 330.981 
L 1083.535398 312.981 
L 1084.891138 330.981 
L 1086.246878 266.181 
L 1087.602618 338.181 
L 1088.958358 334.581 
L 1090.314098 338.181 
L 1091.669838 334.581 
L 1093.025578 341.781 
L 1094.381318 345.381 
L 1095.737058 345.381 
L 1097.092798 334.581 
L 1098.448538 345.381 
L 1099.804278 345.381 
L 1101.160018 348.981 
L 1103.871499 348.981 
L 1105.227239 341.781 
L 1106.582979 348.981 
L 1107.938719 345.381 
L 1109.294459 348.981 
L 1112.005939 348.981 
L 1113.361679 334.581 
L 1114.717419 327.381 
L 1116.073159 316.581 
L 1117.428899 320.181 
L 1118.784639 284.181 
L 1120.140379 316.581 
L 1121.496119 312.981 
L 1122.851859 330.981 
L 1124.207599 312.981 
L 1125.563339 276.981 
L 1126.919079 305.781 
L 1128.274819 330.981 
L 1129.630559 309.381 
L 1130.986299 316.581 
L 1132.342039 316.581 
L 1133.697779 302.181 
L 1135.053519 327.381 
L 1136.409259 269.781 
L 1137.764999 309.381 
L 1139.120739 284.181 
L 1140.476479 276.981 
L 1141.832219 327.381 
L 1143.187959 284.181 
L 1144.543699 316.581 
L 1145.899439 294.981 
L 1147.255179 305.781 
L 1148.610919 305.781 
L 1149.966659 298.581 
L 1151.3224 309.381 
L 1152.67814 294.981 
L 1154.03388 320.181 
L 1155.38962 312.981 
L 1156.74536 330.981 
L 1158.1011 334.581 
L 1159.45684 330.981 
L 1160.81258 320.181 
L 1162.16832 341.781 
L 1163.52406 341.781 
L 1164.8798 338.181 
L 1166.23554 338.181 
L 1167.59128 341.781 
L 1168.94702 341.781 
L 1170.30276 320.181 
L 1171.6585 348.981 
L 1173.01424 334.581 
L 1174.36998 312.981 
L 1175.72572 334.581 
L 1177.08146 330.981 
L 1178.4372 316.581 
L 1179.79294 320.181 
L 1181.14868 334.581 
L 1182.50442 345.381 
L 1183.86016 334.581 
L 1185.2159 348.981 
L 1186.57164 341.781 
L 1187.92738 338.181 
L 1189.28312 345.381 
L 1190.63886 348.981 
L 1191.9946 323.781 
L 1193.35034 338.181 
L 1196.06182 345.381 
L 1197.41756 345.381 
L 1198.773301 320.181 
L 1200.129041 269.781 
L 1201.484781 294.981 
L 1202.840521 233.781 
L 1204.196261 237.381 
L 1205.552001 172.581 
L 1206.907741 172.581 
L 1208.263481 168.981 
L 1209.619221 158.181 
L 1210.974961 219.381 
L 1212.330701 165.381 
L 1215.042181 194.181 
L 1216.397921 150.981 
L 1217.753661 183.381 
L 1219.109401 190.581 
L 1220.465141 230.181 
L 1221.820881 125.781 
L 1223.176621 258.981 
L 1224.532361 222.981 
L 1225.888101 194.181 
L 1227.243841 233.781 
L 1228.599581 230.181 
L 1229.955321 208.581 
L 1231.311061 194.181 
L 1232.666801 161.781 
L 1234.022541 168.981 
L 1235.378281 165.381 
L 1236.734021 140.181 
L 1238.089761 161.781 
L 1239.445501 50.181 
L 1240.801241 201.381 
L 1242.156981 201.381 
L 1243.512721 215.781 
L 1244.868461 266.181 
L 1246.224202 276.981 
L 1248.935682 320.181 
L 1250.291422 291.381 
L 1251.647162 298.581 
L 1253.002902 348.981 
L 1254.358642 280.581 
L 1255.714382 316.581 
L 1257.070122 348.981 
L 1258.425862 269.781 
L 1259.781602 348.981 
L 1261.137342 334.581 
L 1262.493082 341.781 
L 1263.848822 316.581 
L 1265.204562 208.581 
L 1267.916042 244.581 
L 1269.271782 197.781 
L 1270.627522 258.981 
L 1271.983262 294.981 
L 1273.339002 302.181 
L 1274.694742 341.781 
L 1276.050482 345.381 
L 1277.406222 334.581 
L 1278.761962 334.581 
L 1280.117702 330.981 
L 1281.473442 334.581 
L 1282.829182 330.981 
L 1284.184922 330.981 
L 1285.540662 345.381 
L 1286.896402 338.181 
L 1286.896402 338.181 
" clip-path="url(#p8de6ce8a49)" style="fill: none; stroke: #0000ff; stroke-width: 1.5; stroke-linecap: square"/>
   </g>
   <g id="line2d_18">
    <path d="M 1046.930417 345.095359 
L 1048.286157 345.854284 
L 1049.641897 341.432747 
L 1050.997637 342.948153 
L 1052.353377 344.916687 
L 1053.709117 349.214821 
L 1055.064858 346.631718 
L 1056.420598 347.572123 
L 1057.776338 346.633451 
L 1059.132078 347.573837 
L 1060.487818 346.635145 
L 1061.843558 344.485792 
L 1063.199298 343.184307 
L 1064.555038 344.883416 
L 1065.910778 347.546708 
L 1067.266518 345.634288 
L 1068.622258 344.300303 
L 1069.977998 339.697479 
L 1071.333738 333.09563 
L 1072.689478 330.460629 
L 1074.045218 329.763418 
L 1075.400958 320.633197 
L 1076.756698 313.987919 
L 1078.112438 319.85661 
L 1079.468178 325.07246 
L 1080.823918 311.013636 
L 1082.179658 312.507031 
L 1083.535398 319.701648 
L 1084.891138 329.450005 
L 1086.246878 301.360185 
L 1087.602618 306.7697 
L 1090.314098 347.76111 
L 1091.669838 336.4013 
L 1093.025578 338.880326 
L 1094.381318 342.751452 
L 1095.737058 346.167808 
L 1097.092798 341.011152 
L 1098.448538 339.921945 
L 1099.804278 343.380445 
L 1101.160018 348.286162 
L 1102.515759 348.371073 
L 1103.871499 348.94859 
L 1105.227239 345.317079 
L 1106.582979 344.960594 
L 1107.938719 345.725574 
L 1109.294459 347.788887 
L 1110.650199 347.850555 
L 1112.005939 348.975919 
L 1113.361679 342.254387 
L 1116.073159 321.886765 
L 1117.428899 319.289209 
L 1118.784639 304.92589 
L 1120.140379 303.762307 
L 1121.496119 311.440984 
L 1122.851859 328.037392 
L 1124.207599 323.413866 
L 1125.563339 302.72862 
L 1126.919079 292.2032 
L 1128.274819 313.798213 
L 1129.630559 326.631557 
L 1130.986299 318.968583 
L 1132.342039 315.129869 
L 1133.697779 313.360865 
L 1135.053519 316.153189 
L 1136.409259 301.201216 
L 1137.764999 296.755159 
L 1139.120739 291.892146 
L 1140.476479 291.745319 
L 1143.187959 308.11367 
L 1144.543699 310.38641 
L 1145.899439 302.078662 
L 1147.255179 308.056343 
L 1148.610919 304.838303 
L 1149.966659 306.724285 
L 1151.3224 306.235755 
L 1152.67814 304.060301 
L 1154.03388 310.756722 
L 1155.38962 315.786606 
L 1156.74536 326.237133 
L 1158.1011 331.415948 
L 1159.45684 335.547961 
L 1160.81258 327.019725 
L 1162.16832 329.989788 
L 1163.52406 339.171004 
L 1164.8798 342.706182 
L 1166.23554 337.700005 
L 1167.59128 338.6793 
L 1168.94702 340.959158 
L 1170.30276 332.269832 
L 1171.6585 333.731735 
L 1173.01424 337.924208 
L 1175.72572 321.866982 
L 1177.08146 329.427375 
L 1178.4372 328.2391 
L 1179.79294 319.017605 
L 1181.14868 325.172331 
L 1182.50442 339.464336 
L 1183.86016 341.746969 
L 1186.57164 342.740309 
L 1187.92738 341.687247 
L 1189.28312 339.724573 
L 1190.63886 345.252322 
L 1191.9946 337.866694 
L 1193.35034 331.452235 
L 1194.70608 335.347753 
L 1196.06182 344.74518 
L 1197.41756 344.858135 
L 1198.773301 334.078528 
L 1200.129041 299.829949 
L 1204.196261 247.906026 
L 1205.552001 208.187754 
L 1206.907741 186.917772 
L 1208.263481 174.398675 
L 1209.619221 177.75962 
L 1210.974961 198.125734 
L 1212.330701 202.978795 
L 1213.686441 194.520983 
L 1215.042181 189.574894 
L 1216.397921 188.317481 
L 1217.753661 181.482163 
L 1219.109401 190.907691 
L 1220.465141 222.948307 
L 1221.820881 193.230026 
L 1223.176621 205.437581 
L 1224.532361 231.095885 
L 1225.888101 238.453873 
L 1227.243841 215.564745 
L 1228.599581 233.815286 
L 1229.955321 233.418925 
L 1232.666801 186.433401 
L 1234.022541 174.888981 
L 1235.378281 173.717931 
L 1236.734021 167.129819 
L 1238.089761 162.522499 
L 1239.445501 121.392401 
L 1240.801241 139.900704 
L 1242.156981 191.182287 
L 1243.512721 238.255035 
L 1244.868461 243.681732 
L 1246.224202 274.698412 
L 1247.579942 294.926899 
L 1248.935682 308.580975 
L 1250.291422 308.370149 
L 1251.647162 297.816024 
L 1253.002902 315.040369 
L 1254.358642 315.390942 
L 1255.714382 304.994663 
L 1257.070122 317.626777 
L 1258.425862 315.32604 
L 1259.781602 311.047949 
L 1261.137342 325.328529 
L 1262.493082 346.190239 
L 1263.848822 324.524849 
L 1265.204562 269.476117 
L 1266.560302 220.341158 
L 1267.916042 223.322444 
L 1269.271782 231.109339 
L 1270.627522 235.00177 
L 1273.339002 306.702762 
L 1276.050482 339.751969 
L 1277.406222 342.077685 
L 1278.761962 331.491597 
L 1280.117702 327.725929 
L 1281.473442 329.229149 
L 1282.829182 328.875815 
L 1284.184922 328.308123 
L 1285.540662 333.403866 
L 1286.896402 337.802434 
L 1286.896402 337.802434 
" clip-path="url(#p8de6ce8a49)" style="fill: none; stroke: #ffa500; stroke-width: 1.5; stroke-linecap: square"/>
   </g>
   <g id="line2d_19">
    <path d="M 1286.896402 337.802434 
L 1288.252142 336.52 
L 1289.607882 332.494309 
L 1290.963622 331.228212 
L 1292.319362 328.647228 
L 1293.675103 326.523531 
L 1295.030843 324.819475 
L 1296.386583 322.88324 
L 1297.742323 321.319038 
L 1299.098063 319.798204 
L 1300.453803 318.371562 
L 1301.809543 317.09879 
L 1303.165283 315.88579 
L 1304.521023 314.779009 
" clip-path="url(#p8de6ce8a49)" style="fill: none; stroke: #ff0000; stroke-width: 1.5; stroke-linecap: square"/>
   </g>
   <g id="patch_3">
    <path d="M 26.19375 367.701 
L 26.19375 35.061 
" style="fill: none; stroke: #000000; stroke-width: 0.8; stroke-linejoin: miter; stroke-linecap: square"/>
   </g>
   <g id="patch_4">
    <path d="M 1365.39375 367.701 
L 1365.39375 35.061 
" style="fill: none; stroke: #000000; stroke-width: 0.8; stroke-linejoin: miter; stroke-linecap: square"/>
   </g>
   <g id="patch_5">
    <path d="M 26.19375 367.701 
L 1365.39375 367.701 
" style="fill: none; stroke: #000000; stroke-width: 0.8; stroke-linejoin: miter; stroke-linecap: square"/>
   </g>
   <g id="patch_6">
    <path d="M 26.19375 35.061 
L 1365.39375 35.061 
" style="fill: none; stroke: #000000; stroke-width: 0.8; stroke-linejoin: miter; stroke-linecap: square"/>
   </g>
   <g id="text_17">
    <!-- 每日新增预测 - 北京 -->
    <g transform="translate(642.396563 17.041875)scale(0.12 -0.12)">
     <defs>
      <path id="WenQuanYiZenHei-6bcf" d="M 6138 2181 
Q 6113 1988 6138 1800 
Q 5788 1819 5438 1819 
L 4975 1819 
L 4863 738 
L 5806 738 
L 5806 394 
L 4831 394 
L 4775 -144 
Q 4719 -563 4350 -725 
Q 4013 -856 3550 -825 
L 3288 -819 
Q 3331 -663 3275 -519 
Q 3219 -375 3113 -288 
Q 3381 -313 3759 -303 
Q 4138 -294 4231 -238 
Q 4338 -163 4350 88 
L 4381 394 
L 1025 394 
L 1244 1819 
L 813 1819 
Q 463 1819 113 1800 
Q 138 1988 113 2181 
Q 463 2163 813 2163 
L 1294 2163 
L 1488 3431 
L 1488 3581 
L 1506 3581 
L 1513 3613 
L 1713 3581 
L 5156 3581 
L 5013 2163 
L 5438 2163 
Q 5788 2163 6138 2181 
z
M 5588 4463 
Q 5569 4269 5588 4081 
Q 5244 4100 4894 4100 
L 1813 4100 
Q 1344 3463 606 2788 
Q 481 2988 256 3069 
Q 744 3494 1116 3972 
Q 1488 4450 1919 5181 
Q 2119 5044 2344 4950 
Q 2213 4688 2050 4444 
L 4894 4444 
Q 5238 4444 5588 4463 
z
M 2844 3238 
L 1906 3238 
L 1744 2163 
L 3244 2163 
L 2581 3038 
L 2844 3238 
z
M 3250 2163 
L 4563 2163 
L 4669 3238 
L 3044 3238 
L 3638 2456 
L 3250 2163 
z
M 2944 1819 
Q 3275 1394 3550 938 
L 3213 738 
L 4419 738 
L 4525 1819 
L 2944 1819 
z
M 2656 1819 
L 1694 1819 
L 1525 738 
L 3094 738 
Q 2806 1219 2450 1650 
L 2656 1819 
z
" transform="scale(0.015625)"/>
      <path id="WenQuanYiZenHei-65e5" d="M 1494 -775 
Q 1244 -750 988 -775 
Q 1013 -313 1013 156 
L 1013 4875 
L 5269 4875 
L 5269 -763 
L 4813 -763 
L 4813 156 
L 1469 156 
Q 1469 -313 1494 -775 
z
M 4813 2700 
L 4813 4500 
L 1469 4500 
L 1469 2700 
L 4813 2700 
z
M 4813 531 
L 4813 2325 
L 1469 2325 
L 1469 531 
L 4813 531 
z
" transform="scale(0.015625)"/>
      <path id="WenQuanYiZenHei-65b0" d="M 5419 -763 
Q 5188 -738 4963 -763 
Q 4981 -344 4981 75 
L 4981 2819 
L 4188 2819 
L 4188 1706 
Q 4188 63 3163 -738 
Q 3019 -519 2769 -469 
Q 3769 131 3769 1706 
L 3769 4769 
L 3875 4769 
L 3844 4831 
L 4294 4781 
Q 4438 4769 4894 4816 
Q 5350 4863 5512 4931 
Q 5675 5000 5763 5094 
Q 5850 4881 5981 4694 
Q 5713 4544 5263 4519 
L 4188 4438 
L 4188 3100 
L 5563 3100 
Q 5850 3100 6131 3113 
Q 6119 2956 6131 2806 
L 5394 2819 
L 5394 75 
Q 5394 -344 5419 -763 
z
M 2981 213 
Q 2656 744 2256 1225 
L 2606 1513 
Q 3025 1006 3369 450 
L 2981 213 
z
M 1169 1525 
Q 1375 1419 1594 1363 
Q 1281 488 469 -469 
Q 331 -300 119 -244 
Q 575 263 888 900 
Q 1038 1206 1169 1525 
z
M 1825 6 
L 1825 1769 
L 1081 1769 
Q 794 1769 513 1756 
Q 525 1913 513 2063 
Q 794 2050 1081 2050 
L 1825 2050 
L 1825 2775 
L 994 2775 
Q 706 2775 425 2763 
Q 438 2919 425 3075 
Q 706 3056 994 3056 
L 1825 3056 
L 1825 3088 
L 1906 3088 
Q 2288 3656 2588 4381 
Q 2794 4269 3013 4206 
Q 2800 3675 2381 3056 
L 3013 3056 
Q 3294 3056 3581 3075 
Q 3563 2919 3581 2763 
Q 3294 2775 3013 2775 
L 2238 2775 
L 2238 2050 
L 2925 2050 
Q 3206 2050 3494 2063 
Q 3475 1913 3494 1756 
Q 3206 1769 2925 1769 
L 2238 1769 
L 2238 -156 
Q 2238 -413 2075 -581 
Q 1844 -794 1306 -794 
Q 1363 -519 1188 -288 
Q 1338 -313 1534 -316 
Q 1731 -319 1778 -278 
Q 1825 -238 1825 6 
z
M 1875 3388 
L 1500 3131 
L 825 4088 
L 1200 4350 
L 1875 3388 
z
M 3419 4713 
Q 3400 4563 3419 4406 
Q 3131 4419 2850 4419 
L 1125 4419 
Q 838 4419 556 4406 
Q 569 4563 556 4713 
Q 838 4700 1125 4700 
L 1763 4700 
L 1388 5088 
L 1719 5406 
L 2288 4813 
L 2175 4700 
L 2850 4700 
Q 3131 4700 3419 4713 
z
" transform="scale(0.015625)"/>
      <path id="WenQuanYiZenHei-589e" d="M 3138 -769 
Q 2913 -744 2688 -769 
Q 2706 -356 2706 56 
L 2706 1719 
L 5706 1719 
L 5706 -756 
L 5300 -756 
L 5300 -338 
L 3119 -338 
Q 3125 -550 3138 -769 
z
M 5113 3569 
Q 5344 3606 5563 3688 
Q 5669 3175 5256 2694 
Q 5113 2519 4975 2506 
Q 4831 2725 4588 2813 
Q 4806 2831 4997 3068 
Q 5188 3306 5113 3569 
z
M 3850 2763 
L 3469 2538 
L 2925 3456 
L 3313 3681 
L 3850 2763 
z
M 2400 2100 
Q 2469 3138 2400 4175 
L 3413 4175 
Q 3138 4550 2825 4888 
L 3156 5194 
Q 3581 4725 3938 4206 
L 3900 4175 
L 4456 4175 
Q 4863 4575 5131 5163 
Q 5325 5044 5538 4975 
Q 5369 4575 5013 4175 
L 6056 4175 
Q 5981 3138 6056 2100 
L 2400 2100 
z
M 5300 806 
L 5300 1450 
L 3113 1450 
Q 3113 1125 3113 806 
L 5300 806 
z
M 5300 563 
L 3113 563 
L 3113 -94 
L 5300 -94 
L 5300 563 
z
M 4431 3913 
L 4431 2363 
L 5650 2363 
L 5650 3913 
L 4756 3913 
L 4700 3856 
Q 4681 3888 4656 3913 
L 4431 3913 
z
M 4025 3913 
L 2806 3913 
L 2806 2363 
L 4025 2363 
L 4025 3913 
z
M -31 625 
Q 506 763 1006 975 
L 1006 3206 
L 669 3206 
Q 369 3206 75 3188 
Q 94 3356 75 3531 
Q 369 3513 669 3513 
L 1006 3513 
L 1006 4263 
Q 1006 4700 981 5131 
Q 1206 5106 1431 5131 
Q 1413 4700 1413 4263 
L 1413 3513 
L 2238 3531 
Q 2219 3356 2238 3188 
L 1413 3206 
L 1413 1163 
L 2150 1531 
L 2194 1256 
Q 1269 775 813 519 
L 194 144 
Q 138 438 -31 625 
z
" transform="scale(0.015625)"/>
      <path id="WenQuanYiZenHei-9884" d="M 1206 19 
L 1206 2888 
L 669 2888 
Q 356 2888 50 2869 
Q 63 3044 50 3213 
Q 363 3194 669 3194 
L 1250 3194 
Q 950 3631 606 4031 
L 963 4338 
L 1263 3975 
L 1913 4719 
L 731 4719 
Q 419 4719 106 4706 
Q 125 4875 106 5044 
Q 419 5031 731 5031 
L 2481 5031 
L 2544 4663 
Q 2394 4613 2256 4466 
Q 2119 4319 1525 3631 
Q 1656 3444 1788 3250 
L 1700 3194 
L 2700 3194 
L 2763 2825 
Q 2656 2819 2613 2763 
L 2100 2038 
L 1750 2288 
L 2175 2888 
L 1638 2888 
L 1638 -150 
Q 1638 -525 1363 -669 
Q 1075 -819 525 -813 
Q 594 -513 388 -294 
Q 575 -313 837 -316 
Q 1100 -319 1153 -272 
Q 1206 -225 1206 19 
z
M 5813 -888 
Q 5100 -225 4306 375 
L 4669 719 
Q 5481 106 6219 -575 
L 5813 -888 
z
M 2375 -906 
Q 2294 -631 2025 -506 
Q 2769 -431 3353 19 
Q 3938 469 3938 1069 
L 3938 2200 
Q 3938 2625 3913 3050 
Q 4188 3025 4456 3050 
Q 4431 2625 4431 2200 
L 4431 1069 
Q 4431 681 4225 319 
Q 3644 -606 2375 -906 
z
M 3444 488 
Q 3169 513 2894 488 
Q 2919 913 2919 1338 
L 2919 3675 
Q 3219 3675 3525 3675 
Q 3750 4013 3931 4525 
L 3238 4525 
Q 2888 4525 2538 4513 
Q 2556 4669 2538 4831 
Q 2888 4813 3238 4813 
L 5313 4813 
Q 5663 4813 6006 4831 
Q 5988 4669 6006 4513 
Q 5663 4525 5313 4525 
L 4481 4525 
Q 4388 4088 4088 3675 
L 5644 3675 
L 5644 513 
L 5144 513 
L 5144 3388 
L 3894 3388 
L 3875 3363 
Q 3863 3375 3844 3388 
Q 3631 3388 3413 3388 
L 3419 1338 
Q 3419 913 3444 488 
z
" transform="scale(0.015625)"/>
      <path id="WenQuanYiZenHei-6d4b" d="M 5450 138 
L 5450 4306 
Q 5450 4750 5425 5188 
Q 5663 5163 5906 5188 
Q 5881 4750 5881 4306 
L 5881 -38 
Q 5888 -569 5519 -719 
Q 5194 -831 4825 -813 
Q 4894 -519 4694 -281 
Q 4869 -306 5094 -309 
Q 5319 -313 5384 -256 
Q 5450 -200 5450 138 
z
M 4900 938 
Q 4663 963 4419 938 
Q 4444 1375 4444 1819 
L 4444 3381 
Q 4444 3819 4419 4263 
Q 4663 4238 4900 4263 
Q 4875 3819 4875 3381 
L 4875 1819 
Q 4875 1375 4900 938 
z
M 2750 2025 
L 2750 3038 
Q 2750 3481 2725 3919 
Q 2963 3894 3206 3919 
Q 3181 3481 3181 3038 
L 3181 2025 
Q 3181 1263 2919 625 
L 3231 956 
Q 3781 431 4256 -150 
L 3888 -456 
Q 3431 106 2906 600 
Q 2531 -288 1738 -769 
Q 1606 -519 1338 -450 
Q 1988 -156 2369 478 
Q 2750 1113 2750 2025 
z
M 2363 969 
Q 2119 994 1881 969 
Q 1906 1406 1906 1850 
L 1906 5038 
L 3956 5031 
L 3956 1200 
L 3525 1200 
L 3525 4713 
L 2338 4713 
L 2338 1850 
Q 2338 1406 2363 969 
z
M 663 -738 
Q 481 -588 206 -575 
Q 400 -69 606 581 
Q 813 1231 1200 2838 
L 1381 2706 
L 875 338 
L 663 -738 
z
M 1006 2856 
L 731 2550 
L 75 3400 
L 350 3713 
L 1006 2856 
z
M 1088 3913 
Q 781 4388 425 4800 
L 694 5125 
Q 1069 4688 1388 4188 
L 1088 3913 
z
" transform="scale(0.015625)"/>
      <path id="WenQuanYiZenHei-20" transform="scale(0.015625)"/>
      <path id="WenQuanYiZenHei-5317" d="M 3631 4331 
Q 3631 4794 3606 5263 
Q 3863 5231 4113 5263 
Q 4088 4794 4088 4331 
L 4088 2925 
Q 4675 3269 5181 3769 
L 5594 4194 
Q 5769 4006 5975 3856 
Q 5275 3050 4088 2406 
L 4088 56 
Q 4088 -81 4147 -178 
Q 4206 -275 4313 -275 
L 5519 -275 
Q 5594 -275 5619 -237 
Q 5644 -200 5656 -178 
Q 5669 -156 5678 -112 
Q 5688 -69 5688 -44 
L 5838 1000 
Q 6038 856 6281 863 
L 6100 -250 
Q 6050 -600 5969 -663 
Q 5925 -694 5863 -694 
L 4306 -694 
Q 4013 -694 3822 -494 
Q 3631 -294 3631 56 
L 3631 4331 
z
M 2088 3038 
L 956 3038 
Q 575 3038 200 3019 
Q 219 3225 200 3431 
Q 575 3413 956 3413 
L 2088 3413 
L 2088 4331 
Q 2088 4794 2069 5263 
Q 2319 5231 2569 5263 
Q 2550 4794 2550 4331 
L 2550 163 
Q 2550 -300 2569 -769 
Q 2319 -738 2069 -769 
Q 2088 -300 2088 163 
L 2088 419 
Q 906 44 244 -244 
Q 238 56 69 306 
Q 431 325 843 400 
Q 1256 475 2088 756 
L 2088 3038 
z
" transform="scale(0.015625)"/>
      <path id="WenQuanYiZenHei-4eac" d="M 5894 -263 
L 5550 -600 
L 4819 106 
L 4063 775 
L 4375 1144 
L 5150 463 
L 5894 -263 
z
M 1931 1219 
Q 2088 1031 2281 881 
Q 1794 356 1038 -200 
L 438 -625 
Q 338 -413 138 -300 
Q 813 131 1494 781 
L 1931 1219 
z
M 2975 -100 
L 2975 1606 
L 1450 1606 
Q 1531 2475 1450 3350 
L 4875 3350 
Q 4794 2475 4869 1606 
L 3419 1606 
L 3419 -206 
Q 3419 -419 3206 -619 
Q 2981 -819 2369 -813 
Q 2431 -513 2238 -275 
Q 2406 -300 2656 -303 
Q 2906 -306 2940 -272 
Q 2975 -238 2975 -100 
z
M 6138 4319 
Q 6119 4138 6138 3956 
Q 5800 3975 5463 3975 
L 944 3975 
Q 606 3975 275 3956 
Q 294 4138 275 4319 
Q 606 4300 944 4300 
L 2981 4300 
Q 2719 4713 2419 5100 
L 2800 5400 
Q 3206 4875 3544 4300 
L 5463 4300 
Q 5800 4300 6138 4319 
z
M 1894 3019 
L 1894 1938 
L 4431 1938 
L 4431 3019 
L 1894 3019 
z
" transform="scale(0.015625)"/>
     </defs>
     <use xlink:href="#WenQuanYiZenHei-6bcf"/>
     <use xlink:href="#WenQuanYiZenHei-65e5" x="100"/>
     <use xlink:href="#WenQuanYiZenHei-65b0" x="200"/>
     <use xlink:href="#WenQuanYiZenHei-589e" x="300"/>
     <use xlink:href="#WenQuanYiZenHei-9884" x="400"/>
     <use xlink:href="#WenQuanYiZenHei-6d4b" x="500"/>
     <use xlink:href="#WenQuanYiZenHei-20" x="600"/>
     <use xlink:href="#WenQuanYiZenHei-2d" x="629.980469"/>
     <use xlink:href="#WenQuanYiZenHei-20" x="659.960938"/>
     <use xlink:href="#WenQuanYiZenHei-5317" x="689.941406"/>
     <use xlink:href="#WenQuanYiZenHei-4eac" x="789.941406"/>
    </g>
    <!-- ARIMA (4, 1, 1)x(0, 0, 0, 7) (R2 = 0.912910) -->
    <g transform="translate(577.185938 29.061)scale(0.12 -0.12)">
     <defs>
      <path id="WenQuanYiZenHei-41" d="M 3550 0 
L 2988 0 
L 2550 1281 
L 919 1281 
L 531 0 
L 69 0 
L 1494 4388 
L 2125 4388 
L 3550 0 
z
M 2425 1694 
L 1756 3800 
L 1075 1694 
L 2425 1694 
z
" transform="scale(0.015625)"/>
      <path id="WenQuanYiZenHei-52" d="M 3675 0 
L 3100 0 
L 2288 1900 
L 1069 1900 
L 1069 0 
L 519 0 
L 519 4388 
L 2163 4388 
Q 3006 4388 3400 3900 
Q 3581 3663 3625 3325 
Q 3631 3250 3631 3163 
Q 3631 2594 3219 2244 
Q 3038 2100 2813 2038 
L 3675 0 
z
M 3081 3169 
Q 3081 3825 2356 3906 
Q 2263 3919 2163 3919 
L 1069 3919 
L 1069 2350 
L 2100 2350 
Q 2906 2350 3044 2919 
Q 3081 3031 3081 3169 
z
" transform="scale(0.015625)"/>
      <path id="WenQuanYiZenHei-49" d="M 1100 0 
L 550 0 
L 550 4388 
L 1100 4388 
L 1100 0 
z
" transform="scale(0.015625)"/>
      <path id="WenQuanYiZenHei-4d" d="M 4756 0 
L 4206 0 
L 4206 3831 
L 4181 3831 
L 2788 0 
L 2419 0 
L 1000 3831 
L 975 3831 
L 975 0 
L 513 0 
L 513 4388 
L 1331 4388 
L 2656 875 
L 3950 4388 
L 4756 4388 
L 4756 0 
z
" transform="scale(0.015625)"/>
      <path id="WenQuanYiZenHei-28" d="M 1606 -1094 
L 1275 -1094 
Q 475 -100 338 1231 
Q 319 1438 319 1656 
Q 319 3031 1156 4244 
Q 1213 4313 1269 4388 
L 1600 4388 
Q 806 3169 794 1681 
Q 794 188 1606 -1094 
z
" transform="scale(0.015625)"/>
      <path id="WenQuanYiZenHei-2c" d="M 1363 75 
L 881 -825 
L 606 -825 
L 994 0 
L 656 0 
L 656 738 
L 1363 738 
L 1363 75 
z
" transform="scale(0.015625)"/>
      <path id="WenQuanYiZenHei-29" d="M 1600 1656 
Q 1600 306 869 -788 
Q 769 -950 644 -1094 
L 313 -1094 
Q 1125 188 1125 1681 
Q 1125 3169 338 4363 
Q 325 4375 319 4388 
L 650 4388 
Q 1525 3231 1594 1863 
Q 1600 1763 1600 1656 
z
" transform="scale(0.015625)"/>
      <path id="WenQuanYiZenHei-78" d="M 2806 0 
L 2213 0 
L 1394 1319 
L 544 0 
L 50 0 
L 1144 1681 
L 163 3250 
L 744 3250 
L 1431 2138 
L 2144 3250 
L 2631 3250 
L 1681 1794 
L 2806 0 
z
" transform="scale(0.015625)"/>
      <path id="WenQuanYiZenHei-3d" d="M 3569 2256 
L 263 2256 
L 263 2675 
L 3569 2675 
L 3569 2256 
z
M 3569 1019 
L 263 1019 
L 263 1431 
L 3569 1431 
L 3569 1019 
z
" transform="scale(0.015625)"/>
      <path id="WenQuanYiZenHei-2e" d="M 1344 0 
L 631 0 
L 631 725 
L 1344 725 
L 1344 0 
z
" transform="scale(0.015625)"/>
      <path id="WenQuanYiZenHei-39" d="M 3544 2300 
Q 3544 1163 3019 513 
Q 2563 -63 1775 -63 
Q 956 -63 563 488 
Q 463 631 394 813 
L 838 975 
Q 1025 494 1550 388 
Q 1656 369 1775 369 
Q 2594 369 2900 1325 
Q 3044 1769 3038 2313 
L 3025 2313 
Q 2675 1638 1944 1544 
Q 1844 1531 1744 1531 
Q 1050 1531 625 2031 
Q 294 2419 294 2963 
Q 294 3656 813 4094 
Q 1238 4456 1819 4456 
Q 2988 4456 3381 3363 
Q 3544 2900 3544 2300 
z
M 2925 2994 
Q 2925 3563 2469 3844 
Q 2206 4006 1863 4006 
Q 1275 4006 988 3563 
Q 844 3344 825 3056 
Q 819 3006 819 2956 
Q 819 2413 1269 2131 
Q 1538 1963 1875 1963 
Q 2363 1963 2681 2350 
Q 2925 2638 2925 2994 
z
" transform="scale(0.015625)"/>
     </defs>
     <use xlink:href="#WenQuanYiZenHei-41"/>
     <use xlink:href="#WenQuanYiZenHei-52" x="55.957031"/>
     <use xlink:href="#WenQuanYiZenHei-49" x="117.871094"/>
     <use xlink:href="#WenQuanYiZenHei-4d" x="143.847656"/>
     <use xlink:href="#WenQuanYiZenHei-41" x="225.78125"/>
     <use xlink:href="#WenQuanYiZenHei-20" x="281.738281"/>
     <use xlink:href="#WenQuanYiZenHei-28" x="311.71875"/>
     <use xlink:href="#WenQuanYiZenHei-34" x="341.699219"/>
     <use xlink:href="#WenQuanYiZenHei-2c" x="401.660156"/>
     <use xlink:href="#WenQuanYiZenHei-20" x="431.640625"/>
     <use xlink:href="#WenQuanYiZenHei-31" x="461.621094"/>
     <use xlink:href="#WenQuanYiZenHei-2c" x="521.582031"/>
     <use xlink:href="#WenQuanYiZenHei-20" x="551.5625"/>
     <use xlink:href="#WenQuanYiZenHei-31" x="581.542969"/>
     <use xlink:href="#WenQuanYiZenHei-29" x="641.503906"/>
     <use xlink:href="#WenQuanYiZenHei-78" x="671.484375"/>
     <use xlink:href="#WenQuanYiZenHei-28" x="715.429688"/>
     <use xlink:href="#WenQuanYiZenHei-30" x="745.410156"/>
     <use xlink:href="#WenQuanYiZenHei-2c" x="805.371094"/>
     <use xlink:href="#WenQuanYiZenHei-20" x="835.351562"/>
     <use xlink:href="#WenQuanYiZenHei-30" x="865.332031"/>
     <use xlink:href="#WenQuanYiZenHei-2c" x="925.292969"/>
     <use xlink:href="#WenQuanYiZenHei-20" x="955.273438"/>
     <use xlink:href="#WenQuanYiZenHei-30" x="985.253906"/>
     <use xlink:href="#WenQuanYiZenHei-2c" x="1045.214844"/>
     <use xlink:href="#WenQuanYiZenHei-20" x="1075.195312"/>
     <use xlink:href="#WenQuanYiZenHei-37" x="1105.175781"/>
     <use xlink:href="#WenQuanYiZenHei-29" x="1165.136719"/>
     <use xlink:href="#WenQuanYiZenHei-20" x="1195.117188"/>
     <use xlink:href="#WenQuanYiZenHei-28" x="1225.097656"/>
     <use xlink:href="#WenQuanYiZenHei-52" x="1255.078125"/>
     <use xlink:href="#WenQuanYiZenHei-32" x="1316.992188"/>
     <use xlink:href="#WenQuanYiZenHei-20" x="1376.953125"/>
     <use xlink:href="#WenQuanYiZenHei-3d" x="1406.933594"/>
     <use xlink:href="#WenQuanYiZenHei-20" x="1466.894531"/>
     <use xlink:href="#WenQuanYiZenHei-30" x="1496.875"/>
     <use xlink:href="#WenQuanYiZenHei-2e" x="1556.835938"/>
     <use xlink:href="#WenQuanYiZenHei-39" x="1586.816406"/>
     <use xlink:href="#WenQuanYiZenHei-31" x="1646.777344"/>
     <use xlink:href="#WenQuanYiZenHei-32" x="1706.738281"/>
     <use xlink:href="#WenQuanYiZenHei-39" x="1766.699219"/>
     <use xlink:href="#WenQuanYiZenHei-31" x="1826.660156"/>
     <use xlink:href="#WenQuanYiZenHei-30" x="1886.621094"/>
     <use xlink:href="#WenQuanYiZenHei-29" x="1946.582031"/>
    </g>
   </g>
   <g id="legend_1">
    <g id="patch_7">
     <path d="M 1296.39375 87.056312 
L 1358.39375 87.056312 
Q 1360.39375 87.056312 1360.39375 85.056312 
L 1360.39375 42.061 
Q 1360.39375 40.061 1358.39375 40.061 
L 1296.39375 40.061 
Q 1294.39375 40.061 1294.39375 42.061 
L 1294.39375 85.056312 
Q 1294.39375 87.056312 1296.39375 87.056312 
z
" style="fill: #ffffff; opacity: 0.8; stroke: #cccccc; stroke-linejoin: miter"/>
    </g>
    <g id="line2d_20">
     <path d="M 1298.39375 48.695375 
L 1308.39375 48.695375 
L 1318.39375 48.695375 
" style="fill: none; stroke: #0000ff; stroke-width: 1.5; stroke-linecap: square"/>
    </g>
    <g id="text_18">
     <!-- 实际值 -->
     <g transform="translate(1326.39375 52.195375)scale(0.1 -0.1)">
      <defs>
       <path id="WenQuanYiZenHei-5b9e" d="M 1025 1175 
Q 694 1175 356 1163 
Q 375 1344 356 1525 
Q 694 1506 1025 1506 
L 3363 1506 
L 3363 2625 
Q 3363 3075 3338 3519 
Q 3581 3494 3825 3519 
Q 3800 3075 3800 2625 
L 3800 1506 
L 5406 1506 
Q 5744 1506 6075 1525 
Q 6056 1344 6075 1163 
Q 5744 1175 5406 1175 
L 4038 1175 
L 4981 456 
L 6131 -488 
L 5819 -856 
L 4681 75 
L 3638 875 
Q 3313 231 2475 -231 
Q 1638 -694 700 -825 
Q 638 -519 344 -400 
Q 1450 -319 2406 244 
Q 3113 656 3300 1175 
L 1025 1175 
z
M 2263 1581 
Q 1763 2081 1200 2513 
L 1494 2894 
Q 2081 2444 2600 1919 
L 2263 1581 
z
M 2638 2500 
Q 2219 2963 1731 3363 
L 2044 3738 
Q 2556 3313 3000 2819 
L 2638 2500 
z
M 919 3156 
L 481 3156 
L 481 4344 
L 3069 4344 
Q 2794 4731 2469 5081 
L 2825 5413 
Q 3256 4944 3613 4413 
L 3513 4344 
L 5869 4344 
L 5869 3156 
L 5425 3156 
L 5425 4013 
L 919 4013 
L 919 3156 
z
" transform="scale(0.015625)"/>
       <path id="WenQuanYiZenHei-9645" d="M 6000 431 
L 5569 194 
L 4963 1219 
L 4313 2219 
L 4719 2494 
L 5375 1481 
L 6000 431 
z
M 2956 2450 
Q 3181 2344 3419 2294 
Q 3006 1038 1944 -188 
Q 1794 -6 1569 56 
Q 2069 600 2372 1156 
Q 2675 1713 2956 2450 
z
M 3750 25 
L 3750 2913 
L 2819 2913 
Q 2475 2913 2125 2894 
Q 2144 3081 2125 3269 
Q 2475 3256 2819 3256 
L 5469 3256 
Q 5819 3256 6163 3269 
Q 6144 3081 6163 2894 
Q 5813 2913 5469 2913 
L 4194 2913 
L 4194 -144 
Q 4194 -725 3456 -813 
L 3263 -825 
Q 3325 -506 3125 -250 
Q 3250 -281 3394 -306 
Q 3663 -313 3706 -272 
Q 3750 -231 3750 25 
z
M 5544 4950 
Q 5525 4756 5544 4569 
Q 5194 4588 4844 4588 
L 3325 4588 
Q 2975 4588 2625 4569 
Q 2644 4756 2625 4950 
Q 2975 4931 3325 4931 
L 4844 4931 
Q 5194 4931 5544 4950 
z
M 819 -850 
Q 581 -825 344 -850 
Q 369 -419 369 19 
L 363 4938 
L 2256 4938 
L 2256 4625 
Q 2150 4513 2075 4375 
L 1481 3238 
Q 2181 2319 2181 1156 
Q 2144 400 1569 163 
L 1406 88 
Q 1288 300 1138 481 
Q 1294 538 1450 606 
Q 1763 744 1794 1156 
Q 1794 1744 1600 2300 
Q 1406 2856 1038 3313 
L 1725 4625 
L 788 4625 
L 794 19 
Q 794 -419 819 -850 
z
" transform="scale(0.015625)"/>
       <path id="WenQuanYiZenHei-503c" d="M 6175 -219 
Q 6156 -388 6175 -556 
Q 5863 -544 5550 -544 
L 2313 -544 
Q 2000 -544 1688 -556 
Q 1706 -388 1688 -219 
L 2506 -231 
L 2506 3469 
L 3644 3469 
L 3644 4119 
L 2638 4119 
Q 2325 4119 2013 4100 
Q 2031 4269 2013 4438 
Q 2325 4425 2638 4425 
L 3638 4425 
Q 3638 4719 3619 5013 
Q 3856 4988 4094 5013 
Q 4075 4719 4075 4425 
L 5344 4425 
Q 5650 4425 5963 4438 
Q 5950 4269 5963 4100 
Q 5656 4119 5344 4119 
L 4069 4119 
L 4069 3469 
L 5300 3469 
L 5300 -231 
L 5550 -231 
Q 5863 -231 6175 -219 
z
M 4869 2556 
L 4869 3156 
L 2931 3156 
Q 2931 2850 2931 2556 
L 4869 2556 
z
M 4869 1669 
L 4869 2250 
L 2931 2250 
L 2931 1669 
L 4869 1669 
z
M 4869 731 
L 4869 1363 
L 2931 1363 
L 2931 731 
L 4869 731 
z
M 4869 -231 
L 4869 425 
L 2931 425 
L 2931 -231 
L 4869 -231 
z
M 2106 4925 
Q 1856 4075 1463 3338 
L 1463 31 
Q 1463 -413 1481 -850 
Q 1256 -825 1031 -850 
Q 1050 -413 1050 31 
L 1050 2681 
Q 750 2269 375 1931 
Q 238 2156 0 2256 
Q 331 2544 619 2875 
Q 1094 3425 1300 3950 
Q 1494 4469 1625 5050 
Q 1850 4963 2106 4925 
z
" transform="scale(0.015625)"/>
      </defs>
      <use xlink:href="#WenQuanYiZenHei-5b9e"/>
      <use xlink:href="#WenQuanYiZenHei-9645" x="100"/>
      <use xlink:href="#WenQuanYiZenHei-503c" x="200"/>
     </g>
    </g>
    <g id="line2d_21">
     <path d="M 1298.39375 63.3735 
L 1308.39375 63.3735 
L 1318.39375 63.3735 
" style="fill: none; stroke: #ffa500; stroke-width: 1.5; stroke-linecap: square"/>
    </g>
    <g id="text_19">
     <!-- 校验值 -->
     <g transform="translate(1326.39375 66.8735)scale(0.1 -0.1)">
      <defs>
       <path id="WenQuanYiZenHei-6821" d="M 5256 2463 
Q 5025 1475 4494 706 
Q 5125 -94 6175 -544 
Q 5950 -663 5850 -900 
Q 4906 -494 4250 381 
Q 3931 0 3475 -350 
Q 3019 -700 2388 -919 
Q 2338 -656 2138 -475 
Q 3306 -69 4006 738 
Q 3563 1444 3300 2331 
Q 3050 2050 2706 1800 
Q 2606 2000 2406 2106 
Q 2900 2444 3181 2938 
Q 3350 3225 3488 3538 
Q 3700 3431 3925 3369 
Q 3763 2894 3425 2475 
L 3650 2531 
Q 3888 1675 4244 1075 
Q 4469 1444 4603 1937 
Q 4738 2431 4775 2688 
Q 4963 2644 5150 2625 
Q 4919 2969 4663 3294 
L 5038 3588 
Q 5544 2925 5975 2213 
L 5569 1969 
L 5256 2463 
z
M 6006 4050 
Q 5988 3881 6006 3713 
Q 5694 3725 5381 3725 
L 3413 3725 
Q 3100 3725 2788 3713 
Q 2806 3881 2788 4050 
Q 3100 4031 3413 4031 
L 4325 4031 
Q 4019 4525 3644 4969 
L 4000 5275 
Q 4413 4788 4750 4244 
L 4406 4031 
L 5381 4031 
Q 5694 4031 6006 4050 
z
M 406 263 
Q 238 431 -25 469 
Q 194 825 466 1337 
Q 738 1850 925 2406 
Q 1113 2963 1256 3519 
L 825 3519 
Q 506 3519 188 3500 
Q 206 3700 188 3900 
Q 506 3881 825 3881 
L 1363 3881 
L 1363 4263 
Q 1363 4719 1338 5175 
Q 1556 5150 1775 5175 
Q 1756 4719 1756 4263 
L 1756 3881 
L 2525 3900 
Q 2506 3700 2525 3500 
L 1756 3519 
L 1756 2738 
L 1931 2881 
Q 2306 2300 2613 1650 
L 2231 1413 
Q 2081 1725 1919 2019 
L 1756 2300 
L 1756 69 
Q 1756 -388 1775 -850 
Q 1556 -825 1338 -850 
Q 1363 -388 1363 69 
L 1363 2438 
Q 925 1144 406 263 
z
" transform="scale(0.015625)"/>
       <path id="WenQuanYiZenHei-9a8c" d="M 5981 -106 
Q 5963 -275 5981 -444 
Q 5669 -431 5356 -431 
L 2969 -431 
Q 2656 -431 2350 -444 
Q 2363 -275 2350 -106 
Q 2656 -125 2969 -125 
L 4369 -125 
Q 4600 431 4881 1288 
L 5206 2300 
Q 5425 2206 5663 2163 
Q 5375 1188 4831 -125 
L 5356 -125 
Q 5669 -125 5981 -106 
z
M 4063 594 
Q 3788 1425 3425 2219 
L 3856 2419 
Q 4225 1600 4513 744 
L 4063 594 
z
M 3163 363 
Q 2931 1200 2613 2006 
L 3056 2175 
Q 3381 1350 3619 488 
L 3163 363 
z
M 4581 2550 
L 3513 2550 
Q 3200 2550 2888 2538 
Q 2900 2663 2894 2769 
Q 2569 2488 2206 2300 
Q 2113 2550 1894 2700 
Q 2488 2975 2975 3463 
Q 3269 3756 3394 4006 
Q 3644 4513 3794 5063 
Q 4038 4975 4294 4931 
Q 4250 4806 4206 4681 
Q 4475 3888 5025 3388 
Q 5519 2938 6169 2650 
Q 5938 2538 5838 2300 
Q 5513 2456 5200 2700 
Q 5200 2619 5206 2538 
Q 4894 2550 4581 2550 
z
M 3513 2863 
L 4994 2869 
Q 4344 3438 3988 4194 
Q 3594 3406 3013 2869 
Q 3263 2863 3513 2863 
z
M 206 444 
Q 188 756 44 963 
Q 319 956 650 1003 
Q 981 1050 1731 1281 
L 1738 1006 
Q 800 719 206 444 
z
M 525 4000 
Q 744 3950 994 3944 
Q 925 3519 875 3081 
L 763 2144 
L 1475 2144 
L 1831 4444 
L 663 4444 
Q 350 4444 38 4431 
Q 56 4600 38 4769 
Q 350 4756 663 4756 
L 2313 4756 
L 1913 2144 
L 2375 2144 
L 2200 -200 
Q 2188 -425 1988 -588 
Q 1694 -800 1181 -788 
L 944 -788 
Q 1000 -450 788 -269 
Q 1013 -294 1334 -287 
Q 1656 -281 1715 -243 
Q 1775 -206 1781 -50 
L 1925 1831 
L 294 1831 
L 444 3131 
Q 500 3569 525 4000 
z
" transform="scale(0.015625)"/>
      </defs>
      <use xlink:href="#WenQuanYiZenHei-6821"/>
      <use xlink:href="#WenQuanYiZenHei-9a8c" x="100"/>
      <use xlink:href="#WenQuanYiZenHei-503c" x="200"/>
     </g>
    </g>
    <g id="line2d_22">
     <path d="M 1298.39375 77.895375 
L 1308.39375 77.895375 
L 1318.39375 77.895375 
" style="fill: none; stroke: #ff0000; stroke-width: 1.5; stroke-linecap: square"/>
    </g>
    <g id="text_20">
     <!-- 预测值 -->
     <g transform="translate(1326.39375 81.395375)scale(0.1 -0.1)">
      <use xlink:href="#WenQuanYiZenHei-9884"/>
      <use xlink:href="#WenQuanYiZenHei-6d4b" x="100"/>
      <use xlink:href="#WenQuanYiZenHei-503c" x="200"/>
     </g>
    </g>
   </g>
  </g>
 </g>
 <defs>
  <clipPath id="p8de6ce8a49">
   <rect x="26.19375" y="35.061" width="1339.2" height="332.64"/>
  </clipPath>
 </defs>
</svg>
