<?xml version="1.0" encoding="utf-8" standalone="no"?>
<!DOCTYPE svg PUBLIC "-//W3C//DTD SVG 1.1//EN"
  "http://www.w3.org/Graphics/SVG/1.1/DTD/svg11.dtd">
<svg xmlns:xlink="http://www.w3.org/1999/xlink" width="1372.59375pt" height="390.418188pt" viewBox="0 0 1372.59375 390.418188" xmlns="http://www.w3.org/2000/svg" version="1.1">
 <metadata>
  <rdf:RDF xmlns:dc="http://purl.org/dc/elements/1.1/" xmlns:cc="http://creativecommons.org/ns#" xmlns:rdf="http://www.w3.org/1999/02/22-rdf-syntax-ns#">
   <cc:Work>
    <dc:type rdf:resource="http://purl.org/dc/dcmitype/StillImage"/>
    <dc:date>2022-07-24T18:13:52.266747</dc:date>
    <dc:format>image/svg+xml</dc:format>
    <dc:creator>
     <cc:Agent>
      <dc:title>Matplotlib v3.5.2, https://matplotlib.org/</dc:title>
     </cc:Agent>
    </dc:creator>
   </cc:Work>
  </rdf:RDF>
 </metadata>
 <defs>
  <style type="text/css">*{stroke-linejoin: round; stroke-linecap: butt}</style>
 </defs>
 <g id="figure_1">
  <g id="patch_1">
   <path d="M 0 390.418188 
L 1372.59375 390.418188 
L 1372.59375 -0 
L 0 -0 
z
" style="fill: #ffffff"/>
  </g>
  <g id="axes_1">
   <g id="patch_2">
    <path d="M 26.19375 367.701 
L 1365.39375 367.701 
L 1365.39375 35.061 
L 26.19375 35.061 
z
" style="fill: #ffffff"/>
   </g>
   <g id="matplotlib.axis_1">
    <g id="xtick_1">
     <g id="line2d_1">
      <defs>
       <path id="m44e1249e3d" d="M 0 0 
L 0 3.5 
" style="stroke: #000000; stroke-width: 0.8"/>
      </defs>
      <g>
       <use xlink:href="#m44e1249e3d" x="58.110802" y="367.701" style="stroke: #000000; stroke-width: 0.8"/>
      </g>
     </g>
     <g id="text_1">
      <!-- 2020-01 -->
      <g transform="translate(38.620958 381.55725)scale(0.1 -0.1)">
       <defs>
        <path id="WenQuanYiZenHei-32" d="M 3488 0 
L 369 0 
L 369 456 
L 2150 1850 
Q 2931 2463 2931 3144 
Q 2931 3619 2488 3863 
Q 2231 4013 1931 4013 
Q 1425 4013 1113 3619 
Q 894 3356 881 3013 
L 369 3169 
Q 531 3981 1213 4300 
Q 1544 4456 1950 4456 
Q 2631 4456 3088 4044 
L 3225 3888 
L 3350 3706 
Q 3481 3444 3481 3144 
Q 3481 2313 2519 1569 
L 1069 456 
L 3488 456 
L 3488 0 
z
" transform="scale(0.015625)"/>
        <path id="WenQuanYiZenHei-30" d="M 3581 2175 
Q 3581 1288 3169 638 
Q 2713 -63 1938 -63 
Q 1025 -63 563 831 
Q 256 1425 256 2188 
Q 256 3188 700 3819 
Q 1138 4456 1888 4456 
Q 2863 4456 3306 3500 
Q 3581 2925 3581 2175 
z
M 3019 2100 
Q 3019 3356 2500 3806 
L 2350 3919 
Q 2144 4031 1888 4031 
Q 1100 4031 888 2956 
Q 819 2625 819 2225 
Q 819 1013 1338 569 
Q 1588 356 1938 356 
Q 2675 356 2925 1294 
Q 3019 1663 3019 2100 
z
" transform="scale(0.015625)"/>
        <path id="WenQuanYiZenHei-2d" d="M 1363 1444 
L 0 1444 
L 0 1844 
L 1363 1844 
L 1363 1444 
z
" transform="scale(0.015625)"/>
        <path id="WenQuanYiZenHei-31" d="M 3556 0 
L 488 0 
L 488 406 
L 1800 406 
L 1800 3725 
Q 1231 3125 588 2788 
L 588 3338 
Q 1456 3781 1931 4388 
L 2331 4388 
L 2331 406 
L 3556 406 
L 3556 0 
z
" transform="scale(0.015625)"/>
       </defs>
       <use xlink:href="#WenQuanYiZenHei-32"/>
       <use xlink:href="#WenQuanYiZenHei-30" x="59.960938"/>
       <use xlink:href="#WenQuanYiZenHei-32" x="119.921875"/>
       <use xlink:href="#WenQuanYiZenHei-30" x="179.882812"/>
       <use xlink:href="#WenQuanYiZenHei-2d" x="239.84375"/>
       <use xlink:href="#WenQuanYiZenHei-30" x="269.824219"/>
       <use xlink:href="#WenQuanYiZenHei-31" x="329.785156"/>
      </g>
     </g>
    </g>
    <g id="xtick_2">
     <g id="line2d_2">
      <g>
       <use xlink:href="#m44e1249e3d" x="177.882006" y="367.701" style="stroke: #000000; stroke-width: 0.8"/>
      </g>
     </g>
     <g id="text_2">
      <!-- 2020-04 -->
      <g transform="translate(158.392162 381.55725)scale(0.1 -0.1)">
       <defs>
        <path id="WenQuanYiZenHei-34" d="M 3631 1025 
L 2913 1025 
L 2913 0 
L 2381 0 
L 2381 1025 
L 219 1025 
L 219 1388 
L 2225 4388 
L 2913 4388 
L 2913 1444 
L 3631 1444 
L 3631 1025 
z
M 2381 1444 
L 2381 3963 
L 788 1444 
L 2381 1444 
z
" transform="scale(0.015625)"/>
       </defs>
       <use xlink:href="#WenQuanYiZenHei-32"/>
       <use xlink:href="#WenQuanYiZenHei-30" x="59.960938"/>
       <use xlink:href="#WenQuanYiZenHei-32" x="119.921875"/>
       <use xlink:href="#WenQuanYiZenHei-30" x="179.882812"/>
       <use xlink:href="#WenQuanYiZenHei-2d" x="239.84375"/>
       <use xlink:href="#WenQuanYiZenHei-30" x="269.824219"/>
       <use xlink:href="#WenQuanYiZenHei-34" x="329.785156"/>
      </g>
     </g>
    </g>
    <g id="xtick_3">
     <g id="line2d_3">
      <g>
       <use xlink:href="#m44e1249e3d" x="297.653209" y="367.701" style="stroke: #000000; stroke-width: 0.8"/>
      </g>
     </g>
     <g id="text_3">
      <!-- 2020-07 -->
      <g transform="translate(278.163366 381.55725)scale(0.1 -0.1)">
       <defs>
        <path id="WenQuanYiZenHei-37" d="M 3400 4056 
Q 1838 2175 1838 0 
L 1275 0 
Q 1269 1438 2056 2825 
Q 2381 3400 2825 3913 
L 444 3913 
L 500 4388 
L 3400 4388 
L 3400 4056 
z
" transform="scale(0.015625)"/>
       </defs>
       <use xlink:href="#WenQuanYiZenHei-32"/>
       <use xlink:href="#WenQuanYiZenHei-30" x="59.960938"/>
       <use xlink:href="#WenQuanYiZenHei-32" x="119.921875"/>
       <use xlink:href="#WenQuanYiZenHei-30" x="179.882812"/>
       <use xlink:href="#WenQuanYiZenHei-2d" x="239.84375"/>
       <use xlink:href="#WenQuanYiZenHei-30" x="269.824219"/>
       <use xlink:href="#WenQuanYiZenHei-37" x="329.785156"/>
      </g>
     </g>
    </g>
    <g id="xtick_4">
     <g id="line2d_4">
      <g>
       <use xlink:href="#m44e1249e3d" x="418.74058" y="367.701" style="stroke: #000000; stroke-width: 0.8"/>
      </g>
     </g>
     <g id="text_4">
      <!-- 2020-10 -->
      <g transform="translate(399.250737 381.55725)scale(0.1 -0.1)">
       <use xlink:href="#WenQuanYiZenHei-32"/>
       <use xlink:href="#WenQuanYiZenHei-30" x="59.960938"/>
       <use xlink:href="#WenQuanYiZenHei-32" x="119.921875"/>
       <use xlink:href="#WenQuanYiZenHei-30" x="179.882812"/>
       <use xlink:href="#WenQuanYiZenHei-2d" x="239.84375"/>
       <use xlink:href="#WenQuanYiZenHei-31" x="269.824219"/>
       <use xlink:href="#WenQuanYiZenHei-30" x="329.785156"/>
      </g>
     </g>
    </g>
    <g id="xtick_5">
     <g id="line2d_5">
      <g>
       <use xlink:href="#m44e1249e3d" x="539.827951" y="367.701" style="stroke: #000000; stroke-width: 0.8"/>
      </g>
     </g>
     <g id="text_5">
      <!-- 2021-01 -->
      <g transform="translate(520.338108 381.55725)scale(0.1 -0.1)">
       <use xlink:href="#WenQuanYiZenHei-32"/>
       <use xlink:href="#WenQuanYiZenHei-30" x="59.960938"/>
       <use xlink:href="#WenQuanYiZenHei-32" x="119.921875"/>
       <use xlink:href="#WenQuanYiZenHei-31" x="179.882812"/>
       <use xlink:href="#WenQuanYiZenHei-2d" x="239.84375"/>
       <use xlink:href="#WenQuanYiZenHei-30" x="269.824219"/>
       <use xlink:href="#WenQuanYiZenHei-31" x="329.785156"/>
      </g>
     </g>
    </g>
    <g id="xtick_6">
     <g id="line2d_6">
      <g>
       <use xlink:href="#m44e1249e3d" x="658.282988" y="367.701" style="stroke: #000000; stroke-width: 0.8"/>
      </g>
     </g>
     <g id="text_6">
      <!-- 2021-04 -->
      <g transform="translate(638.793145 381.55725)scale(0.1 -0.1)">
       <use xlink:href="#WenQuanYiZenHei-32"/>
       <use xlink:href="#WenQuanYiZenHei-30" x="59.960938"/>
       <use xlink:href="#WenQuanYiZenHei-32" x="119.921875"/>
       <use xlink:href="#WenQuanYiZenHei-31" x="179.882812"/>
       <use xlink:href="#WenQuanYiZenHei-2d" x="239.84375"/>
       <use xlink:href="#WenQuanYiZenHei-30" x="269.824219"/>
       <use xlink:href="#WenQuanYiZenHei-34" x="329.785156"/>
      </g>
     </g>
    </g>
    <g id="xtick_7">
     <g id="line2d_7">
      <g>
       <use xlink:href="#m44e1249e3d" x="778.054192" y="367.701" style="stroke: #000000; stroke-width: 0.8"/>
      </g>
     </g>
     <g id="text_7">
      <!-- 2021-07 -->
      <g transform="translate(758.564349 381.55725)scale(0.1 -0.1)">
       <use xlink:href="#WenQuanYiZenHei-32"/>
       <use xlink:href="#WenQuanYiZenHei-30" x="59.960938"/>
       <use xlink:href="#WenQuanYiZenHei-32" x="119.921875"/>
       <use xlink:href="#WenQuanYiZenHei-31" x="179.882812"/>
       <use xlink:href="#WenQuanYiZenHei-2d" x="239.84375"/>
       <use xlink:href="#WenQuanYiZenHei-30" x="269.824219"/>
       <use xlink:href="#WenQuanYiZenHei-37" x="329.785156"/>
      </g>
     </g>
    </g>
    <g id="xtick_8">
     <g id="line2d_8">
      <g>
       <use xlink:href="#m44e1249e3d" x="899.141563" y="367.701" style="stroke: #000000; stroke-width: 0.8"/>
      </g>
     </g>
     <g id="text_8">
      <!-- 2021-10 -->
      <g transform="translate(879.65172 381.55725)scale(0.1 -0.1)">
       <use xlink:href="#WenQuanYiZenHei-32"/>
       <use xlink:href="#WenQuanYiZenHei-30" x="59.960938"/>
       <use xlink:href="#WenQuanYiZenHei-32" x="119.921875"/>
       <use xlink:href="#WenQuanYiZenHei-31" x="179.882812"/>
       <use xlink:href="#WenQuanYiZenHei-2d" x="239.84375"/>
       <use xlink:href="#WenQuanYiZenHei-31" x="269.824219"/>
       <use xlink:href="#WenQuanYiZenHei-30" x="329.785156"/>
      </g>
     </g>
    </g>
    <g id="xtick_9">
     <g id="line2d_9">
      <g>
       <use xlink:href="#m44e1249e3d" x="1020.228934" y="367.701" style="stroke: #000000; stroke-width: 0.8"/>
      </g>
     </g>
     <g id="text_9">
      <!-- 2022-01 -->
      <g transform="translate(1000.739091 381.55725)scale(0.1 -0.1)">
       <use xlink:href="#WenQuanYiZenHei-32"/>
       <use xlink:href="#WenQuanYiZenHei-30" x="59.960938"/>
       <use xlink:href="#WenQuanYiZenHei-32" x="119.921875"/>
       <use xlink:href="#WenQuanYiZenHei-32" x="179.882812"/>
       <use xlink:href="#WenQuanYiZenHei-2d" x="239.84375"/>
       <use xlink:href="#WenQuanYiZenHei-30" x="269.824219"/>
       <use xlink:href="#WenQuanYiZenHei-31" x="329.785156"/>
      </g>
     </g>
    </g>
    <g id="xtick_10">
     <g id="line2d_10">
      <g>
       <use xlink:href="#m44e1249e3d" x="1138.683971" y="367.701" style="stroke: #000000; stroke-width: 0.8"/>
      </g>
     </g>
     <g id="text_10">
      <!-- 2022-04 -->
      <g transform="translate(1119.194127 381.55725)scale(0.1 -0.1)">
       <use xlink:href="#WenQuanYiZenHei-32"/>
       <use xlink:href="#WenQuanYiZenHei-30" x="59.960938"/>
       <use xlink:href="#WenQuanYiZenHei-32" x="119.921875"/>
       <use xlink:href="#WenQuanYiZenHei-32" x="179.882812"/>
       <use xlink:href="#WenQuanYiZenHei-2d" x="239.84375"/>
       <use xlink:href="#WenQuanYiZenHei-30" x="269.824219"/>
       <use xlink:href="#WenQuanYiZenHei-34" x="329.785156"/>
      </g>
     </g>
    </g>
    <g id="xtick_11">
     <g id="line2d_11">
      <g>
       <use xlink:href="#m44e1249e3d" x="1258.455175" y="367.701" style="stroke: #000000; stroke-width: 0.8"/>
      </g>
     </g>
     <g id="text_11">
      <!-- 2022-07 -->
      <g transform="translate(1238.965331 381.55725)scale(0.1 -0.1)">
       <use xlink:href="#WenQuanYiZenHei-32"/>
       <use xlink:href="#WenQuanYiZenHei-30" x="59.960938"/>
       <use xlink:href="#WenQuanYiZenHei-32" x="119.921875"/>
       <use xlink:href="#WenQuanYiZenHei-32" x="179.882812"/>
       <use xlink:href="#WenQuanYiZenHei-2d" x="239.84375"/>
       <use xlink:href="#WenQuanYiZenHei-30" x="269.824219"/>
       <use xlink:href="#WenQuanYiZenHei-37" x="329.785156"/>
      </g>
     </g>
    </g>
   </g>
   <g id="matplotlib.axis_2">
    <g id="ytick_1">
     <g id="line2d_12">
      <defs>
       <path id="mc7a20cf656" d="M 0 0 
L -3.5 0 
" style="stroke: #000000; stroke-width: 0.8"/>
      </defs>
      <g>
       <use xlink:href="#mc7a20cf656" x="26.19375" y="348.981" style="stroke: #000000; stroke-width: 0.8"/>
      </g>
     </g>
     <g id="text_12">
      <!-- 0 -->
      <g transform="translate(13.196875 352.409125)scale(0.1 -0.1)">
       <use xlink:href="#WenQuanYiZenHei-30"/>
      </g>
     </g>
    </g>
    <g id="ytick_2">
     <g id="line2d_13">
      <g>
       <use xlink:href="#mc7a20cf656" x="26.19375" y="276.981" style="stroke: #000000; stroke-width: 0.8"/>
      </g>
     </g>
     <g id="text_13">
      <!-- 20 -->
      <g transform="translate(7.2 280.409125)scale(0.1 -0.1)">
       <use xlink:href="#WenQuanYiZenHei-32"/>
       <use xlink:href="#WenQuanYiZenHei-30" x="59.960938"/>
      </g>
     </g>
    </g>
    <g id="ytick_3">
     <g id="line2d_14">
      <g>
       <use xlink:href="#mc7a20cf656" x="26.19375" y="204.981" style="stroke: #000000; stroke-width: 0.8"/>
      </g>
     </g>
     <g id="text_14">
      <!-- 40 -->
      <g transform="translate(7.2 208.409125)scale(0.1 -0.1)">
       <use xlink:href="#WenQuanYiZenHei-34"/>
       <use xlink:href="#WenQuanYiZenHei-30" x="59.960938"/>
      </g>
     </g>
    </g>
    <g id="ytick_4">
     <g id="line2d_15">
      <g>
       <use xlink:href="#mc7a20cf656" x="26.19375" y="132.981" style="stroke: #000000; stroke-width: 0.8"/>
      </g>
     </g>
     <g id="text_15">
      <!-- 60 -->
      <g transform="translate(7.2 136.409125)scale(0.1 -0.1)">
       <defs>
        <path id="WenQuanYiZenHei-36" d="M 3550 1431 
Q 3550 725 3006 288 
Q 2581 -63 1994 -63 
Q 1013 -63 563 825 
Q 288 1363 288 2081 
Q 288 3294 856 3938 
Q 1319 4456 2075 4456 
Q 2969 4456 3363 3756 
Q 3431 3631 3481 3481 
L 2988 3350 
Q 2750 3994 2075 4006 
Q 1056 4006 844 2669 
Q 794 2356 794 1981 
L 806 1981 
Q 1006 2506 1544 2744 
Q 1819 2869 2119 2869 
Q 2788 2869 3213 2375 
Q 3550 1975 3550 1431 
z
M 3038 1406 
Q 3038 1906 2656 2213 
Q 2381 2431 2038 2431 
Q 1525 2431 1181 2044 
Q 919 1744 919 1356 
Q 919 881 1344 581 
Q 1631 375 1981 375 
Q 2519 375 2838 781 
Q 3038 1050 3038 1406 
z
" transform="scale(0.015625)"/>
       </defs>
       <use xlink:href="#WenQuanYiZenHei-36"/>
       <use xlink:href="#WenQuanYiZenHei-30" x="59.960938"/>
      </g>
     </g>
    </g>
    <g id="ytick_5">
     <g id="line2d_16">
      <g>
       <use xlink:href="#mc7a20cf656" x="26.19375" y="60.981" style="stroke: #000000; stroke-width: 0.8"/>
      </g>
     </g>
     <g id="text_16">
      <!-- 80 -->
      <g transform="translate(7.2 64.409125)scale(0.1 -0.1)">
       <defs>
        <path id="WenQuanYiZenHei-38" d="M 3619 1175 
Q 3619 431 2850 100 
Q 2444 -63 1944 -63 
Q 1231 -63 725 269 
Q 225 594 225 1125 
Q 225 1881 1269 2281 
Q 719 2481 519 2938 
Q 444 3119 444 3319 
Q 444 4000 1144 4294 
Q 1519 4456 1963 4456 
Q 2669 4456 3094 4094 
Q 3425 3813 3425 3369 
Q 3425 2638 2575 2356 
Q 3231 2056 3450 1725 
Q 3619 1488 3619 1175 
z
M 2944 3344 
Q 2944 3906 2288 4019 
Q 2138 4044 1969 4044 
Q 1438 4044 1163 3775 
Q 1000 3613 1000 3375 
Q 1000 2925 1594 2663 
Q 1756 2588 1931 2550 
Q 2581 2725 2788 2956 
Q 2944 3125 2944 3344 
z
M 3075 1094 
Q 3075 1738 1875 2050 
Q 1094 1881 850 1463 
Q 763 1313 763 1131 
Q 763 569 1456 406 
Q 1681 344 1944 344 
Q 2519 344 2850 619 
Q 3075 813 3075 1094 
z
" transform="scale(0.015625)"/>
       </defs>
       <use xlink:href="#WenQuanYiZenHei-38"/>
       <use xlink:href="#WenQuanYiZenHei-30" x="59.960938"/>
      </g>
     </g>
    </g>
   </g>
   <g id="line2d_17">
    <path d="M 87.066477 320.181 
L 88.382644 298.581 
L 89.698811 330.981 
L 91.014979 251.781 
L 92.331146 305.781 
L 93.647313 309.381 
L 94.96348 276.981 
L 96.279647 338.181 
L 97.595814 258.981 
L 98.911981 244.581 
L 100.228148 266.181 
L 101.544315 273.381 
L 102.860482 291.381 
L 104.176649 258.981 
L 105.492816 273.381 
L 106.808983 266.181 
L 108.12515 284.181 
L 109.441318 309.381 
L 110.757485 309.381 
L 112.073652 330.981 
L 113.389819 312.981 
L 114.705986 298.581 
L 116.022153 327.381 
L 117.33832 338.181 
L 118.654487 330.981 
L 119.970654 345.381 
L 121.286821 327.381 
L 122.602988 327.381 
L 123.919155 341.781 
L 125.235322 345.381 
L 126.55149 338.181 
L 127.867657 348.981 
L 129.183824 348.981 
L 130.499991 345.381 
L 131.816158 348.981 
L 133.132325 312.981 
L 134.448492 348.981 
L 137.080826 341.781 
L 139.71316 348.981 
L 141.029327 334.581 
L 142.345494 348.981 
L 143.661662 334.581 
L 144.977829 334.581 
L 147.610163 348.981 
L 148.92633 345.381 
L 150.242497 327.381 
L 151.558664 348.981 
L 152.874831 345.381 
L 154.190998 345.381 
L 155.507165 330.981 
L 156.823332 312.981 
L 158.139499 334.581 
L 159.455666 302.181 
L 160.771834 309.381 
L 162.088001 309.381 
L 163.404168 302.181 
L 164.720335 284.181 
L 166.036502 294.981 
L 167.352669 273.381 
L 168.668836 338.181 
L 169.985003 330.981 
L 171.30117 338.181 
L 172.617337 334.581 
L 173.933504 334.581 
L 175.249671 348.981 
L 176.565838 338.181 
L 177.882006 348.981 
L 179.198173 341.781 
L 180.51434 341.781 
L 181.830507 345.381 
L 184.462841 345.381 
L 185.779008 348.981 
L 187.095175 345.381 
L 188.411342 348.981 
L 189.727509 348.981 
L 191.043676 345.381 
L 192.359843 348.981 
L 194.992178 348.981 
L 196.308345 345.381 
L 197.624512 338.181 
L 198.940679 348.981 
L 259.484364 348.981 
L 260.800531 345.381 
L 262.116698 348.981 
L 270.013701 348.981 
L 271.329868 345.381 
L 272.646035 327.381 
L 273.962202 219.381 
L 275.278369 219.381 
L 276.594536 251.781 
L 277.910703 237.381 
L 279.22687 273.381 
L 280.543037 258.981 
L 281.859205 348.981 
L 283.175372 190.581 
L 284.491539 316.581 
L 285.807706 302.181 
L 287.123873 323.781 
L 288.44004 302.181 
L 289.756207 309.381 
L 291.072374 287.781 
L 292.388541 298.581 
L 293.704708 323.781 
L 295.020875 323.781 
L 296.337042 338.181 
L 297.653209 345.381 
L 298.969377 341.781 
L 300.285544 345.381 
L 301.601711 341.781 
L 304.234045 348.981 
L 330.557386 348.981 
L 331.873553 341.781 
L 333.189721 345.381 
L 334.505888 345.381 
L 335.822055 348.981 
L 341.086723 348.981 
L 342.40289 345.381 
L 343.719057 348.981 
L 345.035224 345.381 
L 346.351391 348.981 
L 408.211244 348.981 
L 409.527411 345.381 
L 410.843578 348.981 
L 430.586084 348.981 
L 431.902251 345.381 
L 433.218418 348.981 
L 441.115421 348.981 
L 442.431588 345.381 
L 443.747755 348.981 
L 446.380089 348.981 
L 447.696256 341.781 
L 449.012423 348.981 
L 450.32859 348.981 
L 451.644757 345.381 
L 452.960924 348.981 
L 454.277092 345.381 
L 455.593259 348.981 
L 459.54176 348.981 
L 460.857927 341.781 
L 462.174094 348.981 
L 463.490261 345.381 
L 464.806428 348.981 
L 468.754929 348.981 
L 470.071096 341.781 
L 471.387264 348.981 
L 481.9166 348.981 
L 483.232767 345.381 
L 484.548934 348.981 
L 485.865101 345.381 
L 487.181268 345.381 
L 488.497436 348.981 
L 496.394438 348.981 
L 497.710605 345.381 
L 499.026772 348.981 
L 501.659106 348.981 
L 502.975273 345.381 
L 504.29144 348.981 
L 512.188443 348.981 
L 513.50461 341.781 
L 514.820777 345.381 
L 517.453111 345.381 
L 518.769278 348.981 
L 520.085445 348.981 
L 521.401612 341.781 
L 522.717779 341.781 
L 524.033947 348.981 
L 529.298615 348.981 
L 530.614782 341.781 
L 531.930949 320.181 
L 533.247116 345.381 
L 534.563283 323.781 
L 535.87945 345.381 
L 537.195617 341.781 
L 538.511784 330.981 
L 539.827951 345.381 
L 541.144119 341.781 
L 542.460286 341.781 
L 543.776453 345.381 
L 545.09262 345.381 
L 546.408787 348.981 
L 547.724954 345.381 
L 549.041121 348.981 
L 550.357288 345.381 
L 552.989622 345.381 
L 554.305789 348.981 
L 555.621956 345.381 
L 556.938123 348.981 
L 558.254291 341.781 
L 559.570458 341.781 
L 560.886625 338.181 
L 562.202792 345.381 
L 563.518959 323.781 
L 564.835126 338.181 
L 567.46746 338.181 
L 568.783627 341.781 
L 570.099794 338.181 
L 571.415961 341.781 
L 572.732128 334.581 
L 574.048295 348.981 
L 575.364463 345.381 
L 576.68063 345.381 
L 577.996797 348.981 
L 579.312964 341.781 
L 581.945298 348.981 
L 583.261465 330.981 
L 584.577632 348.981 
L 585.893799 348.981 
L 587.209966 341.781 
L 588.526133 348.981 
L 605.636305 348.981 
L 606.952472 345.381 
L 608.268639 348.981 
L 614.849475 348.981 
L 616.165642 341.781 
L 617.481809 348.981 
L 658.282988 348.981 
L 659.599155 345.381 
L 660.915322 348.981 
L 662.23149 341.781 
L 663.547657 348.981 
L 664.863824 345.381 
L 666.179991 348.981 
L 667.496158 345.381 
L 671.444659 345.381 
L 672.760826 348.981 
L 724.091342 348.981 
L 725.407509 345.381 
L 726.723676 348.981 
L 729.35601 348.981 
L 730.672178 345.381 
L 731.988345 348.981 
L 738.56918 348.981 
L 739.885347 345.381 
L 741.201514 345.381 
L 742.517681 341.781 
L 745.150015 348.981 
L 747.78235 341.781 
L 749.098517 348.981 
L 750.414684 345.381 
L 751.730851 345.381 
L 753.047018 348.981 
L 754.363185 345.381 
L 755.679352 345.381 
L 756.995519 348.981 
L 758.311686 345.381 
L 759.627853 348.981 
L 760.94402 345.381 
L 762.260187 348.981 
L 763.576354 341.781 
L 764.892521 348.981 
L 767.524856 348.981 
L 768.841023 345.381 
L 770.15719 348.981 
L 772.789524 341.781 
L 774.105691 352.581 
L 775.421858 348.981 
L 791.215863 348.981 
L 792.53203 345.381 
L 793.848197 348.981 
L 797.796698 348.981 
L 799.112865 334.581 
L 800.429033 345.381 
L 801.7452 345.381 
L 803.061367 348.981 
L 808.326035 348.981 
L 809.642202 345.381 
L 810.958369 348.981 
L 812.274536 345.381 
L 814.90687 345.381 
L 816.223037 348.981 
L 817.539205 348.981 
L 818.855372 327.381 
L 820.171539 345.381 
L 821.487706 348.981 
L 822.803873 338.181 
L 824.12004 348.981 
L 826.752374 348.981 
L 828.068541 338.181 
L 829.384708 348.981 
L 830.700875 345.381 
L 832.017042 348.981 
L 835.965544 348.981 
L 837.281711 341.781 
L 838.597878 348.981 
L 839.914045 341.781 
L 841.230212 345.381 
L 842.546379 341.781 
L 843.862546 341.781 
L 845.178713 345.381 
L 846.49488 341.781 
L 847.811047 348.981 
L 855.70805 348.981 
L 857.024217 345.381 
L 858.340384 345.381 
L 859.656551 348.981 
L 862.288885 348.981 
L 863.605052 345.381 
L 864.921219 348.981 
L 874.134389 348.981 
L 875.450556 345.381 
L 876.766723 348.981 
L 888.612227 348.981 
L 889.928394 345.381 
L 891.244561 348.981 
L 892.560728 338.181 
L 893.876895 348.981 
L 896.509229 348.981 
L 897.825396 345.381 
L 899.141563 348.981 
L 900.45773 348.981 
L 901.773897 345.381 
L 903.090064 348.981 
L 904.406232 348.981 
L 905.722399 345.381 
L 907.038566 348.981 
L 912.303234 348.981 
L 913.619401 345.381 
L 914.935568 348.981 
L 917.567902 348.981 
L 918.884069 345.381 
L 920.200236 348.981 
L 921.516404 348.981 
L 922.832571 345.381 
L 924.148738 348.981 
L 925.464905 345.381 
L 926.781072 327.381 
L 928.097239 330.981 
L 929.413406 341.781 
L 930.729573 334.581 
L 932.04574 338.181 
L 933.361907 334.581 
L 934.678074 338.181 
L 935.994241 334.581 
L 937.310408 345.381 
L 938.626576 348.981 
L 939.942743 341.781 
L 941.25891 316.581 
L 942.575077 348.981 
L 945.207411 348.981 
L 946.523578 345.381 
L 950.472079 345.381 
L 951.788246 341.781 
L 953.104413 334.581 
L 955.736748 348.981 
L 957.052915 348.981 
L 958.369082 345.381 
L 959.685249 345.381 
L 961.001416 338.181 
L 962.317583 348.981 
L 963.63375 348.981 
L 964.949917 345.381 
L 966.266084 348.981 
L 979.427755 348.981 
L 980.743922 338.181 
L 982.060089 348.981 
L 984.692423 348.981 
L 986.00859 345.381 
L 987.324757 348.981 
L 988.640924 348.981 
L 989.957092 345.381 
L 991.273259 348.981 
L 992.589426 348.981 
L 993.905593 341.781 
L 995.22176 348.981 
L 997.854094 348.981 
L 999.170261 345.381 
L 1000.486428 345.381 
L 1001.802595 348.981 
L 1003.118762 334.581 
L 1004.434929 345.381 
L 1005.751096 348.981 
L 1009.699598 348.981 
L 1012.331932 341.781 
L 1013.648099 348.981 
L 1014.964266 348.981 
L 1016.280433 345.381 
L 1017.5966 348.981 
L 1018.912767 341.781 
L 1020.228934 348.981 
L 1021.545101 334.581 
L 1022.861268 348.981 
L 1024.177436 345.381 
L 1025.493603 348.981 
L 1026.80977 345.381 
L 1028.125937 348.981 
L 1029.442104 345.381 
L 1030.758271 348.981 
L 1033.390605 341.781 
L 1034.706772 345.381 
L 1036.022939 345.381 
L 1037.339106 348.981 
L 1038.655273 341.781 
L 1039.97144 345.381 
L 1041.287607 334.581 
L 1042.603775 327.381 
L 1043.919942 334.581 
L 1045.236109 323.781 
L 1046.552276 309.381 
L 1049.18461 323.781 
L 1050.500777 320.181 
L 1051.816944 291.381 
L 1053.133111 330.981 
L 1054.449278 312.981 
L 1055.765445 330.981 
L 1057.081612 266.181 
L 1058.397779 338.181 
L 1059.713947 334.581 
L 1061.030114 338.181 
L 1062.346281 334.581 
L 1063.662448 341.781 
L 1064.978615 345.381 
L 1066.294782 345.381 
L 1067.610949 334.581 
L 1068.927116 345.381 
L 1070.243283 345.381 
L 1071.55945 348.981 
L 1074.191784 348.981 
L 1075.507951 341.781 
L 1076.824119 348.981 
L 1078.140286 345.381 
L 1079.456453 348.981 
L 1082.088787 348.981 
L 1083.404954 334.581 
L 1084.721121 327.381 
L 1086.037288 316.581 
L 1087.353455 320.181 
L 1088.669622 284.181 
L 1089.985789 316.581 
L 1091.301956 312.981 
L 1092.618123 330.981 
L 1093.934291 312.981 
L 1095.250458 276.981 
L 1096.566625 305.781 
L 1097.882792 330.981 
L 1099.198959 309.381 
L 1100.515126 316.581 
L 1101.831293 316.581 
L 1103.14746 302.181 
L 1104.463627 327.381 
L 1105.779794 269.781 
L 1107.095961 309.381 
L 1108.412128 284.181 
L 1109.728295 276.981 
L 1111.044463 327.381 
L 1112.36063 284.181 
L 1113.676797 316.581 
L 1114.992964 294.981 
L 1116.309131 305.781 
L 1117.625298 305.781 
L 1118.941465 298.581 
L 1120.257632 309.381 
L 1121.573799 294.981 
L 1122.889966 320.181 
L 1124.206133 312.981 
L 1125.5223 330.981 
L 1126.838467 334.581 
L 1128.154635 330.981 
L 1129.470802 320.181 
L 1130.786969 341.781 
L 1132.103136 341.781 
L 1133.419303 338.181 
L 1134.73547 338.181 
L 1136.051637 341.781 
L 1137.367804 341.781 
L 1138.683971 320.181 
L 1140.000138 348.981 
L 1141.316305 334.581 
L 1142.632472 312.981 
L 1143.948639 334.581 
L 1145.264807 330.981 
L 1146.580974 316.581 
L 1147.897141 320.181 
L 1149.213308 334.581 
L 1150.529475 345.381 
L 1151.845642 334.581 
L 1153.161809 348.981 
L 1154.477976 341.781 
L 1155.794143 338.181 
L 1157.11031 345.381 
L 1158.426477 348.981 
L 1159.742644 323.781 
L 1161.058811 338.181 
L 1163.691146 345.381 
L 1165.007313 345.381 
L 1166.32348 320.181 
L 1167.639647 269.781 
L 1168.955814 294.981 
L 1170.271981 233.781 
L 1171.588148 237.381 
L 1172.904315 172.581 
L 1174.220482 172.581 
L 1175.536649 168.981 
L 1176.852816 158.181 
L 1178.168983 219.381 
L 1179.48515 165.381 
L 1182.117485 194.181 
L 1183.433652 150.981 
L 1184.749819 183.381 
L 1186.065986 190.581 
L 1187.382153 230.181 
L 1188.69832 125.781 
L 1190.014487 258.981 
L 1191.330654 222.981 
L 1192.646821 194.181 
L 1193.962988 233.781 
L 1195.279155 230.181 
L 1196.595322 208.581 
L 1197.91149 194.181 
L 1199.227657 161.781 
L 1200.543824 168.981 
L 1201.859991 165.381 
L 1203.176158 140.181 
L 1204.492325 161.781 
L 1205.808492 50.181 
L 1207.124659 201.381 
L 1208.440826 201.381 
L 1209.756993 215.781 
L 1211.07316 266.181 
L 1212.389327 276.981 
L 1215.021662 320.181 
L 1216.337829 291.381 
L 1217.653996 298.581 
L 1218.970163 348.981 
L 1220.28633 280.581 
L 1221.602497 316.581 
L 1222.918664 348.981 
L 1224.234831 269.781 
L 1225.550998 348.981 
L 1226.867165 334.581 
L 1228.183332 341.781 
L 1229.499499 316.581 
L 1230.815666 208.581 
L 1233.448001 244.581 
L 1234.764168 197.781 
L 1236.080335 258.981 
L 1237.396502 294.981 
L 1238.712669 302.181 
L 1240.028836 341.781 
L 1241.345003 345.381 
L 1242.66117 334.581 
L 1243.977337 334.581 
L 1245.293504 330.981 
L 1246.609671 334.581 
L 1247.925838 330.981 
L 1249.242006 330.981 
L 1250.558173 345.381 
L 1251.87434 338.181 
L 1253.190507 345.381 
L 1254.506674 345.381 
L 1255.822841 338.181 
L 1257.139008 348.981 
L 1258.455175 348.981 
L 1259.771342 345.381 
L 1261.087509 345.381 
L 1263.719843 323.781 
L 1265.03601 327.381 
L 1266.352178 348.981 
L 1267.668345 338.181 
L 1268.984512 338.181 
L 1270.300679 341.781 
L 1271.616846 348.981 
L 1275.565347 348.981 
L 1276.881514 341.781 
L 1278.197681 341.781 
L 1279.513848 345.381 
L 1280.830015 334.581 
L 1283.46235 341.781 
L 1284.778517 338.181 
L 1286.094684 341.781 
L 1287.410851 341.781 
L 1287.410851 341.781 
" clip-path="url(#pb321159bd0)" style="fill: none; stroke: #0000ff; stroke-width: 1.5; stroke-linecap: square"/>
   </g>
   <g id="line2d_18">
    <path d="M 1047.868443 312.17431 
L 1049.18461 317.676443 
L 1050.500777 322.599349 
L 1051.816944 308.299933 
L 1053.133111 310.451013 
L 1054.449278 317.121272 
L 1055.765445 326.862897 
L 1057.081612 298.631515 
L 1058.397779 304.515611 
L 1061.030114 345.011543 
L 1062.346281 335.920632 
L 1063.662448 338.460418 
L 1064.978615 342.547421 
L 1066.294782 346.029709 
L 1067.610949 340.953861 
L 1068.927116 340.072078 
L 1070.243283 343.457043 
L 1071.55945 348.290077 
L 1072.875617 348.76969 
L 1074.191784 349.411009 
L 1075.507951 345.742901 
L 1076.824119 345.441718 
L 1078.140286 346.079313 
L 1079.456453 348.071378 
L 1080.77262 348.339681 
L 1082.088787 349.411009 
L 1083.404954 342.504802 
L 1086.037288 321.226434 
L 1087.353455 317.97396 
L 1088.669622 302.489168 
L 1089.985789 301.295552 
L 1091.301956 308.760071 
L 1092.618123 325.15764 
L 1093.934291 321.399195 
L 1095.250458 299.9971 
L 1096.566625 289.896447 
L 1097.882792 311.123776 
L 1099.198959 323.227608 
L 1100.515126 316.897022 
L 1101.831293 313.578325 
L 1103.14746 310.964821 
L 1104.463627 314.359585 
L 1105.779794 298.277003 
L 1107.095961 293.981565 
L 1108.412128 288.843099 
L 1109.728295 287.152171 
L 1111.044463 297.060248 
L 1112.36063 304.134051 
L 1113.676797 307.308291 
L 1114.992964 299.804805 
L 1116.309131 304.97609 
L 1117.625298 302.567015 
L 1118.941465 303.832929 
L 1120.257632 303.860768 
L 1121.573799 301.410854 
L 1122.889966 308.449613 
L 1124.206133 313.743696 
L 1125.5223 324.508931 
L 1126.838467 330.683482 
L 1128.154635 334.900687 
L 1129.470802 326.765171 
L 1130.786969 330.099217 
L 1132.103136 339.223114 
L 1133.419303 342.742006 
L 1134.73547 338.39231 
L 1136.051637 339.37004 
L 1137.367804 341.56969 
L 1138.683971 332.496712 
L 1140.000138 334.401254 
L 1141.316305 338.234269 
L 1142.632472 329.152016 
L 1143.948639 322.243119 
L 1145.264807 329.114037 
L 1146.580974 327.296167 
L 1147.897141 318.615279 
L 1149.213308 324.725851 
L 1150.529475 339.022918 
L 1151.845642 341.609959 
L 1153.161809 342.981155 
L 1154.477976 343.607634 
L 1155.794143 342.304607 
L 1157.11031 340.77039 
L 1158.426477 346.147421 
L 1159.742644 338.296362 
L 1161.058811 332.166375 
L 1162.374979 335.944746 
L 1163.691146 344.908776 
L 1165.007313 345.599699 
L 1166.32348 334.477663 
L 1167.639647 298.993476 
L 1168.955814 281.062619 
L 1170.271981 259.957862 
L 1171.588148 242.00238 
L 1172.904315 200.716644 
L 1174.220482 176.814585 
L 1175.536649 163.221785 
L 1176.852816 164.335161 
L 1178.168983 185.908761 
L 1179.48515 190.212964 
L 1180.801318 182.337001 
L 1183.433652 175.627204 
L 1184.749819 169.808199 
L 1186.065986 179.557201 
L 1187.382153 211.838007 
L 1188.69832 181.764177 
L 1190.014487 196.543915 
L 1191.330654 222.501777 
L 1192.646821 228.052042 
L 1193.962988 209.38093 
L 1195.279155 226.397469 
L 1196.595322 225.408114 
L 1197.91149 202.942652 
L 1199.227657 177.874739 
L 1200.543824 165.20085 
L 1201.859991 163.069248 
L 1203.176158 155.118982 
L 1204.492325 150.944456 
L 1205.808492 107.312544 
L 1207.124659 127.311735 
L 1208.440826 179.175704 
L 1209.756993 225.917584 
L 1211.07316 237.602453 
L 1212.389327 269.799848 
L 1213.705494 292.081496 
L 1215.021662 308.317466 
L 1216.337829 308.540801 
L 1217.653996 298.889632 
L 1218.970163 317.384999 
L 1220.28633 316.120742 
L 1221.602497 306.806509 
L 1222.918664 320.869173 
L 1224.234831 315.760216 
L 1225.550998 313.918986 
L 1226.867165 328.395785 
L 1228.183332 348.12454 
L 1229.499499 328.304997 
L 1230.815666 270.348703 
L 1232.131834 220.005476 
L 1233.448001 220.719422 
L 1234.764168 224.626854 
L 1236.080335 230.201914 
L 1238.712669 303.416158 
L 1240.028836 323.868016 
L 1241.345003 341.93566 
L 1242.66117 345.042643 
L 1243.977337 335.644939 
L 1245.293504 331.671923 
L 1246.609671 332.811359 
L 1247.925838 332.320632 
L 1249.242006 331.622319 
L 1250.558173 337.027189 
L 1251.87434 341.297662 
L 1253.190507 343.561755 
L 1254.506674 344.098362 
L 1255.822841 343.002919 
L 1257.139008 343.460768 
L 1258.455175 347.487052 
L 1259.771342 348.651978 
L 1261.087509 345.59231 
L 1262.403676 340.093842 
L 1263.719843 330.357781 
L 1265.03601 324.743951 
L 1266.352178 335.593959 
L 1267.668345 343.286002 
L 1268.984512 341.394985 
L 1270.300679 338.510022 
L 1271.616846 344.807789 
L 1272.933013 348.98839 
L 1274.24918 349.841018 
L 1275.565347 348.981 
L 1276.881514 345.742901 
L 1278.197681 342.20362 
L 1279.513848 342.540031 
L 1280.830015 340.312542 
L 1282.146182 337.263988 
L 1283.46235 338.298712 
L 1284.778517 340.38065 
L 1286.094684 340.441368 
L 1287.410851 341.139681 
L 1287.410851 341.139681 
" clip-path="url(#pb321159bd0)" style="fill: none; stroke: #ffa500; stroke-width: 1.5; stroke-linecap: square"/>
   </g>
   <g id="line2d_19">
    <path d="M 1287.410851 341.139681 
L 1288.727018 341.922585 
L 1290.043185 341.529425 
L 1291.359352 341.623209 
L 1292.675519 341.688196 
L 1293.991686 341.599969 
L 1295.307853 341.655905 
L 1296.62402 341.638066 
L 1297.940187 341.634061 
L 1299.256354 341.643993 
L 1300.572521 341.636632 
L 1301.888689 341.639621 
L 1303.204856 341.639595 
L 1304.521023 341.638555 
" clip-path="url(#pb321159bd0)" style="fill: none; stroke: #ff0000; stroke-width: 1.5; stroke-linecap: square"/>
   </g>
   <g id="patch_3">
    <path d="M 26.19375 367.701 
L 26.19375 35.061 
" style="fill: none; stroke: #000000; stroke-width: 0.8; stroke-linejoin: miter; stroke-linecap: square"/>
   </g>
   <g id="patch_4">
    <path d="M 1365.39375 367.701 
L 1365.39375 35.061 
" style="fill: none; stroke: #000000; stroke-width: 0.8; stroke-linejoin: miter; stroke-linecap: square"/>
   </g>
   <g id="patch_5">
    <path d="M 26.19375 367.701 
L 1365.39375 367.701 
" style="fill: none; stroke: #000000; stroke-width: 0.8; stroke-linejoin: miter; stroke-linecap: square"/>
   </g>
   <g id="patch_6">
    <path d="M 26.19375 35.061 
L 1365.39375 35.061 
" style="fill: none; stroke: #000000; stroke-width: 0.8; stroke-linejoin: miter; stroke-linecap: square"/>
   </g>
   <g id="text_17">
    <!-- 每日新增预测 - 北京 -->
    <g transform="translate(642.396563 17.041875)scale(0.12 -0.12)">
     <defs>
      <path id="WenQuanYiZenHei-6bcf" d="M 6138 2181 
Q 6113 1988 6138 1800 
Q 5788 1819 5438 1819 
L 4975 1819 
L 4863 738 
L 5806 738 
L 5806 394 
L 4831 394 
L 4775 -144 
Q 4719 -563 4350 -725 
Q 4013 -856 3550 -825 
L 3288 -819 
Q 3331 -663 3275 -519 
Q 3219 -375 3113 -288 
Q 3381 -313 3759 -303 
Q 4138 -294 4231 -238 
Q 4338 -163 4350 88 
L 4381 394 
L 1025 394 
L 1244 1819 
L 813 1819 
Q 463 1819 113 1800 
Q 138 1988 113 2181 
Q 463 2163 813 2163 
L 1294 2163 
L 1488 3431 
L 1488 3581 
L 1506 3581 
L 1513 3613 
L 1713 3581 
L 5156 3581 
L 5013 2163 
L 5438 2163 
Q 5788 2163 6138 2181 
z
M 5588 4463 
Q 5569 4269 5588 4081 
Q 5244 4100 4894 4100 
L 1813 4100 
Q 1344 3463 606 2788 
Q 481 2988 256 3069 
Q 744 3494 1116 3972 
Q 1488 4450 1919 5181 
Q 2119 5044 2344 4950 
Q 2213 4688 2050 4444 
L 4894 4444 
Q 5238 4444 5588 4463 
z
M 2844 3238 
L 1906 3238 
L 1744 2163 
L 3244 2163 
L 2581 3038 
L 2844 3238 
z
M 3250 2163 
L 4563 2163 
L 4669 3238 
L 3044 3238 
L 3638 2456 
L 3250 2163 
z
M 2944 1819 
Q 3275 1394 3550 938 
L 3213 738 
L 4419 738 
L 4525 1819 
L 2944 1819 
z
M 2656 1819 
L 1694 1819 
L 1525 738 
L 3094 738 
Q 2806 1219 2450 1650 
L 2656 1819 
z
" transform="scale(0.015625)"/>
      <path id="WenQuanYiZenHei-65e5" d="M 1494 -775 
Q 1244 -750 988 -775 
Q 1013 -313 1013 156 
L 1013 4875 
L 5269 4875 
L 5269 -763 
L 4813 -763 
L 4813 156 
L 1469 156 
Q 1469 -313 1494 -775 
z
M 4813 2700 
L 4813 4500 
L 1469 4500 
L 1469 2700 
L 4813 2700 
z
M 4813 531 
L 4813 2325 
L 1469 2325 
L 1469 531 
L 4813 531 
z
" transform="scale(0.015625)"/>
      <path id="WenQuanYiZenHei-65b0" d="M 5419 -763 
Q 5188 -738 4963 -763 
Q 4981 -344 4981 75 
L 4981 2819 
L 4188 2819 
L 4188 1706 
Q 4188 63 3163 -738 
Q 3019 -519 2769 -469 
Q 3769 131 3769 1706 
L 3769 4769 
L 3875 4769 
L 3844 4831 
L 4294 4781 
Q 4438 4769 4894 4816 
Q 5350 4863 5512 4931 
Q 5675 5000 5763 5094 
Q 5850 4881 5981 4694 
Q 5713 4544 5263 4519 
L 4188 4438 
L 4188 3100 
L 5563 3100 
Q 5850 3100 6131 3113 
Q 6119 2956 6131 2806 
L 5394 2819 
L 5394 75 
Q 5394 -344 5419 -763 
z
M 2981 213 
Q 2656 744 2256 1225 
L 2606 1513 
Q 3025 1006 3369 450 
L 2981 213 
z
M 1169 1525 
Q 1375 1419 1594 1363 
Q 1281 488 469 -469 
Q 331 -300 119 -244 
Q 575 263 888 900 
Q 1038 1206 1169 1525 
z
M 1825 6 
L 1825 1769 
L 1081 1769 
Q 794 1769 513 1756 
Q 525 1913 513 2063 
Q 794 2050 1081 2050 
L 1825 2050 
L 1825 2775 
L 994 2775 
Q 706 2775 425 2763 
Q 438 2919 425 3075 
Q 706 3056 994 3056 
L 1825 3056 
L 1825 3088 
L 1906 3088 
Q 2288 3656 2588 4381 
Q 2794 4269 3013 4206 
Q 2800 3675 2381 3056 
L 3013 3056 
Q 3294 3056 3581 3075 
Q 3563 2919 3581 2763 
Q 3294 2775 3013 2775 
L 2238 2775 
L 2238 2050 
L 2925 2050 
Q 3206 2050 3494 2063 
Q 3475 1913 3494 1756 
Q 3206 1769 2925 1769 
L 2238 1769 
L 2238 -156 
Q 2238 -413 2075 -581 
Q 1844 -794 1306 -794 
Q 1363 -519 1188 -288 
Q 1338 -313 1534 -316 
Q 1731 -319 1778 -278 
Q 1825 -238 1825 6 
z
M 1875 3388 
L 1500 3131 
L 825 4088 
L 1200 4350 
L 1875 3388 
z
M 3419 4713 
Q 3400 4563 3419 4406 
Q 3131 4419 2850 4419 
L 1125 4419 
Q 838 4419 556 4406 
Q 569 4563 556 4713 
Q 838 4700 1125 4700 
L 1763 4700 
L 1388 5088 
L 1719 5406 
L 2288 4813 
L 2175 4700 
L 2850 4700 
Q 3131 4700 3419 4713 
z
" transform="scale(0.015625)"/>
      <path id="WenQuanYiZenHei-589e" d="M 3138 -769 
Q 2913 -744 2688 -769 
Q 2706 -356 2706 56 
L 2706 1719 
L 5706 1719 
L 5706 -756 
L 5300 -756 
L 5300 -338 
L 3119 -338 
Q 3125 -550 3138 -769 
z
M 5113 3569 
Q 5344 3606 5563 3688 
Q 5669 3175 5256 2694 
Q 5113 2519 4975 2506 
Q 4831 2725 4588 2813 
Q 4806 2831 4997 3068 
Q 5188 3306 5113 3569 
z
M 3850 2763 
L 3469 2538 
L 2925 3456 
L 3313 3681 
L 3850 2763 
z
M 2400 2100 
Q 2469 3138 2400 4175 
L 3413 4175 
Q 3138 4550 2825 4888 
L 3156 5194 
Q 3581 4725 3938 4206 
L 3900 4175 
L 4456 4175 
Q 4863 4575 5131 5163 
Q 5325 5044 5538 4975 
Q 5369 4575 5013 4175 
L 6056 4175 
Q 5981 3138 6056 2100 
L 2400 2100 
z
M 5300 806 
L 5300 1450 
L 3113 1450 
Q 3113 1125 3113 806 
L 5300 806 
z
M 5300 563 
L 3113 563 
L 3113 -94 
L 5300 -94 
L 5300 563 
z
M 4431 3913 
L 4431 2363 
L 5650 2363 
L 5650 3913 
L 4756 3913 
L 4700 3856 
Q 4681 3888 4656 3913 
L 4431 3913 
z
M 4025 3913 
L 2806 3913 
L 2806 2363 
L 4025 2363 
L 4025 3913 
z
M -31 625 
Q 506 763 1006 975 
L 1006 3206 
L 669 3206 
Q 369 3206 75 3188 
Q 94 3356 75 3531 
Q 369 3513 669 3513 
L 1006 3513 
L 1006 4263 
Q 1006 4700 981 5131 
Q 1206 5106 1431 5131 
Q 1413 4700 1413 4263 
L 1413 3513 
L 2238 3531 
Q 2219 3356 2238 3188 
L 1413 3206 
L 1413 1163 
L 2150 1531 
L 2194 1256 
Q 1269 775 813 519 
L 194 144 
Q 138 438 -31 625 
z
" transform="scale(0.015625)"/>
      <path id="WenQuanYiZenHei-9884" d="M 1206 19 
L 1206 2888 
L 669 2888 
Q 356 2888 50 2869 
Q 63 3044 50 3213 
Q 363 3194 669 3194 
L 1250 3194 
Q 950 3631 606 4031 
L 963 4338 
L 1263 3975 
L 1913 4719 
L 731 4719 
Q 419 4719 106 4706 
Q 125 4875 106 5044 
Q 419 5031 731 5031 
L 2481 5031 
L 2544 4663 
Q 2394 4613 2256 4466 
Q 2119 4319 1525 3631 
Q 1656 3444 1788 3250 
L 1700 3194 
L 2700 3194 
L 2763 2825 
Q 2656 2819 2613 2763 
L 2100 2038 
L 1750 2288 
L 2175 2888 
L 1638 2888 
L 1638 -150 
Q 1638 -525 1363 -669 
Q 1075 -819 525 -813 
Q 594 -513 388 -294 
Q 575 -313 837 -316 
Q 1100 -319 1153 -272 
Q 1206 -225 1206 19 
z
M 5813 -888 
Q 5100 -225 4306 375 
L 4669 719 
Q 5481 106 6219 -575 
L 5813 -888 
z
M 2375 -906 
Q 2294 -631 2025 -506 
Q 2769 -431 3353 19 
Q 3938 469 3938 1069 
L 3938 2200 
Q 3938 2625 3913 3050 
Q 4188 3025 4456 3050 
Q 4431 2625 4431 2200 
L 4431 1069 
Q 4431 681 4225 319 
Q 3644 -606 2375 -906 
z
M 3444 488 
Q 3169 513 2894 488 
Q 2919 913 2919 1338 
L 2919 3675 
Q 3219 3675 3525 3675 
Q 3750 4013 3931 4525 
L 3238 4525 
Q 2888 4525 2538 4513 
Q 2556 4669 2538 4831 
Q 2888 4813 3238 4813 
L 5313 4813 
Q 5663 4813 6006 4831 
Q 5988 4669 6006 4513 
Q 5663 4525 5313 4525 
L 4481 4525 
Q 4388 4088 4088 3675 
L 5644 3675 
L 5644 513 
L 5144 513 
L 5144 3388 
L 3894 3388 
L 3875 3363 
Q 3863 3375 3844 3388 
Q 3631 3388 3413 3388 
L 3419 1338 
Q 3419 913 3444 488 
z
" transform="scale(0.015625)"/>
      <path id="WenQuanYiZenHei-6d4b" d="M 5450 138 
L 5450 4306 
Q 5450 4750 5425 5188 
Q 5663 5163 5906 5188 
Q 5881 4750 5881 4306 
L 5881 -38 
Q 5888 -569 5519 -719 
Q 5194 -831 4825 -813 
Q 4894 -519 4694 -281 
Q 4869 -306 5094 -309 
Q 5319 -313 5384 -256 
Q 5450 -200 5450 138 
z
M 4900 938 
Q 4663 963 4419 938 
Q 4444 1375 4444 1819 
L 4444 3381 
Q 4444 3819 4419 4263 
Q 4663 4238 4900 4263 
Q 4875 3819 4875 3381 
L 4875 1819 
Q 4875 1375 4900 938 
z
M 2750 2025 
L 2750 3038 
Q 2750 3481 2725 3919 
Q 2963 3894 3206 3919 
Q 3181 3481 3181 3038 
L 3181 2025 
Q 3181 1263 2919 625 
L 3231 956 
Q 3781 431 4256 -150 
L 3888 -456 
Q 3431 106 2906 600 
Q 2531 -288 1738 -769 
Q 1606 -519 1338 -450 
Q 1988 -156 2369 478 
Q 2750 1113 2750 2025 
z
M 2363 969 
Q 2119 994 1881 969 
Q 1906 1406 1906 1850 
L 1906 5038 
L 3956 5031 
L 3956 1200 
L 3525 1200 
L 3525 4713 
L 2338 4713 
L 2338 1850 
Q 2338 1406 2363 969 
z
M 663 -738 
Q 481 -588 206 -575 
Q 400 -69 606 581 
Q 813 1231 1200 2838 
L 1381 2706 
L 875 338 
L 663 -738 
z
M 1006 2856 
L 731 2550 
L 75 3400 
L 350 3713 
L 1006 2856 
z
M 1088 3913 
Q 781 4388 425 4800 
L 694 5125 
Q 1069 4688 1388 4188 
L 1088 3913 
z
" transform="scale(0.015625)"/>
      <path id="WenQuanYiZenHei-20" transform="scale(0.015625)"/>
      <path id="WenQuanYiZenHei-5317" d="M 3631 4331 
Q 3631 4794 3606 5263 
Q 3863 5231 4113 5263 
Q 4088 4794 4088 4331 
L 4088 2925 
Q 4675 3269 5181 3769 
L 5594 4194 
Q 5769 4006 5975 3856 
Q 5275 3050 4088 2406 
L 4088 56 
Q 4088 -81 4147 -178 
Q 4206 -275 4313 -275 
L 5519 -275 
Q 5594 -275 5619 -237 
Q 5644 -200 5656 -178 
Q 5669 -156 5678 -112 
Q 5688 -69 5688 -44 
L 5838 1000 
Q 6038 856 6281 863 
L 6100 -250 
Q 6050 -600 5969 -663 
Q 5925 -694 5863 -694 
L 4306 -694 
Q 4013 -694 3822 -494 
Q 3631 -294 3631 56 
L 3631 4331 
z
M 2088 3038 
L 956 3038 
Q 575 3038 200 3019 
Q 219 3225 200 3431 
Q 575 3413 956 3413 
L 2088 3413 
L 2088 4331 
Q 2088 4794 2069 5263 
Q 2319 5231 2569 5263 
Q 2550 4794 2550 4331 
L 2550 163 
Q 2550 -300 2569 -769 
Q 2319 -738 2069 -769 
Q 2088 -300 2088 163 
L 2088 419 
Q 906 44 244 -244 
Q 238 56 69 306 
Q 431 325 843 400 
Q 1256 475 2088 756 
L 2088 3038 
z
" transform="scale(0.015625)"/>
      <path id="WenQuanYiZenHei-4eac" d="M 5894 -263 
L 5550 -600 
L 4819 106 
L 4063 775 
L 4375 1144 
L 5150 463 
L 5894 -263 
z
M 1931 1219 
Q 2088 1031 2281 881 
Q 1794 356 1038 -200 
L 438 -625 
Q 338 -413 138 -300 
Q 813 131 1494 781 
L 1931 1219 
z
M 2975 -100 
L 2975 1606 
L 1450 1606 
Q 1531 2475 1450 3350 
L 4875 3350 
Q 4794 2475 4869 1606 
L 3419 1606 
L 3419 -206 
Q 3419 -419 3206 -619 
Q 2981 -819 2369 -813 
Q 2431 -513 2238 -275 
Q 2406 -300 2656 -303 
Q 2906 -306 2940 -272 
Q 2975 -238 2975 -100 
z
M 6138 4319 
Q 6119 4138 6138 3956 
Q 5800 3975 5463 3975 
L 944 3975 
Q 606 3975 275 3956 
Q 294 4138 275 4319 
Q 606 4300 944 4300 
L 2981 4300 
Q 2719 4713 2419 5100 
L 2800 5400 
Q 3206 4875 3544 4300 
L 5463 4300 
Q 5800 4300 6138 4319 
z
M 1894 3019 
L 1894 1938 
L 4431 1938 
L 4431 3019 
L 1894 3019 
z
" transform="scale(0.015625)"/>
     </defs>
     <use xlink:href="#WenQuanYiZenHei-6bcf"/>
     <use xlink:href="#WenQuanYiZenHei-65e5" x="100"/>
     <use xlink:href="#WenQuanYiZenHei-65b0" x="200"/>
     <use xlink:href="#WenQuanYiZenHei-589e" x="300"/>
     <use xlink:href="#WenQuanYiZenHei-9884" x="400"/>
     <use xlink:href="#WenQuanYiZenHei-6d4b" x="500"/>
     <use xlink:href="#WenQuanYiZenHei-20" x="600"/>
     <use xlink:href="#WenQuanYiZenHei-2d" x="629.980469"/>
     <use xlink:href="#WenQuanYiZenHei-20" x="659.960938"/>
     <use xlink:href="#WenQuanYiZenHei-5317" x="689.941406"/>
     <use xlink:href="#WenQuanYiZenHei-4eac" x="789.941406"/>
    </g>
    <!-- ARIMA (3, 1, 0)x(0, 0, 0, 7) (R2 = 0.920942) -->
    <g transform="translate(577.185938 29.061)scale(0.12 -0.12)">
     <defs>
      <path id="WenQuanYiZenHei-41" d="M 3550 0 
L 2988 0 
L 2550 1281 
L 919 1281 
L 531 0 
L 69 0 
L 1494 4388 
L 2125 4388 
L 3550 0 
z
M 2425 1694 
L 1756 3800 
L 1075 1694 
L 2425 1694 
z
" transform="scale(0.015625)"/>
      <path id="WenQuanYiZenHei-52" d="M 3675 0 
L 3100 0 
L 2288 1900 
L 1069 1900 
L 1069 0 
L 519 0 
L 519 4388 
L 2163 4388 
Q 3006 4388 3400 3900 
Q 3581 3663 3625 3325 
Q 3631 3250 3631 3163 
Q 3631 2594 3219 2244 
Q 3038 2100 2813 2038 
L 3675 0 
z
M 3081 3169 
Q 3081 3825 2356 3906 
Q 2263 3919 2163 3919 
L 1069 3919 
L 1069 2350 
L 2100 2350 
Q 2906 2350 3044 2919 
Q 3081 3031 3081 3169 
z
" transform="scale(0.015625)"/>
      <path id="WenQuanYiZenHei-49" d="M 1100 0 
L 550 0 
L 550 4388 
L 1100 4388 
L 1100 0 
z
" transform="scale(0.015625)"/>
      <path id="WenQuanYiZenHei-4d" d="M 4756 0 
L 4206 0 
L 4206 3831 
L 4181 3831 
L 2788 0 
L 2419 0 
L 1000 3831 
L 975 3831 
L 975 0 
L 513 0 
L 513 4388 
L 1331 4388 
L 2656 875 
L 3950 4388 
L 4756 4388 
L 4756 0 
z
" transform="scale(0.015625)"/>
      <path id="WenQuanYiZenHei-28" d="M 1606 -1094 
L 1275 -1094 
Q 475 -100 338 1231 
Q 319 1438 319 1656 
Q 319 3031 1156 4244 
Q 1213 4313 1269 4388 
L 1600 4388 
Q 806 3169 794 1681 
Q 794 188 1606 -1094 
z
" transform="scale(0.015625)"/>
      <path id="WenQuanYiZenHei-33" d="M 3588 1231 
Q 3588 494 2875 144 
Q 2450 -63 1925 -63 
Q 1044 -63 556 488 
Q 356 706 256 1000 
L 769 1169 
Q 994 375 1913 375 
Q 2631 375 2900 788 
Q 3019 975 3019 1231 
Q 3019 1638 2638 1881 
Q 2325 2081 1613 2069 
L 1338 2069 
L 1338 2494 
Q 1969 2494 2094 2506 
Q 2325 2544 2463 2613 
Q 2763 2756 2844 3100 
Q 2863 3169 2863 3244 
Q 2863 3744 2381 3944 
L 2163 4006 
Q 2056 4025 1931 4025 
Q 1388 4025 1075 3631 
Q 969 3488 906 3313 
L 419 3456 
Q 675 4150 1400 4369 
Q 1669 4456 1975 4456 
Q 2694 4456 3106 4050 
Q 3419 3744 3419 3275 
Q 3419 2813 3025 2513 
Q 2825 2356 2575 2319 
L 2575 2306 
Q 3181 2213 3450 1769 
Q 3588 1525 3588 1231 
z
" transform="scale(0.015625)"/>
      <path id="WenQuanYiZenHei-2c" d="M 1363 75 
L 881 -825 
L 606 -825 
L 994 0 
L 656 0 
L 656 738 
L 1363 738 
L 1363 75 
z
" transform="scale(0.015625)"/>
      <path id="WenQuanYiZenHei-29" d="M 1600 1656 
Q 1600 306 869 -788 
Q 769 -950 644 -1094 
L 313 -1094 
Q 1125 188 1125 1681 
Q 1125 3169 338 4363 
Q 325 4375 319 4388 
L 650 4388 
Q 1525 3231 1594 1863 
Q 1600 1763 1600 1656 
z
" transform="scale(0.015625)"/>
      <path id="WenQuanYiZenHei-78" d="M 2806 0 
L 2213 0 
L 1394 1319 
L 544 0 
L 50 0 
L 1144 1681 
L 163 3250 
L 744 3250 
L 1431 2138 
L 2144 3250 
L 2631 3250 
L 1681 1794 
L 2806 0 
z
" transform="scale(0.015625)"/>
      <path id="WenQuanYiZenHei-3d" d="M 3569 2256 
L 263 2256 
L 263 2675 
L 3569 2675 
L 3569 2256 
z
M 3569 1019 
L 263 1019 
L 263 1431 
L 3569 1431 
L 3569 1019 
z
" transform="scale(0.015625)"/>
      <path id="WenQuanYiZenHei-2e" d="M 1344 0 
L 631 0 
L 631 725 
L 1344 725 
L 1344 0 
z
" transform="scale(0.015625)"/>
      <path id="WenQuanYiZenHei-39" d="M 3544 2300 
Q 3544 1163 3019 513 
Q 2563 -63 1775 -63 
Q 956 -63 563 488 
Q 463 631 394 813 
L 838 975 
Q 1025 494 1550 388 
Q 1656 369 1775 369 
Q 2594 369 2900 1325 
Q 3044 1769 3038 2313 
L 3025 2313 
Q 2675 1638 1944 1544 
Q 1844 1531 1744 1531 
Q 1050 1531 625 2031 
Q 294 2419 294 2963 
Q 294 3656 813 4094 
Q 1238 4456 1819 4456 
Q 2988 4456 3381 3363 
Q 3544 2900 3544 2300 
z
M 2925 2994 
Q 2925 3563 2469 3844 
Q 2206 4006 1863 4006 
Q 1275 4006 988 3563 
Q 844 3344 825 3056 
Q 819 3006 819 2956 
Q 819 2413 1269 2131 
Q 1538 1963 1875 1963 
Q 2363 1963 2681 2350 
Q 2925 2638 2925 2994 
z
" transform="scale(0.015625)"/>
     </defs>
     <use xlink:href="#WenQuanYiZenHei-41"/>
     <use xlink:href="#WenQuanYiZenHei-52" x="55.957031"/>
     <use xlink:href="#WenQuanYiZenHei-49" x="117.871094"/>
     <use xlink:href="#WenQuanYiZenHei-4d" x="143.847656"/>
     <use xlink:href="#WenQuanYiZenHei-41" x="225.78125"/>
     <use xlink:href="#WenQuanYiZenHei-20" x="281.738281"/>
     <use xlink:href="#WenQuanYiZenHei-28" x="311.71875"/>
     <use xlink:href="#WenQuanYiZenHei-33" x="341.699219"/>
     <use xlink:href="#WenQuanYiZenHei-2c" x="401.660156"/>
     <use xlink:href="#WenQuanYiZenHei-20" x="431.640625"/>
     <use xlink:href="#WenQuanYiZenHei-31" x="461.621094"/>
     <use xlink:href="#WenQuanYiZenHei-2c" x="521.582031"/>
     <use xlink:href="#WenQuanYiZenHei-20" x="551.5625"/>
     <use xlink:href="#WenQuanYiZenHei-30" x="581.542969"/>
     <use xlink:href="#WenQuanYiZenHei-29" x="641.503906"/>
     <use xlink:href="#WenQuanYiZenHei-78" x="671.484375"/>
     <use xlink:href="#WenQuanYiZenHei-28" x="715.429688"/>
     <use xlink:href="#WenQuanYiZenHei-30" x="745.410156"/>
     <use xlink:href="#WenQuanYiZenHei-2c" x="805.371094"/>
     <use xlink:href="#WenQuanYiZenHei-20" x="835.351562"/>
     <use xlink:href="#WenQuanYiZenHei-30" x="865.332031"/>
     <use xlink:href="#WenQuanYiZenHei-2c" x="925.292969"/>
     <use xlink:href="#WenQuanYiZenHei-20" x="955.273438"/>
     <use xlink:href="#WenQuanYiZenHei-30" x="985.253906"/>
     <use xlink:href="#WenQuanYiZenHei-2c" x="1045.214844"/>
     <use xlink:href="#WenQuanYiZenHei-20" x="1075.195312"/>
     <use xlink:href="#WenQuanYiZenHei-37" x="1105.175781"/>
     <use xlink:href="#WenQuanYiZenHei-29" x="1165.136719"/>
     <use xlink:href="#WenQuanYiZenHei-20" x="1195.117188"/>
     <use xlink:href="#WenQuanYiZenHei-28" x="1225.097656"/>
     <use xlink:href="#WenQuanYiZenHei-52" x="1255.078125"/>
     <use xlink:href="#WenQuanYiZenHei-32" x="1316.992188"/>
     <use xlink:href="#WenQuanYiZenHei-20" x="1376.953125"/>
     <use xlink:href="#WenQuanYiZenHei-3d" x="1406.933594"/>
     <use xlink:href="#WenQuanYiZenHei-20" x="1466.894531"/>
     <use xlink:href="#WenQuanYiZenHei-30" x="1496.875"/>
     <use xlink:href="#WenQuanYiZenHei-2e" x="1556.835938"/>
     <use xlink:href="#WenQuanYiZenHei-39" x="1586.816406"/>
     <use xlink:href="#WenQuanYiZenHei-32" x="1646.777344"/>
     <use xlink:href="#WenQuanYiZenHei-30" x="1706.738281"/>
     <use xlink:href="#WenQuanYiZenHei-39" x="1766.699219"/>
     <use xlink:href="#WenQuanYiZenHei-34" x="1826.660156"/>
     <use xlink:href="#WenQuanYiZenHei-32" x="1886.621094"/>
     <use xlink:href="#WenQuanYiZenHei-29" x="1946.582031"/>
    </g>
   </g>
   <g id="legend_1">
    <g id="patch_7">
     <path d="M 1296.39375 87.056312 
L 1358.39375 87.056312 
Q 1360.39375 87.056312 1360.39375 85.056312 
L 1360.39375 42.061 
Q 1360.39375 40.061 1358.39375 40.061 
L 1296.39375 40.061 
Q 1294.39375 40.061 1294.39375 42.061 
L 1294.39375 85.056312 
Q 1294.39375 87.056312 1296.39375 87.056312 
z
" style="fill: #ffffff; opacity: 0.8; stroke: #cccccc; stroke-linejoin: miter"/>
    </g>
    <g id="line2d_20">
     <path d="M 1298.39375 48.695375 
L 1308.39375 48.695375 
L 1318.39375 48.695375 
" style="fill: none; stroke: #0000ff; stroke-width: 1.5; stroke-linecap: square"/>
    </g>
    <g id="text_18">
     <!-- 实际值 -->
     <g transform="translate(1326.39375 52.195375)scale(0.1 -0.1)">
      <defs>
       <path id="WenQuanYiZenHei-5b9e" d="M 1025 1175 
Q 694 1175 356 1163 
Q 375 1344 356 1525 
Q 694 1506 1025 1506 
L 3363 1506 
L 3363 2625 
Q 3363 3075 3338 3519 
Q 3581 3494 3825 3519 
Q 3800 3075 3800 2625 
L 3800 1506 
L 5406 1506 
Q 5744 1506 6075 1525 
Q 6056 1344 6075 1163 
Q 5744 1175 5406 1175 
L 4038 1175 
L 4981 456 
L 6131 -488 
L 5819 -856 
L 4681 75 
L 3638 875 
Q 3313 231 2475 -231 
Q 1638 -694 700 -825 
Q 638 -519 344 -400 
Q 1450 -319 2406 244 
Q 3113 656 3300 1175 
L 1025 1175 
z
M 2263 1581 
Q 1763 2081 1200 2513 
L 1494 2894 
Q 2081 2444 2600 1919 
L 2263 1581 
z
M 2638 2500 
Q 2219 2963 1731 3363 
L 2044 3738 
Q 2556 3313 3000 2819 
L 2638 2500 
z
M 919 3156 
L 481 3156 
L 481 4344 
L 3069 4344 
Q 2794 4731 2469 5081 
L 2825 5413 
Q 3256 4944 3613 4413 
L 3513 4344 
L 5869 4344 
L 5869 3156 
L 5425 3156 
L 5425 4013 
L 919 4013 
L 919 3156 
z
" transform="scale(0.015625)"/>
       <path id="WenQuanYiZenHei-9645" d="M 6000 431 
L 5569 194 
L 4963 1219 
L 4313 2219 
L 4719 2494 
L 5375 1481 
L 6000 431 
z
M 2956 2450 
Q 3181 2344 3419 2294 
Q 3006 1038 1944 -188 
Q 1794 -6 1569 56 
Q 2069 600 2372 1156 
Q 2675 1713 2956 2450 
z
M 3750 25 
L 3750 2913 
L 2819 2913 
Q 2475 2913 2125 2894 
Q 2144 3081 2125 3269 
Q 2475 3256 2819 3256 
L 5469 3256 
Q 5819 3256 6163 3269 
Q 6144 3081 6163 2894 
Q 5813 2913 5469 2913 
L 4194 2913 
L 4194 -144 
Q 4194 -725 3456 -813 
L 3263 -825 
Q 3325 -506 3125 -250 
Q 3250 -281 3394 -306 
Q 3663 -313 3706 -272 
Q 3750 -231 3750 25 
z
M 5544 4950 
Q 5525 4756 5544 4569 
Q 5194 4588 4844 4588 
L 3325 4588 
Q 2975 4588 2625 4569 
Q 2644 4756 2625 4950 
Q 2975 4931 3325 4931 
L 4844 4931 
Q 5194 4931 5544 4950 
z
M 819 -850 
Q 581 -825 344 -850 
Q 369 -419 369 19 
L 363 4938 
L 2256 4938 
L 2256 4625 
Q 2150 4513 2075 4375 
L 1481 3238 
Q 2181 2319 2181 1156 
Q 2144 400 1569 163 
L 1406 88 
Q 1288 300 1138 481 
Q 1294 538 1450 606 
Q 1763 744 1794 1156 
Q 1794 1744 1600 2300 
Q 1406 2856 1038 3313 
L 1725 4625 
L 788 4625 
L 794 19 
Q 794 -419 819 -850 
z
" transform="scale(0.015625)"/>
       <path id="WenQuanYiZenHei-503c" d="M 6175 -219 
Q 6156 -388 6175 -556 
Q 5863 -544 5550 -544 
L 2313 -544 
Q 2000 -544 1688 -556 
Q 1706 -388 1688 -219 
L 2506 -231 
L 2506 3469 
L 3644 3469 
L 3644 4119 
L 2638 4119 
Q 2325 4119 2013 4100 
Q 2031 4269 2013 4438 
Q 2325 4425 2638 4425 
L 3638 4425 
Q 3638 4719 3619 5013 
Q 3856 4988 4094 5013 
Q 4075 4719 4075 4425 
L 5344 4425 
Q 5650 4425 5963 4438 
Q 5950 4269 5963 4100 
Q 5656 4119 5344 4119 
L 4069 4119 
L 4069 3469 
L 5300 3469 
L 5300 -231 
L 5550 -231 
Q 5863 -231 6175 -219 
z
M 4869 2556 
L 4869 3156 
L 2931 3156 
Q 2931 2850 2931 2556 
L 4869 2556 
z
M 4869 1669 
L 4869 2250 
L 2931 2250 
L 2931 1669 
L 4869 1669 
z
M 4869 731 
L 4869 1363 
L 2931 1363 
L 2931 731 
L 4869 731 
z
M 4869 -231 
L 4869 425 
L 2931 425 
L 2931 -231 
L 4869 -231 
z
M 2106 4925 
Q 1856 4075 1463 3338 
L 1463 31 
Q 1463 -413 1481 -850 
Q 1256 -825 1031 -850 
Q 1050 -413 1050 31 
L 1050 2681 
Q 750 2269 375 1931 
Q 238 2156 0 2256 
Q 331 2544 619 2875 
Q 1094 3425 1300 3950 
Q 1494 4469 1625 5050 
Q 1850 4963 2106 4925 
z
" transform="scale(0.015625)"/>
      </defs>
      <use xlink:href="#WenQuanYiZenHei-5b9e"/>
      <use xlink:href="#WenQuanYiZenHei-9645" x="100"/>
      <use xlink:href="#WenQuanYiZenHei-503c" x="200"/>
     </g>
    </g>
    <g id="line2d_21">
     <path d="M 1298.39375 63.3735 
L 1308.39375 63.3735 
L 1318.39375 63.3735 
" style="fill: none; stroke: #ffa500; stroke-width: 1.5; stroke-linecap: square"/>
    </g>
    <g id="text_19">
     <!-- 校验值 -->
     <g transform="translate(1326.39375 66.8735)scale(0.1 -0.1)">
      <defs>
       <path id="WenQuanYiZenHei-6821" d="M 5256 2463 
Q 5025 1475 4494 706 
Q 5125 -94 6175 -544 
Q 5950 -663 5850 -900 
Q 4906 -494 4250 381 
Q 3931 0 3475 -350 
Q 3019 -700 2388 -919 
Q 2338 -656 2138 -475 
Q 3306 -69 4006 738 
Q 3563 1444 3300 2331 
Q 3050 2050 2706 1800 
Q 2606 2000 2406 2106 
Q 2900 2444 3181 2938 
Q 3350 3225 3488 3538 
Q 3700 3431 3925 3369 
Q 3763 2894 3425 2475 
L 3650 2531 
Q 3888 1675 4244 1075 
Q 4469 1444 4603 1937 
Q 4738 2431 4775 2688 
Q 4963 2644 5150 2625 
Q 4919 2969 4663 3294 
L 5038 3588 
Q 5544 2925 5975 2213 
L 5569 1969 
L 5256 2463 
z
M 6006 4050 
Q 5988 3881 6006 3713 
Q 5694 3725 5381 3725 
L 3413 3725 
Q 3100 3725 2788 3713 
Q 2806 3881 2788 4050 
Q 3100 4031 3413 4031 
L 4325 4031 
Q 4019 4525 3644 4969 
L 4000 5275 
Q 4413 4788 4750 4244 
L 4406 4031 
L 5381 4031 
Q 5694 4031 6006 4050 
z
M 406 263 
Q 238 431 -25 469 
Q 194 825 466 1337 
Q 738 1850 925 2406 
Q 1113 2963 1256 3519 
L 825 3519 
Q 506 3519 188 3500 
Q 206 3700 188 3900 
Q 506 3881 825 3881 
L 1363 3881 
L 1363 4263 
Q 1363 4719 1338 5175 
Q 1556 5150 1775 5175 
Q 1756 4719 1756 4263 
L 1756 3881 
L 2525 3900 
Q 2506 3700 2525 3500 
L 1756 3519 
L 1756 2738 
L 1931 2881 
Q 2306 2300 2613 1650 
L 2231 1413 
Q 2081 1725 1919 2019 
L 1756 2300 
L 1756 69 
Q 1756 -388 1775 -850 
Q 1556 -825 1338 -850 
Q 1363 -388 1363 69 
L 1363 2438 
Q 925 1144 406 263 
z
" transform="scale(0.015625)"/>
       <path id="WenQuanYiZenHei-9a8c" d="M 5981 -106 
Q 5963 -275 5981 -444 
Q 5669 -431 5356 -431 
L 2969 -431 
Q 2656 -431 2350 -444 
Q 2363 -275 2350 -106 
Q 2656 -125 2969 -125 
L 4369 -125 
Q 4600 431 4881 1288 
L 5206 2300 
Q 5425 2206 5663 2163 
Q 5375 1188 4831 -125 
L 5356 -125 
Q 5669 -125 5981 -106 
z
M 4063 594 
Q 3788 1425 3425 2219 
L 3856 2419 
Q 4225 1600 4513 744 
L 4063 594 
z
M 3163 363 
Q 2931 1200 2613 2006 
L 3056 2175 
Q 3381 1350 3619 488 
L 3163 363 
z
M 4581 2550 
L 3513 2550 
Q 3200 2550 2888 2538 
Q 2900 2663 2894 2769 
Q 2569 2488 2206 2300 
Q 2113 2550 1894 2700 
Q 2488 2975 2975 3463 
Q 3269 3756 3394 4006 
Q 3644 4513 3794 5063 
Q 4038 4975 4294 4931 
Q 4250 4806 4206 4681 
Q 4475 3888 5025 3388 
Q 5519 2938 6169 2650 
Q 5938 2538 5838 2300 
Q 5513 2456 5200 2700 
Q 5200 2619 5206 2538 
Q 4894 2550 4581 2550 
z
M 3513 2863 
L 4994 2869 
Q 4344 3438 3988 4194 
Q 3594 3406 3013 2869 
Q 3263 2863 3513 2863 
z
M 206 444 
Q 188 756 44 963 
Q 319 956 650 1003 
Q 981 1050 1731 1281 
L 1738 1006 
Q 800 719 206 444 
z
M 525 4000 
Q 744 3950 994 3944 
Q 925 3519 875 3081 
L 763 2144 
L 1475 2144 
L 1831 4444 
L 663 4444 
Q 350 4444 38 4431 
Q 56 4600 38 4769 
Q 350 4756 663 4756 
L 2313 4756 
L 1913 2144 
L 2375 2144 
L 2200 -200 
Q 2188 -425 1988 -588 
Q 1694 -800 1181 -788 
L 944 -788 
Q 1000 -450 788 -269 
Q 1013 -294 1334 -287 
Q 1656 -281 1715 -243 
Q 1775 -206 1781 -50 
L 1925 1831 
L 294 1831 
L 444 3131 
Q 500 3569 525 4000 
z
" transform="scale(0.015625)"/>
      </defs>
      <use xlink:href="#WenQuanYiZenHei-6821"/>
      <use xlink:href="#WenQuanYiZenHei-9a8c" x="100"/>
      <use xlink:href="#WenQuanYiZenHei-503c" x="200"/>
     </g>
    </g>
    <g id="line2d_22">
     <path d="M 1298.39375 77.895375 
L 1308.39375 77.895375 
L 1318.39375 77.895375 
" style="fill: none; stroke: #ff0000; stroke-width: 1.5; stroke-linecap: square"/>
    </g>
    <g id="text_20">
     <!-- 预测值 -->
     <g transform="translate(1326.39375 81.395375)scale(0.1 -0.1)">
      <use xlink:href="#WenQuanYiZenHei-9884"/>
      <use xlink:href="#WenQuanYiZenHei-6d4b" x="100"/>
      <use xlink:href="#WenQuanYiZenHei-503c" x="200"/>
     </g>
    </g>
   </g>
  </g>
 </g>
 <defs>
  <clipPath id="pb321159bd0">
   <rect x="26.19375" y="35.061" width="1339.2" height="332.64"/>
  </clipPath>
 </defs>
</svg>
