<?xml version="1.0" encoding="utf-8" standalone="no"?>
<!DOCTYPE svg PUBLIC "-//W3C//DTD SVG 1.1//EN"
  "http://www.w3.org/Graphics/SVG/1.1/DTD/svg11.dtd">
<svg xmlns:xlink="http://www.w3.org/1999/xlink" width="1372.59375pt" height="390.418188pt" viewBox="0 0 1372.59375 390.418188" xmlns="http://www.w3.org/2000/svg" version="1.1">
 <metadata>
  <rdf:RDF xmlns:dc="http://purl.org/dc/elements/1.1/" xmlns:cc="http://creativecommons.org/ns#" xmlns:rdf="http://www.w3.org/1999/02/22-rdf-syntax-ns#">
   <cc:Work>
    <dc:type rdf:resource="http://purl.org/dc/dcmitype/StillImage"/>
    <dc:date>2022-07-12T18:13:39.835368</dc:date>
    <dc:format>image/svg+xml</dc:format>
    <dc:creator>
     <cc:Agent>
      <dc:title>Matplotlib v3.5.2, https://matplotlib.org/</dc:title>
     </cc:Agent>
    </dc:creator>
   </cc:Work>
  </rdf:RDF>
 </metadata>
 <defs>
  <style type="text/css">*{stroke-linejoin: round; stroke-linecap: butt}</style>
 </defs>
 <g id="figure_1">
  <g id="patch_1">
   <path d="M 0 390.418188 
L 1372.59375 390.418188 
L 1372.59375 -0 
L 0 -0 
z
" style="fill: #ffffff"/>
  </g>
  <g id="axes_1">
   <g id="patch_2">
    <path d="M 26.19375 367.701 
L 1365.39375 367.701 
L 1365.39375 35.061 
L 26.19375 35.061 
z
" style="fill: #ffffff"/>
   </g>
   <g id="matplotlib.axis_1">
    <g id="xtick_1">
     <g id="line2d_1">
      <defs>
       <path id="m1a11508baf" d="M 0 0 
L 0 3.5 
" style="stroke: #000000; stroke-width: 0.8"/>
      </defs>
      <g>
       <use xlink:href="#m1a11508baf" x="57.730223" y="367.701" style="stroke: #000000; stroke-width: 0.8"/>
      </g>
     </g>
     <g id="text_1">
      <!-- 2020-01 -->
      <g transform="translate(38.240379 381.55725)scale(0.1 -0.1)">
       <defs>
        <path id="WenQuanYiZenHei-32" d="M 3488 0 
L 369 0 
L 369 456 
L 2150 1850 
Q 2931 2463 2931 3144 
Q 2931 3619 2488 3863 
Q 2231 4013 1931 4013 
Q 1425 4013 1113 3619 
Q 894 3356 881 3013 
L 369 3169 
Q 531 3981 1213 4300 
Q 1544 4456 1950 4456 
Q 2631 4456 3088 4044 
L 3225 3888 
L 3350 3706 
Q 3481 3444 3481 3144 
Q 3481 2313 2519 1569 
L 1069 456 
L 3488 456 
L 3488 0 
z
" transform="scale(0.015625)"/>
        <path id="WenQuanYiZenHei-30" d="M 3581 2175 
Q 3581 1288 3169 638 
Q 2713 -63 1938 -63 
Q 1025 -63 563 831 
Q 256 1425 256 2188 
Q 256 3188 700 3819 
Q 1138 4456 1888 4456 
Q 2863 4456 3306 3500 
Q 3581 2925 3581 2175 
z
M 3019 2100 
Q 3019 3356 2500 3806 
L 2350 3919 
Q 2144 4031 1888 4031 
Q 1100 4031 888 2956 
Q 819 2625 819 2225 
Q 819 1013 1338 569 
Q 1588 356 1938 356 
Q 2675 356 2925 1294 
Q 3019 1663 3019 2100 
z
" transform="scale(0.015625)"/>
        <path id="WenQuanYiZenHei-2d" d="M 1363 1444 
L 0 1444 
L 0 1844 
L 1363 1844 
L 1363 1444 
z
" transform="scale(0.015625)"/>
        <path id="WenQuanYiZenHei-31" d="M 3556 0 
L 488 0 
L 488 406 
L 1800 406 
L 1800 3725 
Q 1231 3125 588 2788 
L 588 3338 
Q 1456 3781 1931 4388 
L 2331 4388 
L 2331 406 
L 3556 406 
L 3556 0 
z
" transform="scale(0.015625)"/>
       </defs>
       <use xlink:href="#WenQuanYiZenHei-32"/>
       <use xlink:href="#WenQuanYiZenHei-30" x="59.960938"/>
       <use xlink:href="#WenQuanYiZenHei-32" x="119.921875"/>
       <use xlink:href="#WenQuanYiZenHei-30" x="179.882812"/>
       <use xlink:href="#WenQuanYiZenHei-2d" x="239.84375"/>
       <use xlink:href="#WenQuanYiZenHei-30" x="269.824219"/>
       <use xlink:href="#WenQuanYiZenHei-31" x="329.785156"/>
      </g>
     </g>
    </g>
    <g id="xtick_2">
     <g id="line2d_2">
      <g>
       <use xlink:href="#m1a11508baf" x="179.075638" y="367.701" style="stroke: #000000; stroke-width: 0.8"/>
      </g>
     </g>
     <g id="text_2">
      <!-- 2020-04 -->
      <g transform="translate(159.585794 381.55725)scale(0.1 -0.1)">
       <defs>
        <path id="WenQuanYiZenHei-34" d="M 3631 1025 
L 2913 1025 
L 2913 0 
L 2381 0 
L 2381 1025 
L 219 1025 
L 219 1388 
L 2225 4388 
L 2913 4388 
L 2913 1444 
L 3631 1444 
L 3631 1025 
z
M 2381 1444 
L 2381 3963 
L 788 1444 
L 2381 1444 
z
" transform="scale(0.015625)"/>
       </defs>
       <use xlink:href="#WenQuanYiZenHei-32"/>
       <use xlink:href="#WenQuanYiZenHei-30" x="59.960938"/>
       <use xlink:href="#WenQuanYiZenHei-32" x="119.921875"/>
       <use xlink:href="#WenQuanYiZenHei-30" x="179.882812"/>
       <use xlink:href="#WenQuanYiZenHei-2d" x="239.84375"/>
       <use xlink:href="#WenQuanYiZenHei-30" x="269.824219"/>
       <use xlink:href="#WenQuanYiZenHei-34" x="329.785156"/>
      </g>
     </g>
    </g>
    <g id="xtick_3">
     <g id="line2d_3">
      <g>
       <use xlink:href="#m1a11508baf" x="300.421053" y="367.701" style="stroke: #000000; stroke-width: 0.8"/>
      </g>
     </g>
     <g id="text_3">
      <!-- 2020-07 -->
      <g transform="translate(280.931209 381.55725)scale(0.1 -0.1)">
       <defs>
        <path id="WenQuanYiZenHei-37" d="M 3400 4056 
Q 1838 2175 1838 0 
L 1275 0 
Q 1269 1438 2056 2825 
Q 2381 3400 2825 3913 
L 444 3913 
L 500 4388 
L 3400 4388 
L 3400 4056 
z
" transform="scale(0.015625)"/>
       </defs>
       <use xlink:href="#WenQuanYiZenHei-32"/>
       <use xlink:href="#WenQuanYiZenHei-30" x="59.960938"/>
       <use xlink:href="#WenQuanYiZenHei-32" x="119.921875"/>
       <use xlink:href="#WenQuanYiZenHei-30" x="179.882812"/>
       <use xlink:href="#WenQuanYiZenHei-2d" x="239.84375"/>
       <use xlink:href="#WenQuanYiZenHei-30" x="269.824219"/>
       <use xlink:href="#WenQuanYiZenHei-37" x="329.785156"/>
      </g>
     </g>
    </g>
    <g id="xtick_4">
     <g id="line2d_4">
      <g>
       <use xlink:href="#m1a11508baf" x="423.099933" y="367.701" style="stroke: #000000; stroke-width: 0.8"/>
      </g>
     </g>
     <g id="text_4">
      <!-- 2020-10 -->
      <g transform="translate(403.61009 381.55725)scale(0.1 -0.1)">
       <use xlink:href="#WenQuanYiZenHei-32"/>
       <use xlink:href="#WenQuanYiZenHei-30" x="59.960938"/>
       <use xlink:href="#WenQuanYiZenHei-32" x="119.921875"/>
       <use xlink:href="#WenQuanYiZenHei-30" x="179.882812"/>
       <use xlink:href="#WenQuanYiZenHei-2d" x="239.84375"/>
       <use xlink:href="#WenQuanYiZenHei-31" x="269.824219"/>
       <use xlink:href="#WenQuanYiZenHei-30" x="329.785156"/>
      </g>
     </g>
    </g>
    <g id="xtick_5">
     <g id="line2d_5">
      <g>
       <use xlink:href="#m1a11508baf" x="545.778814" y="367.701" style="stroke: #000000; stroke-width: 0.8"/>
      </g>
     </g>
     <g id="text_5">
      <!-- 2021-01 -->
      <g transform="translate(526.28897 381.55725)scale(0.1 -0.1)">
       <use xlink:href="#WenQuanYiZenHei-32"/>
       <use xlink:href="#WenQuanYiZenHei-30" x="59.960938"/>
       <use xlink:href="#WenQuanYiZenHei-32" x="119.921875"/>
       <use xlink:href="#WenQuanYiZenHei-31" x="179.882812"/>
       <use xlink:href="#WenQuanYiZenHei-2d" x="239.84375"/>
       <use xlink:href="#WenQuanYiZenHei-30" x="269.824219"/>
       <use xlink:href="#WenQuanYiZenHei-31" x="329.785156"/>
      </g>
     </g>
    </g>
    <g id="xtick_6">
     <g id="line2d_6">
      <g>
       <use xlink:href="#m1a11508baf" x="665.790763" y="367.701" style="stroke: #000000; stroke-width: 0.8"/>
      </g>
     </g>
     <g id="text_6">
      <!-- 2021-04 -->
      <g transform="translate(646.300919 381.55725)scale(0.1 -0.1)">
       <use xlink:href="#WenQuanYiZenHei-32"/>
       <use xlink:href="#WenQuanYiZenHei-30" x="59.960938"/>
       <use xlink:href="#WenQuanYiZenHei-32" x="119.921875"/>
       <use xlink:href="#WenQuanYiZenHei-31" x="179.882812"/>
       <use xlink:href="#WenQuanYiZenHei-2d" x="239.84375"/>
       <use xlink:href="#WenQuanYiZenHei-30" x="269.824219"/>
       <use xlink:href="#WenQuanYiZenHei-34" x="329.785156"/>
      </g>
     </g>
    </g>
    <g id="xtick_7">
     <g id="line2d_7">
      <g>
       <use xlink:href="#m1a11508baf" x="787.136178" y="367.701" style="stroke: #000000; stroke-width: 0.8"/>
      </g>
     </g>
     <g id="text_7">
      <!-- 2021-07 -->
      <g transform="translate(767.646334 381.55725)scale(0.1 -0.1)">
       <use xlink:href="#WenQuanYiZenHei-32"/>
       <use xlink:href="#WenQuanYiZenHei-30" x="59.960938"/>
       <use xlink:href="#WenQuanYiZenHei-32" x="119.921875"/>
       <use xlink:href="#WenQuanYiZenHei-31" x="179.882812"/>
       <use xlink:href="#WenQuanYiZenHei-2d" x="239.84375"/>
       <use xlink:href="#WenQuanYiZenHei-30" x="269.824219"/>
       <use xlink:href="#WenQuanYiZenHei-37" x="329.785156"/>
      </g>
     </g>
    </g>
    <g id="xtick_8">
     <g id="line2d_8">
      <g>
       <use xlink:href="#m1a11508baf" x="909.815058" y="367.701" style="stroke: #000000; stroke-width: 0.8"/>
      </g>
     </g>
     <g id="text_8">
      <!-- 2021-10 -->
      <g transform="translate(890.325215 381.55725)scale(0.1 -0.1)">
       <use xlink:href="#WenQuanYiZenHei-32"/>
       <use xlink:href="#WenQuanYiZenHei-30" x="59.960938"/>
       <use xlink:href="#WenQuanYiZenHei-32" x="119.921875"/>
       <use xlink:href="#WenQuanYiZenHei-31" x="179.882812"/>
       <use xlink:href="#WenQuanYiZenHei-2d" x="239.84375"/>
       <use xlink:href="#WenQuanYiZenHei-31" x="269.824219"/>
       <use xlink:href="#WenQuanYiZenHei-30" x="329.785156"/>
      </g>
     </g>
    </g>
    <g id="xtick_9">
     <g id="line2d_9">
      <g>
       <use xlink:href="#m1a11508baf" x="1032.493939" y="367.701" style="stroke: #000000; stroke-width: 0.8"/>
      </g>
     </g>
     <g id="text_9">
      <!-- 2022-01 -->
      <g transform="translate(1013.004095 381.55725)scale(0.1 -0.1)">
       <use xlink:href="#WenQuanYiZenHei-32"/>
       <use xlink:href="#WenQuanYiZenHei-30" x="59.960938"/>
       <use xlink:href="#WenQuanYiZenHei-32" x="119.921875"/>
       <use xlink:href="#WenQuanYiZenHei-32" x="179.882812"/>
       <use xlink:href="#WenQuanYiZenHei-2d" x="239.84375"/>
       <use xlink:href="#WenQuanYiZenHei-30" x="269.824219"/>
       <use xlink:href="#WenQuanYiZenHei-31" x="329.785156"/>
      </g>
     </g>
    </g>
    <g id="xtick_10">
     <g id="line2d_10">
      <g>
       <use xlink:href="#m1a11508baf" x="1152.505888" y="367.701" style="stroke: #000000; stroke-width: 0.8"/>
      </g>
     </g>
     <g id="text_10">
      <!-- 2022-04 -->
      <g transform="translate(1133.016044 381.55725)scale(0.1 -0.1)">
       <use xlink:href="#WenQuanYiZenHei-32"/>
       <use xlink:href="#WenQuanYiZenHei-30" x="59.960938"/>
       <use xlink:href="#WenQuanYiZenHei-32" x="119.921875"/>
       <use xlink:href="#WenQuanYiZenHei-32" x="179.882812"/>
       <use xlink:href="#WenQuanYiZenHei-2d" x="239.84375"/>
       <use xlink:href="#WenQuanYiZenHei-30" x="269.824219"/>
       <use xlink:href="#WenQuanYiZenHei-34" x="329.785156"/>
      </g>
     </g>
    </g>
    <g id="xtick_11">
     <g id="line2d_11">
      <g>
       <use xlink:href="#m1a11508baf" x="1273.851303" y="367.701" style="stroke: #000000; stroke-width: 0.8"/>
      </g>
     </g>
     <g id="text_11">
      <!-- 2022-07 -->
      <g transform="translate(1254.361459 381.55725)scale(0.1 -0.1)">
       <use xlink:href="#WenQuanYiZenHei-32"/>
       <use xlink:href="#WenQuanYiZenHei-30" x="59.960938"/>
       <use xlink:href="#WenQuanYiZenHei-32" x="119.921875"/>
       <use xlink:href="#WenQuanYiZenHei-32" x="179.882812"/>
       <use xlink:href="#WenQuanYiZenHei-2d" x="239.84375"/>
       <use xlink:href="#WenQuanYiZenHei-30" x="269.824219"/>
       <use xlink:href="#WenQuanYiZenHei-37" x="329.785156"/>
      </g>
     </g>
    </g>
   </g>
   <g id="matplotlib.axis_2">
    <g id="ytick_1">
     <g id="line2d_12">
      <defs>
       <path id="mbcf22c887b" d="M 0 0 
L -3.5 0 
" style="stroke: #000000; stroke-width: 0.8"/>
      </defs>
      <g>
       <use xlink:href="#mbcf22c887b" x="26.19375" y="348.981" style="stroke: #000000; stroke-width: 0.8"/>
      </g>
     </g>
     <g id="text_12">
      <!-- 0 -->
      <g transform="translate(13.196875 352.409125)scale(0.1 -0.1)">
       <use xlink:href="#WenQuanYiZenHei-30"/>
      </g>
     </g>
    </g>
    <g id="ytick_2">
     <g id="line2d_13">
      <g>
       <use xlink:href="#mbcf22c887b" x="26.19375" y="276.981" style="stroke: #000000; stroke-width: 0.8"/>
      </g>
     </g>
     <g id="text_13">
      <!-- 20 -->
      <g transform="translate(7.2 280.409125)scale(0.1 -0.1)">
       <use xlink:href="#WenQuanYiZenHei-32"/>
       <use xlink:href="#WenQuanYiZenHei-30" x="59.960938"/>
      </g>
     </g>
    </g>
    <g id="ytick_3">
     <g id="line2d_14">
      <g>
       <use xlink:href="#mbcf22c887b" x="26.19375" y="204.981" style="stroke: #000000; stroke-width: 0.8"/>
      </g>
     </g>
     <g id="text_14">
      <!-- 40 -->
      <g transform="translate(7.2 208.409125)scale(0.1 -0.1)">
       <use xlink:href="#WenQuanYiZenHei-34"/>
       <use xlink:href="#WenQuanYiZenHei-30" x="59.960938"/>
      </g>
     </g>
    </g>
    <g id="ytick_4">
     <g id="line2d_15">
      <g>
       <use xlink:href="#mbcf22c887b" x="26.19375" y="132.981" style="stroke: #000000; stroke-width: 0.8"/>
      </g>
     </g>
     <g id="text_15">
      <!-- 60 -->
      <g transform="translate(7.2 136.409125)scale(0.1 -0.1)">
       <defs>
        <path id="WenQuanYiZenHei-36" d="M 3550 1431 
Q 3550 725 3006 288 
Q 2581 -63 1994 -63 
Q 1013 -63 563 825 
Q 288 1363 288 2081 
Q 288 3294 856 3938 
Q 1319 4456 2075 4456 
Q 2969 4456 3363 3756 
Q 3431 3631 3481 3481 
L 2988 3350 
Q 2750 3994 2075 4006 
Q 1056 4006 844 2669 
Q 794 2356 794 1981 
L 806 1981 
Q 1006 2506 1544 2744 
Q 1819 2869 2119 2869 
Q 2788 2869 3213 2375 
Q 3550 1975 3550 1431 
z
M 3038 1406 
Q 3038 1906 2656 2213 
Q 2381 2431 2038 2431 
Q 1525 2431 1181 2044 
Q 919 1744 919 1356 
Q 919 881 1344 581 
Q 1631 375 1981 375 
Q 2519 375 2838 781 
Q 3038 1050 3038 1406 
z
" transform="scale(0.015625)"/>
       </defs>
       <use xlink:href="#WenQuanYiZenHei-36"/>
       <use xlink:href="#WenQuanYiZenHei-30" x="59.960938"/>
      </g>
     </g>
    </g>
    <g id="ytick_5">
     <g id="line2d_16">
      <g>
       <use xlink:href="#mbcf22c887b" x="26.19375" y="60.981" style="stroke: #000000; stroke-width: 0.8"/>
      </g>
     </g>
     <g id="text_16">
      <!-- 80 -->
      <g transform="translate(7.2 64.409125)scale(0.1 -0.1)">
       <defs>
        <path id="WenQuanYiZenHei-38" d="M 3619 1175 
Q 3619 431 2850 100 
Q 2444 -63 1944 -63 
Q 1231 -63 725 269 
Q 225 594 225 1125 
Q 225 1881 1269 2281 
Q 719 2481 519 2938 
Q 444 3119 444 3319 
Q 444 4000 1144 4294 
Q 1519 4456 1963 4456 
Q 2669 4456 3094 4094 
Q 3425 3813 3425 3369 
Q 3425 2638 2575 2356 
Q 3231 2056 3450 1725 
Q 3619 1488 3619 1175 
z
M 2944 3344 
Q 2944 3906 2288 4019 
Q 2138 4044 1969 4044 
Q 1438 4044 1163 3775 
Q 1000 3613 1000 3375 
Q 1000 2925 1594 2663 
Q 1756 2588 1931 2550 
Q 2581 2725 2788 2956 
Q 2944 3125 2944 3344 
z
M 3075 1094 
Q 3075 1738 1875 2050 
Q 1094 1881 850 1463 
Q 763 1313 763 1131 
Q 763 569 1456 406 
Q 1681 344 1944 344 
Q 2519 344 2850 619 
Q 3075 813 3075 1094 
z
" transform="scale(0.015625)"/>
       </defs>
       <use xlink:href="#WenQuanYiZenHei-38"/>
       <use xlink:href="#WenQuanYiZenHei-30" x="59.960938"/>
      </g>
     </g>
    </g>
   </g>
   <g id="line2d_17">
    <path d="M 87.066477 320.181 
L 88.399943 298.581 
L 89.733409 330.981 
L 91.066876 251.781 
L 92.400342 305.781 
L 93.733808 309.381 
L 95.067274 276.981 
L 96.40074 338.181 
L 97.734206 258.981 
L 99.067672 244.581 
L 100.401138 266.181 
L 101.734604 273.381 
L 103.06807 291.381 
L 104.401537 258.981 
L 105.735003 273.381 
L 107.068469 266.181 
L 108.401935 284.181 
L 109.735401 309.381 
L 111.068867 309.381 
L 112.402333 330.981 
L 113.735799 312.981 
L 115.069265 298.581 
L 116.402731 327.381 
L 117.736197 338.181 
L 119.069664 330.981 
L 120.40313 345.381 
L 121.736596 327.381 
L 123.070062 327.381 
L 124.403528 341.781 
L 125.736994 345.381 
L 127.07046 338.181 
L 128.403926 348.981 
L 129.737392 348.981 
L 131.070858 345.381 
L 132.404325 348.981 
L 133.737791 312.981 
L 135.071257 348.981 
L 137.738189 341.781 
L 140.405121 348.981 
L 141.738587 334.581 
L 143.072053 348.981 
L 144.405519 334.581 
L 145.738985 334.581 
L 148.405918 348.981 
L 149.739384 345.381 
L 151.07285 327.381 
L 152.406316 348.981 
L 153.739782 345.381 
L 155.073248 345.381 
L 156.406714 330.981 
L 157.74018 312.981 
L 159.073646 334.581 
L 160.407113 302.181 
L 161.740579 309.381 
L 163.074045 309.381 
L 164.407511 302.181 
L 165.740977 284.181 
L 167.074443 294.981 
L 168.407909 273.381 
L 169.741375 338.181 
L 171.074841 330.981 
L 172.408307 338.181 
L 173.741773 334.581 
L 175.07524 334.581 
L 176.408706 348.981 
L 177.742172 338.181 
L 179.075638 348.981 
L 180.409104 341.781 
L 181.74257 341.781 
L 183.076036 345.381 
L 185.742968 345.381 
L 187.076434 348.981 
L 188.409901 345.381 
L 189.743367 348.981 
L 191.076833 348.981 
L 192.410299 345.381 
L 193.743765 348.981 
L 196.410697 348.981 
L 197.744163 345.381 
L 199.077629 338.181 
L 200.411095 348.981 
L 261.750536 348.981 
L 263.084002 345.381 
L 264.417468 348.981 
L 272.418265 348.981 
L 273.751731 345.381 
L 275.085197 327.381 
L 276.418663 219.381 
L 277.752129 219.381 
L 279.085595 251.781 
L 280.419061 237.381 
L 281.752527 273.381 
L 283.085993 258.981 
L 284.419459 348.981 
L 285.752926 190.581 
L 287.086392 316.581 
L 288.419858 302.181 
L 289.753324 323.781 
L 291.08679 302.181 
L 292.420256 309.381 
L 293.753722 287.781 
L 295.087188 298.581 
L 296.420654 323.781 
L 297.75412 323.781 
L 299.087587 338.181 
L 300.421053 345.381 
L 301.754519 341.781 
L 303.087985 345.381 
L 304.421451 341.781 
L 307.088383 348.981 
L 333.757705 348.981 
L 335.091171 341.781 
L 336.424637 345.381 
L 337.758103 345.381 
L 339.091569 348.981 
L 344.425434 348.981 
L 345.7589 345.381 
L 347.092366 348.981 
L 348.425832 345.381 
L 349.759298 348.981 
L 412.432205 348.981 
L 413.765671 345.381 
L 415.099137 348.981 
L 435.101128 348.981 
L 436.434594 345.381 
L 437.76806 348.981 
L 445.768857 348.981 
L 447.102323 345.381 
L 448.435789 348.981 
L 451.102721 348.981 
L 452.436188 341.781 
L 453.769654 348.981 
L 455.10312 348.981 
L 456.436586 345.381 
L 457.770052 348.981 
L 459.103518 345.381 
L 460.436984 348.981 
L 464.437382 348.981 
L 465.770848 341.781 
L 467.104315 348.981 
L 468.437781 345.381 
L 469.771247 348.981 
L 473.771645 348.981 
L 475.105111 341.781 
L 476.438577 348.981 
L 487.106306 348.981 
L 488.439772 345.381 
L 489.773238 348.981 
L 491.106704 345.381 
L 492.44017 345.381 
L 493.773636 348.981 
L 501.774433 348.981 
L 503.107899 345.381 
L 504.441365 348.981 
L 507.108297 348.981 
L 508.441764 345.381 
L 509.77523 348.981 
L 517.776026 348.981 
L 519.109492 341.781 
L 520.442958 345.381 
L 523.109891 345.381 
L 524.443357 348.981 
L 525.776823 348.981 
L 527.110289 341.781 
L 528.443755 341.781 
L 529.777221 348.981 
L 535.111085 348.981 
L 536.444552 341.781 
L 537.778018 320.181 
L 539.111484 345.381 
L 540.44495 323.781 
L 541.778416 345.381 
L 543.111882 341.781 
L 544.445348 330.981 
L 545.778814 345.381 
L 547.11228 341.781 
L 548.445746 341.781 
L 549.779213 345.381 
L 551.112679 345.381 
L 552.446145 348.981 
L 553.779611 345.381 
L 555.113077 348.981 
L 556.446543 345.381 
L 559.113475 345.381 
L 560.446941 348.981 
L 561.780407 345.381 
L 563.113873 348.981 
L 564.44734 341.781 
L 565.780806 341.781 
L 567.114272 338.181 
L 568.447738 345.381 
L 569.781204 323.781 
L 571.11467 338.181 
L 573.781602 338.181 
L 575.115068 341.781 
L 576.448534 338.181 
L 577.782001 341.781 
L 579.115467 334.581 
L 580.448933 348.981 
L 581.782399 345.381 
L 583.115865 345.381 
L 584.449331 348.981 
L 585.782797 341.781 
L 588.449729 348.981 
L 589.783195 330.981 
L 591.116661 348.981 
L 592.450128 348.981 
L 593.783594 341.781 
L 595.11706 348.981 
L 612.452119 348.981 
L 613.785585 345.381 
L 615.119051 348.981 
L 621.786382 348.981 
L 623.119848 341.781 
L 624.453314 348.981 
L 665.790763 348.981 
L 667.124229 345.381 
L 668.457695 348.981 
L 669.791161 341.781 
L 671.124627 348.981 
L 672.458093 345.381 
L 673.791559 348.981 
L 675.125026 345.381 
L 679.125424 345.381 
L 680.45889 348.981 
L 732.464068 348.981 
L 733.797534 345.381 
L 735.131 348.981 
L 737.797932 348.981 
L 739.131398 345.381 
L 740.464864 348.981 
L 747.132195 348.981 
L 748.465661 345.381 
L 749.799127 345.381 
L 751.132593 341.781 
L 753.799525 348.981 
L 756.466457 341.781 
L 757.799923 348.981 
L 759.13339 345.381 
L 760.466856 345.381 
L 761.800322 348.981 
L 763.133788 345.381 
L 764.467254 345.381 
L 765.80072 348.981 
L 767.134186 345.381 
L 768.467652 348.981 
L 769.801118 345.381 
L 771.134584 348.981 
L 772.468051 341.781 
L 773.801517 348.981 
L 776.468449 348.981 
L 777.801915 345.381 
L 779.135381 348.981 
L 781.802313 341.781 
L 783.135779 352.581 
L 784.469245 348.981 
L 800.470839 348.981 
L 801.804305 345.381 
L 803.137771 348.981 
L 807.138169 348.981 
L 808.471635 334.581 
L 809.805101 345.381 
L 811.138567 345.381 
L 812.472033 348.981 
L 817.805898 348.981 
L 819.139364 345.381 
L 820.47283 348.981 
L 821.806296 345.381 
L 824.473228 345.381 
L 825.806694 348.981 
L 827.14016 348.981 
L 828.473627 327.381 
L 829.807093 345.381 
L 831.140559 348.981 
L 832.474025 338.181 
L 833.807491 348.981 
L 836.474423 348.981 
L 837.807889 338.181 
L 839.141355 348.981 
L 840.474821 345.381 
L 841.808287 348.981 
L 845.808686 348.981 
L 847.142152 341.781 
L 848.475618 348.981 
L 849.809084 341.781 
L 851.14255 345.381 
L 852.476016 341.781 
L 853.809482 341.781 
L 855.142948 345.381 
L 856.476415 341.781 
L 857.809881 348.981 
L 865.810677 348.981 
L 867.144143 345.381 
L 868.477609 345.381 
L 869.811076 348.981 
L 872.478008 348.981 
L 873.811474 345.381 
L 875.14494 348.981 
L 884.479203 348.981 
L 885.812669 345.381 
L 887.146135 348.981 
L 899.14733 348.981 
L 900.480796 345.381 
L 901.814262 348.981 
L 903.147728 338.181 
L 904.481194 348.981 
L 907.148126 348.981 
L 908.481592 345.381 
L 909.815058 348.981 
L 911.148524 348.981 
L 912.481991 345.381 
L 913.815457 348.981 
L 915.148923 348.981 
L 916.482389 345.381 
L 917.815855 348.981 
L 923.149719 348.981 
L 924.483185 345.381 
L 925.816652 348.981 
L 928.483584 348.981 
L 929.81705 345.381 
L 931.150516 348.981 
L 932.483982 348.981 
L 933.817448 345.381 
L 935.150914 348.981 
L 936.48438 345.381 
L 937.817846 327.381 
L 939.151312 330.981 
L 940.484779 341.781 
L 941.818245 334.581 
L 943.151711 338.181 
L 944.485177 334.581 
L 945.818643 338.181 
L 947.152109 334.581 
L 948.485575 345.381 
L 949.819041 348.981 
L 951.152507 341.781 
L 952.485973 316.581 
L 953.81944 348.981 
L 956.486372 348.981 
L 957.819838 345.381 
L 961.820236 345.381 
L 963.153702 341.781 
L 964.487168 334.581 
L 967.1541 348.981 
L 968.487567 348.981 
L 969.821033 345.381 
L 971.154499 345.381 
L 972.487965 338.181 
L 973.821431 348.981 
L 975.154897 348.981 
L 976.488363 345.381 
L 977.821829 348.981 
L 991.15649 348.981 
L 992.489956 338.181 
L 993.823422 348.981 
L 996.490355 348.981 
L 997.823821 345.381 
L 999.157287 348.981 
L 1000.490753 348.981 
L 1001.824219 345.381 
L 1003.157685 348.981 
L 1004.491151 348.981 
L 1005.824617 341.781 
L 1007.158083 348.981 
L 1009.825016 348.981 
L 1011.158482 345.381 
L 1012.491948 345.381 
L 1013.825414 348.981 
L 1015.15888 334.581 
L 1016.492346 345.381 
L 1017.825812 348.981 
L 1021.82621 348.981 
L 1024.493143 341.781 
L 1025.826609 348.981 
L 1027.160075 348.981 
L 1028.493541 345.381 
L 1029.827007 348.981 
L 1031.160473 341.781 
L 1032.493939 348.981 
L 1033.827405 334.581 
L 1035.160871 348.981 
L 1036.494337 345.381 
L 1037.827804 348.981 
L 1039.16127 345.381 
L 1040.494736 348.981 
L 1041.828202 345.381 
L 1043.161668 348.981 
L 1045.8286 341.781 
L 1047.162066 345.381 
L 1048.495532 345.381 
L 1049.828998 348.981 
L 1051.162465 341.781 
L 1052.495931 345.381 
L 1053.829397 334.581 
L 1055.162863 327.381 
L 1056.496329 334.581 
L 1057.829795 323.781 
L 1059.163261 309.381 
L 1061.830193 323.781 
L 1063.163659 320.181 
L 1064.497125 291.381 
L 1065.830592 330.981 
L 1067.164058 312.981 
L 1068.497524 330.981 
L 1069.83099 266.181 
L 1071.164456 338.181 
L 1072.497922 334.581 
L 1073.831388 338.181 
L 1075.164854 334.581 
L 1076.49832 341.781 
L 1077.831786 345.381 
L 1079.165253 345.381 
L 1080.498719 334.581 
L 1081.832185 345.381 
L 1083.165651 345.381 
L 1084.499117 348.981 
L 1087.166049 348.981 
L 1088.499515 341.781 
L 1089.832981 348.981 
L 1091.166447 345.381 
L 1092.499913 348.981 
L 1095.166846 348.981 
L 1096.500312 334.581 
L 1097.833778 327.381 
L 1099.167244 316.581 
L 1100.50071 320.181 
L 1101.834176 284.181 
L 1103.167642 316.581 
L 1104.501108 312.981 
L 1105.834574 330.981 
L 1107.168041 312.981 
L 1108.501507 276.981 
L 1109.834973 305.781 
L 1111.168439 330.981 
L 1112.501905 309.381 
L 1113.835371 316.581 
L 1115.168837 316.581 
L 1116.502303 302.181 
L 1117.835769 327.381 
L 1119.169235 269.781 
L 1120.502702 309.381 
L 1121.836168 284.181 
L 1123.169634 276.981 
L 1124.5031 327.381 
L 1125.836566 284.181 
L 1127.170032 316.581 
L 1128.503498 294.981 
L 1129.836964 305.781 
L 1131.17043 305.781 
L 1132.503896 298.581 
L 1133.837362 309.381 
L 1135.170829 294.981 
L 1136.504295 320.181 
L 1137.837761 312.981 
L 1139.171227 330.981 
L 1140.504693 334.581 
L 1141.838159 330.981 
L 1143.171625 320.181 
L 1144.505091 341.781 
L 1145.838557 341.781 
L 1147.172023 338.181 
L 1148.50549 338.181 
L 1149.838956 341.781 
L 1151.172422 341.781 
L 1152.505888 320.181 
L 1153.839354 348.981 
L 1155.17282 334.581 
L 1156.506286 312.981 
L 1157.839752 334.581 
L 1159.173218 330.981 
L 1160.506684 316.581 
L 1161.84015 320.181 
L 1163.173617 334.581 
L 1164.507083 345.381 
L 1165.840549 334.581 
L 1167.174015 348.981 
L 1168.507481 341.781 
L 1169.840947 338.181 
L 1171.174413 345.381 
L 1172.507879 348.981 
L 1173.841345 323.781 
L 1175.174811 338.181 
L 1177.841744 345.381 
L 1179.17521 345.381 
L 1180.508676 320.181 
L 1181.842142 269.781 
L 1183.175608 294.981 
L 1184.509074 233.781 
L 1185.84254 237.381 
L 1187.176006 172.581 
L 1188.509472 172.581 
L 1189.842938 168.981 
L 1191.176405 158.181 
L 1192.509871 219.381 
L 1193.843337 165.381 
L 1196.510269 194.181 
L 1197.843735 150.981 
L 1199.177201 183.381 
L 1200.510667 190.581 
L 1201.844133 230.181 
L 1203.177599 125.781 
L 1204.511066 258.981 
L 1205.844532 222.981 
L 1207.177998 194.181 
L 1208.511464 233.781 
L 1209.84493 230.181 
L 1211.178396 208.581 
L 1212.511862 194.181 
L 1213.845328 161.781 
L 1215.178794 168.981 
L 1216.51226 165.381 
L 1217.845727 140.181 
L 1219.179193 161.781 
L 1220.512659 50.181 
L 1221.846125 201.381 
L 1223.179591 201.381 
L 1224.513057 215.781 
L 1225.846523 266.181 
L 1227.179989 276.981 
L 1229.846921 320.181 
L 1231.180387 291.381 
L 1232.513854 298.581 
L 1233.84732 348.981 
L 1235.180786 280.581 
L 1236.514252 316.581 
L 1237.847718 348.981 
L 1239.181184 269.781 
L 1240.51465 348.981 
L 1241.848116 334.581 
L 1243.181582 341.781 
L 1244.515048 316.581 
L 1245.848515 208.581 
L 1248.515447 244.581 
L 1249.848913 197.781 
L 1251.182379 258.981 
L 1252.515845 294.981 
L 1253.849311 302.181 
L 1255.182777 341.781 
L 1256.516243 345.381 
L 1257.849709 334.581 
L 1259.183175 334.581 
L 1260.516642 330.981 
L 1261.850108 334.581 
L 1263.183574 330.981 
L 1264.51704 330.981 
L 1265.850506 345.381 
L 1267.183972 338.181 
L 1268.517438 345.381 
L 1269.850904 345.381 
L 1271.18437 338.181 
L 1272.517836 348.981 
L 1273.851303 348.981 
L 1275.184769 345.381 
L 1276.518235 345.381 
L 1279.185167 323.781 
L 1280.518633 327.381 
L 1281.852099 348.981 
L 1283.185565 338.181 
L 1284.519031 338.181 
L 1285.852497 341.781 
L 1287.185963 348.981 
L 1287.185963 348.981 
" clip-path="url(#paa3b0baf6a)" style="fill: none; stroke: #0000ff; stroke-width: 1.5; stroke-linecap: square"/>
   </g>
   <g id="line2d_18">
    <path d="M 1047.162066 343.181543 
L 1048.495532 344.740557 
L 1049.828998 347.428553 
L 1051.162465 345.532904 
L 1052.495931 344.251137 
L 1053.829397 339.4562 
L 1055.162863 332.407223 
L 1056.496329 329.752934 
L 1057.829795 328.444908 
L 1059.163261 318.79957 
L 1060.496727 312.175518 
L 1061.830193 317.678615 
L 1063.163659 322.598317 
L 1064.497125 308.303378 
L 1065.830592 310.444606 
L 1067.164058 317.131569 
L 1068.497524 326.850133 
L 1069.83099 298.647548 
L 1071.164456 304.49805 
L 1073.831388 344.993719 
L 1075.164854 335.922155 
L 1076.49832 338.458247 
L 1077.831786 342.547667 
L 1079.165253 346.028011 
L 1080.498719 340.954945 
L 1081.832185 340.070082 
L 1083.165651 343.459671 
L 1084.499117 348.286856 
L 1085.832583 348.769708 
L 1087.166049 349.410151 
L 1088.499515 345.744196 
L 1089.832981 345.440388 
L 1091.166447 346.081712 
L 1092.499913 348.068996 
L 1093.83338 348.340557 
L 1095.166846 349.410151 
L 1096.500312 342.507392 
L 1099.167244 321.231773 
L 1100.50071 317.974975 
L 1101.834176 302.498234 
L 1103.167642 301.288688 
L 1104.501108 308.769459 
L 1105.834574 325.146663 
L 1107.168041 321.403379 
L 1108.501507 299.999196 
L 1109.834973 289.895378 
L 1111.168439 311.127967 
L 1112.501905 323.224755 
L 1113.835371 316.889614 
L 1115.168837 313.583509 
L 1116.502303 310.965694 
L 1117.835769 314.354981 
L 1119.169235 298.29092 
L 1120.502702 293.968151 
L 1121.836168 288.861555 
L 1123.169634 287.143903 
L 1124.5031 297.057153 
L 1125.836566 304.143787 
L 1127.170032 307.290238 
L 1128.503498 299.819146 
L 1129.836964 304.966319 
L 1131.17043 302.572217 
L 1132.503896 303.83165 
L 1133.837362 303.85879 
L 1135.170829 301.415214 
L 1136.504295 308.442435 
L 1137.837761 313.748548 
L 1139.171227 324.499653 
L 1140.504693 330.68464 
L 1141.838159 334.897062 
L 1143.171625 326.766237 
L 1144.505091 330.096136 
L 1145.838557 339.225795 
L 1147.172023 342.737506 
L 1148.50549 338.392292 
L 1149.838956 339.370251 
L 1151.172422 341.569708 
L 1152.505888 332.499739 
L 1153.839354 334.395967 
L 1155.17282 338.24215 
L 1156.506286 329.148965 
L 1157.839752 322.242558 
L 1159.173218 329.119939 
L 1160.506684 327.293591 
L 1161.84015 318.615418 
L 1163.173617 324.726711 
L 1164.507083 339.02019 
L 1165.840549 341.608523 
L 1167.174015 342.975937 
L 1168.507481 343.611575 
L 1169.840947 342.301787 
L 1171.174413 340.770793 
L 1172.507879 346.147667 
L 1173.841345 338.299197 
L 1175.174811 332.162802 
L 1176.508278 335.950176 
L 1177.841744 344.904715 
L 1179.17521 345.598859 
L 1180.508676 334.481337 
L 1181.842142 299.002415 
L 1183.175608 281.063841 
L 1184.509074 259.981005 
L 1185.84254 241.995422 
L 1187.176006 200.742901 
L 1188.509472 176.813405 
L 1189.842938 163.237875 
L 1191.176405 164.337086 
L 1192.509871 185.898558 
L 1193.843337 190.225555 
L 1195.176803 182.319557 
L 1197.843735 175.631614 
L 1199.177201 169.798725 
L 1200.510667 179.566362 
L 1201.844133 211.8232 
L 1203.177599 181.781434 
L 1204.511066 196.510002 
L 1205.844532 222.533795 
L 1207.177998 228.025299 
L 1208.511464 209.382244 
L 1209.84493 226.405177 
L 1211.178396 225.402544 
L 1212.511862 202.945992 
L 1213.845328 177.885642 
L 1215.178794 165.202826 
L 1216.51226 163.077653 
L 1217.845727 155.12178 
L 1219.179193 150.941304 
L 1220.512659 107.338728 
L 1221.846125 127.278839 
L 1223.179591 179.203053 
L 1224.513057 225.878961 
L 1225.846523 237.593461 
L 1227.179989 269.794725 
L 1228.513455 292.065654 
L 1229.846921 308.311115 
L 1231.180387 308.54094 
L 1232.513854 298.883046 
L 1233.84732 317.382834 
L 1235.180786 316.131578 
L 1236.514252 306.787683 
L 1237.847718 320.879826 
L 1239.181184 315.766042 
L 1240.51465 313.896626 
L 1241.848116 328.417643 
L 1243.181582 348.104299 
L 1244.515048 328.312997 
L 1245.848515 270.366285 
L 1247.181981 220.007707 
L 1248.515447 220.742013 
L 1249.848913 224.631071 
L 1251.182379 230.186385 
L 1253.849311 303.400457 
L 1255.182777 323.852351 
L 1256.516243 341.933494 
L 1257.849709 345.035166 
L 1259.183175 335.644027 
L 1260.516642 331.675144 
L 1261.850108 332.810694 
L 1263.183574 332.322155 
L 1264.51704 331.621443 
L 1265.850506 337.025457 
L 1267.183972 341.299029 
L 1268.517438 343.556993 
L 1269.850904 344.100114 
L 1271.18437 343.002499 
L 1272.517836 343.45879 
L 1273.851303 347.488822 
L 1275.184769 348.650052 
L 1276.518235 345.592292 
L 1277.851701 340.096643 
L 1279.185167 330.35967 
L 1280.518633 324.745824 
L 1281.852099 335.592666 
L 1283.185565 343.287194 
L 1284.519031 341.389783 
L 1285.852497 338.511948 
L 1287.185963 344.806512 
L 1287.185963 344.806512 
" clip-path="url(#paa3b0baf6a)" style="fill: none; stroke: #ffa500; stroke-width: 1.5; stroke-linecap: square"/>
   </g>
   <g id="line2d_19">
    <path d="M 1287.185963 344.806512 
L 1288.51943 347.110901 
L 1289.852896 346.945777 
L 1291.186362 346.403783 
L 1292.519828 346.986515 
L 1293.853294 346.67788 
L 1295.18676 346.748954 
L 1296.520226 346.797413 
L 1297.853692 346.729776 
L 1299.187158 346.772635 
L 1300.520624 346.75879 
L 1301.854091 346.755832 
L 1303.187557 346.763382 
L 1304.521023 346.75775 
" clip-path="url(#paa3b0baf6a)" style="fill: none; stroke: #ff0000; stroke-width: 1.5; stroke-linecap: square"/>
   </g>
   <g id="patch_3">
    <path d="M 26.19375 367.701 
L 26.19375 35.061 
" style="fill: none; stroke: #000000; stroke-width: 0.8; stroke-linejoin: miter; stroke-linecap: square"/>
   </g>
   <g id="patch_4">
    <path d="M 1365.39375 367.701 
L 1365.39375 35.061 
" style="fill: none; stroke: #000000; stroke-width: 0.8; stroke-linejoin: miter; stroke-linecap: square"/>
   </g>
   <g id="patch_5">
    <path d="M 26.19375 367.701 
L 1365.39375 367.701 
" style="fill: none; stroke: #000000; stroke-width: 0.8; stroke-linejoin: miter; stroke-linecap: square"/>
   </g>
   <g id="patch_6">
    <path d="M 26.19375 35.061 
L 1365.39375 35.061 
" style="fill: none; stroke: #000000; stroke-width: 0.8; stroke-linejoin: miter; stroke-linecap: square"/>
   </g>
   <g id="text_17">
    <!-- 每日新增预测 - 北京 -->
    <g transform="translate(642.396563 17.041875)scale(0.12 -0.12)">
     <defs>
      <path id="WenQuanYiZenHei-6bcf" d="M 6138 2181 
Q 6113 1988 6138 1800 
Q 5788 1819 5438 1819 
L 4975 1819 
L 4863 738 
L 5806 738 
L 5806 394 
L 4831 394 
L 4775 -144 
Q 4719 -563 4350 -725 
Q 4013 -856 3550 -825 
L 3288 -819 
Q 3331 -663 3275 -519 
Q 3219 -375 3113 -288 
Q 3381 -313 3759 -303 
Q 4138 -294 4231 -238 
Q 4338 -163 4350 88 
L 4381 394 
L 1025 394 
L 1244 1819 
L 813 1819 
Q 463 1819 113 1800 
Q 138 1988 113 2181 
Q 463 2163 813 2163 
L 1294 2163 
L 1488 3431 
L 1488 3581 
L 1506 3581 
L 1513 3613 
L 1713 3581 
L 5156 3581 
L 5013 2163 
L 5438 2163 
Q 5788 2163 6138 2181 
z
M 5588 4463 
Q 5569 4269 5588 4081 
Q 5244 4100 4894 4100 
L 1813 4100 
Q 1344 3463 606 2788 
Q 481 2988 256 3069 
Q 744 3494 1116 3972 
Q 1488 4450 1919 5181 
Q 2119 5044 2344 4950 
Q 2213 4688 2050 4444 
L 4894 4444 
Q 5238 4444 5588 4463 
z
M 2844 3238 
L 1906 3238 
L 1744 2163 
L 3244 2163 
L 2581 3038 
L 2844 3238 
z
M 3250 2163 
L 4563 2163 
L 4669 3238 
L 3044 3238 
L 3638 2456 
L 3250 2163 
z
M 2944 1819 
Q 3275 1394 3550 938 
L 3213 738 
L 4419 738 
L 4525 1819 
L 2944 1819 
z
M 2656 1819 
L 1694 1819 
L 1525 738 
L 3094 738 
Q 2806 1219 2450 1650 
L 2656 1819 
z
" transform="scale(0.015625)"/>
      <path id="WenQuanYiZenHei-65e5" d="M 1494 -775 
Q 1244 -750 988 -775 
Q 1013 -313 1013 156 
L 1013 4875 
L 5269 4875 
L 5269 -763 
L 4813 -763 
L 4813 156 
L 1469 156 
Q 1469 -313 1494 -775 
z
M 4813 2700 
L 4813 4500 
L 1469 4500 
L 1469 2700 
L 4813 2700 
z
M 4813 531 
L 4813 2325 
L 1469 2325 
L 1469 531 
L 4813 531 
z
" transform="scale(0.015625)"/>
      <path id="WenQuanYiZenHei-65b0" d="M 5419 -763 
Q 5188 -738 4963 -763 
Q 4981 -344 4981 75 
L 4981 2819 
L 4188 2819 
L 4188 1706 
Q 4188 63 3163 -738 
Q 3019 -519 2769 -469 
Q 3769 131 3769 1706 
L 3769 4769 
L 3875 4769 
L 3844 4831 
L 4294 4781 
Q 4438 4769 4894 4816 
Q 5350 4863 5512 4931 
Q 5675 5000 5763 5094 
Q 5850 4881 5981 4694 
Q 5713 4544 5263 4519 
L 4188 4438 
L 4188 3100 
L 5563 3100 
Q 5850 3100 6131 3113 
Q 6119 2956 6131 2806 
L 5394 2819 
L 5394 75 
Q 5394 -344 5419 -763 
z
M 2981 213 
Q 2656 744 2256 1225 
L 2606 1513 
Q 3025 1006 3369 450 
L 2981 213 
z
M 1169 1525 
Q 1375 1419 1594 1363 
Q 1281 488 469 -469 
Q 331 -300 119 -244 
Q 575 263 888 900 
Q 1038 1206 1169 1525 
z
M 1825 6 
L 1825 1769 
L 1081 1769 
Q 794 1769 513 1756 
Q 525 1913 513 2063 
Q 794 2050 1081 2050 
L 1825 2050 
L 1825 2775 
L 994 2775 
Q 706 2775 425 2763 
Q 438 2919 425 3075 
Q 706 3056 994 3056 
L 1825 3056 
L 1825 3088 
L 1906 3088 
Q 2288 3656 2588 4381 
Q 2794 4269 3013 4206 
Q 2800 3675 2381 3056 
L 3013 3056 
Q 3294 3056 3581 3075 
Q 3563 2919 3581 2763 
Q 3294 2775 3013 2775 
L 2238 2775 
L 2238 2050 
L 2925 2050 
Q 3206 2050 3494 2063 
Q 3475 1913 3494 1756 
Q 3206 1769 2925 1769 
L 2238 1769 
L 2238 -156 
Q 2238 -413 2075 -581 
Q 1844 -794 1306 -794 
Q 1363 -519 1188 -288 
Q 1338 -313 1534 -316 
Q 1731 -319 1778 -278 
Q 1825 -238 1825 6 
z
M 1875 3388 
L 1500 3131 
L 825 4088 
L 1200 4350 
L 1875 3388 
z
M 3419 4713 
Q 3400 4563 3419 4406 
Q 3131 4419 2850 4419 
L 1125 4419 
Q 838 4419 556 4406 
Q 569 4563 556 4713 
Q 838 4700 1125 4700 
L 1763 4700 
L 1388 5088 
L 1719 5406 
L 2288 4813 
L 2175 4700 
L 2850 4700 
Q 3131 4700 3419 4713 
z
" transform="scale(0.015625)"/>
      <path id="WenQuanYiZenHei-589e" d="M 3138 -769 
Q 2913 -744 2688 -769 
Q 2706 -356 2706 56 
L 2706 1719 
L 5706 1719 
L 5706 -756 
L 5300 -756 
L 5300 -338 
L 3119 -338 
Q 3125 -550 3138 -769 
z
M 5113 3569 
Q 5344 3606 5563 3688 
Q 5669 3175 5256 2694 
Q 5113 2519 4975 2506 
Q 4831 2725 4588 2813 
Q 4806 2831 4997 3068 
Q 5188 3306 5113 3569 
z
M 3850 2763 
L 3469 2538 
L 2925 3456 
L 3313 3681 
L 3850 2763 
z
M 2400 2100 
Q 2469 3138 2400 4175 
L 3413 4175 
Q 3138 4550 2825 4888 
L 3156 5194 
Q 3581 4725 3938 4206 
L 3900 4175 
L 4456 4175 
Q 4863 4575 5131 5163 
Q 5325 5044 5538 4975 
Q 5369 4575 5013 4175 
L 6056 4175 
Q 5981 3138 6056 2100 
L 2400 2100 
z
M 5300 806 
L 5300 1450 
L 3113 1450 
Q 3113 1125 3113 806 
L 5300 806 
z
M 5300 563 
L 3113 563 
L 3113 -94 
L 5300 -94 
L 5300 563 
z
M 4431 3913 
L 4431 2363 
L 5650 2363 
L 5650 3913 
L 4756 3913 
L 4700 3856 
Q 4681 3888 4656 3913 
L 4431 3913 
z
M 4025 3913 
L 2806 3913 
L 2806 2363 
L 4025 2363 
L 4025 3913 
z
M -31 625 
Q 506 763 1006 975 
L 1006 3206 
L 669 3206 
Q 369 3206 75 3188 
Q 94 3356 75 3531 
Q 369 3513 669 3513 
L 1006 3513 
L 1006 4263 
Q 1006 4700 981 5131 
Q 1206 5106 1431 5131 
Q 1413 4700 1413 4263 
L 1413 3513 
L 2238 3531 
Q 2219 3356 2238 3188 
L 1413 3206 
L 1413 1163 
L 2150 1531 
L 2194 1256 
Q 1269 775 813 519 
L 194 144 
Q 138 438 -31 625 
z
" transform="scale(0.015625)"/>
      <path id="WenQuanYiZenHei-9884" d="M 1206 19 
L 1206 2888 
L 669 2888 
Q 356 2888 50 2869 
Q 63 3044 50 3213 
Q 363 3194 669 3194 
L 1250 3194 
Q 950 3631 606 4031 
L 963 4338 
L 1263 3975 
L 1913 4719 
L 731 4719 
Q 419 4719 106 4706 
Q 125 4875 106 5044 
Q 419 5031 731 5031 
L 2481 5031 
L 2544 4663 
Q 2394 4613 2256 4466 
Q 2119 4319 1525 3631 
Q 1656 3444 1788 3250 
L 1700 3194 
L 2700 3194 
L 2763 2825 
Q 2656 2819 2613 2763 
L 2100 2038 
L 1750 2288 
L 2175 2888 
L 1638 2888 
L 1638 -150 
Q 1638 -525 1363 -669 
Q 1075 -819 525 -813 
Q 594 -513 388 -294 
Q 575 -313 837 -316 
Q 1100 -319 1153 -272 
Q 1206 -225 1206 19 
z
M 5813 -888 
Q 5100 -225 4306 375 
L 4669 719 
Q 5481 106 6219 -575 
L 5813 -888 
z
M 2375 -906 
Q 2294 -631 2025 -506 
Q 2769 -431 3353 19 
Q 3938 469 3938 1069 
L 3938 2200 
Q 3938 2625 3913 3050 
Q 4188 3025 4456 3050 
Q 4431 2625 4431 2200 
L 4431 1069 
Q 4431 681 4225 319 
Q 3644 -606 2375 -906 
z
M 3444 488 
Q 3169 513 2894 488 
Q 2919 913 2919 1338 
L 2919 3675 
Q 3219 3675 3525 3675 
Q 3750 4013 3931 4525 
L 3238 4525 
Q 2888 4525 2538 4513 
Q 2556 4669 2538 4831 
Q 2888 4813 3238 4813 
L 5313 4813 
Q 5663 4813 6006 4831 
Q 5988 4669 6006 4513 
Q 5663 4525 5313 4525 
L 4481 4525 
Q 4388 4088 4088 3675 
L 5644 3675 
L 5644 513 
L 5144 513 
L 5144 3388 
L 3894 3388 
L 3875 3363 
Q 3863 3375 3844 3388 
Q 3631 3388 3413 3388 
L 3419 1338 
Q 3419 913 3444 488 
z
" transform="scale(0.015625)"/>
      <path id="WenQuanYiZenHei-6d4b" d="M 5450 138 
L 5450 4306 
Q 5450 4750 5425 5188 
Q 5663 5163 5906 5188 
Q 5881 4750 5881 4306 
L 5881 -38 
Q 5888 -569 5519 -719 
Q 5194 -831 4825 -813 
Q 4894 -519 4694 -281 
Q 4869 -306 5094 -309 
Q 5319 -313 5384 -256 
Q 5450 -200 5450 138 
z
M 4900 938 
Q 4663 963 4419 938 
Q 4444 1375 4444 1819 
L 4444 3381 
Q 4444 3819 4419 4263 
Q 4663 4238 4900 4263 
Q 4875 3819 4875 3381 
L 4875 1819 
Q 4875 1375 4900 938 
z
M 2750 2025 
L 2750 3038 
Q 2750 3481 2725 3919 
Q 2963 3894 3206 3919 
Q 3181 3481 3181 3038 
L 3181 2025 
Q 3181 1263 2919 625 
L 3231 956 
Q 3781 431 4256 -150 
L 3888 -456 
Q 3431 106 2906 600 
Q 2531 -288 1738 -769 
Q 1606 -519 1338 -450 
Q 1988 -156 2369 478 
Q 2750 1113 2750 2025 
z
M 2363 969 
Q 2119 994 1881 969 
Q 1906 1406 1906 1850 
L 1906 5038 
L 3956 5031 
L 3956 1200 
L 3525 1200 
L 3525 4713 
L 2338 4713 
L 2338 1850 
Q 2338 1406 2363 969 
z
M 663 -738 
Q 481 -588 206 -575 
Q 400 -69 606 581 
Q 813 1231 1200 2838 
L 1381 2706 
L 875 338 
L 663 -738 
z
M 1006 2856 
L 731 2550 
L 75 3400 
L 350 3713 
L 1006 2856 
z
M 1088 3913 
Q 781 4388 425 4800 
L 694 5125 
Q 1069 4688 1388 4188 
L 1088 3913 
z
" transform="scale(0.015625)"/>
      <path id="WenQuanYiZenHei-20" transform="scale(0.015625)"/>
      <path id="WenQuanYiZenHei-5317" d="M 3631 4331 
Q 3631 4794 3606 5263 
Q 3863 5231 4113 5263 
Q 4088 4794 4088 4331 
L 4088 2925 
Q 4675 3269 5181 3769 
L 5594 4194 
Q 5769 4006 5975 3856 
Q 5275 3050 4088 2406 
L 4088 56 
Q 4088 -81 4147 -178 
Q 4206 -275 4313 -275 
L 5519 -275 
Q 5594 -275 5619 -237 
Q 5644 -200 5656 -178 
Q 5669 -156 5678 -112 
Q 5688 -69 5688 -44 
L 5838 1000 
Q 6038 856 6281 863 
L 6100 -250 
Q 6050 -600 5969 -663 
Q 5925 -694 5863 -694 
L 4306 -694 
Q 4013 -694 3822 -494 
Q 3631 -294 3631 56 
L 3631 4331 
z
M 2088 3038 
L 956 3038 
Q 575 3038 200 3019 
Q 219 3225 200 3431 
Q 575 3413 956 3413 
L 2088 3413 
L 2088 4331 
Q 2088 4794 2069 5263 
Q 2319 5231 2569 5263 
Q 2550 4794 2550 4331 
L 2550 163 
Q 2550 -300 2569 -769 
Q 2319 -738 2069 -769 
Q 2088 -300 2088 163 
L 2088 419 
Q 906 44 244 -244 
Q 238 56 69 306 
Q 431 325 843 400 
Q 1256 475 2088 756 
L 2088 3038 
z
" transform="scale(0.015625)"/>
      <path id="WenQuanYiZenHei-4eac" d="M 5894 -263 
L 5550 -600 
L 4819 106 
L 4063 775 
L 4375 1144 
L 5150 463 
L 5894 -263 
z
M 1931 1219 
Q 2088 1031 2281 881 
Q 1794 356 1038 -200 
L 438 -625 
Q 338 -413 138 -300 
Q 813 131 1494 781 
L 1931 1219 
z
M 2975 -100 
L 2975 1606 
L 1450 1606 
Q 1531 2475 1450 3350 
L 4875 3350 
Q 4794 2475 4869 1606 
L 3419 1606 
L 3419 -206 
Q 3419 -419 3206 -619 
Q 2981 -819 2369 -813 
Q 2431 -513 2238 -275 
Q 2406 -300 2656 -303 
Q 2906 -306 2940 -272 
Q 2975 -238 2975 -100 
z
M 6138 4319 
Q 6119 4138 6138 3956 
Q 5800 3975 5463 3975 
L 944 3975 
Q 606 3975 275 3956 
Q 294 4138 275 4319 
Q 606 4300 944 4300 
L 2981 4300 
Q 2719 4713 2419 5100 
L 2800 5400 
Q 3206 4875 3544 4300 
L 5463 4300 
Q 5800 4300 6138 4319 
z
M 1894 3019 
L 1894 1938 
L 4431 1938 
L 4431 3019 
L 1894 3019 
z
" transform="scale(0.015625)"/>
     </defs>
     <use xlink:href="#WenQuanYiZenHei-6bcf"/>
     <use xlink:href="#WenQuanYiZenHei-65e5" x="100"/>
     <use xlink:href="#WenQuanYiZenHei-65b0" x="200"/>
     <use xlink:href="#WenQuanYiZenHei-589e" x="300"/>
     <use xlink:href="#WenQuanYiZenHei-9884" x="400"/>
     <use xlink:href="#WenQuanYiZenHei-6d4b" x="500"/>
     <use xlink:href="#WenQuanYiZenHei-20" x="600"/>
     <use xlink:href="#WenQuanYiZenHei-2d" x="629.980469"/>
     <use xlink:href="#WenQuanYiZenHei-20" x="659.960938"/>
     <use xlink:href="#WenQuanYiZenHei-5317" x="689.941406"/>
     <use xlink:href="#WenQuanYiZenHei-4eac" x="789.941406"/>
    </g>
    <!-- ARIMA (3, 1, 0)x(0, 0, 0, 7) (R2 = 0.919713) -->
    <g transform="translate(577.185938 29.061)scale(0.12 -0.12)">
     <defs>
      <path id="WenQuanYiZenHei-41" d="M 3550 0 
L 2988 0 
L 2550 1281 
L 919 1281 
L 531 0 
L 69 0 
L 1494 4388 
L 2125 4388 
L 3550 0 
z
M 2425 1694 
L 1756 3800 
L 1075 1694 
L 2425 1694 
z
" transform="scale(0.015625)"/>
      <path id="WenQuanYiZenHei-52" d="M 3675 0 
L 3100 0 
L 2288 1900 
L 1069 1900 
L 1069 0 
L 519 0 
L 519 4388 
L 2163 4388 
Q 3006 4388 3400 3900 
Q 3581 3663 3625 3325 
Q 3631 3250 3631 3163 
Q 3631 2594 3219 2244 
Q 3038 2100 2813 2038 
L 3675 0 
z
M 3081 3169 
Q 3081 3825 2356 3906 
Q 2263 3919 2163 3919 
L 1069 3919 
L 1069 2350 
L 2100 2350 
Q 2906 2350 3044 2919 
Q 3081 3031 3081 3169 
z
" transform="scale(0.015625)"/>
      <path id="WenQuanYiZenHei-49" d="M 1100 0 
L 550 0 
L 550 4388 
L 1100 4388 
L 1100 0 
z
" transform="scale(0.015625)"/>
      <path id="WenQuanYiZenHei-4d" d="M 4756 0 
L 4206 0 
L 4206 3831 
L 4181 3831 
L 2788 0 
L 2419 0 
L 1000 3831 
L 975 3831 
L 975 0 
L 513 0 
L 513 4388 
L 1331 4388 
L 2656 875 
L 3950 4388 
L 4756 4388 
L 4756 0 
z
" transform="scale(0.015625)"/>
      <path id="WenQuanYiZenHei-28" d="M 1606 -1094 
L 1275 -1094 
Q 475 -100 338 1231 
Q 319 1438 319 1656 
Q 319 3031 1156 4244 
Q 1213 4313 1269 4388 
L 1600 4388 
Q 806 3169 794 1681 
Q 794 188 1606 -1094 
z
" transform="scale(0.015625)"/>
      <path id="WenQuanYiZenHei-33" d="M 3588 1231 
Q 3588 494 2875 144 
Q 2450 -63 1925 -63 
Q 1044 -63 556 488 
Q 356 706 256 1000 
L 769 1169 
Q 994 375 1913 375 
Q 2631 375 2900 788 
Q 3019 975 3019 1231 
Q 3019 1638 2638 1881 
Q 2325 2081 1613 2069 
L 1338 2069 
L 1338 2494 
Q 1969 2494 2094 2506 
Q 2325 2544 2463 2613 
Q 2763 2756 2844 3100 
Q 2863 3169 2863 3244 
Q 2863 3744 2381 3944 
L 2163 4006 
Q 2056 4025 1931 4025 
Q 1388 4025 1075 3631 
Q 969 3488 906 3313 
L 419 3456 
Q 675 4150 1400 4369 
Q 1669 4456 1975 4456 
Q 2694 4456 3106 4050 
Q 3419 3744 3419 3275 
Q 3419 2813 3025 2513 
Q 2825 2356 2575 2319 
L 2575 2306 
Q 3181 2213 3450 1769 
Q 3588 1525 3588 1231 
z
" transform="scale(0.015625)"/>
      <path id="WenQuanYiZenHei-2c" d="M 1363 75 
L 881 -825 
L 606 -825 
L 994 0 
L 656 0 
L 656 738 
L 1363 738 
L 1363 75 
z
" transform="scale(0.015625)"/>
      <path id="WenQuanYiZenHei-29" d="M 1600 1656 
Q 1600 306 869 -788 
Q 769 -950 644 -1094 
L 313 -1094 
Q 1125 188 1125 1681 
Q 1125 3169 338 4363 
Q 325 4375 319 4388 
L 650 4388 
Q 1525 3231 1594 1863 
Q 1600 1763 1600 1656 
z
" transform="scale(0.015625)"/>
      <path id="WenQuanYiZenHei-78" d="M 2806 0 
L 2213 0 
L 1394 1319 
L 544 0 
L 50 0 
L 1144 1681 
L 163 3250 
L 744 3250 
L 1431 2138 
L 2144 3250 
L 2631 3250 
L 1681 1794 
L 2806 0 
z
" transform="scale(0.015625)"/>
      <path id="WenQuanYiZenHei-3d" d="M 3569 2256 
L 263 2256 
L 263 2675 
L 3569 2675 
L 3569 2256 
z
M 3569 1019 
L 263 1019 
L 263 1431 
L 3569 1431 
L 3569 1019 
z
" transform="scale(0.015625)"/>
      <path id="WenQuanYiZenHei-2e" d="M 1344 0 
L 631 0 
L 631 725 
L 1344 725 
L 1344 0 
z
" transform="scale(0.015625)"/>
      <path id="WenQuanYiZenHei-39" d="M 3544 2300 
Q 3544 1163 3019 513 
Q 2563 -63 1775 -63 
Q 956 -63 563 488 
Q 463 631 394 813 
L 838 975 
Q 1025 494 1550 388 
Q 1656 369 1775 369 
Q 2594 369 2900 1325 
Q 3044 1769 3038 2313 
L 3025 2313 
Q 2675 1638 1944 1544 
Q 1844 1531 1744 1531 
Q 1050 1531 625 2031 
Q 294 2419 294 2963 
Q 294 3656 813 4094 
Q 1238 4456 1819 4456 
Q 2988 4456 3381 3363 
Q 3544 2900 3544 2300 
z
M 2925 2994 
Q 2925 3563 2469 3844 
Q 2206 4006 1863 4006 
Q 1275 4006 988 3563 
Q 844 3344 825 3056 
Q 819 3006 819 2956 
Q 819 2413 1269 2131 
Q 1538 1963 1875 1963 
Q 2363 1963 2681 2350 
Q 2925 2638 2925 2994 
z
" transform="scale(0.015625)"/>
     </defs>
     <use xlink:href="#WenQuanYiZenHei-41"/>
     <use xlink:href="#WenQuanYiZenHei-52" x="55.957031"/>
     <use xlink:href="#WenQuanYiZenHei-49" x="117.871094"/>
     <use xlink:href="#WenQuanYiZenHei-4d" x="143.847656"/>
     <use xlink:href="#WenQuanYiZenHei-41" x="225.78125"/>
     <use xlink:href="#WenQuanYiZenHei-20" x="281.738281"/>
     <use xlink:href="#WenQuanYiZenHei-28" x="311.71875"/>
     <use xlink:href="#WenQuanYiZenHei-33" x="341.699219"/>
     <use xlink:href="#WenQuanYiZenHei-2c" x="401.660156"/>
     <use xlink:href="#WenQuanYiZenHei-20" x="431.640625"/>
     <use xlink:href="#WenQuanYiZenHei-31" x="461.621094"/>
     <use xlink:href="#WenQuanYiZenHei-2c" x="521.582031"/>
     <use xlink:href="#WenQuanYiZenHei-20" x="551.5625"/>
     <use xlink:href="#WenQuanYiZenHei-30" x="581.542969"/>
     <use xlink:href="#WenQuanYiZenHei-29" x="641.503906"/>
     <use xlink:href="#WenQuanYiZenHei-78" x="671.484375"/>
     <use xlink:href="#WenQuanYiZenHei-28" x="715.429688"/>
     <use xlink:href="#WenQuanYiZenHei-30" x="745.410156"/>
     <use xlink:href="#WenQuanYiZenHei-2c" x="805.371094"/>
     <use xlink:href="#WenQuanYiZenHei-20" x="835.351562"/>
     <use xlink:href="#WenQuanYiZenHei-30" x="865.332031"/>
     <use xlink:href="#WenQuanYiZenHei-2c" x="925.292969"/>
     <use xlink:href="#WenQuanYiZenHei-20" x="955.273438"/>
     <use xlink:href="#WenQuanYiZenHei-30" x="985.253906"/>
     <use xlink:href="#WenQuanYiZenHei-2c" x="1045.214844"/>
     <use xlink:href="#WenQuanYiZenHei-20" x="1075.195312"/>
     <use xlink:href="#WenQuanYiZenHei-37" x="1105.175781"/>
     <use xlink:href="#WenQuanYiZenHei-29" x="1165.136719"/>
     <use xlink:href="#WenQuanYiZenHei-20" x="1195.117188"/>
     <use xlink:href="#WenQuanYiZenHei-28" x="1225.097656"/>
     <use xlink:href="#WenQuanYiZenHei-52" x="1255.078125"/>
     <use xlink:href="#WenQuanYiZenHei-32" x="1316.992188"/>
     <use xlink:href="#WenQuanYiZenHei-20" x="1376.953125"/>
     <use xlink:href="#WenQuanYiZenHei-3d" x="1406.933594"/>
     <use xlink:href="#WenQuanYiZenHei-20" x="1466.894531"/>
     <use xlink:href="#WenQuanYiZenHei-30" x="1496.875"/>
     <use xlink:href="#WenQuanYiZenHei-2e" x="1556.835938"/>
     <use xlink:href="#WenQuanYiZenHei-39" x="1586.816406"/>
     <use xlink:href="#WenQuanYiZenHei-31" x="1646.777344"/>
     <use xlink:href="#WenQuanYiZenHei-39" x="1706.738281"/>
     <use xlink:href="#WenQuanYiZenHei-37" x="1766.699219"/>
     <use xlink:href="#WenQuanYiZenHei-31" x="1826.660156"/>
     <use xlink:href="#WenQuanYiZenHei-33" x="1886.621094"/>
     <use xlink:href="#WenQuanYiZenHei-29" x="1946.582031"/>
    </g>
   </g>
   <g id="legend_1">
    <g id="patch_7">
     <path d="M 1296.39375 87.056312 
L 1358.39375 87.056312 
Q 1360.39375 87.056312 1360.39375 85.056312 
L 1360.39375 42.061 
Q 1360.39375 40.061 1358.39375 40.061 
L 1296.39375 40.061 
Q 1294.39375 40.061 1294.39375 42.061 
L 1294.39375 85.056312 
Q 1294.39375 87.056312 1296.39375 87.056312 
z
" style="fill: #ffffff; opacity: 0.8; stroke: #cccccc; stroke-linejoin: miter"/>
    </g>
    <g id="line2d_20">
     <path d="M 1298.39375 48.695375 
L 1308.39375 48.695375 
L 1318.39375 48.695375 
" style="fill: none; stroke: #0000ff; stroke-width: 1.5; stroke-linecap: square"/>
    </g>
    <g id="text_18">
     <!-- 实际值 -->
     <g transform="translate(1326.39375 52.195375)scale(0.1 -0.1)">
      <defs>
       <path id="WenQuanYiZenHei-5b9e" d="M 1025 1175 
Q 694 1175 356 1163 
Q 375 1344 356 1525 
Q 694 1506 1025 1506 
L 3363 1506 
L 3363 2625 
Q 3363 3075 3338 3519 
Q 3581 3494 3825 3519 
Q 3800 3075 3800 2625 
L 3800 1506 
L 5406 1506 
Q 5744 1506 6075 1525 
Q 6056 1344 6075 1163 
Q 5744 1175 5406 1175 
L 4038 1175 
L 4981 456 
L 6131 -488 
L 5819 -856 
L 4681 75 
L 3638 875 
Q 3313 231 2475 -231 
Q 1638 -694 700 -825 
Q 638 -519 344 -400 
Q 1450 -319 2406 244 
Q 3113 656 3300 1175 
L 1025 1175 
z
M 2263 1581 
Q 1763 2081 1200 2513 
L 1494 2894 
Q 2081 2444 2600 1919 
L 2263 1581 
z
M 2638 2500 
Q 2219 2963 1731 3363 
L 2044 3738 
Q 2556 3313 3000 2819 
L 2638 2500 
z
M 919 3156 
L 481 3156 
L 481 4344 
L 3069 4344 
Q 2794 4731 2469 5081 
L 2825 5413 
Q 3256 4944 3613 4413 
L 3513 4344 
L 5869 4344 
L 5869 3156 
L 5425 3156 
L 5425 4013 
L 919 4013 
L 919 3156 
z
" transform="scale(0.015625)"/>
       <path id="WenQuanYiZenHei-9645" d="M 6000 431 
L 5569 194 
L 4963 1219 
L 4313 2219 
L 4719 2494 
L 5375 1481 
L 6000 431 
z
M 2956 2450 
Q 3181 2344 3419 2294 
Q 3006 1038 1944 -188 
Q 1794 -6 1569 56 
Q 2069 600 2372 1156 
Q 2675 1713 2956 2450 
z
M 3750 25 
L 3750 2913 
L 2819 2913 
Q 2475 2913 2125 2894 
Q 2144 3081 2125 3269 
Q 2475 3256 2819 3256 
L 5469 3256 
Q 5819 3256 6163 3269 
Q 6144 3081 6163 2894 
Q 5813 2913 5469 2913 
L 4194 2913 
L 4194 -144 
Q 4194 -725 3456 -813 
L 3263 -825 
Q 3325 -506 3125 -250 
Q 3250 -281 3394 -306 
Q 3663 -313 3706 -272 
Q 3750 -231 3750 25 
z
M 5544 4950 
Q 5525 4756 5544 4569 
Q 5194 4588 4844 4588 
L 3325 4588 
Q 2975 4588 2625 4569 
Q 2644 4756 2625 4950 
Q 2975 4931 3325 4931 
L 4844 4931 
Q 5194 4931 5544 4950 
z
M 819 -850 
Q 581 -825 344 -850 
Q 369 -419 369 19 
L 363 4938 
L 2256 4938 
L 2256 4625 
Q 2150 4513 2075 4375 
L 1481 3238 
Q 2181 2319 2181 1156 
Q 2144 400 1569 163 
L 1406 88 
Q 1288 300 1138 481 
Q 1294 538 1450 606 
Q 1763 744 1794 1156 
Q 1794 1744 1600 2300 
Q 1406 2856 1038 3313 
L 1725 4625 
L 788 4625 
L 794 19 
Q 794 -419 819 -850 
z
" transform="scale(0.015625)"/>
       <path id="WenQuanYiZenHei-503c" d="M 6175 -219 
Q 6156 -388 6175 -556 
Q 5863 -544 5550 -544 
L 2313 -544 
Q 2000 -544 1688 -556 
Q 1706 -388 1688 -219 
L 2506 -231 
L 2506 3469 
L 3644 3469 
L 3644 4119 
L 2638 4119 
Q 2325 4119 2013 4100 
Q 2031 4269 2013 4438 
Q 2325 4425 2638 4425 
L 3638 4425 
Q 3638 4719 3619 5013 
Q 3856 4988 4094 5013 
Q 4075 4719 4075 4425 
L 5344 4425 
Q 5650 4425 5963 4438 
Q 5950 4269 5963 4100 
Q 5656 4119 5344 4119 
L 4069 4119 
L 4069 3469 
L 5300 3469 
L 5300 -231 
L 5550 -231 
Q 5863 -231 6175 -219 
z
M 4869 2556 
L 4869 3156 
L 2931 3156 
Q 2931 2850 2931 2556 
L 4869 2556 
z
M 4869 1669 
L 4869 2250 
L 2931 2250 
L 2931 1669 
L 4869 1669 
z
M 4869 731 
L 4869 1363 
L 2931 1363 
L 2931 731 
L 4869 731 
z
M 4869 -231 
L 4869 425 
L 2931 425 
L 2931 -231 
L 4869 -231 
z
M 2106 4925 
Q 1856 4075 1463 3338 
L 1463 31 
Q 1463 -413 1481 -850 
Q 1256 -825 1031 -850 
Q 1050 -413 1050 31 
L 1050 2681 
Q 750 2269 375 1931 
Q 238 2156 0 2256 
Q 331 2544 619 2875 
Q 1094 3425 1300 3950 
Q 1494 4469 1625 5050 
Q 1850 4963 2106 4925 
z
" transform="scale(0.015625)"/>
      </defs>
      <use xlink:href="#WenQuanYiZenHei-5b9e"/>
      <use xlink:href="#WenQuanYiZenHei-9645" x="100"/>
      <use xlink:href="#WenQuanYiZenHei-503c" x="200"/>
     </g>
    </g>
    <g id="line2d_21">
     <path d="M 1298.39375 63.3735 
L 1308.39375 63.3735 
L 1318.39375 63.3735 
" style="fill: none; stroke: #ffa500; stroke-width: 1.5; stroke-linecap: square"/>
    </g>
    <g id="text_19">
     <!-- 校验值 -->
     <g transform="translate(1326.39375 66.8735)scale(0.1 -0.1)">
      <defs>
       <path id="WenQuanYiZenHei-6821" d="M 5256 2463 
Q 5025 1475 4494 706 
Q 5125 -94 6175 -544 
Q 5950 -663 5850 -900 
Q 4906 -494 4250 381 
Q 3931 0 3475 -350 
Q 3019 -700 2388 -919 
Q 2338 -656 2138 -475 
Q 3306 -69 4006 738 
Q 3563 1444 3300 2331 
Q 3050 2050 2706 1800 
Q 2606 2000 2406 2106 
Q 2900 2444 3181 2938 
Q 3350 3225 3488 3538 
Q 3700 3431 3925 3369 
Q 3763 2894 3425 2475 
L 3650 2531 
Q 3888 1675 4244 1075 
Q 4469 1444 4603 1937 
Q 4738 2431 4775 2688 
Q 4963 2644 5150 2625 
Q 4919 2969 4663 3294 
L 5038 3588 
Q 5544 2925 5975 2213 
L 5569 1969 
L 5256 2463 
z
M 6006 4050 
Q 5988 3881 6006 3713 
Q 5694 3725 5381 3725 
L 3413 3725 
Q 3100 3725 2788 3713 
Q 2806 3881 2788 4050 
Q 3100 4031 3413 4031 
L 4325 4031 
Q 4019 4525 3644 4969 
L 4000 5275 
Q 4413 4788 4750 4244 
L 4406 4031 
L 5381 4031 
Q 5694 4031 6006 4050 
z
M 406 263 
Q 238 431 -25 469 
Q 194 825 466 1337 
Q 738 1850 925 2406 
Q 1113 2963 1256 3519 
L 825 3519 
Q 506 3519 188 3500 
Q 206 3700 188 3900 
Q 506 3881 825 3881 
L 1363 3881 
L 1363 4263 
Q 1363 4719 1338 5175 
Q 1556 5150 1775 5175 
Q 1756 4719 1756 4263 
L 1756 3881 
L 2525 3900 
Q 2506 3700 2525 3500 
L 1756 3519 
L 1756 2738 
L 1931 2881 
Q 2306 2300 2613 1650 
L 2231 1413 
Q 2081 1725 1919 2019 
L 1756 2300 
L 1756 69 
Q 1756 -388 1775 -850 
Q 1556 -825 1338 -850 
Q 1363 -388 1363 69 
L 1363 2438 
Q 925 1144 406 263 
z
" transform="scale(0.015625)"/>
       <path id="WenQuanYiZenHei-9a8c" d="M 5981 -106 
Q 5963 -275 5981 -444 
Q 5669 -431 5356 -431 
L 2969 -431 
Q 2656 -431 2350 -444 
Q 2363 -275 2350 -106 
Q 2656 -125 2969 -125 
L 4369 -125 
Q 4600 431 4881 1288 
L 5206 2300 
Q 5425 2206 5663 2163 
Q 5375 1188 4831 -125 
L 5356 -125 
Q 5669 -125 5981 -106 
z
M 4063 594 
Q 3788 1425 3425 2219 
L 3856 2419 
Q 4225 1600 4513 744 
L 4063 594 
z
M 3163 363 
Q 2931 1200 2613 2006 
L 3056 2175 
Q 3381 1350 3619 488 
L 3163 363 
z
M 4581 2550 
L 3513 2550 
Q 3200 2550 2888 2538 
Q 2900 2663 2894 2769 
Q 2569 2488 2206 2300 
Q 2113 2550 1894 2700 
Q 2488 2975 2975 3463 
Q 3269 3756 3394 4006 
Q 3644 4513 3794 5063 
Q 4038 4975 4294 4931 
Q 4250 4806 4206 4681 
Q 4475 3888 5025 3388 
Q 5519 2938 6169 2650 
Q 5938 2538 5838 2300 
Q 5513 2456 5200 2700 
Q 5200 2619 5206 2538 
Q 4894 2550 4581 2550 
z
M 3513 2863 
L 4994 2869 
Q 4344 3438 3988 4194 
Q 3594 3406 3013 2869 
Q 3263 2863 3513 2863 
z
M 206 444 
Q 188 756 44 963 
Q 319 956 650 1003 
Q 981 1050 1731 1281 
L 1738 1006 
Q 800 719 206 444 
z
M 525 4000 
Q 744 3950 994 3944 
Q 925 3519 875 3081 
L 763 2144 
L 1475 2144 
L 1831 4444 
L 663 4444 
Q 350 4444 38 4431 
Q 56 4600 38 4769 
Q 350 4756 663 4756 
L 2313 4756 
L 1913 2144 
L 2375 2144 
L 2200 -200 
Q 2188 -425 1988 -588 
Q 1694 -800 1181 -788 
L 944 -788 
Q 1000 -450 788 -269 
Q 1013 -294 1334 -287 
Q 1656 -281 1715 -243 
Q 1775 -206 1781 -50 
L 1925 1831 
L 294 1831 
L 444 3131 
Q 500 3569 525 4000 
z
" transform="scale(0.015625)"/>
      </defs>
      <use xlink:href="#WenQuanYiZenHei-6821"/>
      <use xlink:href="#WenQuanYiZenHei-9a8c" x="100"/>
      <use xlink:href="#WenQuanYiZenHei-503c" x="200"/>
     </g>
    </g>
    <g id="line2d_22">
     <path d="M 1298.39375 77.895375 
L 1308.39375 77.895375 
L 1318.39375 77.895375 
" style="fill: none; stroke: #ff0000; stroke-width: 1.5; stroke-linecap: square"/>
    </g>
    <g id="text_20">
     <!-- 预测值 -->
     <g transform="translate(1326.39375 81.395375)scale(0.1 -0.1)">
      <use xlink:href="#WenQuanYiZenHei-9884"/>
      <use xlink:href="#WenQuanYiZenHei-6d4b" x="100"/>
      <use xlink:href="#WenQuanYiZenHei-503c" x="200"/>
     </g>
    </g>
   </g>
  </g>
 </g>
 <defs>
  <clipPath id="paa3b0baf6a">
   <rect x="26.19375" y="35.061" width="1339.2" height="332.64"/>
  </clipPath>
 </defs>
</svg>
