<?xml version="1.0" encoding="utf-8" standalone="no"?>
<!DOCTYPE svg PUBLIC "-//W3C//DTD SVG 1.1//EN"
  "http://www.w3.org/Graphics/SVG/1.1/DTD/svg11.dtd">
<svg xmlns:xlink="http://www.w3.org/1999/xlink" width="1378.590625pt" height="390.418188pt" viewBox="0 0 1378.590625 390.418188" xmlns="http://www.w3.org/2000/svg" version="1.1">
 <metadata>
  <rdf:RDF xmlns:dc="http://purl.org/dc/elements/1.1/" xmlns:cc="http://creativecommons.org/ns#" xmlns:rdf="http://www.w3.org/1999/02/22-rdf-syntax-ns#">
   <cc:Work>
    <dc:type rdf:resource="http://purl.org/dc/dcmitype/StillImage"/>
    <dc:date>2022-07-23T18:13:28.871551</dc:date>
    <dc:format>image/svg+xml</dc:format>
    <dc:creator>
     <cc:Agent>
      <dc:title>Matplotlib v3.5.2, https://matplotlib.org/</dc:title>
     </cc:Agent>
    </dc:creator>
   </cc:Work>
  </rdf:RDF>
 </metadata>
 <defs>
  <style type="text/css">*{stroke-linejoin: round; stroke-linecap: butt}</style>
 </defs>
 <g id="figure_1">
  <g id="patch_1">
   <path d="M 0 390.418188 
L 1378.590625 390.418188 
L 1378.590625 -0 
L 0 -0 
z
" style="fill: #ffffff"/>
  </g>
  <g id="axes_1">
   <g id="patch_2">
    <path d="M 32.190625 367.701 
L 1371.390625 367.701 
L 1371.390625 35.061 
L 32.190625 35.061 
z
" style="fill: #ffffff"/>
   </g>
   <g id="matplotlib.axis_1">
    <g id="xtick_1">
     <g id="line2d_1">
      <defs>
       <path id="m3e8cf68853" d="M 0 0 
L 0 3.5 
" style="stroke: #000000; stroke-width: 0.8"/>
      </defs>
      <g>
       <use xlink:href="#m3e8cf68853" x="64.076339" y="367.701" style="stroke: #000000; stroke-width: 0.8"/>
      </g>
     </g>
     <g id="text_1">
      <!-- 2020-01 -->
      <g transform="translate(44.586496 381.55725)scale(0.1 -0.1)">
       <defs>
        <path id="WenQuanYiZenHei-32" d="M 3488 0 
L 369 0 
L 369 456 
L 2150 1850 
Q 2931 2463 2931 3144 
Q 2931 3619 2488 3863 
Q 2231 4013 1931 4013 
Q 1425 4013 1113 3619 
Q 894 3356 881 3013 
L 369 3169 
Q 531 3981 1213 4300 
Q 1544 4456 1950 4456 
Q 2631 4456 3088 4044 
L 3225 3888 
L 3350 3706 
Q 3481 3444 3481 3144 
Q 3481 2313 2519 1569 
L 1069 456 
L 3488 456 
L 3488 0 
z
" transform="scale(0.015625)"/>
        <path id="WenQuanYiZenHei-30" d="M 3581 2175 
Q 3581 1288 3169 638 
Q 2713 -63 1938 -63 
Q 1025 -63 563 831 
Q 256 1425 256 2188 
Q 256 3188 700 3819 
Q 1138 4456 1888 4456 
Q 2863 4456 3306 3500 
Q 3581 2925 3581 2175 
z
M 3019 2100 
Q 3019 3356 2500 3806 
L 2350 3919 
Q 2144 4031 1888 4031 
Q 1100 4031 888 2956 
Q 819 2625 819 2225 
Q 819 1013 1338 569 
Q 1588 356 1938 356 
Q 2675 356 2925 1294 
Q 3019 1663 3019 2100 
z
" transform="scale(0.015625)"/>
        <path id="WenQuanYiZenHei-2d" d="M 1363 1444 
L 0 1444 
L 0 1844 
L 1363 1844 
L 1363 1444 
z
" transform="scale(0.015625)"/>
        <path id="WenQuanYiZenHei-31" d="M 3556 0 
L 488 0 
L 488 406 
L 1800 406 
L 1800 3725 
Q 1231 3125 588 2788 
L 588 3338 
Q 1456 3781 1931 4388 
L 2331 4388 
L 2331 406 
L 3556 406 
L 3556 0 
z
" transform="scale(0.015625)"/>
       </defs>
       <use xlink:href="#WenQuanYiZenHei-32"/>
       <use xlink:href="#WenQuanYiZenHei-30" x="59.960938"/>
       <use xlink:href="#WenQuanYiZenHei-32" x="119.921875"/>
       <use xlink:href="#WenQuanYiZenHei-30" x="179.882812"/>
       <use xlink:href="#WenQuanYiZenHei-2d" x="239.84375"/>
       <use xlink:href="#WenQuanYiZenHei-30" x="269.824219"/>
       <use xlink:href="#WenQuanYiZenHei-31" x="329.785156"/>
      </g>
     </g>
    </g>
    <g id="xtick_2">
     <g id="line2d_2">
      <g>
       <use xlink:href="#m3e8cf68853" x="183.977166" y="367.701" style="stroke: #000000; stroke-width: 0.8"/>
      </g>
     </g>
     <g id="text_2">
      <!-- 2020-04 -->
      <g transform="translate(164.487322 381.55725)scale(0.1 -0.1)">
       <defs>
        <path id="WenQuanYiZenHei-34" d="M 3631 1025 
L 2913 1025 
L 2913 0 
L 2381 0 
L 2381 1025 
L 219 1025 
L 219 1388 
L 2225 4388 
L 2913 4388 
L 2913 1444 
L 3631 1444 
L 3631 1025 
z
M 2381 1444 
L 2381 3963 
L 788 1444 
L 2381 1444 
z
" transform="scale(0.015625)"/>
       </defs>
       <use xlink:href="#WenQuanYiZenHei-32"/>
       <use xlink:href="#WenQuanYiZenHei-30" x="59.960938"/>
       <use xlink:href="#WenQuanYiZenHei-32" x="119.921875"/>
       <use xlink:href="#WenQuanYiZenHei-30" x="179.882812"/>
       <use xlink:href="#WenQuanYiZenHei-2d" x="239.84375"/>
       <use xlink:href="#WenQuanYiZenHei-30" x="269.824219"/>
       <use xlink:href="#WenQuanYiZenHei-34" x="329.785156"/>
      </g>
     </g>
    </g>
    <g id="xtick_3">
     <g id="line2d_3">
      <g>
       <use xlink:href="#m3e8cf68853" x="303.877992" y="367.701" style="stroke: #000000; stroke-width: 0.8"/>
      </g>
     </g>
     <g id="text_3">
      <!-- 2020-07 -->
      <g transform="translate(284.388148 381.55725)scale(0.1 -0.1)">
       <defs>
        <path id="WenQuanYiZenHei-37" d="M 3400 4056 
Q 1838 2175 1838 0 
L 1275 0 
Q 1269 1438 2056 2825 
Q 2381 3400 2825 3913 
L 444 3913 
L 500 4388 
L 3400 4388 
L 3400 4056 
z
" transform="scale(0.015625)"/>
       </defs>
       <use xlink:href="#WenQuanYiZenHei-32"/>
       <use xlink:href="#WenQuanYiZenHei-30" x="59.960938"/>
       <use xlink:href="#WenQuanYiZenHei-32" x="119.921875"/>
       <use xlink:href="#WenQuanYiZenHei-30" x="179.882812"/>
       <use xlink:href="#WenQuanYiZenHei-2d" x="239.84375"/>
       <use xlink:href="#WenQuanYiZenHei-30" x="269.824219"/>
       <use xlink:href="#WenQuanYiZenHei-37" x="329.785156"/>
      </g>
     </g>
    </g>
    <g id="xtick_4">
     <g id="line2d_4">
      <g>
       <use xlink:href="#m3e8cf68853" x="425.09641" y="367.701" style="stroke: #000000; stroke-width: 0.8"/>
      </g>
     </g>
     <g id="text_4">
      <!-- 2020-10 -->
      <g transform="translate(405.606566 381.55725)scale(0.1 -0.1)">
       <use xlink:href="#WenQuanYiZenHei-32"/>
       <use xlink:href="#WenQuanYiZenHei-30" x="59.960938"/>
       <use xlink:href="#WenQuanYiZenHei-32" x="119.921875"/>
       <use xlink:href="#WenQuanYiZenHei-30" x="179.882812"/>
       <use xlink:href="#WenQuanYiZenHei-2d" x="239.84375"/>
       <use xlink:href="#WenQuanYiZenHei-31" x="269.824219"/>
       <use xlink:href="#WenQuanYiZenHei-30" x="329.785156"/>
      </g>
     </g>
    </g>
    <g id="xtick_5">
     <g id="line2d_5">
      <g>
       <use xlink:href="#m3e8cf68853" x="546.314828" y="367.701" style="stroke: #000000; stroke-width: 0.8"/>
      </g>
     </g>
     <g id="text_5">
      <!-- 2021-01 -->
      <g transform="translate(526.824984 381.55725)scale(0.1 -0.1)">
       <use xlink:href="#WenQuanYiZenHei-32"/>
       <use xlink:href="#WenQuanYiZenHei-30" x="59.960938"/>
       <use xlink:href="#WenQuanYiZenHei-32" x="119.921875"/>
       <use xlink:href="#WenQuanYiZenHei-31" x="179.882812"/>
       <use xlink:href="#WenQuanYiZenHei-2d" x="239.84375"/>
       <use xlink:href="#WenQuanYiZenHei-30" x="269.824219"/>
       <use xlink:href="#WenQuanYiZenHei-31" x="329.785156"/>
      </g>
     </g>
    </g>
    <g id="xtick_6">
     <g id="line2d_6">
      <g>
       <use xlink:href="#m3e8cf68853" x="664.898063" y="367.701" style="stroke: #000000; stroke-width: 0.8"/>
      </g>
     </g>
     <g id="text_6">
      <!-- 2021-04 -->
      <g transform="translate(645.408219 381.55725)scale(0.1 -0.1)">
       <use xlink:href="#WenQuanYiZenHei-32"/>
       <use xlink:href="#WenQuanYiZenHei-30" x="59.960938"/>
       <use xlink:href="#WenQuanYiZenHei-32" x="119.921875"/>
       <use xlink:href="#WenQuanYiZenHei-31" x="179.882812"/>
       <use xlink:href="#WenQuanYiZenHei-2d" x="239.84375"/>
       <use xlink:href="#WenQuanYiZenHei-30" x="269.824219"/>
       <use xlink:href="#WenQuanYiZenHei-34" x="329.785156"/>
      </g>
     </g>
    </g>
    <g id="xtick_7">
     <g id="line2d_7">
      <g>
       <use xlink:href="#m3e8cf68853" x="784.798889" y="367.701" style="stroke: #000000; stroke-width: 0.8"/>
      </g>
     </g>
     <g id="text_7">
      <!-- 2021-07 -->
      <g transform="translate(765.309046 381.55725)scale(0.1 -0.1)">
       <use xlink:href="#WenQuanYiZenHei-32"/>
       <use xlink:href="#WenQuanYiZenHei-30" x="59.960938"/>
       <use xlink:href="#WenQuanYiZenHei-32" x="119.921875"/>
       <use xlink:href="#WenQuanYiZenHei-31" x="179.882812"/>
       <use xlink:href="#WenQuanYiZenHei-2d" x="239.84375"/>
       <use xlink:href="#WenQuanYiZenHei-30" x="269.824219"/>
       <use xlink:href="#WenQuanYiZenHei-37" x="329.785156"/>
      </g>
     </g>
    </g>
    <g id="xtick_8">
     <g id="line2d_8">
      <g>
       <use xlink:href="#m3e8cf68853" x="906.017307" y="367.701" style="stroke: #000000; stroke-width: 0.8"/>
      </g>
     </g>
     <g id="text_8">
      <!-- 2021-10 -->
      <g transform="translate(886.527464 381.55725)scale(0.1 -0.1)">
       <use xlink:href="#WenQuanYiZenHei-32"/>
       <use xlink:href="#WenQuanYiZenHei-30" x="59.960938"/>
       <use xlink:href="#WenQuanYiZenHei-32" x="119.921875"/>
       <use xlink:href="#WenQuanYiZenHei-31" x="179.882812"/>
       <use xlink:href="#WenQuanYiZenHei-2d" x="239.84375"/>
       <use xlink:href="#WenQuanYiZenHei-31" x="269.824219"/>
       <use xlink:href="#WenQuanYiZenHei-30" x="329.785156"/>
      </g>
     </g>
    </g>
    <g id="xtick_9">
     <g id="line2d_9">
      <g>
       <use xlink:href="#m3e8cf68853" x="1027.235725" y="367.701" style="stroke: #000000; stroke-width: 0.8"/>
      </g>
     </g>
     <g id="text_9">
      <!-- 2022-01 -->
      <g transform="translate(1007.745882 381.55725)scale(0.1 -0.1)">
       <use xlink:href="#WenQuanYiZenHei-32"/>
       <use xlink:href="#WenQuanYiZenHei-30" x="59.960938"/>
       <use xlink:href="#WenQuanYiZenHei-32" x="119.921875"/>
       <use xlink:href="#WenQuanYiZenHei-32" x="179.882812"/>
       <use xlink:href="#WenQuanYiZenHei-2d" x="239.84375"/>
       <use xlink:href="#WenQuanYiZenHei-30" x="269.824219"/>
       <use xlink:href="#WenQuanYiZenHei-31" x="329.785156"/>
      </g>
     </g>
    </g>
    <g id="xtick_10">
     <g id="line2d_10">
      <g>
       <use xlink:href="#m3e8cf68853" x="1145.81896" y="367.701" style="stroke: #000000; stroke-width: 0.8"/>
      </g>
     </g>
     <g id="text_10">
      <!-- 2022-04 -->
      <g transform="translate(1126.329117 381.55725)scale(0.1 -0.1)">
       <use xlink:href="#WenQuanYiZenHei-32"/>
       <use xlink:href="#WenQuanYiZenHei-30" x="59.960938"/>
       <use xlink:href="#WenQuanYiZenHei-32" x="119.921875"/>
       <use xlink:href="#WenQuanYiZenHei-32" x="179.882812"/>
       <use xlink:href="#WenQuanYiZenHei-2d" x="239.84375"/>
       <use xlink:href="#WenQuanYiZenHei-30" x="269.824219"/>
       <use xlink:href="#WenQuanYiZenHei-34" x="329.785156"/>
      </g>
     </g>
    </g>
    <g id="xtick_11">
     <g id="line2d_11">
      <g>
       <use xlink:href="#m3e8cf68853" x="1265.719787" y="367.701" style="stroke: #000000; stroke-width: 0.8"/>
      </g>
     </g>
     <g id="text_11">
      <!-- 2022-07 -->
      <g transform="translate(1246.229943 381.55725)scale(0.1 -0.1)">
       <use xlink:href="#WenQuanYiZenHei-32"/>
       <use xlink:href="#WenQuanYiZenHei-30" x="59.960938"/>
       <use xlink:href="#WenQuanYiZenHei-32" x="119.921875"/>
       <use xlink:href="#WenQuanYiZenHei-32" x="179.882812"/>
       <use xlink:href="#WenQuanYiZenHei-2d" x="239.84375"/>
       <use xlink:href="#WenQuanYiZenHei-30" x="269.824219"/>
       <use xlink:href="#WenQuanYiZenHei-37" x="329.785156"/>
      </g>
     </g>
    </g>
   </g>
   <g id="matplotlib.axis_2">
    <g id="ytick_1">
     <g id="line2d_12">
      <defs>
       <path id="m461e4b5868" d="M 0 0 
L -3.5 0 
" style="stroke: #000000; stroke-width: 0.8"/>
      </defs>
      <g>
       <use xlink:href="#m461e4b5868" x="32.190625" y="344.73311" style="stroke: #000000; stroke-width: 0.8"/>
      </g>
     </g>
     <g id="text_12">
      <!-- 0 -->
      <g transform="translate(19.19375 348.161235)scale(0.1 -0.1)">
       <use xlink:href="#WenQuanYiZenHei-30"/>
      </g>
     </g>
    </g>
    <g id="ytick_2">
     <g id="line2d_13">
      <g>
       <use xlink:href="#m461e4b5868" x="32.190625" y="304.049117" style="stroke: #000000; stroke-width: 0.8"/>
      </g>
     </g>
     <g id="text_13">
      <!-- 50 -->
      <g transform="translate(13.196875 307.477242)scale(0.1 -0.1)">
       <defs>
        <path id="WenQuanYiZenHei-35" d="M 3531 1488 
Q 3531 688 2913 250 
Q 2456 -63 1844 -63 
Q 1175 -63 706 350 
Q 413 613 306 975 
L 781 1131 
Q 1000 538 1569 406 
Q 1706 369 1856 369 
Q 2550 369 2850 869 
Q 3000 1131 3000 1494 
Q 3000 2056 2581 2356 
Q 2319 2538 1969 2538 
Q 1400 2538 1031 2075 
Q 981 2013 938 1938 
L 500 2031 
L 644 4388 
L 3244 4388 
L 3200 3919 
L 1044 3919 
L 950 2500 
Q 1431 2975 2006 2975 
Q 2713 2975 3163 2475 
Q 3531 2063 3531 1488 
z
" transform="scale(0.015625)"/>
       </defs>
       <use xlink:href="#WenQuanYiZenHei-35"/>
       <use xlink:href="#WenQuanYiZenHei-30" x="59.960938"/>
      </g>
     </g>
    </g>
    <g id="ytick_3">
     <g id="line2d_14">
      <g>
       <use xlink:href="#m461e4b5868" x="32.190625" y="263.365124" style="stroke: #000000; stroke-width: 0.8"/>
      </g>
     </g>
     <g id="text_14">
      <!-- 100 -->
      <g transform="translate(7.2 266.793249)scale(0.1 -0.1)">
       <use xlink:href="#WenQuanYiZenHei-31"/>
       <use xlink:href="#WenQuanYiZenHei-30" x="59.960938"/>
       <use xlink:href="#WenQuanYiZenHei-30" x="119.921875"/>
      </g>
     </g>
    </g>
    <g id="ytick_4">
     <g id="line2d_15">
      <g>
       <use xlink:href="#m461e4b5868" x="32.190625" y="222.681131" style="stroke: #000000; stroke-width: 0.8"/>
      </g>
     </g>
     <g id="text_15">
      <!-- 150 -->
      <g transform="translate(7.2 226.109256)scale(0.1 -0.1)">
       <use xlink:href="#WenQuanYiZenHei-31"/>
       <use xlink:href="#WenQuanYiZenHei-35" x="59.960938"/>
       <use xlink:href="#WenQuanYiZenHei-30" x="119.921875"/>
      </g>
     </g>
    </g>
    <g id="ytick_5">
     <g id="line2d_16">
      <g>
       <use xlink:href="#m461e4b5868" x="32.190625" y="181.997138" style="stroke: #000000; stroke-width: 0.8"/>
      </g>
     </g>
     <g id="text_16">
      <!-- 200 -->
      <g transform="translate(7.2 185.425263)scale(0.1 -0.1)">
       <use xlink:href="#WenQuanYiZenHei-32"/>
       <use xlink:href="#WenQuanYiZenHei-30" x="59.960938"/>
       <use xlink:href="#WenQuanYiZenHei-30" x="119.921875"/>
      </g>
     </g>
    </g>
    <g id="ytick_6">
     <g id="line2d_17">
      <g>
       <use xlink:href="#m461e4b5868" x="32.190625" y="141.313145" style="stroke: #000000; stroke-width: 0.8"/>
      </g>
     </g>
     <g id="text_17">
      <!-- 250 -->
      <g transform="translate(7.2 144.74127)scale(0.1 -0.1)">
       <use xlink:href="#WenQuanYiZenHei-32"/>
       <use xlink:href="#WenQuanYiZenHei-35" x="59.960938"/>
       <use xlink:href="#WenQuanYiZenHei-30" x="119.921875"/>
      </g>
     </g>
    </g>
    <g id="ytick_7">
     <g id="line2d_18">
      <g>
       <use xlink:href="#m461e4b5868" x="32.190625" y="100.629152" style="stroke: #000000; stroke-width: 0.8"/>
      </g>
     </g>
     <g id="text_18">
      <!-- 300 -->
      <g transform="translate(7.2 104.057277)scale(0.1 -0.1)">
       <defs>
        <path id="WenQuanYiZenHei-33" d="M 3588 1231 
Q 3588 494 2875 144 
Q 2450 -63 1925 -63 
Q 1044 -63 556 488 
Q 356 706 256 1000 
L 769 1169 
Q 994 375 1913 375 
Q 2631 375 2900 788 
Q 3019 975 3019 1231 
Q 3019 1638 2638 1881 
Q 2325 2081 1613 2069 
L 1338 2069 
L 1338 2494 
Q 1969 2494 2094 2506 
Q 2325 2544 2463 2613 
Q 2763 2756 2844 3100 
Q 2863 3169 2863 3244 
Q 2863 3744 2381 3944 
L 2163 4006 
Q 2056 4025 1931 4025 
Q 1388 4025 1075 3631 
Q 969 3488 906 3313 
L 419 3456 
Q 675 4150 1400 4369 
Q 1669 4456 1975 4456 
Q 2694 4456 3106 4050 
Q 3419 3744 3419 3275 
Q 3419 2813 3025 2513 
Q 2825 2356 2575 2319 
L 2575 2306 
Q 3181 2213 3450 1769 
Q 3588 1525 3588 1231 
z
" transform="scale(0.015625)"/>
       </defs>
       <use xlink:href="#WenQuanYiZenHei-33"/>
       <use xlink:href="#WenQuanYiZenHei-30" x="59.960938"/>
       <use xlink:href="#WenQuanYiZenHei-30" x="119.921875"/>
      </g>
     </g>
    </g>
    <g id="ytick_8">
     <g id="line2d_19">
      <g>
       <use xlink:href="#m461e4b5868" x="32.190625" y="59.945158" style="stroke: #000000; stroke-width: 0.8"/>
      </g>
     </g>
     <g id="text_19">
      <!-- 350 -->
      <g transform="translate(7.2 63.373283)scale(0.1 -0.1)">
       <use xlink:href="#WenQuanYiZenHei-33"/>
       <use xlink:href="#WenQuanYiZenHei-35" x="59.960938"/>
       <use xlink:href="#WenQuanYiZenHei-30" x="119.921875"/>
      </g>
     </g>
    </g>
   </g>
   <g id="line2d_20">
    <path d="M 93.063352 341.478391 
L 94.380944 340.664711 
L 95.698535 338.223672 
L 97.016127 330.900553 
L 98.333718 325.204794 
L 99.65131 327.645833 
L 100.968901 341.478391 
L 102.286493 330.900553 
L 103.604084 329.273193 
L 104.921676 325.204794 
L 106.239267 332.527913 
L 107.556859 328.459513 
L 108.87445 332.527913 
L 110.192042 335.782632 
L 112.827225 337.409992 
L 114.144816 332.527913 
L 115.462408 335.782632 
L 116.779999 335.782632 
L 118.097591 339.851031 
L 119.415182 340.664711 
L 120.732774 339.037351 
L 122.050365 343.105751 
L 123.367957 341.478391 
L 124.685548 343.105751 
L 126.00314 342.292071 
L 129.955914 344.73311 
L 135.22628 344.73311 
L 136.543872 343.919431 
L 137.861463 344.73311 
L 139.179055 343.105751 
L 140.496646 344.73311 
L 166.848476 344.73311 
L 168.166068 342.292071 
L 169.483659 341.478391 
L 170.801251 336.596312 
L 172.118842 344.73311 
L 173.436434 340.664711 
L 174.754025 341.478391 
L 176.071617 339.851031 
L 177.389208 342.292071 
L 178.7068 339.851031 
L 180.024391 343.919431 
L 182.659574 342.292071 
L 183.977166 343.105751 
L 185.294757 344.73311 
L 186.612349 341.478391 
L 187.92994 343.919431 
L 189.247532 344.73311 
L 190.565123 344.73311 
L 191.882715 343.919431 
L 193.200306 344.73311 
L 197.153081 344.73311 
L 198.470672 343.919431 
L 199.788264 344.73311 
L 201.105855 343.919431 
L 202.423447 344.73311 
L 203.741038 344.73311 
L 205.05863 343.919431 
L 206.376221 343.919431 
L 207.693813 344.73311 
L 220.869728 344.73311 
L 222.187319 343.919431 
L 223.504911 344.73311 
L 253.809515 344.73311 
L 255.127107 343.919431 
L 256.444698 344.73311 
L 257.76229 343.919431 
L 259.079881 344.73311 
L 269.620613 344.73311 
L 270.938205 343.919431 
L 272.255796 344.73311 
L 274.890979 344.73311 
L 276.208571 343.919431 
L 277.526162 343.919431 
L 278.843754 344.73311 
L 280.161345 344.73311 
L 281.478937 343.919431 
L 282.796528 344.73311 
L 288.066894 344.73311 
L 289.384486 343.919431 
L 290.702077 344.73311 
L 323.641865 344.73311 
L 324.959456 343.919431 
L 326.277048 344.73311 
L 334.182597 344.73311 
L 335.500188 343.919431 
L 336.81778 343.919431 
L 338.135371 344.73311 
L 343.405737 344.73311 
L 344.723329 343.919431 
L 346.04092 344.73311 
L 356.581652 344.73311 
L 357.899244 343.919431 
L 359.216835 344.73311 
L 361.852018 344.73311 
L 363.16961 343.919431 
L 364.487201 343.919431 
L 365.804793 344.73311 
L 369.757567 344.73311 
L 371.075159 343.919431 
L 372.39275 343.919431 
L 373.710342 342.292071 
L 375.027933 344.73311 
L 377.663116 344.73311 
L 380.298299 343.105751 
L 382.933482 343.105751 
L 385.568665 344.73311 
L 386.886257 344.73311 
L 388.203848 343.919431 
L 390.839031 343.919431 
L 392.156623 344.73311 
L 393.474214 343.919431 
L 394.791806 344.73311 
L 397.426989 344.73311 
L 398.74458 343.919431 
L 400.062172 344.73311 
L 401.379763 343.105751 
L 402.697355 344.73311 
L 404.014946 343.105751 
L 405.332538 344.73311 
L 406.650129 343.919431 
L 410.602904 343.919431 
L 411.920495 344.73311 
L 415.87327 344.73311 
L 417.190861 343.919431 
L 418.508453 341.478391 
L 419.826044 343.105751 
L 421.143636 343.919431 
L 422.461227 340.664711 
L 423.778819 344.73311 
L 425.09641 343.105751 
L 426.414002 344.73311 
L 427.731593 344.73311 
L 429.049185 343.105751 
L 430.366776 344.73311 
L 433.001959 344.73311 
L 434.319551 343.919431 
L 435.637142 344.73311 
L 436.954734 343.919431 
L 438.272325 343.919431 
L 439.589917 344.73311 
L 442.2251 344.73311 
L 443.542691 343.919431 
L 444.860283 344.73311 
L 447.495466 344.73311 
L 448.813057 343.919431 
L 451.44824 343.919431 
L 452.765832 339.037351 
L 454.083423 343.105751 
L 455.401015 344.73311 
L 456.718606 343.919431 
L 458.036198 343.919431 
L 459.353789 344.73311 
L 460.671381 343.919431 
L 461.988972 341.478391 
L 463.306564 344.73311 
L 464.624155 343.919431 
L 465.941747 344.73311 
L 467.259338 341.478391 
L 468.57693 343.105751 
L 469.894521 343.919431 
L 471.212113 343.105751 
L 472.529704 337.409992 
L 473.847296 343.919431 
L 475.164887 344.73311 
L 476.482479 342.292071 
L 477.80007 344.73311 
L 479.117662 343.919431 
L 480.435253 344.73311 
L 481.752845 343.919431 
L 483.070436 344.73311 
L 487.023211 344.73311 
L 488.340802 343.105751 
L 489.658394 339.851031 
L 490.975985 344.73311 
L 492.293577 341.478391 
L 493.611168 343.919431 
L 494.92876 341.478391 
L 496.246351 343.919431 
L 498.881534 343.919431 
L 500.199126 343.105751 
L 501.516717 341.478391 
L 502.834309 344.73311 
L 504.1519 343.105751 
L 506.787083 344.73311 
L 508.104675 343.105751 
L 509.422266 343.919431 
L 510.739858 339.851031 
L 512.057449 343.919431 
L 513.375041 344.73311 
L 514.692632 344.73311 
L 516.010224 343.919431 
L 517.327815 344.73311 
L 518.645407 343.919431 
L 519.962998 344.73311 
L 522.598181 344.73311 
L 523.915773 343.919431 
L 525.233364 344.73311 
L 526.550956 344.73311 
L 527.868547 343.919431 
L 529.186139 343.919431 
L 530.50373 343.105751 
L 531.821322 344.73311 
L 535.774096 344.73311 
L 537.091688 343.919431 
L 538.409279 344.73311 
L 539.726871 344.73311 
L 542.362054 343.105751 
L 543.679645 343.919431 
L 544.997237 343.919431 
L 546.314828 344.73311 
L 547.63242 342.292071 
L 548.950011 343.919431 
L 550.267603 343.919431 
L 551.585194 344.73311 
L 552.902786 344.73311 
L 554.220377 343.919431 
L 555.537969 343.919431 
L 556.85556 339.851031 
L 558.173152 343.919431 
L 560.808335 343.919431 
L 562.125926 344.73311 
L 564.761109 344.73311 
L 566.078701 343.105751 
L 568.713884 344.73311 
L 570.031475 343.919431 
L 571.349067 344.73311 
L 572.666658 343.919431 
L 573.98425 344.73311 
L 575.301841 344.73311 
L 576.619433 343.919431 
L 577.937024 343.919431 
L 579.254616 344.73311 
L 581.889799 344.73311 
L 583.20739 342.292071 
L 584.524982 343.105751 
L 585.842573 344.73311 
L 588.477756 344.73311 
L 589.795348 342.292071 
L 591.112939 343.919431 
L 592.430531 344.73311 
L 595.065714 344.73311 
L 596.383305 343.919431 
L 599.018488 343.919431 
L 600.33608 344.73311 
L 612.194403 344.73311 
L 613.511995 343.919431 
L 614.829586 344.73311 
L 620.099952 344.73311 
L 621.417544 343.105751 
L 622.735135 344.73311 
L 630.640684 344.73311 
L 631.958276 343.919431 
L 633.275867 344.73311 
L 634.593459 344.73311 
L 635.91105 343.919431 
L 637.228642 344.73311 
L 638.546233 344.73311 
L 639.863825 343.105751 
L 642.499008 344.73311 
L 643.816599 343.919431 
L 645.134191 344.73311 
L 649.086965 344.73311 
L 650.404557 343.105751 
L 651.722148 344.73311 
L 654.357331 344.73311 
L 655.674923 343.919431 
L 656.992514 344.73311 
L 660.945289 344.73311 
L 662.26288 343.919431 
L 663.580472 344.73311 
L 664.898063 344.73311 
L 666.215655 337.409992 
L 667.533246 343.919431 
L 668.850838 343.919431 
L 670.168429 344.73311 
L 671.486021 343.919431 
L 672.803612 344.73311 
L 675.438795 343.105751 
L 676.756387 344.73311 
L 678.073978 341.478391 
L 679.39157 343.919431 
L 680.709161 343.919431 
L 682.026753 344.73311 
L 683.344344 343.919431 
L 684.661936 344.73311 
L 685.979527 343.919431 
L 687.297119 344.73311 
L 688.61471 343.105751 
L 689.932302 344.73311 
L 693.885076 344.73311 
L 695.202668 342.292071 
L 696.520259 343.919431 
L 697.837851 344.73311 
L 700.473034 344.73311 
L 701.790625 343.919431 
L 704.425808 343.919431 
L 705.743399 344.73311 
L 709.696174 344.73311 
L 711.013765 343.105751 
L 712.331357 344.73311 
L 714.96654 344.73311 
L 716.284131 343.105751 
L 717.601723 344.73311 
L 718.919314 344.73311 
L 720.236906 343.919431 
L 721.554497 344.73311 
L 724.18968 344.73311 
L 725.507272 343.919431 
L 726.824863 344.73311 
L 728.142455 344.73311 
L 729.460046 335.782632 
L 730.777638 344.73311 
L 732.095229 343.105751 
L 733.412821 343.919431 
L 734.730412 343.105751 
L 736.048004 343.919431 
L 737.365595 343.919431 
L 738.683187 344.73311 
L 741.31837 343.105751 
L 743.953553 344.73311 
L 745.271144 342.292071 
L 746.588736 343.919431 
L 747.906327 344.73311 
L 749.223919 342.292071 
L 750.54151 343.919431 
L 751.859102 344.73311 
L 753.176693 343.105751 
L 755.811876 344.73311 
L 757.129468 342.292071 
L 758.447059 343.919431 
L 759.764651 343.919431 
L 761.082242 344.73311 
L 762.399834 343.919431 
L 763.717425 344.73311 
L 765.035017 342.292071 
L 766.352608 340.664711 
L 767.6702 341.478391 
L 768.987791 343.919431 
L 770.305383 343.919431 
L 771.622974 339.037351 
L 772.940566 343.919431 
L 774.258157 343.919431 
L 775.575749 344.73311 
L 776.89334 341.478391 
L 778.210932 341.478391 
L 779.528523 342.292071 
L 780.846115 342.292071 
L 782.163706 343.105751 
L 783.481298 342.292071 
L 784.798889 340.664711 
L 786.116481 343.919431 
L 787.434072 343.105751 
L 788.751664 344.73311 
L 790.069255 343.919431 
L 791.386847 343.919431 
L 792.704438 343.105751 
L 794.02203 344.73311 
L 796.657213 344.73311 
L 797.974804 341.478391 
L 799.292396 343.105751 
L 800.609987 343.919431 
L 801.927579 343.919431 
L 803.24517 344.73311 
L 804.562762 341.478391 
L 805.880353 341.478391 
L 807.197945 343.919431 
L 808.515536 343.919431 
L 809.833128 344.73311 
L 811.150719 343.919431 
L 812.468311 344.73311 
L 813.785902 341.478391 
L 815.103494 341.478391 
L 816.421085 340.664711 
L 817.738677 344.73311 
L 819.056268 342.292071 
L 823.009043 342.292071 
L 824.326634 343.919431 
L 825.644226 341.478391 
L 826.961817 343.105751 
L 828.279409 340.664711 
L 829.597 342.292071 
L 830.914592 344.73311 
L 834.867366 344.73311 
L 836.184958 342.292071 
L 837.502549 344.73311 
L 838.820141 343.919431 
L 840.137732 344.73311 
L 841.455324 335.782632 
L 842.772915 343.919431 
L 844.090507 341.478391 
L 845.408098 344.73311 
L 848.043281 341.478391 
L 849.360873 343.105751 
L 851.996056 344.73311 
L 853.313647 344.73311 
L 854.631239 343.105751 
L 855.94883 344.73311 
L 857.266422 343.919431 
L 858.584013 344.73311 
L 859.901605 343.919431 
L 862.536788 343.919431 
L 863.854379 343.105751 
L 865.171971 343.919431 
L 866.489562 343.919431 
L 867.807154 344.73311 
L 869.124745 343.105751 
L 870.442337 344.73311 
L 871.759928 343.919431 
L 873.07752 341.478391 
L 874.395111 344.73311 
L 875.712703 343.105751 
L 877.030294 343.919431 
L 878.347886 342.292071 
L 879.665477 327.645833 
L 880.983069 326.832153 
L 882.30066 295.912319 
L 883.618252 303.235437 
L 884.935843 305.676477 
L 886.253435 295.098639 
L 887.571026 319.509035 
L 888.888618 309.744876 
L 890.206209 321.136394 
L 891.523801 308.931196 
L 892.841392 332.527913 
L 894.158984 328.459513 
L 895.476575 331.714233 
L 896.794167 342.292071 
L 898.111758 340.664711 
L 899.42935 343.105751 
L 900.746941 343.105751 
L 902.064533 340.664711 
L 903.382124 343.919431 
L 904.699716 344.73311 
L 906.017307 344.73311 
L 907.334899 340.664711 
L 908.65249 344.73311 
L 909.970082 343.105751 
L 912.605265 344.73311 
L 913.922856 344.73311 
L 915.240448 343.919431 
L 916.558039 343.919431 
L 917.875631 344.73311 
L 919.193222 343.919431 
L 920.510814 343.919431 
L 921.828405 344.73311 
L 927.098771 344.73311 
L 928.416363 343.919431 
L 929.733954 343.919431 
L 931.051546 344.73311 
L 932.369137 344.73311 
L 933.686729 343.105751 
L 935.00432 344.73311 
L 936.321912 344.73311 
L 937.639503 343.919431 
L 938.957095 343.919431 
L 940.274686 343.105751 
L 941.592278 344.73311 
L 942.909869 343.919431 
L 944.227461 344.73311 
L 945.545052 342.292071 
L 946.862644 343.105751 
L 948.180235 344.73311 
L 950.815418 344.73311 
L 952.13301 342.292071 
L 953.450601 343.919431 
L 956.085784 343.919431 
L 957.403376 344.73311 
L 958.720967 344.73311 
L 960.038559 343.919431 
L 961.35615 343.919431 
L 962.673742 344.73311 
L 963.991333 343.105751 
L 965.308925 344.73311 
L 969.261699 344.73311 
L 970.579291 343.919431 
L 971.896882 344.73311 
L 975.849657 344.73311 
L 977.167248 343.919431 
L 978.48484 344.73311 
L 982.437614 344.73311 
L 983.755206 343.919431 
L 985.072797 343.919431 
L 986.390389 344.73311 
L 990.343163 344.73311 
L 991.660755 343.919431 
L 992.978346 344.73311 
L 994.295938 342.292071 
L 995.613529 343.919431 
L 996.931121 342.292071 
L 998.248712 344.73311 
L 999.566304 343.919431 
L 1000.883895 344.73311 
L 1002.201487 343.105751 
L 1003.519078 344.73311 
L 1004.83667 342.292071 
L 1006.154261 344.73311 
L 1007.471853 344.73311 
L 1008.789444 341.478391 
L 1010.107036 344.73311 
L 1011.424627 340.664711 
L 1012.742219 344.73311 
L 1014.05981 343.919431 
L 1015.377402 344.73311 
L 1016.694993 343.919431 
L 1018.012585 342.292071 
L 1019.330176 344.73311 
L 1020.647768 343.105751 
L 1021.965359 343.105751 
L 1023.282951 341.478391 
L 1024.600542 343.919431 
L 1025.918134 341.478391 
L 1027.235725 337.409992 
L 1028.553317 344.73311 
L 1029.870908 335.782632 
L 1031.1885 339.037351 
L 1032.506091 339.851031 
L 1033.823683 343.919431 
L 1035.141274 341.478391 
L 1036.458866 337.409992 
L 1037.776457 340.664711 
L 1039.094049 336.596312 
L 1040.41164 341.478391 
L 1041.729232 340.664711 
L 1043.046823 342.292071 
L 1044.364415 342.292071 
L 1045.682006 343.919431 
L 1049.634781 343.919431 
L 1050.952372 344.73311 
L 1053.587555 341.478391 
L 1054.905147 343.919431 
L 1056.222738 343.105751 
L 1057.54033 344.73311 
L 1062.810696 344.73311 
L 1064.128287 343.919431 
L 1065.445879 343.919431 
L 1066.76347 344.73311 
L 1069.398653 344.73311 
L 1070.716245 343.919431 
L 1072.033836 344.73311 
L 1073.351428 342.292071 
L 1074.669019 343.919431 
L 1075.986611 344.73311 
L 1077.304202 343.105751 
L 1078.621794 343.919431 
L 1079.939385 336.596312 
L 1081.256977 333.341592 
L 1082.574568 343.919431 
L 1083.89216 340.664711 
L 1085.209751 338.223672 
L 1086.527343 339.851031 
L 1087.844934 342.292071 
L 1089.162526 342.292071 
L 1090.480117 344.73311 
L 1091.797709 341.478391 
L 1093.1153 342.292071 
L 1094.432892 336.596312 
L 1095.750483 343.105751 
L 1097.068075 339.851031 
L 1098.385666 341.478391 
L 1099.703258 339.037351 
L 1101.020849 340.664711 
L 1102.338441 344.73311 
L 1103.656032 339.037351 
L 1104.973624 343.919431 
L 1106.291215 341.478391 
L 1107.608807 343.105751 
L 1108.926398 331.714233 
L 1110.24399 343.105751 
L 1111.561581 344.73311 
L 1114.196764 343.105751 
L 1115.514356 343.919431 
L 1119.46713 343.919431 
L 1120.784722 335.782632 
L 1122.102313 312.999596 
L 1123.419905 344.73311 
L 1124.737496 242.209448 
L 1126.055088 250.346246 
L 1127.372679 344.73311 
L 1128.690271 50.181 
L 1130.007862 214.544332 
L 1131.325454 251.159926 
L 1132.643045 250.346246 
L 1133.960637 286.14816 
L 1135.278228 330.086873 
L 1136.59582 340.664711 
L 1137.913411 343.919431 
L 1139.231003 334.968952 
L 1140.548594 336.596312 
L 1141.866186 336.596312 
L 1143.183777 335.782632 
L 1144.501369 344.73311 
L 1145.81896 328.459513 
L 1147.136552 335.782632 
L 1148.454143 329.273193 
L 1149.771735 337.409992 
L 1151.089326 338.223672 
L 1152.406918 326.832153 
L 1153.724509 326.832153 
L 1155.042101 340.664711 
L 1156.359692 334.968952 
L 1157.677284 337.409992 
L 1158.994875 339.037351 
L 1160.312467 338.223672 
L 1161.630058 334.155272 
L 1162.94765 331.714233 
L 1164.265241 327.645833 
L 1165.582833 342.292071 
L 1166.900424 343.919431 
L 1168.218016 343.919431 
L 1169.535607 343.105751 
L 1172.17079 339.851031 
L 1173.488382 340.664711 
L 1174.805973 343.919431 
L 1176.123565 342.292071 
L 1177.441156 342.292071 
L 1178.758748 343.919431 
L 1182.711522 341.478391 
L 1184.029114 343.919431 
L 1185.346705 342.292071 
L 1186.664297 337.409992 
L 1187.981888 341.478391 
L 1189.29948 343.105751 
L 1190.617071 333.341592 
L 1191.934663 343.105751 
L 1193.252254 340.664711 
L 1194.569846 341.478391 
L 1195.887437 343.105751 
L 1197.205029 334.155272 
L 1198.52262 341.478391 
L 1199.840212 332.527913 
L 1201.157803 330.086873 
L 1202.475395 339.037351 
L 1203.792986 339.037351 
L 1205.110578 336.596312 
L 1206.428169 337.409992 
L 1207.745761 339.037351 
L 1209.063352 337.409992 
L 1210.380944 337.409992 
L 1211.698535 339.037351 
L 1213.016127 337.409992 
L 1214.333718 340.664711 
L 1216.968901 335.782632 
L 1218.286493 338.223672 
L 1219.604084 334.968952 
L 1220.921676 332.527913 
L 1222.239267 341.478391 
L 1223.556859 339.037351 
L 1224.87445 341.478391 
L 1226.192042 344.73311 
L 1227.509633 337.409992 
L 1228.827225 333.341592 
L 1230.144816 344.73311 
L 1231.462408 336.596312 
L 1232.779999 339.037351 
L 1234.097591 337.409992 
L 1235.415182 341.478391 
L 1236.732774 343.105751 
L 1239.367957 339.851031 
L 1240.685548 342.292071 
L 1242.00314 339.037351 
L 1243.320731 340.664711 
L 1244.638323 339.037351 
L 1245.955914 336.596312 
L 1247.273506 341.478391 
L 1248.591097 337.409992 
L 1249.908689 339.037351 
L 1251.22628 339.851031 
L 1252.543872 341.478391 
L 1253.861463 339.851031 
L 1255.179055 343.105751 
L 1256.496646 340.664711 
L 1257.814238 339.851031 
L 1259.131829 341.478391 
L 1260.449421 339.851031 
L 1261.767012 341.478391 
L 1263.084604 339.037351 
L 1265.719787 339.037351 
L 1267.037378 338.223672 
L 1268.35497 339.851031 
L 1269.672561 338.223672 
L 1270.990153 335.782632 
L 1272.307744 337.409992 
L 1273.625336 330.900553 
L 1274.942927 337.409992 
L 1276.260519 338.223672 
L 1277.57811 336.596312 
L 1278.895702 339.851031 
L 1280.213293 338.223672 
L 1281.530885 339.037351 
L 1282.848476 334.155272 
L 1284.166068 339.037351 
L 1285.483659 336.596312 
L 1286.801251 341.478391 
L 1288.118842 341.478391 
L 1289.436434 339.851031 
L 1290.754025 334.968952 
L 1292.071617 336.596312 
L 1293.389208 337.409992 
L 1293.389208 337.409992 
" clip-path="url(#p6658fe9fe7)" style="fill: none; stroke: #0000ff; stroke-width: 1.5; stroke-linecap: square"/>
   </g>
   <g id="line2d_21">
    <path d="M 1053.587555 343.074009 
L 1054.905147 342.371892 
L 1056.222738 342.511779 
L 1057.54033 344.184428 
L 1058.857921 344.379093 
L 1060.175513 345.046304 
L 1061.493104 345.07601 
L 1062.810696 344.678704 
L 1064.128287 344.421237 
L 1065.445879 343.980202 
L 1066.76347 343.974653 
L 1069.398653 344.92738 
L 1070.716245 344.58157 
L 1072.033836 344.436664 
L 1073.351428 343.593627 
L 1075.986611 343.296514 
L 1077.304202 344.054771 
L 1078.621794 344.198903 
L 1079.939385 341.066947 
L 1081.256977 337.501297 
L 1082.574568 336.099936 
L 1083.89216 338.615157 
L 1085.209751 342.597276 
L 1086.527343 339.85989 
L 1087.844934 339.840288 
L 1089.162526 342.253174 
L 1090.480117 343.377392 
L 1091.797709 343.042703 
L 1093.1153 343.105471 
L 1094.432892 339.989215 
L 1095.750483 339.792991 
L 1097.068075 339.131826 
L 1098.385666 341.79127 
L 1099.703258 340.431064 
L 1101.020849 340.210198 
L 1102.338441 341.659123 
L 1103.656032 341.736514 
L 1104.973624 343.100212 
L 1106.291215 340.988526 
L 1107.608807 343.2035 
L 1108.926398 339.002105 
L 1110.24399 338.055464 
L 1111.561581 338.696105 
L 1112.879173 345.083595 
L 1114.196764 345.585647 
L 1115.514356 343.445831 
L 1116.831947 344.189942 
L 1118.149539 343.738418 
L 1119.46713 343.580731 
L 1120.784722 340.936822 
L 1122.102313 330.537062 
L 1123.419905 327.391171 
L 1124.737496 297.626365 
L 1126.055088 274.783961 
L 1127.372679 260.608444 
L 1128.690271 216.07126 
L 1130.007862 200.293283 
L 1131.325454 131.918656 
L 1132.643045 249.424675 
L 1133.960637 291.462005 
L 1135.278228 290.896251 
L 1136.59582 343.638137 
L 1137.913411 352.581 
L 1139.231003 344.099476 
L 1140.548594 331.997798 
L 1141.866186 332.274433 
L 1143.183777 333.19278 
L 1144.501369 335.876709 
L 1145.81896 337.007 
L 1147.136552 337.873452 
L 1148.454143 329.833946 
L 1149.771735 332.999774 
L 1151.089326 334.838058 
L 1152.406918 334.585058 
L 1153.724509 331.246124 
L 1155.042101 329.063375 
L 1156.359692 334.627802 
L 1157.677284 339.661348 
L 1158.994875 337.320783 
L 1160.312467 338.765547 
L 1161.630058 338.224444 
L 1164.265241 329.660513 
L 1165.582833 332.271507 
L 1166.900424 338.050797 
L 1168.218016 346.132739 
L 1169.535607 345.938397 
L 1170.853199 343.381222 
L 1172.17079 341.57731 
L 1173.488382 339.27096 
L 1174.805973 340.239669 
L 1176.123565 342.189604 
L 1177.441156 343.681815 
L 1178.758748 343.124311 
L 1181.393931 343.451787 
L 1182.711522 341.939961 
L 1184.029114 342.07882 
L 1185.346705 342.507218 
L 1186.664297 341.527654 
L 1187.981888 339.881651 
L 1189.29948 339.826679 
L 1190.617071 339.973884 
L 1191.934663 339.638073 
L 1193.252254 337.946103 
L 1194.569846 342.865469 
L 1195.887437 342.377248 
L 1197.205029 339.480705 
L 1198.52262 339.634669 
L 1199.840212 334.799033 
L 1201.157803 334.474477 
L 1202.475395 332.285927 
L 1203.792986 335.257155 
L 1205.110578 340.414675 
L 1206.428169 338.344993 
L 1207.745761 337.670571 
L 1209.063352 338.304859 
L 1210.380944 337.963065 
L 1211.698535 337.338647 
L 1213.016127 337.832352 
L 1214.333718 339.417619 
L 1215.65131 338.845167 
L 1216.968901 338.572055 
L 1219.604084 335.68932 
L 1220.921676 335.234546 
L 1222.239267 335.444578 
L 1223.556859 337.633824 
L 1224.87445 342.281692 
L 1226.192042 342.427304 
L 1227.509633 341.921939 
L 1230.144816 336.460568 
L 1231.462408 337.313378 
L 1232.779999 341.162484 
L 1234.097591 337.272522 
L 1235.415182 339.075518 
L 1236.732774 341.466134 
L 1238.050365 342.494555 
L 1239.367957 342.151232 
L 1240.685548 340.775322 
L 1242.00314 340.333498 
L 1243.320731 340.45114 
L 1244.638323 339.045264 
L 1245.955914 338.634147 
L 1247.273506 338.799335 
L 1248.591097 338.21933 
L 1249.908689 339.841322 
L 1251.22628 338.548894 
L 1252.543872 340.16062 
L 1253.861463 341.055442 
L 1255.179055 341.573292 
L 1256.496646 341.420174 
L 1257.814238 341.472974 
L 1259.131829 340.425235 
L 1260.449421 339.905893 
L 1261.767012 341.064886 
L 1263.084604 339.978905 
L 1264.402195 339.873147 
L 1265.719787 338.798067 
L 1267.037378 338.499241 
L 1268.35497 338.993641 
L 1270.990153 338.224852 
L 1272.307744 336.81754 
L 1273.625336 334.23474 
L 1274.942927 334.759596 
L 1276.260519 334.747013 
L 1277.57811 338.204811 
L 1278.895702 339.148587 
L 1280.213293 338.302092 
L 1281.530885 339.790932 
L 1282.848476 337.057332 
L 1284.166068 336.734604 
L 1285.483659 335.948409 
L 1286.801251 339.187875 
L 1288.118842 340.339456 
L 1289.436434 341.673351 
L 1290.754025 339.579514 
L 1292.071617 336.244939 
L 1293.389208 335.235647 
L 1293.389208 335.235647 
" clip-path="url(#p6658fe9fe7)" style="fill: none; stroke: #ffa500; stroke-width: 1.5; stroke-linecap: square"/>
   </g>
   <g id="line2d_22">
    <path d="M 1293.389208 335.235647 
L 1294.7068 335.945188 
L 1296.024391 336.219608 
L 1297.341983 335.513988 
L 1298.659574 336.261413 
L 1299.977166 336.263845 
L 1301.294757 335.879804 
L 1302.612349 336.219317 
L 1303.92994 336.170529 
L 1305.247532 336.036537 
L 1306.565123 336.168846 
L 1307.882715 336.140665 
L 1309.200306 336.092423 
L 1310.517898 336.14535 
" clip-path="url(#p6658fe9fe7)" style="fill: none; stroke: #ff0000; stroke-width: 1.5; stroke-linecap: square"/>
   </g>
   <g id="patch_3">
    <path d="M 32.190625 367.701 
L 32.190625 35.061 
" style="fill: none; stroke: #000000; stroke-width: 0.8; stroke-linejoin: miter; stroke-linecap: square"/>
   </g>
   <g id="patch_4">
    <path d="M 1371.390625 367.701 
L 1371.390625 35.061 
" style="fill: none; stroke: #000000; stroke-width: 0.8; stroke-linejoin: miter; stroke-linecap: square"/>
   </g>
   <g id="patch_5">
    <path d="M 32.190625 367.701 
L 1371.390625 367.701 
" style="fill: none; stroke: #000000; stroke-width: 0.8; stroke-linejoin: miter; stroke-linecap: square"/>
   </g>
   <g id="patch_6">
    <path d="M 32.190625 35.061 
L 1371.390625 35.061 
" style="fill: none; stroke: #000000; stroke-width: 0.8; stroke-linejoin: miter; stroke-linecap: square"/>
   </g>
   <g id="text_20">
    <!-- 每日新增预测 - 福建 -->
    <g transform="translate(648.393438 17.041875)scale(0.12 -0.12)">
     <defs>
      <path id="WenQuanYiZenHei-6bcf" d="M 6138 2181 
Q 6113 1988 6138 1800 
Q 5788 1819 5438 1819 
L 4975 1819 
L 4863 738 
L 5806 738 
L 5806 394 
L 4831 394 
L 4775 -144 
Q 4719 -563 4350 -725 
Q 4013 -856 3550 -825 
L 3288 -819 
Q 3331 -663 3275 -519 
Q 3219 -375 3113 -288 
Q 3381 -313 3759 -303 
Q 4138 -294 4231 -238 
Q 4338 -163 4350 88 
L 4381 394 
L 1025 394 
L 1244 1819 
L 813 1819 
Q 463 1819 113 1800 
Q 138 1988 113 2181 
Q 463 2163 813 2163 
L 1294 2163 
L 1488 3431 
L 1488 3581 
L 1506 3581 
L 1513 3613 
L 1713 3581 
L 5156 3581 
L 5013 2163 
L 5438 2163 
Q 5788 2163 6138 2181 
z
M 5588 4463 
Q 5569 4269 5588 4081 
Q 5244 4100 4894 4100 
L 1813 4100 
Q 1344 3463 606 2788 
Q 481 2988 256 3069 
Q 744 3494 1116 3972 
Q 1488 4450 1919 5181 
Q 2119 5044 2344 4950 
Q 2213 4688 2050 4444 
L 4894 4444 
Q 5238 4444 5588 4463 
z
M 2844 3238 
L 1906 3238 
L 1744 2163 
L 3244 2163 
L 2581 3038 
L 2844 3238 
z
M 3250 2163 
L 4563 2163 
L 4669 3238 
L 3044 3238 
L 3638 2456 
L 3250 2163 
z
M 2944 1819 
Q 3275 1394 3550 938 
L 3213 738 
L 4419 738 
L 4525 1819 
L 2944 1819 
z
M 2656 1819 
L 1694 1819 
L 1525 738 
L 3094 738 
Q 2806 1219 2450 1650 
L 2656 1819 
z
" transform="scale(0.015625)"/>
      <path id="WenQuanYiZenHei-65e5" d="M 1494 -775 
Q 1244 -750 988 -775 
Q 1013 -313 1013 156 
L 1013 4875 
L 5269 4875 
L 5269 -763 
L 4813 -763 
L 4813 156 
L 1469 156 
Q 1469 -313 1494 -775 
z
M 4813 2700 
L 4813 4500 
L 1469 4500 
L 1469 2700 
L 4813 2700 
z
M 4813 531 
L 4813 2325 
L 1469 2325 
L 1469 531 
L 4813 531 
z
" transform="scale(0.015625)"/>
      <path id="WenQuanYiZenHei-65b0" d="M 5419 -763 
Q 5188 -738 4963 -763 
Q 4981 -344 4981 75 
L 4981 2819 
L 4188 2819 
L 4188 1706 
Q 4188 63 3163 -738 
Q 3019 -519 2769 -469 
Q 3769 131 3769 1706 
L 3769 4769 
L 3875 4769 
L 3844 4831 
L 4294 4781 
Q 4438 4769 4894 4816 
Q 5350 4863 5512 4931 
Q 5675 5000 5763 5094 
Q 5850 4881 5981 4694 
Q 5713 4544 5263 4519 
L 4188 4438 
L 4188 3100 
L 5563 3100 
Q 5850 3100 6131 3113 
Q 6119 2956 6131 2806 
L 5394 2819 
L 5394 75 
Q 5394 -344 5419 -763 
z
M 2981 213 
Q 2656 744 2256 1225 
L 2606 1513 
Q 3025 1006 3369 450 
L 2981 213 
z
M 1169 1525 
Q 1375 1419 1594 1363 
Q 1281 488 469 -469 
Q 331 -300 119 -244 
Q 575 263 888 900 
Q 1038 1206 1169 1525 
z
M 1825 6 
L 1825 1769 
L 1081 1769 
Q 794 1769 513 1756 
Q 525 1913 513 2063 
Q 794 2050 1081 2050 
L 1825 2050 
L 1825 2775 
L 994 2775 
Q 706 2775 425 2763 
Q 438 2919 425 3075 
Q 706 3056 994 3056 
L 1825 3056 
L 1825 3088 
L 1906 3088 
Q 2288 3656 2588 4381 
Q 2794 4269 3013 4206 
Q 2800 3675 2381 3056 
L 3013 3056 
Q 3294 3056 3581 3075 
Q 3563 2919 3581 2763 
Q 3294 2775 3013 2775 
L 2238 2775 
L 2238 2050 
L 2925 2050 
Q 3206 2050 3494 2063 
Q 3475 1913 3494 1756 
Q 3206 1769 2925 1769 
L 2238 1769 
L 2238 -156 
Q 2238 -413 2075 -581 
Q 1844 -794 1306 -794 
Q 1363 -519 1188 -288 
Q 1338 -313 1534 -316 
Q 1731 -319 1778 -278 
Q 1825 -238 1825 6 
z
M 1875 3388 
L 1500 3131 
L 825 4088 
L 1200 4350 
L 1875 3388 
z
M 3419 4713 
Q 3400 4563 3419 4406 
Q 3131 4419 2850 4419 
L 1125 4419 
Q 838 4419 556 4406 
Q 569 4563 556 4713 
Q 838 4700 1125 4700 
L 1763 4700 
L 1388 5088 
L 1719 5406 
L 2288 4813 
L 2175 4700 
L 2850 4700 
Q 3131 4700 3419 4713 
z
" transform="scale(0.015625)"/>
      <path id="WenQuanYiZenHei-589e" d="M 3138 -769 
Q 2913 -744 2688 -769 
Q 2706 -356 2706 56 
L 2706 1719 
L 5706 1719 
L 5706 -756 
L 5300 -756 
L 5300 -338 
L 3119 -338 
Q 3125 -550 3138 -769 
z
M 5113 3569 
Q 5344 3606 5563 3688 
Q 5669 3175 5256 2694 
Q 5113 2519 4975 2506 
Q 4831 2725 4588 2813 
Q 4806 2831 4997 3068 
Q 5188 3306 5113 3569 
z
M 3850 2763 
L 3469 2538 
L 2925 3456 
L 3313 3681 
L 3850 2763 
z
M 2400 2100 
Q 2469 3138 2400 4175 
L 3413 4175 
Q 3138 4550 2825 4888 
L 3156 5194 
Q 3581 4725 3938 4206 
L 3900 4175 
L 4456 4175 
Q 4863 4575 5131 5163 
Q 5325 5044 5538 4975 
Q 5369 4575 5013 4175 
L 6056 4175 
Q 5981 3138 6056 2100 
L 2400 2100 
z
M 5300 806 
L 5300 1450 
L 3113 1450 
Q 3113 1125 3113 806 
L 5300 806 
z
M 5300 563 
L 3113 563 
L 3113 -94 
L 5300 -94 
L 5300 563 
z
M 4431 3913 
L 4431 2363 
L 5650 2363 
L 5650 3913 
L 4756 3913 
L 4700 3856 
Q 4681 3888 4656 3913 
L 4431 3913 
z
M 4025 3913 
L 2806 3913 
L 2806 2363 
L 4025 2363 
L 4025 3913 
z
M -31 625 
Q 506 763 1006 975 
L 1006 3206 
L 669 3206 
Q 369 3206 75 3188 
Q 94 3356 75 3531 
Q 369 3513 669 3513 
L 1006 3513 
L 1006 4263 
Q 1006 4700 981 5131 
Q 1206 5106 1431 5131 
Q 1413 4700 1413 4263 
L 1413 3513 
L 2238 3531 
Q 2219 3356 2238 3188 
L 1413 3206 
L 1413 1163 
L 2150 1531 
L 2194 1256 
Q 1269 775 813 519 
L 194 144 
Q 138 438 -31 625 
z
" transform="scale(0.015625)"/>
      <path id="WenQuanYiZenHei-9884" d="M 1206 19 
L 1206 2888 
L 669 2888 
Q 356 2888 50 2869 
Q 63 3044 50 3213 
Q 363 3194 669 3194 
L 1250 3194 
Q 950 3631 606 4031 
L 963 4338 
L 1263 3975 
L 1913 4719 
L 731 4719 
Q 419 4719 106 4706 
Q 125 4875 106 5044 
Q 419 5031 731 5031 
L 2481 5031 
L 2544 4663 
Q 2394 4613 2256 4466 
Q 2119 4319 1525 3631 
Q 1656 3444 1788 3250 
L 1700 3194 
L 2700 3194 
L 2763 2825 
Q 2656 2819 2613 2763 
L 2100 2038 
L 1750 2288 
L 2175 2888 
L 1638 2888 
L 1638 -150 
Q 1638 -525 1363 -669 
Q 1075 -819 525 -813 
Q 594 -513 388 -294 
Q 575 -313 837 -316 
Q 1100 -319 1153 -272 
Q 1206 -225 1206 19 
z
M 5813 -888 
Q 5100 -225 4306 375 
L 4669 719 
Q 5481 106 6219 -575 
L 5813 -888 
z
M 2375 -906 
Q 2294 -631 2025 -506 
Q 2769 -431 3353 19 
Q 3938 469 3938 1069 
L 3938 2200 
Q 3938 2625 3913 3050 
Q 4188 3025 4456 3050 
Q 4431 2625 4431 2200 
L 4431 1069 
Q 4431 681 4225 319 
Q 3644 -606 2375 -906 
z
M 3444 488 
Q 3169 513 2894 488 
Q 2919 913 2919 1338 
L 2919 3675 
Q 3219 3675 3525 3675 
Q 3750 4013 3931 4525 
L 3238 4525 
Q 2888 4525 2538 4513 
Q 2556 4669 2538 4831 
Q 2888 4813 3238 4813 
L 5313 4813 
Q 5663 4813 6006 4831 
Q 5988 4669 6006 4513 
Q 5663 4525 5313 4525 
L 4481 4525 
Q 4388 4088 4088 3675 
L 5644 3675 
L 5644 513 
L 5144 513 
L 5144 3388 
L 3894 3388 
L 3875 3363 
Q 3863 3375 3844 3388 
Q 3631 3388 3413 3388 
L 3419 1338 
Q 3419 913 3444 488 
z
" transform="scale(0.015625)"/>
      <path id="WenQuanYiZenHei-6d4b" d="M 5450 138 
L 5450 4306 
Q 5450 4750 5425 5188 
Q 5663 5163 5906 5188 
Q 5881 4750 5881 4306 
L 5881 -38 
Q 5888 -569 5519 -719 
Q 5194 -831 4825 -813 
Q 4894 -519 4694 -281 
Q 4869 -306 5094 -309 
Q 5319 -313 5384 -256 
Q 5450 -200 5450 138 
z
M 4900 938 
Q 4663 963 4419 938 
Q 4444 1375 4444 1819 
L 4444 3381 
Q 4444 3819 4419 4263 
Q 4663 4238 4900 4263 
Q 4875 3819 4875 3381 
L 4875 1819 
Q 4875 1375 4900 938 
z
M 2750 2025 
L 2750 3038 
Q 2750 3481 2725 3919 
Q 2963 3894 3206 3919 
Q 3181 3481 3181 3038 
L 3181 2025 
Q 3181 1263 2919 625 
L 3231 956 
Q 3781 431 4256 -150 
L 3888 -456 
Q 3431 106 2906 600 
Q 2531 -288 1738 -769 
Q 1606 -519 1338 -450 
Q 1988 -156 2369 478 
Q 2750 1113 2750 2025 
z
M 2363 969 
Q 2119 994 1881 969 
Q 1906 1406 1906 1850 
L 1906 5038 
L 3956 5031 
L 3956 1200 
L 3525 1200 
L 3525 4713 
L 2338 4713 
L 2338 1850 
Q 2338 1406 2363 969 
z
M 663 -738 
Q 481 -588 206 -575 
Q 400 -69 606 581 
Q 813 1231 1200 2838 
L 1381 2706 
L 875 338 
L 663 -738 
z
M 1006 2856 
L 731 2550 
L 75 3400 
L 350 3713 
L 1006 2856 
z
M 1088 3913 
Q 781 4388 425 4800 
L 694 5125 
Q 1069 4688 1388 4188 
L 1088 3913 
z
" transform="scale(0.015625)"/>
      <path id="WenQuanYiZenHei-20" transform="scale(0.015625)"/>
      <path id="WenQuanYiZenHei-798f" d="M 3169 -775 
Q 2938 -750 2713 -775 
Q 2731 -356 2731 69 
L 2731 2131 
L 5956 2131 
L 5956 -763 
L 5538 -763 
L 5538 -263 
L 3150 -263 
Q 3156 -519 3169 -775 
z
M 3088 2650 
Q 3163 3319 3088 3988 
L 5575 3988 
Q 5500 3319 5575 2650 
L 3088 2650 
z
M 6069 4838 
Q 6056 4681 6069 4531 
Q 5788 4544 5500 4544 
L 3213 4544 
Q 2925 4544 2644 4531 
Q 2656 4681 2644 4838 
Q 2925 4825 3213 4825 
L 5500 4825 
Q 5788 4825 6069 4838 
z
M 4525 -6 
L 5538 -6 
L 5538 794 
L 4525 794 
L 4525 -6 
z
M 4113 -6 
L 4113 794 
L 3144 794 
L 3144 -6 
L 4113 -6 
z
M 4525 1050 
L 5538 1050 
L 5538 1850 
L 4525 1850 
L 4525 1050 
z
M 4113 1050 
L 4113 1850 
L 3144 1850 
L 3144 1050 
L 4113 1050 
z
M 3506 3706 
L 3506 2931 
L 5163 2931 
L 5163 3706 
L 3506 3706 
z
M 1650 2069 
L 1650 38 
Q 1650 -406 1669 -844 
Q 1438 -819 1200 -844 
Q 1219 -406 1219 38 
L 1219 1763 
Q 875 1369 456 1044 
Q 256 1200 0 1288 
Q 1213 2100 1838 3500 
L 925 3500 
Q 606 3500 288 3481 
Q 306 3656 288 3831 
Q 606 3819 925 3819 
L 2400 3819 
Q 2175 3125 1788 2513 
L 1856 2569 
L 2544 1700 
L 2181 1400 
L 1650 2069 
z
M 1488 4025 
Q 1181 4550 806 5019 
L 1169 5319 
Q 1563 4825 1894 4269 
L 1488 4025 
z
" transform="scale(0.015625)"/>
      <path id="WenQuanYiZenHei-5efa" d="M 919 4275 
Q 581 4275 250 4263 
Q 269 4444 250 4625 
Q 581 4606 919 4606 
L 2056 4606 
L 1050 2825 
L 1888 2825 
Q 1950 1669 1450 744 
Q 2331 -181 4219 -138 
L 5988 -188 
Q 5813 -388 5813 -650 
Q 5169 -613 4353 -603 
Q 3538 -594 3194 -544 
Q 1969 -381 1219 350 
Q 844 -219 325 -625 
Q 125 -463 -119 -381 
Q 531 44 919 694 
Q 500 1244 344 1931 
L 769 2025 
Q 888 1531 1144 1131 
Q 1425 1781 1413 2500 
L 363 2500 
L 1363 4275 
L 919 4275 
z
M 4013 0 
Q 3775 25 3531 0 
Q 3550 344 3550 688 
L 2638 688 
Q 2306 688 1969 669 
Q 1988 850 1969 1031 
Q 2306 1019 2638 1019 
L 3556 1019 
L 3556 1569 
L 2956 1569 
Q 2619 1569 2281 1550 
Q 2300 1738 2281 1919 
Q 2619 1900 2956 1900 
L 3556 1900 
L 3556 2419 
L 3000 2419 
Q 2663 2419 2325 2406 
Q 2350 2588 2325 2769 
Q 2663 2750 3000 2750 
L 3556 2750 
L 3556 3350 
L 2613 3350 
Q 2275 3350 1938 3331 
Q 1956 3513 1938 3694 
Q 2275 3681 2613 3681 
L 3556 3681 
L 3556 4200 
L 3088 4200 
Q 2756 4200 2419 4188 
Q 2438 4369 2419 4550 
Q 2756 4531 3088 4531 
L 3550 4531 
Q 3550 4894 3531 5263 
Q 3775 5238 4013 5263 
Q 4000 4894 3994 4531 
L 5325 4531 
L 5325 3681 
Q 5656 3681 5981 3694 
Q 5963 3513 5981 3331 
Q 5656 3350 5325 3350 
L 5325 2419 
L 3994 2419 
L 3994 1900 
L 4650 1900 
Q 4988 1900 5325 1919 
Q 5306 1738 5325 1550 
Q 4988 1569 4650 1569 
L 3994 1569 
L 3994 1019 
L 5013 1019 
Q 5350 1019 5681 1031 
Q 5663 850 5681 669 
Q 5350 688 5013 688 
L 3994 688 
Q 4000 344 4013 0 
z
M 3994 2750 
L 4888 2750 
L 4888 3350 
L 3994 3350 
L 3994 2750 
z
M 3994 3681 
L 4888 3681 
L 4888 4200 
L 3994 4200 
L 3994 3681 
z
" transform="scale(0.015625)"/>
     </defs>
     <use xlink:href="#WenQuanYiZenHei-6bcf"/>
     <use xlink:href="#WenQuanYiZenHei-65e5" x="100"/>
     <use xlink:href="#WenQuanYiZenHei-65b0" x="200"/>
     <use xlink:href="#WenQuanYiZenHei-589e" x="300"/>
     <use xlink:href="#WenQuanYiZenHei-9884" x="400"/>
     <use xlink:href="#WenQuanYiZenHei-6d4b" x="500"/>
     <use xlink:href="#WenQuanYiZenHei-20" x="600"/>
     <use xlink:href="#WenQuanYiZenHei-2d" x="629.980469"/>
     <use xlink:href="#WenQuanYiZenHei-20" x="659.960938"/>
     <use xlink:href="#WenQuanYiZenHei-798f" x="689.941406"/>
     <use xlink:href="#WenQuanYiZenHei-5efa" x="789.941406"/>
    </g>
    <!-- ARIMA (4, 1, 0)x(0, 0, 1, 7) (R2 = 0.581698) -->
    <g transform="translate(583.182813 29.061)scale(0.12 -0.12)">
     <defs>
      <path id="WenQuanYiZenHei-41" d="M 3550 0 
L 2988 0 
L 2550 1281 
L 919 1281 
L 531 0 
L 69 0 
L 1494 4388 
L 2125 4388 
L 3550 0 
z
M 2425 1694 
L 1756 3800 
L 1075 1694 
L 2425 1694 
z
" transform="scale(0.015625)"/>
      <path id="WenQuanYiZenHei-52" d="M 3675 0 
L 3100 0 
L 2288 1900 
L 1069 1900 
L 1069 0 
L 519 0 
L 519 4388 
L 2163 4388 
Q 3006 4388 3400 3900 
Q 3581 3663 3625 3325 
Q 3631 3250 3631 3163 
Q 3631 2594 3219 2244 
Q 3038 2100 2813 2038 
L 3675 0 
z
M 3081 3169 
Q 3081 3825 2356 3906 
Q 2263 3919 2163 3919 
L 1069 3919 
L 1069 2350 
L 2100 2350 
Q 2906 2350 3044 2919 
Q 3081 3031 3081 3169 
z
" transform="scale(0.015625)"/>
      <path id="WenQuanYiZenHei-49" d="M 1100 0 
L 550 0 
L 550 4388 
L 1100 4388 
L 1100 0 
z
" transform="scale(0.015625)"/>
      <path id="WenQuanYiZenHei-4d" d="M 4756 0 
L 4206 0 
L 4206 3831 
L 4181 3831 
L 2788 0 
L 2419 0 
L 1000 3831 
L 975 3831 
L 975 0 
L 513 0 
L 513 4388 
L 1331 4388 
L 2656 875 
L 3950 4388 
L 4756 4388 
L 4756 0 
z
" transform="scale(0.015625)"/>
      <path id="WenQuanYiZenHei-28" d="M 1606 -1094 
L 1275 -1094 
Q 475 -100 338 1231 
Q 319 1438 319 1656 
Q 319 3031 1156 4244 
Q 1213 4313 1269 4388 
L 1600 4388 
Q 806 3169 794 1681 
Q 794 188 1606 -1094 
z
" transform="scale(0.015625)"/>
      <path id="WenQuanYiZenHei-2c" d="M 1363 75 
L 881 -825 
L 606 -825 
L 994 0 
L 656 0 
L 656 738 
L 1363 738 
L 1363 75 
z
" transform="scale(0.015625)"/>
      <path id="WenQuanYiZenHei-29" d="M 1600 1656 
Q 1600 306 869 -788 
Q 769 -950 644 -1094 
L 313 -1094 
Q 1125 188 1125 1681 
Q 1125 3169 338 4363 
Q 325 4375 319 4388 
L 650 4388 
Q 1525 3231 1594 1863 
Q 1600 1763 1600 1656 
z
" transform="scale(0.015625)"/>
      <path id="WenQuanYiZenHei-78" d="M 2806 0 
L 2213 0 
L 1394 1319 
L 544 0 
L 50 0 
L 1144 1681 
L 163 3250 
L 744 3250 
L 1431 2138 
L 2144 3250 
L 2631 3250 
L 1681 1794 
L 2806 0 
z
" transform="scale(0.015625)"/>
      <path id="WenQuanYiZenHei-3d" d="M 3569 2256 
L 263 2256 
L 263 2675 
L 3569 2675 
L 3569 2256 
z
M 3569 1019 
L 263 1019 
L 263 1431 
L 3569 1431 
L 3569 1019 
z
" transform="scale(0.015625)"/>
      <path id="WenQuanYiZenHei-2e" d="M 1344 0 
L 631 0 
L 631 725 
L 1344 725 
L 1344 0 
z
" transform="scale(0.015625)"/>
      <path id="WenQuanYiZenHei-38" d="M 3619 1175 
Q 3619 431 2850 100 
Q 2444 -63 1944 -63 
Q 1231 -63 725 269 
Q 225 594 225 1125 
Q 225 1881 1269 2281 
Q 719 2481 519 2938 
Q 444 3119 444 3319 
Q 444 4000 1144 4294 
Q 1519 4456 1963 4456 
Q 2669 4456 3094 4094 
Q 3425 3813 3425 3369 
Q 3425 2638 2575 2356 
Q 3231 2056 3450 1725 
Q 3619 1488 3619 1175 
z
M 2944 3344 
Q 2944 3906 2288 4019 
Q 2138 4044 1969 4044 
Q 1438 4044 1163 3775 
Q 1000 3613 1000 3375 
Q 1000 2925 1594 2663 
Q 1756 2588 1931 2550 
Q 2581 2725 2788 2956 
Q 2944 3125 2944 3344 
z
M 3075 1094 
Q 3075 1738 1875 2050 
Q 1094 1881 850 1463 
Q 763 1313 763 1131 
Q 763 569 1456 406 
Q 1681 344 1944 344 
Q 2519 344 2850 619 
Q 3075 813 3075 1094 
z
" transform="scale(0.015625)"/>
      <path id="WenQuanYiZenHei-36" d="M 3550 1431 
Q 3550 725 3006 288 
Q 2581 -63 1994 -63 
Q 1013 -63 563 825 
Q 288 1363 288 2081 
Q 288 3294 856 3938 
Q 1319 4456 2075 4456 
Q 2969 4456 3363 3756 
Q 3431 3631 3481 3481 
L 2988 3350 
Q 2750 3994 2075 4006 
Q 1056 4006 844 2669 
Q 794 2356 794 1981 
L 806 1981 
Q 1006 2506 1544 2744 
Q 1819 2869 2119 2869 
Q 2788 2869 3213 2375 
Q 3550 1975 3550 1431 
z
M 3038 1406 
Q 3038 1906 2656 2213 
Q 2381 2431 2038 2431 
Q 1525 2431 1181 2044 
Q 919 1744 919 1356 
Q 919 881 1344 581 
Q 1631 375 1981 375 
Q 2519 375 2838 781 
Q 3038 1050 3038 1406 
z
" transform="scale(0.015625)"/>
      <path id="WenQuanYiZenHei-39" d="M 3544 2300 
Q 3544 1163 3019 513 
Q 2563 -63 1775 -63 
Q 956 -63 563 488 
Q 463 631 394 813 
L 838 975 
Q 1025 494 1550 388 
Q 1656 369 1775 369 
Q 2594 369 2900 1325 
Q 3044 1769 3038 2313 
L 3025 2313 
Q 2675 1638 1944 1544 
Q 1844 1531 1744 1531 
Q 1050 1531 625 2031 
Q 294 2419 294 2963 
Q 294 3656 813 4094 
Q 1238 4456 1819 4456 
Q 2988 4456 3381 3363 
Q 3544 2900 3544 2300 
z
M 2925 2994 
Q 2925 3563 2469 3844 
Q 2206 4006 1863 4006 
Q 1275 4006 988 3563 
Q 844 3344 825 3056 
Q 819 3006 819 2956 
Q 819 2413 1269 2131 
Q 1538 1963 1875 1963 
Q 2363 1963 2681 2350 
Q 2925 2638 2925 2994 
z
" transform="scale(0.015625)"/>
     </defs>
     <use xlink:href="#WenQuanYiZenHei-41"/>
     <use xlink:href="#WenQuanYiZenHei-52" x="55.957031"/>
     <use xlink:href="#WenQuanYiZenHei-49" x="117.871094"/>
     <use xlink:href="#WenQuanYiZenHei-4d" x="143.847656"/>
     <use xlink:href="#WenQuanYiZenHei-41" x="225.78125"/>
     <use xlink:href="#WenQuanYiZenHei-20" x="281.738281"/>
     <use xlink:href="#WenQuanYiZenHei-28" x="311.71875"/>
     <use xlink:href="#WenQuanYiZenHei-34" x="341.699219"/>
     <use xlink:href="#WenQuanYiZenHei-2c" x="401.660156"/>
     <use xlink:href="#WenQuanYiZenHei-20" x="431.640625"/>
     <use xlink:href="#WenQuanYiZenHei-31" x="461.621094"/>
     <use xlink:href="#WenQuanYiZenHei-2c" x="521.582031"/>
     <use xlink:href="#WenQuanYiZenHei-20" x="551.5625"/>
     <use xlink:href="#WenQuanYiZenHei-30" x="581.542969"/>
     <use xlink:href="#WenQuanYiZenHei-29" x="641.503906"/>
     <use xlink:href="#WenQuanYiZenHei-78" x="671.484375"/>
     <use xlink:href="#WenQuanYiZenHei-28" x="715.429688"/>
     <use xlink:href="#WenQuanYiZenHei-30" x="745.410156"/>
     <use xlink:href="#WenQuanYiZenHei-2c" x="805.371094"/>
     <use xlink:href="#WenQuanYiZenHei-20" x="835.351562"/>
     <use xlink:href="#WenQuanYiZenHei-30" x="865.332031"/>
     <use xlink:href="#WenQuanYiZenHei-2c" x="925.292969"/>
     <use xlink:href="#WenQuanYiZenHei-20" x="955.273438"/>
     <use xlink:href="#WenQuanYiZenHei-31" x="985.253906"/>
     <use xlink:href="#WenQuanYiZenHei-2c" x="1045.214844"/>
     <use xlink:href="#WenQuanYiZenHei-20" x="1075.195312"/>
     <use xlink:href="#WenQuanYiZenHei-37" x="1105.175781"/>
     <use xlink:href="#WenQuanYiZenHei-29" x="1165.136719"/>
     <use xlink:href="#WenQuanYiZenHei-20" x="1195.117188"/>
     <use xlink:href="#WenQuanYiZenHei-28" x="1225.097656"/>
     <use xlink:href="#WenQuanYiZenHei-52" x="1255.078125"/>
     <use xlink:href="#WenQuanYiZenHei-32" x="1316.992188"/>
     <use xlink:href="#WenQuanYiZenHei-20" x="1376.953125"/>
     <use xlink:href="#WenQuanYiZenHei-3d" x="1406.933594"/>
     <use xlink:href="#WenQuanYiZenHei-20" x="1466.894531"/>
     <use xlink:href="#WenQuanYiZenHei-30" x="1496.875"/>
     <use xlink:href="#WenQuanYiZenHei-2e" x="1556.835938"/>
     <use xlink:href="#WenQuanYiZenHei-35" x="1586.816406"/>
     <use xlink:href="#WenQuanYiZenHei-38" x="1646.777344"/>
     <use xlink:href="#WenQuanYiZenHei-31" x="1706.738281"/>
     <use xlink:href="#WenQuanYiZenHei-36" x="1766.699219"/>
     <use xlink:href="#WenQuanYiZenHei-39" x="1826.660156"/>
     <use xlink:href="#WenQuanYiZenHei-38" x="1886.621094"/>
     <use xlink:href="#WenQuanYiZenHei-29" x="1946.582031"/>
    </g>
   </g>
   <g id="legend_1">
    <g id="patch_7">
     <path d="M 1302.390625 87.056312 
L 1364.390625 87.056312 
Q 1366.390625 87.056312 1366.390625 85.056312 
L 1366.390625 42.061 
Q 1366.390625 40.061 1364.390625 40.061 
L 1302.390625 40.061 
Q 1300.390625 40.061 1300.390625 42.061 
L 1300.390625 85.056312 
Q 1300.390625 87.056312 1302.390625 87.056312 
z
" style="fill: #ffffff; opacity: 0.8; stroke: #cccccc; stroke-linejoin: miter"/>
    </g>
    <g id="line2d_23">
     <path d="M 1304.390625 48.695375 
L 1314.390625 48.695375 
L 1324.390625 48.695375 
" style="fill: none; stroke: #0000ff; stroke-width: 1.5; stroke-linecap: square"/>
    </g>
    <g id="text_21">
     <!-- 实际值 -->
     <g transform="translate(1332.390625 52.195375)scale(0.1 -0.1)">
      <defs>
       <path id="WenQuanYiZenHei-5b9e" d="M 1025 1175 
Q 694 1175 356 1163 
Q 375 1344 356 1525 
Q 694 1506 1025 1506 
L 3363 1506 
L 3363 2625 
Q 3363 3075 3338 3519 
Q 3581 3494 3825 3519 
Q 3800 3075 3800 2625 
L 3800 1506 
L 5406 1506 
Q 5744 1506 6075 1525 
Q 6056 1344 6075 1163 
Q 5744 1175 5406 1175 
L 4038 1175 
L 4981 456 
L 6131 -488 
L 5819 -856 
L 4681 75 
L 3638 875 
Q 3313 231 2475 -231 
Q 1638 -694 700 -825 
Q 638 -519 344 -400 
Q 1450 -319 2406 244 
Q 3113 656 3300 1175 
L 1025 1175 
z
M 2263 1581 
Q 1763 2081 1200 2513 
L 1494 2894 
Q 2081 2444 2600 1919 
L 2263 1581 
z
M 2638 2500 
Q 2219 2963 1731 3363 
L 2044 3738 
Q 2556 3313 3000 2819 
L 2638 2500 
z
M 919 3156 
L 481 3156 
L 481 4344 
L 3069 4344 
Q 2794 4731 2469 5081 
L 2825 5413 
Q 3256 4944 3613 4413 
L 3513 4344 
L 5869 4344 
L 5869 3156 
L 5425 3156 
L 5425 4013 
L 919 4013 
L 919 3156 
z
" transform="scale(0.015625)"/>
       <path id="WenQuanYiZenHei-9645" d="M 6000 431 
L 5569 194 
L 4963 1219 
L 4313 2219 
L 4719 2494 
L 5375 1481 
L 6000 431 
z
M 2956 2450 
Q 3181 2344 3419 2294 
Q 3006 1038 1944 -188 
Q 1794 -6 1569 56 
Q 2069 600 2372 1156 
Q 2675 1713 2956 2450 
z
M 3750 25 
L 3750 2913 
L 2819 2913 
Q 2475 2913 2125 2894 
Q 2144 3081 2125 3269 
Q 2475 3256 2819 3256 
L 5469 3256 
Q 5819 3256 6163 3269 
Q 6144 3081 6163 2894 
Q 5813 2913 5469 2913 
L 4194 2913 
L 4194 -144 
Q 4194 -725 3456 -813 
L 3263 -825 
Q 3325 -506 3125 -250 
Q 3250 -281 3394 -306 
Q 3663 -313 3706 -272 
Q 3750 -231 3750 25 
z
M 5544 4950 
Q 5525 4756 5544 4569 
Q 5194 4588 4844 4588 
L 3325 4588 
Q 2975 4588 2625 4569 
Q 2644 4756 2625 4950 
Q 2975 4931 3325 4931 
L 4844 4931 
Q 5194 4931 5544 4950 
z
M 819 -850 
Q 581 -825 344 -850 
Q 369 -419 369 19 
L 363 4938 
L 2256 4938 
L 2256 4625 
Q 2150 4513 2075 4375 
L 1481 3238 
Q 2181 2319 2181 1156 
Q 2144 400 1569 163 
L 1406 88 
Q 1288 300 1138 481 
Q 1294 538 1450 606 
Q 1763 744 1794 1156 
Q 1794 1744 1600 2300 
Q 1406 2856 1038 3313 
L 1725 4625 
L 788 4625 
L 794 19 
Q 794 -419 819 -850 
z
" transform="scale(0.015625)"/>
       <path id="WenQuanYiZenHei-503c" d="M 6175 -219 
Q 6156 -388 6175 -556 
Q 5863 -544 5550 -544 
L 2313 -544 
Q 2000 -544 1688 -556 
Q 1706 -388 1688 -219 
L 2506 -231 
L 2506 3469 
L 3644 3469 
L 3644 4119 
L 2638 4119 
Q 2325 4119 2013 4100 
Q 2031 4269 2013 4438 
Q 2325 4425 2638 4425 
L 3638 4425 
Q 3638 4719 3619 5013 
Q 3856 4988 4094 5013 
Q 4075 4719 4075 4425 
L 5344 4425 
Q 5650 4425 5963 4438 
Q 5950 4269 5963 4100 
Q 5656 4119 5344 4119 
L 4069 4119 
L 4069 3469 
L 5300 3469 
L 5300 -231 
L 5550 -231 
Q 5863 -231 6175 -219 
z
M 4869 2556 
L 4869 3156 
L 2931 3156 
Q 2931 2850 2931 2556 
L 4869 2556 
z
M 4869 1669 
L 4869 2250 
L 2931 2250 
L 2931 1669 
L 4869 1669 
z
M 4869 731 
L 4869 1363 
L 2931 1363 
L 2931 731 
L 4869 731 
z
M 4869 -231 
L 4869 425 
L 2931 425 
L 2931 -231 
L 4869 -231 
z
M 2106 4925 
Q 1856 4075 1463 3338 
L 1463 31 
Q 1463 -413 1481 -850 
Q 1256 -825 1031 -850 
Q 1050 -413 1050 31 
L 1050 2681 
Q 750 2269 375 1931 
Q 238 2156 0 2256 
Q 331 2544 619 2875 
Q 1094 3425 1300 3950 
Q 1494 4469 1625 5050 
Q 1850 4963 2106 4925 
z
" transform="scale(0.015625)"/>
      </defs>
      <use xlink:href="#WenQuanYiZenHei-5b9e"/>
      <use xlink:href="#WenQuanYiZenHei-9645" x="100"/>
      <use xlink:href="#WenQuanYiZenHei-503c" x="200"/>
     </g>
    </g>
    <g id="line2d_24">
     <path d="M 1304.390625 63.3735 
L 1314.390625 63.3735 
L 1324.390625 63.3735 
" style="fill: none; stroke: #ffa500; stroke-width: 1.5; stroke-linecap: square"/>
    </g>
    <g id="text_22">
     <!-- 校验值 -->
     <g transform="translate(1332.390625 66.8735)scale(0.1 -0.1)">
      <defs>
       <path id="WenQuanYiZenHei-6821" d="M 5256 2463 
Q 5025 1475 4494 706 
Q 5125 -94 6175 -544 
Q 5950 -663 5850 -900 
Q 4906 -494 4250 381 
Q 3931 0 3475 -350 
Q 3019 -700 2388 -919 
Q 2338 -656 2138 -475 
Q 3306 -69 4006 738 
Q 3563 1444 3300 2331 
Q 3050 2050 2706 1800 
Q 2606 2000 2406 2106 
Q 2900 2444 3181 2938 
Q 3350 3225 3488 3538 
Q 3700 3431 3925 3369 
Q 3763 2894 3425 2475 
L 3650 2531 
Q 3888 1675 4244 1075 
Q 4469 1444 4603 1937 
Q 4738 2431 4775 2688 
Q 4963 2644 5150 2625 
Q 4919 2969 4663 3294 
L 5038 3588 
Q 5544 2925 5975 2213 
L 5569 1969 
L 5256 2463 
z
M 6006 4050 
Q 5988 3881 6006 3713 
Q 5694 3725 5381 3725 
L 3413 3725 
Q 3100 3725 2788 3713 
Q 2806 3881 2788 4050 
Q 3100 4031 3413 4031 
L 4325 4031 
Q 4019 4525 3644 4969 
L 4000 5275 
Q 4413 4788 4750 4244 
L 4406 4031 
L 5381 4031 
Q 5694 4031 6006 4050 
z
M 406 263 
Q 238 431 -25 469 
Q 194 825 466 1337 
Q 738 1850 925 2406 
Q 1113 2963 1256 3519 
L 825 3519 
Q 506 3519 188 3500 
Q 206 3700 188 3900 
Q 506 3881 825 3881 
L 1363 3881 
L 1363 4263 
Q 1363 4719 1338 5175 
Q 1556 5150 1775 5175 
Q 1756 4719 1756 4263 
L 1756 3881 
L 2525 3900 
Q 2506 3700 2525 3500 
L 1756 3519 
L 1756 2738 
L 1931 2881 
Q 2306 2300 2613 1650 
L 2231 1413 
Q 2081 1725 1919 2019 
L 1756 2300 
L 1756 69 
Q 1756 -388 1775 -850 
Q 1556 -825 1338 -850 
Q 1363 -388 1363 69 
L 1363 2438 
Q 925 1144 406 263 
z
" transform="scale(0.015625)"/>
       <path id="WenQuanYiZenHei-9a8c" d="M 5981 -106 
Q 5963 -275 5981 -444 
Q 5669 -431 5356 -431 
L 2969 -431 
Q 2656 -431 2350 -444 
Q 2363 -275 2350 -106 
Q 2656 -125 2969 -125 
L 4369 -125 
Q 4600 431 4881 1288 
L 5206 2300 
Q 5425 2206 5663 2163 
Q 5375 1188 4831 -125 
L 5356 -125 
Q 5669 -125 5981 -106 
z
M 4063 594 
Q 3788 1425 3425 2219 
L 3856 2419 
Q 4225 1600 4513 744 
L 4063 594 
z
M 3163 363 
Q 2931 1200 2613 2006 
L 3056 2175 
Q 3381 1350 3619 488 
L 3163 363 
z
M 4581 2550 
L 3513 2550 
Q 3200 2550 2888 2538 
Q 2900 2663 2894 2769 
Q 2569 2488 2206 2300 
Q 2113 2550 1894 2700 
Q 2488 2975 2975 3463 
Q 3269 3756 3394 4006 
Q 3644 4513 3794 5063 
Q 4038 4975 4294 4931 
Q 4250 4806 4206 4681 
Q 4475 3888 5025 3388 
Q 5519 2938 6169 2650 
Q 5938 2538 5838 2300 
Q 5513 2456 5200 2700 
Q 5200 2619 5206 2538 
Q 4894 2550 4581 2550 
z
M 3513 2863 
L 4994 2869 
Q 4344 3438 3988 4194 
Q 3594 3406 3013 2869 
Q 3263 2863 3513 2863 
z
M 206 444 
Q 188 756 44 963 
Q 319 956 650 1003 
Q 981 1050 1731 1281 
L 1738 1006 
Q 800 719 206 444 
z
M 525 4000 
Q 744 3950 994 3944 
Q 925 3519 875 3081 
L 763 2144 
L 1475 2144 
L 1831 4444 
L 663 4444 
Q 350 4444 38 4431 
Q 56 4600 38 4769 
Q 350 4756 663 4756 
L 2313 4756 
L 1913 2144 
L 2375 2144 
L 2200 -200 
Q 2188 -425 1988 -588 
Q 1694 -800 1181 -788 
L 944 -788 
Q 1000 -450 788 -269 
Q 1013 -294 1334 -287 
Q 1656 -281 1715 -243 
Q 1775 -206 1781 -50 
L 1925 1831 
L 294 1831 
L 444 3131 
Q 500 3569 525 4000 
z
" transform="scale(0.015625)"/>
      </defs>
      <use xlink:href="#WenQuanYiZenHei-6821"/>
      <use xlink:href="#WenQuanYiZenHei-9a8c" x="100"/>
      <use xlink:href="#WenQuanYiZenHei-503c" x="200"/>
     </g>
    </g>
    <g id="line2d_25">
     <path d="M 1304.390625 77.895375 
L 1314.390625 77.895375 
L 1324.390625 77.895375 
" style="fill: none; stroke: #ff0000; stroke-width: 1.5; stroke-linecap: square"/>
    </g>
    <g id="text_23">
     <!-- 预测值 -->
     <g transform="translate(1332.390625 81.395375)scale(0.1 -0.1)">
      <use xlink:href="#WenQuanYiZenHei-9884"/>
      <use xlink:href="#WenQuanYiZenHei-6d4b" x="100"/>
      <use xlink:href="#WenQuanYiZenHei-503c" x="200"/>
     </g>
    </g>
   </g>
  </g>
 </g>
 <defs>
  <clipPath id="p6658fe9fe7">
   <rect x="32.190625" y="35.061" width="1339.2" height="332.64"/>
  </clipPath>
 </defs>
</svg>
