<?xml version="1.0" encoding="utf-8" standalone="no"?>
<!DOCTYPE svg PUBLIC "-//W3C//DTD SVG 1.1//EN"
  "http://www.w3.org/Graphics/SVG/1.1/DTD/svg11.dtd">
<svg xmlns:xlink="http://www.w3.org/1999/xlink" width="1378.590625pt" height="390.418188pt" viewBox="0 0 1378.590625 390.418188" xmlns="http://www.w3.org/2000/svg" version="1.1">
 <metadata>
  <rdf:RDF xmlns:dc="http://purl.org/dc/elements/1.1/" xmlns:cc="http://creativecommons.org/ns#" xmlns:rdf="http://www.w3.org/1999/02/22-rdf-syntax-ns#">
   <cc:Work>
    <dc:type rdf:resource="http://purl.org/dc/dcmitype/StillImage"/>
    <dc:date>2022-07-07T18:14:47.827499</dc:date>
    <dc:format>image/svg+xml</dc:format>
    <dc:creator>
     <cc:Agent>
      <dc:title>Matplotlib v3.5.2, https://matplotlib.org/</dc:title>
     </cc:Agent>
    </dc:creator>
   </cc:Work>
  </rdf:RDF>
 </metadata>
 <defs>
  <style type="text/css">*{stroke-linejoin: round; stroke-linecap: butt}</style>
 </defs>
 <g id="figure_1">
  <g id="patch_1">
   <path d="M 0 390.418188 
L 1378.590625 390.418188 
L 1378.590625 -0 
L 0 -0 
z
" style="fill: #ffffff"/>
  </g>
  <g id="axes_1">
   <g id="patch_2">
    <path d="M 32.190625 367.701 
L 1371.390625 367.701 
L 1371.390625 35.061 
L 32.190625 35.061 
z
" style="fill: #ffffff"/>
   </g>
   <g id="matplotlib.axis_1">
    <g id="xtick_1">
     <g id="line2d_1">
      <defs>
       <path id="me46ee1494f" d="M 0 0 
L 0 3.5 
" style="stroke: #000000; stroke-width: 0.8"/>
      </defs>
      <g>
       <use xlink:href="#me46ee1494f" x="63.565555" y="367.701" style="stroke: #000000; stroke-width: 0.8"/>
      </g>
     </g>
     <g id="text_1">
      <!-- 2020-01 -->
      <g transform="translate(44.075711 381.55725)scale(0.1 -0.1)">
       <defs>
        <path id="WenQuanYiZenHei-32" d="M 3488 0 
L 369 0 
L 369 456 
L 2150 1850 
Q 2931 2463 2931 3144 
Q 2931 3619 2488 3863 
Q 2231 4013 1931 4013 
Q 1425 4013 1113 3619 
Q 894 3356 881 3013 
L 369 3169 
Q 531 3981 1213 4300 
Q 1544 4456 1950 4456 
Q 2631 4456 3088 4044 
L 3225 3888 
L 3350 3706 
Q 3481 3444 3481 3144 
Q 3481 2313 2519 1569 
L 1069 456 
L 3488 456 
L 3488 0 
z
" transform="scale(0.015625)"/>
        <path id="WenQuanYiZenHei-30" d="M 3581 2175 
Q 3581 1288 3169 638 
Q 2713 -63 1938 -63 
Q 1025 -63 563 831 
Q 256 1425 256 2188 
Q 256 3188 700 3819 
Q 1138 4456 1888 4456 
Q 2863 4456 3306 3500 
Q 3581 2925 3581 2175 
z
M 3019 2100 
Q 3019 3356 2500 3806 
L 2350 3919 
Q 2144 4031 1888 4031 
Q 1100 4031 888 2956 
Q 819 2625 819 2225 
Q 819 1013 1338 569 
Q 1588 356 1938 356 
Q 2675 356 2925 1294 
Q 3019 1663 3019 2100 
z
" transform="scale(0.015625)"/>
        <path id="WenQuanYiZenHei-2d" d="M 1363 1444 
L 0 1444 
L 0 1844 
L 1363 1844 
L 1363 1444 
z
" transform="scale(0.015625)"/>
        <path id="WenQuanYiZenHei-31" d="M 3556 0 
L 488 0 
L 488 406 
L 1800 406 
L 1800 3725 
Q 1231 3125 588 2788 
L 588 3338 
Q 1456 3781 1931 4388 
L 2331 4388 
L 2331 406 
L 3556 406 
L 3556 0 
z
" transform="scale(0.015625)"/>
       </defs>
       <use xlink:href="#WenQuanYiZenHei-32"/>
       <use xlink:href="#WenQuanYiZenHei-30" x="59.960938"/>
       <use xlink:href="#WenQuanYiZenHei-32" x="119.921875"/>
       <use xlink:href="#WenQuanYiZenHei-30" x="179.882812"/>
       <use xlink:href="#WenQuanYiZenHei-2d" x="239.84375"/>
       <use xlink:href="#WenQuanYiZenHei-30" x="269.824219"/>
       <use xlink:href="#WenQuanYiZenHei-31" x="329.785156"/>
      </g>
     </g>
    </g>
    <g id="xtick_2">
     <g id="line2d_2">
      <g>
       <use xlink:href="#me46ee1494f" x="185.579171" y="367.701" style="stroke: #000000; stroke-width: 0.8"/>
      </g>
     </g>
     <g id="text_2">
      <!-- 2020-04 -->
      <g transform="translate(166.089328 381.55725)scale(0.1 -0.1)">
       <defs>
        <path id="WenQuanYiZenHei-34" d="M 3631 1025 
L 2913 1025 
L 2913 0 
L 2381 0 
L 2381 1025 
L 219 1025 
L 219 1388 
L 2225 4388 
L 2913 4388 
L 2913 1444 
L 3631 1444 
L 3631 1025 
z
M 2381 1444 
L 2381 3963 
L 788 1444 
L 2381 1444 
z
" transform="scale(0.015625)"/>
       </defs>
       <use xlink:href="#WenQuanYiZenHei-32"/>
       <use xlink:href="#WenQuanYiZenHei-30" x="59.960938"/>
       <use xlink:href="#WenQuanYiZenHei-32" x="119.921875"/>
       <use xlink:href="#WenQuanYiZenHei-30" x="179.882812"/>
       <use xlink:href="#WenQuanYiZenHei-2d" x="239.84375"/>
       <use xlink:href="#WenQuanYiZenHei-30" x="269.824219"/>
       <use xlink:href="#WenQuanYiZenHei-34" x="329.785156"/>
      </g>
     </g>
    </g>
    <g id="xtick_3">
     <g id="line2d_3">
      <g>
       <use xlink:href="#me46ee1494f" x="307.592788" y="367.701" style="stroke: #000000; stroke-width: 0.8"/>
      </g>
     </g>
     <g id="text_3">
      <!-- 2020-07 -->
      <g transform="translate(288.102944 381.55725)scale(0.1 -0.1)">
       <defs>
        <path id="WenQuanYiZenHei-37" d="M 3400 4056 
Q 1838 2175 1838 0 
L 1275 0 
Q 1269 1438 2056 2825 
Q 2381 3400 2825 3913 
L 444 3913 
L 500 4388 
L 3400 4388 
L 3400 4056 
z
" transform="scale(0.015625)"/>
       </defs>
       <use xlink:href="#WenQuanYiZenHei-32"/>
       <use xlink:href="#WenQuanYiZenHei-30" x="59.960938"/>
       <use xlink:href="#WenQuanYiZenHei-32" x="119.921875"/>
       <use xlink:href="#WenQuanYiZenHei-30" x="179.882812"/>
       <use xlink:href="#WenQuanYiZenHei-2d" x="239.84375"/>
       <use xlink:href="#WenQuanYiZenHei-30" x="269.824219"/>
       <use xlink:href="#WenQuanYiZenHei-37" x="329.785156"/>
      </g>
     </g>
    </g>
    <g id="xtick_4">
     <g id="line2d_4">
      <g>
       <use xlink:href="#me46ee1494f" x="430.947213" y="367.701" style="stroke: #000000; stroke-width: 0.8"/>
      </g>
     </g>
     <g id="text_4">
      <!-- 2020-10 -->
      <g transform="translate(411.457369 381.55725)scale(0.1 -0.1)">
       <use xlink:href="#WenQuanYiZenHei-32"/>
       <use xlink:href="#WenQuanYiZenHei-30" x="59.960938"/>
       <use xlink:href="#WenQuanYiZenHei-32" x="119.921875"/>
       <use xlink:href="#WenQuanYiZenHei-30" x="179.882812"/>
       <use xlink:href="#WenQuanYiZenHei-2d" x="239.84375"/>
       <use xlink:href="#WenQuanYiZenHei-31" x="269.824219"/>
       <use xlink:href="#WenQuanYiZenHei-30" x="329.785156"/>
      </g>
     </g>
    </g>
    <g id="xtick_5">
     <g id="line2d_5">
      <g>
       <use xlink:href="#me46ee1494f" x="554.301638" y="367.701" style="stroke: #000000; stroke-width: 0.8"/>
      </g>
     </g>
     <g id="text_5">
      <!-- 2021-01 -->
      <g transform="translate(534.811794 381.55725)scale(0.1 -0.1)">
       <use xlink:href="#WenQuanYiZenHei-32"/>
       <use xlink:href="#WenQuanYiZenHei-30" x="59.960938"/>
       <use xlink:href="#WenQuanYiZenHei-32" x="119.921875"/>
       <use xlink:href="#WenQuanYiZenHei-31" x="179.882812"/>
       <use xlink:href="#WenQuanYiZenHei-2d" x="239.84375"/>
       <use xlink:href="#WenQuanYiZenHei-30" x="269.824219"/>
       <use xlink:href="#WenQuanYiZenHei-31" x="329.785156"/>
      </g>
     </g>
    </g>
    <g id="xtick_6">
     <g id="line2d_6">
      <g>
       <use xlink:href="#me46ee1494f" x="674.974446" y="367.701" style="stroke: #000000; stroke-width: 0.8"/>
      </g>
     </g>
     <g id="text_6">
      <!-- 2021-04 -->
      <g transform="translate(655.484602 381.55725)scale(0.1 -0.1)">
       <use xlink:href="#WenQuanYiZenHei-32"/>
       <use xlink:href="#WenQuanYiZenHei-30" x="59.960938"/>
       <use xlink:href="#WenQuanYiZenHei-32" x="119.921875"/>
       <use xlink:href="#WenQuanYiZenHei-31" x="179.882812"/>
       <use xlink:href="#WenQuanYiZenHei-2d" x="239.84375"/>
       <use xlink:href="#WenQuanYiZenHei-30" x="269.824219"/>
       <use xlink:href="#WenQuanYiZenHei-34" x="329.785156"/>
      </g>
     </g>
    </g>
    <g id="xtick_7">
     <g id="line2d_7">
      <g>
       <use xlink:href="#me46ee1494f" x="796.988062" y="367.701" style="stroke: #000000; stroke-width: 0.8"/>
      </g>
     </g>
     <g id="text_7">
      <!-- 2021-07 -->
      <g transform="translate(777.498218 381.55725)scale(0.1 -0.1)">
       <use xlink:href="#WenQuanYiZenHei-32"/>
       <use xlink:href="#WenQuanYiZenHei-30" x="59.960938"/>
       <use xlink:href="#WenQuanYiZenHei-32" x="119.921875"/>
       <use xlink:href="#WenQuanYiZenHei-31" x="179.882812"/>
       <use xlink:href="#WenQuanYiZenHei-2d" x="239.84375"/>
       <use xlink:href="#WenQuanYiZenHei-30" x="269.824219"/>
       <use xlink:href="#WenQuanYiZenHei-37" x="329.785156"/>
      </g>
     </g>
    </g>
    <g id="xtick_8">
     <g id="line2d_8">
      <g>
       <use xlink:href="#me46ee1494f" x="920.342487" y="367.701" style="stroke: #000000; stroke-width: 0.8"/>
      </g>
     </g>
     <g id="text_8">
      <!-- 2021-10 -->
      <g transform="translate(900.852643 381.55725)scale(0.1 -0.1)">
       <use xlink:href="#WenQuanYiZenHei-32"/>
       <use xlink:href="#WenQuanYiZenHei-30" x="59.960938"/>
       <use xlink:href="#WenQuanYiZenHei-32" x="119.921875"/>
       <use xlink:href="#WenQuanYiZenHei-31" x="179.882812"/>
       <use xlink:href="#WenQuanYiZenHei-2d" x="239.84375"/>
       <use xlink:href="#WenQuanYiZenHei-31" x="269.824219"/>
       <use xlink:href="#WenQuanYiZenHei-30" x="329.785156"/>
      </g>
     </g>
    </g>
    <g id="xtick_9">
     <g id="line2d_9">
      <g>
       <use xlink:href="#me46ee1494f" x="1043.696913" y="367.701" style="stroke: #000000; stroke-width: 0.8"/>
      </g>
     </g>
     <g id="text_9">
      <!-- 2022-01 -->
      <g transform="translate(1024.207069 381.55725)scale(0.1 -0.1)">
       <use xlink:href="#WenQuanYiZenHei-32"/>
       <use xlink:href="#WenQuanYiZenHei-30" x="59.960938"/>
       <use xlink:href="#WenQuanYiZenHei-32" x="119.921875"/>
       <use xlink:href="#WenQuanYiZenHei-32" x="179.882812"/>
       <use xlink:href="#WenQuanYiZenHei-2d" x="239.84375"/>
       <use xlink:href="#WenQuanYiZenHei-30" x="269.824219"/>
       <use xlink:href="#WenQuanYiZenHei-31" x="329.785156"/>
      </g>
     </g>
    </g>
    <g id="xtick_10">
     <g id="line2d_10">
      <g>
       <use xlink:href="#me46ee1494f" x="1164.36972" y="367.701" style="stroke: #000000; stroke-width: 0.8"/>
      </g>
     </g>
     <g id="text_10">
      <!-- 2022-04 -->
      <g transform="translate(1144.879876 381.55725)scale(0.1 -0.1)">
       <use xlink:href="#WenQuanYiZenHei-32"/>
       <use xlink:href="#WenQuanYiZenHei-30" x="59.960938"/>
       <use xlink:href="#WenQuanYiZenHei-32" x="119.921875"/>
       <use xlink:href="#WenQuanYiZenHei-32" x="179.882812"/>
       <use xlink:href="#WenQuanYiZenHei-2d" x="239.84375"/>
       <use xlink:href="#WenQuanYiZenHei-30" x="269.824219"/>
       <use xlink:href="#WenQuanYiZenHei-34" x="329.785156"/>
      </g>
     </g>
    </g>
    <g id="xtick_11">
     <g id="line2d_11">
      <g>
       <use xlink:href="#me46ee1494f" x="1286.383336" y="367.701" style="stroke: #000000; stroke-width: 0.8"/>
      </g>
     </g>
     <g id="text_11">
      <!-- 2022-07 -->
      <g transform="translate(1266.893493 381.55725)scale(0.1 -0.1)">
       <use xlink:href="#WenQuanYiZenHei-32"/>
       <use xlink:href="#WenQuanYiZenHei-30" x="59.960938"/>
       <use xlink:href="#WenQuanYiZenHei-32" x="119.921875"/>
       <use xlink:href="#WenQuanYiZenHei-32" x="179.882812"/>
       <use xlink:href="#WenQuanYiZenHei-2d" x="239.84375"/>
       <use xlink:href="#WenQuanYiZenHei-30" x="269.824219"/>
       <use xlink:href="#WenQuanYiZenHei-37" x="329.785156"/>
      </g>
     </g>
    </g>
   </g>
   <g id="matplotlib.axis_2">
    <g id="ytick_1">
     <g id="line2d_12">
      <defs>
       <path id="m22a66df6f3" d="M 0 0 
L -3.5 0 
" style="stroke: #000000; stroke-width: 0.8"/>
      </defs>
      <g>
       <use xlink:href="#m22a66df6f3" x="32.190625" y="344.689127" style="stroke: #000000; stroke-width: 0.8"/>
      </g>
     </g>
     <g id="text_12">
      <!-- 0 -->
      <g transform="translate(19.19375 348.117252)scale(0.1 -0.1)">
       <use xlink:href="#WenQuanYiZenHei-30"/>
      </g>
     </g>
    </g>
    <g id="ytick_2">
     <g id="line2d_13">
      <g>
       <use xlink:href="#m22a66df6f3" x="32.190625" y="304.011209" style="stroke: #000000; stroke-width: 0.8"/>
      </g>
     </g>
     <g id="text_13">
      <!-- 50 -->
      <g transform="translate(13.196875 307.439334)scale(0.1 -0.1)">
       <defs>
        <path id="WenQuanYiZenHei-35" d="M 3531 1488 
Q 3531 688 2913 250 
Q 2456 -63 1844 -63 
Q 1175 -63 706 350 
Q 413 613 306 975 
L 781 1131 
Q 1000 538 1569 406 
Q 1706 369 1856 369 
Q 2550 369 2850 869 
Q 3000 1131 3000 1494 
Q 3000 2056 2581 2356 
Q 2319 2538 1969 2538 
Q 1400 2538 1031 2075 
Q 981 2013 938 1938 
L 500 2031 
L 644 4388 
L 3244 4388 
L 3200 3919 
L 1044 3919 
L 950 2500 
Q 1431 2975 2006 2975 
Q 2713 2975 3163 2475 
Q 3531 2063 3531 1488 
z
" transform="scale(0.015625)"/>
       </defs>
       <use xlink:href="#WenQuanYiZenHei-35"/>
       <use xlink:href="#WenQuanYiZenHei-30" x="59.960938"/>
      </g>
     </g>
    </g>
    <g id="ytick_3">
     <g id="line2d_14">
      <g>
       <use xlink:href="#m22a66df6f3" x="32.190625" y="263.333291" style="stroke: #000000; stroke-width: 0.8"/>
      </g>
     </g>
     <g id="text_14">
      <!-- 100 -->
      <g transform="translate(7.2 266.761416)scale(0.1 -0.1)">
       <use xlink:href="#WenQuanYiZenHei-31"/>
       <use xlink:href="#WenQuanYiZenHei-30" x="59.960938"/>
       <use xlink:href="#WenQuanYiZenHei-30" x="119.921875"/>
      </g>
     </g>
    </g>
    <g id="ytick_4">
     <g id="line2d_15">
      <g>
       <use xlink:href="#m22a66df6f3" x="32.190625" y="222.655373" style="stroke: #000000; stroke-width: 0.8"/>
      </g>
     </g>
     <g id="text_15">
      <!-- 150 -->
      <g transform="translate(7.2 226.083498)scale(0.1 -0.1)">
       <use xlink:href="#WenQuanYiZenHei-31"/>
       <use xlink:href="#WenQuanYiZenHei-35" x="59.960938"/>
       <use xlink:href="#WenQuanYiZenHei-30" x="119.921875"/>
      </g>
     </g>
    </g>
    <g id="ytick_5">
     <g id="line2d_16">
      <g>
       <use xlink:href="#m22a66df6f3" x="32.190625" y="181.977454" style="stroke: #000000; stroke-width: 0.8"/>
      </g>
     </g>
     <g id="text_16">
      <!-- 200 -->
      <g transform="translate(7.2 185.405579)scale(0.1 -0.1)">
       <use xlink:href="#WenQuanYiZenHei-32"/>
       <use xlink:href="#WenQuanYiZenHei-30" x="59.960938"/>
       <use xlink:href="#WenQuanYiZenHei-30" x="119.921875"/>
      </g>
     </g>
    </g>
    <g id="ytick_6">
     <g id="line2d_17">
      <g>
       <use xlink:href="#m22a66df6f3" x="32.190625" y="141.299536" style="stroke: #000000; stroke-width: 0.8"/>
      </g>
     </g>
     <g id="text_17">
      <!-- 250 -->
      <g transform="translate(7.2 144.727661)scale(0.1 -0.1)">
       <use xlink:href="#WenQuanYiZenHei-32"/>
       <use xlink:href="#WenQuanYiZenHei-35" x="59.960938"/>
       <use xlink:href="#WenQuanYiZenHei-30" x="119.921875"/>
      </g>
     </g>
    </g>
    <g id="ytick_7">
     <g id="line2d_18">
      <g>
       <use xlink:href="#m22a66df6f3" x="32.190625" y="100.621618" style="stroke: #000000; stroke-width: 0.8"/>
      </g>
     </g>
     <g id="text_18">
      <!-- 300 -->
      <g transform="translate(7.2 104.049743)scale(0.1 -0.1)">
       <defs>
        <path id="WenQuanYiZenHei-33" d="M 3588 1231 
Q 3588 494 2875 144 
Q 2450 -63 1925 -63 
Q 1044 -63 556 488 
Q 356 706 256 1000 
L 769 1169 
Q 994 375 1913 375 
Q 2631 375 2900 788 
Q 3019 975 3019 1231 
Q 3019 1638 2638 1881 
Q 2325 2081 1613 2069 
L 1338 2069 
L 1338 2494 
Q 1969 2494 2094 2506 
Q 2325 2544 2463 2613 
Q 2763 2756 2844 3100 
Q 2863 3169 2863 3244 
Q 2863 3744 2381 3944 
L 2163 4006 
Q 2056 4025 1931 4025 
Q 1388 4025 1075 3631 
Q 969 3488 906 3313 
L 419 3456 
Q 675 4150 1400 4369 
Q 1669 4456 1975 4456 
Q 2694 4456 3106 4050 
Q 3419 3744 3419 3275 
Q 3419 2813 3025 2513 
Q 2825 2356 2575 2319 
L 2575 2306 
Q 3181 2213 3450 1769 
Q 3588 1525 3588 1231 
z
" transform="scale(0.015625)"/>
       </defs>
       <use xlink:href="#WenQuanYiZenHei-33"/>
       <use xlink:href="#WenQuanYiZenHei-30" x="59.960938"/>
       <use xlink:href="#WenQuanYiZenHei-30" x="119.921875"/>
      </g>
     </g>
    </g>
    <g id="ytick_8">
     <g id="line2d_19">
      <g>
       <use xlink:href="#m22a66df6f3" x="32.190625" y="59.9437" style="stroke: #000000; stroke-width: 0.8"/>
      </g>
     </g>
     <g id="text_19">
      <!-- 350 -->
      <g transform="translate(7.2 63.371825)scale(0.1 -0.1)">
       <use xlink:href="#WenQuanYiZenHei-33"/>
       <use xlink:href="#WenQuanYiZenHei-35" x="59.960938"/>
       <use xlink:href="#WenQuanYiZenHei-30" x="119.921875"/>
      </g>
     </g>
    </g>
   </g>
   <g id="line2d_20">
    <path d="M 93.063352 341.434893 
L 94.404161 340.621335 
L 95.74497 338.18066 
L 97.085779 330.858635 
L 98.426588 325.163726 
L 99.767397 327.604401 
L 101.108206 341.434893 
L 102.449015 330.858635 
L 103.789824 329.231518 
L 105.130633 325.163726 
L 106.471442 332.485751 
L 107.812251 328.417959 
L 109.15306 332.485751 
L 110.493869 335.739985 
L 113.175487 337.367101 
L 114.516296 332.485751 
L 115.857105 335.739985 
L 117.197914 335.739985 
L 118.538723 339.807777 
L 119.879532 340.621335 
L 121.220341 338.994218 
L 122.56115 343.06201 
L 123.901959 341.434893 
L 125.242768 343.06201 
L 126.583577 342.248452 
L 130.606003 344.689127 
L 135.969239 344.689127 
L 137.310048 343.875568 
L 138.650857 344.689127 
L 139.991666 343.06201 
L 141.332475 344.689127 
L 168.148655 344.689127 
L 169.489464 342.248452 
L 170.830273 341.434893 
L 172.171082 336.553543 
L 173.511891 344.689127 
L 174.852699 340.621335 
L 176.193508 341.434893 
L 177.534317 339.807777 
L 178.875126 342.248452 
L 180.215935 339.807777 
L 181.556744 343.875568 
L 184.238362 342.248452 
L 185.579171 343.06201 
L 186.91998 344.689127 
L 188.260789 341.434893 
L 189.601598 343.875568 
L 190.942407 344.689127 
L 192.283216 344.689127 
L 193.624025 343.875568 
L 194.964834 344.689127 
L 198.987261 344.689127 
L 200.32807 343.875568 
L 201.668879 344.689127 
L 203.009688 343.875568 
L 204.350497 344.689127 
L 205.691306 344.689127 
L 207.032115 343.875568 
L 208.372924 343.875568 
L 209.713733 344.689127 
L 223.121822 344.689127 
L 224.462631 343.875568 
L 225.80344 344.689127 
L 256.642047 344.689127 
L 257.982856 343.875568 
L 259.323665 344.689127 
L 260.664474 343.875568 
L 262.005283 344.689127 
L 272.731754 344.689127 
L 274.072563 343.875568 
L 275.413372 344.689127 
L 278.09499 344.689127 
L 279.435799 343.875568 
L 280.776608 343.875568 
L 282.117417 344.689127 
L 283.458226 344.689127 
L 284.799035 343.875568 
L 286.139844 344.689127 
L 291.50308 344.689127 
L 292.843889 343.875568 
L 294.184698 344.689127 
L 327.704922 344.689127 
L 329.045731 343.875568 
L 330.38654 344.689127 
L 338.431394 344.689127 
L 339.772203 343.875568 
L 341.113012 343.875568 
L 342.453821 344.689127 
L 347.817057 344.689127 
L 349.157866 343.875568 
L 350.498675 344.689127 
L 361.225146 344.689127 
L 362.565955 343.875568 
L 363.906764 344.689127 
L 366.588382 344.689127 
L 367.929191 343.875568 
L 369.27 343.875568 
L 370.610809 344.689127 
L 374.633236 344.689127 
L 375.974045 343.875568 
L 377.314854 343.875568 
L 378.655663 342.248452 
L 379.996472 344.689127 
L 382.67809 344.689127 
L 385.359708 343.06201 
L 388.041326 343.06201 
L 390.722944 344.689127 
L 392.063753 344.689127 
L 393.404562 343.875568 
L 396.08618 343.875568 
L 397.426989 344.689127 
L 398.767798 343.875568 
L 400.108607 344.689127 
L 402.790225 344.689127 
L 404.131033 343.875568 
L 405.471842 344.689127 
L 406.812651 343.06201 
L 408.15346 344.689127 
L 409.494269 343.06201 
L 410.835078 344.689127 
L 412.175887 343.875568 
L 416.198314 343.875568 
L 417.539123 344.689127 
L 421.56155 344.689127 
L 422.902359 343.875568 
L 424.243168 341.434893 
L 425.583977 343.06201 
L 426.924786 343.875568 
L 428.265595 340.621335 
L 429.606404 344.689127 
L 430.947213 343.06201 
L 432.288022 344.689127 
L 433.628831 344.689127 
L 434.96964 343.06201 
L 436.310449 344.689127 
L 438.992067 344.689127 
L 440.332876 343.875568 
L 441.673685 344.689127 
L 443.014494 343.875568 
L 444.355303 343.875568 
L 445.696112 344.689127 
L 448.37773 344.689127 
L 449.718538 343.875568 
L 451.059347 344.689127 
L 453.740965 344.689127 
L 455.081774 343.875568 
L 457.763392 343.875568 
L 459.104201 338.994218 
L 460.44501 343.06201 
L 461.785819 344.689127 
L 463.126628 343.875568 
L 464.467437 343.875568 
L 465.808246 344.689127 
L 467.149055 343.875568 
L 468.489864 341.434893 
L 469.830673 344.689127 
L 471.171482 343.875568 
L 472.512291 344.689127 
L 473.8531 341.434893 
L 475.193909 343.06201 
L 476.534718 343.875568 
L 477.875527 343.06201 
L 479.216336 337.367101 
L 480.557145 343.875568 
L 481.897954 344.689127 
L 483.238763 342.248452 
L 484.579572 344.689127 
L 485.920381 343.875568 
L 487.26119 344.689127 
L 488.601999 343.875568 
L 489.942808 344.689127 
L 493.965235 344.689127 
L 495.306044 343.06201 
L 496.646852 339.807777 
L 497.987661 344.689127 
L 499.32847 341.434893 
L 500.669279 343.875568 
L 502.010088 341.434893 
L 503.350897 343.875568 
L 506.032515 343.875568 
L 507.373324 343.06201 
L 508.714133 341.434893 
L 510.054942 344.689127 
L 511.395751 343.06201 
L 514.077369 344.689127 
L 515.418178 343.06201 
L 516.758987 343.875568 
L 518.099796 339.807777 
L 519.440605 343.875568 
L 520.781414 344.689127 
L 522.122223 344.689127 
L 523.463032 343.875568 
L 524.803841 344.689127 
L 526.14465 343.875568 
L 527.485459 344.689127 
L 530.167077 344.689127 
L 531.507886 343.875568 
L 532.848695 344.689127 
L 534.189504 344.689127 
L 535.530313 343.875568 
L 536.871122 343.875568 
L 538.211931 343.06201 
L 539.55274 344.689127 
L 543.575166 344.689127 
L 544.915975 343.875568 
L 546.256784 344.689127 
L 547.597593 344.689127 
L 550.279211 343.06201 
L 551.62002 343.875568 
L 552.960829 343.875568 
L 554.301638 344.689127 
L 555.642447 342.248452 
L 556.983256 343.875568 
L 558.324065 343.875568 
L 559.664874 344.689127 
L 561.005683 344.689127 
L 562.346492 343.875568 
L 563.687301 343.875568 
L 565.02811 339.807777 
L 566.368919 343.875568 
L 569.050537 343.875568 
L 570.391346 344.689127 
L 573.072964 344.689127 
L 574.413773 343.06201 
L 577.095391 344.689127 
L 578.4362 343.875568 
L 579.777009 344.689127 
L 581.117818 343.875568 
L 582.458627 344.689127 
L 583.799436 344.689127 
L 585.140245 343.875568 
L 586.481054 343.875568 
L 587.821862 344.689127 
L 590.50348 344.689127 
L 591.844289 342.248452 
L 593.185098 343.06201 
L 594.525907 344.689127 
L 597.207525 344.689127 
L 598.548334 342.248452 
L 599.889143 343.875568 
L 601.229952 344.689127 
L 603.91157 344.689127 
L 605.252379 343.875568 
L 607.933997 343.875568 
L 609.274806 344.689127 
L 621.342087 344.689127 
L 622.682896 343.875568 
L 624.023705 344.689127 
L 629.386941 344.689127 
L 630.72775 343.06201 
L 632.068559 344.689127 
L 640.113412 344.689127 
L 641.454221 343.875568 
L 642.79503 344.689127 
L 644.135839 344.689127 
L 645.476648 343.875568 
L 646.817457 344.689127 
L 648.158266 344.689127 
L 649.499075 343.06201 
L 652.180693 344.689127 
L 653.521502 343.875568 
L 654.862311 344.689127 
L 658.884738 344.689127 
L 660.225547 343.06201 
L 661.566356 344.689127 
L 664.247974 344.689127 
L 665.588783 343.875568 
L 666.929592 344.689127 
L 670.952019 344.689127 
L 672.292828 343.875568 
L 673.633637 344.689127 
L 674.974446 344.689127 
L 676.315255 337.367101 
L 677.656064 343.875568 
L 678.996872 343.875568 
L 680.337681 344.689127 
L 681.67849 343.875568 
L 683.019299 344.689127 
L 685.700917 343.06201 
L 687.041726 344.689127 
L 688.382535 341.434893 
L 689.723344 343.875568 
L 691.064153 343.875568 
L 692.404962 344.689127 
L 693.745771 343.875568 
L 695.08658 344.689127 
L 696.427389 343.875568 
L 697.768198 344.689127 
L 699.109007 343.06201 
L 700.449816 344.689127 
L 704.472243 344.689127 
L 705.813052 342.248452 
L 707.153861 343.875568 
L 708.49467 344.689127 
L 711.176288 344.689127 
L 712.517097 343.875568 
L 715.198715 343.875568 
L 716.539524 344.689127 
L 720.561951 344.689127 
L 721.90276 343.06201 
L 723.243569 344.689127 
L 725.925186 344.689127 
L 727.265995 343.06201 
L 728.606804 344.689127 
L 729.947613 344.689127 
L 731.288422 343.875568 
L 732.629231 344.689127 
L 735.310849 344.689127 
L 736.651658 343.875568 
L 737.992467 344.689127 
L 739.333276 344.689127 
L 740.674085 335.739985 
L 742.014894 344.689127 
L 743.355703 343.06201 
L 744.696512 343.875568 
L 746.037321 343.06201 
L 747.37813 343.875568 
L 748.718939 343.875568 
L 750.059748 344.689127 
L 752.741366 343.06201 
L 755.422984 344.689127 
L 756.763793 342.248452 
L 758.104602 343.875568 
L 759.445411 344.689127 
L 760.78622 342.248452 
L 762.127029 343.875568 
L 763.467838 344.689127 
L 764.808647 343.06201 
L 767.490265 344.689127 
L 768.831074 342.248452 
L 770.171883 343.875568 
L 771.512691 343.875568 
L 772.8535 344.689127 
L 774.194309 343.875568 
L 775.535118 344.689127 
L 776.875927 342.248452 
L 778.216736 340.621335 
L 779.557545 341.434893 
L 780.898354 343.875568 
L 782.239163 343.875568 
L 783.579972 338.994218 
L 784.920781 343.875568 
L 786.26159 343.875568 
L 787.602399 344.689127 
L 788.943208 341.434893 
L 790.284017 341.434893 
L 791.624826 342.248452 
L 792.965635 342.248452 
L 794.306444 343.06201 
L 795.647253 342.248452 
L 796.988062 340.621335 
L 798.328871 343.875568 
L 799.66968 343.06201 
L 801.010489 344.689127 
L 802.351298 343.875568 
L 803.692107 343.875568 
L 805.032916 343.06201 
L 806.373725 344.689127 
L 809.055343 344.689127 
L 810.396152 341.434893 
L 811.736961 343.06201 
L 813.07777 343.875568 
L 814.418579 343.875568 
L 815.759388 344.689127 
L 817.100196 341.434893 
L 818.441005 341.434893 
L 819.781814 343.875568 
L 821.122623 343.875568 
L 822.463432 344.689127 
L 823.804241 343.875568 
L 825.14505 344.689127 
L 826.485859 341.434893 
L 827.826668 341.434893 
L 829.167477 340.621335 
L 830.508286 344.689127 
L 831.849095 342.248452 
L 835.871522 342.248452 
L 837.212331 343.875568 
L 838.55314 341.434893 
L 839.893949 343.06201 
L 841.234758 340.621335 
L 842.575567 342.248452 
L 843.916376 344.689127 
L 847.938803 344.689127 
L 849.279612 342.248452 
L 850.620421 344.689127 
L 851.96123 343.875568 
L 853.302039 344.689127 
L 854.642848 335.739985 
L 855.983657 343.875568 
L 857.324466 341.434893 
L 858.665275 344.689127 
L 861.346893 341.434893 
L 862.687701 343.06201 
L 865.369319 344.689127 
L 866.710128 344.689127 
L 868.050937 343.06201 
L 869.391746 344.689127 
L 870.732555 343.875568 
L 872.073364 344.689127 
L 873.414173 343.875568 
L 876.095791 343.875568 
L 877.4366 343.06201 
L 878.777409 343.875568 
L 880.118218 343.875568 
L 881.459027 344.689127 
L 882.799836 343.06201 
L 884.140645 344.689127 
L 885.481454 343.875568 
L 886.822263 341.434893 
L 888.163072 344.689127 
L 889.503881 343.06201 
L 890.84469 343.875568 
L 892.185499 342.248452 
L 893.526308 327.604401 
L 894.867117 326.790843 
L 896.207926 295.875625 
L 897.548735 303.19765 
L 898.889544 305.638325 
L 900.230353 295.062067 
L 901.571162 319.468818 
L 902.911971 309.706117 
L 904.25278 321.095934 
L 905.593589 308.892559 
L 906.934398 332.485751 
L 908.275206 328.417959 
L 909.616015 331.672193 
L 910.956824 342.248452 
L 912.297633 340.621335 
L 913.638442 343.06201 
L 914.979251 343.06201 
L 916.32006 340.621335 
L 917.660869 343.875568 
L 919.001678 344.689127 
L 920.342487 344.689127 
L 921.683296 340.621335 
L 923.024105 344.689127 
L 924.364914 343.06201 
L 927.046532 344.689127 
L 928.387341 344.689127 
L 929.72815 343.875568 
L 931.068959 343.875568 
L 932.409768 344.689127 
L 933.750577 343.875568 
L 935.091386 343.875568 
L 936.432195 344.689127 
L 941.795431 344.689127 
L 943.13624 343.875568 
L 944.477049 343.875568 
L 945.817858 344.689127 
L 947.158667 344.689127 
L 948.499476 343.06201 
L 949.840285 344.689127 
L 951.181094 344.689127 
L 952.521903 343.875568 
L 953.862712 343.875568 
L 955.20352 343.06201 
L 956.544329 344.689127 
L 957.885138 343.875568 
L 959.225947 344.689127 
L 960.566756 342.248452 
L 961.907565 343.06201 
L 963.248374 344.689127 
L 965.929992 344.689127 
L 967.270801 342.248452 
L 968.61161 343.875568 
L 971.293228 343.875568 
L 972.634037 344.689127 
L 973.974846 344.689127 
L 975.315655 343.875568 
L 976.656464 343.875568 
L 977.997273 344.689127 
L 979.338082 343.06201 
L 980.678891 344.689127 
L 984.701318 344.689127 
L 986.042127 343.875568 
L 987.382936 344.689127 
L 991.405363 344.689127 
L 992.746172 343.875568 
L 994.086981 344.689127 
L 998.109408 344.689127 
L 999.450217 343.875568 
L 1000.791025 343.875568 
L 1002.131834 344.689127 
L 1006.154261 344.689127 
L 1007.49507 343.875568 
L 1008.835879 344.689127 
L 1010.176688 342.248452 
L 1011.517497 343.875568 
L 1012.858306 342.248452 
L 1014.199115 344.689127 
L 1015.539924 343.875568 
L 1016.880733 344.689127 
L 1018.221542 343.06201 
L 1019.562351 344.689127 
L 1020.90316 342.248452 
L 1022.243969 344.689127 
L 1023.584778 344.689127 
L 1024.925587 341.434893 
L 1026.266396 344.689127 
L 1027.607205 340.621335 
L 1028.948014 344.689127 
L 1030.288823 343.875568 
L 1031.629632 344.689127 
L 1032.970441 343.875568 
L 1034.31125 342.248452 
L 1035.652059 344.689127 
L 1036.992868 343.06201 
L 1038.333677 343.06201 
L 1039.674486 341.434893 
L 1041.015295 343.875568 
L 1042.356104 341.434893 
L 1043.696913 337.367101 
L 1045.037722 344.689127 
L 1046.37853 335.739985 
L 1047.719339 338.994218 
L 1049.060148 339.807777 
L 1050.400957 343.875568 
L 1051.741766 341.434893 
L 1053.082575 337.367101 
L 1054.423384 340.621335 
L 1055.764193 336.553543 
L 1057.105002 341.434893 
L 1058.445811 340.621335 
L 1059.78662 342.248452 
L 1061.127429 342.248452 
L 1062.468238 343.875568 
L 1066.490665 343.875568 
L 1067.831474 344.689127 
L 1070.513092 341.434893 
L 1071.853901 343.875568 
L 1073.19471 343.06201 
L 1074.535519 344.689127 
L 1079.898755 344.689127 
L 1081.239564 343.875568 
L 1082.580373 343.875568 
L 1083.921182 344.689127 
L 1086.6028 344.689127 
L 1087.943609 343.875568 
L 1089.284418 344.689127 
L 1090.625227 342.248452 
L 1091.966035 343.875568 
L 1093.306844 344.689127 
L 1094.647653 343.06201 
L 1095.988462 343.875568 
L 1097.329271 336.553543 
L 1098.67008 333.29931 
L 1100.010889 343.875568 
L 1101.351698 340.621335 
L 1102.692507 338.18066 
L 1104.033316 339.807777 
L 1105.374125 342.248452 
L 1106.714934 342.248452 
L 1108.055743 344.689127 
L 1109.396552 341.434893 
L 1110.737361 342.248452 
L 1112.07817 336.553543 
L 1113.418979 343.06201 
L 1114.759788 339.807777 
L 1116.100597 341.434893 
L 1117.441406 338.994218 
L 1118.782215 340.621335 
L 1120.123024 344.689127 
L 1121.463833 338.994218 
L 1122.804642 343.875568 
L 1124.145451 341.434893 
L 1125.48626 343.06201 
L 1126.827069 331.672193 
L 1128.167878 343.06201 
L 1129.508687 344.689127 
L 1132.190305 343.06201 
L 1133.531114 343.875568 
L 1137.55354 343.875568 
L 1138.894349 335.739985 
L 1140.235158 312.960351 
L 1141.575967 344.689127 
L 1142.916776 242.180773 
L 1144.257585 250.316357 
L 1145.598394 344.689127 
L 1146.939203 50.181 
L 1148.280012 214.519789 
L 1149.620821 251.129915 
L 1150.96163 250.316357 
L 1152.302439 286.112925 
L 1153.643248 330.045076 
L 1154.984057 340.621335 
L 1156.324866 343.875568 
L 1157.665675 334.926426 
L 1159.006484 336.553543 
L 1160.347293 336.553543 
L 1161.688102 335.739985 
L 1163.028911 344.689127 
L 1164.36972 328.417959 
L 1165.710529 335.739985 
L 1167.051338 329.231518 
L 1168.392147 337.367101 
L 1169.732956 338.18066 
L 1171.073765 326.790843 
L 1172.414574 326.790843 
L 1173.755383 340.621335 
L 1175.096192 334.926426 
L 1176.437001 337.367101 
L 1177.77781 338.994218 
L 1179.118619 338.18066 
L 1180.459428 334.112868 
L 1181.800237 331.672193 
L 1183.141046 327.604401 
L 1184.481854 342.248452 
L 1185.822663 343.875568 
L 1187.163472 343.875568 
L 1188.504281 343.06201 
L 1191.185899 339.807777 
L 1192.526708 340.621335 
L 1193.867517 343.875568 
L 1195.208326 342.248452 
L 1196.549135 342.248452 
L 1197.889944 343.875568 
L 1201.912371 341.434893 
L 1203.25318 343.875568 
L 1204.593989 342.248452 
L 1205.934798 337.367101 
L 1207.275607 341.434893 
L 1208.616416 343.06201 
L 1209.957225 333.29931 
L 1211.298034 343.06201 
L 1212.638843 340.621335 
L 1213.979652 341.434893 
L 1215.320461 343.06201 
L 1216.66127 334.112868 
L 1218.002079 341.434893 
L 1219.342888 332.485751 
L 1220.683697 330.045076 
L 1222.024506 338.994218 
L 1223.365315 338.994218 
L 1224.706124 336.553543 
L 1226.046933 337.367101 
L 1227.387742 338.994218 
L 1228.728551 337.367101 
L 1230.069359 337.367101 
L 1231.410168 338.994218 
L 1232.750977 337.367101 
L 1234.091786 340.621335 
L 1236.773404 335.739985 
L 1238.114213 338.18066 
L 1239.455022 334.926426 
L 1240.795831 332.485751 
L 1242.13664 341.434893 
L 1243.477449 338.994218 
L 1244.818258 341.434893 
L 1246.159067 344.689127 
L 1247.499876 337.367101 
L 1248.840685 333.29931 
L 1250.181494 344.689127 
L 1251.522303 336.553543 
L 1252.863112 338.994218 
L 1254.203921 337.367101 
L 1255.54473 341.434893 
L 1256.885539 343.06201 
L 1259.567157 339.807777 
L 1260.907966 342.248452 
L 1262.248775 338.994218 
L 1263.589584 340.621335 
L 1264.930393 338.994218 
L 1266.271202 336.553543 
L 1267.612011 341.434893 
L 1268.95282 337.367101 
L 1270.293629 338.994218 
L 1271.634438 339.807777 
L 1272.975247 341.434893 
L 1274.316056 339.807777 
L 1275.656864 343.06201 
L 1276.997673 340.621335 
L 1278.338482 339.807777 
L 1279.679291 341.434893 
L 1281.0201 339.807777 
L 1282.360909 341.434893 
L 1283.701718 338.994218 
L 1286.383336 338.994218 
L 1287.724145 338.18066 
L 1289.064954 339.807777 
L 1290.405763 338.18066 
L 1291.746572 335.739985 
L 1293.087381 337.367101 
L 1293.087381 337.367101 
" clip-path="url(#pa33b7e9818)" style="fill: none; stroke: #0000ff; stroke-width: 1.5; stroke-linecap: square"/>
   </g>
   <g id="line2d_21">
    <path d="M 1053.082575 341.447674 
L 1054.423384 339.69204 
L 1055.764193 337.32353 
L 1057.105002 339.431528 
L 1058.445811 339.008916 
L 1059.78662 341.894097 
L 1061.127429 342.57818 
L 1062.468238 343.088455 
L 1063.809047 343.855693 
L 1066.490665 343.981141 
L 1069.172283 343.933432 
L 1070.513092 343.030916 
L 1071.853901 342.326971 
L 1073.19471 342.466146 
L 1074.535519 344.140168 
L 1075.876328 344.335476 
L 1077.217137 345.003046 
L 1078.557946 345.035255 
L 1079.898755 344.634038 
L 1081.239564 344.376831 
L 1082.580373 343.934456 
L 1083.921182 343.929629 
L 1086.6028 344.884092 
L 1087.943609 344.538932 
L 1089.284418 344.393263 
L 1090.625227 343.550388 
L 1093.306844 343.250758 
L 1094.647653 344.009993 
L 1095.988462 344.157549 
L 1097.329271 341.025299 
L 1098.67008 337.462164 
L 1100.010889 336.051377 
L 1101.351698 338.562962 
L 1102.692507 342.558109 
L 1104.033316 339.822408 
L 1105.374125 339.799219 
L 1106.714934 342.214955 
L 1108.055743 343.329883 
L 1109.396552 342.996793 
L 1110.737361 343.063143 
L 1112.07817 339.950257 
L 1113.418979 339.74541 
L 1114.759788 339.08402 
L 1116.100597 341.745437 
L 1117.441406 340.392398 
L 1118.782215 340.165989 
L 1120.123024 341.61963 
L 1121.463833 341.690552 
L 1122.804642 343.059017 
L 1124.145451 340.942437 
L 1125.48626 343.160501 
L 1126.827069 338.964393 
L 1128.167878 338.0066 
L 1129.508687 338.648044 
L 1130.849496 345.035196 
L 1132.190305 345.552202 
L 1133.531114 343.400679 
L 1134.871923 344.154892 
L 1136.212732 343.691225 
L 1137.55354 343.531317 
L 1138.894349 340.891065 
L 1140.235158 330.505416 
L 1141.575967 327.343069 
L 1142.916776 297.596668 
L 1144.257585 274.771087 
L 1145.598394 260.516845 
L 1146.939203 216.056327 
L 1148.280012 200.360885 
L 1149.620821 131.766767 
L 1150.96163 249.338758 
L 1152.302439 291.58811 
L 1153.643248 290.804631 
L 1154.984057 343.77691 
L 1156.324866 352.581 
L 1157.665675 344.055041 
L 1159.006484 331.854453 
L 1160.347293 332.194309 
L 1161.688102 333.12254 
L 1163.028911 335.785878 
L 1164.36972 336.978494 
L 1165.710529 337.853851 
L 1167.051338 329.79716 
L 1168.392147 332.938272 
L 1169.732956 334.789838 
L 1171.073765 334.533651 
L 1172.414574 331.215934 
L 1173.755383 329.014376 
L 1175.096192 334.585175 
L 1176.437001 339.619238 
L 1177.77781 337.277815 
L 1179.118619 338.726189 
L 1180.459428 338.191482 
L 1183.141046 329.612394 
L 1184.481854 332.219323 
L 1185.822663 338.001028 
L 1187.163472 346.091862 
L 1188.504281 345.909632 
L 1189.84509 343.345533 
L 1191.185899 341.539234 
L 1192.526708 339.215176 
L 1193.867517 340.182507 
L 1195.208326 342.13955 
L 1196.549135 343.643356 
L 1197.889944 343.08637 
L 1200.571562 343.410374 
L 1201.912371 341.892695 
L 1203.25318 342.031013 
L 1204.593989 342.462062 
L 1205.934798 341.486801 
L 1207.275607 339.839474 
L 1208.616416 339.779515 
L 1209.957225 339.933776 
L 1211.298034 339.595629 
L 1212.638843 337.897577 
L 1213.979652 342.824465 
L 1215.320461 342.338681 
L 1216.66127 339.435907 
L 1218.002079 339.597869 
L 1219.342888 334.751873 
L 1220.683697 334.431345 
L 1222.024506 332.23877 
L 1223.365315 335.205217 
L 1224.706124 340.382291 
L 1226.046933 338.306588 
L 1227.387742 337.632323 
L 1228.728551 338.264476 
L 1230.069359 337.917821 
L 1231.410168 337.28941 
L 1232.750977 337.786652 
L 1234.091786 339.377904 
L 1235.432595 338.802123 
L 1236.773404 338.531297 
L 1239.455022 335.643184 
L 1240.795831 335.192492 
L 1242.13664 335.397196 
L 1243.477449 337.587506 
L 1244.818258 342.243265 
L 1246.159067 342.387547 
L 1247.499876 341.881396 
L 1250.181494 336.408439 
L 1251.522303 337.260033 
L 1252.863112 341.119348 
L 1254.203921 337.231663 
L 1255.54473 339.031672 
L 1256.885539 341.429753 
L 1258.226348 342.44763 
L 1259.567157 342.111375 
L 1260.907966 340.729672 
L 1262.248775 340.29198 
L 1263.589584 340.404581 
L 1264.930393 338.998812 
L 1266.271202 338.591195 
L 1267.612011 338.757655 
L 1268.95282 338.174297 
L 1270.293629 339.800548 
L 1271.634438 338.506411 
L 1272.975247 340.115654 
L 1274.316056 341.015584 
L 1275.656864 341.528046 
L 1276.997673 341.378338 
L 1278.338482 341.429911 
L 1279.679291 340.382759 
L 1281.0201 339.858191 
L 1282.360909 341.021708 
L 1283.701718 339.934803 
L 1285.042527 339.830779 
L 1286.383336 338.756348 
L 1287.724145 338.454778 
L 1289.064954 338.950744 
L 1291.746572 338.184965 
L 1293.087381 336.775845 
L 1293.087381 336.775845 
" clip-path="url(#pa33b7e9818)" style="fill: none; stroke: #ffa500; stroke-width: 1.5; stroke-linecap: square"/>
   </g>
   <g id="line2d_22">
    <path d="M 1293.087381 336.775845 
L 1294.42819 336.11515 
L 1295.768999 336.821095 
L 1297.109808 336.478221 
L 1298.450617 336.374737 
L 1299.791426 336.79369 
L 1301.132235 336.596077 
L 1302.473044 336.563697 
L 1303.813853 336.713283 
L 1305.154662 336.625197 
L 1306.495471 336.617984 
L 1307.83628 336.673365 
L 1309.177089 336.635734 
L 1310.517898 336.635796 
" clip-path="url(#pa33b7e9818)" style="fill: none; stroke: #ff0000; stroke-width: 1.5; stroke-linecap: square"/>
   </g>
   <g id="patch_3">
    <path d="M 32.190625 367.701 
L 32.190625 35.061 
" style="fill: none; stroke: #000000; stroke-width: 0.8; stroke-linejoin: miter; stroke-linecap: square"/>
   </g>
   <g id="patch_4">
    <path d="M 1371.390625 367.701 
L 1371.390625 35.061 
" style="fill: none; stroke: #000000; stroke-width: 0.8; stroke-linejoin: miter; stroke-linecap: square"/>
   </g>
   <g id="patch_5">
    <path d="M 32.190625 367.701 
L 1371.390625 367.701 
" style="fill: none; stroke: #000000; stroke-width: 0.8; stroke-linejoin: miter; stroke-linecap: square"/>
   </g>
   <g id="patch_6">
    <path d="M 32.190625 35.061 
L 1371.390625 35.061 
" style="fill: none; stroke: #000000; stroke-width: 0.8; stroke-linejoin: miter; stroke-linecap: square"/>
   </g>
   <g id="text_20">
    <!-- 每日新增预测 - 福建 -->
    <g transform="translate(648.393438 17.041875)scale(0.12 -0.12)">
     <defs>
      <path id="WenQuanYiZenHei-6bcf" d="M 6138 2181 
Q 6113 1988 6138 1800 
Q 5788 1819 5438 1819 
L 4975 1819 
L 4863 738 
L 5806 738 
L 5806 394 
L 4831 394 
L 4775 -144 
Q 4719 -563 4350 -725 
Q 4013 -856 3550 -825 
L 3288 -819 
Q 3331 -663 3275 -519 
Q 3219 -375 3113 -288 
Q 3381 -313 3759 -303 
Q 4138 -294 4231 -238 
Q 4338 -163 4350 88 
L 4381 394 
L 1025 394 
L 1244 1819 
L 813 1819 
Q 463 1819 113 1800 
Q 138 1988 113 2181 
Q 463 2163 813 2163 
L 1294 2163 
L 1488 3431 
L 1488 3581 
L 1506 3581 
L 1513 3613 
L 1713 3581 
L 5156 3581 
L 5013 2163 
L 5438 2163 
Q 5788 2163 6138 2181 
z
M 5588 4463 
Q 5569 4269 5588 4081 
Q 5244 4100 4894 4100 
L 1813 4100 
Q 1344 3463 606 2788 
Q 481 2988 256 3069 
Q 744 3494 1116 3972 
Q 1488 4450 1919 5181 
Q 2119 5044 2344 4950 
Q 2213 4688 2050 4444 
L 4894 4444 
Q 5238 4444 5588 4463 
z
M 2844 3238 
L 1906 3238 
L 1744 2163 
L 3244 2163 
L 2581 3038 
L 2844 3238 
z
M 3250 2163 
L 4563 2163 
L 4669 3238 
L 3044 3238 
L 3638 2456 
L 3250 2163 
z
M 2944 1819 
Q 3275 1394 3550 938 
L 3213 738 
L 4419 738 
L 4525 1819 
L 2944 1819 
z
M 2656 1819 
L 1694 1819 
L 1525 738 
L 3094 738 
Q 2806 1219 2450 1650 
L 2656 1819 
z
" transform="scale(0.015625)"/>
      <path id="WenQuanYiZenHei-65e5" d="M 1494 -775 
Q 1244 -750 988 -775 
Q 1013 -313 1013 156 
L 1013 4875 
L 5269 4875 
L 5269 -763 
L 4813 -763 
L 4813 156 
L 1469 156 
Q 1469 -313 1494 -775 
z
M 4813 2700 
L 4813 4500 
L 1469 4500 
L 1469 2700 
L 4813 2700 
z
M 4813 531 
L 4813 2325 
L 1469 2325 
L 1469 531 
L 4813 531 
z
" transform="scale(0.015625)"/>
      <path id="WenQuanYiZenHei-65b0" d="M 5419 -763 
Q 5188 -738 4963 -763 
Q 4981 -344 4981 75 
L 4981 2819 
L 4188 2819 
L 4188 1706 
Q 4188 63 3163 -738 
Q 3019 -519 2769 -469 
Q 3769 131 3769 1706 
L 3769 4769 
L 3875 4769 
L 3844 4831 
L 4294 4781 
Q 4438 4769 4894 4816 
Q 5350 4863 5512 4931 
Q 5675 5000 5763 5094 
Q 5850 4881 5981 4694 
Q 5713 4544 5263 4519 
L 4188 4438 
L 4188 3100 
L 5563 3100 
Q 5850 3100 6131 3113 
Q 6119 2956 6131 2806 
L 5394 2819 
L 5394 75 
Q 5394 -344 5419 -763 
z
M 2981 213 
Q 2656 744 2256 1225 
L 2606 1513 
Q 3025 1006 3369 450 
L 2981 213 
z
M 1169 1525 
Q 1375 1419 1594 1363 
Q 1281 488 469 -469 
Q 331 -300 119 -244 
Q 575 263 888 900 
Q 1038 1206 1169 1525 
z
M 1825 6 
L 1825 1769 
L 1081 1769 
Q 794 1769 513 1756 
Q 525 1913 513 2063 
Q 794 2050 1081 2050 
L 1825 2050 
L 1825 2775 
L 994 2775 
Q 706 2775 425 2763 
Q 438 2919 425 3075 
Q 706 3056 994 3056 
L 1825 3056 
L 1825 3088 
L 1906 3088 
Q 2288 3656 2588 4381 
Q 2794 4269 3013 4206 
Q 2800 3675 2381 3056 
L 3013 3056 
Q 3294 3056 3581 3075 
Q 3563 2919 3581 2763 
Q 3294 2775 3013 2775 
L 2238 2775 
L 2238 2050 
L 2925 2050 
Q 3206 2050 3494 2063 
Q 3475 1913 3494 1756 
Q 3206 1769 2925 1769 
L 2238 1769 
L 2238 -156 
Q 2238 -413 2075 -581 
Q 1844 -794 1306 -794 
Q 1363 -519 1188 -288 
Q 1338 -313 1534 -316 
Q 1731 -319 1778 -278 
Q 1825 -238 1825 6 
z
M 1875 3388 
L 1500 3131 
L 825 4088 
L 1200 4350 
L 1875 3388 
z
M 3419 4713 
Q 3400 4563 3419 4406 
Q 3131 4419 2850 4419 
L 1125 4419 
Q 838 4419 556 4406 
Q 569 4563 556 4713 
Q 838 4700 1125 4700 
L 1763 4700 
L 1388 5088 
L 1719 5406 
L 2288 4813 
L 2175 4700 
L 2850 4700 
Q 3131 4700 3419 4713 
z
" transform="scale(0.015625)"/>
      <path id="WenQuanYiZenHei-589e" d="M 3138 -769 
Q 2913 -744 2688 -769 
Q 2706 -356 2706 56 
L 2706 1719 
L 5706 1719 
L 5706 -756 
L 5300 -756 
L 5300 -338 
L 3119 -338 
Q 3125 -550 3138 -769 
z
M 5113 3569 
Q 5344 3606 5563 3688 
Q 5669 3175 5256 2694 
Q 5113 2519 4975 2506 
Q 4831 2725 4588 2813 
Q 4806 2831 4997 3068 
Q 5188 3306 5113 3569 
z
M 3850 2763 
L 3469 2538 
L 2925 3456 
L 3313 3681 
L 3850 2763 
z
M 2400 2100 
Q 2469 3138 2400 4175 
L 3413 4175 
Q 3138 4550 2825 4888 
L 3156 5194 
Q 3581 4725 3938 4206 
L 3900 4175 
L 4456 4175 
Q 4863 4575 5131 5163 
Q 5325 5044 5538 4975 
Q 5369 4575 5013 4175 
L 6056 4175 
Q 5981 3138 6056 2100 
L 2400 2100 
z
M 5300 806 
L 5300 1450 
L 3113 1450 
Q 3113 1125 3113 806 
L 5300 806 
z
M 5300 563 
L 3113 563 
L 3113 -94 
L 5300 -94 
L 5300 563 
z
M 4431 3913 
L 4431 2363 
L 5650 2363 
L 5650 3913 
L 4756 3913 
L 4700 3856 
Q 4681 3888 4656 3913 
L 4431 3913 
z
M 4025 3913 
L 2806 3913 
L 2806 2363 
L 4025 2363 
L 4025 3913 
z
M -31 625 
Q 506 763 1006 975 
L 1006 3206 
L 669 3206 
Q 369 3206 75 3188 
Q 94 3356 75 3531 
Q 369 3513 669 3513 
L 1006 3513 
L 1006 4263 
Q 1006 4700 981 5131 
Q 1206 5106 1431 5131 
Q 1413 4700 1413 4263 
L 1413 3513 
L 2238 3531 
Q 2219 3356 2238 3188 
L 1413 3206 
L 1413 1163 
L 2150 1531 
L 2194 1256 
Q 1269 775 813 519 
L 194 144 
Q 138 438 -31 625 
z
" transform="scale(0.015625)"/>
      <path id="WenQuanYiZenHei-9884" d="M 1206 19 
L 1206 2888 
L 669 2888 
Q 356 2888 50 2869 
Q 63 3044 50 3213 
Q 363 3194 669 3194 
L 1250 3194 
Q 950 3631 606 4031 
L 963 4338 
L 1263 3975 
L 1913 4719 
L 731 4719 
Q 419 4719 106 4706 
Q 125 4875 106 5044 
Q 419 5031 731 5031 
L 2481 5031 
L 2544 4663 
Q 2394 4613 2256 4466 
Q 2119 4319 1525 3631 
Q 1656 3444 1788 3250 
L 1700 3194 
L 2700 3194 
L 2763 2825 
Q 2656 2819 2613 2763 
L 2100 2038 
L 1750 2288 
L 2175 2888 
L 1638 2888 
L 1638 -150 
Q 1638 -525 1363 -669 
Q 1075 -819 525 -813 
Q 594 -513 388 -294 
Q 575 -313 837 -316 
Q 1100 -319 1153 -272 
Q 1206 -225 1206 19 
z
M 5813 -888 
Q 5100 -225 4306 375 
L 4669 719 
Q 5481 106 6219 -575 
L 5813 -888 
z
M 2375 -906 
Q 2294 -631 2025 -506 
Q 2769 -431 3353 19 
Q 3938 469 3938 1069 
L 3938 2200 
Q 3938 2625 3913 3050 
Q 4188 3025 4456 3050 
Q 4431 2625 4431 2200 
L 4431 1069 
Q 4431 681 4225 319 
Q 3644 -606 2375 -906 
z
M 3444 488 
Q 3169 513 2894 488 
Q 2919 913 2919 1338 
L 2919 3675 
Q 3219 3675 3525 3675 
Q 3750 4013 3931 4525 
L 3238 4525 
Q 2888 4525 2538 4513 
Q 2556 4669 2538 4831 
Q 2888 4813 3238 4813 
L 5313 4813 
Q 5663 4813 6006 4831 
Q 5988 4669 6006 4513 
Q 5663 4525 5313 4525 
L 4481 4525 
Q 4388 4088 4088 3675 
L 5644 3675 
L 5644 513 
L 5144 513 
L 5144 3388 
L 3894 3388 
L 3875 3363 
Q 3863 3375 3844 3388 
Q 3631 3388 3413 3388 
L 3419 1338 
Q 3419 913 3444 488 
z
" transform="scale(0.015625)"/>
      <path id="WenQuanYiZenHei-6d4b" d="M 5450 138 
L 5450 4306 
Q 5450 4750 5425 5188 
Q 5663 5163 5906 5188 
Q 5881 4750 5881 4306 
L 5881 -38 
Q 5888 -569 5519 -719 
Q 5194 -831 4825 -813 
Q 4894 -519 4694 -281 
Q 4869 -306 5094 -309 
Q 5319 -313 5384 -256 
Q 5450 -200 5450 138 
z
M 4900 938 
Q 4663 963 4419 938 
Q 4444 1375 4444 1819 
L 4444 3381 
Q 4444 3819 4419 4263 
Q 4663 4238 4900 4263 
Q 4875 3819 4875 3381 
L 4875 1819 
Q 4875 1375 4900 938 
z
M 2750 2025 
L 2750 3038 
Q 2750 3481 2725 3919 
Q 2963 3894 3206 3919 
Q 3181 3481 3181 3038 
L 3181 2025 
Q 3181 1263 2919 625 
L 3231 956 
Q 3781 431 4256 -150 
L 3888 -456 
Q 3431 106 2906 600 
Q 2531 -288 1738 -769 
Q 1606 -519 1338 -450 
Q 1988 -156 2369 478 
Q 2750 1113 2750 2025 
z
M 2363 969 
Q 2119 994 1881 969 
Q 1906 1406 1906 1850 
L 1906 5038 
L 3956 5031 
L 3956 1200 
L 3525 1200 
L 3525 4713 
L 2338 4713 
L 2338 1850 
Q 2338 1406 2363 969 
z
M 663 -738 
Q 481 -588 206 -575 
Q 400 -69 606 581 
Q 813 1231 1200 2838 
L 1381 2706 
L 875 338 
L 663 -738 
z
M 1006 2856 
L 731 2550 
L 75 3400 
L 350 3713 
L 1006 2856 
z
M 1088 3913 
Q 781 4388 425 4800 
L 694 5125 
Q 1069 4688 1388 4188 
L 1088 3913 
z
" transform="scale(0.015625)"/>
      <path id="WenQuanYiZenHei-20" transform="scale(0.015625)"/>
      <path id="WenQuanYiZenHei-798f" d="M 3169 -775 
Q 2938 -750 2713 -775 
Q 2731 -356 2731 69 
L 2731 2131 
L 5956 2131 
L 5956 -763 
L 5538 -763 
L 5538 -263 
L 3150 -263 
Q 3156 -519 3169 -775 
z
M 3088 2650 
Q 3163 3319 3088 3988 
L 5575 3988 
Q 5500 3319 5575 2650 
L 3088 2650 
z
M 6069 4838 
Q 6056 4681 6069 4531 
Q 5788 4544 5500 4544 
L 3213 4544 
Q 2925 4544 2644 4531 
Q 2656 4681 2644 4838 
Q 2925 4825 3213 4825 
L 5500 4825 
Q 5788 4825 6069 4838 
z
M 4525 -6 
L 5538 -6 
L 5538 794 
L 4525 794 
L 4525 -6 
z
M 4113 -6 
L 4113 794 
L 3144 794 
L 3144 -6 
L 4113 -6 
z
M 4525 1050 
L 5538 1050 
L 5538 1850 
L 4525 1850 
L 4525 1050 
z
M 4113 1050 
L 4113 1850 
L 3144 1850 
L 3144 1050 
L 4113 1050 
z
M 3506 3706 
L 3506 2931 
L 5163 2931 
L 5163 3706 
L 3506 3706 
z
M 1650 2069 
L 1650 38 
Q 1650 -406 1669 -844 
Q 1438 -819 1200 -844 
Q 1219 -406 1219 38 
L 1219 1763 
Q 875 1369 456 1044 
Q 256 1200 0 1288 
Q 1213 2100 1838 3500 
L 925 3500 
Q 606 3500 288 3481 
Q 306 3656 288 3831 
Q 606 3819 925 3819 
L 2400 3819 
Q 2175 3125 1788 2513 
L 1856 2569 
L 2544 1700 
L 2181 1400 
L 1650 2069 
z
M 1488 4025 
Q 1181 4550 806 5019 
L 1169 5319 
Q 1563 4825 1894 4269 
L 1488 4025 
z
" transform="scale(0.015625)"/>
      <path id="WenQuanYiZenHei-5efa" d="M 919 4275 
Q 581 4275 250 4263 
Q 269 4444 250 4625 
Q 581 4606 919 4606 
L 2056 4606 
L 1050 2825 
L 1888 2825 
Q 1950 1669 1450 744 
Q 2331 -181 4219 -138 
L 5988 -188 
Q 5813 -388 5813 -650 
Q 5169 -613 4353 -603 
Q 3538 -594 3194 -544 
Q 1969 -381 1219 350 
Q 844 -219 325 -625 
Q 125 -463 -119 -381 
Q 531 44 919 694 
Q 500 1244 344 1931 
L 769 2025 
Q 888 1531 1144 1131 
Q 1425 1781 1413 2500 
L 363 2500 
L 1363 4275 
L 919 4275 
z
M 4013 0 
Q 3775 25 3531 0 
Q 3550 344 3550 688 
L 2638 688 
Q 2306 688 1969 669 
Q 1988 850 1969 1031 
Q 2306 1019 2638 1019 
L 3556 1019 
L 3556 1569 
L 2956 1569 
Q 2619 1569 2281 1550 
Q 2300 1738 2281 1919 
Q 2619 1900 2956 1900 
L 3556 1900 
L 3556 2419 
L 3000 2419 
Q 2663 2419 2325 2406 
Q 2350 2588 2325 2769 
Q 2663 2750 3000 2750 
L 3556 2750 
L 3556 3350 
L 2613 3350 
Q 2275 3350 1938 3331 
Q 1956 3513 1938 3694 
Q 2275 3681 2613 3681 
L 3556 3681 
L 3556 4200 
L 3088 4200 
Q 2756 4200 2419 4188 
Q 2438 4369 2419 4550 
Q 2756 4531 3088 4531 
L 3550 4531 
Q 3550 4894 3531 5263 
Q 3775 5238 4013 5263 
Q 4000 4894 3994 4531 
L 5325 4531 
L 5325 3681 
Q 5656 3681 5981 3694 
Q 5963 3513 5981 3331 
Q 5656 3350 5325 3350 
L 5325 2419 
L 3994 2419 
L 3994 1900 
L 4650 1900 
Q 4988 1900 5325 1919 
Q 5306 1738 5325 1550 
Q 4988 1569 4650 1569 
L 3994 1569 
L 3994 1019 
L 5013 1019 
Q 5350 1019 5681 1031 
Q 5663 850 5681 669 
Q 5350 688 5013 688 
L 3994 688 
Q 4000 344 4013 0 
z
M 3994 2750 
L 4888 2750 
L 4888 3350 
L 3994 3350 
L 3994 2750 
z
M 3994 3681 
L 4888 3681 
L 4888 4200 
L 3994 4200 
L 3994 3681 
z
" transform="scale(0.015625)"/>
     </defs>
     <use xlink:href="#WenQuanYiZenHei-6bcf"/>
     <use xlink:href="#WenQuanYiZenHei-65e5" x="100"/>
     <use xlink:href="#WenQuanYiZenHei-65b0" x="200"/>
     <use xlink:href="#WenQuanYiZenHei-589e" x="300"/>
     <use xlink:href="#WenQuanYiZenHei-9884" x="400"/>
     <use xlink:href="#WenQuanYiZenHei-6d4b" x="500"/>
     <use xlink:href="#WenQuanYiZenHei-20" x="600"/>
     <use xlink:href="#WenQuanYiZenHei-2d" x="629.980469"/>
     <use xlink:href="#WenQuanYiZenHei-20" x="659.960938"/>
     <use xlink:href="#WenQuanYiZenHei-798f" x="689.941406"/>
     <use xlink:href="#WenQuanYiZenHei-5efa" x="789.941406"/>
    </g>
    <!-- ARIMA (4, 1, 0)x(0, 0, 1, 7) (R2 = 0.583102) -->
    <g transform="translate(583.182813 29.061)scale(0.12 -0.12)">
     <defs>
      <path id="WenQuanYiZenHei-41" d="M 3550 0 
L 2988 0 
L 2550 1281 
L 919 1281 
L 531 0 
L 69 0 
L 1494 4388 
L 2125 4388 
L 3550 0 
z
M 2425 1694 
L 1756 3800 
L 1075 1694 
L 2425 1694 
z
" transform="scale(0.015625)"/>
      <path id="WenQuanYiZenHei-52" d="M 3675 0 
L 3100 0 
L 2288 1900 
L 1069 1900 
L 1069 0 
L 519 0 
L 519 4388 
L 2163 4388 
Q 3006 4388 3400 3900 
Q 3581 3663 3625 3325 
Q 3631 3250 3631 3163 
Q 3631 2594 3219 2244 
Q 3038 2100 2813 2038 
L 3675 0 
z
M 3081 3169 
Q 3081 3825 2356 3906 
Q 2263 3919 2163 3919 
L 1069 3919 
L 1069 2350 
L 2100 2350 
Q 2906 2350 3044 2919 
Q 3081 3031 3081 3169 
z
" transform="scale(0.015625)"/>
      <path id="WenQuanYiZenHei-49" d="M 1100 0 
L 550 0 
L 550 4388 
L 1100 4388 
L 1100 0 
z
" transform="scale(0.015625)"/>
      <path id="WenQuanYiZenHei-4d" d="M 4756 0 
L 4206 0 
L 4206 3831 
L 4181 3831 
L 2788 0 
L 2419 0 
L 1000 3831 
L 975 3831 
L 975 0 
L 513 0 
L 513 4388 
L 1331 4388 
L 2656 875 
L 3950 4388 
L 4756 4388 
L 4756 0 
z
" transform="scale(0.015625)"/>
      <path id="WenQuanYiZenHei-28" d="M 1606 -1094 
L 1275 -1094 
Q 475 -100 338 1231 
Q 319 1438 319 1656 
Q 319 3031 1156 4244 
Q 1213 4313 1269 4388 
L 1600 4388 
Q 806 3169 794 1681 
Q 794 188 1606 -1094 
z
" transform="scale(0.015625)"/>
      <path id="WenQuanYiZenHei-2c" d="M 1363 75 
L 881 -825 
L 606 -825 
L 994 0 
L 656 0 
L 656 738 
L 1363 738 
L 1363 75 
z
" transform="scale(0.015625)"/>
      <path id="WenQuanYiZenHei-29" d="M 1600 1656 
Q 1600 306 869 -788 
Q 769 -950 644 -1094 
L 313 -1094 
Q 1125 188 1125 1681 
Q 1125 3169 338 4363 
Q 325 4375 319 4388 
L 650 4388 
Q 1525 3231 1594 1863 
Q 1600 1763 1600 1656 
z
" transform="scale(0.015625)"/>
      <path id="WenQuanYiZenHei-78" d="M 2806 0 
L 2213 0 
L 1394 1319 
L 544 0 
L 50 0 
L 1144 1681 
L 163 3250 
L 744 3250 
L 1431 2138 
L 2144 3250 
L 2631 3250 
L 1681 1794 
L 2806 0 
z
" transform="scale(0.015625)"/>
      <path id="WenQuanYiZenHei-3d" d="M 3569 2256 
L 263 2256 
L 263 2675 
L 3569 2675 
L 3569 2256 
z
M 3569 1019 
L 263 1019 
L 263 1431 
L 3569 1431 
L 3569 1019 
z
" transform="scale(0.015625)"/>
      <path id="WenQuanYiZenHei-2e" d="M 1344 0 
L 631 0 
L 631 725 
L 1344 725 
L 1344 0 
z
" transform="scale(0.015625)"/>
      <path id="WenQuanYiZenHei-38" d="M 3619 1175 
Q 3619 431 2850 100 
Q 2444 -63 1944 -63 
Q 1231 -63 725 269 
Q 225 594 225 1125 
Q 225 1881 1269 2281 
Q 719 2481 519 2938 
Q 444 3119 444 3319 
Q 444 4000 1144 4294 
Q 1519 4456 1963 4456 
Q 2669 4456 3094 4094 
Q 3425 3813 3425 3369 
Q 3425 2638 2575 2356 
Q 3231 2056 3450 1725 
Q 3619 1488 3619 1175 
z
M 2944 3344 
Q 2944 3906 2288 4019 
Q 2138 4044 1969 4044 
Q 1438 4044 1163 3775 
Q 1000 3613 1000 3375 
Q 1000 2925 1594 2663 
Q 1756 2588 1931 2550 
Q 2581 2725 2788 2956 
Q 2944 3125 2944 3344 
z
M 3075 1094 
Q 3075 1738 1875 2050 
Q 1094 1881 850 1463 
Q 763 1313 763 1131 
Q 763 569 1456 406 
Q 1681 344 1944 344 
Q 2519 344 2850 619 
Q 3075 813 3075 1094 
z
" transform="scale(0.015625)"/>
     </defs>
     <use xlink:href="#WenQuanYiZenHei-41"/>
     <use xlink:href="#WenQuanYiZenHei-52" x="55.957031"/>
     <use xlink:href="#WenQuanYiZenHei-49" x="117.871094"/>
     <use xlink:href="#WenQuanYiZenHei-4d" x="143.847656"/>
     <use xlink:href="#WenQuanYiZenHei-41" x="225.78125"/>
     <use xlink:href="#WenQuanYiZenHei-20" x="281.738281"/>
     <use xlink:href="#WenQuanYiZenHei-28" x="311.71875"/>
     <use xlink:href="#WenQuanYiZenHei-34" x="341.699219"/>
     <use xlink:href="#WenQuanYiZenHei-2c" x="401.660156"/>
     <use xlink:href="#WenQuanYiZenHei-20" x="431.640625"/>
     <use xlink:href="#WenQuanYiZenHei-31" x="461.621094"/>
     <use xlink:href="#WenQuanYiZenHei-2c" x="521.582031"/>
     <use xlink:href="#WenQuanYiZenHei-20" x="551.5625"/>
     <use xlink:href="#WenQuanYiZenHei-30" x="581.542969"/>
     <use xlink:href="#WenQuanYiZenHei-29" x="641.503906"/>
     <use xlink:href="#WenQuanYiZenHei-78" x="671.484375"/>
     <use xlink:href="#WenQuanYiZenHei-28" x="715.429688"/>
     <use xlink:href="#WenQuanYiZenHei-30" x="745.410156"/>
     <use xlink:href="#WenQuanYiZenHei-2c" x="805.371094"/>
     <use xlink:href="#WenQuanYiZenHei-20" x="835.351562"/>
     <use xlink:href="#WenQuanYiZenHei-30" x="865.332031"/>
     <use xlink:href="#WenQuanYiZenHei-2c" x="925.292969"/>
     <use xlink:href="#WenQuanYiZenHei-20" x="955.273438"/>
     <use xlink:href="#WenQuanYiZenHei-31" x="985.253906"/>
     <use xlink:href="#WenQuanYiZenHei-2c" x="1045.214844"/>
     <use xlink:href="#WenQuanYiZenHei-20" x="1075.195312"/>
     <use xlink:href="#WenQuanYiZenHei-37" x="1105.175781"/>
     <use xlink:href="#WenQuanYiZenHei-29" x="1165.136719"/>
     <use xlink:href="#WenQuanYiZenHei-20" x="1195.117188"/>
     <use xlink:href="#WenQuanYiZenHei-28" x="1225.097656"/>
     <use xlink:href="#WenQuanYiZenHei-52" x="1255.078125"/>
     <use xlink:href="#WenQuanYiZenHei-32" x="1316.992188"/>
     <use xlink:href="#WenQuanYiZenHei-20" x="1376.953125"/>
     <use xlink:href="#WenQuanYiZenHei-3d" x="1406.933594"/>
     <use xlink:href="#WenQuanYiZenHei-20" x="1466.894531"/>
     <use xlink:href="#WenQuanYiZenHei-30" x="1496.875"/>
     <use xlink:href="#WenQuanYiZenHei-2e" x="1556.835938"/>
     <use xlink:href="#WenQuanYiZenHei-35" x="1586.816406"/>
     <use xlink:href="#WenQuanYiZenHei-38" x="1646.777344"/>
     <use xlink:href="#WenQuanYiZenHei-33" x="1706.738281"/>
     <use xlink:href="#WenQuanYiZenHei-31" x="1766.699219"/>
     <use xlink:href="#WenQuanYiZenHei-30" x="1826.660156"/>
     <use xlink:href="#WenQuanYiZenHei-32" x="1886.621094"/>
     <use xlink:href="#WenQuanYiZenHei-29" x="1946.582031"/>
    </g>
   </g>
   <g id="legend_1">
    <g id="patch_7">
     <path d="M 1302.390625 87.056312 
L 1364.390625 87.056312 
Q 1366.390625 87.056312 1366.390625 85.056312 
L 1366.390625 42.061 
Q 1366.390625 40.061 1364.390625 40.061 
L 1302.390625 40.061 
Q 1300.390625 40.061 1300.390625 42.061 
L 1300.390625 85.056312 
Q 1300.390625 87.056312 1302.390625 87.056312 
z
" style="fill: #ffffff; opacity: 0.8; stroke: #cccccc; stroke-linejoin: miter"/>
    </g>
    <g id="line2d_23">
     <path d="M 1304.390625 48.695375 
L 1314.390625 48.695375 
L 1324.390625 48.695375 
" style="fill: none; stroke: #0000ff; stroke-width: 1.5; stroke-linecap: square"/>
    </g>
    <g id="text_21">
     <!-- 实际值 -->
     <g transform="translate(1332.390625 52.195375)scale(0.1 -0.1)">
      <defs>
       <path id="WenQuanYiZenHei-5b9e" d="M 1025 1175 
Q 694 1175 356 1163 
Q 375 1344 356 1525 
Q 694 1506 1025 1506 
L 3363 1506 
L 3363 2625 
Q 3363 3075 3338 3519 
Q 3581 3494 3825 3519 
Q 3800 3075 3800 2625 
L 3800 1506 
L 5406 1506 
Q 5744 1506 6075 1525 
Q 6056 1344 6075 1163 
Q 5744 1175 5406 1175 
L 4038 1175 
L 4981 456 
L 6131 -488 
L 5819 -856 
L 4681 75 
L 3638 875 
Q 3313 231 2475 -231 
Q 1638 -694 700 -825 
Q 638 -519 344 -400 
Q 1450 -319 2406 244 
Q 3113 656 3300 1175 
L 1025 1175 
z
M 2263 1581 
Q 1763 2081 1200 2513 
L 1494 2894 
Q 2081 2444 2600 1919 
L 2263 1581 
z
M 2638 2500 
Q 2219 2963 1731 3363 
L 2044 3738 
Q 2556 3313 3000 2819 
L 2638 2500 
z
M 919 3156 
L 481 3156 
L 481 4344 
L 3069 4344 
Q 2794 4731 2469 5081 
L 2825 5413 
Q 3256 4944 3613 4413 
L 3513 4344 
L 5869 4344 
L 5869 3156 
L 5425 3156 
L 5425 4013 
L 919 4013 
L 919 3156 
z
" transform="scale(0.015625)"/>
       <path id="WenQuanYiZenHei-9645" d="M 6000 431 
L 5569 194 
L 4963 1219 
L 4313 2219 
L 4719 2494 
L 5375 1481 
L 6000 431 
z
M 2956 2450 
Q 3181 2344 3419 2294 
Q 3006 1038 1944 -188 
Q 1794 -6 1569 56 
Q 2069 600 2372 1156 
Q 2675 1713 2956 2450 
z
M 3750 25 
L 3750 2913 
L 2819 2913 
Q 2475 2913 2125 2894 
Q 2144 3081 2125 3269 
Q 2475 3256 2819 3256 
L 5469 3256 
Q 5819 3256 6163 3269 
Q 6144 3081 6163 2894 
Q 5813 2913 5469 2913 
L 4194 2913 
L 4194 -144 
Q 4194 -725 3456 -813 
L 3263 -825 
Q 3325 -506 3125 -250 
Q 3250 -281 3394 -306 
Q 3663 -313 3706 -272 
Q 3750 -231 3750 25 
z
M 5544 4950 
Q 5525 4756 5544 4569 
Q 5194 4588 4844 4588 
L 3325 4588 
Q 2975 4588 2625 4569 
Q 2644 4756 2625 4950 
Q 2975 4931 3325 4931 
L 4844 4931 
Q 5194 4931 5544 4950 
z
M 819 -850 
Q 581 -825 344 -850 
Q 369 -419 369 19 
L 363 4938 
L 2256 4938 
L 2256 4625 
Q 2150 4513 2075 4375 
L 1481 3238 
Q 2181 2319 2181 1156 
Q 2144 400 1569 163 
L 1406 88 
Q 1288 300 1138 481 
Q 1294 538 1450 606 
Q 1763 744 1794 1156 
Q 1794 1744 1600 2300 
Q 1406 2856 1038 3313 
L 1725 4625 
L 788 4625 
L 794 19 
Q 794 -419 819 -850 
z
" transform="scale(0.015625)"/>
       <path id="WenQuanYiZenHei-503c" d="M 6175 -219 
Q 6156 -388 6175 -556 
Q 5863 -544 5550 -544 
L 2313 -544 
Q 2000 -544 1688 -556 
Q 1706 -388 1688 -219 
L 2506 -231 
L 2506 3469 
L 3644 3469 
L 3644 4119 
L 2638 4119 
Q 2325 4119 2013 4100 
Q 2031 4269 2013 4438 
Q 2325 4425 2638 4425 
L 3638 4425 
Q 3638 4719 3619 5013 
Q 3856 4988 4094 5013 
Q 4075 4719 4075 4425 
L 5344 4425 
Q 5650 4425 5963 4438 
Q 5950 4269 5963 4100 
Q 5656 4119 5344 4119 
L 4069 4119 
L 4069 3469 
L 5300 3469 
L 5300 -231 
L 5550 -231 
Q 5863 -231 6175 -219 
z
M 4869 2556 
L 4869 3156 
L 2931 3156 
Q 2931 2850 2931 2556 
L 4869 2556 
z
M 4869 1669 
L 4869 2250 
L 2931 2250 
L 2931 1669 
L 4869 1669 
z
M 4869 731 
L 4869 1363 
L 2931 1363 
L 2931 731 
L 4869 731 
z
M 4869 -231 
L 4869 425 
L 2931 425 
L 2931 -231 
L 4869 -231 
z
M 2106 4925 
Q 1856 4075 1463 3338 
L 1463 31 
Q 1463 -413 1481 -850 
Q 1256 -825 1031 -850 
Q 1050 -413 1050 31 
L 1050 2681 
Q 750 2269 375 1931 
Q 238 2156 0 2256 
Q 331 2544 619 2875 
Q 1094 3425 1300 3950 
Q 1494 4469 1625 5050 
Q 1850 4963 2106 4925 
z
" transform="scale(0.015625)"/>
      </defs>
      <use xlink:href="#WenQuanYiZenHei-5b9e"/>
      <use xlink:href="#WenQuanYiZenHei-9645" x="100"/>
      <use xlink:href="#WenQuanYiZenHei-503c" x="200"/>
     </g>
    </g>
    <g id="line2d_24">
     <path d="M 1304.390625 63.3735 
L 1314.390625 63.3735 
L 1324.390625 63.3735 
" style="fill: none; stroke: #ffa500; stroke-width: 1.5; stroke-linecap: square"/>
    </g>
    <g id="text_22">
     <!-- 校验值 -->
     <g transform="translate(1332.390625 66.8735)scale(0.1 -0.1)">
      <defs>
       <path id="WenQuanYiZenHei-6821" d="M 5256 2463 
Q 5025 1475 4494 706 
Q 5125 -94 6175 -544 
Q 5950 -663 5850 -900 
Q 4906 -494 4250 381 
Q 3931 0 3475 -350 
Q 3019 -700 2388 -919 
Q 2338 -656 2138 -475 
Q 3306 -69 4006 738 
Q 3563 1444 3300 2331 
Q 3050 2050 2706 1800 
Q 2606 2000 2406 2106 
Q 2900 2444 3181 2938 
Q 3350 3225 3488 3538 
Q 3700 3431 3925 3369 
Q 3763 2894 3425 2475 
L 3650 2531 
Q 3888 1675 4244 1075 
Q 4469 1444 4603 1937 
Q 4738 2431 4775 2688 
Q 4963 2644 5150 2625 
Q 4919 2969 4663 3294 
L 5038 3588 
Q 5544 2925 5975 2213 
L 5569 1969 
L 5256 2463 
z
M 6006 4050 
Q 5988 3881 6006 3713 
Q 5694 3725 5381 3725 
L 3413 3725 
Q 3100 3725 2788 3713 
Q 2806 3881 2788 4050 
Q 3100 4031 3413 4031 
L 4325 4031 
Q 4019 4525 3644 4969 
L 4000 5275 
Q 4413 4788 4750 4244 
L 4406 4031 
L 5381 4031 
Q 5694 4031 6006 4050 
z
M 406 263 
Q 238 431 -25 469 
Q 194 825 466 1337 
Q 738 1850 925 2406 
Q 1113 2963 1256 3519 
L 825 3519 
Q 506 3519 188 3500 
Q 206 3700 188 3900 
Q 506 3881 825 3881 
L 1363 3881 
L 1363 4263 
Q 1363 4719 1338 5175 
Q 1556 5150 1775 5175 
Q 1756 4719 1756 4263 
L 1756 3881 
L 2525 3900 
Q 2506 3700 2525 3500 
L 1756 3519 
L 1756 2738 
L 1931 2881 
Q 2306 2300 2613 1650 
L 2231 1413 
Q 2081 1725 1919 2019 
L 1756 2300 
L 1756 69 
Q 1756 -388 1775 -850 
Q 1556 -825 1338 -850 
Q 1363 -388 1363 69 
L 1363 2438 
Q 925 1144 406 263 
z
" transform="scale(0.015625)"/>
       <path id="WenQuanYiZenHei-9a8c" d="M 5981 -106 
Q 5963 -275 5981 -444 
Q 5669 -431 5356 -431 
L 2969 -431 
Q 2656 -431 2350 -444 
Q 2363 -275 2350 -106 
Q 2656 -125 2969 -125 
L 4369 -125 
Q 4600 431 4881 1288 
L 5206 2300 
Q 5425 2206 5663 2163 
Q 5375 1188 4831 -125 
L 5356 -125 
Q 5669 -125 5981 -106 
z
M 4063 594 
Q 3788 1425 3425 2219 
L 3856 2419 
Q 4225 1600 4513 744 
L 4063 594 
z
M 3163 363 
Q 2931 1200 2613 2006 
L 3056 2175 
Q 3381 1350 3619 488 
L 3163 363 
z
M 4581 2550 
L 3513 2550 
Q 3200 2550 2888 2538 
Q 2900 2663 2894 2769 
Q 2569 2488 2206 2300 
Q 2113 2550 1894 2700 
Q 2488 2975 2975 3463 
Q 3269 3756 3394 4006 
Q 3644 4513 3794 5063 
Q 4038 4975 4294 4931 
Q 4250 4806 4206 4681 
Q 4475 3888 5025 3388 
Q 5519 2938 6169 2650 
Q 5938 2538 5838 2300 
Q 5513 2456 5200 2700 
Q 5200 2619 5206 2538 
Q 4894 2550 4581 2550 
z
M 3513 2863 
L 4994 2869 
Q 4344 3438 3988 4194 
Q 3594 3406 3013 2869 
Q 3263 2863 3513 2863 
z
M 206 444 
Q 188 756 44 963 
Q 319 956 650 1003 
Q 981 1050 1731 1281 
L 1738 1006 
Q 800 719 206 444 
z
M 525 4000 
Q 744 3950 994 3944 
Q 925 3519 875 3081 
L 763 2144 
L 1475 2144 
L 1831 4444 
L 663 4444 
Q 350 4444 38 4431 
Q 56 4600 38 4769 
Q 350 4756 663 4756 
L 2313 4756 
L 1913 2144 
L 2375 2144 
L 2200 -200 
Q 2188 -425 1988 -588 
Q 1694 -800 1181 -788 
L 944 -788 
Q 1000 -450 788 -269 
Q 1013 -294 1334 -287 
Q 1656 -281 1715 -243 
Q 1775 -206 1781 -50 
L 1925 1831 
L 294 1831 
L 444 3131 
Q 500 3569 525 4000 
z
" transform="scale(0.015625)"/>
      </defs>
      <use xlink:href="#WenQuanYiZenHei-6821"/>
      <use xlink:href="#WenQuanYiZenHei-9a8c" x="100"/>
      <use xlink:href="#WenQuanYiZenHei-503c" x="200"/>
     </g>
    </g>
    <g id="line2d_25">
     <path d="M 1304.390625 77.895375 
L 1314.390625 77.895375 
L 1324.390625 77.895375 
" style="fill: none; stroke: #ff0000; stroke-width: 1.5; stroke-linecap: square"/>
    </g>
    <g id="text_23">
     <!-- 预测值 -->
     <g transform="translate(1332.390625 81.395375)scale(0.1 -0.1)">
      <use xlink:href="#WenQuanYiZenHei-9884"/>
      <use xlink:href="#WenQuanYiZenHei-6d4b" x="100"/>
      <use xlink:href="#WenQuanYiZenHei-503c" x="200"/>
     </g>
    </g>
   </g>
  </g>
 </g>
 <defs>
  <clipPath id="pa33b7e9818">
   <rect x="32.190625" y="35.061" width="1339.2" height="332.64"/>
  </clipPath>
 </defs>
</svg>
