<?xml version="1.0" encoding="utf-8" standalone="no"?>
<!DOCTYPE svg PUBLIC "-//W3C//DTD SVG 1.1//EN"
  "http://www.w3.org/Graphics/SVG/1.1/DTD/svg11.dtd">
<svg xmlns:xlink="http://www.w3.org/1999/xlink" width="1384.5875pt" height="390.442563pt" viewBox="0 0 1384.5875 390.442563" xmlns="http://www.w3.org/2000/svg" version="1.1">
 <metadata>
  <rdf:RDF xmlns:dc="http://purl.org/dc/elements/1.1/" xmlns:cc="http://creativecommons.org/ns#" xmlns:rdf="http://www.w3.org/1999/02/22-rdf-syntax-ns#">
   <cc:Work>
    <dc:type rdf:resource="http://purl.org/dc/dcmitype/StillImage"/>
    <dc:date>2022-07-11T18:14:29.746682</dc:date>
    <dc:format>image/svg+xml</dc:format>
    <dc:creator>
     <cc:Agent>
      <dc:title>Matplotlib v3.5.2, https://matplotlib.org/</dc:title>
     </cc:Agent>
    </dc:creator>
   </cc:Work>
  </rdf:RDF>
 </metadata>
 <defs>
  <style type="text/css">*{stroke-linejoin: round; stroke-linecap: butt}</style>
 </defs>
 <g id="figure_1">
  <g id="patch_1">
   <path d="M 0 390.442563 
L 1384.5875 390.442563 
L 1384.5875 0 
L 0 0 
z
" style="fill: #ffffff"/>
  </g>
  <g id="axes_1">
   <g id="patch_2">
    <path d="M 38.1875 367.725375 
L 1377.3875 367.725375 
L 1377.3875 35.085375 
L 38.1875 35.085375 
z
" style="fill: #ffffff"/>
   </g>
   <g id="matplotlib.axis_1">
    <g id="xtick_1">
     <g id="line2d_1">
      <defs>
       <path id="m66a7f69075" d="M 0 0 
L 0 3.5 
" style="stroke: #000000; stroke-width: 0.8"/>
      </defs>
      <g>
       <use xlink:href="#m66a7f69075" x="71.057439" y="367.725375" style="stroke: #000000; stroke-width: 0.8"/>
      </g>
     </g>
     <g id="text_1">
      <!-- 2020-01 -->
      <g transform="translate(51.567596 381.581625)scale(0.1 -0.1)">
       <defs>
        <path id="WenQuanYiZenHei-32" d="M 3488 0 
L 369 0 
L 369 456 
L 2150 1850 
Q 2931 2463 2931 3144 
Q 2931 3619 2488 3863 
Q 2231 4013 1931 4013 
Q 1425 4013 1113 3619 
Q 894 3356 881 3013 
L 369 3169 
Q 531 3981 1213 4300 
Q 1544 4456 1950 4456 
Q 2631 4456 3088 4044 
L 3225 3888 
L 3350 3706 
Q 3481 3444 3481 3144 
Q 3481 2313 2519 1569 
L 1069 456 
L 3488 456 
L 3488 0 
z
" transform="scale(0.015625)"/>
        <path id="WenQuanYiZenHei-30" d="M 3581 2175 
Q 3581 1288 3169 638 
Q 2713 -63 1938 -63 
Q 1025 -63 563 831 
Q 256 1425 256 2188 
Q 256 3188 700 3819 
Q 1138 4456 1888 4456 
Q 2863 4456 3306 3500 
Q 3581 2925 3581 2175 
z
M 3019 2100 
Q 3019 3356 2500 3806 
L 2350 3919 
Q 2144 4031 1888 4031 
Q 1100 4031 888 2956 
Q 819 2625 819 2225 
Q 819 1013 1338 569 
Q 1588 356 1938 356 
Q 2675 356 2925 1294 
Q 3019 1663 3019 2100 
z
" transform="scale(0.015625)"/>
        <path id="WenQuanYiZenHei-2d" d="M 1363 1444 
L 0 1444 
L 0 1844 
L 1363 1844 
L 1363 1444 
z
" transform="scale(0.015625)"/>
        <path id="WenQuanYiZenHei-31" d="M 3556 0 
L 488 0 
L 488 406 
L 1800 406 
L 1800 3725 
Q 1231 3125 588 2788 
L 588 3338 
Q 1456 3781 1931 4388 
L 2331 4388 
L 2331 406 
L 3556 406 
L 3556 0 
z
" transform="scale(0.015625)"/>
       </defs>
       <use xlink:href="#WenQuanYiZenHei-32"/>
       <use xlink:href="#WenQuanYiZenHei-30" x="59.960938"/>
       <use xlink:href="#WenQuanYiZenHei-32" x="119.921875"/>
       <use xlink:href="#WenQuanYiZenHei-30" x="179.882812"/>
       <use xlink:href="#WenQuanYiZenHei-2d" x="239.84375"/>
       <use xlink:href="#WenQuanYiZenHei-30" x="269.824219"/>
       <use xlink:href="#WenQuanYiZenHei-31" x="329.785156"/>
      </g>
     </g>
    </g>
    <g id="xtick_2">
     <g id="line2d_2">
      <g>
       <use xlink:href="#m66a7f69075" x="192.402854" y="367.725375" style="stroke: #000000; stroke-width: 0.8"/>
      </g>
     </g>
     <g id="text_2">
      <!-- 2020-04 -->
      <g transform="translate(172.91301 381.581625)scale(0.1 -0.1)">
       <defs>
        <path id="WenQuanYiZenHei-34" d="M 3631 1025 
L 2913 1025 
L 2913 0 
L 2381 0 
L 2381 1025 
L 219 1025 
L 219 1388 
L 2225 4388 
L 2913 4388 
L 2913 1444 
L 3631 1444 
L 3631 1025 
z
M 2381 1444 
L 2381 3963 
L 788 1444 
L 2381 1444 
z
" transform="scale(0.015625)"/>
       </defs>
       <use xlink:href="#WenQuanYiZenHei-32"/>
       <use xlink:href="#WenQuanYiZenHei-30" x="59.960938"/>
       <use xlink:href="#WenQuanYiZenHei-32" x="119.921875"/>
       <use xlink:href="#WenQuanYiZenHei-30" x="179.882812"/>
       <use xlink:href="#WenQuanYiZenHei-2d" x="239.84375"/>
       <use xlink:href="#WenQuanYiZenHei-30" x="269.824219"/>
       <use xlink:href="#WenQuanYiZenHei-34" x="329.785156"/>
      </g>
     </g>
    </g>
    <g id="xtick_3">
     <g id="line2d_3">
      <g>
       <use xlink:href="#m66a7f69075" x="313.748269" y="367.725375" style="stroke: #000000; stroke-width: 0.8"/>
      </g>
     </g>
     <g id="text_3">
      <!-- 2020-07 -->
      <g transform="translate(294.258425 381.581625)scale(0.1 -0.1)">
       <defs>
        <path id="WenQuanYiZenHei-37" d="M 3400 4056 
Q 1838 2175 1838 0 
L 1275 0 
Q 1269 1438 2056 2825 
Q 2381 3400 2825 3913 
L 444 3913 
L 500 4388 
L 3400 4388 
L 3400 4056 
z
" transform="scale(0.015625)"/>
       </defs>
       <use xlink:href="#WenQuanYiZenHei-32"/>
       <use xlink:href="#WenQuanYiZenHei-30" x="59.960938"/>
       <use xlink:href="#WenQuanYiZenHei-32" x="119.921875"/>
       <use xlink:href="#WenQuanYiZenHei-30" x="179.882812"/>
       <use xlink:href="#WenQuanYiZenHei-2d" x="239.84375"/>
       <use xlink:href="#WenQuanYiZenHei-30" x="269.824219"/>
       <use xlink:href="#WenQuanYiZenHei-37" x="329.785156"/>
      </g>
     </g>
    </g>
    <g id="xtick_4">
     <g id="line2d_4">
      <g>
       <use xlink:href="#m66a7f69075" x="436.42715" y="367.725375" style="stroke: #000000; stroke-width: 0.8"/>
      </g>
     </g>
     <g id="text_4">
      <!-- 2020-10 -->
      <g transform="translate(416.937306 381.581625)scale(0.1 -0.1)">
       <use xlink:href="#WenQuanYiZenHei-32"/>
       <use xlink:href="#WenQuanYiZenHei-30" x="59.960938"/>
       <use xlink:href="#WenQuanYiZenHei-32" x="119.921875"/>
       <use xlink:href="#WenQuanYiZenHei-30" x="179.882812"/>
       <use xlink:href="#WenQuanYiZenHei-2d" x="239.84375"/>
       <use xlink:href="#WenQuanYiZenHei-31" x="269.824219"/>
       <use xlink:href="#WenQuanYiZenHei-30" x="329.785156"/>
      </g>
     </g>
    </g>
    <g id="xtick_5">
     <g id="line2d_5">
      <g>
       <use xlink:href="#m66a7f69075" x="559.10603" y="367.725375" style="stroke: #000000; stroke-width: 0.8"/>
      </g>
     </g>
     <g id="text_5">
      <!-- 2021-01 -->
      <g transform="translate(539.616187 381.581625)scale(0.1 -0.1)">
       <use xlink:href="#WenQuanYiZenHei-32"/>
       <use xlink:href="#WenQuanYiZenHei-30" x="59.960938"/>
       <use xlink:href="#WenQuanYiZenHei-32" x="119.921875"/>
       <use xlink:href="#WenQuanYiZenHei-31" x="179.882812"/>
       <use xlink:href="#WenQuanYiZenHei-2d" x="239.84375"/>
       <use xlink:href="#WenQuanYiZenHei-30" x="269.824219"/>
       <use xlink:href="#WenQuanYiZenHei-31" x="329.785156"/>
      </g>
     </g>
    </g>
    <g id="xtick_6">
     <g id="line2d_6">
      <g>
       <use xlink:href="#m66a7f69075" x="679.117979" y="367.725375" style="stroke: #000000; stroke-width: 0.8"/>
      </g>
     </g>
     <g id="text_6">
      <!-- 2021-04 -->
      <g transform="translate(659.628135 381.581625)scale(0.1 -0.1)">
       <use xlink:href="#WenQuanYiZenHei-32"/>
       <use xlink:href="#WenQuanYiZenHei-30" x="59.960938"/>
       <use xlink:href="#WenQuanYiZenHei-32" x="119.921875"/>
       <use xlink:href="#WenQuanYiZenHei-31" x="179.882812"/>
       <use xlink:href="#WenQuanYiZenHei-2d" x="239.84375"/>
       <use xlink:href="#WenQuanYiZenHei-30" x="269.824219"/>
       <use xlink:href="#WenQuanYiZenHei-34" x="329.785156"/>
      </g>
     </g>
    </g>
    <g id="xtick_7">
     <g id="line2d_7">
      <g>
       <use xlink:href="#m66a7f69075" x="800.463394" y="367.725375" style="stroke: #000000; stroke-width: 0.8"/>
      </g>
     </g>
     <g id="text_7">
      <!-- 2021-07 -->
      <g transform="translate(780.97355 381.581625)scale(0.1 -0.1)">
       <use xlink:href="#WenQuanYiZenHei-32"/>
       <use xlink:href="#WenQuanYiZenHei-30" x="59.960938"/>
       <use xlink:href="#WenQuanYiZenHei-32" x="119.921875"/>
       <use xlink:href="#WenQuanYiZenHei-31" x="179.882812"/>
       <use xlink:href="#WenQuanYiZenHei-2d" x="239.84375"/>
       <use xlink:href="#WenQuanYiZenHei-30" x="269.824219"/>
       <use xlink:href="#WenQuanYiZenHei-37" x="329.785156"/>
      </g>
     </g>
    </g>
    <g id="xtick_8">
     <g id="line2d_8">
      <g>
       <use xlink:href="#m66a7f69075" x="923.142274" y="367.725375" style="stroke: #000000; stroke-width: 0.8"/>
      </g>
     </g>
     <g id="text_8">
      <!-- 2021-10 -->
      <g transform="translate(903.652431 381.581625)scale(0.1 -0.1)">
       <use xlink:href="#WenQuanYiZenHei-32"/>
       <use xlink:href="#WenQuanYiZenHei-30" x="59.960938"/>
       <use xlink:href="#WenQuanYiZenHei-32" x="119.921875"/>
       <use xlink:href="#WenQuanYiZenHei-31" x="179.882812"/>
       <use xlink:href="#WenQuanYiZenHei-2d" x="239.84375"/>
       <use xlink:href="#WenQuanYiZenHei-31" x="269.824219"/>
       <use xlink:href="#WenQuanYiZenHei-30" x="329.785156"/>
      </g>
     </g>
    </g>
    <g id="xtick_9">
     <g id="line2d_9">
      <g>
       <use xlink:href="#m66a7f69075" x="1045.821155" y="367.725375" style="stroke: #000000; stroke-width: 0.8"/>
      </g>
     </g>
     <g id="text_9">
      <!-- 2022-01 -->
      <g transform="translate(1026.331312 381.581625)scale(0.1 -0.1)">
       <use xlink:href="#WenQuanYiZenHei-32"/>
       <use xlink:href="#WenQuanYiZenHei-30" x="59.960938"/>
       <use xlink:href="#WenQuanYiZenHei-32" x="119.921875"/>
       <use xlink:href="#WenQuanYiZenHei-32" x="179.882812"/>
       <use xlink:href="#WenQuanYiZenHei-2d" x="239.84375"/>
       <use xlink:href="#WenQuanYiZenHei-30" x="269.824219"/>
       <use xlink:href="#WenQuanYiZenHei-31" x="329.785156"/>
      </g>
     </g>
    </g>
    <g id="xtick_10">
     <g id="line2d_10">
      <g>
       <use xlink:href="#m66a7f69075" x="1165.833104" y="367.725375" style="stroke: #000000; stroke-width: 0.8"/>
      </g>
     </g>
     <g id="text_10">
      <!-- 2022-04 -->
      <g transform="translate(1146.34326 381.581625)scale(0.1 -0.1)">
       <use xlink:href="#WenQuanYiZenHei-32"/>
       <use xlink:href="#WenQuanYiZenHei-30" x="59.960938"/>
       <use xlink:href="#WenQuanYiZenHei-32" x="119.921875"/>
       <use xlink:href="#WenQuanYiZenHei-32" x="179.882812"/>
       <use xlink:href="#WenQuanYiZenHei-2d" x="239.84375"/>
       <use xlink:href="#WenQuanYiZenHei-30" x="269.824219"/>
       <use xlink:href="#WenQuanYiZenHei-34" x="329.785156"/>
      </g>
     </g>
    </g>
    <g id="xtick_11">
     <g id="line2d_11">
      <g>
       <use xlink:href="#m66a7f69075" x="1287.178519" y="367.725375" style="stroke: #000000; stroke-width: 0.8"/>
      </g>
     </g>
     <g id="text_11">
      <!-- 2022-07 -->
      <g transform="translate(1267.688675 381.581625)scale(0.1 -0.1)">
       <use xlink:href="#WenQuanYiZenHei-32"/>
       <use xlink:href="#WenQuanYiZenHei-30" x="59.960938"/>
       <use xlink:href="#WenQuanYiZenHei-32" x="119.921875"/>
       <use xlink:href="#WenQuanYiZenHei-32" x="179.882812"/>
       <use xlink:href="#WenQuanYiZenHei-2d" x="239.84375"/>
       <use xlink:href="#WenQuanYiZenHei-30" x="269.824219"/>
       <use xlink:href="#WenQuanYiZenHei-37" x="329.785156"/>
      </g>
     </g>
    </g>
   </g>
   <g id="matplotlib.axis_2">
    <g id="ytick_1">
     <g id="line2d_12">
      <defs>
       <path id="m4535e8a3d3" d="M 0 0 
L -3.5 0 
" style="stroke: #000000; stroke-width: 0.8"/>
      </defs>
      <g>
       <use xlink:href="#m4535e8a3d3" x="38.1875" y="352.68846" style="stroke: #000000; stroke-width: 0.8"/>
      </g>
     </g>
     <g id="text_12">
      <!-- 0 -->
      <g transform="translate(25.190625 356.116585)scale(0.1 -0.1)">
       <use xlink:href="#WenQuanYiZenHei-30"/>
      </g>
     </g>
    </g>
    <g id="ytick_2">
     <g id="line2d_13">
      <g>
       <use xlink:href="#m4535e8a3d3" x="38.1875" y="311.14609" style="stroke: #000000; stroke-width: 0.8"/>
      </g>
     </g>
     <g id="text_13">
      <!-- 500 -->
      <g transform="translate(13.196875 314.574215)scale(0.1 -0.1)">
       <defs>
        <path id="WenQuanYiZenHei-35" d="M 3531 1488 
Q 3531 688 2913 250 
Q 2456 -63 1844 -63 
Q 1175 -63 706 350 
Q 413 613 306 975 
L 781 1131 
Q 1000 538 1569 406 
Q 1706 369 1856 369 
Q 2550 369 2850 869 
Q 3000 1131 3000 1494 
Q 3000 2056 2581 2356 
Q 2319 2538 1969 2538 
Q 1400 2538 1031 2075 
Q 981 2013 938 1938 
L 500 2031 
L 644 4388 
L 3244 4388 
L 3200 3919 
L 1044 3919 
L 950 2500 
Q 1431 2975 2006 2975 
Q 2713 2975 3163 2475 
Q 3531 2063 3531 1488 
z
" transform="scale(0.015625)"/>
       </defs>
       <use xlink:href="#WenQuanYiZenHei-35"/>
       <use xlink:href="#WenQuanYiZenHei-30" x="59.960938"/>
       <use xlink:href="#WenQuanYiZenHei-30" x="119.921875"/>
      </g>
     </g>
    </g>
    <g id="ytick_3">
     <g id="line2d_14">
      <g>
       <use xlink:href="#m4535e8a3d3" x="38.1875" y="269.603721" style="stroke: #000000; stroke-width: 0.8"/>
      </g>
     </g>
     <g id="text_14">
      <!-- 1000 -->
      <g transform="translate(7.2 273.031846)scale(0.1 -0.1)">
       <use xlink:href="#WenQuanYiZenHei-31"/>
       <use xlink:href="#WenQuanYiZenHei-30" x="59.960938"/>
       <use xlink:href="#WenQuanYiZenHei-30" x="119.921875"/>
       <use xlink:href="#WenQuanYiZenHei-30" x="179.882812"/>
      </g>
     </g>
    </g>
    <g id="ytick_4">
     <g id="line2d_15">
      <g>
       <use xlink:href="#m4535e8a3d3" x="38.1875" y="228.061351" style="stroke: #000000; stroke-width: 0.8"/>
      </g>
     </g>
     <g id="text_15">
      <!-- 1500 -->
      <g transform="translate(7.2 231.489476)scale(0.1 -0.1)">
       <use xlink:href="#WenQuanYiZenHei-31"/>
       <use xlink:href="#WenQuanYiZenHei-35" x="59.960938"/>
       <use xlink:href="#WenQuanYiZenHei-30" x="119.921875"/>
       <use xlink:href="#WenQuanYiZenHei-30" x="179.882812"/>
      </g>
     </g>
    </g>
    <g id="ytick_5">
     <g id="line2d_16">
      <g>
       <use xlink:href="#m4535e8a3d3" x="38.1875" y="186.518981" style="stroke: #000000; stroke-width: 0.8"/>
      </g>
     </g>
     <g id="text_16">
      <!-- 2000 -->
      <g transform="translate(7.2 189.947106)scale(0.1 -0.1)">
       <use xlink:href="#WenQuanYiZenHei-32"/>
       <use xlink:href="#WenQuanYiZenHei-30" x="59.960938"/>
       <use xlink:href="#WenQuanYiZenHei-30" x="119.921875"/>
       <use xlink:href="#WenQuanYiZenHei-30" x="179.882812"/>
      </g>
     </g>
    </g>
    <g id="ytick_6">
     <g id="line2d_17">
      <g>
       <use xlink:href="#m4535e8a3d3" x="38.1875" y="144.976612" style="stroke: #000000; stroke-width: 0.8"/>
      </g>
     </g>
     <g id="text_17">
      <!-- 2500 -->
      <g transform="translate(7.2 148.404737)scale(0.1 -0.1)">
       <use xlink:href="#WenQuanYiZenHei-32"/>
       <use xlink:href="#WenQuanYiZenHei-35" x="59.960938"/>
       <use xlink:href="#WenQuanYiZenHei-30" x="119.921875"/>
       <use xlink:href="#WenQuanYiZenHei-30" x="179.882812"/>
      </g>
     </g>
    </g>
    <g id="ytick_7">
     <g id="line2d_18">
      <g>
       <use xlink:href="#m4535e8a3d3" x="38.1875" y="103.434242" style="stroke: #000000; stroke-width: 0.8"/>
      </g>
     </g>
     <g id="text_18">
      <!-- 3000 -->
      <g transform="translate(7.2 106.862367)scale(0.1 -0.1)">
       <defs>
        <path id="WenQuanYiZenHei-33" d="M 3588 1231 
Q 3588 494 2875 144 
Q 2450 -63 1925 -63 
Q 1044 -63 556 488 
Q 356 706 256 1000 
L 769 1169 
Q 994 375 1913 375 
Q 2631 375 2900 788 
Q 3019 975 3019 1231 
Q 3019 1638 2638 1881 
Q 2325 2081 1613 2069 
L 1338 2069 
L 1338 2494 
Q 1969 2494 2094 2506 
Q 2325 2544 2463 2613 
Q 2763 2756 2844 3100 
Q 2863 3169 2863 3244 
Q 2863 3744 2381 3944 
L 2163 4006 
Q 2056 4025 1931 4025 
Q 1388 4025 1075 3631 
Q 969 3488 906 3313 
L 419 3456 
Q 675 4150 1400 4369 
Q 1669 4456 1975 4456 
Q 2694 4456 3106 4050 
Q 3419 3744 3419 3275 
Q 3419 2813 3025 2513 
Q 2825 2356 2575 2319 
L 2575 2306 
Q 3181 2213 3450 1769 
Q 3588 1525 3588 1231 
z
" transform="scale(0.015625)"/>
       </defs>
       <use xlink:href="#WenQuanYiZenHei-33"/>
       <use xlink:href="#WenQuanYiZenHei-30" x="59.960938"/>
       <use xlink:href="#WenQuanYiZenHei-30" x="119.921875"/>
       <use xlink:href="#WenQuanYiZenHei-30" x="179.882812"/>
      </g>
     </g>
    </g>
    <g id="ytick_8">
     <g id="line2d_19">
      <g>
       <use xlink:href="#m4535e8a3d3" x="38.1875" y="61.891873" style="stroke: #000000; stroke-width: 0.8"/>
      </g>
     </g>
     <g id="text_19">
      <!-- 3500 -->
      <g transform="translate(7.2 65.319998)scale(0.1 -0.1)">
       <use xlink:href="#WenQuanYiZenHei-33"/>
       <use xlink:href="#WenQuanYiZenHei-35" x="59.960938"/>
       <use xlink:href="#WenQuanYiZenHei-30" x="119.921875"/>
       <use xlink:href="#WenQuanYiZenHei-30" x="179.882812"/>
      </g>
     </g>
    </g>
   </g>
   <g id="line2d_20">
    <path d="M 99.060227 352.605375 
L 101.727159 351.857612 
L 103.060626 351.192934 
L 104.394092 349.780494 
L 105.727558 347.78646 
L 107.061024 346.041681 
L 108.39449 345.709342 
L 109.727956 344.296901 
L 111.061422 342.718291 
L 112.394888 340.724257 
L 113.728354 339.477986 
L 115.06182 337.816291 
L 116.395287 336.57002 
L 119.062219 334.825241 
L 120.395685 334.077478 
L 121.729151 332.831207 
L 124.396083 331.003343 
L 128.396481 329.507818 
L 129.729947 329.341648 
L 131.063414 329.009309 
L 136.397278 328.344631 
L 145.731541 328.261546 
L 147.065007 328.095377 
L 175.067795 328.095377 
L 177.734727 327.513784 
L 179.068193 326.682936 
L 180.401659 326.682936 
L 184.402057 325.436665 
L 185.735523 325.187411 
L 187.06899 324.688903 
L 189.735922 324.439648 
L 192.402854 324.024225 
L 193.73632 324.024225 
L 195.069786 323.691886 
L 197.736718 323.608801 
L 205.737515 323.525716 
L 209.737913 323.359547 
L 213.738312 323.276462 
L 216.405244 323.193377 
L 263.076557 323.110293 
L 267.076955 322.944123 
L 284.412015 322.861038 
L 288.412413 322.694869 
L 297.746676 322.611784 
L 300.413608 322.528699 
L 344.417989 322.445615 
L 348.418387 322.279445 
L 367.086913 322.19636 
L 369.753845 322.113276 
L 373.754243 322.030191 
L 376.421175 321.947106 
L 381.75504 321.864021 
L 383.088506 321.780937 
L 384.421972 321.531683 
L 389.755836 321.448598 
L 395.089701 320.867005 
L 399.090099 320.78392 
L 404.423963 320.534666 
L 411.091294 320.451581 
L 412.42476 320.285411 
L 413.758226 320.285411 
L 415.091692 320.119242 
L 417.758624 320.036157 
L 423.092489 319.786903 
L 428.426353 319.703818 
L 429.759819 319.371479 
L 432.426751 319.122225 
L 433.760217 318.706801 
L 435.093683 318.706801 
L 436.42715 318.540632 
L 439.094082 318.540632 
L 440.427548 318.374462 
L 447.094878 318.291378 
L 451.095277 318.125208 
L 459.096073 318.042123 
L 463.096471 317.792869 
L 464.429938 317.211276 
L 465.763404 317.045107 
L 468.430336 316.962022 
L 472.430734 316.795852 
L 473.7642 316.463513 
L 477.764598 316.380429 
L 479.098065 316.04809 
L 483.098463 315.632666 
L 484.431929 314.884903 
L 493.766192 314.386395 
L 499.100056 314.386395 
L 500.433522 314.220225 
L 501.766988 313.721717 
L 503.100454 313.721717 
L 504.43392 313.389378 
L 505.767386 313.306293 
L 507.100853 312.973954 
L 512.434717 312.558531 
L 513.768183 312.226192 
L 515.101649 312.226192 
L 517.768581 311.976938 
L 519.102047 311.976938 
L 521.76898 311.727683 
L 523.102446 311.229175 
L 525.769378 311.14609 
L 529.769776 311.063005 
L 532.436708 310.979921 
L 539.104039 310.896836 
L 545.771369 310.564497 
L 552.4387 310.481412 
L 559.10603 310.065989 
L 560.439496 309.816734 
L 564.439895 309.650565 
L 567.106827 309.56748 
L 568.440293 309.484395 
L 569.773759 308.985887 
L 575.107623 308.736633 
L 577.774556 308.736633 
L 580.441488 308.487378 
L 584.441886 308.404294 
L 587.108818 308.321209 
L 589.775751 308.238124 
L 592.442683 308.15504 
L 595.109615 308.15504 
L 597.776547 307.739616 
L 601.776945 307.739616 
L 603.110411 307.490362 
L 605.777344 307.407277 
L 609.777742 307.324192 
L 613.77814 307.158023 
L 633.780132 307.074938 
L 635.113598 306.908768 
L 648.448259 306.825684 
L 651.115191 306.742599 
L 652.448657 306.742599 
L 655.115589 306.493345 
L 663.116386 306.41026 
L 664.449852 306.244091 
L 675.117581 306.161006 
L 677.784513 306.077921 
L 679.117979 306.077921 
L 680.451445 305.330158 
L 685.785309 305.080904 
L 688.452242 304.997819 
L 689.785708 304.83165 
L 691.119174 304.83165 
L 692.45264 304.499311 
L 697.786504 304.250057 
L 701.786903 304.166972 
L 703.120369 304.000803 
L 708.454233 304.000803 
L 709.787699 303.751548 
L 712.454631 303.668464 
L 716.45503 303.585379 
L 720.455428 303.419209 
L 724.455826 303.419209 
L 725.789292 303.25304 
L 729.789691 303.25304 
L 731.123157 303.08687 
L 739.123953 303.003786 
L 741.790885 302.920701 
L 743.124352 302.920701 
L 744.457818 302.006769 
L 745.791284 302.006769 
L 749.791682 301.591345 
L 763.126343 300.760498 
L 764.459809 300.511244 
L 780.461402 299.431142 
L 783.128334 298.683379 
L 785.795267 298.51721 
L 787.128733 297.935617 
L 791.129131 297.769447 
L 795.129529 296.855515 
L 801.79686 295.692329 
L 803.130326 295.526159 
L 805.797258 295.443074 
L 811.131122 295.19382 
L 812.464589 295.19382 
L 813.798055 294.861481 
L 816.464987 294.612227 
L 819.131919 294.529142 
L 821.798851 293.864464 
L 827.132716 293.61521 
L 828.466182 293.61521 
L 832.46658 292.535109 
L 833.800046 292.535109 
L 839.13391 291.538092 
L 840.467377 291.455007 
L 841.800843 291.122668 
L 843.134309 290.956499 
L 844.467775 290.541075 
L 845.801241 290.291821 
L 851.135105 290.291821 
L 852.468571 290.042566 
L 856.46897 289.959482 
L 857.802436 289.04555 
L 859.135902 288.962465 
L 860.469368 288.630126 
L 861.802834 288.630126 
L 863.1363 288.463956 
L 864.469766 288.131617 
L 867.136698 287.882363 
L 869.803631 287.882363 
L 871.137097 287.716194 
L 875.137495 287.633109 
L 888.472156 286.802262 
L 889.805622 286.469923 
L 891.139088 286.469923 
L 895.139486 285.971414 
L 897.806419 282.39877 
L 899.139885 277.413686 
L 901.806817 269.188297 
L 903.140283 264.120128 
L 904.473749 261.544501 
L 905.807215 257.971857 
L 907.140681 255.5624 
L 908.474147 251.906671 
L 909.807614 250.6604 
L 911.14108 248.998705 
L 912.474546 247.669349 
L 913.808012 247.420095 
L 915.141478 247.004671 
L 917.80841 246.672333 
L 919.141876 246.256909 
L 921.808808 246.173824 
L 923.142274 246.173824 
L 924.475741 245.7584 
L 925.809207 245.7584 
L 928.476139 245.509146 
L 932.476537 245.426061 
L 937.810402 245.176807 
L 945.811198 245.093722 
L 948.47813 245.010638 
L 949.811596 245.010638 
L 951.145062 244.844468 
L 955.145461 244.761384 
L 963.146257 244.17979 
L 964.479723 244.013621 
L 968.480122 244.013621 
L 969.813588 243.764367 
L 975.147452 243.515112 
L 977.814384 243.432028 
L 983.148249 243.182773 
L 993.815978 243.099689 
L 996.48291 243.016604 
L 1001.816774 242.933519 
L 1004.483706 242.850435 
L 1011.151037 242.76735 
L 1012.484503 242.518096 
L 1013.817969 242.435011 
L 1015.151435 242.185757 
L 1019.151833 242.102672 
L 1020.485299 241.936502 
L 1021.818766 241.936502 
L 1023.152232 241.687248 
L 1025.819164 241.687248 
L 1027.15263 241.354909 
L 1028.486096 241.354909 
L 1029.819562 240.939486 
L 1033.81996 240.856401 
L 1035.153427 240.773316 
L 1036.486893 240.524062 
L 1037.820359 240.524062 
L 1040.487291 240.191723 
L 1041.820757 239.859384 
L 1043.154223 239.776299 
L 1044.487689 239.44396 
L 1045.821155 238.696198 
L 1047.154621 238.696198 
L 1048.488087 237.782265 
L 1051.15502 236.702164 
L 1052.488486 236.619079 
L 1053.821952 236.28674 
L 1055.155418 235.538977 
L 1056.488884 235.123554 
L 1057.82235 234.292706 
L 1063.156215 233.046435 
L 1071.157011 232.547927 
L 1072.490477 232.215588 
L 1077.824342 231.966334 
L 1083.158206 231.883249 
L 1085.825138 231.800164 
L 1091.159003 231.717079 
L 1092.492469 231.467825 
L 1097.826333 231.135486 
L 1099.159799 230.304639 
L 1100.493265 229.141453 
L 1101.826731 229.058368 
L 1103.160197 228.642944 
L 1104.493663 227.978266 
L 1105.82713 227.479758 
L 1108.494062 226.981249 
L 1109.827528 226.981249 
L 1112.49446 226.399656 
L 1113.827926 225.568809 
L 1115.161392 225.402639 
L 1116.494858 224.904131 
L 1117.828324 224.571792 
L 1119.161791 223.990199 
L 1120.495257 223.574775 
L 1121.828723 223.574775 
L 1123.162189 222.993182 
L 1124.495655 222.910097 
L 1125.829121 222.577758 
L 1127.162587 222.411589 
L 1128.496053 221.082233 
L 1129.829519 220.916063 
L 1132.496452 220.832979 
L 1135.163384 220.583724 
L 1139.163782 220.33447 
L 1140.497248 219.420538 
L 1141.830714 216.180233 
L 1143.16418 216.180233 
L 1145.831112 196.073726 
L 1147.164579 196.073726 
L 1148.498045 165.997051 
L 1149.831511 152.703492 
L 1152.498443 133.510918 
L 1153.831909 127.528817 
L 1155.165375 126.033291 
L 1156.498841 125.617868 
L 1157.832307 125.534783 
L 1159.165773 124.537766 
L 1163.166172 121.962139 
L 1164.499638 121.962139 
L 1165.833104 120.300444 
L 1167.16657 119.386512 
L 1168.500036 117.807902 
L 1171.166968 116.395461 
L 1173.8339 112.739733 
L 1175.167367 112.324309 
L 1176.500833 111.327292 
L 1177.834299 110.57953 
L 1180.501231 109.333259 
L 1181.834697 108.253157 
L 1183.168163 106.923801 
L 1184.501629 105.179022 
L 1185.835095 104.929767 
L 1189.835494 104.597429 
L 1191.16896 104.26509 
L 1193.835892 103.351157 
L 1195.169358 103.268073 
L 1197.83629 102.769564 
L 1200.503222 102.52031 
L 1205.837087 101.606378 
L 1207.170553 100.858615 
L 1208.504019 100.526276 
L 1209.837485 100.360107 
L 1211.170951 99.19692 
L 1212.504417 99.030751 
L 1215.171349 98.282988 
L 1216.504816 98.116819 
L 1217.838282 97.036717 
L 1219.171748 96.704378 
L 1220.505214 95.458107 
L 1221.83868 93.962582 
L 1224.505612 92.799396 
L 1227.172544 91.220785 
L 1228.50601 90.639192 
L 1231.172943 89.143667 
L 1232.506409 88.562074 
L 1233.839875 87.814311 
L 1235.173341 87.398887 
L 1236.506807 86.73421 
L 1237.840273 85.820277 
L 1239.173739 85.1556 
L 1240.507205 84.158583 
L 1241.840671 82.912312 
L 1243.174137 82.579973 
L 1244.507604 81.998379 
L 1245.84107 81.66604 
L 1247.174536 81.66604 
L 1248.508002 80.918278 
L 1249.841468 79.755091 
L 1251.174934 79.755091 
L 1252.5084 78.924244 
L 1253.841866 78.342651 
L 1255.175332 77.594888 
L 1256.508798 77.262549 
L 1257.842265 77.09638 
L 1259.175731 76.764041 
L 1260.509197 76.265532 
L 1261.842663 76.016278 
L 1263.176129 75.434685 
L 1264.509595 75.019261 
L 1265.843061 74.437668 
L 1267.176527 73.606821 
L 1268.509993 73.274482 
L 1269.843459 72.526719 
L 1272.510392 71.446618 
L 1273.843858 71.114279 
L 1275.177324 70.61577 
L 1276.51079 70.449601 
L 1283.17812 68.372482 
L 1291.178917 64.799838 
L 1292.512383 63.885906 
L 1293.845849 63.138144 
L 1295.179315 61.725703 
L 1299.179713 59.482415 
L 1299.179713 59.482415 
" clip-path="url(#p8b2360deec)" style="fill: none; stroke: #0000ff; stroke-width: 1.5; stroke-linecap: square"/>
   </g>
   <g id="line2d_21">
    <path d="M 1059.155816 233.423497 
L 1060.489282 232.964848 
L 1061.822748 233.01029 
L 1063.156215 232.830723 
L 1069.823545 232.636445 
L 1071.157011 232.470751 
L 1072.490477 232.046225 
L 1075.157409 231.739365 
L 1076.490875 231.910279 
L 1081.82474 231.96071 
L 1085.825138 231.722617 
L 1088.49207 231.820062 
L 1091.159003 231.686865 
L 1092.492469 231.351535 
L 1096.492867 231.149245 
L 1097.826333 231.081149 
L 1099.159799 229.930455 
L 1100.493265 228.403417 
L 1104.493663 227.760558 
L 1105.82713 226.982552 
L 1107.160596 226.731205 
L 1108.494062 226.728576 
L 1109.827528 226.842394 
L 1111.160994 226.476037 
L 1112.49446 226.233585 
L 1113.827926 225.084811 
L 1115.161392 224.897844 
L 1116.494858 224.331771 
L 1117.828324 224.271223 
L 1119.161791 223.551272 
L 1120.495257 223.112903 
L 1121.828723 223.261283 
L 1123.162189 222.686976 
L 1124.495655 222.743549 
L 1125.829121 222.195115 
L 1127.162587 222.255541 
L 1128.496053 220.497479 
L 1129.829519 220.233704 
L 1131.162985 220.299223 
L 1132.496452 220.868428 
L 1133.829918 220.75465 
L 1135.163384 220.452125 
L 1136.49685 220.446073 
L 1139.163782 220.21624 
L 1140.497248 219.032667 
L 1141.830714 214.731675 
L 1143.16418 214.408959 
L 1144.497646 200.902469 
L 1145.831112 188.933551 
L 1147.164579 187.478577 
L 1148.498045 152.861843 
L 1149.831511 137.963041 
L 1151.164977 121.406013 
L 1152.498443 123.777419 
L 1155.165375 120.529819 
L 1156.498841 125.523486 
L 1157.832307 126.339356 
L 1159.165773 124.471931 
L 1160.49924 122.396455 
L 1163.166172 120.780934 
L 1164.499638 121.053025 
L 1165.833104 119.512878 
L 1167.16657 118.688231 
L 1168.500036 116.286962 
L 1171.166968 115.384453 
L 1172.500434 113.530519 
L 1173.8339 111.363575 
L 1175.167367 110.72369 
L 1176.500833 110.295615 
L 1177.834299 110.061601 
L 1179.167765 109.240857 
L 1180.501231 108.724355 
L 1181.834697 107.58947 
L 1183.168163 105.805043 
L 1184.501629 103.639412 
L 1185.835095 103.65648 
L 1187.168561 104.163749 
L 1188.502028 104.906725 
L 1189.835494 104.721693 
L 1192.502426 103.444885 
L 1193.835892 102.792228 
L 1196.502824 102.758488 
L 1200.503222 102.373461 
L 1201.836688 102.140434 
L 1203.170155 101.653127 
L 1204.503621 101.584225 
L 1205.837087 101.378966 
L 1207.170553 100.531547 
L 1208.504019 100.030981 
L 1209.837485 99.858817 
L 1211.170951 98.711301 
L 1212.504417 98.5105 
L 1213.837883 97.921829 
L 1215.171349 98.092635 
L 1216.504816 97.876587 
L 1217.838282 96.500264 
L 1219.171748 96.184402 
L 1220.505214 94.443338 
L 1221.83868 92.915112 
L 1223.172146 92.109496 
L 1225.839078 91.528592 
L 1227.172544 90.568773 
L 1229.839477 89.235339 
L 1231.172943 88.45213 
L 1233.839875 87.109448 
L 1235.173341 86.856446 
L 1236.506807 86.132964 
L 1240.507205 83.234849 
L 1241.840671 81.942488 
L 1244.507604 81.273214 
L 1245.84107 81.41618 
L 1247.174536 81.430821 
L 1248.508002 80.631529 
L 1249.841468 79.179984 
L 1251.174934 78.909511 
L 1252.5084 78.165759 
L 1253.841866 77.978053 
L 1255.175332 76.833142 
L 1256.508798 76.684918 
L 1257.842265 76.76345 
L 1259.175731 76.535114 
L 1260.509197 76.002165 
L 1261.842663 75.611932 
L 1263.176129 74.985661 
L 1264.509595 74.581718 
L 1265.843061 73.856552 
L 1267.176527 72.984113 
L 1268.509993 72.668719 
L 1269.843459 71.861442 
L 1271.176925 71.445869 
L 1272.510392 70.815155 
L 1273.843858 70.647283 
L 1275.177324 70.240545 
L 1276.51079 70.126755 
L 1280.511188 68.763505 
L 1281.844654 68.211531 
L 1283.17812 67.997952 
L 1288.511985 65.326396 
L 1289.845451 64.878484 
L 1291.178917 64.177389 
L 1293.845849 62.329986 
L 1295.179315 60.653779 
L 1297.846247 59.293128 
L 1299.179713 58.815836 
L 1299.179713 58.815836 
" clip-path="url(#p8b2360deec)" style="fill: none; stroke: #ffa500; stroke-width: 1.5; stroke-linecap: square"/>
   </g>
   <g id="line2d_22">
    <path d="M 1299.179713 58.815836 
L 1300.51318 58.191494 
L 1301.846646 57.476636 
L 1303.180112 56.868226 
L 1304.513578 56.21702 
L 1305.847044 55.530312 
L 1307.18051 54.878602 
L 1308.513976 54.21495 
L 1309.847442 53.538171 
L 1311.180908 52.876759 
L 1312.514374 52.209636 
L 1313.847841 51.538362 
L 1315.181307 50.87314 
L 1316.514773 50.205375 
" clip-path="url(#p8b2360deec)" style="fill: none; stroke: #ff0000; stroke-width: 1.5; stroke-linecap: square"/>
   </g>
   <g id="patch_3">
    <path d="M 38.1875 367.725375 
L 38.1875 35.085375 
" style="fill: none; stroke: #000000; stroke-width: 0.8; stroke-linejoin: miter; stroke-linecap: square"/>
   </g>
   <g id="patch_4">
    <path d="M 1377.3875 367.725375 
L 1377.3875 35.085375 
" style="fill: none; stroke: #000000; stroke-width: 0.8; stroke-linejoin: miter; stroke-linecap: square"/>
   </g>
   <g id="patch_5">
    <path d="M 38.1875 367.725375 
L 1377.3875 367.725375 
" style="fill: none; stroke: #000000; stroke-width: 0.8; stroke-linejoin: miter; stroke-linecap: square"/>
   </g>
   <g id="patch_6">
    <path d="M 38.1875 35.085375 
L 1377.3875 35.085375 
" style="fill: none; stroke: #000000; stroke-width: 0.8; stroke-linejoin: miter; stroke-linecap: square"/>
   </g>
   <g id="text_20">
    <!-- 累计确诊预测 - 福建 -->
    <g transform="translate(654.390313 17.06625)scale(0.12 -0.12)">
     <defs>
      <path id="WenQuanYiZenHei-7d2f" d="M 5963 -681 
Q 5363 -81 4706 456 
L 5000 819 
Q 5675 269 6294 -350 
L 5963 -681 
z
M 1944 738 
Q 2094 556 2281 413 
Q 1575 -356 375 -706 
Q 350 -481 200 -319 
Q 725 -181 1122 69 
Q 1519 319 1944 738 
z
M 3244 -169 
L 3244 1063 
L 869 881 
L 850 1181 
Q 1431 1325 2969 1988 
L 1119 1931 
L 1113 2231 
Q 1350 2263 1862 2497 
Q 2375 2731 2800 2988 
L 1094 2988 
Q 1169 4006 1094 5019 
L 5506 5019 
Q 5425 4006 5500 2988 
L 3431 2988 
Q 3475 2931 3525 2875 
Q 2856 2494 2281 2256 
L 3388 2269 
L 3650 2288 
Q 4338 2606 4650 2800 
Q 4744 2563 4881 2344 
Q 4644 2225 3975 1956 
L 2269 1281 
L 4444 1425 
L 4813 1469 
L 4681 1588 
L 4988 1938 
Q 5481 1500 5863 963 
L 5481 694 
Q 5300 950 5081 1188 
L 4463 1163 
L 3669 1100 
L 3669 -250 
Q 3669 -444 3488 -594 
Q 3225 -819 2569 -813 
Q 2638 -513 2431 -294 
Q 2619 -319 2900 -322 
Q 3181 -325 3212 -294 
Q 3244 -263 3244 -169 
z
M 3513 4131 
L 5081 4131 
L 5081 4725 
L 3513 4725 
L 3513 4131 
z
M 3088 4131 
L 3088 4725 
L 1519 4725 
L 1519 4131 
L 3088 4131 
z
M 3513 3856 
L 3513 3288 
L 5081 3288 
L 5081 3856 
L 3513 3856 
z
M 3088 3856 
L 1519 3856 
L 1519 3288 
L 3088 3288 
L 3088 3856 
z
" transform="scale(0.015625)"/>
      <path id="WenQuanYiZenHei-8ba1" d="M 4569 -769 
Q 4313 -738 4056 -769 
Q 4081 -294 4081 175 
L 4081 2806 
L 3213 2806 
Q 2813 2806 2413 2788 
Q 2438 3000 2413 3219 
Q 2813 3200 3213 3200 
L 4081 3200 
L 4081 4313 
Q 4081 4788 4056 5263 
Q 4313 5231 4569 5263 
Q 4550 4788 4550 4313 
L 4550 3200 
L 5381 3200 
Q 5781 3200 6181 3219 
Q 6163 3000 6181 2788 
Q 5781 2806 5381 2806 
L 4550 2806 
L 4550 175 
Q 4550 -294 4569 -769 
z
M 38 2725 
Q 63 2931 38 3138 
Q 419 3119 800 3119 
L 1481 3119 
L 1481 425 
L 2044 1150 
L 2250 1488 
L 2525 1188 
L 2313 950 
L 1294 -488 
L 963 -231 
Q 1025 -94 1025 63 
L 1025 2744 
L 800 2744 
Q 419 2744 38 2725 
z
M 1450 3913 
Q 1094 4438 600 4831 
L 913 5225 
Q 1488 4769 1869 4194 
L 1450 3913 
z
" transform="scale(0.015625)"/>
      <path id="WenQuanYiZenHei-786e" d="M 4794 -769 
Q 4563 -744 4331 -769 
Q 4350 -344 4350 81 
L 4350 1081 
L 3419 1081 
L 3419 788 
Q 3419 225 3150 -194 
Q 2881 -613 2456 -806 
Q 2375 -569 2150 -444 
Q 2531 -344 2765 -15 
Q 3000 313 3000 788 
L 2994 2919 
L 2888 2813 
Q 2769 3000 2563 3081 
Q 3044 3494 3309 3969 
Q 3575 4444 3763 5119 
Q 3981 5044 4213 5013 
Q 4144 4700 4025 4400 
L 5238 4400 
L 5306 4050 
Q 5213 4031 5163 3947 
Q 5113 3863 4813 3325 
L 5994 3325 
L 5994 -150 
Q 5981 -519 5738 -656 
Q 5469 -806 5069 -806 
Q 5125 -525 4956 -294 
Q 5100 -313 5290 -316 
Q 5481 -319 5525 -278 
Q 5569 -238 5569 25 
L 5569 1081 
L 4769 1081 
L 4769 81 
Q 4769 -344 4794 -769 
z
M 4769 1344 
L 5569 1344 
L 5569 2100 
L 4769 2100 
L 4769 1344 
z
M 4350 1344 
L 4350 2100 
L 3413 2100 
L 3419 1344 
L 4350 1344 
z
M 4769 2363 
L 5569 2363 
L 5569 3038 
L 4769 3038 
L 4769 2363 
z
M 4350 2363 
L 4350 3038 
L 3413 3038 
L 3413 2363 
L 4350 2363 
z
M 3375 3325 
L 4350 3325 
L 4344 3331 
L 4775 4113 
L 3894 4113 
Q 3688 3700 3375 3325 
z
M 481 1069 
Q 281 1194 -25 1188 
Q 775 2750 1244 4294 
L 869 4294 
Q 563 4294 250 4275 
Q 269 4438 250 4594 
Q 563 4581 869 4581 
L 2156 4581 
Q 2463 4581 2775 4594 
Q 2756 4438 2775 4275 
Q 2463 4294 2156 4294 
L 1744 4294 
L 1181 2763 
L 2494 2763 
L 2494 -338 
L 2050 -338 
L 2050 156 
L 1406 156 
Q 1406 -94 1419 -350 
Q 1181 -325 938 -350 
Q 956 75 956 500 
L 956 2181 
L 769 1713 
Q 631 1388 481 1069 
z
M 2050 2475 
L 1400 2475 
L 1400 425 
L 2050 425 
L 2050 2475 
z
" transform="scale(0.015625)"/>
      <path id="WenQuanYiZenHei-8bca" d="M 5369 1456 
Q 5556 1256 5775 1100 
Q 5038 344 4081 -225 
Q 3106 -819 1788 -1006 
Q 1788 -725 1631 -500 
Q 3363 -306 4406 519 
Q 4919 956 5369 1456 
z
M 4594 2219 
Q 4781 2031 5013 1881 
Q 3625 394 2150 -25 
Q 2113 250 1913 444 
Q 2475 594 3015 850 
Q 3556 1106 3919 1463 
Q 4275 1819 4594 2219 
z
M 3969 3188 
Q 4150 3013 4356 2881 
Q 3625 1913 2306 1275 
Q 2244 1500 2056 1644 
Q 2619 1900 3053 2256 
Q 3488 2613 3969 3188 
z
M 5813 2194 
Q 4525 2913 3731 4188 
Q 2919 2844 1813 2163 
Q 1700 2413 1456 2550 
Q 1950 2844 2400 3231 
Q 2850 3619 3113 4063 
Q 3413 4581 3644 5163 
Q 3881 5038 4144 4963 
Q 4056 4775 3963 4594 
Q 4325 3919 4844 3441 
Q 5363 2963 6175 2538 
Q 5931 2431 5813 2194 
z
M 31 2613 
Q 50 2775 31 2938 
Q 325 2925 619 2925 
L 1275 2925 
L 1275 506 
L 1675 1006 
L 1831 1250 
L 2038 1013 
L 1881 838 
L 1100 -256 
L 825 -25 
Q 869 81 869 200 
L 869 2625 
L 31 2613 
z
M 950 3713 
Q 606 4325 200 4881 
L 556 5163 
Q 981 4588 1338 3944 
L 950 3713 
z
" transform="scale(0.015625)"/>
      <path id="WenQuanYiZenHei-9884" d="M 1206 19 
L 1206 2888 
L 669 2888 
Q 356 2888 50 2869 
Q 63 3044 50 3213 
Q 363 3194 669 3194 
L 1250 3194 
Q 950 3631 606 4031 
L 963 4338 
L 1263 3975 
L 1913 4719 
L 731 4719 
Q 419 4719 106 4706 
Q 125 4875 106 5044 
Q 419 5031 731 5031 
L 2481 5031 
L 2544 4663 
Q 2394 4613 2256 4466 
Q 2119 4319 1525 3631 
Q 1656 3444 1788 3250 
L 1700 3194 
L 2700 3194 
L 2763 2825 
Q 2656 2819 2613 2763 
L 2100 2038 
L 1750 2288 
L 2175 2888 
L 1638 2888 
L 1638 -150 
Q 1638 -525 1363 -669 
Q 1075 -819 525 -813 
Q 594 -513 388 -294 
Q 575 -313 837 -316 
Q 1100 -319 1153 -272 
Q 1206 -225 1206 19 
z
M 5813 -888 
Q 5100 -225 4306 375 
L 4669 719 
Q 5481 106 6219 -575 
L 5813 -888 
z
M 2375 -906 
Q 2294 -631 2025 -506 
Q 2769 -431 3353 19 
Q 3938 469 3938 1069 
L 3938 2200 
Q 3938 2625 3913 3050 
Q 4188 3025 4456 3050 
Q 4431 2625 4431 2200 
L 4431 1069 
Q 4431 681 4225 319 
Q 3644 -606 2375 -906 
z
M 3444 488 
Q 3169 513 2894 488 
Q 2919 913 2919 1338 
L 2919 3675 
Q 3219 3675 3525 3675 
Q 3750 4013 3931 4525 
L 3238 4525 
Q 2888 4525 2538 4513 
Q 2556 4669 2538 4831 
Q 2888 4813 3238 4813 
L 5313 4813 
Q 5663 4813 6006 4831 
Q 5988 4669 6006 4513 
Q 5663 4525 5313 4525 
L 4481 4525 
Q 4388 4088 4088 3675 
L 5644 3675 
L 5644 513 
L 5144 513 
L 5144 3388 
L 3894 3388 
L 3875 3363 
Q 3863 3375 3844 3388 
Q 3631 3388 3413 3388 
L 3419 1338 
Q 3419 913 3444 488 
z
" transform="scale(0.015625)"/>
      <path id="WenQuanYiZenHei-6d4b" d="M 5450 138 
L 5450 4306 
Q 5450 4750 5425 5188 
Q 5663 5163 5906 5188 
Q 5881 4750 5881 4306 
L 5881 -38 
Q 5888 -569 5519 -719 
Q 5194 -831 4825 -813 
Q 4894 -519 4694 -281 
Q 4869 -306 5094 -309 
Q 5319 -313 5384 -256 
Q 5450 -200 5450 138 
z
M 4900 938 
Q 4663 963 4419 938 
Q 4444 1375 4444 1819 
L 4444 3381 
Q 4444 3819 4419 4263 
Q 4663 4238 4900 4263 
Q 4875 3819 4875 3381 
L 4875 1819 
Q 4875 1375 4900 938 
z
M 2750 2025 
L 2750 3038 
Q 2750 3481 2725 3919 
Q 2963 3894 3206 3919 
Q 3181 3481 3181 3038 
L 3181 2025 
Q 3181 1263 2919 625 
L 3231 956 
Q 3781 431 4256 -150 
L 3888 -456 
Q 3431 106 2906 600 
Q 2531 -288 1738 -769 
Q 1606 -519 1338 -450 
Q 1988 -156 2369 478 
Q 2750 1113 2750 2025 
z
M 2363 969 
Q 2119 994 1881 969 
Q 1906 1406 1906 1850 
L 1906 5038 
L 3956 5031 
L 3956 1200 
L 3525 1200 
L 3525 4713 
L 2338 4713 
L 2338 1850 
Q 2338 1406 2363 969 
z
M 663 -738 
Q 481 -588 206 -575 
Q 400 -69 606 581 
Q 813 1231 1200 2838 
L 1381 2706 
L 875 338 
L 663 -738 
z
M 1006 2856 
L 731 2550 
L 75 3400 
L 350 3713 
L 1006 2856 
z
M 1088 3913 
Q 781 4388 425 4800 
L 694 5125 
Q 1069 4688 1388 4188 
L 1088 3913 
z
" transform="scale(0.015625)"/>
      <path id="WenQuanYiZenHei-20" transform="scale(0.015625)"/>
      <path id="WenQuanYiZenHei-798f" d="M 3169 -775 
Q 2938 -750 2713 -775 
Q 2731 -356 2731 69 
L 2731 2131 
L 5956 2131 
L 5956 -763 
L 5538 -763 
L 5538 -263 
L 3150 -263 
Q 3156 -519 3169 -775 
z
M 3088 2650 
Q 3163 3319 3088 3988 
L 5575 3988 
Q 5500 3319 5575 2650 
L 3088 2650 
z
M 6069 4838 
Q 6056 4681 6069 4531 
Q 5788 4544 5500 4544 
L 3213 4544 
Q 2925 4544 2644 4531 
Q 2656 4681 2644 4838 
Q 2925 4825 3213 4825 
L 5500 4825 
Q 5788 4825 6069 4838 
z
M 4525 -6 
L 5538 -6 
L 5538 794 
L 4525 794 
L 4525 -6 
z
M 4113 -6 
L 4113 794 
L 3144 794 
L 3144 -6 
L 4113 -6 
z
M 4525 1050 
L 5538 1050 
L 5538 1850 
L 4525 1850 
L 4525 1050 
z
M 4113 1050 
L 4113 1850 
L 3144 1850 
L 3144 1050 
L 4113 1050 
z
M 3506 3706 
L 3506 2931 
L 5163 2931 
L 5163 3706 
L 3506 3706 
z
M 1650 2069 
L 1650 38 
Q 1650 -406 1669 -844 
Q 1438 -819 1200 -844 
Q 1219 -406 1219 38 
L 1219 1763 
Q 875 1369 456 1044 
Q 256 1200 0 1288 
Q 1213 2100 1838 3500 
L 925 3500 
Q 606 3500 288 3481 
Q 306 3656 288 3831 
Q 606 3819 925 3819 
L 2400 3819 
Q 2175 3125 1788 2513 
L 1856 2569 
L 2544 1700 
L 2181 1400 
L 1650 2069 
z
M 1488 4025 
Q 1181 4550 806 5019 
L 1169 5319 
Q 1563 4825 1894 4269 
L 1488 4025 
z
" transform="scale(0.015625)"/>
      <path id="WenQuanYiZenHei-5efa" d="M 919 4275 
Q 581 4275 250 4263 
Q 269 4444 250 4625 
Q 581 4606 919 4606 
L 2056 4606 
L 1050 2825 
L 1888 2825 
Q 1950 1669 1450 744 
Q 2331 -181 4219 -138 
L 5988 -188 
Q 5813 -388 5813 -650 
Q 5169 -613 4353 -603 
Q 3538 -594 3194 -544 
Q 1969 -381 1219 350 
Q 844 -219 325 -625 
Q 125 -463 -119 -381 
Q 531 44 919 694 
Q 500 1244 344 1931 
L 769 2025 
Q 888 1531 1144 1131 
Q 1425 1781 1413 2500 
L 363 2500 
L 1363 4275 
L 919 4275 
z
M 4013 0 
Q 3775 25 3531 0 
Q 3550 344 3550 688 
L 2638 688 
Q 2306 688 1969 669 
Q 1988 850 1969 1031 
Q 2306 1019 2638 1019 
L 3556 1019 
L 3556 1569 
L 2956 1569 
Q 2619 1569 2281 1550 
Q 2300 1738 2281 1919 
Q 2619 1900 2956 1900 
L 3556 1900 
L 3556 2419 
L 3000 2419 
Q 2663 2419 2325 2406 
Q 2350 2588 2325 2769 
Q 2663 2750 3000 2750 
L 3556 2750 
L 3556 3350 
L 2613 3350 
Q 2275 3350 1938 3331 
Q 1956 3513 1938 3694 
Q 2275 3681 2613 3681 
L 3556 3681 
L 3556 4200 
L 3088 4200 
Q 2756 4200 2419 4188 
Q 2438 4369 2419 4550 
Q 2756 4531 3088 4531 
L 3550 4531 
Q 3550 4894 3531 5263 
Q 3775 5238 4013 5263 
Q 4000 4894 3994 4531 
L 5325 4531 
L 5325 3681 
Q 5656 3681 5981 3694 
Q 5963 3513 5981 3331 
Q 5656 3350 5325 3350 
L 5325 2419 
L 3994 2419 
L 3994 1900 
L 4650 1900 
Q 4988 1900 5325 1919 
Q 5306 1738 5325 1550 
Q 4988 1569 4650 1569 
L 3994 1569 
L 3994 1019 
L 5013 1019 
Q 5350 1019 5681 1031 
Q 5663 850 5681 669 
Q 5350 688 5013 688 
L 3994 688 
Q 4000 344 4013 0 
z
M 3994 2750 
L 4888 2750 
L 4888 3350 
L 3994 3350 
L 3994 2750 
z
M 3994 3681 
L 4888 3681 
L 4888 4200 
L 3994 4200 
L 3994 3681 
z
" transform="scale(0.015625)"/>
     </defs>
     <use xlink:href="#WenQuanYiZenHei-7d2f"/>
     <use xlink:href="#WenQuanYiZenHei-8ba1" x="100"/>
     <use xlink:href="#WenQuanYiZenHei-786e" x="200"/>
     <use xlink:href="#WenQuanYiZenHei-8bca" x="300"/>
     <use xlink:href="#WenQuanYiZenHei-9884" x="400"/>
     <use xlink:href="#WenQuanYiZenHei-6d4b" x="500"/>
     <use xlink:href="#WenQuanYiZenHei-20" x="600"/>
     <use xlink:href="#WenQuanYiZenHei-2d" x="629.980469"/>
     <use xlink:href="#WenQuanYiZenHei-20" x="659.960938"/>
     <use xlink:href="#WenQuanYiZenHei-798f" x="689.941406"/>
     <use xlink:href="#WenQuanYiZenHei-5efa" x="789.941406"/>
    </g>
    <!-- ARIMA (4, 2, 0)x(0, 0, 1, 7) (R2 = 0.998459) -->
    <g transform="translate(589.179688 29.085375)scale(0.12 -0.12)">
     <defs>
      <path id="WenQuanYiZenHei-41" d="M 3550 0 
L 2988 0 
L 2550 1281 
L 919 1281 
L 531 0 
L 69 0 
L 1494 4388 
L 2125 4388 
L 3550 0 
z
M 2425 1694 
L 1756 3800 
L 1075 1694 
L 2425 1694 
z
" transform="scale(0.015625)"/>
      <path id="WenQuanYiZenHei-52" d="M 3675 0 
L 3100 0 
L 2288 1900 
L 1069 1900 
L 1069 0 
L 519 0 
L 519 4388 
L 2163 4388 
Q 3006 4388 3400 3900 
Q 3581 3663 3625 3325 
Q 3631 3250 3631 3163 
Q 3631 2594 3219 2244 
Q 3038 2100 2813 2038 
L 3675 0 
z
M 3081 3169 
Q 3081 3825 2356 3906 
Q 2263 3919 2163 3919 
L 1069 3919 
L 1069 2350 
L 2100 2350 
Q 2906 2350 3044 2919 
Q 3081 3031 3081 3169 
z
" transform="scale(0.015625)"/>
      <path id="WenQuanYiZenHei-49" d="M 1100 0 
L 550 0 
L 550 4388 
L 1100 4388 
L 1100 0 
z
" transform="scale(0.015625)"/>
      <path id="WenQuanYiZenHei-4d" d="M 4756 0 
L 4206 0 
L 4206 3831 
L 4181 3831 
L 2788 0 
L 2419 0 
L 1000 3831 
L 975 3831 
L 975 0 
L 513 0 
L 513 4388 
L 1331 4388 
L 2656 875 
L 3950 4388 
L 4756 4388 
L 4756 0 
z
" transform="scale(0.015625)"/>
      <path id="WenQuanYiZenHei-28" d="M 1606 -1094 
L 1275 -1094 
Q 475 -100 338 1231 
Q 319 1438 319 1656 
Q 319 3031 1156 4244 
Q 1213 4313 1269 4388 
L 1600 4388 
Q 806 3169 794 1681 
Q 794 188 1606 -1094 
z
" transform="scale(0.015625)"/>
      <path id="WenQuanYiZenHei-2c" d="M 1363 75 
L 881 -825 
L 606 -825 
L 994 0 
L 656 0 
L 656 738 
L 1363 738 
L 1363 75 
z
" transform="scale(0.015625)"/>
      <path id="WenQuanYiZenHei-29" d="M 1600 1656 
Q 1600 306 869 -788 
Q 769 -950 644 -1094 
L 313 -1094 
Q 1125 188 1125 1681 
Q 1125 3169 338 4363 
Q 325 4375 319 4388 
L 650 4388 
Q 1525 3231 1594 1863 
Q 1600 1763 1600 1656 
z
" transform="scale(0.015625)"/>
      <path id="WenQuanYiZenHei-78" d="M 2806 0 
L 2213 0 
L 1394 1319 
L 544 0 
L 50 0 
L 1144 1681 
L 163 3250 
L 744 3250 
L 1431 2138 
L 2144 3250 
L 2631 3250 
L 1681 1794 
L 2806 0 
z
" transform="scale(0.015625)"/>
      <path id="WenQuanYiZenHei-3d" d="M 3569 2256 
L 263 2256 
L 263 2675 
L 3569 2675 
L 3569 2256 
z
M 3569 1019 
L 263 1019 
L 263 1431 
L 3569 1431 
L 3569 1019 
z
" transform="scale(0.015625)"/>
      <path id="WenQuanYiZenHei-2e" d="M 1344 0 
L 631 0 
L 631 725 
L 1344 725 
L 1344 0 
z
" transform="scale(0.015625)"/>
      <path id="WenQuanYiZenHei-39" d="M 3544 2300 
Q 3544 1163 3019 513 
Q 2563 -63 1775 -63 
Q 956 -63 563 488 
Q 463 631 394 813 
L 838 975 
Q 1025 494 1550 388 
Q 1656 369 1775 369 
Q 2594 369 2900 1325 
Q 3044 1769 3038 2313 
L 3025 2313 
Q 2675 1638 1944 1544 
Q 1844 1531 1744 1531 
Q 1050 1531 625 2031 
Q 294 2419 294 2963 
Q 294 3656 813 4094 
Q 1238 4456 1819 4456 
Q 2988 4456 3381 3363 
Q 3544 2900 3544 2300 
z
M 2925 2994 
Q 2925 3563 2469 3844 
Q 2206 4006 1863 4006 
Q 1275 4006 988 3563 
Q 844 3344 825 3056 
Q 819 3006 819 2956 
Q 819 2413 1269 2131 
Q 1538 1963 1875 1963 
Q 2363 1963 2681 2350 
Q 2925 2638 2925 2994 
z
" transform="scale(0.015625)"/>
      <path id="WenQuanYiZenHei-38" d="M 3619 1175 
Q 3619 431 2850 100 
Q 2444 -63 1944 -63 
Q 1231 -63 725 269 
Q 225 594 225 1125 
Q 225 1881 1269 2281 
Q 719 2481 519 2938 
Q 444 3119 444 3319 
Q 444 4000 1144 4294 
Q 1519 4456 1963 4456 
Q 2669 4456 3094 4094 
Q 3425 3813 3425 3369 
Q 3425 2638 2575 2356 
Q 3231 2056 3450 1725 
Q 3619 1488 3619 1175 
z
M 2944 3344 
Q 2944 3906 2288 4019 
Q 2138 4044 1969 4044 
Q 1438 4044 1163 3775 
Q 1000 3613 1000 3375 
Q 1000 2925 1594 2663 
Q 1756 2588 1931 2550 
Q 2581 2725 2788 2956 
Q 2944 3125 2944 3344 
z
M 3075 1094 
Q 3075 1738 1875 2050 
Q 1094 1881 850 1463 
Q 763 1313 763 1131 
Q 763 569 1456 406 
Q 1681 344 1944 344 
Q 2519 344 2850 619 
Q 3075 813 3075 1094 
z
" transform="scale(0.015625)"/>
     </defs>
     <use xlink:href="#WenQuanYiZenHei-41"/>
     <use xlink:href="#WenQuanYiZenHei-52" x="55.957031"/>
     <use xlink:href="#WenQuanYiZenHei-49" x="117.871094"/>
     <use xlink:href="#WenQuanYiZenHei-4d" x="143.847656"/>
     <use xlink:href="#WenQuanYiZenHei-41" x="225.78125"/>
     <use xlink:href="#WenQuanYiZenHei-20" x="281.738281"/>
     <use xlink:href="#WenQuanYiZenHei-28" x="311.71875"/>
     <use xlink:href="#WenQuanYiZenHei-34" x="341.699219"/>
     <use xlink:href="#WenQuanYiZenHei-2c" x="401.660156"/>
     <use xlink:href="#WenQuanYiZenHei-20" x="431.640625"/>
     <use xlink:href="#WenQuanYiZenHei-32" x="461.621094"/>
     <use xlink:href="#WenQuanYiZenHei-2c" x="521.582031"/>
     <use xlink:href="#WenQuanYiZenHei-20" x="551.5625"/>
     <use xlink:href="#WenQuanYiZenHei-30" x="581.542969"/>
     <use xlink:href="#WenQuanYiZenHei-29" x="641.503906"/>
     <use xlink:href="#WenQuanYiZenHei-78" x="671.484375"/>
     <use xlink:href="#WenQuanYiZenHei-28" x="715.429688"/>
     <use xlink:href="#WenQuanYiZenHei-30" x="745.410156"/>
     <use xlink:href="#WenQuanYiZenHei-2c" x="805.371094"/>
     <use xlink:href="#WenQuanYiZenHei-20" x="835.351562"/>
     <use xlink:href="#WenQuanYiZenHei-30" x="865.332031"/>
     <use xlink:href="#WenQuanYiZenHei-2c" x="925.292969"/>
     <use xlink:href="#WenQuanYiZenHei-20" x="955.273438"/>
     <use xlink:href="#WenQuanYiZenHei-31" x="985.253906"/>
     <use xlink:href="#WenQuanYiZenHei-2c" x="1045.214844"/>
     <use xlink:href="#WenQuanYiZenHei-20" x="1075.195312"/>
     <use xlink:href="#WenQuanYiZenHei-37" x="1105.175781"/>
     <use xlink:href="#WenQuanYiZenHei-29" x="1165.136719"/>
     <use xlink:href="#WenQuanYiZenHei-20" x="1195.117188"/>
     <use xlink:href="#WenQuanYiZenHei-28" x="1225.097656"/>
     <use xlink:href="#WenQuanYiZenHei-52" x="1255.078125"/>
     <use xlink:href="#WenQuanYiZenHei-32" x="1316.992188"/>
     <use xlink:href="#WenQuanYiZenHei-20" x="1376.953125"/>
     <use xlink:href="#WenQuanYiZenHei-3d" x="1406.933594"/>
     <use xlink:href="#WenQuanYiZenHei-20" x="1466.894531"/>
     <use xlink:href="#WenQuanYiZenHei-30" x="1496.875"/>
     <use xlink:href="#WenQuanYiZenHei-2e" x="1556.835938"/>
     <use xlink:href="#WenQuanYiZenHei-39" x="1586.816406"/>
     <use xlink:href="#WenQuanYiZenHei-39" x="1646.777344"/>
     <use xlink:href="#WenQuanYiZenHei-38" x="1706.738281"/>
     <use xlink:href="#WenQuanYiZenHei-34" x="1766.699219"/>
     <use xlink:href="#WenQuanYiZenHei-35" x="1826.660156"/>
     <use xlink:href="#WenQuanYiZenHei-39" x="1886.621094"/>
     <use xlink:href="#WenQuanYiZenHei-29" x="1946.582031"/>
    </g>
   </g>
   <g id="legend_1">
    <g id="patch_7">
     <path d="M 45.1875 87.080687 
L 107.1875 87.080687 
Q 109.1875 87.080687 109.1875 85.080687 
L 109.1875 42.085375 
Q 109.1875 40.085375 107.1875 40.085375 
L 45.1875 40.085375 
Q 43.1875 40.085375 43.1875 42.085375 
L 43.1875 85.080687 
Q 43.1875 87.080687 45.1875 87.080687 
z
" style="fill: #ffffff; opacity: 0.8; stroke: #cccccc; stroke-linejoin: miter"/>
    </g>
    <g id="line2d_23">
     <path d="M 47.1875 48.71975 
L 57.1875 48.71975 
L 67.1875 48.71975 
" style="fill: none; stroke: #0000ff; stroke-width: 1.5; stroke-linecap: square"/>
    </g>
    <g id="text_21">
     <!-- 实际值 -->
     <g transform="translate(75.1875 52.21975)scale(0.1 -0.1)">
      <defs>
       <path id="WenQuanYiZenHei-5b9e" d="M 1025 1175 
Q 694 1175 356 1163 
Q 375 1344 356 1525 
Q 694 1506 1025 1506 
L 3363 1506 
L 3363 2625 
Q 3363 3075 3338 3519 
Q 3581 3494 3825 3519 
Q 3800 3075 3800 2625 
L 3800 1506 
L 5406 1506 
Q 5744 1506 6075 1525 
Q 6056 1344 6075 1163 
Q 5744 1175 5406 1175 
L 4038 1175 
L 4981 456 
L 6131 -488 
L 5819 -856 
L 4681 75 
L 3638 875 
Q 3313 231 2475 -231 
Q 1638 -694 700 -825 
Q 638 -519 344 -400 
Q 1450 -319 2406 244 
Q 3113 656 3300 1175 
L 1025 1175 
z
M 2263 1581 
Q 1763 2081 1200 2513 
L 1494 2894 
Q 2081 2444 2600 1919 
L 2263 1581 
z
M 2638 2500 
Q 2219 2963 1731 3363 
L 2044 3738 
Q 2556 3313 3000 2819 
L 2638 2500 
z
M 919 3156 
L 481 3156 
L 481 4344 
L 3069 4344 
Q 2794 4731 2469 5081 
L 2825 5413 
Q 3256 4944 3613 4413 
L 3513 4344 
L 5869 4344 
L 5869 3156 
L 5425 3156 
L 5425 4013 
L 919 4013 
L 919 3156 
z
" transform="scale(0.015625)"/>
       <path id="WenQuanYiZenHei-9645" d="M 6000 431 
L 5569 194 
L 4963 1219 
L 4313 2219 
L 4719 2494 
L 5375 1481 
L 6000 431 
z
M 2956 2450 
Q 3181 2344 3419 2294 
Q 3006 1038 1944 -188 
Q 1794 -6 1569 56 
Q 2069 600 2372 1156 
Q 2675 1713 2956 2450 
z
M 3750 25 
L 3750 2913 
L 2819 2913 
Q 2475 2913 2125 2894 
Q 2144 3081 2125 3269 
Q 2475 3256 2819 3256 
L 5469 3256 
Q 5819 3256 6163 3269 
Q 6144 3081 6163 2894 
Q 5813 2913 5469 2913 
L 4194 2913 
L 4194 -144 
Q 4194 -725 3456 -813 
L 3263 -825 
Q 3325 -506 3125 -250 
Q 3250 -281 3394 -306 
Q 3663 -313 3706 -272 
Q 3750 -231 3750 25 
z
M 5544 4950 
Q 5525 4756 5544 4569 
Q 5194 4588 4844 4588 
L 3325 4588 
Q 2975 4588 2625 4569 
Q 2644 4756 2625 4950 
Q 2975 4931 3325 4931 
L 4844 4931 
Q 5194 4931 5544 4950 
z
M 819 -850 
Q 581 -825 344 -850 
Q 369 -419 369 19 
L 363 4938 
L 2256 4938 
L 2256 4625 
Q 2150 4513 2075 4375 
L 1481 3238 
Q 2181 2319 2181 1156 
Q 2144 400 1569 163 
L 1406 88 
Q 1288 300 1138 481 
Q 1294 538 1450 606 
Q 1763 744 1794 1156 
Q 1794 1744 1600 2300 
Q 1406 2856 1038 3313 
L 1725 4625 
L 788 4625 
L 794 19 
Q 794 -419 819 -850 
z
" transform="scale(0.015625)"/>
       <path id="WenQuanYiZenHei-503c" d="M 6175 -219 
Q 6156 -388 6175 -556 
Q 5863 -544 5550 -544 
L 2313 -544 
Q 2000 -544 1688 -556 
Q 1706 -388 1688 -219 
L 2506 -231 
L 2506 3469 
L 3644 3469 
L 3644 4119 
L 2638 4119 
Q 2325 4119 2013 4100 
Q 2031 4269 2013 4438 
Q 2325 4425 2638 4425 
L 3638 4425 
Q 3638 4719 3619 5013 
Q 3856 4988 4094 5013 
Q 4075 4719 4075 4425 
L 5344 4425 
Q 5650 4425 5963 4438 
Q 5950 4269 5963 4100 
Q 5656 4119 5344 4119 
L 4069 4119 
L 4069 3469 
L 5300 3469 
L 5300 -231 
L 5550 -231 
Q 5863 -231 6175 -219 
z
M 4869 2556 
L 4869 3156 
L 2931 3156 
Q 2931 2850 2931 2556 
L 4869 2556 
z
M 4869 1669 
L 4869 2250 
L 2931 2250 
L 2931 1669 
L 4869 1669 
z
M 4869 731 
L 4869 1363 
L 2931 1363 
L 2931 731 
L 4869 731 
z
M 4869 -231 
L 4869 425 
L 2931 425 
L 2931 -231 
L 4869 -231 
z
M 2106 4925 
Q 1856 4075 1463 3338 
L 1463 31 
Q 1463 -413 1481 -850 
Q 1256 -825 1031 -850 
Q 1050 -413 1050 31 
L 1050 2681 
Q 750 2269 375 1931 
Q 238 2156 0 2256 
Q 331 2544 619 2875 
Q 1094 3425 1300 3950 
Q 1494 4469 1625 5050 
Q 1850 4963 2106 4925 
z
" transform="scale(0.015625)"/>
      </defs>
      <use xlink:href="#WenQuanYiZenHei-5b9e"/>
      <use xlink:href="#WenQuanYiZenHei-9645" x="100"/>
      <use xlink:href="#WenQuanYiZenHei-503c" x="200"/>
     </g>
    </g>
    <g id="line2d_24">
     <path d="M 47.1875 63.397875 
L 57.1875 63.397875 
L 67.1875 63.397875 
" style="fill: none; stroke: #ffa500; stroke-width: 1.5; stroke-linecap: square"/>
    </g>
    <g id="text_22">
     <!-- 校验值 -->
     <g transform="translate(75.1875 66.897875)scale(0.1 -0.1)">
      <defs>
       <path id="WenQuanYiZenHei-6821" d="M 5256 2463 
Q 5025 1475 4494 706 
Q 5125 -94 6175 -544 
Q 5950 -663 5850 -900 
Q 4906 -494 4250 381 
Q 3931 0 3475 -350 
Q 3019 -700 2388 -919 
Q 2338 -656 2138 -475 
Q 3306 -69 4006 738 
Q 3563 1444 3300 2331 
Q 3050 2050 2706 1800 
Q 2606 2000 2406 2106 
Q 2900 2444 3181 2938 
Q 3350 3225 3488 3538 
Q 3700 3431 3925 3369 
Q 3763 2894 3425 2475 
L 3650 2531 
Q 3888 1675 4244 1075 
Q 4469 1444 4603 1937 
Q 4738 2431 4775 2688 
Q 4963 2644 5150 2625 
Q 4919 2969 4663 3294 
L 5038 3588 
Q 5544 2925 5975 2213 
L 5569 1969 
L 5256 2463 
z
M 6006 4050 
Q 5988 3881 6006 3713 
Q 5694 3725 5381 3725 
L 3413 3725 
Q 3100 3725 2788 3713 
Q 2806 3881 2788 4050 
Q 3100 4031 3413 4031 
L 4325 4031 
Q 4019 4525 3644 4969 
L 4000 5275 
Q 4413 4788 4750 4244 
L 4406 4031 
L 5381 4031 
Q 5694 4031 6006 4050 
z
M 406 263 
Q 238 431 -25 469 
Q 194 825 466 1337 
Q 738 1850 925 2406 
Q 1113 2963 1256 3519 
L 825 3519 
Q 506 3519 188 3500 
Q 206 3700 188 3900 
Q 506 3881 825 3881 
L 1363 3881 
L 1363 4263 
Q 1363 4719 1338 5175 
Q 1556 5150 1775 5175 
Q 1756 4719 1756 4263 
L 1756 3881 
L 2525 3900 
Q 2506 3700 2525 3500 
L 1756 3519 
L 1756 2738 
L 1931 2881 
Q 2306 2300 2613 1650 
L 2231 1413 
Q 2081 1725 1919 2019 
L 1756 2300 
L 1756 69 
Q 1756 -388 1775 -850 
Q 1556 -825 1338 -850 
Q 1363 -388 1363 69 
L 1363 2438 
Q 925 1144 406 263 
z
" transform="scale(0.015625)"/>
       <path id="WenQuanYiZenHei-9a8c" d="M 5981 -106 
Q 5963 -275 5981 -444 
Q 5669 -431 5356 -431 
L 2969 -431 
Q 2656 -431 2350 -444 
Q 2363 -275 2350 -106 
Q 2656 -125 2969 -125 
L 4369 -125 
Q 4600 431 4881 1288 
L 5206 2300 
Q 5425 2206 5663 2163 
Q 5375 1188 4831 -125 
L 5356 -125 
Q 5669 -125 5981 -106 
z
M 4063 594 
Q 3788 1425 3425 2219 
L 3856 2419 
Q 4225 1600 4513 744 
L 4063 594 
z
M 3163 363 
Q 2931 1200 2613 2006 
L 3056 2175 
Q 3381 1350 3619 488 
L 3163 363 
z
M 4581 2550 
L 3513 2550 
Q 3200 2550 2888 2538 
Q 2900 2663 2894 2769 
Q 2569 2488 2206 2300 
Q 2113 2550 1894 2700 
Q 2488 2975 2975 3463 
Q 3269 3756 3394 4006 
Q 3644 4513 3794 5063 
Q 4038 4975 4294 4931 
Q 4250 4806 4206 4681 
Q 4475 3888 5025 3388 
Q 5519 2938 6169 2650 
Q 5938 2538 5838 2300 
Q 5513 2456 5200 2700 
Q 5200 2619 5206 2538 
Q 4894 2550 4581 2550 
z
M 3513 2863 
L 4994 2869 
Q 4344 3438 3988 4194 
Q 3594 3406 3013 2869 
Q 3263 2863 3513 2863 
z
M 206 444 
Q 188 756 44 963 
Q 319 956 650 1003 
Q 981 1050 1731 1281 
L 1738 1006 
Q 800 719 206 444 
z
M 525 4000 
Q 744 3950 994 3944 
Q 925 3519 875 3081 
L 763 2144 
L 1475 2144 
L 1831 4444 
L 663 4444 
Q 350 4444 38 4431 
Q 56 4600 38 4769 
Q 350 4756 663 4756 
L 2313 4756 
L 1913 2144 
L 2375 2144 
L 2200 -200 
Q 2188 -425 1988 -588 
Q 1694 -800 1181 -788 
L 944 -788 
Q 1000 -450 788 -269 
Q 1013 -294 1334 -287 
Q 1656 -281 1715 -243 
Q 1775 -206 1781 -50 
L 1925 1831 
L 294 1831 
L 444 3131 
Q 500 3569 525 4000 
z
" transform="scale(0.015625)"/>
      </defs>
      <use xlink:href="#WenQuanYiZenHei-6821"/>
      <use xlink:href="#WenQuanYiZenHei-9a8c" x="100"/>
      <use xlink:href="#WenQuanYiZenHei-503c" x="200"/>
     </g>
    </g>
    <g id="line2d_25">
     <path d="M 47.1875 77.91975 
L 57.1875 77.91975 
L 67.1875 77.91975 
" style="fill: none; stroke: #ff0000; stroke-width: 1.5; stroke-linecap: square"/>
    </g>
    <g id="text_23">
     <!-- 预测值 -->
     <g transform="translate(75.1875 81.41975)scale(0.1 -0.1)">
      <use xlink:href="#WenQuanYiZenHei-9884"/>
      <use xlink:href="#WenQuanYiZenHei-6d4b" x="100"/>
      <use xlink:href="#WenQuanYiZenHei-503c" x="200"/>
     </g>
    </g>
   </g>
  </g>
 </g>
 <defs>
  <clipPath id="p8b2360deec">
   <rect x="38.1875" y="35.085375" width="1339.2" height="332.64"/>
  </clipPath>
 </defs>
</svg>
