<?xml version="1.0" encoding="utf-8" standalone="no"?>
<!DOCTYPE svg PUBLIC "-//W3C//DTD SVG 1.1//EN"
  "http://www.w3.org/Graphics/SVG/1.1/DTD/svg11.dtd">
<svg xmlns:xlink="http://www.w3.org/1999/xlink" width="1384.5875pt" height="390.442563pt" viewBox="0 0 1384.5875 390.442563" xmlns="http://www.w3.org/2000/svg" version="1.1">
 <metadata>
  <rdf:RDF xmlns:dc="http://purl.org/dc/elements/1.1/" xmlns:cc="http://creativecommons.org/ns#" xmlns:rdf="http://www.w3.org/1999/02/22-rdf-syntax-ns#">
   <cc:Work>
    <dc:type rdf:resource="http://purl.org/dc/dcmitype/StillImage"/>
    <dc:date>2022-06-20T18:13:38.817178</dc:date>
    <dc:format>image/svg+xml</dc:format>
    <dc:creator>
     <cc:Agent>
      <dc:title>Matplotlib v3.5.2, https://matplotlib.org/</dc:title>
     </cc:Agent>
    </dc:creator>
   </cc:Work>
  </rdf:RDF>
 </metadata>
 <defs>
  <style type="text/css">*{stroke-linejoin: round; stroke-linecap: butt}</style>
 </defs>
 <g id="figure_1">
  <g id="patch_1">
   <path d="M 0 390.442563 
L 1384.5875 390.442563 
L 1384.5875 0 
L 0 0 
z
" style="fill: #ffffff"/>
  </g>
  <g id="axes_1">
   <g id="patch_2">
    <path d="M 38.1875 367.725375 
L 1377.3875 367.725375 
L 1377.3875 35.085375 
L 38.1875 35.085375 
z
" style="fill: #ffffff"/>
   </g>
   <g id="matplotlib.axis_1">
    <g id="xtick_1">
     <g id="line2d_1">
      <defs>
       <path id="m1217bce29b" d="M 0 0 
L 0 3.5 
" style="stroke: #000000; stroke-width: 0.8"/>
      </defs>
      <g>
       <use xlink:href="#m1217bce29b" x="70.398181" y="367.725375" style="stroke: #000000; stroke-width: 0.8"/>
      </g>
     </g>
     <g id="text_1">
      <!-- 2020-01 -->
      <g transform="translate(50.908337 381.581625)scale(0.1 -0.1)">
       <defs>
        <path id="WenQuanYiZenHei-32" d="M 3488 0 
L 369 0 
L 369 456 
L 2150 1850 
Q 2931 2463 2931 3144 
Q 2931 3619 2488 3863 
Q 2231 4013 1931 4013 
Q 1425 4013 1113 3619 
Q 894 3356 881 3013 
L 369 3169 
Q 531 3981 1213 4300 
Q 1544 4456 1950 4456 
Q 2631 4456 3088 4044 
L 3225 3888 
L 3350 3706 
Q 3481 3444 3481 3144 
Q 3481 2313 2519 1569 
L 1069 456 
L 3488 456 
L 3488 0 
z
" transform="scale(0.015625)"/>
        <path id="WenQuanYiZenHei-30" d="M 3581 2175 
Q 3581 1288 3169 638 
Q 2713 -63 1938 -63 
Q 1025 -63 563 831 
Q 256 1425 256 2188 
Q 256 3188 700 3819 
Q 1138 4456 1888 4456 
Q 2863 4456 3306 3500 
Q 3581 2925 3581 2175 
z
M 3019 2100 
Q 3019 3356 2500 3806 
L 2350 3919 
Q 2144 4031 1888 4031 
Q 1100 4031 888 2956 
Q 819 2625 819 2225 
Q 819 1013 1338 569 
Q 1588 356 1938 356 
Q 2675 356 2925 1294 
Q 3019 1663 3019 2100 
z
" transform="scale(0.015625)"/>
        <path id="WenQuanYiZenHei-2d" d="M 1363 1444 
L 0 1444 
L 0 1844 
L 1363 1844 
L 1363 1444 
z
" transform="scale(0.015625)"/>
        <path id="WenQuanYiZenHei-31" d="M 3556 0 
L 488 0 
L 488 406 
L 1800 406 
L 1800 3725 
Q 1231 3125 588 2788 
L 588 3338 
Q 1456 3781 1931 4388 
L 2331 4388 
L 2331 406 
L 3556 406 
L 3556 0 
z
" transform="scale(0.015625)"/>
       </defs>
       <use xlink:href="#WenQuanYiZenHei-32"/>
       <use xlink:href="#WenQuanYiZenHei-30" x="59.960938"/>
       <use xlink:href="#WenQuanYiZenHei-32" x="119.921875"/>
       <use xlink:href="#WenQuanYiZenHei-30" x="179.882812"/>
       <use xlink:href="#WenQuanYiZenHei-2d" x="239.84375"/>
       <use xlink:href="#WenQuanYiZenHei-30" x="269.824219"/>
       <use xlink:href="#WenQuanYiZenHei-31" x="329.785156"/>
      </g>
     </g>
    </g>
    <g id="xtick_2">
     <g id="line2d_2">
      <g>
       <use xlink:href="#m1217bce29b" x="194.600382" y="367.725375" style="stroke: #000000; stroke-width: 0.8"/>
      </g>
     </g>
     <g id="text_2">
      <!-- 2020-04 -->
      <g transform="translate(175.110538 381.581625)scale(0.1 -0.1)">
       <defs>
        <path id="WenQuanYiZenHei-34" d="M 3631 1025 
L 2913 1025 
L 2913 0 
L 2381 0 
L 2381 1025 
L 219 1025 
L 219 1388 
L 2225 4388 
L 2913 4388 
L 2913 1444 
L 3631 1444 
L 3631 1025 
z
M 2381 1444 
L 2381 3963 
L 788 1444 
L 2381 1444 
z
" transform="scale(0.015625)"/>
       </defs>
       <use xlink:href="#WenQuanYiZenHei-32"/>
       <use xlink:href="#WenQuanYiZenHei-30" x="59.960938"/>
       <use xlink:href="#WenQuanYiZenHei-32" x="119.921875"/>
       <use xlink:href="#WenQuanYiZenHei-30" x="179.882812"/>
       <use xlink:href="#WenQuanYiZenHei-2d" x="239.84375"/>
       <use xlink:href="#WenQuanYiZenHei-30" x="269.824219"/>
       <use xlink:href="#WenQuanYiZenHei-34" x="329.785156"/>
      </g>
     </g>
    </g>
    <g id="xtick_3">
     <g id="line2d_3">
      <g>
       <use xlink:href="#m1217bce29b" x="318.802584" y="367.725375" style="stroke: #000000; stroke-width: 0.8"/>
      </g>
     </g>
     <g id="text_3">
      <!-- 2020-07 -->
      <g transform="translate(299.31274 381.581625)scale(0.1 -0.1)">
       <defs>
        <path id="WenQuanYiZenHei-37" d="M 3400 4056 
Q 1838 2175 1838 0 
L 1275 0 
Q 1269 1438 2056 2825 
Q 2381 3400 2825 3913 
L 444 3913 
L 500 4388 
L 3400 4388 
L 3400 4056 
z
" transform="scale(0.015625)"/>
       </defs>
       <use xlink:href="#WenQuanYiZenHei-32"/>
       <use xlink:href="#WenQuanYiZenHei-30" x="59.960938"/>
       <use xlink:href="#WenQuanYiZenHei-32" x="119.921875"/>
       <use xlink:href="#WenQuanYiZenHei-30" x="179.882812"/>
       <use xlink:href="#WenQuanYiZenHei-2d" x="239.84375"/>
       <use xlink:href="#WenQuanYiZenHei-30" x="269.824219"/>
       <use xlink:href="#WenQuanYiZenHei-37" x="329.785156"/>
      </g>
     </g>
    </g>
    <g id="xtick_4">
     <g id="line2d_4">
      <g>
       <use xlink:href="#m1217bce29b" x="444.369644" y="367.725375" style="stroke: #000000; stroke-width: 0.8"/>
      </g>
     </g>
     <g id="text_4">
      <!-- 2020-10 -->
      <g transform="translate(424.879801 381.581625)scale(0.1 -0.1)">
       <use xlink:href="#WenQuanYiZenHei-32"/>
       <use xlink:href="#WenQuanYiZenHei-30" x="59.960938"/>
       <use xlink:href="#WenQuanYiZenHei-32" x="119.921875"/>
       <use xlink:href="#WenQuanYiZenHei-30" x="179.882812"/>
       <use xlink:href="#WenQuanYiZenHei-2d" x="239.84375"/>
       <use xlink:href="#WenQuanYiZenHei-31" x="269.824219"/>
       <use xlink:href="#WenQuanYiZenHei-30" x="329.785156"/>
      </g>
     </g>
    </g>
    <g id="xtick_5">
     <g id="line2d_5">
      <g>
       <use xlink:href="#m1217bce29b" x="569.936705" y="367.725375" style="stroke: #000000; stroke-width: 0.8"/>
      </g>
     </g>
     <g id="text_5">
      <!-- 2021-01 -->
      <g transform="translate(550.446861 381.581625)scale(0.1 -0.1)">
       <use xlink:href="#WenQuanYiZenHei-32"/>
       <use xlink:href="#WenQuanYiZenHei-30" x="59.960938"/>
       <use xlink:href="#WenQuanYiZenHei-32" x="119.921875"/>
       <use xlink:href="#WenQuanYiZenHei-31" x="179.882812"/>
       <use xlink:href="#WenQuanYiZenHei-2d" x="239.84375"/>
       <use xlink:href="#WenQuanYiZenHei-30" x="269.824219"/>
       <use xlink:href="#WenQuanYiZenHei-31" x="329.785156"/>
      </g>
     </g>
    </g>
    <g id="xtick_6">
     <g id="line2d_6">
      <g>
       <use xlink:href="#m1217bce29b" x="692.774047" y="367.725375" style="stroke: #000000; stroke-width: 0.8"/>
      </g>
     </g>
     <g id="text_6">
      <!-- 2021-04 -->
      <g transform="translate(673.284203 381.581625)scale(0.1 -0.1)">
       <use xlink:href="#WenQuanYiZenHei-32"/>
       <use xlink:href="#WenQuanYiZenHei-30" x="59.960938"/>
       <use xlink:href="#WenQuanYiZenHei-32" x="119.921875"/>
       <use xlink:href="#WenQuanYiZenHei-31" x="179.882812"/>
       <use xlink:href="#WenQuanYiZenHei-2d" x="239.84375"/>
       <use xlink:href="#WenQuanYiZenHei-30" x="269.824219"/>
       <use xlink:href="#WenQuanYiZenHei-34" x="329.785156"/>
      </g>
     </g>
    </g>
    <g id="xtick_7">
     <g id="line2d_7">
      <g>
       <use xlink:href="#m1217bce29b" x="816.976248" y="367.725375" style="stroke: #000000; stroke-width: 0.8"/>
      </g>
     </g>
     <g id="text_7">
      <!-- 2021-07 -->
      <g transform="translate(797.486405 381.581625)scale(0.1 -0.1)">
       <use xlink:href="#WenQuanYiZenHei-32"/>
       <use xlink:href="#WenQuanYiZenHei-30" x="59.960938"/>
       <use xlink:href="#WenQuanYiZenHei-32" x="119.921875"/>
       <use xlink:href="#WenQuanYiZenHei-31" x="179.882812"/>
       <use xlink:href="#WenQuanYiZenHei-2d" x="239.84375"/>
       <use xlink:href="#WenQuanYiZenHei-30" x="269.824219"/>
       <use xlink:href="#WenQuanYiZenHei-37" x="329.785156"/>
      </g>
     </g>
    </g>
    <g id="xtick_8">
     <g id="line2d_8">
      <g>
       <use xlink:href="#m1217bce29b" x="942.543309" y="367.725375" style="stroke: #000000; stroke-width: 0.8"/>
      </g>
     </g>
     <g id="text_8">
      <!-- 2021-10 -->
      <g transform="translate(923.053465 381.581625)scale(0.1 -0.1)">
       <use xlink:href="#WenQuanYiZenHei-32"/>
       <use xlink:href="#WenQuanYiZenHei-30" x="59.960938"/>
       <use xlink:href="#WenQuanYiZenHei-32" x="119.921875"/>
       <use xlink:href="#WenQuanYiZenHei-31" x="179.882812"/>
       <use xlink:href="#WenQuanYiZenHei-2d" x="239.84375"/>
       <use xlink:href="#WenQuanYiZenHei-31" x="269.824219"/>
       <use xlink:href="#WenQuanYiZenHei-30" x="329.785156"/>
      </g>
     </g>
    </g>
    <g id="xtick_9">
     <g id="line2d_9">
      <g>
       <use xlink:href="#m1217bce29b" x="1068.11037" y="367.725375" style="stroke: #000000; stroke-width: 0.8"/>
      </g>
     </g>
     <g id="text_9">
      <!-- 2022-01 -->
      <g transform="translate(1048.620526 381.581625)scale(0.1 -0.1)">
       <use xlink:href="#WenQuanYiZenHei-32"/>
       <use xlink:href="#WenQuanYiZenHei-30" x="59.960938"/>
       <use xlink:href="#WenQuanYiZenHei-32" x="119.921875"/>
       <use xlink:href="#WenQuanYiZenHei-32" x="179.882812"/>
       <use xlink:href="#WenQuanYiZenHei-2d" x="239.84375"/>
       <use xlink:href="#WenQuanYiZenHei-30" x="269.824219"/>
       <use xlink:href="#WenQuanYiZenHei-31" x="329.785156"/>
      </g>
     </g>
    </g>
    <g id="xtick_10">
     <g id="line2d_10">
      <g>
       <use xlink:href="#m1217bce29b" x="1190.947712" y="367.725375" style="stroke: #000000; stroke-width: 0.8"/>
      </g>
     </g>
     <g id="text_10">
      <!-- 2022-04 -->
      <g transform="translate(1171.457868 381.581625)scale(0.1 -0.1)">
       <use xlink:href="#WenQuanYiZenHei-32"/>
       <use xlink:href="#WenQuanYiZenHei-30" x="59.960938"/>
       <use xlink:href="#WenQuanYiZenHei-32" x="119.921875"/>
       <use xlink:href="#WenQuanYiZenHei-32" x="179.882812"/>
       <use xlink:href="#WenQuanYiZenHei-2d" x="239.84375"/>
       <use xlink:href="#WenQuanYiZenHei-30" x="269.824219"/>
       <use xlink:href="#WenQuanYiZenHei-34" x="329.785156"/>
      </g>
     </g>
    </g>
    <g id="xtick_11">
     <g id="line2d_11">
      <g>
       <use xlink:href="#m1217bce29b" x="1315.149913" y="367.725375" style="stroke: #000000; stroke-width: 0.8"/>
      </g>
     </g>
     <g id="text_11">
      <!-- 2022-07 -->
      <g transform="translate(1295.66007 381.581625)scale(0.1 -0.1)">
       <use xlink:href="#WenQuanYiZenHei-32"/>
       <use xlink:href="#WenQuanYiZenHei-30" x="59.960938"/>
       <use xlink:href="#WenQuanYiZenHei-32" x="119.921875"/>
       <use xlink:href="#WenQuanYiZenHei-32" x="179.882812"/>
       <use xlink:href="#WenQuanYiZenHei-2d" x="239.84375"/>
       <use xlink:href="#WenQuanYiZenHei-30" x="269.824219"/>
       <use xlink:href="#WenQuanYiZenHei-37" x="329.785156"/>
      </g>
     </g>
    </g>
   </g>
   <g id="matplotlib.axis_2">
    <g id="ytick_1">
     <g id="line2d_12">
      <defs>
       <path id="mfd0bd72ab4" d="M 0 0 
L -3.5 0 
" style="stroke: #000000; stroke-width: 0.8"/>
      </defs>
      <g>
       <use xlink:href="#mfd0bd72ab4" x="38.1875" y="352.692441" style="stroke: #000000; stroke-width: 0.8"/>
      </g>
     </g>
     <g id="text_12">
      <!-- 0 -->
      <g transform="translate(25.190625 356.120566)scale(0.1 -0.1)">
       <use xlink:href="#WenQuanYiZenHei-30"/>
      </g>
     </g>
    </g>
    <g id="ytick_2">
     <g id="line2d_13">
      <g>
       <use xlink:href="#mfd0bd72ab4" x="38.1875" y="309.159436" style="stroke: #000000; stroke-width: 0.8"/>
      </g>
     </g>
     <g id="text_13">
      <!-- 500 -->
      <g transform="translate(13.196875 312.587561)scale(0.1 -0.1)">
       <defs>
        <path id="WenQuanYiZenHei-35" d="M 3531 1488 
Q 3531 688 2913 250 
Q 2456 -63 1844 -63 
Q 1175 -63 706 350 
Q 413 613 306 975 
L 781 1131 
Q 1000 538 1569 406 
Q 1706 369 1856 369 
Q 2550 369 2850 869 
Q 3000 1131 3000 1494 
Q 3000 2056 2581 2356 
Q 2319 2538 1969 2538 
Q 1400 2538 1031 2075 
Q 981 2013 938 1938 
L 500 2031 
L 644 4388 
L 3244 4388 
L 3200 3919 
L 1044 3919 
L 950 2500 
Q 1431 2975 2006 2975 
Q 2713 2975 3163 2475 
Q 3531 2063 3531 1488 
z
" transform="scale(0.015625)"/>
       </defs>
       <use xlink:href="#WenQuanYiZenHei-35"/>
       <use xlink:href="#WenQuanYiZenHei-30" x="59.960938"/>
       <use xlink:href="#WenQuanYiZenHei-30" x="119.921875"/>
      </g>
     </g>
    </g>
    <g id="ytick_3">
     <g id="line2d_14">
      <g>
       <use xlink:href="#mfd0bd72ab4" x="38.1875" y="265.626431" style="stroke: #000000; stroke-width: 0.8"/>
      </g>
     </g>
     <g id="text_14">
      <!-- 1000 -->
      <g transform="translate(7.2 269.054556)scale(0.1 -0.1)">
       <use xlink:href="#WenQuanYiZenHei-31"/>
       <use xlink:href="#WenQuanYiZenHei-30" x="59.960938"/>
       <use xlink:href="#WenQuanYiZenHei-30" x="119.921875"/>
       <use xlink:href="#WenQuanYiZenHei-30" x="179.882812"/>
      </g>
     </g>
    </g>
    <g id="ytick_4">
     <g id="line2d_15">
      <g>
       <use xlink:href="#mfd0bd72ab4" x="38.1875" y="222.093426" style="stroke: #000000; stroke-width: 0.8"/>
      </g>
     </g>
     <g id="text_15">
      <!-- 1500 -->
      <g transform="translate(7.2 225.521551)scale(0.1 -0.1)">
       <use xlink:href="#WenQuanYiZenHei-31"/>
       <use xlink:href="#WenQuanYiZenHei-35" x="59.960938"/>
       <use xlink:href="#WenQuanYiZenHei-30" x="119.921875"/>
       <use xlink:href="#WenQuanYiZenHei-30" x="179.882812"/>
      </g>
     </g>
    </g>
    <g id="ytick_5">
     <g id="line2d_16">
      <g>
       <use xlink:href="#mfd0bd72ab4" x="38.1875" y="178.560421" style="stroke: #000000; stroke-width: 0.8"/>
      </g>
     </g>
     <g id="text_16">
      <!-- 2000 -->
      <g transform="translate(7.2 181.988546)scale(0.1 -0.1)">
       <use xlink:href="#WenQuanYiZenHei-32"/>
       <use xlink:href="#WenQuanYiZenHei-30" x="59.960938"/>
       <use xlink:href="#WenQuanYiZenHei-30" x="119.921875"/>
       <use xlink:href="#WenQuanYiZenHei-30" x="179.882812"/>
      </g>
     </g>
    </g>
    <g id="ytick_6">
     <g id="line2d_17">
      <g>
       <use xlink:href="#mfd0bd72ab4" x="38.1875" y="135.027416" style="stroke: #000000; stroke-width: 0.8"/>
      </g>
     </g>
     <g id="text_17">
      <!-- 2500 -->
      <g transform="translate(7.2 138.455541)scale(0.1 -0.1)">
       <use xlink:href="#WenQuanYiZenHei-32"/>
       <use xlink:href="#WenQuanYiZenHei-35" x="59.960938"/>
       <use xlink:href="#WenQuanYiZenHei-30" x="119.921875"/>
       <use xlink:href="#WenQuanYiZenHei-30" x="179.882812"/>
      </g>
     </g>
    </g>
    <g id="ytick_7">
     <g id="line2d_18">
      <g>
       <use xlink:href="#mfd0bd72ab4" x="38.1875" y="91.494411" style="stroke: #000000; stroke-width: 0.8"/>
      </g>
     </g>
     <g id="text_18">
      <!-- 3000 -->
      <g transform="translate(7.2 94.922536)scale(0.1 -0.1)">
       <defs>
        <path id="WenQuanYiZenHei-33" d="M 3588 1231 
Q 3588 494 2875 144 
Q 2450 -63 1925 -63 
Q 1044 -63 556 488 
Q 356 706 256 1000 
L 769 1169 
Q 994 375 1913 375 
Q 2631 375 2900 788 
Q 3019 975 3019 1231 
Q 3019 1638 2638 1881 
Q 2325 2081 1613 2069 
L 1338 2069 
L 1338 2494 
Q 1969 2494 2094 2506 
Q 2325 2544 2463 2613 
Q 2763 2756 2844 3100 
Q 2863 3169 2863 3244 
Q 2863 3744 2381 3944 
L 2163 4006 
Q 2056 4025 1931 4025 
Q 1388 4025 1075 3631 
Q 969 3488 906 3313 
L 419 3456 
Q 675 4150 1400 4369 
Q 1669 4456 1975 4456 
Q 2694 4456 3106 4050 
Q 3419 3744 3419 3275 
Q 3419 2813 3025 2513 
Q 2825 2356 2575 2319 
L 2575 2306 
Q 3181 2213 3450 1769 
Q 3588 1525 3588 1231 
z
" transform="scale(0.015625)"/>
       </defs>
       <use xlink:href="#WenQuanYiZenHei-33"/>
       <use xlink:href="#WenQuanYiZenHei-30" x="59.960938"/>
       <use xlink:href="#WenQuanYiZenHei-30" x="119.921875"/>
       <use xlink:href="#WenQuanYiZenHei-30" x="179.882812"/>
      </g>
     </g>
    </g>
    <g id="ytick_8">
     <g id="line2d_19">
      <g>
       <use xlink:href="#mfd0bd72ab4" x="38.1875" y="47.961406" style="stroke: #000000; stroke-width: 0.8"/>
      </g>
     </g>
     <g id="text_19">
      <!-- 3500 -->
      <g transform="translate(7.2 51.389531)scale(0.1 -0.1)">
       <use xlink:href="#WenQuanYiZenHei-33"/>
       <use xlink:href="#WenQuanYiZenHei-35" x="59.960938"/>
       <use xlink:href="#WenQuanYiZenHei-30" x="119.921875"/>
       <use xlink:href="#WenQuanYiZenHei-30" x="179.882812"/>
      </g>
     </g>
    </g>
   </g>
   <g id="line2d_20">
    <path d="M 99.060227 352.605375 
L 101.789946 351.821781 
L 103.154805 351.125253 
L 104.519665 349.645131 
L 105.884524 347.555546 
L 107.249383 345.72716 
L 108.614243 345.378896 
L 109.979102 343.898774 
L 111.343961 342.24452 
L 112.708821 340.154936 
L 114.07368 338.848945 
L 115.43854 337.107625 
L 116.803399 335.801635 
L 119.533118 333.973249 
L 120.897977 333.189655 
L 122.262836 331.883665 
L 124.992555 329.968212 
L 129.087133 328.401024 
L 130.451992 328.226892 
L 131.816852 327.878628 
L 137.276289 327.1821 
L 146.830305 327.095034 
L 148.195164 326.920902 
L 176.857211 326.920902 
L 179.586929 326.31144 
L 180.951789 325.44078 
L 182.316648 325.44078 
L 186.411226 324.13479 
L 187.776085 323.873592 
L 189.140945 323.351196 
L 191.870663 323.089998 
L 194.600382 322.654668 
L 195.965242 322.654668 
L 197.330101 322.306403 
L 200.05982 322.219337 
L 208.248976 322.132271 
L 212.343554 321.958139 
L 216.438132 321.871073 
L 219.167851 321.784007 
L 266.937928 321.696941 
L 271.032506 321.522809 
L 288.775678 321.435743 
L 292.870256 321.261611 
L 302.424271 321.174545 
L 305.15399 321.087479 
L 350.194349 321.000413 
L 354.288927 320.826281 
L 373.396958 320.739215 
L 376.126677 320.652149 
L 380.221255 320.565083 
L 382.950973 320.478017 
L 388.410411 320.390951 
L 389.77527 320.303885 
L 391.140129 320.042687 
L 396.599567 319.955621 
L 402.059004 319.346159 
L 406.153582 319.259093 
L 411.61302 318.997895 
L 418.437317 318.910829 
L 419.802176 318.736697 
L 421.167035 318.736697 
L 422.531895 318.562565 
L 425.261613 318.475499 
L 430.721051 318.214301 
L 436.180488 318.127235 
L 437.545348 317.778971 
L 440.275066 317.517773 
L 441.639926 317.082443 
L 443.004785 317.082443 
L 444.369644 316.908311 
L 447.099363 316.908311 
L 448.464222 316.734179 
L 455.288519 316.647113 
L 459.383097 316.472981 
L 467.572253 316.385915 
L 471.666831 316.124717 
L 473.031691 315.515255 
L 474.39655 315.341123 
L 477.126269 315.254057 
L 481.220847 315.079925 
L 482.585706 314.731661 
L 486.680284 314.644595 
L 488.045144 314.296331 
L 492.139722 313.861001 
L 493.504581 313.077406 
L 503.058597 312.55501 
L 508.518034 312.55501 
L 509.882893 312.380878 
L 511.247753 311.858482 
L 512.612612 311.858482 
L 513.977471 311.510218 
L 515.342331 311.423152 
L 516.70719 311.074888 
L 522.166628 310.639558 
L 523.531487 310.291294 
L 524.896346 310.291294 
L 527.626065 310.030096 
L 528.990924 310.030096 
L 531.720643 309.768898 
L 533.085502 309.246502 
L 535.815221 309.159436 
L 539.909799 309.07237 
L 542.639518 308.985304 
L 549.463815 308.898238 
L 556.288111 308.549974 
L 563.112408 308.462908 
L 569.936705 308.027578 
L 571.301564 307.76638 
L 575.396142 307.592248 
L 578.125861 307.505182 
L 579.490721 307.418116 
L 580.85558 306.89572 
L 586.315017 306.634522 
L 589.044736 306.634522 
L 591.774455 306.373324 
L 595.869033 306.286258 
L 598.598752 306.199192 
L 601.32847 306.112126 
L 604.058189 306.02506 
L 606.787908 306.02506 
L 609.517626 305.58973 
L 613.612204 305.58973 
L 614.977064 305.328532 
L 617.706783 305.241466 
L 621.801361 305.154399 
L 625.895939 304.980267 
L 646.368829 304.893201 
L 647.733688 304.719069 
L 661.382282 304.632003 
L 664.112001 304.544937 
L 665.47686 304.544937 
L 668.206579 304.283739 
L 676.395735 304.196673 
L 677.760594 304.022541 
L 688.679469 303.935475 
L 691.409188 303.848409 
L 692.774047 303.848409 
L 694.138906 303.064815 
L 699.598344 302.803617 
L 702.328063 302.716551 
L 703.692922 302.542419 
L 705.057781 302.542419 
L 706.422641 302.194155 
L 711.882078 301.932957 
L 715.976656 301.845891 
L 717.341515 301.671759 
L 722.800953 301.671759 
L 724.165812 301.410561 
L 726.895531 301.323495 
L 730.990109 301.236429 
L 735.084687 301.062297 
L 739.179265 301.062297 
L 740.544125 300.888165 
L 744.638703 300.888165 
L 746.003562 300.714033 
L 754.192718 300.626967 
L 756.922437 300.539901 
L 758.287296 300.539901 
L 759.652156 299.582175 
L 761.017015 299.582175 
L 765.111593 299.146845 
L 778.760187 298.276185 
L 780.125046 298.014987 
L 796.503358 296.883129 
L 799.233077 296.099534 
L 801.962796 295.925402 
L 803.327655 295.31594 
L 807.422233 295.141808 
L 811.516811 294.184082 
L 818.341108 292.965158 
L 819.705967 292.791026 
L 822.435686 292.70396 
L 827.895123 292.442762 
L 829.259983 292.442762 
L 830.624842 292.094498 
L 833.354561 291.8333 
L 836.084279 291.746234 
L 838.813998 291.049706 
L 844.273436 290.788508 
L 845.638295 290.788508 
L 849.732873 289.65665 
L 851.097732 289.65665 
L 856.55717 288.611858 
L 857.922029 288.524792 
L 859.286889 288.176528 
L 860.651748 288.002396 
L 862.016607 287.567065 
L 863.381467 287.305867 
L 868.840904 287.305867 
L 870.205763 287.044669 
L 874.300341 286.957603 
L 875.665201 285.999877 
L 877.03006 285.912811 
L 878.394919 285.564547 
L 879.759779 285.564547 
L 881.124638 285.390415 
L 882.489498 285.042151 
L 885.219216 284.780953 
L 887.948935 284.780953 
L 889.313794 284.606821 
L 893.408372 284.519755 
L 907.056966 283.649095 
L 908.421825 283.300831 
L 909.786685 283.300831 
L 913.881263 282.778435 
L 916.610981 279.034596 
L 917.975841 273.810636 
L 920.70556 265.191101 
L 922.070419 259.880074 
L 923.435278 257.181028 
L 924.800138 253.437189 
L 926.164997 250.912275 
L 927.529856 247.081371 
L 928.894716 245.775381 
L 930.259575 244.03406 
L 931.624434 242.641004 
L 932.989294 242.379806 
L 934.354153 241.944476 
L 937.083872 241.596212 
L 938.448731 241.160882 
L 941.17845 241.073816 
L 942.543309 241.073816 
L 943.908169 240.638486 
L 945.273028 240.638486 
L 948.002747 240.377288 
L 952.097325 240.290222 
L 957.556762 240.029024 
L 965.745918 239.941958 
L 968.475637 239.854892 
L 969.840496 239.854892 
L 971.205356 239.68076 
L 975.299934 239.593694 
L 983.48909 238.984232 
L 984.853949 238.8101 
L 988.948527 238.8101 
L 990.313387 238.548902 
L 995.772824 238.287704 
L 998.502543 238.200638 
L 1003.96198 237.93944 
L 1014.880855 237.852374 
L 1017.610574 237.765308 
L 1023.070011 237.678242 
L 1025.79973 237.591176 
L 1032.624027 237.50411 
L 1033.988886 237.242912 
L 1035.353745 237.155846 
L 1036.718605 236.894648 
L 1040.813183 236.807582 
L 1042.178042 236.63345 
L 1043.542902 236.63345 
L 1044.907761 236.372252 
L 1047.63748 236.372252 
L 1049.002339 236.023987 
L 1050.367198 236.023987 
L 1051.732058 235.588657 
L 1055.826636 235.501591 
L 1057.191495 235.414525 
L 1058.556354 235.153327 
L 1059.921214 235.153327 
L 1062.650933 234.805063 
L 1064.015792 234.456799 
L 1065.380651 234.369733 
L 1066.745511 234.021469 
L 1068.11037 233.237875 
L 1069.475229 233.237875 
L 1070.840089 232.280149 
L 1073.569807 231.148291 
L 1074.934667 231.061225 
L 1076.299526 230.712961 
L 1077.664385 229.929367 
L 1079.029245 229.494037 
L 1080.394104 228.623377 
L 1085.853542 227.317386 
L 1094.042698 226.79499 
L 1095.407557 226.446726 
L 1100.866994 226.185528 
L 1106.326432 226.098462 
L 1109.056151 226.011396 
L 1114.515588 225.92433 
L 1115.880447 225.663132 
L 1121.339885 225.314868 
L 1122.704744 224.444208 
L 1124.069604 223.225284 
L 1125.434463 223.138218 
L 1126.799322 222.702888 
L 1128.164182 222.00636 
L 1129.529041 221.483964 
L 1132.25876 220.961568 
L 1133.623619 220.961568 
L 1136.353338 220.352106 
L 1137.718197 219.481446 
L 1139.083056 219.307314 
L 1140.447916 218.784917 
L 1141.812775 218.436653 
L 1143.177635 217.827191 
L 1144.542494 217.391861 
L 1145.907353 217.391861 
L 1147.272213 216.782399 
L 1148.637072 216.695333 
L 1150.001931 216.347069 
L 1151.366791 216.172937 
L 1152.73165 214.779881 
L 1154.096509 214.605749 
L 1156.826228 214.518683 
L 1159.555947 214.257485 
L 1163.650525 213.996287 
L 1165.015384 213.038561 
L 1166.380244 209.642986 
L 1167.745103 209.642986 
L 1170.474822 188.573012 
L 1171.839681 188.573012 
L 1173.20454 157.055116 
L 1174.5694 143.124555 
L 1177.299118 123.012306 
L 1178.663978 116.743554 
L 1180.028837 115.176365 
L 1181.393696 114.741035 
L 1182.758556 114.653969 
L 1184.123415 113.609177 
L 1188.217993 110.910131 
L 1189.582853 110.910131 
L 1190.947712 109.168811 
L 1192.312571 108.211085 
L 1193.677431 106.55683 
L 1196.407149 105.076708 
L 1199.136868 101.245804 
L 1200.501727 100.810474 
L 1201.866587 99.765682 
L 1203.231446 98.982088 
L 1205.961165 97.676097 
L 1207.326024 96.544239 
L 1208.690884 95.151183 
L 1210.055743 93.322797 
L 1211.420602 93.061599 
L 1215.51518 92.713335 
L 1216.88004 92.365071 
L 1219.609758 91.407345 
L 1220.974618 91.320279 
L 1223.704337 90.797883 
L 1226.434055 90.536685 
L 1231.893493 89.578958 
L 1233.258352 88.795364 
L 1234.623211 88.4471 
L 1235.988071 88.272968 
L 1237.35293 87.054044 
L 1238.717789 86.879912 
L 1241.447508 86.096318 
L 1242.812368 85.922186 
L 1244.177227 84.790328 
L 1245.542086 84.442064 
L 1246.906946 83.136074 
L 1248.271805 81.568886 
L 1251.001524 80.349961 
L 1253.731242 78.695707 
L 1255.096102 78.086245 
L 1257.82582 76.519057 
L 1259.19068 75.909595 
L 1260.555539 75.126001 
L 1261.920398 74.690671 
L 1263.285258 73.994143 
L 1264.650117 73.036417 
L 1266.014977 72.339888 
L 1267.379836 71.295096 
L 1268.744695 69.989106 
L 1270.109555 69.640842 
L 1271.474414 69.03138 
L 1272.839273 68.683116 
L 1274.204133 68.683116 
L 1275.568992 67.899522 
L 1276.933851 66.680598 
L 1278.298711 66.680598 
L 1279.66357 65.809938 
L 1281.028429 65.200476 
L 1282.393289 64.416882 
L 1283.758148 64.068618 
L 1285.123008 63.894486 
L 1286.487867 63.546221 
L 1287.852726 63.023825 
L 1289.217586 62.762627 
L 1290.582445 62.153165 
L 1291.947304 61.717835 
L 1293.312164 61.108373 
L 1294.677023 60.237713 
L 1296.041882 59.889449 
L 1297.406742 59.105855 
L 1298.771601 58.496393 
L 1298.771601 58.496393 
" clip-path="url(#p1bd42ed3c8)" style="fill: none; stroke: #0000ff; stroke-width: 1.5; stroke-linecap: square"/>
   </g>
   <g id="line2d_21">
    <path d="M 1059.921214 235.033149 
L 1061.286073 234.790002 
L 1062.650933 234.707778 
L 1064.015792 234.205003 
L 1065.380651 234.136095 
L 1066.745511 233.763474 
L 1068.11037 232.842281 
L 1069.475229 232.794896 
L 1070.840089 231.648786 
L 1072.204948 231.201613 
L 1073.569807 230.351831 
L 1074.934667 230.632897 
L 1076.299526 230.524028 
L 1077.664385 229.582497 
L 1079.029245 228.959204 
L 1080.394104 227.835097 
L 1081.758964 227.712513 
L 1083.123823 227.231887 
L 1084.488682 227.279526 
L 1085.853542 227.091399 
L 1092.677838 226.887761 
L 1094.042698 226.714116 
L 1095.407557 226.26927 
L 1098.137276 225.947623 
L 1099.502135 226.126808 
L 1104.961573 226.179639 
L 1109.056151 225.930121 
L 1111.785869 226.032263 
L 1114.515588 225.892667 
L 1115.880447 225.541249 
L 1119.975025 225.329272 
L 1121.339885 225.257971 
L 1122.704744 224.05207 
L 1124.069604 222.451859 
L 1128.164182 221.778359 
L 1129.529041 220.963065 
L 1130.8939 220.699419 
L 1132.25876 220.696749 
L 1133.623619 220.816155 
L 1134.988478 220.432194 
L 1136.353338 220.178111 
L 1137.718197 218.974232 
L 1139.083056 218.778309 
L 1140.447916 218.185031 
L 1141.812775 218.12171 
L 1143.177635 217.367287 
L 1144.542494 216.907831 
L 1145.907353 217.063317 
L 1147.272213 216.461508 
L 1148.637072 216.520918 
L 1150.001931 215.946053 
L 1151.366791 216.009397 
L 1152.73165 214.16714 
L 1154.096509 213.890703 
L 1155.461369 213.959153 
L 1156.826228 214.555847 
L 1158.191087 214.436843 
L 1159.555947 214.119598 
L 1160.920806 214.113172 
L 1163.650525 213.872427 
L 1165.015384 212.632097 
L 1166.380244 208.124985 
L 1167.745103 207.786726 
L 1169.109962 193.632435 
L 1170.474822 181.09089 
L 1171.839681 179.564709 
L 1173.20454 143.28841 
L 1174.5694 127.679844 
L 1175.934259 110.323478 
L 1177.299118 112.809904 
L 1180.028837 109.410103 
L 1181.393696 114.642117 
L 1182.758556 115.498467 
L 1184.123415 113.541474 
L 1185.488275 111.365614 
L 1188.217993 109.672538 
L 1189.582853 109.957701 
L 1190.947712 108.343471 
L 1192.312571 107.479547 
L 1193.677431 104.962914 
L 1196.407149 104.017264 
L 1197.772009 102.074555 
L 1199.136868 99.803862 
L 1200.501727 99.13296 
L 1201.866587 98.684341 
L 1203.231446 98.439627 
L 1204.596306 97.579422 
L 1205.961165 97.037935 
L 1207.326024 95.848804 
L 1208.690884 93.978865 
L 1210.055743 91.709318 
L 1211.420602 91.727186 
L 1212.785462 92.25877 
L 1214.150321 93.037673 
L 1215.51518 92.843834 
L 1218.244899 91.505531 
L 1219.609758 90.821618 
L 1222.339477 90.78627 
L 1226.434055 90.382758 
L 1227.798915 90.138632 
L 1229.163774 89.627974 
L 1230.528633 89.55572 
L 1231.893493 89.340617 
L 1233.258352 88.452656 
L 1234.623211 87.928092 
L 1235.988071 87.74753 
L 1237.35293 86.545128 
L 1238.717789 86.334857 
L 1240.082649 85.71769 
L 1241.447508 85.896837 
L 1242.812368 85.670579 
L 1244.177227 84.22814 
L 1245.542086 83.897198 
L 1246.906946 82.072532 
L 1248.271805 80.471208 
L 1249.636664 79.626974 
L 1252.366383 79.018373 
L 1253.731242 78.012621 
L 1256.460961 76.615067 
L 1257.82582 75.794441 
L 1260.555539 74.38732 
L 1261.920398 74.12227 
L 1263.285258 73.364096 
L 1267.379836 70.32701 
L 1268.744695 68.972811 
L 1271.474414 68.271355 
L 1272.839273 68.421405 
L 1274.204133 68.436746 
L 1275.568992 67.599021 
L 1276.933851 66.078021 
L 1278.298711 65.794448 
L 1279.66357 65.014895 
L 1281.028429 64.818559 
L 1282.393289 63.618699 
L 1283.758148 63.463203 
L 1285.123008 63.545591 
L 1286.487867 63.306395 
L 1287.852726 62.747939 
L 1289.217586 62.338898 
L 1290.582445 61.682559 
L 1291.947304 61.259361 
L 1293.312164 60.499396 
L 1294.677023 59.585135 
L 1296.041882 59.25466 
L 1297.406742 58.408624 
L 1298.771601 57.973258 
L 1298.771601 57.973258 
" clip-path="url(#p1bd42ed3c8)" style="fill: none; stroke: #ffa500; stroke-width: 1.5; stroke-linecap: square"/>
   </g>
   <g id="line2d_22">
    <path d="M 1298.771601 57.973258 
L 1300.13646 57.311306 
L 1301.50132 56.719636 
L 1302.866179 56.170474 
L 1304.231039 55.535111 
L 1305.595898 54.956436 
L 1306.960757 54.372406 
L 1308.325617 53.764076 
L 1309.690476 53.175952 
L 1311.055335 52.585508 
L 1312.420195 51.985751 
L 1313.785054 51.394462 
L 1315.149913 50.801567 
L 1316.514773 50.205375 
" clip-path="url(#p1bd42ed3c8)" style="fill: none; stroke: #ff0000; stroke-width: 1.5; stroke-linecap: square"/>
   </g>
   <g id="patch_3">
    <path d="M 38.1875 367.725375 
L 38.1875 35.085375 
" style="fill: none; stroke: #000000; stroke-width: 0.8; stroke-linejoin: miter; stroke-linecap: square"/>
   </g>
   <g id="patch_4">
    <path d="M 1377.3875 367.725375 
L 1377.3875 35.085375 
" style="fill: none; stroke: #000000; stroke-width: 0.8; stroke-linejoin: miter; stroke-linecap: square"/>
   </g>
   <g id="patch_5">
    <path d="M 38.1875 367.725375 
L 1377.3875 367.725375 
" style="fill: none; stroke: #000000; stroke-width: 0.8; stroke-linejoin: miter; stroke-linecap: square"/>
   </g>
   <g id="patch_6">
    <path d="M 38.1875 35.085375 
L 1377.3875 35.085375 
" style="fill: none; stroke: #000000; stroke-width: 0.8; stroke-linejoin: miter; stroke-linecap: square"/>
   </g>
   <g id="text_20">
    <!-- 累计确诊预测 - 福建 -->
    <g transform="translate(654.390313 17.06625)scale(0.12 -0.12)">
     <defs>
      <path id="WenQuanYiZenHei-7d2f" d="M 5963 -681 
Q 5363 -81 4706 456 
L 5000 819 
Q 5675 269 6294 -350 
L 5963 -681 
z
M 1944 738 
Q 2094 556 2281 413 
Q 1575 -356 375 -706 
Q 350 -481 200 -319 
Q 725 -181 1122 69 
Q 1519 319 1944 738 
z
M 3244 -169 
L 3244 1063 
L 869 881 
L 850 1181 
Q 1431 1325 2969 1988 
L 1119 1931 
L 1113 2231 
Q 1350 2263 1862 2497 
Q 2375 2731 2800 2988 
L 1094 2988 
Q 1169 4006 1094 5019 
L 5506 5019 
Q 5425 4006 5500 2988 
L 3431 2988 
Q 3475 2931 3525 2875 
Q 2856 2494 2281 2256 
L 3388 2269 
L 3650 2288 
Q 4338 2606 4650 2800 
Q 4744 2563 4881 2344 
Q 4644 2225 3975 1956 
L 2269 1281 
L 4444 1425 
L 4813 1469 
L 4681 1588 
L 4988 1938 
Q 5481 1500 5863 963 
L 5481 694 
Q 5300 950 5081 1188 
L 4463 1163 
L 3669 1100 
L 3669 -250 
Q 3669 -444 3488 -594 
Q 3225 -819 2569 -813 
Q 2638 -513 2431 -294 
Q 2619 -319 2900 -322 
Q 3181 -325 3212 -294 
Q 3244 -263 3244 -169 
z
M 3513 4131 
L 5081 4131 
L 5081 4725 
L 3513 4725 
L 3513 4131 
z
M 3088 4131 
L 3088 4725 
L 1519 4725 
L 1519 4131 
L 3088 4131 
z
M 3513 3856 
L 3513 3288 
L 5081 3288 
L 5081 3856 
L 3513 3856 
z
M 3088 3856 
L 1519 3856 
L 1519 3288 
L 3088 3288 
L 3088 3856 
z
" transform="scale(0.015625)"/>
      <path id="WenQuanYiZenHei-8ba1" d="M 4569 -769 
Q 4313 -738 4056 -769 
Q 4081 -294 4081 175 
L 4081 2806 
L 3213 2806 
Q 2813 2806 2413 2788 
Q 2438 3000 2413 3219 
Q 2813 3200 3213 3200 
L 4081 3200 
L 4081 4313 
Q 4081 4788 4056 5263 
Q 4313 5231 4569 5263 
Q 4550 4788 4550 4313 
L 4550 3200 
L 5381 3200 
Q 5781 3200 6181 3219 
Q 6163 3000 6181 2788 
Q 5781 2806 5381 2806 
L 4550 2806 
L 4550 175 
Q 4550 -294 4569 -769 
z
M 38 2725 
Q 63 2931 38 3138 
Q 419 3119 800 3119 
L 1481 3119 
L 1481 425 
L 2044 1150 
L 2250 1488 
L 2525 1188 
L 2313 950 
L 1294 -488 
L 963 -231 
Q 1025 -94 1025 63 
L 1025 2744 
L 800 2744 
Q 419 2744 38 2725 
z
M 1450 3913 
Q 1094 4438 600 4831 
L 913 5225 
Q 1488 4769 1869 4194 
L 1450 3913 
z
" transform="scale(0.015625)"/>
      <path id="WenQuanYiZenHei-786e" d="M 4794 -769 
Q 4563 -744 4331 -769 
Q 4350 -344 4350 81 
L 4350 1081 
L 3419 1081 
L 3419 788 
Q 3419 225 3150 -194 
Q 2881 -613 2456 -806 
Q 2375 -569 2150 -444 
Q 2531 -344 2765 -15 
Q 3000 313 3000 788 
L 2994 2919 
L 2888 2813 
Q 2769 3000 2563 3081 
Q 3044 3494 3309 3969 
Q 3575 4444 3763 5119 
Q 3981 5044 4213 5013 
Q 4144 4700 4025 4400 
L 5238 4400 
L 5306 4050 
Q 5213 4031 5163 3947 
Q 5113 3863 4813 3325 
L 5994 3325 
L 5994 -150 
Q 5981 -519 5738 -656 
Q 5469 -806 5069 -806 
Q 5125 -525 4956 -294 
Q 5100 -313 5290 -316 
Q 5481 -319 5525 -278 
Q 5569 -238 5569 25 
L 5569 1081 
L 4769 1081 
L 4769 81 
Q 4769 -344 4794 -769 
z
M 4769 1344 
L 5569 1344 
L 5569 2100 
L 4769 2100 
L 4769 1344 
z
M 4350 1344 
L 4350 2100 
L 3413 2100 
L 3419 1344 
L 4350 1344 
z
M 4769 2363 
L 5569 2363 
L 5569 3038 
L 4769 3038 
L 4769 2363 
z
M 4350 2363 
L 4350 3038 
L 3413 3038 
L 3413 2363 
L 4350 2363 
z
M 3375 3325 
L 4350 3325 
L 4344 3331 
L 4775 4113 
L 3894 4113 
Q 3688 3700 3375 3325 
z
M 481 1069 
Q 281 1194 -25 1188 
Q 775 2750 1244 4294 
L 869 4294 
Q 563 4294 250 4275 
Q 269 4438 250 4594 
Q 563 4581 869 4581 
L 2156 4581 
Q 2463 4581 2775 4594 
Q 2756 4438 2775 4275 
Q 2463 4294 2156 4294 
L 1744 4294 
L 1181 2763 
L 2494 2763 
L 2494 -338 
L 2050 -338 
L 2050 156 
L 1406 156 
Q 1406 -94 1419 -350 
Q 1181 -325 938 -350 
Q 956 75 956 500 
L 956 2181 
L 769 1713 
Q 631 1388 481 1069 
z
M 2050 2475 
L 1400 2475 
L 1400 425 
L 2050 425 
L 2050 2475 
z
" transform="scale(0.015625)"/>
      <path id="WenQuanYiZenHei-8bca" d="M 5369 1456 
Q 5556 1256 5775 1100 
Q 5038 344 4081 -225 
Q 3106 -819 1788 -1006 
Q 1788 -725 1631 -500 
Q 3363 -306 4406 519 
Q 4919 956 5369 1456 
z
M 4594 2219 
Q 4781 2031 5013 1881 
Q 3625 394 2150 -25 
Q 2113 250 1913 444 
Q 2475 594 3015 850 
Q 3556 1106 3919 1463 
Q 4275 1819 4594 2219 
z
M 3969 3188 
Q 4150 3013 4356 2881 
Q 3625 1913 2306 1275 
Q 2244 1500 2056 1644 
Q 2619 1900 3053 2256 
Q 3488 2613 3969 3188 
z
M 5813 2194 
Q 4525 2913 3731 4188 
Q 2919 2844 1813 2163 
Q 1700 2413 1456 2550 
Q 1950 2844 2400 3231 
Q 2850 3619 3113 4063 
Q 3413 4581 3644 5163 
Q 3881 5038 4144 4963 
Q 4056 4775 3963 4594 
Q 4325 3919 4844 3441 
Q 5363 2963 6175 2538 
Q 5931 2431 5813 2194 
z
M 31 2613 
Q 50 2775 31 2938 
Q 325 2925 619 2925 
L 1275 2925 
L 1275 506 
L 1675 1006 
L 1831 1250 
L 2038 1013 
L 1881 838 
L 1100 -256 
L 825 -25 
Q 869 81 869 200 
L 869 2625 
L 31 2613 
z
M 950 3713 
Q 606 4325 200 4881 
L 556 5163 
Q 981 4588 1338 3944 
L 950 3713 
z
" transform="scale(0.015625)"/>
      <path id="WenQuanYiZenHei-9884" d="M 1206 19 
L 1206 2888 
L 669 2888 
Q 356 2888 50 2869 
Q 63 3044 50 3213 
Q 363 3194 669 3194 
L 1250 3194 
Q 950 3631 606 4031 
L 963 4338 
L 1263 3975 
L 1913 4719 
L 731 4719 
Q 419 4719 106 4706 
Q 125 4875 106 5044 
Q 419 5031 731 5031 
L 2481 5031 
L 2544 4663 
Q 2394 4613 2256 4466 
Q 2119 4319 1525 3631 
Q 1656 3444 1788 3250 
L 1700 3194 
L 2700 3194 
L 2763 2825 
Q 2656 2819 2613 2763 
L 2100 2038 
L 1750 2288 
L 2175 2888 
L 1638 2888 
L 1638 -150 
Q 1638 -525 1363 -669 
Q 1075 -819 525 -813 
Q 594 -513 388 -294 
Q 575 -313 837 -316 
Q 1100 -319 1153 -272 
Q 1206 -225 1206 19 
z
M 5813 -888 
Q 5100 -225 4306 375 
L 4669 719 
Q 5481 106 6219 -575 
L 5813 -888 
z
M 2375 -906 
Q 2294 -631 2025 -506 
Q 2769 -431 3353 19 
Q 3938 469 3938 1069 
L 3938 2200 
Q 3938 2625 3913 3050 
Q 4188 3025 4456 3050 
Q 4431 2625 4431 2200 
L 4431 1069 
Q 4431 681 4225 319 
Q 3644 -606 2375 -906 
z
M 3444 488 
Q 3169 513 2894 488 
Q 2919 913 2919 1338 
L 2919 3675 
Q 3219 3675 3525 3675 
Q 3750 4013 3931 4525 
L 3238 4525 
Q 2888 4525 2538 4513 
Q 2556 4669 2538 4831 
Q 2888 4813 3238 4813 
L 5313 4813 
Q 5663 4813 6006 4831 
Q 5988 4669 6006 4513 
Q 5663 4525 5313 4525 
L 4481 4525 
Q 4388 4088 4088 3675 
L 5644 3675 
L 5644 513 
L 5144 513 
L 5144 3388 
L 3894 3388 
L 3875 3363 
Q 3863 3375 3844 3388 
Q 3631 3388 3413 3388 
L 3419 1338 
Q 3419 913 3444 488 
z
" transform="scale(0.015625)"/>
      <path id="WenQuanYiZenHei-6d4b" d="M 5450 138 
L 5450 4306 
Q 5450 4750 5425 5188 
Q 5663 5163 5906 5188 
Q 5881 4750 5881 4306 
L 5881 -38 
Q 5888 -569 5519 -719 
Q 5194 -831 4825 -813 
Q 4894 -519 4694 -281 
Q 4869 -306 5094 -309 
Q 5319 -313 5384 -256 
Q 5450 -200 5450 138 
z
M 4900 938 
Q 4663 963 4419 938 
Q 4444 1375 4444 1819 
L 4444 3381 
Q 4444 3819 4419 4263 
Q 4663 4238 4900 4263 
Q 4875 3819 4875 3381 
L 4875 1819 
Q 4875 1375 4900 938 
z
M 2750 2025 
L 2750 3038 
Q 2750 3481 2725 3919 
Q 2963 3894 3206 3919 
Q 3181 3481 3181 3038 
L 3181 2025 
Q 3181 1263 2919 625 
L 3231 956 
Q 3781 431 4256 -150 
L 3888 -456 
Q 3431 106 2906 600 
Q 2531 -288 1738 -769 
Q 1606 -519 1338 -450 
Q 1988 -156 2369 478 
Q 2750 1113 2750 2025 
z
M 2363 969 
Q 2119 994 1881 969 
Q 1906 1406 1906 1850 
L 1906 5038 
L 3956 5031 
L 3956 1200 
L 3525 1200 
L 3525 4713 
L 2338 4713 
L 2338 1850 
Q 2338 1406 2363 969 
z
M 663 -738 
Q 481 -588 206 -575 
Q 400 -69 606 581 
Q 813 1231 1200 2838 
L 1381 2706 
L 875 338 
L 663 -738 
z
M 1006 2856 
L 731 2550 
L 75 3400 
L 350 3713 
L 1006 2856 
z
M 1088 3913 
Q 781 4388 425 4800 
L 694 5125 
Q 1069 4688 1388 4188 
L 1088 3913 
z
" transform="scale(0.015625)"/>
      <path id="WenQuanYiZenHei-20" transform="scale(0.015625)"/>
      <path id="WenQuanYiZenHei-798f" d="M 3169 -775 
Q 2938 -750 2713 -775 
Q 2731 -356 2731 69 
L 2731 2131 
L 5956 2131 
L 5956 -763 
L 5538 -763 
L 5538 -263 
L 3150 -263 
Q 3156 -519 3169 -775 
z
M 3088 2650 
Q 3163 3319 3088 3988 
L 5575 3988 
Q 5500 3319 5575 2650 
L 3088 2650 
z
M 6069 4838 
Q 6056 4681 6069 4531 
Q 5788 4544 5500 4544 
L 3213 4544 
Q 2925 4544 2644 4531 
Q 2656 4681 2644 4838 
Q 2925 4825 3213 4825 
L 5500 4825 
Q 5788 4825 6069 4838 
z
M 4525 -6 
L 5538 -6 
L 5538 794 
L 4525 794 
L 4525 -6 
z
M 4113 -6 
L 4113 794 
L 3144 794 
L 3144 -6 
L 4113 -6 
z
M 4525 1050 
L 5538 1050 
L 5538 1850 
L 4525 1850 
L 4525 1050 
z
M 4113 1050 
L 4113 1850 
L 3144 1850 
L 3144 1050 
L 4113 1050 
z
M 3506 3706 
L 3506 2931 
L 5163 2931 
L 5163 3706 
L 3506 3706 
z
M 1650 2069 
L 1650 38 
Q 1650 -406 1669 -844 
Q 1438 -819 1200 -844 
Q 1219 -406 1219 38 
L 1219 1763 
Q 875 1369 456 1044 
Q 256 1200 0 1288 
Q 1213 2100 1838 3500 
L 925 3500 
Q 606 3500 288 3481 
Q 306 3656 288 3831 
Q 606 3819 925 3819 
L 2400 3819 
Q 2175 3125 1788 2513 
L 1856 2569 
L 2544 1700 
L 2181 1400 
L 1650 2069 
z
M 1488 4025 
Q 1181 4550 806 5019 
L 1169 5319 
Q 1563 4825 1894 4269 
L 1488 4025 
z
" transform="scale(0.015625)"/>
      <path id="WenQuanYiZenHei-5efa" d="M 919 4275 
Q 581 4275 250 4263 
Q 269 4444 250 4625 
Q 581 4606 919 4606 
L 2056 4606 
L 1050 2825 
L 1888 2825 
Q 1950 1669 1450 744 
Q 2331 -181 4219 -138 
L 5988 -188 
Q 5813 -388 5813 -650 
Q 5169 -613 4353 -603 
Q 3538 -594 3194 -544 
Q 1969 -381 1219 350 
Q 844 -219 325 -625 
Q 125 -463 -119 -381 
Q 531 44 919 694 
Q 500 1244 344 1931 
L 769 2025 
Q 888 1531 1144 1131 
Q 1425 1781 1413 2500 
L 363 2500 
L 1363 4275 
L 919 4275 
z
M 4013 0 
Q 3775 25 3531 0 
Q 3550 344 3550 688 
L 2638 688 
Q 2306 688 1969 669 
Q 1988 850 1969 1031 
Q 2306 1019 2638 1019 
L 3556 1019 
L 3556 1569 
L 2956 1569 
Q 2619 1569 2281 1550 
Q 2300 1738 2281 1919 
Q 2619 1900 2956 1900 
L 3556 1900 
L 3556 2419 
L 3000 2419 
Q 2663 2419 2325 2406 
Q 2350 2588 2325 2769 
Q 2663 2750 3000 2750 
L 3556 2750 
L 3556 3350 
L 2613 3350 
Q 2275 3350 1938 3331 
Q 1956 3513 1938 3694 
Q 2275 3681 2613 3681 
L 3556 3681 
L 3556 4200 
L 3088 4200 
Q 2756 4200 2419 4188 
Q 2438 4369 2419 4550 
Q 2756 4531 3088 4531 
L 3550 4531 
Q 3550 4894 3531 5263 
Q 3775 5238 4013 5263 
Q 4000 4894 3994 4531 
L 5325 4531 
L 5325 3681 
Q 5656 3681 5981 3694 
Q 5963 3513 5981 3331 
Q 5656 3350 5325 3350 
L 5325 2419 
L 3994 2419 
L 3994 1900 
L 4650 1900 
Q 4988 1900 5325 1919 
Q 5306 1738 5325 1550 
Q 4988 1569 4650 1569 
L 3994 1569 
L 3994 1019 
L 5013 1019 
Q 5350 1019 5681 1031 
Q 5663 850 5681 669 
Q 5350 688 5013 688 
L 3994 688 
Q 4000 344 4013 0 
z
M 3994 2750 
L 4888 2750 
L 4888 3350 
L 3994 3350 
L 3994 2750 
z
M 3994 3681 
L 4888 3681 
L 4888 4200 
L 3994 4200 
L 3994 3681 
z
" transform="scale(0.015625)"/>
     </defs>
     <use xlink:href="#WenQuanYiZenHei-7d2f"/>
     <use xlink:href="#WenQuanYiZenHei-8ba1" x="100"/>
     <use xlink:href="#WenQuanYiZenHei-786e" x="200"/>
     <use xlink:href="#WenQuanYiZenHei-8bca" x="300"/>
     <use xlink:href="#WenQuanYiZenHei-9884" x="400"/>
     <use xlink:href="#WenQuanYiZenHei-6d4b" x="500"/>
     <use xlink:href="#WenQuanYiZenHei-20" x="600"/>
     <use xlink:href="#WenQuanYiZenHei-2d" x="629.980469"/>
     <use xlink:href="#WenQuanYiZenHei-20" x="659.960938"/>
     <use xlink:href="#WenQuanYiZenHei-798f" x="689.941406"/>
     <use xlink:href="#WenQuanYiZenHei-5efa" x="789.941406"/>
    </g>
    <!-- ARIMA (4, 2, 0)x(0, 0, 1, 7) (R2 = 0.998401) -->
    <g transform="translate(589.179688 29.085375)scale(0.12 -0.12)">
     <defs>
      <path id="WenQuanYiZenHei-41" d="M 3550 0 
L 2988 0 
L 2550 1281 
L 919 1281 
L 531 0 
L 69 0 
L 1494 4388 
L 2125 4388 
L 3550 0 
z
M 2425 1694 
L 1756 3800 
L 1075 1694 
L 2425 1694 
z
" transform="scale(0.015625)"/>
      <path id="WenQuanYiZenHei-52" d="M 3675 0 
L 3100 0 
L 2288 1900 
L 1069 1900 
L 1069 0 
L 519 0 
L 519 4388 
L 2163 4388 
Q 3006 4388 3400 3900 
Q 3581 3663 3625 3325 
Q 3631 3250 3631 3163 
Q 3631 2594 3219 2244 
Q 3038 2100 2813 2038 
L 3675 0 
z
M 3081 3169 
Q 3081 3825 2356 3906 
Q 2263 3919 2163 3919 
L 1069 3919 
L 1069 2350 
L 2100 2350 
Q 2906 2350 3044 2919 
Q 3081 3031 3081 3169 
z
" transform="scale(0.015625)"/>
      <path id="WenQuanYiZenHei-49" d="M 1100 0 
L 550 0 
L 550 4388 
L 1100 4388 
L 1100 0 
z
" transform="scale(0.015625)"/>
      <path id="WenQuanYiZenHei-4d" d="M 4756 0 
L 4206 0 
L 4206 3831 
L 4181 3831 
L 2788 0 
L 2419 0 
L 1000 3831 
L 975 3831 
L 975 0 
L 513 0 
L 513 4388 
L 1331 4388 
L 2656 875 
L 3950 4388 
L 4756 4388 
L 4756 0 
z
" transform="scale(0.015625)"/>
      <path id="WenQuanYiZenHei-28" d="M 1606 -1094 
L 1275 -1094 
Q 475 -100 338 1231 
Q 319 1438 319 1656 
Q 319 3031 1156 4244 
Q 1213 4313 1269 4388 
L 1600 4388 
Q 806 3169 794 1681 
Q 794 188 1606 -1094 
z
" transform="scale(0.015625)"/>
      <path id="WenQuanYiZenHei-2c" d="M 1363 75 
L 881 -825 
L 606 -825 
L 994 0 
L 656 0 
L 656 738 
L 1363 738 
L 1363 75 
z
" transform="scale(0.015625)"/>
      <path id="WenQuanYiZenHei-29" d="M 1600 1656 
Q 1600 306 869 -788 
Q 769 -950 644 -1094 
L 313 -1094 
Q 1125 188 1125 1681 
Q 1125 3169 338 4363 
Q 325 4375 319 4388 
L 650 4388 
Q 1525 3231 1594 1863 
Q 1600 1763 1600 1656 
z
" transform="scale(0.015625)"/>
      <path id="WenQuanYiZenHei-78" d="M 2806 0 
L 2213 0 
L 1394 1319 
L 544 0 
L 50 0 
L 1144 1681 
L 163 3250 
L 744 3250 
L 1431 2138 
L 2144 3250 
L 2631 3250 
L 1681 1794 
L 2806 0 
z
" transform="scale(0.015625)"/>
      <path id="WenQuanYiZenHei-3d" d="M 3569 2256 
L 263 2256 
L 263 2675 
L 3569 2675 
L 3569 2256 
z
M 3569 1019 
L 263 1019 
L 263 1431 
L 3569 1431 
L 3569 1019 
z
" transform="scale(0.015625)"/>
      <path id="WenQuanYiZenHei-2e" d="M 1344 0 
L 631 0 
L 631 725 
L 1344 725 
L 1344 0 
z
" transform="scale(0.015625)"/>
      <path id="WenQuanYiZenHei-39" d="M 3544 2300 
Q 3544 1163 3019 513 
Q 2563 -63 1775 -63 
Q 956 -63 563 488 
Q 463 631 394 813 
L 838 975 
Q 1025 494 1550 388 
Q 1656 369 1775 369 
Q 2594 369 2900 1325 
Q 3044 1769 3038 2313 
L 3025 2313 
Q 2675 1638 1944 1544 
Q 1844 1531 1744 1531 
Q 1050 1531 625 2031 
Q 294 2419 294 2963 
Q 294 3656 813 4094 
Q 1238 4456 1819 4456 
Q 2988 4456 3381 3363 
Q 3544 2900 3544 2300 
z
M 2925 2994 
Q 2925 3563 2469 3844 
Q 2206 4006 1863 4006 
Q 1275 4006 988 3563 
Q 844 3344 825 3056 
Q 819 3006 819 2956 
Q 819 2413 1269 2131 
Q 1538 1963 1875 1963 
Q 2363 1963 2681 2350 
Q 2925 2638 2925 2994 
z
" transform="scale(0.015625)"/>
      <path id="WenQuanYiZenHei-38" d="M 3619 1175 
Q 3619 431 2850 100 
Q 2444 -63 1944 -63 
Q 1231 -63 725 269 
Q 225 594 225 1125 
Q 225 1881 1269 2281 
Q 719 2481 519 2938 
Q 444 3119 444 3319 
Q 444 4000 1144 4294 
Q 1519 4456 1963 4456 
Q 2669 4456 3094 4094 
Q 3425 3813 3425 3369 
Q 3425 2638 2575 2356 
Q 3231 2056 3450 1725 
Q 3619 1488 3619 1175 
z
M 2944 3344 
Q 2944 3906 2288 4019 
Q 2138 4044 1969 4044 
Q 1438 4044 1163 3775 
Q 1000 3613 1000 3375 
Q 1000 2925 1594 2663 
Q 1756 2588 1931 2550 
Q 2581 2725 2788 2956 
Q 2944 3125 2944 3344 
z
M 3075 1094 
Q 3075 1738 1875 2050 
Q 1094 1881 850 1463 
Q 763 1313 763 1131 
Q 763 569 1456 406 
Q 1681 344 1944 344 
Q 2519 344 2850 619 
Q 3075 813 3075 1094 
z
" transform="scale(0.015625)"/>
     </defs>
     <use xlink:href="#WenQuanYiZenHei-41"/>
     <use xlink:href="#WenQuanYiZenHei-52" x="55.957031"/>
     <use xlink:href="#WenQuanYiZenHei-49" x="117.871094"/>
     <use xlink:href="#WenQuanYiZenHei-4d" x="143.847656"/>
     <use xlink:href="#WenQuanYiZenHei-41" x="225.78125"/>
     <use xlink:href="#WenQuanYiZenHei-20" x="281.738281"/>
     <use xlink:href="#WenQuanYiZenHei-28" x="311.71875"/>
     <use xlink:href="#WenQuanYiZenHei-34" x="341.699219"/>
     <use xlink:href="#WenQuanYiZenHei-2c" x="401.660156"/>
     <use xlink:href="#WenQuanYiZenHei-20" x="431.640625"/>
     <use xlink:href="#WenQuanYiZenHei-32" x="461.621094"/>
     <use xlink:href="#WenQuanYiZenHei-2c" x="521.582031"/>
     <use xlink:href="#WenQuanYiZenHei-20" x="551.5625"/>
     <use xlink:href="#WenQuanYiZenHei-30" x="581.542969"/>
     <use xlink:href="#WenQuanYiZenHei-29" x="641.503906"/>
     <use xlink:href="#WenQuanYiZenHei-78" x="671.484375"/>
     <use xlink:href="#WenQuanYiZenHei-28" x="715.429688"/>
     <use xlink:href="#WenQuanYiZenHei-30" x="745.410156"/>
     <use xlink:href="#WenQuanYiZenHei-2c" x="805.371094"/>
     <use xlink:href="#WenQuanYiZenHei-20" x="835.351562"/>
     <use xlink:href="#WenQuanYiZenHei-30" x="865.332031"/>
     <use xlink:href="#WenQuanYiZenHei-2c" x="925.292969"/>
     <use xlink:href="#WenQuanYiZenHei-20" x="955.273438"/>
     <use xlink:href="#WenQuanYiZenHei-31" x="985.253906"/>
     <use xlink:href="#WenQuanYiZenHei-2c" x="1045.214844"/>
     <use xlink:href="#WenQuanYiZenHei-20" x="1075.195312"/>
     <use xlink:href="#WenQuanYiZenHei-37" x="1105.175781"/>
     <use xlink:href="#WenQuanYiZenHei-29" x="1165.136719"/>
     <use xlink:href="#WenQuanYiZenHei-20" x="1195.117188"/>
     <use xlink:href="#WenQuanYiZenHei-28" x="1225.097656"/>
     <use xlink:href="#WenQuanYiZenHei-52" x="1255.078125"/>
     <use xlink:href="#WenQuanYiZenHei-32" x="1316.992188"/>
     <use xlink:href="#WenQuanYiZenHei-20" x="1376.953125"/>
     <use xlink:href="#WenQuanYiZenHei-3d" x="1406.933594"/>
     <use xlink:href="#WenQuanYiZenHei-20" x="1466.894531"/>
     <use xlink:href="#WenQuanYiZenHei-30" x="1496.875"/>
     <use xlink:href="#WenQuanYiZenHei-2e" x="1556.835938"/>
     <use xlink:href="#WenQuanYiZenHei-39" x="1586.816406"/>
     <use xlink:href="#WenQuanYiZenHei-39" x="1646.777344"/>
     <use xlink:href="#WenQuanYiZenHei-38" x="1706.738281"/>
     <use xlink:href="#WenQuanYiZenHei-34" x="1766.699219"/>
     <use xlink:href="#WenQuanYiZenHei-30" x="1826.660156"/>
     <use xlink:href="#WenQuanYiZenHei-31" x="1886.621094"/>
     <use xlink:href="#WenQuanYiZenHei-29" x="1946.582031"/>
    </g>
   </g>
   <g id="legend_1">
    <g id="patch_7">
     <path d="M 45.1875 87.080687 
L 107.1875 87.080687 
Q 109.1875 87.080687 109.1875 85.080687 
L 109.1875 42.085375 
Q 109.1875 40.085375 107.1875 40.085375 
L 45.1875 40.085375 
Q 43.1875 40.085375 43.1875 42.085375 
L 43.1875 85.080687 
Q 43.1875 87.080687 45.1875 87.080687 
z
" style="fill: #ffffff; opacity: 0.8; stroke: #cccccc; stroke-linejoin: miter"/>
    </g>
    <g id="line2d_23">
     <path d="M 47.1875 48.71975 
L 57.1875 48.71975 
L 67.1875 48.71975 
" style="fill: none; stroke: #0000ff; stroke-width: 1.5; stroke-linecap: square"/>
    </g>
    <g id="text_21">
     <!-- 实际值 -->
     <g transform="translate(75.1875 52.21975)scale(0.1 -0.1)">
      <defs>
       <path id="WenQuanYiZenHei-5b9e" d="M 1025 1175 
Q 694 1175 356 1163 
Q 375 1344 356 1525 
Q 694 1506 1025 1506 
L 3363 1506 
L 3363 2625 
Q 3363 3075 3338 3519 
Q 3581 3494 3825 3519 
Q 3800 3075 3800 2625 
L 3800 1506 
L 5406 1506 
Q 5744 1506 6075 1525 
Q 6056 1344 6075 1163 
Q 5744 1175 5406 1175 
L 4038 1175 
L 4981 456 
L 6131 -488 
L 5819 -856 
L 4681 75 
L 3638 875 
Q 3313 231 2475 -231 
Q 1638 -694 700 -825 
Q 638 -519 344 -400 
Q 1450 -319 2406 244 
Q 3113 656 3300 1175 
L 1025 1175 
z
M 2263 1581 
Q 1763 2081 1200 2513 
L 1494 2894 
Q 2081 2444 2600 1919 
L 2263 1581 
z
M 2638 2500 
Q 2219 2963 1731 3363 
L 2044 3738 
Q 2556 3313 3000 2819 
L 2638 2500 
z
M 919 3156 
L 481 3156 
L 481 4344 
L 3069 4344 
Q 2794 4731 2469 5081 
L 2825 5413 
Q 3256 4944 3613 4413 
L 3513 4344 
L 5869 4344 
L 5869 3156 
L 5425 3156 
L 5425 4013 
L 919 4013 
L 919 3156 
z
" transform="scale(0.015625)"/>
       <path id="WenQuanYiZenHei-9645" d="M 6000 431 
L 5569 194 
L 4963 1219 
L 4313 2219 
L 4719 2494 
L 5375 1481 
L 6000 431 
z
M 2956 2450 
Q 3181 2344 3419 2294 
Q 3006 1038 1944 -188 
Q 1794 -6 1569 56 
Q 2069 600 2372 1156 
Q 2675 1713 2956 2450 
z
M 3750 25 
L 3750 2913 
L 2819 2913 
Q 2475 2913 2125 2894 
Q 2144 3081 2125 3269 
Q 2475 3256 2819 3256 
L 5469 3256 
Q 5819 3256 6163 3269 
Q 6144 3081 6163 2894 
Q 5813 2913 5469 2913 
L 4194 2913 
L 4194 -144 
Q 4194 -725 3456 -813 
L 3263 -825 
Q 3325 -506 3125 -250 
Q 3250 -281 3394 -306 
Q 3663 -313 3706 -272 
Q 3750 -231 3750 25 
z
M 5544 4950 
Q 5525 4756 5544 4569 
Q 5194 4588 4844 4588 
L 3325 4588 
Q 2975 4588 2625 4569 
Q 2644 4756 2625 4950 
Q 2975 4931 3325 4931 
L 4844 4931 
Q 5194 4931 5544 4950 
z
M 819 -850 
Q 581 -825 344 -850 
Q 369 -419 369 19 
L 363 4938 
L 2256 4938 
L 2256 4625 
Q 2150 4513 2075 4375 
L 1481 3238 
Q 2181 2319 2181 1156 
Q 2144 400 1569 163 
L 1406 88 
Q 1288 300 1138 481 
Q 1294 538 1450 606 
Q 1763 744 1794 1156 
Q 1794 1744 1600 2300 
Q 1406 2856 1038 3313 
L 1725 4625 
L 788 4625 
L 794 19 
Q 794 -419 819 -850 
z
" transform="scale(0.015625)"/>
       <path id="WenQuanYiZenHei-503c" d="M 6175 -219 
Q 6156 -388 6175 -556 
Q 5863 -544 5550 -544 
L 2313 -544 
Q 2000 -544 1688 -556 
Q 1706 -388 1688 -219 
L 2506 -231 
L 2506 3469 
L 3644 3469 
L 3644 4119 
L 2638 4119 
Q 2325 4119 2013 4100 
Q 2031 4269 2013 4438 
Q 2325 4425 2638 4425 
L 3638 4425 
Q 3638 4719 3619 5013 
Q 3856 4988 4094 5013 
Q 4075 4719 4075 4425 
L 5344 4425 
Q 5650 4425 5963 4438 
Q 5950 4269 5963 4100 
Q 5656 4119 5344 4119 
L 4069 4119 
L 4069 3469 
L 5300 3469 
L 5300 -231 
L 5550 -231 
Q 5863 -231 6175 -219 
z
M 4869 2556 
L 4869 3156 
L 2931 3156 
Q 2931 2850 2931 2556 
L 4869 2556 
z
M 4869 1669 
L 4869 2250 
L 2931 2250 
L 2931 1669 
L 4869 1669 
z
M 4869 731 
L 4869 1363 
L 2931 1363 
L 2931 731 
L 4869 731 
z
M 4869 -231 
L 4869 425 
L 2931 425 
L 2931 -231 
L 4869 -231 
z
M 2106 4925 
Q 1856 4075 1463 3338 
L 1463 31 
Q 1463 -413 1481 -850 
Q 1256 -825 1031 -850 
Q 1050 -413 1050 31 
L 1050 2681 
Q 750 2269 375 1931 
Q 238 2156 0 2256 
Q 331 2544 619 2875 
Q 1094 3425 1300 3950 
Q 1494 4469 1625 5050 
Q 1850 4963 2106 4925 
z
" transform="scale(0.015625)"/>
      </defs>
      <use xlink:href="#WenQuanYiZenHei-5b9e"/>
      <use xlink:href="#WenQuanYiZenHei-9645" x="100"/>
      <use xlink:href="#WenQuanYiZenHei-503c" x="200"/>
     </g>
    </g>
    <g id="line2d_24">
     <path d="M 47.1875 63.397875 
L 57.1875 63.397875 
L 67.1875 63.397875 
" style="fill: none; stroke: #ffa500; stroke-width: 1.5; stroke-linecap: square"/>
    </g>
    <g id="text_22">
     <!-- 校验值 -->
     <g transform="translate(75.1875 66.897875)scale(0.1 -0.1)">
      <defs>
       <path id="WenQuanYiZenHei-6821" d="M 5256 2463 
Q 5025 1475 4494 706 
Q 5125 -94 6175 -544 
Q 5950 -663 5850 -900 
Q 4906 -494 4250 381 
Q 3931 0 3475 -350 
Q 3019 -700 2388 -919 
Q 2338 -656 2138 -475 
Q 3306 -69 4006 738 
Q 3563 1444 3300 2331 
Q 3050 2050 2706 1800 
Q 2606 2000 2406 2106 
Q 2900 2444 3181 2938 
Q 3350 3225 3488 3538 
Q 3700 3431 3925 3369 
Q 3763 2894 3425 2475 
L 3650 2531 
Q 3888 1675 4244 1075 
Q 4469 1444 4603 1937 
Q 4738 2431 4775 2688 
Q 4963 2644 5150 2625 
Q 4919 2969 4663 3294 
L 5038 3588 
Q 5544 2925 5975 2213 
L 5569 1969 
L 5256 2463 
z
M 6006 4050 
Q 5988 3881 6006 3713 
Q 5694 3725 5381 3725 
L 3413 3725 
Q 3100 3725 2788 3713 
Q 2806 3881 2788 4050 
Q 3100 4031 3413 4031 
L 4325 4031 
Q 4019 4525 3644 4969 
L 4000 5275 
Q 4413 4788 4750 4244 
L 4406 4031 
L 5381 4031 
Q 5694 4031 6006 4050 
z
M 406 263 
Q 238 431 -25 469 
Q 194 825 466 1337 
Q 738 1850 925 2406 
Q 1113 2963 1256 3519 
L 825 3519 
Q 506 3519 188 3500 
Q 206 3700 188 3900 
Q 506 3881 825 3881 
L 1363 3881 
L 1363 4263 
Q 1363 4719 1338 5175 
Q 1556 5150 1775 5175 
Q 1756 4719 1756 4263 
L 1756 3881 
L 2525 3900 
Q 2506 3700 2525 3500 
L 1756 3519 
L 1756 2738 
L 1931 2881 
Q 2306 2300 2613 1650 
L 2231 1413 
Q 2081 1725 1919 2019 
L 1756 2300 
L 1756 69 
Q 1756 -388 1775 -850 
Q 1556 -825 1338 -850 
Q 1363 -388 1363 69 
L 1363 2438 
Q 925 1144 406 263 
z
" transform="scale(0.015625)"/>
       <path id="WenQuanYiZenHei-9a8c" d="M 5981 -106 
Q 5963 -275 5981 -444 
Q 5669 -431 5356 -431 
L 2969 -431 
Q 2656 -431 2350 -444 
Q 2363 -275 2350 -106 
Q 2656 -125 2969 -125 
L 4369 -125 
Q 4600 431 4881 1288 
L 5206 2300 
Q 5425 2206 5663 2163 
Q 5375 1188 4831 -125 
L 5356 -125 
Q 5669 -125 5981 -106 
z
M 4063 594 
Q 3788 1425 3425 2219 
L 3856 2419 
Q 4225 1600 4513 744 
L 4063 594 
z
M 3163 363 
Q 2931 1200 2613 2006 
L 3056 2175 
Q 3381 1350 3619 488 
L 3163 363 
z
M 4581 2550 
L 3513 2550 
Q 3200 2550 2888 2538 
Q 2900 2663 2894 2769 
Q 2569 2488 2206 2300 
Q 2113 2550 1894 2700 
Q 2488 2975 2975 3463 
Q 3269 3756 3394 4006 
Q 3644 4513 3794 5063 
Q 4038 4975 4294 4931 
Q 4250 4806 4206 4681 
Q 4475 3888 5025 3388 
Q 5519 2938 6169 2650 
Q 5938 2538 5838 2300 
Q 5513 2456 5200 2700 
Q 5200 2619 5206 2538 
Q 4894 2550 4581 2550 
z
M 3513 2863 
L 4994 2869 
Q 4344 3438 3988 4194 
Q 3594 3406 3013 2869 
Q 3263 2863 3513 2863 
z
M 206 444 
Q 188 756 44 963 
Q 319 956 650 1003 
Q 981 1050 1731 1281 
L 1738 1006 
Q 800 719 206 444 
z
M 525 4000 
Q 744 3950 994 3944 
Q 925 3519 875 3081 
L 763 2144 
L 1475 2144 
L 1831 4444 
L 663 4444 
Q 350 4444 38 4431 
Q 56 4600 38 4769 
Q 350 4756 663 4756 
L 2313 4756 
L 1913 2144 
L 2375 2144 
L 2200 -200 
Q 2188 -425 1988 -588 
Q 1694 -800 1181 -788 
L 944 -788 
Q 1000 -450 788 -269 
Q 1013 -294 1334 -287 
Q 1656 -281 1715 -243 
Q 1775 -206 1781 -50 
L 1925 1831 
L 294 1831 
L 444 3131 
Q 500 3569 525 4000 
z
" transform="scale(0.015625)"/>
      </defs>
      <use xlink:href="#WenQuanYiZenHei-6821"/>
      <use xlink:href="#WenQuanYiZenHei-9a8c" x="100"/>
      <use xlink:href="#WenQuanYiZenHei-503c" x="200"/>
     </g>
    </g>
    <g id="line2d_25">
     <path d="M 47.1875 77.91975 
L 57.1875 77.91975 
L 67.1875 77.91975 
" style="fill: none; stroke: #ff0000; stroke-width: 1.5; stroke-linecap: square"/>
    </g>
    <g id="text_23">
     <!-- 预测值 -->
     <g transform="translate(75.1875 81.41975)scale(0.1 -0.1)">
      <use xlink:href="#WenQuanYiZenHei-9884"/>
      <use xlink:href="#WenQuanYiZenHei-6d4b" x="100"/>
      <use xlink:href="#WenQuanYiZenHei-503c" x="200"/>
     </g>
    </g>
   </g>
  </g>
 </g>
 <defs>
  <clipPath id="p1bd42ed3c8">
   <rect x="38.1875" y="35.085375" width="1339.2" height="332.64"/>
  </clipPath>
 </defs>
</svg>
