<?xml version="1.0" encoding="utf-8" standalone="no"?>
<!DOCTYPE svg PUBLIC "-//W3C//DTD SVG 1.1//EN"
  "http://www.w3.org/Graphics/SVG/1.1/DTD/svg11.dtd">
<svg xmlns:xlink="http://www.w3.org/1999/xlink" width="1378.590625pt" height="390.418188pt" viewBox="0 0 1378.590625 390.418188" xmlns="http://www.w3.org/2000/svg" version="1.1">
 <metadata>
  <rdf:RDF xmlns:dc="http://purl.org/dc/elements/1.1/" xmlns:cc="http://creativecommons.org/ns#" xmlns:rdf="http://www.w3.org/1999/02/22-rdf-syntax-ns#">
   <cc:Work>
    <dc:type rdf:resource="http://purl.org/dc/dcmitype/StillImage"/>
    <dc:date>2022-07-25T18:14:14.851177</dc:date>
    <dc:format>image/svg+xml</dc:format>
    <dc:creator>
     <cc:Agent>
      <dc:title>Matplotlib v3.5.2, https://matplotlib.org/</dc:title>
     </cc:Agent>
    </dc:creator>
   </cc:Work>
  </rdf:RDF>
 </metadata>
 <defs>
  <style type="text/css">*{stroke-linejoin: round; stroke-linecap: butt}</style>
 </defs>
 <g id="figure_1">
  <g id="patch_1">
   <path d="M 0 390.418188 
L 1378.590625 390.418188 
L 1378.590625 -0 
L 0 -0 
z
" style="fill: #ffffff"/>
  </g>
  <g id="axes_1">
   <g id="patch_2">
    <path d="M 32.190625 367.701 
L 1371.390625 367.701 
L 1371.390625 35.061 
L 32.190625 35.061 
z
" style="fill: #ffffff"/>
   </g>
   <g id="matplotlib.axis_1">
    <g id="xtick_1">
     <g id="line2d_1">
      <defs>
       <path id="md487b635cc" d="M 0 0 
L 0 3.5 
" style="stroke: #000000; stroke-width: 0.8"/>
      </defs>
      <g>
       <use xlink:href="#md487b635cc" x="64.138946" y="367.701" style="stroke: #000000; stroke-width: 0.8"/>
      </g>
     </g>
     <g id="text_1">
      <!-- 2020-01 -->
      <g transform="translate(44.649102 381.55725)scale(0.1 -0.1)">
       <defs>
        <path id="WenQuanYiZenHei-32" d="M 3488 0 
L 369 0 
L 369 456 
L 2150 1850 
Q 2931 2463 2931 3144 
Q 2931 3619 2488 3863 
Q 2231 4013 1931 4013 
Q 1425 4013 1113 3619 
Q 894 3356 881 3013 
L 369 3169 
Q 531 3981 1213 4300 
Q 1544 4456 1950 4456 
Q 2631 4456 3088 4044 
L 3225 3888 
L 3350 3706 
Q 3481 3444 3481 3144 
Q 3481 2313 2519 1569 
L 1069 456 
L 3488 456 
L 3488 0 
z
" transform="scale(0.015625)"/>
        <path id="WenQuanYiZenHei-30" d="M 3581 2175 
Q 3581 1288 3169 638 
Q 2713 -63 1938 -63 
Q 1025 -63 563 831 
Q 256 1425 256 2188 
Q 256 3188 700 3819 
Q 1138 4456 1888 4456 
Q 2863 4456 3306 3500 
Q 3581 2925 3581 2175 
z
M 3019 2100 
Q 3019 3356 2500 3806 
L 2350 3919 
Q 2144 4031 1888 4031 
Q 1100 4031 888 2956 
Q 819 2625 819 2225 
Q 819 1013 1338 569 
Q 1588 356 1938 356 
Q 2675 356 2925 1294 
Q 3019 1663 3019 2100 
z
" transform="scale(0.015625)"/>
        <path id="WenQuanYiZenHei-2d" d="M 1363 1444 
L 0 1444 
L 0 1844 
L 1363 1844 
L 1363 1444 
z
" transform="scale(0.015625)"/>
        <path id="WenQuanYiZenHei-31" d="M 3556 0 
L 488 0 
L 488 406 
L 1800 406 
L 1800 3725 
Q 1231 3125 588 2788 
L 588 3338 
Q 1456 3781 1931 4388 
L 2331 4388 
L 2331 406 
L 3556 406 
L 3556 0 
z
" transform="scale(0.015625)"/>
       </defs>
       <use xlink:href="#WenQuanYiZenHei-32"/>
       <use xlink:href="#WenQuanYiZenHei-30" x="59.960938"/>
       <use xlink:href="#WenQuanYiZenHei-32" x="119.921875"/>
       <use xlink:href="#WenQuanYiZenHei-30" x="179.882812"/>
       <use xlink:href="#WenQuanYiZenHei-2d" x="239.84375"/>
       <use xlink:href="#WenQuanYiZenHei-30" x="269.824219"/>
       <use xlink:href="#WenQuanYiZenHei-31" x="329.785156"/>
      </g>
     </g>
    </g>
    <g id="xtick_2">
     <g id="line2d_2">
      <g>
       <use xlink:href="#md487b635cc" x="183.780808" y="367.701" style="stroke: #000000; stroke-width: 0.8"/>
      </g>
     </g>
     <g id="text_2">
      <!-- 2020-04 -->
      <g transform="translate(164.290964 381.55725)scale(0.1 -0.1)">
       <defs>
        <path id="WenQuanYiZenHei-34" d="M 3631 1025 
L 2913 1025 
L 2913 0 
L 2381 0 
L 2381 1025 
L 219 1025 
L 219 1388 
L 2225 4388 
L 2913 4388 
L 2913 1444 
L 3631 1444 
L 3631 1025 
z
M 2381 1444 
L 2381 3963 
L 788 1444 
L 2381 1444 
z
" transform="scale(0.015625)"/>
       </defs>
       <use xlink:href="#WenQuanYiZenHei-32"/>
       <use xlink:href="#WenQuanYiZenHei-30" x="59.960938"/>
       <use xlink:href="#WenQuanYiZenHei-32" x="119.921875"/>
       <use xlink:href="#WenQuanYiZenHei-30" x="179.882812"/>
       <use xlink:href="#WenQuanYiZenHei-2d" x="239.84375"/>
       <use xlink:href="#WenQuanYiZenHei-30" x="269.824219"/>
       <use xlink:href="#WenQuanYiZenHei-34" x="329.785156"/>
      </g>
     </g>
    </g>
    <g id="xtick_3">
     <g id="line2d_3">
      <g>
       <use xlink:href="#md487b635cc" x="303.422669" y="367.701" style="stroke: #000000; stroke-width: 0.8"/>
      </g>
     </g>
     <g id="text_3">
      <!-- 2020-07 -->
      <g transform="translate(283.932825 381.55725)scale(0.1 -0.1)">
       <defs>
        <path id="WenQuanYiZenHei-37" d="M 3400 4056 
Q 1838 2175 1838 0 
L 1275 0 
Q 1269 1438 2056 2825 
Q 2381 3400 2825 3913 
L 444 3913 
L 500 4388 
L 3400 4388 
L 3400 4056 
z
" transform="scale(0.015625)"/>
       </defs>
       <use xlink:href="#WenQuanYiZenHei-32"/>
       <use xlink:href="#WenQuanYiZenHei-30" x="59.960938"/>
       <use xlink:href="#WenQuanYiZenHei-32" x="119.921875"/>
       <use xlink:href="#WenQuanYiZenHei-30" x="179.882812"/>
       <use xlink:href="#WenQuanYiZenHei-2d" x="239.84375"/>
       <use xlink:href="#WenQuanYiZenHei-30" x="269.824219"/>
       <use xlink:href="#WenQuanYiZenHei-37" x="329.785156"/>
      </g>
     </g>
    </g>
    <g id="xtick_4">
     <g id="line2d_4">
      <g>
       <use xlink:href="#md487b635cc" x="424.379276" y="367.701" style="stroke: #000000; stroke-width: 0.8"/>
      </g>
     </g>
     <g id="text_4">
      <!-- 2020-10 -->
      <g transform="translate(404.889432 381.55725)scale(0.1 -0.1)">
       <use xlink:href="#WenQuanYiZenHei-32"/>
       <use xlink:href="#WenQuanYiZenHei-30" x="59.960938"/>
       <use xlink:href="#WenQuanYiZenHei-32" x="119.921875"/>
       <use xlink:href="#WenQuanYiZenHei-30" x="179.882812"/>
       <use xlink:href="#WenQuanYiZenHei-2d" x="239.84375"/>
       <use xlink:href="#WenQuanYiZenHei-31" x="269.824219"/>
       <use xlink:href="#WenQuanYiZenHei-30" x="329.785156"/>
      </g>
     </g>
    </g>
    <g id="xtick_5">
     <g id="line2d_5">
      <g>
       <use xlink:href="#md487b635cc" x="545.335883" y="367.701" style="stroke: #000000; stroke-width: 0.8"/>
      </g>
     </g>
     <g id="text_5">
      <!-- 2021-01 -->
      <g transform="translate(525.846039 381.55725)scale(0.1 -0.1)">
       <use xlink:href="#WenQuanYiZenHei-32"/>
       <use xlink:href="#WenQuanYiZenHei-30" x="59.960938"/>
       <use xlink:href="#WenQuanYiZenHei-32" x="119.921875"/>
       <use xlink:href="#WenQuanYiZenHei-31" x="179.882812"/>
       <use xlink:href="#WenQuanYiZenHei-2d" x="239.84375"/>
       <use xlink:href="#WenQuanYiZenHei-30" x="269.824219"/>
       <use xlink:href="#WenQuanYiZenHei-31" x="329.785156"/>
      </g>
     </g>
    </g>
    <g id="xtick_6">
     <g id="line2d_6">
      <g>
       <use xlink:href="#md487b635cc" x="663.662999" y="367.701" style="stroke: #000000; stroke-width: 0.8"/>
      </g>
     </g>
     <g id="text_6">
      <!-- 2021-04 -->
      <g transform="translate(644.173155 381.55725)scale(0.1 -0.1)">
       <use xlink:href="#WenQuanYiZenHei-32"/>
       <use xlink:href="#WenQuanYiZenHei-30" x="59.960938"/>
       <use xlink:href="#WenQuanYiZenHei-32" x="119.921875"/>
       <use xlink:href="#WenQuanYiZenHei-31" x="179.882812"/>
       <use xlink:href="#WenQuanYiZenHei-2d" x="239.84375"/>
       <use xlink:href="#WenQuanYiZenHei-30" x="269.824219"/>
       <use xlink:href="#WenQuanYiZenHei-34" x="329.785156"/>
      </g>
     </g>
    </g>
    <g id="xtick_7">
     <g id="line2d_7">
      <g>
       <use xlink:href="#md487b635cc" x="783.30486" y="367.701" style="stroke: #000000; stroke-width: 0.8"/>
      </g>
     </g>
     <g id="text_7">
      <!-- 2021-07 -->
      <g transform="translate(763.815016 381.55725)scale(0.1 -0.1)">
       <use xlink:href="#WenQuanYiZenHei-32"/>
       <use xlink:href="#WenQuanYiZenHei-30" x="59.960938"/>
       <use xlink:href="#WenQuanYiZenHei-32" x="119.921875"/>
       <use xlink:href="#WenQuanYiZenHei-31" x="179.882812"/>
       <use xlink:href="#WenQuanYiZenHei-2d" x="239.84375"/>
       <use xlink:href="#WenQuanYiZenHei-30" x="269.824219"/>
       <use xlink:href="#WenQuanYiZenHei-37" x="329.785156"/>
      </g>
     </g>
    </g>
    <g id="xtick_8">
     <g id="line2d_8">
      <g>
       <use xlink:href="#md487b635cc" x="904.261467" y="367.701" style="stroke: #000000; stroke-width: 0.8"/>
      </g>
     </g>
     <g id="text_8">
      <!-- 2021-10 -->
      <g transform="translate(884.771624 381.55725)scale(0.1 -0.1)">
       <use xlink:href="#WenQuanYiZenHei-32"/>
       <use xlink:href="#WenQuanYiZenHei-30" x="59.960938"/>
       <use xlink:href="#WenQuanYiZenHei-32" x="119.921875"/>
       <use xlink:href="#WenQuanYiZenHei-31" x="179.882812"/>
       <use xlink:href="#WenQuanYiZenHei-2d" x="239.84375"/>
       <use xlink:href="#WenQuanYiZenHei-31" x="269.824219"/>
       <use xlink:href="#WenQuanYiZenHei-30" x="329.785156"/>
      </g>
     </g>
    </g>
    <g id="xtick_9">
     <g id="line2d_9">
      <g>
       <use xlink:href="#md487b635cc" x="1025.218074" y="367.701" style="stroke: #000000; stroke-width: 0.8"/>
      </g>
     </g>
     <g id="text_9">
      <!-- 2022-01 -->
      <g transform="translate(1005.728231 381.55725)scale(0.1 -0.1)">
       <use xlink:href="#WenQuanYiZenHei-32"/>
       <use xlink:href="#WenQuanYiZenHei-30" x="59.960938"/>
       <use xlink:href="#WenQuanYiZenHei-32" x="119.921875"/>
       <use xlink:href="#WenQuanYiZenHei-32" x="179.882812"/>
       <use xlink:href="#WenQuanYiZenHei-2d" x="239.84375"/>
       <use xlink:href="#WenQuanYiZenHei-30" x="269.824219"/>
       <use xlink:href="#WenQuanYiZenHei-31" x="329.785156"/>
      </g>
     </g>
    </g>
    <g id="xtick_10">
     <g id="line2d_10">
      <g>
       <use xlink:href="#md487b635cc" x="1143.54519" y="367.701" style="stroke: #000000; stroke-width: 0.8"/>
      </g>
     </g>
     <g id="text_10">
      <!-- 2022-04 -->
      <g transform="translate(1124.055346 381.55725)scale(0.1 -0.1)">
       <use xlink:href="#WenQuanYiZenHei-32"/>
       <use xlink:href="#WenQuanYiZenHei-30" x="59.960938"/>
       <use xlink:href="#WenQuanYiZenHei-32" x="119.921875"/>
       <use xlink:href="#WenQuanYiZenHei-32" x="179.882812"/>
       <use xlink:href="#WenQuanYiZenHei-2d" x="239.84375"/>
       <use xlink:href="#WenQuanYiZenHei-30" x="269.824219"/>
       <use xlink:href="#WenQuanYiZenHei-34" x="329.785156"/>
      </g>
     </g>
    </g>
    <g id="xtick_11">
     <g id="line2d_11">
      <g>
       <use xlink:href="#md487b635cc" x="1263.187051" y="367.701" style="stroke: #000000; stroke-width: 0.8"/>
      </g>
     </g>
     <g id="text_11">
      <!-- 2022-07 -->
      <g transform="translate(1243.697208 381.55725)scale(0.1 -0.1)">
       <use xlink:href="#WenQuanYiZenHei-32"/>
       <use xlink:href="#WenQuanYiZenHei-30" x="59.960938"/>
       <use xlink:href="#WenQuanYiZenHei-32" x="119.921875"/>
       <use xlink:href="#WenQuanYiZenHei-32" x="179.882812"/>
       <use xlink:href="#WenQuanYiZenHei-2d" x="239.84375"/>
       <use xlink:href="#WenQuanYiZenHei-30" x="269.824219"/>
       <use xlink:href="#WenQuanYiZenHei-37" x="329.785156"/>
      </g>
     </g>
    </g>
   </g>
   <g id="matplotlib.axis_2">
    <g id="ytick_1">
     <g id="line2d_12">
      <defs>
       <path id="m93aded3cb1" d="M 0 0 
L -3.5 0 
" style="stroke: #000000; stroke-width: 0.8"/>
      </defs>
      <g>
       <use xlink:href="#m93aded3cb1" x="32.190625" y="344.756949" style="stroke: #000000; stroke-width: 0.8"/>
      </g>
     </g>
     <g id="text_12">
      <!-- 0 -->
      <g transform="translate(19.19375 348.185074)scale(0.1 -0.1)">
       <use xlink:href="#WenQuanYiZenHei-30"/>
      </g>
     </g>
    </g>
    <g id="ytick_2">
     <g id="line2d_13">
      <g>
       <use xlink:href="#m93aded3cb1" x="32.190625" y="304.069663" style="stroke: #000000; stroke-width: 0.8"/>
      </g>
     </g>
     <g id="text_13">
      <!-- 50 -->
      <g transform="translate(13.196875 307.497788)scale(0.1 -0.1)">
       <defs>
        <path id="WenQuanYiZenHei-35" d="M 3531 1488 
Q 3531 688 2913 250 
Q 2456 -63 1844 -63 
Q 1175 -63 706 350 
Q 413 613 306 975 
L 781 1131 
Q 1000 538 1569 406 
Q 1706 369 1856 369 
Q 2550 369 2850 869 
Q 3000 1131 3000 1494 
Q 3000 2056 2581 2356 
Q 2319 2538 1969 2538 
Q 1400 2538 1031 2075 
Q 981 2013 938 1938 
L 500 2031 
L 644 4388 
L 3244 4388 
L 3200 3919 
L 1044 3919 
L 950 2500 
Q 1431 2975 2006 2975 
Q 2713 2975 3163 2475 
Q 3531 2063 3531 1488 
z
" transform="scale(0.015625)"/>
       </defs>
       <use xlink:href="#WenQuanYiZenHei-35"/>
       <use xlink:href="#WenQuanYiZenHei-30" x="59.960938"/>
      </g>
     </g>
    </g>
    <g id="ytick_3">
     <g id="line2d_14">
      <g>
       <use xlink:href="#m93aded3cb1" x="32.190625" y="263.382377" style="stroke: #000000; stroke-width: 0.8"/>
      </g>
     </g>
     <g id="text_14">
      <!-- 100 -->
      <g transform="translate(7.2 266.810502)scale(0.1 -0.1)">
       <use xlink:href="#WenQuanYiZenHei-31"/>
       <use xlink:href="#WenQuanYiZenHei-30" x="59.960938"/>
       <use xlink:href="#WenQuanYiZenHei-30" x="119.921875"/>
      </g>
     </g>
    </g>
    <g id="ytick_4">
     <g id="line2d_15">
      <g>
       <use xlink:href="#m93aded3cb1" x="32.190625" y="222.695091" style="stroke: #000000; stroke-width: 0.8"/>
      </g>
     </g>
     <g id="text_15">
      <!-- 150 -->
      <g transform="translate(7.2 226.123216)scale(0.1 -0.1)">
       <use xlink:href="#WenQuanYiZenHei-31"/>
       <use xlink:href="#WenQuanYiZenHei-35" x="59.960938"/>
       <use xlink:href="#WenQuanYiZenHei-30" x="119.921875"/>
      </g>
     </g>
    </g>
    <g id="ytick_5">
     <g id="line2d_16">
      <g>
       <use xlink:href="#m93aded3cb1" x="32.190625" y="182.007806" style="stroke: #000000; stroke-width: 0.8"/>
      </g>
     </g>
     <g id="text_16">
      <!-- 200 -->
      <g transform="translate(7.2 185.435931)scale(0.1 -0.1)">
       <use xlink:href="#WenQuanYiZenHei-32"/>
       <use xlink:href="#WenQuanYiZenHei-30" x="59.960938"/>
       <use xlink:href="#WenQuanYiZenHei-30" x="119.921875"/>
      </g>
     </g>
    </g>
    <g id="ytick_6">
     <g id="line2d_17">
      <g>
       <use xlink:href="#m93aded3cb1" x="32.190625" y="141.32052" style="stroke: #000000; stroke-width: 0.8"/>
      </g>
     </g>
     <g id="text_17">
      <!-- 250 -->
      <g transform="translate(7.2 144.748645)scale(0.1 -0.1)">
       <use xlink:href="#WenQuanYiZenHei-32"/>
       <use xlink:href="#WenQuanYiZenHei-35" x="59.960938"/>
       <use xlink:href="#WenQuanYiZenHei-30" x="119.921875"/>
      </g>
     </g>
    </g>
    <g id="ytick_7">
     <g id="line2d_18">
      <g>
       <use xlink:href="#m93aded3cb1" x="32.190625" y="100.633234" style="stroke: #000000; stroke-width: 0.8"/>
      </g>
     </g>
     <g id="text_18">
      <!-- 300 -->
      <g transform="translate(7.2 104.061359)scale(0.1 -0.1)">
       <defs>
        <path id="WenQuanYiZenHei-33" d="M 3588 1231 
Q 3588 494 2875 144 
Q 2450 -63 1925 -63 
Q 1044 -63 556 488 
Q 356 706 256 1000 
L 769 1169 
Q 994 375 1913 375 
Q 2631 375 2900 788 
Q 3019 975 3019 1231 
Q 3019 1638 2638 1881 
Q 2325 2081 1613 2069 
L 1338 2069 
L 1338 2494 
Q 1969 2494 2094 2506 
Q 2325 2544 2463 2613 
Q 2763 2756 2844 3100 
Q 2863 3169 2863 3244 
Q 2863 3744 2381 3944 
L 2163 4006 
Q 2056 4025 1931 4025 
Q 1388 4025 1075 3631 
Q 969 3488 906 3313 
L 419 3456 
Q 675 4150 1400 4369 
Q 1669 4456 1975 4456 
Q 2694 4456 3106 4050 
Q 3419 3744 3419 3275 
Q 3419 2813 3025 2513 
Q 2825 2356 2575 2319 
L 2575 2306 
Q 3181 2213 3450 1769 
Q 3588 1525 3588 1231 
z
" transform="scale(0.015625)"/>
       </defs>
       <use xlink:href="#WenQuanYiZenHei-33"/>
       <use xlink:href="#WenQuanYiZenHei-30" x="59.960938"/>
       <use xlink:href="#WenQuanYiZenHei-30" x="119.921875"/>
      </g>
     </g>
    </g>
    <g id="ytick_8">
     <g id="line2d_19">
      <g>
       <use xlink:href="#m93aded3cb1" x="32.190625" y="59.945949" style="stroke: #000000; stroke-width: 0.8"/>
      </g>
     </g>
     <g id="text_19">
      <!-- 350 -->
      <g transform="translate(7.2 63.374074)scale(0.1 -0.1)">
       <use xlink:href="#WenQuanYiZenHei-33"/>
       <use xlink:href="#WenQuanYiZenHei-35" x="59.960938"/>
       <use xlink:href="#WenQuanYiZenHei-30" x="119.921875"/>
      </g>
     </g>
    </g>
   </g>
   <g id="line2d_20">
    <path d="M 93.063352 341.501966 
L 94.378098 340.68822 
L 95.692844 338.246983 
L 97.007589 330.923271 
L 98.322335 325.227051 
L 99.637081 327.668289 
L 100.951827 341.501966 
L 102.266572 330.923271 
L 103.581318 329.29578 
L 104.896064 325.227051 
L 106.21081 332.550763 
L 107.525555 328.482034 
L 108.840301 332.550763 
L 110.155047 335.805746 
L 112.784538 337.433237 
L 114.099284 332.550763 
L 115.41403 335.805746 
L 116.728775 335.805746 
L 118.043521 339.874474 
L 119.358267 340.68822 
L 120.673013 339.060729 
L 121.987758 343.129457 
L 123.302504 341.501966 
L 124.61725 343.129457 
L 125.931996 342.315711 
L 129.876233 344.756949 
L 135.135216 344.756949 
L 136.449961 343.943203 
L 137.764707 344.756949 
L 139.079453 343.129457 
L 140.394199 344.756949 
L 166.689113 344.756949 
L 168.003859 342.315711 
L 169.318605 341.501966 
L 170.63335 336.619491 
L 171.948096 344.756949 
L 173.262842 340.68822 
L 174.577587 341.501966 
L 175.892333 339.874474 
L 177.207079 342.315711 
L 178.521825 339.874474 
L 179.83657 343.943203 
L 182.466062 342.315711 
L 183.780808 343.129457 
L 185.095553 344.756949 
L 186.410299 341.501966 
L 187.725045 343.943203 
L 189.039791 344.756949 
L 190.354536 344.756949 
L 191.669282 343.943203 
L 192.984028 344.756949 
L 196.928265 344.756949 
L 198.243011 343.943203 
L 199.557756 344.756949 
L 200.872502 343.943203 
L 202.187248 344.756949 
L 203.501994 344.756949 
L 204.816739 343.943203 
L 206.131485 343.943203 
L 207.446231 344.756949 
L 220.593688 344.756949 
L 221.908434 343.943203 
L 223.223179 344.756949 
L 253.462331 344.756949 
L 254.777077 343.943203 
L 256.091823 344.756949 
L 257.406568 343.943203 
L 258.721314 344.756949 
L 269.23928 344.756949 
L 270.554026 343.943203 
L 271.868771 344.756949 
L 274.498263 344.756949 
L 275.813009 343.943203 
L 277.127754 343.943203 
L 278.4425 344.756949 
L 279.757246 344.756949 
L 281.071992 343.943203 
L 282.386737 344.756949 
L 287.64572 344.756949 
L 288.960466 343.943203 
L 290.275212 344.756949 
L 323.143855 344.756949 
L 324.458601 343.943203 
L 325.773346 344.756949 
L 333.661821 344.756949 
L 334.976566 343.943203 
L 336.291312 343.943203 
L 337.606058 344.756949 
L 342.865041 344.756949 
L 344.179787 343.943203 
L 345.494532 344.756949 
L 356.012498 344.756949 
L 357.327244 343.943203 
L 358.64199 344.756949 
L 361.271481 344.756949 
L 362.586227 343.943203 
L 363.900973 343.943203 
L 365.215718 344.756949 
L 369.159955 344.756949 
L 370.474701 343.943203 
L 371.789447 343.943203 
L 373.104193 342.315711 
L 374.418938 344.756949 
L 377.04843 344.756949 
L 379.677921 343.129457 
L 382.307413 343.129457 
L 384.936904 344.756949 
L 386.25165 344.756949 
L 387.566396 343.943203 
L 390.195887 343.943203 
L 391.510633 344.756949 
L 392.825379 343.943203 
L 394.140124 344.756949 
L 396.769616 344.756949 
L 398.084362 343.943203 
L 399.399107 344.756949 
L 400.713853 343.129457 
L 402.028599 344.756949 
L 403.343344 343.129457 
L 404.65809 344.756949 
L 405.972836 343.943203 
L 409.917073 343.943203 
L 411.231819 344.756949 
L 415.176056 344.756949 
L 416.490802 343.943203 
L 417.805547 341.501966 
L 419.120293 343.129457 
L 420.435039 343.943203 
L 421.749785 340.68822 
L 423.06453 344.756949 
L 424.379276 343.129457 
L 425.694022 344.756949 
L 427.008768 344.756949 
L 428.323513 343.129457 
L 429.638259 344.756949 
L 432.26775 344.756949 
L 433.582496 343.943203 
L 434.897242 344.756949 
L 436.211988 343.943203 
L 437.526733 343.943203 
L 438.841479 344.756949 
L 441.470971 344.756949 
L 442.785716 343.943203 
L 444.100462 344.756949 
L 446.729953 344.756949 
L 448.044699 343.943203 
L 450.674191 343.943203 
L 451.988936 339.060729 
L 453.303682 343.129457 
L 454.618428 344.756949 
L 455.933174 343.943203 
L 457.247919 343.943203 
L 458.562665 344.756949 
L 459.877411 343.943203 
L 461.192157 341.501966 
L 462.506902 344.756949 
L 463.821648 343.943203 
L 465.136394 344.756949 
L 466.451139 341.501966 
L 467.765885 343.129457 
L 469.080631 343.943203 
L 470.395377 343.129457 
L 471.710122 337.433237 
L 473.024868 343.943203 
L 474.339614 344.756949 
L 475.65436 342.315711 
L 476.969105 344.756949 
L 478.283851 343.943203 
L 479.598597 344.756949 
L 480.913342 343.943203 
L 482.228088 344.756949 
L 486.172325 344.756949 
L 487.487071 343.129457 
L 488.801817 339.874474 
L 490.116563 344.756949 
L 491.431308 341.501966 
L 492.746054 343.943203 
L 494.0608 341.501966 
L 495.375545 343.943203 
L 498.005037 343.943203 
L 499.319783 343.129457 
L 500.634528 341.501966 
L 501.949274 344.756949 
L 503.26402 343.129457 
L 505.893511 344.756949 
L 507.208257 343.129457 
L 508.523003 343.943203 
L 509.837749 339.874474 
L 511.152494 343.943203 
L 512.46724 344.756949 
L 513.781986 344.756949 
L 515.096731 343.943203 
L 516.411477 344.756949 
L 517.726223 343.943203 
L 519.040969 344.756949 
L 521.67046 344.756949 
L 522.985206 343.943203 
L 524.299952 344.756949 
L 525.614697 344.756949 
L 526.929443 343.943203 
L 528.244189 343.943203 
L 529.558934 343.129457 
L 530.87368 344.756949 
L 534.817917 344.756949 
L 536.132663 343.943203 
L 537.447409 344.756949 
L 538.762155 344.756949 
L 541.391646 343.129457 
L 542.706392 343.943203 
L 544.021137 343.943203 
L 545.335883 344.756949 
L 546.650629 342.315711 
L 547.965375 343.943203 
L 549.28012 343.943203 
L 550.594866 344.756949 
L 551.909612 344.756949 
L 553.224358 343.943203 
L 554.539103 343.943203 
L 555.853849 339.874474 
L 557.168595 343.943203 
L 559.798086 343.943203 
L 561.112832 344.756949 
L 563.742323 344.756949 
L 565.057069 343.129457 
L 567.686561 344.756949 
L 569.001306 343.943203 
L 570.316052 344.756949 
L 571.630798 343.943203 
L 572.945544 344.756949 
L 574.260289 344.756949 
L 575.575035 343.943203 
L 576.889781 343.943203 
L 578.204526 344.756949 
L 580.834018 344.756949 
L 582.148764 342.315711 
L 583.463509 343.129457 
L 584.778255 344.756949 
L 587.407747 344.756949 
L 588.722492 342.315711 
L 590.037238 343.943203 
L 591.351984 344.756949 
L 593.981475 344.756949 
L 595.296221 343.943203 
L 597.925712 343.943203 
L 599.240458 344.756949 
L 611.07317 344.756949 
L 612.387915 343.943203 
L 613.702661 344.756949 
L 618.961644 344.756949 
L 620.27639 343.129457 
L 621.591136 344.756949 
L 629.47961 344.756949 
L 630.794356 343.943203 
L 632.109101 344.756949 
L 633.423847 344.756949 
L 634.738593 343.943203 
L 636.053339 344.756949 
L 637.368084 344.756949 
L 638.68283 343.129457 
L 641.312321 344.756949 
L 642.627067 343.943203 
L 643.941813 344.756949 
L 647.88605 344.756949 
L 649.200796 343.129457 
L 650.515542 344.756949 
L 653.145033 344.756949 
L 654.459779 343.943203 
L 655.774524 344.756949 
L 659.718762 344.756949 
L 661.033507 343.943203 
L 662.348253 344.756949 
L 663.662999 344.756949 
L 664.977745 337.433237 
L 666.29249 343.943203 
L 667.607236 343.943203 
L 668.921982 344.756949 
L 670.236727 343.943203 
L 671.551473 344.756949 
L 674.180965 343.129457 
L 675.49571 344.756949 
L 676.810456 341.501966 
L 678.125202 343.943203 
L 679.439948 343.943203 
L 680.754693 344.756949 
L 682.069439 343.943203 
L 683.384185 344.756949 
L 684.698931 343.943203 
L 686.013676 344.756949 
L 687.328422 343.129457 
L 688.643168 344.756949 
L 692.587405 344.756949 
L 693.902151 342.315711 
L 695.216896 343.943203 
L 696.531642 344.756949 
L 699.161134 344.756949 
L 700.475879 343.943203 
L 703.105371 343.943203 
L 704.420116 344.756949 
L 708.364354 344.756949 
L 709.679099 343.129457 
L 710.993845 344.756949 
L 713.623337 344.756949 
L 714.938082 343.129457 
L 716.252828 344.756949 
L 717.567574 344.756949 
L 718.882319 343.943203 
L 720.197065 344.756949 
L 722.826557 344.756949 
L 724.141302 343.943203 
L 725.456048 344.756949 
L 726.770794 344.756949 
L 728.08554 335.805746 
L 729.400285 344.756949 
L 730.715031 343.129457 
L 732.029777 343.943203 
L 733.344523 343.129457 
L 734.659268 343.943203 
L 735.974014 343.943203 
L 737.28876 344.756949 
L 739.918251 343.129457 
L 742.547743 344.756949 
L 743.862488 342.315711 
L 745.177234 343.943203 
L 746.49198 344.756949 
L 747.806726 342.315711 
L 749.121471 343.943203 
L 750.436217 344.756949 
L 751.750963 343.129457 
L 754.380454 344.756949 
L 755.6952 342.315711 
L 757.009946 343.943203 
L 758.324691 343.943203 
L 759.639437 344.756949 
L 760.954183 343.943203 
L 762.268929 344.756949 
L 763.583674 342.315711 
L 764.89842 340.68822 
L 766.213166 341.501966 
L 767.527911 343.943203 
L 768.842657 343.943203 
L 770.157403 339.060729 
L 771.472149 343.943203 
L 772.786894 343.943203 
L 774.10164 344.756949 
L 775.416386 341.501966 
L 776.731132 341.501966 
L 778.045877 342.315711 
L 779.360623 342.315711 
L 780.675369 343.129457 
L 781.990114 342.315711 
L 783.30486 340.68822 
L 784.619606 343.943203 
L 785.934352 343.129457 
L 787.249097 344.756949 
L 788.563843 343.943203 
L 789.878589 343.943203 
L 791.193335 343.129457 
L 792.50808 344.756949 
L 795.137572 344.756949 
L 796.452318 341.501966 
L 797.767063 343.129457 
L 799.081809 343.943203 
L 800.396555 343.943203 
L 801.7113 344.756949 
L 803.026046 341.501966 
L 804.340792 341.501966 
L 805.655538 343.943203 
L 806.970283 343.943203 
L 808.285029 344.756949 
L 809.599775 343.943203 
L 810.914521 344.756949 
L 812.229266 341.501966 
L 813.544012 341.501966 
L 814.858758 340.68822 
L 816.173503 344.756949 
L 817.488249 342.315711 
L 821.432486 342.315711 
L 822.747232 343.943203 
L 824.061978 341.501966 
L 825.376724 343.129457 
L 826.691469 340.68822 
L 828.006215 342.315711 
L 829.320961 344.756949 
L 833.265198 344.756949 
L 834.579944 342.315711 
L 835.894689 344.756949 
L 837.209435 343.943203 
L 838.524181 344.756949 
L 839.838927 335.805746 
L 841.153672 343.943203 
L 842.468418 341.501966 
L 843.783164 344.756949 
L 846.412655 341.501966 
L 847.727401 343.129457 
L 850.356892 344.756949 
L 851.671638 344.756949 
L 852.986384 343.129457 
L 854.30113 344.756949 
L 855.615875 343.943203 
L 856.930621 344.756949 
L 858.245367 343.943203 
L 860.874858 343.943203 
L 862.189604 343.129457 
L 863.50435 343.943203 
L 864.819095 343.943203 
L 866.133841 344.756949 
L 867.448587 343.129457 
L 868.763333 344.756949 
L 870.078078 343.943203 
L 871.392824 341.501966 
L 872.70757 344.756949 
L 874.022316 343.129457 
L 875.337061 343.943203 
L 876.651807 342.315711 
L 877.966553 327.668289 
L 879.281298 326.854543 
L 880.596044 295.932206 
L 881.91079 303.255917 
L 883.225536 305.697154 
L 884.540281 295.11846 
L 885.855027 319.530831 
L 887.169773 309.765883 
L 888.484519 321.158323 
L 889.799264 308.952137 
L 891.11401 332.550763 
L 892.428756 328.482034 
L 893.743501 331.737017 
L 895.058247 342.315711 
L 896.372993 340.68822 
L 897.687739 343.129457 
L 899.002484 343.129457 
L 900.31723 340.68822 
L 901.631976 343.943203 
L 902.946722 344.756949 
L 904.261467 344.756949 
L 905.576213 340.68822 
L 906.890959 344.756949 
L 908.205705 343.129457 
L 910.835196 344.756949 
L 912.149942 344.756949 
L 913.464687 343.943203 
L 914.779433 343.943203 
L 916.094179 344.756949 
L 917.408925 343.943203 
L 918.72367 343.943203 
L 920.038416 344.756949 
L 925.297399 344.756949 
L 926.612145 343.943203 
L 927.92689 343.943203 
L 929.241636 344.756949 
L 930.556382 344.756949 
L 931.871128 343.129457 
L 933.185873 344.756949 
L 934.500619 344.756949 
L 935.815365 343.943203 
L 937.130111 343.943203 
L 938.444856 343.129457 
L 939.759602 344.756949 
L 941.074348 343.943203 
L 942.389093 344.756949 
L 943.703839 342.315711 
L 945.018585 343.129457 
L 946.333331 344.756949 
L 948.962822 344.756949 
L 950.277568 342.315711 
L 951.592314 343.943203 
L 954.221805 343.943203 
L 955.536551 344.756949 
L 956.851297 344.756949 
L 958.166042 343.943203 
L 959.480788 343.943203 
L 960.795534 344.756949 
L 962.110279 343.129457 
L 963.425025 344.756949 
L 967.369262 344.756949 
L 968.684008 343.943203 
L 969.998754 344.756949 
L 973.942991 344.756949 
L 975.257737 343.943203 
L 976.572482 344.756949 
L 980.51672 344.756949 
L 981.831465 343.943203 
L 983.146211 343.943203 
L 984.460957 344.756949 
L 988.405194 344.756949 
L 989.71994 343.943203 
L 991.034685 344.756949 
L 992.349431 342.315711 
L 993.664177 343.943203 
L 994.978923 342.315711 
L 996.293668 344.756949 
L 997.608414 343.943203 
L 998.92316 344.756949 
L 1000.237906 343.129457 
L 1001.552651 344.756949 
L 1002.867397 342.315711 
L 1004.182143 344.756949 
L 1005.496888 344.756949 
L 1006.811634 341.501966 
L 1008.12638 344.756949 
L 1009.441126 340.68822 
L 1010.755871 344.756949 
L 1012.070617 343.943203 
L 1013.385363 344.756949 
L 1014.700109 343.943203 
L 1016.014854 342.315711 
L 1017.3296 344.756949 
L 1018.644346 343.129457 
L 1019.959092 343.129457 
L 1021.273837 341.501966 
L 1022.588583 343.943203 
L 1023.903329 341.501966 
L 1025.218074 337.433237 
L 1026.53282 344.756949 
L 1027.847566 335.805746 
L 1029.162312 339.060729 
L 1030.477057 339.874474 
L 1031.791803 343.943203 
L 1033.106549 341.501966 
L 1034.421295 337.433237 
L 1035.73604 340.68822 
L 1037.050786 336.619491 
L 1038.365532 341.501966 
L 1039.680277 340.68822 
L 1040.995023 342.315711 
L 1042.309769 342.315711 
L 1043.624515 343.943203 
L 1047.568752 343.943203 
L 1048.883498 344.756949 
L 1051.512989 341.501966 
L 1052.827735 343.943203 
L 1054.14248 343.129457 
L 1055.457226 344.756949 
L 1060.716209 344.756949 
L 1062.030955 343.943203 
L 1063.345701 343.943203 
L 1064.660446 344.756949 
L 1067.289938 344.756949 
L 1068.604684 343.943203 
L 1069.919429 344.756949 
L 1071.234175 342.315711 
L 1072.548921 343.943203 
L 1073.863666 344.756949 
L 1075.178412 343.129457 
L 1076.493158 343.943203 
L 1077.807904 336.619491 
L 1079.122649 333.364509 
L 1080.437395 343.943203 
L 1081.752141 340.68822 
L 1083.066887 338.246983 
L 1084.381632 339.874474 
L 1085.696378 342.315711 
L 1087.011124 342.315711 
L 1088.325869 344.756949 
L 1089.640615 341.501966 
L 1090.955361 342.315711 
L 1092.270107 336.619491 
L 1093.584852 343.129457 
L 1094.899598 339.874474 
L 1096.214344 341.501966 
L 1097.52909 339.060729 
L 1098.843835 340.68822 
L 1100.158581 344.756949 
L 1101.473327 339.060729 
L 1102.788072 343.943203 
L 1104.102818 341.501966 
L 1105.417564 343.129457 
L 1106.73231 331.737017 
L 1108.047055 343.129457 
L 1109.361801 344.756949 
L 1111.991293 343.129457 
L 1113.306038 343.943203 
L 1117.250276 343.943203 
L 1118.565021 335.805746 
L 1119.879767 313.020866 
L 1121.194513 344.756949 
L 1122.509258 242.224989 
L 1123.824004 250.362446 
L 1125.13875 344.756949 
L 1126.453496 50.181 
L 1127.768241 214.557634 
L 1129.082987 251.176191 
L 1130.397733 250.362446 
L 1131.712479 286.167257 
L 1133.027224 330.109526 
L 1134.34197 340.68822 
L 1135.656716 343.943203 
L 1136.971461 334.992 
L 1138.286207 336.619491 
L 1139.600953 336.619491 
L 1140.915699 335.805746 
L 1142.230444 344.756949 
L 1143.54519 328.482034 
L 1144.859936 335.805746 
L 1146.174682 329.29578 
L 1147.489427 337.433237 
L 1148.804173 338.246983 
L 1150.118919 326.854543 
L 1151.433664 326.854543 
L 1152.74841 340.68822 
L 1154.063156 334.992 
L 1155.377902 337.433237 
L 1156.692647 339.060729 
L 1158.007393 338.246983 
L 1159.322139 334.178254 
L 1160.636885 331.737017 
L 1161.95163 327.668289 
L 1163.266376 342.315711 
L 1164.581122 343.943203 
L 1165.895867 343.943203 
L 1167.210613 343.129457 
L 1169.840105 339.874474 
L 1171.15485 340.68822 
L 1172.469596 343.943203 
L 1173.784342 342.315711 
L 1175.099088 342.315711 
L 1176.413833 343.943203 
L 1180.358071 341.501966 
L 1181.672816 343.943203 
L 1182.987562 342.315711 
L 1184.302308 337.433237 
L 1185.617053 341.501966 
L 1186.931799 343.129457 
L 1188.246545 333.364509 
L 1189.561291 343.129457 
L 1190.876036 340.68822 
L 1192.190782 341.501966 
L 1193.505528 343.129457 
L 1194.820274 334.178254 
L 1196.135019 341.501966 
L 1197.449765 332.550763 
L 1198.764511 330.109526 
L 1200.079256 339.060729 
L 1201.394002 339.060729 
L 1202.708748 336.619491 
L 1204.023494 337.433237 
L 1205.338239 339.060729 
L 1206.652985 337.433237 
L 1207.967731 337.433237 
L 1209.282477 339.060729 
L 1210.597222 337.433237 
L 1211.911968 340.68822 
L 1214.541459 335.805746 
L 1215.856205 338.246983 
L 1217.170951 334.992 
L 1218.485697 332.550763 
L 1219.800442 341.501966 
L 1221.115188 339.060729 
L 1222.429934 341.501966 
L 1223.74468 344.756949 
L 1225.059425 337.433237 
L 1226.374171 333.364509 
L 1227.688917 344.756949 
L 1229.003663 336.619491 
L 1230.318408 339.060729 
L 1231.633154 337.433237 
L 1232.9479 341.501966 
L 1234.262645 343.129457 
L 1236.892137 339.874474 
L 1238.206883 342.315711 
L 1239.521628 339.060729 
L 1240.836374 340.68822 
L 1242.15112 339.060729 
L 1243.465866 336.619491 
L 1244.780611 341.501966 
L 1246.095357 337.433237 
L 1247.410103 339.060729 
L 1248.724848 339.874474 
L 1250.039594 341.501966 
L 1251.35434 339.874474 
L 1252.669086 343.129457 
L 1253.983831 340.68822 
L 1255.298577 339.874474 
L 1256.613323 341.501966 
L 1257.928069 339.874474 
L 1259.242814 341.501966 
L 1260.55756 339.060729 
L 1263.187051 339.060729 
L 1264.501797 338.246983 
L 1265.816543 339.874474 
L 1267.131289 338.246983 
L 1268.446034 335.805746 
L 1269.76078 337.433237 
L 1271.075526 330.923271 
L 1272.390272 337.433237 
L 1273.705017 338.246983 
L 1275.019763 336.619491 
L 1276.334509 339.874474 
L 1277.649254 338.246983 
L 1278.964 339.060729 
L 1280.278746 334.178254 
L 1281.593492 339.060729 
L 1282.908237 336.619491 
L 1284.222983 341.501966 
L 1285.537729 341.501966 
L 1286.852475 339.874474 
L 1288.16722 334.992 
L 1289.481966 336.619491 
L 1290.796712 337.433237 
L 1292.111458 339.874474 
L 1293.426203 339.874474 
L 1293.426203 339.874474 
" clip-path="url(#pbb3ba18073)" style="fill: none; stroke: #0000ff; stroke-width: 1.5; stroke-linecap: square"/>
   </g>
   <g id="line2d_21">
    <path d="M 1054.14248 342.536259 
L 1055.457226 344.208461 
L 1056.771972 344.402404 
L 1058.086718 345.069934 
L 1059.401463 345.098867 
L 1060.716209 344.702651 
L 1062.030955 344.445066 
L 1063.345701 344.004394 
L 1064.660446 343.998901 
L 1067.289938 344.950956 
L 1068.604684 344.604834 
L 1069.919429 344.460489 
L 1071.234175 343.617054 
L 1073.863666 343.320933 
L 1075.178412 344.078775 
L 1076.493158 344.221845 
L 1077.807904 341.089246 
L 1079.122649 337.523745 
L 1080.437395 336.126626 
L 1081.752141 338.641776 
L 1083.066887 342.618835 
L 1084.381632 339.880722 
L 1085.696378 339.864628 
L 1087.011124 342.275895 
L 1088.325869 343.401443 
L 1089.640615 343.066011 
L 1090.955361 343.128769 
L 1092.270107 340.010987 
L 1093.584852 339.818698 
L 1094.899598 339.156411 
L 1096.214344 341.815782 
L 1097.52909 340.452392 
L 1098.843835 340.234481 
L 1100.158581 341.682435 
L 1101.473327 341.759993 
L 1102.788072 343.123248 
L 1104.102818 341.012242 
L 1105.417564 343.22778 
L 1106.73231 339.02219 
L 1108.047055 338.081902 
L 1109.361801 338.721924 
L 1110.676547 345.108764 
L 1111.991293 345.604672 
L 1113.306038 343.469716 
L 1114.620784 344.212307 
L 1115.93553 343.762745 
L 1117.250276 343.605543 
L 1118.565021 340.959871 
L 1119.879767 330.554984 
L 1121.194513 327.420538 
L 1122.509258 297.636534 
L 1123.824004 274.800835 
L 1125.13875 260.65882 
L 1126.453496 216.06362 
L 1127.768241 200.297461 
L 1129.082987 131.980966 
L 1130.397733 249.487814 
L 1131.712479 291.412874 
L 1133.027224 290.92433 
L 1134.34197 343.621996 
L 1135.656716 352.581 
L 1136.971461 344.111874 
L 1138.286207 332.040132 
L 1139.600953 332.3078 
L 1140.915699 333.220472 
L 1142.230444 335.910054 
L 1143.54519 337.025049 
L 1144.859936 337.89111 
L 1146.174682 329.854556 
L 1147.489427 333.02988 
L 1148.804173 334.861846 
L 1150.118919 334.608415 
L 1151.433664 331.264928 
L 1152.74841 329.090656 
L 1154.063156 334.65221 
L 1155.377902 339.682727 
L 1156.692647 337.342392 
L 1158.007393 338.788817 
L 1159.322139 338.244385 
L 1161.95163 329.684947 
L 1163.266376 332.299619 
L 1164.581122 338.076414 
L 1165.895867 346.154445 
L 1167.210613 345.955861 
L 1168.525359 343.402719 
L 1169.840105 341.599727 
L 1171.15485 339.297461 
L 1172.469596 340.267106 
L 1173.784342 342.214525 
L 1175.099088 343.703746 
L 1176.413833 343.146427 
L 1179.043325 343.474699 
L 1180.358071 341.96404 
L 1181.672816 342.103985 
L 1182.987562 342.53122 
L 1184.302308 341.549851 
L 1185.617053 339.905208 
L 1186.931799 339.852154 
L 1188.246545 339.995794 
L 1189.561291 339.661643 
L 1190.876036 337.97124 
L 1192.190782 342.889295 
L 1193.505528 342.398351 
L 1194.820274 339.503669 
L 1196.135019 339.657575 
L 1197.449765 334.82272 
L 1198.764511 334.498231 
L 1200.079256 332.31086 
L 1201.394002 335.284239 
L 1202.708748 340.43468 
L 1204.023494 338.365606 
L 1205.338239 337.693534 
L 1206.652985 338.327781 
L 1207.967731 337.986448 
L 1209.282477 337.363342 
L 1210.597222 337.856419 
L 1211.911968 339.440446 
L 1213.226714 338.867942 
L 1214.541459 338.594541 
L 1217.170951 335.713537 
L 1218.485697 335.257405 
L 1219.800442 335.46982 
L 1221.115188 337.658362 
L 1222.429934 342.303726 
L 1223.74468 342.449024 
L 1225.059425 341.944085 
L 1227.688917 336.487597 
L 1229.003663 337.339705 
L 1230.318408 341.185537 
L 1231.633154 337.293944 
L 1232.9479 339.100849 
L 1234.262645 341.488112 
L 1235.577391 342.51824 
L 1236.892137 342.17295 
L 1238.206883 340.799607 
L 1239.521628 340.35673 
L 1240.836374 340.475408 
L 1242.15112 339.069176 
L 1243.465866 338.657606 
L 1244.780611 338.822953 
L 1246.095357 338.243085 
L 1247.410103 339.864322 
L 1248.724848 338.571808 
L 1250.039594 340.185222 
L 1251.35434 341.077552 
L 1252.669086 341.597246 
L 1253.983831 341.442989 
L 1255.298577 341.496237 
L 1256.613323 340.448477 
L 1257.928069 339.930609 
L 1259.242814 341.088581 
L 1260.55756 340.002047 
L 1261.872306 339.89655 
L 1263.187051 338.821165 
L 1264.501797 338.523252 
L 1265.816543 339.017188 
L 1268.446034 338.247189 
L 1269.76078 336.840653 
L 1271.075526 334.257583 
L 1272.390272 334.784017 
L 1273.705017 334.771734 
L 1275.019763 338.228311 
L 1276.334509 339.1696 
L 1277.649254 338.325112 
L 1278.964 339.813193 
L 1280.278746 337.079466 
L 1281.593492 336.759643 
L 1282.908237 335.972588 
L 1284.222983 339.212874 
L 1285.537729 340.361671 
L 1286.852475 341.69634 
L 1288.16722 339.599225 
L 1289.481966 336.268967 
L 1290.796712 335.260824 
L 1293.426203 339.471836 
L 1293.426203 339.471836 
" clip-path="url(#pbb3ba18073)" style="fill: none; stroke: #ffa500; stroke-width: 1.5; stroke-linecap: square"/>
   </g>
   <g id="line2d_22">
    <path d="M 1293.426203 339.471836 
L 1294.740949 340.387233 
L 1296.055695 340.573128 
L 1297.37044 340.323753 
L 1298.685186 340.521444 
L 1299.999932 340.296234 
L 1301.314678 340.211922 
L 1302.629423 340.339615 
L 1303.944169 340.248502 
L 1305.258915 340.234857 
L 1306.573661 340.284759 
L 1307.888406 340.249282 
L 1309.203152 340.247642 
L 1310.517898 340.266773 
" clip-path="url(#pbb3ba18073)" style="fill: none; stroke: #ff0000; stroke-width: 1.5; stroke-linecap: square"/>
   </g>
   <g id="patch_3">
    <path d="M 32.190625 367.701 
L 32.190625 35.061 
" style="fill: none; stroke: #000000; stroke-width: 0.8; stroke-linejoin: miter; stroke-linecap: square"/>
   </g>
   <g id="patch_4">
    <path d="M 1371.390625 367.701 
L 1371.390625 35.061 
" style="fill: none; stroke: #000000; stroke-width: 0.8; stroke-linejoin: miter; stroke-linecap: square"/>
   </g>
   <g id="patch_5">
    <path d="M 32.190625 367.701 
L 1371.390625 367.701 
" style="fill: none; stroke: #000000; stroke-width: 0.8; stroke-linejoin: miter; stroke-linecap: square"/>
   </g>
   <g id="patch_6">
    <path d="M 32.190625 35.061 
L 1371.390625 35.061 
" style="fill: none; stroke: #000000; stroke-width: 0.8; stroke-linejoin: miter; stroke-linecap: square"/>
   </g>
   <g id="text_20">
    <!-- 每日新增预测 - 福建 -->
    <g transform="translate(648.393438 17.041875)scale(0.12 -0.12)">
     <defs>
      <path id="WenQuanYiZenHei-6bcf" d="M 6138 2181 
Q 6113 1988 6138 1800 
Q 5788 1819 5438 1819 
L 4975 1819 
L 4863 738 
L 5806 738 
L 5806 394 
L 4831 394 
L 4775 -144 
Q 4719 -563 4350 -725 
Q 4013 -856 3550 -825 
L 3288 -819 
Q 3331 -663 3275 -519 
Q 3219 -375 3113 -288 
Q 3381 -313 3759 -303 
Q 4138 -294 4231 -238 
Q 4338 -163 4350 88 
L 4381 394 
L 1025 394 
L 1244 1819 
L 813 1819 
Q 463 1819 113 1800 
Q 138 1988 113 2181 
Q 463 2163 813 2163 
L 1294 2163 
L 1488 3431 
L 1488 3581 
L 1506 3581 
L 1513 3613 
L 1713 3581 
L 5156 3581 
L 5013 2163 
L 5438 2163 
Q 5788 2163 6138 2181 
z
M 5588 4463 
Q 5569 4269 5588 4081 
Q 5244 4100 4894 4100 
L 1813 4100 
Q 1344 3463 606 2788 
Q 481 2988 256 3069 
Q 744 3494 1116 3972 
Q 1488 4450 1919 5181 
Q 2119 5044 2344 4950 
Q 2213 4688 2050 4444 
L 4894 4444 
Q 5238 4444 5588 4463 
z
M 2844 3238 
L 1906 3238 
L 1744 2163 
L 3244 2163 
L 2581 3038 
L 2844 3238 
z
M 3250 2163 
L 4563 2163 
L 4669 3238 
L 3044 3238 
L 3638 2456 
L 3250 2163 
z
M 2944 1819 
Q 3275 1394 3550 938 
L 3213 738 
L 4419 738 
L 4525 1819 
L 2944 1819 
z
M 2656 1819 
L 1694 1819 
L 1525 738 
L 3094 738 
Q 2806 1219 2450 1650 
L 2656 1819 
z
" transform="scale(0.015625)"/>
      <path id="WenQuanYiZenHei-65e5" d="M 1494 -775 
Q 1244 -750 988 -775 
Q 1013 -313 1013 156 
L 1013 4875 
L 5269 4875 
L 5269 -763 
L 4813 -763 
L 4813 156 
L 1469 156 
Q 1469 -313 1494 -775 
z
M 4813 2700 
L 4813 4500 
L 1469 4500 
L 1469 2700 
L 4813 2700 
z
M 4813 531 
L 4813 2325 
L 1469 2325 
L 1469 531 
L 4813 531 
z
" transform="scale(0.015625)"/>
      <path id="WenQuanYiZenHei-65b0" d="M 5419 -763 
Q 5188 -738 4963 -763 
Q 4981 -344 4981 75 
L 4981 2819 
L 4188 2819 
L 4188 1706 
Q 4188 63 3163 -738 
Q 3019 -519 2769 -469 
Q 3769 131 3769 1706 
L 3769 4769 
L 3875 4769 
L 3844 4831 
L 4294 4781 
Q 4438 4769 4894 4816 
Q 5350 4863 5512 4931 
Q 5675 5000 5763 5094 
Q 5850 4881 5981 4694 
Q 5713 4544 5263 4519 
L 4188 4438 
L 4188 3100 
L 5563 3100 
Q 5850 3100 6131 3113 
Q 6119 2956 6131 2806 
L 5394 2819 
L 5394 75 
Q 5394 -344 5419 -763 
z
M 2981 213 
Q 2656 744 2256 1225 
L 2606 1513 
Q 3025 1006 3369 450 
L 2981 213 
z
M 1169 1525 
Q 1375 1419 1594 1363 
Q 1281 488 469 -469 
Q 331 -300 119 -244 
Q 575 263 888 900 
Q 1038 1206 1169 1525 
z
M 1825 6 
L 1825 1769 
L 1081 1769 
Q 794 1769 513 1756 
Q 525 1913 513 2063 
Q 794 2050 1081 2050 
L 1825 2050 
L 1825 2775 
L 994 2775 
Q 706 2775 425 2763 
Q 438 2919 425 3075 
Q 706 3056 994 3056 
L 1825 3056 
L 1825 3088 
L 1906 3088 
Q 2288 3656 2588 4381 
Q 2794 4269 3013 4206 
Q 2800 3675 2381 3056 
L 3013 3056 
Q 3294 3056 3581 3075 
Q 3563 2919 3581 2763 
Q 3294 2775 3013 2775 
L 2238 2775 
L 2238 2050 
L 2925 2050 
Q 3206 2050 3494 2063 
Q 3475 1913 3494 1756 
Q 3206 1769 2925 1769 
L 2238 1769 
L 2238 -156 
Q 2238 -413 2075 -581 
Q 1844 -794 1306 -794 
Q 1363 -519 1188 -288 
Q 1338 -313 1534 -316 
Q 1731 -319 1778 -278 
Q 1825 -238 1825 6 
z
M 1875 3388 
L 1500 3131 
L 825 4088 
L 1200 4350 
L 1875 3388 
z
M 3419 4713 
Q 3400 4563 3419 4406 
Q 3131 4419 2850 4419 
L 1125 4419 
Q 838 4419 556 4406 
Q 569 4563 556 4713 
Q 838 4700 1125 4700 
L 1763 4700 
L 1388 5088 
L 1719 5406 
L 2288 4813 
L 2175 4700 
L 2850 4700 
Q 3131 4700 3419 4713 
z
" transform="scale(0.015625)"/>
      <path id="WenQuanYiZenHei-589e" d="M 3138 -769 
Q 2913 -744 2688 -769 
Q 2706 -356 2706 56 
L 2706 1719 
L 5706 1719 
L 5706 -756 
L 5300 -756 
L 5300 -338 
L 3119 -338 
Q 3125 -550 3138 -769 
z
M 5113 3569 
Q 5344 3606 5563 3688 
Q 5669 3175 5256 2694 
Q 5113 2519 4975 2506 
Q 4831 2725 4588 2813 
Q 4806 2831 4997 3068 
Q 5188 3306 5113 3569 
z
M 3850 2763 
L 3469 2538 
L 2925 3456 
L 3313 3681 
L 3850 2763 
z
M 2400 2100 
Q 2469 3138 2400 4175 
L 3413 4175 
Q 3138 4550 2825 4888 
L 3156 5194 
Q 3581 4725 3938 4206 
L 3900 4175 
L 4456 4175 
Q 4863 4575 5131 5163 
Q 5325 5044 5538 4975 
Q 5369 4575 5013 4175 
L 6056 4175 
Q 5981 3138 6056 2100 
L 2400 2100 
z
M 5300 806 
L 5300 1450 
L 3113 1450 
Q 3113 1125 3113 806 
L 5300 806 
z
M 5300 563 
L 3113 563 
L 3113 -94 
L 5300 -94 
L 5300 563 
z
M 4431 3913 
L 4431 2363 
L 5650 2363 
L 5650 3913 
L 4756 3913 
L 4700 3856 
Q 4681 3888 4656 3913 
L 4431 3913 
z
M 4025 3913 
L 2806 3913 
L 2806 2363 
L 4025 2363 
L 4025 3913 
z
M -31 625 
Q 506 763 1006 975 
L 1006 3206 
L 669 3206 
Q 369 3206 75 3188 
Q 94 3356 75 3531 
Q 369 3513 669 3513 
L 1006 3513 
L 1006 4263 
Q 1006 4700 981 5131 
Q 1206 5106 1431 5131 
Q 1413 4700 1413 4263 
L 1413 3513 
L 2238 3531 
Q 2219 3356 2238 3188 
L 1413 3206 
L 1413 1163 
L 2150 1531 
L 2194 1256 
Q 1269 775 813 519 
L 194 144 
Q 138 438 -31 625 
z
" transform="scale(0.015625)"/>
      <path id="WenQuanYiZenHei-9884" d="M 1206 19 
L 1206 2888 
L 669 2888 
Q 356 2888 50 2869 
Q 63 3044 50 3213 
Q 363 3194 669 3194 
L 1250 3194 
Q 950 3631 606 4031 
L 963 4338 
L 1263 3975 
L 1913 4719 
L 731 4719 
Q 419 4719 106 4706 
Q 125 4875 106 5044 
Q 419 5031 731 5031 
L 2481 5031 
L 2544 4663 
Q 2394 4613 2256 4466 
Q 2119 4319 1525 3631 
Q 1656 3444 1788 3250 
L 1700 3194 
L 2700 3194 
L 2763 2825 
Q 2656 2819 2613 2763 
L 2100 2038 
L 1750 2288 
L 2175 2888 
L 1638 2888 
L 1638 -150 
Q 1638 -525 1363 -669 
Q 1075 -819 525 -813 
Q 594 -513 388 -294 
Q 575 -313 837 -316 
Q 1100 -319 1153 -272 
Q 1206 -225 1206 19 
z
M 5813 -888 
Q 5100 -225 4306 375 
L 4669 719 
Q 5481 106 6219 -575 
L 5813 -888 
z
M 2375 -906 
Q 2294 -631 2025 -506 
Q 2769 -431 3353 19 
Q 3938 469 3938 1069 
L 3938 2200 
Q 3938 2625 3913 3050 
Q 4188 3025 4456 3050 
Q 4431 2625 4431 2200 
L 4431 1069 
Q 4431 681 4225 319 
Q 3644 -606 2375 -906 
z
M 3444 488 
Q 3169 513 2894 488 
Q 2919 913 2919 1338 
L 2919 3675 
Q 3219 3675 3525 3675 
Q 3750 4013 3931 4525 
L 3238 4525 
Q 2888 4525 2538 4513 
Q 2556 4669 2538 4831 
Q 2888 4813 3238 4813 
L 5313 4813 
Q 5663 4813 6006 4831 
Q 5988 4669 6006 4513 
Q 5663 4525 5313 4525 
L 4481 4525 
Q 4388 4088 4088 3675 
L 5644 3675 
L 5644 513 
L 5144 513 
L 5144 3388 
L 3894 3388 
L 3875 3363 
Q 3863 3375 3844 3388 
Q 3631 3388 3413 3388 
L 3419 1338 
Q 3419 913 3444 488 
z
" transform="scale(0.015625)"/>
      <path id="WenQuanYiZenHei-6d4b" d="M 5450 138 
L 5450 4306 
Q 5450 4750 5425 5188 
Q 5663 5163 5906 5188 
Q 5881 4750 5881 4306 
L 5881 -38 
Q 5888 -569 5519 -719 
Q 5194 -831 4825 -813 
Q 4894 -519 4694 -281 
Q 4869 -306 5094 -309 
Q 5319 -313 5384 -256 
Q 5450 -200 5450 138 
z
M 4900 938 
Q 4663 963 4419 938 
Q 4444 1375 4444 1819 
L 4444 3381 
Q 4444 3819 4419 4263 
Q 4663 4238 4900 4263 
Q 4875 3819 4875 3381 
L 4875 1819 
Q 4875 1375 4900 938 
z
M 2750 2025 
L 2750 3038 
Q 2750 3481 2725 3919 
Q 2963 3894 3206 3919 
Q 3181 3481 3181 3038 
L 3181 2025 
Q 3181 1263 2919 625 
L 3231 956 
Q 3781 431 4256 -150 
L 3888 -456 
Q 3431 106 2906 600 
Q 2531 -288 1738 -769 
Q 1606 -519 1338 -450 
Q 1988 -156 2369 478 
Q 2750 1113 2750 2025 
z
M 2363 969 
Q 2119 994 1881 969 
Q 1906 1406 1906 1850 
L 1906 5038 
L 3956 5031 
L 3956 1200 
L 3525 1200 
L 3525 4713 
L 2338 4713 
L 2338 1850 
Q 2338 1406 2363 969 
z
M 663 -738 
Q 481 -588 206 -575 
Q 400 -69 606 581 
Q 813 1231 1200 2838 
L 1381 2706 
L 875 338 
L 663 -738 
z
M 1006 2856 
L 731 2550 
L 75 3400 
L 350 3713 
L 1006 2856 
z
M 1088 3913 
Q 781 4388 425 4800 
L 694 5125 
Q 1069 4688 1388 4188 
L 1088 3913 
z
" transform="scale(0.015625)"/>
      <path id="WenQuanYiZenHei-20" transform="scale(0.015625)"/>
      <path id="WenQuanYiZenHei-798f" d="M 3169 -775 
Q 2938 -750 2713 -775 
Q 2731 -356 2731 69 
L 2731 2131 
L 5956 2131 
L 5956 -763 
L 5538 -763 
L 5538 -263 
L 3150 -263 
Q 3156 -519 3169 -775 
z
M 3088 2650 
Q 3163 3319 3088 3988 
L 5575 3988 
Q 5500 3319 5575 2650 
L 3088 2650 
z
M 6069 4838 
Q 6056 4681 6069 4531 
Q 5788 4544 5500 4544 
L 3213 4544 
Q 2925 4544 2644 4531 
Q 2656 4681 2644 4838 
Q 2925 4825 3213 4825 
L 5500 4825 
Q 5788 4825 6069 4838 
z
M 4525 -6 
L 5538 -6 
L 5538 794 
L 4525 794 
L 4525 -6 
z
M 4113 -6 
L 4113 794 
L 3144 794 
L 3144 -6 
L 4113 -6 
z
M 4525 1050 
L 5538 1050 
L 5538 1850 
L 4525 1850 
L 4525 1050 
z
M 4113 1050 
L 4113 1850 
L 3144 1850 
L 3144 1050 
L 4113 1050 
z
M 3506 3706 
L 3506 2931 
L 5163 2931 
L 5163 3706 
L 3506 3706 
z
M 1650 2069 
L 1650 38 
Q 1650 -406 1669 -844 
Q 1438 -819 1200 -844 
Q 1219 -406 1219 38 
L 1219 1763 
Q 875 1369 456 1044 
Q 256 1200 0 1288 
Q 1213 2100 1838 3500 
L 925 3500 
Q 606 3500 288 3481 
Q 306 3656 288 3831 
Q 606 3819 925 3819 
L 2400 3819 
Q 2175 3125 1788 2513 
L 1856 2569 
L 2544 1700 
L 2181 1400 
L 1650 2069 
z
M 1488 4025 
Q 1181 4550 806 5019 
L 1169 5319 
Q 1563 4825 1894 4269 
L 1488 4025 
z
" transform="scale(0.015625)"/>
      <path id="WenQuanYiZenHei-5efa" d="M 919 4275 
Q 581 4275 250 4263 
Q 269 4444 250 4625 
Q 581 4606 919 4606 
L 2056 4606 
L 1050 2825 
L 1888 2825 
Q 1950 1669 1450 744 
Q 2331 -181 4219 -138 
L 5988 -188 
Q 5813 -388 5813 -650 
Q 5169 -613 4353 -603 
Q 3538 -594 3194 -544 
Q 1969 -381 1219 350 
Q 844 -219 325 -625 
Q 125 -463 -119 -381 
Q 531 44 919 694 
Q 500 1244 344 1931 
L 769 2025 
Q 888 1531 1144 1131 
Q 1425 1781 1413 2500 
L 363 2500 
L 1363 4275 
L 919 4275 
z
M 4013 0 
Q 3775 25 3531 0 
Q 3550 344 3550 688 
L 2638 688 
Q 2306 688 1969 669 
Q 1988 850 1969 1031 
Q 2306 1019 2638 1019 
L 3556 1019 
L 3556 1569 
L 2956 1569 
Q 2619 1569 2281 1550 
Q 2300 1738 2281 1919 
Q 2619 1900 2956 1900 
L 3556 1900 
L 3556 2419 
L 3000 2419 
Q 2663 2419 2325 2406 
Q 2350 2588 2325 2769 
Q 2663 2750 3000 2750 
L 3556 2750 
L 3556 3350 
L 2613 3350 
Q 2275 3350 1938 3331 
Q 1956 3513 1938 3694 
Q 2275 3681 2613 3681 
L 3556 3681 
L 3556 4200 
L 3088 4200 
Q 2756 4200 2419 4188 
Q 2438 4369 2419 4550 
Q 2756 4531 3088 4531 
L 3550 4531 
Q 3550 4894 3531 5263 
Q 3775 5238 4013 5263 
Q 4000 4894 3994 4531 
L 5325 4531 
L 5325 3681 
Q 5656 3681 5981 3694 
Q 5963 3513 5981 3331 
Q 5656 3350 5325 3350 
L 5325 2419 
L 3994 2419 
L 3994 1900 
L 4650 1900 
Q 4988 1900 5325 1919 
Q 5306 1738 5325 1550 
Q 4988 1569 4650 1569 
L 3994 1569 
L 3994 1019 
L 5013 1019 
Q 5350 1019 5681 1031 
Q 5663 850 5681 669 
Q 5350 688 5013 688 
L 3994 688 
Q 4000 344 4013 0 
z
M 3994 2750 
L 4888 2750 
L 4888 3350 
L 3994 3350 
L 3994 2750 
z
M 3994 3681 
L 4888 3681 
L 4888 4200 
L 3994 4200 
L 3994 3681 
z
" transform="scale(0.015625)"/>
     </defs>
     <use xlink:href="#WenQuanYiZenHei-6bcf"/>
     <use xlink:href="#WenQuanYiZenHei-65e5" x="100"/>
     <use xlink:href="#WenQuanYiZenHei-65b0" x="200"/>
     <use xlink:href="#WenQuanYiZenHei-589e" x="300"/>
     <use xlink:href="#WenQuanYiZenHei-9884" x="400"/>
     <use xlink:href="#WenQuanYiZenHei-6d4b" x="500"/>
     <use xlink:href="#WenQuanYiZenHei-20" x="600"/>
     <use xlink:href="#WenQuanYiZenHei-2d" x="629.980469"/>
     <use xlink:href="#WenQuanYiZenHei-20" x="659.960938"/>
     <use xlink:href="#WenQuanYiZenHei-798f" x="689.941406"/>
     <use xlink:href="#WenQuanYiZenHei-5efa" x="789.941406"/>
    </g>
    <!-- ARIMA (4, 1, 0)x(0, 0, 1, 7) (R2 = 0.581693) -->
    <g transform="translate(583.182813 29.061)scale(0.12 -0.12)">
     <defs>
      <path id="WenQuanYiZenHei-41" d="M 3550 0 
L 2988 0 
L 2550 1281 
L 919 1281 
L 531 0 
L 69 0 
L 1494 4388 
L 2125 4388 
L 3550 0 
z
M 2425 1694 
L 1756 3800 
L 1075 1694 
L 2425 1694 
z
" transform="scale(0.015625)"/>
      <path id="WenQuanYiZenHei-52" d="M 3675 0 
L 3100 0 
L 2288 1900 
L 1069 1900 
L 1069 0 
L 519 0 
L 519 4388 
L 2163 4388 
Q 3006 4388 3400 3900 
Q 3581 3663 3625 3325 
Q 3631 3250 3631 3163 
Q 3631 2594 3219 2244 
Q 3038 2100 2813 2038 
L 3675 0 
z
M 3081 3169 
Q 3081 3825 2356 3906 
Q 2263 3919 2163 3919 
L 1069 3919 
L 1069 2350 
L 2100 2350 
Q 2906 2350 3044 2919 
Q 3081 3031 3081 3169 
z
" transform="scale(0.015625)"/>
      <path id="WenQuanYiZenHei-49" d="M 1100 0 
L 550 0 
L 550 4388 
L 1100 4388 
L 1100 0 
z
" transform="scale(0.015625)"/>
      <path id="WenQuanYiZenHei-4d" d="M 4756 0 
L 4206 0 
L 4206 3831 
L 4181 3831 
L 2788 0 
L 2419 0 
L 1000 3831 
L 975 3831 
L 975 0 
L 513 0 
L 513 4388 
L 1331 4388 
L 2656 875 
L 3950 4388 
L 4756 4388 
L 4756 0 
z
" transform="scale(0.015625)"/>
      <path id="WenQuanYiZenHei-28" d="M 1606 -1094 
L 1275 -1094 
Q 475 -100 338 1231 
Q 319 1438 319 1656 
Q 319 3031 1156 4244 
Q 1213 4313 1269 4388 
L 1600 4388 
Q 806 3169 794 1681 
Q 794 188 1606 -1094 
z
" transform="scale(0.015625)"/>
      <path id="WenQuanYiZenHei-2c" d="M 1363 75 
L 881 -825 
L 606 -825 
L 994 0 
L 656 0 
L 656 738 
L 1363 738 
L 1363 75 
z
" transform="scale(0.015625)"/>
      <path id="WenQuanYiZenHei-29" d="M 1600 1656 
Q 1600 306 869 -788 
Q 769 -950 644 -1094 
L 313 -1094 
Q 1125 188 1125 1681 
Q 1125 3169 338 4363 
Q 325 4375 319 4388 
L 650 4388 
Q 1525 3231 1594 1863 
Q 1600 1763 1600 1656 
z
" transform="scale(0.015625)"/>
      <path id="WenQuanYiZenHei-78" d="M 2806 0 
L 2213 0 
L 1394 1319 
L 544 0 
L 50 0 
L 1144 1681 
L 163 3250 
L 744 3250 
L 1431 2138 
L 2144 3250 
L 2631 3250 
L 1681 1794 
L 2806 0 
z
" transform="scale(0.015625)"/>
      <path id="WenQuanYiZenHei-3d" d="M 3569 2256 
L 263 2256 
L 263 2675 
L 3569 2675 
L 3569 2256 
z
M 3569 1019 
L 263 1019 
L 263 1431 
L 3569 1431 
L 3569 1019 
z
" transform="scale(0.015625)"/>
      <path id="WenQuanYiZenHei-2e" d="M 1344 0 
L 631 0 
L 631 725 
L 1344 725 
L 1344 0 
z
" transform="scale(0.015625)"/>
      <path id="WenQuanYiZenHei-38" d="M 3619 1175 
Q 3619 431 2850 100 
Q 2444 -63 1944 -63 
Q 1231 -63 725 269 
Q 225 594 225 1125 
Q 225 1881 1269 2281 
Q 719 2481 519 2938 
Q 444 3119 444 3319 
Q 444 4000 1144 4294 
Q 1519 4456 1963 4456 
Q 2669 4456 3094 4094 
Q 3425 3813 3425 3369 
Q 3425 2638 2575 2356 
Q 3231 2056 3450 1725 
Q 3619 1488 3619 1175 
z
M 2944 3344 
Q 2944 3906 2288 4019 
Q 2138 4044 1969 4044 
Q 1438 4044 1163 3775 
Q 1000 3613 1000 3375 
Q 1000 2925 1594 2663 
Q 1756 2588 1931 2550 
Q 2581 2725 2788 2956 
Q 2944 3125 2944 3344 
z
M 3075 1094 
Q 3075 1738 1875 2050 
Q 1094 1881 850 1463 
Q 763 1313 763 1131 
Q 763 569 1456 406 
Q 1681 344 1944 344 
Q 2519 344 2850 619 
Q 3075 813 3075 1094 
z
" transform="scale(0.015625)"/>
      <path id="WenQuanYiZenHei-36" d="M 3550 1431 
Q 3550 725 3006 288 
Q 2581 -63 1994 -63 
Q 1013 -63 563 825 
Q 288 1363 288 2081 
Q 288 3294 856 3938 
Q 1319 4456 2075 4456 
Q 2969 4456 3363 3756 
Q 3431 3631 3481 3481 
L 2988 3350 
Q 2750 3994 2075 4006 
Q 1056 4006 844 2669 
Q 794 2356 794 1981 
L 806 1981 
Q 1006 2506 1544 2744 
Q 1819 2869 2119 2869 
Q 2788 2869 3213 2375 
Q 3550 1975 3550 1431 
z
M 3038 1406 
Q 3038 1906 2656 2213 
Q 2381 2431 2038 2431 
Q 1525 2431 1181 2044 
Q 919 1744 919 1356 
Q 919 881 1344 581 
Q 1631 375 1981 375 
Q 2519 375 2838 781 
Q 3038 1050 3038 1406 
z
" transform="scale(0.015625)"/>
      <path id="WenQuanYiZenHei-39" d="M 3544 2300 
Q 3544 1163 3019 513 
Q 2563 -63 1775 -63 
Q 956 -63 563 488 
Q 463 631 394 813 
L 838 975 
Q 1025 494 1550 388 
Q 1656 369 1775 369 
Q 2594 369 2900 1325 
Q 3044 1769 3038 2313 
L 3025 2313 
Q 2675 1638 1944 1544 
Q 1844 1531 1744 1531 
Q 1050 1531 625 2031 
Q 294 2419 294 2963 
Q 294 3656 813 4094 
Q 1238 4456 1819 4456 
Q 2988 4456 3381 3363 
Q 3544 2900 3544 2300 
z
M 2925 2994 
Q 2925 3563 2469 3844 
Q 2206 4006 1863 4006 
Q 1275 4006 988 3563 
Q 844 3344 825 3056 
Q 819 3006 819 2956 
Q 819 2413 1269 2131 
Q 1538 1963 1875 1963 
Q 2363 1963 2681 2350 
Q 2925 2638 2925 2994 
z
" transform="scale(0.015625)"/>
     </defs>
     <use xlink:href="#WenQuanYiZenHei-41"/>
     <use xlink:href="#WenQuanYiZenHei-52" x="55.957031"/>
     <use xlink:href="#WenQuanYiZenHei-49" x="117.871094"/>
     <use xlink:href="#WenQuanYiZenHei-4d" x="143.847656"/>
     <use xlink:href="#WenQuanYiZenHei-41" x="225.78125"/>
     <use xlink:href="#WenQuanYiZenHei-20" x="281.738281"/>
     <use xlink:href="#WenQuanYiZenHei-28" x="311.71875"/>
     <use xlink:href="#WenQuanYiZenHei-34" x="341.699219"/>
     <use xlink:href="#WenQuanYiZenHei-2c" x="401.660156"/>
     <use xlink:href="#WenQuanYiZenHei-20" x="431.640625"/>
     <use xlink:href="#WenQuanYiZenHei-31" x="461.621094"/>
     <use xlink:href="#WenQuanYiZenHei-2c" x="521.582031"/>
     <use xlink:href="#WenQuanYiZenHei-20" x="551.5625"/>
     <use xlink:href="#WenQuanYiZenHei-30" x="581.542969"/>
     <use xlink:href="#WenQuanYiZenHei-29" x="641.503906"/>
     <use xlink:href="#WenQuanYiZenHei-78" x="671.484375"/>
     <use xlink:href="#WenQuanYiZenHei-28" x="715.429688"/>
     <use xlink:href="#WenQuanYiZenHei-30" x="745.410156"/>
     <use xlink:href="#WenQuanYiZenHei-2c" x="805.371094"/>
     <use xlink:href="#WenQuanYiZenHei-20" x="835.351562"/>
     <use xlink:href="#WenQuanYiZenHei-30" x="865.332031"/>
     <use xlink:href="#WenQuanYiZenHei-2c" x="925.292969"/>
     <use xlink:href="#WenQuanYiZenHei-20" x="955.273438"/>
     <use xlink:href="#WenQuanYiZenHei-31" x="985.253906"/>
     <use xlink:href="#WenQuanYiZenHei-2c" x="1045.214844"/>
     <use xlink:href="#WenQuanYiZenHei-20" x="1075.195312"/>
     <use xlink:href="#WenQuanYiZenHei-37" x="1105.175781"/>
     <use xlink:href="#WenQuanYiZenHei-29" x="1165.136719"/>
     <use xlink:href="#WenQuanYiZenHei-20" x="1195.117188"/>
     <use xlink:href="#WenQuanYiZenHei-28" x="1225.097656"/>
     <use xlink:href="#WenQuanYiZenHei-52" x="1255.078125"/>
     <use xlink:href="#WenQuanYiZenHei-32" x="1316.992188"/>
     <use xlink:href="#WenQuanYiZenHei-20" x="1376.953125"/>
     <use xlink:href="#WenQuanYiZenHei-3d" x="1406.933594"/>
     <use xlink:href="#WenQuanYiZenHei-20" x="1466.894531"/>
     <use xlink:href="#WenQuanYiZenHei-30" x="1496.875"/>
     <use xlink:href="#WenQuanYiZenHei-2e" x="1556.835938"/>
     <use xlink:href="#WenQuanYiZenHei-35" x="1586.816406"/>
     <use xlink:href="#WenQuanYiZenHei-38" x="1646.777344"/>
     <use xlink:href="#WenQuanYiZenHei-31" x="1706.738281"/>
     <use xlink:href="#WenQuanYiZenHei-36" x="1766.699219"/>
     <use xlink:href="#WenQuanYiZenHei-39" x="1826.660156"/>
     <use xlink:href="#WenQuanYiZenHei-33" x="1886.621094"/>
     <use xlink:href="#WenQuanYiZenHei-29" x="1946.582031"/>
    </g>
   </g>
   <g id="legend_1">
    <g id="patch_7">
     <path d="M 1302.390625 87.056312 
L 1364.390625 87.056312 
Q 1366.390625 87.056312 1366.390625 85.056312 
L 1366.390625 42.061 
Q 1366.390625 40.061 1364.390625 40.061 
L 1302.390625 40.061 
Q 1300.390625 40.061 1300.390625 42.061 
L 1300.390625 85.056312 
Q 1300.390625 87.056312 1302.390625 87.056312 
z
" style="fill: #ffffff; opacity: 0.8; stroke: #cccccc; stroke-linejoin: miter"/>
    </g>
    <g id="line2d_23">
     <path d="M 1304.390625 48.695375 
L 1314.390625 48.695375 
L 1324.390625 48.695375 
" style="fill: none; stroke: #0000ff; stroke-width: 1.5; stroke-linecap: square"/>
    </g>
    <g id="text_21">
     <!-- 实际值 -->
     <g transform="translate(1332.390625 52.195375)scale(0.1 -0.1)">
      <defs>
       <path id="WenQuanYiZenHei-5b9e" d="M 1025 1175 
Q 694 1175 356 1163 
Q 375 1344 356 1525 
Q 694 1506 1025 1506 
L 3363 1506 
L 3363 2625 
Q 3363 3075 3338 3519 
Q 3581 3494 3825 3519 
Q 3800 3075 3800 2625 
L 3800 1506 
L 5406 1506 
Q 5744 1506 6075 1525 
Q 6056 1344 6075 1163 
Q 5744 1175 5406 1175 
L 4038 1175 
L 4981 456 
L 6131 -488 
L 5819 -856 
L 4681 75 
L 3638 875 
Q 3313 231 2475 -231 
Q 1638 -694 700 -825 
Q 638 -519 344 -400 
Q 1450 -319 2406 244 
Q 3113 656 3300 1175 
L 1025 1175 
z
M 2263 1581 
Q 1763 2081 1200 2513 
L 1494 2894 
Q 2081 2444 2600 1919 
L 2263 1581 
z
M 2638 2500 
Q 2219 2963 1731 3363 
L 2044 3738 
Q 2556 3313 3000 2819 
L 2638 2500 
z
M 919 3156 
L 481 3156 
L 481 4344 
L 3069 4344 
Q 2794 4731 2469 5081 
L 2825 5413 
Q 3256 4944 3613 4413 
L 3513 4344 
L 5869 4344 
L 5869 3156 
L 5425 3156 
L 5425 4013 
L 919 4013 
L 919 3156 
z
" transform="scale(0.015625)"/>
       <path id="WenQuanYiZenHei-9645" d="M 6000 431 
L 5569 194 
L 4963 1219 
L 4313 2219 
L 4719 2494 
L 5375 1481 
L 6000 431 
z
M 2956 2450 
Q 3181 2344 3419 2294 
Q 3006 1038 1944 -188 
Q 1794 -6 1569 56 
Q 2069 600 2372 1156 
Q 2675 1713 2956 2450 
z
M 3750 25 
L 3750 2913 
L 2819 2913 
Q 2475 2913 2125 2894 
Q 2144 3081 2125 3269 
Q 2475 3256 2819 3256 
L 5469 3256 
Q 5819 3256 6163 3269 
Q 6144 3081 6163 2894 
Q 5813 2913 5469 2913 
L 4194 2913 
L 4194 -144 
Q 4194 -725 3456 -813 
L 3263 -825 
Q 3325 -506 3125 -250 
Q 3250 -281 3394 -306 
Q 3663 -313 3706 -272 
Q 3750 -231 3750 25 
z
M 5544 4950 
Q 5525 4756 5544 4569 
Q 5194 4588 4844 4588 
L 3325 4588 
Q 2975 4588 2625 4569 
Q 2644 4756 2625 4950 
Q 2975 4931 3325 4931 
L 4844 4931 
Q 5194 4931 5544 4950 
z
M 819 -850 
Q 581 -825 344 -850 
Q 369 -419 369 19 
L 363 4938 
L 2256 4938 
L 2256 4625 
Q 2150 4513 2075 4375 
L 1481 3238 
Q 2181 2319 2181 1156 
Q 2144 400 1569 163 
L 1406 88 
Q 1288 300 1138 481 
Q 1294 538 1450 606 
Q 1763 744 1794 1156 
Q 1794 1744 1600 2300 
Q 1406 2856 1038 3313 
L 1725 4625 
L 788 4625 
L 794 19 
Q 794 -419 819 -850 
z
" transform="scale(0.015625)"/>
       <path id="WenQuanYiZenHei-503c" d="M 6175 -219 
Q 6156 -388 6175 -556 
Q 5863 -544 5550 -544 
L 2313 -544 
Q 2000 -544 1688 -556 
Q 1706 -388 1688 -219 
L 2506 -231 
L 2506 3469 
L 3644 3469 
L 3644 4119 
L 2638 4119 
Q 2325 4119 2013 4100 
Q 2031 4269 2013 4438 
Q 2325 4425 2638 4425 
L 3638 4425 
Q 3638 4719 3619 5013 
Q 3856 4988 4094 5013 
Q 4075 4719 4075 4425 
L 5344 4425 
Q 5650 4425 5963 4438 
Q 5950 4269 5963 4100 
Q 5656 4119 5344 4119 
L 4069 4119 
L 4069 3469 
L 5300 3469 
L 5300 -231 
L 5550 -231 
Q 5863 -231 6175 -219 
z
M 4869 2556 
L 4869 3156 
L 2931 3156 
Q 2931 2850 2931 2556 
L 4869 2556 
z
M 4869 1669 
L 4869 2250 
L 2931 2250 
L 2931 1669 
L 4869 1669 
z
M 4869 731 
L 4869 1363 
L 2931 1363 
L 2931 731 
L 4869 731 
z
M 4869 -231 
L 4869 425 
L 2931 425 
L 2931 -231 
L 4869 -231 
z
M 2106 4925 
Q 1856 4075 1463 3338 
L 1463 31 
Q 1463 -413 1481 -850 
Q 1256 -825 1031 -850 
Q 1050 -413 1050 31 
L 1050 2681 
Q 750 2269 375 1931 
Q 238 2156 0 2256 
Q 331 2544 619 2875 
Q 1094 3425 1300 3950 
Q 1494 4469 1625 5050 
Q 1850 4963 2106 4925 
z
" transform="scale(0.015625)"/>
      </defs>
      <use xlink:href="#WenQuanYiZenHei-5b9e"/>
      <use xlink:href="#WenQuanYiZenHei-9645" x="100"/>
      <use xlink:href="#WenQuanYiZenHei-503c" x="200"/>
     </g>
    </g>
    <g id="line2d_24">
     <path d="M 1304.390625 63.3735 
L 1314.390625 63.3735 
L 1324.390625 63.3735 
" style="fill: none; stroke: #ffa500; stroke-width: 1.5; stroke-linecap: square"/>
    </g>
    <g id="text_22">
     <!-- 校验值 -->
     <g transform="translate(1332.390625 66.8735)scale(0.1 -0.1)">
      <defs>
       <path id="WenQuanYiZenHei-6821" d="M 5256 2463 
Q 5025 1475 4494 706 
Q 5125 -94 6175 -544 
Q 5950 -663 5850 -900 
Q 4906 -494 4250 381 
Q 3931 0 3475 -350 
Q 3019 -700 2388 -919 
Q 2338 -656 2138 -475 
Q 3306 -69 4006 738 
Q 3563 1444 3300 2331 
Q 3050 2050 2706 1800 
Q 2606 2000 2406 2106 
Q 2900 2444 3181 2938 
Q 3350 3225 3488 3538 
Q 3700 3431 3925 3369 
Q 3763 2894 3425 2475 
L 3650 2531 
Q 3888 1675 4244 1075 
Q 4469 1444 4603 1937 
Q 4738 2431 4775 2688 
Q 4963 2644 5150 2625 
Q 4919 2969 4663 3294 
L 5038 3588 
Q 5544 2925 5975 2213 
L 5569 1969 
L 5256 2463 
z
M 6006 4050 
Q 5988 3881 6006 3713 
Q 5694 3725 5381 3725 
L 3413 3725 
Q 3100 3725 2788 3713 
Q 2806 3881 2788 4050 
Q 3100 4031 3413 4031 
L 4325 4031 
Q 4019 4525 3644 4969 
L 4000 5275 
Q 4413 4788 4750 4244 
L 4406 4031 
L 5381 4031 
Q 5694 4031 6006 4050 
z
M 406 263 
Q 238 431 -25 469 
Q 194 825 466 1337 
Q 738 1850 925 2406 
Q 1113 2963 1256 3519 
L 825 3519 
Q 506 3519 188 3500 
Q 206 3700 188 3900 
Q 506 3881 825 3881 
L 1363 3881 
L 1363 4263 
Q 1363 4719 1338 5175 
Q 1556 5150 1775 5175 
Q 1756 4719 1756 4263 
L 1756 3881 
L 2525 3900 
Q 2506 3700 2525 3500 
L 1756 3519 
L 1756 2738 
L 1931 2881 
Q 2306 2300 2613 1650 
L 2231 1413 
Q 2081 1725 1919 2019 
L 1756 2300 
L 1756 69 
Q 1756 -388 1775 -850 
Q 1556 -825 1338 -850 
Q 1363 -388 1363 69 
L 1363 2438 
Q 925 1144 406 263 
z
" transform="scale(0.015625)"/>
       <path id="WenQuanYiZenHei-9a8c" d="M 5981 -106 
Q 5963 -275 5981 -444 
Q 5669 -431 5356 -431 
L 2969 -431 
Q 2656 -431 2350 -444 
Q 2363 -275 2350 -106 
Q 2656 -125 2969 -125 
L 4369 -125 
Q 4600 431 4881 1288 
L 5206 2300 
Q 5425 2206 5663 2163 
Q 5375 1188 4831 -125 
L 5356 -125 
Q 5669 -125 5981 -106 
z
M 4063 594 
Q 3788 1425 3425 2219 
L 3856 2419 
Q 4225 1600 4513 744 
L 4063 594 
z
M 3163 363 
Q 2931 1200 2613 2006 
L 3056 2175 
Q 3381 1350 3619 488 
L 3163 363 
z
M 4581 2550 
L 3513 2550 
Q 3200 2550 2888 2538 
Q 2900 2663 2894 2769 
Q 2569 2488 2206 2300 
Q 2113 2550 1894 2700 
Q 2488 2975 2975 3463 
Q 3269 3756 3394 4006 
Q 3644 4513 3794 5063 
Q 4038 4975 4294 4931 
Q 4250 4806 4206 4681 
Q 4475 3888 5025 3388 
Q 5519 2938 6169 2650 
Q 5938 2538 5838 2300 
Q 5513 2456 5200 2700 
Q 5200 2619 5206 2538 
Q 4894 2550 4581 2550 
z
M 3513 2863 
L 4994 2869 
Q 4344 3438 3988 4194 
Q 3594 3406 3013 2869 
Q 3263 2863 3513 2863 
z
M 206 444 
Q 188 756 44 963 
Q 319 956 650 1003 
Q 981 1050 1731 1281 
L 1738 1006 
Q 800 719 206 444 
z
M 525 4000 
Q 744 3950 994 3944 
Q 925 3519 875 3081 
L 763 2144 
L 1475 2144 
L 1831 4444 
L 663 4444 
Q 350 4444 38 4431 
Q 56 4600 38 4769 
Q 350 4756 663 4756 
L 2313 4756 
L 1913 2144 
L 2375 2144 
L 2200 -200 
Q 2188 -425 1988 -588 
Q 1694 -800 1181 -788 
L 944 -788 
Q 1000 -450 788 -269 
Q 1013 -294 1334 -287 
Q 1656 -281 1715 -243 
Q 1775 -206 1781 -50 
L 1925 1831 
L 294 1831 
L 444 3131 
Q 500 3569 525 4000 
z
" transform="scale(0.015625)"/>
      </defs>
      <use xlink:href="#WenQuanYiZenHei-6821"/>
      <use xlink:href="#WenQuanYiZenHei-9a8c" x="100"/>
      <use xlink:href="#WenQuanYiZenHei-503c" x="200"/>
     </g>
    </g>
    <g id="line2d_25">
     <path d="M 1304.390625 77.895375 
L 1314.390625 77.895375 
L 1324.390625 77.895375 
" style="fill: none; stroke: #ff0000; stroke-width: 1.5; stroke-linecap: square"/>
    </g>
    <g id="text_23">
     <!-- 预测值 -->
     <g transform="translate(1332.390625 81.395375)scale(0.1 -0.1)">
      <use xlink:href="#WenQuanYiZenHei-9884"/>
      <use xlink:href="#WenQuanYiZenHei-6d4b" x="100"/>
      <use xlink:href="#WenQuanYiZenHei-503c" x="200"/>
     </g>
    </g>
   </g>
  </g>
 </g>
 <defs>
  <clipPath id="pbb3ba18073">
   <rect x="32.190625" y="35.061" width="1339.2" height="332.64"/>
  </clipPath>
 </defs>
</svg>
