<?xml version="1.0" encoding="utf-8" standalone="no"?>
<!DOCTYPE svg PUBLIC "-//W3C//DTD SVG 1.1//EN"
  "http://www.w3.org/Graphics/SVG/1.1/DTD/svg11.dtd">
<svg xmlns:xlink="http://www.w3.org/1999/xlink" width="1384.5875pt" height="390.442563pt" viewBox="0 0 1384.5875 390.442563" xmlns="http://www.w3.org/2000/svg" version="1.1">
 <metadata>
  <rdf:RDF xmlns:dc="http://purl.org/dc/elements/1.1/" xmlns:cc="http://creativecommons.org/ns#" xmlns:rdf="http://www.w3.org/1999/02/22-rdf-syntax-ns#">
   <cc:Work>
    <dc:type rdf:resource="http://purl.org/dc/dcmitype/StillImage"/>
    <dc:date>2022-07-22T18:14:47.919992</dc:date>
    <dc:format>image/svg+xml</dc:format>
    <dc:creator>
     <cc:Agent>
      <dc:title>Matplotlib v3.5.2, https://matplotlib.org/</dc:title>
     </cc:Agent>
    </dc:creator>
   </cc:Work>
  </rdf:RDF>
 </metadata>
 <defs>
  <style type="text/css">*{stroke-linejoin: round; stroke-linecap: butt}</style>
 </defs>
 <g id="figure_1">
  <g id="patch_1">
   <path d="M 0 390.442563 
L 1384.5875 390.442563 
L 1384.5875 0 
L 0 0 
z
" style="fill: #ffffff"/>
  </g>
  <g id="axes_1">
   <g id="patch_2">
    <path d="M 38.1875 367.725375 
L 1377.3875 367.725375 
L 1377.3875 35.085375 
L 38.1875 35.085375 
z
" style="fill: #ffffff"/>
   </g>
   <g id="matplotlib.axis_1">
    <g id="xtick_1">
     <g id="line2d_1">
      <defs>
       <path id="m6182776d88" d="M 0 0 
L 0 3.5 
" style="stroke: #000000; stroke-width: 0.8"/>
      </defs>
      <g>
       <use xlink:href="#m6182776d88" x="71.390806" y="367.725375" style="stroke: #000000; stroke-width: 0.8"/>
      </g>
     </g>
     <g id="text_1">
      <!-- 2020-01 -->
      <g transform="translate(51.900962 381.581625)scale(0.1 -0.1)">
       <defs>
        <path id="WenQuanYiZenHei-32" d="M 3488 0 
L 369 0 
L 369 456 
L 2150 1850 
Q 2931 2463 2931 3144 
Q 2931 3619 2488 3863 
Q 2231 4013 1931 4013 
Q 1425 4013 1113 3619 
Q 894 3356 881 3013 
L 369 3169 
Q 531 3981 1213 4300 
Q 1544 4456 1950 4456 
Q 2631 4456 3088 4044 
L 3225 3888 
L 3350 3706 
Q 3481 3444 3481 3144 
Q 3481 2313 2519 1569 
L 1069 456 
L 3488 456 
L 3488 0 
z
" transform="scale(0.015625)"/>
        <path id="WenQuanYiZenHei-30" d="M 3581 2175 
Q 3581 1288 3169 638 
Q 2713 -63 1938 -63 
Q 1025 -63 563 831 
Q 256 1425 256 2188 
Q 256 3188 700 3819 
Q 1138 4456 1888 4456 
Q 2863 4456 3306 3500 
Q 3581 2925 3581 2175 
z
M 3019 2100 
Q 3019 3356 2500 3806 
L 2350 3919 
Q 2144 4031 1888 4031 
Q 1100 4031 888 2956 
Q 819 2625 819 2225 
Q 819 1013 1338 569 
Q 1588 356 1938 356 
Q 2675 356 2925 1294 
Q 3019 1663 3019 2100 
z
" transform="scale(0.015625)"/>
        <path id="WenQuanYiZenHei-2d" d="M 1363 1444 
L 0 1444 
L 0 1844 
L 1363 1844 
L 1363 1444 
z
" transform="scale(0.015625)"/>
        <path id="WenQuanYiZenHei-31" d="M 3556 0 
L 488 0 
L 488 406 
L 1800 406 
L 1800 3725 
Q 1231 3125 588 2788 
L 588 3338 
Q 1456 3781 1931 4388 
L 2331 4388 
L 2331 406 
L 3556 406 
L 3556 0 
z
" transform="scale(0.015625)"/>
       </defs>
       <use xlink:href="#WenQuanYiZenHei-32"/>
       <use xlink:href="#WenQuanYiZenHei-30" x="59.960938"/>
       <use xlink:href="#WenQuanYiZenHei-32" x="119.921875"/>
       <use xlink:href="#WenQuanYiZenHei-30" x="179.882812"/>
       <use xlink:href="#WenQuanYiZenHei-2d" x="239.84375"/>
       <use xlink:href="#WenQuanYiZenHei-30" x="269.824219"/>
       <use xlink:href="#WenQuanYiZenHei-31" x="329.785156"/>
      </g>
     </g>
    </g>
    <g id="xtick_2">
     <g id="line2d_2">
      <g>
       <use xlink:href="#m6182776d88" x="191.291632" y="367.725375" style="stroke: #000000; stroke-width: 0.8"/>
      </g>
     </g>
     <g id="text_2">
      <!-- 2020-04 -->
      <g transform="translate(171.801788 381.581625)scale(0.1 -0.1)">
       <defs>
        <path id="WenQuanYiZenHei-34" d="M 3631 1025 
L 2913 1025 
L 2913 0 
L 2381 0 
L 2381 1025 
L 219 1025 
L 219 1388 
L 2225 4388 
L 2913 4388 
L 2913 1444 
L 3631 1444 
L 3631 1025 
z
M 2381 1444 
L 2381 3963 
L 788 1444 
L 2381 1444 
z
" transform="scale(0.015625)"/>
       </defs>
       <use xlink:href="#WenQuanYiZenHei-32"/>
       <use xlink:href="#WenQuanYiZenHei-30" x="59.960938"/>
       <use xlink:href="#WenQuanYiZenHei-32" x="119.921875"/>
       <use xlink:href="#WenQuanYiZenHei-30" x="179.882812"/>
       <use xlink:href="#WenQuanYiZenHei-2d" x="239.84375"/>
       <use xlink:href="#WenQuanYiZenHei-30" x="269.824219"/>
       <use xlink:href="#WenQuanYiZenHei-34" x="329.785156"/>
      </g>
     </g>
    </g>
    <g id="xtick_3">
     <g id="line2d_3">
      <g>
       <use xlink:href="#m6182776d88" x="311.192459" y="367.725375" style="stroke: #000000; stroke-width: 0.8"/>
      </g>
     </g>
     <g id="text_3">
      <!-- 2020-07 -->
      <g transform="translate(291.702615 381.581625)scale(0.1 -0.1)">
       <defs>
        <path id="WenQuanYiZenHei-37" d="M 3400 4056 
Q 1838 2175 1838 0 
L 1275 0 
Q 1269 1438 2056 2825 
Q 2381 3400 2825 3913 
L 444 3913 
L 500 4388 
L 3400 4388 
L 3400 4056 
z
" transform="scale(0.015625)"/>
       </defs>
       <use xlink:href="#WenQuanYiZenHei-32"/>
       <use xlink:href="#WenQuanYiZenHei-30" x="59.960938"/>
       <use xlink:href="#WenQuanYiZenHei-32" x="119.921875"/>
       <use xlink:href="#WenQuanYiZenHei-30" x="179.882812"/>
       <use xlink:href="#WenQuanYiZenHei-2d" x="239.84375"/>
       <use xlink:href="#WenQuanYiZenHei-30" x="269.824219"/>
       <use xlink:href="#WenQuanYiZenHei-37" x="329.785156"/>
      </g>
     </g>
    </g>
    <g id="xtick_4">
     <g id="line2d_4">
      <g>
       <use xlink:href="#m6182776d88" x="432.410877" y="367.725375" style="stroke: #000000; stroke-width: 0.8"/>
      </g>
     </g>
     <g id="text_4">
      <!-- 2020-10 -->
      <g transform="translate(412.921033 381.581625)scale(0.1 -0.1)">
       <use xlink:href="#WenQuanYiZenHei-32"/>
       <use xlink:href="#WenQuanYiZenHei-30" x="59.960938"/>
       <use xlink:href="#WenQuanYiZenHei-32" x="119.921875"/>
       <use xlink:href="#WenQuanYiZenHei-30" x="179.882812"/>
       <use xlink:href="#WenQuanYiZenHei-2d" x="239.84375"/>
       <use xlink:href="#WenQuanYiZenHei-31" x="269.824219"/>
       <use xlink:href="#WenQuanYiZenHei-30" x="329.785156"/>
      </g>
     </g>
    </g>
    <g id="xtick_5">
     <g id="line2d_5">
      <g>
       <use xlink:href="#m6182776d88" x="553.629295" y="367.725375" style="stroke: #000000; stroke-width: 0.8"/>
      </g>
     </g>
     <g id="text_5">
      <!-- 2021-01 -->
      <g transform="translate(534.139451 381.581625)scale(0.1 -0.1)">
       <use xlink:href="#WenQuanYiZenHei-32"/>
       <use xlink:href="#WenQuanYiZenHei-30" x="59.960938"/>
       <use xlink:href="#WenQuanYiZenHei-32" x="119.921875"/>
       <use xlink:href="#WenQuanYiZenHei-31" x="179.882812"/>
       <use xlink:href="#WenQuanYiZenHei-2d" x="239.84375"/>
       <use xlink:href="#WenQuanYiZenHei-30" x="269.824219"/>
       <use xlink:href="#WenQuanYiZenHei-31" x="329.785156"/>
      </g>
     </g>
    </g>
    <g id="xtick_6">
     <g id="line2d_6">
      <g>
       <use xlink:href="#m6182776d88" x="672.21253" y="367.725375" style="stroke: #000000; stroke-width: 0.8"/>
      </g>
     </g>
     <g id="text_6">
      <!-- 2021-04 -->
      <g transform="translate(652.722686 381.581625)scale(0.1 -0.1)">
       <use xlink:href="#WenQuanYiZenHei-32"/>
       <use xlink:href="#WenQuanYiZenHei-30" x="59.960938"/>
       <use xlink:href="#WenQuanYiZenHei-32" x="119.921875"/>
       <use xlink:href="#WenQuanYiZenHei-31" x="179.882812"/>
       <use xlink:href="#WenQuanYiZenHei-2d" x="239.84375"/>
       <use xlink:href="#WenQuanYiZenHei-30" x="269.824219"/>
       <use xlink:href="#WenQuanYiZenHei-34" x="329.785156"/>
      </g>
     </g>
    </g>
    <g id="xtick_7">
     <g id="line2d_7">
      <g>
       <use xlink:href="#m6182776d88" x="792.113356" y="367.725375" style="stroke: #000000; stroke-width: 0.8"/>
      </g>
     </g>
     <g id="text_7">
      <!-- 2021-07 -->
      <g transform="translate(772.623512 381.581625)scale(0.1 -0.1)">
       <use xlink:href="#WenQuanYiZenHei-32"/>
       <use xlink:href="#WenQuanYiZenHei-30" x="59.960938"/>
       <use xlink:href="#WenQuanYiZenHei-32" x="119.921875"/>
       <use xlink:href="#WenQuanYiZenHei-31" x="179.882812"/>
       <use xlink:href="#WenQuanYiZenHei-2d" x="239.84375"/>
       <use xlink:href="#WenQuanYiZenHei-30" x="269.824219"/>
       <use xlink:href="#WenQuanYiZenHei-37" x="329.785156"/>
      </g>
     </g>
    </g>
    <g id="xtick_8">
     <g id="line2d_8">
      <g>
       <use xlink:href="#m6182776d88" x="913.331774" y="367.725375" style="stroke: #000000; stroke-width: 0.8"/>
      </g>
     </g>
     <g id="text_8">
      <!-- 2021-10 -->
      <g transform="translate(893.84193 381.581625)scale(0.1 -0.1)">
       <use xlink:href="#WenQuanYiZenHei-32"/>
       <use xlink:href="#WenQuanYiZenHei-30" x="59.960938"/>
       <use xlink:href="#WenQuanYiZenHei-32" x="119.921875"/>
       <use xlink:href="#WenQuanYiZenHei-31" x="179.882812"/>
       <use xlink:href="#WenQuanYiZenHei-2d" x="239.84375"/>
       <use xlink:href="#WenQuanYiZenHei-31" x="269.824219"/>
       <use xlink:href="#WenQuanYiZenHei-30" x="329.785156"/>
      </g>
     </g>
    </g>
    <g id="xtick_9">
     <g id="line2d_9">
      <g>
       <use xlink:href="#m6182776d88" x="1034.550192" y="367.725375" style="stroke: #000000; stroke-width: 0.8"/>
      </g>
     </g>
     <g id="text_9">
      <!-- 2022-01 -->
      <g transform="translate(1015.060348 381.581625)scale(0.1 -0.1)">
       <use xlink:href="#WenQuanYiZenHei-32"/>
       <use xlink:href="#WenQuanYiZenHei-30" x="59.960938"/>
       <use xlink:href="#WenQuanYiZenHei-32" x="119.921875"/>
       <use xlink:href="#WenQuanYiZenHei-32" x="179.882812"/>
       <use xlink:href="#WenQuanYiZenHei-2d" x="239.84375"/>
       <use xlink:href="#WenQuanYiZenHei-30" x="269.824219"/>
       <use xlink:href="#WenQuanYiZenHei-31" x="329.785156"/>
      </g>
     </g>
    </g>
    <g id="xtick_10">
     <g id="line2d_10">
      <g>
       <use xlink:href="#m6182776d88" x="1153.133427" y="367.725375" style="stroke: #000000; stroke-width: 0.8"/>
      </g>
     </g>
     <g id="text_10">
      <!-- 2022-04 -->
      <g transform="translate(1133.643583 381.581625)scale(0.1 -0.1)">
       <use xlink:href="#WenQuanYiZenHei-32"/>
       <use xlink:href="#WenQuanYiZenHei-30" x="59.960938"/>
       <use xlink:href="#WenQuanYiZenHei-32" x="119.921875"/>
       <use xlink:href="#WenQuanYiZenHei-32" x="179.882812"/>
       <use xlink:href="#WenQuanYiZenHei-2d" x="239.84375"/>
       <use xlink:href="#WenQuanYiZenHei-30" x="269.824219"/>
       <use xlink:href="#WenQuanYiZenHei-34" x="329.785156"/>
      </g>
     </g>
    </g>
    <g id="xtick_11">
     <g id="line2d_11">
      <g>
       <use xlink:href="#m6182776d88" x="1273.034253" y="367.725375" style="stroke: #000000; stroke-width: 0.8"/>
      </g>
     </g>
     <g id="text_11">
      <!-- 2022-07 -->
      <g transform="translate(1253.544409 381.581625)scale(0.1 -0.1)">
       <use xlink:href="#WenQuanYiZenHei-32"/>
       <use xlink:href="#WenQuanYiZenHei-30" x="59.960938"/>
       <use xlink:href="#WenQuanYiZenHei-32" x="119.921875"/>
       <use xlink:href="#WenQuanYiZenHei-32" x="179.882812"/>
       <use xlink:href="#WenQuanYiZenHei-2d" x="239.84375"/>
       <use xlink:href="#WenQuanYiZenHei-30" x="269.824219"/>
       <use xlink:href="#WenQuanYiZenHei-37" x="329.785156"/>
      </g>
     </g>
    </g>
   </g>
   <g id="matplotlib.axis_2">
    <g id="ytick_1">
     <g id="line2d_12">
      <defs>
       <path id="m286a39aeba" d="M 0 0 
L -3.5 0 
" style="stroke: #000000; stroke-width: 0.8"/>
      </defs>
      <g>
       <use xlink:href="#m286a39aeba" x="38.1875" y="352.68547" style="stroke: #000000; stroke-width: 0.8"/>
      </g>
     </g>
     <g id="text_12">
      <!-- 0 -->
      <g transform="translate(25.190625 356.113595)scale(0.1 -0.1)">
       <use xlink:href="#WenQuanYiZenHei-30"/>
      </g>
     </g>
    </g>
    <g id="ytick_2">
     <g id="line2d_13">
      <g>
       <use xlink:href="#m286a39aeba" x="38.1875" y="312.638078" style="stroke: #000000; stroke-width: 0.8"/>
      </g>
     </g>
     <g id="text_13">
      <!-- 500 -->
      <g transform="translate(13.196875 316.066203)scale(0.1 -0.1)">
       <defs>
        <path id="WenQuanYiZenHei-35" d="M 3531 1488 
Q 3531 688 2913 250 
Q 2456 -63 1844 -63 
Q 1175 -63 706 350 
Q 413 613 306 975 
L 781 1131 
Q 1000 538 1569 406 
Q 1706 369 1856 369 
Q 2550 369 2850 869 
Q 3000 1131 3000 1494 
Q 3000 2056 2581 2356 
Q 2319 2538 1969 2538 
Q 1400 2538 1031 2075 
Q 981 2013 938 1938 
L 500 2031 
L 644 4388 
L 3244 4388 
L 3200 3919 
L 1044 3919 
L 950 2500 
Q 1431 2975 2006 2975 
Q 2713 2975 3163 2475 
Q 3531 2063 3531 1488 
z
" transform="scale(0.015625)"/>
       </defs>
       <use xlink:href="#WenQuanYiZenHei-35"/>
       <use xlink:href="#WenQuanYiZenHei-30" x="59.960938"/>
       <use xlink:href="#WenQuanYiZenHei-30" x="119.921875"/>
      </g>
     </g>
    </g>
    <g id="ytick_3">
     <g id="line2d_14">
      <g>
       <use xlink:href="#m286a39aeba" x="38.1875" y="272.590686" style="stroke: #000000; stroke-width: 0.8"/>
      </g>
     </g>
     <g id="text_14">
      <!-- 1000 -->
      <g transform="translate(7.2 276.018811)scale(0.1 -0.1)">
       <use xlink:href="#WenQuanYiZenHei-31"/>
       <use xlink:href="#WenQuanYiZenHei-30" x="59.960938"/>
       <use xlink:href="#WenQuanYiZenHei-30" x="119.921875"/>
       <use xlink:href="#WenQuanYiZenHei-30" x="179.882812"/>
      </g>
     </g>
    </g>
    <g id="ytick_4">
     <g id="line2d_15">
      <g>
       <use xlink:href="#m286a39aeba" x="38.1875" y="232.543295" style="stroke: #000000; stroke-width: 0.8"/>
      </g>
     </g>
     <g id="text_15">
      <!-- 1500 -->
      <g transform="translate(7.2 235.97142)scale(0.1 -0.1)">
       <use xlink:href="#WenQuanYiZenHei-31"/>
       <use xlink:href="#WenQuanYiZenHei-35" x="59.960938"/>
       <use xlink:href="#WenQuanYiZenHei-30" x="119.921875"/>
       <use xlink:href="#WenQuanYiZenHei-30" x="179.882812"/>
      </g>
     </g>
    </g>
    <g id="ytick_5">
     <g id="line2d_16">
      <g>
       <use xlink:href="#m286a39aeba" x="38.1875" y="192.495903" style="stroke: #000000; stroke-width: 0.8"/>
      </g>
     </g>
     <g id="text_16">
      <!-- 2000 -->
      <g transform="translate(7.2 195.924028)scale(0.1 -0.1)">
       <use xlink:href="#WenQuanYiZenHei-32"/>
       <use xlink:href="#WenQuanYiZenHei-30" x="59.960938"/>
       <use xlink:href="#WenQuanYiZenHei-30" x="119.921875"/>
       <use xlink:href="#WenQuanYiZenHei-30" x="179.882812"/>
      </g>
     </g>
    </g>
    <g id="ytick_6">
     <g id="line2d_17">
      <g>
       <use xlink:href="#m286a39aeba" x="38.1875" y="152.448511" style="stroke: #000000; stroke-width: 0.8"/>
      </g>
     </g>
     <g id="text_17">
      <!-- 2500 -->
      <g transform="translate(7.2 155.876636)scale(0.1 -0.1)">
       <use xlink:href="#WenQuanYiZenHei-32"/>
       <use xlink:href="#WenQuanYiZenHei-35" x="59.960938"/>
       <use xlink:href="#WenQuanYiZenHei-30" x="119.921875"/>
       <use xlink:href="#WenQuanYiZenHei-30" x="179.882812"/>
      </g>
     </g>
    </g>
    <g id="ytick_7">
     <g id="line2d_18">
      <g>
       <use xlink:href="#m286a39aeba" x="38.1875" y="112.401119" style="stroke: #000000; stroke-width: 0.8"/>
      </g>
     </g>
     <g id="text_18">
      <!-- 3000 -->
      <g transform="translate(7.2 115.829244)scale(0.1 -0.1)">
       <defs>
        <path id="WenQuanYiZenHei-33" d="M 3588 1231 
Q 3588 494 2875 144 
Q 2450 -63 1925 -63 
Q 1044 -63 556 488 
Q 356 706 256 1000 
L 769 1169 
Q 994 375 1913 375 
Q 2631 375 2900 788 
Q 3019 975 3019 1231 
Q 3019 1638 2638 1881 
Q 2325 2081 1613 2069 
L 1338 2069 
L 1338 2494 
Q 1969 2494 2094 2506 
Q 2325 2544 2463 2613 
Q 2763 2756 2844 3100 
Q 2863 3169 2863 3244 
Q 2863 3744 2381 3944 
L 2163 4006 
Q 2056 4025 1931 4025 
Q 1388 4025 1075 3631 
Q 969 3488 906 3313 
L 419 3456 
Q 675 4150 1400 4369 
Q 1669 4456 1975 4456 
Q 2694 4456 3106 4050 
Q 3419 3744 3419 3275 
Q 3419 2813 3025 2513 
Q 2825 2356 2575 2319 
L 2575 2306 
Q 3181 2213 3450 1769 
Q 3588 1525 3588 1231 
z
" transform="scale(0.015625)"/>
       </defs>
       <use xlink:href="#WenQuanYiZenHei-33"/>
       <use xlink:href="#WenQuanYiZenHei-30" x="59.960938"/>
       <use xlink:href="#WenQuanYiZenHei-30" x="119.921875"/>
       <use xlink:href="#WenQuanYiZenHei-30" x="179.882812"/>
      </g>
     </g>
    </g>
    <g id="ytick_8">
     <g id="line2d_19">
      <g>
       <use xlink:href="#m286a39aeba" x="38.1875" y="72.353728" style="stroke: #000000; stroke-width: 0.8"/>
      </g>
     </g>
     <g id="text_19">
      <!-- 3500 -->
      <g transform="translate(7.2 75.781853)scale(0.1 -0.1)">
       <use xlink:href="#WenQuanYiZenHei-33"/>
       <use xlink:href="#WenQuanYiZenHei-35" x="59.960938"/>
       <use xlink:href="#WenQuanYiZenHei-30" x="119.921875"/>
       <use xlink:href="#WenQuanYiZenHei-30" x="179.882812"/>
      </g>
     </g>
    </g>
   </g>
   <g id="line2d_20">
    <path d="M 99.060227 352.605375 
L 101.69541 351.884522 
L 103.013002 351.243764 
L 104.330593 349.882152 
L 105.648185 347.959878 
L 106.965776 346.277887 
L 108.283368 345.957508 
L 109.600959 344.595897 
L 110.918551 343.074096 
L 112.236142 341.151821 
L 113.553734 339.950399 
L 114.871325 338.348504 
L 116.188917 337.147082 
L 118.8241 335.465091 
L 120.141691 334.744238 
L 121.459283 333.542817 
L 124.094466 331.780731 
L 128.04724 330.339025 
L 129.364832 330.178836 
L 130.682423 329.858456 
L 135.952789 329.217698 
L 145.17593 329.137603 
L 146.493521 328.977414 
L 174.162943 328.977414 
L 176.798126 328.41675 
L 178.115717 327.615803 
L 179.433309 327.615803 
L 183.386083 326.414381 
L 184.703675 326.174096 
L 186.021266 325.693528 
L 188.656449 325.453243 
L 191.291632 325.052769 
L 192.609224 325.052769 
L 193.926815 324.73239 
L 196.561998 324.652296 
L 204.467547 324.572201 
L 208.420322 324.412011 
L 212.373096 324.331916 
L 215.008279 324.251822 
L 261.123982 324.171727 
L 265.076756 324.011537 
L 282.205446 323.931443 
L 286.15822 323.771253 
L 295.381361 323.691158 
L 298.016544 323.611063 
L 341.497063 323.530969 
L 345.449838 323.370779 
L 363.896119 323.290684 
L 366.531302 323.210589 
L 370.484076 323.130495 
L 373.119259 323.0504 
L 378.389625 322.970305 
L 379.707217 322.89021 
L 381.024808 322.649926 
L 386.295174 322.569831 
L 391.56554 322.009168 
L 395.518315 321.929073 
L 400.788681 321.688789 
L 407.376638 321.608694 
L 408.69423 321.448504 
L 410.011821 321.448504 
L 411.329413 321.288315 
L 413.964596 321.20822 
L 419.234962 320.967936 
L 424.505328 320.887841 
L 425.822919 320.567462 
L 428.458102 320.327177 
L 429.775694 319.926703 
L 431.093285 319.926703 
L 432.410877 319.766514 
L 435.04606 319.766514 
L 436.363651 319.606324 
L 442.951609 319.526229 
L 446.904383 319.36604 
L 454.809932 319.285945 
L 458.762707 319.045661 
L 460.080298 318.484997 
L 461.39789 318.324808 
L 464.033073 318.244713 
L 467.985847 318.084523 
L 469.303439 317.764144 
L 473.256213 317.684049 
L 474.573805 317.36367 
L 478.526579 316.963196 
L 479.844171 316.242343 
L 489.067311 315.761775 
L 494.337677 315.761775 
L 495.655269 315.601585 
L 496.97286 315.121016 
L 498.290452 315.121016 
L 499.608043 314.800637 
L 500.925635 314.720542 
L 502.243226 314.400163 
L 507.513592 313.999689 
L 508.831184 313.67931 
L 510.148775 313.67931 
L 512.783958 313.439026 
L 514.10155 313.439026 
L 516.736733 313.198742 
L 518.054324 312.718173 
L 520.689507 312.638078 
L 524.642282 312.557983 
L 527.277465 312.477888 
L 533.865422 312.397794 
L 540.45338 312.077415 
L 547.041337 311.99732 
L 553.629295 311.596846 
L 554.946886 311.356562 
L 558.899661 311.196372 
L 561.534844 311.116277 
L 562.852435 311.036182 
L 564.170027 310.555614 
L 569.440393 310.315329 
L 572.075576 310.315329 
L 574.710759 310.075045 
L 578.663533 309.99495 
L 581.298716 309.914855 
L 583.933899 309.834761 
L 586.569082 309.754666 
L 589.204265 309.754666 
L 591.839448 309.354192 
L 595.792223 309.354192 
L 597.109814 309.113908 
L 599.744997 309.033813 
L 603.697772 308.953718 
L 607.650546 308.793528 
L 627.414419 308.713434 
L 628.73201 308.553244 
L 641.907925 308.473149 
L 644.543108 308.393055 
L 645.8607 308.393055 
L 648.495883 308.15277 
L 656.401432 308.072675 
L 657.719023 307.912486 
L 668.259755 307.832391 
L 670.894938 307.752296 
L 672.21253 307.752296 
L 673.530121 307.031443 
L 678.800487 306.791159 
L 681.43567 306.711064 
L 682.753262 306.550875 
L 684.070853 306.550875 
L 685.388445 306.230495 
L 690.658811 305.990211 
L 694.611585 305.910116 
L 695.929177 305.749927 
L 701.199543 305.749927 
L 702.517134 305.509642 
L 705.152317 305.429548 
L 709.105091 305.349453 
L 713.057866 305.189263 
L 717.01064 305.189263 
L 718.328232 305.029074 
L 722.281006 305.029074 
L 723.598598 304.868884 
L 731.504147 304.788789 
L 734.13933 304.708694 
L 735.456921 304.708694 
L 736.774513 303.827652 
L 738.092104 303.827652 
L 742.044879 303.427178 
L 755.220794 302.62623 
L 756.538385 302.385946 
L 772.349483 301.344714 
L 774.984666 300.623861 
L 777.619849 300.463671 
L 778.937441 299.903007 
L 782.890215 299.742818 
L 786.84299 298.861775 
L 793.430947 297.740448 
L 794.748539 297.580259 
L 797.383722 297.500164 
L 802.654088 297.25988 
L 803.971679 297.25988 
L 805.289271 296.9395 
L 807.924454 296.699216 
L 810.559637 296.619121 
L 813.19482 295.978363 
L 818.465186 295.738079 
L 819.782777 295.738079 
L 823.735552 294.696847 
L 825.053143 294.696847 
L 830.323509 293.735709 
L 831.641101 293.655614 
L 832.958692 293.335235 
L 834.276284 293.175046 
L 835.593875 292.774572 
L 836.911467 292.534287 
L 842.181833 292.534287 
L 843.499424 292.294003 
L 847.452199 292.213908 
L 848.76979 291.332866 
L 850.087382 291.252771 
L 851.404973 290.932392 
L 852.722565 290.932392 
L 854.040156 290.772202 
L 855.357748 290.451823 
L 857.992931 290.211539 
L 860.628114 290.211539 
L 861.945705 290.051349 
L 865.89848 289.971254 
L 879.074395 289.170306 
L 880.391986 288.849927 
L 881.709578 288.849927 
L 885.662352 288.369359 
L 888.297535 284.925283 
L 889.615127 280.119596 
L 892.25031 272.190212 
L 893.567901 267.304431 
L 894.885493 264.821492 
L 896.203084 261.377417 
L 897.520676 259.054668 
L 898.838267 255.530497 
L 900.155859 254.329076 
L 901.47345 252.72718 
L 902.791042 251.445663 
L 904.108633 251.205379 
L 905.426225 250.804905 
L 908.061408 250.484526 
L 909.378999 250.084052 
L 912.014182 250.003957 
L 913.331774 250.003957 
L 914.649365 249.603483 
L 915.966957 249.603483 
L 918.60214 249.363199 
L 922.554914 249.283104 
L 927.82528 249.04282 
L 935.730829 248.962725 
L 938.366012 248.88263 
L 939.683604 248.88263 
L 941.001195 248.722441 
L 944.95397 248.642346 
L 952.859519 248.081683 
L 954.17711 247.921493 
L 958.129885 247.921493 
L 959.447476 247.681209 
L 964.717842 247.440924 
L 967.353025 247.36083 
L 972.623391 247.120545 
L 983.164123 247.04045 
L 985.799306 246.960356 
L 991.069672 246.880261 
L 993.704855 246.800166 
L 1000.292813 246.720071 
L 1001.610404 246.479787 
L 1002.927996 246.399692 
L 1004.245587 246.159408 
L 1008.198362 246.079313 
L 1009.515953 245.919123 
L 1010.833545 245.919123 
L 1012.151136 245.678839 
L 1014.786319 245.678839 
L 1016.103911 245.35846 
L 1017.421502 245.35846 
L 1018.739094 244.957986 
L 1022.691868 244.877891 
L 1024.00946 244.797796 
L 1025.327051 244.557512 
L 1026.644643 244.557512 
L 1029.279826 244.237133 
L 1030.597417 243.916754 
L 1031.915009 243.836659 
L 1033.2326 243.51628 
L 1034.550192 242.795427 
L 1035.867783 242.795427 
L 1037.185375 241.914384 
L 1039.820558 240.873152 
L 1041.138149 240.793057 
L 1042.455741 240.472678 
L 1043.773332 239.751825 
L 1045.090924 239.351351 
L 1046.408515 238.550403 
L 1051.678881 237.348982 
L 1059.58443 236.868413 
L 1060.902022 236.548034 
L 1066.172388 236.307749 
L 1071.442754 236.227655 
L 1074.077937 236.14756 
L 1079.348303 236.067465 
L 1080.665894 235.827181 
L 1085.93626 235.506802 
L 1087.253852 234.705854 
L 1088.571443 233.584527 
L 1089.889035 233.504432 
L 1091.206626 233.103958 
L 1092.524218 232.4632 
L 1093.841809 231.982631 
L 1096.476992 231.502062 
L 1097.794584 231.502062 
L 1100.429767 230.941399 
L 1101.747358 230.140451 
L 1103.06495 229.980262 
L 1104.382541 229.499693 
L 1105.700133 229.179314 
L 1107.017724 228.61865 
L 1108.335316 228.218176 
L 1109.652907 228.218176 
L 1110.970499 227.657513 
L 1112.28809 227.577418 
L 1113.605682 227.257039 
L 1114.923273 227.096849 
L 1116.240865 225.815333 
L 1117.558456 225.655143 
L 1120.193639 225.575048 
L 1122.828822 225.334764 
L 1126.781597 225.09448 
L 1128.099188 224.213437 
L 1129.41678 221.089741 
L 1130.734371 221.089741 
L 1133.369554 201.706803 
L 1134.687146 201.706803 
L 1136.004737 172.712491 
L 1137.322329 159.897326 
L 1139.957512 141.395431 
L 1141.275103 135.628607 
L 1142.592695 134.1869 
L 1143.910286 133.786427 
L 1145.227878 133.706332 
L 1146.545469 132.745194 
L 1150.498244 130.262256 
L 1151.815835 130.262256 
L 1153.133427 128.66036 
L 1154.451018 127.779318 
L 1155.76861 126.257517 
L 1158.403793 124.895906 
L 1161.038976 121.371735 
L 1162.356567 120.971261 
L 1163.674159 120.010124 
L 1164.99175 119.289271 
L 1167.626933 118.087849 
L 1168.944525 117.046617 
L 1170.262116 115.7651 
L 1171.579708 114.08311 
L 1172.897299 113.842825 
L 1176.850074 113.522446 
L 1178.167665 113.202067 
L 1180.802848 112.321025 
L 1182.12044 112.24093 
L 1184.755623 111.760361 
L 1187.390806 111.520077 
L 1192.661172 110.639034 
L 1193.978763 109.918181 
L 1195.296355 109.597802 
L 1196.613946 109.437612 
L 1197.931538 108.316285 
L 1199.249129 108.156096 
L 1201.884312 107.435243 
L 1203.201904 107.275053 
L 1204.519495 106.233821 
L 1205.837087 105.913442 
L 1207.154678 104.71202 
L 1208.47227 103.270314 
L 1211.107453 102.148987 
L 1213.742636 100.627186 
L 1215.060227 100.066523 
L 1217.69541 98.624817 
L 1219.013002 98.064153 
L 1220.330593 97.3433 
L 1221.648185 96.942826 
L 1222.965776 96.302068 
L 1224.283368 95.421025 
L 1225.600959 94.780267 
L 1226.918551 93.81913 
L 1228.236142 92.617708 
L 1229.553734 92.297329 
L 1230.871325 91.736665 
L 1232.188917 91.416286 
L 1233.506508 91.416286 
L 1234.8241 90.695433 
L 1236.141691 89.574106 
L 1237.459283 89.574106 
L 1238.776874 88.773158 
L 1240.094466 88.212495 
L 1241.412057 87.491642 
L 1242.729649 87.171263 
L 1244.04724 87.011073 
L 1245.364832 86.690694 
L 1246.682423 86.210125 
L 1248.000015 85.969841 
L 1249.317606 85.409177 
L 1250.635198 85.008703 
L 1251.952789 84.44804 
L 1253.270381 83.647092 
L 1254.587972 83.326713 
L 1255.905564 82.60586 
L 1258.540747 81.564628 
L 1259.858338 81.244249 
L 1261.17593 80.76368 
L 1262.493521 80.60349 
L 1269.081479 78.601121 
L 1276.987028 75.157045 
L 1278.304619 74.276002 
L 1279.622211 73.555149 
L 1280.939802 72.193538 
L 1284.892577 70.030979 
L 1286.210168 69.55041 
L 1288.845351 68.348988 
L 1290.162943 67.307756 
L 1291.480534 66.747093 
L 1292.798126 65.946145 
L 1295.433309 65.305387 
L 1296.7509 64.824818 
L 1298.068492 63.863681 
L 1299.386083 63.062733 
L 1299.386083 63.062733 
" clip-path="url(#p1c33cca733)" style="fill: none; stroke: #0000ff; stroke-width: 1.5; stroke-linecap: square"/>
   </g>
   <g id="line2d_21">
    <path d="M 1059.58443 236.794028 
L 1060.902022 236.384707 
L 1063.537205 236.089096 
L 1064.854796 236.253752 
L 1070.125162 236.302393 
L 1074.077937 236.072898 
L 1076.71312 236.16669 
L 1085.93626 235.454216 
L 1087.253852 234.344949 
L 1088.571443 232.872584 
L 1092.524218 232.252992 
L 1093.841809 231.502925 
L 1095.159401 231.260716 
L 1096.476992 231.257977 
L 1097.794584 231.368637 
L 1099.112175 231.015304 
L 1100.429767 230.781175 
L 1101.747358 229.67346 
L 1103.06495 229.493941 
L 1104.382541 228.948338 
L 1105.700133 228.889741 
L 1107.017724 228.195182 
L 1108.335316 227.772948 
L 1109.652907 227.915603 
L 1110.970499 227.362566 
L 1112.28809 227.416679 
L 1113.605682 226.888447 
L 1114.923273 226.946285 
L 1116.240865 225.251177 
L 1117.558456 224.997758 
L 1118.876048 225.06092 
L 1120.193639 225.609615 
L 1121.511231 225.498816 
L 1122.828822 225.208044 
L 1124.146414 225.201204 
L 1126.781597 224.981042 
L 1128.099188 223.839724 
L 1129.41678 219.692207 
L 1130.734371 219.382506 
L 1132.051963 206.360615 
L 1133.369554 194.820574 
L 1134.687146 193.425646 
L 1136.004737 160.047358 
L 1137.322329 145.677843 
L 1138.63992 129.737655 
L 1139.957512 132.014423 
L 1142.592695 128.887971 
L 1143.910286 133.679387 
L 1145.227878 134.479383 
L 1146.545469 132.682935 
L 1147.863061 130.690575 
L 1150.498244 129.126312 
L 1151.815835 129.390521 
L 1153.133427 127.899915 
L 1154.451018 127.10406 
L 1155.76861 124.790874 
L 1158.403793 123.921934 
L 1159.721384 122.134909 
L 1161.038976 120.044069 
L 1162.356567 119.428769 
L 1163.674159 119.015483 
L 1164.99175 118.790087 
L 1166.309342 117.998997 
L 1167.626933 117.500449 
L 1168.944525 116.405937 
L 1170.262116 114.68705 
L 1171.579708 112.599362 
L 1172.897299 112.616144 
L 1174.214891 113.105063 
L 1175.532482 113.820526 
L 1176.850074 113.641147 
L 1179.485257 112.410828 
L 1180.802848 111.783321 
L 1183.438031 111.750307 
L 1187.390806 111.378272 
L 1188.708397 111.153666 
L 1190.025989 110.684454 
L 1191.34358 110.618033 
L 1192.661172 110.419939 
L 1193.978763 109.602638 
L 1195.296355 109.120209 
L 1196.613946 108.954648 
L 1197.931538 107.847812 
L 1199.249129 107.654526 
L 1200.566721 107.087555 
L 1201.884312 107.251427 
L 1203.201904 107.043177 
L 1204.519495 105.716783 
L 1205.837087 105.41153 
L 1207.154678 103.734134 
L 1208.47227 102.260437 
L 1209.789861 101.484367 
L 1212.425044 100.92301 
L 1213.742636 99.998376 
L 1216.377819 98.712912 
L 1217.69541 97.9584 
L 1220.330593 96.66403 
L 1221.648185 96.419606 
L 1222.965776 95.722503 
L 1226.918551 92.928888 
L 1228.236142 91.682687 
L 1230.871325 91.037894 
L 1232.188917 91.175028 
L 1233.506508 91.189355 
L 1234.8241 90.418733 
L 1236.141691 89.018901 
L 1237.459283 88.759744 
L 1238.776874 88.042822 
L 1240.094466 87.861028 
L 1241.412057 86.75725 
L 1242.729649 86.614351 
L 1244.04724 86.689529 
L 1245.364832 86.470373 
L 1246.682423 85.955979 
L 1248.000015 85.580241 
L 1249.317606 84.976097 
L 1250.635198 84.587193 
L 1251.952789 83.888147 
L 1253.270381 83.046721 
L 1254.587972 82.742607 
L 1255.905564 81.964684 
L 1257.223155 81.563668 
L 1258.540747 80.955884 
L 1259.858338 80.794166 
L 1261.17593 80.401689 
L 1262.493521 80.292461 
L 1266.446296 78.97801 
L 1267.763887 78.446328 
L 1269.081479 78.240039 
L 1274.351845 75.664729 
L 1275.669436 75.232834 
L 1276.987028 74.557171 
L 1279.622211 72.775953 
L 1280.939802 71.160099 
L 1283.574985 69.848961 
L 1286.210168 69.000718 
L 1287.52776 68.276628 
L 1288.845351 67.862511 
L 1290.162943 66.552177 
L 1291.480534 65.959725 
L 1292.798126 65.081425 
L 1294.115717 65.079935 
L 1295.433309 64.87294 
L 1296.7509 64.523656 
L 1299.386083 62.227143 
L 1299.386083 62.227143 
" clip-path="url(#p1c33cca733)" style="fill: none; stroke: #ffa500; stroke-width: 1.5; stroke-linecap: square"/>
   </g>
   <g id="line2d_22">
    <path d="M 1299.386083 62.227143 
L 1300.703675 61.254909 
L 1302.021266 60.329017 
L 1303.338858 59.402059 
L 1304.656449 58.434192 
L 1305.974041 57.531296 
L 1307.291632 56.618657 
L 1308.609224 55.687454 
L 1309.926815 54.780544 
L 1311.244407 53.867075 
L 1312.561998 52.946887 
L 1313.87959 52.035997 
L 1315.197181 51.12183 
L 1316.514773 50.205375 
" clip-path="url(#p1c33cca733)" style="fill: none; stroke: #ff0000; stroke-width: 1.5; stroke-linecap: square"/>
   </g>
   <g id="patch_3">
    <path d="M 38.1875 367.725375 
L 38.1875 35.085375 
" style="fill: none; stroke: #000000; stroke-width: 0.8; stroke-linejoin: miter; stroke-linecap: square"/>
   </g>
   <g id="patch_4">
    <path d="M 1377.3875 367.725375 
L 1377.3875 35.085375 
" style="fill: none; stroke: #000000; stroke-width: 0.8; stroke-linejoin: miter; stroke-linecap: square"/>
   </g>
   <g id="patch_5">
    <path d="M 38.1875 367.725375 
L 1377.3875 367.725375 
" style="fill: none; stroke: #000000; stroke-width: 0.8; stroke-linejoin: miter; stroke-linecap: square"/>
   </g>
   <g id="patch_6">
    <path d="M 38.1875 35.085375 
L 1377.3875 35.085375 
" style="fill: none; stroke: #000000; stroke-width: 0.8; stroke-linejoin: miter; stroke-linecap: square"/>
   </g>
   <g id="text_20">
    <!-- 累计确诊预测 - 福建 -->
    <g transform="translate(654.390313 17.06625)scale(0.12 -0.12)">
     <defs>
      <path id="WenQuanYiZenHei-7d2f" d="M 5963 -681 
Q 5363 -81 4706 456 
L 5000 819 
Q 5675 269 6294 -350 
L 5963 -681 
z
M 1944 738 
Q 2094 556 2281 413 
Q 1575 -356 375 -706 
Q 350 -481 200 -319 
Q 725 -181 1122 69 
Q 1519 319 1944 738 
z
M 3244 -169 
L 3244 1063 
L 869 881 
L 850 1181 
Q 1431 1325 2969 1988 
L 1119 1931 
L 1113 2231 
Q 1350 2263 1862 2497 
Q 2375 2731 2800 2988 
L 1094 2988 
Q 1169 4006 1094 5019 
L 5506 5019 
Q 5425 4006 5500 2988 
L 3431 2988 
Q 3475 2931 3525 2875 
Q 2856 2494 2281 2256 
L 3388 2269 
L 3650 2288 
Q 4338 2606 4650 2800 
Q 4744 2563 4881 2344 
Q 4644 2225 3975 1956 
L 2269 1281 
L 4444 1425 
L 4813 1469 
L 4681 1588 
L 4988 1938 
Q 5481 1500 5863 963 
L 5481 694 
Q 5300 950 5081 1188 
L 4463 1163 
L 3669 1100 
L 3669 -250 
Q 3669 -444 3488 -594 
Q 3225 -819 2569 -813 
Q 2638 -513 2431 -294 
Q 2619 -319 2900 -322 
Q 3181 -325 3212 -294 
Q 3244 -263 3244 -169 
z
M 3513 4131 
L 5081 4131 
L 5081 4725 
L 3513 4725 
L 3513 4131 
z
M 3088 4131 
L 3088 4725 
L 1519 4725 
L 1519 4131 
L 3088 4131 
z
M 3513 3856 
L 3513 3288 
L 5081 3288 
L 5081 3856 
L 3513 3856 
z
M 3088 3856 
L 1519 3856 
L 1519 3288 
L 3088 3288 
L 3088 3856 
z
" transform="scale(0.015625)"/>
      <path id="WenQuanYiZenHei-8ba1" d="M 4569 -769 
Q 4313 -738 4056 -769 
Q 4081 -294 4081 175 
L 4081 2806 
L 3213 2806 
Q 2813 2806 2413 2788 
Q 2438 3000 2413 3219 
Q 2813 3200 3213 3200 
L 4081 3200 
L 4081 4313 
Q 4081 4788 4056 5263 
Q 4313 5231 4569 5263 
Q 4550 4788 4550 4313 
L 4550 3200 
L 5381 3200 
Q 5781 3200 6181 3219 
Q 6163 3000 6181 2788 
Q 5781 2806 5381 2806 
L 4550 2806 
L 4550 175 
Q 4550 -294 4569 -769 
z
M 38 2725 
Q 63 2931 38 3138 
Q 419 3119 800 3119 
L 1481 3119 
L 1481 425 
L 2044 1150 
L 2250 1488 
L 2525 1188 
L 2313 950 
L 1294 -488 
L 963 -231 
Q 1025 -94 1025 63 
L 1025 2744 
L 800 2744 
Q 419 2744 38 2725 
z
M 1450 3913 
Q 1094 4438 600 4831 
L 913 5225 
Q 1488 4769 1869 4194 
L 1450 3913 
z
" transform="scale(0.015625)"/>
      <path id="WenQuanYiZenHei-786e" d="M 4794 -769 
Q 4563 -744 4331 -769 
Q 4350 -344 4350 81 
L 4350 1081 
L 3419 1081 
L 3419 788 
Q 3419 225 3150 -194 
Q 2881 -613 2456 -806 
Q 2375 -569 2150 -444 
Q 2531 -344 2765 -15 
Q 3000 313 3000 788 
L 2994 2919 
L 2888 2813 
Q 2769 3000 2563 3081 
Q 3044 3494 3309 3969 
Q 3575 4444 3763 5119 
Q 3981 5044 4213 5013 
Q 4144 4700 4025 4400 
L 5238 4400 
L 5306 4050 
Q 5213 4031 5163 3947 
Q 5113 3863 4813 3325 
L 5994 3325 
L 5994 -150 
Q 5981 -519 5738 -656 
Q 5469 -806 5069 -806 
Q 5125 -525 4956 -294 
Q 5100 -313 5290 -316 
Q 5481 -319 5525 -278 
Q 5569 -238 5569 25 
L 5569 1081 
L 4769 1081 
L 4769 81 
Q 4769 -344 4794 -769 
z
M 4769 1344 
L 5569 1344 
L 5569 2100 
L 4769 2100 
L 4769 1344 
z
M 4350 1344 
L 4350 2100 
L 3413 2100 
L 3419 1344 
L 4350 1344 
z
M 4769 2363 
L 5569 2363 
L 5569 3038 
L 4769 3038 
L 4769 2363 
z
M 4350 2363 
L 4350 3038 
L 3413 3038 
L 3413 2363 
L 4350 2363 
z
M 3375 3325 
L 4350 3325 
L 4344 3331 
L 4775 4113 
L 3894 4113 
Q 3688 3700 3375 3325 
z
M 481 1069 
Q 281 1194 -25 1188 
Q 775 2750 1244 4294 
L 869 4294 
Q 563 4294 250 4275 
Q 269 4438 250 4594 
Q 563 4581 869 4581 
L 2156 4581 
Q 2463 4581 2775 4594 
Q 2756 4438 2775 4275 
Q 2463 4294 2156 4294 
L 1744 4294 
L 1181 2763 
L 2494 2763 
L 2494 -338 
L 2050 -338 
L 2050 156 
L 1406 156 
Q 1406 -94 1419 -350 
Q 1181 -325 938 -350 
Q 956 75 956 500 
L 956 2181 
L 769 1713 
Q 631 1388 481 1069 
z
M 2050 2475 
L 1400 2475 
L 1400 425 
L 2050 425 
L 2050 2475 
z
" transform="scale(0.015625)"/>
      <path id="WenQuanYiZenHei-8bca" d="M 5369 1456 
Q 5556 1256 5775 1100 
Q 5038 344 4081 -225 
Q 3106 -819 1788 -1006 
Q 1788 -725 1631 -500 
Q 3363 -306 4406 519 
Q 4919 956 5369 1456 
z
M 4594 2219 
Q 4781 2031 5013 1881 
Q 3625 394 2150 -25 
Q 2113 250 1913 444 
Q 2475 594 3015 850 
Q 3556 1106 3919 1463 
Q 4275 1819 4594 2219 
z
M 3969 3188 
Q 4150 3013 4356 2881 
Q 3625 1913 2306 1275 
Q 2244 1500 2056 1644 
Q 2619 1900 3053 2256 
Q 3488 2613 3969 3188 
z
M 5813 2194 
Q 4525 2913 3731 4188 
Q 2919 2844 1813 2163 
Q 1700 2413 1456 2550 
Q 1950 2844 2400 3231 
Q 2850 3619 3113 4063 
Q 3413 4581 3644 5163 
Q 3881 5038 4144 4963 
Q 4056 4775 3963 4594 
Q 4325 3919 4844 3441 
Q 5363 2963 6175 2538 
Q 5931 2431 5813 2194 
z
M 31 2613 
Q 50 2775 31 2938 
Q 325 2925 619 2925 
L 1275 2925 
L 1275 506 
L 1675 1006 
L 1831 1250 
L 2038 1013 
L 1881 838 
L 1100 -256 
L 825 -25 
Q 869 81 869 200 
L 869 2625 
L 31 2613 
z
M 950 3713 
Q 606 4325 200 4881 
L 556 5163 
Q 981 4588 1338 3944 
L 950 3713 
z
" transform="scale(0.015625)"/>
      <path id="WenQuanYiZenHei-9884" d="M 1206 19 
L 1206 2888 
L 669 2888 
Q 356 2888 50 2869 
Q 63 3044 50 3213 
Q 363 3194 669 3194 
L 1250 3194 
Q 950 3631 606 4031 
L 963 4338 
L 1263 3975 
L 1913 4719 
L 731 4719 
Q 419 4719 106 4706 
Q 125 4875 106 5044 
Q 419 5031 731 5031 
L 2481 5031 
L 2544 4663 
Q 2394 4613 2256 4466 
Q 2119 4319 1525 3631 
Q 1656 3444 1788 3250 
L 1700 3194 
L 2700 3194 
L 2763 2825 
Q 2656 2819 2613 2763 
L 2100 2038 
L 1750 2288 
L 2175 2888 
L 1638 2888 
L 1638 -150 
Q 1638 -525 1363 -669 
Q 1075 -819 525 -813 
Q 594 -513 388 -294 
Q 575 -313 837 -316 
Q 1100 -319 1153 -272 
Q 1206 -225 1206 19 
z
M 5813 -888 
Q 5100 -225 4306 375 
L 4669 719 
Q 5481 106 6219 -575 
L 5813 -888 
z
M 2375 -906 
Q 2294 -631 2025 -506 
Q 2769 -431 3353 19 
Q 3938 469 3938 1069 
L 3938 2200 
Q 3938 2625 3913 3050 
Q 4188 3025 4456 3050 
Q 4431 2625 4431 2200 
L 4431 1069 
Q 4431 681 4225 319 
Q 3644 -606 2375 -906 
z
M 3444 488 
Q 3169 513 2894 488 
Q 2919 913 2919 1338 
L 2919 3675 
Q 3219 3675 3525 3675 
Q 3750 4013 3931 4525 
L 3238 4525 
Q 2888 4525 2538 4513 
Q 2556 4669 2538 4831 
Q 2888 4813 3238 4813 
L 5313 4813 
Q 5663 4813 6006 4831 
Q 5988 4669 6006 4513 
Q 5663 4525 5313 4525 
L 4481 4525 
Q 4388 4088 4088 3675 
L 5644 3675 
L 5644 513 
L 5144 513 
L 5144 3388 
L 3894 3388 
L 3875 3363 
Q 3863 3375 3844 3388 
Q 3631 3388 3413 3388 
L 3419 1338 
Q 3419 913 3444 488 
z
" transform="scale(0.015625)"/>
      <path id="WenQuanYiZenHei-6d4b" d="M 5450 138 
L 5450 4306 
Q 5450 4750 5425 5188 
Q 5663 5163 5906 5188 
Q 5881 4750 5881 4306 
L 5881 -38 
Q 5888 -569 5519 -719 
Q 5194 -831 4825 -813 
Q 4894 -519 4694 -281 
Q 4869 -306 5094 -309 
Q 5319 -313 5384 -256 
Q 5450 -200 5450 138 
z
M 4900 938 
Q 4663 963 4419 938 
Q 4444 1375 4444 1819 
L 4444 3381 
Q 4444 3819 4419 4263 
Q 4663 4238 4900 4263 
Q 4875 3819 4875 3381 
L 4875 1819 
Q 4875 1375 4900 938 
z
M 2750 2025 
L 2750 3038 
Q 2750 3481 2725 3919 
Q 2963 3894 3206 3919 
Q 3181 3481 3181 3038 
L 3181 2025 
Q 3181 1263 2919 625 
L 3231 956 
Q 3781 431 4256 -150 
L 3888 -456 
Q 3431 106 2906 600 
Q 2531 -288 1738 -769 
Q 1606 -519 1338 -450 
Q 1988 -156 2369 478 
Q 2750 1113 2750 2025 
z
M 2363 969 
Q 2119 994 1881 969 
Q 1906 1406 1906 1850 
L 1906 5038 
L 3956 5031 
L 3956 1200 
L 3525 1200 
L 3525 4713 
L 2338 4713 
L 2338 1850 
Q 2338 1406 2363 969 
z
M 663 -738 
Q 481 -588 206 -575 
Q 400 -69 606 581 
Q 813 1231 1200 2838 
L 1381 2706 
L 875 338 
L 663 -738 
z
M 1006 2856 
L 731 2550 
L 75 3400 
L 350 3713 
L 1006 2856 
z
M 1088 3913 
Q 781 4388 425 4800 
L 694 5125 
Q 1069 4688 1388 4188 
L 1088 3913 
z
" transform="scale(0.015625)"/>
      <path id="WenQuanYiZenHei-20" transform="scale(0.015625)"/>
      <path id="WenQuanYiZenHei-798f" d="M 3169 -775 
Q 2938 -750 2713 -775 
Q 2731 -356 2731 69 
L 2731 2131 
L 5956 2131 
L 5956 -763 
L 5538 -763 
L 5538 -263 
L 3150 -263 
Q 3156 -519 3169 -775 
z
M 3088 2650 
Q 3163 3319 3088 3988 
L 5575 3988 
Q 5500 3319 5575 2650 
L 3088 2650 
z
M 6069 4838 
Q 6056 4681 6069 4531 
Q 5788 4544 5500 4544 
L 3213 4544 
Q 2925 4544 2644 4531 
Q 2656 4681 2644 4838 
Q 2925 4825 3213 4825 
L 5500 4825 
Q 5788 4825 6069 4838 
z
M 4525 -6 
L 5538 -6 
L 5538 794 
L 4525 794 
L 4525 -6 
z
M 4113 -6 
L 4113 794 
L 3144 794 
L 3144 -6 
L 4113 -6 
z
M 4525 1050 
L 5538 1050 
L 5538 1850 
L 4525 1850 
L 4525 1050 
z
M 4113 1050 
L 4113 1850 
L 3144 1850 
L 3144 1050 
L 4113 1050 
z
M 3506 3706 
L 3506 2931 
L 5163 2931 
L 5163 3706 
L 3506 3706 
z
M 1650 2069 
L 1650 38 
Q 1650 -406 1669 -844 
Q 1438 -819 1200 -844 
Q 1219 -406 1219 38 
L 1219 1763 
Q 875 1369 456 1044 
Q 256 1200 0 1288 
Q 1213 2100 1838 3500 
L 925 3500 
Q 606 3500 288 3481 
Q 306 3656 288 3831 
Q 606 3819 925 3819 
L 2400 3819 
Q 2175 3125 1788 2513 
L 1856 2569 
L 2544 1700 
L 2181 1400 
L 1650 2069 
z
M 1488 4025 
Q 1181 4550 806 5019 
L 1169 5319 
Q 1563 4825 1894 4269 
L 1488 4025 
z
" transform="scale(0.015625)"/>
      <path id="WenQuanYiZenHei-5efa" d="M 919 4275 
Q 581 4275 250 4263 
Q 269 4444 250 4625 
Q 581 4606 919 4606 
L 2056 4606 
L 1050 2825 
L 1888 2825 
Q 1950 1669 1450 744 
Q 2331 -181 4219 -138 
L 5988 -188 
Q 5813 -388 5813 -650 
Q 5169 -613 4353 -603 
Q 3538 -594 3194 -544 
Q 1969 -381 1219 350 
Q 844 -219 325 -625 
Q 125 -463 -119 -381 
Q 531 44 919 694 
Q 500 1244 344 1931 
L 769 2025 
Q 888 1531 1144 1131 
Q 1425 1781 1413 2500 
L 363 2500 
L 1363 4275 
L 919 4275 
z
M 4013 0 
Q 3775 25 3531 0 
Q 3550 344 3550 688 
L 2638 688 
Q 2306 688 1969 669 
Q 1988 850 1969 1031 
Q 2306 1019 2638 1019 
L 3556 1019 
L 3556 1569 
L 2956 1569 
Q 2619 1569 2281 1550 
Q 2300 1738 2281 1919 
Q 2619 1900 2956 1900 
L 3556 1900 
L 3556 2419 
L 3000 2419 
Q 2663 2419 2325 2406 
Q 2350 2588 2325 2769 
Q 2663 2750 3000 2750 
L 3556 2750 
L 3556 3350 
L 2613 3350 
Q 2275 3350 1938 3331 
Q 1956 3513 1938 3694 
Q 2275 3681 2613 3681 
L 3556 3681 
L 3556 4200 
L 3088 4200 
Q 2756 4200 2419 4188 
Q 2438 4369 2419 4550 
Q 2756 4531 3088 4531 
L 3550 4531 
Q 3550 4894 3531 5263 
Q 3775 5238 4013 5263 
Q 4000 4894 3994 4531 
L 5325 4531 
L 5325 3681 
Q 5656 3681 5981 3694 
Q 5963 3513 5981 3331 
Q 5656 3350 5325 3350 
L 5325 2419 
L 3994 2419 
L 3994 1900 
L 4650 1900 
Q 4988 1900 5325 1919 
Q 5306 1738 5325 1550 
Q 4988 1569 4650 1569 
L 3994 1569 
L 3994 1019 
L 5013 1019 
Q 5350 1019 5681 1031 
Q 5663 850 5681 669 
Q 5350 688 5013 688 
L 3994 688 
Q 4000 344 4013 0 
z
M 3994 2750 
L 4888 2750 
L 4888 3350 
L 3994 3350 
L 3994 2750 
z
M 3994 3681 
L 4888 3681 
L 4888 4200 
L 3994 4200 
L 3994 3681 
z
" transform="scale(0.015625)"/>
     </defs>
     <use xlink:href="#WenQuanYiZenHei-7d2f"/>
     <use xlink:href="#WenQuanYiZenHei-8ba1" x="100"/>
     <use xlink:href="#WenQuanYiZenHei-786e" x="200"/>
     <use xlink:href="#WenQuanYiZenHei-8bca" x="300"/>
     <use xlink:href="#WenQuanYiZenHei-9884" x="400"/>
     <use xlink:href="#WenQuanYiZenHei-6d4b" x="500"/>
     <use xlink:href="#WenQuanYiZenHei-20" x="600"/>
     <use xlink:href="#WenQuanYiZenHei-2d" x="629.980469"/>
     <use xlink:href="#WenQuanYiZenHei-20" x="659.960938"/>
     <use xlink:href="#WenQuanYiZenHei-798f" x="689.941406"/>
     <use xlink:href="#WenQuanYiZenHei-5efa" x="789.941406"/>
    </g>
    <!-- ARIMA (4, 2, 0)x(0, 0, 1, 7) (R2 = 0.998441) -->
    <g transform="translate(589.179688 29.085375)scale(0.12 -0.12)">
     <defs>
      <path id="WenQuanYiZenHei-41" d="M 3550 0 
L 2988 0 
L 2550 1281 
L 919 1281 
L 531 0 
L 69 0 
L 1494 4388 
L 2125 4388 
L 3550 0 
z
M 2425 1694 
L 1756 3800 
L 1075 1694 
L 2425 1694 
z
" transform="scale(0.015625)"/>
      <path id="WenQuanYiZenHei-52" d="M 3675 0 
L 3100 0 
L 2288 1900 
L 1069 1900 
L 1069 0 
L 519 0 
L 519 4388 
L 2163 4388 
Q 3006 4388 3400 3900 
Q 3581 3663 3625 3325 
Q 3631 3250 3631 3163 
Q 3631 2594 3219 2244 
Q 3038 2100 2813 2038 
L 3675 0 
z
M 3081 3169 
Q 3081 3825 2356 3906 
Q 2263 3919 2163 3919 
L 1069 3919 
L 1069 2350 
L 2100 2350 
Q 2906 2350 3044 2919 
Q 3081 3031 3081 3169 
z
" transform="scale(0.015625)"/>
      <path id="WenQuanYiZenHei-49" d="M 1100 0 
L 550 0 
L 550 4388 
L 1100 4388 
L 1100 0 
z
" transform="scale(0.015625)"/>
      <path id="WenQuanYiZenHei-4d" d="M 4756 0 
L 4206 0 
L 4206 3831 
L 4181 3831 
L 2788 0 
L 2419 0 
L 1000 3831 
L 975 3831 
L 975 0 
L 513 0 
L 513 4388 
L 1331 4388 
L 2656 875 
L 3950 4388 
L 4756 4388 
L 4756 0 
z
" transform="scale(0.015625)"/>
      <path id="WenQuanYiZenHei-28" d="M 1606 -1094 
L 1275 -1094 
Q 475 -100 338 1231 
Q 319 1438 319 1656 
Q 319 3031 1156 4244 
Q 1213 4313 1269 4388 
L 1600 4388 
Q 806 3169 794 1681 
Q 794 188 1606 -1094 
z
" transform="scale(0.015625)"/>
      <path id="WenQuanYiZenHei-2c" d="M 1363 75 
L 881 -825 
L 606 -825 
L 994 0 
L 656 0 
L 656 738 
L 1363 738 
L 1363 75 
z
" transform="scale(0.015625)"/>
      <path id="WenQuanYiZenHei-29" d="M 1600 1656 
Q 1600 306 869 -788 
Q 769 -950 644 -1094 
L 313 -1094 
Q 1125 188 1125 1681 
Q 1125 3169 338 4363 
Q 325 4375 319 4388 
L 650 4388 
Q 1525 3231 1594 1863 
Q 1600 1763 1600 1656 
z
" transform="scale(0.015625)"/>
      <path id="WenQuanYiZenHei-78" d="M 2806 0 
L 2213 0 
L 1394 1319 
L 544 0 
L 50 0 
L 1144 1681 
L 163 3250 
L 744 3250 
L 1431 2138 
L 2144 3250 
L 2631 3250 
L 1681 1794 
L 2806 0 
z
" transform="scale(0.015625)"/>
      <path id="WenQuanYiZenHei-3d" d="M 3569 2256 
L 263 2256 
L 263 2675 
L 3569 2675 
L 3569 2256 
z
M 3569 1019 
L 263 1019 
L 263 1431 
L 3569 1431 
L 3569 1019 
z
" transform="scale(0.015625)"/>
      <path id="WenQuanYiZenHei-2e" d="M 1344 0 
L 631 0 
L 631 725 
L 1344 725 
L 1344 0 
z
" transform="scale(0.015625)"/>
      <path id="WenQuanYiZenHei-39" d="M 3544 2300 
Q 3544 1163 3019 513 
Q 2563 -63 1775 -63 
Q 956 -63 563 488 
Q 463 631 394 813 
L 838 975 
Q 1025 494 1550 388 
Q 1656 369 1775 369 
Q 2594 369 2900 1325 
Q 3044 1769 3038 2313 
L 3025 2313 
Q 2675 1638 1944 1544 
Q 1844 1531 1744 1531 
Q 1050 1531 625 2031 
Q 294 2419 294 2963 
Q 294 3656 813 4094 
Q 1238 4456 1819 4456 
Q 2988 4456 3381 3363 
Q 3544 2900 3544 2300 
z
M 2925 2994 
Q 2925 3563 2469 3844 
Q 2206 4006 1863 4006 
Q 1275 4006 988 3563 
Q 844 3344 825 3056 
Q 819 3006 819 2956 
Q 819 2413 1269 2131 
Q 1538 1963 1875 1963 
Q 2363 1963 2681 2350 
Q 2925 2638 2925 2994 
z
" transform="scale(0.015625)"/>
      <path id="WenQuanYiZenHei-38" d="M 3619 1175 
Q 3619 431 2850 100 
Q 2444 -63 1944 -63 
Q 1231 -63 725 269 
Q 225 594 225 1125 
Q 225 1881 1269 2281 
Q 719 2481 519 2938 
Q 444 3119 444 3319 
Q 444 4000 1144 4294 
Q 1519 4456 1963 4456 
Q 2669 4456 3094 4094 
Q 3425 3813 3425 3369 
Q 3425 2638 2575 2356 
Q 3231 2056 3450 1725 
Q 3619 1488 3619 1175 
z
M 2944 3344 
Q 2944 3906 2288 4019 
Q 2138 4044 1969 4044 
Q 1438 4044 1163 3775 
Q 1000 3613 1000 3375 
Q 1000 2925 1594 2663 
Q 1756 2588 1931 2550 
Q 2581 2725 2788 2956 
Q 2944 3125 2944 3344 
z
M 3075 1094 
Q 3075 1738 1875 2050 
Q 1094 1881 850 1463 
Q 763 1313 763 1131 
Q 763 569 1456 406 
Q 1681 344 1944 344 
Q 2519 344 2850 619 
Q 3075 813 3075 1094 
z
" transform="scale(0.015625)"/>
     </defs>
     <use xlink:href="#WenQuanYiZenHei-41"/>
     <use xlink:href="#WenQuanYiZenHei-52" x="55.957031"/>
     <use xlink:href="#WenQuanYiZenHei-49" x="117.871094"/>
     <use xlink:href="#WenQuanYiZenHei-4d" x="143.847656"/>
     <use xlink:href="#WenQuanYiZenHei-41" x="225.78125"/>
     <use xlink:href="#WenQuanYiZenHei-20" x="281.738281"/>
     <use xlink:href="#WenQuanYiZenHei-28" x="311.71875"/>
     <use xlink:href="#WenQuanYiZenHei-34" x="341.699219"/>
     <use xlink:href="#WenQuanYiZenHei-2c" x="401.660156"/>
     <use xlink:href="#WenQuanYiZenHei-20" x="431.640625"/>
     <use xlink:href="#WenQuanYiZenHei-32" x="461.621094"/>
     <use xlink:href="#WenQuanYiZenHei-2c" x="521.582031"/>
     <use xlink:href="#WenQuanYiZenHei-20" x="551.5625"/>
     <use xlink:href="#WenQuanYiZenHei-30" x="581.542969"/>
     <use xlink:href="#WenQuanYiZenHei-29" x="641.503906"/>
     <use xlink:href="#WenQuanYiZenHei-78" x="671.484375"/>
     <use xlink:href="#WenQuanYiZenHei-28" x="715.429688"/>
     <use xlink:href="#WenQuanYiZenHei-30" x="745.410156"/>
     <use xlink:href="#WenQuanYiZenHei-2c" x="805.371094"/>
     <use xlink:href="#WenQuanYiZenHei-20" x="835.351562"/>
     <use xlink:href="#WenQuanYiZenHei-30" x="865.332031"/>
     <use xlink:href="#WenQuanYiZenHei-2c" x="925.292969"/>
     <use xlink:href="#WenQuanYiZenHei-20" x="955.273438"/>
     <use xlink:href="#WenQuanYiZenHei-31" x="985.253906"/>
     <use xlink:href="#WenQuanYiZenHei-2c" x="1045.214844"/>
     <use xlink:href="#WenQuanYiZenHei-20" x="1075.195312"/>
     <use xlink:href="#WenQuanYiZenHei-37" x="1105.175781"/>
     <use xlink:href="#WenQuanYiZenHei-29" x="1165.136719"/>
     <use xlink:href="#WenQuanYiZenHei-20" x="1195.117188"/>
     <use xlink:href="#WenQuanYiZenHei-28" x="1225.097656"/>
     <use xlink:href="#WenQuanYiZenHei-52" x="1255.078125"/>
     <use xlink:href="#WenQuanYiZenHei-32" x="1316.992188"/>
     <use xlink:href="#WenQuanYiZenHei-20" x="1376.953125"/>
     <use xlink:href="#WenQuanYiZenHei-3d" x="1406.933594"/>
     <use xlink:href="#WenQuanYiZenHei-20" x="1466.894531"/>
     <use xlink:href="#WenQuanYiZenHei-30" x="1496.875"/>
     <use xlink:href="#WenQuanYiZenHei-2e" x="1556.835938"/>
     <use xlink:href="#WenQuanYiZenHei-39" x="1586.816406"/>
     <use xlink:href="#WenQuanYiZenHei-39" x="1646.777344"/>
     <use xlink:href="#WenQuanYiZenHei-38" x="1706.738281"/>
     <use xlink:href="#WenQuanYiZenHei-34" x="1766.699219"/>
     <use xlink:href="#WenQuanYiZenHei-34" x="1826.660156"/>
     <use xlink:href="#WenQuanYiZenHei-31" x="1886.621094"/>
     <use xlink:href="#WenQuanYiZenHei-29" x="1946.582031"/>
    </g>
   </g>
   <g id="legend_1">
    <g id="patch_7">
     <path d="M 45.1875 87.080687 
L 107.1875 87.080687 
Q 109.1875 87.080687 109.1875 85.080687 
L 109.1875 42.085375 
Q 109.1875 40.085375 107.1875 40.085375 
L 45.1875 40.085375 
Q 43.1875 40.085375 43.1875 42.085375 
L 43.1875 85.080687 
Q 43.1875 87.080687 45.1875 87.080687 
z
" style="fill: #ffffff; opacity: 0.8; stroke: #cccccc; stroke-linejoin: miter"/>
    </g>
    <g id="line2d_23">
     <path d="M 47.1875 48.71975 
L 57.1875 48.71975 
L 67.1875 48.71975 
" style="fill: none; stroke: #0000ff; stroke-width: 1.5; stroke-linecap: square"/>
    </g>
    <g id="text_21">
     <!-- 实际值 -->
     <g transform="translate(75.1875 52.21975)scale(0.1 -0.1)">
      <defs>
       <path id="WenQuanYiZenHei-5b9e" d="M 1025 1175 
Q 694 1175 356 1163 
Q 375 1344 356 1525 
Q 694 1506 1025 1506 
L 3363 1506 
L 3363 2625 
Q 3363 3075 3338 3519 
Q 3581 3494 3825 3519 
Q 3800 3075 3800 2625 
L 3800 1506 
L 5406 1506 
Q 5744 1506 6075 1525 
Q 6056 1344 6075 1163 
Q 5744 1175 5406 1175 
L 4038 1175 
L 4981 456 
L 6131 -488 
L 5819 -856 
L 4681 75 
L 3638 875 
Q 3313 231 2475 -231 
Q 1638 -694 700 -825 
Q 638 -519 344 -400 
Q 1450 -319 2406 244 
Q 3113 656 3300 1175 
L 1025 1175 
z
M 2263 1581 
Q 1763 2081 1200 2513 
L 1494 2894 
Q 2081 2444 2600 1919 
L 2263 1581 
z
M 2638 2500 
Q 2219 2963 1731 3363 
L 2044 3738 
Q 2556 3313 3000 2819 
L 2638 2500 
z
M 919 3156 
L 481 3156 
L 481 4344 
L 3069 4344 
Q 2794 4731 2469 5081 
L 2825 5413 
Q 3256 4944 3613 4413 
L 3513 4344 
L 5869 4344 
L 5869 3156 
L 5425 3156 
L 5425 4013 
L 919 4013 
L 919 3156 
z
" transform="scale(0.015625)"/>
       <path id="WenQuanYiZenHei-9645" d="M 6000 431 
L 5569 194 
L 4963 1219 
L 4313 2219 
L 4719 2494 
L 5375 1481 
L 6000 431 
z
M 2956 2450 
Q 3181 2344 3419 2294 
Q 3006 1038 1944 -188 
Q 1794 -6 1569 56 
Q 2069 600 2372 1156 
Q 2675 1713 2956 2450 
z
M 3750 25 
L 3750 2913 
L 2819 2913 
Q 2475 2913 2125 2894 
Q 2144 3081 2125 3269 
Q 2475 3256 2819 3256 
L 5469 3256 
Q 5819 3256 6163 3269 
Q 6144 3081 6163 2894 
Q 5813 2913 5469 2913 
L 4194 2913 
L 4194 -144 
Q 4194 -725 3456 -813 
L 3263 -825 
Q 3325 -506 3125 -250 
Q 3250 -281 3394 -306 
Q 3663 -313 3706 -272 
Q 3750 -231 3750 25 
z
M 5544 4950 
Q 5525 4756 5544 4569 
Q 5194 4588 4844 4588 
L 3325 4588 
Q 2975 4588 2625 4569 
Q 2644 4756 2625 4950 
Q 2975 4931 3325 4931 
L 4844 4931 
Q 5194 4931 5544 4950 
z
M 819 -850 
Q 581 -825 344 -850 
Q 369 -419 369 19 
L 363 4938 
L 2256 4938 
L 2256 4625 
Q 2150 4513 2075 4375 
L 1481 3238 
Q 2181 2319 2181 1156 
Q 2144 400 1569 163 
L 1406 88 
Q 1288 300 1138 481 
Q 1294 538 1450 606 
Q 1763 744 1794 1156 
Q 1794 1744 1600 2300 
Q 1406 2856 1038 3313 
L 1725 4625 
L 788 4625 
L 794 19 
Q 794 -419 819 -850 
z
" transform="scale(0.015625)"/>
       <path id="WenQuanYiZenHei-503c" d="M 6175 -219 
Q 6156 -388 6175 -556 
Q 5863 -544 5550 -544 
L 2313 -544 
Q 2000 -544 1688 -556 
Q 1706 -388 1688 -219 
L 2506 -231 
L 2506 3469 
L 3644 3469 
L 3644 4119 
L 2638 4119 
Q 2325 4119 2013 4100 
Q 2031 4269 2013 4438 
Q 2325 4425 2638 4425 
L 3638 4425 
Q 3638 4719 3619 5013 
Q 3856 4988 4094 5013 
Q 4075 4719 4075 4425 
L 5344 4425 
Q 5650 4425 5963 4438 
Q 5950 4269 5963 4100 
Q 5656 4119 5344 4119 
L 4069 4119 
L 4069 3469 
L 5300 3469 
L 5300 -231 
L 5550 -231 
Q 5863 -231 6175 -219 
z
M 4869 2556 
L 4869 3156 
L 2931 3156 
Q 2931 2850 2931 2556 
L 4869 2556 
z
M 4869 1669 
L 4869 2250 
L 2931 2250 
L 2931 1669 
L 4869 1669 
z
M 4869 731 
L 4869 1363 
L 2931 1363 
L 2931 731 
L 4869 731 
z
M 4869 -231 
L 4869 425 
L 2931 425 
L 2931 -231 
L 4869 -231 
z
M 2106 4925 
Q 1856 4075 1463 3338 
L 1463 31 
Q 1463 -413 1481 -850 
Q 1256 -825 1031 -850 
Q 1050 -413 1050 31 
L 1050 2681 
Q 750 2269 375 1931 
Q 238 2156 0 2256 
Q 331 2544 619 2875 
Q 1094 3425 1300 3950 
Q 1494 4469 1625 5050 
Q 1850 4963 2106 4925 
z
" transform="scale(0.015625)"/>
      </defs>
      <use xlink:href="#WenQuanYiZenHei-5b9e"/>
      <use xlink:href="#WenQuanYiZenHei-9645" x="100"/>
      <use xlink:href="#WenQuanYiZenHei-503c" x="200"/>
     </g>
    </g>
    <g id="line2d_24">
     <path d="M 47.1875 63.397875 
L 57.1875 63.397875 
L 67.1875 63.397875 
" style="fill: none; stroke: #ffa500; stroke-width: 1.5; stroke-linecap: square"/>
    </g>
    <g id="text_22">
     <!-- 校验值 -->
     <g transform="translate(75.1875 66.897875)scale(0.1 -0.1)">
      <defs>
       <path id="WenQuanYiZenHei-6821" d="M 5256 2463 
Q 5025 1475 4494 706 
Q 5125 -94 6175 -544 
Q 5950 -663 5850 -900 
Q 4906 -494 4250 381 
Q 3931 0 3475 -350 
Q 3019 -700 2388 -919 
Q 2338 -656 2138 -475 
Q 3306 -69 4006 738 
Q 3563 1444 3300 2331 
Q 3050 2050 2706 1800 
Q 2606 2000 2406 2106 
Q 2900 2444 3181 2938 
Q 3350 3225 3488 3538 
Q 3700 3431 3925 3369 
Q 3763 2894 3425 2475 
L 3650 2531 
Q 3888 1675 4244 1075 
Q 4469 1444 4603 1937 
Q 4738 2431 4775 2688 
Q 4963 2644 5150 2625 
Q 4919 2969 4663 3294 
L 5038 3588 
Q 5544 2925 5975 2213 
L 5569 1969 
L 5256 2463 
z
M 6006 4050 
Q 5988 3881 6006 3713 
Q 5694 3725 5381 3725 
L 3413 3725 
Q 3100 3725 2788 3713 
Q 2806 3881 2788 4050 
Q 3100 4031 3413 4031 
L 4325 4031 
Q 4019 4525 3644 4969 
L 4000 5275 
Q 4413 4788 4750 4244 
L 4406 4031 
L 5381 4031 
Q 5694 4031 6006 4050 
z
M 406 263 
Q 238 431 -25 469 
Q 194 825 466 1337 
Q 738 1850 925 2406 
Q 1113 2963 1256 3519 
L 825 3519 
Q 506 3519 188 3500 
Q 206 3700 188 3900 
Q 506 3881 825 3881 
L 1363 3881 
L 1363 4263 
Q 1363 4719 1338 5175 
Q 1556 5150 1775 5175 
Q 1756 4719 1756 4263 
L 1756 3881 
L 2525 3900 
Q 2506 3700 2525 3500 
L 1756 3519 
L 1756 2738 
L 1931 2881 
Q 2306 2300 2613 1650 
L 2231 1413 
Q 2081 1725 1919 2019 
L 1756 2300 
L 1756 69 
Q 1756 -388 1775 -850 
Q 1556 -825 1338 -850 
Q 1363 -388 1363 69 
L 1363 2438 
Q 925 1144 406 263 
z
" transform="scale(0.015625)"/>
       <path id="WenQuanYiZenHei-9a8c" d="M 5981 -106 
Q 5963 -275 5981 -444 
Q 5669 -431 5356 -431 
L 2969 -431 
Q 2656 -431 2350 -444 
Q 2363 -275 2350 -106 
Q 2656 -125 2969 -125 
L 4369 -125 
Q 4600 431 4881 1288 
L 5206 2300 
Q 5425 2206 5663 2163 
Q 5375 1188 4831 -125 
L 5356 -125 
Q 5669 -125 5981 -106 
z
M 4063 594 
Q 3788 1425 3425 2219 
L 3856 2419 
Q 4225 1600 4513 744 
L 4063 594 
z
M 3163 363 
Q 2931 1200 2613 2006 
L 3056 2175 
Q 3381 1350 3619 488 
L 3163 363 
z
M 4581 2550 
L 3513 2550 
Q 3200 2550 2888 2538 
Q 2900 2663 2894 2769 
Q 2569 2488 2206 2300 
Q 2113 2550 1894 2700 
Q 2488 2975 2975 3463 
Q 3269 3756 3394 4006 
Q 3644 4513 3794 5063 
Q 4038 4975 4294 4931 
Q 4250 4806 4206 4681 
Q 4475 3888 5025 3388 
Q 5519 2938 6169 2650 
Q 5938 2538 5838 2300 
Q 5513 2456 5200 2700 
Q 5200 2619 5206 2538 
Q 4894 2550 4581 2550 
z
M 3513 2863 
L 4994 2869 
Q 4344 3438 3988 4194 
Q 3594 3406 3013 2869 
Q 3263 2863 3513 2863 
z
M 206 444 
Q 188 756 44 963 
Q 319 956 650 1003 
Q 981 1050 1731 1281 
L 1738 1006 
Q 800 719 206 444 
z
M 525 4000 
Q 744 3950 994 3944 
Q 925 3519 875 3081 
L 763 2144 
L 1475 2144 
L 1831 4444 
L 663 4444 
Q 350 4444 38 4431 
Q 56 4600 38 4769 
Q 350 4756 663 4756 
L 2313 4756 
L 1913 2144 
L 2375 2144 
L 2200 -200 
Q 2188 -425 1988 -588 
Q 1694 -800 1181 -788 
L 944 -788 
Q 1000 -450 788 -269 
Q 1013 -294 1334 -287 
Q 1656 -281 1715 -243 
Q 1775 -206 1781 -50 
L 1925 1831 
L 294 1831 
L 444 3131 
Q 500 3569 525 4000 
z
" transform="scale(0.015625)"/>
      </defs>
      <use xlink:href="#WenQuanYiZenHei-6821"/>
      <use xlink:href="#WenQuanYiZenHei-9a8c" x="100"/>
      <use xlink:href="#WenQuanYiZenHei-503c" x="200"/>
     </g>
    </g>
    <g id="line2d_25">
     <path d="M 47.1875 77.91975 
L 57.1875 77.91975 
L 67.1875 77.91975 
" style="fill: none; stroke: #ff0000; stroke-width: 1.5; stroke-linecap: square"/>
    </g>
    <g id="text_23">
     <!-- 预测值 -->
     <g transform="translate(75.1875 81.41975)scale(0.1 -0.1)">
      <use xlink:href="#WenQuanYiZenHei-9884"/>
      <use xlink:href="#WenQuanYiZenHei-6d4b" x="100"/>
      <use xlink:href="#WenQuanYiZenHei-503c" x="200"/>
     </g>
    </g>
   </g>
  </g>
 </g>
 <defs>
  <clipPath id="p1c33cca733">
   <rect x="38.1875" y="35.085375" width="1339.2" height="332.64"/>
  </clipPath>
 </defs>
</svg>
