<?xml version="1.0" encoding="utf-8" standalone="no"?>
<!DOCTYPE svg PUBLIC "-//W3C//DTD SVG 1.1//EN"
  "http://www.w3.org/Graphics/SVG/1.1/DTD/svg11.dtd">
<svg xmlns:xlink="http://www.w3.org/1999/xlink" width="1384.5875pt" height="390.594438pt" viewBox="0 0 1384.5875 390.594438" xmlns="http://www.w3.org/2000/svg" version="1.1">
 <metadata>
  <rdf:RDF xmlns:dc="http://purl.org/dc/elements/1.1/" xmlns:cc="http://creativecommons.org/ns#" xmlns:rdf="http://www.w3.org/1999/02/22-rdf-syntax-ns#">
   <cc:Work>
    <dc:type rdf:resource="http://purl.org/dc/dcmitype/StillImage"/>
    <dc:date>2022-07-03T18:13:08.502125</dc:date>
    <dc:format>image/svg+xml</dc:format>
    <dc:creator>
     <cc:Agent>
      <dc:title>Matplotlib v3.5.2, https://matplotlib.org/</dc:title>
     </cc:Agent>
    </dc:creator>
   </cc:Work>
  </rdf:RDF>
 </metadata>
 <defs>
  <style type="text/css">*{stroke-linejoin: round; stroke-linecap: butt}</style>
 </defs>
 <g id="figure_1">
  <g id="patch_1">
   <path d="M 0 390.594438 
L 1384.5875 390.594438 
L 1384.5875 0 
L 0 0 
z
" style="fill: #ffffff"/>
  </g>
  <g id="axes_1">
   <g id="patch_2">
    <path d="M 38.1875 367.87725 
L 1377.3875 367.87725 
L 1377.3875 35.23725 
L 38.1875 35.23725 
z
" style="fill: #ffffff"/>
   </g>
   <g id="matplotlib.axis_1">
    <g id="xtick_1">
     <g id="line2d_1">
      <defs>
       <path id="m915f5187fa" d="M 0 0 
L 0 3.5 
" style="stroke: #000000; stroke-width: 0.8"/>
      </defs>
      <g>
       <use xlink:href="#m915f5187fa" x="70.809901" y="367.87725" style="stroke: #000000; stroke-width: 0.8"/>
      </g>
     </g>
     <g id="text_1">
      <!-- 2020-01 -->
      <g transform="translate(51.320057 381.7335)scale(0.1 -0.1)">
       <defs>
        <path id="WenQuanYiZenHei-32" d="M 3488 0 
L 369 0 
L 369 456 
L 2150 1850 
Q 2931 2463 2931 3144 
Q 2931 3619 2488 3863 
Q 2231 4013 1931 4013 
Q 1425 4013 1113 3619 
Q 894 3356 881 3013 
L 369 3169 
Q 531 3981 1213 4300 
Q 1544 4456 1950 4456 
Q 2631 4456 3088 4044 
L 3225 3888 
L 3350 3706 
Q 3481 3444 3481 3144 
Q 3481 2313 2519 1569 
L 1069 456 
L 3488 456 
L 3488 0 
z
" transform="scale(0.015625)"/>
        <path id="WenQuanYiZenHei-30" d="M 3581 2175 
Q 3581 1288 3169 638 
Q 2713 -63 1938 -63 
Q 1025 -63 563 831 
Q 256 1425 256 2188 
Q 256 3188 700 3819 
Q 1138 4456 1888 4456 
Q 2863 4456 3306 3500 
Q 3581 2925 3581 2175 
z
M 3019 2100 
Q 3019 3356 2500 3806 
L 2350 3919 
Q 2144 4031 1888 4031 
Q 1100 4031 888 2956 
Q 819 2625 819 2225 
Q 819 1013 1338 569 
Q 1588 356 1938 356 
Q 2675 356 2925 1294 
Q 3019 1663 3019 2100 
z
" transform="scale(0.015625)"/>
        <path id="WenQuanYiZenHei-2d" d="M 1363 1444 
L 0 1444 
L 0 1844 
L 1363 1844 
L 1363 1444 
z
" transform="scale(0.015625)"/>
        <path id="WenQuanYiZenHei-31" d="M 3556 0 
L 488 0 
L 488 406 
L 1800 406 
L 1800 3725 
Q 1231 3125 588 2788 
L 588 3338 
Q 1456 3781 1931 4388 
L 2331 4388 
L 2331 406 
L 3556 406 
L 3556 0 
z
" transform="scale(0.015625)"/>
       </defs>
       <use xlink:href="#WenQuanYiZenHei-32"/>
       <use xlink:href="#WenQuanYiZenHei-30" x="59.960938"/>
       <use xlink:href="#WenQuanYiZenHei-32" x="119.921875"/>
       <use xlink:href="#WenQuanYiZenHei-30" x="179.882812"/>
       <use xlink:href="#WenQuanYiZenHei-2d" x="239.84375"/>
       <use xlink:href="#WenQuanYiZenHei-30" x="269.824219"/>
       <use xlink:href="#WenQuanYiZenHei-31" x="329.785156"/>
      </g>
     </g>
    </g>
    <g id="xtick_2">
     <g id="line2d_2">
      <g>
       <use xlink:href="#m915f5187fa" x="193.227982" y="367.87725" style="stroke: #000000; stroke-width: 0.8"/>
      </g>
     </g>
     <g id="text_2">
      <!-- 2020-04 -->
      <g transform="translate(173.738138 381.7335)scale(0.1 -0.1)">
       <defs>
        <path id="WenQuanYiZenHei-34" d="M 3631 1025 
L 2913 1025 
L 2913 0 
L 2381 0 
L 2381 1025 
L 219 1025 
L 219 1388 
L 2225 4388 
L 2913 4388 
L 2913 1444 
L 3631 1444 
L 3631 1025 
z
M 2381 1444 
L 2381 3963 
L 788 1444 
L 2381 1444 
z
" transform="scale(0.015625)"/>
       </defs>
       <use xlink:href="#WenQuanYiZenHei-32"/>
       <use xlink:href="#WenQuanYiZenHei-30" x="59.960938"/>
       <use xlink:href="#WenQuanYiZenHei-32" x="119.921875"/>
       <use xlink:href="#WenQuanYiZenHei-30" x="179.882812"/>
       <use xlink:href="#WenQuanYiZenHei-2d" x="239.84375"/>
       <use xlink:href="#WenQuanYiZenHei-30" x="269.824219"/>
       <use xlink:href="#WenQuanYiZenHei-34" x="329.785156"/>
      </g>
     </g>
    </g>
    <g id="xtick_3">
     <g id="line2d_3">
      <g>
       <use xlink:href="#m915f5187fa" x="315.646064" y="367.87725" style="stroke: #000000; stroke-width: 0.8"/>
      </g>
     </g>
     <g id="text_3">
      <!-- 2020-07 -->
      <g transform="translate(296.15622 381.7335)scale(0.1 -0.1)">
       <defs>
        <path id="WenQuanYiZenHei-37" d="M 3400 4056 
Q 1838 2175 1838 0 
L 1275 0 
Q 1269 1438 2056 2825 
Q 2381 3400 2825 3913 
L 444 3913 
L 500 4388 
L 3400 4388 
L 3400 4056 
z
" transform="scale(0.015625)"/>
       </defs>
       <use xlink:href="#WenQuanYiZenHei-32"/>
       <use xlink:href="#WenQuanYiZenHei-30" x="59.960938"/>
       <use xlink:href="#WenQuanYiZenHei-32" x="119.921875"/>
       <use xlink:href="#WenQuanYiZenHei-30" x="179.882812"/>
       <use xlink:href="#WenQuanYiZenHei-2d" x="239.84375"/>
       <use xlink:href="#WenQuanYiZenHei-30" x="269.824219"/>
       <use xlink:href="#WenQuanYiZenHei-37" x="329.785156"/>
      </g>
     </g>
    </g>
    <g id="xtick_4">
     <g id="line2d_4">
      <g>
       <use xlink:href="#m915f5187fa" x="439.409399" y="367.87725" style="stroke: #000000; stroke-width: 0.8"/>
      </g>
     </g>
     <g id="text_4">
      <!-- 2020-10 -->
      <g transform="translate(419.919555 381.7335)scale(0.1 -0.1)">
       <use xlink:href="#WenQuanYiZenHei-32"/>
       <use xlink:href="#WenQuanYiZenHei-30" x="59.960938"/>
       <use xlink:href="#WenQuanYiZenHei-32" x="119.921875"/>
       <use xlink:href="#WenQuanYiZenHei-30" x="179.882812"/>
       <use xlink:href="#WenQuanYiZenHei-2d" x="239.84375"/>
       <use xlink:href="#WenQuanYiZenHei-31" x="269.824219"/>
       <use xlink:href="#WenQuanYiZenHei-30" x="329.785156"/>
      </g>
     </g>
    </g>
    <g id="xtick_5">
     <g id="line2d_5">
      <g>
       <use xlink:href="#m915f5187fa" x="563.172734" y="367.87725" style="stroke: #000000; stroke-width: 0.8"/>
      </g>
     </g>
     <g id="text_5">
      <!-- 2021-01 -->
      <g transform="translate(543.68289 381.7335)scale(0.1 -0.1)">
       <use xlink:href="#WenQuanYiZenHei-32"/>
       <use xlink:href="#WenQuanYiZenHei-30" x="59.960938"/>
       <use xlink:href="#WenQuanYiZenHei-32" x="119.921875"/>
       <use xlink:href="#WenQuanYiZenHei-31" x="179.882812"/>
       <use xlink:href="#WenQuanYiZenHei-2d" x="239.84375"/>
       <use xlink:href="#WenQuanYiZenHei-30" x="269.824219"/>
       <use xlink:href="#WenQuanYiZenHei-31" x="329.785156"/>
      </g>
     </g>
    </g>
    <g id="xtick_6">
     <g id="line2d_6">
      <g>
       <use xlink:href="#m915f5187fa" x="684.245561" y="367.87725" style="stroke: #000000; stroke-width: 0.8"/>
      </g>
     </g>
     <g id="text_6">
      <!-- 2021-04 -->
      <g transform="translate(664.755718 381.7335)scale(0.1 -0.1)">
       <use xlink:href="#WenQuanYiZenHei-32"/>
       <use xlink:href="#WenQuanYiZenHei-30" x="59.960938"/>
       <use xlink:href="#WenQuanYiZenHei-32" x="119.921875"/>
       <use xlink:href="#WenQuanYiZenHei-31" x="179.882812"/>
       <use xlink:href="#WenQuanYiZenHei-2d" x="239.84375"/>
       <use xlink:href="#WenQuanYiZenHei-30" x="269.824219"/>
       <use xlink:href="#WenQuanYiZenHei-34" x="329.785156"/>
      </g>
     </g>
    </g>
    <g id="xtick_7">
     <g id="line2d_7">
      <g>
       <use xlink:href="#m915f5187fa" x="806.663643" y="367.87725" style="stroke: #000000; stroke-width: 0.8"/>
      </g>
     </g>
     <g id="text_7">
      <!-- 2021-07 -->
      <g transform="translate(787.173799 381.7335)scale(0.1 -0.1)">
       <use xlink:href="#WenQuanYiZenHei-32"/>
       <use xlink:href="#WenQuanYiZenHei-30" x="59.960938"/>
       <use xlink:href="#WenQuanYiZenHei-32" x="119.921875"/>
       <use xlink:href="#WenQuanYiZenHei-31" x="179.882812"/>
       <use xlink:href="#WenQuanYiZenHei-2d" x="239.84375"/>
       <use xlink:href="#WenQuanYiZenHei-30" x="269.824219"/>
       <use xlink:href="#WenQuanYiZenHei-37" x="329.785156"/>
      </g>
     </g>
    </g>
    <g id="xtick_8">
     <g id="line2d_8">
      <g>
       <use xlink:href="#m915f5187fa" x="930.426978" y="367.87725" style="stroke: #000000; stroke-width: 0.8"/>
      </g>
     </g>
     <g id="text_8">
      <!-- 2021-10 -->
      <g transform="translate(910.937134 381.7335)scale(0.1 -0.1)">
       <use xlink:href="#WenQuanYiZenHei-32"/>
       <use xlink:href="#WenQuanYiZenHei-30" x="59.960938"/>
       <use xlink:href="#WenQuanYiZenHei-32" x="119.921875"/>
       <use xlink:href="#WenQuanYiZenHei-31" x="179.882812"/>
       <use xlink:href="#WenQuanYiZenHei-2d" x="239.84375"/>
       <use xlink:href="#WenQuanYiZenHei-31" x="269.824219"/>
       <use xlink:href="#WenQuanYiZenHei-30" x="329.785156"/>
      </g>
     </g>
    </g>
    <g id="xtick_9">
     <g id="line2d_9">
      <g>
       <use xlink:href="#m915f5187fa" x="1054.190313" y="367.87725" style="stroke: #000000; stroke-width: 0.8"/>
      </g>
     </g>
     <g id="text_9">
      <!-- 2022-01 -->
      <g transform="translate(1034.700469 381.7335)scale(0.1 -0.1)">
       <use xlink:href="#WenQuanYiZenHei-32"/>
       <use xlink:href="#WenQuanYiZenHei-30" x="59.960938"/>
       <use xlink:href="#WenQuanYiZenHei-32" x="119.921875"/>
       <use xlink:href="#WenQuanYiZenHei-32" x="179.882812"/>
       <use xlink:href="#WenQuanYiZenHei-2d" x="239.84375"/>
       <use xlink:href="#WenQuanYiZenHei-30" x="269.824219"/>
       <use xlink:href="#WenQuanYiZenHei-31" x="329.785156"/>
      </g>
     </g>
    </g>
    <g id="xtick_10">
     <g id="line2d_10">
      <g>
       <use xlink:href="#m915f5187fa" x="1175.26314" y="367.87725" style="stroke: #000000; stroke-width: 0.8"/>
      </g>
     </g>
     <g id="text_10">
      <!-- 2022-04 -->
      <g transform="translate(1155.773297 381.7335)scale(0.1 -0.1)">
       <use xlink:href="#WenQuanYiZenHei-32"/>
       <use xlink:href="#WenQuanYiZenHei-30" x="59.960938"/>
       <use xlink:href="#WenQuanYiZenHei-32" x="119.921875"/>
       <use xlink:href="#WenQuanYiZenHei-32" x="179.882812"/>
       <use xlink:href="#WenQuanYiZenHei-2d" x="239.84375"/>
       <use xlink:href="#WenQuanYiZenHei-30" x="269.824219"/>
       <use xlink:href="#WenQuanYiZenHei-34" x="329.785156"/>
      </g>
     </g>
    </g>
    <g id="xtick_11">
     <g id="line2d_11">
      <g>
       <use xlink:href="#m915f5187fa" x="1297.681222" y="367.87725" style="stroke: #000000; stroke-width: 0.8"/>
      </g>
     </g>
     <g id="text_11">
      <!-- 2022-07 -->
      <g transform="translate(1278.191378 381.7335)scale(0.1 -0.1)">
       <use xlink:href="#WenQuanYiZenHei-32"/>
       <use xlink:href="#WenQuanYiZenHei-30" x="59.960938"/>
       <use xlink:href="#WenQuanYiZenHei-32" x="119.921875"/>
       <use xlink:href="#WenQuanYiZenHei-32" x="179.882812"/>
       <use xlink:href="#WenQuanYiZenHei-2d" x="239.84375"/>
       <use xlink:href="#WenQuanYiZenHei-30" x="269.824219"/>
       <use xlink:href="#WenQuanYiZenHei-37" x="329.785156"/>
      </g>
     </g>
    </g>
   </g>
   <g id="matplotlib.axis_2">
    <g id="ytick_1">
     <g id="line2d_12">
      <defs>
       <path id="m5fc8499293" d="M 0 0 
L -3.5 0 
" style="stroke: #000000; stroke-width: 0.8"/>
      </defs>
      <g>
       <use xlink:href="#m5fc8499293" x="38.1875" y="353.803003" style="stroke: #000000; stroke-width: 0.8"/>
      </g>
     </g>
     <g id="text_12">
      <!-- 0 -->
      <g transform="translate(25.190625 357.231128)scale(0.1 -0.1)">
       <use xlink:href="#WenQuanYiZenHei-30"/>
      </g>
     </g>
    </g>
    <g id="ytick_2">
     <g id="line2d_13">
      <g>
       <use xlink:href="#m5fc8499293" x="38.1875" y="313.581717" style="stroke: #000000; stroke-width: 0.8"/>
      </g>
     </g>
     <g id="text_13">
      <!-- 1000 -->
      <g transform="translate(7.2 317.009842)scale(0.1 -0.1)">
       <use xlink:href="#WenQuanYiZenHei-31"/>
       <use xlink:href="#WenQuanYiZenHei-30" x="59.960938"/>
       <use xlink:href="#WenQuanYiZenHei-30" x="119.921875"/>
       <use xlink:href="#WenQuanYiZenHei-30" x="179.882812"/>
      </g>
     </g>
    </g>
    <g id="ytick_3">
     <g id="line2d_14">
      <g>
       <use xlink:href="#m5fc8499293" x="38.1875" y="273.36043" style="stroke: #000000; stroke-width: 0.8"/>
      </g>
     </g>
     <g id="text_14">
      <!-- 2000 -->
      <g transform="translate(7.2 276.788555)scale(0.1 -0.1)">
       <use xlink:href="#WenQuanYiZenHei-32"/>
       <use xlink:href="#WenQuanYiZenHei-30" x="59.960938"/>
       <use xlink:href="#WenQuanYiZenHei-30" x="119.921875"/>
       <use xlink:href="#WenQuanYiZenHei-30" x="179.882812"/>
      </g>
     </g>
    </g>
    <g id="ytick_4">
     <g id="line2d_15">
      <g>
       <use xlink:href="#m5fc8499293" x="38.1875" y="233.139144" style="stroke: #000000; stroke-width: 0.8"/>
      </g>
     </g>
     <g id="text_15">
      <!-- 3000 -->
      <g transform="translate(7.2 236.567269)scale(0.1 -0.1)">
       <defs>
        <path id="WenQuanYiZenHei-33" d="M 3588 1231 
Q 3588 494 2875 144 
Q 2450 -63 1925 -63 
Q 1044 -63 556 488 
Q 356 706 256 1000 
L 769 1169 
Q 994 375 1913 375 
Q 2631 375 2900 788 
Q 3019 975 3019 1231 
Q 3019 1638 2638 1881 
Q 2325 2081 1613 2069 
L 1338 2069 
L 1338 2494 
Q 1969 2494 2094 2506 
Q 2325 2544 2463 2613 
Q 2763 2756 2844 3100 
Q 2863 3169 2863 3244 
Q 2863 3744 2381 3944 
L 2163 4006 
Q 2056 4025 1931 4025 
Q 1388 4025 1075 3631 
Q 969 3488 906 3313 
L 419 3456 
Q 675 4150 1400 4369 
Q 1669 4456 1975 4456 
Q 2694 4456 3106 4050 
Q 3419 3744 3419 3275 
Q 3419 2813 3025 2513 
Q 2825 2356 2575 2319 
L 2575 2306 
Q 3181 2213 3450 1769 
Q 3588 1525 3588 1231 
z
" transform="scale(0.015625)"/>
       </defs>
       <use xlink:href="#WenQuanYiZenHei-33"/>
       <use xlink:href="#WenQuanYiZenHei-30" x="59.960938"/>
       <use xlink:href="#WenQuanYiZenHei-30" x="119.921875"/>
       <use xlink:href="#WenQuanYiZenHei-30" x="179.882812"/>
      </g>
     </g>
    </g>
    <g id="ytick_5">
     <g id="line2d_16">
      <g>
       <use xlink:href="#m5fc8499293" x="38.1875" y="192.917857" style="stroke: #000000; stroke-width: 0.8"/>
      </g>
     </g>
     <g id="text_16">
      <!-- 4000 -->
      <g transform="translate(7.2 196.345982)scale(0.1 -0.1)">
       <use xlink:href="#WenQuanYiZenHei-34"/>
       <use xlink:href="#WenQuanYiZenHei-30" x="59.960938"/>
       <use xlink:href="#WenQuanYiZenHei-30" x="119.921875"/>
       <use xlink:href="#WenQuanYiZenHei-30" x="179.882812"/>
      </g>
     </g>
    </g>
    <g id="ytick_6">
     <g id="line2d_17">
      <g>
       <use xlink:href="#m5fc8499293" x="38.1875" y="152.696571" style="stroke: #000000; stroke-width: 0.8"/>
      </g>
     </g>
     <g id="text_17">
      <!-- 5000 -->
      <g transform="translate(7.2 156.124696)scale(0.1 -0.1)">
       <defs>
        <path id="WenQuanYiZenHei-35" d="M 3531 1488 
Q 3531 688 2913 250 
Q 2456 -63 1844 -63 
Q 1175 -63 706 350 
Q 413 613 306 975 
L 781 1131 
Q 1000 538 1569 406 
Q 1706 369 1856 369 
Q 2550 369 2850 869 
Q 3000 1131 3000 1494 
Q 3000 2056 2581 2356 
Q 2319 2538 1969 2538 
Q 1400 2538 1031 2075 
Q 981 2013 938 1938 
L 500 2031 
L 644 4388 
L 3244 4388 
L 3200 3919 
L 1044 3919 
L 950 2500 
Q 1431 2975 2006 2975 
Q 2713 2975 3163 2475 
Q 3531 2063 3531 1488 
z
" transform="scale(0.015625)"/>
       </defs>
       <use xlink:href="#WenQuanYiZenHei-35"/>
       <use xlink:href="#WenQuanYiZenHei-30" x="59.960938"/>
       <use xlink:href="#WenQuanYiZenHei-30" x="119.921875"/>
       <use xlink:href="#WenQuanYiZenHei-30" x="179.882812"/>
      </g>
     </g>
    </g>
    <g id="ytick_7">
     <g id="line2d_18">
      <g>
       <use xlink:href="#m5fc8499293" x="38.1875" y="112.475284" style="stroke: #000000; stroke-width: 0.8"/>
      </g>
     </g>
     <g id="text_18">
      <!-- 6000 -->
      <g transform="translate(7.2 115.903409)scale(0.1 -0.1)">
       <defs>
        <path id="WenQuanYiZenHei-36" d="M 3550 1431 
Q 3550 725 3006 288 
Q 2581 -63 1994 -63 
Q 1013 -63 563 825 
Q 288 1363 288 2081 
Q 288 3294 856 3938 
Q 1319 4456 2075 4456 
Q 2969 4456 3363 3756 
Q 3431 3631 3481 3481 
L 2988 3350 
Q 2750 3994 2075 4006 
Q 1056 4006 844 2669 
Q 794 2356 794 1981 
L 806 1981 
Q 1006 2506 1544 2744 
Q 1819 2869 2119 2869 
Q 2788 2869 3213 2375 
Q 3550 1975 3550 1431 
z
M 3038 1406 
Q 3038 1906 2656 2213 
Q 2381 2431 2038 2431 
Q 1525 2431 1181 2044 
Q 919 1744 919 1356 
Q 919 881 1344 581 
Q 1631 375 1981 375 
Q 2519 375 2838 781 
Q 3038 1050 3038 1406 
z
" transform="scale(0.015625)"/>
       </defs>
       <use xlink:href="#WenQuanYiZenHei-36"/>
       <use xlink:href="#WenQuanYiZenHei-30" x="59.960938"/>
       <use xlink:href="#WenQuanYiZenHei-30" x="119.921875"/>
       <use xlink:href="#WenQuanYiZenHei-30" x="179.882812"/>
      </g>
     </g>
    </g>
    <g id="ytick_8">
     <g id="line2d_19">
      <g>
       <use xlink:href="#m5fc8499293" x="38.1875" y="72.253997" style="stroke: #000000; stroke-width: 0.8"/>
      </g>
     </g>
     <g id="text_19">
      <!-- 7000 -->
      <g transform="translate(7.2 75.682122)scale(0.1 -0.1)">
       <use xlink:href="#WenQuanYiZenHei-37"/>
       <use xlink:href="#WenQuanYiZenHei-30" x="59.960938"/>
       <use xlink:href="#WenQuanYiZenHei-30" x="119.921875"/>
       <use xlink:href="#WenQuanYiZenHei-30" x="179.882812"/>
      </g>
     </g>
    </g>
   </g>
   <g id="line2d_20">
    <path d="M 99.060227 352.75725 
L 100.405481 352.515922 
L 101.750735 351.671275 
L 103.095988 350.665743 
L 104.441242 349.338441 
L 105.786495 347.729589 
L 107.131749 345.477197 
L 108.477003 342.661707 
L 111.16751 336.266523 
L 115.203271 324.642571 
L 117.893778 317.804952 
L 119.239032 314.788355 
L 121.929539 309.760695 
L 123.274793 308.312728 
L 124.620046 307.186532 
L 125.9653 306.462549 
L 127.310554 304.773255 
L 130.001061 303.083961 
L 131.346315 301.756659 
L 132.691568 300.87179 
L 135.382076 300.389135 
L 138.072583 300.22825 
L 139.417837 300.188028 
L 140.76309 299.946701 
L 144.798851 299.62493 
L 151.525119 299.544488 
L 158.251387 299.423824 
L 163.632402 299.383603 
L 164.977656 299.262939 
L 169.013417 299.262939 
L 170.35867 299.102054 
L 173.049178 298.941169 
L 175.739685 298.378071 
L 177.084938 297.694309 
L 178.430192 297.493202 
L 179.775446 296.970326 
L 181.120699 296.889883 
L 182.465953 296.367006 
L 183.811207 296.1659 
L 185.15646 295.56258 
L 186.501714 295.24081 
L 187.846968 294.798376 
L 190.537475 294.114614 
L 191.882729 293.712401 
L 195.918489 292.907976 
L 197.263743 292.827533 
L 199.95425 292.183992 
L 202.644758 292.023107 
L 205.335265 291.701337 
L 209.371026 291.258903 
L 210.71628 290.896911 
L 212.061533 290.816469 
L 216.097294 290.293592 
L 230.895084 289.9316 
L 260.490664 289.851158 
L 265.871679 289.770715 
L 272.597947 289.730494 
L 276.633708 289.569609 
L 290.086244 289.127175 
L 291.431498 288.443413 
L 292.776752 288.443413 
L 294.122005 288.322749 
L 296.812513 288.322749 
L 298.157766 288.202085 
L 299.50302 288.202085 
L 300.848273 288.081421 
L 307.574542 288.0412 
L 310.265049 287.960757 
L 311.610303 287.960757 
L 312.955556 287.799872 
L 322.372332 287.71943 
L 326.408093 287.558544 
L 329.0986 287.518323 
L 331.789107 287.437881 
L 334.479615 287.437881 
L 337.170122 287.156332 
L 339.860629 287.075889 
L 342.551136 286.995446 
L 343.89639 286.955225 
L 345.241644 286.754119 
L 349.277405 286.553012 
L 351.967912 286.47257 
L 354.658419 286.311685 
L 361.384687 285.949693 
L 365.420448 285.909472 
L 368.110956 285.587701 
L 369.456209 285.467038 
L 370.801463 285.467038 
L 372.146716 285.145267 
L 374.837224 285.064825 
L 376.182477 284.944161 
L 377.527731 284.622391 
L 378.872985 284.582169 
L 380.218238 284.421284 
L 386.944507 284.340842 
L 390.980267 284.059293 
L 399.051789 283.737522 
L 400.397043 283.616858 
L 401.742297 283.093982 
L 404.432804 282.892875 
L 407.123311 282.651547 
L 409.813818 282.611326 
L 412.504326 282.369998 
L 415.194833 282.289556 
L 416.540087 282.128671 
L 420.575848 281.927564 
L 423.266355 281.525351 
L 428.647369 281.123139 
L 432.68313 280.84159 
L 434.028384 280.640483 
L 435.373638 280.640483 
L 436.718891 280.318713 
L 438.064145 280.318713 
L 444.790413 279.554508 
L 451.516681 279.071853 
L 455.552442 278.629419 
L 458.24295 278.388091 
L 460.933457 278.146763 
L 467.659725 277.583665 
L 469.004979 277.221674 
L 471.695486 277.060789 
L 474.385993 276.940125 
L 481.112261 276.296584 
L 482.457515 275.974814 
L 483.802769 275.85415 
L 485.148022 275.85415 
L 493.219544 275.170388 
L 495.910051 275.130167 
L 497.255305 274.848618 
L 501.291066 274.526848 
L 509.362588 274.205077 
L 510.707842 274.044192 
L 512.053095 274.003971 
L 513.398349 273.843086 
L 520.124617 273.802864 
L 526.850885 273.279988 
L 551.065451 271.912464 
L 563.172734 271.510251 
L 564.517987 271.309145 
L 567.208494 271.067817 
L 572.589509 270.665604 
L 573.934763 270.625383 
L 575.280016 270.343834 
L 577.970524 270.22317 
L 580.661031 269.981842 
L 583.351538 269.9014 
L 586.042045 269.740515 
L 590.077806 269.418744 
L 591.42306 269.378523 
L 592.768314 269.177416 
L 595.458821 269.016531 
L 596.804075 268.734982 
L 598.149328 268.694761 
L 599.494582 268.493655 
L 600.839836 268.493655 
L 603.530343 268.332769 
L 611.601865 267.850114 
L 614.292372 267.287016 
L 616.982879 267.246795 
L 621.01864 266.965246 
L 622.363894 266.804361 
L 625.054401 266.241263 
L 626.399655 266.120599 
L 627.744908 266.120599 
L 631.780669 265.83905 
L 633.125923 265.477058 
L 635.81643 265.396616 
L 637.161684 265.316173 
L 638.506937 265.115067 
L 639.852191 265.074845 
L 641.197445 264.833518 
L 651.959474 263.908428 
L 655.995235 263.707322 
L 658.685742 263.546436 
L 669.447771 263.184445 
L 673.483532 262.782232 
L 677.519293 262.621347 
L 678.864547 262.299576 
L 689.626576 261.736478 
L 692.317083 261.656036 
L 693.662337 261.495151 
L 696.352844 261.454929 
L 707.114873 260.52984 
L 709.80538 260.489619 
L 711.150634 260.409176 
L 712.495888 260.20807 
L 720.56741 259.886299 
L 721.912663 259.805857 
L 724.603171 259.28298 
L 727.293678 258.96121 
L 729.984185 258.880767 
L 731.329439 258.679661 
L 732.674692 258.679661 
L 734.019946 258.478554 
L 736.710453 258.35789 
L 738.055707 258.03612 
L 742.091468 257.794792 
L 744.781975 257.432801 
L 750.16299 257.271916 
L 751.508243 257.030588 
L 754.198751 256.78926 
L 756.889258 256.749039 
L 758.234512 256.185941 
L 762.270272 255.984834 
L 763.615526 255.059745 
L 766.306033 254.013991 
L 767.651287 253.33023 
L 768.996541 252.887795 
L 770.341794 252.244255 
L 773.032302 251.560493 
L 774.377555 250.675625 
L 778.413316 249.509207 
L 781.103823 248.503675 
L 782.449077 248.222126 
L 783.794331 247.819913 
L 785.139584 247.216594 
L 787.830092 246.573053 
L 790.520599 245.5273 
L 793.211106 244.964202 
L 794.55636 244.843538 
L 797.246867 244.28044 
L 798.592121 244.119555 
L 799.937374 244.079334 
L 802.627882 243.757563 
L 805.318389 243.717342 
L 806.663643 243.395572 
L 812.044657 242.832474 
L 813.389911 242.631367 
L 822.806686 242.028048 
L 824.15194 241.545393 
L 825.497194 241.384507 
L 826.842447 241.344286 
L 828.187701 241.183401 
L 829.532955 240.861631 
L 830.878208 240.700746 
L 832.223462 240.700746 
L 833.568715 240.378975 
L 834.913969 239.815877 
L 837.604476 239.373443 
L 838.94973 239.051673 
L 840.294984 238.528796 
L 842.985491 238.287468 
L 844.330745 237.925477 
L 848.366506 237.72437 
L 849.711759 237.483043 
L 852.402266 237.322158 
L 853.74752 236.799281 
L 856.438027 236.557953 
L 859.128535 235.914412 
L 860.473788 235.83397 
L 861.819042 235.632863 
L 863.164296 235.270872 
L 864.509549 235.150208 
L 865.854803 234.627331 
L 867.200057 234.426225 
L 868.54531 234.064233 
L 869.890564 234.024012 
L 872.581071 233.259808 
L 875.271578 232.857595 
L 876.616832 232.656488 
L 877.962086 232.334718 
L 879.307339 232.214054 
L 881.997847 231.530292 
L 884.688354 231.288965 
L 886.033607 230.926973 
L 888.724115 230.52476 
L 890.069368 230.162769 
L 895.450383 229.358343 
L 898.14089 229.117015 
L 904.867158 228.312589 
L 906.212412 227.990819 
L 908.902919 227.70927 
L 919.664949 227.105951 
L 921.010202 226.743959 
L 922.355456 226.583074 
L 926.391217 226.381968 
L 927.73647 226.261304 
L 929.081724 226.019976 
L 935.807992 225.456878 
L 941.189007 225.376435 
L 946.570021 225.135108 
L 951.951036 225.054665 
L 955.986797 224.773116 
L 962.713065 224.491567 
L 969.439333 224.129576 
L 972.129841 224.049133 
L 974.820348 223.767584 
L 977.510855 223.606699 
L 982.89187 223.164265 
L 988.272884 222.963158 
L 990.963392 222.72183 
L 992.308645 222.681609 
L 994.999152 222.40006 
L 999.034913 222.118511 
L 1000.380167 221.917405 
L 1003.070674 221.676077 
L 1004.415928 221.434749 
L 1008.451689 221.032536 
L 1009.796942 220.670545 
L 1011.142196 220.50966 
L 1013.832703 220.348775 
L 1015.177957 220.187889 
L 1019.213718 219.986783 
L 1021.904225 219.745455 
L 1025.939986 219.705234 
L 1034.011508 218.418153 
L 1036.702015 217.69417 
L 1038.047269 217.291957 
L 1039.392523 217.09085 
L 1040.737776 216.728859 
L 1046.118791 215.964654 
L 1048.809298 215.723327 
L 1050.154552 215.321114 
L 1051.499805 215.20045 
L 1054.190313 214.355803 
L 1055.535566 214.355803 
L 1056.88082 213.591598 
L 1058.226074 213.310049 
L 1062.261835 212.183853 
L 1064.952342 211.45987 
L 1066.297595 210.735887 
L 1067.642849 209.649912 
L 1068.988103 208.925929 
L 1070.333356 208.523716 
L 1073.023864 207.39752 
L 1075.714371 205.989775 
L 1077.059625 205.627784 
L 1078.404878 205.426677 
L 1079.750132 204.863579 
L 1083.785893 204.018932 
L 1087.821654 203.777605 
L 1090.512161 203.254728 
L 1091.857415 203.174285 
L 1094.547922 202.530745 
L 1097.238429 201.565434 
L 1098.583683 201.042557 
L 1101.27419 200.318574 
L 1102.619444 199.313042 
L 1105.309951 197.865075 
L 1106.655205 197.503084 
L 1108.000458 196.899765 
L 1109.345712 195.934454 
L 1110.690966 195.130028 
L 1112.036219 194.003832 
L 1113.381473 193.279849 
L 1118.762487 189.016392 
L 1120.107741 187.407541 
L 1122.798248 185.356255 
L 1124.143502 183.546297 
L 1125.488756 181.45479 
L 1126.834009 179.041513 
L 1130.86977 168.382872 
L 1132.215024 165.366276 
L 1133.560277 160.740828 
L 1134.905531 156.960027 
L 1136.250785 151.369268 
L 1137.596038 146.341607 
L 1138.941292 142.641249 
L 1140.286546 137.814695 
L 1141.631799 134.114336 
L 1144.322307 130.253093 
L 1147.012814 125.225432 
L 1148.358068 121.364188 
L 1149.703321 116.497413 
L 1151.048575 113.762365 
L 1152.393828 110.544662 
L 1153.739082 106.361648 
L 1155.084336 102.781954 
L 1156.429589 100.16757 
L 1157.774843 97.231416 
L 1159.120097 95.421458 
L 1160.46535 93.933271 
L 1161.810604 93.008181 
L 1164.501111 91.761321 
L 1171.227379 89.468708 
L 1172.572633 88.90561 
L 1175.26314 88.503397 
L 1180.644155 86.653218 
L 1181.989409 86.612997 
L 1183.334662 86.130341 
L 1184.679916 85.76835 
L 1186.02517 85.084588 
L 1190.06093 82.34954 
L 1191.406184 80.418919 
L 1194.096691 78.407854 
L 1195.441945 77.120773 
L 1196.787199 75.994577 
L 1198.132452 75.029266 
L 1199.477706 74.425947 
L 1200.82296 74.063955 
L 1202.168213 73.822628 
L 1204.85872 73.018202 
L 1207.549228 72.575768 
L 1210.239735 72.495325 
L 1211.584989 72.093112 
L 1212.930242 70.926695 
L 1214.275496 70.082048 
L 1215.62075 68.955852 
L 1216.966003 68.59386 
L 1218.311257 68.111205 
L 1221.001764 66.864345 
L 1222.347018 66.462132 
L 1223.692271 65.577264 
L 1225.037525 64.169519 
L 1226.382779 63.485757 
L 1227.728032 63.003101 
L 1229.073286 62.801995 
L 1230.41854 62.31934 
L 1231.763793 61.997569 
L 1233.109047 61.917127 
L 1234.454301 61.635578 
L 1239.835315 61.233365 
L 1241.180569 61.07248 
L 1246.561583 60.831152 
L 1247.906837 60.670267 
L 1251.942598 60.509382 
L 1255.978359 60.066948 
L 1257.323613 60.066948 
L 1260.01412 59.745177 
L 1261.359373 59.745177 
L 1264.049881 59.423407 
L 1265.395134 59.383186 
L 1268.085642 59.101637 
L 1272.121403 58.779866 
L 1273.466656 58.458096 
L 1276.157163 58.015662 
L 1278.847671 57.492785 
L 1281.538178 57.3319 
L 1284.228685 56.768802 
L 1285.573939 56.286147 
L 1286.919193 56.044819 
L 1288.264446 55.481721 
L 1289.6097 55.079508 
L 1292.300207 54.717516 
L 1293.645461 54.435967 
L 1296.335968 54.234861 
L 1297.681222 53.832648 
L 1299.026475 53.631542 
L 1299.026475 53.631542 
" clip-path="url(#pe02c8dc457)" style="fill: none; stroke: #0000ff; stroke-width: 1.5; stroke-linecap: square"/>
   </g>
   <g id="line2d_21">
    <path d="M 1059.571327 212.515936 
L 1064.952342 211.097699 
L 1066.297595 210.112694 
L 1067.642849 208.692855 
L 1068.988103 208.137018 
L 1070.333356 208.013781 
L 1071.67861 207.481568 
L 1074.369117 206.058928 
L 1075.714371 205.285056 
L 1078.404878 205.154157 
L 1079.750132 204.381427 
L 1081.095385 204.244599 
L 1082.440639 203.934127 
L 1083.785893 203.75398 
L 1086.4764 203.832525 
L 1087.821654 203.67224 
L 1089.166907 203.263586 
L 1090.512161 203.015868 
L 1091.857415 203.049712 
L 1094.547922 202.203343 
L 1099.928936 200.20695 
L 1101.27419 199.965708 
L 1102.619444 198.489323 
L 1105.309951 197.133353 
L 1106.655205 197.038096 
L 1108.000458 196.33498 
L 1109.345712 195.080717 
L 1110.690966 194.311866 
L 1112.036219 192.963445 
L 1113.381473 192.467725 
L 1116.07198 189.904699 
L 1118.762487 188.001763 
L 1120.107741 185.964222 
L 1121.452995 185.205284 
L 1122.798248 184.308667 
L 1125.488756 179.500875 
L 1126.834009 176.756201 
L 1128.179263 172.2427 
L 1129.524517 168.818304 
L 1130.86977 164.763591 
L 1132.215024 162.181789 
L 1133.560277 156.516788 
L 1134.905531 153.055753 
L 1136.250785 146.248313 
L 1137.596038 141.287958 
L 1138.941292 138.563904 
L 1140.286546 133.196847 
L 1141.631799 130.158393 
L 1142.977053 129.827375 
L 1144.322307 128.123436 
L 1147.012814 122.730947 
L 1148.358068 117.883683 
L 1149.703321 112.01681 
L 1151.048575 110.541059 
L 1152.393828 107.325955 
L 1153.739082 102.447262 
L 1155.084336 99.109024 
L 1156.429589 97.258308 
L 1157.774843 94.302754 
L 1160.46535 92.268635 
L 1165.846365 90.817974 
L 1168.536872 90.104589 
L 1169.882126 89.638664 
L 1171.227379 88.912733 
L 1172.572633 88.344496 
L 1175.26314 88.295287 
L 1177.953648 87.007498 
L 1179.298901 86.73812 
L 1180.644155 86.194214 
L 1181.989409 86.456115 
L 1183.334662 85.738437 
L 1184.679916 85.398025 
L 1186.02517 84.48814 
L 1187.370423 83.395197 
L 1188.715677 82.590841 
L 1190.06093 81.371006 
L 1191.406184 78.75352 
L 1192.751438 78.293273 
L 1194.096691 77.330182 
L 1195.441945 75.892027 
L 1196.787199 74.839814 
L 1198.132452 74.01118 
L 1199.477706 73.707086 
L 1202.168213 73.519993 
L 1203.513467 72.976703 
L 1204.85872 72.64465 
L 1206.203974 72.567951 
L 1207.549228 72.332262 
L 1210.239735 72.439329 
L 1211.584989 71.787345 
L 1212.930242 70.000029 
L 1214.275496 69.214553 
L 1215.62075 67.901722 
L 1216.966003 68.03906 
L 1218.311257 67.608452 
L 1219.656511 66.863343 
L 1221.001764 66.260747 
L 1222.347018 66.003819 
L 1223.692271 64.811221 
L 1225.037525 62.940533 
L 1227.728032 62.422114 
L 1229.073286 62.495065 
L 1230.41854 61.885636 
L 1231.763793 61.644618 
L 1233.109047 61.760771 
L 1234.454301 61.388904 
L 1237.144808 61.38135 
L 1241.180569 60.92339 
L 1243.871076 60.943368 
L 1250.597344 60.472793 
L 1251.942598 60.458968 
L 1254.633105 59.966061 
L 1257.323613 60.03671 
L 1260.01412 59.594431 
L 1261.359373 59.703184 
L 1262.704627 59.387288 
L 1264.049881 59.292682 
L 1265.395134 59.317753 
L 1266.740388 59.088005 
L 1272.121403 58.661372 
L 1273.466656 58.192952 
L 1276.157163 57.780569 
L 1278.847671 57.243858 
L 1280.192924 57.354204 
L 1281.538178 57.217449 
L 1284.228685 56.479286 
L 1285.573939 55.857294 
L 1286.919193 55.751252 
L 1288.264446 54.993706 
L 1289.6097 54.653393 
L 1290.954954 54.683853 
L 1292.300207 54.507032 
L 1293.645461 54.174215 
L 1296.335968 54.132265 
L 1297.681222 53.5139 
L 1299.026475 53.397664 
L 1299.026475 53.397664 
" clip-path="url(#pe02c8dc457)" style="fill: none; stroke: #ffa500; stroke-width: 1.5; stroke-linecap: square"/>
   </g>
   <g id="line2d_22">
    <path d="M 1299.026475 53.397664 
L 1300.371729 53.163786 
L 1301.716983 52.929908 
L 1303.062236 52.69603 
L 1304.40749 52.462152 
L 1305.752744 52.228274 
L 1307.097997 51.994396 
L 1308.443251 51.760518 
L 1309.788505 51.52664 
L 1311.133758 51.292762 
L 1312.479012 51.058884 
L 1313.824265 50.825006 
L 1315.169519 50.591128 
L 1316.514773 50.35725 
" clip-path="url(#pe02c8dc457)" style="fill: none; stroke: #ff0000; stroke-width: 1.5; stroke-linecap: square"/>
   </g>
   <g id="patch_3">
    <path d="M 38.1875 367.87725 
L 38.1875 35.23725 
" style="fill: none; stroke: #000000; stroke-width: 0.8; stroke-linejoin: miter; stroke-linecap: square"/>
   </g>
   <g id="patch_4">
    <path d="M 1377.3875 367.87725 
L 1377.3875 35.23725 
" style="fill: none; stroke: #000000; stroke-width: 0.8; stroke-linejoin: miter; stroke-linecap: square"/>
   </g>
   <g id="patch_5">
    <path d="M 38.1875 367.87725 
L 1377.3875 367.87725 
" style="fill: none; stroke: #000000; stroke-width: 0.8; stroke-linejoin: miter; stroke-linecap: square"/>
   </g>
   <g id="patch_6">
    <path d="M 38.1875 35.23725 
L 1377.3875 35.23725 
" style="fill: none; stroke: #000000; stroke-width: 0.8; stroke-linejoin: miter; stroke-linecap: square"/>
   </g>
   <g id="text_20">
    <!-- 累计确诊预测 - 广东 -->
    <g transform="translate(654.390313 17.218125)scale(0.12 -0.12)">
     <defs>
      <path id="WenQuanYiZenHei-7d2f" d="M 5963 -681 
Q 5363 -81 4706 456 
L 5000 819 
Q 5675 269 6294 -350 
L 5963 -681 
z
M 1944 738 
Q 2094 556 2281 413 
Q 1575 -356 375 -706 
Q 350 -481 200 -319 
Q 725 -181 1122 69 
Q 1519 319 1944 738 
z
M 3244 -169 
L 3244 1063 
L 869 881 
L 850 1181 
Q 1431 1325 2969 1988 
L 1119 1931 
L 1113 2231 
Q 1350 2263 1862 2497 
Q 2375 2731 2800 2988 
L 1094 2988 
Q 1169 4006 1094 5019 
L 5506 5019 
Q 5425 4006 5500 2988 
L 3431 2988 
Q 3475 2931 3525 2875 
Q 2856 2494 2281 2256 
L 3388 2269 
L 3650 2288 
Q 4338 2606 4650 2800 
Q 4744 2563 4881 2344 
Q 4644 2225 3975 1956 
L 2269 1281 
L 4444 1425 
L 4813 1469 
L 4681 1588 
L 4988 1938 
Q 5481 1500 5863 963 
L 5481 694 
Q 5300 950 5081 1188 
L 4463 1163 
L 3669 1100 
L 3669 -250 
Q 3669 -444 3488 -594 
Q 3225 -819 2569 -813 
Q 2638 -513 2431 -294 
Q 2619 -319 2900 -322 
Q 3181 -325 3212 -294 
Q 3244 -263 3244 -169 
z
M 3513 4131 
L 5081 4131 
L 5081 4725 
L 3513 4725 
L 3513 4131 
z
M 3088 4131 
L 3088 4725 
L 1519 4725 
L 1519 4131 
L 3088 4131 
z
M 3513 3856 
L 3513 3288 
L 5081 3288 
L 5081 3856 
L 3513 3856 
z
M 3088 3856 
L 1519 3856 
L 1519 3288 
L 3088 3288 
L 3088 3856 
z
" transform="scale(0.015625)"/>
      <path id="WenQuanYiZenHei-8ba1" d="M 4569 -769 
Q 4313 -738 4056 -769 
Q 4081 -294 4081 175 
L 4081 2806 
L 3213 2806 
Q 2813 2806 2413 2788 
Q 2438 3000 2413 3219 
Q 2813 3200 3213 3200 
L 4081 3200 
L 4081 4313 
Q 4081 4788 4056 5263 
Q 4313 5231 4569 5263 
Q 4550 4788 4550 4313 
L 4550 3200 
L 5381 3200 
Q 5781 3200 6181 3219 
Q 6163 3000 6181 2788 
Q 5781 2806 5381 2806 
L 4550 2806 
L 4550 175 
Q 4550 -294 4569 -769 
z
M 38 2725 
Q 63 2931 38 3138 
Q 419 3119 800 3119 
L 1481 3119 
L 1481 425 
L 2044 1150 
L 2250 1488 
L 2525 1188 
L 2313 950 
L 1294 -488 
L 963 -231 
Q 1025 -94 1025 63 
L 1025 2744 
L 800 2744 
Q 419 2744 38 2725 
z
M 1450 3913 
Q 1094 4438 600 4831 
L 913 5225 
Q 1488 4769 1869 4194 
L 1450 3913 
z
" transform="scale(0.015625)"/>
      <path id="WenQuanYiZenHei-786e" d="M 4794 -769 
Q 4563 -744 4331 -769 
Q 4350 -344 4350 81 
L 4350 1081 
L 3419 1081 
L 3419 788 
Q 3419 225 3150 -194 
Q 2881 -613 2456 -806 
Q 2375 -569 2150 -444 
Q 2531 -344 2765 -15 
Q 3000 313 3000 788 
L 2994 2919 
L 2888 2813 
Q 2769 3000 2563 3081 
Q 3044 3494 3309 3969 
Q 3575 4444 3763 5119 
Q 3981 5044 4213 5013 
Q 4144 4700 4025 4400 
L 5238 4400 
L 5306 4050 
Q 5213 4031 5163 3947 
Q 5113 3863 4813 3325 
L 5994 3325 
L 5994 -150 
Q 5981 -519 5738 -656 
Q 5469 -806 5069 -806 
Q 5125 -525 4956 -294 
Q 5100 -313 5290 -316 
Q 5481 -319 5525 -278 
Q 5569 -238 5569 25 
L 5569 1081 
L 4769 1081 
L 4769 81 
Q 4769 -344 4794 -769 
z
M 4769 1344 
L 5569 1344 
L 5569 2100 
L 4769 2100 
L 4769 1344 
z
M 4350 1344 
L 4350 2100 
L 3413 2100 
L 3419 1344 
L 4350 1344 
z
M 4769 2363 
L 5569 2363 
L 5569 3038 
L 4769 3038 
L 4769 2363 
z
M 4350 2363 
L 4350 3038 
L 3413 3038 
L 3413 2363 
L 4350 2363 
z
M 3375 3325 
L 4350 3325 
L 4344 3331 
L 4775 4113 
L 3894 4113 
Q 3688 3700 3375 3325 
z
M 481 1069 
Q 281 1194 -25 1188 
Q 775 2750 1244 4294 
L 869 4294 
Q 563 4294 250 4275 
Q 269 4438 250 4594 
Q 563 4581 869 4581 
L 2156 4581 
Q 2463 4581 2775 4594 
Q 2756 4438 2775 4275 
Q 2463 4294 2156 4294 
L 1744 4294 
L 1181 2763 
L 2494 2763 
L 2494 -338 
L 2050 -338 
L 2050 156 
L 1406 156 
Q 1406 -94 1419 -350 
Q 1181 -325 938 -350 
Q 956 75 956 500 
L 956 2181 
L 769 1713 
Q 631 1388 481 1069 
z
M 2050 2475 
L 1400 2475 
L 1400 425 
L 2050 425 
L 2050 2475 
z
" transform="scale(0.015625)"/>
      <path id="WenQuanYiZenHei-8bca" d="M 5369 1456 
Q 5556 1256 5775 1100 
Q 5038 344 4081 -225 
Q 3106 -819 1788 -1006 
Q 1788 -725 1631 -500 
Q 3363 -306 4406 519 
Q 4919 956 5369 1456 
z
M 4594 2219 
Q 4781 2031 5013 1881 
Q 3625 394 2150 -25 
Q 2113 250 1913 444 
Q 2475 594 3015 850 
Q 3556 1106 3919 1463 
Q 4275 1819 4594 2219 
z
M 3969 3188 
Q 4150 3013 4356 2881 
Q 3625 1913 2306 1275 
Q 2244 1500 2056 1644 
Q 2619 1900 3053 2256 
Q 3488 2613 3969 3188 
z
M 5813 2194 
Q 4525 2913 3731 4188 
Q 2919 2844 1813 2163 
Q 1700 2413 1456 2550 
Q 1950 2844 2400 3231 
Q 2850 3619 3113 4063 
Q 3413 4581 3644 5163 
Q 3881 5038 4144 4963 
Q 4056 4775 3963 4594 
Q 4325 3919 4844 3441 
Q 5363 2963 6175 2538 
Q 5931 2431 5813 2194 
z
M 31 2613 
Q 50 2775 31 2938 
Q 325 2925 619 2925 
L 1275 2925 
L 1275 506 
L 1675 1006 
L 1831 1250 
L 2038 1013 
L 1881 838 
L 1100 -256 
L 825 -25 
Q 869 81 869 200 
L 869 2625 
L 31 2613 
z
M 950 3713 
Q 606 4325 200 4881 
L 556 5163 
Q 981 4588 1338 3944 
L 950 3713 
z
" transform="scale(0.015625)"/>
      <path id="WenQuanYiZenHei-9884" d="M 1206 19 
L 1206 2888 
L 669 2888 
Q 356 2888 50 2869 
Q 63 3044 50 3213 
Q 363 3194 669 3194 
L 1250 3194 
Q 950 3631 606 4031 
L 963 4338 
L 1263 3975 
L 1913 4719 
L 731 4719 
Q 419 4719 106 4706 
Q 125 4875 106 5044 
Q 419 5031 731 5031 
L 2481 5031 
L 2544 4663 
Q 2394 4613 2256 4466 
Q 2119 4319 1525 3631 
Q 1656 3444 1788 3250 
L 1700 3194 
L 2700 3194 
L 2763 2825 
Q 2656 2819 2613 2763 
L 2100 2038 
L 1750 2288 
L 2175 2888 
L 1638 2888 
L 1638 -150 
Q 1638 -525 1363 -669 
Q 1075 -819 525 -813 
Q 594 -513 388 -294 
Q 575 -313 837 -316 
Q 1100 -319 1153 -272 
Q 1206 -225 1206 19 
z
M 5813 -888 
Q 5100 -225 4306 375 
L 4669 719 
Q 5481 106 6219 -575 
L 5813 -888 
z
M 2375 -906 
Q 2294 -631 2025 -506 
Q 2769 -431 3353 19 
Q 3938 469 3938 1069 
L 3938 2200 
Q 3938 2625 3913 3050 
Q 4188 3025 4456 3050 
Q 4431 2625 4431 2200 
L 4431 1069 
Q 4431 681 4225 319 
Q 3644 -606 2375 -906 
z
M 3444 488 
Q 3169 513 2894 488 
Q 2919 913 2919 1338 
L 2919 3675 
Q 3219 3675 3525 3675 
Q 3750 4013 3931 4525 
L 3238 4525 
Q 2888 4525 2538 4513 
Q 2556 4669 2538 4831 
Q 2888 4813 3238 4813 
L 5313 4813 
Q 5663 4813 6006 4831 
Q 5988 4669 6006 4513 
Q 5663 4525 5313 4525 
L 4481 4525 
Q 4388 4088 4088 3675 
L 5644 3675 
L 5644 513 
L 5144 513 
L 5144 3388 
L 3894 3388 
L 3875 3363 
Q 3863 3375 3844 3388 
Q 3631 3388 3413 3388 
L 3419 1338 
Q 3419 913 3444 488 
z
" transform="scale(0.015625)"/>
      <path id="WenQuanYiZenHei-6d4b" d="M 5450 138 
L 5450 4306 
Q 5450 4750 5425 5188 
Q 5663 5163 5906 5188 
Q 5881 4750 5881 4306 
L 5881 -38 
Q 5888 -569 5519 -719 
Q 5194 -831 4825 -813 
Q 4894 -519 4694 -281 
Q 4869 -306 5094 -309 
Q 5319 -313 5384 -256 
Q 5450 -200 5450 138 
z
M 4900 938 
Q 4663 963 4419 938 
Q 4444 1375 4444 1819 
L 4444 3381 
Q 4444 3819 4419 4263 
Q 4663 4238 4900 4263 
Q 4875 3819 4875 3381 
L 4875 1819 
Q 4875 1375 4900 938 
z
M 2750 2025 
L 2750 3038 
Q 2750 3481 2725 3919 
Q 2963 3894 3206 3919 
Q 3181 3481 3181 3038 
L 3181 2025 
Q 3181 1263 2919 625 
L 3231 956 
Q 3781 431 4256 -150 
L 3888 -456 
Q 3431 106 2906 600 
Q 2531 -288 1738 -769 
Q 1606 -519 1338 -450 
Q 1988 -156 2369 478 
Q 2750 1113 2750 2025 
z
M 2363 969 
Q 2119 994 1881 969 
Q 1906 1406 1906 1850 
L 1906 5038 
L 3956 5031 
L 3956 1200 
L 3525 1200 
L 3525 4713 
L 2338 4713 
L 2338 1850 
Q 2338 1406 2363 969 
z
M 663 -738 
Q 481 -588 206 -575 
Q 400 -69 606 581 
Q 813 1231 1200 2838 
L 1381 2706 
L 875 338 
L 663 -738 
z
M 1006 2856 
L 731 2550 
L 75 3400 
L 350 3713 
L 1006 2856 
z
M 1088 3913 
Q 781 4388 425 4800 
L 694 5125 
Q 1069 4688 1388 4188 
L 1088 3913 
z
" transform="scale(0.015625)"/>
      <path id="WenQuanYiZenHei-20" transform="scale(0.015625)"/>
      <path id="WenQuanYiZenHei-5e7f" d="M 944 4338 
L 3169 4344 
Q 2950 4731 2681 5094 
L 3100 5400 
Q 3475 4894 3763 4344 
L 5294 4344 
Q 5719 4344 6138 4363 
Q 6113 4131 6138 3906 
Q 5719 3925 5294 3925 
L 1419 3925 
L 1425 1419 
Q 1431 0 619 -756 
Q 450 -525 169 -469 
Q 975 75 950 1419 
L 944 4338 
z
" transform="scale(0.015625)"/>
      <path id="WenQuanYiZenHei-4e1c" d="M 6131 -19 
L 5750 -350 
L 4888 625 
L 3988 1563 
L 4344 1919 
L 5256 969 
L 6131 -19 
z
M 2144 1825 
Q 2344 1669 2569 1556 
Q 1850 350 438 -563 
Q 338 -338 131 -219 
Q 738 156 1194 622 
Q 1650 1088 2144 1825 
z
M 3244 2050 
L 1150 2050 
L 2163 3881 
L 1219 3881 
Q 838 3881 456 3863 
Q 481 4069 456 4275 
Q 838 4256 1219 4256 
L 2369 4256 
L 2538 4556 
Q 2763 4963 2969 5381 
Q 3175 5238 3406 5138 
Q 3163 4744 2938 4331 
L 2894 4256 
L 5375 4256 
Q 5756 4256 6138 4275 
Q 6113 4069 6138 3863 
Q 5756 3881 5375 3881 
L 2688 3881 
L 1881 2425 
L 3244 2425 
Q 3244 2881 3225 3338 
Q 3475 3313 3725 3338 
Q 3706 2881 3706 2425 
L 5650 2425 
L 5650 2050 
L 3706 2050 
L 3706 -119 
Q 3706 -506 3419 -663 
Q 3113 -831 2575 -825 
Q 2644 -513 2431 -269 
Q 2619 -294 2875 -297 
Q 3131 -300 3188 -250 
Q 3244 -194 3244 63 
L 3244 2050 
z
" transform="scale(0.015625)"/>
     </defs>
     <use xlink:href="#WenQuanYiZenHei-7d2f"/>
     <use xlink:href="#WenQuanYiZenHei-8ba1" x="100"/>
     <use xlink:href="#WenQuanYiZenHei-786e" x="200"/>
     <use xlink:href="#WenQuanYiZenHei-8bca" x="300"/>
     <use xlink:href="#WenQuanYiZenHei-9884" x="400"/>
     <use xlink:href="#WenQuanYiZenHei-6d4b" x="500"/>
     <use xlink:href="#WenQuanYiZenHei-20" x="600"/>
     <use xlink:href="#WenQuanYiZenHei-2d" x="629.980469"/>
     <use xlink:href="#WenQuanYiZenHei-20" x="659.960938"/>
     <use xlink:href="#WenQuanYiZenHei-5e7f" x="689.941406"/>
     <use xlink:href="#WenQuanYiZenHei-4e1c" x="789.941406"/>
    </g>
    <!-- ARIMA (0, 2, 1)x(0, 0, 0, 7) (R2 = 0.999415) -->
    <g transform="translate(589.179688 29.23725)scale(0.12 -0.12)">
     <defs>
      <path id="WenQuanYiZenHei-41" d="M 3550 0 
L 2988 0 
L 2550 1281 
L 919 1281 
L 531 0 
L 69 0 
L 1494 4388 
L 2125 4388 
L 3550 0 
z
M 2425 1694 
L 1756 3800 
L 1075 1694 
L 2425 1694 
z
" transform="scale(0.015625)"/>
      <path id="WenQuanYiZenHei-52" d="M 3675 0 
L 3100 0 
L 2288 1900 
L 1069 1900 
L 1069 0 
L 519 0 
L 519 4388 
L 2163 4388 
Q 3006 4388 3400 3900 
Q 3581 3663 3625 3325 
Q 3631 3250 3631 3163 
Q 3631 2594 3219 2244 
Q 3038 2100 2813 2038 
L 3675 0 
z
M 3081 3169 
Q 3081 3825 2356 3906 
Q 2263 3919 2163 3919 
L 1069 3919 
L 1069 2350 
L 2100 2350 
Q 2906 2350 3044 2919 
Q 3081 3031 3081 3169 
z
" transform="scale(0.015625)"/>
      <path id="WenQuanYiZenHei-49" d="M 1100 0 
L 550 0 
L 550 4388 
L 1100 4388 
L 1100 0 
z
" transform="scale(0.015625)"/>
      <path id="WenQuanYiZenHei-4d" d="M 4756 0 
L 4206 0 
L 4206 3831 
L 4181 3831 
L 2788 0 
L 2419 0 
L 1000 3831 
L 975 3831 
L 975 0 
L 513 0 
L 513 4388 
L 1331 4388 
L 2656 875 
L 3950 4388 
L 4756 4388 
L 4756 0 
z
" transform="scale(0.015625)"/>
      <path id="WenQuanYiZenHei-28" d="M 1606 -1094 
L 1275 -1094 
Q 475 -100 338 1231 
Q 319 1438 319 1656 
Q 319 3031 1156 4244 
Q 1213 4313 1269 4388 
L 1600 4388 
Q 806 3169 794 1681 
Q 794 188 1606 -1094 
z
" transform="scale(0.015625)"/>
      <path id="WenQuanYiZenHei-2c" d="M 1363 75 
L 881 -825 
L 606 -825 
L 994 0 
L 656 0 
L 656 738 
L 1363 738 
L 1363 75 
z
" transform="scale(0.015625)"/>
      <path id="WenQuanYiZenHei-29" d="M 1600 1656 
Q 1600 306 869 -788 
Q 769 -950 644 -1094 
L 313 -1094 
Q 1125 188 1125 1681 
Q 1125 3169 338 4363 
Q 325 4375 319 4388 
L 650 4388 
Q 1525 3231 1594 1863 
Q 1600 1763 1600 1656 
z
" transform="scale(0.015625)"/>
      <path id="WenQuanYiZenHei-78" d="M 2806 0 
L 2213 0 
L 1394 1319 
L 544 0 
L 50 0 
L 1144 1681 
L 163 3250 
L 744 3250 
L 1431 2138 
L 2144 3250 
L 2631 3250 
L 1681 1794 
L 2806 0 
z
" transform="scale(0.015625)"/>
      <path id="WenQuanYiZenHei-3d" d="M 3569 2256 
L 263 2256 
L 263 2675 
L 3569 2675 
L 3569 2256 
z
M 3569 1019 
L 263 1019 
L 263 1431 
L 3569 1431 
L 3569 1019 
z
" transform="scale(0.015625)"/>
      <path id="WenQuanYiZenHei-2e" d="M 1344 0 
L 631 0 
L 631 725 
L 1344 725 
L 1344 0 
z
" transform="scale(0.015625)"/>
      <path id="WenQuanYiZenHei-39" d="M 3544 2300 
Q 3544 1163 3019 513 
Q 2563 -63 1775 -63 
Q 956 -63 563 488 
Q 463 631 394 813 
L 838 975 
Q 1025 494 1550 388 
Q 1656 369 1775 369 
Q 2594 369 2900 1325 
Q 3044 1769 3038 2313 
L 3025 2313 
Q 2675 1638 1944 1544 
Q 1844 1531 1744 1531 
Q 1050 1531 625 2031 
Q 294 2419 294 2963 
Q 294 3656 813 4094 
Q 1238 4456 1819 4456 
Q 2988 4456 3381 3363 
Q 3544 2900 3544 2300 
z
M 2925 2994 
Q 2925 3563 2469 3844 
Q 2206 4006 1863 4006 
Q 1275 4006 988 3563 
Q 844 3344 825 3056 
Q 819 3006 819 2956 
Q 819 2413 1269 2131 
Q 1538 1963 1875 1963 
Q 2363 1963 2681 2350 
Q 2925 2638 2925 2994 
z
" transform="scale(0.015625)"/>
     </defs>
     <use xlink:href="#WenQuanYiZenHei-41"/>
     <use xlink:href="#WenQuanYiZenHei-52" x="55.957031"/>
     <use xlink:href="#WenQuanYiZenHei-49" x="117.871094"/>
     <use xlink:href="#WenQuanYiZenHei-4d" x="143.847656"/>
     <use xlink:href="#WenQuanYiZenHei-41" x="225.78125"/>
     <use xlink:href="#WenQuanYiZenHei-20" x="281.738281"/>
     <use xlink:href="#WenQuanYiZenHei-28" x="311.71875"/>
     <use xlink:href="#WenQuanYiZenHei-30" x="341.699219"/>
     <use xlink:href="#WenQuanYiZenHei-2c" x="401.660156"/>
     <use xlink:href="#WenQuanYiZenHei-20" x="431.640625"/>
     <use xlink:href="#WenQuanYiZenHei-32" x="461.621094"/>
     <use xlink:href="#WenQuanYiZenHei-2c" x="521.582031"/>
     <use xlink:href="#WenQuanYiZenHei-20" x="551.5625"/>
     <use xlink:href="#WenQuanYiZenHei-31" x="581.542969"/>
     <use xlink:href="#WenQuanYiZenHei-29" x="641.503906"/>
     <use xlink:href="#WenQuanYiZenHei-78" x="671.484375"/>
     <use xlink:href="#WenQuanYiZenHei-28" x="715.429688"/>
     <use xlink:href="#WenQuanYiZenHei-30" x="745.410156"/>
     <use xlink:href="#WenQuanYiZenHei-2c" x="805.371094"/>
     <use xlink:href="#WenQuanYiZenHei-20" x="835.351562"/>
     <use xlink:href="#WenQuanYiZenHei-30" x="865.332031"/>
     <use xlink:href="#WenQuanYiZenHei-2c" x="925.292969"/>
     <use xlink:href="#WenQuanYiZenHei-20" x="955.273438"/>
     <use xlink:href="#WenQuanYiZenHei-30" x="985.253906"/>
     <use xlink:href="#WenQuanYiZenHei-2c" x="1045.214844"/>
     <use xlink:href="#WenQuanYiZenHei-20" x="1075.195312"/>
     <use xlink:href="#WenQuanYiZenHei-37" x="1105.175781"/>
     <use xlink:href="#WenQuanYiZenHei-29" x="1165.136719"/>
     <use xlink:href="#WenQuanYiZenHei-20" x="1195.117188"/>
     <use xlink:href="#WenQuanYiZenHei-28" x="1225.097656"/>
     <use xlink:href="#WenQuanYiZenHei-52" x="1255.078125"/>
     <use xlink:href="#WenQuanYiZenHei-32" x="1316.992188"/>
     <use xlink:href="#WenQuanYiZenHei-20" x="1376.953125"/>
     <use xlink:href="#WenQuanYiZenHei-3d" x="1406.933594"/>
     <use xlink:href="#WenQuanYiZenHei-20" x="1466.894531"/>
     <use xlink:href="#WenQuanYiZenHei-30" x="1496.875"/>
     <use xlink:href="#WenQuanYiZenHei-2e" x="1556.835938"/>
     <use xlink:href="#WenQuanYiZenHei-39" x="1586.816406"/>
     <use xlink:href="#WenQuanYiZenHei-39" x="1646.777344"/>
     <use xlink:href="#WenQuanYiZenHei-39" x="1706.738281"/>
     <use xlink:href="#WenQuanYiZenHei-34" x="1766.699219"/>
     <use xlink:href="#WenQuanYiZenHei-31" x="1826.660156"/>
     <use xlink:href="#WenQuanYiZenHei-35" x="1886.621094"/>
     <use xlink:href="#WenQuanYiZenHei-29" x="1946.582031"/>
    </g>
   </g>
   <g id="legend_1">
    <g id="patch_7">
     <path d="M 45.1875 87.232562 
L 107.1875 87.232562 
Q 109.1875 87.232562 109.1875 85.232562 
L 109.1875 42.23725 
Q 109.1875 40.23725 107.1875 40.23725 
L 45.1875 40.23725 
Q 43.1875 40.23725 43.1875 42.23725 
L 43.1875 85.232562 
Q 43.1875 87.232562 45.1875 87.232562 
z
" style="fill: #ffffff; opacity: 0.8; stroke: #cccccc; stroke-linejoin: miter"/>
    </g>
    <g id="line2d_23">
     <path d="M 47.1875 48.871625 
L 57.1875 48.871625 
L 67.1875 48.871625 
" style="fill: none; stroke: #0000ff; stroke-width: 1.5; stroke-linecap: square"/>
    </g>
    <g id="text_21">
     <!-- 实际值 -->
     <g transform="translate(75.1875 52.371625)scale(0.1 -0.1)">
      <defs>
       <path id="WenQuanYiZenHei-5b9e" d="M 1025 1175 
Q 694 1175 356 1163 
Q 375 1344 356 1525 
Q 694 1506 1025 1506 
L 3363 1506 
L 3363 2625 
Q 3363 3075 3338 3519 
Q 3581 3494 3825 3519 
Q 3800 3075 3800 2625 
L 3800 1506 
L 5406 1506 
Q 5744 1506 6075 1525 
Q 6056 1344 6075 1163 
Q 5744 1175 5406 1175 
L 4038 1175 
L 4981 456 
L 6131 -488 
L 5819 -856 
L 4681 75 
L 3638 875 
Q 3313 231 2475 -231 
Q 1638 -694 700 -825 
Q 638 -519 344 -400 
Q 1450 -319 2406 244 
Q 3113 656 3300 1175 
L 1025 1175 
z
M 2263 1581 
Q 1763 2081 1200 2513 
L 1494 2894 
Q 2081 2444 2600 1919 
L 2263 1581 
z
M 2638 2500 
Q 2219 2963 1731 3363 
L 2044 3738 
Q 2556 3313 3000 2819 
L 2638 2500 
z
M 919 3156 
L 481 3156 
L 481 4344 
L 3069 4344 
Q 2794 4731 2469 5081 
L 2825 5413 
Q 3256 4944 3613 4413 
L 3513 4344 
L 5869 4344 
L 5869 3156 
L 5425 3156 
L 5425 4013 
L 919 4013 
L 919 3156 
z
" transform="scale(0.015625)"/>
       <path id="WenQuanYiZenHei-9645" d="M 6000 431 
L 5569 194 
L 4963 1219 
L 4313 2219 
L 4719 2494 
L 5375 1481 
L 6000 431 
z
M 2956 2450 
Q 3181 2344 3419 2294 
Q 3006 1038 1944 -188 
Q 1794 -6 1569 56 
Q 2069 600 2372 1156 
Q 2675 1713 2956 2450 
z
M 3750 25 
L 3750 2913 
L 2819 2913 
Q 2475 2913 2125 2894 
Q 2144 3081 2125 3269 
Q 2475 3256 2819 3256 
L 5469 3256 
Q 5819 3256 6163 3269 
Q 6144 3081 6163 2894 
Q 5813 2913 5469 2913 
L 4194 2913 
L 4194 -144 
Q 4194 -725 3456 -813 
L 3263 -825 
Q 3325 -506 3125 -250 
Q 3250 -281 3394 -306 
Q 3663 -313 3706 -272 
Q 3750 -231 3750 25 
z
M 5544 4950 
Q 5525 4756 5544 4569 
Q 5194 4588 4844 4588 
L 3325 4588 
Q 2975 4588 2625 4569 
Q 2644 4756 2625 4950 
Q 2975 4931 3325 4931 
L 4844 4931 
Q 5194 4931 5544 4950 
z
M 819 -850 
Q 581 -825 344 -850 
Q 369 -419 369 19 
L 363 4938 
L 2256 4938 
L 2256 4625 
Q 2150 4513 2075 4375 
L 1481 3238 
Q 2181 2319 2181 1156 
Q 2144 400 1569 163 
L 1406 88 
Q 1288 300 1138 481 
Q 1294 538 1450 606 
Q 1763 744 1794 1156 
Q 1794 1744 1600 2300 
Q 1406 2856 1038 3313 
L 1725 4625 
L 788 4625 
L 794 19 
Q 794 -419 819 -850 
z
" transform="scale(0.015625)"/>
       <path id="WenQuanYiZenHei-503c" d="M 6175 -219 
Q 6156 -388 6175 -556 
Q 5863 -544 5550 -544 
L 2313 -544 
Q 2000 -544 1688 -556 
Q 1706 -388 1688 -219 
L 2506 -231 
L 2506 3469 
L 3644 3469 
L 3644 4119 
L 2638 4119 
Q 2325 4119 2013 4100 
Q 2031 4269 2013 4438 
Q 2325 4425 2638 4425 
L 3638 4425 
Q 3638 4719 3619 5013 
Q 3856 4988 4094 5013 
Q 4075 4719 4075 4425 
L 5344 4425 
Q 5650 4425 5963 4438 
Q 5950 4269 5963 4100 
Q 5656 4119 5344 4119 
L 4069 4119 
L 4069 3469 
L 5300 3469 
L 5300 -231 
L 5550 -231 
Q 5863 -231 6175 -219 
z
M 4869 2556 
L 4869 3156 
L 2931 3156 
Q 2931 2850 2931 2556 
L 4869 2556 
z
M 4869 1669 
L 4869 2250 
L 2931 2250 
L 2931 1669 
L 4869 1669 
z
M 4869 731 
L 4869 1363 
L 2931 1363 
L 2931 731 
L 4869 731 
z
M 4869 -231 
L 4869 425 
L 2931 425 
L 2931 -231 
L 4869 -231 
z
M 2106 4925 
Q 1856 4075 1463 3338 
L 1463 31 
Q 1463 -413 1481 -850 
Q 1256 -825 1031 -850 
Q 1050 -413 1050 31 
L 1050 2681 
Q 750 2269 375 1931 
Q 238 2156 0 2256 
Q 331 2544 619 2875 
Q 1094 3425 1300 3950 
Q 1494 4469 1625 5050 
Q 1850 4963 2106 4925 
z
" transform="scale(0.015625)"/>
      </defs>
      <use xlink:href="#WenQuanYiZenHei-5b9e"/>
      <use xlink:href="#WenQuanYiZenHei-9645" x="100"/>
      <use xlink:href="#WenQuanYiZenHei-503c" x="200"/>
     </g>
    </g>
    <g id="line2d_24">
     <path d="M 47.1875 63.54975 
L 57.1875 63.54975 
L 67.1875 63.54975 
" style="fill: none; stroke: #ffa500; stroke-width: 1.5; stroke-linecap: square"/>
    </g>
    <g id="text_22">
     <!-- 校验值 -->
     <g transform="translate(75.1875 67.04975)scale(0.1 -0.1)">
      <defs>
       <path id="WenQuanYiZenHei-6821" d="M 5256 2463 
Q 5025 1475 4494 706 
Q 5125 -94 6175 -544 
Q 5950 -663 5850 -900 
Q 4906 -494 4250 381 
Q 3931 0 3475 -350 
Q 3019 -700 2388 -919 
Q 2338 -656 2138 -475 
Q 3306 -69 4006 738 
Q 3563 1444 3300 2331 
Q 3050 2050 2706 1800 
Q 2606 2000 2406 2106 
Q 2900 2444 3181 2938 
Q 3350 3225 3488 3538 
Q 3700 3431 3925 3369 
Q 3763 2894 3425 2475 
L 3650 2531 
Q 3888 1675 4244 1075 
Q 4469 1444 4603 1937 
Q 4738 2431 4775 2688 
Q 4963 2644 5150 2625 
Q 4919 2969 4663 3294 
L 5038 3588 
Q 5544 2925 5975 2213 
L 5569 1969 
L 5256 2463 
z
M 6006 4050 
Q 5988 3881 6006 3713 
Q 5694 3725 5381 3725 
L 3413 3725 
Q 3100 3725 2788 3713 
Q 2806 3881 2788 4050 
Q 3100 4031 3413 4031 
L 4325 4031 
Q 4019 4525 3644 4969 
L 4000 5275 
Q 4413 4788 4750 4244 
L 4406 4031 
L 5381 4031 
Q 5694 4031 6006 4050 
z
M 406 263 
Q 238 431 -25 469 
Q 194 825 466 1337 
Q 738 1850 925 2406 
Q 1113 2963 1256 3519 
L 825 3519 
Q 506 3519 188 3500 
Q 206 3700 188 3900 
Q 506 3881 825 3881 
L 1363 3881 
L 1363 4263 
Q 1363 4719 1338 5175 
Q 1556 5150 1775 5175 
Q 1756 4719 1756 4263 
L 1756 3881 
L 2525 3900 
Q 2506 3700 2525 3500 
L 1756 3519 
L 1756 2738 
L 1931 2881 
Q 2306 2300 2613 1650 
L 2231 1413 
Q 2081 1725 1919 2019 
L 1756 2300 
L 1756 69 
Q 1756 -388 1775 -850 
Q 1556 -825 1338 -850 
Q 1363 -388 1363 69 
L 1363 2438 
Q 925 1144 406 263 
z
" transform="scale(0.015625)"/>
       <path id="WenQuanYiZenHei-9a8c" d="M 5981 -106 
Q 5963 -275 5981 -444 
Q 5669 -431 5356 -431 
L 2969 -431 
Q 2656 -431 2350 -444 
Q 2363 -275 2350 -106 
Q 2656 -125 2969 -125 
L 4369 -125 
Q 4600 431 4881 1288 
L 5206 2300 
Q 5425 2206 5663 2163 
Q 5375 1188 4831 -125 
L 5356 -125 
Q 5669 -125 5981 -106 
z
M 4063 594 
Q 3788 1425 3425 2219 
L 3856 2419 
Q 4225 1600 4513 744 
L 4063 594 
z
M 3163 363 
Q 2931 1200 2613 2006 
L 3056 2175 
Q 3381 1350 3619 488 
L 3163 363 
z
M 4581 2550 
L 3513 2550 
Q 3200 2550 2888 2538 
Q 2900 2663 2894 2769 
Q 2569 2488 2206 2300 
Q 2113 2550 1894 2700 
Q 2488 2975 2975 3463 
Q 3269 3756 3394 4006 
Q 3644 4513 3794 5063 
Q 4038 4975 4294 4931 
Q 4250 4806 4206 4681 
Q 4475 3888 5025 3388 
Q 5519 2938 6169 2650 
Q 5938 2538 5838 2300 
Q 5513 2456 5200 2700 
Q 5200 2619 5206 2538 
Q 4894 2550 4581 2550 
z
M 3513 2863 
L 4994 2869 
Q 4344 3438 3988 4194 
Q 3594 3406 3013 2869 
Q 3263 2863 3513 2863 
z
M 206 444 
Q 188 756 44 963 
Q 319 956 650 1003 
Q 981 1050 1731 1281 
L 1738 1006 
Q 800 719 206 444 
z
M 525 4000 
Q 744 3950 994 3944 
Q 925 3519 875 3081 
L 763 2144 
L 1475 2144 
L 1831 4444 
L 663 4444 
Q 350 4444 38 4431 
Q 56 4600 38 4769 
Q 350 4756 663 4756 
L 2313 4756 
L 1913 2144 
L 2375 2144 
L 2200 -200 
Q 2188 -425 1988 -588 
Q 1694 -800 1181 -788 
L 944 -788 
Q 1000 -450 788 -269 
Q 1013 -294 1334 -287 
Q 1656 -281 1715 -243 
Q 1775 -206 1781 -50 
L 1925 1831 
L 294 1831 
L 444 3131 
Q 500 3569 525 4000 
z
" transform="scale(0.015625)"/>
      </defs>
      <use xlink:href="#WenQuanYiZenHei-6821"/>
      <use xlink:href="#WenQuanYiZenHei-9a8c" x="100"/>
      <use xlink:href="#WenQuanYiZenHei-503c" x="200"/>
     </g>
    </g>
    <g id="line2d_25">
     <path d="M 47.1875 78.071625 
L 57.1875 78.071625 
L 67.1875 78.071625 
" style="fill: none; stroke: #ff0000; stroke-width: 1.5; stroke-linecap: square"/>
    </g>
    <g id="text_23">
     <!-- 预测值 -->
     <g transform="translate(75.1875 81.571625)scale(0.1 -0.1)">
      <use xlink:href="#WenQuanYiZenHei-9884"/>
      <use xlink:href="#WenQuanYiZenHei-6d4b" x="100"/>
      <use xlink:href="#WenQuanYiZenHei-503c" x="200"/>
     </g>
    </g>
   </g>
  </g>
 </g>
 <defs>
  <clipPath id="pe02c8dc457">
   <rect x="38.1875" y="35.23725" width="1339.2" height="332.64"/>
  </clipPath>
 </defs>
</svg>
