<?xml version="1.0" encoding="utf-8" standalone="no"?>
<!DOCTYPE svg PUBLIC "-//W3C//DTD SVG 1.1//EN"
  "http://www.w3.org/Graphics/SVG/1.1/DTD/svg11.dtd">
<svg xmlns:xlink="http://www.w3.org/1999/xlink" width="1378.590625pt" height="390.418188pt" viewBox="0 0 1378.590625 390.418188" xmlns="http://www.w3.org/2000/svg" version="1.1">
 <metadata>
  <rdf:RDF xmlns:dc="http://purl.org/dc/elements/1.1/" xmlns:cc="http://creativecommons.org/ns#" xmlns:rdf="http://www.w3.org/1999/02/22-rdf-syntax-ns#">
   <cc:Work>
    <dc:type rdf:resource="http://purl.org/dc/dcmitype/StillImage"/>
    <dc:date>2022-06-25T18:14:52.429119</dc:date>
    <dc:format>image/svg+xml</dc:format>
    <dc:creator>
     <cc:Agent>
      <dc:title>Matplotlib v3.5.2, https://matplotlib.org/</dc:title>
     </cc:Agent>
    </dc:creator>
   </cc:Work>
  </rdf:RDF>
 </metadata>
 <defs>
  <style type="text/css">*{stroke-linejoin: round; stroke-linecap: butt}</style>
 </defs>
 <g id="figure_1">
  <g id="patch_1">
   <path d="M 0 390.418188 
L 1378.590625 390.418188 
L 1378.590625 -0 
L 0 -0 
z
" style="fill: #ffffff"/>
  </g>
  <g id="axes_1">
   <g id="patch_2">
    <path d="M 32.190625 367.701 
L 1371.390625 367.701 
L 1371.390625 35.061 
L 32.190625 35.061 
z
" style="fill: #ffffff"/>
   </g>
   <g id="matplotlib.axis_1">
    <g id="xtick_1">
     <g id="line2d_1">
      <defs>
       <path id="meddb00f26b" d="M 0 0 
L 0 3.5 
" style="stroke: #000000; stroke-width: 0.8"/>
      </defs>
      <g>
       <use xlink:href="#meddb00f26b" x="63.170495" y="367.701" style="stroke: #000000; stroke-width: 0.8"/>
      </g>
     </g>
     <g id="text_1">
      <!-- 2020-01 -->
      <g transform="translate(43.680651 381.55725)scale(0.1 -0.1)">
       <defs>
        <path id="WenQuanYiZenHei-32" d="M 3488 0 
L 369 0 
L 369 456 
L 2150 1850 
Q 2931 2463 2931 3144 
Q 2931 3619 2488 3863 
Q 2231 4013 1931 4013 
Q 1425 4013 1113 3619 
Q 894 3356 881 3013 
L 369 3169 
Q 531 3981 1213 4300 
Q 1544 4456 1950 4456 
Q 2631 4456 3088 4044 
L 3225 3888 
L 3350 3706 
Q 3481 3444 3481 3144 
Q 3481 2313 2519 1569 
L 1069 456 
L 3488 456 
L 3488 0 
z
" transform="scale(0.015625)"/>
        <path id="WenQuanYiZenHei-30" d="M 3581 2175 
Q 3581 1288 3169 638 
Q 2713 -63 1938 -63 
Q 1025 -63 563 831 
Q 256 1425 256 2188 
Q 256 3188 700 3819 
Q 1138 4456 1888 4456 
Q 2863 4456 3306 3500 
Q 3581 2925 3581 2175 
z
M 3019 2100 
Q 3019 3356 2500 3806 
L 2350 3919 
Q 2144 4031 1888 4031 
Q 1100 4031 888 2956 
Q 819 2625 819 2225 
Q 819 1013 1338 569 
Q 1588 356 1938 356 
Q 2675 356 2925 1294 
Q 3019 1663 3019 2100 
z
" transform="scale(0.015625)"/>
        <path id="WenQuanYiZenHei-2d" d="M 1363 1444 
L 0 1444 
L 0 1844 
L 1363 1844 
L 1363 1444 
z
" transform="scale(0.015625)"/>
        <path id="WenQuanYiZenHei-31" d="M 3556 0 
L 488 0 
L 488 406 
L 1800 406 
L 1800 3725 
Q 1231 3125 588 2788 
L 588 3338 
Q 1456 3781 1931 4388 
L 2331 4388 
L 2331 406 
L 3556 406 
L 3556 0 
z
" transform="scale(0.015625)"/>
       </defs>
       <use xlink:href="#WenQuanYiZenHei-32"/>
       <use xlink:href="#WenQuanYiZenHei-30" x="59.960938"/>
       <use xlink:href="#WenQuanYiZenHei-32" x="119.921875"/>
       <use xlink:href="#WenQuanYiZenHei-30" x="179.882812"/>
       <use xlink:href="#WenQuanYiZenHei-2d" x="239.84375"/>
       <use xlink:href="#WenQuanYiZenHei-30" x="269.824219"/>
       <use xlink:href="#WenQuanYiZenHei-31" x="329.785156"/>
      </g>
     </g>
    </g>
    <g id="xtick_2">
     <g id="line2d_2">
      <g>
       <use xlink:href="#meddb00f26b" x="186.818222" y="367.701" style="stroke: #000000; stroke-width: 0.8"/>
      </g>
     </g>
     <g id="text_2">
      <!-- 2020-04 -->
      <g transform="translate(167.328379 381.55725)scale(0.1 -0.1)">
       <defs>
        <path id="WenQuanYiZenHei-34" d="M 3631 1025 
L 2913 1025 
L 2913 0 
L 2381 0 
L 2381 1025 
L 219 1025 
L 219 1388 
L 2225 4388 
L 2913 4388 
L 2913 1444 
L 3631 1444 
L 3631 1025 
z
M 2381 1444 
L 2381 3963 
L 788 1444 
L 2381 1444 
z
" transform="scale(0.015625)"/>
       </defs>
       <use xlink:href="#WenQuanYiZenHei-32"/>
       <use xlink:href="#WenQuanYiZenHei-30" x="59.960938"/>
       <use xlink:href="#WenQuanYiZenHei-32" x="119.921875"/>
       <use xlink:href="#WenQuanYiZenHei-30" x="179.882812"/>
       <use xlink:href="#WenQuanYiZenHei-2d" x="239.84375"/>
       <use xlink:href="#WenQuanYiZenHei-30" x="269.824219"/>
       <use xlink:href="#WenQuanYiZenHei-34" x="329.785156"/>
      </g>
     </g>
    </g>
    <g id="xtick_3">
     <g id="line2d_3">
      <g>
       <use xlink:href="#meddb00f26b" x="310.46595" y="367.701" style="stroke: #000000; stroke-width: 0.8"/>
      </g>
     </g>
     <g id="text_3">
      <!-- 2020-07 -->
      <g transform="translate(290.976106 381.55725)scale(0.1 -0.1)">
       <defs>
        <path id="WenQuanYiZenHei-37" d="M 3400 4056 
Q 1838 2175 1838 0 
L 1275 0 
Q 1269 1438 2056 2825 
Q 2381 3400 2825 3913 
L 444 3913 
L 500 4388 
L 3400 4388 
L 3400 4056 
z
" transform="scale(0.015625)"/>
       </defs>
       <use xlink:href="#WenQuanYiZenHei-32"/>
       <use xlink:href="#WenQuanYiZenHei-30" x="59.960938"/>
       <use xlink:href="#WenQuanYiZenHei-32" x="119.921875"/>
       <use xlink:href="#WenQuanYiZenHei-30" x="179.882812"/>
       <use xlink:href="#WenQuanYiZenHei-2d" x="239.84375"/>
       <use xlink:href="#WenQuanYiZenHei-30" x="269.824219"/>
       <use xlink:href="#WenQuanYiZenHei-37" x="329.785156"/>
      </g>
     </g>
    </g>
    <g id="xtick_4">
     <g id="line2d_4">
      <g>
       <use xlink:href="#meddb00f26b" x="435.472443" y="367.701" style="stroke: #000000; stroke-width: 0.8"/>
      </g>
     </g>
     <g id="text_4">
      <!-- 2020-10 -->
      <g transform="translate(415.982599 381.55725)scale(0.1 -0.1)">
       <use xlink:href="#WenQuanYiZenHei-32"/>
       <use xlink:href="#WenQuanYiZenHei-30" x="59.960938"/>
       <use xlink:href="#WenQuanYiZenHei-32" x="119.921875"/>
       <use xlink:href="#WenQuanYiZenHei-30" x="179.882812"/>
       <use xlink:href="#WenQuanYiZenHei-2d" x="239.84375"/>
       <use xlink:href="#WenQuanYiZenHei-31" x="269.824219"/>
       <use xlink:href="#WenQuanYiZenHei-30" x="329.785156"/>
      </g>
     </g>
    </g>
    <g id="xtick_5">
     <g id="line2d_5">
      <g>
       <use xlink:href="#meddb00f26b" x="560.478937" y="367.701" style="stroke: #000000; stroke-width: 0.8"/>
      </g>
     </g>
     <g id="text_5">
      <!-- 2021-01 -->
      <g transform="translate(540.989093 381.55725)scale(0.1 -0.1)">
       <use xlink:href="#WenQuanYiZenHei-32"/>
       <use xlink:href="#WenQuanYiZenHei-30" x="59.960938"/>
       <use xlink:href="#WenQuanYiZenHei-32" x="119.921875"/>
       <use xlink:href="#WenQuanYiZenHei-31" x="179.882812"/>
       <use xlink:href="#WenQuanYiZenHei-2d" x="239.84375"/>
       <use xlink:href="#WenQuanYiZenHei-30" x="269.824219"/>
       <use xlink:href="#WenQuanYiZenHei-31" x="329.785156"/>
      </g>
     </g>
    </g>
    <g id="xtick_6">
     <g id="line2d_6">
      <g>
       <use xlink:href="#meddb00f26b" x="682.767898" y="367.701" style="stroke: #000000; stroke-width: 0.8"/>
      </g>
     </g>
     <g id="text_6">
      <!-- 2021-04 -->
      <g transform="translate(663.278054 381.55725)scale(0.1 -0.1)">
       <use xlink:href="#WenQuanYiZenHei-32"/>
       <use xlink:href="#WenQuanYiZenHei-30" x="59.960938"/>
       <use xlink:href="#WenQuanYiZenHei-32" x="119.921875"/>
       <use xlink:href="#WenQuanYiZenHei-31" x="179.882812"/>
       <use xlink:href="#WenQuanYiZenHei-2d" x="239.84375"/>
       <use xlink:href="#WenQuanYiZenHei-30" x="269.824219"/>
       <use xlink:href="#WenQuanYiZenHei-34" x="329.785156"/>
      </g>
     </g>
    </g>
    <g id="xtick_7">
     <g id="line2d_7">
      <g>
       <use xlink:href="#meddb00f26b" x="806.415625" y="367.701" style="stroke: #000000; stroke-width: 0.8"/>
      </g>
     </g>
     <g id="text_7">
      <!-- 2021-07 -->
      <g transform="translate(786.925781 381.55725)scale(0.1 -0.1)">
       <use xlink:href="#WenQuanYiZenHei-32"/>
       <use xlink:href="#WenQuanYiZenHei-30" x="59.960938"/>
       <use xlink:href="#WenQuanYiZenHei-32" x="119.921875"/>
       <use xlink:href="#WenQuanYiZenHei-31" x="179.882812"/>
       <use xlink:href="#WenQuanYiZenHei-2d" x="239.84375"/>
       <use xlink:href="#WenQuanYiZenHei-30" x="269.824219"/>
       <use xlink:href="#WenQuanYiZenHei-37" x="329.785156"/>
      </g>
     </g>
    </g>
    <g id="xtick_8">
     <g id="line2d_8">
      <g>
       <use xlink:href="#meddb00f26b" x="931.422119" y="367.701" style="stroke: #000000; stroke-width: 0.8"/>
      </g>
     </g>
     <g id="text_8">
      <!-- 2021-10 -->
      <g transform="translate(911.932275 381.55725)scale(0.1 -0.1)">
       <use xlink:href="#WenQuanYiZenHei-32"/>
       <use xlink:href="#WenQuanYiZenHei-30" x="59.960938"/>
       <use xlink:href="#WenQuanYiZenHei-32" x="119.921875"/>
       <use xlink:href="#WenQuanYiZenHei-31" x="179.882812"/>
       <use xlink:href="#WenQuanYiZenHei-2d" x="239.84375"/>
       <use xlink:href="#WenQuanYiZenHei-31" x="269.824219"/>
       <use xlink:href="#WenQuanYiZenHei-30" x="329.785156"/>
      </g>
     </g>
    </g>
    <g id="xtick_9">
     <g id="line2d_9">
      <g>
       <use xlink:href="#meddb00f26b" x="1056.428612" y="367.701" style="stroke: #000000; stroke-width: 0.8"/>
      </g>
     </g>
     <g id="text_9">
      <!-- 2022-01 -->
      <g transform="translate(1036.938768 381.55725)scale(0.1 -0.1)">
       <use xlink:href="#WenQuanYiZenHei-32"/>
       <use xlink:href="#WenQuanYiZenHei-30" x="59.960938"/>
       <use xlink:href="#WenQuanYiZenHei-32" x="119.921875"/>
       <use xlink:href="#WenQuanYiZenHei-32" x="179.882812"/>
       <use xlink:href="#WenQuanYiZenHei-2d" x="239.84375"/>
       <use xlink:href="#WenQuanYiZenHei-30" x="269.824219"/>
       <use xlink:href="#WenQuanYiZenHei-31" x="329.785156"/>
      </g>
     </g>
    </g>
    <g id="xtick_10">
     <g id="line2d_10">
      <g>
       <use xlink:href="#meddb00f26b" x="1178.717573" y="367.701" style="stroke: #000000; stroke-width: 0.8"/>
      </g>
     </g>
     <g id="text_10">
      <!-- 2022-04 -->
      <g transform="translate(1159.227729 381.55725)scale(0.1 -0.1)">
       <use xlink:href="#WenQuanYiZenHei-32"/>
       <use xlink:href="#WenQuanYiZenHei-30" x="59.960938"/>
       <use xlink:href="#WenQuanYiZenHei-32" x="119.921875"/>
       <use xlink:href="#WenQuanYiZenHei-32" x="179.882812"/>
       <use xlink:href="#WenQuanYiZenHei-2d" x="239.84375"/>
       <use xlink:href="#WenQuanYiZenHei-30" x="269.824219"/>
       <use xlink:href="#WenQuanYiZenHei-34" x="329.785156"/>
      </g>
     </g>
    </g>
    <g id="xtick_11">
     <g id="line2d_11">
      <g>
       <use xlink:href="#meddb00f26b" x="1302.3653" y="367.701" style="stroke: #000000; stroke-width: 0.8"/>
      </g>
     </g>
     <g id="text_11">
      <!-- 2022-07 -->
      <g transform="translate(1282.875457 381.55725)scale(0.1 -0.1)">
       <use xlink:href="#WenQuanYiZenHei-32"/>
       <use xlink:href="#WenQuanYiZenHei-30" x="59.960938"/>
       <use xlink:href="#WenQuanYiZenHei-32" x="119.921875"/>
       <use xlink:href="#WenQuanYiZenHei-32" x="179.882812"/>
       <use xlink:href="#WenQuanYiZenHei-2d" x="239.84375"/>
       <use xlink:href="#WenQuanYiZenHei-30" x="269.824219"/>
       <use xlink:href="#WenQuanYiZenHei-37" x="329.785156"/>
      </g>
     </g>
    </g>
   </g>
   <g id="matplotlib.axis_2">
    <g id="ytick_1">
     <g id="line2d_12">
      <defs>
       <path id="m368cf025e5" d="M 0 0 
L -3.5 0 
" style="stroke: #000000; stroke-width: 0.8"/>
      </defs>
      <g>
       <use xlink:href="#m368cf025e5" x="32.190625" y="352.581" style="stroke: #000000; stroke-width: 0.8"/>
      </g>
     </g>
     <g id="text_12">
      <!-- 0 -->
      <g transform="translate(19.19375 356.009125)scale(0.1 -0.1)">
       <use xlink:href="#WenQuanYiZenHei-30"/>
      </g>
     </g>
    </g>
    <g id="ytick_2">
     <g id="line2d_13">
      <g>
       <use xlink:href="#m368cf025e5" x="32.190625" y="309.070209" style="stroke: #000000; stroke-width: 0.8"/>
      </g>
     </g>
     <g id="text_13">
      <!-- 20 -->
      <g transform="translate(13.196875 312.498334)scale(0.1 -0.1)">
       <use xlink:href="#WenQuanYiZenHei-32"/>
       <use xlink:href="#WenQuanYiZenHei-30" x="59.960938"/>
      </g>
     </g>
    </g>
    <g id="ytick_3">
     <g id="line2d_14">
      <g>
       <use xlink:href="#m368cf025e5" x="32.190625" y="265.559417" style="stroke: #000000; stroke-width: 0.8"/>
      </g>
     </g>
     <g id="text_14">
      <!-- 40 -->
      <g transform="translate(13.196875 268.987542)scale(0.1 -0.1)">
       <use xlink:href="#WenQuanYiZenHei-34"/>
       <use xlink:href="#WenQuanYiZenHei-30" x="59.960938"/>
      </g>
     </g>
    </g>
    <g id="ytick_4">
     <g id="line2d_15">
      <g>
       <use xlink:href="#m368cf025e5" x="32.190625" y="222.048626" style="stroke: #000000; stroke-width: 0.8"/>
      </g>
     </g>
     <g id="text_15">
      <!-- 60 -->
      <g transform="translate(13.196875 225.476751)scale(0.1 -0.1)">
       <defs>
        <path id="WenQuanYiZenHei-36" d="M 3550 1431 
Q 3550 725 3006 288 
Q 2581 -63 1994 -63 
Q 1013 -63 563 825 
Q 288 1363 288 2081 
Q 288 3294 856 3938 
Q 1319 4456 2075 4456 
Q 2969 4456 3363 3756 
Q 3431 3631 3481 3481 
L 2988 3350 
Q 2750 3994 2075 4006 
Q 1056 4006 844 2669 
Q 794 2356 794 1981 
L 806 1981 
Q 1006 2506 1544 2744 
Q 1819 2869 2119 2869 
Q 2788 2869 3213 2375 
Q 3550 1975 3550 1431 
z
M 3038 1406 
Q 3038 1906 2656 2213 
Q 2381 2431 2038 2431 
Q 1525 2431 1181 2044 
Q 919 1744 919 1356 
Q 919 881 1344 581 
Q 1631 375 1981 375 
Q 2519 375 2838 781 
Q 3038 1050 3038 1406 
z
" transform="scale(0.015625)"/>
       </defs>
       <use xlink:href="#WenQuanYiZenHei-36"/>
       <use xlink:href="#WenQuanYiZenHei-30" x="59.960938"/>
      </g>
     </g>
    </g>
    <g id="ytick_5">
     <g id="line2d_16">
      <g>
       <use xlink:href="#m368cf025e5" x="32.190625" y="178.537835" style="stroke: #000000; stroke-width: 0.8"/>
      </g>
     </g>
     <g id="text_16">
      <!-- 80 -->
      <g transform="translate(13.196875 181.96596)scale(0.1 -0.1)">
       <defs>
        <path id="WenQuanYiZenHei-38" d="M 3619 1175 
Q 3619 431 2850 100 
Q 2444 -63 1944 -63 
Q 1231 -63 725 269 
Q 225 594 225 1125 
Q 225 1881 1269 2281 
Q 719 2481 519 2938 
Q 444 3119 444 3319 
Q 444 4000 1144 4294 
Q 1519 4456 1963 4456 
Q 2669 4456 3094 4094 
Q 3425 3813 3425 3369 
Q 3425 2638 2575 2356 
Q 3231 2056 3450 1725 
Q 3619 1488 3619 1175 
z
M 2944 3344 
Q 2944 3906 2288 4019 
Q 2138 4044 1969 4044 
Q 1438 4044 1163 3775 
Q 1000 3613 1000 3375 
Q 1000 2925 1594 2663 
Q 1756 2588 1931 2550 
Q 2581 2725 2788 2956 
Q 2944 3125 2944 3344 
z
M 3075 1094 
Q 3075 1738 1875 2050 
Q 1094 1881 850 1463 
Q 763 1313 763 1131 
Q 763 569 1456 406 
Q 1681 344 1944 344 
Q 2519 344 2850 619 
Q 3075 813 3075 1094 
z
" transform="scale(0.015625)"/>
       </defs>
       <use xlink:href="#WenQuanYiZenHei-38"/>
       <use xlink:href="#WenQuanYiZenHei-30" x="59.960938"/>
      </g>
     </g>
    </g>
    <g id="ytick_6">
     <g id="line2d_17">
      <g>
       <use xlink:href="#m368cf025e5" x="32.190625" y="135.027043" style="stroke: #000000; stroke-width: 0.8"/>
      </g>
     </g>
     <g id="text_17">
      <!-- 100 -->
      <g transform="translate(7.2 138.455168)scale(0.1 -0.1)">
       <use xlink:href="#WenQuanYiZenHei-31"/>
       <use xlink:href="#WenQuanYiZenHei-30" x="59.960938"/>
       <use xlink:href="#WenQuanYiZenHei-30" x="119.921875"/>
      </g>
     </g>
    </g>
    <g id="ytick_7">
     <g id="line2d_18">
      <g>
       <use xlink:href="#m368cf025e5" x="32.190625" y="91.516252" style="stroke: #000000; stroke-width: 0.8"/>
      </g>
     </g>
     <g id="text_18">
      <!-- 120 -->
      <g transform="translate(7.2 94.944377)scale(0.1 -0.1)">
       <use xlink:href="#WenQuanYiZenHei-31"/>
       <use xlink:href="#WenQuanYiZenHei-32" x="59.960938"/>
       <use xlink:href="#WenQuanYiZenHei-30" x="119.921875"/>
      </g>
     </g>
    </g>
    <g id="ytick_8">
     <g id="line2d_19">
      <g>
       <use xlink:href="#m368cf025e5" x="32.190625" y="48.00546" style="stroke: #000000; stroke-width: 0.8"/>
      </g>
     </g>
     <g id="text_19">
      <!-- 140 -->
      <g transform="translate(7.2 51.433585)scale(0.1 -0.1)">
       <use xlink:href="#WenQuanYiZenHei-31"/>
       <use xlink:href="#WenQuanYiZenHei-34" x="59.960938"/>
       <use xlink:href="#WenQuanYiZenHei-30" x="119.921875"/>
      </g>
     </g>
    </g>
   </g>
   <g id="line2d_20">
    <path d="M 93.063352 339.527763 
L 94.422119 306.894669 
L 95.780885 298.192511 
L 97.139651 280.788194 
L 98.498417 265.559417 
L 99.857183 230.750784 
L 101.21595 200.29323 
L 102.574716 185.064453 
L 103.933482 174.186755 
L 105.292248 137.202583 
L 106.651015 141.553662 
L 108.009781 150.25582 
L 109.368547 161.133518 
L 110.727313 174.186755 
L 112.08608 189.415532 
L 113.444846 213.346468 
L 114.803612 219.873086 
L 116.162378 274.261576 
L 117.521144 291.665892 
L 118.879911 313.421288 
L 120.238677 261.208338 
L 121.597443 304.719129 
L 122.956209 309.070209 
L 124.314976 280.788194 
L 125.673742 304.719129 
L 127.032508 339.527763 
L 128.391274 339.527763 
L 129.750041 346.054381 
L 131.108807 350.40546 
L 132.467573 350.40546 
L 133.826339 339.527763 
L 135.185106 346.054381 
L 136.543872 346.054381 
L 137.902638 348.229921 
L 139.261404 352.581 
L 140.62017 352.581 
L 141.978937 350.40546 
L 143.337703 350.40546 
L 144.696469 352.581 
L 146.055235 350.40546 
L 147.414002 352.581 
L 148.772768 352.581 
L 150.131534 350.40546 
L 151.4903 350.40546 
L 152.849067 352.581 
L 155.566599 352.581 
L 156.925365 350.40546 
L 158.284131 346.054381 
L 159.642898 352.581 
L 162.36043 352.581 
L 163.719196 343.878842 
L 165.077963 350.40546 
L 166.436729 346.054381 
L 167.795495 339.527763 
L 169.154261 335.176683 
L 170.513028 315.596827 
L 171.871794 341.703302 
L 173.23056 324.298986 
L 174.589326 348.229921 
L 175.948093 324.298986 
L 177.306859 341.703302 
L 178.665625 319.947906 
L 180.024391 335.176683 
L 181.383157 328.650065 
L 182.741924 335.176683 
L 185.459456 330.825604 
L 186.818222 337.352223 
L 188.176989 339.527763 
L 189.535755 337.352223 
L 190.894521 348.229921 
L 192.253287 335.176683 
L 193.612054 335.176683 
L 194.97082 350.40546 
L 196.329586 346.054381 
L 197.688352 346.054381 
L 199.047119 341.703302 
L 200.405885 343.878842 
L 201.764651 343.878842 
L 203.123417 346.054381 
L 204.482183 333.001144 
L 205.84095 348.229921 
L 207.199716 341.703302 
L 208.558482 339.527763 
L 209.917248 348.229921 
L 211.276015 350.40546 
L 213.993547 350.40546 
L 215.352313 352.581 
L 216.71108 346.054381 
L 218.069846 352.581 
L 219.428612 350.40546 
L 220.787378 350.40546 
L 222.146144 352.581 
L 223.504911 350.40546 
L 224.863677 352.581 
L 233.016274 352.581 
L 234.375041 350.40546 
L 235.733807 352.581 
L 246.603937 352.581 
L 247.962703 350.40546 
L 249.321469 352.581 
L 254.756534 352.581 
L 256.1153 350.40546 
L 257.474067 350.40546 
L 258.832833 352.581 
L 264.267898 352.581 
L 265.626664 350.40546 
L 266.98543 352.581 
L 268.344196 348.229921 
L 269.702963 350.40546 
L 272.420495 350.40546 
L 273.779261 352.581 
L 275.138028 346.054381 
L 276.496794 350.40546 
L 277.85556 352.581 
L 279.214326 348.229921 
L 280.573093 352.581 
L 281.931859 346.054381 
L 283.290625 352.581 
L 284.649391 350.40546 
L 286.008157 315.596827 
L 287.366924 352.581 
L 288.72569 346.054381 
L 290.084456 352.581 
L 291.443222 352.581 
L 292.801989 346.054381 
L 294.160755 352.581 
L 295.519521 346.054381 
L 296.878287 352.581 
L 299.59582 352.581 
L 300.954586 350.40546 
L 302.313352 352.581 
L 303.672119 348.229921 
L 305.030885 352.581 
L 306.389651 352.581 
L 307.748417 343.878842 
L 309.107183 352.581 
L 310.46595 350.40546 
L 311.824716 352.581 
L 313.183482 350.40546 
L 314.542248 352.581 
L 317.259781 352.581 
L 318.618547 348.229921 
L 319.977313 348.229921 
L 321.33608 352.581 
L 322.694846 352.581 
L 325.412378 348.229921 
L 326.771144 352.581 
L 329.488677 352.581 
L 330.847443 343.878842 
L 333.564976 348.229921 
L 334.923742 352.581 
L 336.282508 352.581 
L 337.641274 348.229921 
L 339.000041 350.40546 
L 340.358807 341.703302 
L 341.717573 348.229921 
L 343.076339 346.054381 
L 344.435106 352.581 
L 345.793872 352.581 
L 347.152638 348.229921 
L 348.511404 350.40546 
L 349.87017 346.054381 
L 351.228937 348.229921 
L 352.587703 348.229921 
L 353.946469 350.40546 
L 355.305235 343.878842 
L 356.664002 352.581 
L 359.381534 352.581 
L 360.7403 350.40546 
L 362.099067 341.703302 
L 363.457833 346.054381 
L 364.816599 346.054381 
L 366.175365 352.581 
L 367.534131 335.176683 
L 368.892898 352.581 
L 370.251664 348.229921 
L 371.61043 346.054381 
L 372.969196 335.176683 
L 374.327963 350.40546 
L 375.686729 343.878842 
L 377.045495 352.581 
L 379.763028 352.581 
L 381.121794 348.229921 
L 382.48056 352.581 
L 383.839326 346.054381 
L 385.198093 343.878842 
L 386.556859 352.581 
L 389.274391 348.229921 
L 390.633157 350.40546 
L 393.35069 350.40546 
L 396.068222 346.054381 
L 397.426989 324.298986 
L 398.785755 348.229921 
L 401.503287 343.878842 
L 404.22082 352.581 
L 405.579586 350.40546 
L 406.938352 343.878842 
L 408.297119 348.229921 
L 409.655885 350.40546 
L 411.014651 350.40546 
L 412.373417 343.878842 
L 413.732183 350.40546 
L 415.09095 350.40546 
L 416.449716 346.054381 
L 417.808482 339.527763 
L 419.167248 343.878842 
L 420.526015 346.054381 
L 421.884781 346.054381 
L 423.243547 343.878842 
L 424.602313 352.581 
L 425.96108 348.229921 
L 427.319846 346.054381 
L 428.678612 348.229921 
L 430.037378 341.703302 
L 431.396144 352.581 
L 432.754911 335.176683 
L 434.113677 352.581 
L 435.472443 343.878842 
L 436.831209 346.054381 
L 438.189976 339.527763 
L 439.548742 350.40546 
L 440.907508 341.703302 
L 442.266274 348.229921 
L 443.625041 352.581 
L 444.983807 346.054381 
L 446.342573 350.40546 
L 447.701339 339.527763 
L 449.060106 346.054381 
L 450.418872 348.229921 
L 451.777638 339.527763 
L 454.49517 348.229921 
L 455.853937 348.229921 
L 457.212703 343.878842 
L 458.571469 346.054381 
L 459.930235 341.703302 
L 461.289002 346.054381 
L 462.647768 346.054381 
L 464.006534 352.581 
L 465.3653 333.001144 
L 466.724067 346.054381 
L 468.082833 350.40546 
L 469.441599 350.40546 
L 472.159131 346.054381 
L 473.517898 348.229921 
L 474.876664 346.054381 
L 476.23543 346.054381 
L 477.594196 341.703302 
L 478.952963 335.176683 
L 480.311729 346.054381 
L 481.670495 352.581 
L 483.029261 346.054381 
L 484.388028 348.229921 
L 485.746794 348.229921 
L 488.464326 339.527763 
L 489.823093 352.581 
L 491.181859 350.40546 
L 492.540625 352.581 
L 493.899391 337.352223 
L 495.258157 346.054381 
L 496.616924 348.229921 
L 497.97569 346.054381 
L 499.334456 350.40546 
L 500.693222 350.40546 
L 502.051989 348.229921 
L 503.410755 352.581 
L 504.769521 352.581 
L 506.128287 343.878842 
L 507.487054 343.878842 
L 508.84582 350.40546 
L 510.204586 343.878842 
L 511.563352 352.581 
L 514.280885 352.581 
L 515.639651 350.40546 
L 516.998417 352.581 
L 518.357183 346.054381 
L 519.71595 343.878842 
L 521.074716 350.40546 
L 522.433482 346.054381 
L 523.792248 348.229921 
L 525.151015 348.229921 
L 526.509781 346.054381 
L 529.227313 350.40546 
L 530.58608 346.054381 
L 533.303612 350.40546 
L 536.021144 350.40546 
L 537.379911 346.054381 
L 538.738677 350.40546 
L 540.097443 343.878842 
L 541.456209 350.40546 
L 542.814976 350.40546 
L 544.173742 346.054381 
L 545.532508 346.054381 
L 546.891274 350.40546 
L 550.967573 350.40546 
L 552.326339 352.581 
L 553.685106 350.40546 
L 556.402638 350.40546 
L 557.761404 346.054381 
L 559.12017 348.229921 
L 560.478937 352.581 
L 561.837703 341.703302 
L 563.196469 348.229921 
L 564.555235 343.878842 
L 567.272768 348.229921 
L 568.631534 346.054381 
L 571.349067 350.40546 
L 572.707833 337.352223 
L 574.066599 350.40546 
L 576.784131 346.054381 
L 578.142898 346.054381 
L 579.501664 352.581 
L 580.86043 348.229921 
L 582.219196 350.40546 
L 583.577963 346.054381 
L 584.936729 346.054381 
L 586.295495 350.40546 
L 587.654261 343.878842 
L 589.013028 350.40546 
L 590.371794 341.703302 
L 591.73056 348.229921 
L 593.089326 348.229921 
L 594.448093 337.352223 
L 595.806859 350.40546 
L 597.165625 341.703302 
L 598.524391 352.581 
L 599.883157 346.054381 
L 601.241924 350.40546 
L 602.60069 348.229921 
L 603.959456 348.229921 
L 605.318222 346.054381 
L 608.035755 350.40546 
L 609.394521 348.229921 
L 610.753287 337.352223 
L 612.112054 337.352223 
L 613.47082 352.581 
L 617.547119 346.054381 
L 618.905885 348.229921 
L 620.264651 343.878842 
L 621.623417 335.176683 
L 622.982183 339.527763 
L 625.699716 352.581 
L 627.058482 346.054381 
L 628.417248 350.40546 
L 629.776015 346.054381 
L 631.134781 333.001144 
L 632.493547 352.581 
L 633.852313 348.229921 
L 635.21108 348.229921 
L 636.569846 341.703302 
L 637.928612 350.40546 
L 639.287378 339.527763 
L 640.646144 346.054381 
L 643.363677 346.054381 
L 644.722443 350.40546 
L 646.081209 346.054381 
L 647.439976 343.878842 
L 648.798742 343.878842 
L 650.157508 348.229921 
L 651.516274 350.40546 
L 652.875041 348.229921 
L 654.233807 348.229921 
L 655.592573 346.054381 
L 656.951339 350.40546 
L 658.310106 350.40546 
L 659.668872 352.581 
L 661.027638 352.581 
L 662.386404 350.40546 
L 663.74517 346.054381 
L 666.462703 350.40546 
L 667.821469 350.40546 
L 669.180235 343.878842 
L 670.539002 348.229921 
L 671.897768 343.878842 
L 673.256534 348.229921 
L 674.6153 350.40546 
L 675.974067 350.40546 
L 677.332833 335.176683 
L 678.691599 348.229921 
L 680.050365 348.229921 
L 681.409131 346.054381 
L 682.767898 352.581 
L 684.126664 346.054381 
L 685.48543 348.229921 
L 686.844196 352.581 
L 688.202963 348.229921 
L 689.561729 350.40546 
L 690.920495 350.40546 
L 692.279261 343.878842 
L 693.638028 352.581 
L 694.996794 350.40546 
L 696.35556 346.054381 
L 697.714326 348.229921 
L 700.431859 343.878842 
L 701.790625 348.229921 
L 704.508157 343.878842 
L 707.22569 352.581 
L 709.943222 348.229921 
L 711.301989 341.703302 
L 712.660755 350.40546 
L 714.019521 352.581 
L 718.09582 346.054381 
L 719.454586 350.40546 
L 720.813352 348.229921 
L 722.172119 337.352223 
L 723.530885 339.527763 
L 724.889651 343.878842 
L 726.248417 343.878842 
L 727.607183 350.40546 
L 728.96595 350.40546 
L 730.324716 341.703302 
L 731.683482 352.581 
L 733.042248 341.703302 
L 734.401015 348.229921 
L 735.759781 350.40546 
L 737.118547 335.176683 
L 738.477313 348.229921 
L 739.83608 346.054381 
L 741.194846 350.40546 
L 742.553612 341.703302 
L 743.912378 343.878842 
L 745.271144 350.40546 
L 749.347443 350.40546 
L 750.706209 339.527763 
L 752.064976 346.054381 
L 753.423742 346.054381 
L 754.782508 352.581 
L 756.141274 350.40546 
L 757.500041 322.123446 
L 758.858807 350.40546 
L 760.217573 346.054381 
L 761.576339 350.40546 
L 762.935106 302.54359 
L 764.293872 324.298986 
L 765.652638 324.298986 
L 767.011404 315.596827 
L 768.37017 328.650065 
L 769.728937 317.772367 
L 771.087703 333.001144 
L 772.446469 335.176683 
L 773.805235 304.719129 
L 775.164002 333.001144 
L 776.522768 333.001144 
L 777.881534 328.650065 
L 780.599067 324.298986 
L 781.957833 337.352223 
L 783.316599 330.825604 
L 784.675365 319.947906 
L 786.034131 337.352223 
L 787.392898 333.001144 
L 788.751664 322.123446 
L 790.11043 326.474525 
L 791.469196 337.352223 
L 792.827963 337.352223 
L 794.186729 346.054381 
L 795.545495 335.176683 
L 798.263028 343.878842 
L 799.621794 350.40546 
L 800.98056 341.703302 
L 803.698093 350.40546 
L 805.056859 352.581 
L 806.415625 335.176683 
L 807.774391 346.054381 
L 809.133157 346.054381 
L 810.491924 341.703302 
L 811.85069 346.054381 
L 813.209456 341.703302 
L 814.568222 348.229921 
L 815.926989 346.054381 
L 817.285755 350.40546 
L 818.644521 352.581 
L 820.003287 343.878842 
L 822.72082 348.229921 
L 824.079586 326.474525 
L 825.438352 343.878842 
L 826.797119 350.40546 
L 828.155885 343.878842 
L 829.514651 335.176683 
L 832.232183 352.581 
L 833.59095 335.176683 
L 834.949716 322.123446 
L 836.308482 341.703302 
L 837.667248 339.527763 
L 839.026015 335.176683 
L 840.384781 324.298986 
L 841.743547 346.054381 
L 843.102313 346.054381 
L 844.46108 333.001144 
L 845.819846 350.40546 
L 847.178612 348.229921 
L 848.537378 348.229921 
L 849.896144 339.527763 
L 851.254911 348.229921 
L 852.613677 348.229921 
L 853.972443 324.298986 
L 855.331209 346.054381 
L 856.689976 346.054381 
L 858.048742 335.176683 
L 859.407508 335.176683 
L 860.766274 348.229921 
L 862.125041 341.703302 
L 863.483807 333.001144 
L 864.842573 346.054381 
L 866.201339 324.298986 
L 867.560106 341.703302 
L 868.918872 333.001144 
L 870.277638 350.40546 
L 871.636404 330.825604 
L 872.99517 333.001144 
L 874.353937 343.878842 
L 875.712703 339.527763 
L 877.071469 341.703302 
L 878.430235 335.176683 
L 879.789002 346.054381 
L 881.147768 333.001144 
L 882.506534 335.176683 
L 883.8653 346.054381 
L 885.224067 346.054381 
L 886.582833 333.001144 
L 887.941599 343.878842 
L 889.300365 339.527763 
L 890.659131 333.001144 
L 892.017898 341.703302 
L 893.376664 343.878842 
L 894.73543 343.878842 
L 896.094196 337.352223 
L 897.452963 348.229921 
L 898.811729 343.878842 
L 900.170495 343.878842 
L 901.529261 341.703302 
L 902.888028 348.229921 
L 904.246794 339.527763 
L 905.60556 346.054381 
L 906.964326 335.176683 
L 908.323093 343.878842 
L 911.040625 348.229921 
L 912.399391 346.054381 
L 913.758157 348.229921 
L 915.116924 352.581 
L 916.47569 346.054381 
L 917.834456 348.229921 
L 919.193222 348.229921 
L 920.551989 350.40546 
L 921.910755 333.001144 
L 923.269521 343.878842 
L 924.628287 350.40546 
L 925.987054 346.054381 
L 927.34582 350.40546 
L 928.704586 346.054381 
L 930.063352 339.527763 
L 931.422119 346.054381 
L 932.780885 346.054381 
L 934.139651 343.878842 
L 935.498417 343.878842 
L 936.857183 352.581 
L 938.21595 352.581 
L 939.574716 348.229921 
L 940.933482 352.581 
L 942.292248 352.581 
L 943.651015 348.229921 
L 945.009781 352.581 
L 946.368547 348.229921 
L 947.727313 348.229921 
L 949.08608 352.581 
L 951.803612 352.581 
L 953.162378 348.229921 
L 954.521144 346.054381 
L 955.879911 346.054381 
L 957.238677 350.40546 
L 961.314976 350.40546 
L 962.673742 352.581 
L 964.032508 343.878842 
L 966.750041 352.581 
L 968.108807 343.878842 
L 969.467573 348.229921 
L 972.185106 352.581 
L 974.902638 343.878842 
L 976.261404 346.054381 
L 977.62017 350.40546 
L 978.978937 346.054381 
L 981.696469 346.054381 
L 983.055235 343.878842 
L 984.414002 350.40546 
L 985.772768 350.40546 
L 987.131534 348.229921 
L 988.4903 350.40546 
L 989.849067 350.40546 
L 991.207833 343.878842 
L 992.566599 348.229921 
L 993.925365 350.40546 
L 995.284131 343.878842 
L 998.001664 348.229921 
L 999.36043 346.054381 
L 1000.719196 348.229921 
L 1002.077963 341.703302 
L 1003.436729 348.229921 
L 1006.154261 339.527763 
L 1007.513028 346.054381 
L 1008.871794 346.054381 
L 1010.23056 343.878842 
L 1011.589326 333.001144 
L 1012.948093 343.878842 
L 1014.306859 350.40546 
L 1015.665625 346.054381 
L 1017.024391 343.878842 
L 1018.383157 350.40546 
L 1019.741924 350.40546 
L 1021.10069 346.054381 
L 1023.818222 346.054381 
L 1025.176989 352.581 
L 1026.535755 352.581 
L 1027.894521 350.40546 
L 1029.253287 341.703302 
L 1030.612054 343.878842 
L 1031.97082 343.878842 
L 1033.329586 339.527763 
L 1034.688352 339.527763 
L 1037.405885 335.176683 
L 1038.764651 330.825604 
L 1040.123417 330.825604 
L 1041.482183 341.703302 
L 1042.84095 333.001144 
L 1044.199716 341.703302 
L 1045.558482 339.527763 
L 1046.917248 348.229921 
L 1048.276015 339.527763 
L 1049.634781 348.229921 
L 1050.993547 343.878842 
L 1052.352313 330.825604 
L 1053.71108 346.054381 
L 1055.069846 328.650065 
L 1056.428612 330.825604 
L 1057.787378 352.581 
L 1059.146144 311.245748 
L 1060.504911 337.352223 
L 1061.863677 330.825604 
L 1063.222443 333.001144 
L 1067.298742 333.001144 
L 1070.016274 293.841432 
L 1071.375041 313.421288 
L 1072.733807 330.825604 
L 1074.092573 324.298986 
L 1076.810106 315.596827 
L 1078.168872 313.421288 
L 1079.527638 333.001144 
L 1080.886404 341.703302 
L 1082.24517 322.123446 
L 1083.603937 337.352223 
L 1084.962703 335.176683 
L 1086.321469 339.527763 
L 1087.680235 348.229921 
L 1089.039002 350.40546 
L 1090.397768 346.054381 
L 1091.756534 337.352223 
L 1093.1153 339.527763 
L 1094.474067 348.229921 
L 1095.832833 337.352223 
L 1099.909131 324.298986 
L 1101.267898 324.298986 
L 1102.626664 330.825604 
L 1103.98543 335.176683 
L 1105.344196 298.192511 
L 1106.702963 313.421288 
L 1108.061729 313.421288 
L 1109.420495 333.001144 
L 1110.779261 319.947906 
L 1112.138028 300.36805 
L 1113.496794 309.070209 
L 1114.85556 291.665892 
L 1116.214326 313.421288 
L 1117.573093 293.841432 
L 1118.931859 289.490353 
L 1120.290625 298.192511 
L 1121.649391 298.192511 
L 1123.008157 265.559417 
L 1124.366924 296.016971 
L 1125.72569 298.192511 
L 1127.084456 254.681719 
L 1128.443222 239.452942 
L 1129.801989 222.048626 
L 1131.160755 158.957978 
L 1132.519521 172.011216 
L 1133.878287 150.25582 
L 1135.237054 189.415532 
L 1136.59582 102.39395 
L 1137.954586 148.080281 
L 1139.313352 50.181 
L 1140.672119 80.638554 
L 1142.030885 152.43136 
L 1143.389651 91.516252 
L 1144.748417 152.43136 
L 1146.107183 252.50618 
L 1147.46595 243.804022 
L 1148.824716 217.697547 
L 1150.183482 215.522007 
L 1151.542248 143.729201 
L 1152.901015 89.340712 
L 1154.259781 204.644309 
L 1155.618547 178.537835 
L 1156.977313 126.324885 
L 1158.33608 158.957978 
L 1159.694846 211.170928 
L 1161.053612 193.766612 
L 1162.412378 254.681719 
L 1163.771144 272.086036 
L 1165.129911 302.54359 
L 1166.488677 317.772367 
L 1167.847443 319.947906 
L 1169.206209 328.650065 
L 1170.564976 330.825604 
L 1171.923742 330.825604 
L 1173.282508 328.650065 
L 1174.641274 319.947906 
L 1176.000041 322.123446 
L 1177.358807 339.527763 
L 1178.717573 343.878842 
L 1180.076339 326.474525 
L 1181.435106 324.298986 
L 1182.793872 333.001144 
L 1184.152638 326.474525 
L 1185.511404 350.40546 
L 1186.87017 326.474525 
L 1188.228937 333.001144 
L 1189.587703 315.596827 
L 1190.946469 304.719129 
L 1192.305235 309.070209 
L 1193.664002 296.016971 
L 1195.022768 248.155101 
L 1196.381534 300.36805 
L 1197.7403 296.016971 
L 1199.099067 282.963734 
L 1201.816599 300.36805 
L 1203.175365 319.947906 
L 1204.534131 333.001144 
L 1205.892898 339.527763 
L 1207.251664 328.650065 
L 1208.61043 333.001144 
L 1209.969196 341.703302 
L 1211.327963 339.527763 
L 1212.686729 350.40546 
L 1214.045495 350.40546 
L 1215.404261 330.825604 
L 1216.763028 289.490353 
L 1218.121794 306.894669 
L 1219.48056 291.665892 
L 1220.839326 333.001144 
L 1222.198093 326.474525 
L 1223.556859 317.772367 
L 1224.915625 319.947906 
L 1226.274391 330.825604 
L 1227.633157 304.719129 
L 1228.991924 276.437115 
L 1230.35069 315.596827 
L 1231.709456 326.474525 
L 1233.068222 341.703302 
L 1234.426989 326.474525 
L 1235.785755 335.176683 
L 1237.144521 348.229921 
L 1238.503287 337.352223 
L 1239.862054 348.229921 
L 1241.22082 348.229921 
L 1242.579586 346.054381 
L 1243.938352 346.054381 
L 1245.297119 343.878842 
L 1246.655885 350.40546 
L 1248.014651 350.40546 
L 1249.373417 348.229921 
L 1250.732183 348.229921 
L 1252.09095 343.878842 
L 1253.449716 350.40546 
L 1254.808482 348.229921 
L 1256.167248 350.40546 
L 1257.526015 343.878842 
L 1258.884781 341.703302 
L 1260.243547 348.229921 
L 1261.602313 352.581 
L 1262.96108 343.878842 
L 1264.319846 343.878842 
L 1265.678612 352.581 
L 1267.037378 341.703302 
L 1269.754911 350.40546 
L 1271.113677 343.878842 
L 1273.831209 348.229921 
L 1275.189976 346.054381 
L 1276.548742 346.054381 
L 1277.907508 335.176683 
L 1279.266274 341.703302 
L 1281.983807 337.352223 
L 1283.342573 339.527763 
L 1284.701339 350.40546 
L 1286.060106 346.054381 
L 1287.418872 339.527763 
L 1288.777638 335.176683 
L 1290.136404 326.474525 
L 1291.49517 339.527763 
L 1292.853937 322.123446 
L 1292.853937 322.123446 
" clip-path="url(#pc3b8cb99a6)" style="fill: none; stroke: #0000ff; stroke-width: 1.5; stroke-linecap: square"/>
   </g>
   <g id="line2d_21">
    <path d="M 1053.71108 342.885229 
L 1055.069846 332.600504 
L 1056.428612 331.318161 
L 1057.787378 346.680292 
L 1059.146144 321.079284 
L 1060.504911 332.836276 
L 1061.863677 331.383591 
L 1063.222443 332.552252 
L 1064.581209 332.876571 
L 1067.298742 332.99155 
L 1068.657508 318.852284 
L 1070.016274 300.782261 
L 1071.375041 309.913797 
L 1072.733807 325.022312 
L 1074.092573 324.499718 
L 1075.451339 321.211092 
L 1076.810106 317.154857 
L 1078.168872 314.457401 
L 1079.527638 327.85502 
L 1080.886404 337.860228 
L 1082.24517 326.490603 
L 1083.603937 334.337985 
L 1084.962703 334.943934 
L 1086.321469 338.255692 
L 1087.680235 345.461946 
L 1089.039002 349.033572 
L 1090.397768 346.881145 
L 1091.756534 339.99662 
L 1093.1153 339.657876 
L 1094.474067 345.85107 
L 1095.832833 339.710761 
L 1098.550365 330.374274 
L 1099.909131 325.984955 
L 1101.267898 324.766864 
L 1103.98543 333.5026 
L 1105.344196 307.991509 
L 1106.702963 311.914455 
L 1108.061729 313.003123 
L 1109.420495 327.451439 
L 1110.779261 322.030232 
L 1112.138028 306.379581 
L 1113.496794 308.323525 
L 1114.85556 296.288597 
L 1116.214326 308.666748 
L 1117.573093 297.955645 
L 1118.931859 291.839579 
L 1120.290625 296.429491 
L 1121.649391 297.703251 
L 1123.008157 274.479739 
L 1124.366924 290.040116 
L 1125.72569 295.930118 
L 1127.084456 266.128674 
L 1129.801989 228.932931 
L 1131.160755 178.376916 
L 1132.519521 173.777779 
L 1133.878287 156.783462 
L 1135.237054 180.359719 
L 1136.59582 124.030441 
L 1137.954586 141.406145 
L 1139.313352 75.497136 
L 1140.672119 79.211745 
L 1142.030885 132.111987 
L 1143.389651 102.782084 
L 1144.748417 138.653055 
L 1146.107183 220.910492 
L 1147.46595 237.450776 
L 1148.824716 223.179319 
L 1150.183482 217.647008 
L 1152.901015 110.126863 
L 1154.259781 178.414518 
L 1155.618547 178.503613 
L 1156.977313 140.805144 
L 1158.33608 153.920336 
L 1159.694846 195.283162 
L 1161.053612 194.187473 
L 1162.412378 237.893798 
L 1163.771144 262.597256 
L 1165.129911 291.457975 
L 1166.488677 310.469789 
L 1167.847443 317.317608 
L 1169.206209 325.505164 
L 1170.564976 329.349115 
L 1171.923742 330.41586 
L 1173.282508 329.140095 
L 1174.641274 322.498856 
L 1176.000041 322.227627 
L 1177.358807 334.726755 
L 1178.717573 341.339021 
L 1180.076339 330.599612 
L 1181.435106 326.047489 
L 1182.793872 331.071416 
L 1184.152638 327.750221 
L 1185.511404 344.118344 
L 1186.87017 331.370909 
L 1188.228937 332.548733 
L 1190.946469 309.043351 
L 1192.305235 309.062755 
L 1193.664002 299.637342 
L 1195.022768 262.442076 
L 1196.381534 289.843111 
L 1197.7403 294.303647 
L 1199.099067 286.110704 
L 1200.457833 290.124257 
L 1201.816599 297.525268 
L 1203.175365 313.725339 
L 1204.534131 327.651863 
L 1205.892898 336.23205 
L 1207.251664 330.754162 
L 1208.61043 332.377578 
L 1209.969196 339.115295 
L 1211.327963 339.413298 
L 1212.686729 347.354996 
L 1214.045495 349.558918 
L 1215.404261 336.024337 
L 1216.763028 302.404124 
L 1218.121794 305.648486 
L 1219.48056 295.546239 
L 1220.839326 322.606932 
L 1222.198093 325.401219 
L 1223.556859 319.88947 
L 1224.915625 319.93169 
L 1226.274391 327.802405 
L 1227.633157 311.125032 
L 1228.991924 286.063452 
L 1230.35069 307.400941 
L 1233.068222 336.008203 
L 1234.426989 329.120242 
L 1235.785755 333.495944 
L 1237.144521 344.141055 
L 1238.503287 339.23621 
L 1239.862054 345.734052 
L 1241.22082 347.537286 
L 1242.579586 346.465906 
L 1243.938352 346.168585 
L 1245.297119 344.514274 
L 1246.655885 348.770582 
L 1248.014651 349.951761 
L 1249.373417 348.707753 
L 1250.732183 348.362525 
L 1252.09095 345.123121 
L 1253.449716 348.939544 
L 1254.808482 348.42685 
L 1256.167248 349.856371 
L 1257.526015 345.537682 
L 1258.884781 342.767391 
L 1261.602313 350.952833 
L 1262.96108 345.841964 
L 1264.319846 344.423633 
L 1265.678612 350.317227 
L 1267.037378 344.093776 
L 1268.396144 345.510288 
L 1269.754911 349.046988 
L 1271.113677 345.313068 
L 1272.472443 345.848657 
L 1273.831209 347.56909 
L 1275.189976 346.474732 
L 1276.548742 346.171034 
L 1277.907508 338.227755 
L 1279.266274 340.738794 
L 1280.625041 339.863839 
L 1281.983807 338.049228 
L 1283.342573 339.117451 
L 1284.701339 347.272894 
L 1286.060106 346.392534 
L 1287.418872 341.432824 
L 1288.777638 336.912842 
L 1290.136404 329.371291 
L 1291.49517 336.709213 
L 1292.853937 326.171182 
L 1292.853937 326.171182 
" clip-path="url(#pc3b8cb99a6)" style="fill: none; stroke: #ffa500; stroke-width: 1.5; stroke-linecap: square"/>
   </g>
   <g id="line2d_22">
    <path d="M 1292.853937 326.171182 
L 1294.212703 326.171182 
L 1295.571469 326.171182 
L 1296.930235 326.171182 
L 1298.289002 326.171182 
L 1299.647768 326.171182 
L 1301.006534 326.171182 
L 1302.3653 326.171182 
L 1303.724067 326.171182 
L 1305.082833 326.171182 
L 1306.441599 326.171182 
L 1307.800365 326.171182 
L 1309.159131 326.171182 
L 1310.517898 326.171182 
" clip-path="url(#pc3b8cb99a6)" style="fill: none; stroke: #ff0000; stroke-width: 1.5; stroke-linecap: square"/>
   </g>
   <g id="patch_3">
    <path d="M 32.190625 367.701 
L 32.190625 35.061 
" style="fill: none; stroke: #000000; stroke-width: 0.8; stroke-linejoin: miter; stroke-linecap: square"/>
   </g>
   <g id="patch_4">
    <path d="M 1371.390625 367.701 
L 1371.390625 35.061 
" style="fill: none; stroke: #000000; stroke-width: 0.8; stroke-linejoin: miter; stroke-linecap: square"/>
   </g>
   <g id="patch_5">
    <path d="M 32.190625 367.701 
L 1371.390625 367.701 
" style="fill: none; stroke: #000000; stroke-width: 0.8; stroke-linejoin: miter; stroke-linecap: square"/>
   </g>
   <g id="patch_6">
    <path d="M 32.190625 35.061 
L 1371.390625 35.061 
" style="fill: none; stroke: #000000; stroke-width: 0.8; stroke-linejoin: miter; stroke-linecap: square"/>
   </g>
   <g id="text_20">
    <!-- 每日新增预测 - 广东 -->
    <g transform="translate(648.393438 17.041875)scale(0.12 -0.12)">
     <defs>
      <path id="WenQuanYiZenHei-6bcf" d="M 6138 2181 
Q 6113 1988 6138 1800 
Q 5788 1819 5438 1819 
L 4975 1819 
L 4863 738 
L 5806 738 
L 5806 394 
L 4831 394 
L 4775 -144 
Q 4719 -563 4350 -725 
Q 4013 -856 3550 -825 
L 3288 -819 
Q 3331 -663 3275 -519 
Q 3219 -375 3113 -288 
Q 3381 -313 3759 -303 
Q 4138 -294 4231 -238 
Q 4338 -163 4350 88 
L 4381 394 
L 1025 394 
L 1244 1819 
L 813 1819 
Q 463 1819 113 1800 
Q 138 1988 113 2181 
Q 463 2163 813 2163 
L 1294 2163 
L 1488 3431 
L 1488 3581 
L 1506 3581 
L 1513 3613 
L 1713 3581 
L 5156 3581 
L 5013 2163 
L 5438 2163 
Q 5788 2163 6138 2181 
z
M 5588 4463 
Q 5569 4269 5588 4081 
Q 5244 4100 4894 4100 
L 1813 4100 
Q 1344 3463 606 2788 
Q 481 2988 256 3069 
Q 744 3494 1116 3972 
Q 1488 4450 1919 5181 
Q 2119 5044 2344 4950 
Q 2213 4688 2050 4444 
L 4894 4444 
Q 5238 4444 5588 4463 
z
M 2844 3238 
L 1906 3238 
L 1744 2163 
L 3244 2163 
L 2581 3038 
L 2844 3238 
z
M 3250 2163 
L 4563 2163 
L 4669 3238 
L 3044 3238 
L 3638 2456 
L 3250 2163 
z
M 2944 1819 
Q 3275 1394 3550 938 
L 3213 738 
L 4419 738 
L 4525 1819 
L 2944 1819 
z
M 2656 1819 
L 1694 1819 
L 1525 738 
L 3094 738 
Q 2806 1219 2450 1650 
L 2656 1819 
z
" transform="scale(0.015625)"/>
      <path id="WenQuanYiZenHei-65e5" d="M 1494 -775 
Q 1244 -750 988 -775 
Q 1013 -313 1013 156 
L 1013 4875 
L 5269 4875 
L 5269 -763 
L 4813 -763 
L 4813 156 
L 1469 156 
Q 1469 -313 1494 -775 
z
M 4813 2700 
L 4813 4500 
L 1469 4500 
L 1469 2700 
L 4813 2700 
z
M 4813 531 
L 4813 2325 
L 1469 2325 
L 1469 531 
L 4813 531 
z
" transform="scale(0.015625)"/>
      <path id="WenQuanYiZenHei-65b0" d="M 5419 -763 
Q 5188 -738 4963 -763 
Q 4981 -344 4981 75 
L 4981 2819 
L 4188 2819 
L 4188 1706 
Q 4188 63 3163 -738 
Q 3019 -519 2769 -469 
Q 3769 131 3769 1706 
L 3769 4769 
L 3875 4769 
L 3844 4831 
L 4294 4781 
Q 4438 4769 4894 4816 
Q 5350 4863 5512 4931 
Q 5675 5000 5763 5094 
Q 5850 4881 5981 4694 
Q 5713 4544 5263 4519 
L 4188 4438 
L 4188 3100 
L 5563 3100 
Q 5850 3100 6131 3113 
Q 6119 2956 6131 2806 
L 5394 2819 
L 5394 75 
Q 5394 -344 5419 -763 
z
M 2981 213 
Q 2656 744 2256 1225 
L 2606 1513 
Q 3025 1006 3369 450 
L 2981 213 
z
M 1169 1525 
Q 1375 1419 1594 1363 
Q 1281 488 469 -469 
Q 331 -300 119 -244 
Q 575 263 888 900 
Q 1038 1206 1169 1525 
z
M 1825 6 
L 1825 1769 
L 1081 1769 
Q 794 1769 513 1756 
Q 525 1913 513 2063 
Q 794 2050 1081 2050 
L 1825 2050 
L 1825 2775 
L 994 2775 
Q 706 2775 425 2763 
Q 438 2919 425 3075 
Q 706 3056 994 3056 
L 1825 3056 
L 1825 3088 
L 1906 3088 
Q 2288 3656 2588 4381 
Q 2794 4269 3013 4206 
Q 2800 3675 2381 3056 
L 3013 3056 
Q 3294 3056 3581 3075 
Q 3563 2919 3581 2763 
Q 3294 2775 3013 2775 
L 2238 2775 
L 2238 2050 
L 2925 2050 
Q 3206 2050 3494 2063 
Q 3475 1913 3494 1756 
Q 3206 1769 2925 1769 
L 2238 1769 
L 2238 -156 
Q 2238 -413 2075 -581 
Q 1844 -794 1306 -794 
Q 1363 -519 1188 -288 
Q 1338 -313 1534 -316 
Q 1731 -319 1778 -278 
Q 1825 -238 1825 6 
z
M 1875 3388 
L 1500 3131 
L 825 4088 
L 1200 4350 
L 1875 3388 
z
M 3419 4713 
Q 3400 4563 3419 4406 
Q 3131 4419 2850 4419 
L 1125 4419 
Q 838 4419 556 4406 
Q 569 4563 556 4713 
Q 838 4700 1125 4700 
L 1763 4700 
L 1388 5088 
L 1719 5406 
L 2288 4813 
L 2175 4700 
L 2850 4700 
Q 3131 4700 3419 4713 
z
" transform="scale(0.015625)"/>
      <path id="WenQuanYiZenHei-589e" d="M 3138 -769 
Q 2913 -744 2688 -769 
Q 2706 -356 2706 56 
L 2706 1719 
L 5706 1719 
L 5706 -756 
L 5300 -756 
L 5300 -338 
L 3119 -338 
Q 3125 -550 3138 -769 
z
M 5113 3569 
Q 5344 3606 5563 3688 
Q 5669 3175 5256 2694 
Q 5113 2519 4975 2506 
Q 4831 2725 4588 2813 
Q 4806 2831 4997 3068 
Q 5188 3306 5113 3569 
z
M 3850 2763 
L 3469 2538 
L 2925 3456 
L 3313 3681 
L 3850 2763 
z
M 2400 2100 
Q 2469 3138 2400 4175 
L 3413 4175 
Q 3138 4550 2825 4888 
L 3156 5194 
Q 3581 4725 3938 4206 
L 3900 4175 
L 4456 4175 
Q 4863 4575 5131 5163 
Q 5325 5044 5538 4975 
Q 5369 4575 5013 4175 
L 6056 4175 
Q 5981 3138 6056 2100 
L 2400 2100 
z
M 5300 806 
L 5300 1450 
L 3113 1450 
Q 3113 1125 3113 806 
L 5300 806 
z
M 5300 563 
L 3113 563 
L 3113 -94 
L 5300 -94 
L 5300 563 
z
M 4431 3913 
L 4431 2363 
L 5650 2363 
L 5650 3913 
L 4756 3913 
L 4700 3856 
Q 4681 3888 4656 3913 
L 4431 3913 
z
M 4025 3913 
L 2806 3913 
L 2806 2363 
L 4025 2363 
L 4025 3913 
z
M -31 625 
Q 506 763 1006 975 
L 1006 3206 
L 669 3206 
Q 369 3206 75 3188 
Q 94 3356 75 3531 
Q 369 3513 669 3513 
L 1006 3513 
L 1006 4263 
Q 1006 4700 981 5131 
Q 1206 5106 1431 5131 
Q 1413 4700 1413 4263 
L 1413 3513 
L 2238 3531 
Q 2219 3356 2238 3188 
L 1413 3206 
L 1413 1163 
L 2150 1531 
L 2194 1256 
Q 1269 775 813 519 
L 194 144 
Q 138 438 -31 625 
z
" transform="scale(0.015625)"/>
      <path id="WenQuanYiZenHei-9884" d="M 1206 19 
L 1206 2888 
L 669 2888 
Q 356 2888 50 2869 
Q 63 3044 50 3213 
Q 363 3194 669 3194 
L 1250 3194 
Q 950 3631 606 4031 
L 963 4338 
L 1263 3975 
L 1913 4719 
L 731 4719 
Q 419 4719 106 4706 
Q 125 4875 106 5044 
Q 419 5031 731 5031 
L 2481 5031 
L 2544 4663 
Q 2394 4613 2256 4466 
Q 2119 4319 1525 3631 
Q 1656 3444 1788 3250 
L 1700 3194 
L 2700 3194 
L 2763 2825 
Q 2656 2819 2613 2763 
L 2100 2038 
L 1750 2288 
L 2175 2888 
L 1638 2888 
L 1638 -150 
Q 1638 -525 1363 -669 
Q 1075 -819 525 -813 
Q 594 -513 388 -294 
Q 575 -313 837 -316 
Q 1100 -319 1153 -272 
Q 1206 -225 1206 19 
z
M 5813 -888 
Q 5100 -225 4306 375 
L 4669 719 
Q 5481 106 6219 -575 
L 5813 -888 
z
M 2375 -906 
Q 2294 -631 2025 -506 
Q 2769 -431 3353 19 
Q 3938 469 3938 1069 
L 3938 2200 
Q 3938 2625 3913 3050 
Q 4188 3025 4456 3050 
Q 4431 2625 4431 2200 
L 4431 1069 
Q 4431 681 4225 319 
Q 3644 -606 2375 -906 
z
M 3444 488 
Q 3169 513 2894 488 
Q 2919 913 2919 1338 
L 2919 3675 
Q 3219 3675 3525 3675 
Q 3750 4013 3931 4525 
L 3238 4525 
Q 2888 4525 2538 4513 
Q 2556 4669 2538 4831 
Q 2888 4813 3238 4813 
L 5313 4813 
Q 5663 4813 6006 4831 
Q 5988 4669 6006 4513 
Q 5663 4525 5313 4525 
L 4481 4525 
Q 4388 4088 4088 3675 
L 5644 3675 
L 5644 513 
L 5144 513 
L 5144 3388 
L 3894 3388 
L 3875 3363 
Q 3863 3375 3844 3388 
Q 3631 3388 3413 3388 
L 3419 1338 
Q 3419 913 3444 488 
z
" transform="scale(0.015625)"/>
      <path id="WenQuanYiZenHei-6d4b" d="M 5450 138 
L 5450 4306 
Q 5450 4750 5425 5188 
Q 5663 5163 5906 5188 
Q 5881 4750 5881 4306 
L 5881 -38 
Q 5888 -569 5519 -719 
Q 5194 -831 4825 -813 
Q 4894 -519 4694 -281 
Q 4869 -306 5094 -309 
Q 5319 -313 5384 -256 
Q 5450 -200 5450 138 
z
M 4900 938 
Q 4663 963 4419 938 
Q 4444 1375 4444 1819 
L 4444 3381 
Q 4444 3819 4419 4263 
Q 4663 4238 4900 4263 
Q 4875 3819 4875 3381 
L 4875 1819 
Q 4875 1375 4900 938 
z
M 2750 2025 
L 2750 3038 
Q 2750 3481 2725 3919 
Q 2963 3894 3206 3919 
Q 3181 3481 3181 3038 
L 3181 2025 
Q 3181 1263 2919 625 
L 3231 956 
Q 3781 431 4256 -150 
L 3888 -456 
Q 3431 106 2906 600 
Q 2531 -288 1738 -769 
Q 1606 -519 1338 -450 
Q 1988 -156 2369 478 
Q 2750 1113 2750 2025 
z
M 2363 969 
Q 2119 994 1881 969 
Q 1906 1406 1906 1850 
L 1906 5038 
L 3956 5031 
L 3956 1200 
L 3525 1200 
L 3525 4713 
L 2338 4713 
L 2338 1850 
Q 2338 1406 2363 969 
z
M 663 -738 
Q 481 -588 206 -575 
Q 400 -69 606 581 
Q 813 1231 1200 2838 
L 1381 2706 
L 875 338 
L 663 -738 
z
M 1006 2856 
L 731 2550 
L 75 3400 
L 350 3713 
L 1006 2856 
z
M 1088 3913 
Q 781 4388 425 4800 
L 694 5125 
Q 1069 4688 1388 4188 
L 1088 3913 
z
" transform="scale(0.015625)"/>
      <path id="WenQuanYiZenHei-20" transform="scale(0.015625)"/>
      <path id="WenQuanYiZenHei-5e7f" d="M 944 4338 
L 3169 4344 
Q 2950 4731 2681 5094 
L 3100 5400 
Q 3475 4894 3763 4344 
L 5294 4344 
Q 5719 4344 6138 4363 
Q 6113 4131 6138 3906 
Q 5719 3925 5294 3925 
L 1419 3925 
L 1425 1419 
Q 1431 0 619 -756 
Q 450 -525 169 -469 
Q 975 75 950 1419 
L 944 4338 
z
" transform="scale(0.015625)"/>
      <path id="WenQuanYiZenHei-4e1c" d="M 6131 -19 
L 5750 -350 
L 4888 625 
L 3988 1563 
L 4344 1919 
L 5256 969 
L 6131 -19 
z
M 2144 1825 
Q 2344 1669 2569 1556 
Q 1850 350 438 -563 
Q 338 -338 131 -219 
Q 738 156 1194 622 
Q 1650 1088 2144 1825 
z
M 3244 2050 
L 1150 2050 
L 2163 3881 
L 1219 3881 
Q 838 3881 456 3863 
Q 481 4069 456 4275 
Q 838 4256 1219 4256 
L 2369 4256 
L 2538 4556 
Q 2763 4963 2969 5381 
Q 3175 5238 3406 5138 
Q 3163 4744 2938 4331 
L 2894 4256 
L 5375 4256 
Q 5756 4256 6138 4275 
Q 6113 4069 6138 3863 
Q 5756 3881 5375 3881 
L 2688 3881 
L 1881 2425 
L 3244 2425 
Q 3244 2881 3225 3338 
Q 3475 3313 3725 3338 
Q 3706 2881 3706 2425 
L 5650 2425 
L 5650 2050 
L 3706 2050 
L 3706 -119 
Q 3706 -506 3419 -663 
Q 3113 -831 2575 -825 
Q 2644 -513 2431 -269 
Q 2619 -294 2875 -297 
Q 3131 -300 3188 -250 
Q 3244 -194 3244 63 
L 3244 2050 
z
" transform="scale(0.015625)"/>
     </defs>
     <use xlink:href="#WenQuanYiZenHei-6bcf"/>
     <use xlink:href="#WenQuanYiZenHei-65e5" x="100"/>
     <use xlink:href="#WenQuanYiZenHei-65b0" x="200"/>
     <use xlink:href="#WenQuanYiZenHei-589e" x="300"/>
     <use xlink:href="#WenQuanYiZenHei-9884" x="400"/>
     <use xlink:href="#WenQuanYiZenHei-6d4b" x="500"/>
     <use xlink:href="#WenQuanYiZenHei-20" x="600"/>
     <use xlink:href="#WenQuanYiZenHei-2d" x="629.980469"/>
     <use xlink:href="#WenQuanYiZenHei-20" x="659.960938"/>
     <use xlink:href="#WenQuanYiZenHei-5e7f" x="689.941406"/>
     <use xlink:href="#WenQuanYiZenHei-4e1c" x="789.941406"/>
    </g>
    <!-- ARIMA (0, 1, 1)x(0, 0, 0, 7) (R2 = 0.987912) -->
    <g transform="translate(583.182813 29.061)scale(0.12 -0.12)">
     <defs>
      <path id="WenQuanYiZenHei-41" d="M 3550 0 
L 2988 0 
L 2550 1281 
L 919 1281 
L 531 0 
L 69 0 
L 1494 4388 
L 2125 4388 
L 3550 0 
z
M 2425 1694 
L 1756 3800 
L 1075 1694 
L 2425 1694 
z
" transform="scale(0.015625)"/>
      <path id="WenQuanYiZenHei-52" d="M 3675 0 
L 3100 0 
L 2288 1900 
L 1069 1900 
L 1069 0 
L 519 0 
L 519 4388 
L 2163 4388 
Q 3006 4388 3400 3900 
Q 3581 3663 3625 3325 
Q 3631 3250 3631 3163 
Q 3631 2594 3219 2244 
Q 3038 2100 2813 2038 
L 3675 0 
z
M 3081 3169 
Q 3081 3825 2356 3906 
Q 2263 3919 2163 3919 
L 1069 3919 
L 1069 2350 
L 2100 2350 
Q 2906 2350 3044 2919 
Q 3081 3031 3081 3169 
z
" transform="scale(0.015625)"/>
      <path id="WenQuanYiZenHei-49" d="M 1100 0 
L 550 0 
L 550 4388 
L 1100 4388 
L 1100 0 
z
" transform="scale(0.015625)"/>
      <path id="WenQuanYiZenHei-4d" d="M 4756 0 
L 4206 0 
L 4206 3831 
L 4181 3831 
L 2788 0 
L 2419 0 
L 1000 3831 
L 975 3831 
L 975 0 
L 513 0 
L 513 4388 
L 1331 4388 
L 2656 875 
L 3950 4388 
L 4756 4388 
L 4756 0 
z
" transform="scale(0.015625)"/>
      <path id="WenQuanYiZenHei-28" d="M 1606 -1094 
L 1275 -1094 
Q 475 -100 338 1231 
Q 319 1438 319 1656 
Q 319 3031 1156 4244 
Q 1213 4313 1269 4388 
L 1600 4388 
Q 806 3169 794 1681 
Q 794 188 1606 -1094 
z
" transform="scale(0.015625)"/>
      <path id="WenQuanYiZenHei-2c" d="M 1363 75 
L 881 -825 
L 606 -825 
L 994 0 
L 656 0 
L 656 738 
L 1363 738 
L 1363 75 
z
" transform="scale(0.015625)"/>
      <path id="WenQuanYiZenHei-29" d="M 1600 1656 
Q 1600 306 869 -788 
Q 769 -950 644 -1094 
L 313 -1094 
Q 1125 188 1125 1681 
Q 1125 3169 338 4363 
Q 325 4375 319 4388 
L 650 4388 
Q 1525 3231 1594 1863 
Q 1600 1763 1600 1656 
z
" transform="scale(0.015625)"/>
      <path id="WenQuanYiZenHei-78" d="M 2806 0 
L 2213 0 
L 1394 1319 
L 544 0 
L 50 0 
L 1144 1681 
L 163 3250 
L 744 3250 
L 1431 2138 
L 2144 3250 
L 2631 3250 
L 1681 1794 
L 2806 0 
z
" transform="scale(0.015625)"/>
      <path id="WenQuanYiZenHei-3d" d="M 3569 2256 
L 263 2256 
L 263 2675 
L 3569 2675 
L 3569 2256 
z
M 3569 1019 
L 263 1019 
L 263 1431 
L 3569 1431 
L 3569 1019 
z
" transform="scale(0.015625)"/>
      <path id="WenQuanYiZenHei-2e" d="M 1344 0 
L 631 0 
L 631 725 
L 1344 725 
L 1344 0 
z
" transform="scale(0.015625)"/>
      <path id="WenQuanYiZenHei-39" d="M 3544 2300 
Q 3544 1163 3019 513 
Q 2563 -63 1775 -63 
Q 956 -63 563 488 
Q 463 631 394 813 
L 838 975 
Q 1025 494 1550 388 
Q 1656 369 1775 369 
Q 2594 369 2900 1325 
Q 3044 1769 3038 2313 
L 3025 2313 
Q 2675 1638 1944 1544 
Q 1844 1531 1744 1531 
Q 1050 1531 625 2031 
Q 294 2419 294 2963 
Q 294 3656 813 4094 
Q 1238 4456 1819 4456 
Q 2988 4456 3381 3363 
Q 3544 2900 3544 2300 
z
M 2925 2994 
Q 2925 3563 2469 3844 
Q 2206 4006 1863 4006 
Q 1275 4006 988 3563 
Q 844 3344 825 3056 
Q 819 3006 819 2956 
Q 819 2413 1269 2131 
Q 1538 1963 1875 1963 
Q 2363 1963 2681 2350 
Q 2925 2638 2925 2994 
z
" transform="scale(0.015625)"/>
     </defs>
     <use xlink:href="#WenQuanYiZenHei-41"/>
     <use xlink:href="#WenQuanYiZenHei-52" x="55.957031"/>
     <use xlink:href="#WenQuanYiZenHei-49" x="117.871094"/>
     <use xlink:href="#WenQuanYiZenHei-4d" x="143.847656"/>
     <use xlink:href="#WenQuanYiZenHei-41" x="225.78125"/>
     <use xlink:href="#WenQuanYiZenHei-20" x="281.738281"/>
     <use xlink:href="#WenQuanYiZenHei-28" x="311.71875"/>
     <use xlink:href="#WenQuanYiZenHei-30" x="341.699219"/>
     <use xlink:href="#WenQuanYiZenHei-2c" x="401.660156"/>
     <use xlink:href="#WenQuanYiZenHei-20" x="431.640625"/>
     <use xlink:href="#WenQuanYiZenHei-31" x="461.621094"/>
     <use xlink:href="#WenQuanYiZenHei-2c" x="521.582031"/>
     <use xlink:href="#WenQuanYiZenHei-20" x="551.5625"/>
     <use xlink:href="#WenQuanYiZenHei-31" x="581.542969"/>
     <use xlink:href="#WenQuanYiZenHei-29" x="641.503906"/>
     <use xlink:href="#WenQuanYiZenHei-78" x="671.484375"/>
     <use xlink:href="#WenQuanYiZenHei-28" x="715.429688"/>
     <use xlink:href="#WenQuanYiZenHei-30" x="745.410156"/>
     <use xlink:href="#WenQuanYiZenHei-2c" x="805.371094"/>
     <use xlink:href="#WenQuanYiZenHei-20" x="835.351562"/>
     <use xlink:href="#WenQuanYiZenHei-30" x="865.332031"/>
     <use xlink:href="#WenQuanYiZenHei-2c" x="925.292969"/>
     <use xlink:href="#WenQuanYiZenHei-20" x="955.273438"/>
     <use xlink:href="#WenQuanYiZenHei-30" x="985.253906"/>
     <use xlink:href="#WenQuanYiZenHei-2c" x="1045.214844"/>
     <use xlink:href="#WenQuanYiZenHei-20" x="1075.195312"/>
     <use xlink:href="#WenQuanYiZenHei-37" x="1105.175781"/>
     <use xlink:href="#WenQuanYiZenHei-29" x="1165.136719"/>
     <use xlink:href="#WenQuanYiZenHei-20" x="1195.117188"/>
     <use xlink:href="#WenQuanYiZenHei-28" x="1225.097656"/>
     <use xlink:href="#WenQuanYiZenHei-52" x="1255.078125"/>
     <use xlink:href="#WenQuanYiZenHei-32" x="1316.992188"/>
     <use xlink:href="#WenQuanYiZenHei-20" x="1376.953125"/>
     <use xlink:href="#WenQuanYiZenHei-3d" x="1406.933594"/>
     <use xlink:href="#WenQuanYiZenHei-20" x="1466.894531"/>
     <use xlink:href="#WenQuanYiZenHei-30" x="1496.875"/>
     <use xlink:href="#WenQuanYiZenHei-2e" x="1556.835938"/>
     <use xlink:href="#WenQuanYiZenHei-39" x="1586.816406"/>
     <use xlink:href="#WenQuanYiZenHei-38" x="1646.777344"/>
     <use xlink:href="#WenQuanYiZenHei-37" x="1706.738281"/>
     <use xlink:href="#WenQuanYiZenHei-39" x="1766.699219"/>
     <use xlink:href="#WenQuanYiZenHei-31" x="1826.660156"/>
     <use xlink:href="#WenQuanYiZenHei-32" x="1886.621094"/>
     <use xlink:href="#WenQuanYiZenHei-29" x="1946.582031"/>
    </g>
   </g>
   <g id="legend_1">
    <g id="patch_7">
     <path d="M 1302.390625 87.056312 
L 1364.390625 87.056312 
Q 1366.390625 87.056312 1366.390625 85.056312 
L 1366.390625 42.061 
Q 1366.390625 40.061 1364.390625 40.061 
L 1302.390625 40.061 
Q 1300.390625 40.061 1300.390625 42.061 
L 1300.390625 85.056312 
Q 1300.390625 87.056312 1302.390625 87.056312 
z
" style="fill: #ffffff; opacity: 0.8; stroke: #cccccc; stroke-linejoin: miter"/>
    </g>
    <g id="line2d_23">
     <path d="M 1304.390625 48.695375 
L 1314.390625 48.695375 
L 1324.390625 48.695375 
" style="fill: none; stroke: #0000ff; stroke-width: 1.5; stroke-linecap: square"/>
    </g>
    <g id="text_21">
     <!-- 实际值 -->
     <g transform="translate(1332.390625 52.195375)scale(0.1 -0.1)">
      <defs>
       <path id="WenQuanYiZenHei-5b9e" d="M 1025 1175 
Q 694 1175 356 1163 
Q 375 1344 356 1525 
Q 694 1506 1025 1506 
L 3363 1506 
L 3363 2625 
Q 3363 3075 3338 3519 
Q 3581 3494 3825 3519 
Q 3800 3075 3800 2625 
L 3800 1506 
L 5406 1506 
Q 5744 1506 6075 1525 
Q 6056 1344 6075 1163 
Q 5744 1175 5406 1175 
L 4038 1175 
L 4981 456 
L 6131 -488 
L 5819 -856 
L 4681 75 
L 3638 875 
Q 3313 231 2475 -231 
Q 1638 -694 700 -825 
Q 638 -519 344 -400 
Q 1450 -319 2406 244 
Q 3113 656 3300 1175 
L 1025 1175 
z
M 2263 1581 
Q 1763 2081 1200 2513 
L 1494 2894 
Q 2081 2444 2600 1919 
L 2263 1581 
z
M 2638 2500 
Q 2219 2963 1731 3363 
L 2044 3738 
Q 2556 3313 3000 2819 
L 2638 2500 
z
M 919 3156 
L 481 3156 
L 481 4344 
L 3069 4344 
Q 2794 4731 2469 5081 
L 2825 5413 
Q 3256 4944 3613 4413 
L 3513 4344 
L 5869 4344 
L 5869 3156 
L 5425 3156 
L 5425 4013 
L 919 4013 
L 919 3156 
z
" transform="scale(0.015625)"/>
       <path id="WenQuanYiZenHei-9645" d="M 6000 431 
L 5569 194 
L 4963 1219 
L 4313 2219 
L 4719 2494 
L 5375 1481 
L 6000 431 
z
M 2956 2450 
Q 3181 2344 3419 2294 
Q 3006 1038 1944 -188 
Q 1794 -6 1569 56 
Q 2069 600 2372 1156 
Q 2675 1713 2956 2450 
z
M 3750 25 
L 3750 2913 
L 2819 2913 
Q 2475 2913 2125 2894 
Q 2144 3081 2125 3269 
Q 2475 3256 2819 3256 
L 5469 3256 
Q 5819 3256 6163 3269 
Q 6144 3081 6163 2894 
Q 5813 2913 5469 2913 
L 4194 2913 
L 4194 -144 
Q 4194 -725 3456 -813 
L 3263 -825 
Q 3325 -506 3125 -250 
Q 3250 -281 3394 -306 
Q 3663 -313 3706 -272 
Q 3750 -231 3750 25 
z
M 5544 4950 
Q 5525 4756 5544 4569 
Q 5194 4588 4844 4588 
L 3325 4588 
Q 2975 4588 2625 4569 
Q 2644 4756 2625 4950 
Q 2975 4931 3325 4931 
L 4844 4931 
Q 5194 4931 5544 4950 
z
M 819 -850 
Q 581 -825 344 -850 
Q 369 -419 369 19 
L 363 4938 
L 2256 4938 
L 2256 4625 
Q 2150 4513 2075 4375 
L 1481 3238 
Q 2181 2319 2181 1156 
Q 2144 400 1569 163 
L 1406 88 
Q 1288 300 1138 481 
Q 1294 538 1450 606 
Q 1763 744 1794 1156 
Q 1794 1744 1600 2300 
Q 1406 2856 1038 3313 
L 1725 4625 
L 788 4625 
L 794 19 
Q 794 -419 819 -850 
z
" transform="scale(0.015625)"/>
       <path id="WenQuanYiZenHei-503c" d="M 6175 -219 
Q 6156 -388 6175 -556 
Q 5863 -544 5550 -544 
L 2313 -544 
Q 2000 -544 1688 -556 
Q 1706 -388 1688 -219 
L 2506 -231 
L 2506 3469 
L 3644 3469 
L 3644 4119 
L 2638 4119 
Q 2325 4119 2013 4100 
Q 2031 4269 2013 4438 
Q 2325 4425 2638 4425 
L 3638 4425 
Q 3638 4719 3619 5013 
Q 3856 4988 4094 5013 
Q 4075 4719 4075 4425 
L 5344 4425 
Q 5650 4425 5963 4438 
Q 5950 4269 5963 4100 
Q 5656 4119 5344 4119 
L 4069 4119 
L 4069 3469 
L 5300 3469 
L 5300 -231 
L 5550 -231 
Q 5863 -231 6175 -219 
z
M 4869 2556 
L 4869 3156 
L 2931 3156 
Q 2931 2850 2931 2556 
L 4869 2556 
z
M 4869 1669 
L 4869 2250 
L 2931 2250 
L 2931 1669 
L 4869 1669 
z
M 4869 731 
L 4869 1363 
L 2931 1363 
L 2931 731 
L 4869 731 
z
M 4869 -231 
L 4869 425 
L 2931 425 
L 2931 -231 
L 4869 -231 
z
M 2106 4925 
Q 1856 4075 1463 3338 
L 1463 31 
Q 1463 -413 1481 -850 
Q 1256 -825 1031 -850 
Q 1050 -413 1050 31 
L 1050 2681 
Q 750 2269 375 1931 
Q 238 2156 0 2256 
Q 331 2544 619 2875 
Q 1094 3425 1300 3950 
Q 1494 4469 1625 5050 
Q 1850 4963 2106 4925 
z
" transform="scale(0.015625)"/>
      </defs>
      <use xlink:href="#WenQuanYiZenHei-5b9e"/>
      <use xlink:href="#WenQuanYiZenHei-9645" x="100"/>
      <use xlink:href="#WenQuanYiZenHei-503c" x="200"/>
     </g>
    </g>
    <g id="line2d_24">
     <path d="M 1304.390625 63.3735 
L 1314.390625 63.3735 
L 1324.390625 63.3735 
" style="fill: none; stroke: #ffa500; stroke-width: 1.5; stroke-linecap: square"/>
    </g>
    <g id="text_22">
     <!-- 校验值 -->
     <g transform="translate(1332.390625 66.8735)scale(0.1 -0.1)">
      <defs>
       <path id="WenQuanYiZenHei-6821" d="M 5256 2463 
Q 5025 1475 4494 706 
Q 5125 -94 6175 -544 
Q 5950 -663 5850 -900 
Q 4906 -494 4250 381 
Q 3931 0 3475 -350 
Q 3019 -700 2388 -919 
Q 2338 -656 2138 -475 
Q 3306 -69 4006 738 
Q 3563 1444 3300 2331 
Q 3050 2050 2706 1800 
Q 2606 2000 2406 2106 
Q 2900 2444 3181 2938 
Q 3350 3225 3488 3538 
Q 3700 3431 3925 3369 
Q 3763 2894 3425 2475 
L 3650 2531 
Q 3888 1675 4244 1075 
Q 4469 1444 4603 1937 
Q 4738 2431 4775 2688 
Q 4963 2644 5150 2625 
Q 4919 2969 4663 3294 
L 5038 3588 
Q 5544 2925 5975 2213 
L 5569 1969 
L 5256 2463 
z
M 6006 4050 
Q 5988 3881 6006 3713 
Q 5694 3725 5381 3725 
L 3413 3725 
Q 3100 3725 2788 3713 
Q 2806 3881 2788 4050 
Q 3100 4031 3413 4031 
L 4325 4031 
Q 4019 4525 3644 4969 
L 4000 5275 
Q 4413 4788 4750 4244 
L 4406 4031 
L 5381 4031 
Q 5694 4031 6006 4050 
z
M 406 263 
Q 238 431 -25 469 
Q 194 825 466 1337 
Q 738 1850 925 2406 
Q 1113 2963 1256 3519 
L 825 3519 
Q 506 3519 188 3500 
Q 206 3700 188 3900 
Q 506 3881 825 3881 
L 1363 3881 
L 1363 4263 
Q 1363 4719 1338 5175 
Q 1556 5150 1775 5175 
Q 1756 4719 1756 4263 
L 1756 3881 
L 2525 3900 
Q 2506 3700 2525 3500 
L 1756 3519 
L 1756 2738 
L 1931 2881 
Q 2306 2300 2613 1650 
L 2231 1413 
Q 2081 1725 1919 2019 
L 1756 2300 
L 1756 69 
Q 1756 -388 1775 -850 
Q 1556 -825 1338 -850 
Q 1363 -388 1363 69 
L 1363 2438 
Q 925 1144 406 263 
z
" transform="scale(0.015625)"/>
       <path id="WenQuanYiZenHei-9a8c" d="M 5981 -106 
Q 5963 -275 5981 -444 
Q 5669 -431 5356 -431 
L 2969 -431 
Q 2656 -431 2350 -444 
Q 2363 -275 2350 -106 
Q 2656 -125 2969 -125 
L 4369 -125 
Q 4600 431 4881 1288 
L 5206 2300 
Q 5425 2206 5663 2163 
Q 5375 1188 4831 -125 
L 5356 -125 
Q 5669 -125 5981 -106 
z
M 4063 594 
Q 3788 1425 3425 2219 
L 3856 2419 
Q 4225 1600 4513 744 
L 4063 594 
z
M 3163 363 
Q 2931 1200 2613 2006 
L 3056 2175 
Q 3381 1350 3619 488 
L 3163 363 
z
M 4581 2550 
L 3513 2550 
Q 3200 2550 2888 2538 
Q 2900 2663 2894 2769 
Q 2569 2488 2206 2300 
Q 2113 2550 1894 2700 
Q 2488 2975 2975 3463 
Q 3269 3756 3394 4006 
Q 3644 4513 3794 5063 
Q 4038 4975 4294 4931 
Q 4250 4806 4206 4681 
Q 4475 3888 5025 3388 
Q 5519 2938 6169 2650 
Q 5938 2538 5838 2300 
Q 5513 2456 5200 2700 
Q 5200 2619 5206 2538 
Q 4894 2550 4581 2550 
z
M 3513 2863 
L 4994 2869 
Q 4344 3438 3988 4194 
Q 3594 3406 3013 2869 
Q 3263 2863 3513 2863 
z
M 206 444 
Q 188 756 44 963 
Q 319 956 650 1003 
Q 981 1050 1731 1281 
L 1738 1006 
Q 800 719 206 444 
z
M 525 4000 
Q 744 3950 994 3944 
Q 925 3519 875 3081 
L 763 2144 
L 1475 2144 
L 1831 4444 
L 663 4444 
Q 350 4444 38 4431 
Q 56 4600 38 4769 
Q 350 4756 663 4756 
L 2313 4756 
L 1913 2144 
L 2375 2144 
L 2200 -200 
Q 2188 -425 1988 -588 
Q 1694 -800 1181 -788 
L 944 -788 
Q 1000 -450 788 -269 
Q 1013 -294 1334 -287 
Q 1656 -281 1715 -243 
Q 1775 -206 1781 -50 
L 1925 1831 
L 294 1831 
L 444 3131 
Q 500 3569 525 4000 
z
" transform="scale(0.015625)"/>
      </defs>
      <use xlink:href="#WenQuanYiZenHei-6821"/>
      <use xlink:href="#WenQuanYiZenHei-9a8c" x="100"/>
      <use xlink:href="#WenQuanYiZenHei-503c" x="200"/>
     </g>
    </g>
    <g id="line2d_25">
     <path d="M 1304.390625 77.895375 
L 1314.390625 77.895375 
L 1324.390625 77.895375 
" style="fill: none; stroke: #ff0000; stroke-width: 1.5; stroke-linecap: square"/>
    </g>
    <g id="text_23">
     <!-- 预测值 -->
     <g transform="translate(1332.390625 81.395375)scale(0.1 -0.1)">
      <use xlink:href="#WenQuanYiZenHei-9884"/>
      <use xlink:href="#WenQuanYiZenHei-6d4b" x="100"/>
      <use xlink:href="#WenQuanYiZenHei-503c" x="200"/>
     </g>
    </g>
   </g>
  </g>
 </g>
 <defs>
  <clipPath id="pc3b8cb99a6">
   <rect x="32.190625" y="35.061" width="1339.2" height="332.64"/>
  </clipPath>
 </defs>
</svg>
