<?xml version="1.0" encoding="utf-8" standalone="no"?>
<!DOCTYPE svg PUBLIC "-//W3C//DTD SVG 1.1//EN"
  "http://www.w3.org/Graphics/SVG/1.1/DTD/svg11.dtd">
<svg xmlns:xlink="http://www.w3.org/1999/xlink" width="1384.5875pt" height="390.594438pt" viewBox="0 0 1384.5875 390.594438" xmlns="http://www.w3.org/2000/svg" version="1.1">
 <metadata>
  <rdf:RDF xmlns:dc="http://purl.org/dc/elements/1.1/" xmlns:cc="http://creativecommons.org/ns#" xmlns:rdf="http://www.w3.org/1999/02/22-rdf-syntax-ns#">
   <cc:Work>
    <dc:type rdf:resource="http://purl.org/dc/dcmitype/StillImage"/>
    <dc:date>2022-06-26T18:14:04.697129</dc:date>
    <dc:format>image/svg+xml</dc:format>
    <dc:creator>
     <cc:Agent>
      <dc:title>Matplotlib v3.5.2, https://matplotlib.org/</dc:title>
     </cc:Agent>
    </dc:creator>
   </cc:Work>
  </rdf:RDF>
 </metadata>
 <defs>
  <style type="text/css">*{stroke-linejoin: round; stroke-linecap: butt}</style>
 </defs>
 <g id="figure_1">
  <g id="patch_1">
   <path d="M 0 390.594438 
L 1384.5875 390.594438 
L 1384.5875 0 
L 0 0 
z
" style="fill: #ffffff"/>
  </g>
  <g id="axes_1">
   <g id="patch_2">
    <path d="M 38.1875 367.87725 
L 1377.3875 367.87725 
L 1377.3875 35.23725 
L 38.1875 35.23725 
z
" style="fill: #ffffff"/>
   </g>
   <g id="matplotlib.axis_1">
    <g id="xtick_1">
     <g id="line2d_1">
      <defs>
       <path id="m03dd408d6a" d="M 0 0 
L 0 3.5 
" style="stroke: #000000; stroke-width: 0.8"/>
      </defs>
      <g>
       <use xlink:href="#m03dd408d6a" x="70.589687" y="367.87725" style="stroke: #000000; stroke-width: 0.8"/>
      </g>
     </g>
     <g id="text_1">
      <!-- 2020-01 -->
      <g transform="translate(51.099843 381.7335)scale(0.1 -0.1)">
       <defs>
        <path id="WenQuanYiZenHei-32" d="M 3488 0 
L 369 0 
L 369 456 
L 2150 1850 
Q 2931 2463 2931 3144 
Q 2931 3619 2488 3863 
Q 2231 4013 1931 4013 
Q 1425 4013 1113 3619 
Q 894 3356 881 3013 
L 369 3169 
Q 531 3981 1213 4300 
Q 1544 4456 1950 4456 
Q 2631 4456 3088 4044 
L 3225 3888 
L 3350 3706 
Q 3481 3444 3481 3144 
Q 3481 2313 2519 1569 
L 1069 456 
L 3488 456 
L 3488 0 
z
" transform="scale(0.015625)"/>
        <path id="WenQuanYiZenHei-30" d="M 3581 2175 
Q 3581 1288 3169 638 
Q 2713 -63 1938 -63 
Q 1025 -63 563 831 
Q 256 1425 256 2188 
Q 256 3188 700 3819 
Q 1138 4456 1888 4456 
Q 2863 4456 3306 3500 
Q 3581 2925 3581 2175 
z
M 3019 2100 
Q 3019 3356 2500 3806 
L 2350 3919 
Q 2144 4031 1888 4031 
Q 1100 4031 888 2956 
Q 819 2625 819 2225 
Q 819 1013 1338 569 
Q 1588 356 1938 356 
Q 2675 356 2925 1294 
Q 3019 1663 3019 2100 
z
" transform="scale(0.015625)"/>
        <path id="WenQuanYiZenHei-2d" d="M 1363 1444 
L 0 1444 
L 0 1844 
L 1363 1844 
L 1363 1444 
z
" transform="scale(0.015625)"/>
        <path id="WenQuanYiZenHei-31" d="M 3556 0 
L 488 0 
L 488 406 
L 1800 406 
L 1800 3725 
Q 1231 3125 588 2788 
L 588 3338 
Q 1456 3781 1931 4388 
L 2331 4388 
L 2331 406 
L 3556 406 
L 3556 0 
z
" transform="scale(0.015625)"/>
       </defs>
       <use xlink:href="#WenQuanYiZenHei-32"/>
       <use xlink:href="#WenQuanYiZenHei-30" x="59.960938"/>
       <use xlink:href="#WenQuanYiZenHei-32" x="119.921875"/>
       <use xlink:href="#WenQuanYiZenHei-30" x="179.882812"/>
       <use xlink:href="#WenQuanYiZenHei-2d" x="239.84375"/>
       <use xlink:href="#WenQuanYiZenHei-30" x="269.824219"/>
       <use xlink:href="#WenQuanYiZenHei-31" x="329.785156"/>
      </g>
     </g>
    </g>
    <g id="xtick_2">
     <g id="line2d_2">
      <g>
       <use xlink:href="#m03dd408d6a" x="193.962029" y="367.87725" style="stroke: #000000; stroke-width: 0.8"/>
      </g>
     </g>
     <g id="text_2">
      <!-- 2020-04 -->
      <g transform="translate(174.472186 381.7335)scale(0.1 -0.1)">
       <defs>
        <path id="WenQuanYiZenHei-34" d="M 3631 1025 
L 2913 1025 
L 2913 0 
L 2381 0 
L 2381 1025 
L 219 1025 
L 219 1388 
L 2225 4388 
L 2913 4388 
L 2913 1444 
L 3631 1444 
L 3631 1025 
z
M 2381 1444 
L 2381 3963 
L 788 1444 
L 2381 1444 
z
" transform="scale(0.015625)"/>
       </defs>
       <use xlink:href="#WenQuanYiZenHei-32"/>
       <use xlink:href="#WenQuanYiZenHei-30" x="59.960938"/>
       <use xlink:href="#WenQuanYiZenHei-32" x="119.921875"/>
       <use xlink:href="#WenQuanYiZenHei-30" x="179.882812"/>
       <use xlink:href="#WenQuanYiZenHei-2d" x="239.84375"/>
       <use xlink:href="#WenQuanYiZenHei-30" x="269.824219"/>
       <use xlink:href="#WenQuanYiZenHei-34" x="329.785156"/>
      </g>
     </g>
    </g>
    <g id="xtick_3">
     <g id="line2d_3">
      <g>
       <use xlink:href="#m03dd408d6a" x="317.334372" y="367.87725" style="stroke: #000000; stroke-width: 0.8"/>
      </g>
     </g>
     <g id="text_3">
      <!-- 2020-07 -->
      <g transform="translate(297.844528 381.7335)scale(0.1 -0.1)">
       <defs>
        <path id="WenQuanYiZenHei-37" d="M 3400 4056 
Q 1838 2175 1838 0 
L 1275 0 
Q 1269 1438 2056 2825 
Q 2381 3400 2825 3913 
L 444 3913 
L 500 4388 
L 3400 4388 
L 3400 4056 
z
" transform="scale(0.015625)"/>
       </defs>
       <use xlink:href="#WenQuanYiZenHei-32"/>
       <use xlink:href="#WenQuanYiZenHei-30" x="59.960938"/>
       <use xlink:href="#WenQuanYiZenHei-32" x="119.921875"/>
       <use xlink:href="#WenQuanYiZenHei-30" x="179.882812"/>
       <use xlink:href="#WenQuanYiZenHei-2d" x="239.84375"/>
       <use xlink:href="#WenQuanYiZenHei-30" x="269.824219"/>
       <use xlink:href="#WenQuanYiZenHei-37" x="329.785156"/>
      </g>
     </g>
    </g>
    <g id="xtick_4">
     <g id="line2d_4">
      <g>
       <use xlink:href="#m03dd408d6a" x="442.062454" y="367.87725" style="stroke: #000000; stroke-width: 0.8"/>
      </g>
     </g>
     <g id="text_4">
      <!-- 2020-10 -->
      <g transform="translate(422.572611 381.7335)scale(0.1 -0.1)">
       <use xlink:href="#WenQuanYiZenHei-32"/>
       <use xlink:href="#WenQuanYiZenHei-30" x="59.960938"/>
       <use xlink:href="#WenQuanYiZenHei-32" x="119.921875"/>
       <use xlink:href="#WenQuanYiZenHei-30" x="179.882812"/>
       <use xlink:href="#WenQuanYiZenHei-2d" x="239.84375"/>
       <use xlink:href="#WenQuanYiZenHei-31" x="269.824219"/>
       <use xlink:href="#WenQuanYiZenHei-30" x="329.785156"/>
      </g>
     </g>
    </g>
    <g id="xtick_5">
     <g id="line2d_5">
      <g>
       <use xlink:href="#m03dd408d6a" x="566.790537" y="367.87725" style="stroke: #000000; stroke-width: 0.8"/>
      </g>
     </g>
     <g id="text_5">
      <!-- 2021-01 -->
      <g transform="translate(547.300693 381.7335)scale(0.1 -0.1)">
       <use xlink:href="#WenQuanYiZenHei-32"/>
       <use xlink:href="#WenQuanYiZenHei-30" x="59.960938"/>
       <use xlink:href="#WenQuanYiZenHei-32" x="119.921875"/>
       <use xlink:href="#WenQuanYiZenHei-31" x="179.882812"/>
       <use xlink:href="#WenQuanYiZenHei-2d" x="239.84375"/>
       <use xlink:href="#WenQuanYiZenHei-30" x="269.824219"/>
       <use xlink:href="#WenQuanYiZenHei-31" x="329.785156"/>
      </g>
     </g>
    </g>
    <g id="xtick_6">
     <g id="line2d_6">
      <g>
       <use xlink:href="#m03dd408d6a" x="688.80714" y="367.87725" style="stroke: #000000; stroke-width: 0.8"/>
      </g>
     </g>
     <g id="text_6">
      <!-- 2021-04 -->
      <g transform="translate(669.317296 381.7335)scale(0.1 -0.1)">
       <use xlink:href="#WenQuanYiZenHei-32"/>
       <use xlink:href="#WenQuanYiZenHei-30" x="59.960938"/>
       <use xlink:href="#WenQuanYiZenHei-32" x="119.921875"/>
       <use xlink:href="#WenQuanYiZenHei-31" x="179.882812"/>
       <use xlink:href="#WenQuanYiZenHei-2d" x="239.84375"/>
       <use xlink:href="#WenQuanYiZenHei-30" x="269.824219"/>
       <use xlink:href="#WenQuanYiZenHei-34" x="329.785156"/>
      </g>
     </g>
    </g>
    <g id="xtick_7">
     <g id="line2d_7">
      <g>
       <use xlink:href="#m03dd408d6a" x="812.179482" y="367.87725" style="stroke: #000000; stroke-width: 0.8"/>
      </g>
     </g>
     <g id="text_7">
      <!-- 2021-07 -->
      <g transform="translate(792.689638 381.7335)scale(0.1 -0.1)">
       <use xlink:href="#WenQuanYiZenHei-32"/>
       <use xlink:href="#WenQuanYiZenHei-30" x="59.960938"/>
       <use xlink:href="#WenQuanYiZenHei-32" x="119.921875"/>
       <use xlink:href="#WenQuanYiZenHei-31" x="179.882812"/>
       <use xlink:href="#WenQuanYiZenHei-2d" x="239.84375"/>
       <use xlink:href="#WenQuanYiZenHei-30" x="269.824219"/>
       <use xlink:href="#WenQuanYiZenHei-37" x="329.785156"/>
      </g>
     </g>
    </g>
    <g id="xtick_8">
     <g id="line2d_8">
      <g>
       <use xlink:href="#m03dd408d6a" x="936.907565" y="367.87725" style="stroke: #000000; stroke-width: 0.8"/>
      </g>
     </g>
     <g id="text_8">
      <!-- 2021-10 -->
      <g transform="translate(917.417721 381.7335)scale(0.1 -0.1)">
       <use xlink:href="#WenQuanYiZenHei-32"/>
       <use xlink:href="#WenQuanYiZenHei-30" x="59.960938"/>
       <use xlink:href="#WenQuanYiZenHei-32" x="119.921875"/>
       <use xlink:href="#WenQuanYiZenHei-31" x="179.882812"/>
       <use xlink:href="#WenQuanYiZenHei-2d" x="239.84375"/>
       <use xlink:href="#WenQuanYiZenHei-31" x="269.824219"/>
       <use xlink:href="#WenQuanYiZenHei-30" x="329.785156"/>
      </g>
     </g>
    </g>
    <g id="xtick_9">
     <g id="line2d_9">
      <g>
       <use xlink:href="#m03dd408d6a" x="1061.635647" y="367.87725" style="stroke: #000000; stroke-width: 0.8"/>
      </g>
     </g>
     <g id="text_9">
      <!-- 2022-01 -->
      <g transform="translate(1042.145804 381.7335)scale(0.1 -0.1)">
       <use xlink:href="#WenQuanYiZenHei-32"/>
       <use xlink:href="#WenQuanYiZenHei-30" x="59.960938"/>
       <use xlink:href="#WenQuanYiZenHei-32" x="119.921875"/>
       <use xlink:href="#WenQuanYiZenHei-32" x="179.882812"/>
       <use xlink:href="#WenQuanYiZenHei-2d" x="239.84375"/>
       <use xlink:href="#WenQuanYiZenHei-30" x="269.824219"/>
       <use xlink:href="#WenQuanYiZenHei-31" x="329.785156"/>
      </g>
     </g>
    </g>
    <g id="xtick_10">
     <g id="line2d_10">
      <g>
       <use xlink:href="#m03dd408d6a" x="1183.65225" y="367.87725" style="stroke: #000000; stroke-width: 0.8"/>
      </g>
     </g>
     <g id="text_10">
      <!-- 2022-04 -->
      <g transform="translate(1164.162406 381.7335)scale(0.1 -0.1)">
       <use xlink:href="#WenQuanYiZenHei-32"/>
       <use xlink:href="#WenQuanYiZenHei-30" x="59.960938"/>
       <use xlink:href="#WenQuanYiZenHei-32" x="119.921875"/>
       <use xlink:href="#WenQuanYiZenHei-32" x="179.882812"/>
       <use xlink:href="#WenQuanYiZenHei-2d" x="239.84375"/>
       <use xlink:href="#WenQuanYiZenHei-30" x="269.824219"/>
       <use xlink:href="#WenQuanYiZenHei-34" x="329.785156"/>
      </g>
     </g>
    </g>
    <g id="xtick_11">
     <g id="line2d_11">
      <g>
       <use xlink:href="#m03dd408d6a" x="1307.024593" y="367.87725" style="stroke: #000000; stroke-width: 0.8"/>
      </g>
     </g>
     <g id="text_11">
      <!-- 2022-07 -->
      <g transform="translate(1287.534749 381.7335)scale(0.1 -0.1)">
       <use xlink:href="#WenQuanYiZenHei-32"/>
       <use xlink:href="#WenQuanYiZenHei-30" x="59.960938"/>
       <use xlink:href="#WenQuanYiZenHei-32" x="119.921875"/>
       <use xlink:href="#WenQuanYiZenHei-32" x="179.882812"/>
       <use xlink:href="#WenQuanYiZenHei-2d" x="239.84375"/>
       <use xlink:href="#WenQuanYiZenHei-30" x="269.824219"/>
       <use xlink:href="#WenQuanYiZenHei-37" x="329.785156"/>
      </g>
     </g>
    </g>
   </g>
   <g id="matplotlib.axis_2">
    <g id="ytick_1">
     <g id="line2d_12">
      <defs>
       <path id="m37eb88d2de" d="M 0 0 
L -3.5 0 
" style="stroke: #000000; stroke-width: 0.8"/>
      </defs>
      <g>
       <use xlink:href="#m37eb88d2de" x="38.1875" y="353.798722" style="stroke: #000000; stroke-width: 0.8"/>
      </g>
     </g>
     <g id="text_12">
      <!-- 0 -->
      <g transform="translate(25.190625 357.226847)scale(0.1 -0.1)">
       <use xlink:href="#WenQuanYiZenHei-30"/>
      </g>
     </g>
    </g>
    <g id="ytick_2">
     <g id="line2d_13">
      <g>
       <use xlink:href="#m37eb88d2de" x="38.1875" y="313.742103" style="stroke: #000000; stroke-width: 0.8"/>
      </g>
     </g>
     <g id="text_13">
      <!-- 1000 -->
      <g transform="translate(7.2 317.170228)scale(0.1 -0.1)">
       <use xlink:href="#WenQuanYiZenHei-31"/>
       <use xlink:href="#WenQuanYiZenHei-30" x="59.960938"/>
       <use xlink:href="#WenQuanYiZenHei-30" x="119.921875"/>
       <use xlink:href="#WenQuanYiZenHei-30" x="179.882812"/>
      </g>
     </g>
    </g>
    <g id="ytick_3">
     <g id="line2d_14">
      <g>
       <use xlink:href="#m37eb88d2de" x="38.1875" y="273.685484" style="stroke: #000000; stroke-width: 0.8"/>
      </g>
     </g>
     <g id="text_14">
      <!-- 2000 -->
      <g transform="translate(7.2 277.113609)scale(0.1 -0.1)">
       <use xlink:href="#WenQuanYiZenHei-32"/>
       <use xlink:href="#WenQuanYiZenHei-30" x="59.960938"/>
       <use xlink:href="#WenQuanYiZenHei-30" x="119.921875"/>
       <use xlink:href="#WenQuanYiZenHei-30" x="179.882812"/>
      </g>
     </g>
    </g>
    <g id="ytick_4">
     <g id="line2d_15">
      <g>
       <use xlink:href="#m37eb88d2de" x="38.1875" y="233.628864" style="stroke: #000000; stroke-width: 0.8"/>
      </g>
     </g>
     <g id="text_15">
      <!-- 3000 -->
      <g transform="translate(7.2 237.056989)scale(0.1 -0.1)">
       <defs>
        <path id="WenQuanYiZenHei-33" d="M 3588 1231 
Q 3588 494 2875 144 
Q 2450 -63 1925 -63 
Q 1044 -63 556 488 
Q 356 706 256 1000 
L 769 1169 
Q 994 375 1913 375 
Q 2631 375 2900 788 
Q 3019 975 3019 1231 
Q 3019 1638 2638 1881 
Q 2325 2081 1613 2069 
L 1338 2069 
L 1338 2494 
Q 1969 2494 2094 2506 
Q 2325 2544 2463 2613 
Q 2763 2756 2844 3100 
Q 2863 3169 2863 3244 
Q 2863 3744 2381 3944 
L 2163 4006 
Q 2056 4025 1931 4025 
Q 1388 4025 1075 3631 
Q 969 3488 906 3313 
L 419 3456 
Q 675 4150 1400 4369 
Q 1669 4456 1975 4456 
Q 2694 4456 3106 4050 
Q 3419 3744 3419 3275 
Q 3419 2813 3025 2513 
Q 2825 2356 2575 2319 
L 2575 2306 
Q 3181 2213 3450 1769 
Q 3588 1525 3588 1231 
z
" transform="scale(0.015625)"/>
       </defs>
       <use xlink:href="#WenQuanYiZenHei-33"/>
       <use xlink:href="#WenQuanYiZenHei-30" x="59.960938"/>
       <use xlink:href="#WenQuanYiZenHei-30" x="119.921875"/>
       <use xlink:href="#WenQuanYiZenHei-30" x="179.882812"/>
      </g>
     </g>
    </g>
    <g id="ytick_5">
     <g id="line2d_16">
      <g>
       <use xlink:href="#m37eb88d2de" x="38.1875" y="193.572245" style="stroke: #000000; stroke-width: 0.8"/>
      </g>
     </g>
     <g id="text_16">
      <!-- 4000 -->
      <g transform="translate(7.2 197.00037)scale(0.1 -0.1)">
       <use xlink:href="#WenQuanYiZenHei-34"/>
       <use xlink:href="#WenQuanYiZenHei-30" x="59.960938"/>
       <use xlink:href="#WenQuanYiZenHei-30" x="119.921875"/>
       <use xlink:href="#WenQuanYiZenHei-30" x="179.882812"/>
      </g>
     </g>
    </g>
    <g id="ytick_6">
     <g id="line2d_17">
      <g>
       <use xlink:href="#m37eb88d2de" x="38.1875" y="153.515626" style="stroke: #000000; stroke-width: 0.8"/>
      </g>
     </g>
     <g id="text_17">
      <!-- 5000 -->
      <g transform="translate(7.2 156.943751)scale(0.1 -0.1)">
       <defs>
        <path id="WenQuanYiZenHei-35" d="M 3531 1488 
Q 3531 688 2913 250 
Q 2456 -63 1844 -63 
Q 1175 -63 706 350 
Q 413 613 306 975 
L 781 1131 
Q 1000 538 1569 406 
Q 1706 369 1856 369 
Q 2550 369 2850 869 
Q 3000 1131 3000 1494 
Q 3000 2056 2581 2356 
Q 2319 2538 1969 2538 
Q 1400 2538 1031 2075 
Q 981 2013 938 1938 
L 500 2031 
L 644 4388 
L 3244 4388 
L 3200 3919 
L 1044 3919 
L 950 2500 
Q 1431 2975 2006 2975 
Q 2713 2975 3163 2475 
Q 3531 2063 3531 1488 
z
" transform="scale(0.015625)"/>
       </defs>
       <use xlink:href="#WenQuanYiZenHei-35"/>
       <use xlink:href="#WenQuanYiZenHei-30" x="59.960938"/>
       <use xlink:href="#WenQuanYiZenHei-30" x="119.921875"/>
       <use xlink:href="#WenQuanYiZenHei-30" x="179.882812"/>
      </g>
     </g>
    </g>
    <g id="ytick_7">
     <g id="line2d_18">
      <g>
       <use xlink:href="#m37eb88d2de" x="38.1875" y="113.459007" style="stroke: #000000; stroke-width: 0.8"/>
      </g>
     </g>
     <g id="text_18">
      <!-- 6000 -->
      <g transform="translate(7.2 116.887132)scale(0.1 -0.1)">
       <defs>
        <path id="WenQuanYiZenHei-36" d="M 3550 1431 
Q 3550 725 3006 288 
Q 2581 -63 1994 -63 
Q 1013 -63 563 825 
Q 288 1363 288 2081 
Q 288 3294 856 3938 
Q 1319 4456 2075 4456 
Q 2969 4456 3363 3756 
Q 3431 3631 3481 3481 
L 2988 3350 
Q 2750 3994 2075 4006 
Q 1056 4006 844 2669 
Q 794 2356 794 1981 
L 806 1981 
Q 1006 2506 1544 2744 
Q 1819 2869 2119 2869 
Q 2788 2869 3213 2375 
Q 3550 1975 3550 1431 
z
M 3038 1406 
Q 3038 1906 2656 2213 
Q 2381 2431 2038 2431 
Q 1525 2431 1181 2044 
Q 919 1744 919 1356 
Q 919 881 1344 581 
Q 1631 375 1981 375 
Q 2519 375 2838 781 
Q 3038 1050 3038 1406 
z
" transform="scale(0.015625)"/>
       </defs>
       <use xlink:href="#WenQuanYiZenHei-36"/>
       <use xlink:href="#WenQuanYiZenHei-30" x="59.960938"/>
       <use xlink:href="#WenQuanYiZenHei-30" x="119.921875"/>
       <use xlink:href="#WenQuanYiZenHei-30" x="179.882812"/>
      </g>
     </g>
    </g>
    <g id="ytick_8">
     <g id="line2d_19">
      <g>
       <use xlink:href="#m37eb88d2de" x="38.1875" y="73.402387" style="stroke: #000000; stroke-width: 0.8"/>
      </g>
     </g>
     <g id="text_19">
      <!-- 7000 -->
      <g transform="translate(7.2 76.830512)scale(0.1 -0.1)">
       <use xlink:href="#WenQuanYiZenHei-37"/>
       <use xlink:href="#WenQuanYiZenHei-30" x="59.960938"/>
       <use xlink:href="#WenQuanYiZenHei-30" x="119.921875"/>
       <use xlink:href="#WenQuanYiZenHei-30" x="179.882812"/>
      </g>
     </g>
    </g>
   </g>
   <g id="line2d_20">
    <path d="M 99.060227 352.75725 
L 100.415967 352.51691 
L 101.771707 351.675721 
L 103.127447 350.674306 
L 104.483187 349.352437 
L 105.838927 347.750173 
L 107.194667 345.507002 
L 108.550407 342.703039 
L 111.261888 336.334036 
L 115.329108 324.757673 
L 118.040588 317.948048 
L 119.396328 314.943801 
L 122.107808 309.936724 
L 123.463548 308.494686 
L 124.819288 307.3731 
L 126.175028 306.652081 
L 127.530768 304.969703 
L 130.242248 303.287325 
L 131.597988 301.965457 
L 132.953728 301.084211 
L 135.665208 300.603532 
L 138.376688 300.443305 
L 139.732428 300.403249 
L 141.088168 300.162909 
L 145.155388 299.842456 
L 151.934088 299.762343 
L 158.712789 299.642173 
L 164.135749 299.602116 
L 165.491489 299.481946 
L 169.558709 299.481946 
L 170.914449 299.32172 
L 173.625929 299.161493 
L 176.337409 298.600701 
L 177.693149 297.919738 
L 179.048889 297.719455 
L 180.404629 297.198719 
L 181.760369 297.118606 
L 183.116109 296.59787 
L 184.471849 296.397587 
L 185.827589 295.796737 
L 187.183329 295.476284 
L 188.539069 295.035662 
L 191.250549 294.354699 
L 192.606289 293.954133 
L 196.673509 293.153001 
L 198.029249 293.072887 
L 200.740729 292.431981 
L 203.452209 292.271755 
L 206.16369 291.951302 
L 210.23091 291.510679 
L 211.58665 291.15017 
L 212.94239 291.070056 
L 217.00961 290.54932 
L 231.92275 290.188811 
L 261.749031 290.108698 
L 267.171991 290.028584 
L 273.950691 289.988528 
L 278.017911 289.828301 
L 291.575311 289.387678 
L 292.931051 288.706716 
L 294.286791 288.706716 
L 295.642531 288.586546 
L 298.354011 288.586546 
L 299.709751 288.466376 
L 301.065491 288.466376 
L 302.421232 288.346206 
L 309.199932 288.30615 
L 311.911412 288.226036 
L 313.267152 288.226036 
L 314.622892 288.06581 
L 324.113072 287.985697 
L 328.180292 287.82547 
L 330.891772 287.785414 
L 333.603252 287.7053 
L 336.314732 287.7053 
L 339.026212 287.424904 
L 341.737692 287.344791 
L 344.449172 287.264678 
L 345.804912 287.224621 
L 347.160652 287.024338 
L 351.227873 286.824055 
L 353.939353 286.743942 
L 356.650833 286.583715 
L 363.429533 286.223205 
L 367.496753 286.183149 
L 370.208233 285.862696 
L 371.563973 285.742526 
L 372.919713 285.742526 
L 374.275453 285.422073 
L 376.986933 285.34196 
L 378.342673 285.22179 
L 379.698413 284.901337 
L 381.054153 284.86128 
L 382.409893 284.701054 
L 389.188593 284.620941 
L 393.255813 284.340544 
L 401.390254 284.020091 
L 402.745994 283.899922 
L 404.101734 283.379185 
L 406.813214 283.178902 
L 409.524694 282.938563 
L 412.236174 282.898506 
L 414.947654 282.658166 
L 417.659134 282.578053 
L 419.014874 282.417827 
L 423.082094 282.217544 
L 425.793574 281.816977 
L 431.216534 281.416411 
L 435.283754 281.136015 
L 436.639494 280.935732 
L 437.995234 280.935732 
L 439.350974 280.615279 
L 440.706714 280.615279 
L 447.485415 279.854203 
L 454.264115 279.373524 
L 458.331335 278.932901 
L 461.042815 278.692561 
L 463.754295 278.452221 
L 470.532995 277.891429 
L 471.888735 277.530919 
L 474.600215 277.370693 
L 477.311695 277.250523 
L 484.090395 276.609617 
L 485.446135 276.289164 
L 486.801875 276.168994 
L 488.157615 276.168994 
L 496.292056 275.488032 
L 499.003536 275.447975 
L 500.359276 275.167579 
L 504.426496 274.847126 
L 512.560936 274.526673 
L 513.916676 274.366446 
L 515.272416 274.32639 
L 516.628156 274.166163 
L 523.406856 274.126106 
L 530.185556 273.60537 
L 554.588877 272.243445 
L 566.790537 271.842879 
L 568.146277 271.642596 
L 570.857757 271.402256 
L 576.280717 271.00169 
L 577.636457 270.961634 
L 578.992197 270.681237 
L 581.703677 270.561067 
L 584.415157 270.320728 
L 587.126637 270.240614 
L 589.838118 270.080388 
L 593.905338 269.759935 
L 595.261078 269.719878 
L 596.616818 269.519595 
L 599.328298 269.359369 
L 600.684038 269.078972 
L 602.039778 269.038916 
L 603.395518 268.838633 
L 604.751258 268.838633 
L 607.462738 268.678406 
L 615.597178 268.197727 
L 618.308658 267.636934 
L 621.020138 267.596878 
L 625.087358 267.316481 
L 626.443098 267.156255 
L 629.154578 266.595462 
L 630.510318 266.475292 
L 631.866058 266.475292 
L 635.933278 266.194896 
L 637.289019 265.834386 
L 640.000499 265.754273 
L 641.356239 265.67416 
L 642.711979 265.473877 
L 644.067719 265.43382 
L 645.423459 265.19348 
L 656.269379 264.272178 
L 660.336599 264.071895 
L 663.048079 263.911669 
L 673.893999 263.551159 
L 677.961219 263.150593 
L 682.028439 262.990366 
L 683.384179 262.669913 
L 694.2301 262.109121 
L 696.94158 262.029007 
L 698.29732 261.868781 
L 701.0088 261.828724 
L 711.85472 260.907422 
L 714.5662 260.867365 
L 715.92194 260.787252 
L 717.27768 260.586969 
L 725.41212 260.266516 
L 726.76786 260.186403 
L 729.47934 259.665667 
L 732.190821 259.345214 
L 734.902301 259.265101 
L 736.258041 259.064818 
L 737.613781 259.064818 
L 738.969521 258.864535 
L 741.681001 258.744365 
L 743.036741 258.423912 
L 747.103961 258.183572 
L 749.815441 257.823062 
L 755.238401 257.662836 
L 756.594141 257.422496 
L 759.305621 257.182157 
L 762.017101 257.1421 
L 763.372841 256.581307 
L 767.440061 256.381024 
L 768.795801 255.459722 
L 771.507281 254.41825 
L 772.863021 253.737287 
L 774.218761 253.296664 
L 775.574501 252.655759 
L 778.285981 251.974796 
L 779.641722 251.09355 
L 783.708942 249.931908 
L 786.420422 248.930493 
L 787.776162 248.650097 
L 789.131902 248.24953 
L 790.487642 247.648681 
L 793.199122 247.007775 
L 795.910602 245.966303 
L 798.622082 245.40551 
L 799.977822 245.285341 
L 802.689302 244.724548 
L 804.045042 244.564321 
L 805.400782 244.524265 
L 808.112262 244.203812 
L 810.823742 244.163755 
L 812.179482 243.843302 
L 817.602442 243.28251 
L 818.958182 243.082227 
L 828.448363 242.481377 
L 829.804103 242.000698 
L 831.159843 241.840471 
L 832.515583 241.800415 
L 833.871323 241.640188 
L 835.227063 241.319735 
L 836.582803 241.159509 
L 837.938543 241.159509 
L 839.294283 240.839056 
L 840.650023 240.278263 
L 843.361503 239.83764 
L 844.717243 239.517187 
L 846.072983 238.996451 
L 848.784463 238.756112 
L 850.140203 238.395602 
L 854.207423 238.195319 
L 855.563163 237.954979 
L 858.274643 237.794753 
L 859.630383 237.274017 
L 862.341863 237.033677 
L 865.053343 236.392771 
L 866.409083 236.312658 
L 867.764823 236.112375 
L 869.120563 235.751865 
L 870.476303 235.631695 
L 871.832043 235.110959 
L 873.187783 234.910676 
L 874.543523 234.550167 
L 875.899264 234.51011 
L 878.610744 233.749034 
L 881.322224 233.348468 
L 882.677964 233.148185 
L 884.033704 232.827732 
L 885.389444 232.707562 
L 888.100924 232.0266 
L 890.812404 231.78626 
L 892.168144 231.42575 
L 894.879624 231.025184 
L 896.235364 230.664675 
L 901.658324 229.863542 
L 904.369804 229.623202 
L 911.148504 228.82207 
L 912.504244 228.501617 
L 915.215724 228.221221 
L 926.061645 227.620372 
L 927.417385 227.259862 
L 928.773125 227.099635 
L 932.840345 226.899352 
L 934.196085 226.779183 
L 935.551825 226.538843 
L 942.330525 225.97805 
L 947.753485 225.897937 
L 953.176445 225.657597 
L 958.599405 225.577484 
L 962.666625 225.297088 
L 969.445325 225.016691 
L 976.224026 224.656182 
L 978.935506 224.576068 
L 981.646986 224.295672 
L 984.358466 224.135446 
L 989.781426 223.694823 
L 995.204386 223.49454 
L 997.915866 223.2542 
L 999.271606 223.214143 
L 1001.983086 222.933747 
L 1006.050306 222.653351 
L 1007.406046 222.453068 
L 1010.117526 222.212728 
L 1011.473266 221.972388 
L 1015.540486 221.571822 
L 1016.896226 221.211312 
L 1018.251966 221.051086 
L 1020.963447 220.890859 
L 1022.319187 220.730633 
L 1026.386407 220.53035 
L 1029.097887 220.29001 
L 1033.165107 220.249954 
L 1041.299547 218.968142 
L 1044.011027 218.247123 
L 1045.366767 217.846556 
L 1046.722507 217.646273 
L 1048.078247 217.285764 
L 1053.501207 216.524688 
L 1056.212687 216.284348 
L 1057.568427 215.883782 
L 1058.924167 215.763612 
L 1061.635647 214.922423 
L 1062.991387 214.922423 
L 1064.347127 214.161347 
L 1065.702867 213.880951 
L 1069.770088 212.759366 
L 1072.481568 212.038347 
L 1073.837308 211.317327 
L 1075.193048 210.235799 
L 1076.548788 209.51478 
L 1077.904528 209.114213 
L 1080.616008 207.992628 
L 1083.327488 206.590646 
L 1084.683228 206.230137 
L 1086.038968 206.029854 
L 1087.394708 205.469061 
L 1091.461928 204.627872 
L 1095.529148 204.387532 
L 1098.240628 203.866796 
L 1099.596368 203.786683 
L 1102.307848 203.145777 
L 1105.019328 202.184418 
L 1106.375068 201.663682 
L 1109.086548 200.942663 
L 1110.442288 199.941248 
L 1113.153768 198.499209 
L 1114.509509 198.1387 
L 1115.865249 197.53785 
L 1117.220989 196.576492 
L 1118.576729 195.775359 
L 1119.932469 194.653774 
L 1121.288209 193.932755 
L 1126.711169 189.686753 
L 1128.066909 188.084488 
L 1130.778389 186.041601 
L 1132.134129 184.239053 
L 1133.489869 182.156109 
L 1134.845609 179.752712 
L 1138.912829 169.137707 
L 1140.268569 166.133461 
L 1141.624309 161.52695 
L 1142.980049 157.761628 
L 1144.335789 152.193758 
L 1145.691529 147.18668 
L 1147.047269 143.501471 
L 1148.403009 138.694677 
L 1149.758749 135.009468 
L 1152.470229 131.164032 
L 1155.181709 126.156955 
L 1156.537449 122.31152 
L 1157.893189 117.464669 
L 1159.248929 114.740819 
L 1160.604669 111.536289 
L 1161.960409 107.370401 
L 1163.31615 103.805361 
L 1164.67189 101.201681 
L 1166.02763 98.277548 
L 1167.38337 96.475 
L 1168.73911 94.992905 
L 1170.09485 94.071603 
L 1172.80633 92.829848 
L 1179.58503 90.546621 
L 1180.94077 89.985828 
L 1183.65225 89.585262 
L 1189.07521 87.742657 
L 1190.43095 87.702601 
L 1191.78669 87.221921 
L 1193.14243 86.861412 
L 1194.49817 86.180449 
L 1198.56539 83.456599 
L 1199.92113 81.533881 
L 1202.63261 79.53105 
L 1203.98835 78.249238 
L 1205.34409 77.127653 
L 1206.69983 76.166294 
L 1208.05557 75.565445 
L 1209.41131 75.204935 
L 1210.767051 74.964596 
L 1213.478531 74.163463 
L 1216.190011 73.72284 
L 1218.901491 73.642727 
L 1220.257231 73.242161 
L 1221.612971 72.080519 
L 1222.968711 71.23933 
L 1224.324451 70.117745 
L 1225.680191 69.757235 
L 1227.035931 69.276556 
L 1229.747411 68.034801 
L 1231.103151 67.634234 
L 1232.458891 66.752989 
L 1233.814631 65.351007 
L 1235.170371 64.670044 
L 1236.526111 64.189365 
L 1237.881851 63.989082 
L 1239.237591 63.508403 
L 1240.593331 63.18795 
L 1241.949071 63.107836 
L 1243.304811 62.82744 
L 1248.727771 62.426874 
L 1250.083511 62.266647 
L 1255.506471 62.026308 
L 1256.862211 61.866081 
L 1260.929432 61.705855 
L 1264.996652 61.265232 
L 1266.352392 61.265232 
L 1269.063872 60.944779 
L 1270.419612 60.944779 
L 1273.131092 60.624326 
L 1274.486832 60.584269 
L 1277.198312 60.303873 
L 1281.265532 59.98342 
L 1282.621272 59.662967 
L 1285.332752 59.222344 
L 1288.044232 58.701608 
L 1290.755712 58.541382 
L 1293.467192 57.980589 
L 1294.822932 57.49991 
L 1296.178672 57.25957 
L 1297.534412 56.698777 
L 1298.890152 56.298211 
L 1298.890152 56.298211 
" clip-path="url(#pcf163dae07)" style="fill: none; stroke: #0000ff; stroke-width: 1.5; stroke-linecap: square"/>
   </g>
   <g id="line2d_21">
    <path d="M 1058.924167 215.585052 
L 1060.279907 214.955166 
L 1061.635647 214.530953 
L 1062.991387 214.813675 
L 1064.347127 213.581484 
L 1065.702867 213.517365 
L 1068.414348 212.751092 
L 1072.481568 211.67766 
L 1073.837308 210.696406 
L 1075.193048 209.282223 
L 1076.548788 208.729158 
L 1077.904528 208.606682 
L 1079.260268 208.076409 
L 1081.971748 206.659423 
L 1083.327488 205.888733 
L 1086.038968 205.758715 
L 1087.394708 204.988732 
L 1088.750448 204.852729 
L 1090.106188 204.543458 
L 1091.461928 204.364083 
L 1094.173408 204.442344 
L 1095.529148 204.282589 
L 1096.884888 203.875479 
L 1098.240628 203.628869 
L 1099.596368 203.66273 
L 1102.307848 202.819595 
L 1107.730808 200.831566 
L 1109.086548 200.591348 
L 1110.442288 199.120426 
L 1113.153768 197.770489 
L 1114.509509 197.675904 
L 1115.865249 196.975351 
L 1117.220989 195.725933 
L 1118.576729 194.960497 
L 1119.932469 193.617394 
L 1121.288209 193.124131 
L 1123.999689 190.571257 
L 1126.711169 188.676316 
L 1128.066909 186.646629 
L 1129.422649 185.891431 
L 1130.778389 184.998469 
L 1133.489869 180.20966 
L 1134.845609 177.476251 
L 1136.201349 172.980591 
L 1137.557089 169.570947 
L 1138.912829 165.532793 
L 1140.268569 162.962353 
L 1141.624309 157.319183 
L 1142.980049 153.873398 
L 1144.335789 147.09248 
L 1145.691529 142.153434 
L 1147.047269 139.441787 
L 1148.403009 134.095424 
L 1149.758749 131.070344 
L 1151.114489 130.741861 
L 1152.470229 129.043925 
L 1155.181709 123.672559 
L 1156.537449 118.844171 
L 1157.893189 113.001034 
L 1159.248929 111.533669 
L 1160.604669 108.331032 
L 1161.960409 103.471369 
L 1163.31615 100.147542 
L 1164.67189 98.305168 
L 1166.02763 95.361088 
L 1168.73911 93.335831 
L 1174.16207 91.890609 
L 1176.87355 91.17996 
L 1178.22929 90.715873 
L 1179.58503 89.992788 
L 1180.94077 89.426969 
L 1183.65225 89.3782 
L 1186.36373 88.095352 
L 1187.71947 87.827274 
L 1189.07521 87.285484 
L 1190.43095 87.546672 
L 1191.78669 86.831455 
L 1193.14243 86.49258 
L 1194.49817 85.586194 
L 1195.85391 84.497682 
L 1197.20965 83.696831 
L 1198.56539 82.481861 
L 1199.92113 79.874506 
L 1201.27687 79.417259 
L 1202.63261 78.457968 
L 1203.98835 77.02541 
L 1205.34409 75.977665 
L 1206.69983 75.152536 
L 1208.05557 74.849892 
L 1210.767051 74.663475 
L 1212.122791 74.122103 
L 1213.478531 73.791464 
L 1214.834271 73.715196 
L 1216.190011 73.480377 
L 1218.901491 73.587051 
L 1220.257231 72.937403 
L 1221.612971 71.156913 
L 1222.968711 70.375246 
L 1224.324451 69.067691 
L 1225.680191 69.205175 
L 1227.035931 68.776047 
L 1228.391671 68.033745 
L 1229.747411 67.433658 
L 1231.103151 67.177949 
L 1232.458891 65.989794 
L 1233.814631 64.126476 
L 1236.526111 63.611102 
L 1237.881851 63.683799 
L 1239.237591 63.076447 
L 1240.593331 62.836522 
L 1241.949071 62.952354 
L 1243.304811 62.581744 
L 1246.016291 62.574322 
L 1250.083511 62.118133 
L 1252.794991 62.138108 
L 1259.573692 61.669422 
L 1260.929432 61.655677 
L 1263.640912 61.164682 
L 1266.352392 61.235218 
L 1269.063872 60.794601 
L 1270.419612 60.90306 
L 1271.775352 60.588261 
L 1273.131092 60.494137 
L 1274.486832 60.519175 
L 1275.842572 60.290243 
L 1281.265532 59.865401 
L 1282.621272 59.398749 
L 1285.332752 58.988198 
L 1288.044232 58.45371 
L 1289.399972 58.563758 
L 1290.755712 58.427428 
L 1293.467192 57.692144 
L 1294.822932 57.072632 
L 1296.178672 56.9673 
L 1297.534412 56.212578 
L 1298.890152 55.873857 
L 1298.890152 55.873857 
" clip-path="url(#pcf163dae07)" style="fill: none; stroke: #ffa500; stroke-width: 1.5; stroke-linecap: square"/>
   </g>
   <g id="line2d_22">
    <path d="M 1298.890152 55.873857 
L 1300.245892 55.449502 
L 1301.601632 55.025148 
L 1302.957372 54.600794 
L 1304.313112 54.176439 
L 1305.668853 53.752085 
L 1307.024593 53.327731 
L 1308.380333 52.903376 
L 1309.736073 52.479022 
L 1311.091813 52.054667 
L 1312.447553 51.630313 
L 1313.803293 51.205959 
L 1315.159033 50.781604 
L 1316.514773 50.35725 
" clip-path="url(#pcf163dae07)" style="fill: none; stroke: #ff0000; stroke-width: 1.5; stroke-linecap: square"/>
   </g>
   <g id="patch_3">
    <path d="M 38.1875 367.87725 
L 38.1875 35.23725 
" style="fill: none; stroke: #000000; stroke-width: 0.8; stroke-linejoin: miter; stroke-linecap: square"/>
   </g>
   <g id="patch_4">
    <path d="M 1377.3875 367.87725 
L 1377.3875 35.23725 
" style="fill: none; stroke: #000000; stroke-width: 0.8; stroke-linejoin: miter; stroke-linecap: square"/>
   </g>
   <g id="patch_5">
    <path d="M 38.1875 367.87725 
L 1377.3875 367.87725 
" style="fill: none; stroke: #000000; stroke-width: 0.8; stroke-linejoin: miter; stroke-linecap: square"/>
   </g>
   <g id="patch_6">
    <path d="M 38.1875 35.23725 
L 1377.3875 35.23725 
" style="fill: none; stroke: #000000; stroke-width: 0.8; stroke-linejoin: miter; stroke-linecap: square"/>
   </g>
   <g id="text_20">
    <!-- 累计确诊预测 - 广东 -->
    <g transform="translate(654.390313 17.218125)scale(0.12 -0.12)">
     <defs>
      <path id="WenQuanYiZenHei-7d2f" d="M 5963 -681 
Q 5363 -81 4706 456 
L 5000 819 
Q 5675 269 6294 -350 
L 5963 -681 
z
M 1944 738 
Q 2094 556 2281 413 
Q 1575 -356 375 -706 
Q 350 -481 200 -319 
Q 725 -181 1122 69 
Q 1519 319 1944 738 
z
M 3244 -169 
L 3244 1063 
L 869 881 
L 850 1181 
Q 1431 1325 2969 1988 
L 1119 1931 
L 1113 2231 
Q 1350 2263 1862 2497 
Q 2375 2731 2800 2988 
L 1094 2988 
Q 1169 4006 1094 5019 
L 5506 5019 
Q 5425 4006 5500 2988 
L 3431 2988 
Q 3475 2931 3525 2875 
Q 2856 2494 2281 2256 
L 3388 2269 
L 3650 2288 
Q 4338 2606 4650 2800 
Q 4744 2563 4881 2344 
Q 4644 2225 3975 1956 
L 2269 1281 
L 4444 1425 
L 4813 1469 
L 4681 1588 
L 4988 1938 
Q 5481 1500 5863 963 
L 5481 694 
Q 5300 950 5081 1188 
L 4463 1163 
L 3669 1100 
L 3669 -250 
Q 3669 -444 3488 -594 
Q 3225 -819 2569 -813 
Q 2638 -513 2431 -294 
Q 2619 -319 2900 -322 
Q 3181 -325 3212 -294 
Q 3244 -263 3244 -169 
z
M 3513 4131 
L 5081 4131 
L 5081 4725 
L 3513 4725 
L 3513 4131 
z
M 3088 4131 
L 3088 4725 
L 1519 4725 
L 1519 4131 
L 3088 4131 
z
M 3513 3856 
L 3513 3288 
L 5081 3288 
L 5081 3856 
L 3513 3856 
z
M 3088 3856 
L 1519 3856 
L 1519 3288 
L 3088 3288 
L 3088 3856 
z
" transform="scale(0.015625)"/>
      <path id="WenQuanYiZenHei-8ba1" d="M 4569 -769 
Q 4313 -738 4056 -769 
Q 4081 -294 4081 175 
L 4081 2806 
L 3213 2806 
Q 2813 2806 2413 2788 
Q 2438 3000 2413 3219 
Q 2813 3200 3213 3200 
L 4081 3200 
L 4081 4313 
Q 4081 4788 4056 5263 
Q 4313 5231 4569 5263 
Q 4550 4788 4550 4313 
L 4550 3200 
L 5381 3200 
Q 5781 3200 6181 3219 
Q 6163 3000 6181 2788 
Q 5781 2806 5381 2806 
L 4550 2806 
L 4550 175 
Q 4550 -294 4569 -769 
z
M 38 2725 
Q 63 2931 38 3138 
Q 419 3119 800 3119 
L 1481 3119 
L 1481 425 
L 2044 1150 
L 2250 1488 
L 2525 1188 
L 2313 950 
L 1294 -488 
L 963 -231 
Q 1025 -94 1025 63 
L 1025 2744 
L 800 2744 
Q 419 2744 38 2725 
z
M 1450 3913 
Q 1094 4438 600 4831 
L 913 5225 
Q 1488 4769 1869 4194 
L 1450 3913 
z
" transform="scale(0.015625)"/>
      <path id="WenQuanYiZenHei-786e" d="M 4794 -769 
Q 4563 -744 4331 -769 
Q 4350 -344 4350 81 
L 4350 1081 
L 3419 1081 
L 3419 788 
Q 3419 225 3150 -194 
Q 2881 -613 2456 -806 
Q 2375 -569 2150 -444 
Q 2531 -344 2765 -15 
Q 3000 313 3000 788 
L 2994 2919 
L 2888 2813 
Q 2769 3000 2563 3081 
Q 3044 3494 3309 3969 
Q 3575 4444 3763 5119 
Q 3981 5044 4213 5013 
Q 4144 4700 4025 4400 
L 5238 4400 
L 5306 4050 
Q 5213 4031 5163 3947 
Q 5113 3863 4813 3325 
L 5994 3325 
L 5994 -150 
Q 5981 -519 5738 -656 
Q 5469 -806 5069 -806 
Q 5125 -525 4956 -294 
Q 5100 -313 5290 -316 
Q 5481 -319 5525 -278 
Q 5569 -238 5569 25 
L 5569 1081 
L 4769 1081 
L 4769 81 
Q 4769 -344 4794 -769 
z
M 4769 1344 
L 5569 1344 
L 5569 2100 
L 4769 2100 
L 4769 1344 
z
M 4350 1344 
L 4350 2100 
L 3413 2100 
L 3419 1344 
L 4350 1344 
z
M 4769 2363 
L 5569 2363 
L 5569 3038 
L 4769 3038 
L 4769 2363 
z
M 4350 2363 
L 4350 3038 
L 3413 3038 
L 3413 2363 
L 4350 2363 
z
M 3375 3325 
L 4350 3325 
L 4344 3331 
L 4775 4113 
L 3894 4113 
Q 3688 3700 3375 3325 
z
M 481 1069 
Q 281 1194 -25 1188 
Q 775 2750 1244 4294 
L 869 4294 
Q 563 4294 250 4275 
Q 269 4438 250 4594 
Q 563 4581 869 4581 
L 2156 4581 
Q 2463 4581 2775 4594 
Q 2756 4438 2775 4275 
Q 2463 4294 2156 4294 
L 1744 4294 
L 1181 2763 
L 2494 2763 
L 2494 -338 
L 2050 -338 
L 2050 156 
L 1406 156 
Q 1406 -94 1419 -350 
Q 1181 -325 938 -350 
Q 956 75 956 500 
L 956 2181 
L 769 1713 
Q 631 1388 481 1069 
z
M 2050 2475 
L 1400 2475 
L 1400 425 
L 2050 425 
L 2050 2475 
z
" transform="scale(0.015625)"/>
      <path id="WenQuanYiZenHei-8bca" d="M 5369 1456 
Q 5556 1256 5775 1100 
Q 5038 344 4081 -225 
Q 3106 -819 1788 -1006 
Q 1788 -725 1631 -500 
Q 3363 -306 4406 519 
Q 4919 956 5369 1456 
z
M 4594 2219 
Q 4781 2031 5013 1881 
Q 3625 394 2150 -25 
Q 2113 250 1913 444 
Q 2475 594 3015 850 
Q 3556 1106 3919 1463 
Q 4275 1819 4594 2219 
z
M 3969 3188 
Q 4150 3013 4356 2881 
Q 3625 1913 2306 1275 
Q 2244 1500 2056 1644 
Q 2619 1900 3053 2256 
Q 3488 2613 3969 3188 
z
M 5813 2194 
Q 4525 2913 3731 4188 
Q 2919 2844 1813 2163 
Q 1700 2413 1456 2550 
Q 1950 2844 2400 3231 
Q 2850 3619 3113 4063 
Q 3413 4581 3644 5163 
Q 3881 5038 4144 4963 
Q 4056 4775 3963 4594 
Q 4325 3919 4844 3441 
Q 5363 2963 6175 2538 
Q 5931 2431 5813 2194 
z
M 31 2613 
Q 50 2775 31 2938 
Q 325 2925 619 2925 
L 1275 2925 
L 1275 506 
L 1675 1006 
L 1831 1250 
L 2038 1013 
L 1881 838 
L 1100 -256 
L 825 -25 
Q 869 81 869 200 
L 869 2625 
L 31 2613 
z
M 950 3713 
Q 606 4325 200 4881 
L 556 5163 
Q 981 4588 1338 3944 
L 950 3713 
z
" transform="scale(0.015625)"/>
      <path id="WenQuanYiZenHei-9884" d="M 1206 19 
L 1206 2888 
L 669 2888 
Q 356 2888 50 2869 
Q 63 3044 50 3213 
Q 363 3194 669 3194 
L 1250 3194 
Q 950 3631 606 4031 
L 963 4338 
L 1263 3975 
L 1913 4719 
L 731 4719 
Q 419 4719 106 4706 
Q 125 4875 106 5044 
Q 419 5031 731 5031 
L 2481 5031 
L 2544 4663 
Q 2394 4613 2256 4466 
Q 2119 4319 1525 3631 
Q 1656 3444 1788 3250 
L 1700 3194 
L 2700 3194 
L 2763 2825 
Q 2656 2819 2613 2763 
L 2100 2038 
L 1750 2288 
L 2175 2888 
L 1638 2888 
L 1638 -150 
Q 1638 -525 1363 -669 
Q 1075 -819 525 -813 
Q 594 -513 388 -294 
Q 575 -313 837 -316 
Q 1100 -319 1153 -272 
Q 1206 -225 1206 19 
z
M 5813 -888 
Q 5100 -225 4306 375 
L 4669 719 
Q 5481 106 6219 -575 
L 5813 -888 
z
M 2375 -906 
Q 2294 -631 2025 -506 
Q 2769 -431 3353 19 
Q 3938 469 3938 1069 
L 3938 2200 
Q 3938 2625 3913 3050 
Q 4188 3025 4456 3050 
Q 4431 2625 4431 2200 
L 4431 1069 
Q 4431 681 4225 319 
Q 3644 -606 2375 -906 
z
M 3444 488 
Q 3169 513 2894 488 
Q 2919 913 2919 1338 
L 2919 3675 
Q 3219 3675 3525 3675 
Q 3750 4013 3931 4525 
L 3238 4525 
Q 2888 4525 2538 4513 
Q 2556 4669 2538 4831 
Q 2888 4813 3238 4813 
L 5313 4813 
Q 5663 4813 6006 4831 
Q 5988 4669 6006 4513 
Q 5663 4525 5313 4525 
L 4481 4525 
Q 4388 4088 4088 3675 
L 5644 3675 
L 5644 513 
L 5144 513 
L 5144 3388 
L 3894 3388 
L 3875 3363 
Q 3863 3375 3844 3388 
Q 3631 3388 3413 3388 
L 3419 1338 
Q 3419 913 3444 488 
z
" transform="scale(0.015625)"/>
      <path id="WenQuanYiZenHei-6d4b" d="M 5450 138 
L 5450 4306 
Q 5450 4750 5425 5188 
Q 5663 5163 5906 5188 
Q 5881 4750 5881 4306 
L 5881 -38 
Q 5888 -569 5519 -719 
Q 5194 -831 4825 -813 
Q 4894 -519 4694 -281 
Q 4869 -306 5094 -309 
Q 5319 -313 5384 -256 
Q 5450 -200 5450 138 
z
M 4900 938 
Q 4663 963 4419 938 
Q 4444 1375 4444 1819 
L 4444 3381 
Q 4444 3819 4419 4263 
Q 4663 4238 4900 4263 
Q 4875 3819 4875 3381 
L 4875 1819 
Q 4875 1375 4900 938 
z
M 2750 2025 
L 2750 3038 
Q 2750 3481 2725 3919 
Q 2963 3894 3206 3919 
Q 3181 3481 3181 3038 
L 3181 2025 
Q 3181 1263 2919 625 
L 3231 956 
Q 3781 431 4256 -150 
L 3888 -456 
Q 3431 106 2906 600 
Q 2531 -288 1738 -769 
Q 1606 -519 1338 -450 
Q 1988 -156 2369 478 
Q 2750 1113 2750 2025 
z
M 2363 969 
Q 2119 994 1881 969 
Q 1906 1406 1906 1850 
L 1906 5038 
L 3956 5031 
L 3956 1200 
L 3525 1200 
L 3525 4713 
L 2338 4713 
L 2338 1850 
Q 2338 1406 2363 969 
z
M 663 -738 
Q 481 -588 206 -575 
Q 400 -69 606 581 
Q 813 1231 1200 2838 
L 1381 2706 
L 875 338 
L 663 -738 
z
M 1006 2856 
L 731 2550 
L 75 3400 
L 350 3713 
L 1006 2856 
z
M 1088 3913 
Q 781 4388 425 4800 
L 694 5125 
Q 1069 4688 1388 4188 
L 1088 3913 
z
" transform="scale(0.015625)"/>
      <path id="WenQuanYiZenHei-20" transform="scale(0.015625)"/>
      <path id="WenQuanYiZenHei-5e7f" d="M 944 4338 
L 3169 4344 
Q 2950 4731 2681 5094 
L 3100 5400 
Q 3475 4894 3763 4344 
L 5294 4344 
Q 5719 4344 6138 4363 
Q 6113 4131 6138 3906 
Q 5719 3925 5294 3925 
L 1419 3925 
L 1425 1419 
Q 1431 0 619 -756 
Q 450 -525 169 -469 
Q 975 75 950 1419 
L 944 4338 
z
" transform="scale(0.015625)"/>
      <path id="WenQuanYiZenHei-4e1c" d="M 6131 -19 
L 5750 -350 
L 4888 625 
L 3988 1563 
L 4344 1919 
L 5256 969 
L 6131 -19 
z
M 2144 1825 
Q 2344 1669 2569 1556 
Q 1850 350 438 -563 
Q 338 -338 131 -219 
Q 738 156 1194 622 
Q 1650 1088 2144 1825 
z
M 3244 2050 
L 1150 2050 
L 2163 3881 
L 1219 3881 
Q 838 3881 456 3863 
Q 481 4069 456 4275 
Q 838 4256 1219 4256 
L 2369 4256 
L 2538 4556 
Q 2763 4963 2969 5381 
Q 3175 5238 3406 5138 
Q 3163 4744 2938 4331 
L 2894 4256 
L 5375 4256 
Q 5756 4256 6138 4275 
Q 6113 4069 6138 3863 
Q 5756 3881 5375 3881 
L 2688 3881 
L 1881 2425 
L 3244 2425 
Q 3244 2881 3225 3338 
Q 3475 3313 3725 3338 
Q 3706 2881 3706 2425 
L 5650 2425 
L 5650 2050 
L 3706 2050 
L 3706 -119 
Q 3706 -506 3419 -663 
Q 3113 -831 2575 -825 
Q 2644 -513 2431 -269 
Q 2619 -294 2875 -297 
Q 3131 -300 3188 -250 
Q 3244 -194 3244 63 
L 3244 2050 
z
" transform="scale(0.015625)"/>
     </defs>
     <use xlink:href="#WenQuanYiZenHei-7d2f"/>
     <use xlink:href="#WenQuanYiZenHei-8ba1" x="100"/>
     <use xlink:href="#WenQuanYiZenHei-786e" x="200"/>
     <use xlink:href="#WenQuanYiZenHei-8bca" x="300"/>
     <use xlink:href="#WenQuanYiZenHei-9884" x="400"/>
     <use xlink:href="#WenQuanYiZenHei-6d4b" x="500"/>
     <use xlink:href="#WenQuanYiZenHei-20" x="600"/>
     <use xlink:href="#WenQuanYiZenHei-2d" x="629.980469"/>
     <use xlink:href="#WenQuanYiZenHei-20" x="659.960938"/>
     <use xlink:href="#WenQuanYiZenHei-5e7f" x="689.941406"/>
     <use xlink:href="#WenQuanYiZenHei-4e1c" x="789.941406"/>
    </g>
    <!-- ARIMA (0, 2, 1)x(0, 0, 0, 7) (R2 = 0.999439) -->
    <g transform="translate(589.179688 29.23725)scale(0.12 -0.12)">
     <defs>
      <path id="WenQuanYiZenHei-41" d="M 3550 0 
L 2988 0 
L 2550 1281 
L 919 1281 
L 531 0 
L 69 0 
L 1494 4388 
L 2125 4388 
L 3550 0 
z
M 2425 1694 
L 1756 3800 
L 1075 1694 
L 2425 1694 
z
" transform="scale(0.015625)"/>
      <path id="WenQuanYiZenHei-52" d="M 3675 0 
L 3100 0 
L 2288 1900 
L 1069 1900 
L 1069 0 
L 519 0 
L 519 4388 
L 2163 4388 
Q 3006 4388 3400 3900 
Q 3581 3663 3625 3325 
Q 3631 3250 3631 3163 
Q 3631 2594 3219 2244 
Q 3038 2100 2813 2038 
L 3675 0 
z
M 3081 3169 
Q 3081 3825 2356 3906 
Q 2263 3919 2163 3919 
L 1069 3919 
L 1069 2350 
L 2100 2350 
Q 2906 2350 3044 2919 
Q 3081 3031 3081 3169 
z
" transform="scale(0.015625)"/>
      <path id="WenQuanYiZenHei-49" d="M 1100 0 
L 550 0 
L 550 4388 
L 1100 4388 
L 1100 0 
z
" transform="scale(0.015625)"/>
      <path id="WenQuanYiZenHei-4d" d="M 4756 0 
L 4206 0 
L 4206 3831 
L 4181 3831 
L 2788 0 
L 2419 0 
L 1000 3831 
L 975 3831 
L 975 0 
L 513 0 
L 513 4388 
L 1331 4388 
L 2656 875 
L 3950 4388 
L 4756 4388 
L 4756 0 
z
" transform="scale(0.015625)"/>
      <path id="WenQuanYiZenHei-28" d="M 1606 -1094 
L 1275 -1094 
Q 475 -100 338 1231 
Q 319 1438 319 1656 
Q 319 3031 1156 4244 
Q 1213 4313 1269 4388 
L 1600 4388 
Q 806 3169 794 1681 
Q 794 188 1606 -1094 
z
" transform="scale(0.015625)"/>
      <path id="WenQuanYiZenHei-2c" d="M 1363 75 
L 881 -825 
L 606 -825 
L 994 0 
L 656 0 
L 656 738 
L 1363 738 
L 1363 75 
z
" transform="scale(0.015625)"/>
      <path id="WenQuanYiZenHei-29" d="M 1600 1656 
Q 1600 306 869 -788 
Q 769 -950 644 -1094 
L 313 -1094 
Q 1125 188 1125 1681 
Q 1125 3169 338 4363 
Q 325 4375 319 4388 
L 650 4388 
Q 1525 3231 1594 1863 
Q 1600 1763 1600 1656 
z
" transform="scale(0.015625)"/>
      <path id="WenQuanYiZenHei-78" d="M 2806 0 
L 2213 0 
L 1394 1319 
L 544 0 
L 50 0 
L 1144 1681 
L 163 3250 
L 744 3250 
L 1431 2138 
L 2144 3250 
L 2631 3250 
L 1681 1794 
L 2806 0 
z
" transform="scale(0.015625)"/>
      <path id="WenQuanYiZenHei-3d" d="M 3569 2256 
L 263 2256 
L 263 2675 
L 3569 2675 
L 3569 2256 
z
M 3569 1019 
L 263 1019 
L 263 1431 
L 3569 1431 
L 3569 1019 
z
" transform="scale(0.015625)"/>
      <path id="WenQuanYiZenHei-2e" d="M 1344 0 
L 631 0 
L 631 725 
L 1344 725 
L 1344 0 
z
" transform="scale(0.015625)"/>
      <path id="WenQuanYiZenHei-39" d="M 3544 2300 
Q 3544 1163 3019 513 
Q 2563 -63 1775 -63 
Q 956 -63 563 488 
Q 463 631 394 813 
L 838 975 
Q 1025 494 1550 388 
Q 1656 369 1775 369 
Q 2594 369 2900 1325 
Q 3044 1769 3038 2313 
L 3025 2313 
Q 2675 1638 1944 1544 
Q 1844 1531 1744 1531 
Q 1050 1531 625 2031 
Q 294 2419 294 2963 
Q 294 3656 813 4094 
Q 1238 4456 1819 4456 
Q 2988 4456 3381 3363 
Q 3544 2900 3544 2300 
z
M 2925 2994 
Q 2925 3563 2469 3844 
Q 2206 4006 1863 4006 
Q 1275 4006 988 3563 
Q 844 3344 825 3056 
Q 819 3006 819 2956 
Q 819 2413 1269 2131 
Q 1538 1963 1875 1963 
Q 2363 1963 2681 2350 
Q 2925 2638 2925 2994 
z
" transform="scale(0.015625)"/>
     </defs>
     <use xlink:href="#WenQuanYiZenHei-41"/>
     <use xlink:href="#WenQuanYiZenHei-52" x="55.957031"/>
     <use xlink:href="#WenQuanYiZenHei-49" x="117.871094"/>
     <use xlink:href="#WenQuanYiZenHei-4d" x="143.847656"/>
     <use xlink:href="#WenQuanYiZenHei-41" x="225.78125"/>
     <use xlink:href="#WenQuanYiZenHei-20" x="281.738281"/>
     <use xlink:href="#WenQuanYiZenHei-28" x="311.71875"/>
     <use xlink:href="#WenQuanYiZenHei-30" x="341.699219"/>
     <use xlink:href="#WenQuanYiZenHei-2c" x="401.660156"/>
     <use xlink:href="#WenQuanYiZenHei-20" x="431.640625"/>
     <use xlink:href="#WenQuanYiZenHei-32" x="461.621094"/>
     <use xlink:href="#WenQuanYiZenHei-2c" x="521.582031"/>
     <use xlink:href="#WenQuanYiZenHei-20" x="551.5625"/>
     <use xlink:href="#WenQuanYiZenHei-31" x="581.542969"/>
     <use xlink:href="#WenQuanYiZenHei-29" x="641.503906"/>
     <use xlink:href="#WenQuanYiZenHei-78" x="671.484375"/>
     <use xlink:href="#WenQuanYiZenHei-28" x="715.429688"/>
     <use xlink:href="#WenQuanYiZenHei-30" x="745.410156"/>
     <use xlink:href="#WenQuanYiZenHei-2c" x="805.371094"/>
     <use xlink:href="#WenQuanYiZenHei-20" x="835.351562"/>
     <use xlink:href="#WenQuanYiZenHei-30" x="865.332031"/>
     <use xlink:href="#WenQuanYiZenHei-2c" x="925.292969"/>
     <use xlink:href="#WenQuanYiZenHei-20" x="955.273438"/>
     <use xlink:href="#WenQuanYiZenHei-30" x="985.253906"/>
     <use xlink:href="#WenQuanYiZenHei-2c" x="1045.214844"/>
     <use xlink:href="#WenQuanYiZenHei-20" x="1075.195312"/>
     <use xlink:href="#WenQuanYiZenHei-37" x="1105.175781"/>
     <use xlink:href="#WenQuanYiZenHei-29" x="1165.136719"/>
     <use xlink:href="#WenQuanYiZenHei-20" x="1195.117188"/>
     <use xlink:href="#WenQuanYiZenHei-28" x="1225.097656"/>
     <use xlink:href="#WenQuanYiZenHei-52" x="1255.078125"/>
     <use xlink:href="#WenQuanYiZenHei-32" x="1316.992188"/>
     <use xlink:href="#WenQuanYiZenHei-20" x="1376.953125"/>
     <use xlink:href="#WenQuanYiZenHei-3d" x="1406.933594"/>
     <use xlink:href="#WenQuanYiZenHei-20" x="1466.894531"/>
     <use xlink:href="#WenQuanYiZenHei-30" x="1496.875"/>
     <use xlink:href="#WenQuanYiZenHei-2e" x="1556.835938"/>
     <use xlink:href="#WenQuanYiZenHei-39" x="1586.816406"/>
     <use xlink:href="#WenQuanYiZenHei-39" x="1646.777344"/>
     <use xlink:href="#WenQuanYiZenHei-39" x="1706.738281"/>
     <use xlink:href="#WenQuanYiZenHei-34" x="1766.699219"/>
     <use xlink:href="#WenQuanYiZenHei-33" x="1826.660156"/>
     <use xlink:href="#WenQuanYiZenHei-39" x="1886.621094"/>
     <use xlink:href="#WenQuanYiZenHei-29" x="1946.582031"/>
    </g>
   </g>
   <g id="legend_1">
    <g id="patch_7">
     <path d="M 45.1875 87.232562 
L 107.1875 87.232562 
Q 109.1875 87.232562 109.1875 85.232562 
L 109.1875 42.23725 
Q 109.1875 40.23725 107.1875 40.23725 
L 45.1875 40.23725 
Q 43.1875 40.23725 43.1875 42.23725 
L 43.1875 85.232562 
Q 43.1875 87.232562 45.1875 87.232562 
z
" style="fill: #ffffff; opacity: 0.8; stroke: #cccccc; stroke-linejoin: miter"/>
    </g>
    <g id="line2d_23">
     <path d="M 47.1875 48.871625 
L 57.1875 48.871625 
L 67.1875 48.871625 
" style="fill: none; stroke: #0000ff; stroke-width: 1.5; stroke-linecap: square"/>
    </g>
    <g id="text_21">
     <!-- 实际值 -->
     <g transform="translate(75.1875 52.371625)scale(0.1 -0.1)">
      <defs>
       <path id="WenQuanYiZenHei-5b9e" d="M 1025 1175 
Q 694 1175 356 1163 
Q 375 1344 356 1525 
Q 694 1506 1025 1506 
L 3363 1506 
L 3363 2625 
Q 3363 3075 3338 3519 
Q 3581 3494 3825 3519 
Q 3800 3075 3800 2625 
L 3800 1506 
L 5406 1506 
Q 5744 1506 6075 1525 
Q 6056 1344 6075 1163 
Q 5744 1175 5406 1175 
L 4038 1175 
L 4981 456 
L 6131 -488 
L 5819 -856 
L 4681 75 
L 3638 875 
Q 3313 231 2475 -231 
Q 1638 -694 700 -825 
Q 638 -519 344 -400 
Q 1450 -319 2406 244 
Q 3113 656 3300 1175 
L 1025 1175 
z
M 2263 1581 
Q 1763 2081 1200 2513 
L 1494 2894 
Q 2081 2444 2600 1919 
L 2263 1581 
z
M 2638 2500 
Q 2219 2963 1731 3363 
L 2044 3738 
Q 2556 3313 3000 2819 
L 2638 2500 
z
M 919 3156 
L 481 3156 
L 481 4344 
L 3069 4344 
Q 2794 4731 2469 5081 
L 2825 5413 
Q 3256 4944 3613 4413 
L 3513 4344 
L 5869 4344 
L 5869 3156 
L 5425 3156 
L 5425 4013 
L 919 4013 
L 919 3156 
z
" transform="scale(0.015625)"/>
       <path id="WenQuanYiZenHei-9645" d="M 6000 431 
L 5569 194 
L 4963 1219 
L 4313 2219 
L 4719 2494 
L 5375 1481 
L 6000 431 
z
M 2956 2450 
Q 3181 2344 3419 2294 
Q 3006 1038 1944 -188 
Q 1794 -6 1569 56 
Q 2069 600 2372 1156 
Q 2675 1713 2956 2450 
z
M 3750 25 
L 3750 2913 
L 2819 2913 
Q 2475 2913 2125 2894 
Q 2144 3081 2125 3269 
Q 2475 3256 2819 3256 
L 5469 3256 
Q 5819 3256 6163 3269 
Q 6144 3081 6163 2894 
Q 5813 2913 5469 2913 
L 4194 2913 
L 4194 -144 
Q 4194 -725 3456 -813 
L 3263 -825 
Q 3325 -506 3125 -250 
Q 3250 -281 3394 -306 
Q 3663 -313 3706 -272 
Q 3750 -231 3750 25 
z
M 5544 4950 
Q 5525 4756 5544 4569 
Q 5194 4588 4844 4588 
L 3325 4588 
Q 2975 4588 2625 4569 
Q 2644 4756 2625 4950 
Q 2975 4931 3325 4931 
L 4844 4931 
Q 5194 4931 5544 4950 
z
M 819 -850 
Q 581 -825 344 -850 
Q 369 -419 369 19 
L 363 4938 
L 2256 4938 
L 2256 4625 
Q 2150 4513 2075 4375 
L 1481 3238 
Q 2181 2319 2181 1156 
Q 2144 400 1569 163 
L 1406 88 
Q 1288 300 1138 481 
Q 1294 538 1450 606 
Q 1763 744 1794 1156 
Q 1794 1744 1600 2300 
Q 1406 2856 1038 3313 
L 1725 4625 
L 788 4625 
L 794 19 
Q 794 -419 819 -850 
z
" transform="scale(0.015625)"/>
       <path id="WenQuanYiZenHei-503c" d="M 6175 -219 
Q 6156 -388 6175 -556 
Q 5863 -544 5550 -544 
L 2313 -544 
Q 2000 -544 1688 -556 
Q 1706 -388 1688 -219 
L 2506 -231 
L 2506 3469 
L 3644 3469 
L 3644 4119 
L 2638 4119 
Q 2325 4119 2013 4100 
Q 2031 4269 2013 4438 
Q 2325 4425 2638 4425 
L 3638 4425 
Q 3638 4719 3619 5013 
Q 3856 4988 4094 5013 
Q 4075 4719 4075 4425 
L 5344 4425 
Q 5650 4425 5963 4438 
Q 5950 4269 5963 4100 
Q 5656 4119 5344 4119 
L 4069 4119 
L 4069 3469 
L 5300 3469 
L 5300 -231 
L 5550 -231 
Q 5863 -231 6175 -219 
z
M 4869 2556 
L 4869 3156 
L 2931 3156 
Q 2931 2850 2931 2556 
L 4869 2556 
z
M 4869 1669 
L 4869 2250 
L 2931 2250 
L 2931 1669 
L 4869 1669 
z
M 4869 731 
L 4869 1363 
L 2931 1363 
L 2931 731 
L 4869 731 
z
M 4869 -231 
L 4869 425 
L 2931 425 
L 2931 -231 
L 4869 -231 
z
M 2106 4925 
Q 1856 4075 1463 3338 
L 1463 31 
Q 1463 -413 1481 -850 
Q 1256 -825 1031 -850 
Q 1050 -413 1050 31 
L 1050 2681 
Q 750 2269 375 1931 
Q 238 2156 0 2256 
Q 331 2544 619 2875 
Q 1094 3425 1300 3950 
Q 1494 4469 1625 5050 
Q 1850 4963 2106 4925 
z
" transform="scale(0.015625)"/>
      </defs>
      <use xlink:href="#WenQuanYiZenHei-5b9e"/>
      <use xlink:href="#WenQuanYiZenHei-9645" x="100"/>
      <use xlink:href="#WenQuanYiZenHei-503c" x="200"/>
     </g>
    </g>
    <g id="line2d_24">
     <path d="M 47.1875 63.54975 
L 57.1875 63.54975 
L 67.1875 63.54975 
" style="fill: none; stroke: #ffa500; stroke-width: 1.5; stroke-linecap: square"/>
    </g>
    <g id="text_22">
     <!-- 校验值 -->
     <g transform="translate(75.1875 67.04975)scale(0.1 -0.1)">
      <defs>
       <path id="WenQuanYiZenHei-6821" d="M 5256 2463 
Q 5025 1475 4494 706 
Q 5125 -94 6175 -544 
Q 5950 -663 5850 -900 
Q 4906 -494 4250 381 
Q 3931 0 3475 -350 
Q 3019 -700 2388 -919 
Q 2338 -656 2138 -475 
Q 3306 -69 4006 738 
Q 3563 1444 3300 2331 
Q 3050 2050 2706 1800 
Q 2606 2000 2406 2106 
Q 2900 2444 3181 2938 
Q 3350 3225 3488 3538 
Q 3700 3431 3925 3369 
Q 3763 2894 3425 2475 
L 3650 2531 
Q 3888 1675 4244 1075 
Q 4469 1444 4603 1937 
Q 4738 2431 4775 2688 
Q 4963 2644 5150 2625 
Q 4919 2969 4663 3294 
L 5038 3588 
Q 5544 2925 5975 2213 
L 5569 1969 
L 5256 2463 
z
M 6006 4050 
Q 5988 3881 6006 3713 
Q 5694 3725 5381 3725 
L 3413 3725 
Q 3100 3725 2788 3713 
Q 2806 3881 2788 4050 
Q 3100 4031 3413 4031 
L 4325 4031 
Q 4019 4525 3644 4969 
L 4000 5275 
Q 4413 4788 4750 4244 
L 4406 4031 
L 5381 4031 
Q 5694 4031 6006 4050 
z
M 406 263 
Q 238 431 -25 469 
Q 194 825 466 1337 
Q 738 1850 925 2406 
Q 1113 2963 1256 3519 
L 825 3519 
Q 506 3519 188 3500 
Q 206 3700 188 3900 
Q 506 3881 825 3881 
L 1363 3881 
L 1363 4263 
Q 1363 4719 1338 5175 
Q 1556 5150 1775 5175 
Q 1756 4719 1756 4263 
L 1756 3881 
L 2525 3900 
Q 2506 3700 2525 3500 
L 1756 3519 
L 1756 2738 
L 1931 2881 
Q 2306 2300 2613 1650 
L 2231 1413 
Q 2081 1725 1919 2019 
L 1756 2300 
L 1756 69 
Q 1756 -388 1775 -850 
Q 1556 -825 1338 -850 
Q 1363 -388 1363 69 
L 1363 2438 
Q 925 1144 406 263 
z
" transform="scale(0.015625)"/>
       <path id="WenQuanYiZenHei-9a8c" d="M 5981 -106 
Q 5963 -275 5981 -444 
Q 5669 -431 5356 -431 
L 2969 -431 
Q 2656 -431 2350 -444 
Q 2363 -275 2350 -106 
Q 2656 -125 2969 -125 
L 4369 -125 
Q 4600 431 4881 1288 
L 5206 2300 
Q 5425 2206 5663 2163 
Q 5375 1188 4831 -125 
L 5356 -125 
Q 5669 -125 5981 -106 
z
M 4063 594 
Q 3788 1425 3425 2219 
L 3856 2419 
Q 4225 1600 4513 744 
L 4063 594 
z
M 3163 363 
Q 2931 1200 2613 2006 
L 3056 2175 
Q 3381 1350 3619 488 
L 3163 363 
z
M 4581 2550 
L 3513 2550 
Q 3200 2550 2888 2538 
Q 2900 2663 2894 2769 
Q 2569 2488 2206 2300 
Q 2113 2550 1894 2700 
Q 2488 2975 2975 3463 
Q 3269 3756 3394 4006 
Q 3644 4513 3794 5063 
Q 4038 4975 4294 4931 
Q 4250 4806 4206 4681 
Q 4475 3888 5025 3388 
Q 5519 2938 6169 2650 
Q 5938 2538 5838 2300 
Q 5513 2456 5200 2700 
Q 5200 2619 5206 2538 
Q 4894 2550 4581 2550 
z
M 3513 2863 
L 4994 2869 
Q 4344 3438 3988 4194 
Q 3594 3406 3013 2869 
Q 3263 2863 3513 2863 
z
M 206 444 
Q 188 756 44 963 
Q 319 956 650 1003 
Q 981 1050 1731 1281 
L 1738 1006 
Q 800 719 206 444 
z
M 525 4000 
Q 744 3950 994 3944 
Q 925 3519 875 3081 
L 763 2144 
L 1475 2144 
L 1831 4444 
L 663 4444 
Q 350 4444 38 4431 
Q 56 4600 38 4769 
Q 350 4756 663 4756 
L 2313 4756 
L 1913 2144 
L 2375 2144 
L 2200 -200 
Q 2188 -425 1988 -588 
Q 1694 -800 1181 -788 
L 944 -788 
Q 1000 -450 788 -269 
Q 1013 -294 1334 -287 
Q 1656 -281 1715 -243 
Q 1775 -206 1781 -50 
L 1925 1831 
L 294 1831 
L 444 3131 
Q 500 3569 525 4000 
z
" transform="scale(0.015625)"/>
      </defs>
      <use xlink:href="#WenQuanYiZenHei-6821"/>
      <use xlink:href="#WenQuanYiZenHei-9a8c" x="100"/>
      <use xlink:href="#WenQuanYiZenHei-503c" x="200"/>
     </g>
    </g>
    <g id="line2d_25">
     <path d="M 47.1875 78.071625 
L 57.1875 78.071625 
L 67.1875 78.071625 
" style="fill: none; stroke: #ff0000; stroke-width: 1.5; stroke-linecap: square"/>
    </g>
    <g id="text_23">
     <!-- 预测值 -->
     <g transform="translate(75.1875 81.571625)scale(0.1 -0.1)">
      <use xlink:href="#WenQuanYiZenHei-9884"/>
      <use xlink:href="#WenQuanYiZenHei-6d4b" x="100"/>
      <use xlink:href="#WenQuanYiZenHei-503c" x="200"/>
     </g>
    </g>
   </g>
  </g>
 </g>
 <defs>
  <clipPath id="pcf163dae07">
   <rect x="38.1875" y="35.23725" width="1339.2" height="332.64"/>
  </clipPath>
 </defs>
</svg>
