<?xml version="1.0" encoding="utf-8" standalone="no"?>
<!DOCTYPE svg PUBLIC "-//W3C//DTD SVG 1.1//EN"
  "http://www.w3.org/Graphics/SVG/1.1/DTD/svg11.dtd">
<svg xmlns:xlink="http://www.w3.org/1999/xlink" width="1378.590625pt" height="390.418188pt" viewBox="0 0 1378.590625 390.418188" xmlns="http://www.w3.org/2000/svg" version="1.1">
 <metadata>
  <rdf:RDF xmlns:dc="http://purl.org/dc/elements/1.1/" xmlns:cc="http://creativecommons.org/ns#" xmlns:rdf="http://www.w3.org/1999/02/22-rdf-syntax-ns#">
   <cc:Work>
    <dc:type rdf:resource="http://purl.org/dc/dcmitype/StillImage"/>
    <dc:date>2022-06-19T18:13:10.588102</dc:date>
    <dc:format>image/svg+xml</dc:format>
    <dc:creator>
     <cc:Agent>
      <dc:title>Matplotlib v3.5.2, https://matplotlib.org/</dc:title>
     </cc:Agent>
    </dc:creator>
   </cc:Work>
  </rdf:RDF>
 </metadata>
 <defs>
  <style type="text/css">*{stroke-linejoin: round; stroke-linecap: butt}</style>
 </defs>
 <g id="figure_1">
  <g id="patch_1">
   <path d="M 0 390.418188 
L 1378.590625 390.418188 
L 1378.590625 -0 
L 0 -0 
z
" style="fill: #ffffff"/>
  </g>
  <g id="axes_1">
   <g id="patch_2">
    <path d="M 32.190625 367.701 
L 1371.390625 367.701 
L 1371.390625 35.061 
L 32.190625 35.061 
z
" style="fill: #ffffff"/>
   </g>
   <g id="matplotlib.axis_1">
    <g id="xtick_1">
     <g id="line2d_1">
      <defs>
       <path id="m326f90a8d3" d="M 0 0 
L 0 3.5 
" style="stroke: #000000; stroke-width: 0.8"/>
      </defs>
      <g>
       <use xlink:href="#m326f90a8d3" x="62.96897" y="367.701" style="stroke: #000000; stroke-width: 0.8"/>
      </g>
     </g>
     <g id="text_1">
      <!-- 2020-01 -->
      <g transform="translate(43.479127 381.55725)scale(0.1 -0.1)">
       <defs>
        <path id="WenQuanYiZenHei-32" d="M 3488 0 
L 369 0 
L 369 456 
L 2150 1850 
Q 2931 2463 2931 3144 
Q 2931 3619 2488 3863 
Q 2231 4013 1931 4013 
Q 1425 4013 1113 3619 
Q 894 3356 881 3013 
L 369 3169 
Q 531 3981 1213 4300 
Q 1544 4456 1950 4456 
Q 2631 4456 3088 4044 
L 3225 3888 
L 3350 3706 
Q 3481 3444 3481 3144 
Q 3481 2313 2519 1569 
L 1069 456 
L 3488 456 
L 3488 0 
z
" transform="scale(0.015625)"/>
        <path id="WenQuanYiZenHei-30" d="M 3581 2175 
Q 3581 1288 3169 638 
Q 2713 -63 1938 -63 
Q 1025 -63 563 831 
Q 256 1425 256 2188 
Q 256 3188 700 3819 
Q 1138 4456 1888 4456 
Q 2863 4456 3306 3500 
Q 3581 2925 3581 2175 
z
M 3019 2100 
Q 3019 3356 2500 3806 
L 2350 3919 
Q 2144 4031 1888 4031 
Q 1100 4031 888 2956 
Q 819 2625 819 2225 
Q 819 1013 1338 569 
Q 1588 356 1938 356 
Q 2675 356 2925 1294 
Q 3019 1663 3019 2100 
z
" transform="scale(0.015625)"/>
        <path id="WenQuanYiZenHei-2d" d="M 1363 1444 
L 0 1444 
L 0 1844 
L 1363 1844 
L 1363 1444 
z
" transform="scale(0.015625)"/>
        <path id="WenQuanYiZenHei-31" d="M 3556 0 
L 488 0 
L 488 406 
L 1800 406 
L 1800 3725 
Q 1231 3125 588 2788 
L 588 3338 
Q 1456 3781 1931 4388 
L 2331 4388 
L 2331 406 
L 3556 406 
L 3556 0 
z
" transform="scale(0.015625)"/>
       </defs>
       <use xlink:href="#WenQuanYiZenHei-32"/>
       <use xlink:href="#WenQuanYiZenHei-30" x="59.960938"/>
       <use xlink:href="#WenQuanYiZenHei-32" x="119.921875"/>
       <use xlink:href="#WenQuanYiZenHei-30" x="179.882812"/>
       <use xlink:href="#WenQuanYiZenHei-2d" x="239.84375"/>
       <use xlink:href="#WenQuanYiZenHei-30" x="269.824219"/>
       <use xlink:href="#WenQuanYiZenHei-31" x="329.785156"/>
      </g>
     </g>
    </g>
    <g id="xtick_2">
     <g id="line2d_2">
      <g>
       <use xlink:href="#m326f90a8d3" x="187.450278" y="367.701" style="stroke: #000000; stroke-width: 0.8"/>
      </g>
     </g>
     <g id="text_2">
      <!-- 2020-04 -->
      <g transform="translate(167.960434 381.55725)scale(0.1 -0.1)">
       <defs>
        <path id="WenQuanYiZenHei-34" d="M 3631 1025 
L 2913 1025 
L 2913 0 
L 2381 0 
L 2381 1025 
L 219 1025 
L 219 1388 
L 2225 4388 
L 2913 4388 
L 2913 1444 
L 3631 1444 
L 3631 1025 
z
M 2381 1444 
L 2381 3963 
L 788 1444 
L 2381 1444 
z
" transform="scale(0.015625)"/>
       </defs>
       <use xlink:href="#WenQuanYiZenHei-32"/>
       <use xlink:href="#WenQuanYiZenHei-30" x="59.960938"/>
       <use xlink:href="#WenQuanYiZenHei-32" x="119.921875"/>
       <use xlink:href="#WenQuanYiZenHei-30" x="179.882812"/>
       <use xlink:href="#WenQuanYiZenHei-2d" x="239.84375"/>
       <use xlink:href="#WenQuanYiZenHei-30" x="269.824219"/>
       <use xlink:href="#WenQuanYiZenHei-34" x="329.785156"/>
      </g>
     </g>
    </g>
    <g id="xtick_3">
     <g id="line2d_3">
      <g>
       <use xlink:href="#m326f90a8d3" x="311.931585" y="367.701" style="stroke: #000000; stroke-width: 0.8"/>
      </g>
     </g>
     <g id="text_3">
      <!-- 2020-07 -->
      <g transform="translate(292.441741 381.55725)scale(0.1 -0.1)">
       <defs>
        <path id="WenQuanYiZenHei-37" d="M 3400 4056 
Q 1838 2175 1838 0 
L 1275 0 
Q 1269 1438 2056 2825 
Q 2381 3400 2825 3913 
L 444 3913 
L 500 4388 
L 3400 4388 
L 3400 4056 
z
" transform="scale(0.015625)"/>
       </defs>
       <use xlink:href="#WenQuanYiZenHei-32"/>
       <use xlink:href="#WenQuanYiZenHei-30" x="59.960938"/>
       <use xlink:href="#WenQuanYiZenHei-32" x="119.921875"/>
       <use xlink:href="#WenQuanYiZenHei-30" x="179.882812"/>
       <use xlink:href="#WenQuanYiZenHei-2d" x="239.84375"/>
       <use xlink:href="#WenQuanYiZenHei-30" x="269.824219"/>
       <use xlink:href="#WenQuanYiZenHei-37" x="329.785156"/>
      </g>
     </g>
    </g>
    <g id="xtick_4">
     <g id="line2d_4">
      <g>
       <use xlink:href="#m326f90a8d3" x="437.780819" y="367.701" style="stroke: #000000; stroke-width: 0.8"/>
      </g>
     </g>
     <g id="text_4">
      <!-- 2020-10 -->
      <g transform="translate(418.290975 381.55725)scale(0.1 -0.1)">
       <use xlink:href="#WenQuanYiZenHei-32"/>
       <use xlink:href="#WenQuanYiZenHei-30" x="59.960938"/>
       <use xlink:href="#WenQuanYiZenHei-32" x="119.921875"/>
       <use xlink:href="#WenQuanYiZenHei-30" x="179.882812"/>
       <use xlink:href="#WenQuanYiZenHei-2d" x="239.84375"/>
       <use xlink:href="#WenQuanYiZenHei-31" x="269.824219"/>
       <use xlink:href="#WenQuanYiZenHei-30" x="329.785156"/>
      </g>
     </g>
    </g>
    <g id="xtick_5">
     <g id="line2d_5">
      <g>
       <use xlink:href="#m326f90a8d3" x="563.630053" y="367.701" style="stroke: #000000; stroke-width: 0.8"/>
      </g>
     </g>
     <g id="text_5">
      <!-- 2021-01 -->
      <g transform="translate(544.140209 381.55725)scale(0.1 -0.1)">
       <use xlink:href="#WenQuanYiZenHei-32"/>
       <use xlink:href="#WenQuanYiZenHei-30" x="59.960938"/>
       <use xlink:href="#WenQuanYiZenHei-32" x="119.921875"/>
       <use xlink:href="#WenQuanYiZenHei-31" x="179.882812"/>
       <use xlink:href="#WenQuanYiZenHei-2d" x="239.84375"/>
       <use xlink:href="#WenQuanYiZenHei-30" x="269.824219"/>
       <use xlink:href="#WenQuanYiZenHei-31" x="329.785156"/>
      </g>
     </g>
    </g>
    <g id="xtick_6">
     <g id="line2d_6">
      <g>
       <use xlink:href="#m326f90a8d3" x="686.743434" y="367.701" style="stroke: #000000; stroke-width: 0.8"/>
      </g>
     </g>
     <g id="text_6">
      <!-- 2021-04 -->
      <g transform="translate(667.25359 381.55725)scale(0.1 -0.1)">
       <use xlink:href="#WenQuanYiZenHei-32"/>
       <use xlink:href="#WenQuanYiZenHei-30" x="59.960938"/>
       <use xlink:href="#WenQuanYiZenHei-32" x="119.921875"/>
       <use xlink:href="#WenQuanYiZenHei-31" x="179.882812"/>
       <use xlink:href="#WenQuanYiZenHei-2d" x="239.84375"/>
       <use xlink:href="#WenQuanYiZenHei-30" x="269.824219"/>
       <use xlink:href="#WenQuanYiZenHei-34" x="329.785156"/>
      </g>
     </g>
    </g>
    <g id="xtick_7">
     <g id="line2d_7">
      <g>
       <use xlink:href="#m326f90a8d3" x="811.224741" y="367.701" style="stroke: #000000; stroke-width: 0.8"/>
      </g>
     </g>
     <g id="text_7">
      <!-- 2021-07 -->
      <g transform="translate(791.734898 381.55725)scale(0.1 -0.1)">
       <use xlink:href="#WenQuanYiZenHei-32"/>
       <use xlink:href="#WenQuanYiZenHei-30" x="59.960938"/>
       <use xlink:href="#WenQuanYiZenHei-32" x="119.921875"/>
       <use xlink:href="#WenQuanYiZenHei-31" x="179.882812"/>
       <use xlink:href="#WenQuanYiZenHei-2d" x="239.84375"/>
       <use xlink:href="#WenQuanYiZenHei-30" x="269.824219"/>
       <use xlink:href="#WenQuanYiZenHei-37" x="329.785156"/>
      </g>
     </g>
    </g>
    <g id="xtick_8">
     <g id="line2d_8">
      <g>
       <use xlink:href="#m326f90a8d3" x="937.073975" y="367.701" style="stroke: #000000; stroke-width: 0.8"/>
      </g>
     </g>
     <g id="text_8">
      <!-- 2021-10 -->
      <g transform="translate(917.584132 381.55725)scale(0.1 -0.1)">
       <use xlink:href="#WenQuanYiZenHei-32"/>
       <use xlink:href="#WenQuanYiZenHei-30" x="59.960938"/>
       <use xlink:href="#WenQuanYiZenHei-32" x="119.921875"/>
       <use xlink:href="#WenQuanYiZenHei-31" x="179.882812"/>
       <use xlink:href="#WenQuanYiZenHei-2d" x="239.84375"/>
       <use xlink:href="#WenQuanYiZenHei-31" x="269.824219"/>
       <use xlink:href="#WenQuanYiZenHei-30" x="329.785156"/>
      </g>
     </g>
    </g>
    <g id="xtick_9">
     <g id="line2d_9">
      <g>
       <use xlink:href="#m326f90a8d3" x="1062.923209" y="367.701" style="stroke: #000000; stroke-width: 0.8"/>
      </g>
     </g>
     <g id="text_9">
      <!-- 2022-01 -->
      <g transform="translate(1043.433366 381.55725)scale(0.1 -0.1)">
       <use xlink:href="#WenQuanYiZenHei-32"/>
       <use xlink:href="#WenQuanYiZenHei-30" x="59.960938"/>
       <use xlink:href="#WenQuanYiZenHei-32" x="119.921875"/>
       <use xlink:href="#WenQuanYiZenHei-32" x="179.882812"/>
       <use xlink:href="#WenQuanYiZenHei-2d" x="239.84375"/>
       <use xlink:href="#WenQuanYiZenHei-30" x="269.824219"/>
       <use xlink:href="#WenQuanYiZenHei-31" x="329.785156"/>
      </g>
     </g>
    </g>
    <g id="xtick_10">
     <g id="line2d_10">
      <g>
       <use xlink:href="#m326f90a8d3" x="1186.03659" y="367.701" style="stroke: #000000; stroke-width: 0.8"/>
      </g>
     </g>
     <g id="text_10">
      <!-- 2022-04 -->
      <g transform="translate(1166.546747 381.55725)scale(0.1 -0.1)">
       <use xlink:href="#WenQuanYiZenHei-32"/>
       <use xlink:href="#WenQuanYiZenHei-30" x="59.960938"/>
       <use xlink:href="#WenQuanYiZenHei-32" x="119.921875"/>
       <use xlink:href="#WenQuanYiZenHei-32" x="179.882812"/>
       <use xlink:href="#WenQuanYiZenHei-2d" x="239.84375"/>
       <use xlink:href="#WenQuanYiZenHei-30" x="269.824219"/>
       <use xlink:href="#WenQuanYiZenHei-34" x="329.785156"/>
      </g>
     </g>
    </g>
    <g id="xtick_11">
     <g id="line2d_11">
      <g>
       <use xlink:href="#m326f90a8d3" x="1310.517898" y="367.701" style="stroke: #000000; stroke-width: 0.8"/>
      </g>
     </g>
     <g id="text_11">
      <!-- 2022-07 -->
      <g transform="translate(1291.028054 381.55725)scale(0.1 -0.1)">
       <use xlink:href="#WenQuanYiZenHei-32"/>
       <use xlink:href="#WenQuanYiZenHei-30" x="59.960938"/>
       <use xlink:href="#WenQuanYiZenHei-32" x="119.921875"/>
       <use xlink:href="#WenQuanYiZenHei-32" x="179.882812"/>
       <use xlink:href="#WenQuanYiZenHei-2d" x="239.84375"/>
       <use xlink:href="#WenQuanYiZenHei-30" x="269.824219"/>
       <use xlink:href="#WenQuanYiZenHei-37" x="329.785156"/>
      </g>
     </g>
    </g>
   </g>
   <g id="matplotlib.axis_2">
    <g id="ytick_1">
     <g id="line2d_12">
      <defs>
       <path id="mc8cae9714b" d="M 0 0 
L -3.5 0 
" style="stroke: #000000; stroke-width: 0.8"/>
      </defs>
      <g>
       <use xlink:href="#mc8cae9714b" x="32.190625" y="352.581" style="stroke: #000000; stroke-width: 0.8"/>
      </g>
     </g>
     <g id="text_12">
      <!-- 0 -->
      <g transform="translate(19.19375 356.009125)scale(0.1 -0.1)">
       <use xlink:href="#WenQuanYiZenHei-30"/>
      </g>
     </g>
    </g>
    <g id="ytick_2">
     <g id="line2d_13">
      <g>
       <use xlink:href="#mc8cae9714b" x="32.190625" y="309.070209" style="stroke: #000000; stroke-width: 0.8"/>
      </g>
     </g>
     <g id="text_13">
      <!-- 20 -->
      <g transform="translate(13.196875 312.498334)scale(0.1 -0.1)">
       <use xlink:href="#WenQuanYiZenHei-32"/>
       <use xlink:href="#WenQuanYiZenHei-30" x="59.960938"/>
      </g>
     </g>
    </g>
    <g id="ytick_3">
     <g id="line2d_14">
      <g>
       <use xlink:href="#mc8cae9714b" x="32.190625" y="265.559417" style="stroke: #000000; stroke-width: 0.8"/>
      </g>
     </g>
     <g id="text_14">
      <!-- 40 -->
      <g transform="translate(13.196875 268.987542)scale(0.1 -0.1)">
       <use xlink:href="#WenQuanYiZenHei-34"/>
       <use xlink:href="#WenQuanYiZenHei-30" x="59.960938"/>
      </g>
     </g>
    </g>
    <g id="ytick_4">
     <g id="line2d_15">
      <g>
       <use xlink:href="#mc8cae9714b" x="32.190625" y="222.048626" style="stroke: #000000; stroke-width: 0.8"/>
      </g>
     </g>
     <g id="text_15">
      <!-- 60 -->
      <g transform="translate(13.196875 225.476751)scale(0.1 -0.1)">
       <defs>
        <path id="WenQuanYiZenHei-36" d="M 3550 1431 
Q 3550 725 3006 288 
Q 2581 -63 1994 -63 
Q 1013 -63 563 825 
Q 288 1363 288 2081 
Q 288 3294 856 3938 
Q 1319 4456 2075 4456 
Q 2969 4456 3363 3756 
Q 3431 3631 3481 3481 
L 2988 3350 
Q 2750 3994 2075 4006 
Q 1056 4006 844 2669 
Q 794 2356 794 1981 
L 806 1981 
Q 1006 2506 1544 2744 
Q 1819 2869 2119 2869 
Q 2788 2869 3213 2375 
Q 3550 1975 3550 1431 
z
M 3038 1406 
Q 3038 1906 2656 2213 
Q 2381 2431 2038 2431 
Q 1525 2431 1181 2044 
Q 919 1744 919 1356 
Q 919 881 1344 581 
Q 1631 375 1981 375 
Q 2519 375 2838 781 
Q 3038 1050 3038 1406 
z
" transform="scale(0.015625)"/>
       </defs>
       <use xlink:href="#WenQuanYiZenHei-36"/>
       <use xlink:href="#WenQuanYiZenHei-30" x="59.960938"/>
      </g>
     </g>
    </g>
    <g id="ytick_5">
     <g id="line2d_16">
      <g>
       <use xlink:href="#mc8cae9714b" x="32.190625" y="178.537835" style="stroke: #000000; stroke-width: 0.8"/>
      </g>
     </g>
     <g id="text_16">
      <!-- 80 -->
      <g transform="translate(13.196875 181.96596)scale(0.1 -0.1)">
       <defs>
        <path id="WenQuanYiZenHei-38" d="M 3619 1175 
Q 3619 431 2850 100 
Q 2444 -63 1944 -63 
Q 1231 -63 725 269 
Q 225 594 225 1125 
Q 225 1881 1269 2281 
Q 719 2481 519 2938 
Q 444 3119 444 3319 
Q 444 4000 1144 4294 
Q 1519 4456 1963 4456 
Q 2669 4456 3094 4094 
Q 3425 3813 3425 3369 
Q 3425 2638 2575 2356 
Q 3231 2056 3450 1725 
Q 3619 1488 3619 1175 
z
M 2944 3344 
Q 2944 3906 2288 4019 
Q 2138 4044 1969 4044 
Q 1438 4044 1163 3775 
Q 1000 3613 1000 3375 
Q 1000 2925 1594 2663 
Q 1756 2588 1931 2550 
Q 2581 2725 2788 2956 
Q 2944 3125 2944 3344 
z
M 3075 1094 
Q 3075 1738 1875 2050 
Q 1094 1881 850 1463 
Q 763 1313 763 1131 
Q 763 569 1456 406 
Q 1681 344 1944 344 
Q 2519 344 2850 619 
Q 3075 813 3075 1094 
z
" transform="scale(0.015625)"/>
       </defs>
       <use xlink:href="#WenQuanYiZenHei-38"/>
       <use xlink:href="#WenQuanYiZenHei-30" x="59.960938"/>
      </g>
     </g>
    </g>
    <g id="ytick_6">
     <g id="line2d_17">
      <g>
       <use xlink:href="#mc8cae9714b" x="32.190625" y="135.027043" style="stroke: #000000; stroke-width: 0.8"/>
      </g>
     </g>
     <g id="text_17">
      <!-- 100 -->
      <g transform="translate(7.2 138.455168)scale(0.1 -0.1)">
       <use xlink:href="#WenQuanYiZenHei-31"/>
       <use xlink:href="#WenQuanYiZenHei-30" x="59.960938"/>
       <use xlink:href="#WenQuanYiZenHei-30" x="119.921875"/>
      </g>
     </g>
    </g>
    <g id="ytick_7">
     <g id="line2d_18">
      <g>
       <use xlink:href="#mc8cae9714b" x="32.190625" y="91.516252" style="stroke: #000000; stroke-width: 0.8"/>
      </g>
     </g>
     <g id="text_18">
      <!-- 120 -->
      <g transform="translate(7.2 94.944377)scale(0.1 -0.1)">
       <use xlink:href="#WenQuanYiZenHei-31"/>
       <use xlink:href="#WenQuanYiZenHei-32" x="59.960938"/>
       <use xlink:href="#WenQuanYiZenHei-30" x="119.921875"/>
      </g>
     </g>
    </g>
    <g id="ytick_8">
     <g id="line2d_19">
      <g>
       <use xlink:href="#mc8cae9714b" x="32.190625" y="48.00546" style="stroke: #000000; stroke-width: 0.8"/>
      </g>
     </g>
     <g id="text_19">
      <!-- 140 -->
      <g transform="translate(7.2 51.433585)scale(0.1 -0.1)">
       <use xlink:href="#WenQuanYiZenHei-31"/>
       <use xlink:href="#WenQuanYiZenHei-34" x="59.960938"/>
       <use xlink:href="#WenQuanYiZenHei-30" x="119.921875"/>
      </g>
     </g>
    </g>
   </g>
   <g id="line2d_20">
    <path d="M 93.063352 339.527763 
L 94.431279 306.894669 
L 95.799205 298.192511 
L 97.167132 280.788194 
L 98.535058 265.559417 
L 99.902985 230.750784 
L 101.270911 200.29323 
L 102.638837 185.064453 
L 104.006764 174.186755 
L 105.37469 137.202583 
L 106.742617 141.553662 
L 108.110543 150.25582 
L 109.47847 161.133518 
L 110.846396 174.186755 
L 112.214323 189.415532 
L 113.582249 213.346468 
L 114.950176 219.873086 
L 116.318102 274.261576 
L 117.686028 291.665892 
L 119.053955 313.421288 
L 120.421881 261.208338 
L 121.789808 304.719129 
L 123.157734 309.070209 
L 124.525661 280.788194 
L 125.893587 304.719129 
L 127.261514 339.527763 
L 128.62944 339.527763 
L 129.997367 346.054381 
L 131.365293 350.40546 
L 132.733219 350.40546 
L 134.101146 339.527763 
L 135.469072 346.054381 
L 136.836999 346.054381 
L 138.204925 348.229921 
L 139.572852 352.581 
L 140.940778 352.581 
L 142.308705 350.40546 
L 143.676631 350.40546 
L 145.044558 352.581 
L 146.412484 350.40546 
L 147.78041 352.581 
L 149.148337 352.581 
L 150.516263 350.40546 
L 151.88419 350.40546 
L 153.252116 352.581 
L 155.987969 352.581 
L 157.355896 350.40546 
L 158.723822 346.054381 
L 160.091749 352.581 
L 162.827602 352.581 
L 164.195528 343.878842 
L 165.563454 350.40546 
L 166.931381 346.054381 
L 168.299307 339.527763 
L 169.667234 335.176683 
L 171.03516 315.596827 
L 172.403087 341.703302 
L 173.771013 324.298986 
L 175.13894 348.229921 
L 176.506866 324.298986 
L 177.874793 341.703302 
L 179.242719 319.947906 
L 180.610645 335.176683 
L 181.978572 328.650065 
L 183.346498 335.176683 
L 186.082351 330.825604 
L 187.450278 337.352223 
L 188.818204 339.527763 
L 190.186131 337.352223 
L 191.554057 348.229921 
L 192.921984 335.176683 
L 194.28991 335.176683 
L 195.657836 350.40546 
L 197.025763 346.054381 
L 198.393689 346.054381 
L 199.761616 341.703302 
L 201.129542 343.878842 
L 202.497469 343.878842 
L 203.865395 346.054381 
L 205.233322 333.001144 
L 206.601248 348.229921 
L 207.969175 341.703302 
L 209.337101 339.527763 
L 210.705027 348.229921 
L 212.072954 350.40546 
L 214.808807 350.40546 
L 216.176733 352.581 
L 217.54466 346.054381 
L 218.912586 352.581 
L 220.280513 350.40546 
L 221.648439 350.40546 
L 223.016366 352.581 
L 224.384292 350.40546 
L 225.752218 352.581 
L 233.959777 352.581 
L 235.327704 350.40546 
L 236.69563 352.581 
L 247.639042 352.581 
L 249.006968 350.40546 
L 250.374895 352.581 
L 255.8466 352.581 
L 257.214527 350.40546 
L 258.582453 350.40546 
L 259.95038 352.581 
L 265.422086 352.581 
L 266.790012 350.40546 
L 268.157939 352.581 
L 269.525865 348.229921 
L 270.893791 350.40546 
L 273.629644 350.40546 
L 274.997571 352.581 
L 276.365497 346.054381 
L 277.733424 350.40546 
L 279.10135 352.581 
L 280.469277 348.229921 
L 281.837203 352.581 
L 283.20513 346.054381 
L 284.573056 352.581 
L 285.940983 350.40546 
L 287.308909 315.596827 
L 288.676835 352.581 
L 290.044762 346.054381 
L 291.412688 352.581 
L 292.780615 352.581 
L 294.148541 346.054381 
L 295.516468 352.581 
L 296.884394 346.054381 
L 298.252321 352.581 
L 300.988174 352.581 
L 302.3561 350.40546 
L 303.724026 352.581 
L 305.091953 348.229921 
L 306.459879 352.581 
L 307.827806 352.581 
L 309.195732 343.878842 
L 310.563659 352.581 
L 311.931585 350.40546 
L 313.299512 352.581 
L 314.667438 350.40546 
L 316.035365 352.581 
L 318.771217 352.581 
L 320.139144 348.229921 
L 321.50707 348.229921 
L 322.874997 352.581 
L 324.242923 352.581 
L 326.978776 348.229921 
L 328.346703 352.581 
L 331.082556 352.581 
L 332.450482 343.878842 
L 335.186335 348.229921 
L 336.554261 352.581 
L 337.922188 352.581 
L 339.290114 348.229921 
L 340.658041 350.40546 
L 342.025967 341.703302 
L 343.393894 348.229921 
L 344.76182 346.054381 
L 346.129747 352.581 
L 347.497673 352.581 
L 348.865599 348.229921 
L 350.233526 350.40546 
L 351.601452 346.054381 
L 352.969379 348.229921 
L 354.337305 348.229921 
L 355.705232 350.40546 
L 357.073158 343.878842 
L 358.441085 352.581 
L 361.176938 352.581 
L 362.544864 350.40546 
L 363.91279 341.703302 
L 365.280717 346.054381 
L 366.648643 346.054381 
L 368.01657 352.581 
L 369.384496 335.176683 
L 370.752423 352.581 
L 372.120349 348.229921 
L 373.488276 346.054381 
L 374.856202 335.176683 
L 376.224129 350.40546 
L 377.592055 343.878842 
L 378.959981 352.581 
L 381.695834 352.581 
L 383.063761 348.229921 
L 384.431687 352.581 
L 385.799614 346.054381 
L 387.16754 343.878842 
L 388.535467 352.581 
L 391.27132 348.229921 
L 392.639246 350.40546 
L 395.375099 350.40546 
L 398.110952 346.054381 
L 399.478878 324.298986 
L 400.846805 348.229921 
L 403.582658 343.878842 
L 406.318511 352.581 
L 407.686437 350.40546 
L 409.054364 343.878842 
L 410.42229 348.229921 
L 411.790216 350.40546 
L 413.158143 350.40546 
L 414.526069 343.878842 
L 415.893996 350.40546 
L 417.261922 350.40546 
L 418.629849 346.054381 
L 419.997775 339.527763 
L 421.365702 343.878842 
L 422.733628 346.054381 
L 424.101555 346.054381 
L 425.469481 343.878842 
L 426.837407 352.581 
L 428.205334 348.229921 
L 429.57326 346.054381 
L 430.941187 348.229921 
L 432.309113 341.703302 
L 433.67704 352.581 
L 435.044966 335.176683 
L 436.412893 352.581 
L 437.780819 343.878842 
L 439.148746 346.054381 
L 440.516672 339.527763 
L 441.884598 350.40546 
L 443.252525 341.703302 
L 444.620451 348.229921 
L 445.988378 352.581 
L 447.356304 346.054381 
L 448.724231 350.40546 
L 450.092157 339.527763 
L 451.460084 346.054381 
L 452.82801 348.229921 
L 454.195937 339.527763 
L 456.931789 348.229921 
L 458.299716 348.229921 
L 459.667642 343.878842 
L 461.035569 346.054381 
L 462.403495 341.703302 
L 463.771422 346.054381 
L 465.139348 346.054381 
L 466.507275 352.581 
L 467.875201 333.001144 
L 469.243128 346.054381 
L 470.611054 350.40546 
L 471.97898 350.40546 
L 474.714833 346.054381 
L 476.08276 348.229921 
L 477.450686 346.054381 
L 478.818613 346.054381 
L 480.186539 341.703302 
L 481.554466 335.176683 
L 482.922392 346.054381 
L 484.290319 352.581 
L 485.658245 346.054381 
L 487.026171 348.229921 
L 488.394098 348.229921 
L 491.129951 339.527763 
L 492.497877 352.581 
L 493.865804 350.40546 
L 495.23373 352.581 
L 496.601657 337.352223 
L 497.969583 346.054381 
L 499.33751 348.229921 
L 500.705436 346.054381 
L 502.073362 350.40546 
L 503.441289 350.40546 
L 504.809215 348.229921 
L 506.177142 352.581 
L 507.545068 352.581 
L 508.912995 343.878842 
L 510.280921 343.878842 
L 511.648848 350.40546 
L 513.016774 343.878842 
L 514.384701 352.581 
L 517.120553 352.581 
L 518.48848 350.40546 
L 519.856406 352.581 
L 521.224333 346.054381 
L 522.592259 343.878842 
L 523.960186 350.40546 
L 525.328112 346.054381 
L 526.696039 348.229921 
L 528.063965 348.229921 
L 529.431892 346.054381 
L 532.167745 350.40546 
L 533.535671 346.054381 
L 536.271524 350.40546 
L 539.007377 350.40546 
L 540.375303 346.054381 
L 541.74323 350.40546 
L 543.111156 343.878842 
L 544.479083 350.40546 
L 545.847009 350.40546 
L 547.214936 346.054381 
L 548.582862 346.054381 
L 549.950788 350.40546 
L 554.054568 350.40546 
L 555.422494 352.581 
L 556.790421 350.40546 
L 559.526274 350.40546 
L 560.8942 346.054381 
L 562.262127 348.229921 
L 563.630053 352.581 
L 564.997979 341.703302 
L 566.365906 348.229921 
L 567.733832 343.878842 
L 570.469685 348.229921 
L 571.837612 346.054381 
L 574.573465 350.40546 
L 575.941391 337.352223 
L 577.309318 350.40546 
L 580.04517 346.054381 
L 581.413097 346.054381 
L 582.781023 352.581 
L 584.14895 348.229921 
L 585.516876 350.40546 
L 586.884803 346.054381 
L 588.252729 346.054381 
L 589.620656 350.40546 
L 590.988582 343.878842 
L 592.356509 350.40546 
L 593.724435 341.703302 
L 595.092361 348.229921 
L 596.460288 348.229921 
L 597.828214 337.352223 
L 599.196141 350.40546 
L 600.564067 341.703302 
L 601.931994 352.581 
L 603.29992 346.054381 
L 604.667847 350.40546 
L 606.035773 348.229921 
L 607.4037 348.229921 
L 608.771626 346.054381 
L 611.507479 350.40546 
L 612.875405 348.229921 
L 614.243332 337.352223 
L 615.611258 337.352223 
L 616.979185 352.581 
L 621.082964 346.054381 
L 622.450891 348.229921 
L 623.818817 343.878842 
L 625.186743 335.176683 
L 626.55467 339.527763 
L 629.290523 352.581 
L 630.658449 346.054381 
L 632.026376 350.40546 
L 633.394302 346.054381 
L 634.762229 333.001144 
L 636.130155 352.581 
L 637.498082 348.229921 
L 638.866008 348.229921 
L 640.233934 341.703302 
L 641.601861 350.40546 
L 642.969787 339.527763 
L 644.337714 346.054381 
L 647.073567 346.054381 
L 648.441493 350.40546 
L 649.80942 346.054381 
L 651.177346 343.878842 
L 652.545273 343.878842 
L 653.913199 348.229921 
L 655.281126 350.40546 
L 656.649052 348.229921 
L 658.016978 348.229921 
L 659.384905 346.054381 
L 660.752831 350.40546 
L 662.120758 350.40546 
L 663.488684 352.581 
L 664.856611 352.581 
L 666.224537 350.40546 
L 667.592464 346.054381 
L 670.328317 350.40546 
L 671.696243 350.40546 
L 673.064169 343.878842 
L 674.432096 348.229921 
L 675.800022 343.878842 
L 677.167949 348.229921 
L 678.535875 350.40546 
L 679.903802 350.40546 
L 681.271728 335.176683 
L 682.639655 348.229921 
L 684.007581 348.229921 
L 685.375508 346.054381 
L 686.743434 352.581 
L 688.11136 346.054381 
L 689.479287 348.229921 
L 690.847213 352.581 
L 692.21514 348.229921 
L 693.583066 350.40546 
L 694.950993 350.40546 
L 696.318919 343.878842 
L 697.686846 352.581 
L 699.054772 350.40546 
L 700.422699 346.054381 
L 701.790625 348.229921 
L 704.526478 343.878842 
L 705.894404 348.229921 
L 708.630257 343.878842 
L 711.36611 352.581 
L 714.101963 348.229921 
L 715.46989 341.703302 
L 716.837816 350.40546 
L 718.205742 352.581 
L 722.309522 346.054381 
L 723.677448 350.40546 
L 725.045375 348.229921 
L 726.413301 337.352223 
L 727.781228 339.527763 
L 729.149154 343.878842 
L 730.517081 343.878842 
L 731.885007 350.40546 
L 733.252933 350.40546 
L 734.62086 341.703302 
L 735.988786 352.581 
L 737.356713 341.703302 
L 738.724639 348.229921 
L 740.092566 350.40546 
L 741.460492 335.176683 
L 742.828419 348.229921 
L 744.196345 346.054381 
L 745.564272 350.40546 
L 746.932198 341.703302 
L 748.300124 343.878842 
L 749.668051 350.40546 
L 753.77183 350.40546 
L 755.139757 339.527763 
L 756.507683 346.054381 
L 757.87561 346.054381 
L 759.243536 352.581 
L 760.611463 350.40546 
L 761.979389 322.123446 
L 763.347316 350.40546 
L 764.715242 346.054381 
L 766.083168 350.40546 
L 767.451095 302.54359 
L 768.819021 324.298986 
L 770.186948 324.298986 
L 771.554874 315.596827 
L 772.922801 328.650065 
L 774.290727 317.772367 
L 775.658654 333.001144 
L 777.02658 335.176683 
L 778.394507 304.719129 
L 779.762433 333.001144 
L 781.130359 333.001144 
L 782.498286 328.650065 
L 785.234139 324.298986 
L 786.602065 337.352223 
L 787.969992 330.825604 
L 789.337918 319.947906 
L 790.705845 337.352223 
L 792.073771 333.001144 
L 793.441698 322.123446 
L 794.809624 326.474525 
L 796.17755 337.352223 
L 797.545477 337.352223 
L 798.913403 346.054381 
L 800.28133 335.176683 
L 803.017183 343.878842 
L 804.385109 350.40546 
L 805.753036 341.703302 
L 808.488889 350.40546 
L 809.856815 352.581 
L 811.224741 335.176683 
L 812.592668 346.054381 
L 813.960594 346.054381 
L 815.328521 341.703302 
L 816.696447 346.054381 
L 818.064374 341.703302 
L 819.4323 348.229921 
L 820.800227 346.054381 
L 822.168153 350.40546 
L 823.53608 352.581 
L 824.904006 343.878842 
L 827.639859 348.229921 
L 829.007785 326.474525 
L 830.375712 343.878842 
L 831.743638 350.40546 
L 833.111565 343.878842 
L 834.479491 335.176683 
L 837.215344 352.581 
L 838.583271 335.176683 
L 839.951197 322.123446 
L 841.319123 341.703302 
L 842.68705 339.527763 
L 844.054976 335.176683 
L 845.422903 324.298986 
L 846.790829 346.054381 
L 848.158756 346.054381 
L 849.526682 333.001144 
L 850.894609 350.40546 
L 852.262535 348.229921 
L 853.630462 348.229921 
L 854.998388 339.527763 
L 856.366314 348.229921 
L 857.734241 348.229921 
L 859.102167 324.298986 
L 860.470094 346.054381 
L 861.83802 346.054381 
L 863.205947 335.176683 
L 864.573873 335.176683 
L 865.9418 348.229921 
L 867.309726 341.703302 
L 868.677653 333.001144 
L 870.045579 346.054381 
L 871.413505 324.298986 
L 872.781432 341.703302 
L 874.149358 333.001144 
L 875.517285 350.40546 
L 876.885211 330.825604 
L 878.253138 333.001144 
L 879.621064 343.878842 
L 880.988991 339.527763 
L 882.356917 341.703302 
L 883.724844 335.176683 
L 885.09277 346.054381 
L 886.460697 333.001144 
L 887.828623 335.176683 
L 889.196549 346.054381 
L 890.564476 346.054381 
L 891.932402 333.001144 
L 893.300329 343.878842 
L 894.668255 339.527763 
L 896.036182 333.001144 
L 897.404108 341.703302 
L 898.772035 343.878842 
L 900.139961 343.878842 
L 901.507888 337.352223 
L 902.875814 348.229921 
L 904.24374 343.878842 
L 905.611667 343.878842 
L 906.979593 341.703302 
L 908.34752 348.229921 
L 909.715446 339.527763 
L 911.083373 346.054381 
L 912.451299 335.176683 
L 913.819226 343.878842 
L 916.555079 348.229921 
L 917.923005 346.054381 
L 919.290931 348.229921 
L 920.658858 352.581 
L 922.026784 346.054381 
L 923.394711 348.229921 
L 924.762637 348.229921 
L 926.130564 350.40546 
L 927.49849 333.001144 
L 928.866417 343.878842 
L 930.234343 350.40546 
L 931.60227 346.054381 
L 932.970196 350.40546 
L 934.338122 346.054381 
L 935.706049 339.527763 
L 937.073975 346.054381 
L 938.441902 346.054381 
L 939.809828 343.878842 
L 941.177755 343.878842 
L 942.545681 352.581 
L 943.913608 352.581 
L 945.281534 348.229921 
L 946.649461 352.581 
L 948.017387 352.581 
L 949.385313 348.229921 
L 950.75324 352.581 
L 952.121166 348.229921 
L 953.489093 348.229921 
L 954.857019 352.581 
L 957.592872 352.581 
L 958.960799 348.229921 
L 960.328725 346.054381 
L 961.696652 346.054381 
L 963.064578 350.40546 
L 967.168357 350.40546 
L 968.536284 352.581 
L 969.90421 343.878842 
L 972.640063 352.581 
L 974.00799 343.878842 
L 975.375916 348.229921 
L 978.111769 352.581 
L 980.847622 343.878842 
L 982.215548 346.054381 
L 983.583475 350.40546 
L 984.951401 346.054381 
L 987.687254 346.054381 
L 989.055181 343.878842 
L 990.423107 350.40546 
L 991.791034 350.40546 
L 993.15896 348.229921 
L 994.526886 350.40546 
L 995.894813 350.40546 
L 997.262739 343.878842 
L 998.630666 348.229921 
L 999.998592 350.40546 
L 1001.366519 343.878842 
L 1004.102372 348.229921 
L 1005.470298 346.054381 
L 1006.838225 348.229921 
L 1008.206151 341.703302 
L 1009.574078 348.229921 
L 1012.30993 339.527763 
L 1013.677857 346.054381 
L 1015.045783 346.054381 
L 1016.41371 343.878842 
L 1017.781636 333.001144 
L 1019.149563 343.878842 
L 1020.517489 350.40546 
L 1021.885416 346.054381 
L 1023.253342 343.878842 
L 1024.621269 350.40546 
L 1025.989195 350.40546 
L 1027.357121 346.054381 
L 1030.092974 346.054381 
L 1031.460901 352.581 
L 1032.828827 352.581 
L 1034.196754 350.40546 
L 1035.56468 341.703302 
L 1036.932607 343.878842 
L 1038.300533 343.878842 
L 1039.66846 339.527763 
L 1041.036386 339.527763 
L 1043.772239 335.176683 
L 1045.140165 330.825604 
L 1046.508092 330.825604 
L 1047.876018 341.703302 
L 1049.243945 333.001144 
L 1050.611871 341.703302 
L 1051.979798 339.527763 
L 1053.347724 348.229921 
L 1054.715651 339.527763 
L 1056.083577 348.229921 
L 1057.451503 343.878842 
L 1058.81943 330.825604 
L 1060.187356 346.054381 
L 1061.555283 328.650065 
L 1062.923209 330.825604 
L 1064.291136 352.581 
L 1065.659062 311.245748 
L 1067.026989 337.352223 
L 1068.394915 330.825604 
L 1069.762842 333.001144 
L 1073.866621 333.001144 
L 1076.602474 293.841432 
L 1077.9704 313.421288 
L 1079.338327 330.825604 
L 1080.706253 324.298986 
L 1083.442106 315.596827 
L 1084.810033 313.421288 
L 1086.177959 333.001144 
L 1087.545885 341.703302 
L 1088.913812 322.123446 
L 1090.281738 337.352223 
L 1091.649665 335.176683 
L 1093.017591 339.527763 
L 1094.385518 348.229921 
L 1095.753444 350.40546 
L 1097.121371 346.054381 
L 1098.489297 337.352223 
L 1099.857224 339.527763 
L 1101.22515 348.229921 
L 1102.593076 337.352223 
L 1106.696856 324.298986 
L 1108.064782 324.298986 
L 1109.432709 330.825604 
L 1110.800635 335.176683 
L 1112.168562 298.192511 
L 1113.536488 313.421288 
L 1114.904415 313.421288 
L 1116.272341 333.001144 
L 1117.640267 319.947906 
L 1119.008194 300.36805 
L 1120.37612 309.070209 
L 1121.744047 291.665892 
L 1123.111973 313.421288 
L 1124.4799 293.841432 
L 1125.847826 289.490353 
L 1127.215753 298.192511 
L 1128.583679 298.192511 
L 1129.951606 265.559417 
L 1131.319532 296.016971 
L 1132.687459 298.192511 
L 1134.055385 254.681719 
L 1135.423311 239.452942 
L 1136.791238 222.048626 
L 1138.159164 158.957978 
L 1139.527091 172.011216 
L 1140.895017 150.25582 
L 1142.262944 189.415532 
L 1143.63087 102.39395 
L 1144.998797 148.080281 
L 1146.366723 50.181 
L 1147.73465 80.638554 
L 1149.102576 152.43136 
L 1150.470502 91.516252 
L 1151.838429 152.43136 
L 1153.206355 252.50618 
L 1154.574282 243.804022 
L 1155.942208 217.697547 
L 1157.310135 215.522007 
L 1158.678061 143.729201 
L 1160.045988 89.340712 
L 1161.413914 204.644309 
L 1162.781841 178.537835 
L 1164.149767 126.324885 
L 1165.517693 158.957978 
L 1166.88562 211.170928 
L 1168.253546 193.766612 
L 1169.621473 254.681719 
L 1170.989399 272.086036 
L 1172.357326 302.54359 
L 1173.725252 317.772367 
L 1175.093179 319.947906 
L 1176.461105 328.650065 
L 1177.829032 330.825604 
L 1179.196958 330.825604 
L 1180.564884 328.650065 
L 1181.932811 319.947906 
L 1183.300737 322.123446 
L 1184.668664 339.527763 
L 1186.03659 343.878842 
L 1187.404517 326.474525 
L 1188.772443 324.298986 
L 1190.14037 333.001144 
L 1191.508296 326.474525 
L 1192.876223 350.40546 
L 1194.244149 326.474525 
L 1195.612075 333.001144 
L 1196.980002 315.596827 
L 1198.347928 304.719129 
L 1199.715855 309.070209 
L 1201.083781 296.016971 
L 1202.451708 248.155101 
L 1203.819634 300.36805 
L 1205.187561 296.016971 
L 1206.555487 282.963734 
L 1209.29134 300.36805 
L 1210.659266 319.947906 
L 1212.027193 333.001144 
L 1213.395119 339.527763 
L 1214.763046 328.650065 
L 1216.130972 333.001144 
L 1217.498899 341.703302 
L 1218.866825 339.527763 
L 1220.234752 350.40546 
L 1221.602678 350.40546 
L 1222.970605 330.825604 
L 1224.338531 289.490353 
L 1225.706457 306.894669 
L 1227.074384 291.665892 
L 1228.44231 333.001144 
L 1229.810237 326.474525 
L 1231.178163 317.772367 
L 1232.54609 319.947906 
L 1233.914016 330.825604 
L 1235.281943 304.719129 
L 1236.649869 276.437115 
L 1238.017796 315.596827 
L 1239.385722 326.474525 
L 1240.753648 341.703302 
L 1242.121575 326.474525 
L 1243.489501 335.176683 
L 1244.857428 348.229921 
L 1246.225354 337.352223 
L 1247.593281 348.229921 
L 1248.961207 348.229921 
L 1250.329134 346.054381 
L 1251.69706 346.054381 
L 1253.064987 343.878842 
L 1254.432913 350.40546 
L 1255.80084 350.40546 
L 1257.168766 348.229921 
L 1258.536692 348.229921 
L 1259.904619 343.878842 
L 1261.272545 350.40546 
L 1262.640472 348.229921 
L 1264.008398 350.40546 
L 1265.376325 343.878842 
L 1266.744251 341.703302 
L 1268.112178 348.229921 
L 1269.480104 352.581 
L 1270.848031 343.878842 
L 1272.215957 343.878842 
L 1273.583883 352.581 
L 1274.95181 341.703302 
L 1277.687663 350.40546 
L 1279.055589 343.878842 
L 1281.791442 348.229921 
L 1283.159369 346.054381 
L 1284.527295 346.054381 
L 1285.895222 335.176683 
L 1287.263148 341.703302 
L 1289.999001 337.352223 
L 1291.366927 339.527763 
L 1292.734854 350.40546 
L 1292.734854 350.40546 
" clip-path="url(#p0e244c8f6c)" style="fill: none; stroke: #0000ff; stroke-width: 1.5; stroke-linecap: square"/>
   </g>
   <g id="line2d_21">
    <path d="M 1053.347724 345.836654 
L 1054.715651 341.274544 
L 1056.083577 346.304143 
L 1057.451503 344.55035 
L 1058.81943 334.625659 
L 1060.187356 342.89004 
L 1061.555283 332.592775 
L 1062.923209 331.314892 
L 1064.291136 346.692921 
L 1065.659062 321.060226 
L 1067.026989 332.841357 
L 1068.394915 331.383718 
L 1069.762842 332.553317 
L 1071.130768 332.877151 
L 1073.866621 332.991639 
L 1075.234547 318.839852 
L 1076.602474 300.762899 
L 1077.9704 309.916481 
L 1079.338327 325.036366 
L 1080.706253 324.503149 
L 1082.07418 321.209145 
L 1083.442106 317.150744 
L 1084.810033 314.453885 
L 1086.177959 327.86585 
L 1087.545885 337.872041 
L 1088.913812 326.483857 
L 1090.281738 334.343031 
L 1091.649665 334.945865 
L 1093.017591 338.259144 
L 1094.385518 345.46925 
L 1095.753444 349.038741 
L 1097.121371 346.88068 
L 1098.489297 339.990426 
L 1099.857224 339.655863 
L 1101.22515 345.855968 
L 1102.593076 339.706708 
L 1105.328929 330.368826 
L 1106.696856 325.97958 
L 1108.064782 324.764302 
L 1110.800635 333.507311 
L 1112.168562 307.970338 
L 1113.536488 311.91205 
L 1114.904415 313.003416 
L 1116.272341 327.464249 
L 1117.640267 322.029003 
L 1119.008194 306.365452 
L 1120.37612 308.321326 
L 1121.744047 296.277385 
L 1123.111973 308.674549 
L 1124.4799 297.948369 
L 1125.847826 291.832176 
L 1127.215753 296.431486 
L 1128.583679 297.704925 
L 1129.951606 274.459743 
L 1131.319532 290.048288 
L 1132.687459 295.93757 
L 1134.055385 266.104482 
L 1136.791238 228.910585 
L 1138.159164 178.326189 
L 1139.527091 173.759681 
L 1140.895017 156.763479 
L 1142.262944 180.374957 
L 1143.63087 123.985033 
L 1144.998797 141.40888 
L 1146.366723 75.439827 
L 1147.73465 79.19915 
L 1149.102576 132.155105 
L 1150.470502 102.768182 
L 1151.838429 138.680809 
L 1153.206355 220.990646 
L 1154.574282 237.487541 
L 1155.942208 223.176925 
L 1157.310135 217.641472 
L 1160.045988 110.065735 
L 1161.413914 178.457755 
L 1162.781841 178.515662 
L 1164.149767 140.775268 
L 1165.517693 153.923619 
L 1166.88562 195.320512 
L 1168.253546 194.196849 
L 1169.621473 237.9349 
L 1170.989399 262.6304 
L 1172.357326 291.492578 
L 1173.725252 310.496119 
L 1175.093179 317.330932 
L 1176.461105 325.516066 
L 1177.829032 329.35552 
L 1179.196958 330.418573 
L 1180.564884 329.139723 
L 1181.932811 322.492901 
L 1183.300737 322.225739 
L 1184.668664 334.737245 
L 1186.03659 341.347751 
L 1187.404517 330.592567 
L 1188.772443 326.041528 
L 1190.14037 331.074192 
L 1191.508296 327.748063 
L 1192.876223 344.132167 
L 1194.244149 331.363506 
L 1195.612075 332.547721 
L 1198.347928 309.030368 
L 1199.715855 309.059178 
L 1201.083781 299.628047 
L 1202.451708 262.406734 
L 1203.819634 289.857466 
L 1205.187561 294.311551 
L 1206.555487 286.105674 
L 1207.923414 290.1264 
L 1209.29134 297.532381 
L 1210.659266 313.741582 
L 1212.027193 327.66863 
L 1213.395119 336.244251 
L 1214.763046 330.752714 
L 1216.130972 332.378607 
L 1217.498899 339.121516 
L 1218.866825 339.415283 
L 1220.234752 347.362542 
L 1221.602678 349.562949 
L 1222.970605 336.013529 
L 1224.338531 302.371512 
L 1225.706457 305.642315 
L 1227.074384 295.535631 
L 1228.44231 322.627836 
L 1229.810237 325.409468 
L 1231.178163 319.886898 
L 1232.54609 319.931015 
L 1233.914016 327.809152 
L 1235.281943 311.112207 
L 1236.649869 286.037822 
L 1238.017796 307.412643 
L 1240.753648 336.025525 
L 1242.121575 329.118969 
L 1243.489501 333.499447 
L 1244.857428 344.151403 
L 1246.225354 339.234754 
L 1247.593281 345.739373 
L 1248.961207 347.540348 
L 1250.329134 346.46581 
L 1251.69706 346.168296 
L 1253.064987 344.512737 
L 1254.432913 348.773906 
L 1255.80084 349.953722 
L 1257.168766 348.7072 
L 1258.536692 348.362068 
L 1259.904619 345.12014 
L 1261.272545 348.942081 
L 1262.640472 348.427101 
L 1264.008398 349.8577 
L 1265.376325 345.534245 
L 1266.744251 342.763999 
L 1269.480104 350.95727 
L 1270.848031 345.83869 
L 1272.215957 344.421477 
L 1273.583883 350.321822 
L 1274.95181 344.089565 
L 1276.319736 345.510371 
L 1277.687663 349.050127 
L 1279.055589 345.310647 
L 1280.423516 345.848459 
L 1281.791442 347.570551 
L 1283.159369 346.474173 
L 1284.527295 346.170611 
L 1285.895222 338.22064 
L 1287.263148 340.739036 
L 1288.631074 339.863135 
L 1289.999001 338.047435 
L 1291.366927 339.117895 
L 1292.734854 347.280202 
L 1292.734854 347.280202 
" clip-path="url(#p0e244c8f6c)" style="fill: none; stroke: #ffa500; stroke-width: 1.5; stroke-linecap: square"/>
   </g>
   <g id="line2d_22">
    <path d="M 1292.734854 347.280202 
L 1294.10278 347.280202 
L 1295.470707 347.280202 
L 1296.838633 347.280202 
L 1298.20656 347.280202 
L 1299.574486 347.280202 
L 1300.942413 347.280202 
L 1302.310339 347.280202 
L 1303.678265 347.280202 
L 1305.046192 347.280202 
L 1306.414118 347.280202 
L 1307.782045 347.280202 
L 1309.149971 347.280202 
L 1310.517898 347.280202 
" clip-path="url(#p0e244c8f6c)" style="fill: none; stroke: #ff0000; stroke-width: 1.5; stroke-linecap: square"/>
   </g>
   <g id="patch_3">
    <path d="M 32.190625 367.701 
L 32.190625 35.061 
" style="fill: none; stroke: #000000; stroke-width: 0.8; stroke-linejoin: miter; stroke-linecap: square"/>
   </g>
   <g id="patch_4">
    <path d="M 1371.390625 367.701 
L 1371.390625 35.061 
" style="fill: none; stroke: #000000; stroke-width: 0.8; stroke-linejoin: miter; stroke-linecap: square"/>
   </g>
   <g id="patch_5">
    <path d="M 32.190625 367.701 
L 1371.390625 367.701 
" style="fill: none; stroke: #000000; stroke-width: 0.8; stroke-linejoin: miter; stroke-linecap: square"/>
   </g>
   <g id="patch_6">
    <path d="M 32.190625 35.061 
L 1371.390625 35.061 
" style="fill: none; stroke: #000000; stroke-width: 0.8; stroke-linejoin: miter; stroke-linecap: square"/>
   </g>
   <g id="text_20">
    <!-- 每日新增预测 - 广东 -->
    <g transform="translate(648.393438 17.041875)scale(0.12 -0.12)">
     <defs>
      <path id="WenQuanYiZenHei-6bcf" d="M 6138 2181 
Q 6113 1988 6138 1800 
Q 5788 1819 5438 1819 
L 4975 1819 
L 4863 738 
L 5806 738 
L 5806 394 
L 4831 394 
L 4775 -144 
Q 4719 -563 4350 -725 
Q 4013 -856 3550 -825 
L 3288 -819 
Q 3331 -663 3275 -519 
Q 3219 -375 3113 -288 
Q 3381 -313 3759 -303 
Q 4138 -294 4231 -238 
Q 4338 -163 4350 88 
L 4381 394 
L 1025 394 
L 1244 1819 
L 813 1819 
Q 463 1819 113 1800 
Q 138 1988 113 2181 
Q 463 2163 813 2163 
L 1294 2163 
L 1488 3431 
L 1488 3581 
L 1506 3581 
L 1513 3613 
L 1713 3581 
L 5156 3581 
L 5013 2163 
L 5438 2163 
Q 5788 2163 6138 2181 
z
M 5588 4463 
Q 5569 4269 5588 4081 
Q 5244 4100 4894 4100 
L 1813 4100 
Q 1344 3463 606 2788 
Q 481 2988 256 3069 
Q 744 3494 1116 3972 
Q 1488 4450 1919 5181 
Q 2119 5044 2344 4950 
Q 2213 4688 2050 4444 
L 4894 4444 
Q 5238 4444 5588 4463 
z
M 2844 3238 
L 1906 3238 
L 1744 2163 
L 3244 2163 
L 2581 3038 
L 2844 3238 
z
M 3250 2163 
L 4563 2163 
L 4669 3238 
L 3044 3238 
L 3638 2456 
L 3250 2163 
z
M 2944 1819 
Q 3275 1394 3550 938 
L 3213 738 
L 4419 738 
L 4525 1819 
L 2944 1819 
z
M 2656 1819 
L 1694 1819 
L 1525 738 
L 3094 738 
Q 2806 1219 2450 1650 
L 2656 1819 
z
" transform="scale(0.015625)"/>
      <path id="WenQuanYiZenHei-65e5" d="M 1494 -775 
Q 1244 -750 988 -775 
Q 1013 -313 1013 156 
L 1013 4875 
L 5269 4875 
L 5269 -763 
L 4813 -763 
L 4813 156 
L 1469 156 
Q 1469 -313 1494 -775 
z
M 4813 2700 
L 4813 4500 
L 1469 4500 
L 1469 2700 
L 4813 2700 
z
M 4813 531 
L 4813 2325 
L 1469 2325 
L 1469 531 
L 4813 531 
z
" transform="scale(0.015625)"/>
      <path id="WenQuanYiZenHei-65b0" d="M 5419 -763 
Q 5188 -738 4963 -763 
Q 4981 -344 4981 75 
L 4981 2819 
L 4188 2819 
L 4188 1706 
Q 4188 63 3163 -738 
Q 3019 -519 2769 -469 
Q 3769 131 3769 1706 
L 3769 4769 
L 3875 4769 
L 3844 4831 
L 4294 4781 
Q 4438 4769 4894 4816 
Q 5350 4863 5512 4931 
Q 5675 5000 5763 5094 
Q 5850 4881 5981 4694 
Q 5713 4544 5263 4519 
L 4188 4438 
L 4188 3100 
L 5563 3100 
Q 5850 3100 6131 3113 
Q 6119 2956 6131 2806 
L 5394 2819 
L 5394 75 
Q 5394 -344 5419 -763 
z
M 2981 213 
Q 2656 744 2256 1225 
L 2606 1513 
Q 3025 1006 3369 450 
L 2981 213 
z
M 1169 1525 
Q 1375 1419 1594 1363 
Q 1281 488 469 -469 
Q 331 -300 119 -244 
Q 575 263 888 900 
Q 1038 1206 1169 1525 
z
M 1825 6 
L 1825 1769 
L 1081 1769 
Q 794 1769 513 1756 
Q 525 1913 513 2063 
Q 794 2050 1081 2050 
L 1825 2050 
L 1825 2775 
L 994 2775 
Q 706 2775 425 2763 
Q 438 2919 425 3075 
Q 706 3056 994 3056 
L 1825 3056 
L 1825 3088 
L 1906 3088 
Q 2288 3656 2588 4381 
Q 2794 4269 3013 4206 
Q 2800 3675 2381 3056 
L 3013 3056 
Q 3294 3056 3581 3075 
Q 3563 2919 3581 2763 
Q 3294 2775 3013 2775 
L 2238 2775 
L 2238 2050 
L 2925 2050 
Q 3206 2050 3494 2063 
Q 3475 1913 3494 1756 
Q 3206 1769 2925 1769 
L 2238 1769 
L 2238 -156 
Q 2238 -413 2075 -581 
Q 1844 -794 1306 -794 
Q 1363 -519 1188 -288 
Q 1338 -313 1534 -316 
Q 1731 -319 1778 -278 
Q 1825 -238 1825 6 
z
M 1875 3388 
L 1500 3131 
L 825 4088 
L 1200 4350 
L 1875 3388 
z
M 3419 4713 
Q 3400 4563 3419 4406 
Q 3131 4419 2850 4419 
L 1125 4419 
Q 838 4419 556 4406 
Q 569 4563 556 4713 
Q 838 4700 1125 4700 
L 1763 4700 
L 1388 5088 
L 1719 5406 
L 2288 4813 
L 2175 4700 
L 2850 4700 
Q 3131 4700 3419 4713 
z
" transform="scale(0.015625)"/>
      <path id="WenQuanYiZenHei-589e" d="M 3138 -769 
Q 2913 -744 2688 -769 
Q 2706 -356 2706 56 
L 2706 1719 
L 5706 1719 
L 5706 -756 
L 5300 -756 
L 5300 -338 
L 3119 -338 
Q 3125 -550 3138 -769 
z
M 5113 3569 
Q 5344 3606 5563 3688 
Q 5669 3175 5256 2694 
Q 5113 2519 4975 2506 
Q 4831 2725 4588 2813 
Q 4806 2831 4997 3068 
Q 5188 3306 5113 3569 
z
M 3850 2763 
L 3469 2538 
L 2925 3456 
L 3313 3681 
L 3850 2763 
z
M 2400 2100 
Q 2469 3138 2400 4175 
L 3413 4175 
Q 3138 4550 2825 4888 
L 3156 5194 
Q 3581 4725 3938 4206 
L 3900 4175 
L 4456 4175 
Q 4863 4575 5131 5163 
Q 5325 5044 5538 4975 
Q 5369 4575 5013 4175 
L 6056 4175 
Q 5981 3138 6056 2100 
L 2400 2100 
z
M 5300 806 
L 5300 1450 
L 3113 1450 
Q 3113 1125 3113 806 
L 5300 806 
z
M 5300 563 
L 3113 563 
L 3113 -94 
L 5300 -94 
L 5300 563 
z
M 4431 3913 
L 4431 2363 
L 5650 2363 
L 5650 3913 
L 4756 3913 
L 4700 3856 
Q 4681 3888 4656 3913 
L 4431 3913 
z
M 4025 3913 
L 2806 3913 
L 2806 2363 
L 4025 2363 
L 4025 3913 
z
M -31 625 
Q 506 763 1006 975 
L 1006 3206 
L 669 3206 
Q 369 3206 75 3188 
Q 94 3356 75 3531 
Q 369 3513 669 3513 
L 1006 3513 
L 1006 4263 
Q 1006 4700 981 5131 
Q 1206 5106 1431 5131 
Q 1413 4700 1413 4263 
L 1413 3513 
L 2238 3531 
Q 2219 3356 2238 3188 
L 1413 3206 
L 1413 1163 
L 2150 1531 
L 2194 1256 
Q 1269 775 813 519 
L 194 144 
Q 138 438 -31 625 
z
" transform="scale(0.015625)"/>
      <path id="WenQuanYiZenHei-9884" d="M 1206 19 
L 1206 2888 
L 669 2888 
Q 356 2888 50 2869 
Q 63 3044 50 3213 
Q 363 3194 669 3194 
L 1250 3194 
Q 950 3631 606 4031 
L 963 4338 
L 1263 3975 
L 1913 4719 
L 731 4719 
Q 419 4719 106 4706 
Q 125 4875 106 5044 
Q 419 5031 731 5031 
L 2481 5031 
L 2544 4663 
Q 2394 4613 2256 4466 
Q 2119 4319 1525 3631 
Q 1656 3444 1788 3250 
L 1700 3194 
L 2700 3194 
L 2763 2825 
Q 2656 2819 2613 2763 
L 2100 2038 
L 1750 2288 
L 2175 2888 
L 1638 2888 
L 1638 -150 
Q 1638 -525 1363 -669 
Q 1075 -819 525 -813 
Q 594 -513 388 -294 
Q 575 -313 837 -316 
Q 1100 -319 1153 -272 
Q 1206 -225 1206 19 
z
M 5813 -888 
Q 5100 -225 4306 375 
L 4669 719 
Q 5481 106 6219 -575 
L 5813 -888 
z
M 2375 -906 
Q 2294 -631 2025 -506 
Q 2769 -431 3353 19 
Q 3938 469 3938 1069 
L 3938 2200 
Q 3938 2625 3913 3050 
Q 4188 3025 4456 3050 
Q 4431 2625 4431 2200 
L 4431 1069 
Q 4431 681 4225 319 
Q 3644 -606 2375 -906 
z
M 3444 488 
Q 3169 513 2894 488 
Q 2919 913 2919 1338 
L 2919 3675 
Q 3219 3675 3525 3675 
Q 3750 4013 3931 4525 
L 3238 4525 
Q 2888 4525 2538 4513 
Q 2556 4669 2538 4831 
Q 2888 4813 3238 4813 
L 5313 4813 
Q 5663 4813 6006 4831 
Q 5988 4669 6006 4513 
Q 5663 4525 5313 4525 
L 4481 4525 
Q 4388 4088 4088 3675 
L 5644 3675 
L 5644 513 
L 5144 513 
L 5144 3388 
L 3894 3388 
L 3875 3363 
Q 3863 3375 3844 3388 
Q 3631 3388 3413 3388 
L 3419 1338 
Q 3419 913 3444 488 
z
" transform="scale(0.015625)"/>
      <path id="WenQuanYiZenHei-6d4b" d="M 5450 138 
L 5450 4306 
Q 5450 4750 5425 5188 
Q 5663 5163 5906 5188 
Q 5881 4750 5881 4306 
L 5881 -38 
Q 5888 -569 5519 -719 
Q 5194 -831 4825 -813 
Q 4894 -519 4694 -281 
Q 4869 -306 5094 -309 
Q 5319 -313 5384 -256 
Q 5450 -200 5450 138 
z
M 4900 938 
Q 4663 963 4419 938 
Q 4444 1375 4444 1819 
L 4444 3381 
Q 4444 3819 4419 4263 
Q 4663 4238 4900 4263 
Q 4875 3819 4875 3381 
L 4875 1819 
Q 4875 1375 4900 938 
z
M 2750 2025 
L 2750 3038 
Q 2750 3481 2725 3919 
Q 2963 3894 3206 3919 
Q 3181 3481 3181 3038 
L 3181 2025 
Q 3181 1263 2919 625 
L 3231 956 
Q 3781 431 4256 -150 
L 3888 -456 
Q 3431 106 2906 600 
Q 2531 -288 1738 -769 
Q 1606 -519 1338 -450 
Q 1988 -156 2369 478 
Q 2750 1113 2750 2025 
z
M 2363 969 
Q 2119 994 1881 969 
Q 1906 1406 1906 1850 
L 1906 5038 
L 3956 5031 
L 3956 1200 
L 3525 1200 
L 3525 4713 
L 2338 4713 
L 2338 1850 
Q 2338 1406 2363 969 
z
M 663 -738 
Q 481 -588 206 -575 
Q 400 -69 606 581 
Q 813 1231 1200 2838 
L 1381 2706 
L 875 338 
L 663 -738 
z
M 1006 2856 
L 731 2550 
L 75 3400 
L 350 3713 
L 1006 2856 
z
M 1088 3913 
Q 781 4388 425 4800 
L 694 5125 
Q 1069 4688 1388 4188 
L 1088 3913 
z
" transform="scale(0.015625)"/>
      <path id="WenQuanYiZenHei-20" transform="scale(0.015625)"/>
      <path id="WenQuanYiZenHei-5e7f" d="M 944 4338 
L 3169 4344 
Q 2950 4731 2681 5094 
L 3100 5400 
Q 3475 4894 3763 4344 
L 5294 4344 
Q 5719 4344 6138 4363 
Q 6113 4131 6138 3906 
Q 5719 3925 5294 3925 
L 1419 3925 
L 1425 1419 
Q 1431 0 619 -756 
Q 450 -525 169 -469 
Q 975 75 950 1419 
L 944 4338 
z
" transform="scale(0.015625)"/>
      <path id="WenQuanYiZenHei-4e1c" d="M 6131 -19 
L 5750 -350 
L 4888 625 
L 3988 1563 
L 4344 1919 
L 5256 969 
L 6131 -19 
z
M 2144 1825 
Q 2344 1669 2569 1556 
Q 1850 350 438 -563 
Q 338 -338 131 -219 
Q 738 156 1194 622 
Q 1650 1088 2144 1825 
z
M 3244 2050 
L 1150 2050 
L 2163 3881 
L 1219 3881 
Q 838 3881 456 3863 
Q 481 4069 456 4275 
Q 838 4256 1219 4256 
L 2369 4256 
L 2538 4556 
Q 2763 4963 2969 5381 
Q 3175 5238 3406 5138 
Q 3163 4744 2938 4331 
L 2894 4256 
L 5375 4256 
Q 5756 4256 6138 4275 
Q 6113 4069 6138 3863 
Q 5756 3881 5375 3881 
L 2688 3881 
L 1881 2425 
L 3244 2425 
Q 3244 2881 3225 3338 
Q 3475 3313 3725 3338 
Q 3706 2881 3706 2425 
L 5650 2425 
L 5650 2050 
L 3706 2050 
L 3706 -119 
Q 3706 -506 3419 -663 
Q 3113 -831 2575 -825 
Q 2644 -513 2431 -269 
Q 2619 -294 2875 -297 
Q 3131 -300 3188 -250 
Q 3244 -194 3244 63 
L 3244 2050 
z
" transform="scale(0.015625)"/>
     </defs>
     <use xlink:href="#WenQuanYiZenHei-6bcf"/>
     <use xlink:href="#WenQuanYiZenHei-65e5" x="100"/>
     <use xlink:href="#WenQuanYiZenHei-65b0" x="200"/>
     <use xlink:href="#WenQuanYiZenHei-589e" x="300"/>
     <use xlink:href="#WenQuanYiZenHei-9884" x="400"/>
     <use xlink:href="#WenQuanYiZenHei-6d4b" x="500"/>
     <use xlink:href="#WenQuanYiZenHei-20" x="600"/>
     <use xlink:href="#WenQuanYiZenHei-2d" x="629.980469"/>
     <use xlink:href="#WenQuanYiZenHei-20" x="659.960938"/>
     <use xlink:href="#WenQuanYiZenHei-5e7f" x="689.941406"/>
     <use xlink:href="#WenQuanYiZenHei-4e1c" x="789.941406"/>
    </g>
    <!-- ARIMA (0, 1, 1)x(0, 0, 0, 7) (R2 = 0.988009) -->
    <g transform="translate(583.182813 29.061)scale(0.12 -0.12)">
     <defs>
      <path id="WenQuanYiZenHei-41" d="M 3550 0 
L 2988 0 
L 2550 1281 
L 919 1281 
L 531 0 
L 69 0 
L 1494 4388 
L 2125 4388 
L 3550 0 
z
M 2425 1694 
L 1756 3800 
L 1075 1694 
L 2425 1694 
z
" transform="scale(0.015625)"/>
      <path id="WenQuanYiZenHei-52" d="M 3675 0 
L 3100 0 
L 2288 1900 
L 1069 1900 
L 1069 0 
L 519 0 
L 519 4388 
L 2163 4388 
Q 3006 4388 3400 3900 
Q 3581 3663 3625 3325 
Q 3631 3250 3631 3163 
Q 3631 2594 3219 2244 
Q 3038 2100 2813 2038 
L 3675 0 
z
M 3081 3169 
Q 3081 3825 2356 3906 
Q 2263 3919 2163 3919 
L 1069 3919 
L 1069 2350 
L 2100 2350 
Q 2906 2350 3044 2919 
Q 3081 3031 3081 3169 
z
" transform="scale(0.015625)"/>
      <path id="WenQuanYiZenHei-49" d="M 1100 0 
L 550 0 
L 550 4388 
L 1100 4388 
L 1100 0 
z
" transform="scale(0.015625)"/>
      <path id="WenQuanYiZenHei-4d" d="M 4756 0 
L 4206 0 
L 4206 3831 
L 4181 3831 
L 2788 0 
L 2419 0 
L 1000 3831 
L 975 3831 
L 975 0 
L 513 0 
L 513 4388 
L 1331 4388 
L 2656 875 
L 3950 4388 
L 4756 4388 
L 4756 0 
z
" transform="scale(0.015625)"/>
      <path id="WenQuanYiZenHei-28" d="M 1606 -1094 
L 1275 -1094 
Q 475 -100 338 1231 
Q 319 1438 319 1656 
Q 319 3031 1156 4244 
Q 1213 4313 1269 4388 
L 1600 4388 
Q 806 3169 794 1681 
Q 794 188 1606 -1094 
z
" transform="scale(0.015625)"/>
      <path id="WenQuanYiZenHei-2c" d="M 1363 75 
L 881 -825 
L 606 -825 
L 994 0 
L 656 0 
L 656 738 
L 1363 738 
L 1363 75 
z
" transform="scale(0.015625)"/>
      <path id="WenQuanYiZenHei-29" d="M 1600 1656 
Q 1600 306 869 -788 
Q 769 -950 644 -1094 
L 313 -1094 
Q 1125 188 1125 1681 
Q 1125 3169 338 4363 
Q 325 4375 319 4388 
L 650 4388 
Q 1525 3231 1594 1863 
Q 1600 1763 1600 1656 
z
" transform="scale(0.015625)"/>
      <path id="WenQuanYiZenHei-78" d="M 2806 0 
L 2213 0 
L 1394 1319 
L 544 0 
L 50 0 
L 1144 1681 
L 163 3250 
L 744 3250 
L 1431 2138 
L 2144 3250 
L 2631 3250 
L 1681 1794 
L 2806 0 
z
" transform="scale(0.015625)"/>
      <path id="WenQuanYiZenHei-3d" d="M 3569 2256 
L 263 2256 
L 263 2675 
L 3569 2675 
L 3569 2256 
z
M 3569 1019 
L 263 1019 
L 263 1431 
L 3569 1431 
L 3569 1019 
z
" transform="scale(0.015625)"/>
      <path id="WenQuanYiZenHei-2e" d="M 1344 0 
L 631 0 
L 631 725 
L 1344 725 
L 1344 0 
z
" transform="scale(0.015625)"/>
      <path id="WenQuanYiZenHei-39" d="M 3544 2300 
Q 3544 1163 3019 513 
Q 2563 -63 1775 -63 
Q 956 -63 563 488 
Q 463 631 394 813 
L 838 975 
Q 1025 494 1550 388 
Q 1656 369 1775 369 
Q 2594 369 2900 1325 
Q 3044 1769 3038 2313 
L 3025 2313 
Q 2675 1638 1944 1544 
Q 1844 1531 1744 1531 
Q 1050 1531 625 2031 
Q 294 2419 294 2963 
Q 294 3656 813 4094 
Q 1238 4456 1819 4456 
Q 2988 4456 3381 3363 
Q 3544 2900 3544 2300 
z
M 2925 2994 
Q 2925 3563 2469 3844 
Q 2206 4006 1863 4006 
Q 1275 4006 988 3563 
Q 844 3344 825 3056 
Q 819 3006 819 2956 
Q 819 2413 1269 2131 
Q 1538 1963 1875 1963 
Q 2363 1963 2681 2350 
Q 2925 2638 2925 2994 
z
" transform="scale(0.015625)"/>
     </defs>
     <use xlink:href="#WenQuanYiZenHei-41"/>
     <use xlink:href="#WenQuanYiZenHei-52" x="55.957031"/>
     <use xlink:href="#WenQuanYiZenHei-49" x="117.871094"/>
     <use xlink:href="#WenQuanYiZenHei-4d" x="143.847656"/>
     <use xlink:href="#WenQuanYiZenHei-41" x="225.78125"/>
     <use xlink:href="#WenQuanYiZenHei-20" x="281.738281"/>
     <use xlink:href="#WenQuanYiZenHei-28" x="311.71875"/>
     <use xlink:href="#WenQuanYiZenHei-30" x="341.699219"/>
     <use xlink:href="#WenQuanYiZenHei-2c" x="401.660156"/>
     <use xlink:href="#WenQuanYiZenHei-20" x="431.640625"/>
     <use xlink:href="#WenQuanYiZenHei-31" x="461.621094"/>
     <use xlink:href="#WenQuanYiZenHei-2c" x="521.582031"/>
     <use xlink:href="#WenQuanYiZenHei-20" x="551.5625"/>
     <use xlink:href="#WenQuanYiZenHei-31" x="581.542969"/>
     <use xlink:href="#WenQuanYiZenHei-29" x="641.503906"/>
     <use xlink:href="#WenQuanYiZenHei-78" x="671.484375"/>
     <use xlink:href="#WenQuanYiZenHei-28" x="715.429688"/>
     <use xlink:href="#WenQuanYiZenHei-30" x="745.410156"/>
     <use xlink:href="#WenQuanYiZenHei-2c" x="805.371094"/>
     <use xlink:href="#WenQuanYiZenHei-20" x="835.351562"/>
     <use xlink:href="#WenQuanYiZenHei-30" x="865.332031"/>
     <use xlink:href="#WenQuanYiZenHei-2c" x="925.292969"/>
     <use xlink:href="#WenQuanYiZenHei-20" x="955.273438"/>
     <use xlink:href="#WenQuanYiZenHei-30" x="985.253906"/>
     <use xlink:href="#WenQuanYiZenHei-2c" x="1045.214844"/>
     <use xlink:href="#WenQuanYiZenHei-20" x="1075.195312"/>
     <use xlink:href="#WenQuanYiZenHei-37" x="1105.175781"/>
     <use xlink:href="#WenQuanYiZenHei-29" x="1165.136719"/>
     <use xlink:href="#WenQuanYiZenHei-20" x="1195.117188"/>
     <use xlink:href="#WenQuanYiZenHei-28" x="1225.097656"/>
     <use xlink:href="#WenQuanYiZenHei-52" x="1255.078125"/>
     <use xlink:href="#WenQuanYiZenHei-32" x="1316.992188"/>
     <use xlink:href="#WenQuanYiZenHei-20" x="1376.953125"/>
     <use xlink:href="#WenQuanYiZenHei-3d" x="1406.933594"/>
     <use xlink:href="#WenQuanYiZenHei-20" x="1466.894531"/>
     <use xlink:href="#WenQuanYiZenHei-30" x="1496.875"/>
     <use xlink:href="#WenQuanYiZenHei-2e" x="1556.835938"/>
     <use xlink:href="#WenQuanYiZenHei-39" x="1586.816406"/>
     <use xlink:href="#WenQuanYiZenHei-38" x="1646.777344"/>
     <use xlink:href="#WenQuanYiZenHei-38" x="1706.738281"/>
     <use xlink:href="#WenQuanYiZenHei-30" x="1766.699219"/>
     <use xlink:href="#WenQuanYiZenHei-30" x="1826.660156"/>
     <use xlink:href="#WenQuanYiZenHei-39" x="1886.621094"/>
     <use xlink:href="#WenQuanYiZenHei-29" x="1946.582031"/>
    </g>
   </g>
   <g id="legend_1">
    <g id="patch_7">
     <path d="M 1302.390625 87.056312 
L 1364.390625 87.056312 
Q 1366.390625 87.056312 1366.390625 85.056312 
L 1366.390625 42.061 
Q 1366.390625 40.061 1364.390625 40.061 
L 1302.390625 40.061 
Q 1300.390625 40.061 1300.390625 42.061 
L 1300.390625 85.056312 
Q 1300.390625 87.056312 1302.390625 87.056312 
z
" style="fill: #ffffff; opacity: 0.8; stroke: #cccccc; stroke-linejoin: miter"/>
    </g>
    <g id="line2d_23">
     <path d="M 1304.390625 48.695375 
L 1314.390625 48.695375 
L 1324.390625 48.695375 
" style="fill: none; stroke: #0000ff; stroke-width: 1.5; stroke-linecap: square"/>
    </g>
    <g id="text_21">
     <!-- 实际值 -->
     <g transform="translate(1332.390625 52.195375)scale(0.1 -0.1)">
      <defs>
       <path id="WenQuanYiZenHei-5b9e" d="M 1025 1175 
Q 694 1175 356 1163 
Q 375 1344 356 1525 
Q 694 1506 1025 1506 
L 3363 1506 
L 3363 2625 
Q 3363 3075 3338 3519 
Q 3581 3494 3825 3519 
Q 3800 3075 3800 2625 
L 3800 1506 
L 5406 1506 
Q 5744 1506 6075 1525 
Q 6056 1344 6075 1163 
Q 5744 1175 5406 1175 
L 4038 1175 
L 4981 456 
L 6131 -488 
L 5819 -856 
L 4681 75 
L 3638 875 
Q 3313 231 2475 -231 
Q 1638 -694 700 -825 
Q 638 -519 344 -400 
Q 1450 -319 2406 244 
Q 3113 656 3300 1175 
L 1025 1175 
z
M 2263 1581 
Q 1763 2081 1200 2513 
L 1494 2894 
Q 2081 2444 2600 1919 
L 2263 1581 
z
M 2638 2500 
Q 2219 2963 1731 3363 
L 2044 3738 
Q 2556 3313 3000 2819 
L 2638 2500 
z
M 919 3156 
L 481 3156 
L 481 4344 
L 3069 4344 
Q 2794 4731 2469 5081 
L 2825 5413 
Q 3256 4944 3613 4413 
L 3513 4344 
L 5869 4344 
L 5869 3156 
L 5425 3156 
L 5425 4013 
L 919 4013 
L 919 3156 
z
" transform="scale(0.015625)"/>
       <path id="WenQuanYiZenHei-9645" d="M 6000 431 
L 5569 194 
L 4963 1219 
L 4313 2219 
L 4719 2494 
L 5375 1481 
L 6000 431 
z
M 2956 2450 
Q 3181 2344 3419 2294 
Q 3006 1038 1944 -188 
Q 1794 -6 1569 56 
Q 2069 600 2372 1156 
Q 2675 1713 2956 2450 
z
M 3750 25 
L 3750 2913 
L 2819 2913 
Q 2475 2913 2125 2894 
Q 2144 3081 2125 3269 
Q 2475 3256 2819 3256 
L 5469 3256 
Q 5819 3256 6163 3269 
Q 6144 3081 6163 2894 
Q 5813 2913 5469 2913 
L 4194 2913 
L 4194 -144 
Q 4194 -725 3456 -813 
L 3263 -825 
Q 3325 -506 3125 -250 
Q 3250 -281 3394 -306 
Q 3663 -313 3706 -272 
Q 3750 -231 3750 25 
z
M 5544 4950 
Q 5525 4756 5544 4569 
Q 5194 4588 4844 4588 
L 3325 4588 
Q 2975 4588 2625 4569 
Q 2644 4756 2625 4950 
Q 2975 4931 3325 4931 
L 4844 4931 
Q 5194 4931 5544 4950 
z
M 819 -850 
Q 581 -825 344 -850 
Q 369 -419 369 19 
L 363 4938 
L 2256 4938 
L 2256 4625 
Q 2150 4513 2075 4375 
L 1481 3238 
Q 2181 2319 2181 1156 
Q 2144 400 1569 163 
L 1406 88 
Q 1288 300 1138 481 
Q 1294 538 1450 606 
Q 1763 744 1794 1156 
Q 1794 1744 1600 2300 
Q 1406 2856 1038 3313 
L 1725 4625 
L 788 4625 
L 794 19 
Q 794 -419 819 -850 
z
" transform="scale(0.015625)"/>
       <path id="WenQuanYiZenHei-503c" d="M 6175 -219 
Q 6156 -388 6175 -556 
Q 5863 -544 5550 -544 
L 2313 -544 
Q 2000 -544 1688 -556 
Q 1706 -388 1688 -219 
L 2506 -231 
L 2506 3469 
L 3644 3469 
L 3644 4119 
L 2638 4119 
Q 2325 4119 2013 4100 
Q 2031 4269 2013 4438 
Q 2325 4425 2638 4425 
L 3638 4425 
Q 3638 4719 3619 5013 
Q 3856 4988 4094 5013 
Q 4075 4719 4075 4425 
L 5344 4425 
Q 5650 4425 5963 4438 
Q 5950 4269 5963 4100 
Q 5656 4119 5344 4119 
L 4069 4119 
L 4069 3469 
L 5300 3469 
L 5300 -231 
L 5550 -231 
Q 5863 -231 6175 -219 
z
M 4869 2556 
L 4869 3156 
L 2931 3156 
Q 2931 2850 2931 2556 
L 4869 2556 
z
M 4869 1669 
L 4869 2250 
L 2931 2250 
L 2931 1669 
L 4869 1669 
z
M 4869 731 
L 4869 1363 
L 2931 1363 
L 2931 731 
L 4869 731 
z
M 4869 -231 
L 4869 425 
L 2931 425 
L 2931 -231 
L 4869 -231 
z
M 2106 4925 
Q 1856 4075 1463 3338 
L 1463 31 
Q 1463 -413 1481 -850 
Q 1256 -825 1031 -850 
Q 1050 -413 1050 31 
L 1050 2681 
Q 750 2269 375 1931 
Q 238 2156 0 2256 
Q 331 2544 619 2875 
Q 1094 3425 1300 3950 
Q 1494 4469 1625 5050 
Q 1850 4963 2106 4925 
z
" transform="scale(0.015625)"/>
      </defs>
      <use xlink:href="#WenQuanYiZenHei-5b9e"/>
      <use xlink:href="#WenQuanYiZenHei-9645" x="100"/>
      <use xlink:href="#WenQuanYiZenHei-503c" x="200"/>
     </g>
    </g>
    <g id="line2d_24">
     <path d="M 1304.390625 63.3735 
L 1314.390625 63.3735 
L 1324.390625 63.3735 
" style="fill: none; stroke: #ffa500; stroke-width: 1.5; stroke-linecap: square"/>
    </g>
    <g id="text_22">
     <!-- 校验值 -->
     <g transform="translate(1332.390625 66.8735)scale(0.1 -0.1)">
      <defs>
       <path id="WenQuanYiZenHei-6821" d="M 5256 2463 
Q 5025 1475 4494 706 
Q 5125 -94 6175 -544 
Q 5950 -663 5850 -900 
Q 4906 -494 4250 381 
Q 3931 0 3475 -350 
Q 3019 -700 2388 -919 
Q 2338 -656 2138 -475 
Q 3306 -69 4006 738 
Q 3563 1444 3300 2331 
Q 3050 2050 2706 1800 
Q 2606 2000 2406 2106 
Q 2900 2444 3181 2938 
Q 3350 3225 3488 3538 
Q 3700 3431 3925 3369 
Q 3763 2894 3425 2475 
L 3650 2531 
Q 3888 1675 4244 1075 
Q 4469 1444 4603 1937 
Q 4738 2431 4775 2688 
Q 4963 2644 5150 2625 
Q 4919 2969 4663 3294 
L 5038 3588 
Q 5544 2925 5975 2213 
L 5569 1969 
L 5256 2463 
z
M 6006 4050 
Q 5988 3881 6006 3713 
Q 5694 3725 5381 3725 
L 3413 3725 
Q 3100 3725 2788 3713 
Q 2806 3881 2788 4050 
Q 3100 4031 3413 4031 
L 4325 4031 
Q 4019 4525 3644 4969 
L 4000 5275 
Q 4413 4788 4750 4244 
L 4406 4031 
L 5381 4031 
Q 5694 4031 6006 4050 
z
M 406 263 
Q 238 431 -25 469 
Q 194 825 466 1337 
Q 738 1850 925 2406 
Q 1113 2963 1256 3519 
L 825 3519 
Q 506 3519 188 3500 
Q 206 3700 188 3900 
Q 506 3881 825 3881 
L 1363 3881 
L 1363 4263 
Q 1363 4719 1338 5175 
Q 1556 5150 1775 5175 
Q 1756 4719 1756 4263 
L 1756 3881 
L 2525 3900 
Q 2506 3700 2525 3500 
L 1756 3519 
L 1756 2738 
L 1931 2881 
Q 2306 2300 2613 1650 
L 2231 1413 
Q 2081 1725 1919 2019 
L 1756 2300 
L 1756 69 
Q 1756 -388 1775 -850 
Q 1556 -825 1338 -850 
Q 1363 -388 1363 69 
L 1363 2438 
Q 925 1144 406 263 
z
" transform="scale(0.015625)"/>
       <path id="WenQuanYiZenHei-9a8c" d="M 5981 -106 
Q 5963 -275 5981 -444 
Q 5669 -431 5356 -431 
L 2969 -431 
Q 2656 -431 2350 -444 
Q 2363 -275 2350 -106 
Q 2656 -125 2969 -125 
L 4369 -125 
Q 4600 431 4881 1288 
L 5206 2300 
Q 5425 2206 5663 2163 
Q 5375 1188 4831 -125 
L 5356 -125 
Q 5669 -125 5981 -106 
z
M 4063 594 
Q 3788 1425 3425 2219 
L 3856 2419 
Q 4225 1600 4513 744 
L 4063 594 
z
M 3163 363 
Q 2931 1200 2613 2006 
L 3056 2175 
Q 3381 1350 3619 488 
L 3163 363 
z
M 4581 2550 
L 3513 2550 
Q 3200 2550 2888 2538 
Q 2900 2663 2894 2769 
Q 2569 2488 2206 2300 
Q 2113 2550 1894 2700 
Q 2488 2975 2975 3463 
Q 3269 3756 3394 4006 
Q 3644 4513 3794 5063 
Q 4038 4975 4294 4931 
Q 4250 4806 4206 4681 
Q 4475 3888 5025 3388 
Q 5519 2938 6169 2650 
Q 5938 2538 5838 2300 
Q 5513 2456 5200 2700 
Q 5200 2619 5206 2538 
Q 4894 2550 4581 2550 
z
M 3513 2863 
L 4994 2869 
Q 4344 3438 3988 4194 
Q 3594 3406 3013 2869 
Q 3263 2863 3513 2863 
z
M 206 444 
Q 188 756 44 963 
Q 319 956 650 1003 
Q 981 1050 1731 1281 
L 1738 1006 
Q 800 719 206 444 
z
M 525 4000 
Q 744 3950 994 3944 
Q 925 3519 875 3081 
L 763 2144 
L 1475 2144 
L 1831 4444 
L 663 4444 
Q 350 4444 38 4431 
Q 56 4600 38 4769 
Q 350 4756 663 4756 
L 2313 4756 
L 1913 2144 
L 2375 2144 
L 2200 -200 
Q 2188 -425 1988 -588 
Q 1694 -800 1181 -788 
L 944 -788 
Q 1000 -450 788 -269 
Q 1013 -294 1334 -287 
Q 1656 -281 1715 -243 
Q 1775 -206 1781 -50 
L 1925 1831 
L 294 1831 
L 444 3131 
Q 500 3569 525 4000 
z
" transform="scale(0.015625)"/>
      </defs>
      <use xlink:href="#WenQuanYiZenHei-6821"/>
      <use xlink:href="#WenQuanYiZenHei-9a8c" x="100"/>
      <use xlink:href="#WenQuanYiZenHei-503c" x="200"/>
     </g>
    </g>
    <g id="line2d_25">
     <path d="M 1304.390625 77.895375 
L 1314.390625 77.895375 
L 1324.390625 77.895375 
" style="fill: none; stroke: #ff0000; stroke-width: 1.5; stroke-linecap: square"/>
    </g>
    <g id="text_23">
     <!-- 预测值 -->
     <g transform="translate(1332.390625 81.395375)scale(0.1 -0.1)">
      <use xlink:href="#WenQuanYiZenHei-9884"/>
      <use xlink:href="#WenQuanYiZenHei-6d4b" x="100"/>
      <use xlink:href="#WenQuanYiZenHei-503c" x="200"/>
     </g>
    </g>
   </g>
  </g>
 </g>
 <defs>
  <clipPath id="p0e244c8f6c">
   <rect x="32.190625" y="35.061" width="1339.2" height="332.64"/>
  </clipPath>
 </defs>
</svg>
