<?xml version="1.0" encoding="utf-8" standalone="no"?>
<!DOCTYPE svg PUBLIC "-//W3C//DTD SVG 1.1//EN"
  "http://www.w3.org/Graphics/SVG/1.1/DTD/svg11.dtd">
<svg xmlns:xlink="http://www.w3.org/1999/xlink" width="1378.590625pt" height="390.418188pt" viewBox="0 0 1378.590625 390.418188" xmlns="http://www.w3.org/2000/svg" version="1.1">
 <metadata>
  <rdf:RDF xmlns:dc="http://purl.org/dc/elements/1.1/" xmlns:cc="http://creativecommons.org/ns#" xmlns:rdf="http://www.w3.org/1999/02/22-rdf-syntax-ns#">
   <cc:Work>
    <dc:type rdf:resource="http://purl.org/dc/dcmitype/StillImage"/>
    <dc:date>2022-07-03T18:15:06.275656</dc:date>
    <dc:format>image/svg+xml</dc:format>
    <dc:creator>
     <cc:Agent>
      <dc:title>Matplotlib v3.5.2, https://matplotlib.org/</dc:title>
     </cc:Agent>
    </dc:creator>
   </cc:Work>
  </rdf:RDF>
 </metadata>
 <defs>
  <style type="text/css">*{stroke-linejoin: round; stroke-linecap: butt}</style>
 </defs>
 <g id="figure_1">
  <g id="patch_1">
   <path d="M 0 390.418188 
L 1378.590625 390.418188 
L 1378.590625 -0 
L 0 -0 
z
" style="fill: #ffffff"/>
  </g>
  <g id="axes_1">
   <g id="patch_2">
    <path d="M 32.190625 367.701 
L 1371.390625 367.701 
L 1371.390625 35.061 
L 32.190625 35.061 
z
" style="fill: #ffffff"/>
   </g>
   <g id="matplotlib.axis_1">
    <g id="xtick_1">
     <g id="line2d_1">
      <defs>
       <path id="m9eeb8e8309" d="M 0 0 
L 0 3.5 
" style="stroke: #000000; stroke-width: 0.8"/>
      </defs>
      <g>
       <use xlink:href="#m9eeb8e8309" x="63.435034" y="367.701" style="stroke: #000000; stroke-width: 0.8"/>
      </g>
     </g>
     <g id="text_1">
      <!-- 2020-01 -->
      <g transform="translate(43.94519 381.55725)scale(0.1 -0.1)">
       <defs>
        <path id="WenQuanYiZenHei-32" d="M 3488 0 
L 369 0 
L 369 456 
L 2150 1850 
Q 2931 2463 2931 3144 
Q 2931 3619 2488 3863 
Q 2231 4013 1931 4013 
Q 1425 4013 1113 3619 
Q 894 3356 881 3013 
L 369 3169 
Q 531 3981 1213 4300 
Q 1544 4456 1950 4456 
Q 2631 4456 3088 4044 
L 3225 3888 
L 3350 3706 
Q 3481 3444 3481 3144 
Q 3481 2313 2519 1569 
L 1069 456 
L 3488 456 
L 3488 0 
z
" transform="scale(0.015625)"/>
        <path id="WenQuanYiZenHei-30" d="M 3581 2175 
Q 3581 1288 3169 638 
Q 2713 -63 1938 -63 
Q 1025 -63 563 831 
Q 256 1425 256 2188 
Q 256 3188 700 3819 
Q 1138 4456 1888 4456 
Q 2863 4456 3306 3500 
Q 3581 2925 3581 2175 
z
M 3019 2100 
Q 3019 3356 2500 3806 
L 2350 3919 
Q 2144 4031 1888 4031 
Q 1100 4031 888 2956 
Q 819 2625 819 2225 
Q 819 1013 1338 569 
Q 1588 356 1938 356 
Q 2675 356 2925 1294 
Q 3019 1663 3019 2100 
z
" transform="scale(0.015625)"/>
        <path id="WenQuanYiZenHei-2d" d="M 1363 1444 
L 0 1444 
L 0 1844 
L 1363 1844 
L 1363 1444 
z
" transform="scale(0.015625)"/>
        <path id="WenQuanYiZenHei-31" d="M 3556 0 
L 488 0 
L 488 406 
L 1800 406 
L 1800 3725 
Q 1231 3125 588 2788 
L 588 3338 
Q 1456 3781 1931 4388 
L 2331 4388 
L 2331 406 
L 3556 406 
L 3556 0 
z
" transform="scale(0.015625)"/>
       </defs>
       <use xlink:href="#WenQuanYiZenHei-32"/>
       <use xlink:href="#WenQuanYiZenHei-30" x="59.960938"/>
       <use xlink:href="#WenQuanYiZenHei-32" x="119.921875"/>
       <use xlink:href="#WenQuanYiZenHei-30" x="179.882812"/>
       <use xlink:href="#WenQuanYiZenHei-2d" x="239.84375"/>
       <use xlink:href="#WenQuanYiZenHei-30" x="269.824219"/>
       <use xlink:href="#WenQuanYiZenHei-31" x="329.785156"/>
      </g>
     </g>
    </g>
    <g id="xtick_2">
     <g id="line2d_2">
      <g>
       <use xlink:href="#m9eeb8e8309" x="185.988533" y="367.701" style="stroke: #000000; stroke-width: 0.8"/>
      </g>
     </g>
     <g id="text_2">
      <!-- 2020-04 -->
      <g transform="translate(166.49869 381.55725)scale(0.1 -0.1)">
       <defs>
        <path id="WenQuanYiZenHei-34" d="M 3631 1025 
L 2913 1025 
L 2913 0 
L 2381 0 
L 2381 1025 
L 219 1025 
L 219 1388 
L 2225 4388 
L 2913 4388 
L 2913 1444 
L 3631 1444 
L 3631 1025 
z
M 2381 1444 
L 2381 3963 
L 788 1444 
L 2381 1444 
z
" transform="scale(0.015625)"/>
       </defs>
       <use xlink:href="#WenQuanYiZenHei-32"/>
       <use xlink:href="#WenQuanYiZenHei-30" x="59.960938"/>
       <use xlink:href="#WenQuanYiZenHei-32" x="119.921875"/>
       <use xlink:href="#WenQuanYiZenHei-30" x="179.882812"/>
       <use xlink:href="#WenQuanYiZenHei-2d" x="239.84375"/>
       <use xlink:href="#WenQuanYiZenHei-30" x="269.824219"/>
       <use xlink:href="#WenQuanYiZenHei-34" x="329.785156"/>
      </g>
     </g>
    </g>
    <g id="xtick_3">
     <g id="line2d_3">
      <g>
       <use xlink:href="#m9eeb8e8309" x="308.542033" y="367.701" style="stroke: #000000; stroke-width: 0.8"/>
      </g>
     </g>
     <g id="text_3">
      <!-- 2020-07 -->
      <g transform="translate(289.052189 381.55725)scale(0.1 -0.1)">
       <defs>
        <path id="WenQuanYiZenHei-37" d="M 3400 4056 
Q 1838 2175 1838 0 
L 1275 0 
Q 1269 1438 2056 2825 
Q 2381 3400 2825 3913 
L 444 3913 
L 500 4388 
L 3400 4388 
L 3400 4056 
z
" transform="scale(0.015625)"/>
       </defs>
       <use xlink:href="#WenQuanYiZenHei-32"/>
       <use xlink:href="#WenQuanYiZenHei-30" x="59.960938"/>
       <use xlink:href="#WenQuanYiZenHei-32" x="119.921875"/>
       <use xlink:href="#WenQuanYiZenHei-30" x="179.882812"/>
       <use xlink:href="#WenQuanYiZenHei-2d" x="239.84375"/>
       <use xlink:href="#WenQuanYiZenHei-30" x="269.824219"/>
       <use xlink:href="#WenQuanYiZenHei-37" x="329.785156"/>
      </g>
     </g>
    </g>
    <g id="xtick_4">
     <g id="line2d_4">
      <g>
       <use xlink:href="#m9eeb8e8309" x="432.442274" y="367.701" style="stroke: #000000; stroke-width: 0.8"/>
      </g>
     </g>
     <g id="text_4">
      <!-- 2020-10 -->
      <g transform="translate(412.95243 381.55725)scale(0.1 -0.1)">
       <use xlink:href="#WenQuanYiZenHei-32"/>
       <use xlink:href="#WenQuanYiZenHei-30" x="59.960938"/>
       <use xlink:href="#WenQuanYiZenHei-32" x="119.921875"/>
       <use xlink:href="#WenQuanYiZenHei-30" x="179.882812"/>
       <use xlink:href="#WenQuanYiZenHei-2d" x="239.84375"/>
       <use xlink:href="#WenQuanYiZenHei-31" x="269.824219"/>
       <use xlink:href="#WenQuanYiZenHei-30" x="329.785156"/>
      </g>
     </g>
    </g>
    <g id="xtick_5">
     <g id="line2d_5">
      <g>
       <use xlink:href="#m9eeb8e8309" x="556.342516" y="367.701" style="stroke: #000000; stroke-width: 0.8"/>
      </g>
     </g>
     <g id="text_5">
      <!-- 2021-01 -->
      <g transform="translate(536.852672 381.55725)scale(0.1 -0.1)">
       <use xlink:href="#WenQuanYiZenHei-32"/>
       <use xlink:href="#WenQuanYiZenHei-30" x="59.960938"/>
       <use xlink:href="#WenQuanYiZenHei-32" x="119.921875"/>
       <use xlink:href="#WenQuanYiZenHei-31" x="179.882812"/>
       <use xlink:href="#WenQuanYiZenHei-2d" x="239.84375"/>
       <use xlink:href="#WenQuanYiZenHei-30" x="269.824219"/>
       <use xlink:href="#WenQuanYiZenHei-31" x="329.785156"/>
      </g>
     </g>
    </g>
    <g id="xtick_6">
     <g id="line2d_6">
      <g>
       <use xlink:href="#m9eeb8e8309" x="677.549273" y="367.701" style="stroke: #000000; stroke-width: 0.8"/>
      </g>
     </g>
     <g id="text_6">
      <!-- 2021-04 -->
      <g transform="translate(658.05943 381.55725)scale(0.1 -0.1)">
       <use xlink:href="#WenQuanYiZenHei-32"/>
       <use xlink:href="#WenQuanYiZenHei-30" x="59.960938"/>
       <use xlink:href="#WenQuanYiZenHei-32" x="119.921875"/>
       <use xlink:href="#WenQuanYiZenHei-31" x="179.882812"/>
       <use xlink:href="#WenQuanYiZenHei-2d" x="239.84375"/>
       <use xlink:href="#WenQuanYiZenHei-30" x="269.824219"/>
       <use xlink:href="#WenQuanYiZenHei-34" x="329.785156"/>
      </g>
     </g>
    </g>
    <g id="xtick_7">
     <g id="line2d_7">
      <g>
       <use xlink:href="#m9eeb8e8309" x="800.102773" y="367.701" style="stroke: #000000; stroke-width: 0.8"/>
      </g>
     </g>
     <g id="text_7">
      <!-- 2021-07 -->
      <g transform="translate(780.612929 381.55725)scale(0.1 -0.1)">
       <use xlink:href="#WenQuanYiZenHei-32"/>
       <use xlink:href="#WenQuanYiZenHei-30" x="59.960938"/>
       <use xlink:href="#WenQuanYiZenHei-32" x="119.921875"/>
       <use xlink:href="#WenQuanYiZenHei-31" x="179.882812"/>
       <use xlink:href="#WenQuanYiZenHei-2d" x="239.84375"/>
       <use xlink:href="#WenQuanYiZenHei-30" x="269.824219"/>
       <use xlink:href="#WenQuanYiZenHei-37" x="329.785156"/>
      </g>
     </g>
    </g>
    <g id="xtick_8">
     <g id="line2d_8">
      <g>
       <use xlink:href="#m9eeb8e8309" x="924.003014" y="367.701" style="stroke: #000000; stroke-width: 0.8"/>
      </g>
     </g>
     <g id="text_8">
      <!-- 2021-10 -->
      <g transform="translate(904.513171 381.55725)scale(0.1 -0.1)">
       <use xlink:href="#WenQuanYiZenHei-32"/>
       <use xlink:href="#WenQuanYiZenHei-30" x="59.960938"/>
       <use xlink:href="#WenQuanYiZenHei-32" x="119.921875"/>
       <use xlink:href="#WenQuanYiZenHei-31" x="179.882812"/>
       <use xlink:href="#WenQuanYiZenHei-2d" x="239.84375"/>
       <use xlink:href="#WenQuanYiZenHei-31" x="269.824219"/>
       <use xlink:href="#WenQuanYiZenHei-30" x="329.785156"/>
      </g>
     </g>
    </g>
    <g id="xtick_9">
     <g id="line2d_9">
      <g>
       <use xlink:href="#m9eeb8e8309" x="1047.903256" y="367.701" style="stroke: #000000; stroke-width: 0.8"/>
      </g>
     </g>
     <g id="text_9">
      <!-- 2022-01 -->
      <g transform="translate(1028.413412 381.55725)scale(0.1 -0.1)">
       <use xlink:href="#WenQuanYiZenHei-32"/>
       <use xlink:href="#WenQuanYiZenHei-30" x="59.960938"/>
       <use xlink:href="#WenQuanYiZenHei-32" x="119.921875"/>
       <use xlink:href="#WenQuanYiZenHei-32" x="179.882812"/>
       <use xlink:href="#WenQuanYiZenHei-2d" x="239.84375"/>
       <use xlink:href="#WenQuanYiZenHei-30" x="269.824219"/>
       <use xlink:href="#WenQuanYiZenHei-31" x="329.785156"/>
      </g>
     </g>
    </g>
    <g id="xtick_10">
     <g id="line2d_10">
      <g>
       <use xlink:href="#m9eeb8e8309" x="1169.110014" y="367.701" style="stroke: #000000; stroke-width: 0.8"/>
      </g>
     </g>
     <g id="text_10">
      <!-- 2022-04 -->
      <g transform="translate(1149.62017 381.55725)scale(0.1 -0.1)">
       <use xlink:href="#WenQuanYiZenHei-32"/>
       <use xlink:href="#WenQuanYiZenHei-30" x="59.960938"/>
       <use xlink:href="#WenQuanYiZenHei-32" x="119.921875"/>
       <use xlink:href="#WenQuanYiZenHei-32" x="179.882812"/>
       <use xlink:href="#WenQuanYiZenHei-2d" x="239.84375"/>
       <use xlink:href="#WenQuanYiZenHei-30" x="269.824219"/>
       <use xlink:href="#WenQuanYiZenHei-34" x="329.785156"/>
      </g>
     </g>
    </g>
    <g id="xtick_11">
     <g id="line2d_11">
      <g>
       <use xlink:href="#m9eeb8e8309" x="1291.663513" y="367.701" style="stroke: #000000; stroke-width: 0.8"/>
      </g>
     </g>
     <g id="text_11">
      <!-- 2022-07 -->
      <g transform="translate(1272.173669 381.55725)scale(0.1 -0.1)">
       <use xlink:href="#WenQuanYiZenHei-32"/>
       <use xlink:href="#WenQuanYiZenHei-30" x="59.960938"/>
       <use xlink:href="#WenQuanYiZenHei-32" x="119.921875"/>
       <use xlink:href="#WenQuanYiZenHei-32" x="179.882812"/>
       <use xlink:href="#WenQuanYiZenHei-2d" x="239.84375"/>
       <use xlink:href="#WenQuanYiZenHei-30" x="269.824219"/>
       <use xlink:href="#WenQuanYiZenHei-37" x="329.785156"/>
      </g>
     </g>
    </g>
   </g>
   <g id="matplotlib.axis_2">
    <g id="ytick_1">
     <g id="line2d_12">
      <defs>
       <path id="m89f4c06417" d="M 0 0 
L -3.5 0 
" style="stroke: #000000; stroke-width: 0.8"/>
      </defs>
      <g>
       <use xlink:href="#m89f4c06417" x="32.190625" y="350.153729" style="stroke: #000000; stroke-width: 0.8"/>
      </g>
     </g>
     <g id="text_12">
      <!-- 0 -->
      <g transform="translate(19.19375 353.581854)scale(0.1 -0.1)">
       <use xlink:href="#WenQuanYiZenHei-30"/>
      </g>
     </g>
    </g>
    <g id="ytick_2">
     <g id="line2d_13">
      <g>
       <use xlink:href="#m89f4c06417" x="32.190625" y="299.310893" style="stroke: #000000; stroke-width: 0.8"/>
      </g>
     </g>
     <g id="text_13">
      <!-- 20 -->
      <g transform="translate(13.196875 302.739018)scale(0.1 -0.1)">
       <use xlink:href="#WenQuanYiZenHei-32"/>
       <use xlink:href="#WenQuanYiZenHei-30" x="59.960938"/>
      </g>
     </g>
    </g>
    <g id="ytick_3">
     <g id="line2d_14">
      <g>
       <use xlink:href="#m89f4c06417" x="32.190625" y="248.468058" style="stroke: #000000; stroke-width: 0.8"/>
      </g>
     </g>
     <g id="text_14">
      <!-- 40 -->
      <g transform="translate(13.196875 251.896183)scale(0.1 -0.1)">
       <use xlink:href="#WenQuanYiZenHei-34"/>
       <use xlink:href="#WenQuanYiZenHei-30" x="59.960938"/>
      </g>
     </g>
    </g>
    <g id="ytick_4">
     <g id="line2d_15">
      <g>
       <use xlink:href="#m89f4c06417" x="32.190625" y="197.625223" style="stroke: #000000; stroke-width: 0.8"/>
      </g>
     </g>
     <g id="text_15">
      <!-- 60 -->
      <g transform="translate(13.196875 201.053348)scale(0.1 -0.1)">
       <defs>
        <path id="WenQuanYiZenHei-36" d="M 3550 1431 
Q 3550 725 3006 288 
Q 2581 -63 1994 -63 
Q 1013 -63 563 825 
Q 288 1363 288 2081 
Q 288 3294 856 3938 
Q 1319 4456 2075 4456 
Q 2969 4456 3363 3756 
Q 3431 3631 3481 3481 
L 2988 3350 
Q 2750 3994 2075 4006 
Q 1056 4006 844 2669 
Q 794 2356 794 1981 
L 806 1981 
Q 1006 2506 1544 2744 
Q 1819 2869 2119 2869 
Q 2788 2869 3213 2375 
Q 3550 1975 3550 1431 
z
M 3038 1406 
Q 3038 1906 2656 2213 
Q 2381 2431 2038 2431 
Q 1525 2431 1181 2044 
Q 919 1744 919 1356 
Q 919 881 1344 581 
Q 1631 375 1981 375 
Q 2519 375 2838 781 
Q 3038 1050 3038 1406 
z
" transform="scale(0.015625)"/>
       </defs>
       <use xlink:href="#WenQuanYiZenHei-36"/>
       <use xlink:href="#WenQuanYiZenHei-30" x="59.960938"/>
      </g>
     </g>
    </g>
    <g id="ytick_5">
     <g id="line2d_16">
      <g>
       <use xlink:href="#m89f4c06417" x="32.190625" y="146.782387" style="stroke: #000000; stroke-width: 0.8"/>
      </g>
     </g>
     <g id="text_16">
      <!-- 80 -->
      <g transform="translate(13.196875 150.210512)scale(0.1 -0.1)">
       <defs>
        <path id="WenQuanYiZenHei-38" d="M 3619 1175 
Q 3619 431 2850 100 
Q 2444 -63 1944 -63 
Q 1231 -63 725 269 
Q 225 594 225 1125 
Q 225 1881 1269 2281 
Q 719 2481 519 2938 
Q 444 3119 444 3319 
Q 444 4000 1144 4294 
Q 1519 4456 1963 4456 
Q 2669 4456 3094 4094 
Q 3425 3813 3425 3369 
Q 3425 2638 2575 2356 
Q 3231 2056 3450 1725 
Q 3619 1488 3619 1175 
z
M 2944 3344 
Q 2944 3906 2288 4019 
Q 2138 4044 1969 4044 
Q 1438 4044 1163 3775 
Q 1000 3613 1000 3375 
Q 1000 2925 1594 2663 
Q 1756 2588 1931 2550 
Q 2581 2725 2788 2956 
Q 2944 3125 2944 3344 
z
M 3075 1094 
Q 3075 1738 1875 2050 
Q 1094 1881 850 1463 
Q 763 1313 763 1131 
Q 763 569 1456 406 
Q 1681 344 1944 344 
Q 2519 344 2850 619 
Q 3075 813 3075 1094 
z
" transform="scale(0.015625)"/>
       </defs>
       <use xlink:href="#WenQuanYiZenHei-38"/>
       <use xlink:href="#WenQuanYiZenHei-30" x="59.960938"/>
      </g>
     </g>
    </g>
    <g id="ytick_6">
     <g id="line2d_17">
      <g>
       <use xlink:href="#m89f4c06417" x="32.190625" y="95.939552" style="stroke: #000000; stroke-width: 0.8"/>
      </g>
     </g>
     <g id="text_17">
      <!-- 100 -->
      <g transform="translate(7.2 99.367677)scale(0.1 -0.1)">
       <use xlink:href="#WenQuanYiZenHei-31"/>
       <use xlink:href="#WenQuanYiZenHei-30" x="59.960938"/>
       <use xlink:href="#WenQuanYiZenHei-30" x="119.921875"/>
      </g>
     </g>
    </g>
    <g id="ytick_7">
     <g id="line2d_18">
      <g>
       <use xlink:href="#m89f4c06417" x="32.190625" y="45.096716" style="stroke: #000000; stroke-width: 0.8"/>
      </g>
     </g>
     <g id="text_18">
      <!-- 120 -->
      <g transform="translate(7.2 48.524841)scale(0.1 -0.1)">
       <use xlink:href="#WenQuanYiZenHei-31"/>
       <use xlink:href="#WenQuanYiZenHei-32" x="59.960938"/>
       <use xlink:href="#WenQuanYiZenHei-30" x="119.921875"/>
      </g>
     </g>
    </g>
   </g>
   <g id="line2d_19">
    <path d="M 93.063352 350.153729 
L 94.410094 339.985162 
L 95.756836 291.684468 
L 97.103578 220.504499 
L 98.450319 235.757349 
L 99.797061 248.468058 
L 101.143803 253.552342 
L 102.490545 167.119521 
L 103.837286 162.035238 
L 105.184028 172.203805 
L 106.53077 169.661663 
L 107.877512 164.57738 
L 109.224253 73.060276 
L 110.570995 123.903111 
L 111.917737 128.987395 
L 113.264479 189.998797 
L 114.61122 179.83023 
L 115.957962 217.962357 
L 117.304704 248.468058 
L 118.651446 268.805192 
L 119.998187 273.889476 
L 121.344929 263.720909 
L 122.691671 312.021602 
L 124.038413 278.973759 
L 125.385154 301.853035 
L 128.078638 322.190169 
L 129.42538 337.44302 
L 130.772121 342.527303 
L 132.118863 345.069445 
L 133.465605 342.527303 
L 134.812347 347.611587 
L 136.159088 350.153729 
L 138.852572 350.153729 
L 140.199314 347.611587 
L 141.546055 350.153729 
L 156.360215 350.153729 
L 157.706956 347.611587 
L 159.053698 350.153729 
L 171.174374 350.153729 
L 172.521116 347.611587 
L 173.867858 350.153729 
L 176.561341 350.153729 
L 177.908083 347.611587 
L 179.254825 350.153729 
L 180.601566 350.153729 
L 181.948308 347.611587 
L 183.29505 350.153729 
L 405.507439 350.153729 
L 406.854181 347.611587 
L 408.200923 350.153729 
L 410.894406 350.153729 
L 412.241148 347.611587 
L 413.58789 350.153729 
L 414.934631 350.153729 
L 416.281373 347.611587 
L 417.628115 350.153729 
L 418.974857 350.153729 
L 420.321598 347.611587 
L 421.66834 350.153729 
L 428.402049 350.153729 
L 429.748791 347.611587 
L 431.095532 350.153729 
L 456.683626 350.153729 
L 458.030368 345.069445 
L 459.377109 350.153729 
L 466.110818 350.153729 
L 467.45756 347.611587 
L 468.804302 350.153729 
L 476.884752 350.153729 
L 478.231494 345.069445 
L 479.578236 350.153729 
L 487.658686 350.153729 
L 489.005428 347.611587 
L 490.35217 350.153729 
L 491.698911 347.611587 
L 493.045653 350.153729 
L 502.472845 350.153729 
L 503.819587 347.611587 
L 505.166329 350.153729 
L 513.246779 350.153729 
L 514.593521 347.611587 
L 515.940263 350.153729 
L 517.287005 345.069445 
L 518.633746 342.527303 
L 519.980488 350.153729 
L 534.794648 350.153729 
L 536.141389 347.611587 
L 537.488131 350.153729 
L 538.834873 347.611587 
L 540.181615 350.153729 
L 542.875098 350.153729 
L 544.22184 347.611587 
L 545.568582 350.153729 
L 549.608807 350.153729 
L 550.955549 347.611587 
L 552.30229 350.153729 
L 559.035999 350.153729 
L 560.382741 347.611587 
L 561.729483 350.153729 
L 563.076224 350.153729 
L 564.422966 347.611587 
L 565.769708 350.153729 
L 568.463191 350.153729 
L 569.809933 347.611587 
L 571.156675 350.153729 
L 572.503417 347.611587 
L 573.850158 350.153729 
L 614.252411 350.153729 
L 615.599153 347.611587 
L 616.945895 350.153729 
L 634.453537 350.153729 
L 635.800279 347.611587 
L 637.147021 350.153729 
L 642.533988 350.153729 
L 643.88073 345.069445 
L 645.227471 350.153729 
L 646.574213 347.611587 
L 647.920955 350.153729 
L 649.267697 347.611587 
L 650.614438 350.153729 
L 669.468823 350.153729 
L 670.815565 347.611587 
L 672.162306 350.153729 
L 673.509048 350.153729 
L 674.85579 347.611587 
L 676.202532 350.153729 
L 697.7504 350.153729 
L 699.097141 347.611587 
L 700.443883 350.153729 
L 735.459169 350.153729 
L 736.805911 347.611587 
L 738.152652 350.153729 
L 742.192878 350.153729 
L 743.539619 347.611587 
L 744.886361 350.153729 
L 755.660295 350.153729 
L 757.007037 347.611587 
L 758.353779 350.153729 
L 765.087487 350.153729 
L 766.434229 347.611587 
L 767.780971 350.153729 
L 783.941872 350.153729 
L 785.288614 347.611587 
L 786.635355 350.153729 
L 805.48974 350.153729 
L 808.183224 345.069445 
L 809.529965 350.153729 
L 812.223449 350.153729 
L 813.570191 347.611587 
L 814.916932 342.527303 
L 816.263674 350.153729 
L 817.610416 350.153729 
L 818.957158 347.611587 
L 820.303899 350.153729 
L 821.650641 350.153729 
L 822.997383 347.611587 
L 824.344125 350.153729 
L 828.38435 350.153729 
L 829.731092 347.611587 
L 831.077833 347.611587 
L 832.424575 345.069445 
L 833.771317 350.153729 
L 835.118059 350.153729 
L 836.4648 347.611587 
L 837.811542 350.153729 
L 839.158284 350.153729 
L 840.505026 314.563744 
L 841.851767 345.069445 
L 843.198509 345.069445 
L 844.545251 342.527303 
L 845.891993 342.527303 
L 847.238734 347.611587 
L 848.585476 339.985162 
L 849.932218 289.142326 
L 851.27896 245.925916 
L 852.625701 256.094483 
L 853.972443 332.358736 
L 855.319185 342.527303 
L 856.665927 271.347334 
L 858.012668 339.985162 
L 860.706152 334.900878 
L 862.052894 350.153729 
L 863.399635 350.153729 
L 866.093119 345.069445 
L 867.439861 350.153729 
L 868.786602 347.611587 
L 872.826828 347.611587 
L 874.173569 350.153729 
L 875.520311 345.069445 
L 878.213795 350.153729 
L 883.600762 350.153729 
L 884.947504 345.069445 
L 887.640987 350.153729 
L 888.987729 347.611587 
L 890.334471 350.153729 
L 894.374696 350.153729 
L 895.721438 342.527303 
L 897.068179 347.611587 
L 898.414921 350.153729 
L 899.761663 350.153729 
L 901.108405 347.611587 
L 902.455146 350.153729 
L 903.801888 345.069445 
L 905.14863 350.153729 
L 914.575822 350.153729 
L 915.922564 347.611587 
L 917.269306 350.153729 
L 922.656273 350.153729 
L 924.003014 345.069445 
L 925.349756 350.153729 
L 930.736723 350.153729 
L 932.083465 347.611587 
L 933.430207 350.153729 
L 934.776948 347.611587 
L 936.12369 350.153729 
L 938.817174 350.153729 
L 942.857399 342.527303 
L 944.204141 350.153729 
L 946.897624 350.153729 
L 948.244366 347.611587 
L 950.937849 347.611587 
L 952.284591 350.153729 
L 954.978075 350.153729 
L 956.324816 345.069445 
L 957.671558 350.153729 
L 959.0183 342.527303 
L 960.365042 350.153729 
L 961.711783 350.153729 
L 963.058525 347.611587 
L 964.405267 350.153729 
L 965.752009 350.153729 
L 968.445492 345.069445 
L 969.792234 337.44302 
L 971.138976 342.527303 
L 972.485718 339.985162 
L 973.832459 304.395177 
L 975.179201 345.069445 
L 976.525943 327.274453 
L 977.872685 317.105886 
L 979.219426 319.648028 
L 980.566168 347.611587 
L 981.91291 350.153729 
L 983.259652 342.527303 
L 984.606393 350.153729 
L 985.953135 350.153729 
L 987.299877 347.611587 
L 988.646619 347.611587 
L 989.99336 350.153729 
L 991.340102 350.153729 
L 992.686844 345.069445 
L 994.033586 350.153729 
L 998.073811 350.153729 
L 999.420553 347.611587 
L 1000.767294 350.153729 
L 1020.968421 350.153729 
L 1022.315162 347.611587 
L 1023.661904 350.153729 
L 1033.089096 350.153729 
L 1034.435838 345.069445 
L 1035.78258 350.153729 
L 1038.476063 350.153729 
L 1039.822805 347.611587 
L 1041.169547 350.153729 
L 1046.556514 350.153729 
L 1047.903256 347.611587 
L 1049.249997 350.153729 
L 1050.596739 329.816595 
L 1051.943481 339.985162 
L 1053.290223 184.914514 
L 1054.636965 202.709506 
L 1055.983706 238.299491 
L 1057.330448 200.167364 
L 1058.67719 195.083081 
L 1060.023932 126.445253 
L 1061.370673 50.181 
L 1062.717415 156.950954 
L 1064.064157 101.023835 
L 1065.410899 217.962357 
L 1066.75764 276.431617 
L 1068.104382 174.745947 
L 1069.451124 90.855268 
L 1070.797866 266.26305 
L 1072.144607 289.142326 
L 1073.491349 339.985162 
L 1074.838091 339.985162 
L 1076.184833 347.611587 
L 1077.531574 347.611587 
L 1078.878316 342.527303 
L 1080.225058 345.069445 
L 1081.5718 342.527303 
L 1082.918541 350.153729 
L 1084.265283 347.611587 
L 1085.612025 339.985162 
L 1086.958767 347.611587 
L 1090.998992 347.611587 
L 1092.345734 350.153729 
L 1093.692475 345.069445 
L 1095.039217 347.611587 
L 1097.732701 347.611587 
L 1099.079442 350.153729 
L 1104.466409 350.153729 
L 1105.813151 347.611587 
L 1107.159893 350.153729 
L 1108.506635 350.153729 
L 1109.853376 347.611587 
L 1111.200118 350.153729 
L 1124.667536 350.153729 
L 1126.014277 345.069445 
L 1127.361019 347.611587 
L 1128.707761 337.44302 
L 1130.054503 337.44302 
L 1131.401244 342.527303 
L 1132.747986 337.44302 
L 1134.094728 337.44302 
L 1135.44147 350.153729 
L 1136.788211 350.153729 
L 1138.134953 327.274453 
L 1139.481695 339.985162 
L 1140.828437 337.44302 
L 1142.175178 347.611587 
L 1144.868662 347.611587 
L 1146.215404 350.153729 
L 1147.562146 345.069445 
L 1148.908887 347.611587 
L 1150.255629 347.611587 
L 1151.602371 342.527303 
L 1152.949113 347.611587 
L 1154.295854 332.358736 
L 1155.642596 319.648028 
L 1156.989338 324.732311 
L 1158.33608 324.732311 
L 1159.682821 342.527303 
L 1161.029563 314.563744 
L 1162.376305 324.732311 
L 1163.723047 342.527303 
L 1165.069788 284.058043 
L 1166.41653 312.021602 
L 1167.763272 350.153729 
L 1169.110014 339.985162 
L 1170.456755 350.153729 
L 1171.803497 345.069445 
L 1173.150239 342.527303 
L 1174.496981 350.153729 
L 1175.843722 347.611587 
L 1177.190464 350.153729 
L 1178.537206 347.611587 
L 1179.883948 350.153729 
L 1181.230689 350.153729 
L 1182.577431 342.527303 
L 1183.924173 342.527303 
L 1185.270915 339.985162 
L 1186.617656 347.611587 
L 1187.964398 350.153729 
L 1189.31114 342.527303 
L 1190.657882 345.069445 
L 1192.004623 342.527303 
L 1193.351365 342.527303 
L 1194.698107 347.611587 
L 1198.738332 332.358736 
L 1200.085074 337.44302 
L 1201.431816 329.816595 
L 1202.778557 342.527303 
L 1204.125299 339.985162 
L 1205.472041 345.069445 
L 1206.818783 345.069445 
L 1208.165524 339.985162 
L 1209.512266 347.611587 
L 1210.859008 345.069445 
L 1212.20575 319.648028 
L 1213.552491 314.563744 
L 1214.899233 289.142326 
L 1216.245975 276.431617 
L 1217.592717 286.600185 
L 1218.939458 314.563744 
L 1220.2862 286.600185 
L 1221.632942 294.22661 
L 1222.979684 296.768752 
L 1224.326425 312.021602 
L 1225.673167 332.358736 
L 1227.019909 337.44302 
L 1229.713392 322.190169 
L 1231.060134 342.527303 
L 1232.406876 322.190169 
L 1233.753618 339.985162 
L 1235.10036 347.611587 
L 1236.447101 342.527303 
L 1237.793843 350.153729 
L 1239.140585 350.153729 
L 1240.487327 345.069445 
L 1241.834068 327.274453 
L 1243.18081 350.153729 
L 1244.527552 339.985162 
L 1247.221035 350.153729 
L 1248.567777 350.153729 
L 1249.914519 345.069445 
L 1251.261261 350.153729 
L 1252.608002 347.611587 
L 1253.954744 350.153729 
L 1293.010255 350.153729 
L 1293.010255 350.153729 
" clip-path="url(#pc71fabdb87)" style="fill: none; stroke: #0000ff; stroke-width: 1.5; stroke-linecap: square"/>
   </g>
   <g id="line2d_20">
    <path d="M 1053.290223 216.575317 
L 1054.636965 231.94538 
L 1055.983706 238.486586 
L 1057.330448 210.714947 
L 1058.67719 212.997915 
L 1060.023932 152.071101 
L 1061.370673 101.228979 
L 1062.717415 166.99325 
L 1064.064157 111.17238 
L 1065.410899 220.756664 
L 1066.75764 257.638895 
L 1069.451124 141.285162 
L 1070.797866 255.539601 
L 1072.144607 269.293321 
L 1073.491349 323.29564 
L 1074.838091 329.604714 
L 1076.184833 351.092592 
L 1077.531574 352.581 
L 1078.878316 335.560462 
L 1080.225058 343.096459 
L 1081.5718 338.140525 
L 1082.918541 347.767605 
L 1084.265283 345.336202 
L 1085.612025 341.699933 
L 1086.958767 347.7415 
L 1088.305508 345.495709 
L 1089.65225 347.169858 
L 1090.998992 346.407299 
L 1092.345734 349.145104 
L 1093.692475 345.460439 
L 1095.039217 347.130482 
L 1096.385959 346.788784 
L 1097.732701 347.00713 
L 1099.079442 349.108877 
L 1100.426184 348.909652 
L 1101.772926 349.738166 
L 1103.119668 349.360788 
L 1104.466409 349.462001 
L 1105.813151 347.441008 
L 1107.159893 349.299401 
L 1108.506635 349.073382 
L 1109.853376 347.415477 
L 1111.200118 349.464916 
L 1112.54686 349.088649 
L 1113.893602 349.603304 
L 1115.240343 349.326753 
L 1117.933827 349.579751 
L 1119.280569 349.325206 
L 1120.62731 349.449413 
L 1124.667536 349.44104 
L 1126.014277 345.447297 
L 1127.361019 347.453974 
L 1128.707761 338.729561 
L 1130.054503 339.087312 
L 1131.401244 341.668686 
L 1132.747986 337.672123 
L 1134.094728 338.686034 
L 1135.44147 347.582438 
L 1136.788211 348.325611 
L 1138.134953 331.566573 
L 1139.481695 341.272023 
L 1140.828437 336.551528 
L 1142.175178 346.08166 
L 1143.52192 345.022547 
L 1144.868662 346.97953 
L 1146.215404 350.411462 
L 1147.562146 344.625926 
L 1148.908887 347.720818 
L 1150.255629 346.110612 
L 1151.602371 343.042074 
L 1152.949113 346.976339 
L 1154.295854 334.232379 
L 1155.642596 325.449649 
L 1156.989338 326.813509 
L 1158.33608 325.230925 
L 1159.682821 340.152368 
L 1161.029563 317.66254 
L 1162.376305 329.296059 
L 1163.723047 339.401278 
L 1165.069788 293.979542 
L 1166.41653 318.522176 
L 1167.763272 339.21126 
L 1169.110014 337.724033 
L 1170.456755 349.058463 
L 1171.803497 343.270893 
L 1173.150239 346.84229 
L 1174.496981 347.685634 
L 1175.843722 344.510473 
L 1177.190464 349.443199 
L 1178.537206 346.383115 
L 1179.883948 349.731857 
L 1181.230689 349.181771 
L 1182.577431 343.289615 
L 1183.924173 343.491622 
L 1185.270915 340.081479 
L 1186.617656 346.534291 
L 1187.964398 347.843769 
L 1189.31114 343.110286 
L 1190.657882 345.890715 
L 1192.004623 342.471032 
L 1193.351365 342.990738 
L 1194.698107 345.967978 
L 1196.044849 342.206532 
L 1197.39159 339.454319 
L 1198.738332 334.301788 
L 1200.085074 337.913911 
L 1201.431816 330.999016 
L 1202.778557 341.429533 
L 1204.125299 338.859748 
L 1205.472041 344.711696 
L 1206.818783 344.500694 
L 1208.165524 340.588625 
L 1209.512266 347.26848 
L 1210.859008 343.373044 
L 1212.20575 325.218718 
L 1213.552491 320.389244 
L 1214.899233 297.194416 
L 1216.245975 286.768862 
L 1217.592717 290.520884 
L 1218.939458 311.314876 
L 1220.2862 292.045786 
L 1221.632942 301.141876 
L 1222.979684 300.49433 
L 1224.326425 312.925058 
L 1225.673167 328.040014 
L 1227.019909 332.708411 
L 1228.366651 332.50027 
L 1229.713392 325.575138 
L 1231.060134 340.908084 
L 1232.406876 322.887261 
L 1233.753618 339.237245 
L 1235.10036 343.017787 
L 1236.447101 342.246696 
L 1237.793843 349.758381 
L 1239.140585 347.400407 
L 1240.487327 346.624997 
L 1241.834068 330.450262 
L 1243.18081 348.265205 
L 1244.527552 338.32967 
L 1245.874294 345.007152 
L 1247.221035 348.047271 
L 1248.567777 348.923521 
L 1249.914519 346.663338 
L 1251.261261 348.294908 
L 1252.608002 347.283784 
L 1253.954744 349.081635 
L 1255.301486 348.824795 
L 1256.648228 349.363496 
L 1257.994969 349.724737 
L 1259.341711 349.279622 
L 1260.688453 349.532572 
L 1262.035195 349.317225 
L 1263.381936 349.426184 
L 1271.462387 349.440462 
L 1293.010255 349.448404 
L 1293.010255 349.448404 
" clip-path="url(#pc71fabdb87)" style="fill: none; stroke: #ffa500; stroke-width: 1.5; stroke-linecap: square"/>
   </g>
   <g id="line2d_21">
    <path d="M 1293.010255 349.448404 
L 1294.356997 348.893427 
L 1295.703738 348.456455 
L 1297.05048 348.014043 
L 1298.397222 347.588371 
L 1299.743964 347.192317 
L 1301.090705 346.818821 
L 1302.437447 346.508164 
L 1303.784189 346.208347 
L 1305.130931 345.92023 
L 1306.477672 345.650085 
L 1307.824414 345.395598 
L 1309.171156 345.155069 
L 1310.517898 344.928038 
" clip-path="url(#pc71fabdb87)" style="fill: none; stroke: #ff0000; stroke-width: 1.5; stroke-linecap: square"/>
   </g>
   <g id="patch_3">
    <path d="M 32.190625 367.701 
L 32.190625 35.061 
" style="fill: none; stroke: #000000; stroke-width: 0.8; stroke-linejoin: miter; stroke-linecap: square"/>
   </g>
   <g id="patch_4">
    <path d="M 1371.390625 367.701 
L 1371.390625 35.061 
" style="fill: none; stroke: #000000; stroke-width: 0.8; stroke-linejoin: miter; stroke-linecap: square"/>
   </g>
   <g id="patch_5">
    <path d="M 32.190625 367.701 
L 1371.390625 367.701 
" style="fill: none; stroke: #000000; stroke-width: 0.8; stroke-linejoin: miter; stroke-linecap: square"/>
   </g>
   <g id="patch_6">
    <path d="M 32.190625 35.061 
L 1371.390625 35.061 
" style="fill: none; stroke: #000000; stroke-width: 0.8; stroke-linejoin: miter; stroke-linecap: square"/>
   </g>
   <g id="text_19">
    <!-- 每日新增预测 - 河南 -->
    <g transform="translate(648.393438 17.041875)scale(0.12 -0.12)">
     <defs>
      <path id="WenQuanYiZenHei-6bcf" d="M 6138 2181 
Q 6113 1988 6138 1800 
Q 5788 1819 5438 1819 
L 4975 1819 
L 4863 738 
L 5806 738 
L 5806 394 
L 4831 394 
L 4775 -144 
Q 4719 -563 4350 -725 
Q 4013 -856 3550 -825 
L 3288 -819 
Q 3331 -663 3275 -519 
Q 3219 -375 3113 -288 
Q 3381 -313 3759 -303 
Q 4138 -294 4231 -238 
Q 4338 -163 4350 88 
L 4381 394 
L 1025 394 
L 1244 1819 
L 813 1819 
Q 463 1819 113 1800 
Q 138 1988 113 2181 
Q 463 2163 813 2163 
L 1294 2163 
L 1488 3431 
L 1488 3581 
L 1506 3581 
L 1513 3613 
L 1713 3581 
L 5156 3581 
L 5013 2163 
L 5438 2163 
Q 5788 2163 6138 2181 
z
M 5588 4463 
Q 5569 4269 5588 4081 
Q 5244 4100 4894 4100 
L 1813 4100 
Q 1344 3463 606 2788 
Q 481 2988 256 3069 
Q 744 3494 1116 3972 
Q 1488 4450 1919 5181 
Q 2119 5044 2344 4950 
Q 2213 4688 2050 4444 
L 4894 4444 
Q 5238 4444 5588 4463 
z
M 2844 3238 
L 1906 3238 
L 1744 2163 
L 3244 2163 
L 2581 3038 
L 2844 3238 
z
M 3250 2163 
L 4563 2163 
L 4669 3238 
L 3044 3238 
L 3638 2456 
L 3250 2163 
z
M 2944 1819 
Q 3275 1394 3550 938 
L 3213 738 
L 4419 738 
L 4525 1819 
L 2944 1819 
z
M 2656 1819 
L 1694 1819 
L 1525 738 
L 3094 738 
Q 2806 1219 2450 1650 
L 2656 1819 
z
" transform="scale(0.015625)"/>
      <path id="WenQuanYiZenHei-65e5" d="M 1494 -775 
Q 1244 -750 988 -775 
Q 1013 -313 1013 156 
L 1013 4875 
L 5269 4875 
L 5269 -763 
L 4813 -763 
L 4813 156 
L 1469 156 
Q 1469 -313 1494 -775 
z
M 4813 2700 
L 4813 4500 
L 1469 4500 
L 1469 2700 
L 4813 2700 
z
M 4813 531 
L 4813 2325 
L 1469 2325 
L 1469 531 
L 4813 531 
z
" transform="scale(0.015625)"/>
      <path id="WenQuanYiZenHei-65b0" d="M 5419 -763 
Q 5188 -738 4963 -763 
Q 4981 -344 4981 75 
L 4981 2819 
L 4188 2819 
L 4188 1706 
Q 4188 63 3163 -738 
Q 3019 -519 2769 -469 
Q 3769 131 3769 1706 
L 3769 4769 
L 3875 4769 
L 3844 4831 
L 4294 4781 
Q 4438 4769 4894 4816 
Q 5350 4863 5512 4931 
Q 5675 5000 5763 5094 
Q 5850 4881 5981 4694 
Q 5713 4544 5263 4519 
L 4188 4438 
L 4188 3100 
L 5563 3100 
Q 5850 3100 6131 3113 
Q 6119 2956 6131 2806 
L 5394 2819 
L 5394 75 
Q 5394 -344 5419 -763 
z
M 2981 213 
Q 2656 744 2256 1225 
L 2606 1513 
Q 3025 1006 3369 450 
L 2981 213 
z
M 1169 1525 
Q 1375 1419 1594 1363 
Q 1281 488 469 -469 
Q 331 -300 119 -244 
Q 575 263 888 900 
Q 1038 1206 1169 1525 
z
M 1825 6 
L 1825 1769 
L 1081 1769 
Q 794 1769 513 1756 
Q 525 1913 513 2063 
Q 794 2050 1081 2050 
L 1825 2050 
L 1825 2775 
L 994 2775 
Q 706 2775 425 2763 
Q 438 2919 425 3075 
Q 706 3056 994 3056 
L 1825 3056 
L 1825 3088 
L 1906 3088 
Q 2288 3656 2588 4381 
Q 2794 4269 3013 4206 
Q 2800 3675 2381 3056 
L 3013 3056 
Q 3294 3056 3581 3075 
Q 3563 2919 3581 2763 
Q 3294 2775 3013 2775 
L 2238 2775 
L 2238 2050 
L 2925 2050 
Q 3206 2050 3494 2063 
Q 3475 1913 3494 1756 
Q 3206 1769 2925 1769 
L 2238 1769 
L 2238 -156 
Q 2238 -413 2075 -581 
Q 1844 -794 1306 -794 
Q 1363 -519 1188 -288 
Q 1338 -313 1534 -316 
Q 1731 -319 1778 -278 
Q 1825 -238 1825 6 
z
M 1875 3388 
L 1500 3131 
L 825 4088 
L 1200 4350 
L 1875 3388 
z
M 3419 4713 
Q 3400 4563 3419 4406 
Q 3131 4419 2850 4419 
L 1125 4419 
Q 838 4419 556 4406 
Q 569 4563 556 4713 
Q 838 4700 1125 4700 
L 1763 4700 
L 1388 5088 
L 1719 5406 
L 2288 4813 
L 2175 4700 
L 2850 4700 
Q 3131 4700 3419 4713 
z
" transform="scale(0.015625)"/>
      <path id="WenQuanYiZenHei-589e" d="M 3138 -769 
Q 2913 -744 2688 -769 
Q 2706 -356 2706 56 
L 2706 1719 
L 5706 1719 
L 5706 -756 
L 5300 -756 
L 5300 -338 
L 3119 -338 
Q 3125 -550 3138 -769 
z
M 5113 3569 
Q 5344 3606 5563 3688 
Q 5669 3175 5256 2694 
Q 5113 2519 4975 2506 
Q 4831 2725 4588 2813 
Q 4806 2831 4997 3068 
Q 5188 3306 5113 3569 
z
M 3850 2763 
L 3469 2538 
L 2925 3456 
L 3313 3681 
L 3850 2763 
z
M 2400 2100 
Q 2469 3138 2400 4175 
L 3413 4175 
Q 3138 4550 2825 4888 
L 3156 5194 
Q 3581 4725 3938 4206 
L 3900 4175 
L 4456 4175 
Q 4863 4575 5131 5163 
Q 5325 5044 5538 4975 
Q 5369 4575 5013 4175 
L 6056 4175 
Q 5981 3138 6056 2100 
L 2400 2100 
z
M 5300 806 
L 5300 1450 
L 3113 1450 
Q 3113 1125 3113 806 
L 5300 806 
z
M 5300 563 
L 3113 563 
L 3113 -94 
L 5300 -94 
L 5300 563 
z
M 4431 3913 
L 4431 2363 
L 5650 2363 
L 5650 3913 
L 4756 3913 
L 4700 3856 
Q 4681 3888 4656 3913 
L 4431 3913 
z
M 4025 3913 
L 2806 3913 
L 2806 2363 
L 4025 2363 
L 4025 3913 
z
M -31 625 
Q 506 763 1006 975 
L 1006 3206 
L 669 3206 
Q 369 3206 75 3188 
Q 94 3356 75 3531 
Q 369 3513 669 3513 
L 1006 3513 
L 1006 4263 
Q 1006 4700 981 5131 
Q 1206 5106 1431 5131 
Q 1413 4700 1413 4263 
L 1413 3513 
L 2238 3531 
Q 2219 3356 2238 3188 
L 1413 3206 
L 1413 1163 
L 2150 1531 
L 2194 1256 
Q 1269 775 813 519 
L 194 144 
Q 138 438 -31 625 
z
" transform="scale(0.015625)"/>
      <path id="WenQuanYiZenHei-9884" d="M 1206 19 
L 1206 2888 
L 669 2888 
Q 356 2888 50 2869 
Q 63 3044 50 3213 
Q 363 3194 669 3194 
L 1250 3194 
Q 950 3631 606 4031 
L 963 4338 
L 1263 3975 
L 1913 4719 
L 731 4719 
Q 419 4719 106 4706 
Q 125 4875 106 5044 
Q 419 5031 731 5031 
L 2481 5031 
L 2544 4663 
Q 2394 4613 2256 4466 
Q 2119 4319 1525 3631 
Q 1656 3444 1788 3250 
L 1700 3194 
L 2700 3194 
L 2763 2825 
Q 2656 2819 2613 2763 
L 2100 2038 
L 1750 2288 
L 2175 2888 
L 1638 2888 
L 1638 -150 
Q 1638 -525 1363 -669 
Q 1075 -819 525 -813 
Q 594 -513 388 -294 
Q 575 -313 837 -316 
Q 1100 -319 1153 -272 
Q 1206 -225 1206 19 
z
M 5813 -888 
Q 5100 -225 4306 375 
L 4669 719 
Q 5481 106 6219 -575 
L 5813 -888 
z
M 2375 -906 
Q 2294 -631 2025 -506 
Q 2769 -431 3353 19 
Q 3938 469 3938 1069 
L 3938 2200 
Q 3938 2625 3913 3050 
Q 4188 3025 4456 3050 
Q 4431 2625 4431 2200 
L 4431 1069 
Q 4431 681 4225 319 
Q 3644 -606 2375 -906 
z
M 3444 488 
Q 3169 513 2894 488 
Q 2919 913 2919 1338 
L 2919 3675 
Q 3219 3675 3525 3675 
Q 3750 4013 3931 4525 
L 3238 4525 
Q 2888 4525 2538 4513 
Q 2556 4669 2538 4831 
Q 2888 4813 3238 4813 
L 5313 4813 
Q 5663 4813 6006 4831 
Q 5988 4669 6006 4513 
Q 5663 4525 5313 4525 
L 4481 4525 
Q 4388 4088 4088 3675 
L 5644 3675 
L 5644 513 
L 5144 513 
L 5144 3388 
L 3894 3388 
L 3875 3363 
Q 3863 3375 3844 3388 
Q 3631 3388 3413 3388 
L 3419 1338 
Q 3419 913 3444 488 
z
" transform="scale(0.015625)"/>
      <path id="WenQuanYiZenHei-6d4b" d="M 5450 138 
L 5450 4306 
Q 5450 4750 5425 5188 
Q 5663 5163 5906 5188 
Q 5881 4750 5881 4306 
L 5881 -38 
Q 5888 -569 5519 -719 
Q 5194 -831 4825 -813 
Q 4894 -519 4694 -281 
Q 4869 -306 5094 -309 
Q 5319 -313 5384 -256 
Q 5450 -200 5450 138 
z
M 4900 938 
Q 4663 963 4419 938 
Q 4444 1375 4444 1819 
L 4444 3381 
Q 4444 3819 4419 4263 
Q 4663 4238 4900 4263 
Q 4875 3819 4875 3381 
L 4875 1819 
Q 4875 1375 4900 938 
z
M 2750 2025 
L 2750 3038 
Q 2750 3481 2725 3919 
Q 2963 3894 3206 3919 
Q 3181 3481 3181 3038 
L 3181 2025 
Q 3181 1263 2919 625 
L 3231 956 
Q 3781 431 4256 -150 
L 3888 -456 
Q 3431 106 2906 600 
Q 2531 -288 1738 -769 
Q 1606 -519 1338 -450 
Q 1988 -156 2369 478 
Q 2750 1113 2750 2025 
z
M 2363 969 
Q 2119 994 1881 969 
Q 1906 1406 1906 1850 
L 1906 5038 
L 3956 5031 
L 3956 1200 
L 3525 1200 
L 3525 4713 
L 2338 4713 
L 2338 1850 
Q 2338 1406 2363 969 
z
M 663 -738 
Q 481 -588 206 -575 
Q 400 -69 606 581 
Q 813 1231 1200 2838 
L 1381 2706 
L 875 338 
L 663 -738 
z
M 1006 2856 
L 731 2550 
L 75 3400 
L 350 3713 
L 1006 2856 
z
M 1088 3913 
Q 781 4388 425 4800 
L 694 5125 
Q 1069 4688 1388 4188 
L 1088 3913 
z
" transform="scale(0.015625)"/>
      <path id="WenQuanYiZenHei-20" transform="scale(0.015625)"/>
      <path id="WenQuanYiZenHei-6cb3" d="M 4906 88 
L 4906 4331 
L 2931 4331 
Q 2600 4331 2263 4319 
Q 2281 4500 2263 4681 
Q 2600 4663 2931 4663 
L 5506 4663 
Q 5844 4663 6181 4681 
Q 6156 4500 6181 4319 
L 5344 4331 
L 5344 -81 
Q 5344 -513 5081 -669 
Q 4800 -831 4206 -825 
Q 4275 -519 4063 -294 
Q 4256 -319 4512 -319 
Q 4769 -319 4837 -266 
Q 4906 -213 4906 88 
z
M 2906 825 
L 2469 825 
L 2469 3488 
L 4256 3488 
L 4256 825 
L 3813 825 
L 3813 1381 
L 2906 1381 
L 2906 825 
z
M 3813 3156 
L 2906 3156 
L 2906 1713 
L 3813 1713 
L 3813 3156 
z
M 963 -738 
Q 694 -588 300 -575 
Q 581 -69 878 581 
Q 1175 1231 1744 2838 
L 2006 2706 
L 1269 338 
L 963 -738 
z
M 1463 2856 
L 1056 2550 
L 106 3400 
L 513 3713 
L 1463 2856 
z
M 1581 3913 
Q 1138 4388 619 4800 
L 1006 5125 
Q 1550 4688 2019 4188 
L 1581 3913 
z
" transform="scale(0.015625)"/>
      <path id="WenQuanYiZenHei-5357" d="M 3363 -769 
Q 3125 -744 2888 -769 
Q 2906 -325 2906 113 
L 2906 700 
L 1906 700 
Q 1581 700 1263 681 
Q 1281 856 1263 1031 
Q 1581 1019 1906 1019 
L 2906 1019 
L 2906 1619 
L 2050 1619 
Q 1731 1619 1406 1606 
Q 1425 1781 1406 1956 
L 2281 1938 
Q 2013 2375 1694 2781 
L 2000 3025 
L 1013 3025 
L 1019 131 
Q 1019 -306 1044 -750 
Q 800 -725 563 -750 
Q 588 -306 581 131 
L 581 3344 
L 2906 3344 
L 2906 4075 
L 763 4075 
Q 438 4075 119 4056 
Q 131 4231 119 4406 
Q 438 4394 763 4394 
L 2906 4394 
Q 2906 4825 2888 5256 
Q 3125 5231 3363 5256 
Q 3344 4825 3344 4394 
L 5488 4394 
Q 5813 4394 6131 4406 
Q 6119 4231 6131 4056 
Q 5813 4075 5488 4075 
L 3344 4075 
L 3344 3344 
L 5663 3344 
L 5663 -125 
Q 5663 -506 5388 -650 
Q 5100 -806 4544 -800 
Q 4613 -494 4400 -269 
Q 4594 -294 4856 -297 
Q 5119 -300 5175 -253 
Q 5231 -206 5231 50 
L 5231 3025 
L 4063 3025 
Q 4238 2894 4431 2800 
Q 4269 2525 3831 1938 
L 4200 1938 
Q 4519 1938 4844 1956 
Q 4825 1781 4844 1606 
Q 4519 1619 4200 1619 
L 3600 1619 
Q 3588 1588 3569 1619 
L 3344 1619 
L 3344 1019 
L 4344 1019 
Q 4669 1019 4988 1031 
Q 4969 856 4988 681 
Q 4669 700 4344 700 
L 3344 700 
L 3344 113 
Q 3344 -325 3363 -769 
z
M 3300 1938 
Q 3394 2063 3475 2181 
L 4006 3025 
L 2113 3025 
Q 2500 2525 2819 1975 
L 2750 1938 
L 3300 1938 
z
" transform="scale(0.015625)"/>
     </defs>
     <use xlink:href="#WenQuanYiZenHei-6bcf"/>
     <use xlink:href="#WenQuanYiZenHei-65e5" x="100"/>
     <use xlink:href="#WenQuanYiZenHei-65b0" x="200"/>
     <use xlink:href="#WenQuanYiZenHei-589e" x="300"/>
     <use xlink:href="#WenQuanYiZenHei-9884" x="400"/>
     <use xlink:href="#WenQuanYiZenHei-6d4b" x="500"/>
     <use xlink:href="#WenQuanYiZenHei-20" x="600"/>
     <use xlink:href="#WenQuanYiZenHei-2d" x="629.980469"/>
     <use xlink:href="#WenQuanYiZenHei-20" x="659.960938"/>
     <use xlink:href="#WenQuanYiZenHei-6cb3" x="689.941406"/>
     <use xlink:href="#WenQuanYiZenHei-5357" x="789.941406"/>
    </g>
    <!-- ARIMA (3, 0, 0)x(0, 0, 1, 7) (R2 = 0.974560) -->
    <g transform="translate(583.182813 29.061)scale(0.12 -0.12)">
     <defs>
      <path id="WenQuanYiZenHei-41" d="M 3550 0 
L 2988 0 
L 2550 1281 
L 919 1281 
L 531 0 
L 69 0 
L 1494 4388 
L 2125 4388 
L 3550 0 
z
M 2425 1694 
L 1756 3800 
L 1075 1694 
L 2425 1694 
z
" transform="scale(0.015625)"/>
      <path id="WenQuanYiZenHei-52" d="M 3675 0 
L 3100 0 
L 2288 1900 
L 1069 1900 
L 1069 0 
L 519 0 
L 519 4388 
L 2163 4388 
Q 3006 4388 3400 3900 
Q 3581 3663 3625 3325 
Q 3631 3250 3631 3163 
Q 3631 2594 3219 2244 
Q 3038 2100 2813 2038 
L 3675 0 
z
M 3081 3169 
Q 3081 3825 2356 3906 
Q 2263 3919 2163 3919 
L 1069 3919 
L 1069 2350 
L 2100 2350 
Q 2906 2350 3044 2919 
Q 3081 3031 3081 3169 
z
" transform="scale(0.015625)"/>
      <path id="WenQuanYiZenHei-49" d="M 1100 0 
L 550 0 
L 550 4388 
L 1100 4388 
L 1100 0 
z
" transform="scale(0.015625)"/>
      <path id="WenQuanYiZenHei-4d" d="M 4756 0 
L 4206 0 
L 4206 3831 
L 4181 3831 
L 2788 0 
L 2419 0 
L 1000 3831 
L 975 3831 
L 975 0 
L 513 0 
L 513 4388 
L 1331 4388 
L 2656 875 
L 3950 4388 
L 4756 4388 
L 4756 0 
z
" transform="scale(0.015625)"/>
      <path id="WenQuanYiZenHei-28" d="M 1606 -1094 
L 1275 -1094 
Q 475 -100 338 1231 
Q 319 1438 319 1656 
Q 319 3031 1156 4244 
Q 1213 4313 1269 4388 
L 1600 4388 
Q 806 3169 794 1681 
Q 794 188 1606 -1094 
z
" transform="scale(0.015625)"/>
      <path id="WenQuanYiZenHei-33" d="M 3588 1231 
Q 3588 494 2875 144 
Q 2450 -63 1925 -63 
Q 1044 -63 556 488 
Q 356 706 256 1000 
L 769 1169 
Q 994 375 1913 375 
Q 2631 375 2900 788 
Q 3019 975 3019 1231 
Q 3019 1638 2638 1881 
Q 2325 2081 1613 2069 
L 1338 2069 
L 1338 2494 
Q 1969 2494 2094 2506 
Q 2325 2544 2463 2613 
Q 2763 2756 2844 3100 
Q 2863 3169 2863 3244 
Q 2863 3744 2381 3944 
L 2163 4006 
Q 2056 4025 1931 4025 
Q 1388 4025 1075 3631 
Q 969 3488 906 3313 
L 419 3456 
Q 675 4150 1400 4369 
Q 1669 4456 1975 4456 
Q 2694 4456 3106 4050 
Q 3419 3744 3419 3275 
Q 3419 2813 3025 2513 
Q 2825 2356 2575 2319 
L 2575 2306 
Q 3181 2213 3450 1769 
Q 3588 1525 3588 1231 
z
" transform="scale(0.015625)"/>
      <path id="WenQuanYiZenHei-2c" d="M 1363 75 
L 881 -825 
L 606 -825 
L 994 0 
L 656 0 
L 656 738 
L 1363 738 
L 1363 75 
z
" transform="scale(0.015625)"/>
      <path id="WenQuanYiZenHei-29" d="M 1600 1656 
Q 1600 306 869 -788 
Q 769 -950 644 -1094 
L 313 -1094 
Q 1125 188 1125 1681 
Q 1125 3169 338 4363 
Q 325 4375 319 4388 
L 650 4388 
Q 1525 3231 1594 1863 
Q 1600 1763 1600 1656 
z
" transform="scale(0.015625)"/>
      <path id="WenQuanYiZenHei-78" d="M 2806 0 
L 2213 0 
L 1394 1319 
L 544 0 
L 50 0 
L 1144 1681 
L 163 3250 
L 744 3250 
L 1431 2138 
L 2144 3250 
L 2631 3250 
L 1681 1794 
L 2806 0 
z
" transform="scale(0.015625)"/>
      <path id="WenQuanYiZenHei-3d" d="M 3569 2256 
L 263 2256 
L 263 2675 
L 3569 2675 
L 3569 2256 
z
M 3569 1019 
L 263 1019 
L 263 1431 
L 3569 1431 
L 3569 1019 
z
" transform="scale(0.015625)"/>
      <path id="WenQuanYiZenHei-2e" d="M 1344 0 
L 631 0 
L 631 725 
L 1344 725 
L 1344 0 
z
" transform="scale(0.015625)"/>
      <path id="WenQuanYiZenHei-39" d="M 3544 2300 
Q 3544 1163 3019 513 
Q 2563 -63 1775 -63 
Q 956 -63 563 488 
Q 463 631 394 813 
L 838 975 
Q 1025 494 1550 388 
Q 1656 369 1775 369 
Q 2594 369 2900 1325 
Q 3044 1769 3038 2313 
L 3025 2313 
Q 2675 1638 1944 1544 
Q 1844 1531 1744 1531 
Q 1050 1531 625 2031 
Q 294 2419 294 2963 
Q 294 3656 813 4094 
Q 1238 4456 1819 4456 
Q 2988 4456 3381 3363 
Q 3544 2900 3544 2300 
z
M 2925 2994 
Q 2925 3563 2469 3844 
Q 2206 4006 1863 4006 
Q 1275 4006 988 3563 
Q 844 3344 825 3056 
Q 819 3006 819 2956 
Q 819 2413 1269 2131 
Q 1538 1963 1875 1963 
Q 2363 1963 2681 2350 
Q 2925 2638 2925 2994 
z
" transform="scale(0.015625)"/>
      <path id="WenQuanYiZenHei-35" d="M 3531 1488 
Q 3531 688 2913 250 
Q 2456 -63 1844 -63 
Q 1175 -63 706 350 
Q 413 613 306 975 
L 781 1131 
Q 1000 538 1569 406 
Q 1706 369 1856 369 
Q 2550 369 2850 869 
Q 3000 1131 3000 1494 
Q 3000 2056 2581 2356 
Q 2319 2538 1969 2538 
Q 1400 2538 1031 2075 
Q 981 2013 938 1938 
L 500 2031 
L 644 4388 
L 3244 4388 
L 3200 3919 
L 1044 3919 
L 950 2500 
Q 1431 2975 2006 2975 
Q 2713 2975 3163 2475 
Q 3531 2063 3531 1488 
z
" transform="scale(0.015625)"/>
     </defs>
     <use xlink:href="#WenQuanYiZenHei-41"/>
     <use xlink:href="#WenQuanYiZenHei-52" x="55.957031"/>
     <use xlink:href="#WenQuanYiZenHei-49" x="117.871094"/>
     <use xlink:href="#WenQuanYiZenHei-4d" x="143.847656"/>
     <use xlink:href="#WenQuanYiZenHei-41" x="225.78125"/>
     <use xlink:href="#WenQuanYiZenHei-20" x="281.738281"/>
     <use xlink:href="#WenQuanYiZenHei-28" x="311.71875"/>
     <use xlink:href="#WenQuanYiZenHei-33" x="341.699219"/>
     <use xlink:href="#WenQuanYiZenHei-2c" x="401.660156"/>
     <use xlink:href="#WenQuanYiZenHei-20" x="431.640625"/>
     <use xlink:href="#WenQuanYiZenHei-30" x="461.621094"/>
     <use xlink:href="#WenQuanYiZenHei-2c" x="521.582031"/>
     <use xlink:href="#WenQuanYiZenHei-20" x="551.5625"/>
     <use xlink:href="#WenQuanYiZenHei-30" x="581.542969"/>
     <use xlink:href="#WenQuanYiZenHei-29" x="641.503906"/>
     <use xlink:href="#WenQuanYiZenHei-78" x="671.484375"/>
     <use xlink:href="#WenQuanYiZenHei-28" x="715.429688"/>
     <use xlink:href="#WenQuanYiZenHei-30" x="745.410156"/>
     <use xlink:href="#WenQuanYiZenHei-2c" x="805.371094"/>
     <use xlink:href="#WenQuanYiZenHei-20" x="835.351562"/>
     <use xlink:href="#WenQuanYiZenHei-30" x="865.332031"/>
     <use xlink:href="#WenQuanYiZenHei-2c" x="925.292969"/>
     <use xlink:href="#WenQuanYiZenHei-20" x="955.273438"/>
     <use xlink:href="#WenQuanYiZenHei-31" x="985.253906"/>
     <use xlink:href="#WenQuanYiZenHei-2c" x="1045.214844"/>
     <use xlink:href="#WenQuanYiZenHei-20" x="1075.195312"/>
     <use xlink:href="#WenQuanYiZenHei-37" x="1105.175781"/>
     <use xlink:href="#WenQuanYiZenHei-29" x="1165.136719"/>
     <use xlink:href="#WenQuanYiZenHei-20" x="1195.117188"/>
     <use xlink:href="#WenQuanYiZenHei-28" x="1225.097656"/>
     <use xlink:href="#WenQuanYiZenHei-52" x="1255.078125"/>
     <use xlink:href="#WenQuanYiZenHei-32" x="1316.992188"/>
     <use xlink:href="#WenQuanYiZenHei-20" x="1376.953125"/>
     <use xlink:href="#WenQuanYiZenHei-3d" x="1406.933594"/>
     <use xlink:href="#WenQuanYiZenHei-20" x="1466.894531"/>
     <use xlink:href="#WenQuanYiZenHei-30" x="1496.875"/>
     <use xlink:href="#WenQuanYiZenHei-2e" x="1556.835938"/>
     <use xlink:href="#WenQuanYiZenHei-39" x="1586.816406"/>
     <use xlink:href="#WenQuanYiZenHei-37" x="1646.777344"/>
     <use xlink:href="#WenQuanYiZenHei-34" x="1706.738281"/>
     <use xlink:href="#WenQuanYiZenHei-35" x="1766.699219"/>
     <use xlink:href="#WenQuanYiZenHei-36" x="1826.660156"/>
     <use xlink:href="#WenQuanYiZenHei-30" x="1886.621094"/>
     <use xlink:href="#WenQuanYiZenHei-29" x="1946.582031"/>
    </g>
   </g>
   <g id="legend_1">
    <g id="patch_7">
     <path d="M 1302.390625 87.056312 
L 1364.390625 87.056312 
Q 1366.390625 87.056312 1366.390625 85.056312 
L 1366.390625 42.061 
Q 1366.390625 40.061 1364.390625 40.061 
L 1302.390625 40.061 
Q 1300.390625 40.061 1300.390625 42.061 
L 1300.390625 85.056312 
Q 1300.390625 87.056312 1302.390625 87.056312 
z
" style="fill: #ffffff; opacity: 0.8; stroke: #cccccc; stroke-linejoin: miter"/>
    </g>
    <g id="line2d_22">
     <path d="M 1304.390625 48.695375 
L 1314.390625 48.695375 
L 1324.390625 48.695375 
" style="fill: none; stroke: #0000ff; stroke-width: 1.5; stroke-linecap: square"/>
    </g>
    <g id="text_20">
     <!-- 实际值 -->
     <g transform="translate(1332.390625 52.195375)scale(0.1 -0.1)">
      <defs>
       <path id="WenQuanYiZenHei-5b9e" d="M 1025 1175 
Q 694 1175 356 1163 
Q 375 1344 356 1525 
Q 694 1506 1025 1506 
L 3363 1506 
L 3363 2625 
Q 3363 3075 3338 3519 
Q 3581 3494 3825 3519 
Q 3800 3075 3800 2625 
L 3800 1506 
L 5406 1506 
Q 5744 1506 6075 1525 
Q 6056 1344 6075 1163 
Q 5744 1175 5406 1175 
L 4038 1175 
L 4981 456 
L 6131 -488 
L 5819 -856 
L 4681 75 
L 3638 875 
Q 3313 231 2475 -231 
Q 1638 -694 700 -825 
Q 638 -519 344 -400 
Q 1450 -319 2406 244 
Q 3113 656 3300 1175 
L 1025 1175 
z
M 2263 1581 
Q 1763 2081 1200 2513 
L 1494 2894 
Q 2081 2444 2600 1919 
L 2263 1581 
z
M 2638 2500 
Q 2219 2963 1731 3363 
L 2044 3738 
Q 2556 3313 3000 2819 
L 2638 2500 
z
M 919 3156 
L 481 3156 
L 481 4344 
L 3069 4344 
Q 2794 4731 2469 5081 
L 2825 5413 
Q 3256 4944 3613 4413 
L 3513 4344 
L 5869 4344 
L 5869 3156 
L 5425 3156 
L 5425 4013 
L 919 4013 
L 919 3156 
z
" transform="scale(0.015625)"/>
       <path id="WenQuanYiZenHei-9645" d="M 6000 431 
L 5569 194 
L 4963 1219 
L 4313 2219 
L 4719 2494 
L 5375 1481 
L 6000 431 
z
M 2956 2450 
Q 3181 2344 3419 2294 
Q 3006 1038 1944 -188 
Q 1794 -6 1569 56 
Q 2069 600 2372 1156 
Q 2675 1713 2956 2450 
z
M 3750 25 
L 3750 2913 
L 2819 2913 
Q 2475 2913 2125 2894 
Q 2144 3081 2125 3269 
Q 2475 3256 2819 3256 
L 5469 3256 
Q 5819 3256 6163 3269 
Q 6144 3081 6163 2894 
Q 5813 2913 5469 2913 
L 4194 2913 
L 4194 -144 
Q 4194 -725 3456 -813 
L 3263 -825 
Q 3325 -506 3125 -250 
Q 3250 -281 3394 -306 
Q 3663 -313 3706 -272 
Q 3750 -231 3750 25 
z
M 5544 4950 
Q 5525 4756 5544 4569 
Q 5194 4588 4844 4588 
L 3325 4588 
Q 2975 4588 2625 4569 
Q 2644 4756 2625 4950 
Q 2975 4931 3325 4931 
L 4844 4931 
Q 5194 4931 5544 4950 
z
M 819 -850 
Q 581 -825 344 -850 
Q 369 -419 369 19 
L 363 4938 
L 2256 4938 
L 2256 4625 
Q 2150 4513 2075 4375 
L 1481 3238 
Q 2181 2319 2181 1156 
Q 2144 400 1569 163 
L 1406 88 
Q 1288 300 1138 481 
Q 1294 538 1450 606 
Q 1763 744 1794 1156 
Q 1794 1744 1600 2300 
Q 1406 2856 1038 3313 
L 1725 4625 
L 788 4625 
L 794 19 
Q 794 -419 819 -850 
z
" transform="scale(0.015625)"/>
       <path id="WenQuanYiZenHei-503c" d="M 6175 -219 
Q 6156 -388 6175 -556 
Q 5863 -544 5550 -544 
L 2313 -544 
Q 2000 -544 1688 -556 
Q 1706 -388 1688 -219 
L 2506 -231 
L 2506 3469 
L 3644 3469 
L 3644 4119 
L 2638 4119 
Q 2325 4119 2013 4100 
Q 2031 4269 2013 4438 
Q 2325 4425 2638 4425 
L 3638 4425 
Q 3638 4719 3619 5013 
Q 3856 4988 4094 5013 
Q 4075 4719 4075 4425 
L 5344 4425 
Q 5650 4425 5963 4438 
Q 5950 4269 5963 4100 
Q 5656 4119 5344 4119 
L 4069 4119 
L 4069 3469 
L 5300 3469 
L 5300 -231 
L 5550 -231 
Q 5863 -231 6175 -219 
z
M 4869 2556 
L 4869 3156 
L 2931 3156 
Q 2931 2850 2931 2556 
L 4869 2556 
z
M 4869 1669 
L 4869 2250 
L 2931 2250 
L 2931 1669 
L 4869 1669 
z
M 4869 731 
L 4869 1363 
L 2931 1363 
L 2931 731 
L 4869 731 
z
M 4869 -231 
L 4869 425 
L 2931 425 
L 2931 -231 
L 4869 -231 
z
M 2106 4925 
Q 1856 4075 1463 3338 
L 1463 31 
Q 1463 -413 1481 -850 
Q 1256 -825 1031 -850 
Q 1050 -413 1050 31 
L 1050 2681 
Q 750 2269 375 1931 
Q 238 2156 0 2256 
Q 331 2544 619 2875 
Q 1094 3425 1300 3950 
Q 1494 4469 1625 5050 
Q 1850 4963 2106 4925 
z
" transform="scale(0.015625)"/>
      </defs>
      <use xlink:href="#WenQuanYiZenHei-5b9e"/>
      <use xlink:href="#WenQuanYiZenHei-9645" x="100"/>
      <use xlink:href="#WenQuanYiZenHei-503c" x="200"/>
     </g>
    </g>
    <g id="line2d_23">
     <path d="M 1304.390625 63.3735 
L 1314.390625 63.3735 
L 1324.390625 63.3735 
" style="fill: none; stroke: #ffa500; stroke-width: 1.5; stroke-linecap: square"/>
    </g>
    <g id="text_21">
     <!-- 校验值 -->
     <g transform="translate(1332.390625 66.8735)scale(0.1 -0.1)">
      <defs>
       <path id="WenQuanYiZenHei-6821" d="M 5256 2463 
Q 5025 1475 4494 706 
Q 5125 -94 6175 -544 
Q 5950 -663 5850 -900 
Q 4906 -494 4250 381 
Q 3931 0 3475 -350 
Q 3019 -700 2388 -919 
Q 2338 -656 2138 -475 
Q 3306 -69 4006 738 
Q 3563 1444 3300 2331 
Q 3050 2050 2706 1800 
Q 2606 2000 2406 2106 
Q 2900 2444 3181 2938 
Q 3350 3225 3488 3538 
Q 3700 3431 3925 3369 
Q 3763 2894 3425 2475 
L 3650 2531 
Q 3888 1675 4244 1075 
Q 4469 1444 4603 1937 
Q 4738 2431 4775 2688 
Q 4963 2644 5150 2625 
Q 4919 2969 4663 3294 
L 5038 3588 
Q 5544 2925 5975 2213 
L 5569 1969 
L 5256 2463 
z
M 6006 4050 
Q 5988 3881 6006 3713 
Q 5694 3725 5381 3725 
L 3413 3725 
Q 3100 3725 2788 3713 
Q 2806 3881 2788 4050 
Q 3100 4031 3413 4031 
L 4325 4031 
Q 4019 4525 3644 4969 
L 4000 5275 
Q 4413 4788 4750 4244 
L 4406 4031 
L 5381 4031 
Q 5694 4031 6006 4050 
z
M 406 263 
Q 238 431 -25 469 
Q 194 825 466 1337 
Q 738 1850 925 2406 
Q 1113 2963 1256 3519 
L 825 3519 
Q 506 3519 188 3500 
Q 206 3700 188 3900 
Q 506 3881 825 3881 
L 1363 3881 
L 1363 4263 
Q 1363 4719 1338 5175 
Q 1556 5150 1775 5175 
Q 1756 4719 1756 4263 
L 1756 3881 
L 2525 3900 
Q 2506 3700 2525 3500 
L 1756 3519 
L 1756 2738 
L 1931 2881 
Q 2306 2300 2613 1650 
L 2231 1413 
Q 2081 1725 1919 2019 
L 1756 2300 
L 1756 69 
Q 1756 -388 1775 -850 
Q 1556 -825 1338 -850 
Q 1363 -388 1363 69 
L 1363 2438 
Q 925 1144 406 263 
z
" transform="scale(0.015625)"/>
       <path id="WenQuanYiZenHei-9a8c" d="M 5981 -106 
Q 5963 -275 5981 -444 
Q 5669 -431 5356 -431 
L 2969 -431 
Q 2656 -431 2350 -444 
Q 2363 -275 2350 -106 
Q 2656 -125 2969 -125 
L 4369 -125 
Q 4600 431 4881 1288 
L 5206 2300 
Q 5425 2206 5663 2163 
Q 5375 1188 4831 -125 
L 5356 -125 
Q 5669 -125 5981 -106 
z
M 4063 594 
Q 3788 1425 3425 2219 
L 3856 2419 
Q 4225 1600 4513 744 
L 4063 594 
z
M 3163 363 
Q 2931 1200 2613 2006 
L 3056 2175 
Q 3381 1350 3619 488 
L 3163 363 
z
M 4581 2550 
L 3513 2550 
Q 3200 2550 2888 2538 
Q 2900 2663 2894 2769 
Q 2569 2488 2206 2300 
Q 2113 2550 1894 2700 
Q 2488 2975 2975 3463 
Q 3269 3756 3394 4006 
Q 3644 4513 3794 5063 
Q 4038 4975 4294 4931 
Q 4250 4806 4206 4681 
Q 4475 3888 5025 3388 
Q 5519 2938 6169 2650 
Q 5938 2538 5838 2300 
Q 5513 2456 5200 2700 
Q 5200 2619 5206 2538 
Q 4894 2550 4581 2550 
z
M 3513 2863 
L 4994 2869 
Q 4344 3438 3988 4194 
Q 3594 3406 3013 2869 
Q 3263 2863 3513 2863 
z
M 206 444 
Q 188 756 44 963 
Q 319 956 650 1003 
Q 981 1050 1731 1281 
L 1738 1006 
Q 800 719 206 444 
z
M 525 4000 
Q 744 3950 994 3944 
Q 925 3519 875 3081 
L 763 2144 
L 1475 2144 
L 1831 4444 
L 663 4444 
Q 350 4444 38 4431 
Q 56 4600 38 4769 
Q 350 4756 663 4756 
L 2313 4756 
L 1913 2144 
L 2375 2144 
L 2200 -200 
Q 2188 -425 1988 -588 
Q 1694 -800 1181 -788 
L 944 -788 
Q 1000 -450 788 -269 
Q 1013 -294 1334 -287 
Q 1656 -281 1715 -243 
Q 1775 -206 1781 -50 
L 1925 1831 
L 294 1831 
L 444 3131 
Q 500 3569 525 4000 
z
" transform="scale(0.015625)"/>
      </defs>
      <use xlink:href="#WenQuanYiZenHei-6821"/>
      <use xlink:href="#WenQuanYiZenHei-9a8c" x="100"/>
      <use xlink:href="#WenQuanYiZenHei-503c" x="200"/>
     </g>
    </g>
    <g id="line2d_24">
     <path d="M 1304.390625 77.895375 
L 1314.390625 77.895375 
L 1324.390625 77.895375 
" style="fill: none; stroke: #ff0000; stroke-width: 1.5; stroke-linecap: square"/>
    </g>
    <g id="text_22">
     <!-- 预测值 -->
     <g transform="translate(1332.390625 81.395375)scale(0.1 -0.1)">
      <use xlink:href="#WenQuanYiZenHei-9884"/>
      <use xlink:href="#WenQuanYiZenHei-6d4b" x="100"/>
      <use xlink:href="#WenQuanYiZenHei-503c" x="200"/>
     </g>
    </g>
   </g>
  </g>
 </g>
 <defs>
  <clipPath id="pc71fabdb87">
   <rect x="32.190625" y="35.061" width="1339.2" height="332.64"/>
  </clipPath>
 </defs>
</svg>
