<?xml version="1.0" encoding="utf-8" standalone="no"?>
<!DOCTYPE svg PUBLIC "-//W3C//DTD SVG 1.1//EN"
  "http://www.w3.org/Graphics/SVG/1.1/DTD/svg11.dtd">
<svg xmlns:xlink="http://www.w3.org/1999/xlink" width="1372.59375pt" height="390.418188pt" viewBox="0 0 1372.59375 390.418188" xmlns="http://www.w3.org/2000/svg" version="1.1">
 <metadata>
  <rdf:RDF xmlns:dc="http://purl.org/dc/elements/1.1/" xmlns:cc="http://creativecommons.org/ns#" xmlns:rdf="http://www.w3.org/1999/02/22-rdf-syntax-ns#">
   <cc:Work>
    <dc:type rdf:resource="http://purl.org/dc/dcmitype/StillImage"/>
    <dc:date>2022-07-24T18:18:54.228719</dc:date>
    <dc:format>image/svg+xml</dc:format>
    <dc:creator>
     <cc:Agent>
      <dc:title>Matplotlib v3.5.2, https://matplotlib.org/</dc:title>
     </cc:Agent>
    </dc:creator>
   </cc:Work>
  </rdf:RDF>
 </metadata>
 <defs>
  <style type="text/css">*{stroke-linejoin: round; stroke-linecap: butt}</style>
 </defs>
 <g id="figure_1">
  <g id="patch_1">
   <path d="M 0 390.418188 
L 1372.59375 390.418188 
L 1372.59375 -0 
L 0 -0 
z
" style="fill: #ffffff"/>
  </g>
  <g id="axes_1">
   <g id="patch_2">
    <path d="M 26.19375 367.701 
L 1365.39375 367.701 
L 1365.39375 35.061 
L 26.19375 35.061 
z
" style="fill: #ffffff"/>
   </g>
   <g id="matplotlib.axis_1">
    <g id="xtick_1">
     <g id="line2d_1">
      <defs>
       <path id="m35f324f6a5" d="M 0 0 
L 0 3.5 
" style="stroke: #000000; stroke-width: 0.8"/>
      </defs>
      <g>
       <use xlink:href="#m35f324f6a5" x="58.110802" y="367.701" style="stroke: #000000; stroke-width: 0.8"/>
      </g>
     </g>
     <g id="text_1">
      <!-- 2020-01 -->
      <g transform="translate(38.620958 381.55725)scale(0.1 -0.1)">
       <defs>
        <path id="WenQuanYiZenHei-32" d="M 3488 0 
L 369 0 
L 369 456 
L 2150 1850 
Q 2931 2463 2931 3144 
Q 2931 3619 2488 3863 
Q 2231 4013 1931 4013 
Q 1425 4013 1113 3619 
Q 894 3356 881 3013 
L 369 3169 
Q 531 3981 1213 4300 
Q 1544 4456 1950 4456 
Q 2631 4456 3088 4044 
L 3225 3888 
L 3350 3706 
Q 3481 3444 3481 3144 
Q 3481 2313 2519 1569 
L 1069 456 
L 3488 456 
L 3488 0 
z
" transform="scale(0.015625)"/>
        <path id="WenQuanYiZenHei-30" d="M 3581 2175 
Q 3581 1288 3169 638 
Q 2713 -63 1938 -63 
Q 1025 -63 563 831 
Q 256 1425 256 2188 
Q 256 3188 700 3819 
Q 1138 4456 1888 4456 
Q 2863 4456 3306 3500 
Q 3581 2925 3581 2175 
z
M 3019 2100 
Q 3019 3356 2500 3806 
L 2350 3919 
Q 2144 4031 1888 4031 
Q 1100 4031 888 2956 
Q 819 2625 819 2225 
Q 819 1013 1338 569 
Q 1588 356 1938 356 
Q 2675 356 2925 1294 
Q 3019 1663 3019 2100 
z
" transform="scale(0.015625)"/>
        <path id="WenQuanYiZenHei-2d" d="M 1363 1444 
L 0 1444 
L 0 1844 
L 1363 1844 
L 1363 1444 
z
" transform="scale(0.015625)"/>
        <path id="WenQuanYiZenHei-31" d="M 3556 0 
L 488 0 
L 488 406 
L 1800 406 
L 1800 3725 
Q 1231 3125 588 2788 
L 588 3338 
Q 1456 3781 1931 4388 
L 2331 4388 
L 2331 406 
L 3556 406 
L 3556 0 
z
" transform="scale(0.015625)"/>
       </defs>
       <use xlink:href="#WenQuanYiZenHei-32"/>
       <use xlink:href="#WenQuanYiZenHei-30" x="59.960938"/>
       <use xlink:href="#WenQuanYiZenHei-32" x="119.921875"/>
       <use xlink:href="#WenQuanYiZenHei-30" x="179.882812"/>
       <use xlink:href="#WenQuanYiZenHei-2d" x="239.84375"/>
       <use xlink:href="#WenQuanYiZenHei-30" x="269.824219"/>
       <use xlink:href="#WenQuanYiZenHei-31" x="329.785156"/>
      </g>
     </g>
    </g>
    <g id="xtick_2">
     <g id="line2d_2">
      <g>
       <use xlink:href="#m35f324f6a5" x="177.882006" y="367.701" style="stroke: #000000; stroke-width: 0.8"/>
      </g>
     </g>
     <g id="text_2">
      <!-- 2020-04 -->
      <g transform="translate(158.392162 381.55725)scale(0.1 -0.1)">
       <defs>
        <path id="WenQuanYiZenHei-34" d="M 3631 1025 
L 2913 1025 
L 2913 0 
L 2381 0 
L 2381 1025 
L 219 1025 
L 219 1388 
L 2225 4388 
L 2913 4388 
L 2913 1444 
L 3631 1444 
L 3631 1025 
z
M 2381 1444 
L 2381 3963 
L 788 1444 
L 2381 1444 
z
" transform="scale(0.015625)"/>
       </defs>
       <use xlink:href="#WenQuanYiZenHei-32"/>
       <use xlink:href="#WenQuanYiZenHei-30" x="59.960938"/>
       <use xlink:href="#WenQuanYiZenHei-32" x="119.921875"/>
       <use xlink:href="#WenQuanYiZenHei-30" x="179.882812"/>
       <use xlink:href="#WenQuanYiZenHei-2d" x="239.84375"/>
       <use xlink:href="#WenQuanYiZenHei-30" x="269.824219"/>
       <use xlink:href="#WenQuanYiZenHei-34" x="329.785156"/>
      </g>
     </g>
    </g>
    <g id="xtick_3">
     <g id="line2d_3">
      <g>
       <use xlink:href="#m35f324f6a5" x="297.653209" y="367.701" style="stroke: #000000; stroke-width: 0.8"/>
      </g>
     </g>
     <g id="text_3">
      <!-- 2020-07 -->
      <g transform="translate(278.163366 381.55725)scale(0.1 -0.1)">
       <defs>
        <path id="WenQuanYiZenHei-37" d="M 3400 4056 
Q 1838 2175 1838 0 
L 1275 0 
Q 1269 1438 2056 2825 
Q 2381 3400 2825 3913 
L 444 3913 
L 500 4388 
L 3400 4388 
L 3400 4056 
z
" transform="scale(0.015625)"/>
       </defs>
       <use xlink:href="#WenQuanYiZenHei-32"/>
       <use xlink:href="#WenQuanYiZenHei-30" x="59.960938"/>
       <use xlink:href="#WenQuanYiZenHei-32" x="119.921875"/>
       <use xlink:href="#WenQuanYiZenHei-30" x="179.882812"/>
       <use xlink:href="#WenQuanYiZenHei-2d" x="239.84375"/>
       <use xlink:href="#WenQuanYiZenHei-30" x="269.824219"/>
       <use xlink:href="#WenQuanYiZenHei-37" x="329.785156"/>
      </g>
     </g>
    </g>
    <g id="xtick_4">
     <g id="line2d_4">
      <g>
       <use xlink:href="#m35f324f6a5" x="418.74058" y="367.701" style="stroke: #000000; stroke-width: 0.8"/>
      </g>
     </g>
     <g id="text_4">
      <!-- 2020-10 -->
      <g transform="translate(399.250737 381.55725)scale(0.1 -0.1)">
       <use xlink:href="#WenQuanYiZenHei-32"/>
       <use xlink:href="#WenQuanYiZenHei-30" x="59.960938"/>
       <use xlink:href="#WenQuanYiZenHei-32" x="119.921875"/>
       <use xlink:href="#WenQuanYiZenHei-30" x="179.882812"/>
       <use xlink:href="#WenQuanYiZenHei-2d" x="239.84375"/>
       <use xlink:href="#WenQuanYiZenHei-31" x="269.824219"/>
       <use xlink:href="#WenQuanYiZenHei-30" x="329.785156"/>
      </g>
     </g>
    </g>
    <g id="xtick_5">
     <g id="line2d_5">
      <g>
       <use xlink:href="#m35f324f6a5" x="539.827951" y="367.701" style="stroke: #000000; stroke-width: 0.8"/>
      </g>
     </g>
     <g id="text_5">
      <!-- 2021-01 -->
      <g transform="translate(520.338108 381.55725)scale(0.1 -0.1)">
       <use xlink:href="#WenQuanYiZenHei-32"/>
       <use xlink:href="#WenQuanYiZenHei-30" x="59.960938"/>
       <use xlink:href="#WenQuanYiZenHei-32" x="119.921875"/>
       <use xlink:href="#WenQuanYiZenHei-31" x="179.882812"/>
       <use xlink:href="#WenQuanYiZenHei-2d" x="239.84375"/>
       <use xlink:href="#WenQuanYiZenHei-30" x="269.824219"/>
       <use xlink:href="#WenQuanYiZenHei-31" x="329.785156"/>
      </g>
     </g>
    </g>
    <g id="xtick_6">
     <g id="line2d_6">
      <g>
       <use xlink:href="#m35f324f6a5" x="658.282988" y="367.701" style="stroke: #000000; stroke-width: 0.8"/>
      </g>
     </g>
     <g id="text_6">
      <!-- 2021-04 -->
      <g transform="translate(638.793145 381.55725)scale(0.1 -0.1)">
       <use xlink:href="#WenQuanYiZenHei-32"/>
       <use xlink:href="#WenQuanYiZenHei-30" x="59.960938"/>
       <use xlink:href="#WenQuanYiZenHei-32" x="119.921875"/>
       <use xlink:href="#WenQuanYiZenHei-31" x="179.882812"/>
       <use xlink:href="#WenQuanYiZenHei-2d" x="239.84375"/>
       <use xlink:href="#WenQuanYiZenHei-30" x="269.824219"/>
       <use xlink:href="#WenQuanYiZenHei-34" x="329.785156"/>
      </g>
     </g>
    </g>
    <g id="xtick_7">
     <g id="line2d_7">
      <g>
       <use xlink:href="#m35f324f6a5" x="778.054192" y="367.701" style="stroke: #000000; stroke-width: 0.8"/>
      </g>
     </g>
     <g id="text_7">
      <!-- 2021-07 -->
      <g transform="translate(758.564349 381.55725)scale(0.1 -0.1)">
       <use xlink:href="#WenQuanYiZenHei-32"/>
       <use xlink:href="#WenQuanYiZenHei-30" x="59.960938"/>
       <use xlink:href="#WenQuanYiZenHei-32" x="119.921875"/>
       <use xlink:href="#WenQuanYiZenHei-31" x="179.882812"/>
       <use xlink:href="#WenQuanYiZenHei-2d" x="239.84375"/>
       <use xlink:href="#WenQuanYiZenHei-30" x="269.824219"/>
       <use xlink:href="#WenQuanYiZenHei-37" x="329.785156"/>
      </g>
     </g>
    </g>
    <g id="xtick_8">
     <g id="line2d_8">
      <g>
       <use xlink:href="#m35f324f6a5" x="899.141563" y="367.701" style="stroke: #000000; stroke-width: 0.8"/>
      </g>
     </g>
     <g id="text_8">
      <!-- 2021-10 -->
      <g transform="translate(879.65172 381.55725)scale(0.1 -0.1)">
       <use xlink:href="#WenQuanYiZenHei-32"/>
       <use xlink:href="#WenQuanYiZenHei-30" x="59.960938"/>
       <use xlink:href="#WenQuanYiZenHei-32" x="119.921875"/>
       <use xlink:href="#WenQuanYiZenHei-31" x="179.882812"/>
       <use xlink:href="#WenQuanYiZenHei-2d" x="239.84375"/>
       <use xlink:href="#WenQuanYiZenHei-31" x="269.824219"/>
       <use xlink:href="#WenQuanYiZenHei-30" x="329.785156"/>
      </g>
     </g>
    </g>
    <g id="xtick_9">
     <g id="line2d_9">
      <g>
       <use xlink:href="#m35f324f6a5" x="1020.228934" y="367.701" style="stroke: #000000; stroke-width: 0.8"/>
      </g>
     </g>
     <g id="text_9">
      <!-- 2022-01 -->
      <g transform="translate(1000.739091 381.55725)scale(0.1 -0.1)">
       <use xlink:href="#WenQuanYiZenHei-32"/>
       <use xlink:href="#WenQuanYiZenHei-30" x="59.960938"/>
       <use xlink:href="#WenQuanYiZenHei-32" x="119.921875"/>
       <use xlink:href="#WenQuanYiZenHei-32" x="179.882812"/>
       <use xlink:href="#WenQuanYiZenHei-2d" x="239.84375"/>
       <use xlink:href="#WenQuanYiZenHei-30" x="269.824219"/>
       <use xlink:href="#WenQuanYiZenHei-31" x="329.785156"/>
      </g>
     </g>
    </g>
    <g id="xtick_10">
     <g id="line2d_10">
      <g>
       <use xlink:href="#m35f324f6a5" x="1138.683971" y="367.701" style="stroke: #000000; stroke-width: 0.8"/>
      </g>
     </g>
     <g id="text_10">
      <!-- 2022-04 -->
      <g transform="translate(1119.194127 381.55725)scale(0.1 -0.1)">
       <use xlink:href="#WenQuanYiZenHei-32"/>
       <use xlink:href="#WenQuanYiZenHei-30" x="59.960938"/>
       <use xlink:href="#WenQuanYiZenHei-32" x="119.921875"/>
       <use xlink:href="#WenQuanYiZenHei-32" x="179.882812"/>
       <use xlink:href="#WenQuanYiZenHei-2d" x="239.84375"/>
       <use xlink:href="#WenQuanYiZenHei-30" x="269.824219"/>
       <use xlink:href="#WenQuanYiZenHei-34" x="329.785156"/>
      </g>
     </g>
    </g>
    <g id="xtick_11">
     <g id="line2d_11">
      <g>
       <use xlink:href="#m35f324f6a5" x="1258.455175" y="367.701" style="stroke: #000000; stroke-width: 0.8"/>
      </g>
     </g>
     <g id="text_11">
      <!-- 2022-07 -->
      <g transform="translate(1238.965331 381.55725)scale(0.1 -0.1)">
       <use xlink:href="#WenQuanYiZenHei-32"/>
       <use xlink:href="#WenQuanYiZenHei-30" x="59.960938"/>
       <use xlink:href="#WenQuanYiZenHei-32" x="119.921875"/>
       <use xlink:href="#WenQuanYiZenHei-32" x="179.882812"/>
       <use xlink:href="#WenQuanYiZenHei-2d" x="239.84375"/>
       <use xlink:href="#WenQuanYiZenHei-30" x="269.824219"/>
       <use xlink:href="#WenQuanYiZenHei-37" x="329.785156"/>
      </g>
     </g>
    </g>
   </g>
   <g id="matplotlib.axis_2">
    <g id="ytick_1">
     <g id="line2d_12">
      <defs>
       <path id="m607dabe8a1" d="M 0 0 
L -3.5 0 
" style="stroke: #000000; stroke-width: 0.8"/>
      </defs>
      <g>
       <use xlink:href="#m607dabe8a1" x="26.19375" y="350.279302" style="stroke: #000000; stroke-width: 0.8"/>
      </g>
     </g>
     <g id="text_12">
      <!-- 0 -->
      <g transform="translate(13.196875 353.707427)scale(0.1 -0.1)">
       <use xlink:href="#WenQuanYiZenHei-30"/>
      </g>
     </g>
    </g>
    <g id="ytick_2">
     <g id="line2d_13">
      <g>
       <use xlink:href="#m607dabe8a1" x="26.19375" y="284.323631" style="stroke: #000000; stroke-width: 0.8"/>
      </g>
     </g>
     <g id="text_13">
      <!-- 20 -->
      <g transform="translate(7.2 287.751756)scale(0.1 -0.1)">
       <use xlink:href="#WenQuanYiZenHei-32"/>
       <use xlink:href="#WenQuanYiZenHei-30" x="59.960938"/>
      </g>
     </g>
    </g>
    <g id="ytick_3">
     <g id="line2d_14">
      <g>
       <use xlink:href="#m607dabe8a1" x="26.19375" y="218.36796" style="stroke: #000000; stroke-width: 0.8"/>
      </g>
     </g>
     <g id="text_14">
      <!-- 40 -->
      <g transform="translate(7.2 221.796085)scale(0.1 -0.1)">
       <use xlink:href="#WenQuanYiZenHei-34"/>
       <use xlink:href="#WenQuanYiZenHei-30" x="59.960938"/>
      </g>
     </g>
    </g>
    <g id="ytick_4">
     <g id="line2d_15">
      <g>
       <use xlink:href="#m607dabe8a1" x="26.19375" y="152.41229" style="stroke: #000000; stroke-width: 0.8"/>
      </g>
     </g>
     <g id="text_15">
      <!-- 60 -->
      <g transform="translate(7.2 155.840415)scale(0.1 -0.1)">
       <defs>
        <path id="WenQuanYiZenHei-36" d="M 3550 1431 
Q 3550 725 3006 288 
Q 2581 -63 1994 -63 
Q 1013 -63 563 825 
Q 288 1363 288 2081 
Q 288 3294 856 3938 
Q 1319 4456 2075 4456 
Q 2969 4456 3363 3756 
Q 3431 3631 3481 3481 
L 2988 3350 
Q 2750 3994 2075 4006 
Q 1056 4006 844 2669 
Q 794 2356 794 1981 
L 806 1981 
Q 1006 2506 1544 2744 
Q 1819 2869 2119 2869 
Q 2788 2869 3213 2375 
Q 3550 1975 3550 1431 
z
M 3038 1406 
Q 3038 1906 2656 2213 
Q 2381 2431 2038 2431 
Q 1525 2431 1181 2044 
Q 919 1744 919 1356 
Q 919 881 1344 581 
Q 1631 375 1981 375 
Q 2519 375 2838 781 
Q 3038 1050 3038 1406 
z
" transform="scale(0.015625)"/>
       </defs>
       <use xlink:href="#WenQuanYiZenHei-36"/>
       <use xlink:href="#WenQuanYiZenHei-30" x="59.960938"/>
      </g>
     </g>
    </g>
    <g id="ytick_5">
     <g id="line2d_16">
      <g>
       <use xlink:href="#m607dabe8a1" x="26.19375" y="86.456619" style="stroke: #000000; stroke-width: 0.8"/>
      </g>
     </g>
     <g id="text_16">
      <!-- 80 -->
      <g transform="translate(7.2 89.884744)scale(0.1 -0.1)">
       <defs>
        <path id="WenQuanYiZenHei-38" d="M 3619 1175 
Q 3619 431 2850 100 
Q 2444 -63 1944 -63 
Q 1231 -63 725 269 
Q 225 594 225 1125 
Q 225 1881 1269 2281 
Q 719 2481 519 2938 
Q 444 3119 444 3319 
Q 444 4000 1144 4294 
Q 1519 4456 1963 4456 
Q 2669 4456 3094 4094 
Q 3425 3813 3425 3369 
Q 3425 2638 2575 2356 
Q 3231 2056 3450 1725 
Q 3619 1488 3619 1175 
z
M 2944 3344 
Q 2944 3906 2288 4019 
Q 2138 4044 1969 4044 
Q 1438 4044 1163 3775 
Q 1000 3613 1000 3375 
Q 1000 2925 1594 2663 
Q 1756 2588 1931 2550 
Q 2581 2725 2788 2956 
Q 2944 3125 2944 3344 
z
M 3075 1094 
Q 3075 1738 1875 2050 
Q 1094 1881 850 1463 
Q 763 1313 763 1131 
Q 763 569 1456 406 
Q 1681 344 1944 344 
Q 2519 344 2850 619 
Q 3075 813 3075 1094 
z
" transform="scale(0.015625)"/>
       </defs>
       <use xlink:href="#WenQuanYiZenHei-38"/>
       <use xlink:href="#WenQuanYiZenHei-30" x="59.960938"/>
      </g>
     </g>
    </g>
   </g>
   <g id="line2d_17">
    <path d="M 87.066477 350.279302 
L 88.382644 346.981518 
L 89.698811 330.492601 
L 91.014979 350.279302 
L 92.331146 337.088168 
L 93.647313 337.088168 
L 94.96348 346.981518 
L 96.279647 340.385951 
L 97.595814 346.981518 
L 98.911981 340.385951 
L 100.228148 337.088168 
L 101.544315 327.194817 
L 102.860482 346.981518 
L 104.176649 327.194817 
L 105.492816 337.088168 
L 106.808983 337.088168 
L 108.12515 343.683735 
L 109.441318 343.683735 
L 110.757485 337.088168 
L 112.073652 350.279302 
L 113.389819 343.683735 
L 114.705986 346.981518 
L 116.022153 337.088168 
L 118.654487 343.683735 
L 119.970654 343.683735 
L 121.286821 346.981518 
L 122.602988 343.683735 
L 123.919155 350.279302 
L 167.352669 350.279302 
L 168.668836 343.683735 
L 169.985003 310.705899 
L 171.30117 340.385951 
L 173.933504 346.981518 
L 175.249671 343.683735 
L 176.565838 317.301466 
L 177.882006 337.088168 
L 179.198173 330.492601 
L 180.51434 350.279302 
L 183.146674 350.279302 
L 184.462841 346.981518 
L 185.779008 340.385951 
L 187.095175 340.385951 
L 188.411342 343.683735 
L 189.727509 343.683735 
L 191.043676 261.239146 
L 192.359843 238.154662 
L 193.67601 346.981518 
L 194.992178 350.279302 
L 196.308345 350.279302 
L 197.624512 340.385951 
L 198.940679 350.279302 
L 201.573013 350.279302 
L 202.88918 346.981518 
L 204.205347 350.279302 
L 206.837681 350.279302 
L 208.153848 340.385951 
L 209.470015 346.981518 
L 210.786182 350.279302 
L 212.10235 346.981518 
L 213.418517 350.279302 
L 214.734684 346.981518 
L 216.050851 346.981518 
L 217.367018 350.279302 
L 227.896354 350.279302 
L 229.212521 327.194817 
L 230.528689 346.981518 
L 231.844856 350.279302 
L 237.109524 350.279302 
L 238.425691 337.088168 
L 239.741858 340.385951 
L 241.058025 350.279302 
L 243.690359 350.279302 
L 245.006526 346.981518 
L 246.322693 350.279302 
L 247.638861 317.301466 
L 250.271195 350.279302 
L 255.535863 350.279302 
L 256.85203 340.385951 
L 258.168197 350.279302 
L 267.381367 350.279302 
L 268.697534 343.683735 
L 270.013701 350.279302 
L 275.278369 350.279302 
L 276.594536 346.981518 
L 277.910703 350.279302 
L 301.601711 350.279302 
L 302.917878 346.981518 
L 304.234045 346.981518 
L 305.550212 337.088168 
L 306.866379 350.279302 
L 309.498713 350.279302 
L 310.81488 346.981518 
L 312.131047 337.088168 
L 313.447214 350.279302 
L 323.976551 350.279302 
L 325.292718 346.981518 
L 326.608885 350.279302 
L 327.925052 346.981518 
L 329.241219 333.790384 
L 330.557386 343.683735 
L 331.873553 350.279302 
L 350.299893 350.279302 
L 351.61606 346.981518 
L 352.932227 350.279302 
L 354.248394 350.279302 
L 355.564561 346.981518 
L 356.880728 350.279302 
L 376.623234 350.279302 
L 377.939401 346.981518 
L 379.255568 350.279302 
L 402.946576 350.279302 
L 404.262743 343.683735 
L 405.57891 350.279302 
L 412.159745 350.279302 
L 413.475912 340.385951 
L 414.792079 350.279302 
L 421.372915 350.279302 
L 422.689082 343.683735 
L 424.005249 350.279302 
L 430.586084 350.279302 
L 431.902251 346.981518 
L 433.218418 346.981518 
L 434.534585 350.279302 
L 435.850752 350.279302 
L 437.16692 333.790384 
L 438.483087 350.279302 
L 449.012423 350.279302 
L 450.32859 343.683735 
L 451.644757 346.981518 
L 452.960924 346.981518 
L 454.277092 323.897034 
L 455.593259 350.279302 
L 456.909426 346.981518 
L 458.225593 340.385951 
L 459.54176 350.279302 
L 460.857927 337.088168 
L 462.174094 343.683735 
L 463.490261 346.981518 
L 466.122595 340.385951 
L 467.438762 350.279302 
L 468.754929 343.683735 
L 470.071096 350.279302 
L 471.387264 350.279302 
L 472.703431 346.981518 
L 474.019598 346.981518 
L 475.335765 350.279302 
L 480.600433 350.279302 
L 481.9166 346.981518 
L 483.232767 350.279302 
L 484.548934 350.279302 
L 485.865101 343.683735 
L 487.181268 350.279302 
L 488.497436 346.981518 
L 489.813603 350.279302 
L 491.12977 320.59925 
L 492.445937 350.279302 
L 495.078271 350.279302 
L 496.394438 340.385951 
L 497.710605 337.088168 
L 499.026772 343.683735 
L 500.342939 346.981518 
L 501.659106 340.385951 
L 502.975273 350.279302 
L 504.29144 350.279302 
L 505.607607 340.385951 
L 506.923775 350.279302 
L 508.239942 350.279302 
L 509.556109 346.981518 
L 510.872276 350.279302 
L 513.50461 350.279302 
L 514.820777 346.981518 
L 516.136944 337.088168 
L 517.453111 350.279302 
L 521.401612 350.279302 
L 522.717779 343.683735 
L 524.033947 330.492601 
L 525.350114 343.683735 
L 526.666281 350.279302 
L 531.930949 350.279302 
L 533.247116 330.492601 
L 534.563283 346.981518 
L 537.195617 340.385951 
L 538.511784 350.279302 
L 539.827951 350.279302 
L 541.144119 346.981518 
L 542.460286 346.981518 
L 543.776453 350.279302 
L 595.106969 350.279302 
L 596.423136 346.981518 
L 597.739303 350.279302 
L 624.062644 350.279302 
L 625.378811 346.981518 
L 626.694979 350.279302 
L 631.959647 350.279302 
L 633.275814 346.981518 
L 634.591981 350.279302 
L 641.172816 350.279302 
L 642.488983 346.981518 
L 643.80515 350.279302 
L 645.121318 350.279302 
L 646.437485 346.981518 
L 647.753652 350.279302 
L 650.385986 350.279302 
L 651.702153 340.385951 
L 653.01832 350.279302 
L 655.650654 350.279302 
L 656.966821 346.981518 
L 658.282988 350.279302 
L 660.915322 350.279302 
L 662.23149 346.981518 
L 663.547657 350.279302 
L 664.863824 350.279302 
L 666.179991 346.981518 
L 667.496158 350.279302 
L 676.709327 350.279302 
L 678.025494 346.981518 
L 679.341662 346.981518 
L 680.657829 350.279302 
L 689.870998 350.279302 
L 691.187165 346.981518 
L 692.503332 350.279302 
L 697.768001 350.279302 
L 699.084168 346.981518 
L 700.400335 350.279302 
L 701.716502 346.981518 
L 703.032669 350.279302 
L 710.929671 350.279302 
L 712.245838 346.981518 
L 713.562006 350.279302 
L 714.878173 350.279302 
L 716.19434 346.981518 
L 717.510507 350.279302 
L 725.407509 350.279302 
L 726.723676 346.981518 
L 728.039843 350.279302 
L 729.35601 350.279302 
L 730.672178 346.981518 
L 731.988345 350.279302 
L 733.304512 350.279302 
L 734.620679 346.981518 
L 735.936846 350.279302 
L 739.885347 350.279302 
L 741.201514 346.981518 
L 742.517681 350.279302 
L 745.150015 350.279302 
L 746.466182 343.683735 
L 747.78235 350.279302 
L 753.047018 350.279302 
L 754.363185 340.385951 
L 755.679352 350.279302 
L 763.576354 350.279302 
L 764.892521 346.981518 
L 766.208689 350.279302 
L 789.899696 350.279302 
L 791.215863 340.385951 
L 792.53203 350.279302 
L 797.796698 350.279302 
L 799.112865 346.981518 
L 800.429033 346.981518 
L 801.7452 350.279302 
L 807.009868 350.279302 
L 808.326035 343.683735 
L 809.642202 343.683735 
L 810.958369 350.279302 
L 816.223037 350.279302 
L 817.539205 343.683735 
L 818.855372 340.385951 
L 820.171539 350.279302 
L 822.803873 350.279302 
L 824.12004 346.981518 
L 825.436207 350.279302 
L 826.752374 350.279302 
L 828.068541 346.981518 
L 829.384708 350.279302 
L 839.914045 350.279302 
L 841.230212 346.981518 
L 842.546379 350.279302 
L 843.862546 346.981518 
L 845.178713 350.279302 
L 862.288885 350.279302 
L 863.605052 343.683735 
L 864.921219 350.279302 
L 871.502055 350.279302 
L 872.818222 343.683735 
L 874.134389 350.279302 
L 889.928394 350.279302 
L 891.244561 343.683735 
L 892.560728 350.279302 
L 896.509229 350.279302 
L 897.825396 346.981518 
L 899.141563 350.279302 
L 900.45773 350.279302 
L 901.773897 346.981518 
L 903.090064 350.279302 
L 909.6709 350.279302 
L 910.987067 346.981518 
L 912.303234 350.279302 
L 913.619401 350.279302 
L 914.935568 346.981518 
L 916.251735 350.279302 
L 917.567902 350.279302 
L 918.884069 346.981518 
L 920.200236 350.279302 
L 921.516404 343.683735 
L 922.832571 323.897034 
L 924.148738 343.683735 
L 925.464905 297.514765 
L 926.781072 330.492601 
L 928.097239 327.194817 
L 929.413406 287.621415 
L 930.729573 297.514765 
L 932.04574 244.750229 
L 933.361907 327.194817 
L 934.678074 284.323631 
L 935.994241 281.025848 
L 937.310408 310.705899 
L 939.942743 343.683735 
L 941.25891 330.492601 
L 942.575077 343.683735 
L 943.891244 343.683735 
L 946.523578 350.279302 
L 947.839745 343.683735 
L 949.155912 350.279302 
L 951.788246 350.279302 
L 953.104413 346.981518 
L 954.42058 337.088168 
L 955.736748 350.279302 
L 974.163087 350.279302 
L 975.479254 284.323631 
L 976.795421 281.025848 
L 978.111588 50.181 
L 979.427755 175.496774 
L 980.743922 165.603424 
L 982.060089 149.114506 
L 983.376256 251.345796 
L 984.692423 257.941363 
L 986.00859 168.901207 
L 987.324757 238.154662 
L 988.640924 211.772393 
L 989.957092 271.132497 
L 991.273259 300.812549 
L 993.905593 333.790384 
L 995.22176 333.790384 
L 996.537927 340.385951 
L 997.854094 343.683735 
L 999.170261 337.088168 
L 1000.486428 346.981518 
L 1001.802595 350.279302 
L 1003.118762 327.194817 
L 1004.434929 350.279302 
L 1007.067264 350.279302 
L 1008.383431 346.981518 
L 1009.699598 350.279302 
L 1021.545101 350.279302 
L 1022.861268 333.790384 
L 1024.177436 350.279302 
L 1078.140286 350.279302 
L 1079.456453 327.194817 
L 1080.77262 340.385951 
L 1082.088787 277.728064 
L 1083.404954 198.581259 
L 1084.721121 135.923372 
L 1086.037288 244.750229 
L 1087.353455 284.323631 
L 1088.669622 195.283476 
L 1089.985789 218.36796 
L 1091.301956 251.345796 
L 1092.618123 244.750229 
L 1093.934291 224.963527 
L 1095.250458 314.003683 
L 1096.566625 304.110332 
L 1097.882792 297.514765 
L 1099.198959 327.194817 
L 1100.515126 320.59925 
L 1101.831293 323.897034 
L 1103.14746 320.59925 
L 1104.463627 327.194817 
L 1105.779794 343.683735 
L 1107.095961 340.385951 
L 1108.412128 340.385951 
L 1111.044463 346.981518 
L 1112.36063 346.981518 
L 1113.676797 350.279302 
L 1117.625298 350.279302 
L 1118.941465 327.194817 
L 1120.257632 350.279302 
L 1121.573799 350.279302 
L 1122.889966 343.683735 
L 1124.206133 343.683735 
L 1125.5223 350.279302 
L 1128.154635 350.279302 
L 1129.470802 337.088168 
L 1130.786969 350.279302 
L 1133.419303 350.279302 
L 1134.73547 346.981518 
L 1136.051637 346.981518 
L 1137.367804 350.279302 
L 1141.316305 350.279302 
L 1142.632472 346.981518 
L 1143.948639 350.279302 
L 1146.580974 343.683735 
L 1147.897141 350.279302 
L 1150.529475 350.279302 
L 1151.845642 346.981518 
L 1153.161809 350.279302 
L 1154.477976 350.279302 
L 1155.794143 343.683735 
L 1158.426477 350.279302 
L 1159.742644 346.981518 
L 1161.058811 346.981518 
L 1162.374979 350.279302 
L 1163.691146 346.981518 
L 1165.007313 350.279302 
L 1166.32348 330.492601 
L 1167.639647 330.492601 
L 1168.955814 317.301466 
L 1170.271981 327.194817 
L 1171.588148 327.194817 
L 1172.904315 320.59925 
L 1174.220482 340.385951 
L 1175.536649 330.492601 
L 1176.852816 343.683735 
L 1178.168983 346.981518 
L 1179.48515 346.981518 
L 1180.801318 350.279302 
L 1184.749819 350.279302 
L 1186.065986 346.981518 
L 1187.382153 350.279302 
L 1218.970163 350.279302 
L 1220.28633 340.385951 
L 1221.602497 314.003683 
L 1222.918664 350.279302 
L 1224.234831 261.239146 
L 1225.550998 284.323631 
L 1226.867165 234.856878 
L 1228.183332 228.261311 
L 1229.499499 300.812549 
L 1230.815666 287.621415 
L 1232.131834 93.052186 
L 1233.448001 261.239146 
L 1234.764168 300.812549 
L 1237.396502 307.408116 
L 1238.712669 330.492601 
L 1240.028836 333.790384 
L 1241.345003 346.981518 
L 1242.66117 350.279302 
L 1243.977337 350.279302 
L 1245.293504 343.683735 
L 1246.609671 346.981518 
L 1247.925838 300.812549 
L 1249.242006 350.279302 
L 1257.139008 350.279302 
L 1259.771342 343.683735 
L 1262.403676 343.683735 
L 1263.719843 350.279302 
L 1265.03601 337.088168 
L 1266.352178 337.088168 
L 1267.668345 310.705899 
L 1268.984512 320.59925 
L 1270.300679 340.385951 
L 1271.616846 343.683735 
L 1272.933013 330.492601 
L 1274.24918 346.981518 
L 1275.565347 337.088168 
L 1276.881514 340.385951 
L 1278.197681 350.279302 
L 1279.513848 340.385951 
L 1280.830015 343.683735 
L 1282.146182 350.279302 
L 1283.46235 330.492601 
L 1284.778517 343.683735 
L 1287.410851 350.279302 
L 1287.410851 350.279302 
" clip-path="url(#pb4816307ff)" style="fill: none; stroke: #0000ff; stroke-width: 1.5; stroke-linecap: square"/>
   </g>
   <g id="line2d_18">
    <path d="M 1047.868443 350.278936 
L 1078.140286 350.279301 
L 1079.456453 336.686783 
L 1080.77262 338.864913 
L 1082.088787 302.866545 
L 1084.721121 179.319011 
L 1087.353455 258.282987 
L 1088.669622 220.448487 
L 1089.985789 222.735427 
L 1091.301956 244.017871 
L 1092.618123 247.961083 
L 1093.934291 228.319981 
L 1095.250458 276.553837 
L 1096.566625 297.842791 
L 1097.882792 296.314312 
L 1099.198959 312.845687 
L 1101.831293 322.790272 
L 1103.14746 316.16755 
L 1104.463627 323.090783 
L 1105.779794 335.869726 
L 1107.095961 336.790534 
L 1109.728295 341.683615 
L 1111.044463 345.061144 
L 1112.36063 345.523314 
L 1114.992964 349.326562 
L 1116.309131 349.790112 
L 1117.625298 349.908846 
L 1118.941465 336.341198 
L 1120.257632 344.562643 
L 1121.573799 347.706389 
L 1122.889966 345.287334 
L 1124.206133 344.355522 
L 1125.5223 347.838078 
L 1126.838467 350.559911 
L 1128.154635 349.089961 
L 1129.470802 342.023921 
L 1130.786969 347.242045 
L 1132.103136 349.027603 
L 1133.419303 349.395637 
L 1134.73547 347.973858 
L 1136.051637 347.461543 
L 1137.367804 349.786921 
L 1138.683971 349.337522 
L 1140.000138 349.91208 
L 1141.316305 350.128148 
L 1142.632472 348.439521 
L 1143.948639 349.522797 
L 1145.264807 347.845644 
L 1146.580974 345.432387 
L 1147.897141 348.24489 
L 1149.213308 349.443907 
L 1150.529475 350.120634 
L 1151.845642 348.096631 
L 1153.161809 349.566664 
L 1154.477976 350.160984 
L 1155.794143 345.979485 
L 1157.11031 346.567176 
L 1158.426477 348.752999 
L 1161.058811 347.166604 
L 1162.374979 349.009771 
L 1163.691146 348.194978 
L 1165.007313 349.216817 
L 1166.32348 338.006723 
L 1167.639647 333.767131 
L 1168.955814 324.082822 
L 1170.271981 325.719461 
L 1171.588148 326.773597 
L 1172.904315 322.974469 
L 1174.220482 334.324166 
L 1175.536649 332.05771 
L 1176.852816 339.653029 
L 1178.168983 343.414251 
L 1179.48515 345.503744 
L 1180.801318 348.695746 
L 1182.117485 348.509952 
L 1183.433652 350.167815 
L 1184.749819 349.493513 
L 1186.065986 347.871591 
L 1187.382153 349.258243 
L 1190.014487 350.051716 
L 1192.646821 350.249581 
L 1193.962988 350.410448 
L 1195.279155 350.140381 
L 1197.91149 350.244704 
L 1205.808492 350.275999 
L 1218.970163 350.279274 
L 1220.28633 344.453931 
L 1221.602497 326.524356 
L 1222.918664 340.51162 
L 1224.234831 293.834701 
L 1225.550998 288.234427 
L 1226.867165 256.80486 
L 1228.183332 240.552479 
L 1229.499499 277.513318 
L 1230.815666 281.431875 
L 1232.131834 175.501575 
L 1234.764168 272.285372 
L 1236.080335 291.394108 
L 1237.396502 296.787985 
L 1240.028836 337.865656 
L 1241.345003 334.08604 
L 1242.66117 341.330275 
L 1243.977337 346.570172 
L 1245.293504 344.70647 
L 1246.609671 344.525978 
L 1247.925838 318.648048 
L 1249.242006 337.138553 
L 1250.558173 344.178496 
L 1251.87434 347.64236 
L 1253.190507 349.563067 
L 1254.506674 349.790757 
L 1255.822841 352.581 
L 1257.139008 348.445324 
L 1258.455175 347.575873 
L 1259.771342 345.245021 
L 1261.087509 344.318514 
L 1262.403676 343.965374 
L 1263.719843 347.672241 
L 1265.03601 341.580437 
L 1266.352178 338.964315 
L 1267.668345 322.509721 
L 1268.984512 321.382613 
L 1270.300679 332.571683 
L 1271.616846 338.746113 
L 1272.933013 334.625067 
L 1274.24918 341.908608 
L 1275.565347 340.550612 
L 1276.881514 339.909469 
L 1278.197681 344.906223 
L 1279.513848 342.05975 
L 1280.830015 343.734688 
L 1282.146182 346.705463 
L 1283.46235 337.714032 
L 1284.778517 341.127223 
L 1286.094684 343.989301 
L 1287.410851 348.18531 
L 1287.410851 348.18531 
" clip-path="url(#pb4816307ff)" style="fill: none; stroke: #ffa500; stroke-width: 1.5; stroke-linecap: square"/>
   </g>
   <g id="line2d_19">
    <path d="M 1287.410851 348.18531 
L 1288.727018 347.990107 
L 1290.043185 347.660708 
L 1291.359352 348.720276 
L 1292.675519 348.012016 
L 1293.991686 347.821465 
L 1295.307853 347.603833 
L 1296.62402 347.748798 
L 1297.940187 347.748798 
L 1299.256354 347.748798 
L 1300.572521 347.748798 
L 1301.888689 347.748798 
L 1303.204856 347.748798 
L 1304.521023 347.748798 
" clip-path="url(#pb4816307ff)" style="fill: none; stroke: #ff0000; stroke-width: 1.5; stroke-linecap: square"/>
   </g>
   <g id="patch_3">
    <path d="M 26.19375 367.701 
L 26.19375 35.061 
" style="fill: none; stroke: #000000; stroke-width: 0.8; stroke-linejoin: miter; stroke-linecap: square"/>
   </g>
   <g id="patch_4">
    <path d="M 1365.39375 367.701 
L 1365.39375 35.061 
" style="fill: none; stroke: #000000; stroke-width: 0.8; stroke-linejoin: miter; stroke-linecap: square"/>
   </g>
   <g id="patch_5">
    <path d="M 26.19375 367.701 
L 1365.39375 367.701 
" style="fill: none; stroke: #000000; stroke-width: 0.8; stroke-linejoin: miter; stroke-linecap: square"/>
   </g>
   <g id="patch_6">
    <path d="M 26.19375 35.061 
L 1365.39375 35.061 
" style="fill: none; stroke: #000000; stroke-width: 0.8; stroke-linejoin: miter; stroke-linecap: square"/>
   </g>
   <g id="text_17">
    <!-- 每日新增预测 - 内蒙古 -->
    <g transform="translate(636.396563 17.041875)scale(0.12 -0.12)">
     <defs>
      <path id="WenQuanYiZenHei-6bcf" d="M 6138 2181 
Q 6113 1988 6138 1800 
Q 5788 1819 5438 1819 
L 4975 1819 
L 4863 738 
L 5806 738 
L 5806 394 
L 4831 394 
L 4775 -144 
Q 4719 -563 4350 -725 
Q 4013 -856 3550 -825 
L 3288 -819 
Q 3331 -663 3275 -519 
Q 3219 -375 3113 -288 
Q 3381 -313 3759 -303 
Q 4138 -294 4231 -238 
Q 4338 -163 4350 88 
L 4381 394 
L 1025 394 
L 1244 1819 
L 813 1819 
Q 463 1819 113 1800 
Q 138 1988 113 2181 
Q 463 2163 813 2163 
L 1294 2163 
L 1488 3431 
L 1488 3581 
L 1506 3581 
L 1513 3613 
L 1713 3581 
L 5156 3581 
L 5013 2163 
L 5438 2163 
Q 5788 2163 6138 2181 
z
M 5588 4463 
Q 5569 4269 5588 4081 
Q 5244 4100 4894 4100 
L 1813 4100 
Q 1344 3463 606 2788 
Q 481 2988 256 3069 
Q 744 3494 1116 3972 
Q 1488 4450 1919 5181 
Q 2119 5044 2344 4950 
Q 2213 4688 2050 4444 
L 4894 4444 
Q 5238 4444 5588 4463 
z
M 2844 3238 
L 1906 3238 
L 1744 2163 
L 3244 2163 
L 2581 3038 
L 2844 3238 
z
M 3250 2163 
L 4563 2163 
L 4669 3238 
L 3044 3238 
L 3638 2456 
L 3250 2163 
z
M 2944 1819 
Q 3275 1394 3550 938 
L 3213 738 
L 4419 738 
L 4525 1819 
L 2944 1819 
z
M 2656 1819 
L 1694 1819 
L 1525 738 
L 3094 738 
Q 2806 1219 2450 1650 
L 2656 1819 
z
" transform="scale(0.015625)"/>
      <path id="WenQuanYiZenHei-65e5" d="M 1494 -775 
Q 1244 -750 988 -775 
Q 1013 -313 1013 156 
L 1013 4875 
L 5269 4875 
L 5269 -763 
L 4813 -763 
L 4813 156 
L 1469 156 
Q 1469 -313 1494 -775 
z
M 4813 2700 
L 4813 4500 
L 1469 4500 
L 1469 2700 
L 4813 2700 
z
M 4813 531 
L 4813 2325 
L 1469 2325 
L 1469 531 
L 4813 531 
z
" transform="scale(0.015625)"/>
      <path id="WenQuanYiZenHei-65b0" d="M 5419 -763 
Q 5188 -738 4963 -763 
Q 4981 -344 4981 75 
L 4981 2819 
L 4188 2819 
L 4188 1706 
Q 4188 63 3163 -738 
Q 3019 -519 2769 -469 
Q 3769 131 3769 1706 
L 3769 4769 
L 3875 4769 
L 3844 4831 
L 4294 4781 
Q 4438 4769 4894 4816 
Q 5350 4863 5512 4931 
Q 5675 5000 5763 5094 
Q 5850 4881 5981 4694 
Q 5713 4544 5263 4519 
L 4188 4438 
L 4188 3100 
L 5563 3100 
Q 5850 3100 6131 3113 
Q 6119 2956 6131 2806 
L 5394 2819 
L 5394 75 
Q 5394 -344 5419 -763 
z
M 2981 213 
Q 2656 744 2256 1225 
L 2606 1513 
Q 3025 1006 3369 450 
L 2981 213 
z
M 1169 1525 
Q 1375 1419 1594 1363 
Q 1281 488 469 -469 
Q 331 -300 119 -244 
Q 575 263 888 900 
Q 1038 1206 1169 1525 
z
M 1825 6 
L 1825 1769 
L 1081 1769 
Q 794 1769 513 1756 
Q 525 1913 513 2063 
Q 794 2050 1081 2050 
L 1825 2050 
L 1825 2775 
L 994 2775 
Q 706 2775 425 2763 
Q 438 2919 425 3075 
Q 706 3056 994 3056 
L 1825 3056 
L 1825 3088 
L 1906 3088 
Q 2288 3656 2588 4381 
Q 2794 4269 3013 4206 
Q 2800 3675 2381 3056 
L 3013 3056 
Q 3294 3056 3581 3075 
Q 3563 2919 3581 2763 
Q 3294 2775 3013 2775 
L 2238 2775 
L 2238 2050 
L 2925 2050 
Q 3206 2050 3494 2063 
Q 3475 1913 3494 1756 
Q 3206 1769 2925 1769 
L 2238 1769 
L 2238 -156 
Q 2238 -413 2075 -581 
Q 1844 -794 1306 -794 
Q 1363 -519 1188 -288 
Q 1338 -313 1534 -316 
Q 1731 -319 1778 -278 
Q 1825 -238 1825 6 
z
M 1875 3388 
L 1500 3131 
L 825 4088 
L 1200 4350 
L 1875 3388 
z
M 3419 4713 
Q 3400 4563 3419 4406 
Q 3131 4419 2850 4419 
L 1125 4419 
Q 838 4419 556 4406 
Q 569 4563 556 4713 
Q 838 4700 1125 4700 
L 1763 4700 
L 1388 5088 
L 1719 5406 
L 2288 4813 
L 2175 4700 
L 2850 4700 
Q 3131 4700 3419 4713 
z
" transform="scale(0.015625)"/>
      <path id="WenQuanYiZenHei-589e" d="M 3138 -769 
Q 2913 -744 2688 -769 
Q 2706 -356 2706 56 
L 2706 1719 
L 5706 1719 
L 5706 -756 
L 5300 -756 
L 5300 -338 
L 3119 -338 
Q 3125 -550 3138 -769 
z
M 5113 3569 
Q 5344 3606 5563 3688 
Q 5669 3175 5256 2694 
Q 5113 2519 4975 2506 
Q 4831 2725 4588 2813 
Q 4806 2831 4997 3068 
Q 5188 3306 5113 3569 
z
M 3850 2763 
L 3469 2538 
L 2925 3456 
L 3313 3681 
L 3850 2763 
z
M 2400 2100 
Q 2469 3138 2400 4175 
L 3413 4175 
Q 3138 4550 2825 4888 
L 3156 5194 
Q 3581 4725 3938 4206 
L 3900 4175 
L 4456 4175 
Q 4863 4575 5131 5163 
Q 5325 5044 5538 4975 
Q 5369 4575 5013 4175 
L 6056 4175 
Q 5981 3138 6056 2100 
L 2400 2100 
z
M 5300 806 
L 5300 1450 
L 3113 1450 
Q 3113 1125 3113 806 
L 5300 806 
z
M 5300 563 
L 3113 563 
L 3113 -94 
L 5300 -94 
L 5300 563 
z
M 4431 3913 
L 4431 2363 
L 5650 2363 
L 5650 3913 
L 4756 3913 
L 4700 3856 
Q 4681 3888 4656 3913 
L 4431 3913 
z
M 4025 3913 
L 2806 3913 
L 2806 2363 
L 4025 2363 
L 4025 3913 
z
M -31 625 
Q 506 763 1006 975 
L 1006 3206 
L 669 3206 
Q 369 3206 75 3188 
Q 94 3356 75 3531 
Q 369 3513 669 3513 
L 1006 3513 
L 1006 4263 
Q 1006 4700 981 5131 
Q 1206 5106 1431 5131 
Q 1413 4700 1413 4263 
L 1413 3513 
L 2238 3531 
Q 2219 3356 2238 3188 
L 1413 3206 
L 1413 1163 
L 2150 1531 
L 2194 1256 
Q 1269 775 813 519 
L 194 144 
Q 138 438 -31 625 
z
" transform="scale(0.015625)"/>
      <path id="WenQuanYiZenHei-9884" d="M 1206 19 
L 1206 2888 
L 669 2888 
Q 356 2888 50 2869 
Q 63 3044 50 3213 
Q 363 3194 669 3194 
L 1250 3194 
Q 950 3631 606 4031 
L 963 4338 
L 1263 3975 
L 1913 4719 
L 731 4719 
Q 419 4719 106 4706 
Q 125 4875 106 5044 
Q 419 5031 731 5031 
L 2481 5031 
L 2544 4663 
Q 2394 4613 2256 4466 
Q 2119 4319 1525 3631 
Q 1656 3444 1788 3250 
L 1700 3194 
L 2700 3194 
L 2763 2825 
Q 2656 2819 2613 2763 
L 2100 2038 
L 1750 2288 
L 2175 2888 
L 1638 2888 
L 1638 -150 
Q 1638 -525 1363 -669 
Q 1075 -819 525 -813 
Q 594 -513 388 -294 
Q 575 -313 837 -316 
Q 1100 -319 1153 -272 
Q 1206 -225 1206 19 
z
M 5813 -888 
Q 5100 -225 4306 375 
L 4669 719 
Q 5481 106 6219 -575 
L 5813 -888 
z
M 2375 -906 
Q 2294 -631 2025 -506 
Q 2769 -431 3353 19 
Q 3938 469 3938 1069 
L 3938 2200 
Q 3938 2625 3913 3050 
Q 4188 3025 4456 3050 
Q 4431 2625 4431 2200 
L 4431 1069 
Q 4431 681 4225 319 
Q 3644 -606 2375 -906 
z
M 3444 488 
Q 3169 513 2894 488 
Q 2919 913 2919 1338 
L 2919 3675 
Q 3219 3675 3525 3675 
Q 3750 4013 3931 4525 
L 3238 4525 
Q 2888 4525 2538 4513 
Q 2556 4669 2538 4831 
Q 2888 4813 3238 4813 
L 5313 4813 
Q 5663 4813 6006 4831 
Q 5988 4669 6006 4513 
Q 5663 4525 5313 4525 
L 4481 4525 
Q 4388 4088 4088 3675 
L 5644 3675 
L 5644 513 
L 5144 513 
L 5144 3388 
L 3894 3388 
L 3875 3363 
Q 3863 3375 3844 3388 
Q 3631 3388 3413 3388 
L 3419 1338 
Q 3419 913 3444 488 
z
" transform="scale(0.015625)"/>
      <path id="WenQuanYiZenHei-6d4b" d="M 5450 138 
L 5450 4306 
Q 5450 4750 5425 5188 
Q 5663 5163 5906 5188 
Q 5881 4750 5881 4306 
L 5881 -38 
Q 5888 -569 5519 -719 
Q 5194 -831 4825 -813 
Q 4894 -519 4694 -281 
Q 4869 -306 5094 -309 
Q 5319 -313 5384 -256 
Q 5450 -200 5450 138 
z
M 4900 938 
Q 4663 963 4419 938 
Q 4444 1375 4444 1819 
L 4444 3381 
Q 4444 3819 4419 4263 
Q 4663 4238 4900 4263 
Q 4875 3819 4875 3381 
L 4875 1819 
Q 4875 1375 4900 938 
z
M 2750 2025 
L 2750 3038 
Q 2750 3481 2725 3919 
Q 2963 3894 3206 3919 
Q 3181 3481 3181 3038 
L 3181 2025 
Q 3181 1263 2919 625 
L 3231 956 
Q 3781 431 4256 -150 
L 3888 -456 
Q 3431 106 2906 600 
Q 2531 -288 1738 -769 
Q 1606 -519 1338 -450 
Q 1988 -156 2369 478 
Q 2750 1113 2750 2025 
z
M 2363 969 
Q 2119 994 1881 969 
Q 1906 1406 1906 1850 
L 1906 5038 
L 3956 5031 
L 3956 1200 
L 3525 1200 
L 3525 4713 
L 2338 4713 
L 2338 1850 
Q 2338 1406 2363 969 
z
M 663 -738 
Q 481 -588 206 -575 
Q 400 -69 606 581 
Q 813 1231 1200 2838 
L 1381 2706 
L 875 338 
L 663 -738 
z
M 1006 2856 
L 731 2550 
L 75 3400 
L 350 3713 
L 1006 2856 
z
M 1088 3913 
Q 781 4388 425 4800 
L 694 5125 
Q 1069 4688 1388 4188 
L 1088 3913 
z
" transform="scale(0.015625)"/>
      <path id="WenQuanYiZenHei-20" transform="scale(0.015625)"/>
      <path id="WenQuanYiZenHei-5185" d="M 1025 194 
Q 1025 -275 1044 -750 
Q 788 -725 531 -750 
Q 556 -275 556 194 
L 556 3950 
L 2788 3950 
L 2788 4313 
Q 2788 4788 2763 5256 
Q 3019 5231 3275 5256 
Q 3250 4788 3250 4313 
L 3250 3950 
L 5750 3950 
L 5750 -81 
Q 5750 -500 5463 -663 
Q 5156 -825 4550 -819 
Q 4625 -494 4400 -256 
Q 4606 -275 4881 -278 
Q 5156 -281 5225 -231 
Q 5288 -150 5288 119 
L 5288 3556 
L 3250 3556 
L 3250 3188 
L 4219 2194 
L 5169 1144 
L 4781 806 
L 3844 1844 
L 3156 2550 
Q 2963 1800 2400 1219 
Q 1838 638 1100 388 
Q 1075 475 1025 550 
L 1025 194 
z
M 2788 3556 
L 1025 3556 
L 1025 881 
Q 1788 1144 2288 1797 
Q 2788 2450 2788 3269 
L 2788 3556 
z
" transform="scale(0.015625)"/>
      <path id="WenQuanYiZenHei-8499" d="M 1044 2156 
Q 781 2156 525 2144 
Q 538 2288 525 2425 
Q 781 2413 1044 2413 
L 2681 2413 
Q 2713 2450 2731 2413 
L 5256 2413 
Q 5513 2413 5775 2425 
Q 5756 2288 5775 2144 
Q 5513 2156 5256 2156 
L 2988 2156 
Q 3413 1950 3663 1281 
Q 4169 1500 4644 1850 
L 5031 2144 
Q 5156 1956 5319 1794 
Q 4906 1438 4313 1138 
Q 4881 63 6056 -81 
Q 5875 -250 5844 -494 
Q 5256 -406 4775 -18 
Q 4294 369 3975 975 
L 3781 888 
Q 4056 -369 2863 -813 
L 2625 -900 
Q 2538 -656 2300 -550 
Q 2606 -500 2881 -362 
Q 3156 -225 3269 -94 
Q 3531 231 3400 794 
Q 2800 206 2031 -212 
Q 1263 -631 369 -744 
Q 369 -481 219 -275 
Q 1594 -125 2475 556 
Q 2856 863 3244 1281 
Q 3206 1363 3175 1431 
Q 2150 425 444 131 
Q 444 350 313 525 
Q 1063 631 1650 931 
Q 2238 1231 2906 1744 
L 3163 1456 
Q 3000 1763 2763 1806 
Q 2694 1819 2619 1806 
Q 1744 1138 444 994 
Q 456 1213 338 1394 
Q 913 1444 1384 1634 
Q 1856 1825 2338 2156 
L 1044 2156 
z
M 4994 3063 
L 4994 2806 
L 1894 2806 
Q 1638 2806 1375 2794 
Q 1388 2931 1375 3075 
Q 1638 3063 1894 3063 
L 4994 3063 
z
M 800 2825 
L 381 2825 
L 381 3756 
L 5850 3756 
L 5850 2825 
L 5438 2825 
L 5438 3475 
L 800 3475 
L 800 2825 
z
M 4175 3913 
Q 3938 3931 3706 3913 
Q 3725 4175 3725 4431 
L 2381 4431 
Q 2388 4169 2400 3913 
Q 2169 3931 1938 3913 
Q 1950 4175 1956 4431 
L 719 4431 
Q 419 4431 119 4419 
Q 131 4556 119 4694 
Q 419 4681 719 4681 
L 1956 4681 
Q 1950 4981 1938 5281 
Q 2169 5263 2400 5281 
Q 2381 4975 2381 4681 
L 3725 4681 
Q 3725 4988 3706 5294 
Q 3938 5275 4175 5294 
Q 4156 4981 4150 4681 
L 5531 4681 
Q 5831 4681 6131 4694 
Q 6119 4556 6131 4419 
Q 5831 4431 5531 4431 
L 4156 4431 
Q 4156 4169 4175 3913 
z
" transform="scale(0.015625)"/>
      <path id="WenQuanYiZenHei-53e4" d="M 1238 2169 
L 2894 2169 
L 2894 3519 
L 875 3519 
Q 494 3519 113 3500 
Q 138 3706 113 3913 
Q 494 3894 875 3894 
L 2894 3894 
L 2894 4331 
Q 2894 4794 2875 5263 
Q 3125 5231 3375 5263 
Q 3356 4794 3356 4331 
L 3356 3894 
L 5375 3894 
Q 5756 3894 6138 3913 
Q 6113 3706 6138 3500 
Q 5756 3519 5375 3519 
L 3356 3519 
L 3356 2169 
L 4988 2169 
L 4988 -756 
L 4531 -756 
L 4531 -231 
L 1713 -231 
Q 1719 -500 1731 -769 
Q 1481 -738 1231 -769 
Q 1250 -300 1250 163 
L 1238 2169 
z
M 4531 144 
L 4531 1794 
L 1700 1794 
L 1706 144 
L 4531 144 
z
" transform="scale(0.015625)"/>
     </defs>
     <use xlink:href="#WenQuanYiZenHei-6bcf"/>
     <use xlink:href="#WenQuanYiZenHei-65e5" x="100"/>
     <use xlink:href="#WenQuanYiZenHei-65b0" x="200"/>
     <use xlink:href="#WenQuanYiZenHei-589e" x="300"/>
     <use xlink:href="#WenQuanYiZenHei-9884" x="400"/>
     <use xlink:href="#WenQuanYiZenHei-6d4b" x="500"/>
     <use xlink:href="#WenQuanYiZenHei-20" x="600"/>
     <use xlink:href="#WenQuanYiZenHei-2d" x="629.980469"/>
     <use xlink:href="#WenQuanYiZenHei-20" x="659.960938"/>
     <use xlink:href="#WenQuanYiZenHei-5185" x="689.941406"/>
     <use xlink:href="#WenQuanYiZenHei-8499" x="789.941406"/>
     <use xlink:href="#WenQuanYiZenHei-53e4" x="889.941406"/>
    </g>
    <!-- ARIMA (0, 1, 1)x(0, 0, 1, 7) (R2 = 0.916649) -->
    <g transform="translate(577.185938 29.061)scale(0.12 -0.12)">
     <defs>
      <path id="WenQuanYiZenHei-41" d="M 3550 0 
L 2988 0 
L 2550 1281 
L 919 1281 
L 531 0 
L 69 0 
L 1494 4388 
L 2125 4388 
L 3550 0 
z
M 2425 1694 
L 1756 3800 
L 1075 1694 
L 2425 1694 
z
" transform="scale(0.015625)"/>
      <path id="WenQuanYiZenHei-52" d="M 3675 0 
L 3100 0 
L 2288 1900 
L 1069 1900 
L 1069 0 
L 519 0 
L 519 4388 
L 2163 4388 
Q 3006 4388 3400 3900 
Q 3581 3663 3625 3325 
Q 3631 3250 3631 3163 
Q 3631 2594 3219 2244 
Q 3038 2100 2813 2038 
L 3675 0 
z
M 3081 3169 
Q 3081 3825 2356 3906 
Q 2263 3919 2163 3919 
L 1069 3919 
L 1069 2350 
L 2100 2350 
Q 2906 2350 3044 2919 
Q 3081 3031 3081 3169 
z
" transform="scale(0.015625)"/>
      <path id="WenQuanYiZenHei-49" d="M 1100 0 
L 550 0 
L 550 4388 
L 1100 4388 
L 1100 0 
z
" transform="scale(0.015625)"/>
      <path id="WenQuanYiZenHei-4d" d="M 4756 0 
L 4206 0 
L 4206 3831 
L 4181 3831 
L 2788 0 
L 2419 0 
L 1000 3831 
L 975 3831 
L 975 0 
L 513 0 
L 513 4388 
L 1331 4388 
L 2656 875 
L 3950 4388 
L 4756 4388 
L 4756 0 
z
" transform="scale(0.015625)"/>
      <path id="WenQuanYiZenHei-28" d="M 1606 -1094 
L 1275 -1094 
Q 475 -100 338 1231 
Q 319 1438 319 1656 
Q 319 3031 1156 4244 
Q 1213 4313 1269 4388 
L 1600 4388 
Q 806 3169 794 1681 
Q 794 188 1606 -1094 
z
" transform="scale(0.015625)"/>
      <path id="WenQuanYiZenHei-2c" d="M 1363 75 
L 881 -825 
L 606 -825 
L 994 0 
L 656 0 
L 656 738 
L 1363 738 
L 1363 75 
z
" transform="scale(0.015625)"/>
      <path id="WenQuanYiZenHei-29" d="M 1600 1656 
Q 1600 306 869 -788 
Q 769 -950 644 -1094 
L 313 -1094 
Q 1125 188 1125 1681 
Q 1125 3169 338 4363 
Q 325 4375 319 4388 
L 650 4388 
Q 1525 3231 1594 1863 
Q 1600 1763 1600 1656 
z
" transform="scale(0.015625)"/>
      <path id="WenQuanYiZenHei-78" d="M 2806 0 
L 2213 0 
L 1394 1319 
L 544 0 
L 50 0 
L 1144 1681 
L 163 3250 
L 744 3250 
L 1431 2138 
L 2144 3250 
L 2631 3250 
L 1681 1794 
L 2806 0 
z
" transform="scale(0.015625)"/>
      <path id="WenQuanYiZenHei-3d" d="M 3569 2256 
L 263 2256 
L 263 2675 
L 3569 2675 
L 3569 2256 
z
M 3569 1019 
L 263 1019 
L 263 1431 
L 3569 1431 
L 3569 1019 
z
" transform="scale(0.015625)"/>
      <path id="WenQuanYiZenHei-2e" d="M 1344 0 
L 631 0 
L 631 725 
L 1344 725 
L 1344 0 
z
" transform="scale(0.015625)"/>
      <path id="WenQuanYiZenHei-39" d="M 3544 2300 
Q 3544 1163 3019 513 
Q 2563 -63 1775 -63 
Q 956 -63 563 488 
Q 463 631 394 813 
L 838 975 
Q 1025 494 1550 388 
Q 1656 369 1775 369 
Q 2594 369 2900 1325 
Q 3044 1769 3038 2313 
L 3025 2313 
Q 2675 1638 1944 1544 
Q 1844 1531 1744 1531 
Q 1050 1531 625 2031 
Q 294 2419 294 2963 
Q 294 3656 813 4094 
Q 1238 4456 1819 4456 
Q 2988 4456 3381 3363 
Q 3544 2900 3544 2300 
z
M 2925 2994 
Q 2925 3563 2469 3844 
Q 2206 4006 1863 4006 
Q 1275 4006 988 3563 
Q 844 3344 825 3056 
Q 819 3006 819 2956 
Q 819 2413 1269 2131 
Q 1538 1963 1875 1963 
Q 2363 1963 2681 2350 
Q 2925 2638 2925 2994 
z
" transform="scale(0.015625)"/>
     </defs>
     <use xlink:href="#WenQuanYiZenHei-41"/>
     <use xlink:href="#WenQuanYiZenHei-52" x="55.957031"/>
     <use xlink:href="#WenQuanYiZenHei-49" x="117.871094"/>
     <use xlink:href="#WenQuanYiZenHei-4d" x="143.847656"/>
     <use xlink:href="#WenQuanYiZenHei-41" x="225.78125"/>
     <use xlink:href="#WenQuanYiZenHei-20" x="281.738281"/>
     <use xlink:href="#WenQuanYiZenHei-28" x="311.71875"/>
     <use xlink:href="#WenQuanYiZenHei-30" x="341.699219"/>
     <use xlink:href="#WenQuanYiZenHei-2c" x="401.660156"/>
     <use xlink:href="#WenQuanYiZenHei-20" x="431.640625"/>
     <use xlink:href="#WenQuanYiZenHei-31" x="461.621094"/>
     <use xlink:href="#WenQuanYiZenHei-2c" x="521.582031"/>
     <use xlink:href="#WenQuanYiZenHei-20" x="551.5625"/>
     <use xlink:href="#WenQuanYiZenHei-31" x="581.542969"/>
     <use xlink:href="#WenQuanYiZenHei-29" x="641.503906"/>
     <use xlink:href="#WenQuanYiZenHei-78" x="671.484375"/>
     <use xlink:href="#WenQuanYiZenHei-28" x="715.429688"/>
     <use xlink:href="#WenQuanYiZenHei-30" x="745.410156"/>
     <use xlink:href="#WenQuanYiZenHei-2c" x="805.371094"/>
     <use xlink:href="#WenQuanYiZenHei-20" x="835.351562"/>
     <use xlink:href="#WenQuanYiZenHei-30" x="865.332031"/>
     <use xlink:href="#WenQuanYiZenHei-2c" x="925.292969"/>
     <use xlink:href="#WenQuanYiZenHei-20" x="955.273438"/>
     <use xlink:href="#WenQuanYiZenHei-31" x="985.253906"/>
     <use xlink:href="#WenQuanYiZenHei-2c" x="1045.214844"/>
     <use xlink:href="#WenQuanYiZenHei-20" x="1075.195312"/>
     <use xlink:href="#WenQuanYiZenHei-37" x="1105.175781"/>
     <use xlink:href="#WenQuanYiZenHei-29" x="1165.136719"/>
     <use xlink:href="#WenQuanYiZenHei-20" x="1195.117188"/>
     <use xlink:href="#WenQuanYiZenHei-28" x="1225.097656"/>
     <use xlink:href="#WenQuanYiZenHei-52" x="1255.078125"/>
     <use xlink:href="#WenQuanYiZenHei-32" x="1316.992188"/>
     <use xlink:href="#WenQuanYiZenHei-20" x="1376.953125"/>
     <use xlink:href="#WenQuanYiZenHei-3d" x="1406.933594"/>
     <use xlink:href="#WenQuanYiZenHei-20" x="1466.894531"/>
     <use xlink:href="#WenQuanYiZenHei-30" x="1496.875"/>
     <use xlink:href="#WenQuanYiZenHei-2e" x="1556.835938"/>
     <use xlink:href="#WenQuanYiZenHei-39" x="1586.816406"/>
     <use xlink:href="#WenQuanYiZenHei-31" x="1646.777344"/>
     <use xlink:href="#WenQuanYiZenHei-36" x="1706.738281"/>
     <use xlink:href="#WenQuanYiZenHei-36" x="1766.699219"/>
     <use xlink:href="#WenQuanYiZenHei-34" x="1826.660156"/>
     <use xlink:href="#WenQuanYiZenHei-39" x="1886.621094"/>
     <use xlink:href="#WenQuanYiZenHei-29" x="1946.582031"/>
    </g>
   </g>
   <g id="legend_1">
    <g id="patch_7">
     <path d="M 1296.39375 87.056312 
L 1358.39375 87.056312 
Q 1360.39375 87.056312 1360.39375 85.056312 
L 1360.39375 42.061 
Q 1360.39375 40.061 1358.39375 40.061 
L 1296.39375 40.061 
Q 1294.39375 40.061 1294.39375 42.061 
L 1294.39375 85.056312 
Q 1294.39375 87.056312 1296.39375 87.056312 
z
" style="fill: #ffffff; opacity: 0.8; stroke: #cccccc; stroke-linejoin: miter"/>
    </g>
    <g id="line2d_20">
     <path d="M 1298.39375 48.695375 
L 1308.39375 48.695375 
L 1318.39375 48.695375 
" style="fill: none; stroke: #0000ff; stroke-width: 1.5; stroke-linecap: square"/>
    </g>
    <g id="text_18">
     <!-- 实际值 -->
     <g transform="translate(1326.39375 52.195375)scale(0.1 -0.1)">
      <defs>
       <path id="WenQuanYiZenHei-5b9e" d="M 1025 1175 
Q 694 1175 356 1163 
Q 375 1344 356 1525 
Q 694 1506 1025 1506 
L 3363 1506 
L 3363 2625 
Q 3363 3075 3338 3519 
Q 3581 3494 3825 3519 
Q 3800 3075 3800 2625 
L 3800 1506 
L 5406 1506 
Q 5744 1506 6075 1525 
Q 6056 1344 6075 1163 
Q 5744 1175 5406 1175 
L 4038 1175 
L 4981 456 
L 6131 -488 
L 5819 -856 
L 4681 75 
L 3638 875 
Q 3313 231 2475 -231 
Q 1638 -694 700 -825 
Q 638 -519 344 -400 
Q 1450 -319 2406 244 
Q 3113 656 3300 1175 
L 1025 1175 
z
M 2263 1581 
Q 1763 2081 1200 2513 
L 1494 2894 
Q 2081 2444 2600 1919 
L 2263 1581 
z
M 2638 2500 
Q 2219 2963 1731 3363 
L 2044 3738 
Q 2556 3313 3000 2819 
L 2638 2500 
z
M 919 3156 
L 481 3156 
L 481 4344 
L 3069 4344 
Q 2794 4731 2469 5081 
L 2825 5413 
Q 3256 4944 3613 4413 
L 3513 4344 
L 5869 4344 
L 5869 3156 
L 5425 3156 
L 5425 4013 
L 919 4013 
L 919 3156 
z
" transform="scale(0.015625)"/>
       <path id="WenQuanYiZenHei-9645" d="M 6000 431 
L 5569 194 
L 4963 1219 
L 4313 2219 
L 4719 2494 
L 5375 1481 
L 6000 431 
z
M 2956 2450 
Q 3181 2344 3419 2294 
Q 3006 1038 1944 -188 
Q 1794 -6 1569 56 
Q 2069 600 2372 1156 
Q 2675 1713 2956 2450 
z
M 3750 25 
L 3750 2913 
L 2819 2913 
Q 2475 2913 2125 2894 
Q 2144 3081 2125 3269 
Q 2475 3256 2819 3256 
L 5469 3256 
Q 5819 3256 6163 3269 
Q 6144 3081 6163 2894 
Q 5813 2913 5469 2913 
L 4194 2913 
L 4194 -144 
Q 4194 -725 3456 -813 
L 3263 -825 
Q 3325 -506 3125 -250 
Q 3250 -281 3394 -306 
Q 3663 -313 3706 -272 
Q 3750 -231 3750 25 
z
M 5544 4950 
Q 5525 4756 5544 4569 
Q 5194 4588 4844 4588 
L 3325 4588 
Q 2975 4588 2625 4569 
Q 2644 4756 2625 4950 
Q 2975 4931 3325 4931 
L 4844 4931 
Q 5194 4931 5544 4950 
z
M 819 -850 
Q 581 -825 344 -850 
Q 369 -419 369 19 
L 363 4938 
L 2256 4938 
L 2256 4625 
Q 2150 4513 2075 4375 
L 1481 3238 
Q 2181 2319 2181 1156 
Q 2144 400 1569 163 
L 1406 88 
Q 1288 300 1138 481 
Q 1294 538 1450 606 
Q 1763 744 1794 1156 
Q 1794 1744 1600 2300 
Q 1406 2856 1038 3313 
L 1725 4625 
L 788 4625 
L 794 19 
Q 794 -419 819 -850 
z
" transform="scale(0.015625)"/>
       <path id="WenQuanYiZenHei-503c" d="M 6175 -219 
Q 6156 -388 6175 -556 
Q 5863 -544 5550 -544 
L 2313 -544 
Q 2000 -544 1688 -556 
Q 1706 -388 1688 -219 
L 2506 -231 
L 2506 3469 
L 3644 3469 
L 3644 4119 
L 2638 4119 
Q 2325 4119 2013 4100 
Q 2031 4269 2013 4438 
Q 2325 4425 2638 4425 
L 3638 4425 
Q 3638 4719 3619 5013 
Q 3856 4988 4094 5013 
Q 4075 4719 4075 4425 
L 5344 4425 
Q 5650 4425 5963 4438 
Q 5950 4269 5963 4100 
Q 5656 4119 5344 4119 
L 4069 4119 
L 4069 3469 
L 5300 3469 
L 5300 -231 
L 5550 -231 
Q 5863 -231 6175 -219 
z
M 4869 2556 
L 4869 3156 
L 2931 3156 
Q 2931 2850 2931 2556 
L 4869 2556 
z
M 4869 1669 
L 4869 2250 
L 2931 2250 
L 2931 1669 
L 4869 1669 
z
M 4869 731 
L 4869 1363 
L 2931 1363 
L 2931 731 
L 4869 731 
z
M 4869 -231 
L 4869 425 
L 2931 425 
L 2931 -231 
L 4869 -231 
z
M 2106 4925 
Q 1856 4075 1463 3338 
L 1463 31 
Q 1463 -413 1481 -850 
Q 1256 -825 1031 -850 
Q 1050 -413 1050 31 
L 1050 2681 
Q 750 2269 375 1931 
Q 238 2156 0 2256 
Q 331 2544 619 2875 
Q 1094 3425 1300 3950 
Q 1494 4469 1625 5050 
Q 1850 4963 2106 4925 
z
" transform="scale(0.015625)"/>
      </defs>
      <use xlink:href="#WenQuanYiZenHei-5b9e"/>
      <use xlink:href="#WenQuanYiZenHei-9645" x="100"/>
      <use xlink:href="#WenQuanYiZenHei-503c" x="200"/>
     </g>
    </g>
    <g id="line2d_21">
     <path d="M 1298.39375 63.3735 
L 1308.39375 63.3735 
L 1318.39375 63.3735 
" style="fill: none; stroke: #ffa500; stroke-width: 1.5; stroke-linecap: square"/>
    </g>
    <g id="text_19">
     <!-- 校验值 -->
     <g transform="translate(1326.39375 66.8735)scale(0.1 -0.1)">
      <defs>
       <path id="WenQuanYiZenHei-6821" d="M 5256 2463 
Q 5025 1475 4494 706 
Q 5125 -94 6175 -544 
Q 5950 -663 5850 -900 
Q 4906 -494 4250 381 
Q 3931 0 3475 -350 
Q 3019 -700 2388 -919 
Q 2338 -656 2138 -475 
Q 3306 -69 4006 738 
Q 3563 1444 3300 2331 
Q 3050 2050 2706 1800 
Q 2606 2000 2406 2106 
Q 2900 2444 3181 2938 
Q 3350 3225 3488 3538 
Q 3700 3431 3925 3369 
Q 3763 2894 3425 2475 
L 3650 2531 
Q 3888 1675 4244 1075 
Q 4469 1444 4603 1937 
Q 4738 2431 4775 2688 
Q 4963 2644 5150 2625 
Q 4919 2969 4663 3294 
L 5038 3588 
Q 5544 2925 5975 2213 
L 5569 1969 
L 5256 2463 
z
M 6006 4050 
Q 5988 3881 6006 3713 
Q 5694 3725 5381 3725 
L 3413 3725 
Q 3100 3725 2788 3713 
Q 2806 3881 2788 4050 
Q 3100 4031 3413 4031 
L 4325 4031 
Q 4019 4525 3644 4969 
L 4000 5275 
Q 4413 4788 4750 4244 
L 4406 4031 
L 5381 4031 
Q 5694 4031 6006 4050 
z
M 406 263 
Q 238 431 -25 469 
Q 194 825 466 1337 
Q 738 1850 925 2406 
Q 1113 2963 1256 3519 
L 825 3519 
Q 506 3519 188 3500 
Q 206 3700 188 3900 
Q 506 3881 825 3881 
L 1363 3881 
L 1363 4263 
Q 1363 4719 1338 5175 
Q 1556 5150 1775 5175 
Q 1756 4719 1756 4263 
L 1756 3881 
L 2525 3900 
Q 2506 3700 2525 3500 
L 1756 3519 
L 1756 2738 
L 1931 2881 
Q 2306 2300 2613 1650 
L 2231 1413 
Q 2081 1725 1919 2019 
L 1756 2300 
L 1756 69 
Q 1756 -388 1775 -850 
Q 1556 -825 1338 -850 
Q 1363 -388 1363 69 
L 1363 2438 
Q 925 1144 406 263 
z
" transform="scale(0.015625)"/>
       <path id="WenQuanYiZenHei-9a8c" d="M 5981 -106 
Q 5963 -275 5981 -444 
Q 5669 -431 5356 -431 
L 2969 -431 
Q 2656 -431 2350 -444 
Q 2363 -275 2350 -106 
Q 2656 -125 2969 -125 
L 4369 -125 
Q 4600 431 4881 1288 
L 5206 2300 
Q 5425 2206 5663 2163 
Q 5375 1188 4831 -125 
L 5356 -125 
Q 5669 -125 5981 -106 
z
M 4063 594 
Q 3788 1425 3425 2219 
L 3856 2419 
Q 4225 1600 4513 744 
L 4063 594 
z
M 3163 363 
Q 2931 1200 2613 2006 
L 3056 2175 
Q 3381 1350 3619 488 
L 3163 363 
z
M 4581 2550 
L 3513 2550 
Q 3200 2550 2888 2538 
Q 2900 2663 2894 2769 
Q 2569 2488 2206 2300 
Q 2113 2550 1894 2700 
Q 2488 2975 2975 3463 
Q 3269 3756 3394 4006 
Q 3644 4513 3794 5063 
Q 4038 4975 4294 4931 
Q 4250 4806 4206 4681 
Q 4475 3888 5025 3388 
Q 5519 2938 6169 2650 
Q 5938 2538 5838 2300 
Q 5513 2456 5200 2700 
Q 5200 2619 5206 2538 
Q 4894 2550 4581 2550 
z
M 3513 2863 
L 4994 2869 
Q 4344 3438 3988 4194 
Q 3594 3406 3013 2869 
Q 3263 2863 3513 2863 
z
M 206 444 
Q 188 756 44 963 
Q 319 956 650 1003 
Q 981 1050 1731 1281 
L 1738 1006 
Q 800 719 206 444 
z
M 525 4000 
Q 744 3950 994 3944 
Q 925 3519 875 3081 
L 763 2144 
L 1475 2144 
L 1831 4444 
L 663 4444 
Q 350 4444 38 4431 
Q 56 4600 38 4769 
Q 350 4756 663 4756 
L 2313 4756 
L 1913 2144 
L 2375 2144 
L 2200 -200 
Q 2188 -425 1988 -588 
Q 1694 -800 1181 -788 
L 944 -788 
Q 1000 -450 788 -269 
Q 1013 -294 1334 -287 
Q 1656 -281 1715 -243 
Q 1775 -206 1781 -50 
L 1925 1831 
L 294 1831 
L 444 3131 
Q 500 3569 525 4000 
z
" transform="scale(0.015625)"/>
      </defs>
      <use xlink:href="#WenQuanYiZenHei-6821"/>
      <use xlink:href="#WenQuanYiZenHei-9a8c" x="100"/>
      <use xlink:href="#WenQuanYiZenHei-503c" x="200"/>
     </g>
    </g>
    <g id="line2d_22">
     <path d="M 1298.39375 77.895375 
L 1308.39375 77.895375 
L 1318.39375 77.895375 
" style="fill: none; stroke: #ff0000; stroke-width: 1.5; stroke-linecap: square"/>
    </g>
    <g id="text_20">
     <!-- 预测值 -->
     <g transform="translate(1326.39375 81.395375)scale(0.1 -0.1)">
      <use xlink:href="#WenQuanYiZenHei-9884"/>
      <use xlink:href="#WenQuanYiZenHei-6d4b" x="100"/>
      <use xlink:href="#WenQuanYiZenHei-503c" x="200"/>
     </g>
    </g>
   </g>
  </g>
 </g>
 <defs>
  <clipPath id="pb4816307ff">
   <rect x="26.19375" y="35.061" width="1339.2" height="332.64"/>
  </clipPath>
 </defs>
</svg>
