<?xml version="1.0" encoding="utf-8" standalone="no"?>
<!DOCTYPE svg PUBLIC "-//W3C//DTD SVG 1.1//EN"
  "http://www.w3.org/Graphics/SVG/1.1/DTD/svg11.dtd">
<svg xmlns:xlink="http://www.w3.org/1999/xlink" width="1372.59375pt" height="390.418188pt" viewBox="0 0 1372.59375 390.418188" xmlns="http://www.w3.org/2000/svg" version="1.1">
 <metadata>
  <rdf:RDF xmlns:dc="http://purl.org/dc/elements/1.1/" xmlns:cc="http://creativecommons.org/ns#" xmlns:rdf="http://www.w3.org/1999/02/22-rdf-syntax-ns#">
   <cc:Work>
    <dc:type rdf:resource="http://purl.org/dc/dcmitype/StillImage"/>
    <dc:date>2022-07-02T18:15:53.747195</dc:date>
    <dc:format>image/svg+xml</dc:format>
    <dc:creator>
     <cc:Agent>
      <dc:title>Matplotlib v3.5.2, https://matplotlib.org/</dc:title>
     </cc:Agent>
    </dc:creator>
   </cc:Work>
  </rdf:RDF>
 </metadata>
 <defs>
  <style type="text/css">*{stroke-linejoin: round; stroke-linecap: butt}</style>
 </defs>
 <g id="figure_1">
  <g id="patch_1">
   <path d="M 0 390.418188 
L 1372.59375 390.418188 
L 1372.59375 -0 
L 0 -0 
z
" style="fill: #ffffff"/>
  </g>
  <g id="axes_1">
   <g id="patch_2">
    <path d="M 26.19375 367.701 
L 1365.39375 367.701 
L 1365.39375 35.061 
L 26.19375 35.061 
z
" style="fill: #ffffff"/>
   </g>
   <g id="matplotlib.axis_1">
    <g id="xtick_1">
     <g id="line2d_1">
      <defs>
       <path id="m425ea94efc" d="M 0 0 
L 0 3.5 
" style="stroke: #000000; stroke-width: 0.8"/>
      </defs>
      <g>
       <use xlink:href="#m425ea94efc" x="57.405348" y="367.701" style="stroke: #000000; stroke-width: 0.8"/>
      </g>
     </g>
     <g id="text_1">
      <!-- 2020-01 -->
      <g transform="translate(37.915504 381.55725)scale(0.1 -0.1)">
       <defs>
        <path id="WenQuanYiZenHei-32" d="M 3488 0 
L 369 0 
L 369 456 
L 2150 1850 
Q 2931 2463 2931 3144 
Q 2931 3619 2488 3863 
Q 2231 4013 1931 4013 
Q 1425 4013 1113 3619 
Q 894 3356 881 3013 
L 369 3169 
Q 531 3981 1213 4300 
Q 1544 4456 1950 4456 
Q 2631 4456 3088 4044 
L 3225 3888 
L 3350 3706 
Q 3481 3444 3481 3144 
Q 3481 2313 2519 1569 
L 1069 456 
L 3488 456 
L 3488 0 
z
" transform="scale(0.015625)"/>
        <path id="WenQuanYiZenHei-30" d="M 3581 2175 
Q 3581 1288 3169 638 
Q 2713 -63 1938 -63 
Q 1025 -63 563 831 
Q 256 1425 256 2188 
Q 256 3188 700 3819 
Q 1138 4456 1888 4456 
Q 2863 4456 3306 3500 
Q 3581 2925 3581 2175 
z
M 3019 2100 
Q 3019 3356 2500 3806 
L 2350 3919 
Q 2144 4031 1888 4031 
Q 1100 4031 888 2956 
Q 819 2625 819 2225 
Q 819 1013 1338 569 
Q 1588 356 1938 356 
Q 2675 356 2925 1294 
Q 3019 1663 3019 2100 
z
" transform="scale(0.015625)"/>
        <path id="WenQuanYiZenHei-2d" d="M 1363 1444 
L 0 1444 
L 0 1844 
L 1363 1844 
L 1363 1444 
z
" transform="scale(0.015625)"/>
        <path id="WenQuanYiZenHei-31" d="M 3556 0 
L 488 0 
L 488 406 
L 1800 406 
L 1800 3725 
Q 1231 3125 588 2788 
L 588 3338 
Q 1456 3781 1931 4388 
L 2331 4388 
L 2331 406 
L 3556 406 
L 3556 0 
z
" transform="scale(0.015625)"/>
       </defs>
       <use xlink:href="#WenQuanYiZenHei-32"/>
       <use xlink:href="#WenQuanYiZenHei-30" x="59.960938"/>
       <use xlink:href="#WenQuanYiZenHei-32" x="119.921875"/>
       <use xlink:href="#WenQuanYiZenHei-30" x="179.882812"/>
       <use xlink:href="#WenQuanYiZenHei-2d" x="239.84375"/>
       <use xlink:href="#WenQuanYiZenHei-30" x="269.824219"/>
       <use xlink:href="#WenQuanYiZenHei-31" x="329.785156"/>
      </g>
     </g>
    </g>
    <g id="xtick_2">
     <g id="line2d_2">
      <g>
       <use xlink:href="#m425ea94efc" x="180.094565" y="367.701" style="stroke: #000000; stroke-width: 0.8"/>
      </g>
     </g>
     <g id="text_2">
      <!-- 2020-04 -->
      <g transform="translate(160.604722 381.55725)scale(0.1 -0.1)">
       <defs>
        <path id="WenQuanYiZenHei-34" d="M 3631 1025 
L 2913 1025 
L 2913 0 
L 2381 0 
L 2381 1025 
L 219 1025 
L 219 1388 
L 2225 4388 
L 2913 4388 
L 2913 1444 
L 3631 1444 
L 3631 1025 
z
M 2381 1444 
L 2381 3963 
L 788 1444 
L 2381 1444 
z
" transform="scale(0.015625)"/>
       </defs>
       <use xlink:href="#WenQuanYiZenHei-32"/>
       <use xlink:href="#WenQuanYiZenHei-30" x="59.960938"/>
       <use xlink:href="#WenQuanYiZenHei-32" x="119.921875"/>
       <use xlink:href="#WenQuanYiZenHei-30" x="179.882812"/>
       <use xlink:href="#WenQuanYiZenHei-2d" x="239.84375"/>
       <use xlink:href="#WenQuanYiZenHei-30" x="269.824219"/>
       <use xlink:href="#WenQuanYiZenHei-34" x="329.785156"/>
      </g>
     </g>
    </g>
    <g id="xtick_3">
     <g id="line2d_3">
      <g>
       <use xlink:href="#m425ea94efc" x="302.783783" y="367.701" style="stroke: #000000; stroke-width: 0.8"/>
      </g>
     </g>
     <g id="text_3">
      <!-- 2020-07 -->
      <g transform="translate(283.293939 381.55725)scale(0.1 -0.1)">
       <defs>
        <path id="WenQuanYiZenHei-37" d="M 3400 4056 
Q 1838 2175 1838 0 
L 1275 0 
Q 1269 1438 2056 2825 
Q 2381 3400 2825 3913 
L 444 3913 
L 500 4388 
L 3400 4388 
L 3400 4056 
z
" transform="scale(0.015625)"/>
       </defs>
       <use xlink:href="#WenQuanYiZenHei-32"/>
       <use xlink:href="#WenQuanYiZenHei-30" x="59.960938"/>
       <use xlink:href="#WenQuanYiZenHei-32" x="119.921875"/>
       <use xlink:href="#WenQuanYiZenHei-30" x="179.882812"/>
       <use xlink:href="#WenQuanYiZenHei-2d" x="239.84375"/>
       <use xlink:href="#WenQuanYiZenHei-30" x="269.824219"/>
       <use xlink:href="#WenQuanYiZenHei-37" x="329.785156"/>
      </g>
     </g>
    </g>
    <g id="xtick_4">
     <g id="line2d_4">
      <g>
       <use xlink:href="#m425ea94efc" x="426.821234" y="367.701" style="stroke: #000000; stroke-width: 0.8"/>
      </g>
     </g>
     <g id="text_4">
      <!-- 2020-10 -->
      <g transform="translate(407.33139 381.55725)scale(0.1 -0.1)">
       <use xlink:href="#WenQuanYiZenHei-32"/>
       <use xlink:href="#WenQuanYiZenHei-30" x="59.960938"/>
       <use xlink:href="#WenQuanYiZenHei-32" x="119.921875"/>
       <use xlink:href="#WenQuanYiZenHei-30" x="179.882812"/>
       <use xlink:href="#WenQuanYiZenHei-2d" x="239.84375"/>
       <use xlink:href="#WenQuanYiZenHei-31" x="269.824219"/>
       <use xlink:href="#WenQuanYiZenHei-30" x="329.785156"/>
      </g>
     </g>
    </g>
    <g id="xtick_5">
     <g id="line2d_5">
      <g>
       <use xlink:href="#m425ea94efc" x="550.858685" y="367.701" style="stroke: #000000; stroke-width: 0.8"/>
      </g>
     </g>
     <g id="text_5">
      <!-- 2021-01 -->
      <g transform="translate(531.368841 381.55725)scale(0.1 -0.1)">
       <use xlink:href="#WenQuanYiZenHei-32"/>
       <use xlink:href="#WenQuanYiZenHei-30" x="59.960938"/>
       <use xlink:href="#WenQuanYiZenHei-32" x="119.921875"/>
       <use xlink:href="#WenQuanYiZenHei-31" x="179.882812"/>
       <use xlink:href="#WenQuanYiZenHei-2d" x="239.84375"/>
       <use xlink:href="#WenQuanYiZenHei-30" x="269.824219"/>
       <use xlink:href="#WenQuanYiZenHei-31" x="329.785156"/>
      </g>
     </g>
    </g>
    <g id="xtick_6">
     <g id="line2d_6">
      <g>
       <use xlink:href="#m425ea94efc" x="672.19967" y="367.701" style="stroke: #000000; stroke-width: 0.8"/>
      </g>
     </g>
     <g id="text_6">
      <!-- 2021-04 -->
      <g transform="translate(652.709826 381.55725)scale(0.1 -0.1)">
       <use xlink:href="#WenQuanYiZenHei-32"/>
       <use xlink:href="#WenQuanYiZenHei-30" x="59.960938"/>
       <use xlink:href="#WenQuanYiZenHei-32" x="119.921875"/>
       <use xlink:href="#WenQuanYiZenHei-31" x="179.882812"/>
       <use xlink:href="#WenQuanYiZenHei-2d" x="239.84375"/>
       <use xlink:href="#WenQuanYiZenHei-30" x="269.824219"/>
       <use xlink:href="#WenQuanYiZenHei-34" x="329.785156"/>
      </g>
     </g>
    </g>
    <g id="xtick_7">
     <g id="line2d_7">
      <g>
       <use xlink:href="#m425ea94efc" x="794.888887" y="367.701" style="stroke: #000000; stroke-width: 0.8"/>
      </g>
     </g>
     <g id="text_7">
      <!-- 2021-07 -->
      <g transform="translate(775.399044 381.55725)scale(0.1 -0.1)">
       <use xlink:href="#WenQuanYiZenHei-32"/>
       <use xlink:href="#WenQuanYiZenHei-30" x="59.960938"/>
       <use xlink:href="#WenQuanYiZenHei-32" x="119.921875"/>
       <use xlink:href="#WenQuanYiZenHei-31" x="179.882812"/>
       <use xlink:href="#WenQuanYiZenHei-2d" x="239.84375"/>
       <use xlink:href="#WenQuanYiZenHei-30" x="269.824219"/>
       <use xlink:href="#WenQuanYiZenHei-37" x="329.785156"/>
      </g>
     </g>
    </g>
    <g id="xtick_8">
     <g id="line2d_8">
      <g>
       <use xlink:href="#m425ea94efc" x="918.926338" y="367.701" style="stroke: #000000; stroke-width: 0.8"/>
      </g>
     </g>
     <g id="text_8">
      <!-- 2021-10 -->
      <g transform="translate(899.436495 381.55725)scale(0.1 -0.1)">
       <use xlink:href="#WenQuanYiZenHei-32"/>
       <use xlink:href="#WenQuanYiZenHei-30" x="59.960938"/>
       <use xlink:href="#WenQuanYiZenHei-32" x="119.921875"/>
       <use xlink:href="#WenQuanYiZenHei-31" x="179.882812"/>
       <use xlink:href="#WenQuanYiZenHei-2d" x="239.84375"/>
       <use xlink:href="#WenQuanYiZenHei-31" x="269.824219"/>
       <use xlink:href="#WenQuanYiZenHei-30" x="329.785156"/>
      </g>
     </g>
    </g>
    <g id="xtick_9">
     <g id="line2d_9">
      <g>
       <use xlink:href="#m425ea94efc" x="1042.963789" y="367.701" style="stroke: #000000; stroke-width: 0.8"/>
      </g>
     </g>
     <g id="text_9">
      <!-- 2022-01 -->
      <g transform="translate(1023.473946 381.55725)scale(0.1 -0.1)">
       <use xlink:href="#WenQuanYiZenHei-32"/>
       <use xlink:href="#WenQuanYiZenHei-30" x="59.960938"/>
       <use xlink:href="#WenQuanYiZenHei-32" x="119.921875"/>
       <use xlink:href="#WenQuanYiZenHei-32" x="179.882812"/>
       <use xlink:href="#WenQuanYiZenHei-2d" x="239.84375"/>
       <use xlink:href="#WenQuanYiZenHei-30" x="269.824219"/>
       <use xlink:href="#WenQuanYiZenHei-31" x="329.785156"/>
      </g>
     </g>
    </g>
    <g id="xtick_10">
     <g id="line2d_10">
      <g>
       <use xlink:href="#m425ea94efc" x="1164.304774" y="367.701" style="stroke: #000000; stroke-width: 0.8"/>
      </g>
     </g>
     <g id="text_10">
      <!-- 2022-04 -->
      <g transform="translate(1144.81493 381.55725)scale(0.1 -0.1)">
       <use xlink:href="#WenQuanYiZenHei-32"/>
       <use xlink:href="#WenQuanYiZenHei-30" x="59.960938"/>
       <use xlink:href="#WenQuanYiZenHei-32" x="119.921875"/>
       <use xlink:href="#WenQuanYiZenHei-32" x="179.882812"/>
       <use xlink:href="#WenQuanYiZenHei-2d" x="239.84375"/>
       <use xlink:href="#WenQuanYiZenHei-30" x="269.824219"/>
       <use xlink:href="#WenQuanYiZenHei-34" x="329.785156"/>
      </g>
     </g>
    </g>
    <g id="xtick_11">
     <g id="line2d_11">
      <g>
       <use xlink:href="#m425ea94efc" x="1286.993992" y="367.701" style="stroke: #000000; stroke-width: 0.8"/>
      </g>
     </g>
     <g id="text_11">
      <!-- 2022-07 -->
      <g transform="translate(1267.504148 381.55725)scale(0.1 -0.1)">
       <use xlink:href="#WenQuanYiZenHei-32"/>
       <use xlink:href="#WenQuanYiZenHei-30" x="59.960938"/>
       <use xlink:href="#WenQuanYiZenHei-32" x="119.921875"/>
       <use xlink:href="#WenQuanYiZenHei-32" x="179.882812"/>
       <use xlink:href="#WenQuanYiZenHei-2d" x="239.84375"/>
       <use xlink:href="#WenQuanYiZenHei-30" x="269.824219"/>
       <use xlink:href="#WenQuanYiZenHei-37" x="329.785156"/>
      </g>
     </g>
    </g>
   </g>
   <g id="matplotlib.axis_2">
    <g id="ytick_1">
     <g id="line2d_12">
      <defs>
       <path id="ma68a246854" d="M 0 0 
L -3.5 0 
" style="stroke: #000000; stroke-width: 0.8"/>
      </defs>
      <g>
       <use xlink:href="#ma68a246854" x="26.19375" y="350.372457" style="stroke: #000000; stroke-width: 0.8"/>
      </g>
     </g>
     <g id="text_12">
      <!-- 0 -->
      <g transform="translate(13.196875 353.800582)scale(0.1 -0.1)">
       <use xlink:href="#WenQuanYiZenHei-30"/>
      </g>
     </g>
    </g>
    <g id="ytick_2">
     <g id="line2d_13">
      <g>
       <use xlink:href="#ma68a246854" x="26.19375" y="284.396312" style="stroke: #000000; stroke-width: 0.8"/>
      </g>
     </g>
     <g id="text_13">
      <!-- 20 -->
      <g transform="translate(7.2 287.824437)scale(0.1 -0.1)">
       <use xlink:href="#WenQuanYiZenHei-32"/>
       <use xlink:href="#WenQuanYiZenHei-30" x="59.960938"/>
      </g>
     </g>
    </g>
    <g id="ytick_3">
     <g id="line2d_14">
      <g>
       <use xlink:href="#ma68a246854" x="26.19375" y="218.420168" style="stroke: #000000; stroke-width: 0.8"/>
      </g>
     </g>
     <g id="text_14">
      <!-- 40 -->
      <g transform="translate(7.2 221.848293)scale(0.1 -0.1)">
       <use xlink:href="#WenQuanYiZenHei-34"/>
       <use xlink:href="#WenQuanYiZenHei-30" x="59.960938"/>
      </g>
     </g>
    </g>
    <g id="ytick_4">
     <g id="line2d_15">
      <g>
       <use xlink:href="#ma68a246854" x="26.19375" y="152.444024" style="stroke: #000000; stroke-width: 0.8"/>
      </g>
     </g>
     <g id="text_15">
      <!-- 60 -->
      <g transform="translate(7.2 155.872149)scale(0.1 -0.1)">
       <defs>
        <path id="WenQuanYiZenHei-36" d="M 3550 1431 
Q 3550 725 3006 288 
Q 2581 -63 1994 -63 
Q 1013 -63 563 825 
Q 288 1363 288 2081 
Q 288 3294 856 3938 
Q 1319 4456 2075 4456 
Q 2969 4456 3363 3756 
Q 3431 3631 3481 3481 
L 2988 3350 
Q 2750 3994 2075 4006 
Q 1056 4006 844 2669 
Q 794 2356 794 1981 
L 806 1981 
Q 1006 2506 1544 2744 
Q 1819 2869 2119 2869 
Q 2788 2869 3213 2375 
Q 3550 1975 3550 1431 
z
M 3038 1406 
Q 3038 1906 2656 2213 
Q 2381 2431 2038 2431 
Q 1525 2431 1181 2044 
Q 919 1744 919 1356 
Q 919 881 1344 581 
Q 1631 375 1981 375 
Q 2519 375 2838 781 
Q 3038 1050 3038 1406 
z
" transform="scale(0.015625)"/>
       </defs>
       <use xlink:href="#WenQuanYiZenHei-36"/>
       <use xlink:href="#WenQuanYiZenHei-30" x="59.960938"/>
      </g>
     </g>
    </g>
    <g id="ytick_5">
     <g id="line2d_16">
      <g>
       <use xlink:href="#ma68a246854" x="26.19375" y="86.467879" style="stroke: #000000; stroke-width: 0.8"/>
      </g>
     </g>
     <g id="text_16">
      <!-- 80 -->
      <g transform="translate(7.2 89.896004)scale(0.1 -0.1)">
       <defs>
        <path id="WenQuanYiZenHei-38" d="M 3619 1175 
Q 3619 431 2850 100 
Q 2444 -63 1944 -63 
Q 1231 -63 725 269 
Q 225 594 225 1125 
Q 225 1881 1269 2281 
Q 719 2481 519 2938 
Q 444 3119 444 3319 
Q 444 4000 1144 4294 
Q 1519 4456 1963 4456 
Q 2669 4456 3094 4094 
Q 3425 3813 3425 3369 
Q 3425 2638 2575 2356 
Q 3231 2056 3450 1725 
Q 3619 1488 3619 1175 
z
M 2944 3344 
Q 2944 3906 2288 4019 
Q 2138 4044 1969 4044 
Q 1438 4044 1163 3775 
Q 1000 3613 1000 3375 
Q 1000 2925 1594 2663 
Q 1756 2588 1931 2550 
Q 2581 2725 2788 2956 
Q 2944 3125 2944 3344 
z
M 3075 1094 
Q 3075 1738 1875 2050 
Q 1094 1881 850 1463 
Q 763 1313 763 1131 
Q 763 569 1456 406 
Q 1681 344 1944 344 
Q 2519 344 2850 619 
Q 3075 813 3075 1094 
z
" transform="scale(0.015625)"/>
       </defs>
       <use xlink:href="#WenQuanYiZenHei-38"/>
       <use xlink:href="#WenQuanYiZenHei-30" x="59.960938"/>
      </g>
     </g>
    </g>
   </g>
   <g id="line2d_17">
    <path d="M 87.066477 350.372457 
L 88.41471 347.073649 
L 89.762944 330.579613 
L 91.111177 350.372457 
L 92.45941 337.177228 
L 93.807643 337.177228 
L 95.155876 347.073649 
L 96.504109 340.476035 
L 97.852343 347.073649 
L 99.200576 340.476035 
L 100.548809 337.177228 
L 101.897042 327.280806 
L 103.245275 347.073649 
L 104.593508 327.280806 
L 105.941742 337.177228 
L 107.289975 337.177228 
L 108.638208 343.774842 
L 109.986441 343.774842 
L 111.334674 337.177228 
L 112.682907 350.372457 
L 114.031141 343.774842 
L 115.379374 347.073649 
L 116.727607 337.177228 
L 119.424073 343.774842 
L 120.772306 343.774842 
L 122.120539 347.073649 
L 123.468773 343.774842 
L 124.817006 350.372457 
L 169.3087 350.372457 
L 170.656933 343.774842 
L 172.005166 310.78677 
L 173.3534 340.476035 
L 176.049866 347.073649 
L 177.398099 343.774842 
L 178.746332 317.384384 
L 180.094565 337.177228 
L 181.442799 330.579613 
L 182.791032 350.372457 
L 185.487498 350.372457 
L 186.835731 347.073649 
L 188.183964 340.476035 
L 189.532198 340.476035 
L 190.880431 343.774842 
L 192.228664 343.774842 
L 193.576897 261.304662 
L 194.92513 238.213011 
L 196.273363 347.073649 
L 197.621597 350.372457 
L 198.96983 350.372457 
L 200.318063 340.476035 
L 201.666296 350.372457 
L 204.362762 350.372457 
L 205.710996 347.073649 
L 207.059229 350.372457 
L 209.755695 350.372457 
L 211.103928 340.476035 
L 212.452161 347.073649 
L 213.800395 350.372457 
L 215.148628 347.073649 
L 216.496861 350.372457 
L 217.845094 347.073649 
L 219.193327 347.073649 
L 220.54156 350.372457 
L 231.327426 350.372457 
L 232.675659 327.280806 
L 234.023892 347.073649 
L 235.372125 350.372457 
L 240.765058 350.372457 
L 242.113291 337.177228 
L 243.461524 340.476035 
L 244.809757 350.372457 
L 247.506224 350.372457 
L 248.854457 347.073649 
L 250.20269 350.372457 
L 251.550923 317.384384 
L 254.247389 350.372457 
L 259.640322 350.372457 
L 260.988555 340.476035 
L 262.336788 350.372457 
L 271.77442 350.372457 
L 273.122654 343.774842 
L 274.470887 350.372457 
L 279.863819 350.372457 
L 281.212053 347.073649 
L 282.560286 350.372457 
L 306.828483 350.372457 
L 308.176716 347.073649 
L 309.524949 347.073649 
L 310.873182 337.177228 
L 312.221415 350.372457 
L 314.917882 350.372457 
L 316.266115 347.073649 
L 317.614348 337.177228 
L 318.962581 350.372457 
L 329.748446 350.372457 
L 331.09668 347.073649 
L 332.444913 350.372457 
L 333.793146 347.073649 
L 335.141379 333.87842 
L 336.489612 343.774842 
L 337.837845 350.372457 
L 356.71311 350.372457 
L 358.061343 347.073649 
L 359.409576 350.372457 
L 360.757809 350.372457 
L 362.106042 347.073649 
L 363.454276 350.372457 
L 383.677773 350.372457 
L 385.026006 347.073649 
L 386.374239 350.372457 
L 410.642436 350.372457 
L 411.990669 343.774842 
L 413.338903 350.372457 
L 420.080068 350.372457 
L 421.428301 340.476035 
L 422.776535 350.372457 
L 429.5177 350.372457 
L 430.865934 343.774842 
L 432.214167 350.372457 
L 438.955333 350.372457 
L 440.303566 347.073649 
L 441.651799 347.073649 
L 443.000032 350.372457 
L 444.348265 350.372457 
L 445.696498 333.87842 
L 447.044732 350.372457 
L 457.830597 350.372457 
L 459.17883 343.774842 
L 460.527063 347.073649 
L 461.875296 347.073649 
L 463.22353 323.981999 
L 464.571763 350.372457 
L 465.919996 347.073649 
L 467.268229 340.476035 
L 468.616462 350.372457 
L 469.964695 337.177228 
L 471.312928 343.774842 
L 472.661162 347.073649 
L 475.357628 340.476035 
L 476.705861 350.372457 
L 478.054094 343.774842 
L 479.402327 350.372457 
L 480.750561 350.372457 
L 482.098794 347.073649 
L 483.447027 347.073649 
L 484.79526 350.372457 
L 490.188193 350.372457 
L 491.536426 347.073649 
L 492.884659 350.372457 
L 494.232892 350.372457 
L 495.581125 343.774842 
L 496.929359 350.372457 
L 498.277592 347.073649 
L 499.625825 350.372457 
L 500.974058 320.683192 
L 502.322291 350.372457 
L 505.018758 350.372457 
L 506.366991 340.476035 
L 507.715224 337.177228 
L 509.063457 343.774842 
L 510.41169 347.073649 
L 511.759923 340.476035 
L 513.108157 350.372457 
L 514.45639 350.372457 
L 515.804623 340.476035 
L 517.152856 350.372457 
L 518.501089 350.372457 
L 519.849322 347.073649 
L 521.197555 350.372457 
L 523.894022 350.372457 
L 525.242255 347.073649 
L 526.590488 337.177228 
L 527.938721 350.372457 
L 531.983421 350.372457 
L 533.331654 343.774842 
L 534.679887 330.579613 
L 536.02812 343.774842 
L 537.376353 350.372457 
L 542.769286 350.372457 
L 544.117519 330.579613 
L 545.465752 347.073649 
L 548.162219 340.476035 
L 549.510452 350.372457 
L 550.858685 350.372457 
L 552.206918 347.073649 
L 553.555151 347.073649 
L 554.903385 350.372457 
L 607.484478 350.372457 
L 608.832711 347.073649 
L 610.180944 350.372457 
L 637.145607 350.372457 
L 638.493841 347.073649 
L 639.842074 350.372457 
L 645.235006 350.372457 
L 646.58324 347.073649 
L 647.931473 350.372457 
L 654.672639 350.372457 
L 656.020872 347.073649 
L 657.369105 350.372457 
L 658.717338 350.372457 
L 660.065571 347.073649 
L 661.413804 350.372457 
L 664.110271 350.372457 
L 665.458504 340.476035 
L 666.806737 350.372457 
L 669.503203 350.372457 
L 670.851436 347.073649 
L 672.19967 350.372457 
L 674.896136 350.372457 
L 676.244369 347.073649 
L 677.592602 350.372457 
L 678.940835 350.372457 
L 680.289069 347.073649 
L 681.637302 350.372457 
L 691.074934 350.372457 
L 692.423167 347.073649 
L 693.7714 347.073649 
L 695.119633 350.372457 
L 704.557266 350.372457 
L 705.905499 347.073649 
L 707.253732 350.372457 
L 712.646665 350.372457 
L 713.994898 347.073649 
L 715.343131 350.372457 
L 716.691364 347.073649 
L 718.039597 350.372457 
L 726.128996 350.372457 
L 727.477229 347.073649 
L 728.825462 350.372457 
L 730.173696 350.372457 
L 731.521929 347.073649 
L 732.870162 350.372457 
L 740.959561 350.372457 
L 742.307794 347.073649 
L 743.656027 350.372457 
L 745.00426 350.372457 
L 746.352494 347.073649 
L 747.700727 350.372457 
L 749.04896 350.372457 
L 750.397193 347.073649 
L 751.745426 350.372457 
L 755.790126 350.372457 
L 757.138359 347.073649 
L 758.486592 350.372457 
L 761.183058 350.372457 
L 762.531292 343.774842 
L 763.879525 350.372457 
L 769.272457 350.372457 
L 770.620691 340.476035 
L 771.968924 350.372457 
L 780.058323 350.372457 
L 781.406556 347.073649 
L 782.754789 350.372457 
L 807.022986 350.372457 
L 808.371219 340.476035 
L 809.719452 350.372457 
L 815.112385 350.372457 
L 816.460618 347.073649 
L 817.808851 347.073649 
L 819.157084 350.372457 
L 824.550017 350.372457 
L 825.89825 343.774842 
L 827.246483 343.774842 
L 828.594716 350.372457 
L 833.987649 350.372457 
L 835.335882 343.774842 
L 836.684115 340.476035 
L 838.032349 350.372457 
L 840.728815 350.372457 
L 842.077048 347.073649 
L 843.425281 350.372457 
L 844.773514 350.372457 
L 846.121748 347.073649 
L 847.469981 350.372457 
L 858.255846 350.372457 
L 859.604079 347.073649 
L 860.952312 350.372457 
L 862.300546 347.073649 
L 863.648779 350.372457 
L 881.17581 350.372457 
L 882.524043 343.774842 
L 883.872276 350.372457 
L 890.613442 350.372457 
L 891.961675 343.774842 
L 893.309908 350.372457 
L 909.488706 350.372457 
L 910.836939 343.774842 
L 912.185173 350.372457 
L 916.229872 350.372457 
L 917.578105 347.073649 
L 918.926338 350.372457 
L 920.274572 350.372457 
L 921.622805 347.073649 
L 922.971038 350.372457 
L 929.712204 350.372457 
L 931.060437 347.073649 
L 932.40867 350.372457 
L 933.756903 350.372457 
L 935.105136 347.073649 
L 936.453369 350.372457 
L 937.801603 350.372457 
L 939.149836 347.073649 
L 940.498069 350.372457 
L 941.846302 343.774842 
L 943.194535 323.981999 
L 944.542768 343.774842 
L 945.891002 297.591541 
L 947.239235 330.579613 
L 948.587468 327.280806 
L 949.935701 287.695119 
L 951.283934 297.591541 
L 952.632167 244.810626 
L 953.980401 327.280806 
L 955.328634 284.396312 
L 956.676867 281.097505 
L 958.0251 310.78677 
L 960.721566 343.774842 
L 962.0698 330.579613 
L 963.418033 343.774842 
L 964.766266 343.774842 
L 967.462732 350.372457 
L 968.810965 343.774842 
L 970.159199 350.372457 
L 972.855665 350.372457 
L 974.203898 347.073649 
L 975.552131 337.177228 
L 976.900364 350.372457 
L 995.775629 350.372457 
L 997.123862 284.396312 
L 998.472095 281.097505 
L 999.820328 50.181 
L 1001.168561 175.535674 
L 1002.516794 165.639253 
L 1003.865028 149.145216 
L 1005.213261 251.40824 
L 1006.561494 258.005855 
L 1007.909727 168.93806 
L 1009.25796 238.213011 
L 1010.606193 211.822554 
L 1011.954427 271.201083 
L 1013.30266 300.890348 
L 1015.999126 333.87842 
L 1017.347359 333.87842 
L 1018.695592 340.476035 
L 1020.043826 343.774842 
L 1021.392059 337.177228 
L 1022.740292 347.073649 
L 1024.088525 350.372457 
L 1025.436758 327.280806 
L 1026.784991 350.372457 
L 1029.481458 350.372457 
L 1030.829691 347.073649 
L 1032.177924 350.372457 
L 1044.312022 350.372457 
L 1045.660256 333.87842 
L 1047.008489 350.372457 
L 1102.286048 350.372457 
L 1103.634282 327.280806 
L 1104.982515 340.476035 
L 1106.330748 277.798698 
L 1107.678981 198.627325 
L 1109.027214 135.949988 
L 1110.375447 244.810626 
L 1111.723681 284.396312 
L 1113.071914 195.328517 
L 1114.420147 218.420168 
L 1115.76838 251.40824 
L 1117.116613 244.810626 
L 1118.464846 225.017782 
L 1119.81308 314.085577 
L 1121.161313 304.189156 
L 1122.509546 297.591541 
L 1123.857779 327.280806 
L 1125.206012 320.683192 
L 1126.554245 323.981999 
L 1127.902478 320.683192 
L 1129.250712 327.280806 
L 1130.598945 343.774842 
L 1131.947178 340.476035 
L 1133.295411 340.476035 
L 1135.991877 347.073649 
L 1137.340111 347.073649 
L 1138.688344 350.372457 
L 1142.733043 350.372457 
L 1144.081276 327.280806 
L 1145.42951 350.372457 
L 1146.777743 350.372457 
L 1148.125976 343.774842 
L 1149.474209 343.774842 
L 1150.822442 350.372457 
L 1153.518909 350.372457 
L 1154.867142 337.177228 
L 1156.215375 350.372457 
L 1158.911841 350.372457 
L 1160.260074 347.073649 
L 1161.608308 347.073649 
L 1162.956541 350.372457 
L 1167.00124 350.372457 
L 1168.349473 347.073649 
L 1169.697707 350.372457 
L 1172.394173 343.774842 
L 1173.742406 350.372457 
L 1176.438872 350.372457 
L 1177.787105 347.073649 
L 1179.135339 350.372457 
L 1180.483572 350.372457 
L 1181.831805 343.774842 
L 1184.528271 350.372457 
L 1185.876504 347.073649 
L 1187.224738 347.073649 
L 1188.572971 350.372457 
L 1189.921204 347.073649 
L 1191.269437 350.372457 
L 1192.61767 330.579613 
L 1193.965903 330.579613 
L 1195.314137 317.384384 
L 1196.66237 327.280806 
L 1198.010603 327.280806 
L 1199.358836 320.683192 
L 1200.707069 340.476035 
L 1202.055302 330.579613 
L 1203.403536 343.774842 
L 1204.751769 347.073649 
L 1206.100002 347.073649 
L 1207.448235 350.372457 
L 1211.492935 350.372457 
L 1212.841168 347.073649 
L 1214.189401 350.372457 
L 1246.546997 350.372457 
L 1247.89523 340.476035 
L 1249.243463 314.085577 
L 1250.591696 350.372457 
L 1251.939929 261.304662 
L 1253.288163 284.396312 
L 1254.636396 234.914204 
L 1255.984629 228.31659 
L 1257.332862 300.890348 
L 1258.681095 287.695119 
L 1260.029328 93.065494 
L 1261.377562 261.304662 
L 1262.725795 300.890348 
L 1265.422261 307.487963 
L 1266.770494 330.579613 
L 1268.118727 333.87842 
L 1269.466961 347.073649 
L 1270.815194 350.372457 
L 1272.163427 350.372457 
L 1273.51166 343.774842 
L 1274.859893 347.073649 
L 1276.208126 300.890348 
L 1277.556359 350.372457 
L 1285.645758 350.372457 
L 1286.993992 347.073649 
L 1286.993992 347.073649 
" clip-path="url(#p9b1dedc660)" style="fill: none; stroke: #0000ff; stroke-width: 1.5; stroke-linecap: square"/>
   </g>
   <g id="line2d_18">
    <path d="M 1047.008489 346.372031 
L 1048.356722 348.74153 
L 1049.704955 349.692136 
L 1051.053188 350.092691 
L 1052.401421 350.261142 
L 1053.749655 351.209811 
L 1055.097888 349.8293 
L 1056.446121 350.149633 
L 1059.142587 350.334577 
L 1067.231986 350.367566 
L 1102.286048 350.372456 
L 1103.634282 336.753092 
L 1104.982515 338.948869 
L 1106.330748 302.88274 
L 1109.027214 179.203256 
L 1111.723681 258.359719 
L 1113.071914 220.474917 
L 1114.420147 222.631968 
L 1115.76838 243.859594 
L 1117.116613 247.789442 
L 1118.464846 228.507502 
L 1119.81308 276.853364 
L 1121.161313 297.830052 
L 1122.509546 296.410071 
L 1123.857779 313.025467 
L 1126.554245 322.824522 
L 1127.902478 316.459632 
L 1129.250712 323.259487 
L 1130.598945 335.974899 
L 1131.947178 336.965077 
L 1134.643644 341.795289 
L 1135.991877 345.152674 
L 1137.340111 345.656802 
L 1140.036577 349.4349 
L 1141.38481 349.898395 
L 1142.733043 350.015144 
L 1144.081276 336.421364 
L 1145.42951 344.662791 
L 1146.777743 347.819215 
L 1148.125976 345.387413 
L 1149.474209 344.447634 
L 1150.822442 347.937262 
L 1152.170675 350.605963 
L 1153.518909 349.217103 
L 1154.867142 342.116738 
L 1156.215375 347.329205 
L 1157.563608 349.121606 
L 1158.911841 349.505336 
L 1160.260074 348.070878 
L 1161.608308 347.54896 
L 1162.956541 349.856247 
L 1164.304774 349.451494 
L 1165.653007 350.013125 
L 1167.00124 350.224923 
L 1168.349473 348.524598 
L 1169.697707 349.614444 
L 1171.04594 347.942142 
L 1172.394173 345.518793 
L 1173.742406 348.343344 
L 1175.090639 349.541098 
L 1176.438872 350.208735 
L 1177.787105 348.19087 
L 1179.135339 349.654872 
L 1180.483572 350.246074 
L 1181.831805 346.076597 
L 1183.180038 346.662606 
L 1184.528271 348.850714 
L 1185.876504 347.989451 
L 1187.224738 347.262929 
L 1188.572971 349.106447 
L 1189.921204 348.271164 
L 1191.269437 349.314224 
L 1192.61767 338.087202 
L 1193.965903 333.836571 
L 1195.314137 324.143179 
L 1196.66237 325.806409 
L 1198.010603 326.853827 
L 1199.358836 323.056645 
L 1200.707069 334.383856 
L 1202.055302 332.130592 
L 1203.403536 339.717105 
L 1204.751769 343.524569 
L 1206.100002 345.607733 
L 1207.448235 348.782131 
L 1208.796468 348.647745 
L 1210.144701 350.253527 
L 1211.492935 349.613909 
L 1212.841168 347.976996 
L 1214.189401 349.361267 
L 1216.885867 350.148925 
L 1219.582334 350.342835 
L 1220.930567 350.499468 
L 1222.2788 350.239791 
L 1226.323499 350.360172 
L 1246.546997 350.372433 
L 1247.89523 344.535582 
L 1249.243463 326.576311 
L 1250.591696 340.611155 
L 1251.939929 293.836499 
L 1253.288163 288.268713 
L 1254.636396 256.800435 
L 1255.984629 240.532712 
L 1257.332862 277.549906 
L 1258.681095 281.583078 
L 1260.029328 175.183584 
L 1262.725795 272.311328 
L 1264.074028 291.467369 
L 1265.422261 297.043973 
L 1268.118727 337.561087 
L 1269.466961 334.385958 
L 1270.815194 341.62027 
L 1272.163427 346.747922 
L 1273.51166 344.83616 
L 1274.859893 344.7065 
L 1276.208126 318.728816 
L 1277.556359 337.239532 
L 1278.904593 344.335737 
L 1280.252826 347.778217 
L 1281.601059 349.661067 
L 1282.949292 349.894823 
L 1284.297525 352.581 
L 1285.645758 348.611464 
L 1286.993992 347.696266 
L 1286.993992 347.696266 
" clip-path="url(#p9b1dedc660)" style="fill: none; stroke: #ffa500; stroke-width: 1.5; stroke-linecap: square"/>
   </g>
   <g id="line2d_19">
    <path d="M 1286.993992 347.696266 
L 1288.342225 347.661353 
L 1289.690458 347.655013 
L 1291.038691 347.673975 
L 1292.386924 347.663987 
L 1293.735157 347.793228 
L 1295.083391 347.827191 
L 1296.431624 347.793284 
L 1297.779857 347.793284 
L 1299.12809 347.793284 
L 1300.476323 347.793284 
L 1301.824556 347.793284 
L 1303.17279 347.793284 
L 1304.521023 347.793284 
" clip-path="url(#p9b1dedc660)" style="fill: none; stroke: #ff0000; stroke-width: 1.5; stroke-linecap: square"/>
   </g>
   <g id="patch_3">
    <path d="M 26.19375 367.701 
L 26.19375 35.061 
" style="fill: none; stroke: #000000; stroke-width: 0.8; stroke-linejoin: miter; stroke-linecap: square"/>
   </g>
   <g id="patch_4">
    <path d="M 1365.39375 367.701 
L 1365.39375 35.061 
" style="fill: none; stroke: #000000; stroke-width: 0.8; stroke-linejoin: miter; stroke-linecap: square"/>
   </g>
   <g id="patch_5">
    <path d="M 26.19375 367.701 
L 1365.39375 367.701 
" style="fill: none; stroke: #000000; stroke-width: 0.8; stroke-linejoin: miter; stroke-linecap: square"/>
   </g>
   <g id="patch_6">
    <path d="M 26.19375 35.061 
L 1365.39375 35.061 
" style="fill: none; stroke: #000000; stroke-width: 0.8; stroke-linejoin: miter; stroke-linecap: square"/>
   </g>
   <g id="text_17">
    <!-- 每日新增预测 - 内蒙古 -->
    <g transform="translate(636.396563 17.041875)scale(0.12 -0.12)">
     <defs>
      <path id="WenQuanYiZenHei-6bcf" d="M 6138 2181 
Q 6113 1988 6138 1800 
Q 5788 1819 5438 1819 
L 4975 1819 
L 4863 738 
L 5806 738 
L 5806 394 
L 4831 394 
L 4775 -144 
Q 4719 -563 4350 -725 
Q 4013 -856 3550 -825 
L 3288 -819 
Q 3331 -663 3275 -519 
Q 3219 -375 3113 -288 
Q 3381 -313 3759 -303 
Q 4138 -294 4231 -238 
Q 4338 -163 4350 88 
L 4381 394 
L 1025 394 
L 1244 1819 
L 813 1819 
Q 463 1819 113 1800 
Q 138 1988 113 2181 
Q 463 2163 813 2163 
L 1294 2163 
L 1488 3431 
L 1488 3581 
L 1506 3581 
L 1513 3613 
L 1713 3581 
L 5156 3581 
L 5013 2163 
L 5438 2163 
Q 5788 2163 6138 2181 
z
M 5588 4463 
Q 5569 4269 5588 4081 
Q 5244 4100 4894 4100 
L 1813 4100 
Q 1344 3463 606 2788 
Q 481 2988 256 3069 
Q 744 3494 1116 3972 
Q 1488 4450 1919 5181 
Q 2119 5044 2344 4950 
Q 2213 4688 2050 4444 
L 4894 4444 
Q 5238 4444 5588 4463 
z
M 2844 3238 
L 1906 3238 
L 1744 2163 
L 3244 2163 
L 2581 3038 
L 2844 3238 
z
M 3250 2163 
L 4563 2163 
L 4669 3238 
L 3044 3238 
L 3638 2456 
L 3250 2163 
z
M 2944 1819 
Q 3275 1394 3550 938 
L 3213 738 
L 4419 738 
L 4525 1819 
L 2944 1819 
z
M 2656 1819 
L 1694 1819 
L 1525 738 
L 3094 738 
Q 2806 1219 2450 1650 
L 2656 1819 
z
" transform="scale(0.015625)"/>
      <path id="WenQuanYiZenHei-65e5" d="M 1494 -775 
Q 1244 -750 988 -775 
Q 1013 -313 1013 156 
L 1013 4875 
L 5269 4875 
L 5269 -763 
L 4813 -763 
L 4813 156 
L 1469 156 
Q 1469 -313 1494 -775 
z
M 4813 2700 
L 4813 4500 
L 1469 4500 
L 1469 2700 
L 4813 2700 
z
M 4813 531 
L 4813 2325 
L 1469 2325 
L 1469 531 
L 4813 531 
z
" transform="scale(0.015625)"/>
      <path id="WenQuanYiZenHei-65b0" d="M 5419 -763 
Q 5188 -738 4963 -763 
Q 4981 -344 4981 75 
L 4981 2819 
L 4188 2819 
L 4188 1706 
Q 4188 63 3163 -738 
Q 3019 -519 2769 -469 
Q 3769 131 3769 1706 
L 3769 4769 
L 3875 4769 
L 3844 4831 
L 4294 4781 
Q 4438 4769 4894 4816 
Q 5350 4863 5512 4931 
Q 5675 5000 5763 5094 
Q 5850 4881 5981 4694 
Q 5713 4544 5263 4519 
L 4188 4438 
L 4188 3100 
L 5563 3100 
Q 5850 3100 6131 3113 
Q 6119 2956 6131 2806 
L 5394 2819 
L 5394 75 
Q 5394 -344 5419 -763 
z
M 2981 213 
Q 2656 744 2256 1225 
L 2606 1513 
Q 3025 1006 3369 450 
L 2981 213 
z
M 1169 1525 
Q 1375 1419 1594 1363 
Q 1281 488 469 -469 
Q 331 -300 119 -244 
Q 575 263 888 900 
Q 1038 1206 1169 1525 
z
M 1825 6 
L 1825 1769 
L 1081 1769 
Q 794 1769 513 1756 
Q 525 1913 513 2063 
Q 794 2050 1081 2050 
L 1825 2050 
L 1825 2775 
L 994 2775 
Q 706 2775 425 2763 
Q 438 2919 425 3075 
Q 706 3056 994 3056 
L 1825 3056 
L 1825 3088 
L 1906 3088 
Q 2288 3656 2588 4381 
Q 2794 4269 3013 4206 
Q 2800 3675 2381 3056 
L 3013 3056 
Q 3294 3056 3581 3075 
Q 3563 2919 3581 2763 
Q 3294 2775 3013 2775 
L 2238 2775 
L 2238 2050 
L 2925 2050 
Q 3206 2050 3494 2063 
Q 3475 1913 3494 1756 
Q 3206 1769 2925 1769 
L 2238 1769 
L 2238 -156 
Q 2238 -413 2075 -581 
Q 1844 -794 1306 -794 
Q 1363 -519 1188 -288 
Q 1338 -313 1534 -316 
Q 1731 -319 1778 -278 
Q 1825 -238 1825 6 
z
M 1875 3388 
L 1500 3131 
L 825 4088 
L 1200 4350 
L 1875 3388 
z
M 3419 4713 
Q 3400 4563 3419 4406 
Q 3131 4419 2850 4419 
L 1125 4419 
Q 838 4419 556 4406 
Q 569 4563 556 4713 
Q 838 4700 1125 4700 
L 1763 4700 
L 1388 5088 
L 1719 5406 
L 2288 4813 
L 2175 4700 
L 2850 4700 
Q 3131 4700 3419 4713 
z
" transform="scale(0.015625)"/>
      <path id="WenQuanYiZenHei-589e" d="M 3138 -769 
Q 2913 -744 2688 -769 
Q 2706 -356 2706 56 
L 2706 1719 
L 5706 1719 
L 5706 -756 
L 5300 -756 
L 5300 -338 
L 3119 -338 
Q 3125 -550 3138 -769 
z
M 5113 3569 
Q 5344 3606 5563 3688 
Q 5669 3175 5256 2694 
Q 5113 2519 4975 2506 
Q 4831 2725 4588 2813 
Q 4806 2831 4997 3068 
Q 5188 3306 5113 3569 
z
M 3850 2763 
L 3469 2538 
L 2925 3456 
L 3313 3681 
L 3850 2763 
z
M 2400 2100 
Q 2469 3138 2400 4175 
L 3413 4175 
Q 3138 4550 2825 4888 
L 3156 5194 
Q 3581 4725 3938 4206 
L 3900 4175 
L 4456 4175 
Q 4863 4575 5131 5163 
Q 5325 5044 5538 4975 
Q 5369 4575 5013 4175 
L 6056 4175 
Q 5981 3138 6056 2100 
L 2400 2100 
z
M 5300 806 
L 5300 1450 
L 3113 1450 
Q 3113 1125 3113 806 
L 5300 806 
z
M 5300 563 
L 3113 563 
L 3113 -94 
L 5300 -94 
L 5300 563 
z
M 4431 3913 
L 4431 2363 
L 5650 2363 
L 5650 3913 
L 4756 3913 
L 4700 3856 
Q 4681 3888 4656 3913 
L 4431 3913 
z
M 4025 3913 
L 2806 3913 
L 2806 2363 
L 4025 2363 
L 4025 3913 
z
M -31 625 
Q 506 763 1006 975 
L 1006 3206 
L 669 3206 
Q 369 3206 75 3188 
Q 94 3356 75 3531 
Q 369 3513 669 3513 
L 1006 3513 
L 1006 4263 
Q 1006 4700 981 5131 
Q 1206 5106 1431 5131 
Q 1413 4700 1413 4263 
L 1413 3513 
L 2238 3531 
Q 2219 3356 2238 3188 
L 1413 3206 
L 1413 1163 
L 2150 1531 
L 2194 1256 
Q 1269 775 813 519 
L 194 144 
Q 138 438 -31 625 
z
" transform="scale(0.015625)"/>
      <path id="WenQuanYiZenHei-9884" d="M 1206 19 
L 1206 2888 
L 669 2888 
Q 356 2888 50 2869 
Q 63 3044 50 3213 
Q 363 3194 669 3194 
L 1250 3194 
Q 950 3631 606 4031 
L 963 4338 
L 1263 3975 
L 1913 4719 
L 731 4719 
Q 419 4719 106 4706 
Q 125 4875 106 5044 
Q 419 5031 731 5031 
L 2481 5031 
L 2544 4663 
Q 2394 4613 2256 4466 
Q 2119 4319 1525 3631 
Q 1656 3444 1788 3250 
L 1700 3194 
L 2700 3194 
L 2763 2825 
Q 2656 2819 2613 2763 
L 2100 2038 
L 1750 2288 
L 2175 2888 
L 1638 2888 
L 1638 -150 
Q 1638 -525 1363 -669 
Q 1075 -819 525 -813 
Q 594 -513 388 -294 
Q 575 -313 837 -316 
Q 1100 -319 1153 -272 
Q 1206 -225 1206 19 
z
M 5813 -888 
Q 5100 -225 4306 375 
L 4669 719 
Q 5481 106 6219 -575 
L 5813 -888 
z
M 2375 -906 
Q 2294 -631 2025 -506 
Q 2769 -431 3353 19 
Q 3938 469 3938 1069 
L 3938 2200 
Q 3938 2625 3913 3050 
Q 4188 3025 4456 3050 
Q 4431 2625 4431 2200 
L 4431 1069 
Q 4431 681 4225 319 
Q 3644 -606 2375 -906 
z
M 3444 488 
Q 3169 513 2894 488 
Q 2919 913 2919 1338 
L 2919 3675 
Q 3219 3675 3525 3675 
Q 3750 4013 3931 4525 
L 3238 4525 
Q 2888 4525 2538 4513 
Q 2556 4669 2538 4831 
Q 2888 4813 3238 4813 
L 5313 4813 
Q 5663 4813 6006 4831 
Q 5988 4669 6006 4513 
Q 5663 4525 5313 4525 
L 4481 4525 
Q 4388 4088 4088 3675 
L 5644 3675 
L 5644 513 
L 5144 513 
L 5144 3388 
L 3894 3388 
L 3875 3363 
Q 3863 3375 3844 3388 
Q 3631 3388 3413 3388 
L 3419 1338 
Q 3419 913 3444 488 
z
" transform="scale(0.015625)"/>
      <path id="WenQuanYiZenHei-6d4b" d="M 5450 138 
L 5450 4306 
Q 5450 4750 5425 5188 
Q 5663 5163 5906 5188 
Q 5881 4750 5881 4306 
L 5881 -38 
Q 5888 -569 5519 -719 
Q 5194 -831 4825 -813 
Q 4894 -519 4694 -281 
Q 4869 -306 5094 -309 
Q 5319 -313 5384 -256 
Q 5450 -200 5450 138 
z
M 4900 938 
Q 4663 963 4419 938 
Q 4444 1375 4444 1819 
L 4444 3381 
Q 4444 3819 4419 4263 
Q 4663 4238 4900 4263 
Q 4875 3819 4875 3381 
L 4875 1819 
Q 4875 1375 4900 938 
z
M 2750 2025 
L 2750 3038 
Q 2750 3481 2725 3919 
Q 2963 3894 3206 3919 
Q 3181 3481 3181 3038 
L 3181 2025 
Q 3181 1263 2919 625 
L 3231 956 
Q 3781 431 4256 -150 
L 3888 -456 
Q 3431 106 2906 600 
Q 2531 -288 1738 -769 
Q 1606 -519 1338 -450 
Q 1988 -156 2369 478 
Q 2750 1113 2750 2025 
z
M 2363 969 
Q 2119 994 1881 969 
Q 1906 1406 1906 1850 
L 1906 5038 
L 3956 5031 
L 3956 1200 
L 3525 1200 
L 3525 4713 
L 2338 4713 
L 2338 1850 
Q 2338 1406 2363 969 
z
M 663 -738 
Q 481 -588 206 -575 
Q 400 -69 606 581 
Q 813 1231 1200 2838 
L 1381 2706 
L 875 338 
L 663 -738 
z
M 1006 2856 
L 731 2550 
L 75 3400 
L 350 3713 
L 1006 2856 
z
M 1088 3913 
Q 781 4388 425 4800 
L 694 5125 
Q 1069 4688 1388 4188 
L 1088 3913 
z
" transform="scale(0.015625)"/>
      <path id="WenQuanYiZenHei-20" transform="scale(0.015625)"/>
      <path id="WenQuanYiZenHei-5185" d="M 1025 194 
Q 1025 -275 1044 -750 
Q 788 -725 531 -750 
Q 556 -275 556 194 
L 556 3950 
L 2788 3950 
L 2788 4313 
Q 2788 4788 2763 5256 
Q 3019 5231 3275 5256 
Q 3250 4788 3250 4313 
L 3250 3950 
L 5750 3950 
L 5750 -81 
Q 5750 -500 5463 -663 
Q 5156 -825 4550 -819 
Q 4625 -494 4400 -256 
Q 4606 -275 4881 -278 
Q 5156 -281 5225 -231 
Q 5288 -150 5288 119 
L 5288 3556 
L 3250 3556 
L 3250 3188 
L 4219 2194 
L 5169 1144 
L 4781 806 
L 3844 1844 
L 3156 2550 
Q 2963 1800 2400 1219 
Q 1838 638 1100 388 
Q 1075 475 1025 550 
L 1025 194 
z
M 2788 3556 
L 1025 3556 
L 1025 881 
Q 1788 1144 2288 1797 
Q 2788 2450 2788 3269 
L 2788 3556 
z
" transform="scale(0.015625)"/>
      <path id="WenQuanYiZenHei-8499" d="M 1044 2156 
Q 781 2156 525 2144 
Q 538 2288 525 2425 
Q 781 2413 1044 2413 
L 2681 2413 
Q 2713 2450 2731 2413 
L 5256 2413 
Q 5513 2413 5775 2425 
Q 5756 2288 5775 2144 
Q 5513 2156 5256 2156 
L 2988 2156 
Q 3413 1950 3663 1281 
Q 4169 1500 4644 1850 
L 5031 2144 
Q 5156 1956 5319 1794 
Q 4906 1438 4313 1138 
Q 4881 63 6056 -81 
Q 5875 -250 5844 -494 
Q 5256 -406 4775 -18 
Q 4294 369 3975 975 
L 3781 888 
Q 4056 -369 2863 -813 
L 2625 -900 
Q 2538 -656 2300 -550 
Q 2606 -500 2881 -362 
Q 3156 -225 3269 -94 
Q 3531 231 3400 794 
Q 2800 206 2031 -212 
Q 1263 -631 369 -744 
Q 369 -481 219 -275 
Q 1594 -125 2475 556 
Q 2856 863 3244 1281 
Q 3206 1363 3175 1431 
Q 2150 425 444 131 
Q 444 350 313 525 
Q 1063 631 1650 931 
Q 2238 1231 2906 1744 
L 3163 1456 
Q 3000 1763 2763 1806 
Q 2694 1819 2619 1806 
Q 1744 1138 444 994 
Q 456 1213 338 1394 
Q 913 1444 1384 1634 
Q 1856 1825 2338 2156 
L 1044 2156 
z
M 4994 3063 
L 4994 2806 
L 1894 2806 
Q 1638 2806 1375 2794 
Q 1388 2931 1375 3075 
Q 1638 3063 1894 3063 
L 4994 3063 
z
M 800 2825 
L 381 2825 
L 381 3756 
L 5850 3756 
L 5850 2825 
L 5438 2825 
L 5438 3475 
L 800 3475 
L 800 2825 
z
M 4175 3913 
Q 3938 3931 3706 3913 
Q 3725 4175 3725 4431 
L 2381 4431 
Q 2388 4169 2400 3913 
Q 2169 3931 1938 3913 
Q 1950 4175 1956 4431 
L 719 4431 
Q 419 4431 119 4419 
Q 131 4556 119 4694 
Q 419 4681 719 4681 
L 1956 4681 
Q 1950 4981 1938 5281 
Q 2169 5263 2400 5281 
Q 2381 4975 2381 4681 
L 3725 4681 
Q 3725 4988 3706 5294 
Q 3938 5275 4175 5294 
Q 4156 4981 4150 4681 
L 5531 4681 
Q 5831 4681 6131 4694 
Q 6119 4556 6131 4419 
Q 5831 4431 5531 4431 
L 4156 4431 
Q 4156 4169 4175 3913 
z
" transform="scale(0.015625)"/>
      <path id="WenQuanYiZenHei-53e4" d="M 1238 2169 
L 2894 2169 
L 2894 3519 
L 875 3519 
Q 494 3519 113 3500 
Q 138 3706 113 3913 
Q 494 3894 875 3894 
L 2894 3894 
L 2894 4331 
Q 2894 4794 2875 5263 
Q 3125 5231 3375 5263 
Q 3356 4794 3356 4331 
L 3356 3894 
L 5375 3894 
Q 5756 3894 6138 3913 
Q 6113 3706 6138 3500 
Q 5756 3519 5375 3519 
L 3356 3519 
L 3356 2169 
L 4988 2169 
L 4988 -756 
L 4531 -756 
L 4531 -231 
L 1713 -231 
Q 1719 -500 1731 -769 
Q 1481 -738 1231 -769 
Q 1250 -300 1250 163 
L 1238 2169 
z
M 4531 144 
L 4531 1794 
L 1700 1794 
L 1706 144 
L 4531 144 
z
" transform="scale(0.015625)"/>
     </defs>
     <use xlink:href="#WenQuanYiZenHei-6bcf"/>
     <use xlink:href="#WenQuanYiZenHei-65e5" x="100"/>
     <use xlink:href="#WenQuanYiZenHei-65b0" x="200"/>
     <use xlink:href="#WenQuanYiZenHei-589e" x="300"/>
     <use xlink:href="#WenQuanYiZenHei-9884" x="400"/>
     <use xlink:href="#WenQuanYiZenHei-6d4b" x="500"/>
     <use xlink:href="#WenQuanYiZenHei-20" x="600"/>
     <use xlink:href="#WenQuanYiZenHei-2d" x="629.980469"/>
     <use xlink:href="#WenQuanYiZenHei-20" x="659.960938"/>
     <use xlink:href="#WenQuanYiZenHei-5185" x="689.941406"/>
     <use xlink:href="#WenQuanYiZenHei-8499" x="789.941406"/>
     <use xlink:href="#WenQuanYiZenHei-53e4" x="889.941406"/>
    </g>
    <!-- ARIMA (0, 1, 1)x(0, 0, 1, 7) (R2 = 0.919401) -->
    <g transform="translate(577.185938 29.061)scale(0.12 -0.12)">
     <defs>
      <path id="WenQuanYiZenHei-41" d="M 3550 0 
L 2988 0 
L 2550 1281 
L 919 1281 
L 531 0 
L 69 0 
L 1494 4388 
L 2125 4388 
L 3550 0 
z
M 2425 1694 
L 1756 3800 
L 1075 1694 
L 2425 1694 
z
" transform="scale(0.015625)"/>
      <path id="WenQuanYiZenHei-52" d="M 3675 0 
L 3100 0 
L 2288 1900 
L 1069 1900 
L 1069 0 
L 519 0 
L 519 4388 
L 2163 4388 
Q 3006 4388 3400 3900 
Q 3581 3663 3625 3325 
Q 3631 3250 3631 3163 
Q 3631 2594 3219 2244 
Q 3038 2100 2813 2038 
L 3675 0 
z
M 3081 3169 
Q 3081 3825 2356 3906 
Q 2263 3919 2163 3919 
L 1069 3919 
L 1069 2350 
L 2100 2350 
Q 2906 2350 3044 2919 
Q 3081 3031 3081 3169 
z
" transform="scale(0.015625)"/>
      <path id="WenQuanYiZenHei-49" d="M 1100 0 
L 550 0 
L 550 4388 
L 1100 4388 
L 1100 0 
z
" transform="scale(0.015625)"/>
      <path id="WenQuanYiZenHei-4d" d="M 4756 0 
L 4206 0 
L 4206 3831 
L 4181 3831 
L 2788 0 
L 2419 0 
L 1000 3831 
L 975 3831 
L 975 0 
L 513 0 
L 513 4388 
L 1331 4388 
L 2656 875 
L 3950 4388 
L 4756 4388 
L 4756 0 
z
" transform="scale(0.015625)"/>
      <path id="WenQuanYiZenHei-28" d="M 1606 -1094 
L 1275 -1094 
Q 475 -100 338 1231 
Q 319 1438 319 1656 
Q 319 3031 1156 4244 
Q 1213 4313 1269 4388 
L 1600 4388 
Q 806 3169 794 1681 
Q 794 188 1606 -1094 
z
" transform="scale(0.015625)"/>
      <path id="WenQuanYiZenHei-2c" d="M 1363 75 
L 881 -825 
L 606 -825 
L 994 0 
L 656 0 
L 656 738 
L 1363 738 
L 1363 75 
z
" transform="scale(0.015625)"/>
      <path id="WenQuanYiZenHei-29" d="M 1600 1656 
Q 1600 306 869 -788 
Q 769 -950 644 -1094 
L 313 -1094 
Q 1125 188 1125 1681 
Q 1125 3169 338 4363 
Q 325 4375 319 4388 
L 650 4388 
Q 1525 3231 1594 1863 
Q 1600 1763 1600 1656 
z
" transform="scale(0.015625)"/>
      <path id="WenQuanYiZenHei-78" d="M 2806 0 
L 2213 0 
L 1394 1319 
L 544 0 
L 50 0 
L 1144 1681 
L 163 3250 
L 744 3250 
L 1431 2138 
L 2144 3250 
L 2631 3250 
L 1681 1794 
L 2806 0 
z
" transform="scale(0.015625)"/>
      <path id="WenQuanYiZenHei-3d" d="M 3569 2256 
L 263 2256 
L 263 2675 
L 3569 2675 
L 3569 2256 
z
M 3569 1019 
L 263 1019 
L 263 1431 
L 3569 1431 
L 3569 1019 
z
" transform="scale(0.015625)"/>
      <path id="WenQuanYiZenHei-2e" d="M 1344 0 
L 631 0 
L 631 725 
L 1344 725 
L 1344 0 
z
" transform="scale(0.015625)"/>
      <path id="WenQuanYiZenHei-39" d="M 3544 2300 
Q 3544 1163 3019 513 
Q 2563 -63 1775 -63 
Q 956 -63 563 488 
Q 463 631 394 813 
L 838 975 
Q 1025 494 1550 388 
Q 1656 369 1775 369 
Q 2594 369 2900 1325 
Q 3044 1769 3038 2313 
L 3025 2313 
Q 2675 1638 1944 1544 
Q 1844 1531 1744 1531 
Q 1050 1531 625 2031 
Q 294 2419 294 2963 
Q 294 3656 813 4094 
Q 1238 4456 1819 4456 
Q 2988 4456 3381 3363 
Q 3544 2900 3544 2300 
z
M 2925 2994 
Q 2925 3563 2469 3844 
Q 2206 4006 1863 4006 
Q 1275 4006 988 3563 
Q 844 3344 825 3056 
Q 819 3006 819 2956 
Q 819 2413 1269 2131 
Q 1538 1963 1875 1963 
Q 2363 1963 2681 2350 
Q 2925 2638 2925 2994 
z
" transform="scale(0.015625)"/>
     </defs>
     <use xlink:href="#WenQuanYiZenHei-41"/>
     <use xlink:href="#WenQuanYiZenHei-52" x="55.957031"/>
     <use xlink:href="#WenQuanYiZenHei-49" x="117.871094"/>
     <use xlink:href="#WenQuanYiZenHei-4d" x="143.847656"/>
     <use xlink:href="#WenQuanYiZenHei-41" x="225.78125"/>
     <use xlink:href="#WenQuanYiZenHei-20" x="281.738281"/>
     <use xlink:href="#WenQuanYiZenHei-28" x="311.71875"/>
     <use xlink:href="#WenQuanYiZenHei-30" x="341.699219"/>
     <use xlink:href="#WenQuanYiZenHei-2c" x="401.660156"/>
     <use xlink:href="#WenQuanYiZenHei-20" x="431.640625"/>
     <use xlink:href="#WenQuanYiZenHei-31" x="461.621094"/>
     <use xlink:href="#WenQuanYiZenHei-2c" x="521.582031"/>
     <use xlink:href="#WenQuanYiZenHei-20" x="551.5625"/>
     <use xlink:href="#WenQuanYiZenHei-31" x="581.542969"/>
     <use xlink:href="#WenQuanYiZenHei-29" x="641.503906"/>
     <use xlink:href="#WenQuanYiZenHei-78" x="671.484375"/>
     <use xlink:href="#WenQuanYiZenHei-28" x="715.429688"/>
     <use xlink:href="#WenQuanYiZenHei-30" x="745.410156"/>
     <use xlink:href="#WenQuanYiZenHei-2c" x="805.371094"/>
     <use xlink:href="#WenQuanYiZenHei-20" x="835.351562"/>
     <use xlink:href="#WenQuanYiZenHei-30" x="865.332031"/>
     <use xlink:href="#WenQuanYiZenHei-2c" x="925.292969"/>
     <use xlink:href="#WenQuanYiZenHei-20" x="955.273438"/>
     <use xlink:href="#WenQuanYiZenHei-31" x="985.253906"/>
     <use xlink:href="#WenQuanYiZenHei-2c" x="1045.214844"/>
     <use xlink:href="#WenQuanYiZenHei-20" x="1075.195312"/>
     <use xlink:href="#WenQuanYiZenHei-37" x="1105.175781"/>
     <use xlink:href="#WenQuanYiZenHei-29" x="1165.136719"/>
     <use xlink:href="#WenQuanYiZenHei-20" x="1195.117188"/>
     <use xlink:href="#WenQuanYiZenHei-28" x="1225.097656"/>
     <use xlink:href="#WenQuanYiZenHei-52" x="1255.078125"/>
     <use xlink:href="#WenQuanYiZenHei-32" x="1316.992188"/>
     <use xlink:href="#WenQuanYiZenHei-20" x="1376.953125"/>
     <use xlink:href="#WenQuanYiZenHei-3d" x="1406.933594"/>
     <use xlink:href="#WenQuanYiZenHei-20" x="1466.894531"/>
     <use xlink:href="#WenQuanYiZenHei-30" x="1496.875"/>
     <use xlink:href="#WenQuanYiZenHei-2e" x="1556.835938"/>
     <use xlink:href="#WenQuanYiZenHei-39" x="1586.816406"/>
     <use xlink:href="#WenQuanYiZenHei-31" x="1646.777344"/>
     <use xlink:href="#WenQuanYiZenHei-39" x="1706.738281"/>
     <use xlink:href="#WenQuanYiZenHei-34" x="1766.699219"/>
     <use xlink:href="#WenQuanYiZenHei-30" x="1826.660156"/>
     <use xlink:href="#WenQuanYiZenHei-31" x="1886.621094"/>
     <use xlink:href="#WenQuanYiZenHei-29" x="1946.582031"/>
    </g>
   </g>
   <g id="legend_1">
    <g id="patch_7">
     <path d="M 1296.39375 87.056312 
L 1358.39375 87.056312 
Q 1360.39375 87.056312 1360.39375 85.056312 
L 1360.39375 42.061 
Q 1360.39375 40.061 1358.39375 40.061 
L 1296.39375 40.061 
Q 1294.39375 40.061 1294.39375 42.061 
L 1294.39375 85.056312 
Q 1294.39375 87.056312 1296.39375 87.056312 
z
" style="fill: #ffffff; opacity: 0.8; stroke: #cccccc; stroke-linejoin: miter"/>
    </g>
    <g id="line2d_20">
     <path d="M 1298.39375 48.695375 
L 1308.39375 48.695375 
L 1318.39375 48.695375 
" style="fill: none; stroke: #0000ff; stroke-width: 1.5; stroke-linecap: square"/>
    </g>
    <g id="text_18">
     <!-- 实际值 -->
     <g transform="translate(1326.39375 52.195375)scale(0.1 -0.1)">
      <defs>
       <path id="WenQuanYiZenHei-5b9e" d="M 1025 1175 
Q 694 1175 356 1163 
Q 375 1344 356 1525 
Q 694 1506 1025 1506 
L 3363 1506 
L 3363 2625 
Q 3363 3075 3338 3519 
Q 3581 3494 3825 3519 
Q 3800 3075 3800 2625 
L 3800 1506 
L 5406 1506 
Q 5744 1506 6075 1525 
Q 6056 1344 6075 1163 
Q 5744 1175 5406 1175 
L 4038 1175 
L 4981 456 
L 6131 -488 
L 5819 -856 
L 4681 75 
L 3638 875 
Q 3313 231 2475 -231 
Q 1638 -694 700 -825 
Q 638 -519 344 -400 
Q 1450 -319 2406 244 
Q 3113 656 3300 1175 
L 1025 1175 
z
M 2263 1581 
Q 1763 2081 1200 2513 
L 1494 2894 
Q 2081 2444 2600 1919 
L 2263 1581 
z
M 2638 2500 
Q 2219 2963 1731 3363 
L 2044 3738 
Q 2556 3313 3000 2819 
L 2638 2500 
z
M 919 3156 
L 481 3156 
L 481 4344 
L 3069 4344 
Q 2794 4731 2469 5081 
L 2825 5413 
Q 3256 4944 3613 4413 
L 3513 4344 
L 5869 4344 
L 5869 3156 
L 5425 3156 
L 5425 4013 
L 919 4013 
L 919 3156 
z
" transform="scale(0.015625)"/>
       <path id="WenQuanYiZenHei-9645" d="M 6000 431 
L 5569 194 
L 4963 1219 
L 4313 2219 
L 4719 2494 
L 5375 1481 
L 6000 431 
z
M 2956 2450 
Q 3181 2344 3419 2294 
Q 3006 1038 1944 -188 
Q 1794 -6 1569 56 
Q 2069 600 2372 1156 
Q 2675 1713 2956 2450 
z
M 3750 25 
L 3750 2913 
L 2819 2913 
Q 2475 2913 2125 2894 
Q 2144 3081 2125 3269 
Q 2475 3256 2819 3256 
L 5469 3256 
Q 5819 3256 6163 3269 
Q 6144 3081 6163 2894 
Q 5813 2913 5469 2913 
L 4194 2913 
L 4194 -144 
Q 4194 -725 3456 -813 
L 3263 -825 
Q 3325 -506 3125 -250 
Q 3250 -281 3394 -306 
Q 3663 -313 3706 -272 
Q 3750 -231 3750 25 
z
M 5544 4950 
Q 5525 4756 5544 4569 
Q 5194 4588 4844 4588 
L 3325 4588 
Q 2975 4588 2625 4569 
Q 2644 4756 2625 4950 
Q 2975 4931 3325 4931 
L 4844 4931 
Q 5194 4931 5544 4950 
z
M 819 -850 
Q 581 -825 344 -850 
Q 369 -419 369 19 
L 363 4938 
L 2256 4938 
L 2256 4625 
Q 2150 4513 2075 4375 
L 1481 3238 
Q 2181 2319 2181 1156 
Q 2144 400 1569 163 
L 1406 88 
Q 1288 300 1138 481 
Q 1294 538 1450 606 
Q 1763 744 1794 1156 
Q 1794 1744 1600 2300 
Q 1406 2856 1038 3313 
L 1725 4625 
L 788 4625 
L 794 19 
Q 794 -419 819 -850 
z
" transform="scale(0.015625)"/>
       <path id="WenQuanYiZenHei-503c" d="M 6175 -219 
Q 6156 -388 6175 -556 
Q 5863 -544 5550 -544 
L 2313 -544 
Q 2000 -544 1688 -556 
Q 1706 -388 1688 -219 
L 2506 -231 
L 2506 3469 
L 3644 3469 
L 3644 4119 
L 2638 4119 
Q 2325 4119 2013 4100 
Q 2031 4269 2013 4438 
Q 2325 4425 2638 4425 
L 3638 4425 
Q 3638 4719 3619 5013 
Q 3856 4988 4094 5013 
Q 4075 4719 4075 4425 
L 5344 4425 
Q 5650 4425 5963 4438 
Q 5950 4269 5963 4100 
Q 5656 4119 5344 4119 
L 4069 4119 
L 4069 3469 
L 5300 3469 
L 5300 -231 
L 5550 -231 
Q 5863 -231 6175 -219 
z
M 4869 2556 
L 4869 3156 
L 2931 3156 
Q 2931 2850 2931 2556 
L 4869 2556 
z
M 4869 1669 
L 4869 2250 
L 2931 2250 
L 2931 1669 
L 4869 1669 
z
M 4869 731 
L 4869 1363 
L 2931 1363 
L 2931 731 
L 4869 731 
z
M 4869 -231 
L 4869 425 
L 2931 425 
L 2931 -231 
L 4869 -231 
z
M 2106 4925 
Q 1856 4075 1463 3338 
L 1463 31 
Q 1463 -413 1481 -850 
Q 1256 -825 1031 -850 
Q 1050 -413 1050 31 
L 1050 2681 
Q 750 2269 375 1931 
Q 238 2156 0 2256 
Q 331 2544 619 2875 
Q 1094 3425 1300 3950 
Q 1494 4469 1625 5050 
Q 1850 4963 2106 4925 
z
" transform="scale(0.015625)"/>
      </defs>
      <use xlink:href="#WenQuanYiZenHei-5b9e"/>
      <use xlink:href="#WenQuanYiZenHei-9645" x="100"/>
      <use xlink:href="#WenQuanYiZenHei-503c" x="200"/>
     </g>
    </g>
    <g id="line2d_21">
     <path d="M 1298.39375 63.3735 
L 1308.39375 63.3735 
L 1318.39375 63.3735 
" style="fill: none; stroke: #ffa500; stroke-width: 1.5; stroke-linecap: square"/>
    </g>
    <g id="text_19">
     <!-- 校验值 -->
     <g transform="translate(1326.39375 66.8735)scale(0.1 -0.1)">
      <defs>
       <path id="WenQuanYiZenHei-6821" d="M 5256 2463 
Q 5025 1475 4494 706 
Q 5125 -94 6175 -544 
Q 5950 -663 5850 -900 
Q 4906 -494 4250 381 
Q 3931 0 3475 -350 
Q 3019 -700 2388 -919 
Q 2338 -656 2138 -475 
Q 3306 -69 4006 738 
Q 3563 1444 3300 2331 
Q 3050 2050 2706 1800 
Q 2606 2000 2406 2106 
Q 2900 2444 3181 2938 
Q 3350 3225 3488 3538 
Q 3700 3431 3925 3369 
Q 3763 2894 3425 2475 
L 3650 2531 
Q 3888 1675 4244 1075 
Q 4469 1444 4603 1937 
Q 4738 2431 4775 2688 
Q 4963 2644 5150 2625 
Q 4919 2969 4663 3294 
L 5038 3588 
Q 5544 2925 5975 2213 
L 5569 1969 
L 5256 2463 
z
M 6006 4050 
Q 5988 3881 6006 3713 
Q 5694 3725 5381 3725 
L 3413 3725 
Q 3100 3725 2788 3713 
Q 2806 3881 2788 4050 
Q 3100 4031 3413 4031 
L 4325 4031 
Q 4019 4525 3644 4969 
L 4000 5275 
Q 4413 4788 4750 4244 
L 4406 4031 
L 5381 4031 
Q 5694 4031 6006 4050 
z
M 406 263 
Q 238 431 -25 469 
Q 194 825 466 1337 
Q 738 1850 925 2406 
Q 1113 2963 1256 3519 
L 825 3519 
Q 506 3519 188 3500 
Q 206 3700 188 3900 
Q 506 3881 825 3881 
L 1363 3881 
L 1363 4263 
Q 1363 4719 1338 5175 
Q 1556 5150 1775 5175 
Q 1756 4719 1756 4263 
L 1756 3881 
L 2525 3900 
Q 2506 3700 2525 3500 
L 1756 3519 
L 1756 2738 
L 1931 2881 
Q 2306 2300 2613 1650 
L 2231 1413 
Q 2081 1725 1919 2019 
L 1756 2300 
L 1756 69 
Q 1756 -388 1775 -850 
Q 1556 -825 1338 -850 
Q 1363 -388 1363 69 
L 1363 2438 
Q 925 1144 406 263 
z
" transform="scale(0.015625)"/>
       <path id="WenQuanYiZenHei-9a8c" d="M 5981 -106 
Q 5963 -275 5981 -444 
Q 5669 -431 5356 -431 
L 2969 -431 
Q 2656 -431 2350 -444 
Q 2363 -275 2350 -106 
Q 2656 -125 2969 -125 
L 4369 -125 
Q 4600 431 4881 1288 
L 5206 2300 
Q 5425 2206 5663 2163 
Q 5375 1188 4831 -125 
L 5356 -125 
Q 5669 -125 5981 -106 
z
M 4063 594 
Q 3788 1425 3425 2219 
L 3856 2419 
Q 4225 1600 4513 744 
L 4063 594 
z
M 3163 363 
Q 2931 1200 2613 2006 
L 3056 2175 
Q 3381 1350 3619 488 
L 3163 363 
z
M 4581 2550 
L 3513 2550 
Q 3200 2550 2888 2538 
Q 2900 2663 2894 2769 
Q 2569 2488 2206 2300 
Q 2113 2550 1894 2700 
Q 2488 2975 2975 3463 
Q 3269 3756 3394 4006 
Q 3644 4513 3794 5063 
Q 4038 4975 4294 4931 
Q 4250 4806 4206 4681 
Q 4475 3888 5025 3388 
Q 5519 2938 6169 2650 
Q 5938 2538 5838 2300 
Q 5513 2456 5200 2700 
Q 5200 2619 5206 2538 
Q 4894 2550 4581 2550 
z
M 3513 2863 
L 4994 2869 
Q 4344 3438 3988 4194 
Q 3594 3406 3013 2869 
Q 3263 2863 3513 2863 
z
M 206 444 
Q 188 756 44 963 
Q 319 956 650 1003 
Q 981 1050 1731 1281 
L 1738 1006 
Q 800 719 206 444 
z
M 525 4000 
Q 744 3950 994 3944 
Q 925 3519 875 3081 
L 763 2144 
L 1475 2144 
L 1831 4444 
L 663 4444 
Q 350 4444 38 4431 
Q 56 4600 38 4769 
Q 350 4756 663 4756 
L 2313 4756 
L 1913 2144 
L 2375 2144 
L 2200 -200 
Q 2188 -425 1988 -588 
Q 1694 -800 1181 -788 
L 944 -788 
Q 1000 -450 788 -269 
Q 1013 -294 1334 -287 
Q 1656 -281 1715 -243 
Q 1775 -206 1781 -50 
L 1925 1831 
L 294 1831 
L 444 3131 
Q 500 3569 525 4000 
z
" transform="scale(0.015625)"/>
      </defs>
      <use xlink:href="#WenQuanYiZenHei-6821"/>
      <use xlink:href="#WenQuanYiZenHei-9a8c" x="100"/>
      <use xlink:href="#WenQuanYiZenHei-503c" x="200"/>
     </g>
    </g>
    <g id="line2d_22">
     <path d="M 1298.39375 77.895375 
L 1308.39375 77.895375 
L 1318.39375 77.895375 
" style="fill: none; stroke: #ff0000; stroke-width: 1.5; stroke-linecap: square"/>
    </g>
    <g id="text_20">
     <!-- 预测值 -->
     <g transform="translate(1326.39375 81.395375)scale(0.1 -0.1)">
      <use xlink:href="#WenQuanYiZenHei-9884"/>
      <use xlink:href="#WenQuanYiZenHei-6d4b" x="100"/>
      <use xlink:href="#WenQuanYiZenHei-503c" x="200"/>
     </g>
    </g>
   </g>
  </g>
 </g>
 <defs>
  <clipPath id="p9b1dedc660">
   <rect x="26.19375" y="35.061" width="1339.2" height="332.64"/>
  </clipPath>
 </defs>
</svg>
