<?xml version="1.0" encoding="utf-8" standalone="no"?>
<!DOCTYPE svg PUBLIC "-//W3C//DTD SVG 1.1//EN"
  "http://www.w3.org/Graphics/SVG/1.1/DTD/svg11.dtd">
<svg xmlns:xlink="http://www.w3.org/1999/xlink" width="1372.59375pt" height="390.418188pt" viewBox="0 0 1372.59375 390.418188" xmlns="http://www.w3.org/2000/svg" version="1.1">
 <metadata>
  <rdf:RDF xmlns:dc="http://purl.org/dc/elements/1.1/" xmlns:cc="http://creativecommons.org/ns#" xmlns:rdf="http://www.w3.org/1999/02/22-rdf-syntax-ns#">
   <cc:Work>
    <dc:type rdf:resource="http://purl.org/dc/dcmitype/StillImage"/>
    <dc:date>2022-06-18T18:16:45.137121</dc:date>
    <dc:format>image/svg+xml</dc:format>
    <dc:creator>
     <cc:Agent>
      <dc:title>Matplotlib v3.5.2, https://matplotlib.org/</dc:title>
     </cc:Agent>
    </dc:creator>
   </cc:Work>
  </rdf:RDF>
 </metadata>
 <defs>
  <style type="text/css">*{stroke-linejoin: round; stroke-linecap: butt}</style>
 </defs>
 <g id="figure_1">
  <g id="patch_1">
   <path d="M 0 390.418188 
L 1372.59375 390.418188 
L 1372.59375 -0 
L 0 -0 
z
" style="fill: #ffffff"/>
  </g>
  <g id="axes_1">
   <g id="patch_2">
    <path d="M 26.19375 367.701 
L 1365.39375 367.701 
L 1365.39375 35.061 
L 26.19375 35.061 
z
" style="fill: #ffffff"/>
   </g>
   <g id="matplotlib.axis_1">
    <g id="xtick_1">
     <g id="line2d_1">
      <defs>
       <path id="m7d71f9693b" d="M 0 0 
L 0 3.5 
" style="stroke: #000000; stroke-width: 0.8"/>
      </defs>
      <g>
       <use xlink:href="#m7d71f9693b" x="56.938243" y="367.701" style="stroke: #000000; stroke-width: 0.8"/>
      </g>
     </g>
     <g id="text_1">
      <!-- 2020-01 -->
      <g transform="translate(37.4484 381.55725)scale(0.1 -0.1)">
       <defs>
        <path id="WenQuanYiZenHei-32" d="M 3488 0 
L 369 0 
L 369 456 
L 2150 1850 
Q 2931 2463 2931 3144 
Q 2931 3619 2488 3863 
Q 2231 4013 1931 4013 
Q 1425 4013 1113 3619 
Q 894 3356 881 3013 
L 369 3169 
Q 531 3981 1213 4300 
Q 1544 4456 1950 4456 
Q 2631 4456 3088 4044 
L 3225 3888 
L 3350 3706 
Q 3481 3444 3481 3144 
Q 3481 2313 2519 1569 
L 1069 456 
L 3488 456 
L 3488 0 
z
" transform="scale(0.015625)"/>
        <path id="WenQuanYiZenHei-30" d="M 3581 2175 
Q 3581 1288 3169 638 
Q 2713 -63 1938 -63 
Q 1025 -63 563 831 
Q 256 1425 256 2188 
Q 256 3188 700 3819 
Q 1138 4456 1888 4456 
Q 2863 4456 3306 3500 
Q 3581 2925 3581 2175 
z
M 3019 2100 
Q 3019 3356 2500 3806 
L 2350 3919 
Q 2144 4031 1888 4031 
Q 1100 4031 888 2956 
Q 819 2625 819 2225 
Q 819 1013 1338 569 
Q 1588 356 1938 356 
Q 2675 356 2925 1294 
Q 3019 1663 3019 2100 
z
" transform="scale(0.015625)"/>
        <path id="WenQuanYiZenHei-2d" d="M 1363 1444 
L 0 1444 
L 0 1844 
L 1363 1844 
L 1363 1444 
z
" transform="scale(0.015625)"/>
        <path id="WenQuanYiZenHei-31" d="M 3556 0 
L 488 0 
L 488 406 
L 1800 406 
L 1800 3725 
Q 1231 3125 588 2788 
L 588 3338 
Q 1456 3781 1931 4388 
L 2331 4388 
L 2331 406 
L 3556 406 
L 3556 0 
z
" transform="scale(0.015625)"/>
       </defs>
       <use xlink:href="#WenQuanYiZenHei-32"/>
       <use xlink:href="#WenQuanYiZenHei-30" x="59.960938"/>
       <use xlink:href="#WenQuanYiZenHei-32" x="119.921875"/>
       <use xlink:href="#WenQuanYiZenHei-30" x="179.882812"/>
       <use xlink:href="#WenQuanYiZenHei-2d" x="239.84375"/>
       <use xlink:href="#WenQuanYiZenHei-30" x="269.824219"/>
       <use xlink:href="#WenQuanYiZenHei-31" x="329.785156"/>
      </g>
     </g>
    </g>
    <g id="xtick_2">
     <g id="line2d_2">
      <g>
       <use xlink:href="#m7d71f9693b" x="181.559575" y="367.701" style="stroke: #000000; stroke-width: 0.8"/>
      </g>
     </g>
     <g id="text_2">
      <!-- 2020-04 -->
      <g transform="translate(162.069731 381.55725)scale(0.1 -0.1)">
       <defs>
        <path id="WenQuanYiZenHei-34" d="M 3631 1025 
L 2913 1025 
L 2913 0 
L 2381 0 
L 2381 1025 
L 219 1025 
L 219 1388 
L 2225 4388 
L 2913 4388 
L 2913 1444 
L 3631 1444 
L 3631 1025 
z
M 2381 1444 
L 2381 3963 
L 788 1444 
L 2381 1444 
z
" transform="scale(0.015625)"/>
       </defs>
       <use xlink:href="#WenQuanYiZenHei-32"/>
       <use xlink:href="#WenQuanYiZenHei-30" x="59.960938"/>
       <use xlink:href="#WenQuanYiZenHei-32" x="119.921875"/>
       <use xlink:href="#WenQuanYiZenHei-30" x="179.882812"/>
       <use xlink:href="#WenQuanYiZenHei-2d" x="239.84375"/>
       <use xlink:href="#WenQuanYiZenHei-30" x="269.824219"/>
       <use xlink:href="#WenQuanYiZenHei-34" x="329.785156"/>
      </g>
     </g>
    </g>
    <g id="xtick_3">
     <g id="line2d_3">
      <g>
       <use xlink:href="#m7d71f9693b" x="306.180906" y="367.701" style="stroke: #000000; stroke-width: 0.8"/>
      </g>
     </g>
     <g id="text_3">
      <!-- 2020-07 -->
      <g transform="translate(286.691062 381.55725)scale(0.1 -0.1)">
       <defs>
        <path id="WenQuanYiZenHei-37" d="M 3400 4056 
Q 1838 2175 1838 0 
L 1275 0 
Q 1269 1438 2056 2825 
Q 2381 3400 2825 3913 
L 444 3913 
L 500 4388 
L 3400 4388 
L 3400 4056 
z
" transform="scale(0.015625)"/>
       </defs>
       <use xlink:href="#WenQuanYiZenHei-32"/>
       <use xlink:href="#WenQuanYiZenHei-30" x="59.960938"/>
       <use xlink:href="#WenQuanYiZenHei-32" x="119.921875"/>
       <use xlink:href="#WenQuanYiZenHei-30" x="179.882812"/>
       <use xlink:href="#WenQuanYiZenHei-2d" x="239.84375"/>
       <use xlink:href="#WenQuanYiZenHei-30" x="269.824219"/>
       <use xlink:href="#WenQuanYiZenHei-37" x="329.785156"/>
      </g>
     </g>
    </g>
    <g id="xtick_4">
     <g id="line2d_4">
      <g>
       <use xlink:href="#m7d71f9693b" x="432.171703" y="367.701" style="stroke: #000000; stroke-width: 0.8"/>
      </g>
     </g>
     <g id="text_4">
      <!-- 2020-10 -->
      <g transform="translate(412.681859 381.55725)scale(0.1 -0.1)">
       <use xlink:href="#WenQuanYiZenHei-32"/>
       <use xlink:href="#WenQuanYiZenHei-30" x="59.960938"/>
       <use xlink:href="#WenQuanYiZenHei-32" x="119.921875"/>
       <use xlink:href="#WenQuanYiZenHei-30" x="179.882812"/>
       <use xlink:href="#WenQuanYiZenHei-2d" x="239.84375"/>
       <use xlink:href="#WenQuanYiZenHei-31" x="269.824219"/>
       <use xlink:href="#WenQuanYiZenHei-30" x="329.785156"/>
      </g>
     </g>
    </g>
    <g id="xtick_5">
     <g id="line2d_5">
      <g>
       <use xlink:href="#m7d71f9693b" x="558.162499" y="367.701" style="stroke: #000000; stroke-width: 0.8"/>
      </g>
     </g>
     <g id="text_5">
      <!-- 2021-01 -->
      <g transform="translate(538.672656 381.55725)scale(0.1 -0.1)">
       <use xlink:href="#WenQuanYiZenHei-32"/>
       <use xlink:href="#WenQuanYiZenHei-30" x="59.960938"/>
       <use xlink:href="#WenQuanYiZenHei-32" x="119.921875"/>
       <use xlink:href="#WenQuanYiZenHei-31" x="179.882812"/>
       <use xlink:href="#WenQuanYiZenHei-2d" x="239.84375"/>
       <use xlink:href="#WenQuanYiZenHei-30" x="269.824219"/>
       <use xlink:href="#WenQuanYiZenHei-31" x="329.785156"/>
      </g>
     </g>
    </g>
    <g id="xtick_6">
     <g id="line2d_6">
      <g>
       <use xlink:href="#m7d71f9693b" x="681.414366" y="367.701" style="stroke: #000000; stroke-width: 0.8"/>
      </g>
     </g>
     <g id="text_6">
      <!-- 2021-04 -->
      <g transform="translate(661.924522 381.55725)scale(0.1 -0.1)">
       <use xlink:href="#WenQuanYiZenHei-32"/>
       <use xlink:href="#WenQuanYiZenHei-30" x="59.960938"/>
       <use xlink:href="#WenQuanYiZenHei-32" x="119.921875"/>
       <use xlink:href="#WenQuanYiZenHei-31" x="179.882812"/>
       <use xlink:href="#WenQuanYiZenHei-2d" x="239.84375"/>
       <use xlink:href="#WenQuanYiZenHei-30" x="269.824219"/>
       <use xlink:href="#WenQuanYiZenHei-34" x="329.785156"/>
      </g>
     </g>
    </g>
    <g id="xtick_7">
     <g id="line2d_7">
      <g>
       <use xlink:href="#m7d71f9693b" x="806.035697" y="367.701" style="stroke: #000000; stroke-width: 0.8"/>
      </g>
     </g>
     <g id="text_7">
      <!-- 2021-07 -->
      <g transform="translate(786.545853 381.55725)scale(0.1 -0.1)">
       <use xlink:href="#WenQuanYiZenHei-32"/>
       <use xlink:href="#WenQuanYiZenHei-30" x="59.960938"/>
       <use xlink:href="#WenQuanYiZenHei-32" x="119.921875"/>
       <use xlink:href="#WenQuanYiZenHei-31" x="179.882812"/>
       <use xlink:href="#WenQuanYiZenHei-2d" x="239.84375"/>
       <use xlink:href="#WenQuanYiZenHei-30" x="269.824219"/>
       <use xlink:href="#WenQuanYiZenHei-37" x="329.785156"/>
      </g>
     </g>
    </g>
    <g id="xtick_8">
     <g id="line2d_8">
      <g>
       <use xlink:href="#m7d71f9693b" x="932.026494" y="367.701" style="stroke: #000000; stroke-width: 0.8"/>
      </g>
     </g>
     <g id="text_8">
      <!-- 2021-10 -->
      <g transform="translate(912.53665 381.55725)scale(0.1 -0.1)">
       <use xlink:href="#WenQuanYiZenHei-32"/>
       <use xlink:href="#WenQuanYiZenHei-30" x="59.960938"/>
       <use xlink:href="#WenQuanYiZenHei-32" x="119.921875"/>
       <use xlink:href="#WenQuanYiZenHei-31" x="179.882812"/>
       <use xlink:href="#WenQuanYiZenHei-2d" x="239.84375"/>
       <use xlink:href="#WenQuanYiZenHei-31" x="269.824219"/>
       <use xlink:href="#WenQuanYiZenHei-30" x="329.785156"/>
      </g>
     </g>
    </g>
    <g id="xtick_9">
     <g id="line2d_9">
      <g>
       <use xlink:href="#m7d71f9693b" x="1058.01729" y="367.701" style="stroke: #000000; stroke-width: 0.8"/>
      </g>
     </g>
     <g id="text_9">
      <!-- 2022-01 -->
      <g transform="translate(1038.527446 381.55725)scale(0.1 -0.1)">
       <use xlink:href="#WenQuanYiZenHei-32"/>
       <use xlink:href="#WenQuanYiZenHei-30" x="59.960938"/>
       <use xlink:href="#WenQuanYiZenHei-32" x="119.921875"/>
       <use xlink:href="#WenQuanYiZenHei-32" x="179.882812"/>
       <use xlink:href="#WenQuanYiZenHei-2d" x="239.84375"/>
       <use xlink:href="#WenQuanYiZenHei-30" x="269.824219"/>
       <use xlink:href="#WenQuanYiZenHei-31" x="329.785156"/>
      </g>
     </g>
    </g>
    <g id="xtick_10">
     <g id="line2d_10">
      <g>
       <use xlink:href="#m7d71f9693b" x="1181.269156" y="367.701" style="stroke: #000000; stroke-width: 0.8"/>
      </g>
     </g>
     <g id="text_10">
      <!-- 2022-04 -->
      <g transform="translate(1161.779313 381.55725)scale(0.1 -0.1)">
       <use xlink:href="#WenQuanYiZenHei-32"/>
       <use xlink:href="#WenQuanYiZenHei-30" x="59.960938"/>
       <use xlink:href="#WenQuanYiZenHei-32" x="119.921875"/>
       <use xlink:href="#WenQuanYiZenHei-32" x="179.882812"/>
       <use xlink:href="#WenQuanYiZenHei-2d" x="239.84375"/>
       <use xlink:href="#WenQuanYiZenHei-30" x="269.824219"/>
       <use xlink:href="#WenQuanYiZenHei-34" x="329.785156"/>
      </g>
     </g>
    </g>
    <g id="xtick_11">
     <g id="line2d_11">
      <g>
       <use xlink:href="#m7d71f9693b" x="1305.890488" y="367.701" style="stroke: #000000; stroke-width: 0.8"/>
      </g>
     </g>
     <g id="text_11">
      <!-- 2022-07 -->
      <g transform="translate(1286.400644 381.55725)scale(0.1 -0.1)">
       <use xlink:href="#WenQuanYiZenHei-32"/>
       <use xlink:href="#WenQuanYiZenHei-30" x="59.960938"/>
       <use xlink:href="#WenQuanYiZenHei-32" x="119.921875"/>
       <use xlink:href="#WenQuanYiZenHei-32" x="179.882812"/>
       <use xlink:href="#WenQuanYiZenHei-2d" x="239.84375"/>
       <use xlink:href="#WenQuanYiZenHei-30" x="269.824219"/>
       <use xlink:href="#WenQuanYiZenHei-37" x="329.785156"/>
      </g>
     </g>
    </g>
   </g>
   <g id="matplotlib.axis_2">
    <g id="ytick_1">
     <g id="line2d_12">
      <defs>
       <path id="mae1e5b705c" d="M 0 0 
L -3.5 0 
" style="stroke: #000000; stroke-width: 0.8"/>
      </defs>
      <g>
       <use xlink:href="#mae1e5b705c" x="26.19375" y="352.390146" style="stroke: #000000; stroke-width: 0.8"/>
      </g>
     </g>
     <g id="text_12">
      <!-- 0 -->
      <g transform="translate(13.196875 355.818271)scale(0.1 -0.1)">
       <use xlink:href="#WenQuanYiZenHei-30"/>
      </g>
     </g>
    </g>
    <g id="ytick_2">
     <g id="line2d_13">
      <g>
       <use xlink:href="#mae1e5b705c" x="26.19375" y="302.847663" style="stroke: #000000; stroke-width: 0.8"/>
      </g>
     </g>
     <g id="text_13">
      <!-- 10 -->
      <g transform="translate(7.2 306.275788)scale(0.1 -0.1)">
       <use xlink:href="#WenQuanYiZenHei-31"/>
       <use xlink:href="#WenQuanYiZenHei-30" x="59.960938"/>
      </g>
     </g>
    </g>
    <g id="ytick_3">
     <g id="line2d_14">
      <g>
       <use xlink:href="#mae1e5b705c" x="26.19375" y="253.30518" style="stroke: #000000; stroke-width: 0.8"/>
      </g>
     </g>
     <g id="text_14">
      <!-- 20 -->
      <g transform="translate(7.2 256.733305)scale(0.1 -0.1)">
       <use xlink:href="#WenQuanYiZenHei-32"/>
       <use xlink:href="#WenQuanYiZenHei-30" x="59.960938"/>
      </g>
     </g>
    </g>
    <g id="ytick_4">
     <g id="line2d_15">
      <g>
       <use xlink:href="#mae1e5b705c" x="26.19375" y="203.762697" style="stroke: #000000; stroke-width: 0.8"/>
      </g>
     </g>
     <g id="text_15">
      <!-- 30 -->
      <g transform="translate(7.2 207.190822)scale(0.1 -0.1)">
       <defs>
        <path id="WenQuanYiZenHei-33" d="M 3588 1231 
Q 3588 494 2875 144 
Q 2450 -63 1925 -63 
Q 1044 -63 556 488 
Q 356 706 256 1000 
L 769 1169 
Q 994 375 1913 375 
Q 2631 375 2900 788 
Q 3019 975 3019 1231 
Q 3019 1638 2638 1881 
Q 2325 2081 1613 2069 
L 1338 2069 
L 1338 2494 
Q 1969 2494 2094 2506 
Q 2325 2544 2463 2613 
Q 2763 2756 2844 3100 
Q 2863 3169 2863 3244 
Q 2863 3744 2381 3944 
L 2163 4006 
Q 2056 4025 1931 4025 
Q 1388 4025 1075 3631 
Q 969 3488 906 3313 
L 419 3456 
Q 675 4150 1400 4369 
Q 1669 4456 1975 4456 
Q 2694 4456 3106 4050 
Q 3419 3744 3419 3275 
Q 3419 2813 3025 2513 
Q 2825 2356 2575 2319 
L 2575 2306 
Q 3181 2213 3450 1769 
Q 3588 1525 3588 1231 
z
" transform="scale(0.015625)"/>
       </defs>
       <use xlink:href="#WenQuanYiZenHei-33"/>
       <use xlink:href="#WenQuanYiZenHei-30" x="59.960938"/>
      </g>
     </g>
    </g>
    <g id="ytick_5">
     <g id="line2d_16">
      <g>
       <use xlink:href="#mae1e5b705c" x="26.19375" y="154.220214" style="stroke: #000000; stroke-width: 0.8"/>
      </g>
     </g>
     <g id="text_16">
      <!-- 40 -->
      <g transform="translate(7.2 157.648339)scale(0.1 -0.1)">
       <use xlink:href="#WenQuanYiZenHei-34"/>
       <use xlink:href="#WenQuanYiZenHei-30" x="59.960938"/>
      </g>
     </g>
    </g>
    <g id="ytick_6">
     <g id="line2d_17">
      <g>
       <use xlink:href="#mae1e5b705c" x="26.19375" y="104.677731" style="stroke: #000000; stroke-width: 0.8"/>
      </g>
     </g>
     <g id="text_17">
      <!-- 50 -->
      <g transform="translate(7.2 108.105856)scale(0.1 -0.1)">
       <defs>
        <path id="WenQuanYiZenHei-35" d="M 3531 1488 
Q 3531 688 2913 250 
Q 2456 -63 1844 -63 
Q 1175 -63 706 350 
Q 413 613 306 975 
L 781 1131 
Q 1000 538 1569 406 
Q 1706 369 1856 369 
Q 2550 369 2850 869 
Q 3000 1131 3000 1494 
Q 3000 2056 2581 2356 
Q 2319 2538 1969 2538 
Q 1400 2538 1031 2075 
Q 981 2013 938 1938 
L 500 2031 
L 644 4388 
L 3244 4388 
L 3200 3919 
L 1044 3919 
L 950 2500 
Q 1431 2975 2006 2975 
Q 2713 2975 3163 2475 
Q 3531 2063 3531 1488 
z
" transform="scale(0.015625)"/>
       </defs>
       <use xlink:href="#WenQuanYiZenHei-35"/>
       <use xlink:href="#WenQuanYiZenHei-30" x="59.960938"/>
      </g>
     </g>
    </g>
    <g id="ytick_7">
     <g id="line2d_18">
      <g>
       <use xlink:href="#mae1e5b705c" x="26.19375" y="55.135248" style="stroke: #000000; stroke-width: 0.8"/>
      </g>
     </g>
     <g id="text_18">
      <!-- 60 -->
      <g transform="translate(7.2 58.563373)scale(0.1 -0.1)">
       <defs>
        <path id="WenQuanYiZenHei-36" d="M 3550 1431 
Q 3550 725 3006 288 
Q 2581 -63 1994 -63 
Q 1013 -63 563 825 
Q 288 1363 288 2081 
Q 288 3294 856 3938 
Q 1319 4456 2075 4456 
Q 2969 4456 3363 3756 
Q 3431 3631 3481 3481 
L 2988 3350 
Q 2750 3994 2075 4006 
Q 1056 4006 844 2669 
Q 794 2356 794 1981 
L 806 1981 
Q 1006 2506 1544 2744 
Q 1819 2869 2119 2869 
Q 2788 2869 3213 2375 
Q 3550 1975 3550 1431 
z
M 3038 1406 
Q 3038 1906 2656 2213 
Q 2381 2431 2038 2431 
Q 1525 2431 1181 2044 
Q 919 1744 919 1356 
Q 919 881 1344 581 
Q 1631 375 1981 375 
Q 2519 375 2838 781 
Q 3038 1050 3038 1406 
z
" transform="scale(0.015625)"/>
       </defs>
       <use xlink:href="#WenQuanYiZenHei-36"/>
       <use xlink:href="#WenQuanYiZenHei-30" x="59.960938"/>
      </g>
     </g>
    </g>
   </g>
   <g id="line2d_19">
    <path d="M 87.066477 332.573152 
L 88.435942 332.573152 
L 89.805408 307.801911 
L 91.174873 278.076421 
L 92.544338 283.03067 
L 93.913803 238.442435 
L 95.283268 208.716945 
L 96.652734 203.762697 
L 98.022199 159.174462 
L 99.391664 183.945704 
L 100.761129 183.945704 
L 102.130594 178.991456 
L 103.500059 169.082959 
L 104.869525 188.899952 
L 106.23899 193.8542 
L 107.608455 178.991456 
L 108.97792 198.808449 
L 110.347385 208.716945 
L 111.716851 233.488187 
L 113.086316 238.442435 
L 114.455781 213.671194 
L 115.825246 218.625442 
L 117.194711 238.442435 
L 118.564176 297.893414 
L 119.933642 287.984918 
L 121.303107 307.801911 
L 122.672572 337.527401 
L 124.042037 342.481649 
L 125.411502 352.390146 
L 166.495458 352.390146 
L 167.864923 342.481649 
L 169.234388 352.390146 
L 170.603853 337.527401 
L 171.973318 342.481649 
L 173.342784 342.481649 
L 176.081714 352.390146 
L 177.451179 337.527401 
L 178.820644 347.435897 
L 180.19011 347.435897 
L 181.559575 352.390146 
L 182.92904 347.435897 
L 184.298505 332.573152 
L 185.66797 352.390146 
L 193.884761 352.390146 
L 195.254227 347.435897 
L 196.623692 347.435897 
L 197.993157 352.390146 
L 292.486254 352.390146 
L 293.85572 347.435897 
L 295.225185 352.390146 
L 333.57021 352.390146 
L 334.939675 347.435897 
L 336.30914 352.390146 
L 348.634327 352.390146 
L 350.003792 337.527401 
L 351.373257 352.390146 
L 354.112187 352.390146 
L 355.481653 347.435897 
L 356.851118 352.390146 
L 365.067909 352.390146 
L 366.437374 342.481649 
L 367.806839 352.390146 
L 369.176304 352.390146 
L 370.54577 337.527401 
L 371.915235 352.390146 
L 373.2847 352.390146 
L 374.654165 347.435897 
L 376.02363 352.390146 
L 419.846516 352.390146 
L 421.215981 347.435897 
L 422.585446 352.390146 
L 434.910633 352.390146 
L 436.280098 347.435897 
L 437.649563 352.390146 
L 449.97475 352.390146 
L 451.344215 342.481649 
L 452.71368 352.390146 
L 455.452611 352.390146 
L 456.822076 347.435897 
L 458.191541 352.390146 
L 467.777797 352.390146 
L 469.147263 342.481649 
L 470.516728 352.390146 
L 473.255658 352.390146 
L 474.625123 347.435897 
L 475.994589 347.435897 
L 477.364054 352.390146 
L 482.841914 352.390146 
L 484.21138 347.435897 
L 485.580845 352.390146 
L 486.95031 347.435897 
L 488.319775 352.390146 
L 492.428171 352.390146 
L 493.797636 347.435897 
L 495.167101 352.390146 
L 503.383892 352.390146 
L 504.753357 342.481649 
L 506.122823 352.390146 
L 507.492288 347.435897 
L 508.861753 352.390146 
L 523.92587 352.390146 
L 525.295335 347.435897 
L 526.6648 352.390146 
L 528.034265 352.390146 
L 529.403731 342.481649 
L 532.142661 352.390146 
L 560.90143 352.390146 
L 562.270895 347.435897 
L 563.64036 352.390146 
L 565.009825 352.390146 
L 566.37929 347.435897 
L 567.748756 347.435897 
L 569.118221 352.390146 
L 574.596082 352.390146 
L 575.965547 347.435897 
L 577.335012 352.390146 
L 585.551803 352.390146 
L 586.921268 342.481649 
L 589.660199 352.390146 
L 591.029664 352.390146 
L 592.399129 347.435897 
L 593.768594 347.435897 
L 595.138059 352.390146 
L 596.507524 352.390146 
L 597.87699 347.435897 
L 599.246455 352.390146 
L 600.61592 337.527401 
L 601.985385 347.435897 
L 603.35485 352.390146 
L 604.724315 347.435897 
L 606.093781 352.390146 
L 607.463246 342.481649 
L 608.832711 352.390146 
L 610.202176 347.435897 
L 611.571641 347.435897 
L 612.941107 352.390146 
L 629.374689 352.390146 
L 630.744154 347.435897 
L 632.113619 352.390146 
L 645.808271 352.390146 
L 647.177736 347.435897 
L 648.547201 352.390146 
L 654.025062 352.390146 
L 655.394527 347.435897 
L 656.763992 352.390146 
L 658.133458 347.435897 
L 659.502923 352.390146 
L 662.241853 352.390146 
L 663.611318 347.435897 
L 664.980783 352.390146 
L 678.675435 352.390146 
L 680.0449 342.481649 
L 681.414366 352.390146 
L 682.783831 347.435897 
L 684.153296 352.390146 
L 685.522761 342.481649 
L 686.892226 347.435897 
L 689.631157 347.435897 
L 691.000622 352.390146 
L 710.173134 352.390146 
L 711.5426 347.435897 
L 712.912065 352.390146 
L 714.28153 347.435897 
L 715.650995 352.390146 
L 718.389925 352.390146 
L 719.759391 347.435897 
L 721.128856 352.390146 
L 723.867786 352.390146 
L 725.237251 347.435897 
L 726.606717 352.390146 
L 734.823508 352.390146 
L 736.192973 347.435897 
L 737.562438 352.390146 
L 744.409764 352.390146 
L 745.779229 347.435897 
L 747.148694 352.390146 
L 751.25709 352.390146 
L 752.626555 347.435897 
L 755.365485 347.435897 
L 756.734951 352.390146 
L 758.104416 347.435897 
L 759.473881 352.390146 
L 762.212811 352.390146 
L 763.582276 347.435897 
L 764.951742 352.390146 
L 769.060137 352.390146 
L 770.429602 347.435897 
L 771.799068 352.390146 
L 773.168533 347.435897 
L 774.537998 352.390146 
L 775.907463 352.390146 
L 777.276928 347.435897 
L 778.646393 332.573152 
L 780.015859 347.435897 
L 781.385324 347.435897 
L 782.754789 352.390146 
L 784.124254 342.481649 
L 786.863185 352.390146 
L 789.602115 352.390146 
L 790.97158 347.435897 
L 792.341045 352.390146 
L 793.71051 342.481649 
L 795.079976 352.390146 
L 804.666232 352.390146 
L 806.035697 347.435897 
L 807.405162 352.390146 
L 811.513558 352.390146 
L 812.883023 347.435897 
L 814.252488 352.390146 
L 818.360884 352.390146 
L 821.099814 342.481649 
L 823.838744 352.390146 
L 825.20821 342.481649 
L 826.577675 352.390146 
L 827.94714 347.435897 
L 829.316605 352.390146 
L 832.055535 352.390146 
L 833.425001 287.984918 
L 834.794466 292.939166 
L 836.163931 292.939166 
L 837.533396 342.481649 
L 838.902861 159.174462 
L 840.272327 183.945704 
L 841.641792 114.586228 
L 843.011257 253.30518 
L 844.380722 263.213676 
L 845.750187 258.259428 
L 847.119652 203.762697 
L 848.489118 139.357469 
L 849.858583 119.540476 
L 851.228048 164.128711 
L 852.597513 154.220214 
L 853.966978 50.181 
L 855.336444 84.860738 
L 856.705909 164.128711 
L 858.075374 164.128711 
L 859.444839 104.677731 
L 860.814304 84.860738 
L 862.183769 164.128711 
L 863.553235 223.57969 
L 864.9227 263.213676 
L 866.292165 263.213676 
L 867.66163 322.664656 
L 869.031095 337.527401 
L 870.400561 322.664656 
L 871.770026 337.527401 
L 873.139491 337.527401 
L 874.508956 347.435897 
L 875.878421 347.435897 
L 877.247886 352.390146 
L 878.617352 352.390146 
L 879.986817 342.481649 
L 881.356282 352.390146 
L 882.725747 347.435897 
L 884.095212 352.390146 
L 885.464677 342.481649 
L 886.834143 352.390146 
L 889.573073 352.390146 
L 890.942538 347.435897 
L 892.312003 352.390146 
L 893.681469 347.435897 
L 895.050934 352.390146 
L 900.528794 352.390146 
L 901.89826 347.435897 
L 903.267725 352.390146 
L 915.592911 352.390146 
L 916.962377 337.527401 
L 918.331842 352.390146 
L 923.809703 352.390146 
L 926.548633 342.481649 
L 929.287563 352.390146 
L 936.134889 352.390146 
L 937.504354 347.435897 
L 938.87382 352.390146 
L 975.849379 352.390146 
L 977.218845 337.527401 
L 978.58831 352.390146 
L 993.652427 352.390146 
L 995.021892 283.03067 
L 996.391357 352.390146 
L 999.130287 352.390146 
L 1000.499753 342.481649 
L 1001.869218 352.390146 
L 1023.780661 352.390146 
L 1025.150126 347.435897 
L 1026.519591 352.390146 
L 1029.258521 352.390146 
L 1030.627987 347.435897 
L 1031.997452 352.390146 
L 1038.844778 352.390146 
L 1040.214243 347.435897 
L 1041.583708 352.390146 
L 1042.953173 352.390146 
L 1044.322638 342.481649 
L 1045.692104 352.390146 
L 1051.169964 352.390146 
L 1052.53943 347.435897 
L 1053.908895 352.390146 
L 1059.386755 352.390146 
L 1060.756221 347.435897 
L 1062.125686 352.390146 
L 1063.495151 347.435897 
L 1064.864616 352.390146 
L 1068.973012 352.390146 
L 1070.342477 347.435897 
L 1071.711942 347.435897 
L 1073.081407 352.390146 
L 1093.623385 352.390146 
L 1094.99285 347.435897 
L 1096.362315 352.390146 
L 1104.579106 352.390146 
L 1105.948572 347.435897 
L 1107.318037 352.390146 
L 1116.904293 352.390146 
L 1118.273758 307.801911 
L 1119.643223 258.259428 
L 1121.012689 273.122173 
L 1122.382154 332.573152 
L 1123.751619 258.259428 
L 1125.121084 208.716945 
L 1126.490549 292.939166 
L 1127.860014 292.939166 
L 1129.22948 337.527401 
L 1130.598945 337.527401 
L 1131.96841 332.573152 
L 1133.337875 322.664656 
L 1134.70734 322.664656 
L 1136.076806 347.435897 
L 1137.446271 327.618904 
L 1138.815736 352.390146 
L 1140.185201 347.435897 
L 1142.924131 347.435897 
L 1144.293597 327.618904 
L 1145.663062 327.618904 
L 1147.032527 302.847663 
L 1148.401992 283.03067 
L 1149.771457 283.03067 
L 1151.140923 174.037207 
L 1152.510388 253.30518 
L 1153.879853 233.488187 
L 1155.249318 268.167925 
L 1156.618783 253.30518 
L 1157.988248 287.984918 
L 1159.357714 302.847663 
L 1160.727179 332.573152 
L 1162.096644 337.527401 
L 1163.466109 347.435897 
L 1164.835574 352.390146 
L 1166.205039 337.527401 
L 1167.574505 342.481649 
L 1168.94397 312.756159 
L 1170.313435 347.435897 
L 1171.6829 322.664656 
L 1173.052365 347.435897 
L 1174.421831 337.527401 
L 1175.791296 337.527401 
L 1177.160761 347.435897 
L 1178.530226 327.618904 
L 1179.899691 352.390146 
L 1181.269156 248.350932 
L 1182.638622 327.618904 
L 1184.008087 302.847663 
L 1185.377552 317.710408 
L 1186.747017 337.527401 
L 1188.116482 337.527401 
L 1189.485948 287.984918 
L 1190.855413 327.618904 
L 1192.224878 327.618904 
L 1193.594343 317.710408 
L 1194.963808 283.03067 
L 1196.333273 327.618904 
L 1197.702739 332.573152 
L 1199.072204 342.481649 
L 1200.441669 327.618904 
L 1201.811134 342.481649 
L 1203.180599 317.710408 
L 1204.550065 297.893414 
L 1205.91953 312.756159 
L 1207.288995 312.756159 
L 1210.027925 322.664656 
L 1211.39739 322.664656 
L 1212.766856 327.618904 
L 1214.136321 342.481649 
L 1215.505786 312.756159 
L 1216.875251 342.481649 
L 1218.244716 337.527401 
L 1219.614182 327.618904 
L 1220.983647 337.527401 
L 1222.353112 337.527401 
L 1223.722577 352.390146 
L 1225.092042 337.527401 
L 1226.461507 337.527401 
L 1227.830973 347.435897 
L 1229.200438 352.390146 
L 1230.569903 347.435897 
L 1231.939368 352.390146 
L 1233.308833 352.390146 
L 1234.678299 347.435897 
L 1236.047764 352.390146 
L 1240.156159 352.390146 
L 1241.525624 347.435897 
L 1244.264555 347.435897 
L 1245.63402 352.390146 
L 1247.003485 342.481649 
L 1248.37295 342.481649 
L 1249.742416 352.390146 
L 1251.111881 352.390146 
L 1252.481346 347.435897 
L 1255.220276 347.435897 
L 1256.589741 327.618904 
L 1257.959207 332.573152 
L 1259.328672 347.435897 
L 1260.698137 352.390146 
L 1281.240115 352.390146 
L 1282.60958 347.435897 
L 1283.979045 352.390146 
L 1285.34851 352.390146 
L 1286.717975 342.481649 
L 1286.717975 342.481649 
" clip-path="url(#p9300e58e3c)" style="fill: none; stroke: #0000ff; stroke-width: 1.5; stroke-linecap: square"/>
   </g>
   <g id="line2d_20">
    <path d="M 1047.061569 351.132028 
L 1048.431034 351.701042 
L 1049.800499 351.321629 
L 1051.169964 351.482469 
L 1052.53943 348.507101 
L 1053.908895 350.314039 
L 1055.27836 351.243709 
L 1056.647825 351.464005 
L 1059.386755 351.528577 
L 1060.756221 348.254525 
L 1062.125686 350.504935 
L 1063.495151 347.74846 
L 1064.864616 350.635764 
L 1066.234081 351.319945 
L 1067.603547 351.48207 
L 1068.973012 351.783989 
L 1070.342477 347.8008 
L 1071.711942 347.371184 
L 1073.081407 350.295617 
L 1074.450872 351.239343 
L 1075.820338 351.462971 
L 1077.189803 351.515962 
L 1078.559268 351.79202 
L 1079.928733 351.606688 
L 1081.298198 351.29927 
L 1082.667663 351.477171 
L 1086.776059 351.531683 
L 1093.623385 351.532418 
L 1094.99285 347.991935 
L 1096.362315 350.693458 
L 1097.73178 351.333617 
L 1099.101246 351.48531 
L 1101.840176 351.529773 
L 1103.209641 351.795292 
L 1104.579106 351.343962 
L 1105.948572 347.947278 
L 1107.318037 350.682876 
L 1108.687502 351.331109 
L 1110.056967 351.484716 
L 1112.795897 351.52974 
L 1114.165363 351.795284 
L 1115.534828 351.343961 
L 1116.904293 351.487761 
L 1118.273758 319.657485 
L 1119.643223 276.710085 
L 1121.012689 277.154632 
L 1122.382154 319.745774 
L 1125.121084 231.133305 
L 1126.490549 282.888109 
L 1127.860014 295.530319 
L 1129.22948 327.09242 
L 1130.598945 332.161669 
L 1131.96841 336.783883 
L 1133.337875 329.672011 
L 1134.70734 320.999781 
L 1136.076806 340.909907 
L 1137.446271 329.094409 
L 1138.815736 346.253724 
L 1140.185201 347.042848 
L 1141.554666 347.506095 
L 1142.924131 347.114373 
L 1144.293597 331.542111 
L 1145.663062 330.159816 
L 1147.032527 309.809354 
L 1148.401992 292.34237 
L 1149.771457 287.952611 
L 1151.140923 209.02177 
L 1152.510388 248.019896 
L 1153.879853 242.09605 
L 1155.249318 266.793212 
L 1156.618783 261.82432 
L 1159.357714 306.201792 
L 1160.727179 322.871976 
L 1162.096644 335.428616 
L 1164.835574 350.43199 
L 1166.205039 339.060782 
L 1167.574505 340.871446 
L 1168.94397 319.22884 
L 1170.313435 340.124729 
L 1171.6829 327.097589 
L 1173.052365 341.951061 
L 1174.421831 339.431053 
L 1175.791296 337.818165 
L 1177.160761 346.348691 
L 1178.530226 330.85918 
L 1179.899691 347.963905 
L 1181.269156 275.095684 
L 1182.638622 316.257154 
L 1184.008087 307.806948 
L 1185.377552 315.899019 
L 1186.747017 333.533963 
L 1188.116482 335.392283 
L 1189.485948 307.215055 
L 1190.855413 319.380288 
L 1192.224878 327.592442 
L 1193.594343 320.413206 
L 1194.963808 293.626853 
L 1196.333273 320.146843 
L 1197.702739 332.606567 
L 1199.072204 338.024538 
L 1200.441669 330.692917 
L 1201.811134 340.104053 
L 1203.180599 325.974731 
L 1204.550065 304.337947 
L 1205.91953 311.825523 
L 1207.288995 313.323539 
L 1208.65846 318.510992 
L 1210.027925 321.737961 
L 1211.39739 324.572376 
L 1212.766856 328.584777 
L 1214.136321 338.363523 
L 1215.505786 320.190055 
L 1216.875251 336.863033 
L 1218.244716 337.260658 
L 1219.614182 330.52466 
L 1220.983647 335.74595 
L 1222.353112 336.443442 
L 1223.722577 349.563418 
L 1225.092042 338.965416 
L 1226.461507 338.222075 
L 1227.830973 345.403153 
L 1229.200438 349.616783 
L 1230.569903 347.576264 
L 1233.308833 351.922527 
L 1234.678299 348.122638 
L 1236.047764 350.23569 
L 1238.786694 351.663689 
L 1240.156159 351.312777 
L 1241.525624 347.939888 
L 1244.264555 346.762943 
L 1245.63402 350.402234 
L 1247.003485 344.183641 
L 1248.37295 342.71007 
L 1249.742416 349.705358 
L 1251.111881 351.112228 
L 1252.481346 347.90512 
L 1253.850811 346.881656 
L 1255.220276 347.416883 
L 1256.589741 332.880284 
L 1257.959207 332.449143 
L 1259.328672 343.469923 
L 1260.698137 349.885414 
L 1262.067602 351.154895 
L 1263.437067 351.455713 
L 1264.806532 352.581 
L 1266.175998 351.581161 
L 1267.545463 350.804482 
L 1270.284393 351.432126 
L 1273.023324 351.526787 
L 1281.240115 351.532417 
L 1282.60958 347.991935 
L 1283.979045 350.693458 
L 1285.34851 351.333617 
L 1286.717975 344.404343 
L 1286.717975 344.404343 
" clip-path="url(#p9300e58e3c)" style="fill: none; stroke: #ffa500; stroke-width: 1.5; stroke-linecap: square"/>
   </g>
   <g id="line2d_21">
    <path d="M 1286.717975 344.404343 
L 1288.087441 344.136394 
L 1289.456906 343.881415 
L 1290.826371 343.902278 
L 1292.195836 343.407883 
L 1293.565301 343.188165 
L 1294.934766 343.506084 
L 1296.304232 343.204859 
L 1297.673697 343.029778 
L 1299.043162 342.86317 
L 1300.412627 342.690613 
L 1301.782092 342.553758 
L 1303.151558 342.410191 
L 1304.521023 342.245544 
" clip-path="url(#p9300e58e3c)" style="fill: none; stroke: #ff0000; stroke-width: 1.5; stroke-linecap: square"/>
   </g>
   <g id="patch_3">
    <path d="M 26.19375 367.701 
L 26.19375 35.061 
" style="fill: none; stroke: #000000; stroke-width: 0.8; stroke-linejoin: miter; stroke-linecap: square"/>
   </g>
   <g id="patch_4">
    <path d="M 1365.39375 367.701 
L 1365.39375 35.061 
" style="fill: none; stroke: #000000; stroke-width: 0.8; stroke-linejoin: miter; stroke-linecap: square"/>
   </g>
   <g id="patch_5">
    <path d="M 26.19375 367.701 
L 1365.39375 367.701 
" style="fill: none; stroke: #000000; stroke-width: 0.8; stroke-linejoin: miter; stroke-linecap: square"/>
   </g>
   <g id="patch_6">
    <path d="M 26.19375 35.061 
L 1365.39375 35.061 
" style="fill: none; stroke: #000000; stroke-width: 0.8; stroke-linejoin: miter; stroke-linecap: square"/>
   </g>
   <g id="text_19">
    <!-- 每日新增预测 - 江苏 -->
    <g transform="translate(642.396563 17.041875)scale(0.12 -0.12)">
     <defs>
      <path id="WenQuanYiZenHei-6bcf" d="M 6138 2181 
Q 6113 1988 6138 1800 
Q 5788 1819 5438 1819 
L 4975 1819 
L 4863 738 
L 5806 738 
L 5806 394 
L 4831 394 
L 4775 -144 
Q 4719 -563 4350 -725 
Q 4013 -856 3550 -825 
L 3288 -819 
Q 3331 -663 3275 -519 
Q 3219 -375 3113 -288 
Q 3381 -313 3759 -303 
Q 4138 -294 4231 -238 
Q 4338 -163 4350 88 
L 4381 394 
L 1025 394 
L 1244 1819 
L 813 1819 
Q 463 1819 113 1800 
Q 138 1988 113 2181 
Q 463 2163 813 2163 
L 1294 2163 
L 1488 3431 
L 1488 3581 
L 1506 3581 
L 1513 3613 
L 1713 3581 
L 5156 3581 
L 5013 2163 
L 5438 2163 
Q 5788 2163 6138 2181 
z
M 5588 4463 
Q 5569 4269 5588 4081 
Q 5244 4100 4894 4100 
L 1813 4100 
Q 1344 3463 606 2788 
Q 481 2988 256 3069 
Q 744 3494 1116 3972 
Q 1488 4450 1919 5181 
Q 2119 5044 2344 4950 
Q 2213 4688 2050 4444 
L 4894 4444 
Q 5238 4444 5588 4463 
z
M 2844 3238 
L 1906 3238 
L 1744 2163 
L 3244 2163 
L 2581 3038 
L 2844 3238 
z
M 3250 2163 
L 4563 2163 
L 4669 3238 
L 3044 3238 
L 3638 2456 
L 3250 2163 
z
M 2944 1819 
Q 3275 1394 3550 938 
L 3213 738 
L 4419 738 
L 4525 1819 
L 2944 1819 
z
M 2656 1819 
L 1694 1819 
L 1525 738 
L 3094 738 
Q 2806 1219 2450 1650 
L 2656 1819 
z
" transform="scale(0.015625)"/>
      <path id="WenQuanYiZenHei-65e5" d="M 1494 -775 
Q 1244 -750 988 -775 
Q 1013 -313 1013 156 
L 1013 4875 
L 5269 4875 
L 5269 -763 
L 4813 -763 
L 4813 156 
L 1469 156 
Q 1469 -313 1494 -775 
z
M 4813 2700 
L 4813 4500 
L 1469 4500 
L 1469 2700 
L 4813 2700 
z
M 4813 531 
L 4813 2325 
L 1469 2325 
L 1469 531 
L 4813 531 
z
" transform="scale(0.015625)"/>
      <path id="WenQuanYiZenHei-65b0" d="M 5419 -763 
Q 5188 -738 4963 -763 
Q 4981 -344 4981 75 
L 4981 2819 
L 4188 2819 
L 4188 1706 
Q 4188 63 3163 -738 
Q 3019 -519 2769 -469 
Q 3769 131 3769 1706 
L 3769 4769 
L 3875 4769 
L 3844 4831 
L 4294 4781 
Q 4438 4769 4894 4816 
Q 5350 4863 5512 4931 
Q 5675 5000 5763 5094 
Q 5850 4881 5981 4694 
Q 5713 4544 5263 4519 
L 4188 4438 
L 4188 3100 
L 5563 3100 
Q 5850 3100 6131 3113 
Q 6119 2956 6131 2806 
L 5394 2819 
L 5394 75 
Q 5394 -344 5419 -763 
z
M 2981 213 
Q 2656 744 2256 1225 
L 2606 1513 
Q 3025 1006 3369 450 
L 2981 213 
z
M 1169 1525 
Q 1375 1419 1594 1363 
Q 1281 488 469 -469 
Q 331 -300 119 -244 
Q 575 263 888 900 
Q 1038 1206 1169 1525 
z
M 1825 6 
L 1825 1769 
L 1081 1769 
Q 794 1769 513 1756 
Q 525 1913 513 2063 
Q 794 2050 1081 2050 
L 1825 2050 
L 1825 2775 
L 994 2775 
Q 706 2775 425 2763 
Q 438 2919 425 3075 
Q 706 3056 994 3056 
L 1825 3056 
L 1825 3088 
L 1906 3088 
Q 2288 3656 2588 4381 
Q 2794 4269 3013 4206 
Q 2800 3675 2381 3056 
L 3013 3056 
Q 3294 3056 3581 3075 
Q 3563 2919 3581 2763 
Q 3294 2775 3013 2775 
L 2238 2775 
L 2238 2050 
L 2925 2050 
Q 3206 2050 3494 2063 
Q 3475 1913 3494 1756 
Q 3206 1769 2925 1769 
L 2238 1769 
L 2238 -156 
Q 2238 -413 2075 -581 
Q 1844 -794 1306 -794 
Q 1363 -519 1188 -288 
Q 1338 -313 1534 -316 
Q 1731 -319 1778 -278 
Q 1825 -238 1825 6 
z
M 1875 3388 
L 1500 3131 
L 825 4088 
L 1200 4350 
L 1875 3388 
z
M 3419 4713 
Q 3400 4563 3419 4406 
Q 3131 4419 2850 4419 
L 1125 4419 
Q 838 4419 556 4406 
Q 569 4563 556 4713 
Q 838 4700 1125 4700 
L 1763 4700 
L 1388 5088 
L 1719 5406 
L 2288 4813 
L 2175 4700 
L 2850 4700 
Q 3131 4700 3419 4713 
z
" transform="scale(0.015625)"/>
      <path id="WenQuanYiZenHei-589e" d="M 3138 -769 
Q 2913 -744 2688 -769 
Q 2706 -356 2706 56 
L 2706 1719 
L 5706 1719 
L 5706 -756 
L 5300 -756 
L 5300 -338 
L 3119 -338 
Q 3125 -550 3138 -769 
z
M 5113 3569 
Q 5344 3606 5563 3688 
Q 5669 3175 5256 2694 
Q 5113 2519 4975 2506 
Q 4831 2725 4588 2813 
Q 4806 2831 4997 3068 
Q 5188 3306 5113 3569 
z
M 3850 2763 
L 3469 2538 
L 2925 3456 
L 3313 3681 
L 3850 2763 
z
M 2400 2100 
Q 2469 3138 2400 4175 
L 3413 4175 
Q 3138 4550 2825 4888 
L 3156 5194 
Q 3581 4725 3938 4206 
L 3900 4175 
L 4456 4175 
Q 4863 4575 5131 5163 
Q 5325 5044 5538 4975 
Q 5369 4575 5013 4175 
L 6056 4175 
Q 5981 3138 6056 2100 
L 2400 2100 
z
M 5300 806 
L 5300 1450 
L 3113 1450 
Q 3113 1125 3113 806 
L 5300 806 
z
M 5300 563 
L 3113 563 
L 3113 -94 
L 5300 -94 
L 5300 563 
z
M 4431 3913 
L 4431 2363 
L 5650 2363 
L 5650 3913 
L 4756 3913 
L 4700 3856 
Q 4681 3888 4656 3913 
L 4431 3913 
z
M 4025 3913 
L 2806 3913 
L 2806 2363 
L 4025 2363 
L 4025 3913 
z
M -31 625 
Q 506 763 1006 975 
L 1006 3206 
L 669 3206 
Q 369 3206 75 3188 
Q 94 3356 75 3531 
Q 369 3513 669 3513 
L 1006 3513 
L 1006 4263 
Q 1006 4700 981 5131 
Q 1206 5106 1431 5131 
Q 1413 4700 1413 4263 
L 1413 3513 
L 2238 3531 
Q 2219 3356 2238 3188 
L 1413 3206 
L 1413 1163 
L 2150 1531 
L 2194 1256 
Q 1269 775 813 519 
L 194 144 
Q 138 438 -31 625 
z
" transform="scale(0.015625)"/>
      <path id="WenQuanYiZenHei-9884" d="M 1206 19 
L 1206 2888 
L 669 2888 
Q 356 2888 50 2869 
Q 63 3044 50 3213 
Q 363 3194 669 3194 
L 1250 3194 
Q 950 3631 606 4031 
L 963 4338 
L 1263 3975 
L 1913 4719 
L 731 4719 
Q 419 4719 106 4706 
Q 125 4875 106 5044 
Q 419 5031 731 5031 
L 2481 5031 
L 2544 4663 
Q 2394 4613 2256 4466 
Q 2119 4319 1525 3631 
Q 1656 3444 1788 3250 
L 1700 3194 
L 2700 3194 
L 2763 2825 
Q 2656 2819 2613 2763 
L 2100 2038 
L 1750 2288 
L 2175 2888 
L 1638 2888 
L 1638 -150 
Q 1638 -525 1363 -669 
Q 1075 -819 525 -813 
Q 594 -513 388 -294 
Q 575 -313 837 -316 
Q 1100 -319 1153 -272 
Q 1206 -225 1206 19 
z
M 5813 -888 
Q 5100 -225 4306 375 
L 4669 719 
Q 5481 106 6219 -575 
L 5813 -888 
z
M 2375 -906 
Q 2294 -631 2025 -506 
Q 2769 -431 3353 19 
Q 3938 469 3938 1069 
L 3938 2200 
Q 3938 2625 3913 3050 
Q 4188 3025 4456 3050 
Q 4431 2625 4431 2200 
L 4431 1069 
Q 4431 681 4225 319 
Q 3644 -606 2375 -906 
z
M 3444 488 
Q 3169 513 2894 488 
Q 2919 913 2919 1338 
L 2919 3675 
Q 3219 3675 3525 3675 
Q 3750 4013 3931 4525 
L 3238 4525 
Q 2888 4525 2538 4513 
Q 2556 4669 2538 4831 
Q 2888 4813 3238 4813 
L 5313 4813 
Q 5663 4813 6006 4831 
Q 5988 4669 6006 4513 
Q 5663 4525 5313 4525 
L 4481 4525 
Q 4388 4088 4088 3675 
L 5644 3675 
L 5644 513 
L 5144 513 
L 5144 3388 
L 3894 3388 
L 3875 3363 
Q 3863 3375 3844 3388 
Q 3631 3388 3413 3388 
L 3419 1338 
Q 3419 913 3444 488 
z
" transform="scale(0.015625)"/>
      <path id="WenQuanYiZenHei-6d4b" d="M 5450 138 
L 5450 4306 
Q 5450 4750 5425 5188 
Q 5663 5163 5906 5188 
Q 5881 4750 5881 4306 
L 5881 -38 
Q 5888 -569 5519 -719 
Q 5194 -831 4825 -813 
Q 4894 -519 4694 -281 
Q 4869 -306 5094 -309 
Q 5319 -313 5384 -256 
Q 5450 -200 5450 138 
z
M 4900 938 
Q 4663 963 4419 938 
Q 4444 1375 4444 1819 
L 4444 3381 
Q 4444 3819 4419 4263 
Q 4663 4238 4900 4263 
Q 4875 3819 4875 3381 
L 4875 1819 
Q 4875 1375 4900 938 
z
M 2750 2025 
L 2750 3038 
Q 2750 3481 2725 3919 
Q 2963 3894 3206 3919 
Q 3181 3481 3181 3038 
L 3181 2025 
Q 3181 1263 2919 625 
L 3231 956 
Q 3781 431 4256 -150 
L 3888 -456 
Q 3431 106 2906 600 
Q 2531 -288 1738 -769 
Q 1606 -519 1338 -450 
Q 1988 -156 2369 478 
Q 2750 1113 2750 2025 
z
M 2363 969 
Q 2119 994 1881 969 
Q 1906 1406 1906 1850 
L 1906 5038 
L 3956 5031 
L 3956 1200 
L 3525 1200 
L 3525 4713 
L 2338 4713 
L 2338 1850 
Q 2338 1406 2363 969 
z
M 663 -738 
Q 481 -588 206 -575 
Q 400 -69 606 581 
Q 813 1231 1200 2838 
L 1381 2706 
L 875 338 
L 663 -738 
z
M 1006 2856 
L 731 2550 
L 75 3400 
L 350 3713 
L 1006 2856 
z
M 1088 3913 
Q 781 4388 425 4800 
L 694 5125 
Q 1069 4688 1388 4188 
L 1088 3913 
z
" transform="scale(0.015625)"/>
      <path id="WenQuanYiZenHei-20" transform="scale(0.015625)"/>
      <path id="WenQuanYiZenHei-6c5f" d="M 6175 156 
Q 6150 -38 6175 -238 
Q 5806 -219 5444 -219 
L 2650 -219 
Q 2288 -219 1925 -238 
Q 1944 -38 1925 156 
Q 2288 144 2650 144 
L 3738 144 
L 3738 4275 
L 3013 4275 
Q 2650 4275 2281 4256 
Q 2306 4456 2281 4650 
Q 2650 4631 3013 4631 
L 5206 4631 
Q 5569 4631 5931 4650 
Q 5913 4456 5931 4256 
Q 5569 4275 5206 4275 
L 4194 4275 
L 4194 144 
L 5444 144 
Q 5806 144 6175 156 
z
M 919 -738 
Q 669 -588 288 -575 
Q 556 -69 840 581 
Q 1125 1231 1669 2838 
L 1919 2706 
L 1219 338 
L 919 -738 
z
M 1400 2856 
L 1013 2550 
L 100 3400 
L 494 3713 
L 1400 2856 
z
M 1513 3913 
Q 1088 4388 594 4800 
L 963 5125 
Q 1481 4688 1931 4188 
L 1513 3913 
z
" transform="scale(0.015625)"/>
      <path id="WenQuanYiZenHei-82cf" d="M 4969 2319 
Q 5500 1488 5944 613 
L 5506 388 
Q 5075 1244 4556 2056 
L 4969 2319 
z
M 506 731 
Q 981 1431 1169 2256 
L 1650 2144 
Q 1438 1231 913 450 
L 506 731 
z
M 1256 2481 
Q 906 2481 563 2469 
Q 581 2656 563 2844 
Q 906 2831 1256 2831 
L 2563 2831 
Q 2563 3138 2513 3444 
Q 2781 3419 3050 3444 
Q 3069 3144 3050 2831 
L 4550 2831 
L 4225 -219 
Q 4194 -488 4000 -641 
Q 3806 -794 3588 -825 
Q 3338 -856 2788 -856 
Q 2831 -694 2778 -553 
Q 2725 -413 2619 -325 
Q 2875 -350 3244 -337 
Q 3613 -325 3694 -278 
Q 3775 -231 3794 -38 
L 4063 2481 
L 3019 2481 
Q 2856 1350 2338 519 
Q 2063 75 1650 -269 
Q 1238 -613 725 -775 
Q 513 -488 163 -388 
Q 756 -338 1278 56 
Q 1800 450 2137 1094 
Q 2475 1738 2544 2481 
L 1256 2481 
z
M 4419 3538 
Q 4169 3563 3919 3538 
Q 3938 3850 3938 4150 
L 2138 4150 
Q 2138 3844 2156 3538 
Q 1906 3563 1656 3538 
Q 1675 3850 1675 4150 
L 844 4150 
Q 481 4150 113 4131 
Q 138 4331 113 4538 
Q 481 4519 844 4519 
L 1681 4519 
Q 1675 4894 1656 5263 
Q 1906 5238 2156 5263 
Q 2138 4875 2131 4519 
L 3944 4519 
Q 3938 4894 3919 5263 
Q 4169 5238 4419 5263 
Q 4400 4875 4394 4519 
L 5406 4519 
Q 5769 4519 6138 4538 
Q 6113 4331 6138 4131 
Q 5769 4150 5406 4150 
L 4394 4150 
Q 4400 3844 4419 3538 
z
" transform="scale(0.015625)"/>
     </defs>
     <use xlink:href="#WenQuanYiZenHei-6bcf"/>
     <use xlink:href="#WenQuanYiZenHei-65e5" x="100"/>
     <use xlink:href="#WenQuanYiZenHei-65b0" x="200"/>
     <use xlink:href="#WenQuanYiZenHei-589e" x="300"/>
     <use xlink:href="#WenQuanYiZenHei-9884" x="400"/>
     <use xlink:href="#WenQuanYiZenHei-6d4b" x="500"/>
     <use xlink:href="#WenQuanYiZenHei-20" x="600"/>
     <use xlink:href="#WenQuanYiZenHei-2d" x="629.980469"/>
     <use xlink:href="#WenQuanYiZenHei-20" x="659.960938"/>
     <use xlink:href="#WenQuanYiZenHei-6c5f" x="689.941406"/>
     <use xlink:href="#WenQuanYiZenHei-82cf" x="789.941406"/>
    </g>
    <!-- ARIMA (1, 0, 1)x(1, 0, 0, 7) (R2 = 0.960657) -->
    <g transform="translate(577.185938 29.061)scale(0.12 -0.12)">
     <defs>
      <path id="WenQuanYiZenHei-41" d="M 3550 0 
L 2988 0 
L 2550 1281 
L 919 1281 
L 531 0 
L 69 0 
L 1494 4388 
L 2125 4388 
L 3550 0 
z
M 2425 1694 
L 1756 3800 
L 1075 1694 
L 2425 1694 
z
" transform="scale(0.015625)"/>
      <path id="WenQuanYiZenHei-52" d="M 3675 0 
L 3100 0 
L 2288 1900 
L 1069 1900 
L 1069 0 
L 519 0 
L 519 4388 
L 2163 4388 
Q 3006 4388 3400 3900 
Q 3581 3663 3625 3325 
Q 3631 3250 3631 3163 
Q 3631 2594 3219 2244 
Q 3038 2100 2813 2038 
L 3675 0 
z
M 3081 3169 
Q 3081 3825 2356 3906 
Q 2263 3919 2163 3919 
L 1069 3919 
L 1069 2350 
L 2100 2350 
Q 2906 2350 3044 2919 
Q 3081 3031 3081 3169 
z
" transform="scale(0.015625)"/>
      <path id="WenQuanYiZenHei-49" d="M 1100 0 
L 550 0 
L 550 4388 
L 1100 4388 
L 1100 0 
z
" transform="scale(0.015625)"/>
      <path id="WenQuanYiZenHei-4d" d="M 4756 0 
L 4206 0 
L 4206 3831 
L 4181 3831 
L 2788 0 
L 2419 0 
L 1000 3831 
L 975 3831 
L 975 0 
L 513 0 
L 513 4388 
L 1331 4388 
L 2656 875 
L 3950 4388 
L 4756 4388 
L 4756 0 
z
" transform="scale(0.015625)"/>
      <path id="WenQuanYiZenHei-28" d="M 1606 -1094 
L 1275 -1094 
Q 475 -100 338 1231 
Q 319 1438 319 1656 
Q 319 3031 1156 4244 
Q 1213 4313 1269 4388 
L 1600 4388 
Q 806 3169 794 1681 
Q 794 188 1606 -1094 
z
" transform="scale(0.015625)"/>
      <path id="WenQuanYiZenHei-2c" d="M 1363 75 
L 881 -825 
L 606 -825 
L 994 0 
L 656 0 
L 656 738 
L 1363 738 
L 1363 75 
z
" transform="scale(0.015625)"/>
      <path id="WenQuanYiZenHei-29" d="M 1600 1656 
Q 1600 306 869 -788 
Q 769 -950 644 -1094 
L 313 -1094 
Q 1125 188 1125 1681 
Q 1125 3169 338 4363 
Q 325 4375 319 4388 
L 650 4388 
Q 1525 3231 1594 1863 
Q 1600 1763 1600 1656 
z
" transform="scale(0.015625)"/>
      <path id="WenQuanYiZenHei-78" d="M 2806 0 
L 2213 0 
L 1394 1319 
L 544 0 
L 50 0 
L 1144 1681 
L 163 3250 
L 744 3250 
L 1431 2138 
L 2144 3250 
L 2631 3250 
L 1681 1794 
L 2806 0 
z
" transform="scale(0.015625)"/>
      <path id="WenQuanYiZenHei-3d" d="M 3569 2256 
L 263 2256 
L 263 2675 
L 3569 2675 
L 3569 2256 
z
M 3569 1019 
L 263 1019 
L 263 1431 
L 3569 1431 
L 3569 1019 
z
" transform="scale(0.015625)"/>
      <path id="WenQuanYiZenHei-2e" d="M 1344 0 
L 631 0 
L 631 725 
L 1344 725 
L 1344 0 
z
" transform="scale(0.015625)"/>
      <path id="WenQuanYiZenHei-39" d="M 3544 2300 
Q 3544 1163 3019 513 
Q 2563 -63 1775 -63 
Q 956 -63 563 488 
Q 463 631 394 813 
L 838 975 
Q 1025 494 1550 388 
Q 1656 369 1775 369 
Q 2594 369 2900 1325 
Q 3044 1769 3038 2313 
L 3025 2313 
Q 2675 1638 1944 1544 
Q 1844 1531 1744 1531 
Q 1050 1531 625 2031 
Q 294 2419 294 2963 
Q 294 3656 813 4094 
Q 1238 4456 1819 4456 
Q 2988 4456 3381 3363 
Q 3544 2900 3544 2300 
z
M 2925 2994 
Q 2925 3563 2469 3844 
Q 2206 4006 1863 4006 
Q 1275 4006 988 3563 
Q 844 3344 825 3056 
Q 819 3006 819 2956 
Q 819 2413 1269 2131 
Q 1538 1963 1875 1963 
Q 2363 1963 2681 2350 
Q 2925 2638 2925 2994 
z
" transform="scale(0.015625)"/>
     </defs>
     <use xlink:href="#WenQuanYiZenHei-41"/>
     <use xlink:href="#WenQuanYiZenHei-52" x="55.957031"/>
     <use xlink:href="#WenQuanYiZenHei-49" x="117.871094"/>
     <use xlink:href="#WenQuanYiZenHei-4d" x="143.847656"/>
     <use xlink:href="#WenQuanYiZenHei-41" x="225.78125"/>
     <use xlink:href="#WenQuanYiZenHei-20" x="281.738281"/>
     <use xlink:href="#WenQuanYiZenHei-28" x="311.71875"/>
     <use xlink:href="#WenQuanYiZenHei-31" x="341.699219"/>
     <use xlink:href="#WenQuanYiZenHei-2c" x="401.660156"/>
     <use xlink:href="#WenQuanYiZenHei-20" x="431.640625"/>
     <use xlink:href="#WenQuanYiZenHei-30" x="461.621094"/>
     <use xlink:href="#WenQuanYiZenHei-2c" x="521.582031"/>
     <use xlink:href="#WenQuanYiZenHei-20" x="551.5625"/>
     <use xlink:href="#WenQuanYiZenHei-31" x="581.542969"/>
     <use xlink:href="#WenQuanYiZenHei-29" x="641.503906"/>
     <use xlink:href="#WenQuanYiZenHei-78" x="671.484375"/>
     <use xlink:href="#WenQuanYiZenHei-28" x="715.429688"/>
     <use xlink:href="#WenQuanYiZenHei-31" x="745.410156"/>
     <use xlink:href="#WenQuanYiZenHei-2c" x="805.371094"/>
     <use xlink:href="#WenQuanYiZenHei-20" x="835.351562"/>
     <use xlink:href="#WenQuanYiZenHei-30" x="865.332031"/>
     <use xlink:href="#WenQuanYiZenHei-2c" x="925.292969"/>
     <use xlink:href="#WenQuanYiZenHei-20" x="955.273438"/>
     <use xlink:href="#WenQuanYiZenHei-30" x="985.253906"/>
     <use xlink:href="#WenQuanYiZenHei-2c" x="1045.214844"/>
     <use xlink:href="#WenQuanYiZenHei-20" x="1075.195312"/>
     <use xlink:href="#WenQuanYiZenHei-37" x="1105.175781"/>
     <use xlink:href="#WenQuanYiZenHei-29" x="1165.136719"/>
     <use xlink:href="#WenQuanYiZenHei-20" x="1195.117188"/>
     <use xlink:href="#WenQuanYiZenHei-28" x="1225.097656"/>
     <use xlink:href="#WenQuanYiZenHei-52" x="1255.078125"/>
     <use xlink:href="#WenQuanYiZenHei-32" x="1316.992188"/>
     <use xlink:href="#WenQuanYiZenHei-20" x="1376.953125"/>
     <use xlink:href="#WenQuanYiZenHei-3d" x="1406.933594"/>
     <use xlink:href="#WenQuanYiZenHei-20" x="1466.894531"/>
     <use xlink:href="#WenQuanYiZenHei-30" x="1496.875"/>
     <use xlink:href="#WenQuanYiZenHei-2e" x="1556.835938"/>
     <use xlink:href="#WenQuanYiZenHei-39" x="1586.816406"/>
     <use xlink:href="#WenQuanYiZenHei-36" x="1646.777344"/>
     <use xlink:href="#WenQuanYiZenHei-30" x="1706.738281"/>
     <use xlink:href="#WenQuanYiZenHei-36" x="1766.699219"/>
     <use xlink:href="#WenQuanYiZenHei-35" x="1826.660156"/>
     <use xlink:href="#WenQuanYiZenHei-37" x="1886.621094"/>
     <use xlink:href="#WenQuanYiZenHei-29" x="1946.582031"/>
    </g>
   </g>
   <g id="legend_1">
    <g id="patch_7">
     <path d="M 1296.39375 87.056312 
L 1358.39375 87.056312 
Q 1360.39375 87.056312 1360.39375 85.056312 
L 1360.39375 42.061 
Q 1360.39375 40.061 1358.39375 40.061 
L 1296.39375 40.061 
Q 1294.39375 40.061 1294.39375 42.061 
L 1294.39375 85.056312 
Q 1294.39375 87.056312 1296.39375 87.056312 
z
" style="fill: #ffffff; opacity: 0.8; stroke: #cccccc; stroke-linejoin: miter"/>
    </g>
    <g id="line2d_22">
     <path d="M 1298.39375 48.695375 
L 1308.39375 48.695375 
L 1318.39375 48.695375 
" style="fill: none; stroke: #0000ff; stroke-width: 1.5; stroke-linecap: square"/>
    </g>
    <g id="text_20">
     <!-- 实际值 -->
     <g transform="translate(1326.39375 52.195375)scale(0.1 -0.1)">
      <defs>
       <path id="WenQuanYiZenHei-5b9e" d="M 1025 1175 
Q 694 1175 356 1163 
Q 375 1344 356 1525 
Q 694 1506 1025 1506 
L 3363 1506 
L 3363 2625 
Q 3363 3075 3338 3519 
Q 3581 3494 3825 3519 
Q 3800 3075 3800 2625 
L 3800 1506 
L 5406 1506 
Q 5744 1506 6075 1525 
Q 6056 1344 6075 1163 
Q 5744 1175 5406 1175 
L 4038 1175 
L 4981 456 
L 6131 -488 
L 5819 -856 
L 4681 75 
L 3638 875 
Q 3313 231 2475 -231 
Q 1638 -694 700 -825 
Q 638 -519 344 -400 
Q 1450 -319 2406 244 
Q 3113 656 3300 1175 
L 1025 1175 
z
M 2263 1581 
Q 1763 2081 1200 2513 
L 1494 2894 
Q 2081 2444 2600 1919 
L 2263 1581 
z
M 2638 2500 
Q 2219 2963 1731 3363 
L 2044 3738 
Q 2556 3313 3000 2819 
L 2638 2500 
z
M 919 3156 
L 481 3156 
L 481 4344 
L 3069 4344 
Q 2794 4731 2469 5081 
L 2825 5413 
Q 3256 4944 3613 4413 
L 3513 4344 
L 5869 4344 
L 5869 3156 
L 5425 3156 
L 5425 4013 
L 919 4013 
L 919 3156 
z
" transform="scale(0.015625)"/>
       <path id="WenQuanYiZenHei-9645" d="M 6000 431 
L 5569 194 
L 4963 1219 
L 4313 2219 
L 4719 2494 
L 5375 1481 
L 6000 431 
z
M 2956 2450 
Q 3181 2344 3419 2294 
Q 3006 1038 1944 -188 
Q 1794 -6 1569 56 
Q 2069 600 2372 1156 
Q 2675 1713 2956 2450 
z
M 3750 25 
L 3750 2913 
L 2819 2913 
Q 2475 2913 2125 2894 
Q 2144 3081 2125 3269 
Q 2475 3256 2819 3256 
L 5469 3256 
Q 5819 3256 6163 3269 
Q 6144 3081 6163 2894 
Q 5813 2913 5469 2913 
L 4194 2913 
L 4194 -144 
Q 4194 -725 3456 -813 
L 3263 -825 
Q 3325 -506 3125 -250 
Q 3250 -281 3394 -306 
Q 3663 -313 3706 -272 
Q 3750 -231 3750 25 
z
M 5544 4950 
Q 5525 4756 5544 4569 
Q 5194 4588 4844 4588 
L 3325 4588 
Q 2975 4588 2625 4569 
Q 2644 4756 2625 4950 
Q 2975 4931 3325 4931 
L 4844 4931 
Q 5194 4931 5544 4950 
z
M 819 -850 
Q 581 -825 344 -850 
Q 369 -419 369 19 
L 363 4938 
L 2256 4938 
L 2256 4625 
Q 2150 4513 2075 4375 
L 1481 3238 
Q 2181 2319 2181 1156 
Q 2144 400 1569 163 
L 1406 88 
Q 1288 300 1138 481 
Q 1294 538 1450 606 
Q 1763 744 1794 1156 
Q 1794 1744 1600 2300 
Q 1406 2856 1038 3313 
L 1725 4625 
L 788 4625 
L 794 19 
Q 794 -419 819 -850 
z
" transform="scale(0.015625)"/>
       <path id="WenQuanYiZenHei-503c" d="M 6175 -219 
Q 6156 -388 6175 -556 
Q 5863 -544 5550 -544 
L 2313 -544 
Q 2000 -544 1688 -556 
Q 1706 -388 1688 -219 
L 2506 -231 
L 2506 3469 
L 3644 3469 
L 3644 4119 
L 2638 4119 
Q 2325 4119 2013 4100 
Q 2031 4269 2013 4438 
Q 2325 4425 2638 4425 
L 3638 4425 
Q 3638 4719 3619 5013 
Q 3856 4988 4094 5013 
Q 4075 4719 4075 4425 
L 5344 4425 
Q 5650 4425 5963 4438 
Q 5950 4269 5963 4100 
Q 5656 4119 5344 4119 
L 4069 4119 
L 4069 3469 
L 5300 3469 
L 5300 -231 
L 5550 -231 
Q 5863 -231 6175 -219 
z
M 4869 2556 
L 4869 3156 
L 2931 3156 
Q 2931 2850 2931 2556 
L 4869 2556 
z
M 4869 1669 
L 4869 2250 
L 2931 2250 
L 2931 1669 
L 4869 1669 
z
M 4869 731 
L 4869 1363 
L 2931 1363 
L 2931 731 
L 4869 731 
z
M 4869 -231 
L 4869 425 
L 2931 425 
L 2931 -231 
L 4869 -231 
z
M 2106 4925 
Q 1856 4075 1463 3338 
L 1463 31 
Q 1463 -413 1481 -850 
Q 1256 -825 1031 -850 
Q 1050 -413 1050 31 
L 1050 2681 
Q 750 2269 375 1931 
Q 238 2156 0 2256 
Q 331 2544 619 2875 
Q 1094 3425 1300 3950 
Q 1494 4469 1625 5050 
Q 1850 4963 2106 4925 
z
" transform="scale(0.015625)"/>
      </defs>
      <use xlink:href="#WenQuanYiZenHei-5b9e"/>
      <use xlink:href="#WenQuanYiZenHei-9645" x="100"/>
      <use xlink:href="#WenQuanYiZenHei-503c" x="200"/>
     </g>
    </g>
    <g id="line2d_23">
     <path d="M 1298.39375 63.3735 
L 1308.39375 63.3735 
L 1318.39375 63.3735 
" style="fill: none; stroke: #ffa500; stroke-width: 1.5; stroke-linecap: square"/>
    </g>
    <g id="text_21">
     <!-- 校验值 -->
     <g transform="translate(1326.39375 66.8735)scale(0.1 -0.1)">
      <defs>
       <path id="WenQuanYiZenHei-6821" d="M 5256 2463 
Q 5025 1475 4494 706 
Q 5125 -94 6175 -544 
Q 5950 -663 5850 -900 
Q 4906 -494 4250 381 
Q 3931 0 3475 -350 
Q 3019 -700 2388 -919 
Q 2338 -656 2138 -475 
Q 3306 -69 4006 738 
Q 3563 1444 3300 2331 
Q 3050 2050 2706 1800 
Q 2606 2000 2406 2106 
Q 2900 2444 3181 2938 
Q 3350 3225 3488 3538 
Q 3700 3431 3925 3369 
Q 3763 2894 3425 2475 
L 3650 2531 
Q 3888 1675 4244 1075 
Q 4469 1444 4603 1937 
Q 4738 2431 4775 2688 
Q 4963 2644 5150 2625 
Q 4919 2969 4663 3294 
L 5038 3588 
Q 5544 2925 5975 2213 
L 5569 1969 
L 5256 2463 
z
M 6006 4050 
Q 5988 3881 6006 3713 
Q 5694 3725 5381 3725 
L 3413 3725 
Q 3100 3725 2788 3713 
Q 2806 3881 2788 4050 
Q 3100 4031 3413 4031 
L 4325 4031 
Q 4019 4525 3644 4969 
L 4000 5275 
Q 4413 4788 4750 4244 
L 4406 4031 
L 5381 4031 
Q 5694 4031 6006 4050 
z
M 406 263 
Q 238 431 -25 469 
Q 194 825 466 1337 
Q 738 1850 925 2406 
Q 1113 2963 1256 3519 
L 825 3519 
Q 506 3519 188 3500 
Q 206 3700 188 3900 
Q 506 3881 825 3881 
L 1363 3881 
L 1363 4263 
Q 1363 4719 1338 5175 
Q 1556 5150 1775 5175 
Q 1756 4719 1756 4263 
L 1756 3881 
L 2525 3900 
Q 2506 3700 2525 3500 
L 1756 3519 
L 1756 2738 
L 1931 2881 
Q 2306 2300 2613 1650 
L 2231 1413 
Q 2081 1725 1919 2019 
L 1756 2300 
L 1756 69 
Q 1756 -388 1775 -850 
Q 1556 -825 1338 -850 
Q 1363 -388 1363 69 
L 1363 2438 
Q 925 1144 406 263 
z
" transform="scale(0.015625)"/>
       <path id="WenQuanYiZenHei-9a8c" d="M 5981 -106 
Q 5963 -275 5981 -444 
Q 5669 -431 5356 -431 
L 2969 -431 
Q 2656 -431 2350 -444 
Q 2363 -275 2350 -106 
Q 2656 -125 2969 -125 
L 4369 -125 
Q 4600 431 4881 1288 
L 5206 2300 
Q 5425 2206 5663 2163 
Q 5375 1188 4831 -125 
L 5356 -125 
Q 5669 -125 5981 -106 
z
M 4063 594 
Q 3788 1425 3425 2219 
L 3856 2419 
Q 4225 1600 4513 744 
L 4063 594 
z
M 3163 363 
Q 2931 1200 2613 2006 
L 3056 2175 
Q 3381 1350 3619 488 
L 3163 363 
z
M 4581 2550 
L 3513 2550 
Q 3200 2550 2888 2538 
Q 2900 2663 2894 2769 
Q 2569 2488 2206 2300 
Q 2113 2550 1894 2700 
Q 2488 2975 2975 3463 
Q 3269 3756 3394 4006 
Q 3644 4513 3794 5063 
Q 4038 4975 4294 4931 
Q 4250 4806 4206 4681 
Q 4475 3888 5025 3388 
Q 5519 2938 6169 2650 
Q 5938 2538 5838 2300 
Q 5513 2456 5200 2700 
Q 5200 2619 5206 2538 
Q 4894 2550 4581 2550 
z
M 3513 2863 
L 4994 2869 
Q 4344 3438 3988 4194 
Q 3594 3406 3013 2869 
Q 3263 2863 3513 2863 
z
M 206 444 
Q 188 756 44 963 
Q 319 956 650 1003 
Q 981 1050 1731 1281 
L 1738 1006 
Q 800 719 206 444 
z
M 525 4000 
Q 744 3950 994 3944 
Q 925 3519 875 3081 
L 763 2144 
L 1475 2144 
L 1831 4444 
L 663 4444 
Q 350 4444 38 4431 
Q 56 4600 38 4769 
Q 350 4756 663 4756 
L 2313 4756 
L 1913 2144 
L 2375 2144 
L 2200 -200 
Q 2188 -425 1988 -588 
Q 1694 -800 1181 -788 
L 944 -788 
Q 1000 -450 788 -269 
Q 1013 -294 1334 -287 
Q 1656 -281 1715 -243 
Q 1775 -206 1781 -50 
L 1925 1831 
L 294 1831 
L 444 3131 
Q 500 3569 525 4000 
z
" transform="scale(0.015625)"/>
      </defs>
      <use xlink:href="#WenQuanYiZenHei-6821"/>
      <use xlink:href="#WenQuanYiZenHei-9a8c" x="100"/>
      <use xlink:href="#WenQuanYiZenHei-503c" x="200"/>
     </g>
    </g>
    <g id="line2d_24">
     <path d="M 1298.39375 77.895375 
L 1308.39375 77.895375 
L 1318.39375 77.895375 
" style="fill: none; stroke: #ff0000; stroke-width: 1.5; stroke-linecap: square"/>
    </g>
    <g id="text_22">
     <!-- 预测值 -->
     <g transform="translate(1326.39375 81.395375)scale(0.1 -0.1)">
      <use xlink:href="#WenQuanYiZenHei-9884"/>
      <use xlink:href="#WenQuanYiZenHei-6d4b" x="100"/>
      <use xlink:href="#WenQuanYiZenHei-503c" x="200"/>
     </g>
    </g>
   </g>
  </g>
 </g>
 <defs>
  <clipPath id="p9300e58e3c">
   <rect x="26.19375" y="35.061" width="1339.2" height="332.64"/>
  </clipPath>
 </defs>
</svg>
