<?xml version="1.0" encoding="utf-8" standalone="no"?>
<!DOCTYPE svg PUBLIC "-//W3C//DTD SVG 1.1//EN"
  "http://www.w3.org/Graphics/SVG/1.1/DTD/svg11.dtd">
<svg xmlns:xlink="http://www.w3.org/1999/xlink" width="1384.5875pt" height="390.665687pt" viewBox="0 0 1384.5875 390.665687" xmlns="http://www.w3.org/2000/svg" version="1.1">
 <metadata>
  <rdf:RDF xmlns:dc="http://purl.org/dc/elements/1.1/" xmlns:cc="http://creativecommons.org/ns#" xmlns:rdf="http://www.w3.org/1999/02/22-rdf-syntax-ns#">
   <cc:Work>
    <dc:type rdf:resource="http://purl.org/dc/dcmitype/StillImage"/>
    <dc:date>2022-07-27T18:19:06.123796</dc:date>
    <dc:format>image/svg+xml</dc:format>
    <dc:creator>
     <cc:Agent>
      <dc:title>Matplotlib v3.5.2, https://matplotlib.org/</dc:title>
     </cc:Agent>
    </dc:creator>
   </cc:Work>
  </rdf:RDF>
 </metadata>
 <defs>
  <style type="text/css">*{stroke-linejoin: round; stroke-linecap: butt}</style>
 </defs>
 <g id="figure_1">
  <g id="patch_1">
   <path d="M 0 390.665687 
L 1384.5875 390.665687 
L 1384.5875 -0 
L 0 -0 
z
" style="fill: #ffffff"/>
  </g>
  <g id="axes_1">
   <g id="patch_2">
    <path d="M 38.1875 367.9485 
L 1377.3875 367.9485 
L 1377.3875 35.3085 
L 38.1875 35.3085 
z
" style="fill: #ffffff"/>
   </g>
   <g id="matplotlib.axis_1">
    <g id="xtick_1">
     <g id="line2d_1">
      <defs>
       <path id="m0184b6f64f" d="M 0 0 
L 0 3.5 
" style="stroke: #000000; stroke-width: 0.8"/>
      </defs>
      <g>
       <use xlink:href="#m0184b6f64f" x="71.539726" y="367.9485" style="stroke: #000000; stroke-width: 0.8"/>
      </g>
     </g>
     <g id="text_1">
      <!-- 2020-01 -->
      <g transform="translate(52.049882 381.80475)scale(0.1 -0.1)">
       <defs>
        <path id="WenQuanYiZenHei-32" d="M 3488 0 
L 369 0 
L 369 456 
L 2150 1850 
Q 2931 2463 2931 3144 
Q 2931 3619 2488 3863 
Q 2231 4013 1931 4013 
Q 1425 4013 1113 3619 
Q 894 3356 881 3013 
L 369 3169 
Q 531 3981 1213 4300 
Q 1544 4456 1950 4456 
Q 2631 4456 3088 4044 
L 3225 3888 
L 3350 3706 
Q 3481 3444 3481 3144 
Q 3481 2313 2519 1569 
L 1069 456 
L 3488 456 
L 3488 0 
z
" transform="scale(0.015625)"/>
        <path id="WenQuanYiZenHei-30" d="M 3581 2175 
Q 3581 1288 3169 638 
Q 2713 -63 1938 -63 
Q 1025 -63 563 831 
Q 256 1425 256 2188 
Q 256 3188 700 3819 
Q 1138 4456 1888 4456 
Q 2863 4456 3306 3500 
Q 3581 2925 3581 2175 
z
M 3019 2100 
Q 3019 3356 2500 3806 
L 2350 3919 
Q 2144 4031 1888 4031 
Q 1100 4031 888 2956 
Q 819 2625 819 2225 
Q 819 1013 1338 569 
Q 1588 356 1938 356 
Q 2675 356 2925 1294 
Q 3019 1663 3019 2100 
z
" transform="scale(0.015625)"/>
        <path id="WenQuanYiZenHei-2d" d="M 1363 1444 
L 0 1444 
L 0 1844 
L 1363 1844 
L 1363 1444 
z
" transform="scale(0.015625)"/>
        <path id="WenQuanYiZenHei-31" d="M 3556 0 
L 488 0 
L 488 406 
L 1800 406 
L 1800 3725 
Q 1231 3125 588 2788 
L 588 3338 
Q 1456 3781 1931 4388 
L 2331 4388 
L 2331 406 
L 3556 406 
L 3556 0 
z
" transform="scale(0.015625)"/>
       </defs>
       <use xlink:href="#WenQuanYiZenHei-32"/>
       <use xlink:href="#WenQuanYiZenHei-30" x="59.960938"/>
       <use xlink:href="#WenQuanYiZenHei-32" x="119.921875"/>
       <use xlink:href="#WenQuanYiZenHei-30" x="179.882812"/>
       <use xlink:href="#WenQuanYiZenHei-2d" x="239.84375"/>
       <use xlink:href="#WenQuanYiZenHei-30" x="269.824219"/>
       <use xlink:href="#WenQuanYiZenHei-31" x="329.785156"/>
      </g>
     </g>
    </g>
    <g id="xtick_2">
     <g id="line2d_2">
      <g>
       <use xlink:href="#m0184b6f64f" x="190.795231" y="367.9485" style="stroke: #000000; stroke-width: 0.8"/>
      </g>
     </g>
     <g id="text_2">
      <!-- 2020-04 -->
      <g transform="translate(171.305387 381.80475)scale(0.1 -0.1)">
       <defs>
        <path id="WenQuanYiZenHei-34" d="M 3631 1025 
L 2913 1025 
L 2913 0 
L 2381 0 
L 2381 1025 
L 219 1025 
L 219 1388 
L 2225 4388 
L 2913 4388 
L 2913 1444 
L 3631 1444 
L 3631 1025 
z
M 2381 1444 
L 2381 3963 
L 788 1444 
L 2381 1444 
z
" transform="scale(0.015625)"/>
       </defs>
       <use xlink:href="#WenQuanYiZenHei-32"/>
       <use xlink:href="#WenQuanYiZenHei-30" x="59.960938"/>
       <use xlink:href="#WenQuanYiZenHei-32" x="119.921875"/>
       <use xlink:href="#WenQuanYiZenHei-30" x="179.882812"/>
       <use xlink:href="#WenQuanYiZenHei-2d" x="239.84375"/>
       <use xlink:href="#WenQuanYiZenHei-30" x="269.824219"/>
       <use xlink:href="#WenQuanYiZenHei-34" x="329.785156"/>
      </g>
     </g>
    </g>
    <g id="xtick_3">
     <g id="line2d_3">
      <g>
       <use xlink:href="#m0184b6f64f" x="310.050735" y="367.9485" style="stroke: #000000; stroke-width: 0.8"/>
      </g>
     </g>
     <g id="text_3">
      <!-- 2020-07 -->
      <g transform="translate(290.560891 381.80475)scale(0.1 -0.1)">
       <defs>
        <path id="WenQuanYiZenHei-37" d="M 3400 4056 
Q 1838 2175 1838 0 
L 1275 0 
Q 1269 1438 2056 2825 
Q 2381 3400 2825 3913 
L 444 3913 
L 500 4388 
L 3400 4388 
L 3400 4056 
z
" transform="scale(0.015625)"/>
       </defs>
       <use xlink:href="#WenQuanYiZenHei-32"/>
       <use xlink:href="#WenQuanYiZenHei-30" x="59.960938"/>
       <use xlink:href="#WenQuanYiZenHei-32" x="119.921875"/>
       <use xlink:href="#WenQuanYiZenHei-30" x="179.882812"/>
       <use xlink:href="#WenQuanYiZenHei-2d" x="239.84375"/>
       <use xlink:href="#WenQuanYiZenHei-30" x="269.824219"/>
       <use xlink:href="#WenQuanYiZenHei-37" x="329.785156"/>
      </g>
     </g>
    </g>
    <g id="xtick_4">
     <g id="line2d_4">
      <g>
       <use xlink:href="#m0184b6f64f" x="430.61674" y="367.9485" style="stroke: #000000; stroke-width: 0.8"/>
      </g>
     </g>
     <g id="text_4">
      <!-- 2020-10 -->
      <g transform="translate(411.126896 381.80475)scale(0.1 -0.1)">
       <use xlink:href="#WenQuanYiZenHei-32"/>
       <use xlink:href="#WenQuanYiZenHei-30" x="59.960938"/>
       <use xlink:href="#WenQuanYiZenHei-32" x="119.921875"/>
       <use xlink:href="#WenQuanYiZenHei-30" x="179.882812"/>
       <use xlink:href="#WenQuanYiZenHei-2d" x="239.84375"/>
       <use xlink:href="#WenQuanYiZenHei-31" x="269.824219"/>
       <use xlink:href="#WenQuanYiZenHei-30" x="329.785156"/>
      </g>
     </g>
    </g>
    <g id="xtick_5">
     <g id="line2d_5">
      <g>
       <use xlink:href="#m0184b6f64f" x="551.182744" y="367.9485" style="stroke: #000000; stroke-width: 0.8"/>
      </g>
     </g>
     <g id="text_5">
      <!-- 2021-01 -->
      <g transform="translate(531.6929 381.80475)scale(0.1 -0.1)">
       <use xlink:href="#WenQuanYiZenHei-32"/>
       <use xlink:href="#WenQuanYiZenHei-30" x="59.960938"/>
       <use xlink:href="#WenQuanYiZenHei-32" x="119.921875"/>
       <use xlink:href="#WenQuanYiZenHei-31" x="179.882812"/>
       <use xlink:href="#WenQuanYiZenHei-2d" x="239.84375"/>
       <use xlink:href="#WenQuanYiZenHei-30" x="269.824219"/>
       <use xlink:href="#WenQuanYiZenHei-31" x="329.785156"/>
      </g>
     </g>
    </g>
    <g id="xtick_6">
     <g id="line2d_6">
      <g>
       <use xlink:href="#m0184b6f64f" x="669.127749" y="367.9485" style="stroke: #000000; stroke-width: 0.8"/>
      </g>
     </g>
     <g id="text_6">
      <!-- 2021-04 -->
      <g transform="translate(649.637905 381.80475)scale(0.1 -0.1)">
       <use xlink:href="#WenQuanYiZenHei-32"/>
       <use xlink:href="#WenQuanYiZenHei-30" x="59.960938"/>
       <use xlink:href="#WenQuanYiZenHei-32" x="119.921875"/>
       <use xlink:href="#WenQuanYiZenHei-31" x="179.882812"/>
       <use xlink:href="#WenQuanYiZenHei-2d" x="239.84375"/>
       <use xlink:href="#WenQuanYiZenHei-30" x="269.824219"/>
       <use xlink:href="#WenQuanYiZenHei-34" x="329.785156"/>
      </g>
     </g>
    </g>
    <g id="xtick_7">
     <g id="line2d_7">
      <g>
       <use xlink:href="#m0184b6f64f" x="788.383253" y="367.9485" style="stroke: #000000; stroke-width: 0.8"/>
      </g>
     </g>
     <g id="text_7">
      <!-- 2021-07 -->
      <g transform="translate(768.893409 381.80475)scale(0.1 -0.1)">
       <use xlink:href="#WenQuanYiZenHei-32"/>
       <use xlink:href="#WenQuanYiZenHei-30" x="59.960938"/>
       <use xlink:href="#WenQuanYiZenHei-32" x="119.921875"/>
       <use xlink:href="#WenQuanYiZenHei-31" x="179.882812"/>
       <use xlink:href="#WenQuanYiZenHei-2d" x="239.84375"/>
       <use xlink:href="#WenQuanYiZenHei-30" x="269.824219"/>
       <use xlink:href="#WenQuanYiZenHei-37" x="329.785156"/>
      </g>
     </g>
    </g>
    <g id="xtick_8">
     <g id="line2d_8">
      <g>
       <use xlink:href="#m0184b6f64f" x="908.949258" y="367.9485" style="stroke: #000000; stroke-width: 0.8"/>
      </g>
     </g>
     <g id="text_8">
      <!-- 2021-10 -->
      <g transform="translate(889.459414 381.80475)scale(0.1 -0.1)">
       <use xlink:href="#WenQuanYiZenHei-32"/>
       <use xlink:href="#WenQuanYiZenHei-30" x="59.960938"/>
       <use xlink:href="#WenQuanYiZenHei-32" x="119.921875"/>
       <use xlink:href="#WenQuanYiZenHei-31" x="179.882812"/>
       <use xlink:href="#WenQuanYiZenHei-2d" x="239.84375"/>
       <use xlink:href="#WenQuanYiZenHei-31" x="269.824219"/>
       <use xlink:href="#WenQuanYiZenHei-30" x="329.785156"/>
      </g>
     </g>
    </g>
    <g id="xtick_9">
     <g id="line2d_9">
      <g>
       <use xlink:href="#m0184b6f64f" x="1029.515262" y="367.9485" style="stroke: #000000; stroke-width: 0.8"/>
      </g>
     </g>
     <g id="text_9">
      <!-- 2022-01 -->
      <g transform="translate(1010.025418 381.80475)scale(0.1 -0.1)">
       <use xlink:href="#WenQuanYiZenHei-32"/>
       <use xlink:href="#WenQuanYiZenHei-30" x="59.960938"/>
       <use xlink:href="#WenQuanYiZenHei-32" x="119.921875"/>
       <use xlink:href="#WenQuanYiZenHei-32" x="179.882812"/>
       <use xlink:href="#WenQuanYiZenHei-2d" x="239.84375"/>
       <use xlink:href="#WenQuanYiZenHei-30" x="269.824219"/>
       <use xlink:href="#WenQuanYiZenHei-31" x="329.785156"/>
      </g>
     </g>
    </g>
    <g id="xtick_10">
     <g id="line2d_10">
      <g>
       <use xlink:href="#m0184b6f64f" x="1147.460266" y="367.9485" style="stroke: #000000; stroke-width: 0.8"/>
      </g>
     </g>
     <g id="text_10">
      <!-- 2022-04 -->
      <g transform="translate(1127.970423 381.80475)scale(0.1 -0.1)">
       <use xlink:href="#WenQuanYiZenHei-32"/>
       <use xlink:href="#WenQuanYiZenHei-30" x="59.960938"/>
       <use xlink:href="#WenQuanYiZenHei-32" x="119.921875"/>
       <use xlink:href="#WenQuanYiZenHei-32" x="179.882812"/>
       <use xlink:href="#WenQuanYiZenHei-2d" x="239.84375"/>
       <use xlink:href="#WenQuanYiZenHei-30" x="269.824219"/>
       <use xlink:href="#WenQuanYiZenHei-34" x="329.785156"/>
      </g>
     </g>
    </g>
    <g id="xtick_11">
     <g id="line2d_11">
      <g>
       <use xlink:href="#m0184b6f64f" x="1266.715771" y="367.9485" style="stroke: #000000; stroke-width: 0.8"/>
      </g>
     </g>
     <g id="text_11">
      <!-- 2022-07 -->
      <g transform="translate(1247.225927 381.80475)scale(0.1 -0.1)">
       <use xlink:href="#WenQuanYiZenHei-32"/>
       <use xlink:href="#WenQuanYiZenHei-30" x="59.960938"/>
       <use xlink:href="#WenQuanYiZenHei-32" x="119.921875"/>
       <use xlink:href="#WenQuanYiZenHei-32" x="179.882812"/>
       <use xlink:href="#WenQuanYiZenHei-2d" x="239.84375"/>
       <use xlink:href="#WenQuanYiZenHei-30" x="269.824219"/>
       <use xlink:href="#WenQuanYiZenHei-37" x="329.785156"/>
      </g>
     </g>
    </g>
   </g>
   <g id="matplotlib.axis_2">
    <g id="ytick_1">
     <g id="line2d_12">
      <defs>
       <path id="m1893fbfce8" d="M 0 0 
L -3.5 0 
" style="stroke: #000000; stroke-width: 0.8"/>
      </defs>
      <g>
       <use xlink:href="#m1893fbfce8" x="38.1875" y="353.17459" style="stroke: #000000; stroke-width: 0.8"/>
      </g>
     </g>
     <g id="text_12">
      <!-- 0 -->
      <g transform="translate(25.190625 356.602715)scale(0.1 -0.1)">
       <use xlink:href="#WenQuanYiZenHei-30"/>
      </g>
     </g>
    </g>
    <g id="ytick_2">
     <g id="line2d_13">
      <g>
       <use xlink:href="#m1893fbfce8" x="38.1875" y="309.913315" style="stroke: #000000; stroke-width: 0.8"/>
      </g>
     </g>
     <g id="text_13">
      <!-- 250 -->
      <g transform="translate(13.196875 313.34144)scale(0.1 -0.1)">
       <defs>
        <path id="WenQuanYiZenHei-35" d="M 3531 1488 
Q 3531 688 2913 250 
Q 2456 -63 1844 -63 
Q 1175 -63 706 350 
Q 413 613 306 975 
L 781 1131 
Q 1000 538 1569 406 
Q 1706 369 1856 369 
Q 2550 369 2850 869 
Q 3000 1131 3000 1494 
Q 3000 2056 2581 2356 
Q 2319 2538 1969 2538 
Q 1400 2538 1031 2075 
Q 981 2013 938 1938 
L 500 2031 
L 644 4388 
L 3244 4388 
L 3200 3919 
L 1044 3919 
L 950 2500 
Q 1431 2975 2006 2975 
Q 2713 2975 3163 2475 
Q 3531 2063 3531 1488 
z
" transform="scale(0.015625)"/>
       </defs>
       <use xlink:href="#WenQuanYiZenHei-32"/>
       <use xlink:href="#WenQuanYiZenHei-35" x="59.960938"/>
       <use xlink:href="#WenQuanYiZenHei-30" x="119.921875"/>
      </g>
     </g>
    </g>
    <g id="ytick_3">
     <g id="line2d_14">
      <g>
       <use xlink:href="#m1893fbfce8" x="38.1875" y="266.652039" style="stroke: #000000; stroke-width: 0.8"/>
      </g>
     </g>
     <g id="text_14">
      <!-- 500 -->
      <g transform="translate(13.196875 270.080164)scale(0.1 -0.1)">
       <use xlink:href="#WenQuanYiZenHei-35"/>
       <use xlink:href="#WenQuanYiZenHei-30" x="59.960938"/>
       <use xlink:href="#WenQuanYiZenHei-30" x="119.921875"/>
      </g>
     </g>
    </g>
    <g id="ytick_4">
     <g id="line2d_15">
      <g>
       <use xlink:href="#m1893fbfce8" x="38.1875" y="223.390764" style="stroke: #000000; stroke-width: 0.8"/>
      </g>
     </g>
     <g id="text_15">
      <!-- 750 -->
      <g transform="translate(13.196875 226.818889)scale(0.1 -0.1)">
       <use xlink:href="#WenQuanYiZenHei-37"/>
       <use xlink:href="#WenQuanYiZenHei-35" x="59.960938"/>
       <use xlink:href="#WenQuanYiZenHei-30" x="119.921875"/>
      </g>
     </g>
    </g>
    <g id="ytick_5">
     <g id="line2d_16">
      <g>
       <use xlink:href="#m1893fbfce8" x="38.1875" y="180.129488" style="stroke: #000000; stroke-width: 0.8"/>
      </g>
     </g>
     <g id="text_16">
      <!-- 1000 -->
      <g transform="translate(7.2 183.557613)scale(0.1 -0.1)">
       <use xlink:href="#WenQuanYiZenHei-31"/>
       <use xlink:href="#WenQuanYiZenHei-30" x="59.960938"/>
       <use xlink:href="#WenQuanYiZenHei-30" x="119.921875"/>
       <use xlink:href="#WenQuanYiZenHei-30" x="179.882812"/>
      </g>
     </g>
    </g>
    <g id="ytick_6">
     <g id="line2d_17">
      <g>
       <use xlink:href="#m1893fbfce8" x="38.1875" y="136.868213" style="stroke: #000000; stroke-width: 0.8"/>
      </g>
     </g>
     <g id="text_17">
      <!-- 1250 -->
      <g transform="translate(7.2 140.296338)scale(0.1 -0.1)">
       <use xlink:href="#WenQuanYiZenHei-31"/>
       <use xlink:href="#WenQuanYiZenHei-32" x="59.960938"/>
       <use xlink:href="#WenQuanYiZenHei-35" x="119.921875"/>
       <use xlink:href="#WenQuanYiZenHei-30" x="179.882812"/>
      </g>
     </g>
    </g>
    <g id="ytick_7">
     <g id="line2d_18">
      <g>
       <use xlink:href="#m1893fbfce8" x="38.1875" y="93.606938" style="stroke: #000000; stroke-width: 0.8"/>
      </g>
     </g>
     <g id="text_18">
      <!-- 1500 -->
      <g transform="translate(7.2 97.035063)scale(0.1 -0.1)">
       <use xlink:href="#WenQuanYiZenHei-31"/>
       <use xlink:href="#WenQuanYiZenHei-35" x="59.960938"/>
       <use xlink:href="#WenQuanYiZenHei-30" x="119.921875"/>
       <use xlink:href="#WenQuanYiZenHei-30" x="179.882812"/>
      </g>
     </g>
    </g>
    <g id="ytick_8">
     <g id="line2d_19">
      <g>
       <use xlink:href="#m1893fbfce8" x="38.1875" y="50.345662" style="stroke: #000000; stroke-width: 0.8"/>
      </g>
     </g>
     <g id="text_19">
      <!-- 1750 -->
      <g transform="translate(7.2 53.773787)scale(0.1 -0.1)">
       <use xlink:href="#WenQuanYiZenHei-31"/>
       <use xlink:href="#WenQuanYiZenHei-37" x="59.960938"/>
       <use xlink:href="#WenQuanYiZenHei-35" x="119.921875"/>
       <use xlink:href="#WenQuanYiZenHei-30" x="179.882812"/>
      </g>
     </g>
    </g>
   </g>
   <g id="line2d_20">
    <path d="M 99.060227 352.8285 
L 101.681227 352.48241 
L 102.991727 350.232823 
L 104.302227 349.540643 
L 105.612728 348.502372 
L 106.923228 347.291057 
L 108.233728 346.425831 
L 109.544228 346.079741 
L 110.854728 344.868425 
L 112.165228 342.099704 
L 113.475728 341.061433 
L 114.786228 340.369253 
L 116.096728 339.157937 
L 117.407228 337.773576 
L 120.028228 336.043125 
L 121.338728 335.004855 
L 122.649228 334.658764 
L 123.959728 334.485719 
L 125.270228 333.966584 
L 126.580728 333.101358 
L 127.891228 332.928313 
L 129.201728 332.582223 
L 130.512228 332.582223 
L 131.822728 332.236133 
L 148.859229 332.236133 
L 150.169729 332.063088 
L 151.480229 332.063088 
L 152.790729 331.543952 
L 173.75873 331.543952 
L 175.06923 331.370907 
L 176.37973 331.370907 
L 177.69023 331.197862 
L 181.62173 331.197862 
L 182.93223 331.024817 
L 184.24273 331.024817 
L 185.553231 330.332637 
L 188.174231 329.640456 
L 189.484731 329.121321 
L 192.105731 328.775231 
L 194.726731 328.775231 
L 196.037231 328.602186 
L 197.347731 328.602186 
L 198.658231 328.256096 
L 202.589731 328.256096 
L 203.900231 328.08305 
L 210.452731 328.08305 
L 211.763231 327.910005 
L 240.594233 327.910005 
L 241.904733 327.73696 
L 244.525733 327.73696 
L 245.836233 327.39087 
L 285.151234 327.39087 
L 286.461734 327.04478 
L 287.772234 327.04478 
L 289.082734 326.871735 
L 291.703734 326.871735 
L 293.014235 326.69869 
L 295.635235 326.69869 
L 296.945735 326.525645 
L 304.808735 326.525645 
L 306.119235 326.352599 
L 310.050735 326.352599 
L 311.361235 326.179554 
L 313.982235 326.179554 
L 315.292735 326.006509 
L 316.603235 326.006509 
L 317.913735 325.660419 
L 319.224235 325.141284 
L 321.845236 325.141284 
L 323.155736 324.795194 
L 336.260736 324.795194 
L 337.571236 324.622148 
L 338.881736 324.276058 
L 340.192236 322.718652 
L 342.813236 318.046435 
L 344.123736 317.008164 
L 345.434236 315.623803 
L 346.744737 314.758578 
L 348.055237 312.855082 
L 349.365737 311.470721 
L 350.676237 310.951585 
L 351.986737 309.394179 
L 353.297237 309.048089 
L 354.607737 309.048089 
L 355.918237 308.528954 
L 357.228737 308.355909 
L 359.849737 308.355909 
L 361.160237 308.009819 
L 379.507238 308.009819 
L 380.817738 307.836774 
L 391.301738 307.836774 
L 392.612238 307.663728 
L 401.785739 307.663728 
L 403.096239 307.490683 
L 412.269739 307.490683 
L 413.580239 307.317638 
L 418.822239 307.317638 
L 420.132739 306.971548 
L 422.753739 306.971548 
L 424.064239 306.279368 
L 438.47974 306.279368 
L 441.10074 305.587187 
L 442.41124 305.414142 
L 443.72174 304.721962 
L 459.447741 304.721962 
L 460.758241 304.202826 
L 475.173741 304.202826 
L 476.484241 304.029781 
L 479.105241 304.029781 
L 480.415742 303.856736 
L 481.726242 303.856736 
L 483.036742 303.683691 
L 485.657742 303.683691 
L 486.968242 303.337601 
L 490.899742 303.337601 
L 492.210242 303.164556 
L 531.525243 303.164556 
L 535.456744 302.645421 
L 536.767244 302.29933 
L 538.077744 302.126285 
L 539.388244 300.914969 
L 540.698744 299.530609 
L 542.009244 298.492338 
L 543.319744 297.281022 
L 544.630244 296.242752 
L 545.940744 294.858391 
L 548.561744 293.12794 
L 549.872244 292.43576 
L 551.182744 291.051399 
L 552.493244 290.532263 
L 553.803744 289.320948 
L 555.114244 288.801812 
L 557.735244 288.455722 
L 559.045744 287.936587 
L 560.356244 286.725271 
L 561.666745 286.206136 
L 562.977245 285.167865 
L 564.287745 284.64873 
L 578.703245 284.64873 
L 580.013745 284.475685 
L 587.876746 284.475685 
L 589.187246 283.95655 
L 590.497746 283.95655 
L 591.808246 283.610459 
L 603.602746 283.610459 
L 606.223746 283.264369 
L 614.086747 283.264369 
L 616.707747 282.918279 
L 653.401748 282.918279 
L 654.712248 282.745234 
L 678.301249 282.745234 
L 679.611749 282.572189 
L 724.168751 282.572189 
L 725.479251 282.053053 
L 726.789751 281.360873 
L 728.100251 280.841738 
L 729.410751 280.149557 
L 730.721251 280.149557 
L 732.031751 279.976512 
L 733.342251 279.976512 
L 735.963251 279.630422 
L 754.310252 279.630422 
L 755.620752 279.457377 
L 776.588753 279.457377 
L 777.899253 279.284332 
L 787.072753 279.284332 
L 788.383253 279.111287 
L 789.693753 279.111287 
L 791.004253 278.938242 
L 792.314753 278.938242 
L 793.625253 278.765196 
L 802.798754 278.765196 
L 804.109254 278.592151 
L 817.214254 278.592151 
L 819.835254 278.246061 
L 821.145754 278.246061 
L 822.456254 277.899971 
L 823.766754 277.899971 
L 826.387754 277.553881 
L 830.319255 277.553881 
L 831.629755 277.380836 
L 842.113755 277.380836 
L 844.734755 277.034745 
L 846.045255 277.034745 
L 847.355755 276.8617 
L 851.287255 276.8617 
L 852.597755 276.51561 
L 859.150256 276.51561 
L 863.081756 275.996475 
L 874.876256 275.996475 
L 876.186756 275.650385 
L 881.428756 275.650385 
L 882.739257 275.47734 
L 889.291757 275.47734 
L 890.602257 275.304294 
L 895.844257 275.304294 
L 897.154757 275.131249 
L 898.465257 275.131249 
L 899.775757 274.958204 
L 901.086257 274.958204 
L 902.396757 274.785159 
L 905.017757 274.785159 
L 906.328257 274.439069 
L 907.638757 274.439069 
L 910.259758 274.092979 
L 916.812258 274.092979 
L 918.122758 273.746889 
L 919.433258 273.573843 
L 920.743758 273.573843 
L 922.054258 273.400798 
L 923.364758 273.400798 
L 924.675258 273.227753 
L 927.296258 273.227753 
L 928.606758 273.054708 
L 933.848758 273.054708 
L 936.469759 272.708618 
L 940.401259 272.708618 
L 941.711759 272.535573 
L 949.574759 272.535573 
L 950.885259 272.362528 
L 952.195759 272.362528 
L 953.506259 270.805122 
L 954.816759 270.285986 
L 956.127259 268.38249 
L 957.437759 264.921588 
L 958.748259 264.056363 
L 960.058759 260.941551 
L 961.369259 257.307604 
L 962.67976 248.309259 
L 963.99026 241.387455 
L 965.30076 230.831703 
L 966.61126 226.505576 
L 967.92176 225.29426 
L 969.23226 223.909899 
L 970.54276 223.044674 
L 971.85326 221.660313 
L 973.16376 221.314223 
L 974.47426 220.795087 
L 975.78476 219.756817 
L 977.09526 219.064636 
L 978.40576 218.545501 
L 979.71626 218.545501 
L 981.02676 218.372456 
L 982.33726 217.680276 
L 983.64776 217.50723 
L 991.510761 217.50723 
L 992.821261 217.16114 
L 998.063261 217.16114 
L 999.373761 216.988095 
L 1000.684261 216.988095 
L 1001.994761 216.81505 
L 1009.857761 216.81505 
L 1011.168261 216.295915 
L 1012.478761 216.12287 
L 1016.410262 216.12287 
L 1017.720762 215.949825 
L 1025.583762 215.949825 
L 1029.515262 215.430689 
L 1034.757262 215.430689 
L 1036.067762 215.084599 
L 1038.688762 214.738509 
L 1039.999262 214.392419 
L 1043.930763 214.392419 
L 1045.241263 213.873283 
L 1046.551763 213.700238 
L 1047.862263 213.354148 
L 1050.483263 213.008058 
L 1059.656763 213.008058 
L 1060.967263 212.835013 
L 1063.588263 212.835013 
L 1064.898763 212.661968 
L 1078.003764 212.661968 
L 1079.314264 212.315877 
L 1080.624764 212.488923 
L 1081.935264 208.68193 
L 1084.556264 204.701893 
L 1085.866764 201.240991 
L 1087.177264 196.222683 
L 1088.487764 193.453961 
L 1089.798264 192.242646 
L 1091.108764 190.68524 
L 1093.729764 187.051293 
L 1095.040264 185.839977 
L 1096.350765 184.801706 
L 1097.661265 183.2443 
L 1098.971765 181.85994 
L 1100.282265 178.745128 
L 1101.592765 177.014677 
L 1102.903265 175.630316 
L 1104.213765 175.457271 
L 1105.524265 175.457271 
L 1106.834765 175.111181 
L 1109.455765 175.111181 
L 1110.766265 174.76509 
L 1113.387265 174.76509 
L 1114.697765 174.07291 
L 1116.008265 173.899865 
L 1118.629265 172.515504 
L 1119.939765 171.996369 
L 1121.250265 171.131143 
L 1122.560765 169.573737 
L 1123.871266 165.24761 
L 1125.181766 159.364076 
L 1126.492266 147.9431 
L 1127.802766 139.80998 
L 1129.113266 127.177687 
L 1130.423766 120.428928 
L 1131.734266 114.37235 
L 1133.044766 102.605283 
L 1134.355266 96.375659 
L 1136.976266 93.260847 
L 1138.286766 90.838216 
L 1139.597266 85.992953 
L 1140.907766 83.916412 
L 1142.218266 82.185961 
L 1143.528766 81.320735 
L 1144.839266 79.76333 
L 1146.149766 79.417239 
L 1147.460266 78.552014 
L 1148.770766 78.205924 
L 1150.081267 78.205924 
L 1151.391767 77.686788 
L 1152.702267 76.475473 
L 1154.012767 76.129382 
L 1155.323267 75.956337 
L 1156.633767 75.956337 
L 1157.944267 75.610247 
L 1165.807267 74.571976 
L 1167.117767 74.225886 
L 1168.428267 74.225886 
L 1169.738767 74.052841 
L 1174.980767 74.052841 
L 1176.291267 73.879796 
L 1177.601768 73.360661 
L 1178.912268 69.034533 
L 1180.222768 69.034533 
L 1184.154268 68.515398 
L 1185.464768 68.515398 
L 1186.775268 68.342353 
L 1188.085768 67.477127 
L 1189.396268 67.477127 
L 1192.017268 66.784947 
L 1193.327768 66.611902 
L 1195.948768 66.611902 
L 1197.259268 66.265812 
L 1198.569768 65.400586 
L 1199.880268 65.054496 
L 1201.190768 65.054496 
L 1203.811769 64.362315 
L 1205.122269 64.18927 
L 1209.053769 64.18927 
L 1210.364269 64.016225 
L 1212.985269 64.016225 
L 1215.606269 63.670135 
L 1219.537769 63.670135 
L 1220.848269 63.324045 
L 1232.64277 63.324045 
L 1233.95327 61.074459 
L 1235.26377 61.074459 
L 1236.57427 59.170962 
L 1237.88477 58.824872 
L 1239.19527 58.305737 
L 1243.12677 58.305737 
L 1244.43727 57.959647 
L 1245.74777 57.440511 
L 1248.36877 56.056151 
L 1249.67927 55.883105 
L 1268.026271 55.883105 
L 1269.336771 55.71006 
L 1274.578771 55.71006 
L 1277.199771 55.36397 
L 1278.510271 55.01788 
L 1282.441771 55.01788 
L 1283.752272 54.67179 
L 1285.062772 54.498745 
L 1287.683772 53.806564 
L 1288.994272 53.806564 
L 1290.304772 53.633519 
L 1295.546772 53.633519 
L 1296.857272 53.287429 
L 1299.478272 52.941339 
L 1299.478272 52.941339 
" clip-path="url(#p00c323121e)" style="fill: none; stroke: #0000ff; stroke-width: 1.5; stroke-linecap: square"/>
   </g>
   <g id="line2d_21">
    <path d="M 1059.656763 213.00799 
L 1060.967263 212.717723 
L 1063.588263 212.822827 
L 1064.898763 212.540772 
L 1067.519763 212.649376 
L 1078.003764 212.661966 
L 1079.314264 212.081342 
L 1080.624764 212.530592 
L 1081.935264 206.115474 
L 1084.556264 202.691719 
L 1085.866764 198.247701 
L 1087.177264 191.857097 
L 1088.487764 190.170524 
L 1089.798264 190.363425 
L 1091.108764 189.024103 
L 1092.419264 186.956367 
L 1093.729764 185.290244 
L 1096.350765 183.650543 
L 1097.661265 181.817838 
L 1098.971765 180.462008 
L 1100.282265 176.183716 
L 1101.592765 175.016383 
L 1102.903265 174.048067 
L 1104.213765 174.829998 
L 1105.524265 175.255083 
L 1106.834765 174.811474 
L 1108.145265 175.014576 
L 1109.455765 175.080042 
L 1110.766265 174.520518 
L 1112.076765 174.686258 
L 1113.387265 174.73968 
L 1114.697765 173.595649 
L 1116.008265 173.628762 
L 1117.318765 172.65123 
L 1118.629265 171.867072 
L 1119.939765 171.435557 
L 1121.250265 170.364039 
L 1122.560765 168.271069 
L 1123.871266 161.896031 
L 1125.181766 154.296666 
L 1126.492266 138.570062 
L 1127.802766 131.277198 
L 1129.113266 115.866787 
L 1130.423766 112.209658 
L 1131.734266 107.618673 
L 1133.044766 92.454178 
L 1134.355266 88.882028 
L 1135.665766 91.347429 
L 1136.976266 91.086691 
L 1138.286766 88.495675 
L 1139.597266 81.954391 
L 1140.907766 81.207454 
L 1142.218266 80.140109 
L 1143.528766 80.07496 
L 1144.839266 78.306371 
L 1146.149766 78.713084 
L 1147.460266 77.738706 
L 1148.770766 77.709236 
L 1150.081267 78.045827 
L 1151.391767 77.283381 
L 1152.702267 75.524569 
L 1155.323267 75.664677 
L 1156.633767 75.862327 
L 1157.944267 75.345409 
L 1161.875767 74.914993 
L 1165.807267 74.398828 
L 1167.117767 73.93554 
L 1168.428267 74.132299 
L 1169.738767 73.905408 
L 1172.359767 74.037523 
L 1174.980767 74.05125 
L 1176.291267 73.762015 
L 1177.601768 72.970894 
L 1178.912268 65.977209 
L 1180.222768 68.049069 
L 1181.533268 68.426577 
L 1182.843768 68.430991 
L 1184.154268 68.315146 
L 1185.464768 68.450851 
L 1186.775268 68.20428 
L 1188.085768 66.846284 
L 1189.396268 67.273788 
L 1192.017268 66.453688 
L 1193.327768 66.38786 
L 1195.948768 66.588625 
L 1197.259268 66.023773 
L 1198.569768 64.736232 
L 1199.880268 64.60582 
L 1201.190768 64.909875 
L 1203.811769 64.037157 
L 1205.122269 63.967195 
L 1207.743269 64.166198 
L 1209.053769 64.181833 
L 1210.364269 63.89656 
L 1212.985269 64.003793 
L 1215.606269 63.513777 
L 1218.227269 63.65389 
L 1219.537769 63.664899 
L 1220.848269 63.087822 
L 1223.469269 63.299502 
L 1232.64277 63.324036 
L 1233.95327 59.549977 
L 1235.26377 60.583074 
L 1236.57427 57.722631 
L 1237.88477 58.123498 
L 1239.19527 57.727861 
L 1240.50577 58.119471 
L 1243.12677 58.286385 
L 1244.43727 57.718874 
L 1245.74777 57.0111 
L 1248.36877 55.391271 
L 1252.30027 55.848656 
L 1260.163271 55.883067 
L 1268.026271 55.883105 
L 1269.336771 55.592793 
L 1271.957771 55.697877 
L 1274.578771 55.708795 
L 1278.510271 54.73332 
L 1279.820771 54.926158 
L 1282.441771 55.00835 
L 1283.752272 54.434183 
L 1285.062772 54.304889 
L 1287.683772 53.476291 
L 1288.994272 53.700107 
L 1290.304772 53.481937 
L 1292.925772 53.61777 
L 1295.546772 53.631883 
L 1296.857272 53.052366 
L 1299.478272 52.76185 
L 1299.478272 52.76185 
" clip-path="url(#p00c323121e)" style="fill: none; stroke: #ffa500; stroke-width: 1.5; stroke-linecap: square"/>
   </g>
   <g id="line2d_22">
    <path d="M 1299.478272 52.76185 
L 1300.788772 52.582362 
L 1302.099272 52.402873 
L 1303.409772 52.223385 
L 1304.720272 52.043896 
L 1306.030772 51.864408 
L 1307.341272 51.684919 
L 1308.651772 51.505431 
L 1309.962272 51.325942 
L 1311.272773 51.146454 
L 1312.583273 50.966965 
L 1313.893773 50.787477 
L 1315.204273 50.607988 
L 1316.514773 50.4285 
" clip-path="url(#p00c323121e)" style="fill: none; stroke: #ff0000; stroke-width: 1.5; stroke-linecap: square"/>
   </g>
   <g id="patch_3">
    <path d="M 38.1875 367.9485 
L 38.1875 35.3085 
" style="fill: none; stroke: #000000; stroke-width: 0.8; stroke-linejoin: miter; stroke-linecap: square"/>
   </g>
   <g id="patch_4">
    <path d="M 1377.3875 367.9485 
L 1377.3875 35.3085 
" style="fill: none; stroke: #000000; stroke-width: 0.8; stroke-linejoin: miter; stroke-linecap: square"/>
   </g>
   <g id="patch_5">
    <path d="M 38.1875 367.9485 
L 1377.3875 367.9485 
" style="fill: none; stroke: #000000; stroke-width: 0.8; stroke-linejoin: miter; stroke-linecap: square"/>
   </g>
   <g id="patch_6">
    <path d="M 38.1875 35.3085 
L 1377.3875 35.3085 
" style="fill: none; stroke: #000000; stroke-width: 0.8; stroke-linejoin: miter; stroke-linecap: square"/>
   </g>
   <g id="text_20">
    <!-- 累计确诊预测 - 辽宁 -->
    <g transform="translate(654.390313 17.289375)scale(0.12 -0.12)">
     <defs>
      <path id="WenQuanYiZenHei-7d2f" d="M 5963 -681 
Q 5363 -81 4706 456 
L 5000 819 
Q 5675 269 6294 -350 
L 5963 -681 
z
M 1944 738 
Q 2094 556 2281 413 
Q 1575 -356 375 -706 
Q 350 -481 200 -319 
Q 725 -181 1122 69 
Q 1519 319 1944 738 
z
M 3244 -169 
L 3244 1063 
L 869 881 
L 850 1181 
Q 1431 1325 2969 1988 
L 1119 1931 
L 1113 2231 
Q 1350 2263 1862 2497 
Q 2375 2731 2800 2988 
L 1094 2988 
Q 1169 4006 1094 5019 
L 5506 5019 
Q 5425 4006 5500 2988 
L 3431 2988 
Q 3475 2931 3525 2875 
Q 2856 2494 2281 2256 
L 3388 2269 
L 3650 2288 
Q 4338 2606 4650 2800 
Q 4744 2563 4881 2344 
Q 4644 2225 3975 1956 
L 2269 1281 
L 4444 1425 
L 4813 1469 
L 4681 1588 
L 4988 1938 
Q 5481 1500 5863 963 
L 5481 694 
Q 5300 950 5081 1188 
L 4463 1163 
L 3669 1100 
L 3669 -250 
Q 3669 -444 3488 -594 
Q 3225 -819 2569 -813 
Q 2638 -513 2431 -294 
Q 2619 -319 2900 -322 
Q 3181 -325 3212 -294 
Q 3244 -263 3244 -169 
z
M 3513 4131 
L 5081 4131 
L 5081 4725 
L 3513 4725 
L 3513 4131 
z
M 3088 4131 
L 3088 4725 
L 1519 4725 
L 1519 4131 
L 3088 4131 
z
M 3513 3856 
L 3513 3288 
L 5081 3288 
L 5081 3856 
L 3513 3856 
z
M 3088 3856 
L 1519 3856 
L 1519 3288 
L 3088 3288 
L 3088 3856 
z
" transform="scale(0.015625)"/>
      <path id="WenQuanYiZenHei-8ba1" d="M 4569 -769 
Q 4313 -738 4056 -769 
Q 4081 -294 4081 175 
L 4081 2806 
L 3213 2806 
Q 2813 2806 2413 2788 
Q 2438 3000 2413 3219 
Q 2813 3200 3213 3200 
L 4081 3200 
L 4081 4313 
Q 4081 4788 4056 5263 
Q 4313 5231 4569 5263 
Q 4550 4788 4550 4313 
L 4550 3200 
L 5381 3200 
Q 5781 3200 6181 3219 
Q 6163 3000 6181 2788 
Q 5781 2806 5381 2806 
L 4550 2806 
L 4550 175 
Q 4550 -294 4569 -769 
z
M 38 2725 
Q 63 2931 38 3138 
Q 419 3119 800 3119 
L 1481 3119 
L 1481 425 
L 2044 1150 
L 2250 1488 
L 2525 1188 
L 2313 950 
L 1294 -488 
L 963 -231 
Q 1025 -94 1025 63 
L 1025 2744 
L 800 2744 
Q 419 2744 38 2725 
z
M 1450 3913 
Q 1094 4438 600 4831 
L 913 5225 
Q 1488 4769 1869 4194 
L 1450 3913 
z
" transform="scale(0.015625)"/>
      <path id="WenQuanYiZenHei-786e" d="M 4794 -769 
Q 4563 -744 4331 -769 
Q 4350 -344 4350 81 
L 4350 1081 
L 3419 1081 
L 3419 788 
Q 3419 225 3150 -194 
Q 2881 -613 2456 -806 
Q 2375 -569 2150 -444 
Q 2531 -344 2765 -15 
Q 3000 313 3000 788 
L 2994 2919 
L 2888 2813 
Q 2769 3000 2563 3081 
Q 3044 3494 3309 3969 
Q 3575 4444 3763 5119 
Q 3981 5044 4213 5013 
Q 4144 4700 4025 4400 
L 5238 4400 
L 5306 4050 
Q 5213 4031 5163 3947 
Q 5113 3863 4813 3325 
L 5994 3325 
L 5994 -150 
Q 5981 -519 5738 -656 
Q 5469 -806 5069 -806 
Q 5125 -525 4956 -294 
Q 5100 -313 5290 -316 
Q 5481 -319 5525 -278 
Q 5569 -238 5569 25 
L 5569 1081 
L 4769 1081 
L 4769 81 
Q 4769 -344 4794 -769 
z
M 4769 1344 
L 5569 1344 
L 5569 2100 
L 4769 2100 
L 4769 1344 
z
M 4350 1344 
L 4350 2100 
L 3413 2100 
L 3419 1344 
L 4350 1344 
z
M 4769 2363 
L 5569 2363 
L 5569 3038 
L 4769 3038 
L 4769 2363 
z
M 4350 2363 
L 4350 3038 
L 3413 3038 
L 3413 2363 
L 4350 2363 
z
M 3375 3325 
L 4350 3325 
L 4344 3331 
L 4775 4113 
L 3894 4113 
Q 3688 3700 3375 3325 
z
M 481 1069 
Q 281 1194 -25 1188 
Q 775 2750 1244 4294 
L 869 4294 
Q 563 4294 250 4275 
Q 269 4438 250 4594 
Q 563 4581 869 4581 
L 2156 4581 
Q 2463 4581 2775 4594 
Q 2756 4438 2775 4275 
Q 2463 4294 2156 4294 
L 1744 4294 
L 1181 2763 
L 2494 2763 
L 2494 -338 
L 2050 -338 
L 2050 156 
L 1406 156 
Q 1406 -94 1419 -350 
Q 1181 -325 938 -350 
Q 956 75 956 500 
L 956 2181 
L 769 1713 
Q 631 1388 481 1069 
z
M 2050 2475 
L 1400 2475 
L 1400 425 
L 2050 425 
L 2050 2475 
z
" transform="scale(0.015625)"/>
      <path id="WenQuanYiZenHei-8bca" d="M 5369 1456 
Q 5556 1256 5775 1100 
Q 5038 344 4081 -225 
Q 3106 -819 1788 -1006 
Q 1788 -725 1631 -500 
Q 3363 -306 4406 519 
Q 4919 956 5369 1456 
z
M 4594 2219 
Q 4781 2031 5013 1881 
Q 3625 394 2150 -25 
Q 2113 250 1913 444 
Q 2475 594 3015 850 
Q 3556 1106 3919 1463 
Q 4275 1819 4594 2219 
z
M 3969 3188 
Q 4150 3013 4356 2881 
Q 3625 1913 2306 1275 
Q 2244 1500 2056 1644 
Q 2619 1900 3053 2256 
Q 3488 2613 3969 3188 
z
M 5813 2194 
Q 4525 2913 3731 4188 
Q 2919 2844 1813 2163 
Q 1700 2413 1456 2550 
Q 1950 2844 2400 3231 
Q 2850 3619 3113 4063 
Q 3413 4581 3644 5163 
Q 3881 5038 4144 4963 
Q 4056 4775 3963 4594 
Q 4325 3919 4844 3441 
Q 5363 2963 6175 2538 
Q 5931 2431 5813 2194 
z
M 31 2613 
Q 50 2775 31 2938 
Q 325 2925 619 2925 
L 1275 2925 
L 1275 506 
L 1675 1006 
L 1831 1250 
L 2038 1013 
L 1881 838 
L 1100 -256 
L 825 -25 
Q 869 81 869 200 
L 869 2625 
L 31 2613 
z
M 950 3713 
Q 606 4325 200 4881 
L 556 5163 
Q 981 4588 1338 3944 
L 950 3713 
z
" transform="scale(0.015625)"/>
      <path id="WenQuanYiZenHei-9884" d="M 1206 19 
L 1206 2888 
L 669 2888 
Q 356 2888 50 2869 
Q 63 3044 50 3213 
Q 363 3194 669 3194 
L 1250 3194 
Q 950 3631 606 4031 
L 963 4338 
L 1263 3975 
L 1913 4719 
L 731 4719 
Q 419 4719 106 4706 
Q 125 4875 106 5044 
Q 419 5031 731 5031 
L 2481 5031 
L 2544 4663 
Q 2394 4613 2256 4466 
Q 2119 4319 1525 3631 
Q 1656 3444 1788 3250 
L 1700 3194 
L 2700 3194 
L 2763 2825 
Q 2656 2819 2613 2763 
L 2100 2038 
L 1750 2288 
L 2175 2888 
L 1638 2888 
L 1638 -150 
Q 1638 -525 1363 -669 
Q 1075 -819 525 -813 
Q 594 -513 388 -294 
Q 575 -313 837 -316 
Q 1100 -319 1153 -272 
Q 1206 -225 1206 19 
z
M 5813 -888 
Q 5100 -225 4306 375 
L 4669 719 
Q 5481 106 6219 -575 
L 5813 -888 
z
M 2375 -906 
Q 2294 -631 2025 -506 
Q 2769 -431 3353 19 
Q 3938 469 3938 1069 
L 3938 2200 
Q 3938 2625 3913 3050 
Q 4188 3025 4456 3050 
Q 4431 2625 4431 2200 
L 4431 1069 
Q 4431 681 4225 319 
Q 3644 -606 2375 -906 
z
M 3444 488 
Q 3169 513 2894 488 
Q 2919 913 2919 1338 
L 2919 3675 
Q 3219 3675 3525 3675 
Q 3750 4013 3931 4525 
L 3238 4525 
Q 2888 4525 2538 4513 
Q 2556 4669 2538 4831 
Q 2888 4813 3238 4813 
L 5313 4813 
Q 5663 4813 6006 4831 
Q 5988 4669 6006 4513 
Q 5663 4525 5313 4525 
L 4481 4525 
Q 4388 4088 4088 3675 
L 5644 3675 
L 5644 513 
L 5144 513 
L 5144 3388 
L 3894 3388 
L 3875 3363 
Q 3863 3375 3844 3388 
Q 3631 3388 3413 3388 
L 3419 1338 
Q 3419 913 3444 488 
z
" transform="scale(0.015625)"/>
      <path id="WenQuanYiZenHei-6d4b" d="M 5450 138 
L 5450 4306 
Q 5450 4750 5425 5188 
Q 5663 5163 5906 5188 
Q 5881 4750 5881 4306 
L 5881 -38 
Q 5888 -569 5519 -719 
Q 5194 -831 4825 -813 
Q 4894 -519 4694 -281 
Q 4869 -306 5094 -309 
Q 5319 -313 5384 -256 
Q 5450 -200 5450 138 
z
M 4900 938 
Q 4663 963 4419 938 
Q 4444 1375 4444 1819 
L 4444 3381 
Q 4444 3819 4419 4263 
Q 4663 4238 4900 4263 
Q 4875 3819 4875 3381 
L 4875 1819 
Q 4875 1375 4900 938 
z
M 2750 2025 
L 2750 3038 
Q 2750 3481 2725 3919 
Q 2963 3894 3206 3919 
Q 3181 3481 3181 3038 
L 3181 2025 
Q 3181 1263 2919 625 
L 3231 956 
Q 3781 431 4256 -150 
L 3888 -456 
Q 3431 106 2906 600 
Q 2531 -288 1738 -769 
Q 1606 -519 1338 -450 
Q 1988 -156 2369 478 
Q 2750 1113 2750 2025 
z
M 2363 969 
Q 2119 994 1881 969 
Q 1906 1406 1906 1850 
L 1906 5038 
L 3956 5031 
L 3956 1200 
L 3525 1200 
L 3525 4713 
L 2338 4713 
L 2338 1850 
Q 2338 1406 2363 969 
z
M 663 -738 
Q 481 -588 206 -575 
Q 400 -69 606 581 
Q 813 1231 1200 2838 
L 1381 2706 
L 875 338 
L 663 -738 
z
M 1006 2856 
L 731 2550 
L 75 3400 
L 350 3713 
L 1006 2856 
z
M 1088 3913 
Q 781 4388 425 4800 
L 694 5125 
Q 1069 4688 1388 4188 
L 1088 3913 
z
" transform="scale(0.015625)"/>
      <path id="WenQuanYiZenHei-20" transform="scale(0.015625)"/>
      <path id="WenQuanYiZenHei-8fbd" d="M 3756 881 
L 3756 4056 
L 4738 4825 
L 2844 4825 
Q 2463 4825 2081 4806 
Q 2106 5013 2081 5219 
Q 2463 5200 2844 5200 
L 5538 5200 
L 5581 4781 
Q 5381 4738 5219 4619 
L 4219 3831 
L 4219 713 
Q 4219 113 3438 25 
L 3231 13 
Q 3294 344 3081 613 
Q 3219 569 3375 550 
Q 3663 544 3709 584 
Q 3756 625 3756 881 
z
M 131 2781 
Q 156 2988 131 3194 
Q 513 3175 894 3175 
L 1531 3175 
L 1531 513 
Q 2000 75 2419 -75 
Q 2838 -225 3569 -225 
L 6031 -244 
Q 5781 -425 5800 -725 
L 3569 -731 
Q 2613 -725 2013 -375 
Q 1550 -113 1275 269 
L 481 -644 
Q 319 -450 125 -288 
L 344 -100 
L 1075 544 
L 1075 2800 
L 894 2800 
Q 513 2800 131 2781 
z
M 1850 4344 
L 1456 4038 
L 800 4869 
L 1194 5181 
L 1850 4344 
z
" transform="scale(0.015625)"/>
      <path id="WenQuanYiZenHei-5b81" d="M 2944 -6 
L 2944 2450 
L 1044 2450 
Q 663 2450 281 2431 
Q 300 2638 281 2844 
Q 663 2825 1044 2825 
L 5281 2825 
Q 5663 2825 6044 2844 
Q 6025 2638 6044 2431 
Q 5663 2450 5281 2450 
L 3400 2450 
L 3400 -150 
Q 3400 -413 3213 -594 
Q 2944 -831 2213 -825 
Q 2288 -506 2063 -269 
Q 2269 -294 2553 -294 
Q 2838 -294 2891 -250 
Q 2944 -206 2944 -6 
z
M 688 3319 
L 231 3319 
L 231 4344 
L 2856 4344 
Q 2519 4725 2138 5056 
L 2469 5438 
Q 2963 5006 3388 4500 
L 3206 4344 
L 6025 4344 
L 6025 3319 
L 5563 3319 
L 5563 3969 
L 688 3969 
L 688 3319 
z
" transform="scale(0.015625)"/>
     </defs>
     <use xlink:href="#WenQuanYiZenHei-7d2f"/>
     <use xlink:href="#WenQuanYiZenHei-8ba1" x="100"/>
     <use xlink:href="#WenQuanYiZenHei-786e" x="200"/>
     <use xlink:href="#WenQuanYiZenHei-8bca" x="300"/>
     <use xlink:href="#WenQuanYiZenHei-9884" x="400"/>
     <use xlink:href="#WenQuanYiZenHei-6d4b" x="500"/>
     <use xlink:href="#WenQuanYiZenHei-20" x="600"/>
     <use xlink:href="#WenQuanYiZenHei-2d" x="629.980469"/>
     <use xlink:href="#WenQuanYiZenHei-20" x="659.960938"/>
     <use xlink:href="#WenQuanYiZenHei-8fbd" x="689.941406"/>
     <use xlink:href="#WenQuanYiZenHei-5b81" x="789.941406"/>
    </g>
    <!-- ARIMA (0, 2, 1)x(0, 0, 0, 7) (R2 = 0.998759) -->
    <g transform="translate(589.179688 29.3085)scale(0.12 -0.12)">
     <defs>
      <path id="WenQuanYiZenHei-41" d="M 3550 0 
L 2988 0 
L 2550 1281 
L 919 1281 
L 531 0 
L 69 0 
L 1494 4388 
L 2125 4388 
L 3550 0 
z
M 2425 1694 
L 1756 3800 
L 1075 1694 
L 2425 1694 
z
" transform="scale(0.015625)"/>
      <path id="WenQuanYiZenHei-52" d="M 3675 0 
L 3100 0 
L 2288 1900 
L 1069 1900 
L 1069 0 
L 519 0 
L 519 4388 
L 2163 4388 
Q 3006 4388 3400 3900 
Q 3581 3663 3625 3325 
Q 3631 3250 3631 3163 
Q 3631 2594 3219 2244 
Q 3038 2100 2813 2038 
L 3675 0 
z
M 3081 3169 
Q 3081 3825 2356 3906 
Q 2263 3919 2163 3919 
L 1069 3919 
L 1069 2350 
L 2100 2350 
Q 2906 2350 3044 2919 
Q 3081 3031 3081 3169 
z
" transform="scale(0.015625)"/>
      <path id="WenQuanYiZenHei-49" d="M 1100 0 
L 550 0 
L 550 4388 
L 1100 4388 
L 1100 0 
z
" transform="scale(0.015625)"/>
      <path id="WenQuanYiZenHei-4d" d="M 4756 0 
L 4206 0 
L 4206 3831 
L 4181 3831 
L 2788 0 
L 2419 0 
L 1000 3831 
L 975 3831 
L 975 0 
L 513 0 
L 513 4388 
L 1331 4388 
L 2656 875 
L 3950 4388 
L 4756 4388 
L 4756 0 
z
" transform="scale(0.015625)"/>
      <path id="WenQuanYiZenHei-28" d="M 1606 -1094 
L 1275 -1094 
Q 475 -100 338 1231 
Q 319 1438 319 1656 
Q 319 3031 1156 4244 
Q 1213 4313 1269 4388 
L 1600 4388 
Q 806 3169 794 1681 
Q 794 188 1606 -1094 
z
" transform="scale(0.015625)"/>
      <path id="WenQuanYiZenHei-2c" d="M 1363 75 
L 881 -825 
L 606 -825 
L 994 0 
L 656 0 
L 656 738 
L 1363 738 
L 1363 75 
z
" transform="scale(0.015625)"/>
      <path id="WenQuanYiZenHei-29" d="M 1600 1656 
Q 1600 306 869 -788 
Q 769 -950 644 -1094 
L 313 -1094 
Q 1125 188 1125 1681 
Q 1125 3169 338 4363 
Q 325 4375 319 4388 
L 650 4388 
Q 1525 3231 1594 1863 
Q 1600 1763 1600 1656 
z
" transform="scale(0.015625)"/>
      <path id="WenQuanYiZenHei-78" d="M 2806 0 
L 2213 0 
L 1394 1319 
L 544 0 
L 50 0 
L 1144 1681 
L 163 3250 
L 744 3250 
L 1431 2138 
L 2144 3250 
L 2631 3250 
L 1681 1794 
L 2806 0 
z
" transform="scale(0.015625)"/>
      <path id="WenQuanYiZenHei-3d" d="M 3569 2256 
L 263 2256 
L 263 2675 
L 3569 2675 
L 3569 2256 
z
M 3569 1019 
L 263 1019 
L 263 1431 
L 3569 1431 
L 3569 1019 
z
" transform="scale(0.015625)"/>
      <path id="WenQuanYiZenHei-2e" d="M 1344 0 
L 631 0 
L 631 725 
L 1344 725 
L 1344 0 
z
" transform="scale(0.015625)"/>
      <path id="WenQuanYiZenHei-39" d="M 3544 2300 
Q 3544 1163 3019 513 
Q 2563 -63 1775 -63 
Q 956 -63 563 488 
Q 463 631 394 813 
L 838 975 
Q 1025 494 1550 388 
Q 1656 369 1775 369 
Q 2594 369 2900 1325 
Q 3044 1769 3038 2313 
L 3025 2313 
Q 2675 1638 1944 1544 
Q 1844 1531 1744 1531 
Q 1050 1531 625 2031 
Q 294 2419 294 2963 
Q 294 3656 813 4094 
Q 1238 4456 1819 4456 
Q 2988 4456 3381 3363 
Q 3544 2900 3544 2300 
z
M 2925 2994 
Q 2925 3563 2469 3844 
Q 2206 4006 1863 4006 
Q 1275 4006 988 3563 
Q 844 3344 825 3056 
Q 819 3006 819 2956 
Q 819 2413 1269 2131 
Q 1538 1963 1875 1963 
Q 2363 1963 2681 2350 
Q 2925 2638 2925 2994 
z
" transform="scale(0.015625)"/>
      <path id="WenQuanYiZenHei-38" d="M 3619 1175 
Q 3619 431 2850 100 
Q 2444 -63 1944 -63 
Q 1231 -63 725 269 
Q 225 594 225 1125 
Q 225 1881 1269 2281 
Q 719 2481 519 2938 
Q 444 3119 444 3319 
Q 444 4000 1144 4294 
Q 1519 4456 1963 4456 
Q 2669 4456 3094 4094 
Q 3425 3813 3425 3369 
Q 3425 2638 2575 2356 
Q 3231 2056 3450 1725 
Q 3619 1488 3619 1175 
z
M 2944 3344 
Q 2944 3906 2288 4019 
Q 2138 4044 1969 4044 
Q 1438 4044 1163 3775 
Q 1000 3613 1000 3375 
Q 1000 2925 1594 2663 
Q 1756 2588 1931 2550 
Q 2581 2725 2788 2956 
Q 2944 3125 2944 3344 
z
M 3075 1094 
Q 3075 1738 1875 2050 
Q 1094 1881 850 1463 
Q 763 1313 763 1131 
Q 763 569 1456 406 
Q 1681 344 1944 344 
Q 2519 344 2850 619 
Q 3075 813 3075 1094 
z
" transform="scale(0.015625)"/>
     </defs>
     <use xlink:href="#WenQuanYiZenHei-41"/>
     <use xlink:href="#WenQuanYiZenHei-52" x="55.957031"/>
     <use xlink:href="#WenQuanYiZenHei-49" x="117.871094"/>
     <use xlink:href="#WenQuanYiZenHei-4d" x="143.847656"/>
     <use xlink:href="#WenQuanYiZenHei-41" x="225.78125"/>
     <use xlink:href="#WenQuanYiZenHei-20" x="281.738281"/>
     <use xlink:href="#WenQuanYiZenHei-28" x="311.71875"/>
     <use xlink:href="#WenQuanYiZenHei-30" x="341.699219"/>
     <use xlink:href="#WenQuanYiZenHei-2c" x="401.660156"/>
     <use xlink:href="#WenQuanYiZenHei-20" x="431.640625"/>
     <use xlink:href="#WenQuanYiZenHei-32" x="461.621094"/>
     <use xlink:href="#WenQuanYiZenHei-2c" x="521.582031"/>
     <use xlink:href="#WenQuanYiZenHei-20" x="551.5625"/>
     <use xlink:href="#WenQuanYiZenHei-31" x="581.542969"/>
     <use xlink:href="#WenQuanYiZenHei-29" x="641.503906"/>
     <use xlink:href="#WenQuanYiZenHei-78" x="671.484375"/>
     <use xlink:href="#WenQuanYiZenHei-28" x="715.429688"/>
     <use xlink:href="#WenQuanYiZenHei-30" x="745.410156"/>
     <use xlink:href="#WenQuanYiZenHei-2c" x="805.371094"/>
     <use xlink:href="#WenQuanYiZenHei-20" x="835.351562"/>
     <use xlink:href="#WenQuanYiZenHei-30" x="865.332031"/>
     <use xlink:href="#WenQuanYiZenHei-2c" x="925.292969"/>
     <use xlink:href="#WenQuanYiZenHei-20" x="955.273438"/>
     <use xlink:href="#WenQuanYiZenHei-30" x="985.253906"/>
     <use xlink:href="#WenQuanYiZenHei-2c" x="1045.214844"/>
     <use xlink:href="#WenQuanYiZenHei-20" x="1075.195312"/>
     <use xlink:href="#WenQuanYiZenHei-37" x="1105.175781"/>
     <use xlink:href="#WenQuanYiZenHei-29" x="1165.136719"/>
     <use xlink:href="#WenQuanYiZenHei-20" x="1195.117188"/>
     <use xlink:href="#WenQuanYiZenHei-28" x="1225.097656"/>
     <use xlink:href="#WenQuanYiZenHei-52" x="1255.078125"/>
     <use xlink:href="#WenQuanYiZenHei-32" x="1316.992188"/>
     <use xlink:href="#WenQuanYiZenHei-20" x="1376.953125"/>
     <use xlink:href="#WenQuanYiZenHei-3d" x="1406.933594"/>
     <use xlink:href="#WenQuanYiZenHei-20" x="1466.894531"/>
     <use xlink:href="#WenQuanYiZenHei-30" x="1496.875"/>
     <use xlink:href="#WenQuanYiZenHei-2e" x="1556.835938"/>
     <use xlink:href="#WenQuanYiZenHei-39" x="1586.816406"/>
     <use xlink:href="#WenQuanYiZenHei-39" x="1646.777344"/>
     <use xlink:href="#WenQuanYiZenHei-38" x="1706.738281"/>
     <use xlink:href="#WenQuanYiZenHei-37" x="1766.699219"/>
     <use xlink:href="#WenQuanYiZenHei-35" x="1826.660156"/>
     <use xlink:href="#WenQuanYiZenHei-39" x="1886.621094"/>
     <use xlink:href="#WenQuanYiZenHei-29" x="1946.582031"/>
    </g>
   </g>
   <g id="legend_1">
    <g id="patch_7">
     <path d="M 45.1875 87.303812 
L 107.1875 87.303812 
Q 109.1875 87.303812 109.1875 85.303812 
L 109.1875 42.3085 
Q 109.1875 40.3085 107.1875 40.3085 
L 45.1875 40.3085 
Q 43.1875 40.3085 43.1875 42.3085 
L 43.1875 85.303812 
Q 43.1875 87.303812 45.1875 87.303812 
z
" style="fill: #ffffff; opacity: 0.8; stroke: #cccccc; stroke-linejoin: miter"/>
    </g>
    <g id="line2d_23">
     <path d="M 47.1875 48.942875 
L 57.1875 48.942875 
L 67.1875 48.942875 
" style="fill: none; stroke: #0000ff; stroke-width: 1.5; stroke-linecap: square"/>
    </g>
    <g id="text_21">
     <!-- 实际值 -->
     <g transform="translate(75.1875 52.442875)scale(0.1 -0.1)">
      <defs>
       <path id="WenQuanYiZenHei-5b9e" d="M 1025 1175 
Q 694 1175 356 1163 
Q 375 1344 356 1525 
Q 694 1506 1025 1506 
L 3363 1506 
L 3363 2625 
Q 3363 3075 3338 3519 
Q 3581 3494 3825 3519 
Q 3800 3075 3800 2625 
L 3800 1506 
L 5406 1506 
Q 5744 1506 6075 1525 
Q 6056 1344 6075 1163 
Q 5744 1175 5406 1175 
L 4038 1175 
L 4981 456 
L 6131 -488 
L 5819 -856 
L 4681 75 
L 3638 875 
Q 3313 231 2475 -231 
Q 1638 -694 700 -825 
Q 638 -519 344 -400 
Q 1450 -319 2406 244 
Q 3113 656 3300 1175 
L 1025 1175 
z
M 2263 1581 
Q 1763 2081 1200 2513 
L 1494 2894 
Q 2081 2444 2600 1919 
L 2263 1581 
z
M 2638 2500 
Q 2219 2963 1731 3363 
L 2044 3738 
Q 2556 3313 3000 2819 
L 2638 2500 
z
M 919 3156 
L 481 3156 
L 481 4344 
L 3069 4344 
Q 2794 4731 2469 5081 
L 2825 5413 
Q 3256 4944 3613 4413 
L 3513 4344 
L 5869 4344 
L 5869 3156 
L 5425 3156 
L 5425 4013 
L 919 4013 
L 919 3156 
z
" transform="scale(0.015625)"/>
       <path id="WenQuanYiZenHei-9645" d="M 6000 431 
L 5569 194 
L 4963 1219 
L 4313 2219 
L 4719 2494 
L 5375 1481 
L 6000 431 
z
M 2956 2450 
Q 3181 2344 3419 2294 
Q 3006 1038 1944 -188 
Q 1794 -6 1569 56 
Q 2069 600 2372 1156 
Q 2675 1713 2956 2450 
z
M 3750 25 
L 3750 2913 
L 2819 2913 
Q 2475 2913 2125 2894 
Q 2144 3081 2125 3269 
Q 2475 3256 2819 3256 
L 5469 3256 
Q 5819 3256 6163 3269 
Q 6144 3081 6163 2894 
Q 5813 2913 5469 2913 
L 4194 2913 
L 4194 -144 
Q 4194 -725 3456 -813 
L 3263 -825 
Q 3325 -506 3125 -250 
Q 3250 -281 3394 -306 
Q 3663 -313 3706 -272 
Q 3750 -231 3750 25 
z
M 5544 4950 
Q 5525 4756 5544 4569 
Q 5194 4588 4844 4588 
L 3325 4588 
Q 2975 4588 2625 4569 
Q 2644 4756 2625 4950 
Q 2975 4931 3325 4931 
L 4844 4931 
Q 5194 4931 5544 4950 
z
M 819 -850 
Q 581 -825 344 -850 
Q 369 -419 369 19 
L 363 4938 
L 2256 4938 
L 2256 4625 
Q 2150 4513 2075 4375 
L 1481 3238 
Q 2181 2319 2181 1156 
Q 2144 400 1569 163 
L 1406 88 
Q 1288 300 1138 481 
Q 1294 538 1450 606 
Q 1763 744 1794 1156 
Q 1794 1744 1600 2300 
Q 1406 2856 1038 3313 
L 1725 4625 
L 788 4625 
L 794 19 
Q 794 -419 819 -850 
z
" transform="scale(0.015625)"/>
       <path id="WenQuanYiZenHei-503c" d="M 6175 -219 
Q 6156 -388 6175 -556 
Q 5863 -544 5550 -544 
L 2313 -544 
Q 2000 -544 1688 -556 
Q 1706 -388 1688 -219 
L 2506 -231 
L 2506 3469 
L 3644 3469 
L 3644 4119 
L 2638 4119 
Q 2325 4119 2013 4100 
Q 2031 4269 2013 4438 
Q 2325 4425 2638 4425 
L 3638 4425 
Q 3638 4719 3619 5013 
Q 3856 4988 4094 5013 
Q 4075 4719 4075 4425 
L 5344 4425 
Q 5650 4425 5963 4438 
Q 5950 4269 5963 4100 
Q 5656 4119 5344 4119 
L 4069 4119 
L 4069 3469 
L 5300 3469 
L 5300 -231 
L 5550 -231 
Q 5863 -231 6175 -219 
z
M 4869 2556 
L 4869 3156 
L 2931 3156 
Q 2931 2850 2931 2556 
L 4869 2556 
z
M 4869 1669 
L 4869 2250 
L 2931 2250 
L 2931 1669 
L 4869 1669 
z
M 4869 731 
L 4869 1363 
L 2931 1363 
L 2931 731 
L 4869 731 
z
M 4869 -231 
L 4869 425 
L 2931 425 
L 2931 -231 
L 4869 -231 
z
M 2106 4925 
Q 1856 4075 1463 3338 
L 1463 31 
Q 1463 -413 1481 -850 
Q 1256 -825 1031 -850 
Q 1050 -413 1050 31 
L 1050 2681 
Q 750 2269 375 1931 
Q 238 2156 0 2256 
Q 331 2544 619 2875 
Q 1094 3425 1300 3950 
Q 1494 4469 1625 5050 
Q 1850 4963 2106 4925 
z
" transform="scale(0.015625)"/>
      </defs>
      <use xlink:href="#WenQuanYiZenHei-5b9e"/>
      <use xlink:href="#WenQuanYiZenHei-9645" x="100"/>
      <use xlink:href="#WenQuanYiZenHei-503c" x="200"/>
     </g>
    </g>
    <g id="line2d_24">
     <path d="M 47.1875 63.621 
L 57.1875 63.621 
L 67.1875 63.621 
" style="fill: none; stroke: #ffa500; stroke-width: 1.5; stroke-linecap: square"/>
    </g>
    <g id="text_22">
     <!-- 校验值 -->
     <g transform="translate(75.1875 67.121)scale(0.1 -0.1)">
      <defs>
       <path id="WenQuanYiZenHei-6821" d="M 5256 2463 
Q 5025 1475 4494 706 
Q 5125 -94 6175 -544 
Q 5950 -663 5850 -900 
Q 4906 -494 4250 381 
Q 3931 0 3475 -350 
Q 3019 -700 2388 -919 
Q 2338 -656 2138 -475 
Q 3306 -69 4006 738 
Q 3563 1444 3300 2331 
Q 3050 2050 2706 1800 
Q 2606 2000 2406 2106 
Q 2900 2444 3181 2938 
Q 3350 3225 3488 3538 
Q 3700 3431 3925 3369 
Q 3763 2894 3425 2475 
L 3650 2531 
Q 3888 1675 4244 1075 
Q 4469 1444 4603 1937 
Q 4738 2431 4775 2688 
Q 4963 2644 5150 2625 
Q 4919 2969 4663 3294 
L 5038 3588 
Q 5544 2925 5975 2213 
L 5569 1969 
L 5256 2463 
z
M 6006 4050 
Q 5988 3881 6006 3713 
Q 5694 3725 5381 3725 
L 3413 3725 
Q 3100 3725 2788 3713 
Q 2806 3881 2788 4050 
Q 3100 4031 3413 4031 
L 4325 4031 
Q 4019 4525 3644 4969 
L 4000 5275 
Q 4413 4788 4750 4244 
L 4406 4031 
L 5381 4031 
Q 5694 4031 6006 4050 
z
M 406 263 
Q 238 431 -25 469 
Q 194 825 466 1337 
Q 738 1850 925 2406 
Q 1113 2963 1256 3519 
L 825 3519 
Q 506 3519 188 3500 
Q 206 3700 188 3900 
Q 506 3881 825 3881 
L 1363 3881 
L 1363 4263 
Q 1363 4719 1338 5175 
Q 1556 5150 1775 5175 
Q 1756 4719 1756 4263 
L 1756 3881 
L 2525 3900 
Q 2506 3700 2525 3500 
L 1756 3519 
L 1756 2738 
L 1931 2881 
Q 2306 2300 2613 1650 
L 2231 1413 
Q 2081 1725 1919 2019 
L 1756 2300 
L 1756 69 
Q 1756 -388 1775 -850 
Q 1556 -825 1338 -850 
Q 1363 -388 1363 69 
L 1363 2438 
Q 925 1144 406 263 
z
" transform="scale(0.015625)"/>
       <path id="WenQuanYiZenHei-9a8c" d="M 5981 -106 
Q 5963 -275 5981 -444 
Q 5669 -431 5356 -431 
L 2969 -431 
Q 2656 -431 2350 -444 
Q 2363 -275 2350 -106 
Q 2656 -125 2969 -125 
L 4369 -125 
Q 4600 431 4881 1288 
L 5206 2300 
Q 5425 2206 5663 2163 
Q 5375 1188 4831 -125 
L 5356 -125 
Q 5669 -125 5981 -106 
z
M 4063 594 
Q 3788 1425 3425 2219 
L 3856 2419 
Q 4225 1600 4513 744 
L 4063 594 
z
M 3163 363 
Q 2931 1200 2613 2006 
L 3056 2175 
Q 3381 1350 3619 488 
L 3163 363 
z
M 4581 2550 
L 3513 2550 
Q 3200 2550 2888 2538 
Q 2900 2663 2894 2769 
Q 2569 2488 2206 2300 
Q 2113 2550 1894 2700 
Q 2488 2975 2975 3463 
Q 3269 3756 3394 4006 
Q 3644 4513 3794 5063 
Q 4038 4975 4294 4931 
Q 4250 4806 4206 4681 
Q 4475 3888 5025 3388 
Q 5519 2938 6169 2650 
Q 5938 2538 5838 2300 
Q 5513 2456 5200 2700 
Q 5200 2619 5206 2538 
Q 4894 2550 4581 2550 
z
M 3513 2863 
L 4994 2869 
Q 4344 3438 3988 4194 
Q 3594 3406 3013 2869 
Q 3263 2863 3513 2863 
z
M 206 444 
Q 188 756 44 963 
Q 319 956 650 1003 
Q 981 1050 1731 1281 
L 1738 1006 
Q 800 719 206 444 
z
M 525 4000 
Q 744 3950 994 3944 
Q 925 3519 875 3081 
L 763 2144 
L 1475 2144 
L 1831 4444 
L 663 4444 
Q 350 4444 38 4431 
Q 56 4600 38 4769 
Q 350 4756 663 4756 
L 2313 4756 
L 1913 2144 
L 2375 2144 
L 2200 -200 
Q 2188 -425 1988 -588 
Q 1694 -800 1181 -788 
L 944 -788 
Q 1000 -450 788 -269 
Q 1013 -294 1334 -287 
Q 1656 -281 1715 -243 
Q 1775 -206 1781 -50 
L 1925 1831 
L 294 1831 
L 444 3131 
Q 500 3569 525 4000 
z
" transform="scale(0.015625)"/>
      </defs>
      <use xlink:href="#WenQuanYiZenHei-6821"/>
      <use xlink:href="#WenQuanYiZenHei-9a8c" x="100"/>
      <use xlink:href="#WenQuanYiZenHei-503c" x="200"/>
     </g>
    </g>
    <g id="line2d_25">
     <path d="M 47.1875 78.142875 
L 57.1875 78.142875 
L 67.1875 78.142875 
" style="fill: none; stroke: #ff0000; stroke-width: 1.5; stroke-linecap: square"/>
    </g>
    <g id="text_23">
     <!-- 预测值 -->
     <g transform="translate(75.1875 81.642875)scale(0.1 -0.1)">
      <use xlink:href="#WenQuanYiZenHei-9884"/>
      <use xlink:href="#WenQuanYiZenHei-6d4b" x="100"/>
      <use xlink:href="#WenQuanYiZenHei-503c" x="200"/>
     </g>
    </g>
   </g>
  </g>
 </g>
 <defs>
  <clipPath id="p00c323121e">
   <rect x="38.1875" y="35.3085" width="1339.2" height="332.64"/>
  </clipPath>
 </defs>
</svg>
