<?xml version="1.0" encoding="utf-8" standalone="no"?>
<!DOCTYPE svg PUBLIC "-//W3C//DTD SVG 1.1//EN"
  "http://www.w3.org/Graphics/SVG/1.1/DTD/svg11.dtd">
<svg xmlns:xlink="http://www.w3.org/1999/xlink" width="1372.59375pt" height="390.478188pt" viewBox="0 0 1372.59375 390.478188" xmlns="http://www.w3.org/2000/svg" version="1.1">
 <metadata>
  <rdf:RDF xmlns:dc="http://purl.org/dc/elements/1.1/" xmlns:cc="http://creativecommons.org/ns#" xmlns:rdf="http://www.w3.org/1999/02/22-rdf-syntax-ns#">
   <cc:Work>
    <dc:type rdf:resource="http://purl.org/dc/dcmitype/StillImage"/>
    <dc:date>2022-07-31T18:16:32.604262</dc:date>
    <dc:format>image/svg+xml</dc:format>
    <dc:creator>
     <cc:Agent>
      <dc:title>Matplotlib v3.5.2, https://matplotlib.org/</dc:title>
     </cc:Agent>
    </dc:creator>
   </cc:Work>
  </rdf:RDF>
 </metadata>
 <defs>
  <style type="text/css">*{stroke-linejoin: round; stroke-linecap: butt}</style>
 </defs>
 <g id="figure_1">
  <g id="patch_1">
   <path d="M 0 390.478188 
L 1372.59375 390.478188 
L 1372.59375 -0 
L 0 -0 
z
" style="fill: #ffffff"/>
  </g>
  <g id="axes_1">
   <g id="patch_2">
    <path d="M 26.19375 367.761 
L 1365.39375 367.761 
L 1365.39375 35.121 
L 26.19375 35.121 
z
" style="fill: #ffffff"/>
   </g>
   <g id="matplotlib.axis_1">
    <g id="xtick_1">
     <g id="line2d_1">
      <defs>
       <path id="m16590a606b" d="M 0 0 
L 0 3.5 
" style="stroke: #000000; stroke-width: 0.8"/>
      </defs>
      <g>
       <use xlink:href="#m16590a606b" x="58.32828" y="367.761" style="stroke: #000000; stroke-width: 0.8"/>
      </g>
     </g>
     <g id="text_1">
      <!-- 2020-01 -->
      <g transform="translate(38.838436 381.61725)scale(0.1 -0.1)">
       <defs>
        <path id="WenQuanYiZenHei-32" d="M 3488 0 
L 369 0 
L 369 456 
L 2150 1850 
Q 2931 2463 2931 3144 
Q 2931 3619 2488 3863 
Q 2231 4013 1931 4013 
Q 1425 4013 1113 3619 
Q 894 3356 881 3013 
L 369 3169 
Q 531 3981 1213 4300 
Q 1544 4456 1950 4456 
Q 2631 4456 3088 4044 
L 3225 3888 
L 3350 3706 
Q 3481 3444 3481 3144 
Q 3481 2313 2519 1569 
L 1069 456 
L 3488 456 
L 3488 0 
z
" transform="scale(0.015625)"/>
        <path id="WenQuanYiZenHei-30" d="M 3581 2175 
Q 3581 1288 3169 638 
Q 2713 -63 1938 -63 
Q 1025 -63 563 831 
Q 256 1425 256 2188 
Q 256 3188 700 3819 
Q 1138 4456 1888 4456 
Q 2863 4456 3306 3500 
Q 3581 2925 3581 2175 
z
M 3019 2100 
Q 3019 3356 2500 3806 
L 2350 3919 
Q 2144 4031 1888 4031 
Q 1100 4031 888 2956 
Q 819 2625 819 2225 
Q 819 1013 1338 569 
Q 1588 356 1938 356 
Q 2675 356 2925 1294 
Q 3019 1663 3019 2100 
z
" transform="scale(0.015625)"/>
        <path id="WenQuanYiZenHei-2d" d="M 1363 1444 
L 0 1444 
L 0 1844 
L 1363 1844 
L 1363 1444 
z
" transform="scale(0.015625)"/>
        <path id="WenQuanYiZenHei-31" d="M 3556 0 
L 488 0 
L 488 406 
L 1800 406 
L 1800 3725 
Q 1231 3125 588 2788 
L 588 3338 
Q 1456 3781 1931 4388 
L 2331 4388 
L 2331 406 
L 3556 406 
L 3556 0 
z
" transform="scale(0.015625)"/>
       </defs>
       <use xlink:href="#WenQuanYiZenHei-32"/>
       <use xlink:href="#WenQuanYiZenHei-30" x="59.960938"/>
       <use xlink:href="#WenQuanYiZenHei-32" x="119.921875"/>
       <use xlink:href="#WenQuanYiZenHei-30" x="179.882812"/>
       <use xlink:href="#WenQuanYiZenHei-2d" x="239.84375"/>
       <use xlink:href="#WenQuanYiZenHei-30" x="269.824219"/>
       <use xlink:href="#WenQuanYiZenHei-31" x="329.785156"/>
      </g>
     </g>
    </g>
    <g id="xtick_2">
     <g id="line2d_2">
      <g>
       <use xlink:href="#m16590a606b" x="177.199915" y="367.761" style="stroke: #000000; stroke-width: 0.8"/>
      </g>
     </g>
     <g id="text_2">
      <!-- 2020-04 -->
      <g transform="translate(157.710071 381.61725)scale(0.1 -0.1)">
       <defs>
        <path id="WenQuanYiZenHei-34" d="M 3631 1025 
L 2913 1025 
L 2913 0 
L 2381 0 
L 2381 1025 
L 219 1025 
L 219 1388 
L 2225 4388 
L 2913 4388 
L 2913 1444 
L 3631 1444 
L 3631 1025 
z
M 2381 1444 
L 2381 3963 
L 788 1444 
L 2381 1444 
z
" transform="scale(0.015625)"/>
       </defs>
       <use xlink:href="#WenQuanYiZenHei-32"/>
       <use xlink:href="#WenQuanYiZenHei-30" x="59.960938"/>
       <use xlink:href="#WenQuanYiZenHei-32" x="119.921875"/>
       <use xlink:href="#WenQuanYiZenHei-30" x="179.882812"/>
       <use xlink:href="#WenQuanYiZenHei-2d" x="239.84375"/>
       <use xlink:href="#WenQuanYiZenHei-30" x="269.824219"/>
       <use xlink:href="#WenQuanYiZenHei-34" x="329.785156"/>
      </g>
     </g>
    </g>
    <g id="xtick_3">
     <g id="line2d_3">
      <g>
       <use xlink:href="#m16590a606b" x="296.071549" y="367.761" style="stroke: #000000; stroke-width: 0.8"/>
      </g>
     </g>
     <g id="text_3">
      <!-- 2020-07 -->
      <g transform="translate(276.581706 381.61725)scale(0.1 -0.1)">
       <defs>
        <path id="WenQuanYiZenHei-37" d="M 3400 4056 
Q 1838 2175 1838 0 
L 1275 0 
Q 1269 1438 2056 2825 
Q 2381 3400 2825 3913 
L 444 3913 
L 500 4388 
L 3400 4388 
L 3400 4056 
z
" transform="scale(0.015625)"/>
       </defs>
       <use xlink:href="#WenQuanYiZenHei-32"/>
       <use xlink:href="#WenQuanYiZenHei-30" x="59.960938"/>
       <use xlink:href="#WenQuanYiZenHei-32" x="119.921875"/>
       <use xlink:href="#WenQuanYiZenHei-30" x="179.882812"/>
       <use xlink:href="#WenQuanYiZenHei-2d" x="239.84375"/>
       <use xlink:href="#WenQuanYiZenHei-30" x="269.824219"/>
       <use xlink:href="#WenQuanYiZenHei-37" x="329.785156"/>
      </g>
     </g>
    </g>
    <g id="xtick_4">
     <g id="line2d_4">
      <g>
       <use xlink:href="#m16590a606b" x="416.249466" y="367.761" style="stroke: #000000; stroke-width: 0.8"/>
      </g>
     </g>
     <g id="text_4">
      <!-- 2020-10 -->
      <g transform="translate(396.759622 381.61725)scale(0.1 -0.1)">
       <use xlink:href="#WenQuanYiZenHei-32"/>
       <use xlink:href="#WenQuanYiZenHei-30" x="59.960938"/>
       <use xlink:href="#WenQuanYiZenHei-32" x="119.921875"/>
       <use xlink:href="#WenQuanYiZenHei-30" x="179.882812"/>
       <use xlink:href="#WenQuanYiZenHei-2d" x="239.84375"/>
       <use xlink:href="#WenQuanYiZenHei-31" x="269.824219"/>
       <use xlink:href="#WenQuanYiZenHei-30" x="329.785156"/>
      </g>
     </g>
    </g>
    <g id="xtick_5">
     <g id="line2d_5">
      <g>
       <use xlink:href="#m16590a606b" x="536.427382" y="367.761" style="stroke: #000000; stroke-width: 0.8"/>
      </g>
     </g>
     <g id="text_5">
      <!-- 2021-01 -->
      <g transform="translate(516.937539 381.61725)scale(0.1 -0.1)">
       <use xlink:href="#WenQuanYiZenHei-32"/>
       <use xlink:href="#WenQuanYiZenHei-30" x="59.960938"/>
       <use xlink:href="#WenQuanYiZenHei-32" x="119.921875"/>
       <use xlink:href="#WenQuanYiZenHei-31" x="179.882812"/>
       <use xlink:href="#WenQuanYiZenHei-2d" x="239.84375"/>
       <use xlink:href="#WenQuanYiZenHei-30" x="269.824219"/>
       <use xlink:href="#WenQuanYiZenHei-31" x="329.785156"/>
      </g>
     </g>
    </g>
    <g id="xtick_6">
     <g id="line2d_6">
      <g>
       <use xlink:href="#m16590a606b" x="653.992736" y="367.761" style="stroke: #000000; stroke-width: 0.8"/>
      </g>
     </g>
     <g id="text_6">
      <!-- 2021-04 -->
      <g transform="translate(634.502892 381.61725)scale(0.1 -0.1)">
       <use xlink:href="#WenQuanYiZenHei-32"/>
       <use xlink:href="#WenQuanYiZenHei-30" x="59.960938"/>
       <use xlink:href="#WenQuanYiZenHei-32" x="119.921875"/>
       <use xlink:href="#WenQuanYiZenHei-31" x="179.882812"/>
       <use xlink:href="#WenQuanYiZenHei-2d" x="239.84375"/>
       <use xlink:href="#WenQuanYiZenHei-30" x="269.824219"/>
       <use xlink:href="#WenQuanYiZenHei-34" x="329.785156"/>
      </g>
     </g>
    </g>
    <g id="xtick_7">
     <g id="line2d_7">
      <g>
       <use xlink:href="#m16590a606b" x="772.86437" y="367.761" style="stroke: #000000; stroke-width: 0.8"/>
      </g>
     </g>
     <g id="text_7">
      <!-- 2021-07 -->
      <g transform="translate(753.374527 381.61725)scale(0.1 -0.1)">
       <use xlink:href="#WenQuanYiZenHei-32"/>
       <use xlink:href="#WenQuanYiZenHei-30" x="59.960938"/>
       <use xlink:href="#WenQuanYiZenHei-32" x="119.921875"/>
       <use xlink:href="#WenQuanYiZenHei-31" x="179.882812"/>
       <use xlink:href="#WenQuanYiZenHei-2d" x="239.84375"/>
       <use xlink:href="#WenQuanYiZenHei-30" x="269.824219"/>
       <use xlink:href="#WenQuanYiZenHei-37" x="329.785156"/>
      </g>
     </g>
    </g>
    <g id="xtick_8">
     <g id="line2d_8">
      <g>
       <use xlink:href="#m16590a606b" x="893.042287" y="367.761" style="stroke: #000000; stroke-width: 0.8"/>
      </g>
     </g>
     <g id="text_8">
      <!-- 2021-10 -->
      <g transform="translate(873.552443 381.61725)scale(0.1 -0.1)">
       <use xlink:href="#WenQuanYiZenHei-32"/>
       <use xlink:href="#WenQuanYiZenHei-30" x="59.960938"/>
       <use xlink:href="#WenQuanYiZenHei-32" x="119.921875"/>
       <use xlink:href="#WenQuanYiZenHei-31" x="179.882812"/>
       <use xlink:href="#WenQuanYiZenHei-2d" x="239.84375"/>
       <use xlink:href="#WenQuanYiZenHei-31" x="269.824219"/>
       <use xlink:href="#WenQuanYiZenHei-30" x="329.785156"/>
      </g>
     </g>
    </g>
    <g id="xtick_9">
     <g id="line2d_9">
      <g>
       <use xlink:href="#m16590a606b" x="1013.220203" y="367.761" style="stroke: #000000; stroke-width: 0.8"/>
      </g>
     </g>
     <g id="text_9">
      <!-- 2022-01 -->
      <g transform="translate(993.73036 381.61725)scale(0.1 -0.1)">
       <use xlink:href="#WenQuanYiZenHei-32"/>
       <use xlink:href="#WenQuanYiZenHei-30" x="59.960938"/>
       <use xlink:href="#WenQuanYiZenHei-32" x="119.921875"/>
       <use xlink:href="#WenQuanYiZenHei-32" x="179.882812"/>
       <use xlink:href="#WenQuanYiZenHei-2d" x="239.84375"/>
       <use xlink:href="#WenQuanYiZenHei-30" x="269.824219"/>
       <use xlink:href="#WenQuanYiZenHei-31" x="329.785156"/>
      </g>
     </g>
    </g>
    <g id="xtick_10">
     <g id="line2d_10">
      <g>
       <use xlink:href="#m16590a606b" x="1130.785556" y="367.761" style="stroke: #000000; stroke-width: 0.8"/>
      </g>
     </g>
     <g id="text_10">
      <!-- 2022-04 -->
      <g transform="translate(1111.295713 381.61725)scale(0.1 -0.1)">
       <use xlink:href="#WenQuanYiZenHei-32"/>
       <use xlink:href="#WenQuanYiZenHei-30" x="59.960938"/>
       <use xlink:href="#WenQuanYiZenHei-32" x="119.921875"/>
       <use xlink:href="#WenQuanYiZenHei-32" x="179.882812"/>
       <use xlink:href="#WenQuanYiZenHei-2d" x="239.84375"/>
       <use xlink:href="#WenQuanYiZenHei-30" x="269.824219"/>
       <use xlink:href="#WenQuanYiZenHei-34" x="329.785156"/>
      </g>
     </g>
    </g>
    <g id="xtick_11">
     <g id="line2d_11">
      <g>
       <use xlink:href="#m16590a606b" x="1249.657191" y="367.761" style="stroke: #000000; stroke-width: 0.8"/>
      </g>
     </g>
     <g id="text_11">
      <!-- 2022-07 -->
      <g transform="translate(1230.167348 381.61725)scale(0.1 -0.1)">
       <use xlink:href="#WenQuanYiZenHei-32"/>
       <use xlink:href="#WenQuanYiZenHei-30" x="59.960938"/>
       <use xlink:href="#WenQuanYiZenHei-32" x="119.921875"/>
       <use xlink:href="#WenQuanYiZenHei-32" x="179.882812"/>
       <use xlink:href="#WenQuanYiZenHei-2d" x="239.84375"/>
       <use xlink:href="#WenQuanYiZenHei-30" x="269.824219"/>
       <use xlink:href="#WenQuanYiZenHei-37" x="329.785156"/>
      </g>
     </g>
    </g>
   </g>
   <g id="matplotlib.axis_2">
    <g id="ytick_1">
     <g id="line2d_12">
      <defs>
       <path id="m90b5e05ec0" d="M 0 0 
L -3.5 0 
" style="stroke: #000000; stroke-width: 0.8"/>
      </defs>
      <g>
       <use xlink:href="#m90b5e05ec0" x="26.19375" y="348.554514" style="stroke: #000000; stroke-width: 0.8"/>
      </g>
     </g>
     <g id="text_12">
      <!-- 0 -->
      <g transform="translate(13.196875 351.982639)scale(0.1 -0.1)">
       <use xlink:href="#WenQuanYiZenHei-30"/>
      </g>
     </g>
    </g>
    <g id="ytick_2">
     <g id="line2d_13">
      <g>
       <use xlink:href="#m90b5e05ec0" x="26.19375" y="307.689649" style="stroke: #000000; stroke-width: 0.8"/>
      </g>
     </g>
     <g id="text_13">
      <!-- 10 -->
      <g transform="translate(7.2 311.117774)scale(0.1 -0.1)">
       <use xlink:href="#WenQuanYiZenHei-31"/>
       <use xlink:href="#WenQuanYiZenHei-30" x="59.960938"/>
      </g>
     </g>
    </g>
    <g id="ytick_3">
     <g id="line2d_14">
      <g>
       <use xlink:href="#m90b5e05ec0" x="26.19375" y="266.824784" style="stroke: #000000; stroke-width: 0.8"/>
      </g>
     </g>
     <g id="text_14">
      <!-- 20 -->
      <g transform="translate(7.2 270.252909)scale(0.1 -0.1)">
       <use xlink:href="#WenQuanYiZenHei-32"/>
       <use xlink:href="#WenQuanYiZenHei-30" x="59.960938"/>
      </g>
     </g>
    </g>
    <g id="ytick_4">
     <g id="line2d_15">
      <g>
       <use xlink:href="#m90b5e05ec0" x="26.19375" y="225.959919" style="stroke: #000000; stroke-width: 0.8"/>
      </g>
     </g>
     <g id="text_15">
      <!-- 30 -->
      <g transform="translate(7.2 229.388044)scale(0.1 -0.1)">
       <defs>
        <path id="WenQuanYiZenHei-33" d="M 3588 1231 
Q 3588 494 2875 144 
Q 2450 -63 1925 -63 
Q 1044 -63 556 488 
Q 356 706 256 1000 
L 769 1169 
Q 994 375 1913 375 
Q 2631 375 2900 788 
Q 3019 975 3019 1231 
Q 3019 1638 2638 1881 
Q 2325 2081 1613 2069 
L 1338 2069 
L 1338 2494 
Q 1969 2494 2094 2506 
Q 2325 2544 2463 2613 
Q 2763 2756 2844 3100 
Q 2863 3169 2863 3244 
Q 2863 3744 2381 3944 
L 2163 4006 
Q 2056 4025 1931 4025 
Q 1388 4025 1075 3631 
Q 969 3488 906 3313 
L 419 3456 
Q 675 4150 1400 4369 
Q 1669 4456 1975 4456 
Q 2694 4456 3106 4050 
Q 3419 3744 3419 3275 
Q 3419 2813 3025 2513 
Q 2825 2356 2575 2319 
L 2575 2306 
Q 3181 2213 3450 1769 
Q 3588 1525 3588 1231 
z
" transform="scale(0.015625)"/>
       </defs>
       <use xlink:href="#WenQuanYiZenHei-33"/>
       <use xlink:href="#WenQuanYiZenHei-30" x="59.960938"/>
      </g>
     </g>
    </g>
    <g id="ytick_5">
     <g id="line2d_16">
      <g>
       <use xlink:href="#m90b5e05ec0" x="26.19375" y="185.095054" style="stroke: #000000; stroke-width: 0.8"/>
      </g>
     </g>
     <g id="text_16">
      <!-- 40 -->
      <g transform="translate(7.2 188.523179)scale(0.1 -0.1)">
       <use xlink:href="#WenQuanYiZenHei-34"/>
       <use xlink:href="#WenQuanYiZenHei-30" x="59.960938"/>
      </g>
     </g>
    </g>
    <g id="ytick_6">
     <g id="line2d_17">
      <g>
       <use xlink:href="#m90b5e05ec0" x="26.19375" y="144.230189" style="stroke: #000000; stroke-width: 0.8"/>
      </g>
     </g>
     <g id="text_17">
      <!-- 50 -->
      <g transform="translate(7.2 147.658314)scale(0.1 -0.1)">
       <defs>
        <path id="WenQuanYiZenHei-35" d="M 3531 1488 
Q 3531 688 2913 250 
Q 2456 -63 1844 -63 
Q 1175 -63 706 350 
Q 413 613 306 975 
L 781 1131 
Q 1000 538 1569 406 
Q 1706 369 1856 369 
Q 2550 369 2850 869 
Q 3000 1131 3000 1494 
Q 3000 2056 2581 2356 
Q 2319 2538 1969 2538 
Q 1400 2538 1031 2075 
Q 981 2013 938 1938 
L 500 2031 
L 644 4388 
L 3244 4388 
L 3200 3919 
L 1044 3919 
L 950 2500 
Q 1431 2975 2006 2975 
Q 2713 2975 3163 2475 
Q 3531 2063 3531 1488 
z
" transform="scale(0.015625)"/>
       </defs>
       <use xlink:href="#WenQuanYiZenHei-35"/>
       <use xlink:href="#WenQuanYiZenHei-30" x="59.960938"/>
      </g>
     </g>
    </g>
    <g id="ytick_7">
     <g id="line2d_18">
      <g>
       <use xlink:href="#m90b5e05ec0" x="26.19375" y="103.365324" style="stroke: #000000; stroke-width: 0.8"/>
      </g>
     </g>
     <g id="text_18">
      <!-- 60 -->
      <g transform="translate(7.2 106.793449)scale(0.1 -0.1)">
       <defs>
        <path id="WenQuanYiZenHei-36" d="M 3550 1431 
Q 3550 725 3006 288 
Q 2581 -63 1994 -63 
Q 1013 -63 563 825 
Q 288 1363 288 2081 
Q 288 3294 856 3938 
Q 1319 4456 2075 4456 
Q 2969 4456 3363 3756 
Q 3431 3631 3481 3481 
L 2988 3350 
Q 2750 3994 2075 4006 
Q 1056 4006 844 2669 
Q 794 2356 794 1981 
L 806 1981 
Q 1006 2506 1544 2744 
Q 1819 2869 2119 2869 
Q 2788 2869 3213 2375 
Q 3550 1975 3550 1431 
z
M 3038 1406 
Q 3038 1906 2656 2213 
Q 2381 2431 2038 2431 
Q 1525 2431 1181 2044 
Q 919 1744 919 1356 
Q 919 881 1344 581 
Q 1631 375 1981 375 
Q 2519 375 2838 781 
Q 3038 1050 3038 1406 
z
" transform="scale(0.015625)"/>
       </defs>
       <use xlink:href="#WenQuanYiZenHei-36"/>
       <use xlink:href="#WenQuanYiZenHei-30" x="59.960938"/>
      </g>
     </g>
    </g>
    <g id="ytick_8">
     <g id="line2d_19">
      <g>
       <use xlink:href="#m90b5e05ec0" x="26.19375" y="62.500459" style="stroke: #000000; stroke-width: 0.8"/>
      </g>
     </g>
     <g id="text_19">
      <!-- 70 -->
      <g transform="translate(7.2 65.928584)scale(0.1 -0.1)">
       <use xlink:href="#WenQuanYiZenHei-37"/>
       <use xlink:href="#WenQuanYiZenHei-30" x="59.960938"/>
      </g>
     </g>
    </g>
   </g>
   <g id="line2d_20">
    <path d="M 87.066477 344.468027 
L 88.372759 344.468027 
L 89.679041 295.430189 
L 90.985322 332.208568 
L 92.291604 324.035595 
L 93.597886 319.949108 
L 94.904167 328.122081 
L 96.210449 340.381541 
L 97.516731 319.949108 
L 98.823013 283.17073 
L 100.129294 324.035595 
L 101.435576 332.208568 
L 102.741858 319.949108 
L 104.048139 315.862622 
L 105.354421 328.122081 
L 106.660703 328.122081 
L 107.966984 324.035595 
L 109.273266 340.381541 
L 110.579548 344.468027 
L 113.192111 328.122081 
L 114.498393 344.468027 
L 115.804675 340.381541 
L 117.110956 348.554514 
L 118.417238 340.381541 
L 119.72352 348.554514 
L 135.3989 348.554514 
L 136.705182 344.468027 
L 138.011464 348.554514 
L 139.317745 336.295054 
L 140.624027 348.554514 
L 160.218253 348.554514 
L 161.524534 344.468027 
L 162.830816 348.554514 
L 164.137098 344.468027 
L 165.443379 348.554514 
L 168.055943 348.554514 
L 169.362224 344.468027 
L 170.668506 348.554514 
L 171.974788 332.208568 
L 173.28107 340.381541 
L 174.587351 340.381541 
L 175.893633 336.295054 
L 177.199915 344.468027 
L 178.506196 344.468027 
L 179.812478 348.554514 
L 181.11876 348.554514 
L 182.425041 344.468027 
L 183.731323 348.554514 
L 185.037605 340.381541 
L 186.343887 348.554514 
L 188.95645 348.554514 
L 190.262732 344.468027 
L 191.569013 348.554514 
L 196.79414 348.554514 
L 198.100422 344.468027 
L 199.406704 348.554514 
L 226.838619 348.554514 
L 228.144901 344.468027 
L 229.451183 348.554514 
L 230.757464 348.554514 
L 232.063746 340.381541 
L 233.370028 348.554514 
L 271.252197 348.554514 
L 272.558479 340.381541 
L 273.864761 348.554514 
L 275.171042 344.468027 
L 276.477324 348.554514 
L 277.783606 348.554514 
L 279.089887 344.468027 
L 280.396169 348.554514 
L 281.702451 348.554514 
L 283.008732 344.468027 
L 284.315014 348.554514 
L 290.846423 348.554514 
L 292.152704 344.468027 
L 293.458986 348.554514 
L 296.071549 348.554514 
L 297.377831 344.468027 
L 298.684113 348.554514 
L 299.990395 348.554514 
L 301.296676 344.468027 
L 302.602958 348.554514 
L 303.90924 340.381541 
L 305.215521 336.295054 
L 306.521803 348.554514 
L 307.828085 348.554514 
L 309.134366 340.381541 
L 310.440648 348.554514 
L 322.197183 348.554514 
L 324.809747 340.381541 
L 326.116029 311.776135 
L 327.42231 295.430189 
L 328.728592 291.343703 
L 330.034874 324.035595 
L 331.341155 315.862622 
L 332.647437 328.122081 
L 333.953719 303.603162 
L 335.26 315.862622 
L 336.566282 336.295054 
L 337.872564 311.776135 
L 339.178846 340.381541 
L 340.485127 348.554514 
L 341.791409 336.295054 
L 343.097691 344.468027 
L 344.403972 348.554514 
L 345.710254 348.554514 
L 347.016536 340.381541 
L 348.322817 348.554514 
L 365.30448 348.554514 
L 366.610761 344.468027 
L 367.917043 348.554514 
L 377.061015 348.554514 
L 378.367297 344.468027 
L 379.673578 348.554514 
L 387.511269 348.554514 
L 388.81755 344.468027 
L 390.123832 348.554514 
L 397.961522 348.554514 
L 399.267804 344.468027 
L 400.574086 348.554514 
L 404.492931 348.554514 
L 405.799212 340.381541 
L 407.105494 348.554514 
L 408.411776 348.554514 
L 409.718057 332.208568 
L 411.024339 348.554514 
L 424.087156 348.554514 
L 425.393438 340.381541 
L 426.69972 340.381541 
L 428.006001 344.468027 
L 429.312283 332.208568 
L 430.618565 348.554514 
L 444.987663 348.554514 
L 446.293945 336.295054 
L 447.600227 348.554514 
L 460.663044 348.554514 
L 461.969325 344.468027 
L 463.275607 348.554514 
L 464.581889 348.554514 
L 465.888171 344.468027 
L 467.194452 348.554514 
L 468.500734 344.468027 
L 469.807016 348.554514 
L 471.113297 348.554514 
L 472.419579 340.381541 
L 473.725861 348.554514 
L 476.338424 348.554514 
L 477.644706 344.468027 
L 478.950988 348.554514 
L 516.833157 348.554514 
L 518.139439 344.468027 
L 520.752002 344.468027 
L 522.058284 340.381541 
L 523.364565 344.468027 
L 524.670847 319.949108 
L 525.977129 315.862622 
L 527.283411 324.035595 
L 528.589692 319.949108 
L 529.895974 324.035595 
L 531.202256 315.862622 
L 532.508537 328.122081 
L 533.814819 328.122081 
L 535.121101 332.208568 
L 536.427382 315.862622 
L 537.733664 336.295054 
L 539.039946 319.949108 
L 540.346228 336.295054 
L 541.652509 344.468027 
L 542.958791 344.468027 
L 544.265073 336.295054 
L 545.571354 319.949108 
L 546.877636 336.295054 
L 548.183918 324.035595 
L 550.796481 348.554514 
L 563.859298 348.554514 
L 565.16558 344.468027 
L 566.471862 348.554514 
L 573.00327 348.554514 
L 574.309552 336.295054 
L 575.615833 348.554514 
L 576.922115 340.381541 
L 578.228397 348.554514 
L 588.678651 348.554514 
L 589.984932 344.468027 
L 591.291214 344.468027 
L 592.597496 348.554514 
L 599.128904 348.554514 
L 600.435186 344.468027 
L 601.741468 344.468027 
L 603.047749 348.554514 
L 638.317355 348.554514 
L 639.623637 344.468027 
L 640.929919 348.554514 
L 663.136707 348.554514 
L 664.442989 344.468027 
L 665.749271 348.554514 
L 708.856567 348.554514 
L 710.162849 336.295054 
L 711.46913 332.208568 
L 712.775412 336.295054 
L 714.081694 332.208568 
L 715.387976 348.554514 
L 716.694257 344.468027 
L 718.000539 348.554514 
L 719.306821 344.468027 
L 720.613102 344.468027 
L 721.919384 348.554514 
L 738.901046 348.554514 
L 740.207328 344.468027 
L 741.51361 348.554514 
L 761.107835 348.554514 
L 762.414117 344.468027 
L 763.720398 348.554514 
L 771.558089 348.554514 
L 772.86437 344.468027 
L 774.170652 348.554514 
L 775.476934 344.468027 
L 776.783215 348.554514 
L 778.089497 344.468027 
L 779.395779 348.554514 
L 787.233469 348.554514 
L 788.539751 344.468027 
L 789.846032 348.554514 
L 801.602568 348.554514 
L 802.908849 344.468027 
L 804.215131 344.468027 
L 805.521413 348.554514 
L 806.827695 340.381541 
L 808.133976 348.554514 
L 809.440258 344.468027 
L 810.74654 344.468027 
L 812.052821 348.554514 
L 814.665385 348.554514 
L 815.971667 344.468027 
L 817.277948 348.554514 
L 826.42192 348.554514 
L 827.728202 344.468027 
L 829.034484 344.468027 
L 830.340765 348.554514 
L 831.647047 344.468027 
L 832.953329 348.554514 
L 835.565892 348.554514 
L 836.872174 340.381541 
L 838.178455 348.554514 
L 843.403582 348.554514 
L 844.709864 344.468027 
L 847.322427 344.468027 
L 848.628709 348.554514 
L 859.078963 348.554514 
L 860.385244 340.381541 
L 861.691526 348.554514 
L 865.610371 348.554514 
L 866.916653 344.468027 
L 868.222935 348.554514 
L 873.448061 348.554514 
L 874.754343 344.468027 
L 876.060625 348.554514 
L 879.97947 348.554514 
L 881.285752 344.468027 
L 882.592033 348.554514 
L 883.898315 344.468027 
L 885.204597 348.554514 
L 886.510878 344.468027 
L 887.81716 348.554514 
L 889.123442 348.554514 
L 890.429723 340.381541 
L 891.736005 348.554514 
L 893.042287 344.468027 
L 894.348569 344.468027 
L 895.65485 348.554514 
L 900.879977 348.554514 
L 902.186259 340.381541 
L 904.798822 348.554514 
L 906.105104 344.468027 
L 907.411386 348.554514 
L 908.717667 344.468027 
L 910.023949 348.554514 
L 911.330231 348.554514 
L 912.636512 344.468027 
L 913.942794 348.554514 
L 917.861639 348.554514 
L 919.167921 344.468027 
L 920.474203 344.468027 
L 921.780484 348.554514 
L 924.393048 348.554514 
L 925.699329 344.468027 
L 927.005611 348.554514 
L 933.53702 348.554514 
L 934.843301 344.468027 
L 936.149583 348.554514 
L 937.455865 311.776135 
L 938.762146 336.295054 
L 940.068428 303.603162 
L 941.37471 266.824784 
L 942.680992 328.122081 
L 943.987273 274.997757 
L 945.293555 262.738297 
L 946.599837 136.057216 
L 947.906118 185.095054 
L 949.2124 99.278838 
L 950.518682 246.392351 
L 951.824963 319.949108 
L 953.131245 315.862622 
L 954.437527 328.122081 
L 955.743809 315.862622 
L 957.05009 340.381541 
L 958.356372 336.295054 
L 959.662654 324.035595 
L 960.968935 332.208568 
L 962.275217 336.295054 
L 963.581499 348.554514 
L 964.88778 344.468027 
L 966.194062 332.208568 
L 967.500344 344.468027 
L 968.806626 348.554514 
L 975.338034 348.554514 
L 976.644316 340.381541 
L 977.950597 348.554514 
L 981.869443 348.554514 
L 983.175724 344.468027 
L 984.482006 348.554514 
L 985.788288 344.468027 
L 987.094569 348.554514 
L 993.625978 348.554514 
L 994.93226 336.295054 
L 996.238541 344.468027 
L 997.544823 348.554514 
L 1000.157386 348.554514 
L 1001.463668 344.468027 
L 1002.76995 348.554514 
L 1009.301358 348.554514 
L 1010.60764 344.468027 
L 1013.220203 344.468027 
L 1014.526485 348.554514 
L 1018.44533 348.554514 
L 1019.751612 340.381541 
L 1021.057894 344.468027 
L 1022.364175 344.468027 
L 1023.670457 340.381541 
L 1024.976739 348.554514 
L 1027.589302 348.554514 
L 1028.895584 336.295054 
L 1030.201865 344.468027 
L 1031.508147 340.381541 
L 1032.814429 344.468027 
L 1034.120711 344.468027 
L 1035.426992 348.554514 
L 1043.264683 348.554514 
L 1044.570964 344.468027 
L 1045.877246 348.554514 
L 1047.183528 348.554514 
L 1048.489809 344.468027 
L 1049.796091 348.554514 
L 1061.552626 348.554514 
L 1062.858908 340.381541 
L 1064.16519 352.641 
L 1065.471471 258.651811 
L 1066.777753 299.516676 
L 1068.084035 303.603162 
L 1070.696598 230.046405 
L 1072.00288 283.17073 
L 1073.309162 319.949108 
L 1075.921725 303.603162 
L 1077.228007 307.689649 
L 1078.534288 319.949108 
L 1079.84057 324.035595 
L 1081.146852 311.776135 
L 1082.453134 315.862622 
L 1083.759415 274.997757 
L 1085.065697 307.689649 
L 1086.371979 315.862622 
L 1087.67826 344.468027 
L 1088.984542 348.554514 
L 1090.290824 340.381541 
L 1091.597105 348.554514 
L 1092.903387 348.554514 
L 1094.209669 340.381541 
L 1095.515951 348.554514 
L 1096.822232 348.554514 
L 1098.128514 332.208568 
L 1099.434796 344.468027 
L 1100.741077 332.208568 
L 1102.047359 332.208568 
L 1103.353641 336.295054 
L 1104.659922 328.122081 
L 1105.966204 311.776135 
L 1107.272486 246.392351 
L 1108.578768 209.613973 
L 1109.885049 78.846405 
L 1111.191331 156.489649 
L 1112.497613 50.241 
L 1113.803894 189.181541 
L 1115.110176 205.527486 
L 1116.416458 70.673432 
L 1117.722739 201.441 
L 1119.029021 311.776135 
L 1120.335303 311.776135 
L 1121.641585 291.343703 
L 1122.947866 234.132892 
L 1124.254148 299.516676 
L 1125.56043 307.689649 
L 1126.866711 328.122081 
L 1128.172993 311.776135 
L 1129.479275 340.381541 
L 1130.785556 328.122081 
L 1132.091838 340.381541 
L 1133.39812 348.554514 
L 1134.704402 336.295054 
L 1136.010683 319.949108 
L 1137.316965 340.381541 
L 1139.929528 348.554514 
L 1141.23581 340.381541 
L 1142.542092 344.468027 
L 1149.0735 344.468027 
L 1150.379782 340.381541 
L 1151.686064 348.554514 
L 1152.992345 344.468027 
L 1154.298627 348.554514 
L 1158.217472 348.554514 
L 1159.523754 344.468027 
L 1160.830036 336.295054 
L 1162.136317 246.392351 
L 1163.442599 348.554514 
L 1164.748881 344.468027 
L 1167.361444 344.468027 
L 1168.667726 348.554514 
L 1169.974008 344.468027 
L 1171.280289 328.122081 
L 1172.586571 348.554514 
L 1173.892853 340.381541 
L 1175.199134 340.381541 
L 1177.811698 348.554514 
L 1179.117979 348.554514 
L 1180.424261 340.381541 
L 1181.730543 328.122081 
L 1183.036825 340.381541 
L 1184.343106 348.554514 
L 1185.649388 340.381541 
L 1186.95567 340.381541 
L 1189.568233 348.554514 
L 1192.180796 348.554514 
L 1193.487078 344.468027 
L 1194.79336 348.554514 
L 1196.099642 348.554514 
L 1197.405923 344.468027 
L 1198.712205 344.468027 
L 1200.018487 348.554514 
L 1202.63105 348.554514 
L 1203.937332 340.381541 
L 1205.243613 348.554514 
L 1215.693867 348.554514 
L 1217.000149 295.430189 
L 1218.30643 348.554514 
L 1219.612712 303.603162 
L 1220.918994 340.381541 
L 1222.225276 336.295054 
L 1223.531557 348.554514 
L 1226.144121 348.554514 
L 1227.450402 340.381541 
L 1230.062966 332.208568 
L 1231.369247 332.208568 
L 1232.675529 344.468027 
L 1233.981811 348.554514 
L 1250.963473 348.554514 
L 1252.269755 344.468027 
L 1253.576036 348.554514 
L 1257.494881 348.554514 
L 1258.801163 344.468027 
L 1260.107445 344.468027 
L 1261.413727 340.381541 
L 1262.720008 348.554514 
L 1265.332572 348.554514 
L 1266.638853 340.381541 
L 1267.945135 344.468027 
L 1269.251417 340.381541 
L 1270.557698 340.381541 
L 1271.86398 348.554514 
L 1273.170262 344.468027 
L 1274.476544 348.554514 
L 1278.395389 348.554514 
L 1279.70167 340.381541 
L 1281.007952 344.468027 
L 1283.620516 344.468027 
L 1284.926797 348.554514 
L 1286.233079 340.381541 
L 1287.539361 344.468027 
L 1287.539361 344.468027 
" clip-path="url(#p6e7cc3c5a9)" style="fill: none; stroke: #0000ff; stroke-width: 1.5; stroke-linecap: square"/>
   </g>
   <g id="line2d_21">
    <path d="M 1048.489809 345.692961 
L 1049.796091 347.631728 
L 1051.102373 348.256936 
L 1052.408654 348.458552 
L 1056.3275 348.551295 
L 1061.552626 348.554479 
L 1062.858908 343.017126 
L 1064.16519 349.537521 
L 1065.471471 287.960376 
L 1066.777753 295.790033 
L 1068.084035 301.083606 
L 1069.390317 277.872472 
L 1070.696598 245.469219 
L 1072.00288 271.012854 
L 1073.309162 304.168284 
L 1074.615443 309.322777 
L 1075.921725 305.447607 
L 1077.228007 306.966642 
L 1078.534288 315.762559 
L 1079.84057 321.36773 
L 1081.146852 314.869205 
L 1082.453134 315.542268 
L 1083.759415 288.072435 
L 1085.065697 301.363545 
L 1086.371979 311.187001 
L 1087.67826 333.735656 
L 1088.984542 343.775771 
L 1090.290824 341.476102 
L 1091.597105 346.271888 
L 1092.903387 347.818419 
L 1094.209669 342.779764 
L 1095.515951 346.692289 
L 1096.822232 347.953989 
L 1098.128514 337.286106 
L 1099.434796 342.152022 
L 1100.741077 335.415104 
L 1102.047359 333.242602 
L 1103.353641 335.310708 
L 1104.659922 330.440249 
L 1105.966204 317.794886 
L 1107.272486 269.418038 
L 1108.578768 228.899418 
L 1109.885049 127.235074 
L 1111.191331 147.055717 
L 1112.497613 81.461535 
L 1113.803894 154.444299 
L 1115.110176 189.054325 
L 1116.416458 108.848566 
L 1117.722739 171.582055 
L 1119.029021 266.566747 
L 1120.335303 297.19714 
L 1121.641585 293.231303 
L 1122.947866 253.190779 
L 1124.254148 284.577632 
L 1125.56043 300.236551 
L 1126.866711 319.129635 
L 1128.172993 314.147471 
L 1129.479275 331.921652 
L 1130.785556 329.347356 
L 1133.39812 344.771455 
L 1134.704402 339.0285 
L 1136.010683 326.101776 
L 1137.316965 335.776643 
L 1138.623247 341.665254 
L 1139.929528 346.332885 
L 1141.23581 342.300713 
L 1142.542092 343.769118 
L 1143.848373 344.242645 
L 1146.460937 344.444589 
L 1149.0735 344.46559 
L 1150.379782 341.698553 
L 1151.686064 346.343623 
L 1152.992345 345.072864 
L 1154.298627 347.431761 
L 1155.604909 348.192451 
L 1156.91119 348.437757 
L 1158.217472 348.516862 
L 1159.523754 345.773684 
L 1160.830036 339.351696 
L 1162.136317 276.369616 
L 1163.442599 325.276533 
L 1164.748881 338.279209 
L 1166.055162 342.472274 
L 1167.361444 343.824442 
L 1168.667726 347.029174 
L 1169.974008 345.293938 
L 1171.280289 333.659613 
L 1172.586571 343.751248 
L 1173.892853 341.468194 
L 1175.199134 340.731962 
L 1176.505416 343.263231 
L 1177.811698 346.848196 
L 1179.117979 348.004265 
L 1180.424261 342.839695 
L 1181.730543 332.868175 
L 1183.036825 337.958652 
L 1184.343106 345.13759 
L 1185.649388 341.915258 
L 1186.95567 340.876129 
L 1188.261951 343.309722 
L 1189.568233 346.863188 
L 1190.874515 348.0091 
L 1192.180796 348.37863 
L 1193.487078 345.729107 
L 1194.79336 347.643385 
L 1196.099642 348.260695 
L 1197.405923 345.691076 
L 1198.712205 344.862432 
L 1200.018487 347.363902 
L 1201.324768 348.170568 
L 1202.63105 348.4307 
L 1203.937332 342.977211 
L 1205.243613 346.755961 
L 1206.549895 347.974521 
L 1207.856177 348.367479 
L 1210.46874 348.535064 
L 1215.693867 348.554303 
L 1217.000149 312.561502 
L 1218.30643 336.94759 
L 1219.612712 314.355978 
L 1220.918994 331.988891 
L 1222.225276 334.906415 
L 1223.531557 344.153313 
L 1224.837839 347.135227 
L 1226.144121 348.096826 
L 1227.450402 342.869544 
L 1230.062966 334.210057 
L 1231.369247 332.854002 
L 1232.675529 340.722769 
L 1233.981811 346.028955 
L 1235.288093 347.740079 
L 1236.594374 348.291877 
L 1237.900656 348.469819 
L 1241.819501 348.551673 
L 1250.963473 348.554512 
L 1252.269755 345.785825 
L 1253.576036 347.661675 
L 1254.882318 348.266593 
L 1256.1886 348.461666 
L 1257.494881 348.524572 
L 1258.801163 345.77617 
L 1260.107445 344.889873 
L 1261.413727 341.835375 
L 1262.720008 346.387745 
L 1264.02629 347.85578 
L 1265.332572 348.329188 
L 1266.638853 342.944475 
L 1267.945135 343.976716 
L 1269.251417 341.540903 
L 1270.557698 340.755408 
L 1271.86398 346.03948 
L 1273.170262 344.974785 
L 1274.476544 347.400133 
L 1275.782825 348.182252 
L 1277.089107 348.434468 
L 1278.395389 348.515801 
L 1279.70167 343.004654 
L 1281.007952 343.996123 
L 1282.314234 344.315849 
L 1283.620516 344.418953 
L 1284.926797 347.22089 
L 1286.233079 342.587074 
L 1287.539361 343.861463 
L 1287.539361 343.861463 
" clip-path="url(#p6e7cc3c5a9)" style="fill: none; stroke: #ffa500; stroke-width: 1.5; stroke-linecap: square"/>
   </g>
   <g id="line2d_22">
    <path d="M 1287.539361 343.861463 
L 1288.845642 343.861463 
L 1290.151924 343.861463 
L 1291.458206 343.861463 
L 1292.764487 343.861463 
L 1294.070769 343.861463 
L 1295.377051 343.861463 
L 1296.683333 343.861463 
L 1297.989614 343.861463 
L 1299.295896 343.861463 
L 1300.602178 343.861463 
L 1301.908459 343.861463 
L 1303.214741 343.861463 
L 1304.521023 343.861463 
" clip-path="url(#p6e7cc3c5a9)" style="fill: none; stroke: #ff0000; stroke-width: 1.5; stroke-linecap: square"/>
   </g>
   <g id="patch_3">
    <path d="M 26.19375 367.761 
L 26.19375 35.121 
" style="fill: none; stroke: #000000; stroke-width: 0.8; stroke-linejoin: miter; stroke-linecap: square"/>
   </g>
   <g id="patch_4">
    <path d="M 1365.39375 367.761 
L 1365.39375 35.121 
" style="fill: none; stroke: #000000; stroke-width: 0.8; stroke-linejoin: miter; stroke-linecap: square"/>
   </g>
   <g id="patch_5">
    <path d="M 26.19375 367.761 
L 1365.39375 367.761 
" style="fill: none; stroke: #000000; stroke-width: 0.8; stroke-linejoin: miter; stroke-linecap: square"/>
   </g>
   <g id="patch_6">
    <path d="M 26.19375 35.121 
L 1365.39375 35.121 
" style="fill: none; stroke: #000000; stroke-width: 0.8; stroke-linejoin: miter; stroke-linecap: square"/>
   </g>
   <g id="text_20">
    <!-- 每日新增预测 - 辽宁 -->
    <g transform="translate(642.396563 17.101875)scale(0.12 -0.12)">
     <defs>
      <path id="WenQuanYiZenHei-6bcf" d="M 6138 2181 
Q 6113 1988 6138 1800 
Q 5788 1819 5438 1819 
L 4975 1819 
L 4863 738 
L 5806 738 
L 5806 394 
L 4831 394 
L 4775 -144 
Q 4719 -563 4350 -725 
Q 4013 -856 3550 -825 
L 3288 -819 
Q 3331 -663 3275 -519 
Q 3219 -375 3113 -288 
Q 3381 -313 3759 -303 
Q 4138 -294 4231 -238 
Q 4338 -163 4350 88 
L 4381 394 
L 1025 394 
L 1244 1819 
L 813 1819 
Q 463 1819 113 1800 
Q 138 1988 113 2181 
Q 463 2163 813 2163 
L 1294 2163 
L 1488 3431 
L 1488 3581 
L 1506 3581 
L 1513 3613 
L 1713 3581 
L 5156 3581 
L 5013 2163 
L 5438 2163 
Q 5788 2163 6138 2181 
z
M 5588 4463 
Q 5569 4269 5588 4081 
Q 5244 4100 4894 4100 
L 1813 4100 
Q 1344 3463 606 2788 
Q 481 2988 256 3069 
Q 744 3494 1116 3972 
Q 1488 4450 1919 5181 
Q 2119 5044 2344 4950 
Q 2213 4688 2050 4444 
L 4894 4444 
Q 5238 4444 5588 4463 
z
M 2844 3238 
L 1906 3238 
L 1744 2163 
L 3244 2163 
L 2581 3038 
L 2844 3238 
z
M 3250 2163 
L 4563 2163 
L 4669 3238 
L 3044 3238 
L 3638 2456 
L 3250 2163 
z
M 2944 1819 
Q 3275 1394 3550 938 
L 3213 738 
L 4419 738 
L 4525 1819 
L 2944 1819 
z
M 2656 1819 
L 1694 1819 
L 1525 738 
L 3094 738 
Q 2806 1219 2450 1650 
L 2656 1819 
z
" transform="scale(0.015625)"/>
      <path id="WenQuanYiZenHei-65e5" d="M 1494 -775 
Q 1244 -750 988 -775 
Q 1013 -313 1013 156 
L 1013 4875 
L 5269 4875 
L 5269 -763 
L 4813 -763 
L 4813 156 
L 1469 156 
Q 1469 -313 1494 -775 
z
M 4813 2700 
L 4813 4500 
L 1469 4500 
L 1469 2700 
L 4813 2700 
z
M 4813 531 
L 4813 2325 
L 1469 2325 
L 1469 531 
L 4813 531 
z
" transform="scale(0.015625)"/>
      <path id="WenQuanYiZenHei-65b0" d="M 5419 -763 
Q 5188 -738 4963 -763 
Q 4981 -344 4981 75 
L 4981 2819 
L 4188 2819 
L 4188 1706 
Q 4188 63 3163 -738 
Q 3019 -519 2769 -469 
Q 3769 131 3769 1706 
L 3769 4769 
L 3875 4769 
L 3844 4831 
L 4294 4781 
Q 4438 4769 4894 4816 
Q 5350 4863 5512 4931 
Q 5675 5000 5763 5094 
Q 5850 4881 5981 4694 
Q 5713 4544 5263 4519 
L 4188 4438 
L 4188 3100 
L 5563 3100 
Q 5850 3100 6131 3113 
Q 6119 2956 6131 2806 
L 5394 2819 
L 5394 75 
Q 5394 -344 5419 -763 
z
M 2981 213 
Q 2656 744 2256 1225 
L 2606 1513 
Q 3025 1006 3369 450 
L 2981 213 
z
M 1169 1525 
Q 1375 1419 1594 1363 
Q 1281 488 469 -469 
Q 331 -300 119 -244 
Q 575 263 888 900 
Q 1038 1206 1169 1525 
z
M 1825 6 
L 1825 1769 
L 1081 1769 
Q 794 1769 513 1756 
Q 525 1913 513 2063 
Q 794 2050 1081 2050 
L 1825 2050 
L 1825 2775 
L 994 2775 
Q 706 2775 425 2763 
Q 438 2919 425 3075 
Q 706 3056 994 3056 
L 1825 3056 
L 1825 3088 
L 1906 3088 
Q 2288 3656 2588 4381 
Q 2794 4269 3013 4206 
Q 2800 3675 2381 3056 
L 3013 3056 
Q 3294 3056 3581 3075 
Q 3563 2919 3581 2763 
Q 3294 2775 3013 2775 
L 2238 2775 
L 2238 2050 
L 2925 2050 
Q 3206 2050 3494 2063 
Q 3475 1913 3494 1756 
Q 3206 1769 2925 1769 
L 2238 1769 
L 2238 -156 
Q 2238 -413 2075 -581 
Q 1844 -794 1306 -794 
Q 1363 -519 1188 -288 
Q 1338 -313 1534 -316 
Q 1731 -319 1778 -278 
Q 1825 -238 1825 6 
z
M 1875 3388 
L 1500 3131 
L 825 4088 
L 1200 4350 
L 1875 3388 
z
M 3419 4713 
Q 3400 4563 3419 4406 
Q 3131 4419 2850 4419 
L 1125 4419 
Q 838 4419 556 4406 
Q 569 4563 556 4713 
Q 838 4700 1125 4700 
L 1763 4700 
L 1388 5088 
L 1719 5406 
L 2288 4813 
L 2175 4700 
L 2850 4700 
Q 3131 4700 3419 4713 
z
" transform="scale(0.015625)"/>
      <path id="WenQuanYiZenHei-589e" d="M 3138 -769 
Q 2913 -744 2688 -769 
Q 2706 -356 2706 56 
L 2706 1719 
L 5706 1719 
L 5706 -756 
L 5300 -756 
L 5300 -338 
L 3119 -338 
Q 3125 -550 3138 -769 
z
M 5113 3569 
Q 5344 3606 5563 3688 
Q 5669 3175 5256 2694 
Q 5113 2519 4975 2506 
Q 4831 2725 4588 2813 
Q 4806 2831 4997 3068 
Q 5188 3306 5113 3569 
z
M 3850 2763 
L 3469 2538 
L 2925 3456 
L 3313 3681 
L 3850 2763 
z
M 2400 2100 
Q 2469 3138 2400 4175 
L 3413 4175 
Q 3138 4550 2825 4888 
L 3156 5194 
Q 3581 4725 3938 4206 
L 3900 4175 
L 4456 4175 
Q 4863 4575 5131 5163 
Q 5325 5044 5538 4975 
Q 5369 4575 5013 4175 
L 6056 4175 
Q 5981 3138 6056 2100 
L 2400 2100 
z
M 5300 806 
L 5300 1450 
L 3113 1450 
Q 3113 1125 3113 806 
L 5300 806 
z
M 5300 563 
L 3113 563 
L 3113 -94 
L 5300 -94 
L 5300 563 
z
M 4431 3913 
L 4431 2363 
L 5650 2363 
L 5650 3913 
L 4756 3913 
L 4700 3856 
Q 4681 3888 4656 3913 
L 4431 3913 
z
M 4025 3913 
L 2806 3913 
L 2806 2363 
L 4025 2363 
L 4025 3913 
z
M -31 625 
Q 506 763 1006 975 
L 1006 3206 
L 669 3206 
Q 369 3206 75 3188 
Q 94 3356 75 3531 
Q 369 3513 669 3513 
L 1006 3513 
L 1006 4263 
Q 1006 4700 981 5131 
Q 1206 5106 1431 5131 
Q 1413 4700 1413 4263 
L 1413 3513 
L 2238 3531 
Q 2219 3356 2238 3188 
L 1413 3206 
L 1413 1163 
L 2150 1531 
L 2194 1256 
Q 1269 775 813 519 
L 194 144 
Q 138 438 -31 625 
z
" transform="scale(0.015625)"/>
      <path id="WenQuanYiZenHei-9884" d="M 1206 19 
L 1206 2888 
L 669 2888 
Q 356 2888 50 2869 
Q 63 3044 50 3213 
Q 363 3194 669 3194 
L 1250 3194 
Q 950 3631 606 4031 
L 963 4338 
L 1263 3975 
L 1913 4719 
L 731 4719 
Q 419 4719 106 4706 
Q 125 4875 106 5044 
Q 419 5031 731 5031 
L 2481 5031 
L 2544 4663 
Q 2394 4613 2256 4466 
Q 2119 4319 1525 3631 
Q 1656 3444 1788 3250 
L 1700 3194 
L 2700 3194 
L 2763 2825 
Q 2656 2819 2613 2763 
L 2100 2038 
L 1750 2288 
L 2175 2888 
L 1638 2888 
L 1638 -150 
Q 1638 -525 1363 -669 
Q 1075 -819 525 -813 
Q 594 -513 388 -294 
Q 575 -313 837 -316 
Q 1100 -319 1153 -272 
Q 1206 -225 1206 19 
z
M 5813 -888 
Q 5100 -225 4306 375 
L 4669 719 
Q 5481 106 6219 -575 
L 5813 -888 
z
M 2375 -906 
Q 2294 -631 2025 -506 
Q 2769 -431 3353 19 
Q 3938 469 3938 1069 
L 3938 2200 
Q 3938 2625 3913 3050 
Q 4188 3025 4456 3050 
Q 4431 2625 4431 2200 
L 4431 1069 
Q 4431 681 4225 319 
Q 3644 -606 2375 -906 
z
M 3444 488 
Q 3169 513 2894 488 
Q 2919 913 2919 1338 
L 2919 3675 
Q 3219 3675 3525 3675 
Q 3750 4013 3931 4525 
L 3238 4525 
Q 2888 4525 2538 4513 
Q 2556 4669 2538 4831 
Q 2888 4813 3238 4813 
L 5313 4813 
Q 5663 4813 6006 4831 
Q 5988 4669 6006 4513 
Q 5663 4525 5313 4525 
L 4481 4525 
Q 4388 4088 4088 3675 
L 5644 3675 
L 5644 513 
L 5144 513 
L 5144 3388 
L 3894 3388 
L 3875 3363 
Q 3863 3375 3844 3388 
Q 3631 3388 3413 3388 
L 3419 1338 
Q 3419 913 3444 488 
z
" transform="scale(0.015625)"/>
      <path id="WenQuanYiZenHei-6d4b" d="M 5450 138 
L 5450 4306 
Q 5450 4750 5425 5188 
Q 5663 5163 5906 5188 
Q 5881 4750 5881 4306 
L 5881 -38 
Q 5888 -569 5519 -719 
Q 5194 -831 4825 -813 
Q 4894 -519 4694 -281 
Q 4869 -306 5094 -309 
Q 5319 -313 5384 -256 
Q 5450 -200 5450 138 
z
M 4900 938 
Q 4663 963 4419 938 
Q 4444 1375 4444 1819 
L 4444 3381 
Q 4444 3819 4419 4263 
Q 4663 4238 4900 4263 
Q 4875 3819 4875 3381 
L 4875 1819 
Q 4875 1375 4900 938 
z
M 2750 2025 
L 2750 3038 
Q 2750 3481 2725 3919 
Q 2963 3894 3206 3919 
Q 3181 3481 3181 3038 
L 3181 2025 
Q 3181 1263 2919 625 
L 3231 956 
Q 3781 431 4256 -150 
L 3888 -456 
Q 3431 106 2906 600 
Q 2531 -288 1738 -769 
Q 1606 -519 1338 -450 
Q 1988 -156 2369 478 
Q 2750 1113 2750 2025 
z
M 2363 969 
Q 2119 994 1881 969 
Q 1906 1406 1906 1850 
L 1906 5038 
L 3956 5031 
L 3956 1200 
L 3525 1200 
L 3525 4713 
L 2338 4713 
L 2338 1850 
Q 2338 1406 2363 969 
z
M 663 -738 
Q 481 -588 206 -575 
Q 400 -69 606 581 
Q 813 1231 1200 2838 
L 1381 2706 
L 875 338 
L 663 -738 
z
M 1006 2856 
L 731 2550 
L 75 3400 
L 350 3713 
L 1006 2856 
z
M 1088 3913 
Q 781 4388 425 4800 
L 694 5125 
Q 1069 4688 1388 4188 
L 1088 3913 
z
" transform="scale(0.015625)"/>
      <path id="WenQuanYiZenHei-20" transform="scale(0.015625)"/>
      <path id="WenQuanYiZenHei-8fbd" d="M 3756 881 
L 3756 4056 
L 4738 4825 
L 2844 4825 
Q 2463 4825 2081 4806 
Q 2106 5013 2081 5219 
Q 2463 5200 2844 5200 
L 5538 5200 
L 5581 4781 
Q 5381 4738 5219 4619 
L 4219 3831 
L 4219 713 
Q 4219 113 3438 25 
L 3231 13 
Q 3294 344 3081 613 
Q 3219 569 3375 550 
Q 3663 544 3709 584 
Q 3756 625 3756 881 
z
M 131 2781 
Q 156 2988 131 3194 
Q 513 3175 894 3175 
L 1531 3175 
L 1531 513 
Q 2000 75 2419 -75 
Q 2838 -225 3569 -225 
L 6031 -244 
Q 5781 -425 5800 -725 
L 3569 -731 
Q 2613 -725 2013 -375 
Q 1550 -113 1275 269 
L 481 -644 
Q 319 -450 125 -288 
L 344 -100 
L 1075 544 
L 1075 2800 
L 894 2800 
Q 513 2800 131 2781 
z
M 1850 4344 
L 1456 4038 
L 800 4869 
L 1194 5181 
L 1850 4344 
z
" transform="scale(0.015625)"/>
      <path id="WenQuanYiZenHei-5b81" d="M 2944 -6 
L 2944 2450 
L 1044 2450 
Q 663 2450 281 2431 
Q 300 2638 281 2844 
Q 663 2825 1044 2825 
L 5281 2825 
Q 5663 2825 6044 2844 
Q 6025 2638 6044 2431 
Q 5663 2450 5281 2450 
L 3400 2450 
L 3400 -150 
Q 3400 -413 3213 -594 
Q 2944 -831 2213 -825 
Q 2288 -506 2063 -269 
Q 2269 -294 2553 -294 
Q 2838 -294 2891 -250 
Q 2944 -206 2944 -6 
z
M 688 3319 
L 231 3319 
L 231 4344 
L 2856 4344 
Q 2519 4725 2138 5056 
L 2469 5438 
Q 2963 5006 3388 4500 
L 3206 4344 
L 6025 4344 
L 6025 3319 
L 5563 3319 
L 5563 3969 
L 688 3969 
L 688 3319 
z
" transform="scale(0.015625)"/>
     </defs>
     <use xlink:href="#WenQuanYiZenHei-6bcf"/>
     <use xlink:href="#WenQuanYiZenHei-65e5" x="100"/>
     <use xlink:href="#WenQuanYiZenHei-65b0" x="200"/>
     <use xlink:href="#WenQuanYiZenHei-589e" x="300"/>
     <use xlink:href="#WenQuanYiZenHei-9884" x="400"/>
     <use xlink:href="#WenQuanYiZenHei-6d4b" x="500"/>
     <use xlink:href="#WenQuanYiZenHei-20" x="600"/>
     <use xlink:href="#WenQuanYiZenHei-2d" x="629.980469"/>
     <use xlink:href="#WenQuanYiZenHei-20" x="659.960938"/>
     <use xlink:href="#WenQuanYiZenHei-8fbd" x="689.941406"/>
     <use xlink:href="#WenQuanYiZenHei-5b81" x="789.941406"/>
    </g>
    <!-- ARIMA (0, 1, 1)x(0, 0, 0, 7) (R2 = 0.960276) -->
    <g transform="translate(577.185938 29.121)scale(0.12 -0.12)">
     <defs>
      <path id="WenQuanYiZenHei-41" d="M 3550 0 
L 2988 0 
L 2550 1281 
L 919 1281 
L 531 0 
L 69 0 
L 1494 4388 
L 2125 4388 
L 3550 0 
z
M 2425 1694 
L 1756 3800 
L 1075 1694 
L 2425 1694 
z
" transform="scale(0.015625)"/>
      <path id="WenQuanYiZenHei-52" d="M 3675 0 
L 3100 0 
L 2288 1900 
L 1069 1900 
L 1069 0 
L 519 0 
L 519 4388 
L 2163 4388 
Q 3006 4388 3400 3900 
Q 3581 3663 3625 3325 
Q 3631 3250 3631 3163 
Q 3631 2594 3219 2244 
Q 3038 2100 2813 2038 
L 3675 0 
z
M 3081 3169 
Q 3081 3825 2356 3906 
Q 2263 3919 2163 3919 
L 1069 3919 
L 1069 2350 
L 2100 2350 
Q 2906 2350 3044 2919 
Q 3081 3031 3081 3169 
z
" transform="scale(0.015625)"/>
      <path id="WenQuanYiZenHei-49" d="M 1100 0 
L 550 0 
L 550 4388 
L 1100 4388 
L 1100 0 
z
" transform="scale(0.015625)"/>
      <path id="WenQuanYiZenHei-4d" d="M 4756 0 
L 4206 0 
L 4206 3831 
L 4181 3831 
L 2788 0 
L 2419 0 
L 1000 3831 
L 975 3831 
L 975 0 
L 513 0 
L 513 4388 
L 1331 4388 
L 2656 875 
L 3950 4388 
L 4756 4388 
L 4756 0 
z
" transform="scale(0.015625)"/>
      <path id="WenQuanYiZenHei-28" d="M 1606 -1094 
L 1275 -1094 
Q 475 -100 338 1231 
Q 319 1438 319 1656 
Q 319 3031 1156 4244 
Q 1213 4313 1269 4388 
L 1600 4388 
Q 806 3169 794 1681 
Q 794 188 1606 -1094 
z
" transform="scale(0.015625)"/>
      <path id="WenQuanYiZenHei-2c" d="M 1363 75 
L 881 -825 
L 606 -825 
L 994 0 
L 656 0 
L 656 738 
L 1363 738 
L 1363 75 
z
" transform="scale(0.015625)"/>
      <path id="WenQuanYiZenHei-29" d="M 1600 1656 
Q 1600 306 869 -788 
Q 769 -950 644 -1094 
L 313 -1094 
Q 1125 188 1125 1681 
Q 1125 3169 338 4363 
Q 325 4375 319 4388 
L 650 4388 
Q 1525 3231 1594 1863 
Q 1600 1763 1600 1656 
z
" transform="scale(0.015625)"/>
      <path id="WenQuanYiZenHei-78" d="M 2806 0 
L 2213 0 
L 1394 1319 
L 544 0 
L 50 0 
L 1144 1681 
L 163 3250 
L 744 3250 
L 1431 2138 
L 2144 3250 
L 2631 3250 
L 1681 1794 
L 2806 0 
z
" transform="scale(0.015625)"/>
      <path id="WenQuanYiZenHei-3d" d="M 3569 2256 
L 263 2256 
L 263 2675 
L 3569 2675 
L 3569 2256 
z
M 3569 1019 
L 263 1019 
L 263 1431 
L 3569 1431 
L 3569 1019 
z
" transform="scale(0.015625)"/>
      <path id="WenQuanYiZenHei-2e" d="M 1344 0 
L 631 0 
L 631 725 
L 1344 725 
L 1344 0 
z
" transform="scale(0.015625)"/>
      <path id="WenQuanYiZenHei-39" d="M 3544 2300 
Q 3544 1163 3019 513 
Q 2563 -63 1775 -63 
Q 956 -63 563 488 
Q 463 631 394 813 
L 838 975 
Q 1025 494 1550 388 
Q 1656 369 1775 369 
Q 2594 369 2900 1325 
Q 3044 1769 3038 2313 
L 3025 2313 
Q 2675 1638 1944 1544 
Q 1844 1531 1744 1531 
Q 1050 1531 625 2031 
Q 294 2419 294 2963 
Q 294 3656 813 4094 
Q 1238 4456 1819 4456 
Q 2988 4456 3381 3363 
Q 3544 2900 3544 2300 
z
M 2925 2994 
Q 2925 3563 2469 3844 
Q 2206 4006 1863 4006 
Q 1275 4006 988 3563 
Q 844 3344 825 3056 
Q 819 3006 819 2956 
Q 819 2413 1269 2131 
Q 1538 1963 1875 1963 
Q 2363 1963 2681 2350 
Q 2925 2638 2925 2994 
z
" transform="scale(0.015625)"/>
     </defs>
     <use xlink:href="#WenQuanYiZenHei-41"/>
     <use xlink:href="#WenQuanYiZenHei-52" x="55.957031"/>
     <use xlink:href="#WenQuanYiZenHei-49" x="117.871094"/>
     <use xlink:href="#WenQuanYiZenHei-4d" x="143.847656"/>
     <use xlink:href="#WenQuanYiZenHei-41" x="225.78125"/>
     <use xlink:href="#WenQuanYiZenHei-20" x="281.738281"/>
     <use xlink:href="#WenQuanYiZenHei-28" x="311.71875"/>
     <use xlink:href="#WenQuanYiZenHei-30" x="341.699219"/>
     <use xlink:href="#WenQuanYiZenHei-2c" x="401.660156"/>
     <use xlink:href="#WenQuanYiZenHei-20" x="431.640625"/>
     <use xlink:href="#WenQuanYiZenHei-31" x="461.621094"/>
     <use xlink:href="#WenQuanYiZenHei-2c" x="521.582031"/>
     <use xlink:href="#WenQuanYiZenHei-20" x="551.5625"/>
     <use xlink:href="#WenQuanYiZenHei-31" x="581.542969"/>
     <use xlink:href="#WenQuanYiZenHei-29" x="641.503906"/>
     <use xlink:href="#WenQuanYiZenHei-78" x="671.484375"/>
     <use xlink:href="#WenQuanYiZenHei-28" x="715.429688"/>
     <use xlink:href="#WenQuanYiZenHei-30" x="745.410156"/>
     <use xlink:href="#WenQuanYiZenHei-2c" x="805.371094"/>
     <use xlink:href="#WenQuanYiZenHei-20" x="835.351562"/>
     <use xlink:href="#WenQuanYiZenHei-30" x="865.332031"/>
     <use xlink:href="#WenQuanYiZenHei-2c" x="925.292969"/>
     <use xlink:href="#WenQuanYiZenHei-20" x="955.273438"/>
     <use xlink:href="#WenQuanYiZenHei-30" x="985.253906"/>
     <use xlink:href="#WenQuanYiZenHei-2c" x="1045.214844"/>
     <use xlink:href="#WenQuanYiZenHei-20" x="1075.195312"/>
     <use xlink:href="#WenQuanYiZenHei-37" x="1105.175781"/>
     <use xlink:href="#WenQuanYiZenHei-29" x="1165.136719"/>
     <use xlink:href="#WenQuanYiZenHei-20" x="1195.117188"/>
     <use xlink:href="#WenQuanYiZenHei-28" x="1225.097656"/>
     <use xlink:href="#WenQuanYiZenHei-52" x="1255.078125"/>
     <use xlink:href="#WenQuanYiZenHei-32" x="1316.992188"/>
     <use xlink:href="#WenQuanYiZenHei-20" x="1376.953125"/>
     <use xlink:href="#WenQuanYiZenHei-3d" x="1406.933594"/>
     <use xlink:href="#WenQuanYiZenHei-20" x="1466.894531"/>
     <use xlink:href="#WenQuanYiZenHei-30" x="1496.875"/>
     <use xlink:href="#WenQuanYiZenHei-2e" x="1556.835938"/>
     <use xlink:href="#WenQuanYiZenHei-39" x="1586.816406"/>
     <use xlink:href="#WenQuanYiZenHei-36" x="1646.777344"/>
     <use xlink:href="#WenQuanYiZenHei-30" x="1706.738281"/>
     <use xlink:href="#WenQuanYiZenHei-32" x="1766.699219"/>
     <use xlink:href="#WenQuanYiZenHei-37" x="1826.660156"/>
     <use xlink:href="#WenQuanYiZenHei-36" x="1886.621094"/>
     <use xlink:href="#WenQuanYiZenHei-29" x="1946.582031"/>
    </g>
   </g>
   <g id="legend_1">
    <g id="patch_7">
     <path d="M 1296.39375 87.116312 
L 1358.39375 87.116312 
Q 1360.39375 87.116312 1360.39375 85.116312 
L 1360.39375 42.121 
Q 1360.39375 40.121 1358.39375 40.121 
L 1296.39375 40.121 
Q 1294.39375 40.121 1294.39375 42.121 
L 1294.39375 85.116312 
Q 1294.39375 87.116312 1296.39375 87.116312 
z
" style="fill: #ffffff; opacity: 0.8; stroke: #cccccc; stroke-linejoin: miter"/>
    </g>
    <g id="line2d_23">
     <path d="M 1298.39375 48.755375 
L 1308.39375 48.755375 
L 1318.39375 48.755375 
" style="fill: none; stroke: #0000ff; stroke-width: 1.5; stroke-linecap: square"/>
    </g>
    <g id="text_21">
     <!-- 实际值 -->
     <g transform="translate(1326.39375 52.255375)scale(0.1 -0.1)">
      <defs>
       <path id="WenQuanYiZenHei-5b9e" d="M 1025 1175 
Q 694 1175 356 1163 
Q 375 1344 356 1525 
Q 694 1506 1025 1506 
L 3363 1506 
L 3363 2625 
Q 3363 3075 3338 3519 
Q 3581 3494 3825 3519 
Q 3800 3075 3800 2625 
L 3800 1506 
L 5406 1506 
Q 5744 1506 6075 1525 
Q 6056 1344 6075 1163 
Q 5744 1175 5406 1175 
L 4038 1175 
L 4981 456 
L 6131 -488 
L 5819 -856 
L 4681 75 
L 3638 875 
Q 3313 231 2475 -231 
Q 1638 -694 700 -825 
Q 638 -519 344 -400 
Q 1450 -319 2406 244 
Q 3113 656 3300 1175 
L 1025 1175 
z
M 2263 1581 
Q 1763 2081 1200 2513 
L 1494 2894 
Q 2081 2444 2600 1919 
L 2263 1581 
z
M 2638 2500 
Q 2219 2963 1731 3363 
L 2044 3738 
Q 2556 3313 3000 2819 
L 2638 2500 
z
M 919 3156 
L 481 3156 
L 481 4344 
L 3069 4344 
Q 2794 4731 2469 5081 
L 2825 5413 
Q 3256 4944 3613 4413 
L 3513 4344 
L 5869 4344 
L 5869 3156 
L 5425 3156 
L 5425 4013 
L 919 4013 
L 919 3156 
z
" transform="scale(0.015625)"/>
       <path id="WenQuanYiZenHei-9645" d="M 6000 431 
L 5569 194 
L 4963 1219 
L 4313 2219 
L 4719 2494 
L 5375 1481 
L 6000 431 
z
M 2956 2450 
Q 3181 2344 3419 2294 
Q 3006 1038 1944 -188 
Q 1794 -6 1569 56 
Q 2069 600 2372 1156 
Q 2675 1713 2956 2450 
z
M 3750 25 
L 3750 2913 
L 2819 2913 
Q 2475 2913 2125 2894 
Q 2144 3081 2125 3269 
Q 2475 3256 2819 3256 
L 5469 3256 
Q 5819 3256 6163 3269 
Q 6144 3081 6163 2894 
Q 5813 2913 5469 2913 
L 4194 2913 
L 4194 -144 
Q 4194 -725 3456 -813 
L 3263 -825 
Q 3325 -506 3125 -250 
Q 3250 -281 3394 -306 
Q 3663 -313 3706 -272 
Q 3750 -231 3750 25 
z
M 5544 4950 
Q 5525 4756 5544 4569 
Q 5194 4588 4844 4588 
L 3325 4588 
Q 2975 4588 2625 4569 
Q 2644 4756 2625 4950 
Q 2975 4931 3325 4931 
L 4844 4931 
Q 5194 4931 5544 4950 
z
M 819 -850 
Q 581 -825 344 -850 
Q 369 -419 369 19 
L 363 4938 
L 2256 4938 
L 2256 4625 
Q 2150 4513 2075 4375 
L 1481 3238 
Q 2181 2319 2181 1156 
Q 2144 400 1569 163 
L 1406 88 
Q 1288 300 1138 481 
Q 1294 538 1450 606 
Q 1763 744 1794 1156 
Q 1794 1744 1600 2300 
Q 1406 2856 1038 3313 
L 1725 4625 
L 788 4625 
L 794 19 
Q 794 -419 819 -850 
z
" transform="scale(0.015625)"/>
       <path id="WenQuanYiZenHei-503c" d="M 6175 -219 
Q 6156 -388 6175 -556 
Q 5863 -544 5550 -544 
L 2313 -544 
Q 2000 -544 1688 -556 
Q 1706 -388 1688 -219 
L 2506 -231 
L 2506 3469 
L 3644 3469 
L 3644 4119 
L 2638 4119 
Q 2325 4119 2013 4100 
Q 2031 4269 2013 4438 
Q 2325 4425 2638 4425 
L 3638 4425 
Q 3638 4719 3619 5013 
Q 3856 4988 4094 5013 
Q 4075 4719 4075 4425 
L 5344 4425 
Q 5650 4425 5963 4438 
Q 5950 4269 5963 4100 
Q 5656 4119 5344 4119 
L 4069 4119 
L 4069 3469 
L 5300 3469 
L 5300 -231 
L 5550 -231 
Q 5863 -231 6175 -219 
z
M 4869 2556 
L 4869 3156 
L 2931 3156 
Q 2931 2850 2931 2556 
L 4869 2556 
z
M 4869 1669 
L 4869 2250 
L 2931 2250 
L 2931 1669 
L 4869 1669 
z
M 4869 731 
L 4869 1363 
L 2931 1363 
L 2931 731 
L 4869 731 
z
M 4869 -231 
L 4869 425 
L 2931 425 
L 2931 -231 
L 4869 -231 
z
M 2106 4925 
Q 1856 4075 1463 3338 
L 1463 31 
Q 1463 -413 1481 -850 
Q 1256 -825 1031 -850 
Q 1050 -413 1050 31 
L 1050 2681 
Q 750 2269 375 1931 
Q 238 2156 0 2256 
Q 331 2544 619 2875 
Q 1094 3425 1300 3950 
Q 1494 4469 1625 5050 
Q 1850 4963 2106 4925 
z
" transform="scale(0.015625)"/>
      </defs>
      <use xlink:href="#WenQuanYiZenHei-5b9e"/>
      <use xlink:href="#WenQuanYiZenHei-9645" x="100"/>
      <use xlink:href="#WenQuanYiZenHei-503c" x="200"/>
     </g>
    </g>
    <g id="line2d_24">
     <path d="M 1298.39375 63.4335 
L 1308.39375 63.4335 
L 1318.39375 63.4335 
" style="fill: none; stroke: #ffa500; stroke-width: 1.5; stroke-linecap: square"/>
    </g>
    <g id="text_22">
     <!-- 校验值 -->
     <g transform="translate(1326.39375 66.9335)scale(0.1 -0.1)">
      <defs>
       <path id="WenQuanYiZenHei-6821" d="M 5256 2463 
Q 5025 1475 4494 706 
Q 5125 -94 6175 -544 
Q 5950 -663 5850 -900 
Q 4906 -494 4250 381 
Q 3931 0 3475 -350 
Q 3019 -700 2388 -919 
Q 2338 -656 2138 -475 
Q 3306 -69 4006 738 
Q 3563 1444 3300 2331 
Q 3050 2050 2706 1800 
Q 2606 2000 2406 2106 
Q 2900 2444 3181 2938 
Q 3350 3225 3488 3538 
Q 3700 3431 3925 3369 
Q 3763 2894 3425 2475 
L 3650 2531 
Q 3888 1675 4244 1075 
Q 4469 1444 4603 1937 
Q 4738 2431 4775 2688 
Q 4963 2644 5150 2625 
Q 4919 2969 4663 3294 
L 5038 3588 
Q 5544 2925 5975 2213 
L 5569 1969 
L 5256 2463 
z
M 6006 4050 
Q 5988 3881 6006 3713 
Q 5694 3725 5381 3725 
L 3413 3725 
Q 3100 3725 2788 3713 
Q 2806 3881 2788 4050 
Q 3100 4031 3413 4031 
L 4325 4031 
Q 4019 4525 3644 4969 
L 4000 5275 
Q 4413 4788 4750 4244 
L 4406 4031 
L 5381 4031 
Q 5694 4031 6006 4050 
z
M 406 263 
Q 238 431 -25 469 
Q 194 825 466 1337 
Q 738 1850 925 2406 
Q 1113 2963 1256 3519 
L 825 3519 
Q 506 3519 188 3500 
Q 206 3700 188 3900 
Q 506 3881 825 3881 
L 1363 3881 
L 1363 4263 
Q 1363 4719 1338 5175 
Q 1556 5150 1775 5175 
Q 1756 4719 1756 4263 
L 1756 3881 
L 2525 3900 
Q 2506 3700 2525 3500 
L 1756 3519 
L 1756 2738 
L 1931 2881 
Q 2306 2300 2613 1650 
L 2231 1413 
Q 2081 1725 1919 2019 
L 1756 2300 
L 1756 69 
Q 1756 -388 1775 -850 
Q 1556 -825 1338 -850 
Q 1363 -388 1363 69 
L 1363 2438 
Q 925 1144 406 263 
z
" transform="scale(0.015625)"/>
       <path id="WenQuanYiZenHei-9a8c" d="M 5981 -106 
Q 5963 -275 5981 -444 
Q 5669 -431 5356 -431 
L 2969 -431 
Q 2656 -431 2350 -444 
Q 2363 -275 2350 -106 
Q 2656 -125 2969 -125 
L 4369 -125 
Q 4600 431 4881 1288 
L 5206 2300 
Q 5425 2206 5663 2163 
Q 5375 1188 4831 -125 
L 5356 -125 
Q 5669 -125 5981 -106 
z
M 4063 594 
Q 3788 1425 3425 2219 
L 3856 2419 
Q 4225 1600 4513 744 
L 4063 594 
z
M 3163 363 
Q 2931 1200 2613 2006 
L 3056 2175 
Q 3381 1350 3619 488 
L 3163 363 
z
M 4581 2550 
L 3513 2550 
Q 3200 2550 2888 2538 
Q 2900 2663 2894 2769 
Q 2569 2488 2206 2300 
Q 2113 2550 1894 2700 
Q 2488 2975 2975 3463 
Q 3269 3756 3394 4006 
Q 3644 4513 3794 5063 
Q 4038 4975 4294 4931 
Q 4250 4806 4206 4681 
Q 4475 3888 5025 3388 
Q 5519 2938 6169 2650 
Q 5938 2538 5838 2300 
Q 5513 2456 5200 2700 
Q 5200 2619 5206 2538 
Q 4894 2550 4581 2550 
z
M 3513 2863 
L 4994 2869 
Q 4344 3438 3988 4194 
Q 3594 3406 3013 2869 
Q 3263 2863 3513 2863 
z
M 206 444 
Q 188 756 44 963 
Q 319 956 650 1003 
Q 981 1050 1731 1281 
L 1738 1006 
Q 800 719 206 444 
z
M 525 4000 
Q 744 3950 994 3944 
Q 925 3519 875 3081 
L 763 2144 
L 1475 2144 
L 1831 4444 
L 663 4444 
Q 350 4444 38 4431 
Q 56 4600 38 4769 
Q 350 4756 663 4756 
L 2313 4756 
L 1913 2144 
L 2375 2144 
L 2200 -200 
Q 2188 -425 1988 -588 
Q 1694 -800 1181 -788 
L 944 -788 
Q 1000 -450 788 -269 
Q 1013 -294 1334 -287 
Q 1656 -281 1715 -243 
Q 1775 -206 1781 -50 
L 1925 1831 
L 294 1831 
L 444 3131 
Q 500 3569 525 4000 
z
" transform="scale(0.015625)"/>
      </defs>
      <use xlink:href="#WenQuanYiZenHei-6821"/>
      <use xlink:href="#WenQuanYiZenHei-9a8c" x="100"/>
      <use xlink:href="#WenQuanYiZenHei-503c" x="200"/>
     </g>
    </g>
    <g id="line2d_25">
     <path d="M 1298.39375 77.955375 
L 1308.39375 77.955375 
L 1318.39375 77.955375 
" style="fill: none; stroke: #ff0000; stroke-width: 1.5; stroke-linecap: square"/>
    </g>
    <g id="text_23">
     <!-- 预测值 -->
     <g transform="translate(1326.39375 81.455375)scale(0.1 -0.1)">
      <use xlink:href="#WenQuanYiZenHei-9884"/>
      <use xlink:href="#WenQuanYiZenHei-6d4b" x="100"/>
      <use xlink:href="#WenQuanYiZenHei-503c" x="200"/>
     </g>
    </g>
   </g>
  </g>
 </g>
 <defs>
  <clipPath id="p6e7cc3c5a9">
   <rect x="26.19375" y="35.121" width="1339.2" height="332.64"/>
  </clipPath>
 </defs>
</svg>
