<?xml version="1.0" encoding="utf-8" standalone="no"?>
<!DOCTYPE svg PUBLIC "-//W3C//DTD SVG 1.1//EN"
  "http://www.w3.org/Graphics/SVG/1.1/DTD/svg11.dtd">
<svg xmlns:xlink="http://www.w3.org/1999/xlink" width="1372.59375pt" height="390.478188pt" viewBox="0 0 1372.59375 390.478188" xmlns="http://www.w3.org/2000/svg" version="1.1">
 <metadata>
  <rdf:RDF xmlns:dc="http://purl.org/dc/elements/1.1/" xmlns:cc="http://creativecommons.org/ns#" xmlns:rdf="http://www.w3.org/1999/02/22-rdf-syntax-ns#">
   <cc:Work>
    <dc:type rdf:resource="http://purl.org/dc/dcmitype/StillImage"/>
    <dc:date>2022-06-25T18:18:39.837036</dc:date>
    <dc:format>image/svg+xml</dc:format>
    <dc:creator>
     <cc:Agent>
      <dc:title>Matplotlib v3.5.2, https://matplotlib.org/</dc:title>
     </cc:Agent>
    </dc:creator>
   </cc:Work>
  </rdf:RDF>
 </metadata>
 <defs>
  <style type="text/css">*{stroke-linejoin: round; stroke-linecap: butt}</style>
 </defs>
 <g id="figure_1">
  <g id="patch_1">
   <path d="M 0 390.478188 
L 1372.59375 390.478188 
L 1372.59375 -0 
L 0 -0 
z
" style="fill: #ffffff"/>
  </g>
  <g id="axes_1">
   <g id="patch_2">
    <path d="M 26.19375 367.761 
L 1365.39375 367.761 
L 1365.39375 35.121 
L 26.19375 35.121 
z
" style="fill: #ffffff"/>
   </g>
   <g id="matplotlib.axis_1">
    <g id="xtick_1">
     <g id="line2d_1">
      <defs>
       <path id="m35a226bc53" d="M 0 0 
L 0 3.5 
" style="stroke: #000000; stroke-width: 0.8"/>
      </defs>
      <g>
       <use xlink:href="#m35a226bc53" x="57.17362" y="367.761" style="stroke: #000000; stroke-width: 0.8"/>
      </g>
     </g>
     <g id="text_1">
      <!-- 2020-01 -->
      <g transform="translate(37.683776 381.61725)scale(0.1 -0.1)">
       <defs>
        <path id="WenQuanYiZenHei-32" d="M 3488 0 
L 369 0 
L 369 456 
L 2150 1850 
Q 2931 2463 2931 3144 
Q 2931 3619 2488 3863 
Q 2231 4013 1931 4013 
Q 1425 4013 1113 3619 
Q 894 3356 881 3013 
L 369 3169 
Q 531 3981 1213 4300 
Q 1544 4456 1950 4456 
Q 2631 4456 3088 4044 
L 3225 3888 
L 3350 3706 
Q 3481 3444 3481 3144 
Q 3481 2313 2519 1569 
L 1069 456 
L 3488 456 
L 3488 0 
z
" transform="scale(0.015625)"/>
        <path id="WenQuanYiZenHei-30" d="M 3581 2175 
Q 3581 1288 3169 638 
Q 2713 -63 1938 -63 
Q 1025 -63 563 831 
Q 256 1425 256 2188 
Q 256 3188 700 3819 
Q 1138 4456 1888 4456 
Q 2863 4456 3306 3500 
Q 3581 2925 3581 2175 
z
M 3019 2100 
Q 3019 3356 2500 3806 
L 2350 3919 
Q 2144 4031 1888 4031 
Q 1100 4031 888 2956 
Q 819 2625 819 2225 
Q 819 1013 1338 569 
Q 1588 356 1938 356 
Q 2675 356 2925 1294 
Q 3019 1663 3019 2100 
z
" transform="scale(0.015625)"/>
        <path id="WenQuanYiZenHei-2d" d="M 1363 1444 
L 0 1444 
L 0 1844 
L 1363 1844 
L 1363 1444 
z
" transform="scale(0.015625)"/>
        <path id="WenQuanYiZenHei-31" d="M 3556 0 
L 488 0 
L 488 406 
L 1800 406 
L 1800 3725 
Q 1231 3125 588 2788 
L 588 3338 
Q 1456 3781 1931 4388 
L 2331 4388 
L 2331 406 
L 3556 406 
L 3556 0 
z
" transform="scale(0.015625)"/>
       </defs>
       <use xlink:href="#WenQuanYiZenHei-32"/>
       <use xlink:href="#WenQuanYiZenHei-30" x="59.960938"/>
       <use xlink:href="#WenQuanYiZenHei-32" x="119.921875"/>
       <use xlink:href="#WenQuanYiZenHei-30" x="179.882812"/>
       <use xlink:href="#WenQuanYiZenHei-2d" x="239.84375"/>
       <use xlink:href="#WenQuanYiZenHei-30" x="269.824219"/>
       <use xlink:href="#WenQuanYiZenHei-31" x="329.785156"/>
      </g>
     </g>
    </g>
    <g id="xtick_2">
     <g id="line2d_2">
      <g>
       <use xlink:href="#m35a226bc53" x="180.821347" y="367.761" style="stroke: #000000; stroke-width: 0.8"/>
      </g>
     </g>
     <g id="text_2">
      <!-- 2020-04 -->
      <g transform="translate(161.331504 381.61725)scale(0.1 -0.1)">
       <defs>
        <path id="WenQuanYiZenHei-34" d="M 3631 1025 
L 2913 1025 
L 2913 0 
L 2381 0 
L 2381 1025 
L 219 1025 
L 219 1388 
L 2225 4388 
L 2913 4388 
L 2913 1444 
L 3631 1444 
L 3631 1025 
z
M 2381 1444 
L 2381 3963 
L 788 1444 
L 2381 1444 
z
" transform="scale(0.015625)"/>
       </defs>
       <use xlink:href="#WenQuanYiZenHei-32"/>
       <use xlink:href="#WenQuanYiZenHei-30" x="59.960938"/>
       <use xlink:href="#WenQuanYiZenHei-32" x="119.921875"/>
       <use xlink:href="#WenQuanYiZenHei-30" x="179.882812"/>
       <use xlink:href="#WenQuanYiZenHei-2d" x="239.84375"/>
       <use xlink:href="#WenQuanYiZenHei-30" x="269.824219"/>
       <use xlink:href="#WenQuanYiZenHei-34" x="329.785156"/>
      </g>
     </g>
    </g>
    <g id="xtick_3">
     <g id="line2d_3">
      <g>
       <use xlink:href="#m35a226bc53" x="304.469075" y="367.761" style="stroke: #000000; stroke-width: 0.8"/>
      </g>
     </g>
     <g id="text_3">
      <!-- 2020-07 -->
      <g transform="translate(284.979231 381.61725)scale(0.1 -0.1)">
       <defs>
        <path id="WenQuanYiZenHei-37" d="M 3400 4056 
Q 1838 2175 1838 0 
L 1275 0 
Q 1269 1438 2056 2825 
Q 2381 3400 2825 3913 
L 444 3913 
L 500 4388 
L 3400 4388 
L 3400 4056 
z
" transform="scale(0.015625)"/>
       </defs>
       <use xlink:href="#WenQuanYiZenHei-32"/>
       <use xlink:href="#WenQuanYiZenHei-30" x="59.960938"/>
       <use xlink:href="#WenQuanYiZenHei-32" x="119.921875"/>
       <use xlink:href="#WenQuanYiZenHei-30" x="179.882812"/>
       <use xlink:href="#WenQuanYiZenHei-2d" x="239.84375"/>
       <use xlink:href="#WenQuanYiZenHei-30" x="269.824219"/>
       <use xlink:href="#WenQuanYiZenHei-37" x="329.785156"/>
      </g>
     </g>
    </g>
    <g id="xtick_4">
     <g id="line2d_4">
      <g>
       <use xlink:href="#m35a226bc53" x="429.475568" y="367.761" style="stroke: #000000; stroke-width: 0.8"/>
      </g>
     </g>
     <g id="text_4">
      <!-- 2020-10 -->
      <g transform="translate(409.985724 381.61725)scale(0.1 -0.1)">
       <use xlink:href="#WenQuanYiZenHei-32"/>
       <use xlink:href="#WenQuanYiZenHei-30" x="59.960938"/>
       <use xlink:href="#WenQuanYiZenHei-32" x="119.921875"/>
       <use xlink:href="#WenQuanYiZenHei-30" x="179.882812"/>
       <use xlink:href="#WenQuanYiZenHei-2d" x="239.84375"/>
       <use xlink:href="#WenQuanYiZenHei-31" x="269.824219"/>
       <use xlink:href="#WenQuanYiZenHei-30" x="329.785156"/>
      </g>
     </g>
    </g>
    <g id="xtick_5">
     <g id="line2d_5">
      <g>
       <use xlink:href="#m35a226bc53" x="554.482062" y="367.761" style="stroke: #000000; stroke-width: 0.8"/>
      </g>
     </g>
     <g id="text_5">
      <!-- 2021-01 -->
      <g transform="translate(534.992218 381.61725)scale(0.1 -0.1)">
       <use xlink:href="#WenQuanYiZenHei-32"/>
       <use xlink:href="#WenQuanYiZenHei-30" x="59.960938"/>
       <use xlink:href="#WenQuanYiZenHei-32" x="119.921875"/>
       <use xlink:href="#WenQuanYiZenHei-31" x="179.882812"/>
       <use xlink:href="#WenQuanYiZenHei-2d" x="239.84375"/>
       <use xlink:href="#WenQuanYiZenHei-30" x="269.824219"/>
       <use xlink:href="#WenQuanYiZenHei-31" x="329.785156"/>
      </g>
     </g>
    </g>
    <g id="xtick_6">
     <g id="line2d_6">
      <g>
       <use xlink:href="#m35a226bc53" x="676.771023" y="367.761" style="stroke: #000000; stroke-width: 0.8"/>
      </g>
     </g>
     <g id="text_6">
      <!-- 2021-04 -->
      <g transform="translate(657.281179 381.61725)scale(0.1 -0.1)">
       <use xlink:href="#WenQuanYiZenHei-32"/>
       <use xlink:href="#WenQuanYiZenHei-30" x="59.960938"/>
       <use xlink:href="#WenQuanYiZenHei-32" x="119.921875"/>
       <use xlink:href="#WenQuanYiZenHei-31" x="179.882812"/>
       <use xlink:href="#WenQuanYiZenHei-2d" x="239.84375"/>
       <use xlink:href="#WenQuanYiZenHei-30" x="269.824219"/>
       <use xlink:href="#WenQuanYiZenHei-34" x="329.785156"/>
      </g>
     </g>
    </g>
    <g id="xtick_7">
     <g id="line2d_7">
      <g>
       <use xlink:href="#m35a226bc53" x="800.41875" y="367.761" style="stroke: #000000; stroke-width: 0.8"/>
      </g>
     </g>
     <g id="text_7">
      <!-- 2021-07 -->
      <g transform="translate(780.928906 381.61725)scale(0.1 -0.1)">
       <use xlink:href="#WenQuanYiZenHei-32"/>
       <use xlink:href="#WenQuanYiZenHei-30" x="59.960938"/>
       <use xlink:href="#WenQuanYiZenHei-32" x="119.921875"/>
       <use xlink:href="#WenQuanYiZenHei-31" x="179.882812"/>
       <use xlink:href="#WenQuanYiZenHei-2d" x="239.84375"/>
       <use xlink:href="#WenQuanYiZenHei-30" x="269.824219"/>
       <use xlink:href="#WenQuanYiZenHei-37" x="329.785156"/>
      </g>
     </g>
    </g>
    <g id="xtick_8">
     <g id="line2d_8">
      <g>
       <use xlink:href="#m35a226bc53" x="925.425244" y="367.761" style="stroke: #000000; stroke-width: 0.8"/>
      </g>
     </g>
     <g id="text_8">
      <!-- 2021-10 -->
      <g transform="translate(905.9354 381.61725)scale(0.1 -0.1)">
       <use xlink:href="#WenQuanYiZenHei-32"/>
       <use xlink:href="#WenQuanYiZenHei-30" x="59.960938"/>
       <use xlink:href="#WenQuanYiZenHei-32" x="119.921875"/>
       <use xlink:href="#WenQuanYiZenHei-31" x="179.882812"/>
       <use xlink:href="#WenQuanYiZenHei-2d" x="239.84375"/>
       <use xlink:href="#WenQuanYiZenHei-31" x="269.824219"/>
       <use xlink:href="#WenQuanYiZenHei-30" x="329.785156"/>
      </g>
     </g>
    </g>
    <g id="xtick_9">
     <g id="line2d_9">
      <g>
       <use xlink:href="#m35a226bc53" x="1050.431737" y="367.761" style="stroke: #000000; stroke-width: 0.8"/>
      </g>
     </g>
     <g id="text_9">
      <!-- 2022-01 -->
      <g transform="translate(1030.941893 381.61725)scale(0.1 -0.1)">
       <use xlink:href="#WenQuanYiZenHei-32"/>
       <use xlink:href="#WenQuanYiZenHei-30" x="59.960938"/>
       <use xlink:href="#WenQuanYiZenHei-32" x="119.921875"/>
       <use xlink:href="#WenQuanYiZenHei-32" x="179.882812"/>
       <use xlink:href="#WenQuanYiZenHei-2d" x="239.84375"/>
       <use xlink:href="#WenQuanYiZenHei-30" x="269.824219"/>
       <use xlink:href="#WenQuanYiZenHei-31" x="329.785156"/>
      </g>
     </g>
    </g>
    <g id="xtick_10">
     <g id="line2d_10">
      <g>
       <use xlink:href="#m35a226bc53" x="1172.720698" y="367.761" style="stroke: #000000; stroke-width: 0.8"/>
      </g>
     </g>
     <g id="text_10">
      <!-- 2022-04 -->
      <g transform="translate(1153.230854 381.61725)scale(0.1 -0.1)">
       <use xlink:href="#WenQuanYiZenHei-32"/>
       <use xlink:href="#WenQuanYiZenHei-30" x="59.960938"/>
       <use xlink:href="#WenQuanYiZenHei-32" x="119.921875"/>
       <use xlink:href="#WenQuanYiZenHei-32" x="179.882812"/>
       <use xlink:href="#WenQuanYiZenHei-2d" x="239.84375"/>
       <use xlink:href="#WenQuanYiZenHei-30" x="269.824219"/>
       <use xlink:href="#WenQuanYiZenHei-34" x="329.785156"/>
      </g>
     </g>
    </g>
    <g id="xtick_11">
     <g id="line2d_11">
      <g>
       <use xlink:href="#m35a226bc53" x="1296.368425" y="367.761" style="stroke: #000000; stroke-width: 0.8"/>
      </g>
     </g>
     <g id="text_11">
      <!-- 2022-07 -->
      <g transform="translate(1276.878582 381.61725)scale(0.1 -0.1)">
       <use xlink:href="#WenQuanYiZenHei-32"/>
       <use xlink:href="#WenQuanYiZenHei-30" x="59.960938"/>
       <use xlink:href="#WenQuanYiZenHei-32" x="119.921875"/>
       <use xlink:href="#WenQuanYiZenHei-32" x="179.882812"/>
       <use xlink:href="#WenQuanYiZenHei-2d" x="239.84375"/>
       <use xlink:href="#WenQuanYiZenHei-30" x="269.824219"/>
       <use xlink:href="#WenQuanYiZenHei-37" x="329.785156"/>
      </g>
     </g>
    </g>
   </g>
   <g id="matplotlib.axis_2">
    <g id="ytick_1">
     <g id="line2d_12">
      <defs>
       <path id="m3b6b112cb2" d="M 0 0 
L -3.5 0 
" style="stroke: #000000; stroke-width: 0.8"/>
      </defs>
      <g>
       <use xlink:href="#m3b6b112cb2" x="26.19375" y="348.554514" style="stroke: #000000; stroke-width: 0.8"/>
      </g>
     </g>
     <g id="text_12">
      <!-- 0 -->
      <g transform="translate(13.196875 351.982639)scale(0.1 -0.1)">
       <use xlink:href="#WenQuanYiZenHei-30"/>
      </g>
     </g>
    </g>
    <g id="ytick_2">
     <g id="line2d_13">
      <g>
       <use xlink:href="#m3b6b112cb2" x="26.19375" y="307.689649" style="stroke: #000000; stroke-width: 0.8"/>
      </g>
     </g>
     <g id="text_13">
      <!-- 10 -->
      <g transform="translate(7.2 311.117774)scale(0.1 -0.1)">
       <use xlink:href="#WenQuanYiZenHei-31"/>
       <use xlink:href="#WenQuanYiZenHei-30" x="59.960938"/>
      </g>
     </g>
    </g>
    <g id="ytick_3">
     <g id="line2d_14">
      <g>
       <use xlink:href="#m3b6b112cb2" x="26.19375" y="266.824784" style="stroke: #000000; stroke-width: 0.8"/>
      </g>
     </g>
     <g id="text_14">
      <!-- 20 -->
      <g transform="translate(7.2 270.252909)scale(0.1 -0.1)">
       <use xlink:href="#WenQuanYiZenHei-32"/>
       <use xlink:href="#WenQuanYiZenHei-30" x="59.960938"/>
      </g>
     </g>
    </g>
    <g id="ytick_4">
     <g id="line2d_15">
      <g>
       <use xlink:href="#m3b6b112cb2" x="26.19375" y="225.959919" style="stroke: #000000; stroke-width: 0.8"/>
      </g>
     </g>
     <g id="text_15">
      <!-- 30 -->
      <g transform="translate(7.2 229.388044)scale(0.1 -0.1)">
       <defs>
        <path id="WenQuanYiZenHei-33" d="M 3588 1231 
Q 3588 494 2875 144 
Q 2450 -63 1925 -63 
Q 1044 -63 556 488 
Q 356 706 256 1000 
L 769 1169 
Q 994 375 1913 375 
Q 2631 375 2900 788 
Q 3019 975 3019 1231 
Q 3019 1638 2638 1881 
Q 2325 2081 1613 2069 
L 1338 2069 
L 1338 2494 
Q 1969 2494 2094 2506 
Q 2325 2544 2463 2613 
Q 2763 2756 2844 3100 
Q 2863 3169 2863 3244 
Q 2863 3744 2381 3944 
L 2163 4006 
Q 2056 4025 1931 4025 
Q 1388 4025 1075 3631 
Q 969 3488 906 3313 
L 419 3456 
Q 675 4150 1400 4369 
Q 1669 4456 1975 4456 
Q 2694 4456 3106 4050 
Q 3419 3744 3419 3275 
Q 3419 2813 3025 2513 
Q 2825 2356 2575 2319 
L 2575 2306 
Q 3181 2213 3450 1769 
Q 3588 1525 3588 1231 
z
" transform="scale(0.015625)"/>
       </defs>
       <use xlink:href="#WenQuanYiZenHei-33"/>
       <use xlink:href="#WenQuanYiZenHei-30" x="59.960938"/>
      </g>
     </g>
    </g>
    <g id="ytick_5">
     <g id="line2d_16">
      <g>
       <use xlink:href="#m3b6b112cb2" x="26.19375" y="185.095054" style="stroke: #000000; stroke-width: 0.8"/>
      </g>
     </g>
     <g id="text_16">
      <!-- 40 -->
      <g transform="translate(7.2 188.523179)scale(0.1 -0.1)">
       <use xlink:href="#WenQuanYiZenHei-34"/>
       <use xlink:href="#WenQuanYiZenHei-30" x="59.960938"/>
      </g>
     </g>
    </g>
    <g id="ytick_6">
     <g id="line2d_17">
      <g>
       <use xlink:href="#m3b6b112cb2" x="26.19375" y="144.230189" style="stroke: #000000; stroke-width: 0.8"/>
      </g>
     </g>
     <g id="text_17">
      <!-- 50 -->
      <g transform="translate(7.2 147.658314)scale(0.1 -0.1)">
       <defs>
        <path id="WenQuanYiZenHei-35" d="M 3531 1488 
Q 3531 688 2913 250 
Q 2456 -63 1844 -63 
Q 1175 -63 706 350 
Q 413 613 306 975 
L 781 1131 
Q 1000 538 1569 406 
Q 1706 369 1856 369 
Q 2550 369 2850 869 
Q 3000 1131 3000 1494 
Q 3000 2056 2581 2356 
Q 2319 2538 1969 2538 
Q 1400 2538 1031 2075 
Q 981 2013 938 1938 
L 500 2031 
L 644 4388 
L 3244 4388 
L 3200 3919 
L 1044 3919 
L 950 2500 
Q 1431 2975 2006 2975 
Q 2713 2975 3163 2475 
Q 3531 2063 3531 1488 
z
" transform="scale(0.015625)"/>
       </defs>
       <use xlink:href="#WenQuanYiZenHei-35"/>
       <use xlink:href="#WenQuanYiZenHei-30" x="59.960938"/>
      </g>
     </g>
    </g>
    <g id="ytick_7">
     <g id="line2d_18">
      <g>
       <use xlink:href="#m3b6b112cb2" x="26.19375" y="103.365324" style="stroke: #000000; stroke-width: 0.8"/>
      </g>
     </g>
     <g id="text_18">
      <!-- 60 -->
      <g transform="translate(7.2 106.793449)scale(0.1 -0.1)">
       <defs>
        <path id="WenQuanYiZenHei-36" d="M 3550 1431 
Q 3550 725 3006 288 
Q 2581 -63 1994 -63 
Q 1013 -63 563 825 
Q 288 1363 288 2081 
Q 288 3294 856 3938 
Q 1319 4456 2075 4456 
Q 2969 4456 3363 3756 
Q 3431 3631 3481 3481 
L 2988 3350 
Q 2750 3994 2075 4006 
Q 1056 4006 844 2669 
Q 794 2356 794 1981 
L 806 1981 
Q 1006 2506 1544 2744 
Q 1819 2869 2119 2869 
Q 2788 2869 3213 2375 
Q 3550 1975 3550 1431 
z
M 3038 1406 
Q 3038 1906 2656 2213 
Q 2381 2431 2038 2431 
Q 1525 2431 1181 2044 
Q 919 1744 919 1356 
Q 919 881 1344 581 
Q 1631 375 1981 375 
Q 2519 375 2838 781 
Q 3038 1050 3038 1406 
z
" transform="scale(0.015625)"/>
       </defs>
       <use xlink:href="#WenQuanYiZenHei-36"/>
       <use xlink:href="#WenQuanYiZenHei-30" x="59.960938"/>
      </g>
     </g>
    </g>
    <g id="ytick_8">
     <g id="line2d_19">
      <g>
       <use xlink:href="#m3b6b112cb2" x="26.19375" y="62.500459" style="stroke: #000000; stroke-width: 0.8"/>
      </g>
     </g>
     <g id="text_19">
      <!-- 70 -->
      <g transform="translate(7.2 65.928584)scale(0.1 -0.1)">
       <use xlink:href="#WenQuanYiZenHei-37"/>
       <use xlink:href="#WenQuanYiZenHei-30" x="59.960938"/>
      </g>
     </g>
    </g>
   </g>
   <g id="line2d_20">
    <path d="M 87.066477 344.468027 
L 88.425244 344.468027 
L 89.78401 295.430189 
L 91.142776 332.208568 
L 92.501542 324.035595 
L 93.860308 319.949108 
L 95.219075 328.122081 
L 96.577841 340.381541 
L 97.936607 319.949108 
L 99.295373 283.17073 
L 100.65414 324.035595 
L 102.012906 332.208568 
L 103.371672 319.949108 
L 104.730438 315.862622 
L 106.089205 328.122081 
L 107.447971 328.122081 
L 108.806737 324.035595 
L 110.165503 340.381541 
L 111.524269 344.468027 
L 114.241802 328.122081 
L 115.600568 344.468027 
L 116.959334 340.381541 
L 118.318101 348.554514 
L 119.676867 340.381541 
L 121.035633 348.554514 
L 137.340828 348.554514 
L 138.699594 344.468027 
L 140.05836 348.554514 
L 141.417127 336.295054 
L 142.775893 348.554514 
L 163.157386 348.554514 
L 164.516153 344.468027 
L 165.874919 348.554514 
L 167.233685 344.468027 
L 168.592451 348.554514 
L 171.309984 348.554514 
L 172.66875 344.468027 
L 174.027516 348.554514 
L 175.386282 332.208568 
L 176.745049 340.381541 
L 178.103815 340.381541 
L 179.462581 336.295054 
L 180.821347 344.468027 
L 182.180114 344.468027 
L 183.53888 348.554514 
L 184.897646 348.554514 
L 186.256412 344.468027 
L 187.615179 348.554514 
L 188.973945 340.381541 
L 190.332711 348.554514 
L 193.050244 348.554514 
L 194.40901 344.468027 
L 195.767776 348.554514 
L 201.202841 348.554514 
L 202.561607 344.468027 
L 203.920373 348.554514 
L 232.454464 348.554514 
L 233.813231 344.468027 
L 235.171997 348.554514 
L 236.530763 348.554514 
L 237.889529 340.381541 
L 239.248295 348.554514 
L 278.652516 348.554514 
L 280.011282 340.381541 
L 281.370049 348.554514 
L 282.728815 344.468027 
L 284.087581 348.554514 
L 285.446347 348.554514 
L 286.805114 344.468027 
L 288.16388 348.554514 
L 289.522646 348.554514 
L 290.881412 344.468027 
L 292.240179 348.554514 
L 299.03401 348.554514 
L 300.392776 344.468027 
L 301.751542 348.554514 
L 304.469075 348.554514 
L 305.827841 344.468027 
L 307.186607 348.554514 
L 308.545373 348.554514 
L 309.90414 344.468027 
L 311.262906 348.554514 
L 312.621672 340.381541 
L 313.980438 336.295054 
L 315.339205 348.554514 
L 316.697971 348.554514 
L 318.056737 340.381541 
L 319.415503 348.554514 
L 331.644399 348.554514 
L 334.361932 340.381541 
L 335.720698 311.776135 
L 337.079464 295.430189 
L 338.438231 291.343703 
L 339.796997 324.035595 
L 341.155763 315.862622 
L 342.514529 328.122081 
L 343.873295 303.603162 
L 345.232062 315.862622 
L 346.590828 336.295054 
L 347.949594 311.776135 
L 349.30836 340.381541 
L 350.667127 348.554514 
L 352.025893 336.295054 
L 353.384659 344.468027 
L 354.743425 348.554514 
L 356.102192 348.554514 
L 357.460958 340.381541 
L 358.819724 348.554514 
L 376.483685 348.554514 
L 377.842451 344.468027 
L 379.201218 348.554514 
L 388.712581 348.554514 
L 390.071347 344.468027 
L 391.430114 348.554514 
L 399.582711 348.554514 
L 400.941477 344.468027 
L 402.300244 348.554514 
L 410.452841 348.554514 
L 411.811607 344.468027 
L 413.170373 348.554514 
L 417.246672 348.554514 
L 418.605438 340.381541 
L 419.964205 348.554514 
L 421.322971 348.554514 
L 422.681737 332.208568 
L 424.040503 348.554514 
L 437.628166 348.554514 
L 438.986932 340.381541 
L 440.345698 340.381541 
L 441.704464 344.468027 
L 443.063231 332.208568 
L 444.421997 348.554514 
L 459.368425 348.554514 
L 460.727192 336.295054 
L 462.085958 348.554514 
L 475.67362 348.554514 
L 477.032386 344.468027 
L 478.391153 348.554514 
L 479.749919 348.554514 
L 481.108685 344.468027 
L 482.467451 348.554514 
L 483.826218 344.468027 
L 485.184984 348.554514 
L 486.54375 348.554514 
L 487.902516 340.381541 
L 489.261282 348.554514 
L 491.978815 348.554514 
L 493.337581 344.468027 
L 494.696347 348.554514 
L 534.100568 348.554514 
L 535.459334 344.468027 
L 538.176867 344.468027 
L 539.535633 340.381541 
L 540.894399 344.468027 
L 542.253166 319.949108 
L 543.611932 315.862622 
L 544.970698 324.035595 
L 546.329464 319.949108 
L 547.688231 324.035595 
L 549.046997 315.862622 
L 550.405763 328.122081 
L 551.764529 328.122081 
L 553.123295 332.208568 
L 554.482062 315.862622 
L 555.840828 336.295054 
L 557.199594 319.949108 
L 558.55836 336.295054 
L 559.917127 344.468027 
L 561.275893 344.468027 
L 562.634659 336.295054 
L 563.993425 319.949108 
L 565.352192 336.295054 
L 566.710958 324.035595 
L 569.42849 348.554514 
L 583.016153 348.554514 
L 584.374919 344.468027 
L 585.733685 348.554514 
L 592.527516 348.554514 
L 593.886282 336.295054 
L 595.245049 348.554514 
L 596.603815 340.381541 
L 597.962581 348.554514 
L 608.832711 348.554514 
L 610.191477 344.468027 
L 611.550244 344.468027 
L 612.90901 348.554514 
L 619.702841 348.554514 
L 621.061607 344.468027 
L 622.420373 344.468027 
L 623.77914 348.554514 
L 660.465828 348.554514 
L 661.824594 344.468027 
L 663.18336 348.554514 
L 686.282386 348.554514 
L 687.641153 344.468027 
L 688.999919 348.554514 
L 733.839205 348.554514 
L 735.197971 336.295054 
L 736.556737 332.208568 
L 737.915503 336.295054 
L 739.274269 332.208568 
L 740.633036 348.554514 
L 741.991802 344.468027 
L 743.350568 348.554514 
L 744.709334 344.468027 
L 746.068101 344.468027 
L 747.426867 348.554514 
L 765.090828 348.554514 
L 766.449594 344.468027 
L 767.80836 348.554514 
L 788.189854 348.554514 
L 789.54862 344.468027 
L 790.907386 348.554514 
L 799.059984 348.554514 
L 800.41875 344.468027 
L 801.777516 348.554514 
L 803.136282 344.468027 
L 804.495049 348.554514 
L 805.853815 344.468027 
L 807.212581 348.554514 
L 815.365179 348.554514 
L 816.723945 344.468027 
L 818.082711 348.554514 
L 830.311607 348.554514 
L 831.670373 344.468027 
L 833.02914 344.468027 
L 834.387906 348.554514 
L 835.746672 340.381541 
L 837.105438 348.554514 
L 838.464205 344.468027 
L 839.822971 344.468027 
L 841.181737 348.554514 
L 843.899269 348.554514 
L 845.258036 344.468027 
L 846.616802 348.554514 
L 856.128166 348.554514 
L 857.486932 344.468027 
L 858.845698 344.468027 
L 860.204464 348.554514 
L 861.563231 344.468027 
L 862.921997 348.554514 
L 865.639529 348.554514 
L 866.998295 340.381541 
L 868.357062 348.554514 
L 873.792127 348.554514 
L 875.150893 344.468027 
L 877.868425 344.468027 
L 879.227192 348.554514 
L 890.097321 348.554514 
L 891.456088 340.381541 
L 892.814854 348.554514 
L 896.891153 348.554514 
L 898.249919 344.468027 
L 899.608685 348.554514 
L 905.04375 348.554514 
L 906.402516 344.468027 
L 907.761282 348.554514 
L 911.837581 348.554514 
L 913.196347 344.468027 
L 914.555114 348.554514 
L 915.91388 344.468027 
L 917.272646 348.554514 
L 918.631412 344.468027 
L 919.990179 348.554514 
L 921.348945 348.554514 
L 922.707711 340.381541 
L 924.066477 348.554514 
L 925.425244 344.468027 
L 926.78401 344.468027 
L 928.142776 348.554514 
L 933.577841 348.554514 
L 934.936607 340.381541 
L 937.65414 348.554514 
L 939.012906 344.468027 
L 940.371672 348.554514 
L 941.730438 344.468027 
L 943.089205 348.554514 
L 944.447971 348.554514 
L 945.806737 344.468027 
L 947.165503 348.554514 
L 951.241802 348.554514 
L 952.600568 344.468027 
L 953.959334 344.468027 
L 955.318101 348.554514 
L 958.035633 348.554514 
L 959.394399 344.468027 
L 960.753166 348.554514 
L 967.546997 348.554514 
L 968.905763 344.468027 
L 970.264529 348.554514 
L 971.623295 311.776135 
L 972.982062 336.295054 
L 974.340828 303.603162 
L 975.699594 266.824784 
L 977.05836 328.122081 
L 978.417127 274.997757 
L 979.775893 262.738297 
L 981.134659 136.057216 
L 982.493425 185.095054 
L 983.852192 99.278838 
L 985.210958 246.392351 
L 986.569724 319.949108 
L 987.92849 315.862622 
L 989.287256 328.122081 
L 990.646023 315.862622 
L 992.004789 340.381541 
L 993.363555 336.295054 
L 994.722321 324.035595 
L 996.081088 332.208568 
L 997.439854 336.295054 
L 998.79862 348.554514 
L 1000.157386 344.468027 
L 1001.516153 332.208568 
L 1002.874919 344.468027 
L 1004.233685 348.554514 
L 1011.027516 348.554514 
L 1012.386282 340.381541 
L 1013.745049 348.554514 
L 1017.821347 348.554514 
L 1019.180114 344.468027 
L 1020.53888 348.554514 
L 1021.897646 344.468027 
L 1023.256412 348.554514 
L 1030.050244 348.554514 
L 1031.40901 336.295054 
L 1032.767776 344.468027 
L 1034.126542 348.554514 
L 1036.844075 348.554514 
L 1038.202841 344.468027 
L 1039.561607 348.554514 
L 1046.355438 348.554514 
L 1047.714205 344.468027 
L 1050.431737 344.468027 
L 1051.790503 348.554514 
L 1055.866802 348.554514 
L 1057.225568 340.381541 
L 1058.584334 344.468027 
L 1059.943101 344.468027 
L 1061.301867 340.381541 
L 1062.660633 348.554514 
L 1065.378166 348.554514 
L 1066.736932 336.295054 
L 1068.095698 344.468027 
L 1069.454464 340.381541 
L 1070.813231 344.468027 
L 1072.171997 344.468027 
L 1073.530763 348.554514 
L 1081.68336 348.554514 
L 1083.042127 344.468027 
L 1084.400893 348.554514 
L 1085.759659 348.554514 
L 1087.118425 344.468027 
L 1088.477192 348.554514 
L 1100.706088 348.554514 
L 1102.064854 340.381541 
L 1103.42362 352.641 
L 1104.782386 258.651811 
L 1106.141153 299.516676 
L 1107.499919 303.603162 
L 1110.217451 230.046405 
L 1111.576218 283.17073 
L 1112.934984 319.949108 
L 1115.652516 303.603162 
L 1117.011282 307.689649 
L 1118.370049 319.949108 
L 1119.728815 324.035595 
L 1121.087581 311.776135 
L 1122.446347 315.862622 
L 1123.805114 274.997757 
L 1125.16388 307.689649 
L 1126.522646 315.862622 
L 1127.881412 344.468027 
L 1129.240179 348.554514 
L 1130.598945 340.381541 
L 1131.957711 348.554514 
L 1133.316477 348.554514 
L 1134.675244 340.381541 
L 1136.03401 348.554514 
L 1137.392776 348.554514 
L 1138.751542 332.208568 
L 1140.110308 344.468027 
L 1141.469075 332.208568 
L 1142.827841 332.208568 
L 1144.186607 336.295054 
L 1145.545373 328.122081 
L 1146.90414 311.776135 
L 1148.262906 246.392351 
L 1149.621672 209.613973 
L 1150.980438 78.846405 
L 1152.339205 156.489649 
L 1153.697971 50.241 
L 1155.056737 189.181541 
L 1156.415503 205.527486 
L 1157.774269 70.673432 
L 1159.133036 201.441 
L 1160.491802 311.776135 
L 1161.850568 311.776135 
L 1163.209334 291.343703 
L 1164.568101 234.132892 
L 1165.926867 299.516676 
L 1167.285633 307.689649 
L 1168.644399 328.122081 
L 1170.003166 311.776135 
L 1171.361932 340.381541 
L 1172.720698 328.122081 
L 1174.079464 340.381541 
L 1175.438231 348.554514 
L 1176.796997 336.295054 
L 1178.155763 319.949108 
L 1179.514529 340.381541 
L 1182.232062 348.554514 
L 1183.590828 340.381541 
L 1184.949594 344.468027 
L 1191.743425 344.468027 
L 1193.102192 340.381541 
L 1194.460958 348.554514 
L 1195.819724 344.468027 
L 1197.17849 348.554514 
L 1201.254789 348.554514 
L 1202.613555 344.468027 
L 1203.972321 336.295054 
L 1205.331088 246.392351 
L 1206.689854 348.554514 
L 1208.04862 344.468027 
L 1210.766153 344.468027 
L 1212.124919 348.554514 
L 1213.483685 344.468027 
L 1214.842451 328.122081 
L 1216.201218 348.554514 
L 1217.559984 340.381541 
L 1218.91875 340.381541 
L 1221.636282 348.554514 
L 1222.995049 348.554514 
L 1224.353815 340.381541 
L 1225.712581 328.122081 
L 1227.071347 340.381541 
L 1228.430114 348.554514 
L 1229.78888 340.381541 
L 1231.147646 340.381541 
L 1233.865179 348.554514 
L 1236.582711 348.554514 
L 1237.941477 344.468027 
L 1239.300244 348.554514 
L 1240.65901 348.554514 
L 1242.017776 344.468027 
L 1243.376542 344.468027 
L 1244.735308 348.554514 
L 1247.452841 348.554514 
L 1248.811607 340.381541 
L 1250.170373 348.554514 
L 1261.040503 348.554514 
L 1262.399269 295.430189 
L 1263.758036 348.554514 
L 1265.116802 303.603162 
L 1266.475568 340.381541 
L 1267.834334 336.295054 
L 1269.193101 348.554514 
L 1271.910633 348.554514 
L 1273.269399 340.381541 
L 1275.986932 332.208568 
L 1277.345698 332.208568 
L 1278.704464 344.468027 
L 1280.063231 348.554514 
L 1286.857062 348.554514 
L 1286.857062 348.554514 
" clip-path="url(#p3569de718e)" style="fill: none; stroke: #0000ff; stroke-width: 1.5; stroke-linecap: square"/>
   </g>
   <g id="line2d_21">
    <path d="M 1047.714205 345.783001 
L 1049.072971 344.891494 
L 1050.431737 344.604398 
L 1051.790503 347.28244 
L 1053.149269 348.144862 
L 1054.508036 348.422592 
L 1055.866802 348.51203 
L 1057.225568 342.999839 
L 1058.584334 343.99522 
L 1059.943101 344.315767 
L 1061.301867 341.648497 
L 1062.660633 346.330538 
L 1064.019399 347.838317 
L 1065.378166 348.323873 
L 1066.736932 340.168749 
L 1068.095698 343.083511 
L 1069.454464 341.251668 
L 1070.813231 343.432249 
L 1072.171997 344.134471 
L 1073.530763 347.131107 
L 1074.889529 348.096128 
L 1076.248295 348.406897 
L 1078.965828 348.539205 
L 1081.68336 348.552926 
L 1083.042127 345.783505 
L 1084.400893 347.662153 
L 1085.759659 348.267143 
L 1087.118425 345.691473 
L 1088.477192 347.632516 
L 1089.835958 348.257598 
L 1091.194724 348.458897 
L 1095.271023 348.55132 
L 1100.706088 348.554479 
L 1102.064854 343.013509 
L 1103.42362 349.540616 
L 1104.782386 287.921142 
L 1106.141153 295.782514 
L 1107.499919 301.084644 
L 1108.858685 277.857641 
L 1110.217451 245.443273 
L 1111.576218 271.021187 
L 1112.934984 304.192629 
L 1114.29375 309.333984 
L 1115.652516 305.448685 
L 1117.011282 306.967981 
L 1118.370049 315.768737 
L 1119.728815 321.373381 
L 1121.087581 314.86678 
L 1122.446347 315.541926 
L 1123.805114 288.054378 
L 1125.16388 301.366414 
L 1126.522646 311.194343 
L 1127.881412 333.752752 
L 1129.240179 343.787836 
L 1130.598945 341.478485 
L 1131.957711 346.275788 
L 1133.316477 347.820685 
L 1134.675244 342.777202 
L 1136.03401 346.69402 
L 1137.392776 347.95537 
L 1138.751542 337.279581 
L 1140.110308 342.153099 
L 1141.469075 335.41105 
L 1142.827841 333.239877 
L 1144.186607 335.311182 
L 1145.545373 330.43722 
L 1146.90414 317.785648 
L 1148.262906 269.383457 
L 1149.621672 228.861809 
L 1150.980438 127.156542 
L 1152.339205 147.043376 
L 1153.697971 81.414706 
L 1155.056737 154.476901 
L 1156.415503 189.087436 
L 1157.774269 108.806828 
L 1159.133036 171.6096 
L 1160.491802 266.637674 
L 1161.850568 297.239993 
L 1163.209334 293.242512 
L 1164.568101 253.168229 
L 1165.926867 284.590876 
L 1167.285633 300.251047 
L 1168.644399 319.146646 
L 1170.003166 314.149694 
L 1171.361932 331.933981 
L 1172.720698 329.349644 
L 1175.438231 344.778458 
L 1176.796997 339.027003 
L 1178.155763 326.092849 
L 1179.514529 335.780089 
L 1180.873295 341.670211 
L 1182.232062 346.337531 
L 1183.590828 342.299575 
L 1184.949594 343.769711 
L 1186.30836 344.243145 
L 1189.025893 344.444705 
L 1191.743425 344.465608 
L 1193.102192 341.696751 
L 1194.460958 346.346077 
L 1195.819724 345.072824 
L 1197.17849 347.433289 
L 1198.537256 348.193441 
L 1199.896023 348.438236 
L 1201.254789 348.517068 
L 1202.613555 345.771958 
L 1203.972321 339.346944 
L 1205.331088 276.326938 
L 1206.689854 325.294742 
L 1208.04862 338.293567 
L 1209.407386 342.479638 
L 1210.766153 343.827697 
L 1212.124919 347.032316 
L 1213.483685 345.293816 
L 1214.842451 333.651972 
L 1216.201218 343.755381 
L 1217.559984 341.468034 
L 1218.91875 340.731429 
L 1220.277516 343.264713 
L 1221.636282 346.851015 
L 1222.995049 348.005928 
L 1224.353815 342.836857 
L 1225.712581 332.860747 
L 1227.071347 337.959585 
L 1228.430114 345.142581 
L 1229.78888 341.91476 
L 1231.147646 340.87529 
L 1232.506412 343.311042 
L 1233.865179 346.865935 
L 1235.223945 348.010733 
L 1236.582711 348.379397 
L 1237.941477 345.727623 
L 1239.300244 347.644157 
L 1240.65901 348.261347 
L 1242.017776 345.689607 
L 1243.376542 344.861418 
L 1244.735308 347.365209 
L 1246.094075 348.171517 
L 1247.452841 348.431175 
L 1248.811607 342.973801 
L 1250.170373 346.757331 
L 1251.52914 347.975759 
L 1252.887906 348.368135 
L 1255.605438 348.535185 
L 1261.040503 348.554306 
L 1262.399269 312.537988 
L 1263.758036 336.955949 
L 1265.116802 314.343911 
L 1266.475568 331.996525 
L 1267.834334 334.910779 
L 1269.193101 344.16076 
L 1270.551867 347.139573 
L 1271.910633 348.098854 
L 1273.269399 342.866782 
L 1275.986932 334.206086 
L 1277.345698 332.851838 
L 1278.704464 340.727213 
L 1280.063231 346.033853 
L 1281.421997 347.742774 
L 1282.780763 348.293105 
L 1284.139529 348.470331 
L 1286.857062 348.545783 
L 1286.857062 348.545783 
" clip-path="url(#p3569de718e)" style="fill: none; stroke: #ffa500; stroke-width: 1.5; stroke-linecap: square"/>
   </g>
   <g id="line2d_22">
    <path d="M 1286.857062 348.545783 
L 1288.215828 348.545783 
L 1289.574594 348.545783 
L 1290.93336 348.545783 
L 1292.292127 348.545783 
L 1293.650893 348.545783 
L 1295.009659 348.545783 
L 1296.368425 348.545783 
L 1297.727192 348.545783 
L 1299.085958 348.545783 
L 1300.444724 348.545783 
L 1301.80349 348.545783 
L 1303.162256 348.545783 
L 1304.521023 348.545783 
" clip-path="url(#p3569de718e)" style="fill: none; stroke: #ff0000; stroke-width: 1.5; stroke-linecap: square"/>
   </g>
   <g id="patch_3">
    <path d="M 26.19375 367.761 
L 26.19375 35.121 
" style="fill: none; stroke: #000000; stroke-width: 0.8; stroke-linejoin: miter; stroke-linecap: square"/>
   </g>
   <g id="patch_4">
    <path d="M 1365.39375 367.761 
L 1365.39375 35.121 
" style="fill: none; stroke: #000000; stroke-width: 0.8; stroke-linejoin: miter; stroke-linecap: square"/>
   </g>
   <g id="patch_5">
    <path d="M 26.19375 367.761 
L 1365.39375 367.761 
" style="fill: none; stroke: #000000; stroke-width: 0.8; stroke-linejoin: miter; stroke-linecap: square"/>
   </g>
   <g id="patch_6">
    <path d="M 26.19375 35.121 
L 1365.39375 35.121 
" style="fill: none; stroke: #000000; stroke-width: 0.8; stroke-linejoin: miter; stroke-linecap: square"/>
   </g>
   <g id="text_20">
    <!-- 每日新增预测 - 辽宁 -->
    <g transform="translate(642.396563 17.101875)scale(0.12 -0.12)">
     <defs>
      <path id="WenQuanYiZenHei-6bcf" d="M 6138 2181 
Q 6113 1988 6138 1800 
Q 5788 1819 5438 1819 
L 4975 1819 
L 4863 738 
L 5806 738 
L 5806 394 
L 4831 394 
L 4775 -144 
Q 4719 -563 4350 -725 
Q 4013 -856 3550 -825 
L 3288 -819 
Q 3331 -663 3275 -519 
Q 3219 -375 3113 -288 
Q 3381 -313 3759 -303 
Q 4138 -294 4231 -238 
Q 4338 -163 4350 88 
L 4381 394 
L 1025 394 
L 1244 1819 
L 813 1819 
Q 463 1819 113 1800 
Q 138 1988 113 2181 
Q 463 2163 813 2163 
L 1294 2163 
L 1488 3431 
L 1488 3581 
L 1506 3581 
L 1513 3613 
L 1713 3581 
L 5156 3581 
L 5013 2163 
L 5438 2163 
Q 5788 2163 6138 2181 
z
M 5588 4463 
Q 5569 4269 5588 4081 
Q 5244 4100 4894 4100 
L 1813 4100 
Q 1344 3463 606 2788 
Q 481 2988 256 3069 
Q 744 3494 1116 3972 
Q 1488 4450 1919 5181 
Q 2119 5044 2344 4950 
Q 2213 4688 2050 4444 
L 4894 4444 
Q 5238 4444 5588 4463 
z
M 2844 3238 
L 1906 3238 
L 1744 2163 
L 3244 2163 
L 2581 3038 
L 2844 3238 
z
M 3250 2163 
L 4563 2163 
L 4669 3238 
L 3044 3238 
L 3638 2456 
L 3250 2163 
z
M 2944 1819 
Q 3275 1394 3550 938 
L 3213 738 
L 4419 738 
L 4525 1819 
L 2944 1819 
z
M 2656 1819 
L 1694 1819 
L 1525 738 
L 3094 738 
Q 2806 1219 2450 1650 
L 2656 1819 
z
" transform="scale(0.015625)"/>
      <path id="WenQuanYiZenHei-65e5" d="M 1494 -775 
Q 1244 -750 988 -775 
Q 1013 -313 1013 156 
L 1013 4875 
L 5269 4875 
L 5269 -763 
L 4813 -763 
L 4813 156 
L 1469 156 
Q 1469 -313 1494 -775 
z
M 4813 2700 
L 4813 4500 
L 1469 4500 
L 1469 2700 
L 4813 2700 
z
M 4813 531 
L 4813 2325 
L 1469 2325 
L 1469 531 
L 4813 531 
z
" transform="scale(0.015625)"/>
      <path id="WenQuanYiZenHei-65b0" d="M 5419 -763 
Q 5188 -738 4963 -763 
Q 4981 -344 4981 75 
L 4981 2819 
L 4188 2819 
L 4188 1706 
Q 4188 63 3163 -738 
Q 3019 -519 2769 -469 
Q 3769 131 3769 1706 
L 3769 4769 
L 3875 4769 
L 3844 4831 
L 4294 4781 
Q 4438 4769 4894 4816 
Q 5350 4863 5512 4931 
Q 5675 5000 5763 5094 
Q 5850 4881 5981 4694 
Q 5713 4544 5263 4519 
L 4188 4438 
L 4188 3100 
L 5563 3100 
Q 5850 3100 6131 3113 
Q 6119 2956 6131 2806 
L 5394 2819 
L 5394 75 
Q 5394 -344 5419 -763 
z
M 2981 213 
Q 2656 744 2256 1225 
L 2606 1513 
Q 3025 1006 3369 450 
L 2981 213 
z
M 1169 1525 
Q 1375 1419 1594 1363 
Q 1281 488 469 -469 
Q 331 -300 119 -244 
Q 575 263 888 900 
Q 1038 1206 1169 1525 
z
M 1825 6 
L 1825 1769 
L 1081 1769 
Q 794 1769 513 1756 
Q 525 1913 513 2063 
Q 794 2050 1081 2050 
L 1825 2050 
L 1825 2775 
L 994 2775 
Q 706 2775 425 2763 
Q 438 2919 425 3075 
Q 706 3056 994 3056 
L 1825 3056 
L 1825 3088 
L 1906 3088 
Q 2288 3656 2588 4381 
Q 2794 4269 3013 4206 
Q 2800 3675 2381 3056 
L 3013 3056 
Q 3294 3056 3581 3075 
Q 3563 2919 3581 2763 
Q 3294 2775 3013 2775 
L 2238 2775 
L 2238 2050 
L 2925 2050 
Q 3206 2050 3494 2063 
Q 3475 1913 3494 1756 
Q 3206 1769 2925 1769 
L 2238 1769 
L 2238 -156 
Q 2238 -413 2075 -581 
Q 1844 -794 1306 -794 
Q 1363 -519 1188 -288 
Q 1338 -313 1534 -316 
Q 1731 -319 1778 -278 
Q 1825 -238 1825 6 
z
M 1875 3388 
L 1500 3131 
L 825 4088 
L 1200 4350 
L 1875 3388 
z
M 3419 4713 
Q 3400 4563 3419 4406 
Q 3131 4419 2850 4419 
L 1125 4419 
Q 838 4419 556 4406 
Q 569 4563 556 4713 
Q 838 4700 1125 4700 
L 1763 4700 
L 1388 5088 
L 1719 5406 
L 2288 4813 
L 2175 4700 
L 2850 4700 
Q 3131 4700 3419 4713 
z
" transform="scale(0.015625)"/>
      <path id="WenQuanYiZenHei-589e" d="M 3138 -769 
Q 2913 -744 2688 -769 
Q 2706 -356 2706 56 
L 2706 1719 
L 5706 1719 
L 5706 -756 
L 5300 -756 
L 5300 -338 
L 3119 -338 
Q 3125 -550 3138 -769 
z
M 5113 3569 
Q 5344 3606 5563 3688 
Q 5669 3175 5256 2694 
Q 5113 2519 4975 2506 
Q 4831 2725 4588 2813 
Q 4806 2831 4997 3068 
Q 5188 3306 5113 3569 
z
M 3850 2763 
L 3469 2538 
L 2925 3456 
L 3313 3681 
L 3850 2763 
z
M 2400 2100 
Q 2469 3138 2400 4175 
L 3413 4175 
Q 3138 4550 2825 4888 
L 3156 5194 
Q 3581 4725 3938 4206 
L 3900 4175 
L 4456 4175 
Q 4863 4575 5131 5163 
Q 5325 5044 5538 4975 
Q 5369 4575 5013 4175 
L 6056 4175 
Q 5981 3138 6056 2100 
L 2400 2100 
z
M 5300 806 
L 5300 1450 
L 3113 1450 
Q 3113 1125 3113 806 
L 5300 806 
z
M 5300 563 
L 3113 563 
L 3113 -94 
L 5300 -94 
L 5300 563 
z
M 4431 3913 
L 4431 2363 
L 5650 2363 
L 5650 3913 
L 4756 3913 
L 4700 3856 
Q 4681 3888 4656 3913 
L 4431 3913 
z
M 4025 3913 
L 2806 3913 
L 2806 2363 
L 4025 2363 
L 4025 3913 
z
M -31 625 
Q 506 763 1006 975 
L 1006 3206 
L 669 3206 
Q 369 3206 75 3188 
Q 94 3356 75 3531 
Q 369 3513 669 3513 
L 1006 3513 
L 1006 4263 
Q 1006 4700 981 5131 
Q 1206 5106 1431 5131 
Q 1413 4700 1413 4263 
L 1413 3513 
L 2238 3531 
Q 2219 3356 2238 3188 
L 1413 3206 
L 1413 1163 
L 2150 1531 
L 2194 1256 
Q 1269 775 813 519 
L 194 144 
Q 138 438 -31 625 
z
" transform="scale(0.015625)"/>
      <path id="WenQuanYiZenHei-9884" d="M 1206 19 
L 1206 2888 
L 669 2888 
Q 356 2888 50 2869 
Q 63 3044 50 3213 
Q 363 3194 669 3194 
L 1250 3194 
Q 950 3631 606 4031 
L 963 4338 
L 1263 3975 
L 1913 4719 
L 731 4719 
Q 419 4719 106 4706 
Q 125 4875 106 5044 
Q 419 5031 731 5031 
L 2481 5031 
L 2544 4663 
Q 2394 4613 2256 4466 
Q 2119 4319 1525 3631 
Q 1656 3444 1788 3250 
L 1700 3194 
L 2700 3194 
L 2763 2825 
Q 2656 2819 2613 2763 
L 2100 2038 
L 1750 2288 
L 2175 2888 
L 1638 2888 
L 1638 -150 
Q 1638 -525 1363 -669 
Q 1075 -819 525 -813 
Q 594 -513 388 -294 
Q 575 -313 837 -316 
Q 1100 -319 1153 -272 
Q 1206 -225 1206 19 
z
M 5813 -888 
Q 5100 -225 4306 375 
L 4669 719 
Q 5481 106 6219 -575 
L 5813 -888 
z
M 2375 -906 
Q 2294 -631 2025 -506 
Q 2769 -431 3353 19 
Q 3938 469 3938 1069 
L 3938 2200 
Q 3938 2625 3913 3050 
Q 4188 3025 4456 3050 
Q 4431 2625 4431 2200 
L 4431 1069 
Q 4431 681 4225 319 
Q 3644 -606 2375 -906 
z
M 3444 488 
Q 3169 513 2894 488 
Q 2919 913 2919 1338 
L 2919 3675 
Q 3219 3675 3525 3675 
Q 3750 4013 3931 4525 
L 3238 4525 
Q 2888 4525 2538 4513 
Q 2556 4669 2538 4831 
Q 2888 4813 3238 4813 
L 5313 4813 
Q 5663 4813 6006 4831 
Q 5988 4669 6006 4513 
Q 5663 4525 5313 4525 
L 4481 4525 
Q 4388 4088 4088 3675 
L 5644 3675 
L 5644 513 
L 5144 513 
L 5144 3388 
L 3894 3388 
L 3875 3363 
Q 3863 3375 3844 3388 
Q 3631 3388 3413 3388 
L 3419 1338 
Q 3419 913 3444 488 
z
" transform="scale(0.015625)"/>
      <path id="WenQuanYiZenHei-6d4b" d="M 5450 138 
L 5450 4306 
Q 5450 4750 5425 5188 
Q 5663 5163 5906 5188 
Q 5881 4750 5881 4306 
L 5881 -38 
Q 5888 -569 5519 -719 
Q 5194 -831 4825 -813 
Q 4894 -519 4694 -281 
Q 4869 -306 5094 -309 
Q 5319 -313 5384 -256 
Q 5450 -200 5450 138 
z
M 4900 938 
Q 4663 963 4419 938 
Q 4444 1375 4444 1819 
L 4444 3381 
Q 4444 3819 4419 4263 
Q 4663 4238 4900 4263 
Q 4875 3819 4875 3381 
L 4875 1819 
Q 4875 1375 4900 938 
z
M 2750 2025 
L 2750 3038 
Q 2750 3481 2725 3919 
Q 2963 3894 3206 3919 
Q 3181 3481 3181 3038 
L 3181 2025 
Q 3181 1263 2919 625 
L 3231 956 
Q 3781 431 4256 -150 
L 3888 -456 
Q 3431 106 2906 600 
Q 2531 -288 1738 -769 
Q 1606 -519 1338 -450 
Q 1988 -156 2369 478 
Q 2750 1113 2750 2025 
z
M 2363 969 
Q 2119 994 1881 969 
Q 1906 1406 1906 1850 
L 1906 5038 
L 3956 5031 
L 3956 1200 
L 3525 1200 
L 3525 4713 
L 2338 4713 
L 2338 1850 
Q 2338 1406 2363 969 
z
M 663 -738 
Q 481 -588 206 -575 
Q 400 -69 606 581 
Q 813 1231 1200 2838 
L 1381 2706 
L 875 338 
L 663 -738 
z
M 1006 2856 
L 731 2550 
L 75 3400 
L 350 3713 
L 1006 2856 
z
M 1088 3913 
Q 781 4388 425 4800 
L 694 5125 
Q 1069 4688 1388 4188 
L 1088 3913 
z
" transform="scale(0.015625)"/>
      <path id="WenQuanYiZenHei-20" transform="scale(0.015625)"/>
      <path id="WenQuanYiZenHei-8fbd" d="M 3756 881 
L 3756 4056 
L 4738 4825 
L 2844 4825 
Q 2463 4825 2081 4806 
Q 2106 5013 2081 5219 
Q 2463 5200 2844 5200 
L 5538 5200 
L 5581 4781 
Q 5381 4738 5219 4619 
L 4219 3831 
L 4219 713 
Q 4219 113 3438 25 
L 3231 13 
Q 3294 344 3081 613 
Q 3219 569 3375 550 
Q 3663 544 3709 584 
Q 3756 625 3756 881 
z
M 131 2781 
Q 156 2988 131 3194 
Q 513 3175 894 3175 
L 1531 3175 
L 1531 513 
Q 2000 75 2419 -75 
Q 2838 -225 3569 -225 
L 6031 -244 
Q 5781 -425 5800 -725 
L 3569 -731 
Q 2613 -725 2013 -375 
Q 1550 -113 1275 269 
L 481 -644 
Q 319 -450 125 -288 
L 344 -100 
L 1075 544 
L 1075 2800 
L 894 2800 
Q 513 2800 131 2781 
z
M 1850 4344 
L 1456 4038 
L 800 4869 
L 1194 5181 
L 1850 4344 
z
" transform="scale(0.015625)"/>
      <path id="WenQuanYiZenHei-5b81" d="M 2944 -6 
L 2944 2450 
L 1044 2450 
Q 663 2450 281 2431 
Q 300 2638 281 2844 
Q 663 2825 1044 2825 
L 5281 2825 
Q 5663 2825 6044 2844 
Q 6025 2638 6044 2431 
Q 5663 2450 5281 2450 
L 3400 2450 
L 3400 -150 
Q 3400 -413 3213 -594 
Q 2944 -831 2213 -825 
Q 2288 -506 2063 -269 
Q 2269 -294 2553 -294 
Q 2838 -294 2891 -250 
Q 2944 -206 2944 -6 
z
M 688 3319 
L 231 3319 
L 231 4344 
L 2856 4344 
Q 2519 4725 2138 5056 
L 2469 5438 
Q 2963 5006 3388 4500 
L 3206 4344 
L 6025 4344 
L 6025 3319 
L 5563 3319 
L 5563 3969 
L 688 3969 
L 688 3319 
z
" transform="scale(0.015625)"/>
     </defs>
     <use xlink:href="#WenQuanYiZenHei-6bcf"/>
     <use xlink:href="#WenQuanYiZenHei-65e5" x="100"/>
     <use xlink:href="#WenQuanYiZenHei-65b0" x="200"/>
     <use xlink:href="#WenQuanYiZenHei-589e" x="300"/>
     <use xlink:href="#WenQuanYiZenHei-9884" x="400"/>
     <use xlink:href="#WenQuanYiZenHei-6d4b" x="500"/>
     <use xlink:href="#WenQuanYiZenHei-20" x="600"/>
     <use xlink:href="#WenQuanYiZenHei-2d" x="629.980469"/>
     <use xlink:href="#WenQuanYiZenHei-20" x="659.960938"/>
     <use xlink:href="#WenQuanYiZenHei-8fbd" x="689.941406"/>
     <use xlink:href="#WenQuanYiZenHei-5b81" x="789.941406"/>
    </g>
    <!-- ARIMA (0, 1, 1)x(0, 0, 0, 7) (R2 = 0.960123) -->
    <g transform="translate(577.185938 29.121)scale(0.12 -0.12)">
     <defs>
      <path id="WenQuanYiZenHei-41" d="M 3550 0 
L 2988 0 
L 2550 1281 
L 919 1281 
L 531 0 
L 69 0 
L 1494 4388 
L 2125 4388 
L 3550 0 
z
M 2425 1694 
L 1756 3800 
L 1075 1694 
L 2425 1694 
z
" transform="scale(0.015625)"/>
      <path id="WenQuanYiZenHei-52" d="M 3675 0 
L 3100 0 
L 2288 1900 
L 1069 1900 
L 1069 0 
L 519 0 
L 519 4388 
L 2163 4388 
Q 3006 4388 3400 3900 
Q 3581 3663 3625 3325 
Q 3631 3250 3631 3163 
Q 3631 2594 3219 2244 
Q 3038 2100 2813 2038 
L 3675 0 
z
M 3081 3169 
Q 3081 3825 2356 3906 
Q 2263 3919 2163 3919 
L 1069 3919 
L 1069 2350 
L 2100 2350 
Q 2906 2350 3044 2919 
Q 3081 3031 3081 3169 
z
" transform="scale(0.015625)"/>
      <path id="WenQuanYiZenHei-49" d="M 1100 0 
L 550 0 
L 550 4388 
L 1100 4388 
L 1100 0 
z
" transform="scale(0.015625)"/>
      <path id="WenQuanYiZenHei-4d" d="M 4756 0 
L 4206 0 
L 4206 3831 
L 4181 3831 
L 2788 0 
L 2419 0 
L 1000 3831 
L 975 3831 
L 975 0 
L 513 0 
L 513 4388 
L 1331 4388 
L 2656 875 
L 3950 4388 
L 4756 4388 
L 4756 0 
z
" transform="scale(0.015625)"/>
      <path id="WenQuanYiZenHei-28" d="M 1606 -1094 
L 1275 -1094 
Q 475 -100 338 1231 
Q 319 1438 319 1656 
Q 319 3031 1156 4244 
Q 1213 4313 1269 4388 
L 1600 4388 
Q 806 3169 794 1681 
Q 794 188 1606 -1094 
z
" transform="scale(0.015625)"/>
      <path id="WenQuanYiZenHei-2c" d="M 1363 75 
L 881 -825 
L 606 -825 
L 994 0 
L 656 0 
L 656 738 
L 1363 738 
L 1363 75 
z
" transform="scale(0.015625)"/>
      <path id="WenQuanYiZenHei-29" d="M 1600 1656 
Q 1600 306 869 -788 
Q 769 -950 644 -1094 
L 313 -1094 
Q 1125 188 1125 1681 
Q 1125 3169 338 4363 
Q 325 4375 319 4388 
L 650 4388 
Q 1525 3231 1594 1863 
Q 1600 1763 1600 1656 
z
" transform="scale(0.015625)"/>
      <path id="WenQuanYiZenHei-78" d="M 2806 0 
L 2213 0 
L 1394 1319 
L 544 0 
L 50 0 
L 1144 1681 
L 163 3250 
L 744 3250 
L 1431 2138 
L 2144 3250 
L 2631 3250 
L 1681 1794 
L 2806 0 
z
" transform="scale(0.015625)"/>
      <path id="WenQuanYiZenHei-3d" d="M 3569 2256 
L 263 2256 
L 263 2675 
L 3569 2675 
L 3569 2256 
z
M 3569 1019 
L 263 1019 
L 263 1431 
L 3569 1431 
L 3569 1019 
z
" transform="scale(0.015625)"/>
      <path id="WenQuanYiZenHei-2e" d="M 1344 0 
L 631 0 
L 631 725 
L 1344 725 
L 1344 0 
z
" transform="scale(0.015625)"/>
      <path id="WenQuanYiZenHei-39" d="M 3544 2300 
Q 3544 1163 3019 513 
Q 2563 -63 1775 -63 
Q 956 -63 563 488 
Q 463 631 394 813 
L 838 975 
Q 1025 494 1550 388 
Q 1656 369 1775 369 
Q 2594 369 2900 1325 
Q 3044 1769 3038 2313 
L 3025 2313 
Q 2675 1638 1944 1544 
Q 1844 1531 1744 1531 
Q 1050 1531 625 2031 
Q 294 2419 294 2963 
Q 294 3656 813 4094 
Q 1238 4456 1819 4456 
Q 2988 4456 3381 3363 
Q 3544 2900 3544 2300 
z
M 2925 2994 
Q 2925 3563 2469 3844 
Q 2206 4006 1863 4006 
Q 1275 4006 988 3563 
Q 844 3344 825 3056 
Q 819 3006 819 2956 
Q 819 2413 1269 2131 
Q 1538 1963 1875 1963 
Q 2363 1963 2681 2350 
Q 2925 2638 2925 2994 
z
" transform="scale(0.015625)"/>
     </defs>
     <use xlink:href="#WenQuanYiZenHei-41"/>
     <use xlink:href="#WenQuanYiZenHei-52" x="55.957031"/>
     <use xlink:href="#WenQuanYiZenHei-49" x="117.871094"/>
     <use xlink:href="#WenQuanYiZenHei-4d" x="143.847656"/>
     <use xlink:href="#WenQuanYiZenHei-41" x="225.78125"/>
     <use xlink:href="#WenQuanYiZenHei-20" x="281.738281"/>
     <use xlink:href="#WenQuanYiZenHei-28" x="311.71875"/>
     <use xlink:href="#WenQuanYiZenHei-30" x="341.699219"/>
     <use xlink:href="#WenQuanYiZenHei-2c" x="401.660156"/>
     <use xlink:href="#WenQuanYiZenHei-20" x="431.640625"/>
     <use xlink:href="#WenQuanYiZenHei-31" x="461.621094"/>
     <use xlink:href="#WenQuanYiZenHei-2c" x="521.582031"/>
     <use xlink:href="#WenQuanYiZenHei-20" x="551.5625"/>
     <use xlink:href="#WenQuanYiZenHei-31" x="581.542969"/>
     <use xlink:href="#WenQuanYiZenHei-29" x="641.503906"/>
     <use xlink:href="#WenQuanYiZenHei-78" x="671.484375"/>
     <use xlink:href="#WenQuanYiZenHei-28" x="715.429688"/>
     <use xlink:href="#WenQuanYiZenHei-30" x="745.410156"/>
     <use xlink:href="#WenQuanYiZenHei-2c" x="805.371094"/>
     <use xlink:href="#WenQuanYiZenHei-20" x="835.351562"/>
     <use xlink:href="#WenQuanYiZenHei-30" x="865.332031"/>
     <use xlink:href="#WenQuanYiZenHei-2c" x="925.292969"/>
     <use xlink:href="#WenQuanYiZenHei-20" x="955.273438"/>
     <use xlink:href="#WenQuanYiZenHei-30" x="985.253906"/>
     <use xlink:href="#WenQuanYiZenHei-2c" x="1045.214844"/>
     <use xlink:href="#WenQuanYiZenHei-20" x="1075.195312"/>
     <use xlink:href="#WenQuanYiZenHei-37" x="1105.175781"/>
     <use xlink:href="#WenQuanYiZenHei-29" x="1165.136719"/>
     <use xlink:href="#WenQuanYiZenHei-20" x="1195.117188"/>
     <use xlink:href="#WenQuanYiZenHei-28" x="1225.097656"/>
     <use xlink:href="#WenQuanYiZenHei-52" x="1255.078125"/>
     <use xlink:href="#WenQuanYiZenHei-32" x="1316.992188"/>
     <use xlink:href="#WenQuanYiZenHei-20" x="1376.953125"/>
     <use xlink:href="#WenQuanYiZenHei-3d" x="1406.933594"/>
     <use xlink:href="#WenQuanYiZenHei-20" x="1466.894531"/>
     <use xlink:href="#WenQuanYiZenHei-30" x="1496.875"/>
     <use xlink:href="#WenQuanYiZenHei-2e" x="1556.835938"/>
     <use xlink:href="#WenQuanYiZenHei-39" x="1586.816406"/>
     <use xlink:href="#WenQuanYiZenHei-36" x="1646.777344"/>
     <use xlink:href="#WenQuanYiZenHei-30" x="1706.738281"/>
     <use xlink:href="#WenQuanYiZenHei-31" x="1766.699219"/>
     <use xlink:href="#WenQuanYiZenHei-32" x="1826.660156"/>
     <use xlink:href="#WenQuanYiZenHei-33" x="1886.621094"/>
     <use xlink:href="#WenQuanYiZenHei-29" x="1946.582031"/>
    </g>
   </g>
   <g id="legend_1">
    <g id="patch_7">
     <path d="M 1296.39375 87.116312 
L 1358.39375 87.116312 
Q 1360.39375 87.116312 1360.39375 85.116312 
L 1360.39375 42.121 
Q 1360.39375 40.121 1358.39375 40.121 
L 1296.39375 40.121 
Q 1294.39375 40.121 1294.39375 42.121 
L 1294.39375 85.116312 
Q 1294.39375 87.116312 1296.39375 87.116312 
z
" style="fill: #ffffff; opacity: 0.8; stroke: #cccccc; stroke-linejoin: miter"/>
    </g>
    <g id="line2d_23">
     <path d="M 1298.39375 48.755375 
L 1308.39375 48.755375 
L 1318.39375 48.755375 
" style="fill: none; stroke: #0000ff; stroke-width: 1.5; stroke-linecap: square"/>
    </g>
    <g id="text_21">
     <!-- 实际值 -->
     <g transform="translate(1326.39375 52.255375)scale(0.1 -0.1)">
      <defs>
       <path id="WenQuanYiZenHei-5b9e" d="M 1025 1175 
Q 694 1175 356 1163 
Q 375 1344 356 1525 
Q 694 1506 1025 1506 
L 3363 1506 
L 3363 2625 
Q 3363 3075 3338 3519 
Q 3581 3494 3825 3519 
Q 3800 3075 3800 2625 
L 3800 1506 
L 5406 1506 
Q 5744 1506 6075 1525 
Q 6056 1344 6075 1163 
Q 5744 1175 5406 1175 
L 4038 1175 
L 4981 456 
L 6131 -488 
L 5819 -856 
L 4681 75 
L 3638 875 
Q 3313 231 2475 -231 
Q 1638 -694 700 -825 
Q 638 -519 344 -400 
Q 1450 -319 2406 244 
Q 3113 656 3300 1175 
L 1025 1175 
z
M 2263 1581 
Q 1763 2081 1200 2513 
L 1494 2894 
Q 2081 2444 2600 1919 
L 2263 1581 
z
M 2638 2500 
Q 2219 2963 1731 3363 
L 2044 3738 
Q 2556 3313 3000 2819 
L 2638 2500 
z
M 919 3156 
L 481 3156 
L 481 4344 
L 3069 4344 
Q 2794 4731 2469 5081 
L 2825 5413 
Q 3256 4944 3613 4413 
L 3513 4344 
L 5869 4344 
L 5869 3156 
L 5425 3156 
L 5425 4013 
L 919 4013 
L 919 3156 
z
" transform="scale(0.015625)"/>
       <path id="WenQuanYiZenHei-9645" d="M 6000 431 
L 5569 194 
L 4963 1219 
L 4313 2219 
L 4719 2494 
L 5375 1481 
L 6000 431 
z
M 2956 2450 
Q 3181 2344 3419 2294 
Q 3006 1038 1944 -188 
Q 1794 -6 1569 56 
Q 2069 600 2372 1156 
Q 2675 1713 2956 2450 
z
M 3750 25 
L 3750 2913 
L 2819 2913 
Q 2475 2913 2125 2894 
Q 2144 3081 2125 3269 
Q 2475 3256 2819 3256 
L 5469 3256 
Q 5819 3256 6163 3269 
Q 6144 3081 6163 2894 
Q 5813 2913 5469 2913 
L 4194 2913 
L 4194 -144 
Q 4194 -725 3456 -813 
L 3263 -825 
Q 3325 -506 3125 -250 
Q 3250 -281 3394 -306 
Q 3663 -313 3706 -272 
Q 3750 -231 3750 25 
z
M 5544 4950 
Q 5525 4756 5544 4569 
Q 5194 4588 4844 4588 
L 3325 4588 
Q 2975 4588 2625 4569 
Q 2644 4756 2625 4950 
Q 2975 4931 3325 4931 
L 4844 4931 
Q 5194 4931 5544 4950 
z
M 819 -850 
Q 581 -825 344 -850 
Q 369 -419 369 19 
L 363 4938 
L 2256 4938 
L 2256 4625 
Q 2150 4513 2075 4375 
L 1481 3238 
Q 2181 2319 2181 1156 
Q 2144 400 1569 163 
L 1406 88 
Q 1288 300 1138 481 
Q 1294 538 1450 606 
Q 1763 744 1794 1156 
Q 1794 1744 1600 2300 
Q 1406 2856 1038 3313 
L 1725 4625 
L 788 4625 
L 794 19 
Q 794 -419 819 -850 
z
" transform="scale(0.015625)"/>
       <path id="WenQuanYiZenHei-503c" d="M 6175 -219 
Q 6156 -388 6175 -556 
Q 5863 -544 5550 -544 
L 2313 -544 
Q 2000 -544 1688 -556 
Q 1706 -388 1688 -219 
L 2506 -231 
L 2506 3469 
L 3644 3469 
L 3644 4119 
L 2638 4119 
Q 2325 4119 2013 4100 
Q 2031 4269 2013 4438 
Q 2325 4425 2638 4425 
L 3638 4425 
Q 3638 4719 3619 5013 
Q 3856 4988 4094 5013 
Q 4075 4719 4075 4425 
L 5344 4425 
Q 5650 4425 5963 4438 
Q 5950 4269 5963 4100 
Q 5656 4119 5344 4119 
L 4069 4119 
L 4069 3469 
L 5300 3469 
L 5300 -231 
L 5550 -231 
Q 5863 -231 6175 -219 
z
M 4869 2556 
L 4869 3156 
L 2931 3156 
Q 2931 2850 2931 2556 
L 4869 2556 
z
M 4869 1669 
L 4869 2250 
L 2931 2250 
L 2931 1669 
L 4869 1669 
z
M 4869 731 
L 4869 1363 
L 2931 1363 
L 2931 731 
L 4869 731 
z
M 4869 -231 
L 4869 425 
L 2931 425 
L 2931 -231 
L 4869 -231 
z
M 2106 4925 
Q 1856 4075 1463 3338 
L 1463 31 
Q 1463 -413 1481 -850 
Q 1256 -825 1031 -850 
Q 1050 -413 1050 31 
L 1050 2681 
Q 750 2269 375 1931 
Q 238 2156 0 2256 
Q 331 2544 619 2875 
Q 1094 3425 1300 3950 
Q 1494 4469 1625 5050 
Q 1850 4963 2106 4925 
z
" transform="scale(0.015625)"/>
      </defs>
      <use xlink:href="#WenQuanYiZenHei-5b9e"/>
      <use xlink:href="#WenQuanYiZenHei-9645" x="100"/>
      <use xlink:href="#WenQuanYiZenHei-503c" x="200"/>
     </g>
    </g>
    <g id="line2d_24">
     <path d="M 1298.39375 63.4335 
L 1308.39375 63.4335 
L 1318.39375 63.4335 
" style="fill: none; stroke: #ffa500; stroke-width: 1.5; stroke-linecap: square"/>
    </g>
    <g id="text_22">
     <!-- 校验值 -->
     <g transform="translate(1326.39375 66.9335)scale(0.1 -0.1)">
      <defs>
       <path id="WenQuanYiZenHei-6821" d="M 5256 2463 
Q 5025 1475 4494 706 
Q 5125 -94 6175 -544 
Q 5950 -663 5850 -900 
Q 4906 -494 4250 381 
Q 3931 0 3475 -350 
Q 3019 -700 2388 -919 
Q 2338 -656 2138 -475 
Q 3306 -69 4006 738 
Q 3563 1444 3300 2331 
Q 3050 2050 2706 1800 
Q 2606 2000 2406 2106 
Q 2900 2444 3181 2938 
Q 3350 3225 3488 3538 
Q 3700 3431 3925 3369 
Q 3763 2894 3425 2475 
L 3650 2531 
Q 3888 1675 4244 1075 
Q 4469 1444 4603 1937 
Q 4738 2431 4775 2688 
Q 4963 2644 5150 2625 
Q 4919 2969 4663 3294 
L 5038 3588 
Q 5544 2925 5975 2213 
L 5569 1969 
L 5256 2463 
z
M 6006 4050 
Q 5988 3881 6006 3713 
Q 5694 3725 5381 3725 
L 3413 3725 
Q 3100 3725 2788 3713 
Q 2806 3881 2788 4050 
Q 3100 4031 3413 4031 
L 4325 4031 
Q 4019 4525 3644 4969 
L 4000 5275 
Q 4413 4788 4750 4244 
L 4406 4031 
L 5381 4031 
Q 5694 4031 6006 4050 
z
M 406 263 
Q 238 431 -25 469 
Q 194 825 466 1337 
Q 738 1850 925 2406 
Q 1113 2963 1256 3519 
L 825 3519 
Q 506 3519 188 3500 
Q 206 3700 188 3900 
Q 506 3881 825 3881 
L 1363 3881 
L 1363 4263 
Q 1363 4719 1338 5175 
Q 1556 5150 1775 5175 
Q 1756 4719 1756 4263 
L 1756 3881 
L 2525 3900 
Q 2506 3700 2525 3500 
L 1756 3519 
L 1756 2738 
L 1931 2881 
Q 2306 2300 2613 1650 
L 2231 1413 
Q 2081 1725 1919 2019 
L 1756 2300 
L 1756 69 
Q 1756 -388 1775 -850 
Q 1556 -825 1338 -850 
Q 1363 -388 1363 69 
L 1363 2438 
Q 925 1144 406 263 
z
" transform="scale(0.015625)"/>
       <path id="WenQuanYiZenHei-9a8c" d="M 5981 -106 
Q 5963 -275 5981 -444 
Q 5669 -431 5356 -431 
L 2969 -431 
Q 2656 -431 2350 -444 
Q 2363 -275 2350 -106 
Q 2656 -125 2969 -125 
L 4369 -125 
Q 4600 431 4881 1288 
L 5206 2300 
Q 5425 2206 5663 2163 
Q 5375 1188 4831 -125 
L 5356 -125 
Q 5669 -125 5981 -106 
z
M 4063 594 
Q 3788 1425 3425 2219 
L 3856 2419 
Q 4225 1600 4513 744 
L 4063 594 
z
M 3163 363 
Q 2931 1200 2613 2006 
L 3056 2175 
Q 3381 1350 3619 488 
L 3163 363 
z
M 4581 2550 
L 3513 2550 
Q 3200 2550 2888 2538 
Q 2900 2663 2894 2769 
Q 2569 2488 2206 2300 
Q 2113 2550 1894 2700 
Q 2488 2975 2975 3463 
Q 3269 3756 3394 4006 
Q 3644 4513 3794 5063 
Q 4038 4975 4294 4931 
Q 4250 4806 4206 4681 
Q 4475 3888 5025 3388 
Q 5519 2938 6169 2650 
Q 5938 2538 5838 2300 
Q 5513 2456 5200 2700 
Q 5200 2619 5206 2538 
Q 4894 2550 4581 2550 
z
M 3513 2863 
L 4994 2869 
Q 4344 3438 3988 4194 
Q 3594 3406 3013 2869 
Q 3263 2863 3513 2863 
z
M 206 444 
Q 188 756 44 963 
Q 319 956 650 1003 
Q 981 1050 1731 1281 
L 1738 1006 
Q 800 719 206 444 
z
M 525 4000 
Q 744 3950 994 3944 
Q 925 3519 875 3081 
L 763 2144 
L 1475 2144 
L 1831 4444 
L 663 4444 
Q 350 4444 38 4431 
Q 56 4600 38 4769 
Q 350 4756 663 4756 
L 2313 4756 
L 1913 2144 
L 2375 2144 
L 2200 -200 
Q 2188 -425 1988 -588 
Q 1694 -800 1181 -788 
L 944 -788 
Q 1000 -450 788 -269 
Q 1013 -294 1334 -287 
Q 1656 -281 1715 -243 
Q 1775 -206 1781 -50 
L 1925 1831 
L 294 1831 
L 444 3131 
Q 500 3569 525 4000 
z
" transform="scale(0.015625)"/>
      </defs>
      <use xlink:href="#WenQuanYiZenHei-6821"/>
      <use xlink:href="#WenQuanYiZenHei-9a8c" x="100"/>
      <use xlink:href="#WenQuanYiZenHei-503c" x="200"/>
     </g>
    </g>
    <g id="line2d_25">
     <path d="M 1298.39375 77.955375 
L 1308.39375 77.955375 
L 1318.39375 77.955375 
" style="fill: none; stroke: #ff0000; stroke-width: 1.5; stroke-linecap: square"/>
    </g>
    <g id="text_23">
     <!-- 预测值 -->
     <g transform="translate(1326.39375 81.455375)scale(0.1 -0.1)">
      <use xlink:href="#WenQuanYiZenHei-9884"/>
      <use xlink:href="#WenQuanYiZenHei-6d4b" x="100"/>
      <use xlink:href="#WenQuanYiZenHei-503c" x="200"/>
     </g>
    </g>
   </g>
  </g>
 </g>
 <defs>
  <clipPath id="p3569de718e">
   <rect x="26.19375" y="35.121" width="1339.2" height="332.64"/>
  </clipPath>
 </defs>
</svg>
