<?xml version="1.0" encoding="utf-8" standalone="no"?>
<!DOCTYPE svg PUBLIC "-//W3C//DTD SVG 1.1//EN"
  "http://www.w3.org/Graphics/SVG/1.1/DTD/svg11.dtd">
<svg xmlns:xlink="http://www.w3.org/1999/xlink" width="1372.59375pt" height="390.478188pt" viewBox="0 0 1372.59375 390.478188" xmlns="http://www.w3.org/2000/svg" version="1.1">
 <metadata>
  <rdf:RDF xmlns:dc="http://purl.org/dc/elements/1.1/" xmlns:cc="http://creativecommons.org/ns#" xmlns:rdf="http://www.w3.org/1999/02/22-rdf-syntax-ns#">
   <cc:Work>
    <dc:type rdf:resource="http://purl.org/dc/dcmitype/StillImage"/>
    <dc:date>2022-06-26T18:17:54.098818</dc:date>
    <dc:format>image/svg+xml</dc:format>
    <dc:creator>
     <cc:Agent>
      <dc:title>Matplotlib v3.5.2, https://matplotlib.org/</dc:title>
     </cc:Agent>
    </dc:creator>
   </cc:Work>
  </rdf:RDF>
 </metadata>
 <defs>
  <style type="text/css">*{stroke-linejoin: round; stroke-linecap: butt}</style>
 </defs>
 <g id="figure_1">
  <g id="patch_1">
   <path d="M 0 390.478188 
L 1372.59375 390.478188 
L 1372.59375 -0 
L 0 -0 
z
" style="fill: #ffffff"/>
  </g>
  <g id="axes_1">
   <g id="patch_2">
    <path d="M 26.19375 367.761 
L 1365.39375 367.761 
L 1365.39375 35.121 
L 26.19375 35.121 
z
" style="fill: #ffffff"/>
   </g>
   <g id="matplotlib.axis_1">
    <g id="xtick_1">
     <g id="line2d_1">
      <defs>
       <path id="m10a1307c7f" d="M 0 0 
L 0 3.5 
" style="stroke: #000000; stroke-width: 0.8"/>
      </defs>
      <g>
       <use xlink:href="#m10a1307c7f" x="57.206946" y="367.761" style="stroke: #000000; stroke-width: 0.8"/>
      </g>
     </g>
     <g id="text_1">
      <!-- 2020-01 -->
      <g transform="translate(37.717102 381.61725)scale(0.1 -0.1)">
       <defs>
        <path id="WenQuanYiZenHei-32" d="M 3488 0 
L 369 0 
L 369 456 
L 2150 1850 
Q 2931 2463 2931 3144 
Q 2931 3619 2488 3863 
Q 2231 4013 1931 4013 
Q 1425 4013 1113 3619 
Q 894 3356 881 3013 
L 369 3169 
Q 531 3981 1213 4300 
Q 1544 4456 1950 4456 
Q 2631 4456 3088 4044 
L 3225 3888 
L 3350 3706 
Q 3481 3444 3481 3144 
Q 3481 2313 2519 1569 
L 1069 456 
L 3488 456 
L 3488 0 
z
" transform="scale(0.015625)"/>
        <path id="WenQuanYiZenHei-30" d="M 3581 2175 
Q 3581 1288 3169 638 
Q 2713 -63 1938 -63 
Q 1025 -63 563 831 
Q 256 1425 256 2188 
Q 256 3188 700 3819 
Q 1138 4456 1888 4456 
Q 2863 4456 3306 3500 
Q 3581 2925 3581 2175 
z
M 3019 2100 
Q 3019 3356 2500 3806 
L 2350 3919 
Q 2144 4031 1888 4031 
Q 1100 4031 888 2956 
Q 819 2625 819 2225 
Q 819 1013 1338 569 
Q 1588 356 1938 356 
Q 2675 356 2925 1294 
Q 3019 1663 3019 2100 
z
" transform="scale(0.015625)"/>
        <path id="WenQuanYiZenHei-2d" d="M 1363 1444 
L 0 1444 
L 0 1844 
L 1363 1844 
L 1363 1444 
z
" transform="scale(0.015625)"/>
        <path id="WenQuanYiZenHei-31" d="M 3556 0 
L 488 0 
L 488 406 
L 1800 406 
L 1800 3725 
Q 1231 3125 588 2788 
L 588 3338 
Q 1456 3781 1931 4388 
L 2331 4388 
L 2331 406 
L 3556 406 
L 3556 0 
z
" transform="scale(0.015625)"/>
       </defs>
       <use xlink:href="#WenQuanYiZenHei-32"/>
       <use xlink:href="#WenQuanYiZenHei-30" x="59.960938"/>
       <use xlink:href="#WenQuanYiZenHei-32" x="119.921875"/>
       <use xlink:href="#WenQuanYiZenHei-30" x="179.882812"/>
       <use xlink:href="#WenQuanYiZenHei-2d" x="239.84375"/>
       <use xlink:href="#WenQuanYiZenHei-30" x="269.824219"/>
       <use xlink:href="#WenQuanYiZenHei-31" x="329.785156"/>
      </g>
     </g>
    </g>
    <g id="xtick_2">
     <g id="line2d_2">
      <g>
       <use xlink:href="#m10a1307c7f" x="180.716827" y="367.761" style="stroke: #000000; stroke-width: 0.8"/>
      </g>
     </g>
     <g id="text_2">
      <!-- 2020-04 -->
      <g transform="translate(161.226983 381.61725)scale(0.1 -0.1)">
       <defs>
        <path id="WenQuanYiZenHei-34" d="M 3631 1025 
L 2913 1025 
L 2913 0 
L 2381 0 
L 2381 1025 
L 219 1025 
L 219 1388 
L 2225 4388 
L 2913 4388 
L 2913 1444 
L 3631 1444 
L 3631 1025 
z
M 2381 1444 
L 2381 3963 
L 788 1444 
L 2381 1444 
z
" transform="scale(0.015625)"/>
       </defs>
       <use xlink:href="#WenQuanYiZenHei-32"/>
       <use xlink:href="#WenQuanYiZenHei-30" x="59.960938"/>
       <use xlink:href="#WenQuanYiZenHei-32" x="119.921875"/>
       <use xlink:href="#WenQuanYiZenHei-30" x="179.882812"/>
       <use xlink:href="#WenQuanYiZenHei-2d" x="239.84375"/>
       <use xlink:href="#WenQuanYiZenHei-30" x="269.824219"/>
       <use xlink:href="#WenQuanYiZenHei-34" x="329.785156"/>
      </g>
     </g>
    </g>
    <g id="xtick_3">
     <g id="line2d_3">
      <g>
       <use xlink:href="#m10a1307c7f" x="304.226708" y="367.761" style="stroke: #000000; stroke-width: 0.8"/>
      </g>
     </g>
     <g id="text_3">
      <!-- 2020-07 -->
      <g transform="translate(284.736865 381.61725)scale(0.1 -0.1)">
       <defs>
        <path id="WenQuanYiZenHei-37" d="M 3400 4056 
Q 1838 2175 1838 0 
L 1275 0 
Q 1269 1438 2056 2825 
Q 2381 3400 2825 3913 
L 444 3913 
L 500 4388 
L 3400 4388 
L 3400 4056 
z
" transform="scale(0.015625)"/>
       </defs>
       <use xlink:href="#WenQuanYiZenHei-32"/>
       <use xlink:href="#WenQuanYiZenHei-30" x="59.960938"/>
       <use xlink:href="#WenQuanYiZenHei-32" x="119.921875"/>
       <use xlink:href="#WenQuanYiZenHei-30" x="179.882812"/>
       <use xlink:href="#WenQuanYiZenHei-2d" x="239.84375"/>
       <use xlink:href="#WenQuanYiZenHei-30" x="269.824219"/>
       <use xlink:href="#WenQuanYiZenHei-37" x="329.785156"/>
      </g>
     </g>
    </g>
    <g id="xtick_4">
     <g id="line2d_4">
      <g>
       <use xlink:href="#m10a1307c7f" x="429.093841" y="367.761" style="stroke: #000000; stroke-width: 0.8"/>
      </g>
     </g>
     <g id="text_4">
      <!-- 2020-10 -->
      <g transform="translate(409.603997 381.61725)scale(0.1 -0.1)">
       <use xlink:href="#WenQuanYiZenHei-32"/>
       <use xlink:href="#WenQuanYiZenHei-30" x="59.960938"/>
       <use xlink:href="#WenQuanYiZenHei-32" x="119.921875"/>
       <use xlink:href="#WenQuanYiZenHei-30" x="179.882812"/>
       <use xlink:href="#WenQuanYiZenHei-2d" x="239.84375"/>
       <use xlink:href="#WenQuanYiZenHei-31" x="269.824219"/>
       <use xlink:href="#WenQuanYiZenHei-30" x="329.785156"/>
      </g>
     </g>
    </g>
    <g id="xtick_5">
     <g id="line2d_5">
      <g>
       <use xlink:href="#m10a1307c7f" x="553.960974" y="367.761" style="stroke: #000000; stroke-width: 0.8"/>
      </g>
     </g>
     <g id="text_5">
      <!-- 2021-01 -->
      <g transform="translate(534.47113 381.61725)scale(0.1 -0.1)">
       <use xlink:href="#WenQuanYiZenHei-32"/>
       <use xlink:href="#WenQuanYiZenHei-30" x="59.960938"/>
       <use xlink:href="#WenQuanYiZenHei-32" x="119.921875"/>
       <use xlink:href="#WenQuanYiZenHei-31" x="179.882812"/>
       <use xlink:href="#WenQuanYiZenHei-2d" x="239.84375"/>
       <use xlink:href="#WenQuanYiZenHei-30" x="269.824219"/>
       <use xlink:href="#WenQuanYiZenHei-31" x="329.785156"/>
      </g>
     </g>
    </g>
    <g id="xtick_6">
     <g id="line2d_6">
      <g>
       <use xlink:href="#m10a1307c7f" x="676.113604" y="367.761" style="stroke: #000000; stroke-width: 0.8"/>
      </g>
     </g>
     <g id="text_6">
      <!-- 2021-04 -->
      <g transform="translate(656.62376 381.61725)scale(0.1 -0.1)">
       <use xlink:href="#WenQuanYiZenHei-32"/>
       <use xlink:href="#WenQuanYiZenHei-30" x="59.960938"/>
       <use xlink:href="#WenQuanYiZenHei-32" x="119.921875"/>
       <use xlink:href="#WenQuanYiZenHei-31" x="179.882812"/>
       <use xlink:href="#WenQuanYiZenHei-2d" x="239.84375"/>
       <use xlink:href="#WenQuanYiZenHei-30" x="269.824219"/>
       <use xlink:href="#WenQuanYiZenHei-34" x="329.785156"/>
      </g>
     </g>
    </g>
    <g id="xtick_7">
     <g id="line2d_7">
      <g>
       <use xlink:href="#m10a1307c7f" x="799.623485" y="367.761" style="stroke: #000000; stroke-width: 0.8"/>
      </g>
     </g>
     <g id="text_7">
      <!-- 2021-07 -->
      <g transform="translate(780.133642 381.61725)scale(0.1 -0.1)">
       <use xlink:href="#WenQuanYiZenHei-32"/>
       <use xlink:href="#WenQuanYiZenHei-30" x="59.960938"/>
       <use xlink:href="#WenQuanYiZenHei-32" x="119.921875"/>
       <use xlink:href="#WenQuanYiZenHei-31" x="179.882812"/>
       <use xlink:href="#WenQuanYiZenHei-2d" x="239.84375"/>
       <use xlink:href="#WenQuanYiZenHei-30" x="269.824219"/>
       <use xlink:href="#WenQuanYiZenHei-37" x="329.785156"/>
      </g>
     </g>
    </g>
    <g id="xtick_8">
     <g id="line2d_8">
      <g>
       <use xlink:href="#m10a1307c7f" x="924.490618" y="367.761" style="stroke: #000000; stroke-width: 0.8"/>
      </g>
     </g>
     <g id="text_8">
      <!-- 2021-10 -->
      <g transform="translate(905.000775 381.61725)scale(0.1 -0.1)">
       <use xlink:href="#WenQuanYiZenHei-32"/>
       <use xlink:href="#WenQuanYiZenHei-30" x="59.960938"/>
       <use xlink:href="#WenQuanYiZenHei-32" x="119.921875"/>
       <use xlink:href="#WenQuanYiZenHei-31" x="179.882812"/>
       <use xlink:href="#WenQuanYiZenHei-2d" x="239.84375"/>
       <use xlink:href="#WenQuanYiZenHei-31" x="269.824219"/>
       <use xlink:href="#WenQuanYiZenHei-30" x="329.785156"/>
      </g>
     </g>
    </g>
    <g id="xtick_9">
     <g id="line2d_9">
      <g>
       <use xlink:href="#m10a1307c7f" x="1049.357751" y="367.761" style="stroke: #000000; stroke-width: 0.8"/>
      </g>
     </g>
     <g id="text_9">
      <!-- 2022-01 -->
      <g transform="translate(1029.867907 381.61725)scale(0.1 -0.1)">
       <use xlink:href="#WenQuanYiZenHei-32"/>
       <use xlink:href="#WenQuanYiZenHei-30" x="59.960938"/>
       <use xlink:href="#WenQuanYiZenHei-32" x="119.921875"/>
       <use xlink:href="#WenQuanYiZenHei-32" x="179.882812"/>
       <use xlink:href="#WenQuanYiZenHei-2d" x="239.84375"/>
       <use xlink:href="#WenQuanYiZenHei-30" x="269.824219"/>
       <use xlink:href="#WenQuanYiZenHei-31" x="329.785156"/>
      </g>
     </g>
    </g>
    <g id="xtick_10">
     <g id="line2d_10">
      <g>
       <use xlink:href="#m10a1307c7f" x="1171.510381" y="367.761" style="stroke: #000000; stroke-width: 0.8"/>
      </g>
     </g>
     <g id="text_10">
      <!-- 2022-04 -->
      <g transform="translate(1152.020537 381.61725)scale(0.1 -0.1)">
       <use xlink:href="#WenQuanYiZenHei-32"/>
       <use xlink:href="#WenQuanYiZenHei-30" x="59.960938"/>
       <use xlink:href="#WenQuanYiZenHei-32" x="119.921875"/>
       <use xlink:href="#WenQuanYiZenHei-32" x="179.882812"/>
       <use xlink:href="#WenQuanYiZenHei-2d" x="239.84375"/>
       <use xlink:href="#WenQuanYiZenHei-30" x="269.824219"/>
       <use xlink:href="#WenQuanYiZenHei-34" x="329.785156"/>
      </g>
     </g>
    </g>
    <g id="xtick_11">
     <g id="line2d_11">
      <g>
       <use xlink:href="#m10a1307c7f" x="1295.020263" y="367.761" style="stroke: #000000; stroke-width: 0.8"/>
      </g>
     </g>
     <g id="text_11">
      <!-- 2022-07 -->
      <g transform="translate(1275.530419 381.61725)scale(0.1 -0.1)">
       <use xlink:href="#WenQuanYiZenHei-32"/>
       <use xlink:href="#WenQuanYiZenHei-30" x="59.960938"/>
       <use xlink:href="#WenQuanYiZenHei-32" x="119.921875"/>
       <use xlink:href="#WenQuanYiZenHei-32" x="179.882812"/>
       <use xlink:href="#WenQuanYiZenHei-2d" x="239.84375"/>
       <use xlink:href="#WenQuanYiZenHei-30" x="269.824219"/>
       <use xlink:href="#WenQuanYiZenHei-37" x="329.785156"/>
      </g>
     </g>
    </g>
   </g>
   <g id="matplotlib.axis_2">
    <g id="ytick_1">
     <g id="line2d_12">
      <defs>
       <path id="m7b2ec16da4" d="M 0 0 
L -3.5 0 
" style="stroke: #000000; stroke-width: 0.8"/>
      </defs>
      <g>
       <use xlink:href="#m7b2ec16da4" x="26.19375" y="348.554514" style="stroke: #000000; stroke-width: 0.8"/>
      </g>
     </g>
     <g id="text_12">
      <!-- 0 -->
      <g transform="translate(13.196875 351.982639)scale(0.1 -0.1)">
       <use xlink:href="#WenQuanYiZenHei-30"/>
      </g>
     </g>
    </g>
    <g id="ytick_2">
     <g id="line2d_13">
      <g>
       <use xlink:href="#m7b2ec16da4" x="26.19375" y="307.689649" style="stroke: #000000; stroke-width: 0.8"/>
      </g>
     </g>
     <g id="text_13">
      <!-- 10 -->
      <g transform="translate(7.2 311.117774)scale(0.1 -0.1)">
       <use xlink:href="#WenQuanYiZenHei-31"/>
       <use xlink:href="#WenQuanYiZenHei-30" x="59.960938"/>
      </g>
     </g>
    </g>
    <g id="ytick_3">
     <g id="line2d_14">
      <g>
       <use xlink:href="#m7b2ec16da4" x="26.19375" y="266.824784" style="stroke: #000000; stroke-width: 0.8"/>
      </g>
     </g>
     <g id="text_14">
      <!-- 20 -->
      <g transform="translate(7.2 270.252909)scale(0.1 -0.1)">
       <use xlink:href="#WenQuanYiZenHei-32"/>
       <use xlink:href="#WenQuanYiZenHei-30" x="59.960938"/>
      </g>
     </g>
    </g>
    <g id="ytick_4">
     <g id="line2d_15">
      <g>
       <use xlink:href="#m7b2ec16da4" x="26.19375" y="225.959919" style="stroke: #000000; stroke-width: 0.8"/>
      </g>
     </g>
     <g id="text_15">
      <!-- 30 -->
      <g transform="translate(7.2 229.388044)scale(0.1 -0.1)">
       <defs>
        <path id="WenQuanYiZenHei-33" d="M 3588 1231 
Q 3588 494 2875 144 
Q 2450 -63 1925 -63 
Q 1044 -63 556 488 
Q 356 706 256 1000 
L 769 1169 
Q 994 375 1913 375 
Q 2631 375 2900 788 
Q 3019 975 3019 1231 
Q 3019 1638 2638 1881 
Q 2325 2081 1613 2069 
L 1338 2069 
L 1338 2494 
Q 1969 2494 2094 2506 
Q 2325 2544 2463 2613 
Q 2763 2756 2844 3100 
Q 2863 3169 2863 3244 
Q 2863 3744 2381 3944 
L 2163 4006 
Q 2056 4025 1931 4025 
Q 1388 4025 1075 3631 
Q 969 3488 906 3313 
L 419 3456 
Q 675 4150 1400 4369 
Q 1669 4456 1975 4456 
Q 2694 4456 3106 4050 
Q 3419 3744 3419 3275 
Q 3419 2813 3025 2513 
Q 2825 2356 2575 2319 
L 2575 2306 
Q 3181 2213 3450 1769 
Q 3588 1525 3588 1231 
z
" transform="scale(0.015625)"/>
       </defs>
       <use xlink:href="#WenQuanYiZenHei-33"/>
       <use xlink:href="#WenQuanYiZenHei-30" x="59.960938"/>
      </g>
     </g>
    </g>
    <g id="ytick_5">
     <g id="line2d_16">
      <g>
       <use xlink:href="#m7b2ec16da4" x="26.19375" y="185.095054" style="stroke: #000000; stroke-width: 0.8"/>
      </g>
     </g>
     <g id="text_16">
      <!-- 40 -->
      <g transform="translate(7.2 188.523179)scale(0.1 -0.1)">
       <use xlink:href="#WenQuanYiZenHei-34"/>
       <use xlink:href="#WenQuanYiZenHei-30" x="59.960938"/>
      </g>
     </g>
    </g>
    <g id="ytick_6">
     <g id="line2d_17">
      <g>
       <use xlink:href="#m7b2ec16da4" x="26.19375" y="144.230189" style="stroke: #000000; stroke-width: 0.8"/>
      </g>
     </g>
     <g id="text_17">
      <!-- 50 -->
      <g transform="translate(7.2 147.658314)scale(0.1 -0.1)">
       <defs>
        <path id="WenQuanYiZenHei-35" d="M 3531 1488 
Q 3531 688 2913 250 
Q 2456 -63 1844 -63 
Q 1175 -63 706 350 
Q 413 613 306 975 
L 781 1131 
Q 1000 538 1569 406 
Q 1706 369 1856 369 
Q 2550 369 2850 869 
Q 3000 1131 3000 1494 
Q 3000 2056 2581 2356 
Q 2319 2538 1969 2538 
Q 1400 2538 1031 2075 
Q 981 2013 938 1938 
L 500 2031 
L 644 4388 
L 3244 4388 
L 3200 3919 
L 1044 3919 
L 950 2500 
Q 1431 2975 2006 2975 
Q 2713 2975 3163 2475 
Q 3531 2063 3531 1488 
z
" transform="scale(0.015625)"/>
       </defs>
       <use xlink:href="#WenQuanYiZenHei-35"/>
       <use xlink:href="#WenQuanYiZenHei-30" x="59.960938"/>
      </g>
     </g>
    </g>
    <g id="ytick_7">
     <g id="line2d_18">
      <g>
       <use xlink:href="#m7b2ec16da4" x="26.19375" y="103.365324" style="stroke: #000000; stroke-width: 0.8"/>
      </g>
     </g>
     <g id="text_18">
      <!-- 60 -->
      <g transform="translate(7.2 106.793449)scale(0.1 -0.1)">
       <defs>
        <path id="WenQuanYiZenHei-36" d="M 3550 1431 
Q 3550 725 3006 288 
Q 2581 -63 1994 -63 
Q 1013 -63 563 825 
Q 288 1363 288 2081 
Q 288 3294 856 3938 
Q 1319 4456 2075 4456 
Q 2969 4456 3363 3756 
Q 3431 3631 3481 3481 
L 2988 3350 
Q 2750 3994 2075 4006 
Q 1056 4006 844 2669 
Q 794 2356 794 1981 
L 806 1981 
Q 1006 2506 1544 2744 
Q 1819 2869 2119 2869 
Q 2788 2869 3213 2375 
Q 3550 1975 3550 1431 
z
M 3038 1406 
Q 3038 1906 2656 2213 
Q 2381 2431 2038 2431 
Q 1525 2431 1181 2044 
Q 919 1744 919 1356 
Q 919 881 1344 581 
Q 1631 375 1981 375 
Q 2519 375 2838 781 
Q 3038 1050 3038 1406 
z
" transform="scale(0.015625)"/>
       </defs>
       <use xlink:href="#WenQuanYiZenHei-36"/>
       <use xlink:href="#WenQuanYiZenHei-30" x="59.960938"/>
      </g>
     </g>
    </g>
    <g id="ytick_8">
     <g id="line2d_19">
      <g>
       <use xlink:href="#m7b2ec16da4" x="26.19375" y="62.500459" style="stroke: #000000; stroke-width: 0.8"/>
      </g>
     </g>
     <g id="text_19">
      <!-- 70 -->
      <g transform="translate(7.2 65.928584)scale(0.1 -0.1)">
       <use xlink:href="#WenQuanYiZenHei-37"/>
       <use xlink:href="#WenQuanYiZenHei-30" x="59.960938"/>
      </g>
     </g>
    </g>
   </g>
   <g id="line2d_20">
    <path d="M 87.066477 344.468027 
L 88.423729 344.468027 
L 89.78098 295.430189 
L 91.138232 332.208568 
L 92.495483 324.035595 
L 93.852734 319.949108 
L 95.209986 328.122081 
L 96.567237 340.381541 
L 97.924489 319.949108 
L 99.28174 283.17073 
L 100.638992 324.035595 
L 101.996243 332.208568 
L 103.353495 319.949108 
L 104.710746 315.862622 
L 106.067997 328.122081 
L 107.425249 328.122081 
L 108.7825 324.035595 
L 110.139752 340.381541 
L 111.497003 344.468027 
L 114.211506 328.122081 
L 115.568758 344.468027 
L 116.926009 340.381541 
L 118.28326 348.554514 
L 119.640512 340.381541 
L 120.997763 348.554514 
L 137.284781 348.554514 
L 138.642032 344.468027 
L 139.999284 348.554514 
L 141.356535 336.295054 
L 142.713786 348.554514 
L 163.072558 348.554514 
L 164.42981 344.468027 
L 165.787061 348.554514 
L 167.144312 344.468027 
L 168.501564 348.554514 
L 171.216067 348.554514 
L 172.573318 344.468027 
L 173.93057 348.554514 
L 175.287821 332.208568 
L 176.645073 340.381541 
L 178.002324 340.381541 
L 179.359575 336.295054 
L 180.716827 344.468027 
L 182.074078 344.468027 
L 183.43133 348.554514 
L 184.788581 348.554514 
L 186.145833 344.468027 
L 187.503084 348.554514 
L 188.860336 340.381541 
L 190.217587 348.554514 
L 192.93209 348.554514 
L 194.289341 344.468027 
L 195.646593 348.554514 
L 201.075599 348.554514 
L 202.43285 344.468027 
L 203.790101 348.554514 
L 232.292382 348.554514 
L 233.649633 344.468027 
L 235.006885 348.554514 
L 236.364136 348.554514 
L 237.721388 340.381541 
L 239.078639 348.554514 
L 278.438931 348.554514 
L 279.796182 340.381541 
L 281.153434 348.554514 
L 282.510685 344.468027 
L 283.867937 348.554514 
L 285.225188 348.554514 
L 286.58244 344.468027 
L 287.939691 348.554514 
L 289.296942 348.554514 
L 290.654194 344.468027 
L 292.011445 348.554514 
L 298.797703 348.554514 
L 300.154954 344.468027 
L 301.512205 348.554514 
L 304.226708 348.554514 
L 305.58396 344.468027 
L 306.941211 348.554514 
L 308.298463 348.554514 
L 309.655714 344.468027 
L 311.012966 348.554514 
L 312.370217 340.381541 
L 313.727468 336.295054 
L 315.08472 348.554514 
L 316.441971 348.554514 
L 317.799223 340.381541 
L 319.156474 348.554514 
L 331.371737 348.554514 
L 334.08624 340.381541 
L 335.443492 311.776135 
L 336.800743 295.430189 
L 338.157994 291.343703 
L 339.515246 324.035595 
L 340.872497 315.862622 
L 342.229749 328.122081 
L 343.587 303.603162 
L 344.944252 315.862622 
L 346.301503 336.295054 
L 347.658755 311.776135 
L 349.016006 340.381541 
L 350.373257 348.554514 
L 351.730509 336.295054 
L 353.08776 344.468027 
L 354.445012 348.554514 
L 355.802263 348.554514 
L 357.159515 340.381541 
L 358.516766 348.554514 
L 376.161035 348.554514 
L 377.518286 344.468027 
L 378.875538 348.554514 
L 388.376298 348.554514 
L 389.733549 344.468027 
L 391.090801 348.554514 
L 399.234309 348.554514 
L 400.591561 344.468027 
L 401.948812 348.554514 
L 410.092321 348.554514 
L 411.449572 344.468027 
L 412.806824 348.554514 
L 416.878578 348.554514 
L 418.23583 340.381541 
L 419.593081 348.554514 
L 420.950333 348.554514 
L 422.307584 332.208568 
L 423.664835 348.554514 
L 437.23735 348.554514 
L 438.594601 340.381541 
L 439.951853 340.381541 
L 441.309104 344.468027 
L 442.666356 332.208568 
L 444.023607 348.554514 
L 458.953373 348.554514 
L 460.310624 336.295054 
L 461.667876 348.554514 
L 475.24039 348.554514 
L 476.597642 344.468027 
L 477.954893 348.554514 
L 479.312145 348.554514 
L 480.669396 344.468027 
L 482.026648 348.554514 
L 483.383899 344.468027 
L 484.74115 348.554514 
L 486.098402 348.554514 
L 487.455653 340.381541 
L 488.812905 348.554514 
L 491.527408 348.554514 
L 492.884659 344.468027 
L 494.241911 348.554514 
L 533.602202 348.554514 
L 534.959454 344.468027 
L 537.673957 344.468027 
L 539.031208 340.381541 
L 540.38846 344.468027 
L 541.745711 319.949108 
L 543.102963 315.862622 
L 544.460214 324.035595 
L 545.817465 319.949108 
L 547.174717 324.035595 
L 548.531968 315.862622 
L 549.88922 328.122081 
L 551.246471 328.122081 
L 552.603723 332.208568 
L 553.960974 315.862622 
L 555.318226 336.295054 
L 556.675477 319.949108 
L 558.032728 336.295054 
L 559.38998 344.468027 
L 560.747231 344.468027 
L 562.104483 336.295054 
L 563.461734 319.949108 
L 564.818986 336.295054 
L 566.176237 324.035595 
L 568.89074 348.554514 
L 582.463254 348.554514 
L 583.820506 344.468027 
L 585.177757 348.554514 
L 591.964015 348.554514 
L 593.321266 336.295054 
L 594.678517 348.554514 
L 596.035769 340.381541 
L 597.39302 348.554514 
L 608.251032 348.554514 
L 609.608283 344.468027 
L 610.965535 344.468027 
L 612.322786 348.554514 
L 619.109043 348.554514 
L 620.466295 344.468027 
L 621.823546 344.468027 
L 623.180798 348.554514 
L 659.826587 348.554514 
L 661.183838 344.468027 
L 662.54109 348.554514 
L 685.614364 348.554514 
L 686.971616 344.468027 
L 688.328867 348.554514 
L 733.118165 348.554514 
L 734.475416 336.295054 
L 735.832668 332.208568 
L 737.189919 336.295054 
L 738.54717 332.208568 
L 739.904422 348.554514 
L 741.261673 344.468027 
L 742.618925 348.554514 
L 743.976176 344.468027 
L 745.333428 344.468027 
L 746.690679 348.554514 
L 764.334948 348.554514 
L 765.692199 344.468027 
L 767.049451 348.554514 
L 787.408222 348.554514 
L 788.765474 344.468027 
L 790.122725 348.554514 
L 798.266234 348.554514 
L 799.623485 344.468027 
L 800.980737 348.554514 
L 802.337988 344.468027 
L 803.69524 348.554514 
L 805.052491 344.468027 
L 806.409743 348.554514 
L 814.553251 348.554514 
L 815.910503 344.468027 
L 817.267754 348.554514 
L 829.483017 348.554514 
L 830.840269 344.468027 
L 832.19752 344.468027 
L 833.554772 348.554514 
L 834.912023 340.381541 
L 836.269274 348.554514 
L 837.626526 344.468027 
L 838.983777 344.468027 
L 840.341029 348.554514 
L 843.055532 348.554514 
L 844.412783 344.468027 
L 845.770035 348.554514 
L 855.270795 348.554514 
L 856.628046 344.468027 
L 857.985298 344.468027 
L 859.342549 348.554514 
L 860.6998 344.468027 
L 862.057052 348.554514 
L 864.771555 348.554514 
L 866.128806 340.381541 
L 867.486058 348.554514 
L 872.915063 348.554514 
L 874.272315 344.468027 
L 876.986818 344.468027 
L 878.344069 348.554514 
L 889.202081 348.554514 
L 890.559332 340.381541 
L 891.916584 348.554514 
L 895.988338 348.554514 
L 897.345589 344.468027 
L 898.702841 348.554514 
L 904.131847 348.554514 
L 905.489098 344.468027 
L 906.84635 348.554514 
L 910.918104 348.554514 
L 912.275355 344.468027 
L 913.632607 348.554514 
L 914.989858 344.468027 
L 916.34711 348.554514 
L 917.704361 344.468027 
L 919.061613 348.554514 
L 920.418864 348.554514 
L 921.776115 340.381541 
L 923.133367 348.554514 
L 924.490618 344.468027 
L 925.84787 344.468027 
L 927.205121 348.554514 
L 932.634127 348.554514 
L 933.991378 340.381541 
L 936.705881 348.554514 
L 938.063133 344.468027 
L 939.420384 348.554514 
L 940.777636 344.468027 
L 942.134887 348.554514 
L 943.492139 348.554514 
L 944.84939 344.468027 
L 946.206641 348.554514 
L 950.278396 348.554514 
L 951.635647 344.468027 
L 952.992899 344.468027 
L 954.35015 348.554514 
L 957.064653 348.554514 
L 958.421904 344.468027 
L 959.779156 348.554514 
L 966.565413 348.554514 
L 967.922665 344.468027 
L 969.279916 348.554514 
L 970.637167 311.776135 
L 971.994419 336.295054 
L 973.35167 303.603162 
L 974.708922 266.824784 
L 976.066173 328.122081 
L 977.423425 274.997757 
L 978.780676 262.738297 
L 980.137928 136.057216 
L 981.495179 185.095054 
L 982.85243 99.278838 
L 984.209682 246.392351 
L 985.566933 319.949108 
L 986.924185 315.862622 
L 988.281436 328.122081 
L 989.638688 315.862622 
L 990.995939 340.381541 
L 992.353191 336.295054 
L 993.710442 324.035595 
L 995.067693 332.208568 
L 996.424945 336.295054 
L 997.782196 348.554514 
L 999.139448 344.468027 
L 1000.496699 332.208568 
L 1001.853951 344.468027 
L 1003.211202 348.554514 
L 1009.997459 348.554514 
L 1011.354711 340.381541 
L 1012.711962 348.554514 
L 1016.783717 348.554514 
L 1018.140968 344.468027 
L 1019.498219 348.554514 
L 1020.855471 344.468027 
L 1022.212722 348.554514 
L 1028.99898 348.554514 
L 1030.356231 336.295054 
L 1031.713482 344.468027 
L 1033.070734 348.554514 
L 1035.785237 348.554514 
L 1037.142488 344.468027 
L 1038.49974 348.554514 
L 1045.285997 348.554514 
L 1046.643248 344.468027 
L 1049.357751 344.468027 
L 1050.715003 348.554514 
L 1054.786757 348.554514 
L 1056.144008 340.381541 
L 1057.50126 344.468027 
L 1058.858511 344.468027 
L 1060.215763 340.381541 
L 1061.573014 348.554514 
L 1064.287517 348.554514 
L 1065.644769 336.295054 
L 1067.00202 344.468027 
L 1068.359271 340.381541 
L 1069.716523 344.468027 
L 1071.073774 344.468027 
L 1072.431026 348.554514 
L 1080.574534 348.554514 
L 1081.931786 344.468027 
L 1083.289037 348.554514 
L 1084.646289 348.554514 
L 1086.00354 344.468027 
L 1087.360792 348.554514 
L 1099.576055 348.554514 
L 1100.933306 340.381541 
L 1102.290558 352.641 
L 1103.647809 258.651811 
L 1105.00506 299.516676 
L 1106.362312 303.603162 
L 1109.076815 230.046405 
L 1110.434066 283.17073 
L 1111.791318 319.949108 
L 1114.505821 303.603162 
L 1115.863072 307.689649 
L 1117.220323 319.949108 
L 1118.577575 324.035595 
L 1119.934826 311.776135 
L 1121.292078 315.862622 
L 1122.649329 274.997757 
L 1124.006581 307.689649 
L 1125.363832 315.862622 
L 1126.721084 344.468027 
L 1128.078335 348.554514 
L 1129.435586 340.381541 
L 1130.792838 348.554514 
L 1132.150089 348.554514 
L 1133.507341 340.381541 
L 1134.864592 348.554514 
L 1136.221844 348.554514 
L 1137.579095 332.208568 
L 1138.936347 344.468027 
L 1140.293598 332.208568 
L 1141.650849 332.208568 
L 1143.008101 336.295054 
L 1144.365352 328.122081 
L 1145.722604 311.776135 
L 1147.079855 246.392351 
L 1148.437107 209.613973 
L 1149.794358 78.846405 
L 1151.15161 156.489649 
L 1152.508861 50.241 
L 1153.866112 189.181541 
L 1155.223364 205.527486 
L 1156.580615 70.673432 
L 1157.937867 201.441 
L 1159.295118 311.776135 
L 1160.65237 311.776135 
L 1162.009621 291.343703 
L 1163.366873 234.132892 
L 1164.724124 299.516676 
L 1166.081375 307.689649 
L 1167.438627 328.122081 
L 1168.795878 311.776135 
L 1170.15313 340.381541 
L 1171.510381 328.122081 
L 1172.867633 340.381541 
L 1174.224884 348.554514 
L 1175.582136 336.295054 
L 1176.939387 319.949108 
L 1178.296638 340.381541 
L 1181.011141 348.554514 
L 1182.368393 340.381541 
L 1183.725644 344.468027 
L 1190.511901 344.468027 
L 1191.869153 340.381541 
L 1193.226404 348.554514 
L 1194.583656 344.468027 
L 1195.940907 348.554514 
L 1200.012662 348.554514 
L 1201.369913 344.468027 
L 1202.727164 336.295054 
L 1204.084416 246.392351 
L 1205.441667 348.554514 
L 1206.798919 344.468027 
L 1209.513422 344.468027 
L 1210.870673 348.554514 
L 1212.227925 344.468027 
L 1213.585176 328.122081 
L 1214.942427 348.554514 
L 1216.299679 340.381541 
L 1217.65693 340.381541 
L 1220.371433 348.554514 
L 1221.728685 348.554514 
L 1223.085936 340.381541 
L 1224.443188 328.122081 
L 1225.800439 340.381541 
L 1227.15769 348.554514 
L 1228.514942 340.381541 
L 1229.872193 340.381541 
L 1232.586696 348.554514 
L 1235.301199 348.554514 
L 1236.658451 344.468027 
L 1238.015702 348.554514 
L 1239.372953 348.554514 
L 1240.730205 344.468027 
L 1242.087456 344.468027 
L 1243.444708 348.554514 
L 1246.159211 348.554514 
L 1247.516462 340.381541 
L 1248.873714 348.554514 
L 1259.731725 348.554514 
L 1261.088977 295.430189 
L 1262.446228 348.554514 
L 1263.803479 303.603162 
L 1265.160731 340.381541 
L 1266.517982 336.295054 
L 1267.875234 348.554514 
L 1270.589737 348.554514 
L 1271.946988 340.381541 
L 1274.661491 332.208568 
L 1276.018742 332.208568 
L 1277.375994 344.468027 
L 1278.733245 348.554514 
L 1286.876754 348.554514 
L 1286.876754 348.554514 
" clip-path="url(#p3343d5c99d)" style="fill: none; stroke: #0000ff; stroke-width: 1.5; stroke-linecap: square"/>
   </g>
   <g id="line2d_21">
    <path d="M 1048.0005 344.891495 
L 1049.357751 344.604399 
L 1050.715003 347.282438 
L 1052.072254 348.144861 
L 1053.429506 348.422591 
L 1054.786757 348.51203 
L 1056.144008 342.999842 
L 1057.50126 343.99522 
L 1058.858511 344.315767 
L 1060.215763 341.648499 
L 1061.573014 346.330535 
L 1062.930266 347.838315 
L 1064.287517 348.323872 
L 1065.644769 340.168754 
L 1067.00202 343.083511 
L 1068.359271 341.251669 
L 1069.716523 343.432247 
L 1071.073774 344.13447 
L 1072.431026 347.131105 
L 1073.788277 348.096126 
L 1075.145529 348.406897 
L 1077.860032 348.539205 
L 1080.574534 348.552926 
L 1081.931786 345.783507 
L 1083.289037 347.662153 
L 1084.646289 348.267142 
L 1086.00354 345.691475 
L 1087.360792 347.632515 
L 1088.718043 348.257598 
L 1090.075295 348.458896 
L 1094.147049 348.55132 
L 1099.576055 348.554479 
L 1100.933306 343.013513 
L 1102.290558 349.540612 
L 1103.647809 287.921182 
L 1105.00506 295.782521 
L 1106.362312 301.084642 
L 1107.719563 277.857656 
L 1109.076815 245.4433 
L 1110.434066 271.021178 
L 1111.791318 304.192604 
L 1113.148569 309.333973 
L 1114.505821 305.448684 
L 1115.863072 306.96798 
L 1117.220323 315.768731 
L 1118.577575 321.373375 
L 1119.934826 314.866782 
L 1121.292078 315.541926 
L 1122.649329 288.054397 
L 1124.006581 301.366411 
L 1125.363832 311.194335 
L 1126.721084 333.752735 
L 1128.078335 343.787823 
L 1129.435586 341.478483 
L 1130.792838 346.275784 
L 1132.150089 347.820683 
L 1133.507341 342.777204 
L 1134.864592 346.694018 
L 1136.221844 347.955369 
L 1137.579095 337.279588 
L 1138.936347 342.153098 
L 1140.293598 335.411054 
L 1141.650849 333.23988 
L 1143.008101 335.311181 
L 1144.365352 330.437223 
L 1145.722604 317.785658 
L 1147.079855 269.383492 
L 1148.437107 228.861848 
L 1149.794358 127.156622 
L 1151.15161 147.043389 
L 1152.508861 81.414753 
L 1153.866112 154.476868 
L 1155.223364 189.087402 
L 1156.580615 108.806871 
L 1157.937867 171.609572 
L 1159.295118 266.637601 
L 1160.65237 297.239949 
L 1162.009621 293.2425 
L 1163.366873 253.168252 
L 1164.724124 284.590863 
L 1166.081375 300.251032 
L 1167.438627 319.146629 
L 1168.795878 314.149692 
L 1170.15313 331.933968 
L 1171.510381 329.349642 
L 1174.224884 344.778451 
L 1175.582136 339.027004 
L 1176.939387 326.092858 
L 1178.296638 335.780085 
L 1179.65389 341.670206 
L 1181.011141 346.337526 
L 1182.368393 342.299576 
L 1183.725644 343.76971 
L 1185.082896 344.243145 
L 1187.797399 344.444705 
L 1190.511901 344.465608 
L 1191.869153 341.696753 
L 1193.226404 346.346075 
L 1194.583656 345.072824 
L 1195.940907 347.433288 
L 1197.298159 348.19344 
L 1198.65541 348.438235 
L 1200.012662 348.517068 
L 1201.369913 345.77196 
L 1202.727164 339.346949 
L 1204.084416 276.326982 
L 1205.441667 325.294723 
L 1206.798919 338.293553 
L 1208.15617 342.47963 
L 1209.513422 343.827694 
L 1210.870673 347.032312 
L 1212.227925 345.293817 
L 1213.585176 333.65198 
L 1214.942427 343.755377 
L 1216.299679 341.468034 
L 1217.65693 340.731429 
L 1219.014182 343.264712 
L 1220.371433 346.851012 
L 1221.728685 348.005927 
L 1223.085936 342.836859 
L 1224.443188 332.860754 
L 1225.800439 337.959584 
L 1227.15769 345.142576 
L 1228.514942 341.91476 
L 1229.872193 340.875291 
L 1231.229445 343.31104 
L 1232.586696 346.865932 
L 1233.943948 348.010731 
L 1235.301199 348.379397 
L 1236.658451 345.727625 
L 1238.015702 347.644157 
L 1239.372953 348.261347 
L 1240.730205 345.689609 
L 1242.087456 344.861419 
L 1243.444708 347.365208 
L 1244.801959 348.171516 
L 1246.159211 348.431175 
L 1247.516462 342.973804 
L 1248.873714 346.75733 
L 1250.230965 347.975758 
L 1251.588216 348.368134 
L 1254.302719 348.535185 
L 1259.731725 348.554306 
L 1261.088977 312.538012 
L 1262.446228 336.955941 
L 1263.803479 314.343923 
L 1265.160731 331.996517 
L 1266.517982 334.910775 
L 1267.875234 344.160753 
L 1269.232485 347.139569 
L 1270.589737 348.098852 
L 1271.946988 342.866785 
L 1274.661491 334.20609 
L 1276.018742 332.85184 
L 1277.375994 340.727209 
L 1278.733245 346.033848 
L 1280.090497 347.742771 
L 1281.447748 348.293104 
L 1282.805 348.470331 
L 1286.876754 348.551702 
L 1286.876754 348.551702 
" clip-path="url(#p3343d5c99d)" style="fill: none; stroke: #ffa500; stroke-width: 1.5; stroke-linecap: square"/>
   </g>
   <g id="line2d_22">
    <path d="M 1286.876754 348.551702 
L 1288.234005 348.551702 
L 1289.591257 348.551702 
L 1290.948508 348.551702 
L 1292.30576 348.551702 
L 1293.663011 348.551702 
L 1295.020263 348.551702 
L 1296.377514 348.551702 
L 1297.734766 348.551702 
L 1299.092017 348.551702 
L 1300.449268 348.551702 
L 1301.80652 348.551702 
L 1303.163771 348.551702 
L 1304.521023 348.551702 
" clip-path="url(#p3343d5c99d)" style="fill: none; stroke: #ff0000; stroke-width: 1.5; stroke-linecap: square"/>
   </g>
   <g id="patch_3">
    <path d="M 26.19375 367.761 
L 26.19375 35.121 
" style="fill: none; stroke: #000000; stroke-width: 0.8; stroke-linejoin: miter; stroke-linecap: square"/>
   </g>
   <g id="patch_4">
    <path d="M 1365.39375 367.761 
L 1365.39375 35.121 
" style="fill: none; stroke: #000000; stroke-width: 0.8; stroke-linejoin: miter; stroke-linecap: square"/>
   </g>
   <g id="patch_5">
    <path d="M 26.19375 367.761 
L 1365.39375 367.761 
" style="fill: none; stroke: #000000; stroke-width: 0.8; stroke-linejoin: miter; stroke-linecap: square"/>
   </g>
   <g id="patch_6">
    <path d="M 26.19375 35.121 
L 1365.39375 35.121 
" style="fill: none; stroke: #000000; stroke-width: 0.8; stroke-linejoin: miter; stroke-linecap: square"/>
   </g>
   <g id="text_20">
    <!-- 每日新增预测 - 辽宁 -->
    <g transform="translate(642.396563 17.101875)scale(0.12 -0.12)">
     <defs>
      <path id="WenQuanYiZenHei-6bcf" d="M 6138 2181 
Q 6113 1988 6138 1800 
Q 5788 1819 5438 1819 
L 4975 1819 
L 4863 738 
L 5806 738 
L 5806 394 
L 4831 394 
L 4775 -144 
Q 4719 -563 4350 -725 
Q 4013 -856 3550 -825 
L 3288 -819 
Q 3331 -663 3275 -519 
Q 3219 -375 3113 -288 
Q 3381 -313 3759 -303 
Q 4138 -294 4231 -238 
Q 4338 -163 4350 88 
L 4381 394 
L 1025 394 
L 1244 1819 
L 813 1819 
Q 463 1819 113 1800 
Q 138 1988 113 2181 
Q 463 2163 813 2163 
L 1294 2163 
L 1488 3431 
L 1488 3581 
L 1506 3581 
L 1513 3613 
L 1713 3581 
L 5156 3581 
L 5013 2163 
L 5438 2163 
Q 5788 2163 6138 2181 
z
M 5588 4463 
Q 5569 4269 5588 4081 
Q 5244 4100 4894 4100 
L 1813 4100 
Q 1344 3463 606 2788 
Q 481 2988 256 3069 
Q 744 3494 1116 3972 
Q 1488 4450 1919 5181 
Q 2119 5044 2344 4950 
Q 2213 4688 2050 4444 
L 4894 4444 
Q 5238 4444 5588 4463 
z
M 2844 3238 
L 1906 3238 
L 1744 2163 
L 3244 2163 
L 2581 3038 
L 2844 3238 
z
M 3250 2163 
L 4563 2163 
L 4669 3238 
L 3044 3238 
L 3638 2456 
L 3250 2163 
z
M 2944 1819 
Q 3275 1394 3550 938 
L 3213 738 
L 4419 738 
L 4525 1819 
L 2944 1819 
z
M 2656 1819 
L 1694 1819 
L 1525 738 
L 3094 738 
Q 2806 1219 2450 1650 
L 2656 1819 
z
" transform="scale(0.015625)"/>
      <path id="WenQuanYiZenHei-65e5" d="M 1494 -775 
Q 1244 -750 988 -775 
Q 1013 -313 1013 156 
L 1013 4875 
L 5269 4875 
L 5269 -763 
L 4813 -763 
L 4813 156 
L 1469 156 
Q 1469 -313 1494 -775 
z
M 4813 2700 
L 4813 4500 
L 1469 4500 
L 1469 2700 
L 4813 2700 
z
M 4813 531 
L 4813 2325 
L 1469 2325 
L 1469 531 
L 4813 531 
z
" transform="scale(0.015625)"/>
      <path id="WenQuanYiZenHei-65b0" d="M 5419 -763 
Q 5188 -738 4963 -763 
Q 4981 -344 4981 75 
L 4981 2819 
L 4188 2819 
L 4188 1706 
Q 4188 63 3163 -738 
Q 3019 -519 2769 -469 
Q 3769 131 3769 1706 
L 3769 4769 
L 3875 4769 
L 3844 4831 
L 4294 4781 
Q 4438 4769 4894 4816 
Q 5350 4863 5512 4931 
Q 5675 5000 5763 5094 
Q 5850 4881 5981 4694 
Q 5713 4544 5263 4519 
L 4188 4438 
L 4188 3100 
L 5563 3100 
Q 5850 3100 6131 3113 
Q 6119 2956 6131 2806 
L 5394 2819 
L 5394 75 
Q 5394 -344 5419 -763 
z
M 2981 213 
Q 2656 744 2256 1225 
L 2606 1513 
Q 3025 1006 3369 450 
L 2981 213 
z
M 1169 1525 
Q 1375 1419 1594 1363 
Q 1281 488 469 -469 
Q 331 -300 119 -244 
Q 575 263 888 900 
Q 1038 1206 1169 1525 
z
M 1825 6 
L 1825 1769 
L 1081 1769 
Q 794 1769 513 1756 
Q 525 1913 513 2063 
Q 794 2050 1081 2050 
L 1825 2050 
L 1825 2775 
L 994 2775 
Q 706 2775 425 2763 
Q 438 2919 425 3075 
Q 706 3056 994 3056 
L 1825 3056 
L 1825 3088 
L 1906 3088 
Q 2288 3656 2588 4381 
Q 2794 4269 3013 4206 
Q 2800 3675 2381 3056 
L 3013 3056 
Q 3294 3056 3581 3075 
Q 3563 2919 3581 2763 
Q 3294 2775 3013 2775 
L 2238 2775 
L 2238 2050 
L 2925 2050 
Q 3206 2050 3494 2063 
Q 3475 1913 3494 1756 
Q 3206 1769 2925 1769 
L 2238 1769 
L 2238 -156 
Q 2238 -413 2075 -581 
Q 1844 -794 1306 -794 
Q 1363 -519 1188 -288 
Q 1338 -313 1534 -316 
Q 1731 -319 1778 -278 
Q 1825 -238 1825 6 
z
M 1875 3388 
L 1500 3131 
L 825 4088 
L 1200 4350 
L 1875 3388 
z
M 3419 4713 
Q 3400 4563 3419 4406 
Q 3131 4419 2850 4419 
L 1125 4419 
Q 838 4419 556 4406 
Q 569 4563 556 4713 
Q 838 4700 1125 4700 
L 1763 4700 
L 1388 5088 
L 1719 5406 
L 2288 4813 
L 2175 4700 
L 2850 4700 
Q 3131 4700 3419 4713 
z
" transform="scale(0.015625)"/>
      <path id="WenQuanYiZenHei-589e" d="M 3138 -769 
Q 2913 -744 2688 -769 
Q 2706 -356 2706 56 
L 2706 1719 
L 5706 1719 
L 5706 -756 
L 5300 -756 
L 5300 -338 
L 3119 -338 
Q 3125 -550 3138 -769 
z
M 5113 3569 
Q 5344 3606 5563 3688 
Q 5669 3175 5256 2694 
Q 5113 2519 4975 2506 
Q 4831 2725 4588 2813 
Q 4806 2831 4997 3068 
Q 5188 3306 5113 3569 
z
M 3850 2763 
L 3469 2538 
L 2925 3456 
L 3313 3681 
L 3850 2763 
z
M 2400 2100 
Q 2469 3138 2400 4175 
L 3413 4175 
Q 3138 4550 2825 4888 
L 3156 5194 
Q 3581 4725 3938 4206 
L 3900 4175 
L 4456 4175 
Q 4863 4575 5131 5163 
Q 5325 5044 5538 4975 
Q 5369 4575 5013 4175 
L 6056 4175 
Q 5981 3138 6056 2100 
L 2400 2100 
z
M 5300 806 
L 5300 1450 
L 3113 1450 
Q 3113 1125 3113 806 
L 5300 806 
z
M 5300 563 
L 3113 563 
L 3113 -94 
L 5300 -94 
L 5300 563 
z
M 4431 3913 
L 4431 2363 
L 5650 2363 
L 5650 3913 
L 4756 3913 
L 4700 3856 
Q 4681 3888 4656 3913 
L 4431 3913 
z
M 4025 3913 
L 2806 3913 
L 2806 2363 
L 4025 2363 
L 4025 3913 
z
M -31 625 
Q 506 763 1006 975 
L 1006 3206 
L 669 3206 
Q 369 3206 75 3188 
Q 94 3356 75 3531 
Q 369 3513 669 3513 
L 1006 3513 
L 1006 4263 
Q 1006 4700 981 5131 
Q 1206 5106 1431 5131 
Q 1413 4700 1413 4263 
L 1413 3513 
L 2238 3531 
Q 2219 3356 2238 3188 
L 1413 3206 
L 1413 1163 
L 2150 1531 
L 2194 1256 
Q 1269 775 813 519 
L 194 144 
Q 138 438 -31 625 
z
" transform="scale(0.015625)"/>
      <path id="WenQuanYiZenHei-9884" d="M 1206 19 
L 1206 2888 
L 669 2888 
Q 356 2888 50 2869 
Q 63 3044 50 3213 
Q 363 3194 669 3194 
L 1250 3194 
Q 950 3631 606 4031 
L 963 4338 
L 1263 3975 
L 1913 4719 
L 731 4719 
Q 419 4719 106 4706 
Q 125 4875 106 5044 
Q 419 5031 731 5031 
L 2481 5031 
L 2544 4663 
Q 2394 4613 2256 4466 
Q 2119 4319 1525 3631 
Q 1656 3444 1788 3250 
L 1700 3194 
L 2700 3194 
L 2763 2825 
Q 2656 2819 2613 2763 
L 2100 2038 
L 1750 2288 
L 2175 2888 
L 1638 2888 
L 1638 -150 
Q 1638 -525 1363 -669 
Q 1075 -819 525 -813 
Q 594 -513 388 -294 
Q 575 -313 837 -316 
Q 1100 -319 1153 -272 
Q 1206 -225 1206 19 
z
M 5813 -888 
Q 5100 -225 4306 375 
L 4669 719 
Q 5481 106 6219 -575 
L 5813 -888 
z
M 2375 -906 
Q 2294 -631 2025 -506 
Q 2769 -431 3353 19 
Q 3938 469 3938 1069 
L 3938 2200 
Q 3938 2625 3913 3050 
Q 4188 3025 4456 3050 
Q 4431 2625 4431 2200 
L 4431 1069 
Q 4431 681 4225 319 
Q 3644 -606 2375 -906 
z
M 3444 488 
Q 3169 513 2894 488 
Q 2919 913 2919 1338 
L 2919 3675 
Q 3219 3675 3525 3675 
Q 3750 4013 3931 4525 
L 3238 4525 
Q 2888 4525 2538 4513 
Q 2556 4669 2538 4831 
Q 2888 4813 3238 4813 
L 5313 4813 
Q 5663 4813 6006 4831 
Q 5988 4669 6006 4513 
Q 5663 4525 5313 4525 
L 4481 4525 
Q 4388 4088 4088 3675 
L 5644 3675 
L 5644 513 
L 5144 513 
L 5144 3388 
L 3894 3388 
L 3875 3363 
Q 3863 3375 3844 3388 
Q 3631 3388 3413 3388 
L 3419 1338 
Q 3419 913 3444 488 
z
" transform="scale(0.015625)"/>
      <path id="WenQuanYiZenHei-6d4b" d="M 5450 138 
L 5450 4306 
Q 5450 4750 5425 5188 
Q 5663 5163 5906 5188 
Q 5881 4750 5881 4306 
L 5881 -38 
Q 5888 -569 5519 -719 
Q 5194 -831 4825 -813 
Q 4894 -519 4694 -281 
Q 4869 -306 5094 -309 
Q 5319 -313 5384 -256 
Q 5450 -200 5450 138 
z
M 4900 938 
Q 4663 963 4419 938 
Q 4444 1375 4444 1819 
L 4444 3381 
Q 4444 3819 4419 4263 
Q 4663 4238 4900 4263 
Q 4875 3819 4875 3381 
L 4875 1819 
Q 4875 1375 4900 938 
z
M 2750 2025 
L 2750 3038 
Q 2750 3481 2725 3919 
Q 2963 3894 3206 3919 
Q 3181 3481 3181 3038 
L 3181 2025 
Q 3181 1263 2919 625 
L 3231 956 
Q 3781 431 4256 -150 
L 3888 -456 
Q 3431 106 2906 600 
Q 2531 -288 1738 -769 
Q 1606 -519 1338 -450 
Q 1988 -156 2369 478 
Q 2750 1113 2750 2025 
z
M 2363 969 
Q 2119 994 1881 969 
Q 1906 1406 1906 1850 
L 1906 5038 
L 3956 5031 
L 3956 1200 
L 3525 1200 
L 3525 4713 
L 2338 4713 
L 2338 1850 
Q 2338 1406 2363 969 
z
M 663 -738 
Q 481 -588 206 -575 
Q 400 -69 606 581 
Q 813 1231 1200 2838 
L 1381 2706 
L 875 338 
L 663 -738 
z
M 1006 2856 
L 731 2550 
L 75 3400 
L 350 3713 
L 1006 2856 
z
M 1088 3913 
Q 781 4388 425 4800 
L 694 5125 
Q 1069 4688 1388 4188 
L 1088 3913 
z
" transform="scale(0.015625)"/>
      <path id="WenQuanYiZenHei-20" transform="scale(0.015625)"/>
      <path id="WenQuanYiZenHei-8fbd" d="M 3756 881 
L 3756 4056 
L 4738 4825 
L 2844 4825 
Q 2463 4825 2081 4806 
Q 2106 5013 2081 5219 
Q 2463 5200 2844 5200 
L 5538 5200 
L 5581 4781 
Q 5381 4738 5219 4619 
L 4219 3831 
L 4219 713 
Q 4219 113 3438 25 
L 3231 13 
Q 3294 344 3081 613 
Q 3219 569 3375 550 
Q 3663 544 3709 584 
Q 3756 625 3756 881 
z
M 131 2781 
Q 156 2988 131 3194 
Q 513 3175 894 3175 
L 1531 3175 
L 1531 513 
Q 2000 75 2419 -75 
Q 2838 -225 3569 -225 
L 6031 -244 
Q 5781 -425 5800 -725 
L 3569 -731 
Q 2613 -725 2013 -375 
Q 1550 -113 1275 269 
L 481 -644 
Q 319 -450 125 -288 
L 344 -100 
L 1075 544 
L 1075 2800 
L 894 2800 
Q 513 2800 131 2781 
z
M 1850 4344 
L 1456 4038 
L 800 4869 
L 1194 5181 
L 1850 4344 
z
" transform="scale(0.015625)"/>
      <path id="WenQuanYiZenHei-5b81" d="M 2944 -6 
L 2944 2450 
L 1044 2450 
Q 663 2450 281 2431 
Q 300 2638 281 2844 
Q 663 2825 1044 2825 
L 5281 2825 
Q 5663 2825 6044 2844 
Q 6025 2638 6044 2431 
Q 5663 2450 5281 2450 
L 3400 2450 
L 3400 -150 
Q 3400 -413 3213 -594 
Q 2944 -831 2213 -825 
Q 2288 -506 2063 -269 
Q 2269 -294 2553 -294 
Q 2838 -294 2891 -250 
Q 2944 -206 2944 -6 
z
M 688 3319 
L 231 3319 
L 231 4344 
L 2856 4344 
Q 2519 4725 2138 5056 
L 2469 5438 
Q 2963 5006 3388 4500 
L 3206 4344 
L 6025 4344 
L 6025 3319 
L 5563 3319 
L 5563 3969 
L 688 3969 
L 688 3319 
z
" transform="scale(0.015625)"/>
     </defs>
     <use xlink:href="#WenQuanYiZenHei-6bcf"/>
     <use xlink:href="#WenQuanYiZenHei-65e5" x="100"/>
     <use xlink:href="#WenQuanYiZenHei-65b0" x="200"/>
     <use xlink:href="#WenQuanYiZenHei-589e" x="300"/>
     <use xlink:href="#WenQuanYiZenHei-9884" x="400"/>
     <use xlink:href="#WenQuanYiZenHei-6d4b" x="500"/>
     <use xlink:href="#WenQuanYiZenHei-20" x="600"/>
     <use xlink:href="#WenQuanYiZenHei-2d" x="629.980469"/>
     <use xlink:href="#WenQuanYiZenHei-20" x="659.960938"/>
     <use xlink:href="#WenQuanYiZenHei-8fbd" x="689.941406"/>
     <use xlink:href="#WenQuanYiZenHei-5b81" x="789.941406"/>
    </g>
    <!-- ARIMA (0, 1, 1)x(0, 0, 0, 7) (R2 = 0.960143) -->
    <g transform="translate(577.185938 29.121)scale(0.12 -0.12)">
     <defs>
      <path id="WenQuanYiZenHei-41" d="M 3550 0 
L 2988 0 
L 2550 1281 
L 919 1281 
L 531 0 
L 69 0 
L 1494 4388 
L 2125 4388 
L 3550 0 
z
M 2425 1694 
L 1756 3800 
L 1075 1694 
L 2425 1694 
z
" transform="scale(0.015625)"/>
      <path id="WenQuanYiZenHei-52" d="M 3675 0 
L 3100 0 
L 2288 1900 
L 1069 1900 
L 1069 0 
L 519 0 
L 519 4388 
L 2163 4388 
Q 3006 4388 3400 3900 
Q 3581 3663 3625 3325 
Q 3631 3250 3631 3163 
Q 3631 2594 3219 2244 
Q 3038 2100 2813 2038 
L 3675 0 
z
M 3081 3169 
Q 3081 3825 2356 3906 
Q 2263 3919 2163 3919 
L 1069 3919 
L 1069 2350 
L 2100 2350 
Q 2906 2350 3044 2919 
Q 3081 3031 3081 3169 
z
" transform="scale(0.015625)"/>
      <path id="WenQuanYiZenHei-49" d="M 1100 0 
L 550 0 
L 550 4388 
L 1100 4388 
L 1100 0 
z
" transform="scale(0.015625)"/>
      <path id="WenQuanYiZenHei-4d" d="M 4756 0 
L 4206 0 
L 4206 3831 
L 4181 3831 
L 2788 0 
L 2419 0 
L 1000 3831 
L 975 3831 
L 975 0 
L 513 0 
L 513 4388 
L 1331 4388 
L 2656 875 
L 3950 4388 
L 4756 4388 
L 4756 0 
z
" transform="scale(0.015625)"/>
      <path id="WenQuanYiZenHei-28" d="M 1606 -1094 
L 1275 -1094 
Q 475 -100 338 1231 
Q 319 1438 319 1656 
Q 319 3031 1156 4244 
Q 1213 4313 1269 4388 
L 1600 4388 
Q 806 3169 794 1681 
Q 794 188 1606 -1094 
z
" transform="scale(0.015625)"/>
      <path id="WenQuanYiZenHei-2c" d="M 1363 75 
L 881 -825 
L 606 -825 
L 994 0 
L 656 0 
L 656 738 
L 1363 738 
L 1363 75 
z
" transform="scale(0.015625)"/>
      <path id="WenQuanYiZenHei-29" d="M 1600 1656 
Q 1600 306 869 -788 
Q 769 -950 644 -1094 
L 313 -1094 
Q 1125 188 1125 1681 
Q 1125 3169 338 4363 
Q 325 4375 319 4388 
L 650 4388 
Q 1525 3231 1594 1863 
Q 1600 1763 1600 1656 
z
" transform="scale(0.015625)"/>
      <path id="WenQuanYiZenHei-78" d="M 2806 0 
L 2213 0 
L 1394 1319 
L 544 0 
L 50 0 
L 1144 1681 
L 163 3250 
L 744 3250 
L 1431 2138 
L 2144 3250 
L 2631 3250 
L 1681 1794 
L 2806 0 
z
" transform="scale(0.015625)"/>
      <path id="WenQuanYiZenHei-3d" d="M 3569 2256 
L 263 2256 
L 263 2675 
L 3569 2675 
L 3569 2256 
z
M 3569 1019 
L 263 1019 
L 263 1431 
L 3569 1431 
L 3569 1019 
z
" transform="scale(0.015625)"/>
      <path id="WenQuanYiZenHei-2e" d="M 1344 0 
L 631 0 
L 631 725 
L 1344 725 
L 1344 0 
z
" transform="scale(0.015625)"/>
      <path id="WenQuanYiZenHei-39" d="M 3544 2300 
Q 3544 1163 3019 513 
Q 2563 -63 1775 -63 
Q 956 -63 563 488 
Q 463 631 394 813 
L 838 975 
Q 1025 494 1550 388 
Q 1656 369 1775 369 
Q 2594 369 2900 1325 
Q 3044 1769 3038 2313 
L 3025 2313 
Q 2675 1638 1944 1544 
Q 1844 1531 1744 1531 
Q 1050 1531 625 2031 
Q 294 2419 294 2963 
Q 294 3656 813 4094 
Q 1238 4456 1819 4456 
Q 2988 4456 3381 3363 
Q 3544 2900 3544 2300 
z
M 2925 2994 
Q 2925 3563 2469 3844 
Q 2206 4006 1863 4006 
Q 1275 4006 988 3563 
Q 844 3344 825 3056 
Q 819 3006 819 2956 
Q 819 2413 1269 2131 
Q 1538 1963 1875 1963 
Q 2363 1963 2681 2350 
Q 2925 2638 2925 2994 
z
" transform="scale(0.015625)"/>
     </defs>
     <use xlink:href="#WenQuanYiZenHei-41"/>
     <use xlink:href="#WenQuanYiZenHei-52" x="55.957031"/>
     <use xlink:href="#WenQuanYiZenHei-49" x="117.871094"/>
     <use xlink:href="#WenQuanYiZenHei-4d" x="143.847656"/>
     <use xlink:href="#WenQuanYiZenHei-41" x="225.78125"/>
     <use xlink:href="#WenQuanYiZenHei-20" x="281.738281"/>
     <use xlink:href="#WenQuanYiZenHei-28" x="311.71875"/>
     <use xlink:href="#WenQuanYiZenHei-30" x="341.699219"/>
     <use xlink:href="#WenQuanYiZenHei-2c" x="401.660156"/>
     <use xlink:href="#WenQuanYiZenHei-20" x="431.640625"/>
     <use xlink:href="#WenQuanYiZenHei-31" x="461.621094"/>
     <use xlink:href="#WenQuanYiZenHei-2c" x="521.582031"/>
     <use xlink:href="#WenQuanYiZenHei-20" x="551.5625"/>
     <use xlink:href="#WenQuanYiZenHei-31" x="581.542969"/>
     <use xlink:href="#WenQuanYiZenHei-29" x="641.503906"/>
     <use xlink:href="#WenQuanYiZenHei-78" x="671.484375"/>
     <use xlink:href="#WenQuanYiZenHei-28" x="715.429688"/>
     <use xlink:href="#WenQuanYiZenHei-30" x="745.410156"/>
     <use xlink:href="#WenQuanYiZenHei-2c" x="805.371094"/>
     <use xlink:href="#WenQuanYiZenHei-20" x="835.351562"/>
     <use xlink:href="#WenQuanYiZenHei-30" x="865.332031"/>
     <use xlink:href="#WenQuanYiZenHei-2c" x="925.292969"/>
     <use xlink:href="#WenQuanYiZenHei-20" x="955.273438"/>
     <use xlink:href="#WenQuanYiZenHei-30" x="985.253906"/>
     <use xlink:href="#WenQuanYiZenHei-2c" x="1045.214844"/>
     <use xlink:href="#WenQuanYiZenHei-20" x="1075.195312"/>
     <use xlink:href="#WenQuanYiZenHei-37" x="1105.175781"/>
     <use xlink:href="#WenQuanYiZenHei-29" x="1165.136719"/>
     <use xlink:href="#WenQuanYiZenHei-20" x="1195.117188"/>
     <use xlink:href="#WenQuanYiZenHei-28" x="1225.097656"/>
     <use xlink:href="#WenQuanYiZenHei-52" x="1255.078125"/>
     <use xlink:href="#WenQuanYiZenHei-32" x="1316.992188"/>
     <use xlink:href="#WenQuanYiZenHei-20" x="1376.953125"/>
     <use xlink:href="#WenQuanYiZenHei-3d" x="1406.933594"/>
     <use xlink:href="#WenQuanYiZenHei-20" x="1466.894531"/>
     <use xlink:href="#WenQuanYiZenHei-30" x="1496.875"/>
     <use xlink:href="#WenQuanYiZenHei-2e" x="1556.835938"/>
     <use xlink:href="#WenQuanYiZenHei-39" x="1586.816406"/>
     <use xlink:href="#WenQuanYiZenHei-36" x="1646.777344"/>
     <use xlink:href="#WenQuanYiZenHei-30" x="1706.738281"/>
     <use xlink:href="#WenQuanYiZenHei-31" x="1766.699219"/>
     <use xlink:href="#WenQuanYiZenHei-34" x="1826.660156"/>
     <use xlink:href="#WenQuanYiZenHei-33" x="1886.621094"/>
     <use xlink:href="#WenQuanYiZenHei-29" x="1946.582031"/>
    </g>
   </g>
   <g id="legend_1">
    <g id="patch_7">
     <path d="M 1296.39375 87.116312 
L 1358.39375 87.116312 
Q 1360.39375 87.116312 1360.39375 85.116312 
L 1360.39375 42.121 
Q 1360.39375 40.121 1358.39375 40.121 
L 1296.39375 40.121 
Q 1294.39375 40.121 1294.39375 42.121 
L 1294.39375 85.116312 
Q 1294.39375 87.116312 1296.39375 87.116312 
z
" style="fill: #ffffff; opacity: 0.8; stroke: #cccccc; stroke-linejoin: miter"/>
    </g>
    <g id="line2d_23">
     <path d="M 1298.39375 48.755375 
L 1308.39375 48.755375 
L 1318.39375 48.755375 
" style="fill: none; stroke: #0000ff; stroke-width: 1.5; stroke-linecap: square"/>
    </g>
    <g id="text_21">
     <!-- 实际值 -->
     <g transform="translate(1326.39375 52.255375)scale(0.1 -0.1)">
      <defs>
       <path id="WenQuanYiZenHei-5b9e" d="M 1025 1175 
Q 694 1175 356 1163 
Q 375 1344 356 1525 
Q 694 1506 1025 1506 
L 3363 1506 
L 3363 2625 
Q 3363 3075 3338 3519 
Q 3581 3494 3825 3519 
Q 3800 3075 3800 2625 
L 3800 1506 
L 5406 1506 
Q 5744 1506 6075 1525 
Q 6056 1344 6075 1163 
Q 5744 1175 5406 1175 
L 4038 1175 
L 4981 456 
L 6131 -488 
L 5819 -856 
L 4681 75 
L 3638 875 
Q 3313 231 2475 -231 
Q 1638 -694 700 -825 
Q 638 -519 344 -400 
Q 1450 -319 2406 244 
Q 3113 656 3300 1175 
L 1025 1175 
z
M 2263 1581 
Q 1763 2081 1200 2513 
L 1494 2894 
Q 2081 2444 2600 1919 
L 2263 1581 
z
M 2638 2500 
Q 2219 2963 1731 3363 
L 2044 3738 
Q 2556 3313 3000 2819 
L 2638 2500 
z
M 919 3156 
L 481 3156 
L 481 4344 
L 3069 4344 
Q 2794 4731 2469 5081 
L 2825 5413 
Q 3256 4944 3613 4413 
L 3513 4344 
L 5869 4344 
L 5869 3156 
L 5425 3156 
L 5425 4013 
L 919 4013 
L 919 3156 
z
" transform="scale(0.015625)"/>
       <path id="WenQuanYiZenHei-9645" d="M 6000 431 
L 5569 194 
L 4963 1219 
L 4313 2219 
L 4719 2494 
L 5375 1481 
L 6000 431 
z
M 2956 2450 
Q 3181 2344 3419 2294 
Q 3006 1038 1944 -188 
Q 1794 -6 1569 56 
Q 2069 600 2372 1156 
Q 2675 1713 2956 2450 
z
M 3750 25 
L 3750 2913 
L 2819 2913 
Q 2475 2913 2125 2894 
Q 2144 3081 2125 3269 
Q 2475 3256 2819 3256 
L 5469 3256 
Q 5819 3256 6163 3269 
Q 6144 3081 6163 2894 
Q 5813 2913 5469 2913 
L 4194 2913 
L 4194 -144 
Q 4194 -725 3456 -813 
L 3263 -825 
Q 3325 -506 3125 -250 
Q 3250 -281 3394 -306 
Q 3663 -313 3706 -272 
Q 3750 -231 3750 25 
z
M 5544 4950 
Q 5525 4756 5544 4569 
Q 5194 4588 4844 4588 
L 3325 4588 
Q 2975 4588 2625 4569 
Q 2644 4756 2625 4950 
Q 2975 4931 3325 4931 
L 4844 4931 
Q 5194 4931 5544 4950 
z
M 819 -850 
Q 581 -825 344 -850 
Q 369 -419 369 19 
L 363 4938 
L 2256 4938 
L 2256 4625 
Q 2150 4513 2075 4375 
L 1481 3238 
Q 2181 2319 2181 1156 
Q 2144 400 1569 163 
L 1406 88 
Q 1288 300 1138 481 
Q 1294 538 1450 606 
Q 1763 744 1794 1156 
Q 1794 1744 1600 2300 
Q 1406 2856 1038 3313 
L 1725 4625 
L 788 4625 
L 794 19 
Q 794 -419 819 -850 
z
" transform="scale(0.015625)"/>
       <path id="WenQuanYiZenHei-503c" d="M 6175 -219 
Q 6156 -388 6175 -556 
Q 5863 -544 5550 -544 
L 2313 -544 
Q 2000 -544 1688 -556 
Q 1706 -388 1688 -219 
L 2506 -231 
L 2506 3469 
L 3644 3469 
L 3644 4119 
L 2638 4119 
Q 2325 4119 2013 4100 
Q 2031 4269 2013 4438 
Q 2325 4425 2638 4425 
L 3638 4425 
Q 3638 4719 3619 5013 
Q 3856 4988 4094 5013 
Q 4075 4719 4075 4425 
L 5344 4425 
Q 5650 4425 5963 4438 
Q 5950 4269 5963 4100 
Q 5656 4119 5344 4119 
L 4069 4119 
L 4069 3469 
L 5300 3469 
L 5300 -231 
L 5550 -231 
Q 5863 -231 6175 -219 
z
M 4869 2556 
L 4869 3156 
L 2931 3156 
Q 2931 2850 2931 2556 
L 4869 2556 
z
M 4869 1669 
L 4869 2250 
L 2931 2250 
L 2931 1669 
L 4869 1669 
z
M 4869 731 
L 4869 1363 
L 2931 1363 
L 2931 731 
L 4869 731 
z
M 4869 -231 
L 4869 425 
L 2931 425 
L 2931 -231 
L 4869 -231 
z
M 2106 4925 
Q 1856 4075 1463 3338 
L 1463 31 
Q 1463 -413 1481 -850 
Q 1256 -825 1031 -850 
Q 1050 -413 1050 31 
L 1050 2681 
Q 750 2269 375 1931 
Q 238 2156 0 2256 
Q 331 2544 619 2875 
Q 1094 3425 1300 3950 
Q 1494 4469 1625 5050 
Q 1850 4963 2106 4925 
z
" transform="scale(0.015625)"/>
      </defs>
      <use xlink:href="#WenQuanYiZenHei-5b9e"/>
      <use xlink:href="#WenQuanYiZenHei-9645" x="100"/>
      <use xlink:href="#WenQuanYiZenHei-503c" x="200"/>
     </g>
    </g>
    <g id="line2d_24">
     <path d="M 1298.39375 63.4335 
L 1308.39375 63.4335 
L 1318.39375 63.4335 
" style="fill: none; stroke: #ffa500; stroke-width: 1.5; stroke-linecap: square"/>
    </g>
    <g id="text_22">
     <!-- 校验值 -->
     <g transform="translate(1326.39375 66.9335)scale(0.1 -0.1)">
      <defs>
       <path id="WenQuanYiZenHei-6821" d="M 5256 2463 
Q 5025 1475 4494 706 
Q 5125 -94 6175 -544 
Q 5950 -663 5850 -900 
Q 4906 -494 4250 381 
Q 3931 0 3475 -350 
Q 3019 -700 2388 -919 
Q 2338 -656 2138 -475 
Q 3306 -69 4006 738 
Q 3563 1444 3300 2331 
Q 3050 2050 2706 1800 
Q 2606 2000 2406 2106 
Q 2900 2444 3181 2938 
Q 3350 3225 3488 3538 
Q 3700 3431 3925 3369 
Q 3763 2894 3425 2475 
L 3650 2531 
Q 3888 1675 4244 1075 
Q 4469 1444 4603 1937 
Q 4738 2431 4775 2688 
Q 4963 2644 5150 2625 
Q 4919 2969 4663 3294 
L 5038 3588 
Q 5544 2925 5975 2213 
L 5569 1969 
L 5256 2463 
z
M 6006 4050 
Q 5988 3881 6006 3713 
Q 5694 3725 5381 3725 
L 3413 3725 
Q 3100 3725 2788 3713 
Q 2806 3881 2788 4050 
Q 3100 4031 3413 4031 
L 4325 4031 
Q 4019 4525 3644 4969 
L 4000 5275 
Q 4413 4788 4750 4244 
L 4406 4031 
L 5381 4031 
Q 5694 4031 6006 4050 
z
M 406 263 
Q 238 431 -25 469 
Q 194 825 466 1337 
Q 738 1850 925 2406 
Q 1113 2963 1256 3519 
L 825 3519 
Q 506 3519 188 3500 
Q 206 3700 188 3900 
Q 506 3881 825 3881 
L 1363 3881 
L 1363 4263 
Q 1363 4719 1338 5175 
Q 1556 5150 1775 5175 
Q 1756 4719 1756 4263 
L 1756 3881 
L 2525 3900 
Q 2506 3700 2525 3500 
L 1756 3519 
L 1756 2738 
L 1931 2881 
Q 2306 2300 2613 1650 
L 2231 1413 
Q 2081 1725 1919 2019 
L 1756 2300 
L 1756 69 
Q 1756 -388 1775 -850 
Q 1556 -825 1338 -850 
Q 1363 -388 1363 69 
L 1363 2438 
Q 925 1144 406 263 
z
" transform="scale(0.015625)"/>
       <path id="WenQuanYiZenHei-9a8c" d="M 5981 -106 
Q 5963 -275 5981 -444 
Q 5669 -431 5356 -431 
L 2969 -431 
Q 2656 -431 2350 -444 
Q 2363 -275 2350 -106 
Q 2656 -125 2969 -125 
L 4369 -125 
Q 4600 431 4881 1288 
L 5206 2300 
Q 5425 2206 5663 2163 
Q 5375 1188 4831 -125 
L 5356 -125 
Q 5669 -125 5981 -106 
z
M 4063 594 
Q 3788 1425 3425 2219 
L 3856 2419 
Q 4225 1600 4513 744 
L 4063 594 
z
M 3163 363 
Q 2931 1200 2613 2006 
L 3056 2175 
Q 3381 1350 3619 488 
L 3163 363 
z
M 4581 2550 
L 3513 2550 
Q 3200 2550 2888 2538 
Q 2900 2663 2894 2769 
Q 2569 2488 2206 2300 
Q 2113 2550 1894 2700 
Q 2488 2975 2975 3463 
Q 3269 3756 3394 4006 
Q 3644 4513 3794 5063 
Q 4038 4975 4294 4931 
Q 4250 4806 4206 4681 
Q 4475 3888 5025 3388 
Q 5519 2938 6169 2650 
Q 5938 2538 5838 2300 
Q 5513 2456 5200 2700 
Q 5200 2619 5206 2538 
Q 4894 2550 4581 2550 
z
M 3513 2863 
L 4994 2869 
Q 4344 3438 3988 4194 
Q 3594 3406 3013 2869 
Q 3263 2863 3513 2863 
z
M 206 444 
Q 188 756 44 963 
Q 319 956 650 1003 
Q 981 1050 1731 1281 
L 1738 1006 
Q 800 719 206 444 
z
M 525 4000 
Q 744 3950 994 3944 
Q 925 3519 875 3081 
L 763 2144 
L 1475 2144 
L 1831 4444 
L 663 4444 
Q 350 4444 38 4431 
Q 56 4600 38 4769 
Q 350 4756 663 4756 
L 2313 4756 
L 1913 2144 
L 2375 2144 
L 2200 -200 
Q 2188 -425 1988 -588 
Q 1694 -800 1181 -788 
L 944 -788 
Q 1000 -450 788 -269 
Q 1013 -294 1334 -287 
Q 1656 -281 1715 -243 
Q 1775 -206 1781 -50 
L 1925 1831 
L 294 1831 
L 444 3131 
Q 500 3569 525 4000 
z
" transform="scale(0.015625)"/>
      </defs>
      <use xlink:href="#WenQuanYiZenHei-6821"/>
      <use xlink:href="#WenQuanYiZenHei-9a8c" x="100"/>
      <use xlink:href="#WenQuanYiZenHei-503c" x="200"/>
     </g>
    </g>
    <g id="line2d_25">
     <path d="M 1298.39375 77.955375 
L 1308.39375 77.955375 
L 1318.39375 77.955375 
" style="fill: none; stroke: #ff0000; stroke-width: 1.5; stroke-linecap: square"/>
    </g>
    <g id="text_23">
     <!-- 预测值 -->
     <g transform="translate(1326.39375 81.455375)scale(0.1 -0.1)">
      <use xlink:href="#WenQuanYiZenHei-9884"/>
      <use xlink:href="#WenQuanYiZenHei-6d4b" x="100"/>
      <use xlink:href="#WenQuanYiZenHei-503c" x="200"/>
     </g>
    </g>
   </g>
  </g>
 </g>
 <defs>
  <clipPath id="p3343d5c99d">
   <rect x="26.19375" y="35.121" width="1339.2" height="332.64"/>
  </clipPath>
 </defs>
</svg>
