<?xml version="1.0" encoding="utf-8" standalone="no"?>
<!DOCTYPE svg PUBLIC "-//W3C//DTD SVG 1.1//EN"
  "http://www.w3.org/Graphics/SVG/1.1/DTD/svg11.dtd">
<svg xmlns:xlink="http://www.w3.org/1999/xlink" width="1378.590625pt" height="390.418188pt" viewBox="0 0 1378.590625 390.418188" xmlns="http://www.w3.org/2000/svg" version="1.1">
 <metadata>
  <rdf:RDF xmlns:dc="http://purl.org/dc/elements/1.1/" xmlns:cc="http://creativecommons.org/ns#" xmlns:rdf="http://www.w3.org/1999/02/22-rdf-syntax-ns#">
   <cc:Work>
    <dc:type rdf:resource="http://purl.org/dc/dcmitype/StillImage"/>
    <dc:date>2022-07-09T18:21:01.476311</dc:date>
    <dc:format>image/svg+xml</dc:format>
    <dc:creator>
     <cc:Agent>
      <dc:title>Matplotlib v3.5.2, https://matplotlib.org/</dc:title>
     </cc:Agent>
    </dc:creator>
   </cc:Work>
  </rdf:RDF>
 </metadata>
 <defs>
  <style type="text/css">*{stroke-linejoin: round; stroke-linecap: butt}</style>
 </defs>
 <g id="figure_1">
  <g id="patch_1">
   <path d="M 0 390.418188 
L 1378.590625 390.418188 
L 1378.590625 -0 
L 0 -0 
z
" style="fill: #ffffff"/>
  </g>
  <g id="axes_1">
   <g id="patch_2">
    <path d="M 32.190625 367.701 
L 1371.390625 367.701 
L 1371.390625 35.061 
L 32.190625 35.061 
z
" style="fill: #ffffff"/>
   </g>
   <g id="matplotlib.axis_1">
    <g id="xtick_1">
     <g id="line2d_1">
      <defs>
       <path id="mfcea2f9105" d="M 0 0 
L 0 3.5 
" style="stroke: #000000; stroke-width: 0.8"/>
      </defs>
      <g>
       <use xlink:href="#mfcea2f9105" x="63.630385" y="367.701" style="stroke: #000000; stroke-width: 0.8"/>
      </g>
     </g>
     <g id="text_1">
      <!-- 2020-01 -->
      <g transform="translate(44.140541 381.55725)scale(0.1 -0.1)">
       <defs>
        <path id="WenQuanYiZenHei-32" d="M 3488 0 
L 369 0 
L 369 456 
L 2150 1850 
Q 2931 2463 2931 3144 
Q 2931 3619 2488 3863 
Q 2231 4013 1931 4013 
Q 1425 4013 1113 3619 
Q 894 3356 881 3013 
L 369 3169 
Q 531 3981 1213 4300 
Q 1544 4456 1950 4456 
Q 2631 4456 3088 4044 
L 3225 3888 
L 3350 3706 
Q 3481 3444 3481 3144 
Q 3481 2313 2519 1569 
L 1069 456 
L 3488 456 
L 3488 0 
z
" transform="scale(0.015625)"/>
        <path id="WenQuanYiZenHei-30" d="M 3581 2175 
Q 3581 1288 3169 638 
Q 2713 -63 1938 -63 
Q 1025 -63 563 831 
Q 256 1425 256 2188 
Q 256 3188 700 3819 
Q 1138 4456 1888 4456 
Q 2863 4456 3306 3500 
Q 3581 2925 3581 2175 
z
M 3019 2100 
Q 3019 3356 2500 3806 
L 2350 3919 
Q 2144 4031 1888 4031 
Q 1100 4031 888 2956 
Q 819 2625 819 2225 
Q 819 1013 1338 569 
Q 1588 356 1938 356 
Q 2675 356 2925 1294 
Q 3019 1663 3019 2100 
z
" transform="scale(0.015625)"/>
        <path id="WenQuanYiZenHei-2d" d="M 1363 1444 
L 0 1444 
L 0 1844 
L 1363 1844 
L 1363 1444 
z
" transform="scale(0.015625)"/>
        <path id="WenQuanYiZenHei-31" d="M 3556 0 
L 488 0 
L 488 406 
L 1800 406 
L 1800 3725 
Q 1231 3125 588 2788 
L 588 3338 
Q 1456 3781 1931 4388 
L 2331 4388 
L 2331 406 
L 3556 406 
L 3556 0 
z
" transform="scale(0.015625)"/>
       </defs>
       <use xlink:href="#WenQuanYiZenHei-32"/>
       <use xlink:href="#WenQuanYiZenHei-30" x="59.960938"/>
       <use xlink:href="#WenQuanYiZenHei-32" x="119.921875"/>
       <use xlink:href="#WenQuanYiZenHei-30" x="179.882812"/>
       <use xlink:href="#WenQuanYiZenHei-2d" x="239.84375"/>
       <use xlink:href="#WenQuanYiZenHei-30" x="269.824219"/>
       <use xlink:href="#WenQuanYiZenHei-31" x="329.785156"/>
      </g>
     </g>
    </g>
    <g id="xtick_2">
     <g id="line2d_2">
      <g>
       <use xlink:href="#mfcea2f9105" x="185.37584" y="367.701" style="stroke: #000000; stroke-width: 0.8"/>
      </g>
     </g>
     <g id="text_2">
      <!-- 2020-04 -->
      <g transform="translate(165.885996 381.55725)scale(0.1 -0.1)">
       <defs>
        <path id="WenQuanYiZenHei-34" d="M 3631 1025 
L 2913 1025 
L 2913 0 
L 2381 0 
L 2381 1025 
L 219 1025 
L 219 1388 
L 2225 4388 
L 2913 4388 
L 2913 1444 
L 3631 1444 
L 3631 1025 
z
M 2381 1444 
L 2381 3963 
L 788 1444 
L 2381 1444 
z
" transform="scale(0.015625)"/>
       </defs>
       <use xlink:href="#WenQuanYiZenHei-32"/>
       <use xlink:href="#WenQuanYiZenHei-30" x="59.960938"/>
       <use xlink:href="#WenQuanYiZenHei-32" x="119.921875"/>
       <use xlink:href="#WenQuanYiZenHei-30" x="179.882812"/>
       <use xlink:href="#WenQuanYiZenHei-2d" x="239.84375"/>
       <use xlink:href="#WenQuanYiZenHei-30" x="269.824219"/>
       <use xlink:href="#WenQuanYiZenHei-34" x="329.785156"/>
      </g>
     </g>
    </g>
    <g id="xtick_3">
     <g id="line2d_3">
      <g>
       <use xlink:href="#mfcea2f9105" x="307.121294" y="367.701" style="stroke: #000000; stroke-width: 0.8"/>
      </g>
     </g>
     <g id="text_3">
      <!-- 2020-07 -->
      <g transform="translate(287.631451 381.55725)scale(0.1 -0.1)">
       <defs>
        <path id="WenQuanYiZenHei-37" d="M 3400 4056 
Q 1838 2175 1838 0 
L 1275 0 
Q 1269 1438 2056 2825 
Q 2381 3400 2825 3913 
L 444 3913 
L 500 4388 
L 3400 4388 
L 3400 4056 
z
" transform="scale(0.015625)"/>
       </defs>
       <use xlink:href="#WenQuanYiZenHei-32"/>
       <use xlink:href="#WenQuanYiZenHei-30" x="59.960938"/>
       <use xlink:href="#WenQuanYiZenHei-32" x="119.921875"/>
       <use xlink:href="#WenQuanYiZenHei-30" x="179.882812"/>
       <use xlink:href="#WenQuanYiZenHei-2d" x="239.84375"/>
       <use xlink:href="#WenQuanYiZenHei-30" x="269.824219"/>
       <use xlink:href="#WenQuanYiZenHei-37" x="329.785156"/>
      </g>
     </g>
    </g>
    <g id="xtick_4">
     <g id="line2d_4">
      <g>
       <use xlink:href="#mfcea2f9105" x="430.204611" y="367.701" style="stroke: #000000; stroke-width: 0.8"/>
      </g>
     </g>
     <g id="text_4">
      <!-- 2020-10 -->
      <g transform="translate(410.714767 381.55725)scale(0.1 -0.1)">
       <use xlink:href="#WenQuanYiZenHei-32"/>
       <use xlink:href="#WenQuanYiZenHei-30" x="59.960938"/>
       <use xlink:href="#WenQuanYiZenHei-32" x="119.921875"/>
       <use xlink:href="#WenQuanYiZenHei-30" x="179.882812"/>
       <use xlink:href="#WenQuanYiZenHei-2d" x="239.84375"/>
       <use xlink:href="#WenQuanYiZenHei-31" x="269.824219"/>
       <use xlink:href="#WenQuanYiZenHei-30" x="329.785156"/>
      </g>
     </g>
    </g>
    <g id="xtick_5">
     <g id="line2d_5">
      <g>
       <use xlink:href="#mfcea2f9105" x="553.287928" y="367.701" style="stroke: #000000; stroke-width: 0.8"/>
      </g>
     </g>
     <g id="text_5">
      <!-- 2021-01 -->
      <g transform="translate(533.798084 381.55725)scale(0.1 -0.1)">
       <use xlink:href="#WenQuanYiZenHei-32"/>
       <use xlink:href="#WenQuanYiZenHei-30" x="59.960938"/>
       <use xlink:href="#WenQuanYiZenHei-32" x="119.921875"/>
       <use xlink:href="#WenQuanYiZenHei-31" x="179.882812"/>
       <use xlink:href="#WenQuanYiZenHei-2d" x="239.84375"/>
       <use xlink:href="#WenQuanYiZenHei-30" x="269.824219"/>
       <use xlink:href="#WenQuanYiZenHei-31" x="329.785156"/>
      </g>
     </g>
    </g>
    <g id="xtick_6">
     <g id="line2d_6">
      <g>
       <use xlink:href="#mfcea2f9105" x="673.69552" y="367.701" style="stroke: #000000; stroke-width: 0.8"/>
      </g>
     </g>
     <g id="text_6">
      <!-- 2021-04 -->
      <g transform="translate(654.205676 381.55725)scale(0.1 -0.1)">
       <use xlink:href="#WenQuanYiZenHei-32"/>
       <use xlink:href="#WenQuanYiZenHei-30" x="59.960938"/>
       <use xlink:href="#WenQuanYiZenHei-32" x="119.921875"/>
       <use xlink:href="#WenQuanYiZenHei-31" x="179.882812"/>
       <use xlink:href="#WenQuanYiZenHei-2d" x="239.84375"/>
       <use xlink:href="#WenQuanYiZenHei-30" x="269.824219"/>
       <use xlink:href="#WenQuanYiZenHei-34" x="329.785156"/>
      </g>
     </g>
    </g>
    <g id="xtick_7">
     <g id="line2d_7">
      <g>
       <use xlink:href="#mfcea2f9105" x="795.440975" y="367.701" style="stroke: #000000; stroke-width: 0.8"/>
      </g>
     </g>
     <g id="text_7">
      <!-- 2021-07 -->
      <g transform="translate(775.951131 381.55725)scale(0.1 -0.1)">
       <use xlink:href="#WenQuanYiZenHei-32"/>
       <use xlink:href="#WenQuanYiZenHei-30" x="59.960938"/>
       <use xlink:href="#WenQuanYiZenHei-32" x="119.921875"/>
       <use xlink:href="#WenQuanYiZenHei-31" x="179.882812"/>
       <use xlink:href="#WenQuanYiZenHei-2d" x="239.84375"/>
       <use xlink:href="#WenQuanYiZenHei-30" x="269.824219"/>
       <use xlink:href="#WenQuanYiZenHei-37" x="329.785156"/>
      </g>
     </g>
    </g>
    <g id="xtick_8">
     <g id="line2d_8">
      <g>
       <use xlink:href="#mfcea2f9105" x="918.524291" y="367.701" style="stroke: #000000; stroke-width: 0.8"/>
      </g>
     </g>
     <g id="text_8">
      <!-- 2021-10 -->
      <g transform="translate(899.034448 381.55725)scale(0.1 -0.1)">
       <use xlink:href="#WenQuanYiZenHei-32"/>
       <use xlink:href="#WenQuanYiZenHei-30" x="59.960938"/>
       <use xlink:href="#WenQuanYiZenHei-32" x="119.921875"/>
       <use xlink:href="#WenQuanYiZenHei-31" x="179.882812"/>
       <use xlink:href="#WenQuanYiZenHei-2d" x="239.84375"/>
       <use xlink:href="#WenQuanYiZenHei-31" x="269.824219"/>
       <use xlink:href="#WenQuanYiZenHei-30" x="329.785156"/>
      </g>
     </g>
    </g>
    <g id="xtick_9">
     <g id="line2d_9">
      <g>
       <use xlink:href="#mfcea2f9105" x="1041.607608" y="367.701" style="stroke: #000000; stroke-width: 0.8"/>
      </g>
     </g>
     <g id="text_9">
      <!-- 2022-01 -->
      <g transform="translate(1022.117764 381.55725)scale(0.1 -0.1)">
       <use xlink:href="#WenQuanYiZenHei-32"/>
       <use xlink:href="#WenQuanYiZenHei-30" x="59.960938"/>
       <use xlink:href="#WenQuanYiZenHei-32" x="119.921875"/>
       <use xlink:href="#WenQuanYiZenHei-32" x="179.882812"/>
       <use xlink:href="#WenQuanYiZenHei-2d" x="239.84375"/>
       <use xlink:href="#WenQuanYiZenHei-30" x="269.824219"/>
       <use xlink:href="#WenQuanYiZenHei-31" x="329.785156"/>
      </g>
     </g>
    </g>
    <g id="xtick_10">
     <g id="line2d_10">
      <g>
       <use xlink:href="#mfcea2f9105" x="1162.0152" y="367.701" style="stroke: #000000; stroke-width: 0.8"/>
      </g>
     </g>
     <g id="text_10">
      <!-- 2022-04 -->
      <g transform="translate(1142.525357 381.55725)scale(0.1 -0.1)">
       <use xlink:href="#WenQuanYiZenHei-32"/>
       <use xlink:href="#WenQuanYiZenHei-30" x="59.960938"/>
       <use xlink:href="#WenQuanYiZenHei-32" x="119.921875"/>
       <use xlink:href="#WenQuanYiZenHei-32" x="179.882812"/>
       <use xlink:href="#WenQuanYiZenHei-2d" x="239.84375"/>
       <use xlink:href="#WenQuanYiZenHei-30" x="269.824219"/>
       <use xlink:href="#WenQuanYiZenHei-34" x="329.785156"/>
      </g>
     </g>
    </g>
    <g id="xtick_11">
     <g id="line2d_11">
      <g>
       <use xlink:href="#mfcea2f9105" x="1283.760655" y="367.701" style="stroke: #000000; stroke-width: 0.8"/>
      </g>
     </g>
     <g id="text_11">
      <!-- 2022-07 -->
      <g transform="translate(1264.270811 381.55725)scale(0.1 -0.1)">
       <use xlink:href="#WenQuanYiZenHei-32"/>
       <use xlink:href="#WenQuanYiZenHei-30" x="59.960938"/>
       <use xlink:href="#WenQuanYiZenHei-32" x="119.921875"/>
       <use xlink:href="#WenQuanYiZenHei-32" x="179.882812"/>
       <use xlink:href="#WenQuanYiZenHei-2d" x="239.84375"/>
       <use xlink:href="#WenQuanYiZenHei-30" x="269.824219"/>
       <use xlink:href="#WenQuanYiZenHei-37" x="329.785156"/>
      </g>
     </g>
    </g>
   </g>
   <g id="matplotlib.axis_2">
    <g id="ytick_1">
     <g id="line2d_12">
      <defs>
       <path id="m837ba11041" d="M 0 0 
L -3.5 0 
" style="stroke: #000000; stroke-width: 0.8"/>
      </defs>
      <g>
       <use xlink:href="#m837ba11041" x="32.190625" y="344.714669" style="stroke: #000000; stroke-width: 0.8"/>
      </g>
     </g>
     <g id="text_12">
      <!-- 0 -->
      <g transform="translate(19.19375 348.142794)scale(0.1 -0.1)">
       <use xlink:href="#WenQuanYiZenHei-30"/>
      </g>
     </g>
    </g>
    <g id="ytick_2">
     <g id="line2d_13">
      <g>
       <use xlink:href="#m837ba11041" x="32.190625" y="300.622802" style="stroke: #000000; stroke-width: 0.8"/>
      </g>
     </g>
     <g id="text_13">
      <!-- 50 -->
      <g transform="translate(13.196875 304.050927)scale(0.1 -0.1)">
       <defs>
        <path id="WenQuanYiZenHei-35" d="M 3531 1488 
Q 3531 688 2913 250 
Q 2456 -63 1844 -63 
Q 1175 -63 706 350 
Q 413 613 306 975 
L 781 1131 
Q 1000 538 1569 406 
Q 1706 369 1856 369 
Q 2550 369 2850 869 
Q 3000 1131 3000 1494 
Q 3000 2056 2581 2356 
Q 2319 2538 1969 2538 
Q 1400 2538 1031 2075 
Q 981 2013 938 1938 
L 500 2031 
L 644 4388 
L 3244 4388 
L 3200 3919 
L 1044 3919 
L 950 2500 
Q 1431 2975 2006 2975 
Q 2713 2975 3163 2475 
Q 3531 2063 3531 1488 
z
" transform="scale(0.015625)"/>
       </defs>
       <use xlink:href="#WenQuanYiZenHei-35"/>
       <use xlink:href="#WenQuanYiZenHei-30" x="59.960938"/>
      </g>
     </g>
    </g>
    <g id="ytick_3">
     <g id="line2d_14">
      <g>
       <use xlink:href="#m837ba11041" x="32.190625" y="256.530936" style="stroke: #000000; stroke-width: 0.8"/>
      </g>
     </g>
     <g id="text_14">
      <!-- 100 -->
      <g transform="translate(7.2 259.959061)scale(0.1 -0.1)">
       <use xlink:href="#WenQuanYiZenHei-31"/>
       <use xlink:href="#WenQuanYiZenHei-30" x="59.960938"/>
       <use xlink:href="#WenQuanYiZenHei-30" x="119.921875"/>
      </g>
     </g>
    </g>
    <g id="ytick_4">
     <g id="line2d_15">
      <g>
       <use xlink:href="#m837ba11041" x="32.190625" y="212.439069" style="stroke: #000000; stroke-width: 0.8"/>
      </g>
     </g>
     <g id="text_15">
      <!-- 150 -->
      <g transform="translate(7.2 215.867194)scale(0.1 -0.1)">
       <use xlink:href="#WenQuanYiZenHei-31"/>
       <use xlink:href="#WenQuanYiZenHei-35" x="59.960938"/>
       <use xlink:href="#WenQuanYiZenHei-30" x="119.921875"/>
      </g>
     </g>
    </g>
    <g id="ytick_5">
     <g id="line2d_16">
      <g>
       <use xlink:href="#m837ba11041" x="32.190625" y="168.347202" style="stroke: #000000; stroke-width: 0.8"/>
      </g>
     </g>
     <g id="text_16">
      <!-- 200 -->
      <g transform="translate(7.2 171.775327)scale(0.1 -0.1)">
       <use xlink:href="#WenQuanYiZenHei-32"/>
       <use xlink:href="#WenQuanYiZenHei-30" x="59.960938"/>
       <use xlink:href="#WenQuanYiZenHei-30" x="119.921875"/>
      </g>
     </g>
    </g>
    <g id="ytick_6">
     <g id="line2d_17">
      <g>
       <use xlink:href="#m837ba11041" x="32.190625" y="124.255336" style="stroke: #000000; stroke-width: 0.8"/>
      </g>
     </g>
     <g id="text_17">
      <!-- 250 -->
      <g transform="translate(7.2 127.683461)scale(0.1 -0.1)">
       <use xlink:href="#WenQuanYiZenHei-32"/>
       <use xlink:href="#WenQuanYiZenHei-35" x="59.960938"/>
       <use xlink:href="#WenQuanYiZenHei-30" x="119.921875"/>
      </g>
     </g>
    </g>
    <g id="ytick_7">
     <g id="line2d_18">
      <g>
       <use xlink:href="#m837ba11041" x="32.190625" y="80.163469" style="stroke: #000000; stroke-width: 0.8"/>
      </g>
     </g>
     <g id="text_18">
      <!-- 300 -->
      <g transform="translate(7.2 83.591594)scale(0.1 -0.1)">
       <defs>
        <path id="WenQuanYiZenHei-33" d="M 3588 1231 
Q 3588 494 2875 144 
Q 2450 -63 1925 -63 
Q 1044 -63 556 488 
Q 356 706 256 1000 
L 769 1169 
Q 994 375 1913 375 
Q 2631 375 2900 788 
Q 3019 975 3019 1231 
Q 3019 1638 2638 1881 
Q 2325 2081 1613 2069 
L 1338 2069 
L 1338 2494 
Q 1969 2494 2094 2506 
Q 2325 2544 2463 2613 
Q 2763 2756 2844 3100 
Q 2863 3169 2863 3244 
Q 2863 3744 2381 3944 
L 2163 4006 
Q 2056 4025 1931 4025 
Q 1388 4025 1075 3631 
Q 969 3488 906 3313 
L 419 3456 
Q 675 4150 1400 4369 
Q 1669 4456 1975 4456 
Q 2694 4456 3106 4050 
Q 3419 3744 3419 3275 
Q 3419 2813 3025 2513 
Q 2825 2356 2575 2319 
L 2575 2306 
Q 3181 2213 3450 1769 
Q 3588 1525 3588 1231 
z
" transform="scale(0.015625)"/>
       </defs>
       <use xlink:href="#WenQuanYiZenHei-33"/>
       <use xlink:href="#WenQuanYiZenHei-30" x="59.960938"/>
       <use xlink:href="#WenQuanYiZenHei-30" x="119.921875"/>
      </g>
     </g>
    </g>
    <g id="ytick_8">
     <g id="line2d_19">
      <g>
       <use xlink:href="#m837ba11041" x="32.190625" y="36.071603" style="stroke: #000000; stroke-width: 0.8"/>
      </g>
     </g>
     <g id="text_19">
      <!-- 350 -->
      <g transform="translate(7.2 39.499728)scale(0.1 -0.1)">
       <use xlink:href="#WenQuanYiZenHei-33"/>
       <use xlink:href="#WenQuanYiZenHei-35" x="59.960938"/>
       <use xlink:href="#WenQuanYiZenHei-30" x="119.921875"/>
      </g>
     </g>
    </g>
   </g>
   <g id="line2d_20">
    <path d="M 93.063352 342.069157 
L 94.401214 342.950994 
L 95.739077 335.896296 
L 97.076939 338.541808 
L 98.414801 333.250784 
L 99.752663 335.014458 
L 101.090525 335.896296 
L 102.428387 338.541808 
L 103.766249 323.550573 
L 105.104112 332.368946 
L 106.441974 331.487109 
L 107.779836 334.132621 
L 109.117698 332.368946 
L 110.45556 324.43241 
L 111.793422 337.65997 
L 113.131284 335.014458 
L 114.469146 335.014458 
L 115.807009 333.250784 
L 117.144871 340.305482 
L 118.482733 339.423645 
L 119.820595 339.423645 
L 121.158457 341.18732 
L 122.496319 343.832832 
L 123.834181 342.950994 
L 125.172044 341.18732 
L 126.509906 341.18732 
L 127.847768 344.714669 
L 129.18563 342.950994 
L 130.523492 342.069157 
L 131.861354 344.714669 
L 163.970046 344.714669 
L 165.307908 343.832832 
L 166.64577 344.714669 
L 167.983632 344.714669 
L 169.321494 343.832832 
L 170.659356 343.832832 
L 171.997218 344.714669 
L 173.335081 344.714669 
L 174.672943 343.832832 
L 176.010805 343.832832 
L 177.348667 342.069157 
L 178.686529 344.714669 
L 184.037978 344.714669 
L 185.37584 342.950994 
L 186.713702 344.714669 
L 188.051564 344.714669 
L 189.389426 343.832832 
L 190.727288 344.714669 
L 210.79522 344.714669 
L 212.133083 326.196085 
L 213.470945 342.950994 
L 214.808807 344.714669 
L 216.146669 338.541808 
L 217.484531 344.714669 
L 220.160255 344.714669 
L 221.498118 327.077922 
L 222.83598 344.714669 
L 229.52529 344.714669 
L 230.863152 342.950994 
L 232.201015 344.714669 
L 265.647568 344.714669 
L 266.98543 343.832832 
L 268.323292 344.714669 
L 272.336879 344.714669 
L 273.674741 342.950994 
L 275.012603 344.714669 
L 283.039776 344.714669 
L 284.377638 342.950994 
L 285.7155 344.714669 
L 287.053362 344.714669 
L 288.391224 343.832832 
L 289.729087 344.714669 
L 291.066949 344.714669 
L 292.404811 342.950994 
L 295.080535 344.714669 
L 296.418397 342.950994 
L 297.756259 344.714669 
L 300.431984 344.714669 
L 301.769846 343.832832 
L 303.107708 344.714669 
L 311.134881 344.714669 
L 312.472743 343.832832 
L 313.810605 344.714669 
L 325.851364 344.714669 
L 327.189226 343.832832 
L 328.527089 344.714669 
L 333.878537 344.714669 
L 335.216399 343.832832 
L 336.554261 344.714669 
L 343.243572 344.714669 
L 344.581434 343.832832 
L 345.919296 344.714669 
L 347.257158 344.714669 
L 348.595021 342.950994 
L 349.932883 344.714669 
L 351.270745 344.714669 
L 352.608607 343.832832 
L 353.946469 343.832832 
L 355.284331 344.714669 
L 357.960056 344.714669 
L 359.297918 342.069157 
L 360.63578 336.778133 
L 361.973642 343.832832 
L 363.311504 344.714669 
L 364.649366 340.305482 
L 365.987228 342.950994 
L 367.325091 342.069157 
L 368.662953 342.069157 
L 370.000815 342.950994 
L 371.338677 342.950994 
L 372.676539 344.714669 
L 374.014401 344.714669 
L 375.352263 342.950994 
L 376.690125 342.950994 
L 378.027988 344.714669 
L 379.36585 342.950994 
L 380.703712 344.714669 
L 386.05516 344.714669 
L 387.393023 343.832832 
L 388.730885 344.714669 
L 390.068747 344.714669 
L 391.406609 339.423645 
L 392.744471 342.950994 
L 394.082333 343.832832 
L 395.420195 342.069157 
L 396.758058 344.714669 
L 398.09592 344.714669 
L 399.433782 343.832832 
L 400.771644 344.714669 
L 402.109506 343.832832 
L 404.78523 343.832832 
L 406.123093 344.714669 
L 407.460955 344.714669 
L 410.136679 342.950994 
L 411.474541 333.250784 
L 412.812403 342.950994 
L 414.150265 344.714669 
L 415.488127 342.950994 
L 416.82599 344.714669 
L 418.163852 344.714669 
L 419.501714 343.832832 
L 420.839576 344.714669 
L 422.177438 343.832832 
L 423.5153 344.714669 
L 424.853162 344.714669 
L 426.191025 342.069157 
L 428.866749 343.832832 
L 431.542473 343.832832 
L 432.880335 342.950994 
L 434.218197 344.714669 
L 435.55606 343.832832 
L 436.893922 344.714669 
L 438.231784 344.714669 
L 439.569646 335.014458 
L 440.907508 342.069157 
L 442.24537 344.714669 
L 444.921095 344.714669 
L 446.258957 342.069157 
L 447.596819 342.950994 
L 448.934681 344.714669 
L 451.610405 342.950994 
L 452.948267 342.950994 
L 454.286129 344.714669 
L 458.299716 344.714669 
L 459.637578 339.423645 
L 460.97544 343.832832 
L 462.313302 345.596506 
L 463.651164 342.069157 
L 464.989027 339.423645 
L 466.326889 343.832832 
L 467.664751 344.714669 
L 469.002613 344.714669 
L 470.340475 343.832832 
L 471.678337 344.714669 
L 473.016199 344.714669 
L 474.354062 343.832832 
L 475.691924 342.069157 
L 477.029786 344.714669 
L 478.367648 341.18732 
L 479.70551 336.778133 
L 481.043372 339.423645 
L 482.381234 343.832832 
L 483.719097 343.832832 
L 485.056959 342.950994 
L 486.394821 343.832832 
L 487.732683 343.832832 
L 489.070545 342.950994 
L 491.746269 344.714669 
L 494.421994 344.714669 
L 495.759856 342.069157 
L 497.097718 344.714669 
L 498.43558 342.950994 
L 499.773442 343.832832 
L 501.111304 342.950994 
L 503.787029 344.714669 
L 505.124891 343.832832 
L 506.462753 344.714669 
L 507.800615 343.832832 
L 509.138477 344.714669 
L 510.476339 343.832832 
L 513.152064 343.832832 
L 514.489926 344.714669 
L 515.827788 344.714669 
L 517.16565 343.832832 
L 518.503512 344.714669 
L 534.557858 344.714669 
L 535.89572 342.950994 
L 537.233582 344.714669 
L 542.585031 344.714669 
L 543.922893 343.832832 
L 545.260755 344.714669 
L 549.274341 344.714669 
L 550.612203 343.832832 
L 553.287928 343.832832 
L 554.62579 342.950994 
L 555.963652 339.423645 
L 557.301514 344.714669 
L 558.639376 342.069157 
L 559.977238 342.950994 
L 561.315101 344.714669 
L 562.652963 344.714669 
L 563.990825 343.832832 
L 566.666549 343.832832 
L 568.004411 344.714669 
L 569.342273 344.714669 
L 570.680135 342.950994 
L 573.35586 344.714669 
L 574.693722 342.069157 
L 576.031584 343.832832 
L 577.369446 342.950994 
L 578.707308 344.714669 
L 581.383033 344.714669 
L 582.720895 343.832832 
L 584.058757 344.714669 
L 585.396619 343.832832 
L 586.734481 344.714669 
L 588.072343 343.832832 
L 589.410205 344.714669 
L 592.08593 342.950994 
L 593.423792 344.714669 
L 594.761654 343.832832 
L 596.099516 343.832832 
L 597.437378 344.714669 
L 598.77524 344.714669 
L 600.113103 343.832832 
L 601.450965 344.714669 
L 604.126689 344.714669 
L 605.464551 343.832832 
L 606.802413 344.714669 
L 609.478137 344.714669 
L 610.816 343.832832 
L 612.153862 343.832832 
L 613.491724 342.950994 
L 614.829586 344.714669 
L 622.856759 344.714669 
L 624.194621 342.950994 
L 625.532483 344.714669 
L 626.870345 344.714669 
L 628.208207 342.950994 
L 629.54607 344.714669 
L 630.883932 344.714669 
L 632.221794 343.832832 
L 633.559656 343.832832 
L 634.897518 344.714669 
L 637.573242 344.714669 
L 638.911105 342.950994 
L 640.248967 342.950994 
L 641.586829 344.714669 
L 642.924691 343.832832 
L 644.262553 344.714669 
L 645.600415 343.832832 
L 646.938277 344.714669 
L 648.276139 343.832832 
L 649.614002 343.832832 
L 650.951864 344.714669 
L 653.627588 344.714669 
L 654.96545 343.832832 
L 656.303312 344.714669 
L 658.979037 344.714669 
L 660.316899 342.950994 
L 661.654761 344.714669 
L 662.992623 344.714669 
L 664.330485 343.832832 
L 665.668347 344.714669 
L 667.006209 343.832832 
L 668.344072 344.714669 
L 669.681934 344.714669 
L 671.019796 343.832832 
L 672.357658 344.714669 
L 673.69552 344.714669 
L 675.033382 343.832832 
L 676.371244 344.714669 
L 677.709107 341.18732 
L 679.046969 344.714669 
L 680.384831 344.714669 
L 683.060555 342.950994 
L 685.736279 344.714669 
L 687.074141 342.950994 
L 688.412004 344.714669 
L 691.087728 344.714669 
L 693.763452 342.950994 
L 695.101314 341.18732 
L 696.439176 343.832832 
L 697.777039 343.832832 
L 699.114901 344.714669 
L 701.790625 344.714669 
L 703.128487 343.832832 
L 704.466349 344.714669 
L 705.804211 343.832832 
L 707.142074 344.714669 
L 708.479936 343.832832 
L 709.817798 344.714669 
L 719.182833 344.714669 
L 720.520695 343.832832 
L 721.858557 343.832832 
L 723.196419 344.714669 
L 724.534281 342.950994 
L 725.872143 343.832832 
L 728.547868 343.832832 
L 729.88573 344.714669 
L 731.223592 342.950994 
L 733.899316 344.714669 
L 735.237178 339.423645 
L 736.575041 344.714669 
L 737.912903 342.069157 
L 739.250765 344.714669 
L 741.926489 344.714669 
L 743.264351 342.950994 
L 744.602213 343.832832 
L 745.940076 343.832832 
L 747.277938 344.714669 
L 748.6158 344.714669 
L 749.953662 342.950994 
L 752.629386 344.714669 
L 756.642973 344.714669 
L 757.980835 343.832832 
L 759.318697 344.714669 
L 760.656559 343.832832 
L 761.994421 344.714669 
L 764.670145 344.714669 
L 766.008008 342.950994 
L 767.34587 344.714669 
L 768.683732 343.832832 
L 770.021594 343.832832 
L 771.359456 344.714669 
L 776.710905 344.714669 
L 778.048767 342.950994 
L 779.386629 344.714669 
L 790.089526 344.714669 
L 791.427388 342.950994 
L 792.76525 344.714669 
L 794.103113 343.832832 
L 795.440975 344.714669 
L 796.778837 343.832832 
L 798.116699 344.714669 
L 799.454561 343.832832 
L 800.792423 344.714669 
L 802.130285 342.950994 
L 803.468147 344.714669 
L 804.80601 344.714669 
L 806.143872 342.069157 
L 807.481734 344.714669 
L 808.819596 343.832832 
L 811.49532 343.832832 
L 812.833182 344.714669 
L 815.508907 342.950994 
L 816.846769 342.950994 
L 818.184631 342.069157 
L 819.522493 344.714669 
L 820.860355 344.714669 
L 822.198217 337.65997 
L 823.53608 342.950994 
L 824.873942 344.714669 
L 828.887528 344.714669 
L 830.22539 343.832832 
L 831.563252 344.714669 
L 835.576839 344.714669 
L 836.914701 342.069157 
L 838.252563 342.950994 
L 839.590425 344.714669 
L 840.928287 344.714669 
L 842.266149 342.950994 
L 843.604012 344.714669 
L 844.941874 344.714669 
L 846.279736 343.832832 
L 847.617598 343.832832 
L 848.95546 344.714669 
L 850.293322 344.714669 
L 851.631184 343.832832 
L 852.969047 343.832832 
L 854.306909 344.714669 
L 855.644771 344.714669 
L 856.982633 343.832832 
L 858.320495 344.714669 
L 865.009806 344.714669 
L 866.347668 343.832832 
L 867.68553 344.714669 
L 878.388427 344.714669 
L 879.726289 343.832832 
L 881.064151 344.714669 
L 891.767049 344.714669 
L 893.104911 343.832832 
L 894.442773 344.714669 
L 917.186429 344.714669 
L 918.524291 343.832832 
L 919.862153 344.714669 
L 921.200016 344.714669 
L 922.537878 342.069157 
L 923.87574 344.714669 
L 926.551464 344.714669 
L 927.889326 343.832832 
L 929.227188 344.714669 
L 930.565051 344.714669 
L 931.902913 343.832832 
L 933.240775 344.714669 
L 934.578637 344.714669 
L 935.916499 343.832832 
L 938.592223 343.832832 
L 939.930086 338.541808 
L 941.267948 343.832832 
L 942.60581 342.950994 
L 943.943672 344.714669 
L 945.281534 341.18732 
L 946.619396 344.714669 
L 947.957258 342.950994 
L 950.632983 344.714669 
L 964.011604 344.714669 
L 966.687328 342.950994 
L 968.02519 344.714669 
L 969.363053 343.832832 
L 970.700915 344.714669 
L 976.052363 344.714669 
L 977.390225 343.832832 
L 978.728088 344.714669 
L 980.06595 343.832832 
L 981.403812 344.714669 
L 985.417398 344.714669 
L 986.75526 343.832832 
L 988.093123 343.832832 
L 989.430985 344.714669 
L 990.768847 342.950994 
L 992.106709 344.714669 
L 998.79602 344.714669 
L 1000.133882 343.832832 
L 1001.471744 343.832832 
L 1002.809606 344.714669 
L 1004.147468 344.714669 
L 1005.48533 342.950994 
L 1006.823192 343.832832 
L 1009.498917 343.832832 
L 1010.836779 342.069157 
L 1013.512503 343.832832 
L 1016.188227 343.832832 
L 1017.52609 339.423645 
L 1018.863952 342.069157 
L 1020.201814 340.305482 
L 1021.539676 342.950994 
L 1022.877538 331.487109 
L 1024.2154 322.668736 
L 1025.553262 344.714669 
L 1026.891125 259.176448 
L 1028.228987 289.158917 
L 1029.566849 297.095453 
L 1030.904711 268.876658 
L 1032.242573 344.714669 
L 1034.918297 50.181 
L 1036.256159 210.675394 
L 1037.594022 207.148045 
L 1038.931884 199.211509 
L 1040.269746 192.15681 
L 1041.607608 236.248677 
L 1042.94547 344.714669 
L 1044.283332 178.92925 
L 1045.621194 312.968525 
L 1046.959057 289.158917 
L 1048.296919 294.449941 
L 1049.634781 304.150152 
L 1052.310505 331.487109 
L 1053.648367 333.250784 
L 1054.986229 337.65997 
L 1056.324092 339.423645 
L 1057.661954 337.65997 
L 1058.999816 341.18732 
L 1060.337678 343.832832 
L 1061.67554 340.305482 
L 1063.013402 343.832832 
L 1064.351264 344.714669 
L 1065.689126 344.714669 
L 1067.026989 342.069157 
L 1068.364851 344.714669 
L 1124.555061 344.714669 
L 1125.892923 342.950994 
L 1127.230785 344.714669 
L 1128.568647 340.305482 
L 1129.906509 329.723434 
L 1131.244371 326.196085 
L 1132.582233 328.841597 
L 1133.920096 318.259549 
L 1135.257958 310.323013 
L 1136.59582 291.804429 
L 1137.933682 297.97729 
L 1139.271544 320.023224 
L 1140.609406 321.786898 
L 1141.947268 315.614037 
L 1143.28513 335.014458 
L 1144.622993 331.487109 
L 1145.960855 332.368946 
L 1147.298717 338.541808 
L 1148.636579 342.069157 
L 1149.974441 343.832832 
L 1151.312303 342.069157 
L 1152.650165 343.832832 
L 1153.988028 343.832832 
L 1155.32589 341.18732 
L 1156.663752 342.069157 
L 1158.001614 344.714669 
L 1162.0152 344.714669 
L 1163.353063 342.069157 
L 1164.690925 343.832832 
L 1166.028787 344.714669 
L 1167.366649 343.832832 
L 1168.704511 344.714669 
L 1170.042373 335.014458 
L 1171.380235 337.65997 
L 1172.718098 342.950994 
L 1174.05596 338.541808 
L 1175.393822 344.714669 
L 1176.731684 342.950994 
L 1178.069546 342.950994 
L 1179.407408 342.069157 
L 1180.74527 343.832832 
L 1182.083132 342.069157 
L 1184.758857 343.832832 
L 1186.096719 340.305482 
L 1187.434581 344.714669 
L 1188.772443 342.069157 
L 1190.110305 344.714669 
L 1195.461754 344.714669 
L 1196.799616 343.832832 
L 1198.137478 344.714669 
L 1215.529686 344.714669 
L 1216.867548 343.832832 
L 1218.20541 344.714669 
L 1227.570445 344.714669 
L 1228.908307 343.832832 
L 1230.246169 344.714669 
L 1231.584032 341.18732 
L 1232.921894 344.714669 
L 1252.989826 344.714669 
L 1254.327688 343.832832 
L 1255.66555 344.714669 
L 1257.003412 344.714669 
L 1258.341274 340.305482 
L 1259.679136 334.132621 
L 1261.016999 343.832832 
L 1262.354861 344.714669 
L 1263.692723 342.069157 
L 1265.030585 343.832832 
L 1266.368447 343.832832 
L 1267.706309 342.069157 
L 1270.382034 342.069157 
L 1271.719896 342.950994 
L 1273.057758 344.714669 
L 1274.39562 340.305482 
L 1275.733482 344.714669 
L 1277.071344 339.423645 
L 1278.409206 344.714669 
L 1279.747069 344.714669 
L 1281.084931 342.950994 
L 1282.422793 342.069157 
L 1283.760655 344.714669 
L 1285.098517 341.18732 
L 1286.436379 344.714669 
L 1287.774241 338.541808 
L 1289.112104 342.950994 
L 1290.449966 342.069157 
L 1291.787828 343.832832 
L 1293.12569 342.069157 
L 1293.12569 342.069157 
" clip-path="url(#p7c38043b8c)" style="fill: none; stroke: #0000ff; stroke-width: 1.5; stroke-linecap: square"/>
   </g>
   <g id="line2d_21">
    <path d="M 1053.648367 327.597168 
L 1054.986229 330.645302 
L 1056.324092 336.49252 
L 1057.661954 337.332045 
L 1058.999816 341.791888 
L 1060.337678 327.37879 
L 1061.67554 338.750261 
L 1063.013402 341.660076 
L 1064.351264 344.186121 
L 1065.689126 342.959539 
L 1067.026989 342.854158 
L 1068.364851 342.326183 
L 1069.702713 352.581 
L 1071.040575 346.024659 
L 1073.716299 344.22692 
L 1075.054161 344.998915 
L 1076.392024 345.05713 
L 1077.729886 345.762765 
L 1079.067748 339.490563 
L 1080.40561 343.746137 
L 1083.081334 344.979633 
L 1084.419196 344.511237 
L 1085.757059 344.485128 
L 1087.094921 344.045272 
L 1088.432783 348.01074 
L 1089.770645 345.324263 
L 1092.446369 344.546605 
L 1093.784231 344.8428 
L 1095.122094 344.859463 
L 1096.459956 345.137417 
L 1097.797818 342.632449 
L 1099.13568 344.329548 
L 1101.811404 344.820826 
L 1103.149266 344.633721 
L 1104.487128 344.623198 
L 1105.824991 344.447614 
L 1107.162853 346.030024 
L 1108.500715 344.957953 
L 1111.176439 344.647609 
L 1112.514301 344.765804 
L 1115.190026 344.88337 
L 1116.527888 343.883748 
L 1117.86575 344.560985 
L 1120.541474 344.757031 
L 1127.230785 344.375827 
L 1128.568647 342.539404 
L 1129.906509 336.766676 
L 1131.244371 332.079 
L 1132.582233 330.644314 
L 1133.920096 324.918796 
L 1135.257958 318.275281 
L 1136.59582 305.953761 
L 1137.933682 300.921367 
L 1139.271544 308.992162 
L 1140.609406 315.056493 
L 1141.947268 313.818366 
L 1143.28513 322.300154 
L 1144.622993 323.89238 
L 1145.960855 328.855249 
L 1147.298717 337.193763 
L 1148.636579 339.911695 
L 1149.974441 340.580773 
L 1151.312303 344.89824 
L 1152.650165 344.55341 
L 1153.988028 345.941917 
L 1155.32589 343.938178 
L 1156.663752 341.06284 
L 1159.339476 343.982358 
L 1160.677338 342.248891 
L 1162.0152 343.267715 
L 1163.353063 341.281745 
L 1164.690925 342.468696 
L 1166.028787 345.13099 
L 1167.366649 344.610522 
L 1168.704511 344.380731 
L 1170.042373 341.497664 
L 1171.380235 339.465403 
L 1172.718098 342.185649 
L 1174.05596 340.651138 
L 1175.393822 341.295505 
L 1176.731684 342.120873 
L 1178.069546 341.30984 
L 1179.407408 341.196731 
L 1180.74527 343.315057 
L 1182.083132 341.407197 
L 1183.420995 342.901085 
L 1184.758857 343.810607 
L 1186.096719 342.190395 
L 1187.434581 343.941545 
L 1190.110305 343.277928 
L 1191.448167 344.896736 
L 1192.78603 344.430732 
L 1194.123892 343.752755 
L 1195.461754 344.833316 
L 1196.799616 343.622601 
L 1198.137478 344.144161 
L 1199.47534 344.930185 
L 1200.813202 344.21679 
L 1203.488927 345.205148 
L 1204.826789 344.451582 
L 1206.164651 345.174883 
L 1207.502513 344.948018 
L 1208.840375 344.508243 
L 1210.178237 344.990302 
L 1212.853962 344.39293 
L 1214.191824 344.87428 
L 1215.529686 344.420306 
L 1216.867548 344.171246 
L 1218.20541 344.625992 
L 1219.543272 344.419354 
L 1222.218997 344.880824 
L 1223.556859 344.593323 
L 1226.232583 344.857878 
L 1228.908307 344.445991 
L 1230.246169 344.50478 
L 1231.584032 342.894389 
L 1232.921894 343.842401 
L 1234.259756 344.157323 
L 1238.273342 344.601725 
L 1239.611204 344.197616 
L 1240.949067 345.002863 
L 1242.286929 344.788995 
L 1247.638377 344.741371 
L 1248.976239 345.016597 
L 1250.314102 344.518951 
L 1251.651964 344.660158 
L 1252.989826 344.654663 
L 1254.327688 344.258523 
L 1257.003412 344.576515 
L 1258.341274 342.48684 
L 1259.679136 338.983367 
L 1261.016999 341.116122 
L 1262.354861 342.619475 
L 1263.692723 342.5152 
L 1265.030585 343.113676 
L 1266.368447 342.812094 
L 1267.706309 341.731529 
L 1269.044171 343.094106 
L 1271.719896 342.552955 
L 1273.057758 343.675978 
L 1274.39562 342.163889 
L 1275.733482 343.45042 
L 1277.071344 342.12419 
L 1278.409206 342.516145 
L 1279.747069 343.530298 
L 1281.084931 343.710117 
L 1282.422793 342.261069 
L 1283.760655 343.977805 
L 1285.098517 341.89836 
L 1286.436379 343.597829 
L 1287.774241 341.822371 
L 1289.112104 342.059872 
L 1290.449966 341.663606 
L 1291.787828 343.454979 
L 1293.12569 341.950572 
L 1293.12569 341.950572 
" clip-path="url(#p7c38043b8c)" style="fill: none; stroke: #ffa500; stroke-width: 1.5; stroke-linecap: square"/>
   </g>
   <g id="line2d_22">
    <path d="M 1293.12569 341.950572 
L 1294.463552 342.969843 
L 1295.801414 341.827944 
L 1297.139276 342.139067 
L 1298.477138 342.184266 
L 1299.815001 342.683845 
L 1301.152863 341.917837 
L 1302.490725 342.460461 
L 1303.828587 341.959114 
L 1305.166449 342.520777 
L 1306.504311 342.367746 
L 1307.842173 342.345514 
L 1309.180036 342.099787 
L 1310.517898 342.476562 
" clip-path="url(#p7c38043b8c)" style="fill: none; stroke: #ff0000; stroke-width: 1.5; stroke-linecap: square"/>
   </g>
   <g id="patch_3">
    <path d="M 32.190625 367.701 
L 32.190625 35.061 
" style="fill: none; stroke: #000000; stroke-width: 0.8; stroke-linejoin: miter; stroke-linecap: square"/>
   </g>
   <g id="patch_4">
    <path d="M 1371.390625 367.701 
L 1371.390625 35.061 
" style="fill: none; stroke: #000000; stroke-width: 0.8; stroke-linejoin: miter; stroke-linecap: square"/>
   </g>
   <g id="patch_5">
    <path d="M 32.190625 367.701 
L 1371.390625 367.701 
" style="fill: none; stroke: #000000; stroke-width: 0.8; stroke-linejoin: miter; stroke-linecap: square"/>
   </g>
   <g id="patch_6">
    <path d="M 32.190625 35.061 
L 1371.390625 35.061 
" style="fill: none; stroke: #000000; stroke-width: 0.8; stroke-linejoin: miter; stroke-linecap: square"/>
   </g>
   <g id="text_20">
    <!-- 每日新增预测 - 陕西 -->
    <g transform="translate(648.393438 17.041875)scale(0.12 -0.12)">
     <defs>
      <path id="WenQuanYiZenHei-6bcf" d="M 6138 2181 
Q 6113 1988 6138 1800 
Q 5788 1819 5438 1819 
L 4975 1819 
L 4863 738 
L 5806 738 
L 5806 394 
L 4831 394 
L 4775 -144 
Q 4719 -563 4350 -725 
Q 4013 -856 3550 -825 
L 3288 -819 
Q 3331 -663 3275 -519 
Q 3219 -375 3113 -288 
Q 3381 -313 3759 -303 
Q 4138 -294 4231 -238 
Q 4338 -163 4350 88 
L 4381 394 
L 1025 394 
L 1244 1819 
L 813 1819 
Q 463 1819 113 1800 
Q 138 1988 113 2181 
Q 463 2163 813 2163 
L 1294 2163 
L 1488 3431 
L 1488 3581 
L 1506 3581 
L 1513 3613 
L 1713 3581 
L 5156 3581 
L 5013 2163 
L 5438 2163 
Q 5788 2163 6138 2181 
z
M 5588 4463 
Q 5569 4269 5588 4081 
Q 5244 4100 4894 4100 
L 1813 4100 
Q 1344 3463 606 2788 
Q 481 2988 256 3069 
Q 744 3494 1116 3972 
Q 1488 4450 1919 5181 
Q 2119 5044 2344 4950 
Q 2213 4688 2050 4444 
L 4894 4444 
Q 5238 4444 5588 4463 
z
M 2844 3238 
L 1906 3238 
L 1744 2163 
L 3244 2163 
L 2581 3038 
L 2844 3238 
z
M 3250 2163 
L 4563 2163 
L 4669 3238 
L 3044 3238 
L 3638 2456 
L 3250 2163 
z
M 2944 1819 
Q 3275 1394 3550 938 
L 3213 738 
L 4419 738 
L 4525 1819 
L 2944 1819 
z
M 2656 1819 
L 1694 1819 
L 1525 738 
L 3094 738 
Q 2806 1219 2450 1650 
L 2656 1819 
z
" transform="scale(0.015625)"/>
      <path id="WenQuanYiZenHei-65e5" d="M 1494 -775 
Q 1244 -750 988 -775 
Q 1013 -313 1013 156 
L 1013 4875 
L 5269 4875 
L 5269 -763 
L 4813 -763 
L 4813 156 
L 1469 156 
Q 1469 -313 1494 -775 
z
M 4813 2700 
L 4813 4500 
L 1469 4500 
L 1469 2700 
L 4813 2700 
z
M 4813 531 
L 4813 2325 
L 1469 2325 
L 1469 531 
L 4813 531 
z
" transform="scale(0.015625)"/>
      <path id="WenQuanYiZenHei-65b0" d="M 5419 -763 
Q 5188 -738 4963 -763 
Q 4981 -344 4981 75 
L 4981 2819 
L 4188 2819 
L 4188 1706 
Q 4188 63 3163 -738 
Q 3019 -519 2769 -469 
Q 3769 131 3769 1706 
L 3769 4769 
L 3875 4769 
L 3844 4831 
L 4294 4781 
Q 4438 4769 4894 4816 
Q 5350 4863 5512 4931 
Q 5675 5000 5763 5094 
Q 5850 4881 5981 4694 
Q 5713 4544 5263 4519 
L 4188 4438 
L 4188 3100 
L 5563 3100 
Q 5850 3100 6131 3113 
Q 6119 2956 6131 2806 
L 5394 2819 
L 5394 75 
Q 5394 -344 5419 -763 
z
M 2981 213 
Q 2656 744 2256 1225 
L 2606 1513 
Q 3025 1006 3369 450 
L 2981 213 
z
M 1169 1525 
Q 1375 1419 1594 1363 
Q 1281 488 469 -469 
Q 331 -300 119 -244 
Q 575 263 888 900 
Q 1038 1206 1169 1525 
z
M 1825 6 
L 1825 1769 
L 1081 1769 
Q 794 1769 513 1756 
Q 525 1913 513 2063 
Q 794 2050 1081 2050 
L 1825 2050 
L 1825 2775 
L 994 2775 
Q 706 2775 425 2763 
Q 438 2919 425 3075 
Q 706 3056 994 3056 
L 1825 3056 
L 1825 3088 
L 1906 3088 
Q 2288 3656 2588 4381 
Q 2794 4269 3013 4206 
Q 2800 3675 2381 3056 
L 3013 3056 
Q 3294 3056 3581 3075 
Q 3563 2919 3581 2763 
Q 3294 2775 3013 2775 
L 2238 2775 
L 2238 2050 
L 2925 2050 
Q 3206 2050 3494 2063 
Q 3475 1913 3494 1756 
Q 3206 1769 2925 1769 
L 2238 1769 
L 2238 -156 
Q 2238 -413 2075 -581 
Q 1844 -794 1306 -794 
Q 1363 -519 1188 -288 
Q 1338 -313 1534 -316 
Q 1731 -319 1778 -278 
Q 1825 -238 1825 6 
z
M 1875 3388 
L 1500 3131 
L 825 4088 
L 1200 4350 
L 1875 3388 
z
M 3419 4713 
Q 3400 4563 3419 4406 
Q 3131 4419 2850 4419 
L 1125 4419 
Q 838 4419 556 4406 
Q 569 4563 556 4713 
Q 838 4700 1125 4700 
L 1763 4700 
L 1388 5088 
L 1719 5406 
L 2288 4813 
L 2175 4700 
L 2850 4700 
Q 3131 4700 3419 4713 
z
" transform="scale(0.015625)"/>
      <path id="WenQuanYiZenHei-589e" d="M 3138 -769 
Q 2913 -744 2688 -769 
Q 2706 -356 2706 56 
L 2706 1719 
L 5706 1719 
L 5706 -756 
L 5300 -756 
L 5300 -338 
L 3119 -338 
Q 3125 -550 3138 -769 
z
M 5113 3569 
Q 5344 3606 5563 3688 
Q 5669 3175 5256 2694 
Q 5113 2519 4975 2506 
Q 4831 2725 4588 2813 
Q 4806 2831 4997 3068 
Q 5188 3306 5113 3569 
z
M 3850 2763 
L 3469 2538 
L 2925 3456 
L 3313 3681 
L 3850 2763 
z
M 2400 2100 
Q 2469 3138 2400 4175 
L 3413 4175 
Q 3138 4550 2825 4888 
L 3156 5194 
Q 3581 4725 3938 4206 
L 3900 4175 
L 4456 4175 
Q 4863 4575 5131 5163 
Q 5325 5044 5538 4975 
Q 5369 4575 5013 4175 
L 6056 4175 
Q 5981 3138 6056 2100 
L 2400 2100 
z
M 5300 806 
L 5300 1450 
L 3113 1450 
Q 3113 1125 3113 806 
L 5300 806 
z
M 5300 563 
L 3113 563 
L 3113 -94 
L 5300 -94 
L 5300 563 
z
M 4431 3913 
L 4431 2363 
L 5650 2363 
L 5650 3913 
L 4756 3913 
L 4700 3856 
Q 4681 3888 4656 3913 
L 4431 3913 
z
M 4025 3913 
L 2806 3913 
L 2806 2363 
L 4025 2363 
L 4025 3913 
z
M -31 625 
Q 506 763 1006 975 
L 1006 3206 
L 669 3206 
Q 369 3206 75 3188 
Q 94 3356 75 3531 
Q 369 3513 669 3513 
L 1006 3513 
L 1006 4263 
Q 1006 4700 981 5131 
Q 1206 5106 1431 5131 
Q 1413 4700 1413 4263 
L 1413 3513 
L 2238 3531 
Q 2219 3356 2238 3188 
L 1413 3206 
L 1413 1163 
L 2150 1531 
L 2194 1256 
Q 1269 775 813 519 
L 194 144 
Q 138 438 -31 625 
z
" transform="scale(0.015625)"/>
      <path id="WenQuanYiZenHei-9884" d="M 1206 19 
L 1206 2888 
L 669 2888 
Q 356 2888 50 2869 
Q 63 3044 50 3213 
Q 363 3194 669 3194 
L 1250 3194 
Q 950 3631 606 4031 
L 963 4338 
L 1263 3975 
L 1913 4719 
L 731 4719 
Q 419 4719 106 4706 
Q 125 4875 106 5044 
Q 419 5031 731 5031 
L 2481 5031 
L 2544 4663 
Q 2394 4613 2256 4466 
Q 2119 4319 1525 3631 
Q 1656 3444 1788 3250 
L 1700 3194 
L 2700 3194 
L 2763 2825 
Q 2656 2819 2613 2763 
L 2100 2038 
L 1750 2288 
L 2175 2888 
L 1638 2888 
L 1638 -150 
Q 1638 -525 1363 -669 
Q 1075 -819 525 -813 
Q 594 -513 388 -294 
Q 575 -313 837 -316 
Q 1100 -319 1153 -272 
Q 1206 -225 1206 19 
z
M 5813 -888 
Q 5100 -225 4306 375 
L 4669 719 
Q 5481 106 6219 -575 
L 5813 -888 
z
M 2375 -906 
Q 2294 -631 2025 -506 
Q 2769 -431 3353 19 
Q 3938 469 3938 1069 
L 3938 2200 
Q 3938 2625 3913 3050 
Q 4188 3025 4456 3050 
Q 4431 2625 4431 2200 
L 4431 1069 
Q 4431 681 4225 319 
Q 3644 -606 2375 -906 
z
M 3444 488 
Q 3169 513 2894 488 
Q 2919 913 2919 1338 
L 2919 3675 
Q 3219 3675 3525 3675 
Q 3750 4013 3931 4525 
L 3238 4525 
Q 2888 4525 2538 4513 
Q 2556 4669 2538 4831 
Q 2888 4813 3238 4813 
L 5313 4813 
Q 5663 4813 6006 4831 
Q 5988 4669 6006 4513 
Q 5663 4525 5313 4525 
L 4481 4525 
Q 4388 4088 4088 3675 
L 5644 3675 
L 5644 513 
L 5144 513 
L 5144 3388 
L 3894 3388 
L 3875 3363 
Q 3863 3375 3844 3388 
Q 3631 3388 3413 3388 
L 3419 1338 
Q 3419 913 3444 488 
z
" transform="scale(0.015625)"/>
      <path id="WenQuanYiZenHei-6d4b" d="M 5450 138 
L 5450 4306 
Q 5450 4750 5425 5188 
Q 5663 5163 5906 5188 
Q 5881 4750 5881 4306 
L 5881 -38 
Q 5888 -569 5519 -719 
Q 5194 -831 4825 -813 
Q 4894 -519 4694 -281 
Q 4869 -306 5094 -309 
Q 5319 -313 5384 -256 
Q 5450 -200 5450 138 
z
M 4900 938 
Q 4663 963 4419 938 
Q 4444 1375 4444 1819 
L 4444 3381 
Q 4444 3819 4419 4263 
Q 4663 4238 4900 4263 
Q 4875 3819 4875 3381 
L 4875 1819 
Q 4875 1375 4900 938 
z
M 2750 2025 
L 2750 3038 
Q 2750 3481 2725 3919 
Q 2963 3894 3206 3919 
Q 3181 3481 3181 3038 
L 3181 2025 
Q 3181 1263 2919 625 
L 3231 956 
Q 3781 431 4256 -150 
L 3888 -456 
Q 3431 106 2906 600 
Q 2531 -288 1738 -769 
Q 1606 -519 1338 -450 
Q 1988 -156 2369 478 
Q 2750 1113 2750 2025 
z
M 2363 969 
Q 2119 994 1881 969 
Q 1906 1406 1906 1850 
L 1906 5038 
L 3956 5031 
L 3956 1200 
L 3525 1200 
L 3525 4713 
L 2338 4713 
L 2338 1850 
Q 2338 1406 2363 969 
z
M 663 -738 
Q 481 -588 206 -575 
Q 400 -69 606 581 
Q 813 1231 1200 2838 
L 1381 2706 
L 875 338 
L 663 -738 
z
M 1006 2856 
L 731 2550 
L 75 3400 
L 350 3713 
L 1006 2856 
z
M 1088 3913 
Q 781 4388 425 4800 
L 694 5125 
Q 1069 4688 1388 4188 
L 1088 3913 
z
" transform="scale(0.015625)"/>
      <path id="WenQuanYiZenHei-20" transform="scale(0.015625)"/>
      <path id="WenQuanYiZenHei-9655" d="M 3019 1525 
Q 2681 1525 2350 1506 
Q 2369 1688 2350 1869 
Q 2681 1856 3019 1856 
L 3781 1856 
L 3781 3831 
L 2919 3831 
Q 2581 3831 2244 3813 
Q 2263 3994 2244 4175 
Q 2581 4163 2919 4163 
L 3781 4163 
L 3781 4300 
Q 3781 4744 3756 5188 
Q 4000 5163 4244 5188 
Q 4219 4744 4219 4300 
L 4219 4163 
L 5275 4163 
Q 5606 4163 5944 4175 
Q 5925 3994 5944 3813 
Q 5606 3831 5275 3831 
L 4219 3831 
L 4219 1856 
L 5494 1856 
Q 5831 1856 6163 1869 
Q 6144 1688 6163 1506 
Q 5831 1525 5494 1525 
L 4538 1525 
Q 4731 800 5103 372 
Q 5475 -56 6113 -300 
Q 5888 -431 5794 -681 
Q 5206 -431 4781 134 
Q 4356 700 4163 1381 
Q 3988 594 3359 -9 
Q 2731 -613 1906 -819 
Q 1831 -531 1556 -413 
Q 2394 -300 2997 253 
Q 3600 806 3744 1525 
L 3019 1525 
z
M 5006 3644 
Q 5225 3544 5463 3494 
Q 5213 2731 4694 1963 
Q 4525 2119 4294 2150 
Q 4506 2444 4659 2781 
Q 4813 3119 5006 3644 
z
M 2994 2100 
Q 2744 2750 2406 3363 
L 2831 3594 
Q 3181 2956 3450 2275 
L 2994 2100 
z
M 831 -850 
Q 594 -825 350 -850 
Q 375 -419 375 19 
L 369 4938 
L 2294 4938 
L 2294 4625 
Q 2181 4513 2106 4375 
L 1506 3238 
Q 2219 2319 2219 1156 
Q 2181 400 1594 163 
L 1431 88 
Q 1313 300 1156 481 
Q 1319 538 1475 606 
Q 1794 744 1825 1156 
Q 1825 1744 1625 2300 
Q 1425 2856 1056 3313 
L 1750 4625 
L 800 4625 
L 806 19 
Q 806 -419 831 -850 
z
" transform="scale(0.015625)"/>
      <path id="WenQuanYiZenHei-897f" d="M 700 3606 
L 2188 3606 
L 2188 4513 
L 844 4513 
Q 481 4513 113 4494 
Q 138 4694 113 4888 
Q 481 4869 844 4869 
L 5406 4869 
Q 5769 4869 6138 4888 
Q 6113 4694 6138 4494 
Q 5769 4513 5406 4513 
L 3925 4513 
L 3925 3606 
L 5506 3606 
L 5506 -763 
L 5050 -763 
L 5050 -200 
L 1169 -200 
Q 1175 -488 1188 -775 
Q 938 -750 694 -775 
Q 713 -319 713 144 
L 700 3606 
z
M 3475 3250 
L 2638 3250 
L 2638 2663 
Q 2638 1950 2234 1378 
Q 1831 806 1188 556 
Q 1175 594 1163 631 
L 1163 163 
L 5050 163 
L 5050 1119 
L 4144 1119 
Q 3869 1119 3672 1312 
Q 3475 1506 3475 1781 
L 3475 3250 
z
M 3925 3250 
L 3925 1781 
Q 3925 1656 3987 1565 
Q 4050 1475 4150 1475 
L 5050 1475 
L 5050 3250 
L 3925 3250 
z
M 2188 3250 
L 1156 3250 
L 1163 1063 
Q 1625 1269 1906 1700 
Q 2188 2131 2188 2663 
L 2188 3250 
z
M 3475 3606 
L 3475 4513 
L 2638 4513 
L 2638 3606 
L 3475 3606 
z
" transform="scale(0.015625)"/>
     </defs>
     <use xlink:href="#WenQuanYiZenHei-6bcf"/>
     <use xlink:href="#WenQuanYiZenHei-65e5" x="100"/>
     <use xlink:href="#WenQuanYiZenHei-65b0" x="200"/>
     <use xlink:href="#WenQuanYiZenHei-589e" x="300"/>
     <use xlink:href="#WenQuanYiZenHei-9884" x="400"/>
     <use xlink:href="#WenQuanYiZenHei-6d4b" x="500"/>
     <use xlink:href="#WenQuanYiZenHei-20" x="600"/>
     <use xlink:href="#WenQuanYiZenHei-2d" x="629.980469"/>
     <use xlink:href="#WenQuanYiZenHei-20" x="659.960938"/>
     <use xlink:href="#WenQuanYiZenHei-9655" x="689.941406"/>
     <use xlink:href="#WenQuanYiZenHei-897f" x="789.941406"/>
    </g>
    <!-- ARIMA (0, 1, 1)x(1, 0, 1, 7) (R2 = 0.841534) -->
    <g transform="translate(583.182813 29.061)scale(0.12 -0.12)">
     <defs>
      <path id="WenQuanYiZenHei-41" d="M 3550 0 
L 2988 0 
L 2550 1281 
L 919 1281 
L 531 0 
L 69 0 
L 1494 4388 
L 2125 4388 
L 3550 0 
z
M 2425 1694 
L 1756 3800 
L 1075 1694 
L 2425 1694 
z
" transform="scale(0.015625)"/>
      <path id="WenQuanYiZenHei-52" d="M 3675 0 
L 3100 0 
L 2288 1900 
L 1069 1900 
L 1069 0 
L 519 0 
L 519 4388 
L 2163 4388 
Q 3006 4388 3400 3900 
Q 3581 3663 3625 3325 
Q 3631 3250 3631 3163 
Q 3631 2594 3219 2244 
Q 3038 2100 2813 2038 
L 3675 0 
z
M 3081 3169 
Q 3081 3825 2356 3906 
Q 2263 3919 2163 3919 
L 1069 3919 
L 1069 2350 
L 2100 2350 
Q 2906 2350 3044 2919 
Q 3081 3031 3081 3169 
z
" transform="scale(0.015625)"/>
      <path id="WenQuanYiZenHei-49" d="M 1100 0 
L 550 0 
L 550 4388 
L 1100 4388 
L 1100 0 
z
" transform="scale(0.015625)"/>
      <path id="WenQuanYiZenHei-4d" d="M 4756 0 
L 4206 0 
L 4206 3831 
L 4181 3831 
L 2788 0 
L 2419 0 
L 1000 3831 
L 975 3831 
L 975 0 
L 513 0 
L 513 4388 
L 1331 4388 
L 2656 875 
L 3950 4388 
L 4756 4388 
L 4756 0 
z
" transform="scale(0.015625)"/>
      <path id="WenQuanYiZenHei-28" d="M 1606 -1094 
L 1275 -1094 
Q 475 -100 338 1231 
Q 319 1438 319 1656 
Q 319 3031 1156 4244 
Q 1213 4313 1269 4388 
L 1600 4388 
Q 806 3169 794 1681 
Q 794 188 1606 -1094 
z
" transform="scale(0.015625)"/>
      <path id="WenQuanYiZenHei-2c" d="M 1363 75 
L 881 -825 
L 606 -825 
L 994 0 
L 656 0 
L 656 738 
L 1363 738 
L 1363 75 
z
" transform="scale(0.015625)"/>
      <path id="WenQuanYiZenHei-29" d="M 1600 1656 
Q 1600 306 869 -788 
Q 769 -950 644 -1094 
L 313 -1094 
Q 1125 188 1125 1681 
Q 1125 3169 338 4363 
Q 325 4375 319 4388 
L 650 4388 
Q 1525 3231 1594 1863 
Q 1600 1763 1600 1656 
z
" transform="scale(0.015625)"/>
      <path id="WenQuanYiZenHei-78" d="M 2806 0 
L 2213 0 
L 1394 1319 
L 544 0 
L 50 0 
L 1144 1681 
L 163 3250 
L 744 3250 
L 1431 2138 
L 2144 3250 
L 2631 3250 
L 1681 1794 
L 2806 0 
z
" transform="scale(0.015625)"/>
      <path id="WenQuanYiZenHei-3d" d="M 3569 2256 
L 263 2256 
L 263 2675 
L 3569 2675 
L 3569 2256 
z
M 3569 1019 
L 263 1019 
L 263 1431 
L 3569 1431 
L 3569 1019 
z
" transform="scale(0.015625)"/>
      <path id="WenQuanYiZenHei-2e" d="M 1344 0 
L 631 0 
L 631 725 
L 1344 725 
L 1344 0 
z
" transform="scale(0.015625)"/>
      <path id="WenQuanYiZenHei-38" d="M 3619 1175 
Q 3619 431 2850 100 
Q 2444 -63 1944 -63 
Q 1231 -63 725 269 
Q 225 594 225 1125 
Q 225 1881 1269 2281 
Q 719 2481 519 2938 
Q 444 3119 444 3319 
Q 444 4000 1144 4294 
Q 1519 4456 1963 4456 
Q 2669 4456 3094 4094 
Q 3425 3813 3425 3369 
Q 3425 2638 2575 2356 
Q 3231 2056 3450 1725 
Q 3619 1488 3619 1175 
z
M 2944 3344 
Q 2944 3906 2288 4019 
Q 2138 4044 1969 4044 
Q 1438 4044 1163 3775 
Q 1000 3613 1000 3375 
Q 1000 2925 1594 2663 
Q 1756 2588 1931 2550 
Q 2581 2725 2788 2956 
Q 2944 3125 2944 3344 
z
M 3075 1094 
Q 3075 1738 1875 2050 
Q 1094 1881 850 1463 
Q 763 1313 763 1131 
Q 763 569 1456 406 
Q 1681 344 1944 344 
Q 2519 344 2850 619 
Q 3075 813 3075 1094 
z
" transform="scale(0.015625)"/>
     </defs>
     <use xlink:href="#WenQuanYiZenHei-41"/>
     <use xlink:href="#WenQuanYiZenHei-52" x="55.957031"/>
     <use xlink:href="#WenQuanYiZenHei-49" x="117.871094"/>
     <use xlink:href="#WenQuanYiZenHei-4d" x="143.847656"/>
     <use xlink:href="#WenQuanYiZenHei-41" x="225.78125"/>
     <use xlink:href="#WenQuanYiZenHei-20" x="281.738281"/>
     <use xlink:href="#WenQuanYiZenHei-28" x="311.71875"/>
     <use xlink:href="#WenQuanYiZenHei-30" x="341.699219"/>
     <use xlink:href="#WenQuanYiZenHei-2c" x="401.660156"/>
     <use xlink:href="#WenQuanYiZenHei-20" x="431.640625"/>
     <use xlink:href="#WenQuanYiZenHei-31" x="461.621094"/>
     <use xlink:href="#WenQuanYiZenHei-2c" x="521.582031"/>
     <use xlink:href="#WenQuanYiZenHei-20" x="551.5625"/>
     <use xlink:href="#WenQuanYiZenHei-31" x="581.542969"/>
     <use xlink:href="#WenQuanYiZenHei-29" x="641.503906"/>
     <use xlink:href="#WenQuanYiZenHei-78" x="671.484375"/>
     <use xlink:href="#WenQuanYiZenHei-28" x="715.429688"/>
     <use xlink:href="#WenQuanYiZenHei-31" x="745.410156"/>
     <use xlink:href="#WenQuanYiZenHei-2c" x="805.371094"/>
     <use xlink:href="#WenQuanYiZenHei-20" x="835.351562"/>
     <use xlink:href="#WenQuanYiZenHei-30" x="865.332031"/>
     <use xlink:href="#WenQuanYiZenHei-2c" x="925.292969"/>
     <use xlink:href="#WenQuanYiZenHei-20" x="955.273438"/>
     <use xlink:href="#WenQuanYiZenHei-31" x="985.253906"/>
     <use xlink:href="#WenQuanYiZenHei-2c" x="1045.214844"/>
     <use xlink:href="#WenQuanYiZenHei-20" x="1075.195312"/>
     <use xlink:href="#WenQuanYiZenHei-37" x="1105.175781"/>
     <use xlink:href="#WenQuanYiZenHei-29" x="1165.136719"/>
     <use xlink:href="#WenQuanYiZenHei-20" x="1195.117188"/>
     <use xlink:href="#WenQuanYiZenHei-28" x="1225.097656"/>
     <use xlink:href="#WenQuanYiZenHei-52" x="1255.078125"/>
     <use xlink:href="#WenQuanYiZenHei-32" x="1316.992188"/>
     <use xlink:href="#WenQuanYiZenHei-20" x="1376.953125"/>
     <use xlink:href="#WenQuanYiZenHei-3d" x="1406.933594"/>
     <use xlink:href="#WenQuanYiZenHei-20" x="1466.894531"/>
     <use xlink:href="#WenQuanYiZenHei-30" x="1496.875"/>
     <use xlink:href="#WenQuanYiZenHei-2e" x="1556.835938"/>
     <use xlink:href="#WenQuanYiZenHei-38" x="1586.816406"/>
     <use xlink:href="#WenQuanYiZenHei-34" x="1646.777344"/>
     <use xlink:href="#WenQuanYiZenHei-31" x="1706.738281"/>
     <use xlink:href="#WenQuanYiZenHei-35" x="1766.699219"/>
     <use xlink:href="#WenQuanYiZenHei-33" x="1826.660156"/>
     <use xlink:href="#WenQuanYiZenHei-34" x="1886.621094"/>
     <use xlink:href="#WenQuanYiZenHei-29" x="1946.582031"/>
    </g>
   </g>
   <g id="legend_1">
    <g id="patch_7">
     <path d="M 1302.390625 87.056312 
L 1364.390625 87.056312 
Q 1366.390625 87.056312 1366.390625 85.056312 
L 1366.390625 42.061 
Q 1366.390625 40.061 1364.390625 40.061 
L 1302.390625 40.061 
Q 1300.390625 40.061 1300.390625 42.061 
L 1300.390625 85.056312 
Q 1300.390625 87.056312 1302.390625 87.056312 
z
" style="fill: #ffffff; opacity: 0.8; stroke: #cccccc; stroke-linejoin: miter"/>
    </g>
    <g id="line2d_23">
     <path d="M 1304.390625 48.695375 
L 1314.390625 48.695375 
L 1324.390625 48.695375 
" style="fill: none; stroke: #0000ff; stroke-width: 1.5; stroke-linecap: square"/>
    </g>
    <g id="text_21">
     <!-- 实际值 -->
     <g transform="translate(1332.390625 52.195375)scale(0.1 -0.1)">
      <defs>
       <path id="WenQuanYiZenHei-5b9e" d="M 1025 1175 
Q 694 1175 356 1163 
Q 375 1344 356 1525 
Q 694 1506 1025 1506 
L 3363 1506 
L 3363 2625 
Q 3363 3075 3338 3519 
Q 3581 3494 3825 3519 
Q 3800 3075 3800 2625 
L 3800 1506 
L 5406 1506 
Q 5744 1506 6075 1525 
Q 6056 1344 6075 1163 
Q 5744 1175 5406 1175 
L 4038 1175 
L 4981 456 
L 6131 -488 
L 5819 -856 
L 4681 75 
L 3638 875 
Q 3313 231 2475 -231 
Q 1638 -694 700 -825 
Q 638 -519 344 -400 
Q 1450 -319 2406 244 
Q 3113 656 3300 1175 
L 1025 1175 
z
M 2263 1581 
Q 1763 2081 1200 2513 
L 1494 2894 
Q 2081 2444 2600 1919 
L 2263 1581 
z
M 2638 2500 
Q 2219 2963 1731 3363 
L 2044 3738 
Q 2556 3313 3000 2819 
L 2638 2500 
z
M 919 3156 
L 481 3156 
L 481 4344 
L 3069 4344 
Q 2794 4731 2469 5081 
L 2825 5413 
Q 3256 4944 3613 4413 
L 3513 4344 
L 5869 4344 
L 5869 3156 
L 5425 3156 
L 5425 4013 
L 919 4013 
L 919 3156 
z
" transform="scale(0.015625)"/>
       <path id="WenQuanYiZenHei-9645" d="M 6000 431 
L 5569 194 
L 4963 1219 
L 4313 2219 
L 4719 2494 
L 5375 1481 
L 6000 431 
z
M 2956 2450 
Q 3181 2344 3419 2294 
Q 3006 1038 1944 -188 
Q 1794 -6 1569 56 
Q 2069 600 2372 1156 
Q 2675 1713 2956 2450 
z
M 3750 25 
L 3750 2913 
L 2819 2913 
Q 2475 2913 2125 2894 
Q 2144 3081 2125 3269 
Q 2475 3256 2819 3256 
L 5469 3256 
Q 5819 3256 6163 3269 
Q 6144 3081 6163 2894 
Q 5813 2913 5469 2913 
L 4194 2913 
L 4194 -144 
Q 4194 -725 3456 -813 
L 3263 -825 
Q 3325 -506 3125 -250 
Q 3250 -281 3394 -306 
Q 3663 -313 3706 -272 
Q 3750 -231 3750 25 
z
M 5544 4950 
Q 5525 4756 5544 4569 
Q 5194 4588 4844 4588 
L 3325 4588 
Q 2975 4588 2625 4569 
Q 2644 4756 2625 4950 
Q 2975 4931 3325 4931 
L 4844 4931 
Q 5194 4931 5544 4950 
z
M 819 -850 
Q 581 -825 344 -850 
Q 369 -419 369 19 
L 363 4938 
L 2256 4938 
L 2256 4625 
Q 2150 4513 2075 4375 
L 1481 3238 
Q 2181 2319 2181 1156 
Q 2144 400 1569 163 
L 1406 88 
Q 1288 300 1138 481 
Q 1294 538 1450 606 
Q 1763 744 1794 1156 
Q 1794 1744 1600 2300 
Q 1406 2856 1038 3313 
L 1725 4625 
L 788 4625 
L 794 19 
Q 794 -419 819 -850 
z
" transform="scale(0.015625)"/>
       <path id="WenQuanYiZenHei-503c" d="M 6175 -219 
Q 6156 -388 6175 -556 
Q 5863 -544 5550 -544 
L 2313 -544 
Q 2000 -544 1688 -556 
Q 1706 -388 1688 -219 
L 2506 -231 
L 2506 3469 
L 3644 3469 
L 3644 4119 
L 2638 4119 
Q 2325 4119 2013 4100 
Q 2031 4269 2013 4438 
Q 2325 4425 2638 4425 
L 3638 4425 
Q 3638 4719 3619 5013 
Q 3856 4988 4094 5013 
Q 4075 4719 4075 4425 
L 5344 4425 
Q 5650 4425 5963 4438 
Q 5950 4269 5963 4100 
Q 5656 4119 5344 4119 
L 4069 4119 
L 4069 3469 
L 5300 3469 
L 5300 -231 
L 5550 -231 
Q 5863 -231 6175 -219 
z
M 4869 2556 
L 4869 3156 
L 2931 3156 
Q 2931 2850 2931 2556 
L 4869 2556 
z
M 4869 1669 
L 4869 2250 
L 2931 2250 
L 2931 1669 
L 4869 1669 
z
M 4869 731 
L 4869 1363 
L 2931 1363 
L 2931 731 
L 4869 731 
z
M 4869 -231 
L 4869 425 
L 2931 425 
L 2931 -231 
L 4869 -231 
z
M 2106 4925 
Q 1856 4075 1463 3338 
L 1463 31 
Q 1463 -413 1481 -850 
Q 1256 -825 1031 -850 
Q 1050 -413 1050 31 
L 1050 2681 
Q 750 2269 375 1931 
Q 238 2156 0 2256 
Q 331 2544 619 2875 
Q 1094 3425 1300 3950 
Q 1494 4469 1625 5050 
Q 1850 4963 2106 4925 
z
" transform="scale(0.015625)"/>
      </defs>
      <use xlink:href="#WenQuanYiZenHei-5b9e"/>
      <use xlink:href="#WenQuanYiZenHei-9645" x="100"/>
      <use xlink:href="#WenQuanYiZenHei-503c" x="200"/>
     </g>
    </g>
    <g id="line2d_24">
     <path d="M 1304.390625 63.3735 
L 1314.390625 63.3735 
L 1324.390625 63.3735 
" style="fill: none; stroke: #ffa500; stroke-width: 1.5; stroke-linecap: square"/>
    </g>
    <g id="text_22">
     <!-- 校验值 -->
     <g transform="translate(1332.390625 66.8735)scale(0.1 -0.1)">
      <defs>
       <path id="WenQuanYiZenHei-6821" d="M 5256 2463 
Q 5025 1475 4494 706 
Q 5125 -94 6175 -544 
Q 5950 -663 5850 -900 
Q 4906 -494 4250 381 
Q 3931 0 3475 -350 
Q 3019 -700 2388 -919 
Q 2338 -656 2138 -475 
Q 3306 -69 4006 738 
Q 3563 1444 3300 2331 
Q 3050 2050 2706 1800 
Q 2606 2000 2406 2106 
Q 2900 2444 3181 2938 
Q 3350 3225 3488 3538 
Q 3700 3431 3925 3369 
Q 3763 2894 3425 2475 
L 3650 2531 
Q 3888 1675 4244 1075 
Q 4469 1444 4603 1937 
Q 4738 2431 4775 2688 
Q 4963 2644 5150 2625 
Q 4919 2969 4663 3294 
L 5038 3588 
Q 5544 2925 5975 2213 
L 5569 1969 
L 5256 2463 
z
M 6006 4050 
Q 5988 3881 6006 3713 
Q 5694 3725 5381 3725 
L 3413 3725 
Q 3100 3725 2788 3713 
Q 2806 3881 2788 4050 
Q 3100 4031 3413 4031 
L 4325 4031 
Q 4019 4525 3644 4969 
L 4000 5275 
Q 4413 4788 4750 4244 
L 4406 4031 
L 5381 4031 
Q 5694 4031 6006 4050 
z
M 406 263 
Q 238 431 -25 469 
Q 194 825 466 1337 
Q 738 1850 925 2406 
Q 1113 2963 1256 3519 
L 825 3519 
Q 506 3519 188 3500 
Q 206 3700 188 3900 
Q 506 3881 825 3881 
L 1363 3881 
L 1363 4263 
Q 1363 4719 1338 5175 
Q 1556 5150 1775 5175 
Q 1756 4719 1756 4263 
L 1756 3881 
L 2525 3900 
Q 2506 3700 2525 3500 
L 1756 3519 
L 1756 2738 
L 1931 2881 
Q 2306 2300 2613 1650 
L 2231 1413 
Q 2081 1725 1919 2019 
L 1756 2300 
L 1756 69 
Q 1756 -388 1775 -850 
Q 1556 -825 1338 -850 
Q 1363 -388 1363 69 
L 1363 2438 
Q 925 1144 406 263 
z
" transform="scale(0.015625)"/>
       <path id="WenQuanYiZenHei-9a8c" d="M 5981 -106 
Q 5963 -275 5981 -444 
Q 5669 -431 5356 -431 
L 2969 -431 
Q 2656 -431 2350 -444 
Q 2363 -275 2350 -106 
Q 2656 -125 2969 -125 
L 4369 -125 
Q 4600 431 4881 1288 
L 5206 2300 
Q 5425 2206 5663 2163 
Q 5375 1188 4831 -125 
L 5356 -125 
Q 5669 -125 5981 -106 
z
M 4063 594 
Q 3788 1425 3425 2219 
L 3856 2419 
Q 4225 1600 4513 744 
L 4063 594 
z
M 3163 363 
Q 2931 1200 2613 2006 
L 3056 2175 
Q 3381 1350 3619 488 
L 3163 363 
z
M 4581 2550 
L 3513 2550 
Q 3200 2550 2888 2538 
Q 2900 2663 2894 2769 
Q 2569 2488 2206 2300 
Q 2113 2550 1894 2700 
Q 2488 2975 2975 3463 
Q 3269 3756 3394 4006 
Q 3644 4513 3794 5063 
Q 4038 4975 4294 4931 
Q 4250 4806 4206 4681 
Q 4475 3888 5025 3388 
Q 5519 2938 6169 2650 
Q 5938 2538 5838 2300 
Q 5513 2456 5200 2700 
Q 5200 2619 5206 2538 
Q 4894 2550 4581 2550 
z
M 3513 2863 
L 4994 2869 
Q 4344 3438 3988 4194 
Q 3594 3406 3013 2869 
Q 3263 2863 3513 2863 
z
M 206 444 
Q 188 756 44 963 
Q 319 956 650 1003 
Q 981 1050 1731 1281 
L 1738 1006 
Q 800 719 206 444 
z
M 525 4000 
Q 744 3950 994 3944 
Q 925 3519 875 3081 
L 763 2144 
L 1475 2144 
L 1831 4444 
L 663 4444 
Q 350 4444 38 4431 
Q 56 4600 38 4769 
Q 350 4756 663 4756 
L 2313 4756 
L 1913 2144 
L 2375 2144 
L 2200 -200 
Q 2188 -425 1988 -588 
Q 1694 -800 1181 -788 
L 944 -788 
Q 1000 -450 788 -269 
Q 1013 -294 1334 -287 
Q 1656 -281 1715 -243 
Q 1775 -206 1781 -50 
L 1925 1831 
L 294 1831 
L 444 3131 
Q 500 3569 525 4000 
z
" transform="scale(0.015625)"/>
      </defs>
      <use xlink:href="#WenQuanYiZenHei-6821"/>
      <use xlink:href="#WenQuanYiZenHei-9a8c" x="100"/>
      <use xlink:href="#WenQuanYiZenHei-503c" x="200"/>
     </g>
    </g>
    <g id="line2d_25">
     <path d="M 1304.390625 77.895375 
L 1314.390625 77.895375 
L 1324.390625 77.895375 
" style="fill: none; stroke: #ff0000; stroke-width: 1.5; stroke-linecap: square"/>
    </g>
    <g id="text_23">
     <!-- 预测值 -->
     <g transform="translate(1332.390625 81.395375)scale(0.1 -0.1)">
      <use xlink:href="#WenQuanYiZenHei-9884"/>
      <use xlink:href="#WenQuanYiZenHei-6d4b" x="100"/>
      <use xlink:href="#WenQuanYiZenHei-503c" x="200"/>
     </g>
    </g>
   </g>
  </g>
 </g>
 <defs>
  <clipPath id="p7c38043b8c">
   <rect x="32.190625" y="35.061" width="1339.2" height="332.64"/>
  </clipPath>
 </defs>
</svg>
