<?xml version="1.0" encoding="utf-8" standalone="no"?>
<!DOCTYPE svg PUBLIC "-//W3C//DTD SVG 1.1//EN"
  "http://www.w3.org/Graphics/SVG/1.1/DTD/svg11.dtd">
<svg xmlns:xlink="http://www.w3.org/1999/xlink" width="1378.590625pt" height="390.418188pt" viewBox="0 0 1378.590625 390.418188" xmlns="http://www.w3.org/2000/svg" version="1.1">
 <metadata>
  <rdf:RDF xmlns:dc="http://purl.org/dc/elements/1.1/" xmlns:cc="http://creativecommons.org/ns#" xmlns:rdf="http://www.w3.org/1999/02/22-rdf-syntax-ns#">
   <cc:Work>
    <dc:type rdf:resource="http://purl.org/dc/dcmitype/StillImage"/>
    <dc:date>2022-07-20T18:21:06.479889</dc:date>
    <dc:format>image/svg+xml</dc:format>
    <dc:creator>
     <cc:Agent>
      <dc:title>Matplotlib v3.5.2, https://matplotlib.org/</dc:title>
     </cc:Agent>
    </dc:creator>
   </cc:Work>
  </rdf:RDF>
 </metadata>
 <defs>
  <style type="text/css">*{stroke-linejoin: round; stroke-linecap: butt}</style>
 </defs>
 <g id="figure_1">
  <g id="patch_1">
   <path d="M 0 390.418188 
L 1378.590625 390.418188 
L 1378.590625 -0 
L 0 -0 
z
" style="fill: #ffffff"/>
  </g>
  <g id="axes_1">
   <g id="patch_2">
    <path d="M 32.190625 367.701 
L 1371.390625 367.701 
L 1371.390625 35.061 
L 32.190625 35.061 
z
" style="fill: #ffffff"/>
   </g>
   <g id="matplotlib.axis_1">
    <g id="xtick_1">
     <g id="line2d_1">
      <defs>
       <path id="m52a35bf361" d="M 0 0 
L 0 3.5 
" style="stroke: #000000; stroke-width: 0.8"/>
      </defs>
      <g>
       <use xlink:href="#m52a35bf361" x="63.981919" y="367.701" style="stroke: #000000; stroke-width: 0.8"/>
      </g>
     </g>
     <g id="text_1">
      <!-- 2020-01 -->
      <g transform="translate(44.492075 381.55725)scale(0.1 -0.1)">
       <defs>
        <path id="WenQuanYiZenHei-32" d="M 3488 0 
L 369 0 
L 369 456 
L 2150 1850 
Q 2931 2463 2931 3144 
Q 2931 3619 2488 3863 
Q 2231 4013 1931 4013 
Q 1425 4013 1113 3619 
Q 894 3356 881 3013 
L 369 3169 
Q 531 3981 1213 4300 
Q 1544 4456 1950 4456 
Q 2631 4456 3088 4044 
L 3225 3888 
L 3350 3706 
Q 3481 3444 3481 3144 
Q 3481 2313 2519 1569 
L 1069 456 
L 3488 456 
L 3488 0 
z
" transform="scale(0.015625)"/>
        <path id="WenQuanYiZenHei-30" d="M 3581 2175 
Q 3581 1288 3169 638 
Q 2713 -63 1938 -63 
Q 1025 -63 563 831 
Q 256 1425 256 2188 
Q 256 3188 700 3819 
Q 1138 4456 1888 4456 
Q 2863 4456 3306 3500 
Q 3581 2925 3581 2175 
z
M 3019 2100 
Q 3019 3356 2500 3806 
L 2350 3919 
Q 2144 4031 1888 4031 
Q 1100 4031 888 2956 
Q 819 2625 819 2225 
Q 819 1013 1338 569 
Q 1588 356 1938 356 
Q 2675 356 2925 1294 
Q 3019 1663 3019 2100 
z
" transform="scale(0.015625)"/>
        <path id="WenQuanYiZenHei-2d" d="M 1363 1444 
L 0 1444 
L 0 1844 
L 1363 1844 
L 1363 1444 
z
" transform="scale(0.015625)"/>
        <path id="WenQuanYiZenHei-31" d="M 3556 0 
L 488 0 
L 488 406 
L 1800 406 
L 1800 3725 
Q 1231 3125 588 2788 
L 588 3338 
Q 1456 3781 1931 4388 
L 2331 4388 
L 2331 406 
L 3556 406 
L 3556 0 
z
" transform="scale(0.015625)"/>
       </defs>
       <use xlink:href="#WenQuanYiZenHei-32"/>
       <use xlink:href="#WenQuanYiZenHei-30" x="59.960938"/>
       <use xlink:href="#WenQuanYiZenHei-32" x="119.921875"/>
       <use xlink:href="#WenQuanYiZenHei-30" x="179.882812"/>
       <use xlink:href="#WenQuanYiZenHei-2d" x="239.84375"/>
       <use xlink:href="#WenQuanYiZenHei-30" x="269.824219"/>
       <use xlink:href="#WenQuanYiZenHei-31" x="329.785156"/>
      </g>
     </g>
    </g>
    <g id="xtick_2">
     <g id="line2d_2">
      <g>
       <use xlink:href="#m52a35bf361" x="184.273302" y="367.701" style="stroke: #000000; stroke-width: 0.8"/>
      </g>
     </g>
     <g id="text_2">
      <!-- 2020-04 -->
      <g transform="translate(164.783458 381.55725)scale(0.1 -0.1)">
       <defs>
        <path id="WenQuanYiZenHei-34" d="M 3631 1025 
L 2913 1025 
L 2913 0 
L 2381 0 
L 2381 1025 
L 219 1025 
L 219 1388 
L 2225 4388 
L 2913 4388 
L 2913 1444 
L 3631 1444 
L 3631 1025 
z
M 2381 1444 
L 2381 3963 
L 788 1444 
L 2381 1444 
z
" transform="scale(0.015625)"/>
       </defs>
       <use xlink:href="#WenQuanYiZenHei-32"/>
       <use xlink:href="#WenQuanYiZenHei-30" x="59.960938"/>
       <use xlink:href="#WenQuanYiZenHei-32" x="119.921875"/>
       <use xlink:href="#WenQuanYiZenHei-30" x="179.882812"/>
       <use xlink:href="#WenQuanYiZenHei-2d" x="239.84375"/>
       <use xlink:href="#WenQuanYiZenHei-30" x="269.824219"/>
       <use xlink:href="#WenQuanYiZenHei-34" x="329.785156"/>
      </g>
     </g>
    </g>
    <g id="xtick_3">
     <g id="line2d_3">
      <g>
       <use xlink:href="#m52a35bf361" x="304.564685" y="367.701" style="stroke: #000000; stroke-width: 0.8"/>
      </g>
     </g>
     <g id="text_3">
      <!-- 2020-07 -->
      <g transform="translate(285.074841 381.55725)scale(0.1 -0.1)">
       <defs>
        <path id="WenQuanYiZenHei-37" d="M 3400 4056 
Q 1838 2175 1838 0 
L 1275 0 
Q 1269 1438 2056 2825 
Q 2381 3400 2825 3913 
L 444 3913 
L 500 4388 
L 3400 4388 
L 3400 4056 
z
" transform="scale(0.015625)"/>
       </defs>
       <use xlink:href="#WenQuanYiZenHei-32"/>
       <use xlink:href="#WenQuanYiZenHei-30" x="59.960938"/>
       <use xlink:href="#WenQuanYiZenHei-32" x="119.921875"/>
       <use xlink:href="#WenQuanYiZenHei-30" x="179.882812"/>
       <use xlink:href="#WenQuanYiZenHei-2d" x="239.84375"/>
       <use xlink:href="#WenQuanYiZenHei-30" x="269.824219"/>
       <use xlink:href="#WenQuanYiZenHei-37" x="329.785156"/>
      </g>
     </g>
    </g>
    <g id="xtick_4">
     <g id="line2d_4">
      <g>
       <use xlink:href="#m52a35bf361" x="426.177951" y="367.701" style="stroke: #000000; stroke-width: 0.8"/>
      </g>
     </g>
     <g id="text_4">
      <!-- 2020-10 -->
      <g transform="translate(406.688107 381.55725)scale(0.1 -0.1)">
       <use xlink:href="#WenQuanYiZenHei-32"/>
       <use xlink:href="#WenQuanYiZenHei-30" x="59.960938"/>
       <use xlink:href="#WenQuanYiZenHei-32" x="119.921875"/>
       <use xlink:href="#WenQuanYiZenHei-30" x="179.882812"/>
       <use xlink:href="#WenQuanYiZenHei-2d" x="239.84375"/>
       <use xlink:href="#WenQuanYiZenHei-31" x="269.824219"/>
       <use xlink:href="#WenQuanYiZenHei-30" x="329.785156"/>
      </g>
     </g>
    </g>
    <g id="xtick_5">
     <g id="line2d_5">
      <g>
       <use xlink:href="#m52a35bf361" x="547.791217" y="367.701" style="stroke: #000000; stroke-width: 0.8"/>
      </g>
     </g>
     <g id="text_5">
      <!-- 2021-01 -->
      <g transform="translate(528.301373 381.55725)scale(0.1 -0.1)">
       <use xlink:href="#WenQuanYiZenHei-32"/>
       <use xlink:href="#WenQuanYiZenHei-30" x="59.960938"/>
       <use xlink:href="#WenQuanYiZenHei-32" x="119.921875"/>
       <use xlink:href="#WenQuanYiZenHei-31" x="179.882812"/>
       <use xlink:href="#WenQuanYiZenHei-2d" x="239.84375"/>
       <use xlink:href="#WenQuanYiZenHei-30" x="269.824219"/>
       <use xlink:href="#WenQuanYiZenHei-31" x="329.785156"/>
      </g>
     </g>
    </g>
    <g id="xtick_6">
     <g id="line2d_6">
      <g>
       <use xlink:href="#m52a35bf361" x="666.760717" y="367.701" style="stroke: #000000; stroke-width: 0.8"/>
      </g>
     </g>
     <g id="text_6">
      <!-- 2021-04 -->
      <g transform="translate(647.270873 381.55725)scale(0.1 -0.1)">
       <use xlink:href="#WenQuanYiZenHei-32"/>
       <use xlink:href="#WenQuanYiZenHei-30" x="59.960938"/>
       <use xlink:href="#WenQuanYiZenHei-32" x="119.921875"/>
       <use xlink:href="#WenQuanYiZenHei-31" x="179.882812"/>
       <use xlink:href="#WenQuanYiZenHei-2d" x="239.84375"/>
       <use xlink:href="#WenQuanYiZenHei-30" x="269.824219"/>
       <use xlink:href="#WenQuanYiZenHei-34" x="329.785156"/>
      </g>
     </g>
    </g>
    <g id="xtick_7">
     <g id="line2d_7">
      <g>
       <use xlink:href="#m52a35bf361" x="787.0521" y="367.701" style="stroke: #000000; stroke-width: 0.8"/>
      </g>
     </g>
     <g id="text_7">
      <!-- 2021-07 -->
      <g transform="translate(767.562256 381.55725)scale(0.1 -0.1)">
       <use xlink:href="#WenQuanYiZenHei-32"/>
       <use xlink:href="#WenQuanYiZenHei-30" x="59.960938"/>
       <use xlink:href="#WenQuanYiZenHei-32" x="119.921875"/>
       <use xlink:href="#WenQuanYiZenHei-31" x="179.882812"/>
       <use xlink:href="#WenQuanYiZenHei-2d" x="239.84375"/>
       <use xlink:href="#WenQuanYiZenHei-30" x="269.824219"/>
       <use xlink:href="#WenQuanYiZenHei-37" x="329.785156"/>
      </g>
     </g>
    </g>
    <g id="xtick_8">
     <g id="line2d_8">
      <g>
       <use xlink:href="#m52a35bf361" x="908.665366" y="367.701" style="stroke: #000000; stroke-width: 0.8"/>
      </g>
     </g>
     <g id="text_8">
      <!-- 2021-10 -->
      <g transform="translate(889.175522 381.55725)scale(0.1 -0.1)">
       <use xlink:href="#WenQuanYiZenHei-32"/>
       <use xlink:href="#WenQuanYiZenHei-30" x="59.960938"/>
       <use xlink:href="#WenQuanYiZenHei-32" x="119.921875"/>
       <use xlink:href="#WenQuanYiZenHei-31" x="179.882812"/>
       <use xlink:href="#WenQuanYiZenHei-2d" x="239.84375"/>
       <use xlink:href="#WenQuanYiZenHei-31" x="269.824219"/>
       <use xlink:href="#WenQuanYiZenHei-30" x="329.785156"/>
      </g>
     </g>
    </g>
    <g id="xtick_9">
     <g id="line2d_9">
      <g>
       <use xlink:href="#m52a35bf361" x="1030.278632" y="367.701" style="stroke: #000000; stroke-width: 0.8"/>
      </g>
     </g>
     <g id="text_9">
      <!-- 2022-01 -->
      <g transform="translate(1010.788788 381.55725)scale(0.1 -0.1)">
       <use xlink:href="#WenQuanYiZenHei-32"/>
       <use xlink:href="#WenQuanYiZenHei-30" x="59.960938"/>
       <use xlink:href="#WenQuanYiZenHei-32" x="119.921875"/>
       <use xlink:href="#WenQuanYiZenHei-32" x="179.882812"/>
       <use xlink:href="#WenQuanYiZenHei-2d" x="239.84375"/>
       <use xlink:href="#WenQuanYiZenHei-30" x="269.824219"/>
       <use xlink:href="#WenQuanYiZenHei-31" x="329.785156"/>
      </g>
     </g>
    </g>
    <g id="xtick_10">
     <g id="line2d_10">
      <g>
       <use xlink:href="#m52a35bf361" x="1149.248132" y="367.701" style="stroke: #000000; stroke-width: 0.8"/>
      </g>
     </g>
     <g id="text_10">
      <!-- 2022-04 -->
      <g transform="translate(1129.758288 381.55725)scale(0.1 -0.1)">
       <use xlink:href="#WenQuanYiZenHei-32"/>
       <use xlink:href="#WenQuanYiZenHei-30" x="59.960938"/>
       <use xlink:href="#WenQuanYiZenHei-32" x="119.921875"/>
       <use xlink:href="#WenQuanYiZenHei-32" x="179.882812"/>
       <use xlink:href="#WenQuanYiZenHei-2d" x="239.84375"/>
       <use xlink:href="#WenQuanYiZenHei-30" x="269.824219"/>
       <use xlink:href="#WenQuanYiZenHei-34" x="329.785156"/>
      </g>
     </g>
    </g>
    <g id="xtick_11">
     <g id="line2d_11">
      <g>
       <use xlink:href="#m52a35bf361" x="1269.539515" y="367.701" style="stroke: #000000; stroke-width: 0.8"/>
      </g>
     </g>
     <g id="text_11">
      <!-- 2022-07 -->
      <g transform="translate(1250.049671 381.55725)scale(0.1 -0.1)">
       <use xlink:href="#WenQuanYiZenHei-32"/>
       <use xlink:href="#WenQuanYiZenHei-30" x="59.960938"/>
       <use xlink:href="#WenQuanYiZenHei-32" x="119.921875"/>
       <use xlink:href="#WenQuanYiZenHei-32" x="179.882812"/>
       <use xlink:href="#WenQuanYiZenHei-2d" x="239.84375"/>
       <use xlink:href="#WenQuanYiZenHei-30" x="269.824219"/>
       <use xlink:href="#WenQuanYiZenHei-37" x="329.785156"/>
      </g>
     </g>
    </g>
   </g>
   <g id="matplotlib.axis_2">
    <g id="ytick_1">
     <g id="line2d_12">
      <defs>
       <path id="m8975a440e9" d="M 0 0 
L -3.5 0 
" style="stroke: #000000; stroke-width: 0.8"/>
      </defs>
      <g>
       <use xlink:href="#m8975a440e9" x="32.190625" y="344.724852" style="stroke: #000000; stroke-width: 0.8"/>
      </g>
     </g>
     <g id="text_12">
      <!-- 0 -->
      <g transform="translate(19.19375 348.152977)scale(0.1 -0.1)">
       <use xlink:href="#WenQuanYiZenHei-30"/>
      </g>
     </g>
    </g>
    <g id="ytick_2">
     <g id="line2d_13">
      <g>
       <use xlink:href="#m8975a440e9" x="32.190625" y="300.631461" style="stroke: #000000; stroke-width: 0.8"/>
      </g>
     </g>
     <g id="text_13">
      <!-- 50 -->
      <g transform="translate(13.196875 304.059586)scale(0.1 -0.1)">
       <defs>
        <path id="WenQuanYiZenHei-35" d="M 3531 1488 
Q 3531 688 2913 250 
Q 2456 -63 1844 -63 
Q 1175 -63 706 350 
Q 413 613 306 975 
L 781 1131 
Q 1000 538 1569 406 
Q 1706 369 1856 369 
Q 2550 369 2850 869 
Q 3000 1131 3000 1494 
Q 3000 2056 2581 2356 
Q 2319 2538 1969 2538 
Q 1400 2538 1031 2075 
Q 981 2013 938 1938 
L 500 2031 
L 644 4388 
L 3244 4388 
L 3200 3919 
L 1044 3919 
L 950 2500 
Q 1431 2975 2006 2975 
Q 2713 2975 3163 2475 
Q 3531 2063 3531 1488 
z
" transform="scale(0.015625)"/>
       </defs>
       <use xlink:href="#WenQuanYiZenHei-35"/>
       <use xlink:href="#WenQuanYiZenHei-30" x="59.960938"/>
      </g>
     </g>
    </g>
    <g id="ytick_3">
     <g id="line2d_14">
      <g>
       <use xlink:href="#m8975a440e9" x="32.190625" y="256.53807" style="stroke: #000000; stroke-width: 0.8"/>
      </g>
     </g>
     <g id="text_14">
      <!-- 100 -->
      <g transform="translate(7.2 259.966195)scale(0.1 -0.1)">
       <use xlink:href="#WenQuanYiZenHei-31"/>
       <use xlink:href="#WenQuanYiZenHei-30" x="59.960938"/>
       <use xlink:href="#WenQuanYiZenHei-30" x="119.921875"/>
      </g>
     </g>
    </g>
    <g id="ytick_4">
     <g id="line2d_15">
      <g>
       <use xlink:href="#m8975a440e9" x="32.190625" y="212.444679" style="stroke: #000000; stroke-width: 0.8"/>
      </g>
     </g>
     <g id="text_15">
      <!-- 150 -->
      <g transform="translate(7.2 215.872804)scale(0.1 -0.1)">
       <use xlink:href="#WenQuanYiZenHei-31"/>
       <use xlink:href="#WenQuanYiZenHei-35" x="59.960938"/>
       <use xlink:href="#WenQuanYiZenHei-30" x="119.921875"/>
      </g>
     </g>
    </g>
    <g id="ytick_5">
     <g id="line2d_16">
      <g>
       <use xlink:href="#m8975a440e9" x="32.190625" y="168.351288" style="stroke: #000000; stroke-width: 0.8"/>
      </g>
     </g>
     <g id="text_16">
      <!-- 200 -->
      <g transform="translate(7.2 171.779413)scale(0.1 -0.1)">
       <use xlink:href="#WenQuanYiZenHei-32"/>
       <use xlink:href="#WenQuanYiZenHei-30" x="59.960938"/>
       <use xlink:href="#WenQuanYiZenHei-30" x="119.921875"/>
      </g>
     </g>
    </g>
    <g id="ytick_6">
     <g id="line2d_17">
      <g>
       <use xlink:href="#m8975a440e9" x="32.190625" y="124.257897" style="stroke: #000000; stroke-width: 0.8"/>
      </g>
     </g>
     <g id="text_17">
      <!-- 250 -->
      <g transform="translate(7.2 127.686022)scale(0.1 -0.1)">
       <use xlink:href="#WenQuanYiZenHei-32"/>
       <use xlink:href="#WenQuanYiZenHei-35" x="59.960938"/>
       <use xlink:href="#WenQuanYiZenHei-30" x="119.921875"/>
      </g>
     </g>
    </g>
    <g id="ytick_7">
     <g id="line2d_18">
      <g>
       <use xlink:href="#m8975a440e9" x="32.190625" y="80.164506" style="stroke: #000000; stroke-width: 0.8"/>
      </g>
     </g>
     <g id="text_18">
      <!-- 300 -->
      <g transform="translate(7.2 83.592631)scale(0.1 -0.1)">
       <defs>
        <path id="WenQuanYiZenHei-33" d="M 3588 1231 
Q 3588 494 2875 144 
Q 2450 -63 1925 -63 
Q 1044 -63 556 488 
Q 356 706 256 1000 
L 769 1169 
Q 994 375 1913 375 
Q 2631 375 2900 788 
Q 3019 975 3019 1231 
Q 3019 1638 2638 1881 
Q 2325 2081 1613 2069 
L 1338 2069 
L 1338 2494 
Q 1969 2494 2094 2506 
Q 2325 2544 2463 2613 
Q 2763 2756 2844 3100 
Q 2863 3169 2863 3244 
Q 2863 3744 2381 3944 
L 2163 4006 
Q 2056 4025 1931 4025 
Q 1388 4025 1075 3631 
Q 969 3488 906 3313 
L 419 3456 
Q 675 4150 1400 4369 
Q 1669 4456 1975 4456 
Q 2694 4456 3106 4050 
Q 3419 3744 3419 3275 
Q 3419 2813 3025 2513 
Q 2825 2356 2575 2319 
L 2575 2306 
Q 3181 2213 3450 1769 
Q 3588 1525 3588 1231 
z
" transform="scale(0.015625)"/>
       </defs>
       <use xlink:href="#WenQuanYiZenHei-33"/>
       <use xlink:href="#WenQuanYiZenHei-30" x="59.960938"/>
       <use xlink:href="#WenQuanYiZenHei-30" x="119.921875"/>
      </g>
     </g>
    </g>
    <g id="ytick_8">
     <g id="line2d_19">
      <g>
       <use xlink:href="#m8975a440e9" x="32.190625" y="36.071115" style="stroke: #000000; stroke-width: 0.8"/>
      </g>
     </g>
     <g id="text_19">
      <!-- 350 -->
      <g transform="translate(7.2 39.49924)scale(0.1 -0.1)">
       <use xlink:href="#WenQuanYiZenHei-33"/>
       <use xlink:href="#WenQuanYiZenHei-35" x="59.960938"/>
       <use xlink:href="#WenQuanYiZenHei-30" x="119.921875"/>
      </g>
     </g>
    </g>
   </g>
   <g id="line2d_20">
    <path d="M 93.063352 342.079249 
L 94.385236 342.961117 
L 95.707119 335.906174 
L 97.029002 338.551777 
L 98.350886 333.260571 
L 99.672769 335.024306 
L 100.994652 335.906174 
L 102.316536 338.551777 
L 103.638419 323.560024 
L 104.960302 332.378703 
L 106.282186 331.496835 
L 107.604069 334.142438 
L 108.925952 332.378703 
L 110.247836 324.441892 
L 111.569719 337.66991 
L 112.891602 335.024306 
L 114.213486 335.024306 
L 115.535369 333.260571 
L 116.857252 340.315513 
L 118.179136 339.433645 
L 119.501019 339.433645 
L 120.822902 341.197381 
L 122.144785 343.842984 
L 123.466669 342.961117 
L 124.788552 341.197381 
L 126.110435 341.197381 
L 127.432319 344.724852 
L 128.754202 342.961117 
L 130.076085 342.079249 
L 131.397969 344.724852 
L 163.123169 344.724852 
L 164.445052 343.842984 
L 165.766935 344.724852 
L 167.088819 344.724852 
L 168.410702 343.842984 
L 169.732585 343.842984 
L 171.054469 344.724852 
L 172.376352 344.724852 
L 173.698235 343.842984 
L 175.020119 343.842984 
L 176.342002 342.079249 
L 177.663885 344.724852 
L 182.951419 344.724852 
L 184.273302 342.961117 
L 185.595185 344.724852 
L 186.917069 344.724852 
L 188.238952 343.842984 
L 189.560835 344.724852 
L 209.389085 344.724852 
L 210.710969 326.205628 
L 212.032852 342.961117 
L 213.354735 344.724852 
L 214.676618 338.551777 
L 215.998502 344.724852 
L 218.642268 344.724852 
L 219.964152 327.087496 
L 221.286035 344.724852 
L 227.895452 344.724852 
L 229.217335 342.961117 
L 230.539218 344.724852 
L 263.586302 344.724852 
L 264.908185 343.842984 
L 266.230068 344.724852 
L 270.195718 344.724852 
L 271.517602 342.961117 
L 272.839485 344.724852 
L 280.770785 344.724852 
L 282.092668 342.961117 
L 283.414552 344.724852 
L 284.736435 344.724852 
L 286.058318 343.842984 
L 287.380202 344.724852 
L 288.702085 344.724852 
L 290.023968 342.961117 
L 292.667735 344.724852 
L 293.989618 342.961117 
L 295.311502 344.724852 
L 297.955268 344.724852 
L 299.277152 343.842984 
L 300.599035 344.724852 
L 308.530335 344.724852 
L 309.852218 343.842984 
L 311.174101 344.724852 
L 323.071051 344.724852 
L 324.392935 343.842984 
L 325.714818 344.724852 
L 331.002351 344.724852 
L 332.324235 343.842984 
L 333.646118 344.724852 
L 340.255535 344.724852 
L 341.577418 343.842984 
L 342.899301 344.724852 
L 344.221185 344.724852 
L 345.543068 342.961117 
L 346.864951 344.724852 
L 348.186835 344.724852 
L 349.508718 343.842984 
L 350.830601 343.842984 
L 352.152485 344.724852 
L 354.796251 344.724852 
L 356.118135 342.079249 
L 357.440018 336.788042 
L 358.761901 343.842984 
L 360.083785 344.724852 
L 361.405668 340.315513 
L 362.727551 342.961117 
L 364.049435 342.079249 
L 365.371318 342.079249 
L 366.693201 342.961117 
L 368.015085 342.961117 
L 369.336968 344.724852 
L 370.658851 344.724852 
L 371.980735 342.961117 
L 373.302618 342.961117 
L 374.624501 344.724852 
L 375.946385 342.961117 
L 377.268268 344.724852 
L 382.555801 344.724852 
L 383.877685 343.842984 
L 385.199568 344.724852 
L 386.521451 344.724852 
L 387.843335 339.433645 
L 389.165218 342.961117 
L 390.487101 343.842984 
L 391.808984 342.079249 
L 393.130868 344.724852 
L 394.452751 344.724852 
L 395.774634 343.842984 
L 397.096518 344.724852 
L 398.418401 343.842984 
L 401.062168 343.842984 
L 402.384051 344.724852 
L 403.705934 344.724852 
L 406.349701 342.961117 
L 407.671584 333.260571 
L 408.993468 342.961117 
L 410.315351 344.724852 
L 411.637234 342.961117 
L 412.959118 344.724852 
L 414.281001 344.724852 
L 415.602884 343.842984 
L 416.924768 344.724852 
L 418.246651 343.842984 
L 419.568534 344.724852 
L 420.890418 344.724852 
L 422.212301 342.079249 
L 424.856068 343.842984 
L 427.499834 343.842984 
L 428.821718 342.961117 
L 430.143601 344.724852 
L 431.465484 343.842984 
L 432.787368 344.724852 
L 434.109251 344.724852 
L 435.431134 335.024306 
L 436.753018 342.079249 
L 438.074901 344.724852 
L 440.718668 344.724852 
L 442.040551 342.079249 
L 443.362434 342.961117 
L 444.684318 344.724852 
L 447.328084 342.961117 
L 448.649968 342.961117 
L 449.971851 344.724852 
L 453.937501 344.724852 
L 455.259384 339.433645 
L 456.581268 343.842984 
L 457.903151 345.60672 
L 459.225034 342.079249 
L 460.546918 339.433645 
L 461.868801 343.842984 
L 463.190684 344.724852 
L 464.512568 344.724852 
L 465.834451 343.842984 
L 467.156334 344.724852 
L 468.478218 344.724852 
L 469.800101 343.842984 
L 471.121984 342.079249 
L 472.443868 344.724852 
L 473.765751 341.197381 
L 475.087634 336.788042 
L 476.409518 339.433645 
L 477.731401 343.842984 
L 479.053284 343.842984 
L 480.375167 342.961117 
L 481.697051 343.842984 
L 483.018934 343.842984 
L 484.340817 342.961117 
L 486.984584 344.724852 
L 489.628351 344.724852 
L 490.950234 342.079249 
L 492.272117 344.724852 
L 493.594001 342.961117 
L 494.915884 343.842984 
L 496.237767 342.961117 
L 498.881534 344.724852 
L 500.203417 343.842984 
L 501.525301 344.724852 
L 502.847184 343.842984 
L 504.169067 344.724852 
L 505.490951 343.842984 
L 508.134717 343.842984 
L 509.456601 344.724852 
L 510.778484 344.724852 
L 512.100367 343.842984 
L 513.422251 344.724852 
L 529.284851 344.724852 
L 530.606734 342.961117 
L 531.928617 344.724852 
L 537.216151 344.724852 
L 538.538034 343.842984 
L 539.859917 344.724852 
L 543.825567 344.724852 
L 545.147451 343.842984 
L 547.791217 343.842984 
L 549.113101 342.961117 
L 550.434984 339.433645 
L 551.756867 344.724852 
L 553.078751 342.079249 
L 554.400634 342.961117 
L 555.722517 344.724852 
L 557.044401 344.724852 
L 558.366284 343.842984 
L 561.010051 343.842984 
L 562.331934 344.724852 
L 563.653817 344.724852 
L 564.975701 342.961117 
L 567.619467 344.724852 
L 568.94135 342.079249 
L 570.263234 343.842984 
L 571.585117 342.961117 
L 572.907 344.724852 
L 575.550767 344.724852 
L 576.87265 343.842984 
L 578.194534 344.724852 
L 579.516417 343.842984 
L 580.8383 344.724852 
L 582.160184 343.842984 
L 583.482067 344.724852 
L 586.125834 342.961117 
L 587.447717 344.724852 
L 588.7696 343.842984 
L 590.091484 343.842984 
L 591.413367 344.724852 
L 592.73525 344.724852 
L 594.057134 343.842984 
L 595.379017 344.724852 
L 598.022784 344.724852 
L 599.344667 343.842984 
L 600.66655 344.724852 
L 603.310317 344.724852 
L 604.6322 343.842984 
L 605.954084 343.842984 
L 607.275967 342.961117 
L 608.59785 344.724852 
L 616.52915 344.724852 
L 617.851034 342.961117 
L 619.172917 344.724852 
L 620.4948 344.724852 
L 621.816684 342.961117 
L 623.138567 344.724852 
L 624.46045 344.724852 
L 625.782334 343.842984 
L 627.104217 343.842984 
L 628.4261 344.724852 
L 631.069867 344.724852 
L 632.39175 342.961117 
L 633.713634 342.961117 
L 635.035517 344.724852 
L 636.3574 343.842984 
L 637.679284 344.724852 
L 639.001167 343.842984 
L 640.32305 344.724852 
L 641.644934 343.842984 
L 642.966817 343.842984 
L 644.2887 344.724852 
L 646.932467 344.724852 
L 648.25435 343.842984 
L 649.576234 344.724852 
L 652.22 344.724852 
L 653.541884 342.961117 
L 654.863767 344.724852 
L 656.18565 344.724852 
L 657.507533 343.842984 
L 658.829417 344.724852 
L 660.1513 343.842984 
L 661.473183 344.724852 
L 662.795067 344.724852 
L 664.11695 343.842984 
L 665.438833 344.724852 
L 666.760717 344.724852 
L 668.0826 343.842984 
L 669.404483 344.724852 
L 670.726367 341.197381 
L 672.04825 344.724852 
L 673.370133 344.724852 
L 676.0139 342.961117 
L 678.657667 344.724852 
L 679.97955 342.961117 
L 681.301433 344.724852 
L 683.9452 344.724852 
L 686.588967 342.961117 
L 687.91085 341.197381 
L 689.232733 343.842984 
L 690.554617 343.842984 
L 691.8765 344.724852 
L 694.520267 344.724852 
L 695.84215 343.842984 
L 697.164033 344.724852 
L 698.485917 343.842984 
L 699.8078 344.724852 
L 701.129683 343.842984 
L 702.451567 344.724852 
L 711.70475 344.724852 
L 713.026633 343.842984 
L 714.348517 343.842984 
L 715.6704 344.724852 
L 716.992283 342.961117 
L 718.314167 343.842984 
L 720.957933 343.842984 
L 722.279817 344.724852 
L 723.6017 342.961117 
L 726.245467 344.724852 
L 727.56735 339.433645 
L 728.889233 344.724852 
L 730.211117 342.079249 
L 731.533 344.724852 
L 734.176767 344.724852 
L 735.49865 342.961117 
L 736.820533 343.842984 
L 738.142417 343.842984 
L 739.4643 344.724852 
L 740.786183 344.724852 
L 742.108067 342.961117 
L 744.751833 344.724852 
L 748.717483 344.724852 
L 750.039366 343.842984 
L 751.36125 344.724852 
L 752.683133 343.842984 
L 754.005016 344.724852 
L 756.648783 344.724852 
L 757.970666 342.961117 
L 759.29255 344.724852 
L 760.614433 343.842984 
L 761.936316 343.842984 
L 763.2582 344.724852 
L 768.545733 344.724852 
L 769.867616 342.961117 
L 771.1895 344.724852 
L 781.764566 344.724852 
L 783.08645 342.961117 
L 784.408333 344.724852 
L 785.730216 343.842984 
L 787.0521 344.724852 
L 788.373983 343.842984 
L 789.695866 344.724852 
L 791.01775 343.842984 
L 792.339633 344.724852 
L 793.661516 342.961117 
L 794.9834 344.724852 
L 796.305283 344.724852 
L 797.627166 342.079249 
L 798.94905 344.724852 
L 800.270933 343.842984 
L 802.9147 343.842984 
L 804.236583 344.724852 
L 806.88035 342.961117 
L 808.202233 342.961117 
L 809.524116 342.079249 
L 810.846 344.724852 
L 812.167883 344.724852 
L 813.489766 337.66991 
L 814.81165 342.961117 
L 816.133533 344.724852 
L 820.099183 344.724852 
L 821.421066 343.842984 
L 822.74295 344.724852 
L 826.7086 344.724852 
L 828.030483 342.079249 
L 829.352366 342.961117 
L 830.67425 344.724852 
L 831.996133 344.724852 
L 833.318016 342.961117 
L 834.6399 344.724852 
L 835.961783 344.724852 
L 837.283666 343.842984 
L 838.605549 343.842984 
L 839.927433 344.724852 
L 841.249316 344.724852 
L 842.571199 343.842984 
L 843.893083 343.842984 
L 845.214966 344.724852 
L 846.536849 344.724852 
L 847.858733 343.842984 
L 849.180616 344.724852 
L 855.790033 344.724852 
L 857.111916 343.842984 
L 858.433799 344.724852 
L 869.008866 344.724852 
L 870.330749 343.842984 
L 871.652633 344.724852 
L 882.227699 344.724852 
L 883.549583 343.842984 
L 884.871466 344.724852 
L 907.343483 344.724852 
L 908.665366 343.842984 
L 909.987249 344.724852 
L 911.309133 344.724852 
L 912.631016 342.079249 
L 913.952899 344.724852 
L 916.596666 344.724852 
L 917.918549 343.842984 
L 919.240433 344.724852 
L 920.562316 344.724852 
L 921.884199 343.842984 
L 923.206083 344.724852 
L 924.527966 344.724852 
L 925.849849 343.842984 
L 928.493616 343.842984 
L 929.815499 338.551777 
L 931.137382 343.842984 
L 932.459266 342.961117 
L 933.781149 344.724852 
L 935.103032 341.197381 
L 936.424916 344.724852 
L 937.746799 342.961117 
L 940.390566 344.724852 
L 953.609399 344.724852 
L 956.253166 342.961117 
L 957.575049 344.724852 
L 958.896932 343.842984 
L 960.218816 344.724852 
L 965.506349 344.724852 
L 966.828232 343.842984 
L 968.150116 344.724852 
L 969.471999 343.842984 
L 970.793882 344.724852 
L 974.759532 344.724852 
L 976.081416 343.842984 
L 977.403299 343.842984 
L 978.725182 344.724852 
L 980.047066 342.961117 
L 981.368949 344.724852 
L 987.978366 344.724852 
L 989.300249 343.842984 
L 990.622132 343.842984 
L 991.944016 344.724852 
L 993.265899 344.724852 
L 994.587782 342.961117 
L 995.909666 343.842984 
L 998.553432 343.842984 
L 999.875316 342.079249 
L 1002.519082 343.842984 
L 1005.162849 343.842984 
L 1006.484732 339.433645 
L 1007.806616 342.079249 
L 1009.128499 340.315513 
L 1010.450382 342.961117 
L 1011.772266 331.496835 
L 1013.094149 322.678157 
L 1014.416032 344.724852 
L 1015.737915 259.183674 
L 1017.059799 289.167179 
L 1018.381682 297.10399 
L 1019.703565 268.88422 
L 1021.025449 344.724852 
L 1023.669215 50.181 
L 1024.991099 210.680943 
L 1026.312982 207.153472 
L 1027.634865 199.216662 
L 1028.956749 192.161719 
L 1030.278632 236.25511 
L 1031.600515 344.724852 
L 1032.922399 178.933702 
L 1034.244282 312.977611 
L 1035.566165 289.167179 
L 1036.888049 294.458386 
L 1038.209932 304.158932 
L 1040.853699 331.496835 
L 1042.175582 333.260571 
L 1043.497465 337.66991 
L 1044.819349 339.433645 
L 1046.141232 337.66991 
L 1047.463115 341.197381 
L 1048.784999 343.842984 
L 1050.106882 340.315513 
L 1051.428765 343.842984 
L 1052.750649 344.724852 
L 1054.072532 344.724852 
L 1055.394415 342.079249 
L 1056.716299 344.724852 
L 1112.235398 344.724852 
L 1113.557282 342.961117 
L 1114.879165 344.724852 
L 1116.201048 340.315513 
L 1117.522932 329.733099 
L 1118.844815 326.205628 
L 1120.166698 328.851231 
L 1121.488582 318.268818 
L 1122.810465 310.332007 
L 1124.132348 291.812783 
L 1125.454232 297.985858 
L 1126.776115 320.032553 
L 1128.097998 321.796289 
L 1129.419882 315.623214 
L 1130.741765 335.024306 
L 1132.063648 331.496835 
L 1133.385532 332.378703 
L 1134.707415 338.551777 
L 1136.029298 342.079249 
L 1137.351182 343.842984 
L 1138.673065 342.079249 
L 1139.994948 343.842984 
L 1141.316832 343.842984 
L 1142.638715 341.197381 
L 1143.960598 342.079249 
L 1145.282482 344.724852 
L 1149.248132 344.724852 
L 1150.570015 342.079249 
L 1151.891898 343.842984 
L 1153.213782 344.724852 
L 1154.535665 343.842984 
L 1155.857548 344.724852 
L 1157.179432 335.024306 
L 1158.501315 337.66991 
L 1159.823198 342.961117 
L 1161.145082 338.551777 
L 1162.466965 344.724852 
L 1163.788848 342.961117 
L 1165.110732 342.961117 
L 1166.432615 342.079249 
L 1167.754498 343.842984 
L 1169.076382 342.079249 
L 1171.720148 343.842984 
L 1173.042032 340.315513 
L 1174.363915 344.724852 
L 1175.685798 342.079249 
L 1177.007682 344.724852 
L 1182.295215 344.724852 
L 1183.617098 343.842984 
L 1184.938982 344.724852 
L 1202.123465 344.724852 
L 1203.445348 343.842984 
L 1204.767231 344.724852 
L 1214.020415 344.724852 
L 1215.342298 343.842984 
L 1216.664181 344.724852 
L 1217.986065 341.197381 
L 1219.307948 344.724852 
L 1239.136198 344.724852 
L 1240.458081 343.842984 
L 1241.779965 344.724852 
L 1243.101848 344.724852 
L 1244.423731 340.315513 
L 1245.745615 334.142438 
L 1247.067498 343.842984 
L 1248.389381 344.724852 
L 1249.711265 342.079249 
L 1251.033148 343.842984 
L 1252.355031 343.842984 
L 1253.676915 342.079249 
L 1256.320681 342.079249 
L 1257.642565 342.961117 
L 1258.964448 344.724852 
L 1260.286331 340.315513 
L 1261.608215 344.724852 
L 1262.930098 339.433645 
L 1264.251981 344.724852 
L 1265.573865 344.724852 
L 1266.895748 342.961117 
L 1268.217631 342.079249 
L 1269.539515 344.724852 
L 1270.861398 341.197381 
L 1272.183281 344.724852 
L 1273.505165 338.551777 
L 1274.827048 342.961117 
L 1276.148931 342.079249 
L 1277.470815 343.842984 
L 1278.792698 342.079249 
L 1280.114581 342.079249 
L 1281.436465 342.961117 
L 1282.758348 342.079249 
L 1284.080231 343.842984 
L 1285.402114 343.842984 
L 1286.723998 344.724852 
L 1292.011531 344.724852 
L 1293.333414 343.842984 
L 1293.333414 343.842984 
" clip-path="url(#p1c88295ac1)" style="fill: none; stroke: #0000ff; stroke-width: 1.5; stroke-linecap: square"/>
   </g>
   <g id="line2d_21">
    <path d="M 1054.072532 342.970498 
L 1055.394415 342.864004 
L 1056.716299 342.338689 
L 1058.038182 352.581 
L 1059.360065 346.029438 
L 1062.003832 344.237809 
L 1063.325715 345.008424 
L 1064.647599 345.067438 
L 1065.969482 345.771076 
L 1067.291365 339.509506 
L 1068.613249 343.760186 
L 1071.257015 344.989267 
L 1072.578899 344.521943 
L 1073.900782 344.495338 
L 1075.222665 344.056934 
L 1076.544549 348.013949 
L 1077.866432 345.33174 
L 1080.510199 344.557209 
L 1081.832082 344.852597 
L 1083.153965 344.869566 
L 1084.475849 345.146481 
L 1085.797732 342.647948 
L 1087.119615 344.341609 
L 1089.763382 344.830697 
L 1091.085265 344.644184 
L 1092.407149 344.633472 
L 1093.729032 344.458621 
L 1095.050915 346.036274 
L 1096.372799 344.966844 
L 1099.016565 344.658018 
L 1101.660332 344.782552 
L 1102.982215 344.892959 
L 1104.304098 343.896779 
L 1105.625982 344.572051 
L 1108.269748 344.767053 
L 1114.879165 344.38539 
L 1116.201048 342.549393 
L 1117.522932 336.776334 
L 1118.844815 332.088189 
L 1120.166698 330.653625 
L 1121.488582 324.927535 
L 1122.810465 318.285357 
L 1124.132348 305.962069 
L 1125.454232 300.929478 
L 1126.776115 309.001218 
L 1128.097998 315.066099 
L 1129.419882 313.827881 
L 1130.741765 322.310502 
L 1132.063648 323.901791 
L 1133.385532 328.865059 
L 1134.707415 337.203373 
L 1136.029298 339.921536 
L 1137.351182 340.590937 
L 1138.673065 344.907786 
L 1139.994948 344.562849 
L 1141.316832 345.951512 
L 1142.638715 343.948118 
L 1143.960598 341.074204 
L 1146.604365 343.992772 
L 1147.926248 342.260609 
L 1149.248132 343.279066 
L 1150.570015 341.29309 
L 1151.891898 342.479438 
L 1153.213782 345.140066 
L 1154.535665 344.619895 
L 1155.857548 344.390805 
L 1157.179432 341.505962 
L 1158.501315 339.474177 
L 1159.823198 342.194324 
L 1161.145082 340.660393 
L 1162.466965 341.306669 
L 1163.788848 342.131717 
L 1165.110732 341.32017 
L 1166.432615 341.208226 
L 1167.754498 343.32599 
L 1169.076382 341.418578 
L 1170.398265 342.911861 
L 1171.720148 343.819936 
L 1173.042032 342.19991 
L 1174.363915 343.951233 
L 1177.007682 343.287714 
L 1178.329565 344.905815 
L 1179.651448 344.440566 
L 1180.973332 343.763668 
L 1182.295215 344.843904 
L 1183.617098 343.633281 
L 1184.938982 344.15536 
L 1186.260865 344.940527 
L 1187.582748 344.227908 
L 1190.226515 345.214671 
L 1191.548398 344.46159 
L 1192.870281 345.184561 
L 1194.192165 344.957469 
L 1195.514048 344.518426 
L 1196.835931 344.999782 
L 1199.479698 344.403675 
L 1200.801581 344.884507 
L 1202.123465 344.430939 
L 1203.445348 344.181923 
L 1204.767231 344.63611 
L 1206.089115 344.430058 
L 1208.732881 344.890567 
L 1210.054765 344.603526 
L 1212.698531 344.867688 
L 1215.342298 344.455761 
L 1216.664181 344.514891 
L 1217.986065 342.904767 
L 1219.307948 343.852509 
L 1220.629831 344.167753 
L 1224.595481 344.612194 
L 1225.917365 344.207877 
L 1227.239248 345.012805 
L 1228.561131 344.799219 
L 1233.848665 344.751372 
L 1235.170548 345.026606 
L 1236.492431 344.529377 
L 1237.814315 344.670342 
L 1239.136198 344.66498 
L 1240.458081 344.26883 
L 1243.101848 344.586821 
L 1244.423731 342.497045 
L 1245.745615 338.992877 
L 1247.067498 341.126139 
L 1248.389381 342.629568 
L 1249.711265 342.525212 
L 1251.033148 343.123823 
L 1252.355031 342.822229 
L 1253.676915 341.741546 
L 1254.998798 343.104353 
L 1257.642565 342.563099 
L 1258.964448 343.68626 
L 1260.286331 342.173954 
L 1261.608215 343.460462 
L 1262.930098 342.133959 
L 1264.251981 342.526379 
L 1265.573865 343.540647 
L 1266.895748 343.720223 
L 1268.217631 342.271165 
L 1269.539515 343.987977 
L 1270.861398 341.908585 
L 1272.183281 343.608292 
L 1273.505165 341.832141 
L 1274.827048 342.069797 
L 1276.148931 341.673814 
L 1277.470815 343.464974 
L 1278.792698 341.960791 
L 1280.114581 343.032625 
L 1281.436465 341.858828 
L 1282.758348 342.268758 
L 1285.402114 343.885556 
L 1286.723998 343.494956 
L 1288.045881 344.603324 
L 1289.367764 344.137566 
L 1290.689648 344.997664 
L 1292.011531 344.925732 
L 1293.333414 344.413429 
L 1293.333414 344.413429 
" clip-path="url(#p1c88295ac1)" style="fill: none; stroke: #ffa500; stroke-width: 1.5; stroke-linecap: square"/>
   </g>
   <g id="line2d_22">
    <path d="M 1293.333414 344.413429 
L 1294.655298 344.221451 
L 1295.977181 344.704884 
L 1297.299064 344.352023 
L 1298.620948 344.680405 
L 1299.942831 344.303006 
L 1301.264714 344.148147 
L 1302.586598 344.245913 
L 1303.908481 344.34029 
L 1305.230364 344.102633 
L 1306.552248 344.276101 
L 1307.874131 344.114667 
L 1309.196014 344.300198 
L 1310.517898 344.376327 
" clip-path="url(#p1c88295ac1)" style="fill: none; stroke: #ff0000; stroke-width: 1.5; stroke-linecap: square"/>
   </g>
   <g id="patch_3">
    <path d="M 32.190625 367.701 
L 32.190625 35.061 
" style="fill: none; stroke: #000000; stroke-width: 0.8; stroke-linejoin: miter; stroke-linecap: square"/>
   </g>
   <g id="patch_4">
    <path d="M 1371.390625 367.701 
L 1371.390625 35.061 
" style="fill: none; stroke: #000000; stroke-width: 0.8; stroke-linejoin: miter; stroke-linecap: square"/>
   </g>
   <g id="patch_5">
    <path d="M 32.190625 367.701 
L 1371.390625 367.701 
" style="fill: none; stroke: #000000; stroke-width: 0.8; stroke-linejoin: miter; stroke-linecap: square"/>
   </g>
   <g id="patch_6">
    <path d="M 32.190625 35.061 
L 1371.390625 35.061 
" style="fill: none; stroke: #000000; stroke-width: 0.8; stroke-linejoin: miter; stroke-linecap: square"/>
   </g>
   <g id="text_20">
    <!-- 每日新增预测 - 陕西 -->
    <g transform="translate(648.393438 17.041875)scale(0.12 -0.12)">
     <defs>
      <path id="WenQuanYiZenHei-6bcf" d="M 6138 2181 
Q 6113 1988 6138 1800 
Q 5788 1819 5438 1819 
L 4975 1819 
L 4863 738 
L 5806 738 
L 5806 394 
L 4831 394 
L 4775 -144 
Q 4719 -563 4350 -725 
Q 4013 -856 3550 -825 
L 3288 -819 
Q 3331 -663 3275 -519 
Q 3219 -375 3113 -288 
Q 3381 -313 3759 -303 
Q 4138 -294 4231 -238 
Q 4338 -163 4350 88 
L 4381 394 
L 1025 394 
L 1244 1819 
L 813 1819 
Q 463 1819 113 1800 
Q 138 1988 113 2181 
Q 463 2163 813 2163 
L 1294 2163 
L 1488 3431 
L 1488 3581 
L 1506 3581 
L 1513 3613 
L 1713 3581 
L 5156 3581 
L 5013 2163 
L 5438 2163 
Q 5788 2163 6138 2181 
z
M 5588 4463 
Q 5569 4269 5588 4081 
Q 5244 4100 4894 4100 
L 1813 4100 
Q 1344 3463 606 2788 
Q 481 2988 256 3069 
Q 744 3494 1116 3972 
Q 1488 4450 1919 5181 
Q 2119 5044 2344 4950 
Q 2213 4688 2050 4444 
L 4894 4444 
Q 5238 4444 5588 4463 
z
M 2844 3238 
L 1906 3238 
L 1744 2163 
L 3244 2163 
L 2581 3038 
L 2844 3238 
z
M 3250 2163 
L 4563 2163 
L 4669 3238 
L 3044 3238 
L 3638 2456 
L 3250 2163 
z
M 2944 1819 
Q 3275 1394 3550 938 
L 3213 738 
L 4419 738 
L 4525 1819 
L 2944 1819 
z
M 2656 1819 
L 1694 1819 
L 1525 738 
L 3094 738 
Q 2806 1219 2450 1650 
L 2656 1819 
z
" transform="scale(0.015625)"/>
      <path id="WenQuanYiZenHei-65e5" d="M 1494 -775 
Q 1244 -750 988 -775 
Q 1013 -313 1013 156 
L 1013 4875 
L 5269 4875 
L 5269 -763 
L 4813 -763 
L 4813 156 
L 1469 156 
Q 1469 -313 1494 -775 
z
M 4813 2700 
L 4813 4500 
L 1469 4500 
L 1469 2700 
L 4813 2700 
z
M 4813 531 
L 4813 2325 
L 1469 2325 
L 1469 531 
L 4813 531 
z
" transform="scale(0.015625)"/>
      <path id="WenQuanYiZenHei-65b0" d="M 5419 -763 
Q 5188 -738 4963 -763 
Q 4981 -344 4981 75 
L 4981 2819 
L 4188 2819 
L 4188 1706 
Q 4188 63 3163 -738 
Q 3019 -519 2769 -469 
Q 3769 131 3769 1706 
L 3769 4769 
L 3875 4769 
L 3844 4831 
L 4294 4781 
Q 4438 4769 4894 4816 
Q 5350 4863 5512 4931 
Q 5675 5000 5763 5094 
Q 5850 4881 5981 4694 
Q 5713 4544 5263 4519 
L 4188 4438 
L 4188 3100 
L 5563 3100 
Q 5850 3100 6131 3113 
Q 6119 2956 6131 2806 
L 5394 2819 
L 5394 75 
Q 5394 -344 5419 -763 
z
M 2981 213 
Q 2656 744 2256 1225 
L 2606 1513 
Q 3025 1006 3369 450 
L 2981 213 
z
M 1169 1525 
Q 1375 1419 1594 1363 
Q 1281 488 469 -469 
Q 331 -300 119 -244 
Q 575 263 888 900 
Q 1038 1206 1169 1525 
z
M 1825 6 
L 1825 1769 
L 1081 1769 
Q 794 1769 513 1756 
Q 525 1913 513 2063 
Q 794 2050 1081 2050 
L 1825 2050 
L 1825 2775 
L 994 2775 
Q 706 2775 425 2763 
Q 438 2919 425 3075 
Q 706 3056 994 3056 
L 1825 3056 
L 1825 3088 
L 1906 3088 
Q 2288 3656 2588 4381 
Q 2794 4269 3013 4206 
Q 2800 3675 2381 3056 
L 3013 3056 
Q 3294 3056 3581 3075 
Q 3563 2919 3581 2763 
Q 3294 2775 3013 2775 
L 2238 2775 
L 2238 2050 
L 2925 2050 
Q 3206 2050 3494 2063 
Q 3475 1913 3494 1756 
Q 3206 1769 2925 1769 
L 2238 1769 
L 2238 -156 
Q 2238 -413 2075 -581 
Q 1844 -794 1306 -794 
Q 1363 -519 1188 -288 
Q 1338 -313 1534 -316 
Q 1731 -319 1778 -278 
Q 1825 -238 1825 6 
z
M 1875 3388 
L 1500 3131 
L 825 4088 
L 1200 4350 
L 1875 3388 
z
M 3419 4713 
Q 3400 4563 3419 4406 
Q 3131 4419 2850 4419 
L 1125 4419 
Q 838 4419 556 4406 
Q 569 4563 556 4713 
Q 838 4700 1125 4700 
L 1763 4700 
L 1388 5088 
L 1719 5406 
L 2288 4813 
L 2175 4700 
L 2850 4700 
Q 3131 4700 3419 4713 
z
" transform="scale(0.015625)"/>
      <path id="WenQuanYiZenHei-589e" d="M 3138 -769 
Q 2913 -744 2688 -769 
Q 2706 -356 2706 56 
L 2706 1719 
L 5706 1719 
L 5706 -756 
L 5300 -756 
L 5300 -338 
L 3119 -338 
Q 3125 -550 3138 -769 
z
M 5113 3569 
Q 5344 3606 5563 3688 
Q 5669 3175 5256 2694 
Q 5113 2519 4975 2506 
Q 4831 2725 4588 2813 
Q 4806 2831 4997 3068 
Q 5188 3306 5113 3569 
z
M 3850 2763 
L 3469 2538 
L 2925 3456 
L 3313 3681 
L 3850 2763 
z
M 2400 2100 
Q 2469 3138 2400 4175 
L 3413 4175 
Q 3138 4550 2825 4888 
L 3156 5194 
Q 3581 4725 3938 4206 
L 3900 4175 
L 4456 4175 
Q 4863 4575 5131 5163 
Q 5325 5044 5538 4975 
Q 5369 4575 5013 4175 
L 6056 4175 
Q 5981 3138 6056 2100 
L 2400 2100 
z
M 5300 806 
L 5300 1450 
L 3113 1450 
Q 3113 1125 3113 806 
L 5300 806 
z
M 5300 563 
L 3113 563 
L 3113 -94 
L 5300 -94 
L 5300 563 
z
M 4431 3913 
L 4431 2363 
L 5650 2363 
L 5650 3913 
L 4756 3913 
L 4700 3856 
Q 4681 3888 4656 3913 
L 4431 3913 
z
M 4025 3913 
L 2806 3913 
L 2806 2363 
L 4025 2363 
L 4025 3913 
z
M -31 625 
Q 506 763 1006 975 
L 1006 3206 
L 669 3206 
Q 369 3206 75 3188 
Q 94 3356 75 3531 
Q 369 3513 669 3513 
L 1006 3513 
L 1006 4263 
Q 1006 4700 981 5131 
Q 1206 5106 1431 5131 
Q 1413 4700 1413 4263 
L 1413 3513 
L 2238 3531 
Q 2219 3356 2238 3188 
L 1413 3206 
L 1413 1163 
L 2150 1531 
L 2194 1256 
Q 1269 775 813 519 
L 194 144 
Q 138 438 -31 625 
z
" transform="scale(0.015625)"/>
      <path id="WenQuanYiZenHei-9884" d="M 1206 19 
L 1206 2888 
L 669 2888 
Q 356 2888 50 2869 
Q 63 3044 50 3213 
Q 363 3194 669 3194 
L 1250 3194 
Q 950 3631 606 4031 
L 963 4338 
L 1263 3975 
L 1913 4719 
L 731 4719 
Q 419 4719 106 4706 
Q 125 4875 106 5044 
Q 419 5031 731 5031 
L 2481 5031 
L 2544 4663 
Q 2394 4613 2256 4466 
Q 2119 4319 1525 3631 
Q 1656 3444 1788 3250 
L 1700 3194 
L 2700 3194 
L 2763 2825 
Q 2656 2819 2613 2763 
L 2100 2038 
L 1750 2288 
L 2175 2888 
L 1638 2888 
L 1638 -150 
Q 1638 -525 1363 -669 
Q 1075 -819 525 -813 
Q 594 -513 388 -294 
Q 575 -313 837 -316 
Q 1100 -319 1153 -272 
Q 1206 -225 1206 19 
z
M 5813 -888 
Q 5100 -225 4306 375 
L 4669 719 
Q 5481 106 6219 -575 
L 5813 -888 
z
M 2375 -906 
Q 2294 -631 2025 -506 
Q 2769 -431 3353 19 
Q 3938 469 3938 1069 
L 3938 2200 
Q 3938 2625 3913 3050 
Q 4188 3025 4456 3050 
Q 4431 2625 4431 2200 
L 4431 1069 
Q 4431 681 4225 319 
Q 3644 -606 2375 -906 
z
M 3444 488 
Q 3169 513 2894 488 
Q 2919 913 2919 1338 
L 2919 3675 
Q 3219 3675 3525 3675 
Q 3750 4013 3931 4525 
L 3238 4525 
Q 2888 4525 2538 4513 
Q 2556 4669 2538 4831 
Q 2888 4813 3238 4813 
L 5313 4813 
Q 5663 4813 6006 4831 
Q 5988 4669 6006 4513 
Q 5663 4525 5313 4525 
L 4481 4525 
Q 4388 4088 4088 3675 
L 5644 3675 
L 5644 513 
L 5144 513 
L 5144 3388 
L 3894 3388 
L 3875 3363 
Q 3863 3375 3844 3388 
Q 3631 3388 3413 3388 
L 3419 1338 
Q 3419 913 3444 488 
z
" transform="scale(0.015625)"/>
      <path id="WenQuanYiZenHei-6d4b" d="M 5450 138 
L 5450 4306 
Q 5450 4750 5425 5188 
Q 5663 5163 5906 5188 
Q 5881 4750 5881 4306 
L 5881 -38 
Q 5888 -569 5519 -719 
Q 5194 -831 4825 -813 
Q 4894 -519 4694 -281 
Q 4869 -306 5094 -309 
Q 5319 -313 5384 -256 
Q 5450 -200 5450 138 
z
M 4900 938 
Q 4663 963 4419 938 
Q 4444 1375 4444 1819 
L 4444 3381 
Q 4444 3819 4419 4263 
Q 4663 4238 4900 4263 
Q 4875 3819 4875 3381 
L 4875 1819 
Q 4875 1375 4900 938 
z
M 2750 2025 
L 2750 3038 
Q 2750 3481 2725 3919 
Q 2963 3894 3206 3919 
Q 3181 3481 3181 3038 
L 3181 2025 
Q 3181 1263 2919 625 
L 3231 956 
Q 3781 431 4256 -150 
L 3888 -456 
Q 3431 106 2906 600 
Q 2531 -288 1738 -769 
Q 1606 -519 1338 -450 
Q 1988 -156 2369 478 
Q 2750 1113 2750 2025 
z
M 2363 969 
Q 2119 994 1881 969 
Q 1906 1406 1906 1850 
L 1906 5038 
L 3956 5031 
L 3956 1200 
L 3525 1200 
L 3525 4713 
L 2338 4713 
L 2338 1850 
Q 2338 1406 2363 969 
z
M 663 -738 
Q 481 -588 206 -575 
Q 400 -69 606 581 
Q 813 1231 1200 2838 
L 1381 2706 
L 875 338 
L 663 -738 
z
M 1006 2856 
L 731 2550 
L 75 3400 
L 350 3713 
L 1006 2856 
z
M 1088 3913 
Q 781 4388 425 4800 
L 694 5125 
Q 1069 4688 1388 4188 
L 1088 3913 
z
" transform="scale(0.015625)"/>
      <path id="WenQuanYiZenHei-20" transform="scale(0.015625)"/>
      <path id="WenQuanYiZenHei-9655" d="M 3019 1525 
Q 2681 1525 2350 1506 
Q 2369 1688 2350 1869 
Q 2681 1856 3019 1856 
L 3781 1856 
L 3781 3831 
L 2919 3831 
Q 2581 3831 2244 3813 
Q 2263 3994 2244 4175 
Q 2581 4163 2919 4163 
L 3781 4163 
L 3781 4300 
Q 3781 4744 3756 5188 
Q 4000 5163 4244 5188 
Q 4219 4744 4219 4300 
L 4219 4163 
L 5275 4163 
Q 5606 4163 5944 4175 
Q 5925 3994 5944 3813 
Q 5606 3831 5275 3831 
L 4219 3831 
L 4219 1856 
L 5494 1856 
Q 5831 1856 6163 1869 
Q 6144 1688 6163 1506 
Q 5831 1525 5494 1525 
L 4538 1525 
Q 4731 800 5103 372 
Q 5475 -56 6113 -300 
Q 5888 -431 5794 -681 
Q 5206 -431 4781 134 
Q 4356 700 4163 1381 
Q 3988 594 3359 -9 
Q 2731 -613 1906 -819 
Q 1831 -531 1556 -413 
Q 2394 -300 2997 253 
Q 3600 806 3744 1525 
L 3019 1525 
z
M 5006 3644 
Q 5225 3544 5463 3494 
Q 5213 2731 4694 1963 
Q 4525 2119 4294 2150 
Q 4506 2444 4659 2781 
Q 4813 3119 5006 3644 
z
M 2994 2100 
Q 2744 2750 2406 3363 
L 2831 3594 
Q 3181 2956 3450 2275 
L 2994 2100 
z
M 831 -850 
Q 594 -825 350 -850 
Q 375 -419 375 19 
L 369 4938 
L 2294 4938 
L 2294 4625 
Q 2181 4513 2106 4375 
L 1506 3238 
Q 2219 2319 2219 1156 
Q 2181 400 1594 163 
L 1431 88 
Q 1313 300 1156 481 
Q 1319 538 1475 606 
Q 1794 744 1825 1156 
Q 1825 1744 1625 2300 
Q 1425 2856 1056 3313 
L 1750 4625 
L 800 4625 
L 806 19 
Q 806 -419 831 -850 
z
" transform="scale(0.015625)"/>
      <path id="WenQuanYiZenHei-897f" d="M 700 3606 
L 2188 3606 
L 2188 4513 
L 844 4513 
Q 481 4513 113 4494 
Q 138 4694 113 4888 
Q 481 4869 844 4869 
L 5406 4869 
Q 5769 4869 6138 4888 
Q 6113 4694 6138 4494 
Q 5769 4513 5406 4513 
L 3925 4513 
L 3925 3606 
L 5506 3606 
L 5506 -763 
L 5050 -763 
L 5050 -200 
L 1169 -200 
Q 1175 -488 1188 -775 
Q 938 -750 694 -775 
Q 713 -319 713 144 
L 700 3606 
z
M 3475 3250 
L 2638 3250 
L 2638 2663 
Q 2638 1950 2234 1378 
Q 1831 806 1188 556 
Q 1175 594 1163 631 
L 1163 163 
L 5050 163 
L 5050 1119 
L 4144 1119 
Q 3869 1119 3672 1312 
Q 3475 1506 3475 1781 
L 3475 3250 
z
M 3925 3250 
L 3925 1781 
Q 3925 1656 3987 1565 
Q 4050 1475 4150 1475 
L 5050 1475 
L 5050 3250 
L 3925 3250 
z
M 2188 3250 
L 1156 3250 
L 1163 1063 
Q 1625 1269 1906 1700 
Q 2188 2131 2188 2663 
L 2188 3250 
z
M 3475 3606 
L 3475 4513 
L 2638 4513 
L 2638 3606 
L 3475 3606 
z
" transform="scale(0.015625)"/>
     </defs>
     <use xlink:href="#WenQuanYiZenHei-6bcf"/>
     <use xlink:href="#WenQuanYiZenHei-65e5" x="100"/>
     <use xlink:href="#WenQuanYiZenHei-65b0" x="200"/>
     <use xlink:href="#WenQuanYiZenHei-589e" x="300"/>
     <use xlink:href="#WenQuanYiZenHei-9884" x="400"/>
     <use xlink:href="#WenQuanYiZenHei-6d4b" x="500"/>
     <use xlink:href="#WenQuanYiZenHei-20" x="600"/>
     <use xlink:href="#WenQuanYiZenHei-2d" x="629.980469"/>
     <use xlink:href="#WenQuanYiZenHei-20" x="659.960938"/>
     <use xlink:href="#WenQuanYiZenHei-9655" x="689.941406"/>
     <use xlink:href="#WenQuanYiZenHei-897f" x="789.941406"/>
    </g>
    <!-- ARIMA (0, 1, 1)x(1, 0, 1, 7) (R2 = 0.878295) -->
    <g transform="translate(583.182813 29.061)scale(0.12 -0.12)">
     <defs>
      <path id="WenQuanYiZenHei-41" d="M 3550 0 
L 2988 0 
L 2550 1281 
L 919 1281 
L 531 0 
L 69 0 
L 1494 4388 
L 2125 4388 
L 3550 0 
z
M 2425 1694 
L 1756 3800 
L 1075 1694 
L 2425 1694 
z
" transform="scale(0.015625)"/>
      <path id="WenQuanYiZenHei-52" d="M 3675 0 
L 3100 0 
L 2288 1900 
L 1069 1900 
L 1069 0 
L 519 0 
L 519 4388 
L 2163 4388 
Q 3006 4388 3400 3900 
Q 3581 3663 3625 3325 
Q 3631 3250 3631 3163 
Q 3631 2594 3219 2244 
Q 3038 2100 2813 2038 
L 3675 0 
z
M 3081 3169 
Q 3081 3825 2356 3906 
Q 2263 3919 2163 3919 
L 1069 3919 
L 1069 2350 
L 2100 2350 
Q 2906 2350 3044 2919 
Q 3081 3031 3081 3169 
z
" transform="scale(0.015625)"/>
      <path id="WenQuanYiZenHei-49" d="M 1100 0 
L 550 0 
L 550 4388 
L 1100 4388 
L 1100 0 
z
" transform="scale(0.015625)"/>
      <path id="WenQuanYiZenHei-4d" d="M 4756 0 
L 4206 0 
L 4206 3831 
L 4181 3831 
L 2788 0 
L 2419 0 
L 1000 3831 
L 975 3831 
L 975 0 
L 513 0 
L 513 4388 
L 1331 4388 
L 2656 875 
L 3950 4388 
L 4756 4388 
L 4756 0 
z
" transform="scale(0.015625)"/>
      <path id="WenQuanYiZenHei-28" d="M 1606 -1094 
L 1275 -1094 
Q 475 -100 338 1231 
Q 319 1438 319 1656 
Q 319 3031 1156 4244 
Q 1213 4313 1269 4388 
L 1600 4388 
Q 806 3169 794 1681 
Q 794 188 1606 -1094 
z
" transform="scale(0.015625)"/>
      <path id="WenQuanYiZenHei-2c" d="M 1363 75 
L 881 -825 
L 606 -825 
L 994 0 
L 656 0 
L 656 738 
L 1363 738 
L 1363 75 
z
" transform="scale(0.015625)"/>
      <path id="WenQuanYiZenHei-29" d="M 1600 1656 
Q 1600 306 869 -788 
Q 769 -950 644 -1094 
L 313 -1094 
Q 1125 188 1125 1681 
Q 1125 3169 338 4363 
Q 325 4375 319 4388 
L 650 4388 
Q 1525 3231 1594 1863 
Q 1600 1763 1600 1656 
z
" transform="scale(0.015625)"/>
      <path id="WenQuanYiZenHei-78" d="M 2806 0 
L 2213 0 
L 1394 1319 
L 544 0 
L 50 0 
L 1144 1681 
L 163 3250 
L 744 3250 
L 1431 2138 
L 2144 3250 
L 2631 3250 
L 1681 1794 
L 2806 0 
z
" transform="scale(0.015625)"/>
      <path id="WenQuanYiZenHei-3d" d="M 3569 2256 
L 263 2256 
L 263 2675 
L 3569 2675 
L 3569 2256 
z
M 3569 1019 
L 263 1019 
L 263 1431 
L 3569 1431 
L 3569 1019 
z
" transform="scale(0.015625)"/>
      <path id="WenQuanYiZenHei-2e" d="M 1344 0 
L 631 0 
L 631 725 
L 1344 725 
L 1344 0 
z
" transform="scale(0.015625)"/>
      <path id="WenQuanYiZenHei-38" d="M 3619 1175 
Q 3619 431 2850 100 
Q 2444 -63 1944 -63 
Q 1231 -63 725 269 
Q 225 594 225 1125 
Q 225 1881 1269 2281 
Q 719 2481 519 2938 
Q 444 3119 444 3319 
Q 444 4000 1144 4294 
Q 1519 4456 1963 4456 
Q 2669 4456 3094 4094 
Q 3425 3813 3425 3369 
Q 3425 2638 2575 2356 
Q 3231 2056 3450 1725 
Q 3619 1488 3619 1175 
z
M 2944 3344 
Q 2944 3906 2288 4019 
Q 2138 4044 1969 4044 
Q 1438 4044 1163 3775 
Q 1000 3613 1000 3375 
Q 1000 2925 1594 2663 
Q 1756 2588 1931 2550 
Q 2581 2725 2788 2956 
Q 2944 3125 2944 3344 
z
M 3075 1094 
Q 3075 1738 1875 2050 
Q 1094 1881 850 1463 
Q 763 1313 763 1131 
Q 763 569 1456 406 
Q 1681 344 1944 344 
Q 2519 344 2850 619 
Q 3075 813 3075 1094 
z
" transform="scale(0.015625)"/>
      <path id="WenQuanYiZenHei-39" d="M 3544 2300 
Q 3544 1163 3019 513 
Q 2563 -63 1775 -63 
Q 956 -63 563 488 
Q 463 631 394 813 
L 838 975 
Q 1025 494 1550 388 
Q 1656 369 1775 369 
Q 2594 369 2900 1325 
Q 3044 1769 3038 2313 
L 3025 2313 
Q 2675 1638 1944 1544 
Q 1844 1531 1744 1531 
Q 1050 1531 625 2031 
Q 294 2419 294 2963 
Q 294 3656 813 4094 
Q 1238 4456 1819 4456 
Q 2988 4456 3381 3363 
Q 3544 2900 3544 2300 
z
M 2925 2994 
Q 2925 3563 2469 3844 
Q 2206 4006 1863 4006 
Q 1275 4006 988 3563 
Q 844 3344 825 3056 
Q 819 3006 819 2956 
Q 819 2413 1269 2131 
Q 1538 1963 1875 1963 
Q 2363 1963 2681 2350 
Q 2925 2638 2925 2994 
z
" transform="scale(0.015625)"/>
     </defs>
     <use xlink:href="#WenQuanYiZenHei-41"/>
     <use xlink:href="#WenQuanYiZenHei-52" x="55.957031"/>
     <use xlink:href="#WenQuanYiZenHei-49" x="117.871094"/>
     <use xlink:href="#WenQuanYiZenHei-4d" x="143.847656"/>
     <use xlink:href="#WenQuanYiZenHei-41" x="225.78125"/>
     <use xlink:href="#WenQuanYiZenHei-20" x="281.738281"/>
     <use xlink:href="#WenQuanYiZenHei-28" x="311.71875"/>
     <use xlink:href="#WenQuanYiZenHei-30" x="341.699219"/>
     <use xlink:href="#WenQuanYiZenHei-2c" x="401.660156"/>
     <use xlink:href="#WenQuanYiZenHei-20" x="431.640625"/>
     <use xlink:href="#WenQuanYiZenHei-31" x="461.621094"/>
     <use xlink:href="#WenQuanYiZenHei-2c" x="521.582031"/>
     <use xlink:href="#WenQuanYiZenHei-20" x="551.5625"/>
     <use xlink:href="#WenQuanYiZenHei-31" x="581.542969"/>
     <use xlink:href="#WenQuanYiZenHei-29" x="641.503906"/>
     <use xlink:href="#WenQuanYiZenHei-78" x="671.484375"/>
     <use xlink:href="#WenQuanYiZenHei-28" x="715.429688"/>
     <use xlink:href="#WenQuanYiZenHei-31" x="745.410156"/>
     <use xlink:href="#WenQuanYiZenHei-2c" x="805.371094"/>
     <use xlink:href="#WenQuanYiZenHei-20" x="835.351562"/>
     <use xlink:href="#WenQuanYiZenHei-30" x="865.332031"/>
     <use xlink:href="#WenQuanYiZenHei-2c" x="925.292969"/>
     <use xlink:href="#WenQuanYiZenHei-20" x="955.273438"/>
     <use xlink:href="#WenQuanYiZenHei-31" x="985.253906"/>
     <use xlink:href="#WenQuanYiZenHei-2c" x="1045.214844"/>
     <use xlink:href="#WenQuanYiZenHei-20" x="1075.195312"/>
     <use xlink:href="#WenQuanYiZenHei-37" x="1105.175781"/>
     <use xlink:href="#WenQuanYiZenHei-29" x="1165.136719"/>
     <use xlink:href="#WenQuanYiZenHei-20" x="1195.117188"/>
     <use xlink:href="#WenQuanYiZenHei-28" x="1225.097656"/>
     <use xlink:href="#WenQuanYiZenHei-52" x="1255.078125"/>
     <use xlink:href="#WenQuanYiZenHei-32" x="1316.992188"/>
     <use xlink:href="#WenQuanYiZenHei-20" x="1376.953125"/>
     <use xlink:href="#WenQuanYiZenHei-3d" x="1406.933594"/>
     <use xlink:href="#WenQuanYiZenHei-20" x="1466.894531"/>
     <use xlink:href="#WenQuanYiZenHei-30" x="1496.875"/>
     <use xlink:href="#WenQuanYiZenHei-2e" x="1556.835938"/>
     <use xlink:href="#WenQuanYiZenHei-38" x="1586.816406"/>
     <use xlink:href="#WenQuanYiZenHei-37" x="1646.777344"/>
     <use xlink:href="#WenQuanYiZenHei-38" x="1706.738281"/>
     <use xlink:href="#WenQuanYiZenHei-32" x="1766.699219"/>
     <use xlink:href="#WenQuanYiZenHei-39" x="1826.660156"/>
     <use xlink:href="#WenQuanYiZenHei-35" x="1886.621094"/>
     <use xlink:href="#WenQuanYiZenHei-29" x="1946.582031"/>
    </g>
   </g>
   <g id="legend_1">
    <g id="patch_7">
     <path d="M 1302.390625 87.056312 
L 1364.390625 87.056312 
Q 1366.390625 87.056312 1366.390625 85.056312 
L 1366.390625 42.061 
Q 1366.390625 40.061 1364.390625 40.061 
L 1302.390625 40.061 
Q 1300.390625 40.061 1300.390625 42.061 
L 1300.390625 85.056312 
Q 1300.390625 87.056312 1302.390625 87.056312 
z
" style="fill: #ffffff; opacity: 0.8; stroke: #cccccc; stroke-linejoin: miter"/>
    </g>
    <g id="line2d_23">
     <path d="M 1304.390625 48.695375 
L 1314.390625 48.695375 
L 1324.390625 48.695375 
" style="fill: none; stroke: #0000ff; stroke-width: 1.5; stroke-linecap: square"/>
    </g>
    <g id="text_21">
     <!-- 实际值 -->
     <g transform="translate(1332.390625 52.195375)scale(0.1 -0.1)">
      <defs>
       <path id="WenQuanYiZenHei-5b9e" d="M 1025 1175 
Q 694 1175 356 1163 
Q 375 1344 356 1525 
Q 694 1506 1025 1506 
L 3363 1506 
L 3363 2625 
Q 3363 3075 3338 3519 
Q 3581 3494 3825 3519 
Q 3800 3075 3800 2625 
L 3800 1506 
L 5406 1506 
Q 5744 1506 6075 1525 
Q 6056 1344 6075 1163 
Q 5744 1175 5406 1175 
L 4038 1175 
L 4981 456 
L 6131 -488 
L 5819 -856 
L 4681 75 
L 3638 875 
Q 3313 231 2475 -231 
Q 1638 -694 700 -825 
Q 638 -519 344 -400 
Q 1450 -319 2406 244 
Q 3113 656 3300 1175 
L 1025 1175 
z
M 2263 1581 
Q 1763 2081 1200 2513 
L 1494 2894 
Q 2081 2444 2600 1919 
L 2263 1581 
z
M 2638 2500 
Q 2219 2963 1731 3363 
L 2044 3738 
Q 2556 3313 3000 2819 
L 2638 2500 
z
M 919 3156 
L 481 3156 
L 481 4344 
L 3069 4344 
Q 2794 4731 2469 5081 
L 2825 5413 
Q 3256 4944 3613 4413 
L 3513 4344 
L 5869 4344 
L 5869 3156 
L 5425 3156 
L 5425 4013 
L 919 4013 
L 919 3156 
z
" transform="scale(0.015625)"/>
       <path id="WenQuanYiZenHei-9645" d="M 6000 431 
L 5569 194 
L 4963 1219 
L 4313 2219 
L 4719 2494 
L 5375 1481 
L 6000 431 
z
M 2956 2450 
Q 3181 2344 3419 2294 
Q 3006 1038 1944 -188 
Q 1794 -6 1569 56 
Q 2069 600 2372 1156 
Q 2675 1713 2956 2450 
z
M 3750 25 
L 3750 2913 
L 2819 2913 
Q 2475 2913 2125 2894 
Q 2144 3081 2125 3269 
Q 2475 3256 2819 3256 
L 5469 3256 
Q 5819 3256 6163 3269 
Q 6144 3081 6163 2894 
Q 5813 2913 5469 2913 
L 4194 2913 
L 4194 -144 
Q 4194 -725 3456 -813 
L 3263 -825 
Q 3325 -506 3125 -250 
Q 3250 -281 3394 -306 
Q 3663 -313 3706 -272 
Q 3750 -231 3750 25 
z
M 5544 4950 
Q 5525 4756 5544 4569 
Q 5194 4588 4844 4588 
L 3325 4588 
Q 2975 4588 2625 4569 
Q 2644 4756 2625 4950 
Q 2975 4931 3325 4931 
L 4844 4931 
Q 5194 4931 5544 4950 
z
M 819 -850 
Q 581 -825 344 -850 
Q 369 -419 369 19 
L 363 4938 
L 2256 4938 
L 2256 4625 
Q 2150 4513 2075 4375 
L 1481 3238 
Q 2181 2319 2181 1156 
Q 2144 400 1569 163 
L 1406 88 
Q 1288 300 1138 481 
Q 1294 538 1450 606 
Q 1763 744 1794 1156 
Q 1794 1744 1600 2300 
Q 1406 2856 1038 3313 
L 1725 4625 
L 788 4625 
L 794 19 
Q 794 -419 819 -850 
z
" transform="scale(0.015625)"/>
       <path id="WenQuanYiZenHei-503c" d="M 6175 -219 
Q 6156 -388 6175 -556 
Q 5863 -544 5550 -544 
L 2313 -544 
Q 2000 -544 1688 -556 
Q 1706 -388 1688 -219 
L 2506 -231 
L 2506 3469 
L 3644 3469 
L 3644 4119 
L 2638 4119 
Q 2325 4119 2013 4100 
Q 2031 4269 2013 4438 
Q 2325 4425 2638 4425 
L 3638 4425 
Q 3638 4719 3619 5013 
Q 3856 4988 4094 5013 
Q 4075 4719 4075 4425 
L 5344 4425 
Q 5650 4425 5963 4438 
Q 5950 4269 5963 4100 
Q 5656 4119 5344 4119 
L 4069 4119 
L 4069 3469 
L 5300 3469 
L 5300 -231 
L 5550 -231 
Q 5863 -231 6175 -219 
z
M 4869 2556 
L 4869 3156 
L 2931 3156 
Q 2931 2850 2931 2556 
L 4869 2556 
z
M 4869 1669 
L 4869 2250 
L 2931 2250 
L 2931 1669 
L 4869 1669 
z
M 4869 731 
L 4869 1363 
L 2931 1363 
L 2931 731 
L 4869 731 
z
M 4869 -231 
L 4869 425 
L 2931 425 
L 2931 -231 
L 4869 -231 
z
M 2106 4925 
Q 1856 4075 1463 3338 
L 1463 31 
Q 1463 -413 1481 -850 
Q 1256 -825 1031 -850 
Q 1050 -413 1050 31 
L 1050 2681 
Q 750 2269 375 1931 
Q 238 2156 0 2256 
Q 331 2544 619 2875 
Q 1094 3425 1300 3950 
Q 1494 4469 1625 5050 
Q 1850 4963 2106 4925 
z
" transform="scale(0.015625)"/>
      </defs>
      <use xlink:href="#WenQuanYiZenHei-5b9e"/>
      <use xlink:href="#WenQuanYiZenHei-9645" x="100"/>
      <use xlink:href="#WenQuanYiZenHei-503c" x="200"/>
     </g>
    </g>
    <g id="line2d_24">
     <path d="M 1304.390625 63.3735 
L 1314.390625 63.3735 
L 1324.390625 63.3735 
" style="fill: none; stroke: #ffa500; stroke-width: 1.5; stroke-linecap: square"/>
    </g>
    <g id="text_22">
     <!-- 校验值 -->
     <g transform="translate(1332.390625 66.8735)scale(0.1 -0.1)">
      <defs>
       <path id="WenQuanYiZenHei-6821" d="M 5256 2463 
Q 5025 1475 4494 706 
Q 5125 -94 6175 -544 
Q 5950 -663 5850 -900 
Q 4906 -494 4250 381 
Q 3931 0 3475 -350 
Q 3019 -700 2388 -919 
Q 2338 -656 2138 -475 
Q 3306 -69 4006 738 
Q 3563 1444 3300 2331 
Q 3050 2050 2706 1800 
Q 2606 2000 2406 2106 
Q 2900 2444 3181 2938 
Q 3350 3225 3488 3538 
Q 3700 3431 3925 3369 
Q 3763 2894 3425 2475 
L 3650 2531 
Q 3888 1675 4244 1075 
Q 4469 1444 4603 1937 
Q 4738 2431 4775 2688 
Q 4963 2644 5150 2625 
Q 4919 2969 4663 3294 
L 5038 3588 
Q 5544 2925 5975 2213 
L 5569 1969 
L 5256 2463 
z
M 6006 4050 
Q 5988 3881 6006 3713 
Q 5694 3725 5381 3725 
L 3413 3725 
Q 3100 3725 2788 3713 
Q 2806 3881 2788 4050 
Q 3100 4031 3413 4031 
L 4325 4031 
Q 4019 4525 3644 4969 
L 4000 5275 
Q 4413 4788 4750 4244 
L 4406 4031 
L 5381 4031 
Q 5694 4031 6006 4050 
z
M 406 263 
Q 238 431 -25 469 
Q 194 825 466 1337 
Q 738 1850 925 2406 
Q 1113 2963 1256 3519 
L 825 3519 
Q 506 3519 188 3500 
Q 206 3700 188 3900 
Q 506 3881 825 3881 
L 1363 3881 
L 1363 4263 
Q 1363 4719 1338 5175 
Q 1556 5150 1775 5175 
Q 1756 4719 1756 4263 
L 1756 3881 
L 2525 3900 
Q 2506 3700 2525 3500 
L 1756 3519 
L 1756 2738 
L 1931 2881 
Q 2306 2300 2613 1650 
L 2231 1413 
Q 2081 1725 1919 2019 
L 1756 2300 
L 1756 69 
Q 1756 -388 1775 -850 
Q 1556 -825 1338 -850 
Q 1363 -388 1363 69 
L 1363 2438 
Q 925 1144 406 263 
z
" transform="scale(0.015625)"/>
       <path id="WenQuanYiZenHei-9a8c" d="M 5981 -106 
Q 5963 -275 5981 -444 
Q 5669 -431 5356 -431 
L 2969 -431 
Q 2656 -431 2350 -444 
Q 2363 -275 2350 -106 
Q 2656 -125 2969 -125 
L 4369 -125 
Q 4600 431 4881 1288 
L 5206 2300 
Q 5425 2206 5663 2163 
Q 5375 1188 4831 -125 
L 5356 -125 
Q 5669 -125 5981 -106 
z
M 4063 594 
Q 3788 1425 3425 2219 
L 3856 2419 
Q 4225 1600 4513 744 
L 4063 594 
z
M 3163 363 
Q 2931 1200 2613 2006 
L 3056 2175 
Q 3381 1350 3619 488 
L 3163 363 
z
M 4581 2550 
L 3513 2550 
Q 3200 2550 2888 2538 
Q 2900 2663 2894 2769 
Q 2569 2488 2206 2300 
Q 2113 2550 1894 2700 
Q 2488 2975 2975 3463 
Q 3269 3756 3394 4006 
Q 3644 4513 3794 5063 
Q 4038 4975 4294 4931 
Q 4250 4806 4206 4681 
Q 4475 3888 5025 3388 
Q 5519 2938 6169 2650 
Q 5938 2538 5838 2300 
Q 5513 2456 5200 2700 
Q 5200 2619 5206 2538 
Q 4894 2550 4581 2550 
z
M 3513 2863 
L 4994 2869 
Q 4344 3438 3988 4194 
Q 3594 3406 3013 2869 
Q 3263 2863 3513 2863 
z
M 206 444 
Q 188 756 44 963 
Q 319 956 650 1003 
Q 981 1050 1731 1281 
L 1738 1006 
Q 800 719 206 444 
z
M 525 4000 
Q 744 3950 994 3944 
Q 925 3519 875 3081 
L 763 2144 
L 1475 2144 
L 1831 4444 
L 663 4444 
Q 350 4444 38 4431 
Q 56 4600 38 4769 
Q 350 4756 663 4756 
L 2313 4756 
L 1913 2144 
L 2375 2144 
L 2200 -200 
Q 2188 -425 1988 -588 
Q 1694 -800 1181 -788 
L 944 -788 
Q 1000 -450 788 -269 
Q 1013 -294 1334 -287 
Q 1656 -281 1715 -243 
Q 1775 -206 1781 -50 
L 1925 1831 
L 294 1831 
L 444 3131 
Q 500 3569 525 4000 
z
" transform="scale(0.015625)"/>
      </defs>
      <use xlink:href="#WenQuanYiZenHei-6821"/>
      <use xlink:href="#WenQuanYiZenHei-9a8c" x="100"/>
      <use xlink:href="#WenQuanYiZenHei-503c" x="200"/>
     </g>
    </g>
    <g id="line2d_25">
     <path d="M 1304.390625 77.895375 
L 1314.390625 77.895375 
L 1324.390625 77.895375 
" style="fill: none; stroke: #ff0000; stroke-width: 1.5; stroke-linecap: square"/>
    </g>
    <g id="text_23">
     <!-- 预测值 -->
     <g transform="translate(1332.390625 81.395375)scale(0.1 -0.1)">
      <use xlink:href="#WenQuanYiZenHei-9884"/>
      <use xlink:href="#WenQuanYiZenHei-6d4b" x="100"/>
      <use xlink:href="#WenQuanYiZenHei-503c" x="200"/>
     </g>
    </g>
   </g>
  </g>
 </g>
 <defs>
  <clipPath id="p1c88295ac1">
   <rect x="32.190625" y="35.061" width="1339.2" height="332.64"/>
  </clipPath>
 </defs>
</svg>
