<?xml version="1.0" encoding="utf-8" standalone="no"?>
<!DOCTYPE svg PUBLIC "-//W3C//DTD SVG 1.1//EN"
  "http://www.w3.org/Graphics/SVG/1.1/DTD/svg11.dtd">
<svg xmlns:xlink="http://www.w3.org/1999/xlink" width="1384.5875pt" height="390.337563pt" viewBox="0 0 1384.5875 390.337563" xmlns="http://www.w3.org/2000/svg" version="1.1">
 <metadata>
  <rdf:RDF xmlns:dc="http://purl.org/dc/elements/1.1/" xmlns:cc="http://creativecommons.org/ns#" xmlns:rdf="http://www.w3.org/1999/02/22-rdf-syntax-ns#">
   <cc:Work>
    <dc:type rdf:resource="http://purl.org/dc/dcmitype/StillImage"/>
    <dc:date>2022-07-16T18:18:39.972728</dc:date>
    <dc:format>image/svg+xml</dc:format>
    <dc:creator>
     <cc:Agent>
      <dc:title>Matplotlib v3.5.2, https://matplotlib.org/</dc:title>
     </cc:Agent>
    </dc:creator>
   </cc:Work>
  </rdf:RDF>
 </metadata>
 <defs>
  <style type="text/css">*{stroke-linejoin: round; stroke-linecap: butt}</style>
 </defs>
 <g id="figure_1">
  <g id="patch_1">
   <path d="M 0 390.337563 
L 1384.5875 390.337563 
L 1384.5875 0 
L 0 0 
z
" style="fill: #ffffff"/>
  </g>
  <g id="axes_1">
   <g id="patch_2">
    <path d="M 38.1875 367.620375 
L 1377.3875 367.620375 
L 1377.3875 34.980375 
L 38.1875 34.980375 
z
" style="fill: #ffffff"/>
   </g>
   <g id="matplotlib.axis_1">
    <g id="xtick_1">
     <g id="line2d_1">
      <defs>
       <path id="maa0a0e51a7" d="M 0 0 
L 0 3.5 
" style="stroke: #000000; stroke-width: 0.8"/>
      </defs>
      <g>
       <use xlink:href="#maa0a0e51a7" x="71.20996" y="367.620375" style="stroke: #000000; stroke-width: 0.8"/>
      </g>
     </g>
     <g id="text_1">
      <!-- 2020-01 -->
      <g transform="translate(51.720116 381.476625)scale(0.1 -0.1)">
       <defs>
        <path id="WenQuanYiZenHei-32" d="M 3488 0 
L 369 0 
L 369 456 
L 2150 1850 
Q 2931 2463 2931 3144 
Q 2931 3619 2488 3863 
Q 2231 4013 1931 4013 
Q 1425 4013 1113 3619 
Q 894 3356 881 3013 
L 369 3169 
Q 531 3981 1213 4300 
Q 1544 4456 1950 4456 
Q 2631 4456 3088 4044 
L 3225 3888 
L 3350 3706 
Q 3481 3444 3481 3144 
Q 3481 2313 2519 1569 
L 1069 456 
L 3488 456 
L 3488 0 
z
" transform="scale(0.015625)"/>
        <path id="WenQuanYiZenHei-30" d="M 3581 2175 
Q 3581 1288 3169 638 
Q 2713 -63 1938 -63 
Q 1025 -63 563 831 
Q 256 1425 256 2188 
Q 256 3188 700 3819 
Q 1138 4456 1888 4456 
Q 2863 4456 3306 3500 
Q 3581 2925 3581 2175 
z
M 3019 2100 
Q 3019 3356 2500 3806 
L 2350 3919 
Q 2144 4031 1888 4031 
Q 1100 4031 888 2956 
Q 819 2625 819 2225 
Q 819 1013 1338 569 
Q 1588 356 1938 356 
Q 2675 356 2925 1294 
Q 3019 1663 3019 2100 
z
" transform="scale(0.015625)"/>
        <path id="WenQuanYiZenHei-2d" d="M 1363 1444 
L 0 1444 
L 0 1844 
L 1363 1844 
L 1363 1444 
z
" transform="scale(0.015625)"/>
        <path id="WenQuanYiZenHei-31" d="M 3556 0 
L 488 0 
L 488 406 
L 1800 406 
L 1800 3725 
Q 1231 3125 588 2788 
L 588 3338 
Q 1456 3781 1931 4388 
L 2331 4388 
L 2331 406 
L 3556 406 
L 3556 0 
z
" transform="scale(0.015625)"/>
       </defs>
       <use xlink:href="#WenQuanYiZenHei-32"/>
       <use xlink:href="#WenQuanYiZenHei-30" x="59.960938"/>
       <use xlink:href="#WenQuanYiZenHei-32" x="119.921875"/>
       <use xlink:href="#WenQuanYiZenHei-30" x="179.882812"/>
       <use xlink:href="#WenQuanYiZenHei-2d" x="239.84375"/>
       <use xlink:href="#WenQuanYiZenHei-30" x="269.824219"/>
       <use xlink:href="#WenQuanYiZenHei-31" x="329.785156"/>
      </g>
     </g>
    </g>
    <g id="xtick_2">
     <g id="line2d_2">
      <g>
       <use xlink:href="#maa0a0e51a7" x="191.894452" y="367.620375" style="stroke: #000000; stroke-width: 0.8"/>
      </g>
     </g>
     <g id="text_2">
      <!-- 2020-04 -->
      <g transform="translate(172.404608 381.476625)scale(0.1 -0.1)">
       <defs>
        <path id="WenQuanYiZenHei-34" d="M 3631 1025 
L 2913 1025 
L 2913 0 
L 2381 0 
L 2381 1025 
L 219 1025 
L 219 1388 
L 2225 4388 
L 2913 4388 
L 2913 1444 
L 3631 1444 
L 3631 1025 
z
M 2381 1444 
L 2381 3963 
L 788 1444 
L 2381 1444 
z
" transform="scale(0.015625)"/>
       </defs>
       <use xlink:href="#WenQuanYiZenHei-32"/>
       <use xlink:href="#WenQuanYiZenHei-30" x="59.960938"/>
       <use xlink:href="#WenQuanYiZenHei-32" x="119.921875"/>
       <use xlink:href="#WenQuanYiZenHei-30" x="179.882812"/>
       <use xlink:href="#WenQuanYiZenHei-2d" x="239.84375"/>
       <use xlink:href="#WenQuanYiZenHei-30" x="269.824219"/>
       <use xlink:href="#WenQuanYiZenHei-34" x="329.785156"/>
      </g>
     </g>
    </g>
    <g id="xtick_3">
     <g id="line2d_3">
      <g>
       <use xlink:href="#maa0a0e51a7" x="312.578944" y="367.620375" style="stroke: #000000; stroke-width: 0.8"/>
      </g>
     </g>
     <g id="text_3">
      <!-- 2020-07 -->
      <g transform="translate(293.0891 381.476625)scale(0.1 -0.1)">
       <defs>
        <path id="WenQuanYiZenHei-37" d="M 3400 4056 
Q 1838 2175 1838 0 
L 1275 0 
Q 1269 1438 2056 2825 
Q 2381 3400 2825 3913 
L 444 3913 
L 500 4388 
L 3400 4388 
L 3400 4056 
z
" transform="scale(0.015625)"/>
       </defs>
       <use xlink:href="#WenQuanYiZenHei-32"/>
       <use xlink:href="#WenQuanYiZenHei-30" x="59.960938"/>
       <use xlink:href="#WenQuanYiZenHei-32" x="119.921875"/>
       <use xlink:href="#WenQuanYiZenHei-30" x="179.882812"/>
       <use xlink:href="#WenQuanYiZenHei-2d" x="239.84375"/>
       <use xlink:href="#WenQuanYiZenHei-30" x="269.824219"/>
       <use xlink:href="#WenQuanYiZenHei-37" x="329.785156"/>
      </g>
     </g>
    </g>
    <g id="xtick_4">
     <g id="line2d_4">
      <g>
       <use xlink:href="#maa0a0e51a7" x="434.589639" y="367.620375" style="stroke: #000000; stroke-width: 0.8"/>
      </g>
     </g>
     <g id="text_4">
      <!-- 2020-10 -->
      <g transform="translate(415.099795 381.476625)scale(0.1 -0.1)">
       <use xlink:href="#WenQuanYiZenHei-32"/>
       <use xlink:href="#WenQuanYiZenHei-30" x="59.960938"/>
       <use xlink:href="#WenQuanYiZenHei-32" x="119.921875"/>
       <use xlink:href="#WenQuanYiZenHei-30" x="179.882812"/>
       <use xlink:href="#WenQuanYiZenHei-2d" x="239.84375"/>
       <use xlink:href="#WenQuanYiZenHei-31" x="269.824219"/>
       <use xlink:href="#WenQuanYiZenHei-30" x="329.785156"/>
      </g>
     </g>
    </g>
    <g id="xtick_5">
     <g id="line2d_5">
      <g>
       <use xlink:href="#maa0a0e51a7" x="556.600334" y="367.620375" style="stroke: #000000; stroke-width: 0.8"/>
      </g>
     </g>
     <g id="text_5">
      <!-- 2021-01 -->
      <g transform="translate(537.11049 381.476625)scale(0.1 -0.1)">
       <use xlink:href="#WenQuanYiZenHei-32"/>
       <use xlink:href="#WenQuanYiZenHei-30" x="59.960938"/>
       <use xlink:href="#WenQuanYiZenHei-32" x="119.921875"/>
       <use xlink:href="#WenQuanYiZenHei-31" x="179.882812"/>
       <use xlink:href="#WenQuanYiZenHei-2d" x="239.84375"/>
       <use xlink:href="#WenQuanYiZenHei-30" x="269.824219"/>
       <use xlink:href="#WenQuanYiZenHei-31" x="329.785156"/>
      </g>
     </g>
    </g>
    <g id="xtick_6">
     <g id="line2d_6">
      <g>
       <use xlink:href="#maa0a0e51a7" x="675.958623" y="367.620375" style="stroke: #000000; stroke-width: 0.8"/>
      </g>
     </g>
     <g id="text_6">
      <!-- 2021-04 -->
      <g transform="translate(656.468779 381.476625)scale(0.1 -0.1)">
       <use xlink:href="#WenQuanYiZenHei-32"/>
       <use xlink:href="#WenQuanYiZenHei-30" x="59.960938"/>
       <use xlink:href="#WenQuanYiZenHei-32" x="119.921875"/>
       <use xlink:href="#WenQuanYiZenHei-31" x="179.882812"/>
       <use xlink:href="#WenQuanYiZenHei-2d" x="239.84375"/>
       <use xlink:href="#WenQuanYiZenHei-30" x="269.824219"/>
       <use xlink:href="#WenQuanYiZenHei-34" x="329.785156"/>
      </g>
     </g>
    </g>
    <g id="xtick_7">
     <g id="line2d_7">
      <g>
       <use xlink:href="#maa0a0e51a7" x="796.643115" y="367.620375" style="stroke: #000000; stroke-width: 0.8"/>
      </g>
     </g>
     <g id="text_7">
      <!-- 2021-07 -->
      <g transform="translate(777.153271 381.476625)scale(0.1 -0.1)">
       <use xlink:href="#WenQuanYiZenHei-32"/>
       <use xlink:href="#WenQuanYiZenHei-30" x="59.960938"/>
       <use xlink:href="#WenQuanYiZenHei-32" x="119.921875"/>
       <use xlink:href="#WenQuanYiZenHei-31" x="179.882812"/>
       <use xlink:href="#WenQuanYiZenHei-2d" x="239.84375"/>
       <use xlink:href="#WenQuanYiZenHei-30" x="269.824219"/>
       <use xlink:href="#WenQuanYiZenHei-37" x="329.785156"/>
      </g>
     </g>
    </g>
    <g id="xtick_8">
     <g id="line2d_8">
      <g>
       <use xlink:href="#maa0a0e51a7" x="918.65381" y="367.620375" style="stroke: #000000; stroke-width: 0.8"/>
      </g>
     </g>
     <g id="text_8">
      <!-- 2021-10 -->
      <g transform="translate(899.163966 381.476625)scale(0.1 -0.1)">
       <use xlink:href="#WenQuanYiZenHei-32"/>
       <use xlink:href="#WenQuanYiZenHei-30" x="59.960938"/>
       <use xlink:href="#WenQuanYiZenHei-32" x="119.921875"/>
       <use xlink:href="#WenQuanYiZenHei-31" x="179.882812"/>
       <use xlink:href="#WenQuanYiZenHei-2d" x="239.84375"/>
       <use xlink:href="#WenQuanYiZenHei-31" x="269.824219"/>
       <use xlink:href="#WenQuanYiZenHei-30" x="329.785156"/>
      </g>
     </g>
    </g>
    <g id="xtick_9">
     <g id="line2d_9">
      <g>
       <use xlink:href="#maa0a0e51a7" x="1040.664505" y="367.620375" style="stroke: #000000; stroke-width: 0.8"/>
      </g>
     </g>
     <g id="text_9">
      <!-- 2022-01 -->
      <g transform="translate(1021.174662 381.476625)scale(0.1 -0.1)">
       <use xlink:href="#WenQuanYiZenHei-32"/>
       <use xlink:href="#WenQuanYiZenHei-30" x="59.960938"/>
       <use xlink:href="#WenQuanYiZenHei-32" x="119.921875"/>
       <use xlink:href="#WenQuanYiZenHei-32" x="179.882812"/>
       <use xlink:href="#WenQuanYiZenHei-2d" x="239.84375"/>
       <use xlink:href="#WenQuanYiZenHei-30" x="269.824219"/>
       <use xlink:href="#WenQuanYiZenHei-31" x="329.785156"/>
      </g>
     </g>
    </g>
    <g id="xtick_10">
     <g id="line2d_10">
      <g>
       <use xlink:href="#maa0a0e51a7" x="1160.022794" y="367.620375" style="stroke: #000000; stroke-width: 0.8"/>
      </g>
     </g>
     <g id="text_10">
      <!-- 2022-04 -->
      <g transform="translate(1140.53295 381.476625)scale(0.1 -0.1)">
       <use xlink:href="#WenQuanYiZenHei-32"/>
       <use xlink:href="#WenQuanYiZenHei-30" x="59.960938"/>
       <use xlink:href="#WenQuanYiZenHei-32" x="119.921875"/>
       <use xlink:href="#WenQuanYiZenHei-32" x="179.882812"/>
       <use xlink:href="#WenQuanYiZenHei-2d" x="239.84375"/>
       <use xlink:href="#WenQuanYiZenHei-30" x="269.824219"/>
       <use xlink:href="#WenQuanYiZenHei-34" x="329.785156"/>
      </g>
     </g>
    </g>
    <g id="xtick_11">
     <g id="line2d_11">
      <g>
       <use xlink:href="#maa0a0e51a7" x="1280.707286" y="367.620375" style="stroke: #000000; stroke-width: 0.8"/>
      </g>
     </g>
     <g id="text_11">
      <!-- 2022-07 -->
      <g transform="translate(1261.217442 381.476625)scale(0.1 -0.1)">
       <use xlink:href="#WenQuanYiZenHei-32"/>
       <use xlink:href="#WenQuanYiZenHei-30" x="59.960938"/>
       <use xlink:href="#WenQuanYiZenHei-32" x="119.921875"/>
       <use xlink:href="#WenQuanYiZenHei-32" x="179.882812"/>
       <use xlink:href="#WenQuanYiZenHei-2d" x="239.84375"/>
       <use xlink:href="#WenQuanYiZenHei-30" x="269.824219"/>
       <use xlink:href="#WenQuanYiZenHei-37" x="329.785156"/>
      </g>
     </g>
    </g>
   </g>
   <g id="matplotlib.axis_2">
    <g id="ytick_1">
     <g id="line2d_12">
      <defs>
       <path id="m18a74337a8" d="M 0 0 
L -3.5 0 
" style="stroke: #000000; stroke-width: 0.8"/>
      </defs>
      <g>
       <use xlink:href="#m18a74337a8" x="38.1875" y="353.124483" style="stroke: #000000; stroke-width: 0.8"/>
      </g>
     </g>
     <g id="text_12">
      <!-- 0 -->
      <g transform="translate(25.190625 356.552608)scale(0.1 -0.1)">
       <use xlink:href="#WenQuanYiZenHei-30"/>
      </g>
     </g>
    </g>
    <g id="ytick_2">
     <g id="line2d_13">
      <g>
       <use xlink:href="#m18a74337a8" x="38.1875" y="290.713703" style="stroke: #000000; stroke-width: 0.8"/>
      </g>
     </g>
     <g id="text_13">
      <!-- 500 -->
      <g transform="translate(13.196875 294.141828)scale(0.1 -0.1)">
       <defs>
        <path id="WenQuanYiZenHei-35" d="M 3531 1488 
Q 3531 688 2913 250 
Q 2456 -63 1844 -63 
Q 1175 -63 706 350 
Q 413 613 306 975 
L 781 1131 
Q 1000 538 1569 406 
Q 1706 369 1856 369 
Q 2550 369 2850 869 
Q 3000 1131 3000 1494 
Q 3000 2056 2581 2356 
Q 2319 2538 1969 2538 
Q 1400 2538 1031 2075 
Q 981 2013 938 1938 
L 500 2031 
L 644 4388 
L 3244 4388 
L 3200 3919 
L 1044 3919 
L 950 2500 
Q 1431 2975 2006 2975 
Q 2713 2975 3163 2475 
Q 3531 2063 3531 1488 
z
" transform="scale(0.015625)"/>
       </defs>
       <use xlink:href="#WenQuanYiZenHei-35"/>
       <use xlink:href="#WenQuanYiZenHei-30" x="59.960938"/>
       <use xlink:href="#WenQuanYiZenHei-30" x="119.921875"/>
      </g>
     </g>
    </g>
    <g id="ytick_3">
     <g id="line2d_14">
      <g>
       <use xlink:href="#m18a74337a8" x="38.1875" y="228.302924" style="stroke: #000000; stroke-width: 0.8"/>
      </g>
     </g>
     <g id="text_14">
      <!-- 1000 -->
      <g transform="translate(7.2 231.731049)scale(0.1 -0.1)">
       <use xlink:href="#WenQuanYiZenHei-31"/>
       <use xlink:href="#WenQuanYiZenHei-30" x="59.960938"/>
       <use xlink:href="#WenQuanYiZenHei-30" x="119.921875"/>
       <use xlink:href="#WenQuanYiZenHei-30" x="179.882812"/>
      </g>
     </g>
    </g>
    <g id="ytick_4">
     <g id="line2d_15">
      <g>
       <use xlink:href="#m18a74337a8" x="38.1875" y="165.892144" style="stroke: #000000; stroke-width: 0.8"/>
      </g>
     </g>
     <g id="text_15">
      <!-- 1500 -->
      <g transform="translate(7.2 169.320269)scale(0.1 -0.1)">
       <use xlink:href="#WenQuanYiZenHei-31"/>
       <use xlink:href="#WenQuanYiZenHei-35" x="59.960938"/>
       <use xlink:href="#WenQuanYiZenHei-30" x="119.921875"/>
       <use xlink:href="#WenQuanYiZenHei-30" x="179.882812"/>
      </g>
     </g>
    </g>
    <g id="ytick_5">
     <g id="line2d_16">
      <g>
       <use xlink:href="#m18a74337a8" x="38.1875" y="103.481365" style="stroke: #000000; stroke-width: 0.8"/>
      </g>
     </g>
     <g id="text_16">
      <!-- 2000 -->
      <g transform="translate(7.2 106.90949)scale(0.1 -0.1)">
       <use xlink:href="#WenQuanYiZenHei-32"/>
       <use xlink:href="#WenQuanYiZenHei-30" x="59.960938"/>
       <use xlink:href="#WenQuanYiZenHei-30" x="119.921875"/>
       <use xlink:href="#WenQuanYiZenHei-30" x="179.882812"/>
      </g>
     </g>
    </g>
    <g id="ytick_6">
     <g id="line2d_17">
      <g>
       <use xlink:href="#m18a74337a8" x="38.1875" y="41.070585" style="stroke: #000000; stroke-width: 0.8"/>
      </g>
     </g>
     <g id="text_17">
      <!-- 2500 -->
      <g transform="translate(7.2 44.49871)scale(0.1 -0.1)">
       <use xlink:href="#WenQuanYiZenHei-32"/>
       <use xlink:href="#WenQuanYiZenHei-35" x="59.960938"/>
       <use xlink:href="#WenQuanYiZenHei-30" x="119.921875"/>
       <use xlink:href="#WenQuanYiZenHei-30" x="179.882812"/>
      </g>
     </g>
    </g>
   </g>
   <g id="line2d_18">
    <path d="M 99.060227 352.500375 
L 100.38643 352.12591 
L 101.712634 351.252159 
L 103.038837 349.629479 
L 104.36504 347.632334 
L 105.691243 344.511795 
L 107.017447 341.890542 
L 108.34365 339.643754 
L 110.996056 331.031067 
L 112.322259 327.28642 
L 114.974666 321.419807 
L 116.300869 317.924803 
L 118.953275 313.056762 
L 120.279479 310.185866 
L 121.605682 307.689435 
L 122.931885 304.943361 
L 124.258088 302.571751 
L 125.584291 301.073893 
L 126.910495 298.702283 
L 128.236698 296.82996 
L 129.562901 295.332101 
L 130.889104 294.45835 
L 132.215307 293.085313 
L 134.867714 289.715131 
L 138.846324 287.593164 
L 140.172527 287.468343 
L 141.49873 287.468343 
L 142.824933 287.343521 
L 145.47734 286.844235 
L 146.803543 286.46977 
L 148.129746 285.970484 
L 154.760762 285.970484 
L 156.086965 285.845662 
L 170.675201 285.845662 
L 172.001404 285.720841 
L 174.65381 285.720841 
L 178.63242 285.346376 
L 179.958623 285.346376 
L 182.611029 284.84709 
L 183.937233 284.84709 
L 185.263436 284.722268 
L 186.589639 284.722268 
L 187.915842 284.472625 
L 190.568249 284.472625 
L 193.220655 283.973339 
L 194.546858 283.848518 
L 195.873061 283.598874 
L 199.851671 283.22441 
L 213.113703 283.22441 
L 214.439906 283.099588 
L 258.204612 283.099588 
L 259.530816 282.849945 
L 260.857019 282.849945 
L 262.183222 282.725123 
L 270.140441 282.725123 
L 271.466644 281.352086 
L 272.792848 281.102443 
L 275.445254 281.102443 
L 276.771457 280.977622 
L 279.423864 280.977622 
L 280.750067 280.603157 
L 282.07627 280.478335 
L 286.05488 280.478335 
L 287.381083 280.353514 
L 288.707286 280.353514 
L 290.033489 279.854228 
L 292.685896 279.604584 
L 307.274131 279.604584 
L 309.926537 278.855655 
L 315.23135 278.855655 
L 316.557553 278.730834 
L 319.20996 278.730834 
L 320.536163 278.48119 
L 321.862366 278.356369 
L 335.124398 278.356369 
L 336.450602 277.981904 
L 337.776805 277.857083 
L 344.407821 277.857083 
L 345.734024 277.732261 
L 352.36504 277.732261 
L 353.691243 277.232975 
L 355.017447 277.232975 
L 357.669853 276.983332 
L 358.996056 276.983332 
L 360.322259 276.85851 
L 362.974666 276.85851 
L 364.300869 276.359224 
L 365.627072 276.359224 
L 366.953275 276.234402 
L 368.279479 275.984759 
L 369.605682 275.859938 
L 370.931885 275.360651 
L 372.258088 275.23583 
L 373.584291 274.986187 
L 376.236698 274.986187 
L 378.889104 274.736544 
L 381.541511 274.736544 
L 382.867714 274.362079 
L 384.193917 273.862793 
L 385.52012 273.238685 
L 388.172527 272.240113 
L 390.824933 271.740826 
L 393.47734 271.740826 
L 394.803543 271.616005 
L 396.129746 271.366362 
L 397.455949 271.24154 
L 400.108356 271.24154 
L 401.434559 270.991897 
L 402.760762 270.367789 
L 404.086965 270.242968 
L 405.413168 270.242968 
L 406.739372 270.118146 
L 410.717981 270.118146 
L 412.044184 269.993324 
L 413.370388 269.494038 
L 416.022794 269.494038 
L 417.348997 269.244395 
L 421.327607 269.244395 
L 422.65381 268.86993 
L 423.980013 268.86993 
L 425.306217 268.745109 
L 426.63242 267.621715 
L 427.958623 267.24725 
L 429.284826 267.24725 
L 430.611029 266.872785 
L 433.263436 266.623142 
L 434.589639 266.248678 
L 435.915842 265.999035 
L 442.546858 264.126711 
L 443.873061 264.126711 
L 445.199265 263.502603 
L 446.525468 263.128139 
L 449.177874 262.878496 
L 453.156484 262.878496 
L 455.80889 262.628852 
L 457.135094 262.628852 
L 459.7875 261.879923 
L 461.113703 261.63028 
L 465.092313 261.63028 
L 466.418516 261.505458 
L 467.744719 261.255815 
L 469.070922 261.130994 
L 470.397126 261.130994 
L 471.723329 260.881351 
L 473.049532 260.382064 
L 474.375735 260.257243 
L 475.701939 260.0076 
L 477.028142 259.009027 
L 478.354345 258.634563 
L 479.680548 258.135276 
L 481.006751 257.885633 
L 482.332955 257.386347 
L 483.659158 257.136704 
L 484.985361 256.637418 
L 486.311564 256.262953 
L 487.637767 256.01331 
L 488.963971 255.514024 
L 490.290174 255.389202 
L 492.94258 255.389202 
L 494.268783 255.014737 
L 495.594987 254.265808 
L 496.92119 254.265808 
L 498.247393 253.891343 
L 499.573596 253.766522 
L 500.899799 253.766522 
L 502.226003 253.6417 
L 503.552206 253.6417 
L 504.878409 253.267236 
L 506.204612 253.267236 
L 507.530816 253.142414 
L 508.857019 253.142414 
L 511.509425 252.892771 
L 512.835628 252.518306 
L 514.161832 252.268663 
L 518.140441 252.268663 
L 519.466644 251.894198 
L 520.792848 251.769377 
L 522.119051 251.769377 
L 523.445254 250.770804 
L 524.771457 250.521161 
L 526.09766 250.521161 
L 527.423864 250.021875 
L 528.750067 250.021875 
L 531.402473 249.272946 
L 532.728676 248.524016 
L 535.381083 248.524016 
L 536.707286 248.399195 
L 538.033489 248.399195 
L 540.685896 248.149552 
L 542.012099 247.899908 
L 543.338302 247.899908 
L 544.664505 247.650265 
L 547.316912 247.400622 
L 548.643115 247.400622 
L 549.969318 247.275801 
L 551.295521 246.901336 
L 552.621725 246.901336 
L 553.947928 246.651693 
L 557.926537 246.651693 
L 559.252741 246.277228 
L 560.578944 246.152407 
L 572.514773 246.152407 
L 573.840976 246.027585 
L 576.493382 245.528299 
L 577.819586 245.403477 
L 579.145789 245.403477 
L 580.471992 245.153834 
L 583.124398 245.153834 
L 584.450602 245.029013 
L 588.429211 245.029013 
L 591.081618 244.77937 
L 592.407821 244.77937 
L 595.060227 244.529726 
L 596.38643 244.529726 
L 597.712634 244.404905 
L 599.038837 244.155262 
L 605.669853 244.155262 
L 608.322259 243.905619 
L 609.648463 243.905619 
L 610.974666 243.655975 
L 612.300869 243.655975 
L 613.627072 243.531154 
L 614.953275 243.531154 
L 617.605682 243.281511 
L 618.931885 243.031868 
L 620.258088 243.031868 
L 621.584291 242.907046 
L 624.236698 242.40776 
L 625.562901 242.40776 
L 626.889104 242.158117 
L 628.215307 242.033295 
L 629.541511 242.033295 
L 630.867714 241.908474 
L 632.193917 241.908474 
L 633.52012 240.78508 
L 634.846324 240.285793 
L 636.172527 239.661686 
L 637.49873 239.536864 
L 638.824933 239.536864 
L 640.151136 239.412042 
L 641.47734 238.538292 
L 642.803543 238.288648 
L 644.129746 237.789362 
L 645.455949 237.789362 
L 646.782152 237.414898 
L 648.108356 237.165254 
L 652.086965 237.165254 
L 653.413168 236.416325 
L 654.739372 236.166682 
L 661.370388 236.166682 
L 664.022794 235.917039 
L 666.675201 235.917039 
L 670.65381 235.168109 
L 671.980013 234.793645 
L 674.63242 234.793645 
L 675.958623 234.668823 
L 678.611029 234.668823 
L 679.937233 234.294359 
L 681.263436 234.294359 
L 682.589639 234.044715 
L 686.568249 234.044715 
L 687.894452 233.919894 
L 689.220655 233.919894 
L 690.546858 233.670251 
L 693.199265 233.420608 
L 694.525468 233.420608 
L 697.177874 232.921321 
L 698.504078 232.921321 
L 701.156484 232.671678 
L 702.482687 232.671678 
L 703.80889 232.422035 
L 705.135094 232.297214 
L 706.461297 232.297214 
L 707.7875 232.04757 
L 709.113703 231.423463 
L 710.439906 231.048998 
L 711.76611 230.924176 
L 713.092313 230.924176 
L 714.418516 230.674533 
L 715.744719 230.674533 
L 717.070922 230.549712 
L 718.397126 229.800782 
L 721.049532 229.301496 
L 725.028142 229.301496 
L 726.354345 229.176675 
L 727.680548 228.677388 
L 730.332955 228.427745 
L 731.659158 228.427745 
L 735.637767 228.053281 
L 736.963971 227.803637 
L 738.290174 227.803637 
L 740.94258 227.553994 
L 742.268783 227.304351 
L 743.594987 226.805065 
L 744.92119 226.4306 
L 746.247393 226.305779 
L 747.573596 226.056136 
L 748.899799 225.931314 
L 750.226003 225.556849 
L 751.552206 225.307206 
L 752.878409 225.182385 
L 754.204612 225.182385 
L 755.530816 224.932742 
L 756.857019 224.80792 
L 759.509425 224.308634 
L 760.835628 224.183812 
L 762.161832 223.434883 
L 764.814238 223.18524 
L 766.140441 222.935597 
L 767.466644 222.810775 
L 768.792848 222.561132 
L 770.119051 222.43631 
L 771.445254 222.061846 
L 772.771457 221.56256 
L 776.750067 221.188095 
L 779.402473 221.188095 
L 782.05488 220.938452 
L 783.381083 220.314344 
L 784.707286 218.816485 
L 786.033489 218.442021 
L 787.359693 217.817913 
L 788.685896 217.068983 
L 790.012099 216.944162 
L 791.338302 216.444876 
L 792.664505 216.195232 
L 793.990709 216.070411 
L 795.316912 215.820768 
L 796.643115 215.820768 
L 797.969318 215.071838 
L 799.295521 214.947017 
L 800.621725 214.697374 
L 801.947928 214.697374 
L 804.600334 214.447731 
L 805.926537 214.447731 
L 807.252741 214.073266 
L 808.578944 214.073266 
L 809.905147 213.57398 
L 815.20996 213.074694 
L 816.536163 213.074694 
L 817.862366 212.700229 
L 819.18857 212.700229 
L 820.514773 212.575407 
L 821.840976 212.575407 
L 823.167179 211.826478 
L 824.493382 211.576835 
L 825.819586 211.077549 
L 827.145789 210.952727 
L 828.471992 210.952727 
L 829.798195 210.827905 
L 831.124398 210.203798 
L 832.450602 209.704511 
L 836.429211 209.330047 
L 837.755414 209.080404 
L 839.081618 208.705939 
L 840.407821 208.581117 
L 841.734024 208.581117 
L 845.712634 207.832188 
L 847.038837 207.707366 
L 849.691243 206.958437 
L 851.017447 206.833616 
L 852.34365 206.583972 
L 853.669853 206.084686 
L 856.322259 206.084686 
L 857.648463 205.959865 
L 858.974666 205.959865 
L 861.627072 205.710222 
L 862.953275 205.710222 
L 865.605682 205.460578 
L 866.931885 205.210935 
L 869.584291 205.210935 
L 873.562901 204.836471 
L 874.889104 204.836471 
L 876.215307 204.586827 
L 878.867714 204.586827 
L 880.193917 204.462006 
L 881.52012 204.462006 
L 882.846324 204.337184 
L 884.172527 204.087541 
L 886.824933 204.087541 
L 888.151136 203.96272 
L 889.47734 203.96272 
L 890.803543 203.837898 
L 892.129746 203.837898 
L 893.455949 203.713077 
L 894.782152 203.463433 
L 896.108356 203.463433 
L 897.434559 203.21379 
L 900.086965 203.21379 
L 901.413168 202.839326 
L 902.739372 202.589683 
L 904.065575 202.589683 
L 905.391778 202.464861 
L 916.001404 202.464861 
L 918.65381 202.215218 
L 923.958623 202.215218 
L 925.284826 201.965575 
L 926.611029 201.840753 
L 927.937233 201.840753 
L 929.263436 201.715932 
L 930.589639 201.715932 
L 931.915842 201.59111 
L 937.220655 201.59111 
L 938.546858 201.091824 
L 939.873061 200.842181 
L 949.156484 200.842181 
L 950.482687 200.717359 
L 951.80889 200.717359 
L 953.135094 200.592538 
L 957.113703 200.592538 
L 958.439906 200.218073 
L 959.76611 200.218073 
L 963.744719 199.469144 
L 965.070922 198.845036 
L 966.397126 198.34575 
L 967.723329 197.721642 
L 969.049532 196.598248 
L 970.375735 196.473426 
L 973.028142 196.473426 
L 974.354345 196.348605 
L 975.680548 195.97414 
L 977.006751 195.97414 
L 978.332955 195.849318 
L 979.659158 195.849318 
L 980.985361 195.599675 
L 982.311564 195.474854 
L 984.963971 195.474854 
L 986.290174 195.225211 
L 987.616377 195.100389 
L 988.94258 194.850746 
L 990.268783 194.725924 
L 992.92119 194.725924 
L 994.247393 194.476281 
L 996.899799 194.476281 
L 998.226003 193.852173 
L 999.552206 193.727352 
L 1004.857019 193.727352 
L 1006.183222 193.103244 
L 1007.509425 192.728779 
L 1008.835628 192.728779 
L 1011.488035 191.355742 
L 1012.814238 191.106099 
L 1018.119051 191.106099 
L 1019.445254 190.981278 
L 1020.771457 190.981278 
L 1024.750067 190.606813 
L 1027.402473 190.606813 
L 1028.728676 190.232348 
L 1030.05488 190.107527 
L 1031.381083 190.107527 
L 1032.707286 189.733062 
L 1034.033489 189.733062 
L 1035.359693 188.984133 
L 1036.685896 188.859311 
L 1038.012099 188.484846 
L 1039.338302 188.235203 
L 1040.664505 187.735917 
L 1041.990709 187.611095 
L 1043.316912 187.236631 
L 1044.643115 187.236631 
L 1045.969318 186.986988 
L 1048.621725 186.737345 
L 1049.947928 185.738772 
L 1051.274131 185.613951 
L 1052.600334 185.364307 
L 1053.926537 185.239486 
L 1055.252741 185.239486 
L 1056.578944 184.989843 
L 1057.905147 184.989843 
L 1060.557553 183.616806 
L 1061.883757 183.242341 
L 1063.20996 182.992698 
L 1065.862366 182.992698 
L 1067.18857 182.618233 
L 1068.514773 182.118947 
L 1069.840976 181.869304 
L 1072.493382 181.869304 
L 1073.819586 181.744482 
L 1076.471992 181.744482 
L 1077.798195 181.619661 
L 1085.755414 181.619661 
L 1087.081618 181.245196 
L 1088.407821 181.245196 
L 1089.734024 180.870731 
L 1091.060227 180.74591 
L 1093.712634 180.74591 
L 1095.038837 180.121802 
L 1100.34365 179.622516 
L 1101.669853 179.372873 
L 1102.996056 179.248051 
L 1105.648463 178.748765 
L 1110.953275 174.255189 
L 1112.279479 172.75733 
L 1113.605682 172.507687 
L 1114.931885 171.384293 
L 1116.258088 171.384293 
L 1118.910495 169.886434 
L 1120.236698 168.76304 
L 1121.562901 167.14036 
L 1124.215307 164.76875 
L 1125.541511 163.395713 
L 1126.867714 163.14607 
L 1128.193917 161.52339 
L 1129.52012 161.024103 
L 1130.846324 160.275174 
L 1132.172527 158.777315 
L 1133.49873 158.402851 
L 1134.824933 157.404278 
L 1136.151136 156.904992 
L 1137.47734 155.781598 
L 1138.803543 155.531955 
L 1140.129746 155.531955 
L 1142.782152 154.533382 
L 1144.108356 154.283739 
L 1146.760762 152.661059 
L 1148.086965 151.1632 
L 1149.413168 150.414271 
L 1153.391778 145.920695 
L 1154.717981 142.550513 
L 1156.044184 139.554795 
L 1158.696591 134.437111 
L 1160.022794 131.441394 
L 1161.348997 126.947818 
L 1162.675201 123.9521 
L 1164.001404 118.210309 
L 1165.327607 115.214591 
L 1166.65381 112.593338 
L 1167.980013 110.845837 
L 1169.306217 110.721015 
L 1170.63242 109.972086 
L 1171.958623 108.72387 
L 1173.284826 107.850119 
L 1174.611029 107.725298 
L 1175.937233 107.10119 
L 1177.263436 106.726725 
L 1178.589639 106.601904 
L 1179.915842 106.102617 
L 1181.242045 105.47851 
L 1182.568249 104.979223 
L 1183.894452 104.604759 
L 1185.220655 104.105472 
L 1186.546858 103.855829 
L 1189.199265 103.606186 
L 1190.525468 103.231722 
L 1191.851671 103.1069 
L 1195.830281 101.609041 
L 1197.156484 98.238859 
L 1201.135094 95.617606 
L 1206.439906 95.11832 
L 1209.092313 95.11832 
L 1211.744719 94.868677 
L 1213.070922 94.868677 
L 1214.397126 94.119748 
L 1215.723329 93.745283 
L 1218.375735 90.250279 
L 1219.701939 88.253134 
L 1221.028142 82.136878 
L 1222.354345 77.019194 
L 1223.680548 74.522763 
L 1225.006751 70.27883 
L 1226.332955 68.780971 
L 1227.659158 68.156863 
L 1228.985361 65.535611 
L 1230.311564 64.537038 
L 1231.637767 64.287395 
L 1232.963971 63.538466 
L 1234.290174 63.288823 
L 1235.616377 62.415072 
L 1236.94258 62.29025 
L 1239.594987 61.790964 
L 1240.92119 61.790964 
L 1242.247393 61.166856 
L 1243.573596 60.66757 
L 1244.899799 60.66757 
L 1246.226003 60.043462 
L 1247.552206 59.544176 
L 1252.857019 59.04489 
L 1254.183222 59.04489 
L 1255.509425 58.920068 
L 1256.835628 58.920068 
L 1258.161832 58.670425 
L 1259.488035 58.545603 
L 1260.814238 58.29596 
L 1262.140441 58.171139 
L 1267.445254 58.171139 
L 1268.771457 58.046317 
L 1270.09766 57.796674 
L 1271.423864 57.297388 
L 1272.750067 57.047745 
L 1274.07627 56.922923 
L 1275.402473 56.922923 
L 1278.05488 56.67328 
L 1279.381083 56.423637 
L 1280.707286 56.423637 
L 1283.359693 56.173994 
L 1284.685896 56.173994 
L 1286.012099 55.924351 
L 1287.338302 55.924351 
L 1288.664505 55.549886 
L 1289.990709 55.425064 
L 1291.316912 55.425064 
L 1292.643115 54.551313 
L 1293.969318 54.30167 
L 1295.295521 54.176849 
L 1297.947928 53.427919 
L 1299.274131 53.303098 
L 1299.274131 53.303098 
" clip-path="url(#pe43a26cdda)" style="fill: none; stroke: #0000ff; stroke-width: 1.5; stroke-linecap: square"/>
   </g>
   <g id="line2d_19">
    <path d="M 1059.23135 183.752998 
L 1060.557553 183.068268 
L 1061.883757 182.783343 
L 1063.20996 182.627457 
L 1064.536163 182.859387 
L 1065.862366 182.904745 
L 1067.18857 182.468154 
L 1068.514773 181.723773 
L 1069.840976 181.545845 
L 1072.493382 181.766896 
L 1073.819586 181.650463 
L 1076.471992 181.798887 
L 1077.798195 181.523843 
L 1085.755414 181.674397 
L 1087.081618 181.022441 
L 1088.407821 181.129992 
L 1089.734024 180.60828 
L 1091.060227 180.551465 
L 1093.712634 180.710832 
L 1095.038837 179.824812 
L 1100.34365 179.466289 
L 1101.669853 179.167519 
L 1102.996056 179.131688 
L 1105.648463 178.494228 
L 1106.974666 176.905362 
L 1108.300869 175.740867 
L 1109.627072 174.294043 
L 1110.953275 173.142143 
L 1112.279479 171.471148 
L 1113.605682 171.792824 
L 1114.931885 170.483056 
L 1116.258088 170.975121 
L 1118.910495 169.202152 
L 1120.236698 167.859151 
L 1121.562901 165.781613 
L 1122.889104 164.849259 
L 1125.541511 162.121975 
L 1126.867714 162.438905 
L 1128.193917 160.33469 
L 1129.52012 160.260947 
L 1130.846324 159.445951 
L 1132.172527 157.630645 
L 1133.49873 157.653608 
L 1134.824933 156.474068 
L 1136.151136 156.308528 
L 1137.47734 154.832489 
L 1140.129746 155.30123 
L 1141.455949 154.609574 
L 1142.782152 154.094655 
L 1144.108356 153.885581 
L 1145.434559 153.050659 
L 1146.760762 151.862051 
L 1148.086965 149.995488 
L 1149.413168 149.512386 
L 1150.739372 147.658633 
L 1153.391778 144.465126 
L 1154.717981 140.123491 
L 1156.044184 136.793107 
L 1157.370388 134.206685 
L 1158.696591 131.911448 
L 1160.022794 128.639122 
L 1161.348997 123.218827 
L 1162.675201 120.748783 
L 1164.001404 113.640909 
L 1166.65381 109.426809 
L 1167.980013 108.539644 
L 1169.306217 109.700186 
L 1170.63242 108.997525 
L 1173.284826 106.812332 
L 1174.611029 107.135638 
L 1175.937233 106.40947 
L 1177.263436 106.151463 
L 1178.589639 106.374802 
L 1182.568249 104.371706 
L 1183.894452 104.125325 
L 1185.220655 103.54403 
L 1186.546858 103.410857 
L 1187.873061 103.552935 
L 1189.199265 103.444744 
L 1190.525468 103.041665 
L 1191.851671 102.838099 
L 1195.830281 101.060383 
L 1197.156484 96.203783 
L 1198.482687 95.975251 
L 1199.80889 95.231161 
L 1201.135094 94.645262 
L 1202.461297 94.9905 
L 1203.7875 95.031369 
L 1205.113703 95.19081 
L 1206.439906 94.893805 
L 1209.092313 95.087865 
L 1210.418516 94.836954 
L 1211.744719 94.73323 
L 1213.070922 94.780738 
L 1214.397126 93.778931 
L 1215.723329 93.291447 
L 1217.049532 90.844512 
L 1218.375735 88.785806 
L 1219.701939 86.448512 
L 1221.028142 77.963883 
L 1222.354345 72.362606 
L 1223.680548 71.09497 
L 1225.006751 66.43655 
L 1226.332955 66.229201 
L 1227.659158 66.687642 
L 1228.985361 63.686094 
L 1230.311564 63.081321 
L 1231.637767 63.334909 
L 1232.963971 62.846665 
L 1234.290174 62.672311 
L 1235.616377 61.601691 
L 1236.94258 62.008128 
L 1238.268783 61.828019 
L 1239.594987 61.459729 
L 1240.92119 61.573098 
L 1242.247393 60.789082 
L 1243.573596 60.157557 
L 1244.899799 60.349335 
L 1246.226003 59.666225 
L 1247.552206 59.133673 
L 1256.835628 58.891314 
L 1258.161832 58.468062 
L 1259.488035 58.384771 
L 1260.814238 58.107345 
L 1262.140441 57.959006 
L 1264.792848 58.159174 
L 1267.445254 58.132593 
L 1268.771457 57.968438 
L 1270.09766 57.629694 
L 1271.423864 56.90182 
L 1272.750067 56.73171 
L 1274.07627 56.732229 
L 1275.402473 56.846197 
L 1279.381083 56.257505 
L 1280.707286 56.301203 
L 1283.359693 56.050484 
L 1284.685896 56.132869 
L 1286.012099 55.756526 
L 1287.338302 55.865927 
L 1288.664505 55.314426 
L 1289.990709 55.22804 
L 1291.316912 55.330255 
L 1292.643115 54.024314 
L 1295.295521 53.925754 
L 1297.947928 53.07577 
L 1299.274131 53.052538 
L 1299.274131 53.052538 
" clip-path="url(#pe43a26cdda)" style="fill: none; stroke: #ffa500; stroke-width: 1.5; stroke-linecap: square"/>
   </g>
   <g id="line2d_20">
    <path d="M 1299.274131 53.052538 
L 1300.600334 52.858128 
L 1301.926537 52.617428 
L 1303.252741 52.385491 
L 1304.578944 52.154297 
L 1305.905147 51.947129 
L 1307.23135 51.710106 
L 1308.557553 51.466789 
L 1309.883757 51.256091 
L 1311.20996 51.018502 
L 1312.536163 50.786004 
L 1313.862366 50.553937 
L 1315.18857 50.335828 
L 1316.514773 50.100375 
" clip-path="url(#pe43a26cdda)" style="fill: none; stroke: #ff0000; stroke-width: 1.5; stroke-linecap: square"/>
   </g>
   <g id="patch_3">
    <path d="M 38.1875 367.620375 
L 38.1875 34.980375 
" style="fill: none; stroke: #000000; stroke-width: 0.8; stroke-linejoin: miter; stroke-linecap: square"/>
   </g>
   <g id="patch_4">
    <path d="M 1377.3875 367.620375 
L 1377.3875 34.980375 
" style="fill: none; stroke: #000000; stroke-width: 0.8; stroke-linejoin: miter; stroke-linecap: square"/>
   </g>
   <g id="patch_5">
    <path d="M 38.1875 367.620375 
L 1377.3875 367.620375 
" style="fill: none; stroke: #000000; stroke-width: 0.8; stroke-linejoin: miter; stroke-linecap: square"/>
   </g>
   <g id="patch_6">
    <path d="M 38.1875 34.980375 
L 1377.3875 34.980375 
" style="fill: none; stroke: #000000; stroke-width: 0.8; stroke-linejoin: miter; stroke-linecap: square"/>
   </g>
   <g id="text_18">
    <!-- 累计确诊预测 - 四川 -->
    <g transform="translate(654.390313 16.96125)scale(0.12 -0.12)">
     <defs>
      <path id="WenQuanYiZenHei-7d2f" d="M 5963 -681 
Q 5363 -81 4706 456 
L 5000 819 
Q 5675 269 6294 -350 
L 5963 -681 
z
M 1944 738 
Q 2094 556 2281 413 
Q 1575 -356 375 -706 
Q 350 -481 200 -319 
Q 725 -181 1122 69 
Q 1519 319 1944 738 
z
M 3244 -169 
L 3244 1063 
L 869 881 
L 850 1181 
Q 1431 1325 2969 1988 
L 1119 1931 
L 1113 2231 
Q 1350 2263 1862 2497 
Q 2375 2731 2800 2988 
L 1094 2988 
Q 1169 4006 1094 5019 
L 5506 5019 
Q 5425 4006 5500 2988 
L 3431 2988 
Q 3475 2931 3525 2875 
Q 2856 2494 2281 2256 
L 3388 2269 
L 3650 2288 
Q 4338 2606 4650 2800 
Q 4744 2563 4881 2344 
Q 4644 2225 3975 1956 
L 2269 1281 
L 4444 1425 
L 4813 1469 
L 4681 1588 
L 4988 1938 
Q 5481 1500 5863 963 
L 5481 694 
Q 5300 950 5081 1188 
L 4463 1163 
L 3669 1100 
L 3669 -250 
Q 3669 -444 3488 -594 
Q 3225 -819 2569 -813 
Q 2638 -513 2431 -294 
Q 2619 -319 2900 -322 
Q 3181 -325 3212 -294 
Q 3244 -263 3244 -169 
z
M 3513 4131 
L 5081 4131 
L 5081 4725 
L 3513 4725 
L 3513 4131 
z
M 3088 4131 
L 3088 4725 
L 1519 4725 
L 1519 4131 
L 3088 4131 
z
M 3513 3856 
L 3513 3288 
L 5081 3288 
L 5081 3856 
L 3513 3856 
z
M 3088 3856 
L 1519 3856 
L 1519 3288 
L 3088 3288 
L 3088 3856 
z
" transform="scale(0.015625)"/>
      <path id="WenQuanYiZenHei-8ba1" d="M 4569 -769 
Q 4313 -738 4056 -769 
Q 4081 -294 4081 175 
L 4081 2806 
L 3213 2806 
Q 2813 2806 2413 2788 
Q 2438 3000 2413 3219 
Q 2813 3200 3213 3200 
L 4081 3200 
L 4081 4313 
Q 4081 4788 4056 5263 
Q 4313 5231 4569 5263 
Q 4550 4788 4550 4313 
L 4550 3200 
L 5381 3200 
Q 5781 3200 6181 3219 
Q 6163 3000 6181 2788 
Q 5781 2806 5381 2806 
L 4550 2806 
L 4550 175 
Q 4550 -294 4569 -769 
z
M 38 2725 
Q 63 2931 38 3138 
Q 419 3119 800 3119 
L 1481 3119 
L 1481 425 
L 2044 1150 
L 2250 1488 
L 2525 1188 
L 2313 950 
L 1294 -488 
L 963 -231 
Q 1025 -94 1025 63 
L 1025 2744 
L 800 2744 
Q 419 2744 38 2725 
z
M 1450 3913 
Q 1094 4438 600 4831 
L 913 5225 
Q 1488 4769 1869 4194 
L 1450 3913 
z
" transform="scale(0.015625)"/>
      <path id="WenQuanYiZenHei-786e" d="M 4794 -769 
Q 4563 -744 4331 -769 
Q 4350 -344 4350 81 
L 4350 1081 
L 3419 1081 
L 3419 788 
Q 3419 225 3150 -194 
Q 2881 -613 2456 -806 
Q 2375 -569 2150 -444 
Q 2531 -344 2765 -15 
Q 3000 313 3000 788 
L 2994 2919 
L 2888 2813 
Q 2769 3000 2563 3081 
Q 3044 3494 3309 3969 
Q 3575 4444 3763 5119 
Q 3981 5044 4213 5013 
Q 4144 4700 4025 4400 
L 5238 4400 
L 5306 4050 
Q 5213 4031 5163 3947 
Q 5113 3863 4813 3325 
L 5994 3325 
L 5994 -150 
Q 5981 -519 5738 -656 
Q 5469 -806 5069 -806 
Q 5125 -525 4956 -294 
Q 5100 -313 5290 -316 
Q 5481 -319 5525 -278 
Q 5569 -238 5569 25 
L 5569 1081 
L 4769 1081 
L 4769 81 
Q 4769 -344 4794 -769 
z
M 4769 1344 
L 5569 1344 
L 5569 2100 
L 4769 2100 
L 4769 1344 
z
M 4350 1344 
L 4350 2100 
L 3413 2100 
L 3419 1344 
L 4350 1344 
z
M 4769 2363 
L 5569 2363 
L 5569 3038 
L 4769 3038 
L 4769 2363 
z
M 4350 2363 
L 4350 3038 
L 3413 3038 
L 3413 2363 
L 4350 2363 
z
M 3375 3325 
L 4350 3325 
L 4344 3331 
L 4775 4113 
L 3894 4113 
Q 3688 3700 3375 3325 
z
M 481 1069 
Q 281 1194 -25 1188 
Q 775 2750 1244 4294 
L 869 4294 
Q 563 4294 250 4275 
Q 269 4438 250 4594 
Q 563 4581 869 4581 
L 2156 4581 
Q 2463 4581 2775 4594 
Q 2756 4438 2775 4275 
Q 2463 4294 2156 4294 
L 1744 4294 
L 1181 2763 
L 2494 2763 
L 2494 -338 
L 2050 -338 
L 2050 156 
L 1406 156 
Q 1406 -94 1419 -350 
Q 1181 -325 938 -350 
Q 956 75 956 500 
L 956 2181 
L 769 1713 
Q 631 1388 481 1069 
z
M 2050 2475 
L 1400 2475 
L 1400 425 
L 2050 425 
L 2050 2475 
z
" transform="scale(0.015625)"/>
      <path id="WenQuanYiZenHei-8bca" d="M 5369 1456 
Q 5556 1256 5775 1100 
Q 5038 344 4081 -225 
Q 3106 -819 1788 -1006 
Q 1788 -725 1631 -500 
Q 3363 -306 4406 519 
Q 4919 956 5369 1456 
z
M 4594 2219 
Q 4781 2031 5013 1881 
Q 3625 394 2150 -25 
Q 2113 250 1913 444 
Q 2475 594 3015 850 
Q 3556 1106 3919 1463 
Q 4275 1819 4594 2219 
z
M 3969 3188 
Q 4150 3013 4356 2881 
Q 3625 1913 2306 1275 
Q 2244 1500 2056 1644 
Q 2619 1900 3053 2256 
Q 3488 2613 3969 3188 
z
M 5813 2194 
Q 4525 2913 3731 4188 
Q 2919 2844 1813 2163 
Q 1700 2413 1456 2550 
Q 1950 2844 2400 3231 
Q 2850 3619 3113 4063 
Q 3413 4581 3644 5163 
Q 3881 5038 4144 4963 
Q 4056 4775 3963 4594 
Q 4325 3919 4844 3441 
Q 5363 2963 6175 2538 
Q 5931 2431 5813 2194 
z
M 31 2613 
Q 50 2775 31 2938 
Q 325 2925 619 2925 
L 1275 2925 
L 1275 506 
L 1675 1006 
L 1831 1250 
L 2038 1013 
L 1881 838 
L 1100 -256 
L 825 -25 
Q 869 81 869 200 
L 869 2625 
L 31 2613 
z
M 950 3713 
Q 606 4325 200 4881 
L 556 5163 
Q 981 4588 1338 3944 
L 950 3713 
z
" transform="scale(0.015625)"/>
      <path id="WenQuanYiZenHei-9884" d="M 1206 19 
L 1206 2888 
L 669 2888 
Q 356 2888 50 2869 
Q 63 3044 50 3213 
Q 363 3194 669 3194 
L 1250 3194 
Q 950 3631 606 4031 
L 963 4338 
L 1263 3975 
L 1913 4719 
L 731 4719 
Q 419 4719 106 4706 
Q 125 4875 106 5044 
Q 419 5031 731 5031 
L 2481 5031 
L 2544 4663 
Q 2394 4613 2256 4466 
Q 2119 4319 1525 3631 
Q 1656 3444 1788 3250 
L 1700 3194 
L 2700 3194 
L 2763 2825 
Q 2656 2819 2613 2763 
L 2100 2038 
L 1750 2288 
L 2175 2888 
L 1638 2888 
L 1638 -150 
Q 1638 -525 1363 -669 
Q 1075 -819 525 -813 
Q 594 -513 388 -294 
Q 575 -313 837 -316 
Q 1100 -319 1153 -272 
Q 1206 -225 1206 19 
z
M 5813 -888 
Q 5100 -225 4306 375 
L 4669 719 
Q 5481 106 6219 -575 
L 5813 -888 
z
M 2375 -906 
Q 2294 -631 2025 -506 
Q 2769 -431 3353 19 
Q 3938 469 3938 1069 
L 3938 2200 
Q 3938 2625 3913 3050 
Q 4188 3025 4456 3050 
Q 4431 2625 4431 2200 
L 4431 1069 
Q 4431 681 4225 319 
Q 3644 -606 2375 -906 
z
M 3444 488 
Q 3169 513 2894 488 
Q 2919 913 2919 1338 
L 2919 3675 
Q 3219 3675 3525 3675 
Q 3750 4013 3931 4525 
L 3238 4525 
Q 2888 4525 2538 4513 
Q 2556 4669 2538 4831 
Q 2888 4813 3238 4813 
L 5313 4813 
Q 5663 4813 6006 4831 
Q 5988 4669 6006 4513 
Q 5663 4525 5313 4525 
L 4481 4525 
Q 4388 4088 4088 3675 
L 5644 3675 
L 5644 513 
L 5144 513 
L 5144 3388 
L 3894 3388 
L 3875 3363 
Q 3863 3375 3844 3388 
Q 3631 3388 3413 3388 
L 3419 1338 
Q 3419 913 3444 488 
z
" transform="scale(0.015625)"/>
      <path id="WenQuanYiZenHei-6d4b" d="M 5450 138 
L 5450 4306 
Q 5450 4750 5425 5188 
Q 5663 5163 5906 5188 
Q 5881 4750 5881 4306 
L 5881 -38 
Q 5888 -569 5519 -719 
Q 5194 -831 4825 -813 
Q 4894 -519 4694 -281 
Q 4869 -306 5094 -309 
Q 5319 -313 5384 -256 
Q 5450 -200 5450 138 
z
M 4900 938 
Q 4663 963 4419 938 
Q 4444 1375 4444 1819 
L 4444 3381 
Q 4444 3819 4419 4263 
Q 4663 4238 4900 4263 
Q 4875 3819 4875 3381 
L 4875 1819 
Q 4875 1375 4900 938 
z
M 2750 2025 
L 2750 3038 
Q 2750 3481 2725 3919 
Q 2963 3894 3206 3919 
Q 3181 3481 3181 3038 
L 3181 2025 
Q 3181 1263 2919 625 
L 3231 956 
Q 3781 431 4256 -150 
L 3888 -456 
Q 3431 106 2906 600 
Q 2531 -288 1738 -769 
Q 1606 -519 1338 -450 
Q 1988 -156 2369 478 
Q 2750 1113 2750 2025 
z
M 2363 969 
Q 2119 994 1881 969 
Q 1906 1406 1906 1850 
L 1906 5038 
L 3956 5031 
L 3956 1200 
L 3525 1200 
L 3525 4713 
L 2338 4713 
L 2338 1850 
Q 2338 1406 2363 969 
z
M 663 -738 
Q 481 -588 206 -575 
Q 400 -69 606 581 
Q 813 1231 1200 2838 
L 1381 2706 
L 875 338 
L 663 -738 
z
M 1006 2856 
L 731 2550 
L 75 3400 
L 350 3713 
L 1006 2856 
z
M 1088 3913 
Q 781 4388 425 4800 
L 694 5125 
Q 1069 4688 1388 4188 
L 1088 3913 
z
" transform="scale(0.015625)"/>
      <path id="WenQuanYiZenHei-20" transform="scale(0.015625)"/>
      <path id="WenQuanYiZenHei-56db" d="M 781 4781 
L 5775 4781 
L 5775 -763 
L 5325 -763 
L 5325 -31 
L 1244 -31 
Q 1244 -406 1263 -775 
Q 1013 -750 769 -775 
Q 788 -319 788 138 
L 781 4781 
z
M 3506 4419 
L 2756 4419 
L 2756 2556 
Q 2756 1950 2359 1465 
Q 1963 981 1381 800 
Q 1344 963 1238 1094 
L 1238 325 
L 5325 325 
L 5325 1244 
L 4169 1244 
Q 3894 1244 3700 1437 
Q 3506 1631 3506 1913 
L 3506 4419 
z
M 3956 4419 
L 3956 1913 
Q 3956 1788 4015 1694 
Q 4075 1600 4175 1600 
L 5325 1600 
L 5325 4419 
L 3956 4419 
z
M 2306 4419 
L 1231 4419 
L 1238 1256 
Q 1694 1369 2000 1731 
Q 2306 2094 2306 2556 
L 2306 4419 
z
" transform="scale(0.015625)"/>
      <path id="WenQuanYiZenHei-5ddd" d="M 5538 -625 
Q 5281 -600 5019 -625 
Q 5044 -144 5044 331 
L 5044 4300 
Q 5044 4781 5019 5256 
Q 5281 5231 5538 5256 
Q 5519 4781 5519 4300 
L 5519 331 
Q 5519 -144 5538 -625 
z
M 3738 338 
Q 3481 363 3219 338 
Q 3244 819 3244 1300 
L 3244 3819 
Q 3244 4300 3219 4775 
Q 3481 4750 3738 4775 
Q 3719 4300 3719 3819 
L 3719 1300 
Q 3719 819 3738 338 
z
M 1456 1275 
L 1456 4281 
Q 1456 4763 1438 5244 
Q 1694 5219 1956 5244 
Q 1931 4763 1931 4281 
L 1931 1275 
Q 1931 394 1406 -231 
Q 1063 -638 563 -831 
Q 481 -550 225 -406 
Q 725 -300 1056 88 
Q 1456 563 1456 1275 
z
" transform="scale(0.015625)"/>
     </defs>
     <use xlink:href="#WenQuanYiZenHei-7d2f"/>
     <use xlink:href="#WenQuanYiZenHei-8ba1" x="100"/>
     <use xlink:href="#WenQuanYiZenHei-786e" x="200"/>
     <use xlink:href="#WenQuanYiZenHei-8bca" x="300"/>
     <use xlink:href="#WenQuanYiZenHei-9884" x="400"/>
     <use xlink:href="#WenQuanYiZenHei-6d4b" x="500"/>
     <use xlink:href="#WenQuanYiZenHei-20" x="600"/>
     <use xlink:href="#WenQuanYiZenHei-2d" x="629.980469"/>
     <use xlink:href="#WenQuanYiZenHei-20" x="659.960938"/>
     <use xlink:href="#WenQuanYiZenHei-56db" x="689.941406"/>
     <use xlink:href="#WenQuanYiZenHei-5ddd" x="789.941406"/>
    </g>
    <!-- ARIMA (0, 2, 1)x(1, 0, 1, 7) (R2 = 0.999423) -->
    <g transform="translate(589.179688 28.980375)scale(0.12 -0.12)">
     <defs>
      <path id="WenQuanYiZenHei-41" d="M 3550 0 
L 2988 0 
L 2550 1281 
L 919 1281 
L 531 0 
L 69 0 
L 1494 4388 
L 2125 4388 
L 3550 0 
z
M 2425 1694 
L 1756 3800 
L 1075 1694 
L 2425 1694 
z
" transform="scale(0.015625)"/>
      <path id="WenQuanYiZenHei-52" d="M 3675 0 
L 3100 0 
L 2288 1900 
L 1069 1900 
L 1069 0 
L 519 0 
L 519 4388 
L 2163 4388 
Q 3006 4388 3400 3900 
Q 3581 3663 3625 3325 
Q 3631 3250 3631 3163 
Q 3631 2594 3219 2244 
Q 3038 2100 2813 2038 
L 3675 0 
z
M 3081 3169 
Q 3081 3825 2356 3906 
Q 2263 3919 2163 3919 
L 1069 3919 
L 1069 2350 
L 2100 2350 
Q 2906 2350 3044 2919 
Q 3081 3031 3081 3169 
z
" transform="scale(0.015625)"/>
      <path id="WenQuanYiZenHei-49" d="M 1100 0 
L 550 0 
L 550 4388 
L 1100 4388 
L 1100 0 
z
" transform="scale(0.015625)"/>
      <path id="WenQuanYiZenHei-4d" d="M 4756 0 
L 4206 0 
L 4206 3831 
L 4181 3831 
L 2788 0 
L 2419 0 
L 1000 3831 
L 975 3831 
L 975 0 
L 513 0 
L 513 4388 
L 1331 4388 
L 2656 875 
L 3950 4388 
L 4756 4388 
L 4756 0 
z
" transform="scale(0.015625)"/>
      <path id="WenQuanYiZenHei-28" d="M 1606 -1094 
L 1275 -1094 
Q 475 -100 338 1231 
Q 319 1438 319 1656 
Q 319 3031 1156 4244 
Q 1213 4313 1269 4388 
L 1600 4388 
Q 806 3169 794 1681 
Q 794 188 1606 -1094 
z
" transform="scale(0.015625)"/>
      <path id="WenQuanYiZenHei-2c" d="M 1363 75 
L 881 -825 
L 606 -825 
L 994 0 
L 656 0 
L 656 738 
L 1363 738 
L 1363 75 
z
" transform="scale(0.015625)"/>
      <path id="WenQuanYiZenHei-29" d="M 1600 1656 
Q 1600 306 869 -788 
Q 769 -950 644 -1094 
L 313 -1094 
Q 1125 188 1125 1681 
Q 1125 3169 338 4363 
Q 325 4375 319 4388 
L 650 4388 
Q 1525 3231 1594 1863 
Q 1600 1763 1600 1656 
z
" transform="scale(0.015625)"/>
      <path id="WenQuanYiZenHei-78" d="M 2806 0 
L 2213 0 
L 1394 1319 
L 544 0 
L 50 0 
L 1144 1681 
L 163 3250 
L 744 3250 
L 1431 2138 
L 2144 3250 
L 2631 3250 
L 1681 1794 
L 2806 0 
z
" transform="scale(0.015625)"/>
      <path id="WenQuanYiZenHei-3d" d="M 3569 2256 
L 263 2256 
L 263 2675 
L 3569 2675 
L 3569 2256 
z
M 3569 1019 
L 263 1019 
L 263 1431 
L 3569 1431 
L 3569 1019 
z
" transform="scale(0.015625)"/>
      <path id="WenQuanYiZenHei-2e" d="M 1344 0 
L 631 0 
L 631 725 
L 1344 725 
L 1344 0 
z
" transform="scale(0.015625)"/>
      <path id="WenQuanYiZenHei-39" d="M 3544 2300 
Q 3544 1163 3019 513 
Q 2563 -63 1775 -63 
Q 956 -63 563 488 
Q 463 631 394 813 
L 838 975 
Q 1025 494 1550 388 
Q 1656 369 1775 369 
Q 2594 369 2900 1325 
Q 3044 1769 3038 2313 
L 3025 2313 
Q 2675 1638 1944 1544 
Q 1844 1531 1744 1531 
Q 1050 1531 625 2031 
Q 294 2419 294 2963 
Q 294 3656 813 4094 
Q 1238 4456 1819 4456 
Q 2988 4456 3381 3363 
Q 3544 2900 3544 2300 
z
M 2925 2994 
Q 2925 3563 2469 3844 
Q 2206 4006 1863 4006 
Q 1275 4006 988 3563 
Q 844 3344 825 3056 
Q 819 3006 819 2956 
Q 819 2413 1269 2131 
Q 1538 1963 1875 1963 
Q 2363 1963 2681 2350 
Q 2925 2638 2925 2994 
z
" transform="scale(0.015625)"/>
      <path id="WenQuanYiZenHei-33" d="M 3588 1231 
Q 3588 494 2875 144 
Q 2450 -63 1925 -63 
Q 1044 -63 556 488 
Q 356 706 256 1000 
L 769 1169 
Q 994 375 1913 375 
Q 2631 375 2900 788 
Q 3019 975 3019 1231 
Q 3019 1638 2638 1881 
Q 2325 2081 1613 2069 
L 1338 2069 
L 1338 2494 
Q 1969 2494 2094 2506 
Q 2325 2544 2463 2613 
Q 2763 2756 2844 3100 
Q 2863 3169 2863 3244 
Q 2863 3744 2381 3944 
L 2163 4006 
Q 2056 4025 1931 4025 
Q 1388 4025 1075 3631 
Q 969 3488 906 3313 
L 419 3456 
Q 675 4150 1400 4369 
Q 1669 4456 1975 4456 
Q 2694 4456 3106 4050 
Q 3419 3744 3419 3275 
Q 3419 2813 3025 2513 
Q 2825 2356 2575 2319 
L 2575 2306 
Q 3181 2213 3450 1769 
Q 3588 1525 3588 1231 
z
" transform="scale(0.015625)"/>
     </defs>
     <use xlink:href="#WenQuanYiZenHei-41"/>
     <use xlink:href="#WenQuanYiZenHei-52" x="55.957031"/>
     <use xlink:href="#WenQuanYiZenHei-49" x="117.871094"/>
     <use xlink:href="#WenQuanYiZenHei-4d" x="143.847656"/>
     <use xlink:href="#WenQuanYiZenHei-41" x="225.78125"/>
     <use xlink:href="#WenQuanYiZenHei-20" x="281.738281"/>
     <use xlink:href="#WenQuanYiZenHei-28" x="311.71875"/>
     <use xlink:href="#WenQuanYiZenHei-30" x="341.699219"/>
     <use xlink:href="#WenQuanYiZenHei-2c" x="401.660156"/>
     <use xlink:href="#WenQuanYiZenHei-20" x="431.640625"/>
     <use xlink:href="#WenQuanYiZenHei-32" x="461.621094"/>
     <use xlink:href="#WenQuanYiZenHei-2c" x="521.582031"/>
     <use xlink:href="#WenQuanYiZenHei-20" x="551.5625"/>
     <use xlink:href="#WenQuanYiZenHei-31" x="581.542969"/>
     <use xlink:href="#WenQuanYiZenHei-29" x="641.503906"/>
     <use xlink:href="#WenQuanYiZenHei-78" x="671.484375"/>
     <use xlink:href="#WenQuanYiZenHei-28" x="715.429688"/>
     <use xlink:href="#WenQuanYiZenHei-31" x="745.410156"/>
     <use xlink:href="#WenQuanYiZenHei-2c" x="805.371094"/>
     <use xlink:href="#WenQuanYiZenHei-20" x="835.351562"/>
     <use xlink:href="#WenQuanYiZenHei-30" x="865.332031"/>
     <use xlink:href="#WenQuanYiZenHei-2c" x="925.292969"/>
     <use xlink:href="#WenQuanYiZenHei-20" x="955.273438"/>
     <use xlink:href="#WenQuanYiZenHei-31" x="985.253906"/>
     <use xlink:href="#WenQuanYiZenHei-2c" x="1045.214844"/>
     <use xlink:href="#WenQuanYiZenHei-20" x="1075.195312"/>
     <use xlink:href="#WenQuanYiZenHei-37" x="1105.175781"/>
     <use xlink:href="#WenQuanYiZenHei-29" x="1165.136719"/>
     <use xlink:href="#WenQuanYiZenHei-20" x="1195.117188"/>
     <use xlink:href="#WenQuanYiZenHei-28" x="1225.097656"/>
     <use xlink:href="#WenQuanYiZenHei-52" x="1255.078125"/>
     <use xlink:href="#WenQuanYiZenHei-32" x="1316.992188"/>
     <use xlink:href="#WenQuanYiZenHei-20" x="1376.953125"/>
     <use xlink:href="#WenQuanYiZenHei-3d" x="1406.933594"/>
     <use xlink:href="#WenQuanYiZenHei-20" x="1466.894531"/>
     <use xlink:href="#WenQuanYiZenHei-30" x="1496.875"/>
     <use xlink:href="#WenQuanYiZenHei-2e" x="1556.835938"/>
     <use xlink:href="#WenQuanYiZenHei-39" x="1586.816406"/>
     <use xlink:href="#WenQuanYiZenHei-39" x="1646.777344"/>
     <use xlink:href="#WenQuanYiZenHei-39" x="1706.738281"/>
     <use xlink:href="#WenQuanYiZenHei-34" x="1766.699219"/>
     <use xlink:href="#WenQuanYiZenHei-32" x="1826.660156"/>
     <use xlink:href="#WenQuanYiZenHei-33" x="1886.621094"/>
     <use xlink:href="#WenQuanYiZenHei-29" x="1946.582031"/>
    </g>
   </g>
   <g id="legend_1">
    <g id="patch_7">
     <path d="M 45.1875 86.975687 
L 107.1875 86.975687 
Q 109.1875 86.975687 109.1875 84.975687 
L 109.1875 41.980375 
Q 109.1875 39.980375 107.1875 39.980375 
L 45.1875 39.980375 
Q 43.1875 39.980375 43.1875 41.980375 
L 43.1875 84.975687 
Q 43.1875 86.975687 45.1875 86.975687 
z
" style="fill: #ffffff; opacity: 0.8; stroke: #cccccc; stroke-linejoin: miter"/>
    </g>
    <g id="line2d_21">
     <path d="M 47.1875 48.61475 
L 57.1875 48.61475 
L 67.1875 48.61475 
" style="fill: none; stroke: #0000ff; stroke-width: 1.5; stroke-linecap: square"/>
    </g>
    <g id="text_19">
     <!-- 实际值 -->
     <g transform="translate(75.1875 52.11475)scale(0.1 -0.1)">
      <defs>
       <path id="WenQuanYiZenHei-5b9e" d="M 1025 1175 
Q 694 1175 356 1163 
Q 375 1344 356 1525 
Q 694 1506 1025 1506 
L 3363 1506 
L 3363 2625 
Q 3363 3075 3338 3519 
Q 3581 3494 3825 3519 
Q 3800 3075 3800 2625 
L 3800 1506 
L 5406 1506 
Q 5744 1506 6075 1525 
Q 6056 1344 6075 1163 
Q 5744 1175 5406 1175 
L 4038 1175 
L 4981 456 
L 6131 -488 
L 5819 -856 
L 4681 75 
L 3638 875 
Q 3313 231 2475 -231 
Q 1638 -694 700 -825 
Q 638 -519 344 -400 
Q 1450 -319 2406 244 
Q 3113 656 3300 1175 
L 1025 1175 
z
M 2263 1581 
Q 1763 2081 1200 2513 
L 1494 2894 
Q 2081 2444 2600 1919 
L 2263 1581 
z
M 2638 2500 
Q 2219 2963 1731 3363 
L 2044 3738 
Q 2556 3313 3000 2819 
L 2638 2500 
z
M 919 3156 
L 481 3156 
L 481 4344 
L 3069 4344 
Q 2794 4731 2469 5081 
L 2825 5413 
Q 3256 4944 3613 4413 
L 3513 4344 
L 5869 4344 
L 5869 3156 
L 5425 3156 
L 5425 4013 
L 919 4013 
L 919 3156 
z
" transform="scale(0.015625)"/>
       <path id="WenQuanYiZenHei-9645" d="M 6000 431 
L 5569 194 
L 4963 1219 
L 4313 2219 
L 4719 2494 
L 5375 1481 
L 6000 431 
z
M 2956 2450 
Q 3181 2344 3419 2294 
Q 3006 1038 1944 -188 
Q 1794 -6 1569 56 
Q 2069 600 2372 1156 
Q 2675 1713 2956 2450 
z
M 3750 25 
L 3750 2913 
L 2819 2913 
Q 2475 2913 2125 2894 
Q 2144 3081 2125 3269 
Q 2475 3256 2819 3256 
L 5469 3256 
Q 5819 3256 6163 3269 
Q 6144 3081 6163 2894 
Q 5813 2913 5469 2913 
L 4194 2913 
L 4194 -144 
Q 4194 -725 3456 -813 
L 3263 -825 
Q 3325 -506 3125 -250 
Q 3250 -281 3394 -306 
Q 3663 -313 3706 -272 
Q 3750 -231 3750 25 
z
M 5544 4950 
Q 5525 4756 5544 4569 
Q 5194 4588 4844 4588 
L 3325 4588 
Q 2975 4588 2625 4569 
Q 2644 4756 2625 4950 
Q 2975 4931 3325 4931 
L 4844 4931 
Q 5194 4931 5544 4950 
z
M 819 -850 
Q 581 -825 344 -850 
Q 369 -419 369 19 
L 363 4938 
L 2256 4938 
L 2256 4625 
Q 2150 4513 2075 4375 
L 1481 3238 
Q 2181 2319 2181 1156 
Q 2144 400 1569 163 
L 1406 88 
Q 1288 300 1138 481 
Q 1294 538 1450 606 
Q 1763 744 1794 1156 
Q 1794 1744 1600 2300 
Q 1406 2856 1038 3313 
L 1725 4625 
L 788 4625 
L 794 19 
Q 794 -419 819 -850 
z
" transform="scale(0.015625)"/>
       <path id="WenQuanYiZenHei-503c" d="M 6175 -219 
Q 6156 -388 6175 -556 
Q 5863 -544 5550 -544 
L 2313 -544 
Q 2000 -544 1688 -556 
Q 1706 -388 1688 -219 
L 2506 -231 
L 2506 3469 
L 3644 3469 
L 3644 4119 
L 2638 4119 
Q 2325 4119 2013 4100 
Q 2031 4269 2013 4438 
Q 2325 4425 2638 4425 
L 3638 4425 
Q 3638 4719 3619 5013 
Q 3856 4988 4094 5013 
Q 4075 4719 4075 4425 
L 5344 4425 
Q 5650 4425 5963 4438 
Q 5950 4269 5963 4100 
Q 5656 4119 5344 4119 
L 4069 4119 
L 4069 3469 
L 5300 3469 
L 5300 -231 
L 5550 -231 
Q 5863 -231 6175 -219 
z
M 4869 2556 
L 4869 3156 
L 2931 3156 
Q 2931 2850 2931 2556 
L 4869 2556 
z
M 4869 1669 
L 4869 2250 
L 2931 2250 
L 2931 1669 
L 4869 1669 
z
M 4869 731 
L 4869 1363 
L 2931 1363 
L 2931 731 
L 4869 731 
z
M 4869 -231 
L 4869 425 
L 2931 425 
L 2931 -231 
L 4869 -231 
z
M 2106 4925 
Q 1856 4075 1463 3338 
L 1463 31 
Q 1463 -413 1481 -850 
Q 1256 -825 1031 -850 
Q 1050 -413 1050 31 
L 1050 2681 
Q 750 2269 375 1931 
Q 238 2156 0 2256 
Q 331 2544 619 2875 
Q 1094 3425 1300 3950 
Q 1494 4469 1625 5050 
Q 1850 4963 2106 4925 
z
" transform="scale(0.015625)"/>
      </defs>
      <use xlink:href="#WenQuanYiZenHei-5b9e"/>
      <use xlink:href="#WenQuanYiZenHei-9645" x="100"/>
      <use xlink:href="#WenQuanYiZenHei-503c" x="200"/>
     </g>
    </g>
    <g id="line2d_22">
     <path d="M 47.1875 63.292875 
L 57.1875 63.292875 
L 67.1875 63.292875 
" style="fill: none; stroke: #ffa500; stroke-width: 1.5; stroke-linecap: square"/>
    </g>
    <g id="text_20">
     <!-- 校验值 -->
     <g transform="translate(75.1875 66.792875)scale(0.1 -0.1)">
      <defs>
       <path id="WenQuanYiZenHei-6821" d="M 5256 2463 
Q 5025 1475 4494 706 
Q 5125 -94 6175 -544 
Q 5950 -663 5850 -900 
Q 4906 -494 4250 381 
Q 3931 0 3475 -350 
Q 3019 -700 2388 -919 
Q 2338 -656 2138 -475 
Q 3306 -69 4006 738 
Q 3563 1444 3300 2331 
Q 3050 2050 2706 1800 
Q 2606 2000 2406 2106 
Q 2900 2444 3181 2938 
Q 3350 3225 3488 3538 
Q 3700 3431 3925 3369 
Q 3763 2894 3425 2475 
L 3650 2531 
Q 3888 1675 4244 1075 
Q 4469 1444 4603 1937 
Q 4738 2431 4775 2688 
Q 4963 2644 5150 2625 
Q 4919 2969 4663 3294 
L 5038 3588 
Q 5544 2925 5975 2213 
L 5569 1969 
L 5256 2463 
z
M 6006 4050 
Q 5988 3881 6006 3713 
Q 5694 3725 5381 3725 
L 3413 3725 
Q 3100 3725 2788 3713 
Q 2806 3881 2788 4050 
Q 3100 4031 3413 4031 
L 4325 4031 
Q 4019 4525 3644 4969 
L 4000 5275 
Q 4413 4788 4750 4244 
L 4406 4031 
L 5381 4031 
Q 5694 4031 6006 4050 
z
M 406 263 
Q 238 431 -25 469 
Q 194 825 466 1337 
Q 738 1850 925 2406 
Q 1113 2963 1256 3519 
L 825 3519 
Q 506 3519 188 3500 
Q 206 3700 188 3900 
Q 506 3881 825 3881 
L 1363 3881 
L 1363 4263 
Q 1363 4719 1338 5175 
Q 1556 5150 1775 5175 
Q 1756 4719 1756 4263 
L 1756 3881 
L 2525 3900 
Q 2506 3700 2525 3500 
L 1756 3519 
L 1756 2738 
L 1931 2881 
Q 2306 2300 2613 1650 
L 2231 1413 
Q 2081 1725 1919 2019 
L 1756 2300 
L 1756 69 
Q 1756 -388 1775 -850 
Q 1556 -825 1338 -850 
Q 1363 -388 1363 69 
L 1363 2438 
Q 925 1144 406 263 
z
" transform="scale(0.015625)"/>
       <path id="WenQuanYiZenHei-9a8c" d="M 5981 -106 
Q 5963 -275 5981 -444 
Q 5669 -431 5356 -431 
L 2969 -431 
Q 2656 -431 2350 -444 
Q 2363 -275 2350 -106 
Q 2656 -125 2969 -125 
L 4369 -125 
Q 4600 431 4881 1288 
L 5206 2300 
Q 5425 2206 5663 2163 
Q 5375 1188 4831 -125 
L 5356 -125 
Q 5669 -125 5981 -106 
z
M 4063 594 
Q 3788 1425 3425 2219 
L 3856 2419 
Q 4225 1600 4513 744 
L 4063 594 
z
M 3163 363 
Q 2931 1200 2613 2006 
L 3056 2175 
Q 3381 1350 3619 488 
L 3163 363 
z
M 4581 2550 
L 3513 2550 
Q 3200 2550 2888 2538 
Q 2900 2663 2894 2769 
Q 2569 2488 2206 2300 
Q 2113 2550 1894 2700 
Q 2488 2975 2975 3463 
Q 3269 3756 3394 4006 
Q 3644 4513 3794 5063 
Q 4038 4975 4294 4931 
Q 4250 4806 4206 4681 
Q 4475 3888 5025 3388 
Q 5519 2938 6169 2650 
Q 5938 2538 5838 2300 
Q 5513 2456 5200 2700 
Q 5200 2619 5206 2538 
Q 4894 2550 4581 2550 
z
M 3513 2863 
L 4994 2869 
Q 4344 3438 3988 4194 
Q 3594 3406 3013 2869 
Q 3263 2863 3513 2863 
z
M 206 444 
Q 188 756 44 963 
Q 319 956 650 1003 
Q 981 1050 1731 1281 
L 1738 1006 
Q 800 719 206 444 
z
M 525 4000 
Q 744 3950 994 3944 
Q 925 3519 875 3081 
L 763 2144 
L 1475 2144 
L 1831 4444 
L 663 4444 
Q 350 4444 38 4431 
Q 56 4600 38 4769 
Q 350 4756 663 4756 
L 2313 4756 
L 1913 2144 
L 2375 2144 
L 2200 -200 
Q 2188 -425 1988 -588 
Q 1694 -800 1181 -788 
L 944 -788 
Q 1000 -450 788 -269 
Q 1013 -294 1334 -287 
Q 1656 -281 1715 -243 
Q 1775 -206 1781 -50 
L 1925 1831 
L 294 1831 
L 444 3131 
Q 500 3569 525 4000 
z
" transform="scale(0.015625)"/>
      </defs>
      <use xlink:href="#WenQuanYiZenHei-6821"/>
      <use xlink:href="#WenQuanYiZenHei-9a8c" x="100"/>
      <use xlink:href="#WenQuanYiZenHei-503c" x="200"/>
     </g>
    </g>
    <g id="line2d_23">
     <path d="M 47.1875 77.81475 
L 57.1875 77.81475 
L 67.1875 77.81475 
" style="fill: none; stroke: #ff0000; stroke-width: 1.5; stroke-linecap: square"/>
    </g>
    <g id="text_21">
     <!-- 预测值 -->
     <g transform="translate(75.1875 81.31475)scale(0.1 -0.1)">
      <use xlink:href="#WenQuanYiZenHei-9884"/>
      <use xlink:href="#WenQuanYiZenHei-6d4b" x="100"/>
      <use xlink:href="#WenQuanYiZenHei-503c" x="200"/>
     </g>
    </g>
   </g>
  </g>
 </g>
 <defs>
  <clipPath id="pe43a26cdda">
   <rect x="38.1875" y="34.980375" width="1339.2" height="332.64"/>
  </clipPath>
 </defs>
</svg>
