<?xml version="1.0" encoding="utf-8" standalone="no"?>
<!DOCTYPE svg PUBLIC "-//W3C//DTD SVG 1.1//EN"
  "http://www.w3.org/Graphics/SVG/1.1/DTD/svg11.dtd">
<svg xmlns:xlink="http://www.w3.org/1999/xlink" width="1384.5875pt" height="390.337563pt" viewBox="0 0 1384.5875 390.337563" xmlns="http://www.w3.org/2000/svg" version="1.1">
 <metadata>
  <rdf:RDF xmlns:dc="http://purl.org/dc/elements/1.1/" xmlns:cc="http://creativecommons.org/ns#" xmlns:rdf="http://www.w3.org/1999/02/22-rdf-syntax-ns#">
   <cc:Work>
    <dc:type rdf:resource="http://purl.org/dc/dcmitype/StillImage"/>
    <dc:date>2022-07-19T18:19:14.918914</dc:date>
    <dc:format>image/svg+xml</dc:format>
    <dc:creator>
     <cc:Agent>
      <dc:title>Matplotlib v3.5.2, https://matplotlib.org/</dc:title>
     </cc:Agent>
    </dc:creator>
   </cc:Work>
  </rdf:RDF>
 </metadata>
 <defs>
  <style type="text/css">*{stroke-linejoin: round; stroke-linecap: butt}</style>
 </defs>
 <g id="figure_1">
  <g id="patch_1">
   <path d="M 0 390.337563 
L 1384.5875 390.337563 
L 1384.5875 0 
L 0 0 
z
" style="fill: #ffffff"/>
  </g>
  <g id="axes_1">
   <g id="patch_2">
    <path d="M 38.1875 367.620375 
L 1377.3875 367.620375 
L 1377.3875 34.980375 
L 38.1875 34.980375 
z
" style="fill: #ffffff"/>
   </g>
   <g id="matplotlib.axis_1">
    <g id="xtick_1">
     <g id="line2d_1">
      <defs>
       <path id="m13822c8bac" d="M 0 0 
L 0 3.5 
" style="stroke: #000000; stroke-width: 0.8"/>
      </defs>
      <g>
       <use xlink:href="#m13822c8bac" x="71.300677" y="367.620375" style="stroke: #000000; stroke-width: 0.8"/>
      </g>
     </g>
     <g id="text_1">
      <!-- 2020-01 -->
      <g transform="translate(51.810834 381.476625)scale(0.1 -0.1)">
       <defs>
        <path id="WenQuanYiZenHei-32" d="M 3488 0 
L 369 0 
L 369 456 
L 2150 1850 
Q 2931 2463 2931 3144 
Q 2931 3619 2488 3863 
Q 2231 4013 1931 4013 
Q 1425 4013 1113 3619 
Q 894 3356 881 3013 
L 369 3169 
Q 531 3981 1213 4300 
Q 1544 4456 1950 4456 
Q 2631 4456 3088 4044 
L 3225 3888 
L 3350 3706 
Q 3481 3444 3481 3144 
Q 3481 2313 2519 1569 
L 1069 456 
L 3488 456 
L 3488 0 
z
" transform="scale(0.015625)"/>
        <path id="WenQuanYiZenHei-30" d="M 3581 2175 
Q 3581 1288 3169 638 
Q 2713 -63 1938 -63 
Q 1025 -63 563 831 
Q 256 1425 256 2188 
Q 256 3188 700 3819 
Q 1138 4456 1888 4456 
Q 2863 4456 3306 3500 
Q 3581 2925 3581 2175 
z
M 3019 2100 
Q 3019 3356 2500 3806 
L 2350 3919 
Q 2144 4031 1888 4031 
Q 1100 4031 888 2956 
Q 819 2625 819 2225 
Q 819 1013 1338 569 
Q 1588 356 1938 356 
Q 2675 356 2925 1294 
Q 3019 1663 3019 2100 
z
" transform="scale(0.015625)"/>
        <path id="WenQuanYiZenHei-2d" d="M 1363 1444 
L 0 1444 
L 0 1844 
L 1363 1844 
L 1363 1444 
z
" transform="scale(0.015625)"/>
        <path id="WenQuanYiZenHei-31" d="M 3556 0 
L 488 0 
L 488 406 
L 1800 406 
L 1800 3725 
Q 1231 3125 588 2788 
L 588 3338 
Q 1456 3781 1931 4388 
L 2331 4388 
L 2331 406 
L 3556 406 
L 3556 0 
z
" transform="scale(0.015625)"/>
       </defs>
       <use xlink:href="#WenQuanYiZenHei-32"/>
       <use xlink:href="#WenQuanYiZenHei-30" x="59.960938"/>
       <use xlink:href="#WenQuanYiZenHei-32" x="119.921875"/>
       <use xlink:href="#WenQuanYiZenHei-30" x="179.882812"/>
       <use xlink:href="#WenQuanYiZenHei-2d" x="239.84375"/>
       <use xlink:href="#WenQuanYiZenHei-30" x="269.824219"/>
       <use xlink:href="#WenQuanYiZenHei-31" x="329.785156"/>
      </g>
     </g>
    </g>
    <g id="xtick_2">
     <g id="line2d_2">
      <g>
       <use xlink:href="#m13822c8bac" x="191.59206" y="367.620375" style="stroke: #000000; stroke-width: 0.8"/>
      </g>
     </g>
     <g id="text_2">
      <!-- 2020-04 -->
      <g transform="translate(172.102217 381.476625)scale(0.1 -0.1)">
       <defs>
        <path id="WenQuanYiZenHei-34" d="M 3631 1025 
L 2913 1025 
L 2913 0 
L 2381 0 
L 2381 1025 
L 219 1025 
L 219 1388 
L 2225 4388 
L 2913 4388 
L 2913 1444 
L 3631 1444 
L 3631 1025 
z
M 2381 1444 
L 2381 3963 
L 788 1444 
L 2381 1444 
z
" transform="scale(0.015625)"/>
       </defs>
       <use xlink:href="#WenQuanYiZenHei-32"/>
       <use xlink:href="#WenQuanYiZenHei-30" x="59.960938"/>
       <use xlink:href="#WenQuanYiZenHei-32" x="119.921875"/>
       <use xlink:href="#WenQuanYiZenHei-30" x="179.882812"/>
       <use xlink:href="#WenQuanYiZenHei-2d" x="239.84375"/>
       <use xlink:href="#WenQuanYiZenHei-30" x="269.824219"/>
       <use xlink:href="#WenQuanYiZenHei-34" x="329.785156"/>
      </g>
     </g>
    </g>
    <g id="xtick_3">
     <g id="line2d_3">
      <g>
       <use xlink:href="#m13822c8bac" x="311.883443" y="367.620375" style="stroke: #000000; stroke-width: 0.8"/>
      </g>
     </g>
     <g id="text_3">
      <!-- 2020-07 -->
      <g transform="translate(292.393599 381.476625)scale(0.1 -0.1)">
       <defs>
        <path id="WenQuanYiZenHei-37" d="M 3400 4056 
Q 1838 2175 1838 0 
L 1275 0 
Q 1269 1438 2056 2825 
Q 2381 3400 2825 3913 
L 444 3913 
L 500 4388 
L 3400 4388 
L 3400 4056 
z
" transform="scale(0.015625)"/>
       </defs>
       <use xlink:href="#WenQuanYiZenHei-32"/>
       <use xlink:href="#WenQuanYiZenHei-30" x="59.960938"/>
       <use xlink:href="#WenQuanYiZenHei-32" x="119.921875"/>
       <use xlink:href="#WenQuanYiZenHei-30" x="179.882812"/>
       <use xlink:href="#WenQuanYiZenHei-2d" x="239.84375"/>
       <use xlink:href="#WenQuanYiZenHei-30" x="269.824219"/>
       <use xlink:href="#WenQuanYiZenHei-37" x="329.785156"/>
      </g>
     </g>
    </g>
    <g id="xtick_4">
     <g id="line2d_4">
      <g>
       <use xlink:href="#m13822c8bac" x="433.496709" y="367.620375" style="stroke: #000000; stroke-width: 0.8"/>
      </g>
     </g>
     <g id="text_4">
      <!-- 2020-10 -->
      <g transform="translate(414.006866 381.476625)scale(0.1 -0.1)">
       <use xlink:href="#WenQuanYiZenHei-32"/>
       <use xlink:href="#WenQuanYiZenHei-30" x="59.960938"/>
       <use xlink:href="#WenQuanYiZenHei-32" x="119.921875"/>
       <use xlink:href="#WenQuanYiZenHei-30" x="179.882812"/>
       <use xlink:href="#WenQuanYiZenHei-2d" x="239.84375"/>
       <use xlink:href="#WenQuanYiZenHei-31" x="269.824219"/>
       <use xlink:href="#WenQuanYiZenHei-30" x="329.785156"/>
      </g>
     </g>
    </g>
    <g id="xtick_5">
     <g id="line2d_5">
      <g>
       <use xlink:href="#m13822c8bac" x="555.109976" y="367.620375" style="stroke: #000000; stroke-width: 0.8"/>
      </g>
     </g>
     <g id="text_5">
      <!-- 2021-01 -->
      <g transform="translate(535.620132 381.476625)scale(0.1 -0.1)">
       <use xlink:href="#WenQuanYiZenHei-32"/>
       <use xlink:href="#WenQuanYiZenHei-30" x="59.960938"/>
       <use xlink:href="#WenQuanYiZenHei-32" x="119.921875"/>
       <use xlink:href="#WenQuanYiZenHei-31" x="179.882812"/>
       <use xlink:href="#WenQuanYiZenHei-2d" x="239.84375"/>
       <use xlink:href="#WenQuanYiZenHei-30" x="269.824219"/>
       <use xlink:href="#WenQuanYiZenHei-31" x="329.785156"/>
      </g>
     </g>
    </g>
    <g id="xtick_6">
     <g id="line2d_6">
      <g>
       <use xlink:href="#m13822c8bac" x="674.079475" y="367.620375" style="stroke: #000000; stroke-width: 0.8"/>
      </g>
     </g>
     <g id="text_6">
      <!-- 2021-04 -->
      <g transform="translate(654.589631 381.476625)scale(0.1 -0.1)">
       <use xlink:href="#WenQuanYiZenHei-32"/>
       <use xlink:href="#WenQuanYiZenHei-30" x="59.960938"/>
       <use xlink:href="#WenQuanYiZenHei-32" x="119.921875"/>
       <use xlink:href="#WenQuanYiZenHei-31" x="179.882812"/>
       <use xlink:href="#WenQuanYiZenHei-2d" x="239.84375"/>
       <use xlink:href="#WenQuanYiZenHei-30" x="269.824219"/>
       <use xlink:href="#WenQuanYiZenHei-34" x="329.785156"/>
      </g>
     </g>
    </g>
    <g id="xtick_7">
     <g id="line2d_7">
      <g>
       <use xlink:href="#m13822c8bac" x="794.370858" y="367.620375" style="stroke: #000000; stroke-width: 0.8"/>
      </g>
     </g>
     <g id="text_7">
      <!-- 2021-07 -->
      <g transform="translate(774.881014 381.476625)scale(0.1 -0.1)">
       <use xlink:href="#WenQuanYiZenHei-32"/>
       <use xlink:href="#WenQuanYiZenHei-30" x="59.960938"/>
       <use xlink:href="#WenQuanYiZenHei-32" x="119.921875"/>
       <use xlink:href="#WenQuanYiZenHei-31" x="179.882812"/>
       <use xlink:href="#WenQuanYiZenHei-2d" x="239.84375"/>
       <use xlink:href="#WenQuanYiZenHei-30" x="269.824219"/>
       <use xlink:href="#WenQuanYiZenHei-37" x="329.785156"/>
      </g>
     </g>
    </g>
    <g id="xtick_8">
     <g id="line2d_8">
      <g>
       <use xlink:href="#m13822c8bac" x="915.984124" y="367.620375" style="stroke: #000000; stroke-width: 0.8"/>
      </g>
     </g>
     <g id="text_8">
      <!-- 2021-10 -->
      <g transform="translate(896.49428 381.476625)scale(0.1 -0.1)">
       <use xlink:href="#WenQuanYiZenHei-32"/>
       <use xlink:href="#WenQuanYiZenHei-30" x="59.960938"/>
       <use xlink:href="#WenQuanYiZenHei-32" x="119.921875"/>
       <use xlink:href="#WenQuanYiZenHei-31" x="179.882812"/>
       <use xlink:href="#WenQuanYiZenHei-2d" x="239.84375"/>
       <use xlink:href="#WenQuanYiZenHei-31" x="269.824219"/>
       <use xlink:href="#WenQuanYiZenHei-30" x="329.785156"/>
      </g>
     </g>
    </g>
    <g id="xtick_9">
     <g id="line2d_9">
      <g>
       <use xlink:href="#m13822c8bac" x="1037.59739" y="367.620375" style="stroke: #000000; stroke-width: 0.8"/>
      </g>
     </g>
     <g id="text_9">
      <!-- 2022-01 -->
      <g transform="translate(1018.107547 381.476625)scale(0.1 -0.1)">
       <use xlink:href="#WenQuanYiZenHei-32"/>
       <use xlink:href="#WenQuanYiZenHei-30" x="59.960938"/>
       <use xlink:href="#WenQuanYiZenHei-32" x="119.921875"/>
       <use xlink:href="#WenQuanYiZenHei-32" x="179.882812"/>
       <use xlink:href="#WenQuanYiZenHei-2d" x="239.84375"/>
       <use xlink:href="#WenQuanYiZenHei-30" x="269.824219"/>
       <use xlink:href="#WenQuanYiZenHei-31" x="329.785156"/>
      </g>
     </g>
    </g>
    <g id="xtick_10">
     <g id="line2d_10">
      <g>
       <use xlink:href="#m13822c8bac" x="1156.56689" y="367.620375" style="stroke: #000000; stroke-width: 0.8"/>
      </g>
     </g>
     <g id="text_10">
      <!-- 2022-04 -->
      <g transform="translate(1137.077046 381.476625)scale(0.1 -0.1)">
       <use xlink:href="#WenQuanYiZenHei-32"/>
       <use xlink:href="#WenQuanYiZenHei-30" x="59.960938"/>
       <use xlink:href="#WenQuanYiZenHei-32" x="119.921875"/>
       <use xlink:href="#WenQuanYiZenHei-32" x="179.882812"/>
       <use xlink:href="#WenQuanYiZenHei-2d" x="239.84375"/>
       <use xlink:href="#WenQuanYiZenHei-30" x="269.824219"/>
       <use xlink:href="#WenQuanYiZenHei-34" x="329.785156"/>
      </g>
     </g>
    </g>
    <g id="xtick_11">
     <g id="line2d_11">
      <g>
       <use xlink:href="#m13822c8bac" x="1276.858273" y="367.620375" style="stroke: #000000; stroke-width: 0.8"/>
      </g>
     </g>
     <g id="text_11">
      <!-- 2022-07 -->
      <g transform="translate(1257.368429 381.476625)scale(0.1 -0.1)">
       <use xlink:href="#WenQuanYiZenHei-32"/>
       <use xlink:href="#WenQuanYiZenHei-30" x="59.960938"/>
       <use xlink:href="#WenQuanYiZenHei-32" x="119.921875"/>
       <use xlink:href="#WenQuanYiZenHei-32" x="179.882812"/>
       <use xlink:href="#WenQuanYiZenHei-2d" x="239.84375"/>
       <use xlink:href="#WenQuanYiZenHei-30" x="269.824219"/>
       <use xlink:href="#WenQuanYiZenHei-37" x="329.785156"/>
      </g>
     </g>
    </g>
   </g>
   <g id="matplotlib.axis_2">
    <g id="ytick_1">
     <g id="line2d_12">
      <defs>
       <path id="mfbfb3df0c8" d="M 0 0 
L -3.5 0 
" style="stroke: #000000; stroke-width: 0.8"/>
      </defs>
      <g>
       <use xlink:href="#mfbfb3df0c8" x="38.1875" y="353.085355" style="stroke: #000000; stroke-width: 0.8"/>
      </g>
     </g>
     <g id="text_12">
      <!-- 0 -->
      <g transform="translate(25.190625 356.51348)scale(0.1 -0.1)">
       <use xlink:href="#WenQuanYiZenHei-30"/>
      </g>
     </g>
    </g>
    <g id="ytick_2">
     <g id="line2d_13">
      <g>
       <use xlink:href="#mfbfb3df0c8" x="38.1875" y="294.587386" style="stroke: #000000; stroke-width: 0.8"/>
      </g>
     </g>
     <g id="text_13">
      <!-- 500 -->
      <g transform="translate(13.196875 298.015511)scale(0.1 -0.1)">
       <defs>
        <path id="WenQuanYiZenHei-35" d="M 3531 1488 
Q 3531 688 2913 250 
Q 2456 -63 1844 -63 
Q 1175 -63 706 350 
Q 413 613 306 975 
L 781 1131 
Q 1000 538 1569 406 
Q 1706 369 1856 369 
Q 2550 369 2850 869 
Q 3000 1131 3000 1494 
Q 3000 2056 2581 2356 
Q 2319 2538 1969 2538 
Q 1400 2538 1031 2075 
Q 981 2013 938 1938 
L 500 2031 
L 644 4388 
L 3244 4388 
L 3200 3919 
L 1044 3919 
L 950 2500 
Q 1431 2975 2006 2975 
Q 2713 2975 3163 2475 
Q 3531 2063 3531 1488 
z
" transform="scale(0.015625)"/>
       </defs>
       <use xlink:href="#WenQuanYiZenHei-35"/>
       <use xlink:href="#WenQuanYiZenHei-30" x="59.960938"/>
       <use xlink:href="#WenQuanYiZenHei-30" x="119.921875"/>
      </g>
     </g>
    </g>
    <g id="ytick_3">
     <g id="line2d_14">
      <g>
       <use xlink:href="#mfbfb3df0c8" x="38.1875" y="236.089418" style="stroke: #000000; stroke-width: 0.8"/>
      </g>
     </g>
     <g id="text_14">
      <!-- 1000 -->
      <g transform="translate(7.2 239.517543)scale(0.1 -0.1)">
       <use xlink:href="#WenQuanYiZenHei-31"/>
       <use xlink:href="#WenQuanYiZenHei-30" x="59.960938"/>
       <use xlink:href="#WenQuanYiZenHei-30" x="119.921875"/>
       <use xlink:href="#WenQuanYiZenHei-30" x="179.882812"/>
      </g>
     </g>
    </g>
    <g id="ytick_4">
     <g id="line2d_15">
      <g>
       <use xlink:href="#mfbfb3df0c8" x="38.1875" y="177.59145" style="stroke: #000000; stroke-width: 0.8"/>
      </g>
     </g>
     <g id="text_15">
      <!-- 1500 -->
      <g transform="translate(7.2 181.019575)scale(0.1 -0.1)">
       <use xlink:href="#WenQuanYiZenHei-31"/>
       <use xlink:href="#WenQuanYiZenHei-35" x="59.960938"/>
       <use xlink:href="#WenQuanYiZenHei-30" x="119.921875"/>
       <use xlink:href="#WenQuanYiZenHei-30" x="179.882812"/>
      </g>
     </g>
    </g>
    <g id="ytick_5">
     <g id="line2d_16">
      <g>
       <use xlink:href="#mfbfb3df0c8" x="38.1875" y="119.093482" style="stroke: #000000; stroke-width: 0.8"/>
      </g>
     </g>
     <g id="text_16">
      <!-- 2000 -->
      <g transform="translate(7.2 122.521607)scale(0.1 -0.1)">
       <use xlink:href="#WenQuanYiZenHei-32"/>
       <use xlink:href="#WenQuanYiZenHei-30" x="59.960938"/>
       <use xlink:href="#WenQuanYiZenHei-30" x="119.921875"/>
       <use xlink:href="#WenQuanYiZenHei-30" x="179.882812"/>
      </g>
     </g>
    </g>
    <g id="ytick_6">
     <g id="line2d_17">
      <g>
       <use xlink:href="#mfbfb3df0c8" x="38.1875" y="60.595513" style="stroke: #000000; stroke-width: 0.8"/>
      </g>
     </g>
     <g id="text_17">
      <!-- 2500 -->
      <g transform="translate(7.2 64.023638)scale(0.1 -0.1)">
       <use xlink:href="#WenQuanYiZenHei-32"/>
       <use xlink:href="#WenQuanYiZenHei-35" x="59.960938"/>
       <use xlink:href="#WenQuanYiZenHei-30" x="119.921875"/>
       <use xlink:href="#WenQuanYiZenHei-30" x="179.882812"/>
      </g>
     </g>
    </g>
   </g>
   <g id="line2d_18">
    <path d="M 99.060227 352.500375 
L 100.382111 352.149387 
L 101.703994 351.330416 
L 103.025877 349.809468 
L 104.347761 347.937533 
L 105.669644 345.012635 
L 106.991527 342.55572 
L 108.313411 340.449794 
L 112.279061 328.867196 
L 114.922827 323.368387 
L 116.244711 320.092501 
L 118.888477 315.529659 
L 120.210361 312.838753 
L 121.532244 310.498834 
L 122.854127 307.924923 
L 124.176011 305.702 
L 125.497894 304.298049 
L 126.819777 302.075126 
L 128.14166 300.320187 
L 129.463544 298.916236 
L 130.785427 298.097265 
L 132.10731 296.810309 
L 134.751077 293.651419 
L 138.716727 291.662488 
L 140.03861 291.545492 
L 141.360494 291.545492 
L 142.682377 291.428496 
L 145.326144 290.960512 
L 146.648027 290.609525 
L 147.96991 290.141541 
L 154.579327 290.141541 
L 155.90121 290.024545 
L 170.441927 290.024545 
L 171.76381 289.907549 
L 174.407577 289.907549 
L 178.373227 289.556561 
L 179.69511 289.556561 
L 182.338877 289.088577 
L 183.66076 289.088577 
L 184.982644 288.971581 
L 186.304527 288.971581 
L 187.62641 288.73759 
L 190.270177 288.73759 
L 192.913944 288.269606 
L 194.235827 288.15261 
L 195.55771 287.918618 
L 199.52336 287.56763 
L 212.742194 287.56763 
L 214.064077 287.450634 
L 257.686227 287.450634 
L 259.00811 287.216642 
L 260.329993 287.216642 
L 261.651877 287.099646 
L 269.583177 287.099646 
L 270.90506 285.812691 
L 272.226943 285.578699 
L 274.87071 285.578699 
L 276.192593 285.461703 
L 278.83636 285.461703 
L 280.158243 285.110716 
L 281.480127 284.99372 
L 285.445777 284.99372 
L 286.76766 284.876724 
L 288.089543 284.876724 
L 289.411427 284.40874 
L 292.055193 284.174748 
L 306.59591 284.174748 
L 309.239676 283.472772 
L 314.52721 283.472772 
L 315.849093 283.355777 
L 318.49286 283.355777 
L 319.814743 283.121785 
L 321.136626 283.004789 
L 334.35546 283.004789 
L 335.677343 282.653801 
L 336.999226 282.536805 
L 343.608643 282.536805 
L 344.930526 282.419809 
L 351.539943 282.419809 
L 352.861826 281.951825 
L 354.18371 281.951825 
L 356.827476 281.717833 
L 358.14936 281.717833 
L 359.471243 281.600837 
L 362.11501 281.600837 
L 363.436893 281.132854 
L 364.758776 281.132854 
L 366.08066 281.015858 
L 367.402543 280.781866 
L 368.724426 280.66487 
L 370.04631 280.196886 
L 371.368193 280.07989 
L 372.690076 279.845898 
L 375.333843 279.845898 
L 377.97761 279.611907 
L 380.621376 279.611907 
L 381.94326 279.260919 
L 388.552676 277.037996 
L 389.87456 276.804004 
L 392.518326 276.804004 
L 393.84021 276.687008 
L 395.162093 276.453016 
L 396.483976 276.33602 
L 399.127743 276.33602 
L 400.449626 276.102028 
L 401.771509 275.517049 
L 403.093393 275.400053 
L 404.415276 275.400053 
L 405.737159 275.283057 
L 409.702809 275.283057 
L 411.024693 275.166061 
L 412.346576 274.698077 
L 414.990343 274.698077 
L 416.312226 274.464085 
L 420.277876 274.464085 
L 421.599759 274.113098 
L 422.921643 274.113098 
L 424.243526 273.996102 
L 425.565409 272.943138 
L 426.887293 272.59215 
L 428.209176 272.59215 
L 429.531059 272.241163 
L 432.174826 272.007171 
L 433.496709 271.656183 
L 434.818593 271.422191 
L 441.428009 269.667252 
L 442.749893 269.667252 
L 444.071776 269.082272 
L 445.393659 268.731284 
L 448.037426 268.497293 
L 452.003076 268.497293 
L 454.646843 268.263301 
L 455.968726 268.263301 
L 458.612493 267.561325 
L 459.934376 267.327333 
L 463.900026 267.327333 
L 465.221909 267.210337 
L 466.543793 266.976345 
L 467.865676 266.859349 
L 469.187559 266.859349 
L 470.509443 266.625358 
L 471.831326 266.157374 
L 473.153209 266.040378 
L 474.475093 265.806386 
L 475.796976 264.870419 
L 477.118859 264.519431 
L 478.440743 264.051447 
L 479.762626 263.817455 
L 481.084509 263.349471 
L 482.406393 263.115479 
L 485.050159 262.296508 
L 486.372042 262.062516 
L 487.693926 261.594532 
L 489.015809 261.477536 
L 491.659576 261.477536 
L 492.981459 261.126549 
L 494.303342 260.424573 
L 495.625226 260.424573 
L 496.947109 260.073585 
L 498.268992 259.956589 
L 499.590876 259.956589 
L 500.912759 259.839593 
L 502.234642 259.839593 
L 503.556526 259.488605 
L 504.878409 259.488605 
L 506.200292 259.37161 
L 507.522176 259.37161 
L 510.165942 259.137618 
L 511.487826 258.78663 
L 512.809709 258.552638 
L 516.775359 258.552638 
L 518.097242 258.20165 
L 519.419126 258.084654 
L 520.741009 258.084654 
L 522.062892 257.148687 
L 523.384776 256.914695 
L 524.706659 256.914695 
L 526.028542 256.446711 
L 527.350426 256.446711 
L 529.994192 255.744735 
L 531.316076 255.04276 
L 533.959842 255.04276 
L 535.281726 254.925764 
L 536.603609 254.925764 
L 539.247376 254.691772 
L 540.569259 254.45778 
L 541.891142 254.45778 
L 543.213026 254.223788 
L 545.856792 253.989796 
L 547.178676 253.989796 
L 548.500559 253.872801 
L 549.822442 253.521813 
L 551.144326 253.521813 
L 552.466209 253.287821 
L 556.431859 253.287821 
L 557.753742 252.936833 
L 559.075626 252.819837 
L 570.972576 252.819837 
L 572.294459 252.702841 
L 574.938225 252.234857 
L 576.260109 252.117861 
L 577.581992 252.117861 
L 578.903875 251.88387 
L 581.547642 251.88387 
L 582.869525 251.766874 
L 586.835175 251.766874 
L 589.478942 251.532882 
L 590.800825 251.532882 
L 593.444592 251.29889 
L 594.766475 251.29889 
L 596.088359 251.181894 
L 597.410242 250.947902 
L 604.019659 250.947902 
L 606.663425 250.71391 
L 607.985309 250.71391 
L 609.307192 250.479918 
L 610.629075 250.479918 
L 611.950959 250.362922 
L 613.272842 250.362922 
L 615.916609 250.128931 
L 617.238492 249.894939 
L 618.560375 249.894939 
L 619.882259 249.777943 
L 622.526025 249.309959 
L 623.847909 249.309959 
L 625.169792 249.075967 
L 626.491675 248.958971 
L 627.813559 248.958971 
L 629.135442 248.841975 
L 630.457325 248.841975 
L 631.779209 247.789012 
L 634.422975 246.736048 
L 635.744859 246.619052 
L 637.066742 246.619052 
L 638.388625 246.502057 
L 639.710509 245.683085 
L 641.032392 245.449093 
L 642.354275 244.981109 
L 643.676159 244.981109 
L 644.998042 244.630122 
L 646.319925 244.39613 
L 650.285575 244.39613 
L 651.607459 243.694154 
L 652.929342 243.460162 
L 659.538759 243.460162 
L 662.182525 243.22617 
L 664.826292 243.22617 
L 668.791942 242.524195 
L 670.113825 242.173207 
L 672.757592 242.173207 
L 674.079475 242.056211 
L 676.723242 242.056211 
L 678.045125 241.705223 
L 679.367008 241.705223 
L 680.688892 241.471231 
L 684.654542 241.471231 
L 685.976425 241.354235 
L 687.298308 241.354235 
L 688.620192 241.120243 
L 691.263958 240.886252 
L 692.585842 240.886252 
L 695.229608 240.418268 
L 696.551492 240.418268 
L 699.195258 240.184276 
L 700.517142 240.184276 
L 701.839025 239.950284 
L 703.160908 239.833288 
L 704.482792 239.833288 
L 705.804675 239.599296 
L 707.126558 239.014317 
L 708.448442 238.663329 
L 709.770325 238.546333 
L 711.092208 238.546333 
L 712.414092 238.312341 
L 713.735975 238.312341 
L 715.057858 238.195345 
L 716.379742 237.493369 
L 719.023508 237.025386 
L 722.989158 237.025386 
L 724.311042 236.90839 
L 725.632925 236.440406 
L 728.276692 236.206414 
L 729.598575 236.206414 
L 733.564225 235.855426 
L 734.886108 235.621434 
L 736.207992 235.621434 
L 738.851758 235.387443 
L 740.173642 235.153451 
L 742.817408 234.334479 
L 744.139292 234.217483 
L 745.461175 233.983491 
L 746.783058 233.866495 
L 748.104942 233.515508 
L 749.426825 233.281516 
L 750.748708 233.16452 
L 752.070592 233.16452 
L 753.392475 232.930528 
L 754.714358 232.813532 
L 757.358125 232.345548 
L 758.680008 232.228552 
L 760.001891 231.526577 
L 762.645658 231.292585 
L 763.967541 231.058593 
L 765.289425 230.941597 
L 766.611308 230.707605 
L 767.933191 230.590609 
L 769.255075 230.239621 
L 770.576958 229.771638 
L 774.542608 229.42065 
L 777.186375 229.42065 
L 779.830141 229.186658 
L 781.152025 228.601678 
L 782.473908 227.197727 
L 783.795791 226.846739 
L 786.439558 225.559784 
L 787.761441 225.442788 
L 789.083325 224.974804 
L 790.405208 224.740812 
L 791.727091 224.623816 
L 793.048975 224.389824 
L 794.370858 224.389824 
L 795.692741 223.687849 
L 797.014625 223.570853 
L 798.336508 223.336861 
L 799.658391 223.336861 
L 802.302158 223.102869 
L 803.624041 223.102869 
L 804.945925 222.751881 
L 806.267808 222.751881 
L 807.589691 222.283898 
L 812.877225 221.815914 
L 814.199108 221.815914 
L 815.520991 221.464926 
L 816.842875 221.464926 
L 818.164758 221.34793 
L 819.486641 221.34793 
L 820.808525 220.645955 
L 822.130408 220.411963 
L 823.452291 219.943979 
L 824.774175 219.826983 
L 826.096058 219.826983 
L 827.417941 219.709987 
L 830.061708 218.657024 
L 834.027358 218.306036 
L 835.349241 218.072044 
L 836.671125 217.721056 
L 837.993008 217.60406 
L 839.314891 217.60406 
L 843.280541 216.902085 
L 844.602424 216.785089 
L 847.246191 216.083113 
L 848.568074 215.966117 
L 849.889958 215.732125 
L 851.211841 215.264141 
L 853.855608 215.264141 
L 855.177491 215.147146 
L 856.499374 215.147146 
L 859.143141 214.913154 
L 860.465024 214.913154 
L 863.108791 214.679162 
L 864.430674 214.44517 
L 867.074441 214.44517 
L 871.040091 214.094182 
L 872.361974 214.094182 
L 873.683858 213.86019 
L 876.327624 213.86019 
L 877.649508 213.743194 
L 878.971391 213.743194 
L 880.293274 213.626198 
L 881.615158 213.392206 
L 884.258924 213.392206 
L 885.580808 213.275211 
L 886.902691 213.275211 
L 888.224574 213.158215 
L 889.546458 213.158215 
L 890.868341 213.041219 
L 892.190224 212.807227 
L 893.512108 212.807227 
L 894.833991 212.573235 
L 897.477758 212.573235 
L 898.799641 212.222247 
L 900.121524 211.988255 
L 901.443408 211.988255 
L 902.765291 211.871259 
L 913.340358 211.871259 
L 915.984124 211.637267 
L 921.271658 211.637267 
L 922.593541 211.403276 
L 923.915424 211.28628 
L 925.237308 211.28628 
L 926.559191 211.169284 
L 927.881074 211.169284 
L 929.202958 211.052288 
L 934.490491 211.052288 
L 935.812374 210.584304 
L 937.134257 210.350312 
L 946.387441 210.350312 
L 947.709324 210.233316 
L 949.031207 210.233316 
L 950.353091 210.11632 
L 954.318741 210.11632 
L 955.640624 209.765332 
L 956.962507 209.765332 
L 960.928157 209.063357 
L 964.893807 207.425414 
L 966.215691 206.37245 
L 967.537574 206.255454 
L 970.181341 206.255454 
L 971.503224 206.138458 
L 972.825107 205.787471 
L 974.146991 205.787471 
L 975.468874 205.670475 
L 976.790757 205.670475 
L 978.112641 205.436483 
L 979.434524 205.319487 
L 982.078291 205.319487 
L 983.400174 205.085495 
L 984.722057 204.968499 
L 986.043941 204.734507 
L 987.365824 204.617511 
L 990.009591 204.617511 
L 991.331474 204.383519 
L 993.975241 204.383519 
L 995.297124 203.79854 
L 996.619007 203.681544 
L 1001.906541 203.681544 
L 1003.228424 203.096564 
L 1004.550307 202.745576 
L 1005.872191 202.745576 
L 1008.515957 201.458621 
L 1009.837841 201.224629 
L 1015.125374 201.224629 
L 1016.447257 201.107633 
L 1017.769141 201.107633 
L 1021.73479 200.756645 
L 1024.378557 200.756645 
L 1025.70044 200.405658 
L 1027.022324 200.288662 
L 1028.344207 200.288662 
L 1029.66609 199.937674 
L 1030.987974 199.937674 
L 1032.309857 199.235698 
L 1033.63174 199.118702 
L 1034.953624 198.767714 
L 1036.275507 198.533723 
L 1037.59739 198.065739 
L 1038.919274 197.948743 
L 1040.241157 197.597755 
L 1041.56304 197.597755 
L 1042.884924 197.363763 
L 1045.52869 197.129771 
L 1046.850574 196.193804 
L 1048.172457 196.076808 
L 1049.49434 195.842816 
L 1050.816224 195.72582 
L 1052.138107 195.72582 
L 1053.45999 195.491828 
L 1054.781874 195.491828 
L 1057.42564 194.204873 
L 1058.747524 193.853885 
L 1060.069407 193.619893 
L 1062.713174 193.619893 
L 1064.035057 193.268905 
L 1065.35694 192.800922 
L 1066.678824 192.56693 
L 1069.32259 192.56693 
L 1070.644474 192.449934 
L 1073.28824 192.449934 
L 1074.610124 192.332938 
L 1082.541424 192.332938 
L 1083.863307 191.98195 
L 1085.18519 191.98195 
L 1086.507074 191.630962 
L 1087.828957 191.513966 
L 1090.472724 191.513966 
L 1091.794607 190.928987 
L 1097.08214 190.461003 
L 1098.404024 190.227011 
L 1099.725907 190.110015 
L 1102.369674 189.642031 
L 1107.657207 185.430178 
L 1108.97909 184.026226 
L 1110.300973 183.792235 
L 1111.622857 182.739271 
L 1112.94474 182.739271 
L 1115.588507 181.33532 
L 1116.91039 180.282356 
L 1118.232273 178.761409 
L 1120.87604 176.538486 
L 1122.197923 175.251531 
L 1123.519807 175.017539 
L 1124.84169 173.496592 
L 1126.163573 173.028608 
L 1127.485457 172.326633 
L 1128.80734 170.922682 
L 1130.129223 170.571694 
L 1131.451107 169.635726 
L 1132.77299 169.167742 
L 1134.094873 168.114779 
L 1135.416757 167.880787 
L 1136.73864 167.880787 
L 1139.382407 166.94482 
L 1140.70429 166.710828 
L 1143.348057 165.189881 
L 1144.66994 163.785929 
L 1145.991823 163.083954 
L 1149.957473 158.8721 
L 1151.279357 155.71321 
L 1152.60124 152.905307 
L 1156.56689 145.300571 
L 1157.888773 141.088718 
L 1159.210657 138.280815 
L 1160.53254 132.899002 
L 1161.854423 130.0911 
L 1163.176307 127.634185 
L 1164.49819 125.996242 
L 1165.820073 125.879246 
L 1167.141957 125.17727 
L 1168.46384 124.007311 
L 1169.785723 123.188339 
L 1171.107607 123.071343 
L 1172.42949 122.486364 
L 1173.751373 122.135376 
L 1175.073257 122.01838 
L 1181.682673 119.678461 
L 1183.004557 119.444469 
L 1185.648323 119.210478 
L 1186.970207 118.85949 
L 1188.29209 118.742494 
L 1192.25774 117.338543 
L 1193.579623 114.179652 
L 1197.545273 111.722738 
L 1202.832806 111.254754 
L 1205.476573 111.254754 
L 1208.12034 111.020762 
L 1209.442223 111.020762 
L 1210.764106 110.318786 
L 1212.08599 109.967799 
L 1214.729756 106.691912 
L 1216.05164 104.819977 
L 1217.373523 99.087176 
L 1218.695406 94.290343 
L 1220.01729 91.950424 
L 1221.339173 87.972563 
L 1222.661056 86.568611 
L 1223.98294 85.983632 
L 1225.304823 83.526717 
L 1226.626706 82.590749 
L 1227.94859 82.356758 
L 1229.270473 81.654782 
L 1230.592356 81.42079 
L 1231.91424 80.601819 
L 1233.236123 80.484823 
L 1235.87989 80.016839 
L 1237.201773 80.016839 
L 1239.84554 78.963875 
L 1241.167423 78.963875 
L 1243.81119 77.910912 
L 1249.098723 77.442928 
L 1250.420606 77.442928 
L 1251.74249 77.325932 
L 1253.064373 77.325932 
L 1254.386256 77.09194 
L 1255.70814 76.974944 
L 1257.030023 76.740953 
L 1258.351906 76.623957 
L 1263.63944 76.623957 
L 1264.961323 76.506961 
L 1266.283206 76.272969 
L 1267.60509 75.804985 
L 1268.926973 75.570993 
L 1270.248856 75.453997 
L 1271.57074 75.453997 
L 1274.214506 75.220005 
L 1275.53639 74.986014 
L 1276.858273 74.986014 
L 1279.50204 74.752022 
L 1280.823923 74.752022 
L 1282.145806 74.51803 
L 1283.46769 74.51803 
L 1284.789573 74.167042 
L 1286.111456 74.050046 
L 1287.43334 74.050046 
L 1288.755223 73.231075 
L 1290.077106 72.997083 
L 1291.398989 72.880087 
L 1294.042756 72.178111 
L 1295.364639 72.061115 
L 1296.686523 70.891156 
L 1298.008406 69.253213 
L 1299.330289 67.849261 
L 1299.330289 67.849261 
" clip-path="url(#pe9ead1fddf)" style="fill: none; stroke: #0000ff; stroke-width: 1.5; stroke-linecap: square"/>
   </g>
   <g id="line2d_19">
    <path d="M 1060.069407 193.277974 
L 1061.39129 193.497788 
L 1062.713174 193.539584 
L 1064.035057 193.124909 
L 1065.35694 192.427716 
L 1066.678824 192.264505 
L 1069.32259 192.472552 
L 1070.644474 192.363762 
L 1073.28824 192.501128 
L 1074.610124 192.242019 
L 1082.541424 192.38574 
L 1083.863307 191.770416 
L 1085.18519 191.874312 
L 1086.507074 191.383736 
L 1087.828957 191.330485 
L 1090.472724 191.481781 
L 1091.794607 190.649124 
L 1097.08214 190.314284 
L 1098.404024 190.034956 
L 1099.725907 189.999143 
L 1102.369674 189.402433 
L 1103.691557 187.908662 
L 1105.01344 186.818687 
L 1106.335324 185.461615 
L 1107.657207 184.385667 
L 1108.97909 182.817242 
L 1110.300973 183.129109 
L 1111.622857 181.890334 
L 1112.94474 182.358992 
L 1115.588507 180.691923 
L 1116.91039 179.431269 
L 1118.232273 177.486964 
L 1119.554157 176.613973 
L 1122.197923 174.055156 
L 1123.519807 174.358374 
L 1124.84169 172.377431 
L 1126.163573 172.313149 
L 1127.485457 171.552587 
L 1128.80734 169.846492 
L 1130.129223 169.871915 
L 1131.451107 168.767189 
L 1132.77299 168.60755 
L 1134.094873 167.224994 
L 1136.73864 167.666248 
L 1138.060523 167.021149 
L 1139.382407 166.531956 
L 1140.70429 166.340795 
L 1142.026173 165.551824 
L 1143.348057 164.440792 
L 1144.66994 162.689383 
L 1145.991823 162.236727 
L 1147.313707 160.499651 
L 1149.957473 157.504607 
L 1151.279357 153.427372 
L 1152.60124 150.306291 
L 1153.923123 147.892626 
L 1155.245007 145.738731 
L 1156.56689 142.671369 
L 1157.888773 137.582889 
L 1159.210657 135.270017 
L 1160.53254 128.60269 
L 1163.176307 124.674709 
L 1164.49819 123.843753 
L 1165.820073 124.93308 
L 1167.141957 124.274675 
L 1169.785723 122.22457 
L 1171.107607 122.526883 
L 1172.42949 121.844866 
L 1173.751373 121.607125 
L 1175.073257 121.809774 
L 1179.038907 119.933479 
L 1180.36079 119.69727 
L 1181.682673 119.153087 
L 1183.004557 119.032937 
L 1184.32644 119.164155 
L 1185.648323 119.058885 
L 1186.970207 118.685239 
L 1188.29209 118.492943 
L 1192.25774 116.824629 
L 1193.579623 112.259511 
L 1194.901507 112.055796 
L 1196.22339 111.368306 
L 1197.545273 110.812747 
L 1198.867156 111.138401 
L 1201.510923 111.314564 
L 1202.832806 111.051698 
L 1205.476573 111.234243 
L 1206.798456 110.992114 
L 1208.12034 110.893502 
L 1209.442223 110.936439 
L 1210.764106 109.992793 
L 1212.08599 109.543906 
L 1213.407873 107.241785 
L 1214.729756 105.317144 
L 1216.05164 103.121387 
L 1217.373523 95.149766 
L 1218.695406 89.904174 
L 1220.01729 88.742013 
L 1221.339173 84.36482 
L 1222.661056 84.185957 
L 1223.98294 84.623158 
L 1225.304823 81.777077 
L 1226.626706 81.226713 
L 1227.94859 81.476929 
L 1229.270473 81.010374 
L 1230.592356 80.854426 
L 1231.91424 79.846045 
L 1233.236123 80.222585 
L 1234.558006 80.053103 
L 1235.87989 79.709539 
L 1237.201773 79.814219 
L 1238.523656 79.080103 
L 1239.84554 78.48465 
L 1241.167423 78.670691 
L 1242.489306 78.026718 
L 1243.81119 77.527779 
L 1253.064373 77.30401 
L 1254.386256 76.901179 
L 1255.70814 76.820691 
L 1258.351906 76.423915 
L 1262.317556 76.635874 
L 1264.961323 76.430273 
L 1266.283206 76.117612 
L 1267.60509 75.430179 
L 1268.926973 75.272047 
L 1272.892623 75.220691 
L 1274.214506 75.114077 
L 1275.53639 74.830091 
L 1276.858273 74.869729 
L 1279.50204 74.639363 
L 1280.823923 74.716205 
L 1282.145806 74.358135 
L 1283.46769 74.461531 
L 1284.789573 73.946515 
L 1286.111456 73.862776 
L 1287.43334 73.960321 
L 1288.755223 72.735687 
L 1291.398989 72.644959 
L 1294.042756 71.849016 
L 1295.364639 71.825513 
L 1296.686523 70.187422 
L 1298.008406 67.993037 
L 1299.330289 66.518873 
L 1299.330289 66.518873 
" clip-path="url(#pe9ead1fddf)" style="fill: none; stroke: #ffa500; stroke-width: 1.5; stroke-linecap: square"/>
   </g>
   <g id="line2d_20">
    <path d="M 1299.330289 66.518873 
L 1300.652173 65.186759 
L 1301.974056 63.876949 
L 1303.295939 62.541169 
L 1304.617823 61.257552 
L 1305.939706 60.037574 
L 1307.261589 58.775714 
L 1308.583473 57.515429 
L 1309.905356 56.254086 
L 1311.227239 55.006419 
L 1312.549123 53.742828 
L 1313.871006 52.511222 
L 1315.192889 51.31864 
L 1316.514773 50.100375 
" clip-path="url(#pe9ead1fddf)" style="fill: none; stroke: #ff0000; stroke-width: 1.5; stroke-linecap: square"/>
   </g>
   <g id="patch_3">
    <path d="M 38.1875 367.620375 
L 38.1875 34.980375 
" style="fill: none; stroke: #000000; stroke-width: 0.8; stroke-linejoin: miter; stroke-linecap: square"/>
   </g>
   <g id="patch_4">
    <path d="M 1377.3875 367.620375 
L 1377.3875 34.980375 
" style="fill: none; stroke: #000000; stroke-width: 0.8; stroke-linejoin: miter; stroke-linecap: square"/>
   </g>
   <g id="patch_5">
    <path d="M 38.1875 367.620375 
L 1377.3875 367.620375 
" style="fill: none; stroke: #000000; stroke-width: 0.8; stroke-linejoin: miter; stroke-linecap: square"/>
   </g>
   <g id="patch_6">
    <path d="M 38.1875 34.980375 
L 1377.3875 34.980375 
" style="fill: none; stroke: #000000; stroke-width: 0.8; stroke-linejoin: miter; stroke-linecap: square"/>
   </g>
   <g id="text_18">
    <!-- 累计确诊预测 - 四川 -->
    <g transform="translate(654.390313 16.96125)scale(0.12 -0.12)">
     <defs>
      <path id="WenQuanYiZenHei-7d2f" d="M 5963 -681 
Q 5363 -81 4706 456 
L 5000 819 
Q 5675 269 6294 -350 
L 5963 -681 
z
M 1944 738 
Q 2094 556 2281 413 
Q 1575 -356 375 -706 
Q 350 -481 200 -319 
Q 725 -181 1122 69 
Q 1519 319 1944 738 
z
M 3244 -169 
L 3244 1063 
L 869 881 
L 850 1181 
Q 1431 1325 2969 1988 
L 1119 1931 
L 1113 2231 
Q 1350 2263 1862 2497 
Q 2375 2731 2800 2988 
L 1094 2988 
Q 1169 4006 1094 5019 
L 5506 5019 
Q 5425 4006 5500 2988 
L 3431 2988 
Q 3475 2931 3525 2875 
Q 2856 2494 2281 2256 
L 3388 2269 
L 3650 2288 
Q 4338 2606 4650 2800 
Q 4744 2563 4881 2344 
Q 4644 2225 3975 1956 
L 2269 1281 
L 4444 1425 
L 4813 1469 
L 4681 1588 
L 4988 1938 
Q 5481 1500 5863 963 
L 5481 694 
Q 5300 950 5081 1188 
L 4463 1163 
L 3669 1100 
L 3669 -250 
Q 3669 -444 3488 -594 
Q 3225 -819 2569 -813 
Q 2638 -513 2431 -294 
Q 2619 -319 2900 -322 
Q 3181 -325 3212 -294 
Q 3244 -263 3244 -169 
z
M 3513 4131 
L 5081 4131 
L 5081 4725 
L 3513 4725 
L 3513 4131 
z
M 3088 4131 
L 3088 4725 
L 1519 4725 
L 1519 4131 
L 3088 4131 
z
M 3513 3856 
L 3513 3288 
L 5081 3288 
L 5081 3856 
L 3513 3856 
z
M 3088 3856 
L 1519 3856 
L 1519 3288 
L 3088 3288 
L 3088 3856 
z
" transform="scale(0.015625)"/>
      <path id="WenQuanYiZenHei-8ba1" d="M 4569 -769 
Q 4313 -738 4056 -769 
Q 4081 -294 4081 175 
L 4081 2806 
L 3213 2806 
Q 2813 2806 2413 2788 
Q 2438 3000 2413 3219 
Q 2813 3200 3213 3200 
L 4081 3200 
L 4081 4313 
Q 4081 4788 4056 5263 
Q 4313 5231 4569 5263 
Q 4550 4788 4550 4313 
L 4550 3200 
L 5381 3200 
Q 5781 3200 6181 3219 
Q 6163 3000 6181 2788 
Q 5781 2806 5381 2806 
L 4550 2806 
L 4550 175 
Q 4550 -294 4569 -769 
z
M 38 2725 
Q 63 2931 38 3138 
Q 419 3119 800 3119 
L 1481 3119 
L 1481 425 
L 2044 1150 
L 2250 1488 
L 2525 1188 
L 2313 950 
L 1294 -488 
L 963 -231 
Q 1025 -94 1025 63 
L 1025 2744 
L 800 2744 
Q 419 2744 38 2725 
z
M 1450 3913 
Q 1094 4438 600 4831 
L 913 5225 
Q 1488 4769 1869 4194 
L 1450 3913 
z
" transform="scale(0.015625)"/>
      <path id="WenQuanYiZenHei-786e" d="M 4794 -769 
Q 4563 -744 4331 -769 
Q 4350 -344 4350 81 
L 4350 1081 
L 3419 1081 
L 3419 788 
Q 3419 225 3150 -194 
Q 2881 -613 2456 -806 
Q 2375 -569 2150 -444 
Q 2531 -344 2765 -15 
Q 3000 313 3000 788 
L 2994 2919 
L 2888 2813 
Q 2769 3000 2563 3081 
Q 3044 3494 3309 3969 
Q 3575 4444 3763 5119 
Q 3981 5044 4213 5013 
Q 4144 4700 4025 4400 
L 5238 4400 
L 5306 4050 
Q 5213 4031 5163 3947 
Q 5113 3863 4813 3325 
L 5994 3325 
L 5994 -150 
Q 5981 -519 5738 -656 
Q 5469 -806 5069 -806 
Q 5125 -525 4956 -294 
Q 5100 -313 5290 -316 
Q 5481 -319 5525 -278 
Q 5569 -238 5569 25 
L 5569 1081 
L 4769 1081 
L 4769 81 
Q 4769 -344 4794 -769 
z
M 4769 1344 
L 5569 1344 
L 5569 2100 
L 4769 2100 
L 4769 1344 
z
M 4350 1344 
L 4350 2100 
L 3413 2100 
L 3419 1344 
L 4350 1344 
z
M 4769 2363 
L 5569 2363 
L 5569 3038 
L 4769 3038 
L 4769 2363 
z
M 4350 2363 
L 4350 3038 
L 3413 3038 
L 3413 2363 
L 4350 2363 
z
M 3375 3325 
L 4350 3325 
L 4344 3331 
L 4775 4113 
L 3894 4113 
Q 3688 3700 3375 3325 
z
M 481 1069 
Q 281 1194 -25 1188 
Q 775 2750 1244 4294 
L 869 4294 
Q 563 4294 250 4275 
Q 269 4438 250 4594 
Q 563 4581 869 4581 
L 2156 4581 
Q 2463 4581 2775 4594 
Q 2756 4438 2775 4275 
Q 2463 4294 2156 4294 
L 1744 4294 
L 1181 2763 
L 2494 2763 
L 2494 -338 
L 2050 -338 
L 2050 156 
L 1406 156 
Q 1406 -94 1419 -350 
Q 1181 -325 938 -350 
Q 956 75 956 500 
L 956 2181 
L 769 1713 
Q 631 1388 481 1069 
z
M 2050 2475 
L 1400 2475 
L 1400 425 
L 2050 425 
L 2050 2475 
z
" transform="scale(0.015625)"/>
      <path id="WenQuanYiZenHei-8bca" d="M 5369 1456 
Q 5556 1256 5775 1100 
Q 5038 344 4081 -225 
Q 3106 -819 1788 -1006 
Q 1788 -725 1631 -500 
Q 3363 -306 4406 519 
Q 4919 956 5369 1456 
z
M 4594 2219 
Q 4781 2031 5013 1881 
Q 3625 394 2150 -25 
Q 2113 250 1913 444 
Q 2475 594 3015 850 
Q 3556 1106 3919 1463 
Q 4275 1819 4594 2219 
z
M 3969 3188 
Q 4150 3013 4356 2881 
Q 3625 1913 2306 1275 
Q 2244 1500 2056 1644 
Q 2619 1900 3053 2256 
Q 3488 2613 3969 3188 
z
M 5813 2194 
Q 4525 2913 3731 4188 
Q 2919 2844 1813 2163 
Q 1700 2413 1456 2550 
Q 1950 2844 2400 3231 
Q 2850 3619 3113 4063 
Q 3413 4581 3644 5163 
Q 3881 5038 4144 4963 
Q 4056 4775 3963 4594 
Q 4325 3919 4844 3441 
Q 5363 2963 6175 2538 
Q 5931 2431 5813 2194 
z
M 31 2613 
Q 50 2775 31 2938 
Q 325 2925 619 2925 
L 1275 2925 
L 1275 506 
L 1675 1006 
L 1831 1250 
L 2038 1013 
L 1881 838 
L 1100 -256 
L 825 -25 
Q 869 81 869 200 
L 869 2625 
L 31 2613 
z
M 950 3713 
Q 606 4325 200 4881 
L 556 5163 
Q 981 4588 1338 3944 
L 950 3713 
z
" transform="scale(0.015625)"/>
      <path id="WenQuanYiZenHei-9884" d="M 1206 19 
L 1206 2888 
L 669 2888 
Q 356 2888 50 2869 
Q 63 3044 50 3213 
Q 363 3194 669 3194 
L 1250 3194 
Q 950 3631 606 4031 
L 963 4338 
L 1263 3975 
L 1913 4719 
L 731 4719 
Q 419 4719 106 4706 
Q 125 4875 106 5044 
Q 419 5031 731 5031 
L 2481 5031 
L 2544 4663 
Q 2394 4613 2256 4466 
Q 2119 4319 1525 3631 
Q 1656 3444 1788 3250 
L 1700 3194 
L 2700 3194 
L 2763 2825 
Q 2656 2819 2613 2763 
L 2100 2038 
L 1750 2288 
L 2175 2888 
L 1638 2888 
L 1638 -150 
Q 1638 -525 1363 -669 
Q 1075 -819 525 -813 
Q 594 -513 388 -294 
Q 575 -313 837 -316 
Q 1100 -319 1153 -272 
Q 1206 -225 1206 19 
z
M 5813 -888 
Q 5100 -225 4306 375 
L 4669 719 
Q 5481 106 6219 -575 
L 5813 -888 
z
M 2375 -906 
Q 2294 -631 2025 -506 
Q 2769 -431 3353 19 
Q 3938 469 3938 1069 
L 3938 2200 
Q 3938 2625 3913 3050 
Q 4188 3025 4456 3050 
Q 4431 2625 4431 2200 
L 4431 1069 
Q 4431 681 4225 319 
Q 3644 -606 2375 -906 
z
M 3444 488 
Q 3169 513 2894 488 
Q 2919 913 2919 1338 
L 2919 3675 
Q 3219 3675 3525 3675 
Q 3750 4013 3931 4525 
L 3238 4525 
Q 2888 4525 2538 4513 
Q 2556 4669 2538 4831 
Q 2888 4813 3238 4813 
L 5313 4813 
Q 5663 4813 6006 4831 
Q 5988 4669 6006 4513 
Q 5663 4525 5313 4525 
L 4481 4525 
Q 4388 4088 4088 3675 
L 5644 3675 
L 5644 513 
L 5144 513 
L 5144 3388 
L 3894 3388 
L 3875 3363 
Q 3863 3375 3844 3388 
Q 3631 3388 3413 3388 
L 3419 1338 
Q 3419 913 3444 488 
z
" transform="scale(0.015625)"/>
      <path id="WenQuanYiZenHei-6d4b" d="M 5450 138 
L 5450 4306 
Q 5450 4750 5425 5188 
Q 5663 5163 5906 5188 
Q 5881 4750 5881 4306 
L 5881 -38 
Q 5888 -569 5519 -719 
Q 5194 -831 4825 -813 
Q 4894 -519 4694 -281 
Q 4869 -306 5094 -309 
Q 5319 -313 5384 -256 
Q 5450 -200 5450 138 
z
M 4900 938 
Q 4663 963 4419 938 
Q 4444 1375 4444 1819 
L 4444 3381 
Q 4444 3819 4419 4263 
Q 4663 4238 4900 4263 
Q 4875 3819 4875 3381 
L 4875 1819 
Q 4875 1375 4900 938 
z
M 2750 2025 
L 2750 3038 
Q 2750 3481 2725 3919 
Q 2963 3894 3206 3919 
Q 3181 3481 3181 3038 
L 3181 2025 
Q 3181 1263 2919 625 
L 3231 956 
Q 3781 431 4256 -150 
L 3888 -456 
Q 3431 106 2906 600 
Q 2531 -288 1738 -769 
Q 1606 -519 1338 -450 
Q 1988 -156 2369 478 
Q 2750 1113 2750 2025 
z
M 2363 969 
Q 2119 994 1881 969 
Q 1906 1406 1906 1850 
L 1906 5038 
L 3956 5031 
L 3956 1200 
L 3525 1200 
L 3525 4713 
L 2338 4713 
L 2338 1850 
Q 2338 1406 2363 969 
z
M 663 -738 
Q 481 -588 206 -575 
Q 400 -69 606 581 
Q 813 1231 1200 2838 
L 1381 2706 
L 875 338 
L 663 -738 
z
M 1006 2856 
L 731 2550 
L 75 3400 
L 350 3713 
L 1006 2856 
z
M 1088 3913 
Q 781 4388 425 4800 
L 694 5125 
Q 1069 4688 1388 4188 
L 1088 3913 
z
" transform="scale(0.015625)"/>
      <path id="WenQuanYiZenHei-20" transform="scale(0.015625)"/>
      <path id="WenQuanYiZenHei-56db" d="M 781 4781 
L 5775 4781 
L 5775 -763 
L 5325 -763 
L 5325 -31 
L 1244 -31 
Q 1244 -406 1263 -775 
Q 1013 -750 769 -775 
Q 788 -319 788 138 
L 781 4781 
z
M 3506 4419 
L 2756 4419 
L 2756 2556 
Q 2756 1950 2359 1465 
Q 1963 981 1381 800 
Q 1344 963 1238 1094 
L 1238 325 
L 5325 325 
L 5325 1244 
L 4169 1244 
Q 3894 1244 3700 1437 
Q 3506 1631 3506 1913 
L 3506 4419 
z
M 3956 4419 
L 3956 1913 
Q 3956 1788 4015 1694 
Q 4075 1600 4175 1600 
L 5325 1600 
L 5325 4419 
L 3956 4419 
z
M 2306 4419 
L 1231 4419 
L 1238 1256 
Q 1694 1369 2000 1731 
Q 2306 2094 2306 2556 
L 2306 4419 
z
" transform="scale(0.015625)"/>
      <path id="WenQuanYiZenHei-5ddd" d="M 5538 -625 
Q 5281 -600 5019 -625 
Q 5044 -144 5044 331 
L 5044 4300 
Q 5044 4781 5019 5256 
Q 5281 5231 5538 5256 
Q 5519 4781 5519 4300 
L 5519 331 
Q 5519 -144 5538 -625 
z
M 3738 338 
Q 3481 363 3219 338 
Q 3244 819 3244 1300 
L 3244 3819 
Q 3244 4300 3219 4775 
Q 3481 4750 3738 4775 
Q 3719 4300 3719 3819 
L 3719 1300 
Q 3719 819 3738 338 
z
M 1456 1275 
L 1456 4281 
Q 1456 4763 1438 5244 
Q 1694 5219 1956 5244 
Q 1931 4763 1931 4281 
L 1931 1275 
Q 1931 394 1406 -231 
Q 1063 -638 563 -831 
Q 481 -550 225 -406 
Q 725 -300 1056 88 
Q 1456 563 1456 1275 
z
" transform="scale(0.015625)"/>
     </defs>
     <use xlink:href="#WenQuanYiZenHei-7d2f"/>
     <use xlink:href="#WenQuanYiZenHei-8ba1" x="100"/>
     <use xlink:href="#WenQuanYiZenHei-786e" x="200"/>
     <use xlink:href="#WenQuanYiZenHei-8bca" x="300"/>
     <use xlink:href="#WenQuanYiZenHei-9884" x="400"/>
     <use xlink:href="#WenQuanYiZenHei-6d4b" x="500"/>
     <use xlink:href="#WenQuanYiZenHei-20" x="600"/>
     <use xlink:href="#WenQuanYiZenHei-2d" x="629.980469"/>
     <use xlink:href="#WenQuanYiZenHei-20" x="659.960938"/>
     <use xlink:href="#WenQuanYiZenHei-56db" x="689.941406"/>
     <use xlink:href="#WenQuanYiZenHei-5ddd" x="789.941406"/>
    </g>
    <!-- ARIMA (0, 2, 1)x(1, 0, 1, 7) (R2 = 0.999411) -->
    <g transform="translate(589.179688 28.980375)scale(0.12 -0.12)">
     <defs>
      <path id="WenQuanYiZenHei-41" d="M 3550 0 
L 2988 0 
L 2550 1281 
L 919 1281 
L 531 0 
L 69 0 
L 1494 4388 
L 2125 4388 
L 3550 0 
z
M 2425 1694 
L 1756 3800 
L 1075 1694 
L 2425 1694 
z
" transform="scale(0.015625)"/>
      <path id="WenQuanYiZenHei-52" d="M 3675 0 
L 3100 0 
L 2288 1900 
L 1069 1900 
L 1069 0 
L 519 0 
L 519 4388 
L 2163 4388 
Q 3006 4388 3400 3900 
Q 3581 3663 3625 3325 
Q 3631 3250 3631 3163 
Q 3631 2594 3219 2244 
Q 3038 2100 2813 2038 
L 3675 0 
z
M 3081 3169 
Q 3081 3825 2356 3906 
Q 2263 3919 2163 3919 
L 1069 3919 
L 1069 2350 
L 2100 2350 
Q 2906 2350 3044 2919 
Q 3081 3031 3081 3169 
z
" transform="scale(0.015625)"/>
      <path id="WenQuanYiZenHei-49" d="M 1100 0 
L 550 0 
L 550 4388 
L 1100 4388 
L 1100 0 
z
" transform="scale(0.015625)"/>
      <path id="WenQuanYiZenHei-4d" d="M 4756 0 
L 4206 0 
L 4206 3831 
L 4181 3831 
L 2788 0 
L 2419 0 
L 1000 3831 
L 975 3831 
L 975 0 
L 513 0 
L 513 4388 
L 1331 4388 
L 2656 875 
L 3950 4388 
L 4756 4388 
L 4756 0 
z
" transform="scale(0.015625)"/>
      <path id="WenQuanYiZenHei-28" d="M 1606 -1094 
L 1275 -1094 
Q 475 -100 338 1231 
Q 319 1438 319 1656 
Q 319 3031 1156 4244 
Q 1213 4313 1269 4388 
L 1600 4388 
Q 806 3169 794 1681 
Q 794 188 1606 -1094 
z
" transform="scale(0.015625)"/>
      <path id="WenQuanYiZenHei-2c" d="M 1363 75 
L 881 -825 
L 606 -825 
L 994 0 
L 656 0 
L 656 738 
L 1363 738 
L 1363 75 
z
" transform="scale(0.015625)"/>
      <path id="WenQuanYiZenHei-29" d="M 1600 1656 
Q 1600 306 869 -788 
Q 769 -950 644 -1094 
L 313 -1094 
Q 1125 188 1125 1681 
Q 1125 3169 338 4363 
Q 325 4375 319 4388 
L 650 4388 
Q 1525 3231 1594 1863 
Q 1600 1763 1600 1656 
z
" transform="scale(0.015625)"/>
      <path id="WenQuanYiZenHei-78" d="M 2806 0 
L 2213 0 
L 1394 1319 
L 544 0 
L 50 0 
L 1144 1681 
L 163 3250 
L 744 3250 
L 1431 2138 
L 2144 3250 
L 2631 3250 
L 1681 1794 
L 2806 0 
z
" transform="scale(0.015625)"/>
      <path id="WenQuanYiZenHei-3d" d="M 3569 2256 
L 263 2256 
L 263 2675 
L 3569 2675 
L 3569 2256 
z
M 3569 1019 
L 263 1019 
L 263 1431 
L 3569 1431 
L 3569 1019 
z
" transform="scale(0.015625)"/>
      <path id="WenQuanYiZenHei-2e" d="M 1344 0 
L 631 0 
L 631 725 
L 1344 725 
L 1344 0 
z
" transform="scale(0.015625)"/>
      <path id="WenQuanYiZenHei-39" d="M 3544 2300 
Q 3544 1163 3019 513 
Q 2563 -63 1775 -63 
Q 956 -63 563 488 
Q 463 631 394 813 
L 838 975 
Q 1025 494 1550 388 
Q 1656 369 1775 369 
Q 2594 369 2900 1325 
Q 3044 1769 3038 2313 
L 3025 2313 
Q 2675 1638 1944 1544 
Q 1844 1531 1744 1531 
Q 1050 1531 625 2031 
Q 294 2419 294 2963 
Q 294 3656 813 4094 
Q 1238 4456 1819 4456 
Q 2988 4456 3381 3363 
Q 3544 2900 3544 2300 
z
M 2925 2994 
Q 2925 3563 2469 3844 
Q 2206 4006 1863 4006 
Q 1275 4006 988 3563 
Q 844 3344 825 3056 
Q 819 3006 819 2956 
Q 819 2413 1269 2131 
Q 1538 1963 1875 1963 
Q 2363 1963 2681 2350 
Q 2925 2638 2925 2994 
z
" transform="scale(0.015625)"/>
     </defs>
     <use xlink:href="#WenQuanYiZenHei-41"/>
     <use xlink:href="#WenQuanYiZenHei-52" x="55.957031"/>
     <use xlink:href="#WenQuanYiZenHei-49" x="117.871094"/>
     <use xlink:href="#WenQuanYiZenHei-4d" x="143.847656"/>
     <use xlink:href="#WenQuanYiZenHei-41" x="225.78125"/>
     <use xlink:href="#WenQuanYiZenHei-20" x="281.738281"/>
     <use xlink:href="#WenQuanYiZenHei-28" x="311.71875"/>
     <use xlink:href="#WenQuanYiZenHei-30" x="341.699219"/>
     <use xlink:href="#WenQuanYiZenHei-2c" x="401.660156"/>
     <use xlink:href="#WenQuanYiZenHei-20" x="431.640625"/>
     <use xlink:href="#WenQuanYiZenHei-32" x="461.621094"/>
     <use xlink:href="#WenQuanYiZenHei-2c" x="521.582031"/>
     <use xlink:href="#WenQuanYiZenHei-20" x="551.5625"/>
     <use xlink:href="#WenQuanYiZenHei-31" x="581.542969"/>
     <use xlink:href="#WenQuanYiZenHei-29" x="641.503906"/>
     <use xlink:href="#WenQuanYiZenHei-78" x="671.484375"/>
     <use xlink:href="#WenQuanYiZenHei-28" x="715.429688"/>
     <use xlink:href="#WenQuanYiZenHei-31" x="745.410156"/>
     <use xlink:href="#WenQuanYiZenHei-2c" x="805.371094"/>
     <use xlink:href="#WenQuanYiZenHei-20" x="835.351562"/>
     <use xlink:href="#WenQuanYiZenHei-30" x="865.332031"/>
     <use xlink:href="#WenQuanYiZenHei-2c" x="925.292969"/>
     <use xlink:href="#WenQuanYiZenHei-20" x="955.273438"/>
     <use xlink:href="#WenQuanYiZenHei-31" x="985.253906"/>
     <use xlink:href="#WenQuanYiZenHei-2c" x="1045.214844"/>
     <use xlink:href="#WenQuanYiZenHei-20" x="1075.195312"/>
     <use xlink:href="#WenQuanYiZenHei-37" x="1105.175781"/>
     <use xlink:href="#WenQuanYiZenHei-29" x="1165.136719"/>
     <use xlink:href="#WenQuanYiZenHei-20" x="1195.117188"/>
     <use xlink:href="#WenQuanYiZenHei-28" x="1225.097656"/>
     <use xlink:href="#WenQuanYiZenHei-52" x="1255.078125"/>
     <use xlink:href="#WenQuanYiZenHei-32" x="1316.992188"/>
     <use xlink:href="#WenQuanYiZenHei-20" x="1376.953125"/>
     <use xlink:href="#WenQuanYiZenHei-3d" x="1406.933594"/>
     <use xlink:href="#WenQuanYiZenHei-20" x="1466.894531"/>
     <use xlink:href="#WenQuanYiZenHei-30" x="1496.875"/>
     <use xlink:href="#WenQuanYiZenHei-2e" x="1556.835938"/>
     <use xlink:href="#WenQuanYiZenHei-39" x="1586.816406"/>
     <use xlink:href="#WenQuanYiZenHei-39" x="1646.777344"/>
     <use xlink:href="#WenQuanYiZenHei-39" x="1706.738281"/>
     <use xlink:href="#WenQuanYiZenHei-34" x="1766.699219"/>
     <use xlink:href="#WenQuanYiZenHei-31" x="1826.660156"/>
     <use xlink:href="#WenQuanYiZenHei-31" x="1886.621094"/>
     <use xlink:href="#WenQuanYiZenHei-29" x="1946.582031"/>
    </g>
   </g>
   <g id="legend_1">
    <g id="patch_7">
     <path d="M 45.1875 86.975687 
L 107.1875 86.975687 
Q 109.1875 86.975687 109.1875 84.975687 
L 109.1875 41.980375 
Q 109.1875 39.980375 107.1875 39.980375 
L 45.1875 39.980375 
Q 43.1875 39.980375 43.1875 41.980375 
L 43.1875 84.975687 
Q 43.1875 86.975687 45.1875 86.975687 
z
" style="fill: #ffffff; opacity: 0.8; stroke: #cccccc; stroke-linejoin: miter"/>
    </g>
    <g id="line2d_21">
     <path d="M 47.1875 48.61475 
L 57.1875 48.61475 
L 67.1875 48.61475 
" style="fill: none; stroke: #0000ff; stroke-width: 1.5; stroke-linecap: square"/>
    </g>
    <g id="text_19">
     <!-- 实际值 -->
     <g transform="translate(75.1875 52.11475)scale(0.1 -0.1)">
      <defs>
       <path id="WenQuanYiZenHei-5b9e" d="M 1025 1175 
Q 694 1175 356 1163 
Q 375 1344 356 1525 
Q 694 1506 1025 1506 
L 3363 1506 
L 3363 2625 
Q 3363 3075 3338 3519 
Q 3581 3494 3825 3519 
Q 3800 3075 3800 2625 
L 3800 1506 
L 5406 1506 
Q 5744 1506 6075 1525 
Q 6056 1344 6075 1163 
Q 5744 1175 5406 1175 
L 4038 1175 
L 4981 456 
L 6131 -488 
L 5819 -856 
L 4681 75 
L 3638 875 
Q 3313 231 2475 -231 
Q 1638 -694 700 -825 
Q 638 -519 344 -400 
Q 1450 -319 2406 244 
Q 3113 656 3300 1175 
L 1025 1175 
z
M 2263 1581 
Q 1763 2081 1200 2513 
L 1494 2894 
Q 2081 2444 2600 1919 
L 2263 1581 
z
M 2638 2500 
Q 2219 2963 1731 3363 
L 2044 3738 
Q 2556 3313 3000 2819 
L 2638 2500 
z
M 919 3156 
L 481 3156 
L 481 4344 
L 3069 4344 
Q 2794 4731 2469 5081 
L 2825 5413 
Q 3256 4944 3613 4413 
L 3513 4344 
L 5869 4344 
L 5869 3156 
L 5425 3156 
L 5425 4013 
L 919 4013 
L 919 3156 
z
" transform="scale(0.015625)"/>
       <path id="WenQuanYiZenHei-9645" d="M 6000 431 
L 5569 194 
L 4963 1219 
L 4313 2219 
L 4719 2494 
L 5375 1481 
L 6000 431 
z
M 2956 2450 
Q 3181 2344 3419 2294 
Q 3006 1038 1944 -188 
Q 1794 -6 1569 56 
Q 2069 600 2372 1156 
Q 2675 1713 2956 2450 
z
M 3750 25 
L 3750 2913 
L 2819 2913 
Q 2475 2913 2125 2894 
Q 2144 3081 2125 3269 
Q 2475 3256 2819 3256 
L 5469 3256 
Q 5819 3256 6163 3269 
Q 6144 3081 6163 2894 
Q 5813 2913 5469 2913 
L 4194 2913 
L 4194 -144 
Q 4194 -725 3456 -813 
L 3263 -825 
Q 3325 -506 3125 -250 
Q 3250 -281 3394 -306 
Q 3663 -313 3706 -272 
Q 3750 -231 3750 25 
z
M 5544 4950 
Q 5525 4756 5544 4569 
Q 5194 4588 4844 4588 
L 3325 4588 
Q 2975 4588 2625 4569 
Q 2644 4756 2625 4950 
Q 2975 4931 3325 4931 
L 4844 4931 
Q 5194 4931 5544 4950 
z
M 819 -850 
Q 581 -825 344 -850 
Q 369 -419 369 19 
L 363 4938 
L 2256 4938 
L 2256 4625 
Q 2150 4513 2075 4375 
L 1481 3238 
Q 2181 2319 2181 1156 
Q 2144 400 1569 163 
L 1406 88 
Q 1288 300 1138 481 
Q 1294 538 1450 606 
Q 1763 744 1794 1156 
Q 1794 1744 1600 2300 
Q 1406 2856 1038 3313 
L 1725 4625 
L 788 4625 
L 794 19 
Q 794 -419 819 -850 
z
" transform="scale(0.015625)"/>
       <path id="WenQuanYiZenHei-503c" d="M 6175 -219 
Q 6156 -388 6175 -556 
Q 5863 -544 5550 -544 
L 2313 -544 
Q 2000 -544 1688 -556 
Q 1706 -388 1688 -219 
L 2506 -231 
L 2506 3469 
L 3644 3469 
L 3644 4119 
L 2638 4119 
Q 2325 4119 2013 4100 
Q 2031 4269 2013 4438 
Q 2325 4425 2638 4425 
L 3638 4425 
Q 3638 4719 3619 5013 
Q 3856 4988 4094 5013 
Q 4075 4719 4075 4425 
L 5344 4425 
Q 5650 4425 5963 4438 
Q 5950 4269 5963 4100 
Q 5656 4119 5344 4119 
L 4069 4119 
L 4069 3469 
L 5300 3469 
L 5300 -231 
L 5550 -231 
Q 5863 -231 6175 -219 
z
M 4869 2556 
L 4869 3156 
L 2931 3156 
Q 2931 2850 2931 2556 
L 4869 2556 
z
M 4869 1669 
L 4869 2250 
L 2931 2250 
L 2931 1669 
L 4869 1669 
z
M 4869 731 
L 4869 1363 
L 2931 1363 
L 2931 731 
L 4869 731 
z
M 4869 -231 
L 4869 425 
L 2931 425 
L 2931 -231 
L 4869 -231 
z
M 2106 4925 
Q 1856 4075 1463 3338 
L 1463 31 
Q 1463 -413 1481 -850 
Q 1256 -825 1031 -850 
Q 1050 -413 1050 31 
L 1050 2681 
Q 750 2269 375 1931 
Q 238 2156 0 2256 
Q 331 2544 619 2875 
Q 1094 3425 1300 3950 
Q 1494 4469 1625 5050 
Q 1850 4963 2106 4925 
z
" transform="scale(0.015625)"/>
      </defs>
      <use xlink:href="#WenQuanYiZenHei-5b9e"/>
      <use xlink:href="#WenQuanYiZenHei-9645" x="100"/>
      <use xlink:href="#WenQuanYiZenHei-503c" x="200"/>
     </g>
    </g>
    <g id="line2d_22">
     <path d="M 47.1875 63.292875 
L 57.1875 63.292875 
L 67.1875 63.292875 
" style="fill: none; stroke: #ffa500; stroke-width: 1.5; stroke-linecap: square"/>
    </g>
    <g id="text_20">
     <!-- 校验值 -->
     <g transform="translate(75.1875 66.792875)scale(0.1 -0.1)">
      <defs>
       <path id="WenQuanYiZenHei-6821" d="M 5256 2463 
Q 5025 1475 4494 706 
Q 5125 -94 6175 -544 
Q 5950 -663 5850 -900 
Q 4906 -494 4250 381 
Q 3931 0 3475 -350 
Q 3019 -700 2388 -919 
Q 2338 -656 2138 -475 
Q 3306 -69 4006 738 
Q 3563 1444 3300 2331 
Q 3050 2050 2706 1800 
Q 2606 2000 2406 2106 
Q 2900 2444 3181 2938 
Q 3350 3225 3488 3538 
Q 3700 3431 3925 3369 
Q 3763 2894 3425 2475 
L 3650 2531 
Q 3888 1675 4244 1075 
Q 4469 1444 4603 1937 
Q 4738 2431 4775 2688 
Q 4963 2644 5150 2625 
Q 4919 2969 4663 3294 
L 5038 3588 
Q 5544 2925 5975 2213 
L 5569 1969 
L 5256 2463 
z
M 6006 4050 
Q 5988 3881 6006 3713 
Q 5694 3725 5381 3725 
L 3413 3725 
Q 3100 3725 2788 3713 
Q 2806 3881 2788 4050 
Q 3100 4031 3413 4031 
L 4325 4031 
Q 4019 4525 3644 4969 
L 4000 5275 
Q 4413 4788 4750 4244 
L 4406 4031 
L 5381 4031 
Q 5694 4031 6006 4050 
z
M 406 263 
Q 238 431 -25 469 
Q 194 825 466 1337 
Q 738 1850 925 2406 
Q 1113 2963 1256 3519 
L 825 3519 
Q 506 3519 188 3500 
Q 206 3700 188 3900 
Q 506 3881 825 3881 
L 1363 3881 
L 1363 4263 
Q 1363 4719 1338 5175 
Q 1556 5150 1775 5175 
Q 1756 4719 1756 4263 
L 1756 3881 
L 2525 3900 
Q 2506 3700 2525 3500 
L 1756 3519 
L 1756 2738 
L 1931 2881 
Q 2306 2300 2613 1650 
L 2231 1413 
Q 2081 1725 1919 2019 
L 1756 2300 
L 1756 69 
Q 1756 -388 1775 -850 
Q 1556 -825 1338 -850 
Q 1363 -388 1363 69 
L 1363 2438 
Q 925 1144 406 263 
z
" transform="scale(0.015625)"/>
       <path id="WenQuanYiZenHei-9a8c" d="M 5981 -106 
Q 5963 -275 5981 -444 
Q 5669 -431 5356 -431 
L 2969 -431 
Q 2656 -431 2350 -444 
Q 2363 -275 2350 -106 
Q 2656 -125 2969 -125 
L 4369 -125 
Q 4600 431 4881 1288 
L 5206 2300 
Q 5425 2206 5663 2163 
Q 5375 1188 4831 -125 
L 5356 -125 
Q 5669 -125 5981 -106 
z
M 4063 594 
Q 3788 1425 3425 2219 
L 3856 2419 
Q 4225 1600 4513 744 
L 4063 594 
z
M 3163 363 
Q 2931 1200 2613 2006 
L 3056 2175 
Q 3381 1350 3619 488 
L 3163 363 
z
M 4581 2550 
L 3513 2550 
Q 3200 2550 2888 2538 
Q 2900 2663 2894 2769 
Q 2569 2488 2206 2300 
Q 2113 2550 1894 2700 
Q 2488 2975 2975 3463 
Q 3269 3756 3394 4006 
Q 3644 4513 3794 5063 
Q 4038 4975 4294 4931 
Q 4250 4806 4206 4681 
Q 4475 3888 5025 3388 
Q 5519 2938 6169 2650 
Q 5938 2538 5838 2300 
Q 5513 2456 5200 2700 
Q 5200 2619 5206 2538 
Q 4894 2550 4581 2550 
z
M 3513 2863 
L 4994 2869 
Q 4344 3438 3988 4194 
Q 3594 3406 3013 2869 
Q 3263 2863 3513 2863 
z
M 206 444 
Q 188 756 44 963 
Q 319 956 650 1003 
Q 981 1050 1731 1281 
L 1738 1006 
Q 800 719 206 444 
z
M 525 4000 
Q 744 3950 994 3944 
Q 925 3519 875 3081 
L 763 2144 
L 1475 2144 
L 1831 4444 
L 663 4444 
Q 350 4444 38 4431 
Q 56 4600 38 4769 
Q 350 4756 663 4756 
L 2313 4756 
L 1913 2144 
L 2375 2144 
L 2200 -200 
Q 2188 -425 1988 -588 
Q 1694 -800 1181 -788 
L 944 -788 
Q 1000 -450 788 -269 
Q 1013 -294 1334 -287 
Q 1656 -281 1715 -243 
Q 1775 -206 1781 -50 
L 1925 1831 
L 294 1831 
L 444 3131 
Q 500 3569 525 4000 
z
" transform="scale(0.015625)"/>
      </defs>
      <use xlink:href="#WenQuanYiZenHei-6821"/>
      <use xlink:href="#WenQuanYiZenHei-9a8c" x="100"/>
      <use xlink:href="#WenQuanYiZenHei-503c" x="200"/>
     </g>
    </g>
    <g id="line2d_23">
     <path d="M 47.1875 77.81475 
L 57.1875 77.81475 
L 67.1875 77.81475 
" style="fill: none; stroke: #ff0000; stroke-width: 1.5; stroke-linecap: square"/>
    </g>
    <g id="text_21">
     <!-- 预测值 -->
     <g transform="translate(75.1875 81.31475)scale(0.1 -0.1)">
      <use xlink:href="#WenQuanYiZenHei-9884"/>
      <use xlink:href="#WenQuanYiZenHei-6d4b" x="100"/>
      <use xlink:href="#WenQuanYiZenHei-503c" x="200"/>
     </g>
    </g>
   </g>
  </g>
 </g>
 <defs>
  <clipPath id="pe9ead1fddf">
   <rect x="38.1875" y="34.980375" width="1339.2" height="332.64"/>
  </clipPath>
 </defs>
</svg>
