<?xml version="1.0" encoding="utf-8" standalone="no"?>
<!DOCTYPE svg PUBLIC "-//W3C//DTD SVG 1.1//EN"
  "http://www.w3.org/Graphics/SVG/1.1/DTD/svg11.dtd">
<svg xmlns:xlink="http://www.w3.org/1999/xlink" width="1372.59375pt" height="390.418188pt" viewBox="0 0 1372.59375 390.418188" xmlns="http://www.w3.org/2000/svg" version="1.1">
 <metadata>
  <rdf:RDF xmlns:dc="http://purl.org/dc/elements/1.1/" xmlns:cc="http://creativecommons.org/ns#" xmlns:rdf="http://www.w3.org/1999/02/22-rdf-syntax-ns#">
   <cc:Work>
    <dc:type rdf:resource="http://purl.org/dc/dcmitype/StillImage"/>
    <dc:date>2022-07-16T18:18:36.589293</dc:date>
    <dc:format>image/svg+xml</dc:format>
    <dc:creator>
     <cc:Agent>
      <dc:title>Matplotlib v3.5.2, https://matplotlib.org/</dc:title>
     </cc:Agent>
    </dc:creator>
   </cc:Work>
  </rdf:RDF>
 </metadata>
 <defs>
  <style type="text/css">*{stroke-linejoin: round; stroke-linecap: butt}</style>
 </defs>
 <g id="figure_1">
  <g id="patch_1">
   <path d="M 0 390.418188 
L 1372.59375 390.418188 
L 1372.59375 -0 
L 0 -0 
z
" style="fill: #ffffff"/>
  </g>
  <g id="axes_1">
   <g id="patch_2">
    <path d="M 26.19375 367.701 
L 1365.39375 367.701 
L 1365.39375 35.061 
L 26.19375 35.061 
z
" style="fill: #ffffff"/>
   </g>
   <g id="matplotlib.axis_1">
    <g id="xtick_1">
     <g id="line2d_1">
      <defs>
       <path id="m202ad82a7e" d="M 0 0 
L 0 3.5 
" style="stroke: #000000; stroke-width: 0.8"/>
      </defs>
      <g>
       <use xlink:href="#m202ad82a7e" x="57.858189" y="367.701" style="stroke: #000000; stroke-width: 0.8"/>
      </g>
     </g>
     <g id="text_1">
      <!-- 2020-01 -->
      <g transform="translate(38.368346 381.55725)scale(0.1 -0.1)">
       <defs>
        <path id="WenQuanYiZenHei-32" d="M 3488 0 
L 369 0 
L 369 456 
L 2150 1850 
Q 2931 2463 2931 3144 
Q 2931 3619 2488 3863 
Q 2231 4013 1931 4013 
Q 1425 4013 1113 3619 
Q 894 3356 881 3013 
L 369 3169 
Q 531 3981 1213 4300 
Q 1544 4456 1950 4456 
Q 2631 4456 3088 4044 
L 3225 3888 
L 3350 3706 
Q 3481 3444 3481 3144 
Q 3481 2313 2519 1569 
L 1069 456 
L 3488 456 
L 3488 0 
z
" transform="scale(0.015625)"/>
        <path id="WenQuanYiZenHei-30" d="M 3581 2175 
Q 3581 1288 3169 638 
Q 2713 -63 1938 -63 
Q 1025 -63 563 831 
Q 256 1425 256 2188 
Q 256 3188 700 3819 
Q 1138 4456 1888 4456 
Q 2863 4456 3306 3500 
Q 3581 2925 3581 2175 
z
M 3019 2100 
Q 3019 3356 2500 3806 
L 2350 3919 
Q 2144 4031 1888 4031 
Q 1100 4031 888 2956 
Q 819 2625 819 2225 
Q 819 1013 1338 569 
Q 1588 356 1938 356 
Q 2675 356 2925 1294 
Q 3019 1663 3019 2100 
z
" transform="scale(0.015625)"/>
        <path id="WenQuanYiZenHei-2d" d="M 1363 1444 
L 0 1444 
L 0 1844 
L 1363 1844 
L 1363 1444 
z
" transform="scale(0.015625)"/>
        <path id="WenQuanYiZenHei-31" d="M 3556 0 
L 488 0 
L 488 406 
L 1800 406 
L 1800 3725 
Q 1231 3125 588 2788 
L 588 3338 
Q 1456 3781 1931 4388 
L 2331 4388 
L 2331 406 
L 3556 406 
L 3556 0 
z
" transform="scale(0.015625)"/>
       </defs>
       <use xlink:href="#WenQuanYiZenHei-32"/>
       <use xlink:href="#WenQuanYiZenHei-30" x="59.960938"/>
       <use xlink:href="#WenQuanYiZenHei-32" x="119.921875"/>
       <use xlink:href="#WenQuanYiZenHei-30" x="179.882812"/>
       <use xlink:href="#WenQuanYiZenHei-2d" x="239.84375"/>
       <use xlink:href="#WenQuanYiZenHei-30" x="269.824219"/>
       <use xlink:href="#WenQuanYiZenHei-31" x="329.785156"/>
      </g>
     </g>
    </g>
    <g id="xtick_2">
     <g id="line2d_2">
      <g>
       <use xlink:href="#m202ad82a7e" x="178.674289" y="367.701" style="stroke: #000000; stroke-width: 0.8"/>
      </g>
     </g>
     <g id="text_2">
      <!-- 2020-04 -->
      <g transform="translate(159.184446 381.55725)scale(0.1 -0.1)">
       <defs>
        <path id="WenQuanYiZenHei-34" d="M 3631 1025 
L 2913 1025 
L 2913 0 
L 2381 0 
L 2381 1025 
L 219 1025 
L 219 1388 
L 2225 4388 
L 2913 4388 
L 2913 1444 
L 3631 1444 
L 3631 1025 
z
M 2381 1444 
L 2381 3963 
L 788 1444 
L 2381 1444 
z
" transform="scale(0.015625)"/>
       </defs>
       <use xlink:href="#WenQuanYiZenHei-32"/>
       <use xlink:href="#WenQuanYiZenHei-30" x="59.960938"/>
       <use xlink:href="#WenQuanYiZenHei-32" x="119.921875"/>
       <use xlink:href="#WenQuanYiZenHei-30" x="179.882812"/>
       <use xlink:href="#WenQuanYiZenHei-2d" x="239.84375"/>
       <use xlink:href="#WenQuanYiZenHei-30" x="269.824219"/>
       <use xlink:href="#WenQuanYiZenHei-34" x="329.785156"/>
      </g>
     </g>
    </g>
    <g id="xtick_3">
     <g id="line2d_3">
      <g>
       <use xlink:href="#m202ad82a7e" x="299.490389" y="367.701" style="stroke: #000000; stroke-width: 0.8"/>
      </g>
     </g>
     <g id="text_3">
      <!-- 2020-07 -->
      <g transform="translate(280.000545 381.55725)scale(0.1 -0.1)">
       <defs>
        <path id="WenQuanYiZenHei-37" d="M 3400 4056 
Q 1838 2175 1838 0 
L 1275 0 
Q 1269 1438 2056 2825 
Q 2381 3400 2825 3913 
L 444 3913 
L 500 4388 
L 3400 4388 
L 3400 4056 
z
" transform="scale(0.015625)"/>
       </defs>
       <use xlink:href="#WenQuanYiZenHei-32"/>
       <use xlink:href="#WenQuanYiZenHei-30" x="59.960938"/>
       <use xlink:href="#WenQuanYiZenHei-32" x="119.921875"/>
       <use xlink:href="#WenQuanYiZenHei-30" x="179.882812"/>
       <use xlink:href="#WenQuanYiZenHei-2d" x="239.84375"/>
       <use xlink:href="#WenQuanYiZenHei-30" x="269.824219"/>
       <use xlink:href="#WenQuanYiZenHei-37" x="329.785156"/>
      </g>
     </g>
    </g>
    <g id="xtick_4">
     <g id="line2d_4">
      <g>
       <use xlink:href="#m202ad82a7e" x="421.634139" y="367.701" style="stroke: #000000; stroke-width: 0.8"/>
      </g>
     </g>
     <g id="text_4">
      <!-- 2020-10 -->
      <g transform="translate(402.144295 381.55725)scale(0.1 -0.1)">
       <use xlink:href="#WenQuanYiZenHei-32"/>
       <use xlink:href="#WenQuanYiZenHei-30" x="59.960938"/>
       <use xlink:href="#WenQuanYiZenHei-32" x="119.921875"/>
       <use xlink:href="#WenQuanYiZenHei-30" x="179.882812"/>
       <use xlink:href="#WenQuanYiZenHei-2d" x="239.84375"/>
       <use xlink:href="#WenQuanYiZenHei-31" x="269.824219"/>
       <use xlink:href="#WenQuanYiZenHei-30" x="329.785156"/>
      </g>
     </g>
    </g>
    <g id="xtick_5">
     <g id="line2d_5">
      <g>
       <use xlink:href="#m202ad82a7e" x="543.777888" y="367.701" style="stroke: #000000; stroke-width: 0.8"/>
      </g>
     </g>
     <g id="text_5">
      <!-- 2021-01 -->
      <g transform="translate(524.288044 381.55725)scale(0.1 -0.1)">
       <use xlink:href="#WenQuanYiZenHei-32"/>
       <use xlink:href="#WenQuanYiZenHei-30" x="59.960938"/>
       <use xlink:href="#WenQuanYiZenHei-32" x="119.921875"/>
       <use xlink:href="#WenQuanYiZenHei-31" x="179.882812"/>
       <use xlink:href="#WenQuanYiZenHei-2d" x="239.84375"/>
       <use xlink:href="#WenQuanYiZenHei-30" x="269.824219"/>
       <use xlink:href="#WenQuanYiZenHei-31" x="329.785156"/>
      </g>
     </g>
    </g>
    <g id="xtick_6">
     <g id="line2d_6">
      <g>
       <use xlink:href="#m202ad82a7e" x="663.266338" y="367.701" style="stroke: #000000; stroke-width: 0.8"/>
      </g>
     </g>
     <g id="text_6">
      <!-- 2021-04 -->
      <g transform="translate(643.776495 381.55725)scale(0.1 -0.1)">
       <use xlink:href="#WenQuanYiZenHei-32"/>
       <use xlink:href="#WenQuanYiZenHei-30" x="59.960938"/>
       <use xlink:href="#WenQuanYiZenHei-32" x="119.921875"/>
       <use xlink:href="#WenQuanYiZenHei-31" x="179.882812"/>
       <use xlink:href="#WenQuanYiZenHei-2d" x="239.84375"/>
       <use xlink:href="#WenQuanYiZenHei-30" x="269.824219"/>
       <use xlink:href="#WenQuanYiZenHei-34" x="329.785156"/>
      </g>
     </g>
    </g>
    <g id="xtick_7">
     <g id="line2d_7">
      <g>
       <use xlink:href="#m202ad82a7e" x="784.082438" y="367.701" style="stroke: #000000; stroke-width: 0.8"/>
      </g>
     </g>
     <g id="text_7">
      <!-- 2021-07 -->
      <g transform="translate(764.592595 381.55725)scale(0.1 -0.1)">
       <use xlink:href="#WenQuanYiZenHei-32"/>
       <use xlink:href="#WenQuanYiZenHei-30" x="59.960938"/>
       <use xlink:href="#WenQuanYiZenHei-32" x="119.921875"/>
       <use xlink:href="#WenQuanYiZenHei-31" x="179.882812"/>
       <use xlink:href="#WenQuanYiZenHei-2d" x="239.84375"/>
       <use xlink:href="#WenQuanYiZenHei-30" x="269.824219"/>
       <use xlink:href="#WenQuanYiZenHei-37" x="329.785156"/>
      </g>
     </g>
    </g>
    <g id="xtick_8">
     <g id="line2d_8">
      <g>
       <use xlink:href="#m202ad82a7e" x="906.226188" y="367.701" style="stroke: #000000; stroke-width: 0.8"/>
      </g>
     </g>
     <g id="text_8">
      <!-- 2021-10 -->
      <g transform="translate(886.736344 381.55725)scale(0.1 -0.1)">
       <use xlink:href="#WenQuanYiZenHei-32"/>
       <use xlink:href="#WenQuanYiZenHei-30" x="59.960938"/>
       <use xlink:href="#WenQuanYiZenHei-32" x="119.921875"/>
       <use xlink:href="#WenQuanYiZenHei-31" x="179.882812"/>
       <use xlink:href="#WenQuanYiZenHei-2d" x="239.84375"/>
       <use xlink:href="#WenQuanYiZenHei-31" x="269.824219"/>
       <use xlink:href="#WenQuanYiZenHei-30" x="329.785156"/>
      </g>
     </g>
    </g>
    <g id="xtick_9">
     <g id="line2d_9">
      <g>
       <use xlink:href="#m202ad82a7e" x="1028.369937" y="367.701" style="stroke: #000000; stroke-width: 0.8"/>
      </g>
     </g>
     <g id="text_9">
      <!-- 2022-01 -->
      <g transform="translate(1008.880093 381.55725)scale(0.1 -0.1)">
       <use xlink:href="#WenQuanYiZenHei-32"/>
       <use xlink:href="#WenQuanYiZenHei-30" x="59.960938"/>
       <use xlink:href="#WenQuanYiZenHei-32" x="119.921875"/>
       <use xlink:href="#WenQuanYiZenHei-32" x="179.882812"/>
       <use xlink:href="#WenQuanYiZenHei-2d" x="239.84375"/>
       <use xlink:href="#WenQuanYiZenHei-30" x="269.824219"/>
       <use xlink:href="#WenQuanYiZenHei-31" x="329.785156"/>
      </g>
     </g>
    </g>
    <g id="xtick_10">
     <g id="line2d_10">
      <g>
       <use xlink:href="#m202ad82a7e" x="1147.858388" y="367.701" style="stroke: #000000; stroke-width: 0.8"/>
      </g>
     </g>
     <g id="text_10">
      <!-- 2022-04 -->
      <g transform="translate(1128.368544 381.55725)scale(0.1 -0.1)">
       <use xlink:href="#WenQuanYiZenHei-32"/>
       <use xlink:href="#WenQuanYiZenHei-30" x="59.960938"/>
       <use xlink:href="#WenQuanYiZenHei-32" x="119.921875"/>
       <use xlink:href="#WenQuanYiZenHei-32" x="179.882812"/>
       <use xlink:href="#WenQuanYiZenHei-2d" x="239.84375"/>
       <use xlink:href="#WenQuanYiZenHei-30" x="269.824219"/>
       <use xlink:href="#WenQuanYiZenHei-34" x="329.785156"/>
      </g>
     </g>
    </g>
    <g id="xtick_11">
     <g id="line2d_11">
      <g>
       <use xlink:href="#m202ad82a7e" x="1268.674488" y="367.701" style="stroke: #000000; stroke-width: 0.8"/>
      </g>
     </g>
     <g id="text_11">
      <!-- 2022-07 -->
      <g transform="translate(1249.184644 381.55725)scale(0.1 -0.1)">
       <use xlink:href="#WenQuanYiZenHei-32"/>
       <use xlink:href="#WenQuanYiZenHei-30" x="59.960938"/>
       <use xlink:href="#WenQuanYiZenHei-32" x="119.921875"/>
       <use xlink:href="#WenQuanYiZenHei-32" x="179.882812"/>
       <use xlink:href="#WenQuanYiZenHei-2d" x="239.84375"/>
       <use xlink:href="#WenQuanYiZenHei-30" x="269.824219"/>
       <use xlink:href="#WenQuanYiZenHei-37" x="329.785156"/>
      </g>
     </g>
    </g>
   </g>
   <g id="matplotlib.axis_2">
    <g id="ytick_1">
     <g id="line2d_12">
      <defs>
       <path id="mb9dbe08480" d="M 0 0 
L -3.5 0 
" style="stroke: #000000; stroke-width: 0.8"/>
      </defs>
      <g>
       <use xlink:href="#mb9dbe08480" x="26.19375" y="349.898742" style="stroke: #000000; stroke-width: 0.8"/>
      </g>
     </g>
     <g id="text_12">
      <!-- 0 -->
      <g transform="translate(13.196875 353.326867)scale(0.1 -0.1)">
       <use xlink:href="#WenQuanYiZenHei-30"/>
      </g>
     </g>
    </g>
    <g id="ytick_2">
     <g id="line2d_13">
      <g>
       <use xlink:href="#mb9dbe08480" x="26.19375" y="288.731856" style="stroke: #000000; stroke-width: 0.8"/>
      </g>
     </g>
     <g id="text_13">
      <!-- 10 -->
      <g transform="translate(7.2 292.159981)scale(0.1 -0.1)">
       <use xlink:href="#WenQuanYiZenHei-31"/>
       <use xlink:href="#WenQuanYiZenHei-30" x="59.960938"/>
      </g>
     </g>
    </g>
    <g id="ytick_3">
     <g id="line2d_14">
      <g>
       <use xlink:href="#mb9dbe08480" x="26.19375" y="227.56497" style="stroke: #000000; stroke-width: 0.8"/>
      </g>
     </g>
     <g id="text_14">
      <!-- 20 -->
      <g transform="translate(7.2 230.993095)scale(0.1 -0.1)">
       <use xlink:href="#WenQuanYiZenHei-32"/>
       <use xlink:href="#WenQuanYiZenHei-30" x="59.960938"/>
      </g>
     </g>
    </g>
    <g id="ytick_4">
     <g id="line2d_15">
      <g>
       <use xlink:href="#mb9dbe08480" x="26.19375" y="166.398084" style="stroke: #000000; stroke-width: 0.8"/>
      </g>
     </g>
     <g id="text_15">
      <!-- 30 -->
      <g transform="translate(7.2 169.826209)scale(0.1 -0.1)">
       <defs>
        <path id="WenQuanYiZenHei-33" d="M 3588 1231 
Q 3588 494 2875 144 
Q 2450 -63 1925 -63 
Q 1044 -63 556 488 
Q 356 706 256 1000 
L 769 1169 
Q 994 375 1913 375 
Q 2631 375 2900 788 
Q 3019 975 3019 1231 
Q 3019 1638 2638 1881 
Q 2325 2081 1613 2069 
L 1338 2069 
L 1338 2494 
Q 1969 2494 2094 2506 
Q 2325 2544 2463 2613 
Q 2763 2756 2844 3100 
Q 2863 3169 2863 3244 
Q 2863 3744 2381 3944 
L 2163 4006 
Q 2056 4025 1931 4025 
Q 1388 4025 1075 3631 
Q 969 3488 906 3313 
L 419 3456 
Q 675 4150 1400 4369 
Q 1669 4456 1975 4456 
Q 2694 4456 3106 4050 
Q 3419 3744 3419 3275 
Q 3419 2813 3025 2513 
Q 2825 2356 2575 2319 
L 2575 2306 
Q 3181 2213 3450 1769 
Q 3588 1525 3588 1231 
z
" transform="scale(0.015625)"/>
       </defs>
       <use xlink:href="#WenQuanYiZenHei-33"/>
       <use xlink:href="#WenQuanYiZenHei-30" x="59.960938"/>
      </g>
     </g>
    </g>
    <g id="ytick_5">
     <g id="line2d_16">
      <g>
       <use xlink:href="#mb9dbe08480" x="26.19375" y="105.231198" style="stroke: #000000; stroke-width: 0.8"/>
      </g>
     </g>
     <g id="text_16">
      <!-- 40 -->
      <g transform="translate(7.2 108.659323)scale(0.1 -0.1)">
       <use xlink:href="#WenQuanYiZenHei-34"/>
       <use xlink:href="#WenQuanYiZenHei-30" x="59.960938"/>
      </g>
     </g>
    </g>
    <g id="ytick_6">
     <g id="line2d_17">
      <g>
       <use xlink:href="#mb9dbe08480" x="26.19375" y="44.064311" style="stroke: #000000; stroke-width: 0.8"/>
      </g>
     </g>
     <g id="text_17">
      <!-- 50 -->
      <g transform="translate(7.2 47.492436)scale(0.1 -0.1)">
       <defs>
        <path id="WenQuanYiZenHei-35" d="M 3531 1488 
Q 3531 688 2913 250 
Q 2456 -63 1844 -63 
Q 1175 -63 706 350 
Q 413 613 306 975 
L 781 1131 
Q 1000 538 1569 406 
Q 1706 369 1856 369 
Q 2550 369 2850 869 
Q 3000 1131 3000 1494 
Q 3000 2056 2581 2356 
Q 2319 2538 1969 2538 
Q 1400 2538 1031 2075 
Q 981 2013 938 1938 
L 500 2031 
L 644 4388 
L 3244 4388 
L 3200 3919 
L 1044 3919 
L 950 2500 
Q 1431 2975 2006 2975 
Q 2713 2975 3163 2475 
Q 3531 2063 3531 1488 
z
" transform="scale(0.015625)"/>
       </defs>
       <use xlink:href="#WenQuanYiZenHei-35"/>
       <use xlink:href="#WenQuanYiZenHei-30" x="59.960938"/>
      </g>
     </g>
    </g>
   </g>
   <g id="line2d_18">
    <path d="M 87.066477 331.548676 
L 88.394127 307.081922 
L 89.721776 270.38179 
L 91.049426 252.031724 
L 92.377075 196.981527 
L 93.704725 221.448281 
L 95.032374 239.798347 
L 96.360023 141.931329 
L 97.687673 135.814641 
L 99.015322 166.398084 
L 100.342972 203.098215 
L 101.670621 209.214904 
L 102.998271 178.631461 
L 104.32592 233.681658 
L 105.65357 227.56497 
L 106.981219 209.214904 
L 108.308868 227.56497 
L 109.636518 215.331593 
L 110.964167 233.681658 
L 112.291817 276.498479 
L 113.619466 233.681658 
L 114.947116 258.148413 
L 116.274765 276.498479 
L 117.602415 307.081922 
L 118.930064 282.615167 
L 120.257714 264.265101 
L 121.585363 270.38179 
L 122.913012 313.19861 
L 124.240662 313.19861 
L 125.568311 319.315299 
L 126.895961 343.782053 
L 128.22361 349.898742 
L 130.878909 337.665365 
L 132.206559 337.665365 
L 134.861857 325.431988 
L 136.189507 349.898742 
L 141.500105 349.898742 
L 142.827754 343.782053 
L 144.155404 349.898742 
L 157.431898 349.898742 
L 158.759548 343.782053 
L 160.087197 349.898742 
L 161.414846 349.898742 
L 162.742496 343.782053 
L 165.397795 343.782053 
L 166.725444 349.898742 
L 168.053094 337.665365 
L 169.380743 337.665365 
L 170.708393 349.898742 
L 172.036042 343.782053 
L 173.363692 349.898742 
L 174.691341 337.665365 
L 176.01899 349.898742 
L 177.34664 349.898742 
L 178.674289 337.665365 
L 180.001939 337.665365 
L 181.329588 343.782053 
L 182.657238 337.665365 
L 183.984887 343.782053 
L 186.640186 343.782053 
L 187.967835 349.898742 
L 199.916681 349.898742 
L 201.24433 343.782053 
L 202.571979 349.898742 
L 245.056762 349.898742 
L 246.384411 337.665365 
L 247.712061 349.898742 
L 249.03971 343.782053 
L 250.36736 349.898742 
L 257.005607 349.898742 
L 258.333256 282.615167 
L 259.660906 337.665365 
L 260.988555 349.898742 
L 262.316205 349.898742 
L 263.643854 343.782053 
L 264.971504 349.898742 
L 266.299153 349.898742 
L 267.626802 331.548676 
L 268.954452 343.782053 
L 270.282101 349.898742 
L 272.9374 349.898742 
L 274.26505 343.782053 
L 275.592699 349.898742 
L 276.920349 325.431988 
L 278.247998 343.782053 
L 279.575647 343.782053 
L 280.903297 349.898742 
L 294.179791 349.898742 
L 295.507441 331.548676 
L 296.83509 331.548676 
L 298.16274 349.898742 
L 302.145688 349.898742 
L 303.473338 343.782053 
L 304.800987 349.898742 
L 306.128636 349.898742 
L 307.456286 337.665365 
L 310.111585 349.898742 
L 322.06043 349.898742 
L 323.388079 331.548676 
L 324.715729 343.782053 
L 326.043378 349.898742 
L 331.353976 349.898742 
L 332.681625 343.782053 
L 334.009275 349.898742 
L 339.319873 349.898742 
L 340.647522 325.431988 
L 341.975172 349.898742 
L 343.302821 343.782053 
L 344.630471 343.782053 
L 345.95812 349.898742 
L 347.285769 343.782053 
L 348.613419 349.898742 
L 349.941068 349.898742 
L 351.268718 325.431988 
L 352.596367 349.898742 
L 355.251666 337.665365 
L 356.579316 343.782053 
L 357.906965 325.431988 
L 359.234614 343.782053 
L 360.562264 337.665365 
L 361.889913 349.898742 
L 363.217563 349.898742 
L 364.545212 343.782053 
L 365.872862 343.782053 
L 367.200511 349.898742 
L 368.528161 349.898742 
L 369.85581 331.548676 
L 372.511109 319.315299 
L 373.838758 325.431988 
L 375.166408 325.431988 
L 376.494057 337.665365 
L 377.821707 337.665365 
L 379.149356 349.898742 
L 380.477006 349.898742 
L 383.132305 337.665365 
L 385.787603 349.898742 
L 387.115253 349.898742 
L 388.442902 337.665365 
L 389.770552 319.315299 
L 391.098201 343.782053 
L 392.425851 349.898742 
L 393.7535 343.782053 
L 395.08115 349.898742 
L 397.736449 349.898742 
L 399.064098 343.782053 
L 400.391747 325.431988 
L 401.719397 349.898742 
L 403.047046 349.898742 
L 404.374696 337.665365 
L 405.702345 349.898742 
L 408.357644 349.898742 
L 409.685294 331.548676 
L 411.012943 349.898742 
L 412.340592 343.782053 
L 413.668242 294.848545 
L 414.995891 331.548676 
L 416.323541 349.898742 
L 417.65119 331.548676 
L 418.97884 343.782053 
L 420.306489 343.782053 
L 421.634139 331.548676 
L 422.961788 337.665365 
L 424.289438 331.548676 
L 429.600035 331.548676 
L 430.927685 349.898742 
L 432.255334 319.315299 
L 434.910633 343.782053 
L 436.238283 343.782053 
L 437.565932 349.898742 
L 440.221231 349.898742 
L 441.54888 343.782053 
L 442.87653 343.782053 
L 444.204179 349.898742 
L 445.531829 331.548676 
L 446.859478 331.548676 
L 448.187128 337.665365 
L 449.514777 349.898742 
L 452.170076 349.898742 
L 454.825375 337.665365 
L 457.480674 349.898742 
L 460.135973 325.431988 
L 461.463622 343.782053 
L 462.791272 337.665365 
L 464.118921 300.965233 
L 465.44657 331.548676 
L 466.77422 325.431988 
L 468.101869 337.665365 
L 469.429519 325.431988 
L 470.757168 337.665365 
L 472.084818 325.431988 
L 474.740117 337.665365 
L 476.067766 325.431988 
L 477.395416 343.782053 
L 478.723065 349.898742 
L 480.050714 349.898742 
L 482.706013 313.19861 
L 484.033663 349.898742 
L 485.361312 331.548676 
L 486.688962 343.782053 
L 488.016611 349.898742 
L 489.344261 343.782053 
L 490.67191 349.898742 
L 491.999559 331.548676 
L 493.327209 349.898742 
L 494.654858 343.782053 
L 495.982508 349.898742 
L 497.310157 343.782053 
L 498.637807 343.782053 
L 499.965456 331.548676 
L 501.293106 337.665365 
L 502.620755 349.898742 
L 505.276054 349.898742 
L 506.603703 331.548676 
L 507.931353 343.782053 
L 509.259002 349.898742 
L 510.586652 300.965233 
L 511.914301 337.665365 
L 513.241951 349.898742 
L 514.5696 325.431988 
L 515.89725 349.898742 
L 517.224899 331.548676 
L 518.552548 331.548676 
L 519.880198 313.19861 
L 521.207847 349.898742 
L 522.535497 349.898742 
L 523.863146 343.782053 
L 525.190796 349.898742 
L 526.518445 343.782053 
L 527.846095 343.782053 
L 529.173744 337.665365 
L 530.501394 349.898742 
L 531.829043 337.665365 
L 533.156692 343.782053 
L 534.484342 343.782053 
L 535.811991 349.898742 
L 537.139641 343.782053 
L 538.46729 331.548676 
L 539.79494 349.898742 
L 541.122589 337.665365 
L 542.450239 349.898742 
L 545.105537 349.898742 
L 546.433187 331.548676 
L 547.760836 343.782053 
L 549.088486 349.898742 
L 559.709681 349.898742 
L 562.36498 337.665365 
L 563.69263 337.665365 
L 566.347929 349.898742 
L 567.675578 337.665365 
L 569.003228 349.898742 
L 570.330877 349.898742 
L 571.658526 343.782053 
L 572.986176 349.898742 
L 575.641475 349.898742 
L 576.969124 343.782053 
L 578.296774 343.782053 
L 579.624423 349.898742 
L 580.952073 343.782053 
L 582.279722 343.782053 
L 583.607371 349.898742 
L 586.26267 337.665365 
L 587.59032 349.898742 
L 592.900918 349.898742 
L 594.228567 343.782053 
L 595.556217 343.782053 
L 596.883866 349.898742 
L 598.211515 337.665365 
L 599.539165 349.898742 
L 600.866814 343.782053 
L 602.194464 349.898742 
L 603.522113 343.782053 
L 604.849763 343.782053 
L 606.177412 337.665365 
L 607.505062 349.898742 
L 610.16036 337.665365 
L 611.48801 337.665365 
L 612.815659 349.898742 
L 614.143309 337.665365 
L 616.798608 349.898742 
L 618.126257 343.782053 
L 619.453907 349.898742 
L 620.781556 294.848545 
L 622.109206 325.431988 
L 623.436855 319.315299 
L 624.764504 343.782053 
L 626.092154 349.898742 
L 627.419803 343.782053 
L 628.747453 307.081922 
L 630.075102 337.665365 
L 631.402752 325.431988 
L 632.730401 349.898742 
L 634.058051 331.548676 
L 635.3857 337.665365 
L 636.713349 349.898742 
L 639.368648 349.898742 
L 640.696298 313.19861 
L 642.023947 337.665365 
L 643.351597 349.898742 
L 648.662195 349.898742 
L 649.989844 343.782053 
L 651.317493 343.782053 
L 652.645143 349.898742 
L 653.972792 349.898742 
L 655.300442 337.665365 
L 657.955741 337.665365 
L 659.28339 331.548676 
L 660.61104 349.898742 
L 661.938689 349.898742 
L 663.266338 343.782053 
L 664.593988 349.898742 
L 665.921637 349.898742 
L 667.249287 331.548676 
L 668.576936 349.898742 
L 669.904586 337.665365 
L 671.232235 349.898742 
L 673.887534 349.898742 
L 675.215184 343.782053 
L 676.542833 349.898742 
L 677.870482 337.665365 
L 679.198132 343.782053 
L 680.525781 343.782053 
L 681.853431 349.898742 
L 683.18108 337.665365 
L 684.50873 337.665365 
L 685.836379 349.898742 
L 687.164029 343.782053 
L 688.491678 343.782053 
L 689.819327 349.898742 
L 691.146977 337.665365 
L 693.802276 349.898742 
L 695.129925 337.665365 
L 696.457575 319.315299 
L 699.112874 343.782053 
L 700.440523 349.898742 
L 701.768173 337.665365 
L 703.095822 349.898742 
L 704.423471 343.782053 
L 705.751121 313.19861 
L 707.07877 337.665365 
L 708.40642 337.665365 
L 709.734069 349.898742 
L 712.389368 349.898742 
L 713.717018 343.782053 
L 715.044667 325.431988 
L 716.372316 343.782053 
L 717.699966 343.782053 
L 719.027615 349.898742 
L 720.355265 343.782053 
L 723.010564 343.782053 
L 724.338213 337.665365 
L 725.665863 349.898742 
L 726.993512 343.782053 
L 728.321162 343.782053 
L 729.648811 337.665365 
L 730.97646 325.431988 
L 732.30411 331.548676 
L 733.631759 343.782053 
L 734.959409 337.665365 
L 736.287058 343.782053 
L 737.614708 331.548676 
L 741.597656 349.898742 
L 742.925305 337.665365 
L 744.252955 343.782053 
L 745.580604 337.665365 
L 746.908254 337.665365 
L 748.235903 343.782053 
L 749.563553 313.19861 
L 750.891202 343.782053 
L 752.218852 343.782053 
L 753.546501 337.665365 
L 754.874151 343.782053 
L 756.2018 337.665365 
L 757.529449 343.782053 
L 758.857099 331.548676 
L 760.184748 325.431988 
L 761.512398 343.782053 
L 764.167697 343.782053 
L 765.495346 349.898742 
L 766.822996 349.898742 
L 768.150645 343.782053 
L 769.478294 343.782053 
L 770.805944 319.315299 
L 772.133593 276.498479 
L 773.461243 331.548676 
L 774.788892 319.315299 
L 776.116542 313.19861 
L 777.444191 343.782053 
L 778.771841 325.431988 
L 780.09949 337.665365 
L 781.42714 343.782053 
L 782.754789 337.665365 
L 784.082438 349.898742 
L 785.410088 313.19861 
L 786.737737 343.782053 
L 788.065387 337.665365 
L 789.393036 349.898742 
L 790.720686 343.782053 
L 792.048335 343.782053 
L 793.375985 349.898742 
L 794.703634 331.548676 
L 796.031283 349.898742 
L 797.358933 325.431988 
L 798.686582 343.782053 
L 802.669531 343.782053 
L 803.99718 349.898742 
L 805.32483 331.548676 
L 806.652479 349.898742 
L 807.980129 343.782053 
L 809.307778 349.898742 
L 810.635427 313.19861 
L 811.963077 337.665365 
L 813.290726 325.431988 
L 814.618376 343.782053 
L 815.946025 349.898742 
L 817.273675 343.782053 
L 818.601324 319.315299 
L 819.928974 325.431988 
L 821.256623 343.782053 
L 823.911922 343.782053 
L 826.567221 331.548676 
L 827.89487 343.782053 
L 829.22252 349.898742 
L 830.550169 337.665365 
L 833.205468 337.665365 
L 834.533118 343.782053 
L 835.860767 331.548676 
L 837.188416 331.548676 
L 838.516066 343.782053 
L 839.843715 337.665365 
L 841.171365 325.431988 
L 842.499014 349.898742 
L 843.826664 349.898742 
L 845.154313 343.782053 
L 846.481963 349.898742 
L 847.809612 343.782053 
L 849.137261 343.782053 
L 850.464911 349.898742 
L 851.79256 343.782053 
L 853.12021 343.782053 
L 854.447859 337.665365 
L 855.775509 349.898742 
L 857.103158 349.898742 
L 858.430808 343.782053 
L 861.086106 343.782053 
L 862.413756 349.898742 
L 863.741405 337.665365 
L 865.069055 349.898742 
L 866.396704 349.898742 
L 867.724354 343.782053 
L 869.052003 349.898742 
L 871.707302 337.665365 
L 873.034952 349.898742 
L 874.362601 349.898742 
L 875.69025 343.782053 
L 877.0179 349.898742 
L 878.345549 343.782053 
L 879.673199 349.898742 
L 882.328498 337.665365 
L 883.656147 349.898742 
L 884.983797 337.665365 
L 886.311446 349.898742 
L 887.639095 349.898742 
L 888.966745 331.548676 
L 890.294394 337.665365 
L 891.622044 349.898742 
L 892.949693 343.782053 
L 894.277343 349.898742 
L 903.570889 349.898742 
L 904.898538 343.782053 
L 906.226188 343.782053 
L 907.553837 349.898742 
L 911.536786 349.898742 
L 912.864435 337.665365 
L 915.519734 349.898742 
L 916.847383 343.782053 
L 918.175033 349.898742 
L 919.502682 343.782053 
L 920.830332 349.898742 
L 924.81328 349.898742 
L 926.14093 325.431988 
L 928.796228 349.898742 
L 936.762125 349.898742 
L 938.089775 343.782053 
L 939.417424 349.898742 
L 940.745073 343.782053 
L 942.072723 349.898742 
L 944.728022 349.898742 
L 946.055671 331.548676 
L 947.383321 349.898742 
L 948.71097 337.665365 
L 951.366269 337.665365 
L 952.693919 319.315299 
L 954.021568 325.431988 
L 955.349217 319.315299 
L 956.676867 294.848545 
L 958.004516 343.782053 
L 959.332166 349.898742 
L 960.659815 349.898742 
L 961.987465 343.782053 
L 963.315114 331.548676 
L 964.642764 349.898742 
L 965.970413 343.782053 
L 967.298062 349.898742 
L 968.625712 337.665365 
L 971.281011 349.898742 
L 972.60866 349.898742 
L 973.93631 337.665365 
L 975.263959 343.782053 
L 976.591609 337.665365 
L 979.246908 349.898742 
L 980.574557 349.898742 
L 981.902206 337.665365 
L 983.229856 349.898742 
L 984.557505 349.898742 
L 985.885155 319.315299 
L 987.212804 343.782053 
L 988.540454 349.898742 
L 992.523402 349.898742 
L 993.851051 319.315299 
L 995.178701 331.548676 
L 996.50635 349.898742 
L 997.834 313.19861 
L 999.161649 319.315299 
L 1000.489299 337.665365 
L 1001.816948 349.898742 
L 1005.799897 349.898742 
L 1007.127546 343.782053 
L 1008.455195 349.898742 
L 1009.782845 343.782053 
L 1012.438144 343.782053 
L 1013.765793 349.898742 
L 1015.093443 349.898742 
L 1016.421092 331.548676 
L 1017.748742 343.782053 
L 1019.076391 349.898742 
L 1020.40404 331.548676 
L 1021.73169 349.898742 
L 1023.059339 313.19861 
L 1024.386989 343.782053 
L 1025.714638 331.548676 
L 1027.042288 337.665365 
L 1028.369937 325.431988 
L 1029.697587 343.782053 
L 1031.025236 331.548676 
L 1032.352886 349.898742 
L 1033.680535 337.665365 
L 1035.008184 343.782053 
L 1036.335834 343.782053 
L 1037.663483 300.965233 
L 1038.991133 343.782053 
L 1040.318782 337.665365 
L 1042.974081 349.898742 
L 1044.301731 337.665365 
L 1045.62938 349.898742 
L 1046.957029 313.19861 
L 1048.284679 319.315299 
L 1049.612328 331.548676 
L 1050.939978 337.665365 
L 1052.267627 349.898742 
L 1053.595277 349.898742 
L 1054.922926 331.548676 
L 1056.250576 325.431988 
L 1058.905875 349.898742 
L 1060.233524 349.898742 
L 1061.561173 343.782053 
L 1062.888823 349.898742 
L 1064.216472 349.898742 
L 1065.544122 343.782053 
L 1066.871771 349.898742 
L 1073.510018 349.898742 
L 1074.837668 331.548676 
L 1076.165317 349.898742 
L 1077.492967 331.548676 
L 1078.820616 343.782053 
L 1080.148266 349.898742 
L 1081.475915 349.898742 
L 1082.803565 319.315299 
L 1084.131214 343.782053 
L 1088.114162 343.782053 
L 1089.441812 337.665365 
L 1090.769461 343.782053 
L 1092.097111 337.665365 
L 1093.42476 337.665365 
L 1094.75241 294.848545 
L 1096.080059 300.965233 
L 1097.407709 288.731856 
L 1098.735358 294.848545 
L 1100.063007 276.498479 
L 1101.390657 337.665365 
L 1102.718306 294.848545 
L 1104.045956 349.898742 
L 1105.373605 313.19861 
L 1106.701255 313.19861 
L 1108.028904 294.848545 
L 1109.356554 270.38179 
L 1110.684203 294.848545 
L 1113.339502 282.615167 
L 1114.667151 337.665365 
L 1115.994801 270.38179 
L 1117.32245 325.431988 
L 1118.6501 313.19861 
L 1119.977749 276.498479 
L 1121.305399 331.548676 
L 1122.633048 300.965233 
L 1123.960698 325.431988 
L 1125.288347 294.848545 
L 1126.615996 337.665365 
L 1127.943646 349.898742 
L 1129.271295 325.431988 
L 1130.598945 325.431988 
L 1131.926594 337.665365 
L 1133.254244 313.19861 
L 1134.581893 307.081922 
L 1135.909543 276.498479 
L 1137.237192 313.19861 
L 1138.564842 276.498479 
L 1141.22014 276.498479 
L 1142.54779 184.748149 
L 1145.203089 221.448281 
L 1146.530738 227.56497 
L 1147.858388 203.098215 
L 1149.186037 129.697952 
L 1150.513687 203.098215 
L 1151.841336 68.531066 
L 1153.168985 203.098215 
L 1154.496635 221.448281 
L 1155.824284 264.265101 
L 1157.151934 343.782053 
L 1158.479583 313.19861 
L 1159.807233 288.731856 
L 1161.134882 307.081922 
L 1162.462532 343.782053 
L 1163.790181 319.315299 
L 1166.44548 343.782053 
L 1167.773129 325.431988 
L 1169.100779 319.315299 
L 1171.756078 331.548676 
L 1173.083727 325.431988 
L 1174.411377 337.665365 
L 1175.739026 343.782053 
L 1177.066676 343.782053 
L 1178.394325 331.548676 
L 1179.721974 343.782053 
L 1181.049624 325.431988 
L 1183.704923 325.431988 
L 1185.032572 184.748149 
L 1186.360222 307.081922 
L 1187.687871 300.965233 
L 1189.015521 313.19861 
L 1190.34317 343.782053 
L 1194.326118 343.782053 
L 1195.653768 349.898742 
L 1196.981417 349.898742 
L 1198.309067 343.782053 
L 1199.636716 343.782053 
L 1200.964366 349.898742 
L 1202.292015 313.19861 
L 1203.619665 331.548676 
L 1204.947314 264.265101 
L 1206.274963 264.265101 
L 1207.602613 252.031724 
L 1208.930262 50.181 
L 1210.257912 99.114509 
L 1211.585561 227.56497 
L 1212.913211 141.931329 
L 1214.24086 276.498479 
L 1215.56851 319.315299 
L 1216.896159 221.448281 
L 1218.223808 300.965233 
L 1219.551458 337.665365 
L 1220.879107 313.19861 
L 1222.206757 337.665365 
L 1223.534406 307.081922 
L 1224.862056 343.782053 
L 1226.189705 337.665365 
L 1227.517355 337.665365 
L 1228.845004 349.898742 
L 1230.172654 319.315299 
L 1231.500303 325.431988 
L 1232.827952 349.898742 
L 1234.155602 319.315299 
L 1235.483251 325.431988 
L 1236.810901 343.782053 
L 1240.793849 343.782053 
L 1242.121499 349.898742 
L 1243.449148 343.782053 
L 1244.776797 349.898742 
L 1246.104447 337.665365 
L 1247.432096 343.782053 
L 1248.759746 337.665365 
L 1251.415045 349.898742 
L 1255.397993 349.898742 
L 1258.053292 337.665365 
L 1259.380941 325.431988 
L 1260.708591 337.665365 
L 1263.36389 349.898742 
L 1264.691539 343.782053 
L 1266.019189 343.782053 
L 1267.346838 337.665365 
L 1268.674488 349.898742 
L 1270.002137 343.782053 
L 1271.329786 343.782053 
L 1272.657436 349.898742 
L 1273.985085 337.665365 
L 1275.312735 349.898742 
L 1276.640384 331.548676 
L 1277.968034 343.782053 
L 1279.295683 349.898742 
L 1280.623333 307.081922 
L 1281.950982 337.665365 
L 1283.278632 343.782053 
L 1284.606281 331.548676 
L 1285.93393 331.548676 
L 1287.26158 343.782053 
L 1287.26158 343.782053 
" clip-path="url(#p12fa70011f)" style="fill: none; stroke: #0000ff; stroke-width: 1.5; stroke-linecap: square"/>
   </g>
   <g id="line2d_19">
    <path d="M 1048.284679 323.018525 
L 1050.939978 332.000664 
L 1052.267627 343.366051 
L 1053.595277 345.588758 
L 1054.922926 342.544369 
L 1056.250576 330.533845 
L 1057.578225 334.048149 
L 1058.905875 342.127586 
L 1060.233524 344.88043 
L 1061.561173 345.291464 
L 1062.888823 348.192152 
L 1064.216472 352.564785 
L 1065.544122 345.203346 
L 1068.199421 348.051847 
L 1069.52707 348.505569 
L 1070.85472 349.507491 
L 1072.182369 349.96635 
L 1073.510018 352.581 
L 1074.837668 338.982969 
L 1076.165317 344.253332 
L 1077.492967 337.037728 
L 1078.820616 340.370285 
L 1080.148266 345.745665 
L 1081.475915 348.179821 
L 1082.803565 335.345205 
L 1084.131214 337.362579 
L 1085.458864 341.675846 
L 1086.786513 341.825888 
L 1088.114162 342.243079 
L 1089.441812 339.83572 
L 1090.769461 344.196575 
L 1093.42476 337.425564 
L 1094.75241 314.615801 
L 1096.080059 306.485029 
L 1097.407709 296.752558 
L 1098.735358 295.35564 
L 1100.063007 286.871392 
L 1101.390657 314.868006 
L 1102.718306 305.73502 
L 1104.045956 329.847885 
L 1105.373605 321.141004 
L 1106.701255 316.366571 
L 1108.028904 305.60503 
L 1109.356554 283.315454 
L 1110.684203 292.677068 
L 1112.011853 287.935289 
L 1113.339502 287.48119 
L 1114.667151 315.245219 
L 1115.994801 291.648363 
L 1117.32245 312.501443 
L 1118.6501 309.263965 
L 1119.977749 293.707947 
L 1121.305399 313.183268 
L 1122.633048 304.31525 
L 1123.960698 320.669928 
L 1125.288347 303.389104 
L 1126.615996 324.52868 
L 1127.943646 338.59241 
L 1129.271295 329.165667 
L 1130.598945 328.39959 
L 1131.926594 330.387618 
L 1133.254244 326.173676 
L 1134.581893 310.744571 
L 1135.909543 292.67678 
L 1137.237192 305.703261 
L 1138.564842 288.26322 
L 1139.892491 281.810342 
L 1141.22014 278.570828 
L 1142.54779 230.966303 
L 1143.875439 214.566478 
L 1145.203089 216.273293 
L 1146.530738 226.132501 
L 1147.858388 212.577734 
L 1149.186037 167.165305 
L 1150.513687 192.925072 
L 1151.841336 125.982346 
L 1153.168985 166.239843 
L 1154.496635 194.727835 
L 1155.824284 236.887306 
L 1157.151934 299.874559 
L 1158.479583 302.141874 
L 1159.807233 307.959783 
L 1161.134882 299.04358 
L 1162.462532 321.003362 
L 1163.790181 316.002061 
L 1165.11783 321.708924 
L 1166.44548 338.769954 
L 1167.773129 329.870529 
L 1169.100779 331.380129 
L 1170.428428 320.128286 
L 1171.756078 326.40481 
L 1173.083727 322.386129 
L 1174.411377 328.093556 
L 1175.739026 341.17254 
L 1177.066676 341.987499 
L 1178.394325 340.585331 
L 1179.721974 336.726567 
L 1182.377273 324.834018 
L 1183.704923 323.012588 
L 1185.032572 250.172957 
L 1186.360222 281.790937 
L 1187.687871 294.261449 
L 1189.015521 302.250505 
L 1190.34317 325.285035 
L 1191.670819 333.40447 
L 1192.998469 347.334304 
L 1194.326118 338.896711 
L 1195.653768 345.628689 
L 1196.981417 348.406317 
L 1198.309067 342.227504 
L 1199.636716 343.261347 
L 1200.964366 345.589425 
L 1202.292015 333.19752 
L 1203.619665 327.659207 
L 1204.947314 293.384578 
L 1206.274963 278.134464 
L 1207.602613 261.466014 
L 1208.930262 145.407552 
L 1210.257912 121.709819 
L 1211.585561 181.92502 
L 1212.913211 161.613739 
L 1214.24086 224.853174 
L 1215.56851 277.901813 
L 1216.896159 259.266033 
L 1218.223808 278.563564 
L 1219.551458 303.223615 
L 1220.879107 315.998131 
L 1222.206757 319.687533 
L 1223.534406 310.040267 
L 1224.862056 336.07376 
L 1226.189705 339.481198 
L 1227.517355 333.667098 
L 1228.845004 339.222572 
L 1230.172654 331.3865 
L 1231.500303 324.906342 
L 1232.827952 334.304156 
L 1234.155602 331.412806 
L 1235.483251 329.782704 
L 1236.810901 333.484483 
L 1238.13855 339.054407 
L 1239.4662 343.219637 
L 1240.793849 339.76145 
L 1242.121499 344.621747 
L 1243.449148 347.198063 
L 1244.776797 348.489718 
L 1246.104447 339.982258 
L 1247.432096 342.017405 
L 1248.759746 340.655962 
L 1250.087395 339.503513 
L 1251.415045 345.16742 
L 1252.742694 349.312421 
L 1254.070344 350.349823 
L 1255.397993 348.009886 
L 1256.725643 346.082387 
L 1258.053292 341.716128 
L 1259.380941 330.514572 
L 1260.708591 334.411933 
L 1262.03624 340.554063 
L 1263.36389 346.138889 
L 1264.691539 343.907601 
L 1266.019189 344.510463 
L 1267.346838 341.757715 
L 1268.674488 343.89905 
L 1270.002137 343.402592 
L 1271.329786 343.846319 
L 1272.657436 347.883481 
L 1273.985085 341.674732 
L 1275.312735 347.035781 
L 1276.640384 338.360368 
L 1277.968034 340.243877 
L 1279.295683 345.252735 
L 1280.623333 324.07396 
L 1281.950982 332.826973 
L 1283.278632 337.594236 
L 1284.606281 336.094898 
L 1285.93393 332.642215 
L 1287.26158 337.62044 
L 1287.26158 337.62044 
" clip-path="url(#p12fa70011f)" style="fill: none; stroke: #ffa500; stroke-width: 1.5; stroke-linecap: square"/>
   </g>
   <g id="line2d_20">
    <path d="M 1287.26158 337.62044 
L 1288.589229 340.371965 
L 1289.916879 338.1036 
L 1291.244528 338.533061 
L 1292.572178 338.569413 
L 1293.899827 339.746776 
L 1295.227477 338.283803 
L 1296.555126 337.975376 
L 1297.882775 339.573807 
L 1299.210425 338.256056 
L 1300.538074 338.505541 
L 1301.865724 338.526659 
L 1303.193373 339.210619 
L 1304.521023 338.36074 
" clip-path="url(#p12fa70011f)" style="fill: none; stroke: #ff0000; stroke-width: 1.5; stroke-linecap: square"/>
   </g>
   <g id="patch_3">
    <path d="M 26.19375 367.701 
L 26.19375 35.061 
" style="fill: none; stroke: #000000; stroke-width: 0.8; stroke-linejoin: miter; stroke-linecap: square"/>
   </g>
   <g id="patch_4">
    <path d="M 1365.39375 367.701 
L 1365.39375 35.061 
" style="fill: none; stroke: #000000; stroke-width: 0.8; stroke-linejoin: miter; stroke-linecap: square"/>
   </g>
   <g id="patch_5">
    <path d="M 26.19375 367.701 
L 1365.39375 367.701 
" style="fill: none; stroke: #000000; stroke-width: 0.8; stroke-linejoin: miter; stroke-linecap: square"/>
   </g>
   <g id="patch_6">
    <path d="M 26.19375 35.061 
L 1365.39375 35.061 
" style="fill: none; stroke: #000000; stroke-width: 0.8; stroke-linejoin: miter; stroke-linecap: square"/>
   </g>
   <g id="text_18">
    <!-- 每日新增预测 - 四川 -->
    <g transform="translate(642.396563 17.041875)scale(0.12 -0.12)">
     <defs>
      <path id="WenQuanYiZenHei-6bcf" d="M 6138 2181 
Q 6113 1988 6138 1800 
Q 5788 1819 5438 1819 
L 4975 1819 
L 4863 738 
L 5806 738 
L 5806 394 
L 4831 394 
L 4775 -144 
Q 4719 -563 4350 -725 
Q 4013 -856 3550 -825 
L 3288 -819 
Q 3331 -663 3275 -519 
Q 3219 -375 3113 -288 
Q 3381 -313 3759 -303 
Q 4138 -294 4231 -238 
Q 4338 -163 4350 88 
L 4381 394 
L 1025 394 
L 1244 1819 
L 813 1819 
Q 463 1819 113 1800 
Q 138 1988 113 2181 
Q 463 2163 813 2163 
L 1294 2163 
L 1488 3431 
L 1488 3581 
L 1506 3581 
L 1513 3613 
L 1713 3581 
L 5156 3581 
L 5013 2163 
L 5438 2163 
Q 5788 2163 6138 2181 
z
M 5588 4463 
Q 5569 4269 5588 4081 
Q 5244 4100 4894 4100 
L 1813 4100 
Q 1344 3463 606 2788 
Q 481 2988 256 3069 
Q 744 3494 1116 3972 
Q 1488 4450 1919 5181 
Q 2119 5044 2344 4950 
Q 2213 4688 2050 4444 
L 4894 4444 
Q 5238 4444 5588 4463 
z
M 2844 3238 
L 1906 3238 
L 1744 2163 
L 3244 2163 
L 2581 3038 
L 2844 3238 
z
M 3250 2163 
L 4563 2163 
L 4669 3238 
L 3044 3238 
L 3638 2456 
L 3250 2163 
z
M 2944 1819 
Q 3275 1394 3550 938 
L 3213 738 
L 4419 738 
L 4525 1819 
L 2944 1819 
z
M 2656 1819 
L 1694 1819 
L 1525 738 
L 3094 738 
Q 2806 1219 2450 1650 
L 2656 1819 
z
" transform="scale(0.015625)"/>
      <path id="WenQuanYiZenHei-65e5" d="M 1494 -775 
Q 1244 -750 988 -775 
Q 1013 -313 1013 156 
L 1013 4875 
L 5269 4875 
L 5269 -763 
L 4813 -763 
L 4813 156 
L 1469 156 
Q 1469 -313 1494 -775 
z
M 4813 2700 
L 4813 4500 
L 1469 4500 
L 1469 2700 
L 4813 2700 
z
M 4813 531 
L 4813 2325 
L 1469 2325 
L 1469 531 
L 4813 531 
z
" transform="scale(0.015625)"/>
      <path id="WenQuanYiZenHei-65b0" d="M 5419 -763 
Q 5188 -738 4963 -763 
Q 4981 -344 4981 75 
L 4981 2819 
L 4188 2819 
L 4188 1706 
Q 4188 63 3163 -738 
Q 3019 -519 2769 -469 
Q 3769 131 3769 1706 
L 3769 4769 
L 3875 4769 
L 3844 4831 
L 4294 4781 
Q 4438 4769 4894 4816 
Q 5350 4863 5512 4931 
Q 5675 5000 5763 5094 
Q 5850 4881 5981 4694 
Q 5713 4544 5263 4519 
L 4188 4438 
L 4188 3100 
L 5563 3100 
Q 5850 3100 6131 3113 
Q 6119 2956 6131 2806 
L 5394 2819 
L 5394 75 
Q 5394 -344 5419 -763 
z
M 2981 213 
Q 2656 744 2256 1225 
L 2606 1513 
Q 3025 1006 3369 450 
L 2981 213 
z
M 1169 1525 
Q 1375 1419 1594 1363 
Q 1281 488 469 -469 
Q 331 -300 119 -244 
Q 575 263 888 900 
Q 1038 1206 1169 1525 
z
M 1825 6 
L 1825 1769 
L 1081 1769 
Q 794 1769 513 1756 
Q 525 1913 513 2063 
Q 794 2050 1081 2050 
L 1825 2050 
L 1825 2775 
L 994 2775 
Q 706 2775 425 2763 
Q 438 2919 425 3075 
Q 706 3056 994 3056 
L 1825 3056 
L 1825 3088 
L 1906 3088 
Q 2288 3656 2588 4381 
Q 2794 4269 3013 4206 
Q 2800 3675 2381 3056 
L 3013 3056 
Q 3294 3056 3581 3075 
Q 3563 2919 3581 2763 
Q 3294 2775 3013 2775 
L 2238 2775 
L 2238 2050 
L 2925 2050 
Q 3206 2050 3494 2063 
Q 3475 1913 3494 1756 
Q 3206 1769 2925 1769 
L 2238 1769 
L 2238 -156 
Q 2238 -413 2075 -581 
Q 1844 -794 1306 -794 
Q 1363 -519 1188 -288 
Q 1338 -313 1534 -316 
Q 1731 -319 1778 -278 
Q 1825 -238 1825 6 
z
M 1875 3388 
L 1500 3131 
L 825 4088 
L 1200 4350 
L 1875 3388 
z
M 3419 4713 
Q 3400 4563 3419 4406 
Q 3131 4419 2850 4419 
L 1125 4419 
Q 838 4419 556 4406 
Q 569 4563 556 4713 
Q 838 4700 1125 4700 
L 1763 4700 
L 1388 5088 
L 1719 5406 
L 2288 4813 
L 2175 4700 
L 2850 4700 
Q 3131 4700 3419 4713 
z
" transform="scale(0.015625)"/>
      <path id="WenQuanYiZenHei-589e" d="M 3138 -769 
Q 2913 -744 2688 -769 
Q 2706 -356 2706 56 
L 2706 1719 
L 5706 1719 
L 5706 -756 
L 5300 -756 
L 5300 -338 
L 3119 -338 
Q 3125 -550 3138 -769 
z
M 5113 3569 
Q 5344 3606 5563 3688 
Q 5669 3175 5256 2694 
Q 5113 2519 4975 2506 
Q 4831 2725 4588 2813 
Q 4806 2831 4997 3068 
Q 5188 3306 5113 3569 
z
M 3850 2763 
L 3469 2538 
L 2925 3456 
L 3313 3681 
L 3850 2763 
z
M 2400 2100 
Q 2469 3138 2400 4175 
L 3413 4175 
Q 3138 4550 2825 4888 
L 3156 5194 
Q 3581 4725 3938 4206 
L 3900 4175 
L 4456 4175 
Q 4863 4575 5131 5163 
Q 5325 5044 5538 4975 
Q 5369 4575 5013 4175 
L 6056 4175 
Q 5981 3138 6056 2100 
L 2400 2100 
z
M 5300 806 
L 5300 1450 
L 3113 1450 
Q 3113 1125 3113 806 
L 5300 806 
z
M 5300 563 
L 3113 563 
L 3113 -94 
L 5300 -94 
L 5300 563 
z
M 4431 3913 
L 4431 2363 
L 5650 2363 
L 5650 3913 
L 4756 3913 
L 4700 3856 
Q 4681 3888 4656 3913 
L 4431 3913 
z
M 4025 3913 
L 2806 3913 
L 2806 2363 
L 4025 2363 
L 4025 3913 
z
M -31 625 
Q 506 763 1006 975 
L 1006 3206 
L 669 3206 
Q 369 3206 75 3188 
Q 94 3356 75 3531 
Q 369 3513 669 3513 
L 1006 3513 
L 1006 4263 
Q 1006 4700 981 5131 
Q 1206 5106 1431 5131 
Q 1413 4700 1413 4263 
L 1413 3513 
L 2238 3531 
Q 2219 3356 2238 3188 
L 1413 3206 
L 1413 1163 
L 2150 1531 
L 2194 1256 
Q 1269 775 813 519 
L 194 144 
Q 138 438 -31 625 
z
" transform="scale(0.015625)"/>
      <path id="WenQuanYiZenHei-9884" d="M 1206 19 
L 1206 2888 
L 669 2888 
Q 356 2888 50 2869 
Q 63 3044 50 3213 
Q 363 3194 669 3194 
L 1250 3194 
Q 950 3631 606 4031 
L 963 4338 
L 1263 3975 
L 1913 4719 
L 731 4719 
Q 419 4719 106 4706 
Q 125 4875 106 5044 
Q 419 5031 731 5031 
L 2481 5031 
L 2544 4663 
Q 2394 4613 2256 4466 
Q 2119 4319 1525 3631 
Q 1656 3444 1788 3250 
L 1700 3194 
L 2700 3194 
L 2763 2825 
Q 2656 2819 2613 2763 
L 2100 2038 
L 1750 2288 
L 2175 2888 
L 1638 2888 
L 1638 -150 
Q 1638 -525 1363 -669 
Q 1075 -819 525 -813 
Q 594 -513 388 -294 
Q 575 -313 837 -316 
Q 1100 -319 1153 -272 
Q 1206 -225 1206 19 
z
M 5813 -888 
Q 5100 -225 4306 375 
L 4669 719 
Q 5481 106 6219 -575 
L 5813 -888 
z
M 2375 -906 
Q 2294 -631 2025 -506 
Q 2769 -431 3353 19 
Q 3938 469 3938 1069 
L 3938 2200 
Q 3938 2625 3913 3050 
Q 4188 3025 4456 3050 
Q 4431 2625 4431 2200 
L 4431 1069 
Q 4431 681 4225 319 
Q 3644 -606 2375 -906 
z
M 3444 488 
Q 3169 513 2894 488 
Q 2919 913 2919 1338 
L 2919 3675 
Q 3219 3675 3525 3675 
Q 3750 4013 3931 4525 
L 3238 4525 
Q 2888 4525 2538 4513 
Q 2556 4669 2538 4831 
Q 2888 4813 3238 4813 
L 5313 4813 
Q 5663 4813 6006 4831 
Q 5988 4669 6006 4513 
Q 5663 4525 5313 4525 
L 4481 4525 
Q 4388 4088 4088 3675 
L 5644 3675 
L 5644 513 
L 5144 513 
L 5144 3388 
L 3894 3388 
L 3875 3363 
Q 3863 3375 3844 3388 
Q 3631 3388 3413 3388 
L 3419 1338 
Q 3419 913 3444 488 
z
" transform="scale(0.015625)"/>
      <path id="WenQuanYiZenHei-6d4b" d="M 5450 138 
L 5450 4306 
Q 5450 4750 5425 5188 
Q 5663 5163 5906 5188 
Q 5881 4750 5881 4306 
L 5881 -38 
Q 5888 -569 5519 -719 
Q 5194 -831 4825 -813 
Q 4894 -519 4694 -281 
Q 4869 -306 5094 -309 
Q 5319 -313 5384 -256 
Q 5450 -200 5450 138 
z
M 4900 938 
Q 4663 963 4419 938 
Q 4444 1375 4444 1819 
L 4444 3381 
Q 4444 3819 4419 4263 
Q 4663 4238 4900 4263 
Q 4875 3819 4875 3381 
L 4875 1819 
Q 4875 1375 4900 938 
z
M 2750 2025 
L 2750 3038 
Q 2750 3481 2725 3919 
Q 2963 3894 3206 3919 
Q 3181 3481 3181 3038 
L 3181 2025 
Q 3181 1263 2919 625 
L 3231 956 
Q 3781 431 4256 -150 
L 3888 -456 
Q 3431 106 2906 600 
Q 2531 -288 1738 -769 
Q 1606 -519 1338 -450 
Q 1988 -156 2369 478 
Q 2750 1113 2750 2025 
z
M 2363 969 
Q 2119 994 1881 969 
Q 1906 1406 1906 1850 
L 1906 5038 
L 3956 5031 
L 3956 1200 
L 3525 1200 
L 3525 4713 
L 2338 4713 
L 2338 1850 
Q 2338 1406 2363 969 
z
M 663 -738 
Q 481 -588 206 -575 
Q 400 -69 606 581 
Q 813 1231 1200 2838 
L 1381 2706 
L 875 338 
L 663 -738 
z
M 1006 2856 
L 731 2550 
L 75 3400 
L 350 3713 
L 1006 2856 
z
M 1088 3913 
Q 781 4388 425 4800 
L 694 5125 
Q 1069 4688 1388 4188 
L 1088 3913 
z
" transform="scale(0.015625)"/>
      <path id="WenQuanYiZenHei-20" transform="scale(0.015625)"/>
      <path id="WenQuanYiZenHei-56db" d="M 781 4781 
L 5775 4781 
L 5775 -763 
L 5325 -763 
L 5325 -31 
L 1244 -31 
Q 1244 -406 1263 -775 
Q 1013 -750 769 -775 
Q 788 -319 788 138 
L 781 4781 
z
M 3506 4419 
L 2756 4419 
L 2756 2556 
Q 2756 1950 2359 1465 
Q 1963 981 1381 800 
Q 1344 963 1238 1094 
L 1238 325 
L 5325 325 
L 5325 1244 
L 4169 1244 
Q 3894 1244 3700 1437 
Q 3506 1631 3506 1913 
L 3506 4419 
z
M 3956 4419 
L 3956 1913 
Q 3956 1788 4015 1694 
Q 4075 1600 4175 1600 
L 5325 1600 
L 5325 4419 
L 3956 4419 
z
M 2306 4419 
L 1231 4419 
L 1238 1256 
Q 1694 1369 2000 1731 
Q 2306 2094 2306 2556 
L 2306 4419 
z
" transform="scale(0.015625)"/>
      <path id="WenQuanYiZenHei-5ddd" d="M 5538 -625 
Q 5281 -600 5019 -625 
Q 5044 -144 5044 331 
L 5044 4300 
Q 5044 4781 5019 5256 
Q 5281 5231 5538 5256 
Q 5519 4781 5519 4300 
L 5519 331 
Q 5519 -144 5538 -625 
z
M 3738 338 
Q 3481 363 3219 338 
Q 3244 819 3244 1300 
L 3244 3819 
Q 3244 4300 3219 4775 
Q 3481 4750 3738 4775 
Q 3719 4300 3719 3819 
L 3719 1300 
Q 3719 819 3738 338 
z
M 1456 1275 
L 1456 4281 
Q 1456 4763 1438 5244 
Q 1694 5219 1956 5244 
Q 1931 4763 1931 4281 
L 1931 1275 
Q 1931 394 1406 -231 
Q 1063 -638 563 -831 
Q 481 -550 225 -406 
Q 725 -300 1056 88 
Q 1456 563 1456 1275 
z
" transform="scale(0.015625)"/>
     </defs>
     <use xlink:href="#WenQuanYiZenHei-6bcf"/>
     <use xlink:href="#WenQuanYiZenHei-65e5" x="100"/>
     <use xlink:href="#WenQuanYiZenHei-65b0" x="200"/>
     <use xlink:href="#WenQuanYiZenHei-589e" x="300"/>
     <use xlink:href="#WenQuanYiZenHei-9884" x="400"/>
     <use xlink:href="#WenQuanYiZenHei-6d4b" x="500"/>
     <use xlink:href="#WenQuanYiZenHei-20" x="600"/>
     <use xlink:href="#WenQuanYiZenHei-2d" x="629.980469"/>
     <use xlink:href="#WenQuanYiZenHei-20" x="659.960938"/>
     <use xlink:href="#WenQuanYiZenHei-56db" x="689.941406"/>
     <use xlink:href="#WenQuanYiZenHei-5ddd" x="789.941406"/>
    </g>
    <!-- ARIMA (0, 1, 1)x(1, 0, 1, 7) (R2 = 0.900997) -->
    <g transform="translate(577.185938 29.061)scale(0.12 -0.12)">
     <defs>
      <path id="WenQuanYiZenHei-41" d="M 3550 0 
L 2988 0 
L 2550 1281 
L 919 1281 
L 531 0 
L 69 0 
L 1494 4388 
L 2125 4388 
L 3550 0 
z
M 2425 1694 
L 1756 3800 
L 1075 1694 
L 2425 1694 
z
" transform="scale(0.015625)"/>
      <path id="WenQuanYiZenHei-52" d="M 3675 0 
L 3100 0 
L 2288 1900 
L 1069 1900 
L 1069 0 
L 519 0 
L 519 4388 
L 2163 4388 
Q 3006 4388 3400 3900 
Q 3581 3663 3625 3325 
Q 3631 3250 3631 3163 
Q 3631 2594 3219 2244 
Q 3038 2100 2813 2038 
L 3675 0 
z
M 3081 3169 
Q 3081 3825 2356 3906 
Q 2263 3919 2163 3919 
L 1069 3919 
L 1069 2350 
L 2100 2350 
Q 2906 2350 3044 2919 
Q 3081 3031 3081 3169 
z
" transform="scale(0.015625)"/>
      <path id="WenQuanYiZenHei-49" d="M 1100 0 
L 550 0 
L 550 4388 
L 1100 4388 
L 1100 0 
z
" transform="scale(0.015625)"/>
      <path id="WenQuanYiZenHei-4d" d="M 4756 0 
L 4206 0 
L 4206 3831 
L 4181 3831 
L 2788 0 
L 2419 0 
L 1000 3831 
L 975 3831 
L 975 0 
L 513 0 
L 513 4388 
L 1331 4388 
L 2656 875 
L 3950 4388 
L 4756 4388 
L 4756 0 
z
" transform="scale(0.015625)"/>
      <path id="WenQuanYiZenHei-28" d="M 1606 -1094 
L 1275 -1094 
Q 475 -100 338 1231 
Q 319 1438 319 1656 
Q 319 3031 1156 4244 
Q 1213 4313 1269 4388 
L 1600 4388 
Q 806 3169 794 1681 
Q 794 188 1606 -1094 
z
" transform="scale(0.015625)"/>
      <path id="WenQuanYiZenHei-2c" d="M 1363 75 
L 881 -825 
L 606 -825 
L 994 0 
L 656 0 
L 656 738 
L 1363 738 
L 1363 75 
z
" transform="scale(0.015625)"/>
      <path id="WenQuanYiZenHei-29" d="M 1600 1656 
Q 1600 306 869 -788 
Q 769 -950 644 -1094 
L 313 -1094 
Q 1125 188 1125 1681 
Q 1125 3169 338 4363 
Q 325 4375 319 4388 
L 650 4388 
Q 1525 3231 1594 1863 
Q 1600 1763 1600 1656 
z
" transform="scale(0.015625)"/>
      <path id="WenQuanYiZenHei-78" d="M 2806 0 
L 2213 0 
L 1394 1319 
L 544 0 
L 50 0 
L 1144 1681 
L 163 3250 
L 744 3250 
L 1431 2138 
L 2144 3250 
L 2631 3250 
L 1681 1794 
L 2806 0 
z
" transform="scale(0.015625)"/>
      <path id="WenQuanYiZenHei-3d" d="M 3569 2256 
L 263 2256 
L 263 2675 
L 3569 2675 
L 3569 2256 
z
M 3569 1019 
L 263 1019 
L 263 1431 
L 3569 1431 
L 3569 1019 
z
" transform="scale(0.015625)"/>
      <path id="WenQuanYiZenHei-2e" d="M 1344 0 
L 631 0 
L 631 725 
L 1344 725 
L 1344 0 
z
" transform="scale(0.015625)"/>
      <path id="WenQuanYiZenHei-39" d="M 3544 2300 
Q 3544 1163 3019 513 
Q 2563 -63 1775 -63 
Q 956 -63 563 488 
Q 463 631 394 813 
L 838 975 
Q 1025 494 1550 388 
Q 1656 369 1775 369 
Q 2594 369 2900 1325 
Q 3044 1769 3038 2313 
L 3025 2313 
Q 2675 1638 1944 1544 
Q 1844 1531 1744 1531 
Q 1050 1531 625 2031 
Q 294 2419 294 2963 
Q 294 3656 813 4094 
Q 1238 4456 1819 4456 
Q 2988 4456 3381 3363 
Q 3544 2900 3544 2300 
z
M 2925 2994 
Q 2925 3563 2469 3844 
Q 2206 4006 1863 4006 
Q 1275 4006 988 3563 
Q 844 3344 825 3056 
Q 819 3006 819 2956 
Q 819 2413 1269 2131 
Q 1538 1963 1875 1963 
Q 2363 1963 2681 2350 
Q 2925 2638 2925 2994 
z
" transform="scale(0.015625)"/>
     </defs>
     <use xlink:href="#WenQuanYiZenHei-41"/>
     <use xlink:href="#WenQuanYiZenHei-52" x="55.957031"/>
     <use xlink:href="#WenQuanYiZenHei-49" x="117.871094"/>
     <use xlink:href="#WenQuanYiZenHei-4d" x="143.847656"/>
     <use xlink:href="#WenQuanYiZenHei-41" x="225.78125"/>
     <use xlink:href="#WenQuanYiZenHei-20" x="281.738281"/>
     <use xlink:href="#WenQuanYiZenHei-28" x="311.71875"/>
     <use xlink:href="#WenQuanYiZenHei-30" x="341.699219"/>
     <use xlink:href="#WenQuanYiZenHei-2c" x="401.660156"/>
     <use xlink:href="#WenQuanYiZenHei-20" x="431.640625"/>
     <use xlink:href="#WenQuanYiZenHei-31" x="461.621094"/>
     <use xlink:href="#WenQuanYiZenHei-2c" x="521.582031"/>
     <use xlink:href="#WenQuanYiZenHei-20" x="551.5625"/>
     <use xlink:href="#WenQuanYiZenHei-31" x="581.542969"/>
     <use xlink:href="#WenQuanYiZenHei-29" x="641.503906"/>
     <use xlink:href="#WenQuanYiZenHei-78" x="671.484375"/>
     <use xlink:href="#WenQuanYiZenHei-28" x="715.429688"/>
     <use xlink:href="#WenQuanYiZenHei-31" x="745.410156"/>
     <use xlink:href="#WenQuanYiZenHei-2c" x="805.371094"/>
     <use xlink:href="#WenQuanYiZenHei-20" x="835.351562"/>
     <use xlink:href="#WenQuanYiZenHei-30" x="865.332031"/>
     <use xlink:href="#WenQuanYiZenHei-2c" x="925.292969"/>
     <use xlink:href="#WenQuanYiZenHei-20" x="955.273438"/>
     <use xlink:href="#WenQuanYiZenHei-31" x="985.253906"/>
     <use xlink:href="#WenQuanYiZenHei-2c" x="1045.214844"/>
     <use xlink:href="#WenQuanYiZenHei-20" x="1075.195312"/>
     <use xlink:href="#WenQuanYiZenHei-37" x="1105.175781"/>
     <use xlink:href="#WenQuanYiZenHei-29" x="1165.136719"/>
     <use xlink:href="#WenQuanYiZenHei-20" x="1195.117188"/>
     <use xlink:href="#WenQuanYiZenHei-28" x="1225.097656"/>
     <use xlink:href="#WenQuanYiZenHei-52" x="1255.078125"/>
     <use xlink:href="#WenQuanYiZenHei-32" x="1316.992188"/>
     <use xlink:href="#WenQuanYiZenHei-20" x="1376.953125"/>
     <use xlink:href="#WenQuanYiZenHei-3d" x="1406.933594"/>
     <use xlink:href="#WenQuanYiZenHei-20" x="1466.894531"/>
     <use xlink:href="#WenQuanYiZenHei-30" x="1496.875"/>
     <use xlink:href="#WenQuanYiZenHei-2e" x="1556.835938"/>
     <use xlink:href="#WenQuanYiZenHei-39" x="1586.816406"/>
     <use xlink:href="#WenQuanYiZenHei-30" x="1646.777344"/>
     <use xlink:href="#WenQuanYiZenHei-30" x="1706.738281"/>
     <use xlink:href="#WenQuanYiZenHei-39" x="1766.699219"/>
     <use xlink:href="#WenQuanYiZenHei-39" x="1826.660156"/>
     <use xlink:href="#WenQuanYiZenHei-37" x="1886.621094"/>
     <use xlink:href="#WenQuanYiZenHei-29" x="1946.582031"/>
    </g>
   </g>
   <g id="legend_1">
    <g id="patch_7">
     <path d="M 1296.39375 87.056312 
L 1358.39375 87.056312 
Q 1360.39375 87.056312 1360.39375 85.056312 
L 1360.39375 42.061 
Q 1360.39375 40.061 1358.39375 40.061 
L 1296.39375 40.061 
Q 1294.39375 40.061 1294.39375 42.061 
L 1294.39375 85.056312 
Q 1294.39375 87.056312 1296.39375 87.056312 
z
" style="fill: #ffffff; opacity: 0.8; stroke: #cccccc; stroke-linejoin: miter"/>
    </g>
    <g id="line2d_21">
     <path d="M 1298.39375 48.695375 
L 1308.39375 48.695375 
L 1318.39375 48.695375 
" style="fill: none; stroke: #0000ff; stroke-width: 1.5; stroke-linecap: square"/>
    </g>
    <g id="text_19">
     <!-- 实际值 -->
     <g transform="translate(1326.39375 52.195375)scale(0.1 -0.1)">
      <defs>
       <path id="WenQuanYiZenHei-5b9e" d="M 1025 1175 
Q 694 1175 356 1163 
Q 375 1344 356 1525 
Q 694 1506 1025 1506 
L 3363 1506 
L 3363 2625 
Q 3363 3075 3338 3519 
Q 3581 3494 3825 3519 
Q 3800 3075 3800 2625 
L 3800 1506 
L 5406 1506 
Q 5744 1506 6075 1525 
Q 6056 1344 6075 1163 
Q 5744 1175 5406 1175 
L 4038 1175 
L 4981 456 
L 6131 -488 
L 5819 -856 
L 4681 75 
L 3638 875 
Q 3313 231 2475 -231 
Q 1638 -694 700 -825 
Q 638 -519 344 -400 
Q 1450 -319 2406 244 
Q 3113 656 3300 1175 
L 1025 1175 
z
M 2263 1581 
Q 1763 2081 1200 2513 
L 1494 2894 
Q 2081 2444 2600 1919 
L 2263 1581 
z
M 2638 2500 
Q 2219 2963 1731 3363 
L 2044 3738 
Q 2556 3313 3000 2819 
L 2638 2500 
z
M 919 3156 
L 481 3156 
L 481 4344 
L 3069 4344 
Q 2794 4731 2469 5081 
L 2825 5413 
Q 3256 4944 3613 4413 
L 3513 4344 
L 5869 4344 
L 5869 3156 
L 5425 3156 
L 5425 4013 
L 919 4013 
L 919 3156 
z
" transform="scale(0.015625)"/>
       <path id="WenQuanYiZenHei-9645" d="M 6000 431 
L 5569 194 
L 4963 1219 
L 4313 2219 
L 4719 2494 
L 5375 1481 
L 6000 431 
z
M 2956 2450 
Q 3181 2344 3419 2294 
Q 3006 1038 1944 -188 
Q 1794 -6 1569 56 
Q 2069 600 2372 1156 
Q 2675 1713 2956 2450 
z
M 3750 25 
L 3750 2913 
L 2819 2913 
Q 2475 2913 2125 2894 
Q 2144 3081 2125 3269 
Q 2475 3256 2819 3256 
L 5469 3256 
Q 5819 3256 6163 3269 
Q 6144 3081 6163 2894 
Q 5813 2913 5469 2913 
L 4194 2913 
L 4194 -144 
Q 4194 -725 3456 -813 
L 3263 -825 
Q 3325 -506 3125 -250 
Q 3250 -281 3394 -306 
Q 3663 -313 3706 -272 
Q 3750 -231 3750 25 
z
M 5544 4950 
Q 5525 4756 5544 4569 
Q 5194 4588 4844 4588 
L 3325 4588 
Q 2975 4588 2625 4569 
Q 2644 4756 2625 4950 
Q 2975 4931 3325 4931 
L 4844 4931 
Q 5194 4931 5544 4950 
z
M 819 -850 
Q 581 -825 344 -850 
Q 369 -419 369 19 
L 363 4938 
L 2256 4938 
L 2256 4625 
Q 2150 4513 2075 4375 
L 1481 3238 
Q 2181 2319 2181 1156 
Q 2144 400 1569 163 
L 1406 88 
Q 1288 300 1138 481 
Q 1294 538 1450 606 
Q 1763 744 1794 1156 
Q 1794 1744 1600 2300 
Q 1406 2856 1038 3313 
L 1725 4625 
L 788 4625 
L 794 19 
Q 794 -419 819 -850 
z
" transform="scale(0.015625)"/>
       <path id="WenQuanYiZenHei-503c" d="M 6175 -219 
Q 6156 -388 6175 -556 
Q 5863 -544 5550 -544 
L 2313 -544 
Q 2000 -544 1688 -556 
Q 1706 -388 1688 -219 
L 2506 -231 
L 2506 3469 
L 3644 3469 
L 3644 4119 
L 2638 4119 
Q 2325 4119 2013 4100 
Q 2031 4269 2013 4438 
Q 2325 4425 2638 4425 
L 3638 4425 
Q 3638 4719 3619 5013 
Q 3856 4988 4094 5013 
Q 4075 4719 4075 4425 
L 5344 4425 
Q 5650 4425 5963 4438 
Q 5950 4269 5963 4100 
Q 5656 4119 5344 4119 
L 4069 4119 
L 4069 3469 
L 5300 3469 
L 5300 -231 
L 5550 -231 
Q 5863 -231 6175 -219 
z
M 4869 2556 
L 4869 3156 
L 2931 3156 
Q 2931 2850 2931 2556 
L 4869 2556 
z
M 4869 1669 
L 4869 2250 
L 2931 2250 
L 2931 1669 
L 4869 1669 
z
M 4869 731 
L 4869 1363 
L 2931 1363 
L 2931 731 
L 4869 731 
z
M 4869 -231 
L 4869 425 
L 2931 425 
L 2931 -231 
L 4869 -231 
z
M 2106 4925 
Q 1856 4075 1463 3338 
L 1463 31 
Q 1463 -413 1481 -850 
Q 1256 -825 1031 -850 
Q 1050 -413 1050 31 
L 1050 2681 
Q 750 2269 375 1931 
Q 238 2156 0 2256 
Q 331 2544 619 2875 
Q 1094 3425 1300 3950 
Q 1494 4469 1625 5050 
Q 1850 4963 2106 4925 
z
" transform="scale(0.015625)"/>
      </defs>
      <use xlink:href="#WenQuanYiZenHei-5b9e"/>
      <use xlink:href="#WenQuanYiZenHei-9645" x="100"/>
      <use xlink:href="#WenQuanYiZenHei-503c" x="200"/>
     </g>
    </g>
    <g id="line2d_22">
     <path d="M 1298.39375 63.3735 
L 1308.39375 63.3735 
L 1318.39375 63.3735 
" style="fill: none; stroke: #ffa500; stroke-width: 1.5; stroke-linecap: square"/>
    </g>
    <g id="text_20">
     <!-- 校验值 -->
     <g transform="translate(1326.39375 66.8735)scale(0.1 -0.1)">
      <defs>
       <path id="WenQuanYiZenHei-6821" d="M 5256 2463 
Q 5025 1475 4494 706 
Q 5125 -94 6175 -544 
Q 5950 -663 5850 -900 
Q 4906 -494 4250 381 
Q 3931 0 3475 -350 
Q 3019 -700 2388 -919 
Q 2338 -656 2138 -475 
Q 3306 -69 4006 738 
Q 3563 1444 3300 2331 
Q 3050 2050 2706 1800 
Q 2606 2000 2406 2106 
Q 2900 2444 3181 2938 
Q 3350 3225 3488 3538 
Q 3700 3431 3925 3369 
Q 3763 2894 3425 2475 
L 3650 2531 
Q 3888 1675 4244 1075 
Q 4469 1444 4603 1937 
Q 4738 2431 4775 2688 
Q 4963 2644 5150 2625 
Q 4919 2969 4663 3294 
L 5038 3588 
Q 5544 2925 5975 2213 
L 5569 1969 
L 5256 2463 
z
M 6006 4050 
Q 5988 3881 6006 3713 
Q 5694 3725 5381 3725 
L 3413 3725 
Q 3100 3725 2788 3713 
Q 2806 3881 2788 4050 
Q 3100 4031 3413 4031 
L 4325 4031 
Q 4019 4525 3644 4969 
L 4000 5275 
Q 4413 4788 4750 4244 
L 4406 4031 
L 5381 4031 
Q 5694 4031 6006 4050 
z
M 406 263 
Q 238 431 -25 469 
Q 194 825 466 1337 
Q 738 1850 925 2406 
Q 1113 2963 1256 3519 
L 825 3519 
Q 506 3519 188 3500 
Q 206 3700 188 3900 
Q 506 3881 825 3881 
L 1363 3881 
L 1363 4263 
Q 1363 4719 1338 5175 
Q 1556 5150 1775 5175 
Q 1756 4719 1756 4263 
L 1756 3881 
L 2525 3900 
Q 2506 3700 2525 3500 
L 1756 3519 
L 1756 2738 
L 1931 2881 
Q 2306 2300 2613 1650 
L 2231 1413 
Q 2081 1725 1919 2019 
L 1756 2300 
L 1756 69 
Q 1756 -388 1775 -850 
Q 1556 -825 1338 -850 
Q 1363 -388 1363 69 
L 1363 2438 
Q 925 1144 406 263 
z
" transform="scale(0.015625)"/>
       <path id="WenQuanYiZenHei-9a8c" d="M 5981 -106 
Q 5963 -275 5981 -444 
Q 5669 -431 5356 -431 
L 2969 -431 
Q 2656 -431 2350 -444 
Q 2363 -275 2350 -106 
Q 2656 -125 2969 -125 
L 4369 -125 
Q 4600 431 4881 1288 
L 5206 2300 
Q 5425 2206 5663 2163 
Q 5375 1188 4831 -125 
L 5356 -125 
Q 5669 -125 5981 -106 
z
M 4063 594 
Q 3788 1425 3425 2219 
L 3856 2419 
Q 4225 1600 4513 744 
L 4063 594 
z
M 3163 363 
Q 2931 1200 2613 2006 
L 3056 2175 
Q 3381 1350 3619 488 
L 3163 363 
z
M 4581 2550 
L 3513 2550 
Q 3200 2550 2888 2538 
Q 2900 2663 2894 2769 
Q 2569 2488 2206 2300 
Q 2113 2550 1894 2700 
Q 2488 2975 2975 3463 
Q 3269 3756 3394 4006 
Q 3644 4513 3794 5063 
Q 4038 4975 4294 4931 
Q 4250 4806 4206 4681 
Q 4475 3888 5025 3388 
Q 5519 2938 6169 2650 
Q 5938 2538 5838 2300 
Q 5513 2456 5200 2700 
Q 5200 2619 5206 2538 
Q 4894 2550 4581 2550 
z
M 3513 2863 
L 4994 2869 
Q 4344 3438 3988 4194 
Q 3594 3406 3013 2869 
Q 3263 2863 3513 2863 
z
M 206 444 
Q 188 756 44 963 
Q 319 956 650 1003 
Q 981 1050 1731 1281 
L 1738 1006 
Q 800 719 206 444 
z
M 525 4000 
Q 744 3950 994 3944 
Q 925 3519 875 3081 
L 763 2144 
L 1475 2144 
L 1831 4444 
L 663 4444 
Q 350 4444 38 4431 
Q 56 4600 38 4769 
Q 350 4756 663 4756 
L 2313 4756 
L 1913 2144 
L 2375 2144 
L 2200 -200 
Q 2188 -425 1988 -588 
Q 1694 -800 1181 -788 
L 944 -788 
Q 1000 -450 788 -269 
Q 1013 -294 1334 -287 
Q 1656 -281 1715 -243 
Q 1775 -206 1781 -50 
L 1925 1831 
L 294 1831 
L 444 3131 
Q 500 3569 525 4000 
z
" transform="scale(0.015625)"/>
      </defs>
      <use xlink:href="#WenQuanYiZenHei-6821"/>
      <use xlink:href="#WenQuanYiZenHei-9a8c" x="100"/>
      <use xlink:href="#WenQuanYiZenHei-503c" x="200"/>
     </g>
    </g>
    <g id="line2d_23">
     <path d="M 1298.39375 77.895375 
L 1308.39375 77.895375 
L 1318.39375 77.895375 
" style="fill: none; stroke: #ff0000; stroke-width: 1.5; stroke-linecap: square"/>
    </g>
    <g id="text_21">
     <!-- 预测值 -->
     <g transform="translate(1326.39375 81.395375)scale(0.1 -0.1)">
      <use xlink:href="#WenQuanYiZenHei-9884"/>
      <use xlink:href="#WenQuanYiZenHei-6d4b" x="100"/>
      <use xlink:href="#WenQuanYiZenHei-503c" x="200"/>
     </g>
    </g>
   </g>
  </g>
 </g>
 <defs>
  <clipPath id="p12fa70011f">
   <rect x="26.19375" y="35.061" width="1339.2" height="332.64"/>
  </clipPath>
 </defs>
</svg>
