<?xml version="1.0" encoding="utf-8" standalone="no"?>
<!DOCTYPE svg PUBLIC "-//W3C//DTD SVG 1.1//EN"
  "http://www.w3.org/Graphics/SVG/1.1/DTD/svg11.dtd">
<svg xmlns:xlink="http://www.w3.org/1999/xlink" width="1384.5875pt" height="390.337563pt" viewBox="0 0 1384.5875 390.337563" xmlns="http://www.w3.org/2000/svg" version="1.1">
 <metadata>
  <rdf:RDF xmlns:dc="http://purl.org/dc/elements/1.1/" xmlns:cc="http://creativecommons.org/ns#" xmlns:rdf="http://www.w3.org/1999/02/22-rdf-syntax-ns#">
   <cc:Work>
    <dc:type rdf:resource="http://purl.org/dc/dcmitype/StillImage"/>
    <dc:date>2022-07-17T18:18:17.763134</dc:date>
    <dc:format>image/svg+xml</dc:format>
    <dc:creator>
     <cc:Agent>
      <dc:title>Matplotlib v3.5.2, https://matplotlib.org/</dc:title>
     </cc:Agent>
    </dc:creator>
   </cc:Work>
  </rdf:RDF>
 </metadata>
 <defs>
  <style type="text/css">*{stroke-linejoin: round; stroke-linecap: butt}</style>
 </defs>
 <g id="figure_1">
  <g id="patch_1">
   <path d="M 0 390.337563 
L 1384.5875 390.337563 
L 1384.5875 0 
L 0 0 
z
" style="fill: #ffffff"/>
  </g>
  <g id="axes_1">
   <g id="patch_2">
    <path d="M 38.1875 367.620375 
L 1377.3875 367.620375 
L 1377.3875 34.980375 
L 38.1875 34.980375 
z
" style="fill: #ffffff"/>
   </g>
   <g id="matplotlib.axis_1">
    <g id="xtick_1">
     <g id="line2d_1">
      <defs>
       <path id="ma4244c5552" d="M 0 0 
L 0 3.5 
" style="stroke: #000000; stroke-width: 0.8"/>
      </defs>
      <g>
       <use xlink:href="#ma4244c5552" x="71.240265" y="367.620375" style="stroke: #000000; stroke-width: 0.8"/>
      </g>
     </g>
     <g id="text_1">
      <!-- 2020-01 -->
      <g transform="translate(51.750421 381.476625)scale(0.1 -0.1)">
       <defs>
        <path id="WenQuanYiZenHei-32" d="M 3488 0 
L 369 0 
L 369 456 
L 2150 1850 
Q 2931 2463 2931 3144 
Q 2931 3619 2488 3863 
Q 2231 4013 1931 4013 
Q 1425 4013 1113 3619 
Q 894 3356 881 3013 
L 369 3169 
Q 531 3981 1213 4300 
Q 1544 4456 1950 4456 
Q 2631 4456 3088 4044 
L 3225 3888 
L 3350 3706 
Q 3481 3444 3481 3144 
Q 3481 2313 2519 1569 
L 1069 456 
L 3488 456 
L 3488 0 
z
" transform="scale(0.015625)"/>
        <path id="WenQuanYiZenHei-30" d="M 3581 2175 
Q 3581 1288 3169 638 
Q 2713 -63 1938 -63 
Q 1025 -63 563 831 
Q 256 1425 256 2188 
Q 256 3188 700 3819 
Q 1138 4456 1888 4456 
Q 2863 4456 3306 3500 
Q 3581 2925 3581 2175 
z
M 3019 2100 
Q 3019 3356 2500 3806 
L 2350 3919 
Q 2144 4031 1888 4031 
Q 1100 4031 888 2956 
Q 819 2625 819 2225 
Q 819 1013 1338 569 
Q 1588 356 1938 356 
Q 2675 356 2925 1294 
Q 3019 1663 3019 2100 
z
" transform="scale(0.015625)"/>
        <path id="WenQuanYiZenHei-2d" d="M 1363 1444 
L 0 1444 
L 0 1844 
L 1363 1844 
L 1363 1444 
z
" transform="scale(0.015625)"/>
        <path id="WenQuanYiZenHei-31" d="M 3556 0 
L 488 0 
L 488 406 
L 1800 406 
L 1800 3725 
Q 1231 3125 588 2788 
L 588 3338 
Q 1456 3781 1931 4388 
L 2331 4388 
L 2331 406 
L 3556 406 
L 3556 0 
z
" transform="scale(0.015625)"/>
       </defs>
       <use xlink:href="#WenQuanYiZenHei-32"/>
       <use xlink:href="#WenQuanYiZenHei-30" x="59.960938"/>
       <use xlink:href="#WenQuanYiZenHei-32" x="119.921875"/>
       <use xlink:href="#WenQuanYiZenHei-30" x="179.882812"/>
       <use xlink:href="#WenQuanYiZenHei-2d" x="239.84375"/>
       <use xlink:href="#WenQuanYiZenHei-30" x="269.824219"/>
       <use xlink:href="#WenQuanYiZenHei-31" x="329.785156"/>
      </g>
     </g>
    </g>
    <g id="xtick_2">
     <g id="line2d_2">
      <g>
       <use xlink:href="#ma4244c5552" x="191.793435" y="367.620375" style="stroke: #000000; stroke-width: 0.8"/>
      </g>
     </g>
     <g id="text_2">
      <!-- 2020-04 -->
      <g transform="translate(172.303592 381.476625)scale(0.1 -0.1)">
       <defs>
        <path id="WenQuanYiZenHei-34" d="M 3631 1025 
L 2913 1025 
L 2913 0 
L 2381 0 
L 2381 1025 
L 219 1025 
L 219 1388 
L 2225 4388 
L 2913 4388 
L 2913 1444 
L 3631 1444 
L 3631 1025 
z
M 2381 1444 
L 2381 3963 
L 788 1444 
L 2381 1444 
z
" transform="scale(0.015625)"/>
       </defs>
       <use xlink:href="#WenQuanYiZenHei-32"/>
       <use xlink:href="#WenQuanYiZenHei-30" x="59.960938"/>
       <use xlink:href="#WenQuanYiZenHei-32" x="119.921875"/>
       <use xlink:href="#WenQuanYiZenHei-30" x="179.882812"/>
       <use xlink:href="#WenQuanYiZenHei-2d" x="239.84375"/>
       <use xlink:href="#WenQuanYiZenHei-30" x="269.824219"/>
       <use xlink:href="#WenQuanYiZenHei-34" x="329.785156"/>
      </g>
     </g>
    </g>
    <g id="xtick_3">
     <g id="line2d_3">
      <g>
       <use xlink:href="#ma4244c5552" x="312.346606" y="367.620375" style="stroke: #000000; stroke-width: 0.8"/>
      </g>
     </g>
     <g id="text_3">
      <!-- 2020-07 -->
      <g transform="translate(292.856762 381.476625)scale(0.1 -0.1)">
       <defs>
        <path id="WenQuanYiZenHei-37" d="M 3400 4056 
Q 1838 2175 1838 0 
L 1275 0 
Q 1269 1438 2056 2825 
Q 2381 3400 2825 3913 
L 444 3913 
L 500 4388 
L 3400 4388 
L 3400 4056 
z
" transform="scale(0.015625)"/>
       </defs>
       <use xlink:href="#WenQuanYiZenHei-32"/>
       <use xlink:href="#WenQuanYiZenHei-30" x="59.960938"/>
       <use xlink:href="#WenQuanYiZenHei-32" x="119.921875"/>
       <use xlink:href="#WenQuanYiZenHei-30" x="179.882812"/>
       <use xlink:href="#WenQuanYiZenHei-2d" x="239.84375"/>
       <use xlink:href="#WenQuanYiZenHei-30" x="269.824219"/>
       <use xlink:href="#WenQuanYiZenHei-37" x="329.785156"/>
      </g>
     </g>
    </g>
    <g id="xtick_4">
     <g id="line2d_4">
      <g>
       <use xlink:href="#ma4244c5552" x="434.224536" y="367.620375" style="stroke: #000000; stroke-width: 0.8"/>
      </g>
     </g>
     <g id="text_4">
      <!-- 2020-10 -->
      <g transform="translate(414.734693 381.476625)scale(0.1 -0.1)">
       <use xlink:href="#WenQuanYiZenHei-32"/>
       <use xlink:href="#WenQuanYiZenHei-30" x="59.960938"/>
       <use xlink:href="#WenQuanYiZenHei-32" x="119.921875"/>
       <use xlink:href="#WenQuanYiZenHei-30" x="179.882812"/>
       <use xlink:href="#WenQuanYiZenHei-2d" x="239.84375"/>
       <use xlink:href="#WenQuanYiZenHei-31" x="269.824219"/>
       <use xlink:href="#WenQuanYiZenHei-30" x="329.785156"/>
      </g>
     </g>
    </g>
    <g id="xtick_5">
     <g id="line2d_5">
      <g>
       <use xlink:href="#ma4244c5552" x="556.102467" y="367.620375" style="stroke: #000000; stroke-width: 0.8"/>
      </g>
     </g>
     <g id="text_5">
      <!-- 2021-01 -->
      <g transform="translate(536.612623 381.476625)scale(0.1 -0.1)">
       <use xlink:href="#WenQuanYiZenHei-32"/>
       <use xlink:href="#WenQuanYiZenHei-30" x="59.960938"/>
       <use xlink:href="#WenQuanYiZenHei-32" x="119.921875"/>
       <use xlink:href="#WenQuanYiZenHei-31" x="179.882812"/>
       <use xlink:href="#WenQuanYiZenHei-2d" x="239.84375"/>
       <use xlink:href="#WenQuanYiZenHei-30" x="269.824219"/>
       <use xlink:href="#WenQuanYiZenHei-31" x="329.785156"/>
      </g>
     </g>
    </g>
    <g id="xtick_6">
     <g id="line2d_6">
      <g>
       <use xlink:href="#ma4244c5552" x="675.330877" y="367.620375" style="stroke: #000000; stroke-width: 0.8"/>
      </g>
     </g>
     <g id="text_6">
      <!-- 2021-04 -->
      <g transform="translate(655.841033 381.476625)scale(0.1 -0.1)">
       <use xlink:href="#WenQuanYiZenHei-32"/>
       <use xlink:href="#WenQuanYiZenHei-30" x="59.960938"/>
       <use xlink:href="#WenQuanYiZenHei-32" x="119.921875"/>
       <use xlink:href="#WenQuanYiZenHei-31" x="179.882812"/>
       <use xlink:href="#WenQuanYiZenHei-2d" x="239.84375"/>
       <use xlink:href="#WenQuanYiZenHei-30" x="269.824219"/>
       <use xlink:href="#WenQuanYiZenHei-34" x="329.785156"/>
      </g>
     </g>
    </g>
    <g id="xtick_7">
     <g id="line2d_7">
      <g>
       <use xlink:href="#ma4244c5552" x="795.884048" y="367.620375" style="stroke: #000000; stroke-width: 0.8"/>
      </g>
     </g>
     <g id="text_7">
      <!-- 2021-07 -->
      <g transform="translate(776.394204 381.476625)scale(0.1 -0.1)">
       <use xlink:href="#WenQuanYiZenHei-32"/>
       <use xlink:href="#WenQuanYiZenHei-30" x="59.960938"/>
       <use xlink:href="#WenQuanYiZenHei-32" x="119.921875"/>
       <use xlink:href="#WenQuanYiZenHei-31" x="179.882812"/>
       <use xlink:href="#WenQuanYiZenHei-2d" x="239.84375"/>
       <use xlink:href="#WenQuanYiZenHei-30" x="269.824219"/>
       <use xlink:href="#WenQuanYiZenHei-37" x="329.785156"/>
      </g>
     </g>
    </g>
    <g id="xtick_8">
     <g id="line2d_8">
      <g>
       <use xlink:href="#ma4244c5552" x="917.761978" y="367.620375" style="stroke: #000000; stroke-width: 0.8"/>
      </g>
     </g>
     <g id="text_8">
      <!-- 2021-10 -->
      <g transform="translate(898.272134 381.476625)scale(0.1 -0.1)">
       <use xlink:href="#WenQuanYiZenHei-32"/>
       <use xlink:href="#WenQuanYiZenHei-30" x="59.960938"/>
       <use xlink:href="#WenQuanYiZenHei-32" x="119.921875"/>
       <use xlink:href="#WenQuanYiZenHei-31" x="179.882812"/>
       <use xlink:href="#WenQuanYiZenHei-2d" x="239.84375"/>
       <use xlink:href="#WenQuanYiZenHei-31" x="269.824219"/>
       <use xlink:href="#WenQuanYiZenHei-30" x="329.785156"/>
      </g>
     </g>
    </g>
    <g id="xtick_9">
     <g id="line2d_9">
      <g>
       <use xlink:href="#ma4244c5552" x="1039.639909" y="367.620375" style="stroke: #000000; stroke-width: 0.8"/>
      </g>
     </g>
     <g id="text_9">
      <!-- 2022-01 -->
      <g transform="translate(1020.150065 381.476625)scale(0.1 -0.1)">
       <use xlink:href="#WenQuanYiZenHei-32"/>
       <use xlink:href="#WenQuanYiZenHei-30" x="59.960938"/>
       <use xlink:href="#WenQuanYiZenHei-32" x="119.921875"/>
       <use xlink:href="#WenQuanYiZenHei-32" x="179.882812"/>
       <use xlink:href="#WenQuanYiZenHei-2d" x="239.84375"/>
       <use xlink:href="#WenQuanYiZenHei-30" x="269.824219"/>
       <use xlink:href="#WenQuanYiZenHei-31" x="329.785156"/>
      </g>
     </g>
    </g>
    <g id="xtick_10">
     <g id="line2d_10">
      <g>
       <use xlink:href="#ma4244c5552" x="1158.868319" y="367.620375" style="stroke: #000000; stroke-width: 0.8"/>
      </g>
     </g>
     <g id="text_10">
      <!-- 2022-04 -->
      <g transform="translate(1139.378475 381.476625)scale(0.1 -0.1)">
       <use xlink:href="#WenQuanYiZenHei-32"/>
       <use xlink:href="#WenQuanYiZenHei-30" x="59.960938"/>
       <use xlink:href="#WenQuanYiZenHei-32" x="119.921875"/>
       <use xlink:href="#WenQuanYiZenHei-32" x="179.882812"/>
       <use xlink:href="#WenQuanYiZenHei-2d" x="239.84375"/>
       <use xlink:href="#WenQuanYiZenHei-30" x="269.824219"/>
       <use xlink:href="#WenQuanYiZenHei-34" x="329.785156"/>
      </g>
     </g>
    </g>
    <g id="xtick_11">
     <g id="line2d_11">
      <g>
       <use xlink:href="#ma4244c5552" x="1279.42149" y="367.620375" style="stroke: #000000; stroke-width: 0.8"/>
      </g>
     </g>
     <g id="text_11">
      <!-- 2022-07 -->
      <g transform="translate(1259.931646 381.476625)scale(0.1 -0.1)">
       <use xlink:href="#WenQuanYiZenHei-32"/>
       <use xlink:href="#WenQuanYiZenHei-30" x="59.960938"/>
       <use xlink:href="#WenQuanYiZenHei-32" x="119.921875"/>
       <use xlink:href="#WenQuanYiZenHei-32" x="179.882812"/>
       <use xlink:href="#WenQuanYiZenHei-2d" x="239.84375"/>
       <use xlink:href="#WenQuanYiZenHei-30" x="269.824219"/>
       <use xlink:href="#WenQuanYiZenHei-37" x="329.785156"/>
      </g>
     </g>
    </g>
   </g>
   <g id="matplotlib.axis_2">
    <g id="ytick_1">
     <g id="line2d_12">
      <defs>
       <path id="mcd027de193" d="M 0 0 
L -3.5 0 
" style="stroke: #000000; stroke-width: 0.8"/>
      </defs>
      <g>
       <use xlink:href="#mcd027de193" x="38.1875" y="353.073373" style="stroke: #000000; stroke-width: 0.8"/>
      </g>
     </g>
     <g id="text_12">
      <!-- 0 -->
      <g transform="translate(25.190625 356.501498)scale(0.1 -0.1)">
       <use xlink:href="#WenQuanYiZenHei-30"/>
      </g>
     </g>
    </g>
    <g id="ytick_2">
     <g id="line2d_13">
      <g>
       <use xlink:href="#mcd027de193" x="38.1875" y="281.448636" style="stroke: #000000; stroke-width: 0.8"/>
      </g>
     </g>
     <g id="text_13">
      <!-- 500 -->
      <g transform="translate(13.196875 284.876761)scale(0.1 -0.1)">
       <defs>
        <path id="WenQuanYiZenHei-35" d="M 3531 1488 
Q 3531 688 2913 250 
Q 2456 -63 1844 -63 
Q 1175 -63 706 350 
Q 413 613 306 975 
L 781 1131 
Q 1000 538 1569 406 
Q 1706 369 1856 369 
Q 2550 369 2850 869 
Q 3000 1131 3000 1494 
Q 3000 2056 2581 2356 
Q 2319 2538 1969 2538 
Q 1400 2538 1031 2075 
Q 981 2013 938 1938 
L 500 2031 
L 644 4388 
L 3244 4388 
L 3200 3919 
L 1044 3919 
L 950 2500 
Q 1431 2975 2006 2975 
Q 2713 2975 3163 2475 
Q 3531 2063 3531 1488 
z
" transform="scale(0.015625)"/>
       </defs>
       <use xlink:href="#WenQuanYiZenHei-35"/>
       <use xlink:href="#WenQuanYiZenHei-30" x="59.960938"/>
       <use xlink:href="#WenQuanYiZenHei-30" x="119.921875"/>
      </g>
     </g>
    </g>
    <g id="ytick_3">
     <g id="line2d_14">
      <g>
       <use xlink:href="#mcd027de193" x="38.1875" y="209.8239" style="stroke: #000000; stroke-width: 0.8"/>
      </g>
     </g>
     <g id="text_14">
      <!-- 1000 -->
      <g transform="translate(7.2 213.252025)scale(0.1 -0.1)">
       <use xlink:href="#WenQuanYiZenHei-31"/>
       <use xlink:href="#WenQuanYiZenHei-30" x="59.960938"/>
       <use xlink:href="#WenQuanYiZenHei-30" x="119.921875"/>
       <use xlink:href="#WenQuanYiZenHei-30" x="179.882812"/>
      </g>
     </g>
    </g>
    <g id="ytick_4">
     <g id="line2d_15">
      <g>
       <use xlink:href="#mcd027de193" x="38.1875" y="138.199164" style="stroke: #000000; stroke-width: 0.8"/>
      </g>
     </g>
     <g id="text_15">
      <!-- 1500 -->
      <g transform="translate(7.2 141.627289)scale(0.1 -0.1)">
       <use xlink:href="#WenQuanYiZenHei-31"/>
       <use xlink:href="#WenQuanYiZenHei-35" x="59.960938"/>
       <use xlink:href="#WenQuanYiZenHei-30" x="119.921875"/>
       <use xlink:href="#WenQuanYiZenHei-30" x="179.882812"/>
      </g>
     </g>
    </g>
    <g id="ytick_5">
     <g id="line2d_16">
      <g>
       <use xlink:href="#mcd027de193" x="38.1875" y="66.574427" style="stroke: #000000; stroke-width: 0.8"/>
      </g>
     </g>
     <g id="text_16">
      <!-- 2000 -->
      <g transform="translate(7.2 70.002552)scale(0.1 -0.1)">
       <use xlink:href="#WenQuanYiZenHei-32"/>
       <use xlink:href="#WenQuanYiZenHei-30" x="59.960938"/>
       <use xlink:href="#WenQuanYiZenHei-30" x="119.921875"/>
       <use xlink:href="#WenQuanYiZenHei-30" x="179.882812"/>
      </g>
     </g>
    </g>
   </g>
   <g id="line2d_17">
    <path d="M 99.060227 352.500375 
L 100.384987 352.500375 
L 101.709748 351.927377 
L 103.034508 351.640878 
L 104.359268 351.06788 
L 105.684028 349.778635 
L 107.008788 349.635386 
L 108.333548 349.205637 
L 109.658308 348.632639 
L 110.983068 348.48939 
L 112.307828 347.200145 
L 113.632589 346.197398 
L 114.957349 344.478405 
L 116.282109 343.475658 
L 117.606869 343.189159 
L 118.931629 341.756665 
L 120.256389 341.470166 
L 121.581149 340.467419 
L 122.905909 340.037671 
L 124.230669 339.464673 
L 125.55543 337.888929 
L 126.88019 337.029432 
L 128.20495 336.026686 
L 129.52971 335.883436 
L 132.17923 335.310438 
L 133.50399 335.167189 
L 134.82875 334.73744 
L 136.15351 334.450941 
L 138.803031 334.164442 
L 140.127791 333.734694 
L 145.426831 333.734694 
L 146.751591 333.591445 
L 173.246794 333.591445 
L 174.571554 333.448195 
L 178.545834 333.448195 
L 181.195354 332.302199 
L 182.520115 332.302199 
L 183.844875 331.442702 
L 185.169635 330.869705 
L 186.494395 330.010208 
L 187.819155 329.29396 
L 189.143915 328.147965 
L 190.468675 328.147965 
L 191.793435 327.861466 
L 193.118195 327.861466 
L 194.442956 327.288468 
L 201.066756 327.288468 
L 202.391516 327.001969 
L 203.716276 326.858719 
L 206.365797 326.858719 
L 209.015317 326.57222 
L 210.340077 326.57222 
L 211.664837 326.428971 
L 212.989597 325.999223 
L 220.938158 325.999223 
L 222.262918 325.855973 
L 239.484799 325.855973 
L 240.80956 325.712724 
L 250.08288 325.712724 
L 251.40764 325.569474 
L 277.902843 325.569474 
L 279.227603 325.426225 
L 281.877123 325.426225 
L 284.526643 325.139726 
L 285.851403 325.139726 
L 287.176164 324.996476 
L 292.475204 324.996476 
L 293.799964 324.853227 
L 299.099005 324.853227 
L 300.423765 324.709977 
L 314.996126 324.709977 
L 316.320886 324.566728 
L 324.269447 324.566728 
L 325.594207 323.99373 
L 342.816088 323.99373 
L 344.140849 323.85048 
L 349.439889 323.85048 
L 350.764649 323.707231 
L 370.636051 323.707231 
L 371.960811 323.420732 
L 373.285571 323.420732 
L 374.610331 323.134233 
L 375.935091 323.134233 
L 377.259851 322.990984 
L 378.584611 322.131487 
L 379.909372 322.131487 
L 381.234132 321.844988 
L 382.558892 321.844988 
L 385.208412 321.558489 
L 389.182692 321.558489 
L 390.507453 321.415239 
L 391.832213 320.698992 
L 393.156973 320.269244 
L 395.806493 320.269244 
L 398.456013 319.982745 
L 399.780773 319.982745 
L 402.430294 319.696246 
L 407.729334 319.696246 
L 409.054094 319.552996 
L 414.353135 319.552996 
L 415.677895 319.123248 
L 419.652175 319.123248 
L 422.301695 318.836749 
L 424.951216 318.836749 
L 426.275976 318.693499 
L 435.549296 318.693499 
L 436.874057 318.55025 
L 438.198817 318.55025 
L 439.523577 318.407 
L 443.497857 318.407 
L 444.822617 318.120502 
L 446.147377 318.120502 
L 447.472137 317.977252 
L 451.446418 317.977252 
L 452.771178 317.690753 
L 454.095938 317.117755 
L 455.420698 316.974506 
L 458.070218 316.401508 
L 462.044499 316.401508 
L 463.369259 315.971759 
L 464.694019 315.82851 
L 467.343539 315.82851 
L 468.668299 315.68526 
L 471.31782 315.112263 
L 472.64258 314.396015 
L 473.96734 314.396015 
L 475.2921 314.252766 
L 476.61686 313.966267 
L 479.26638 313.966267 
L 480.59114 313.679768 
L 483.240661 313.679768 
L 485.890181 313.393269 
L 487.214941 312.533772 
L 488.539701 312.247273 
L 489.864461 312.247273 
L 492.513981 311.674275 
L 493.838741 311.674275 
L 496.488262 311.387776 
L 499.137782 311.387776 
L 500.462542 310.671529 
L 504.436822 310.24178 
L 508.411103 310.24178 
L 509.735863 310.098531 
L 519.009184 310.098531 
L 520.333944 309.955282 
L 526.957744 309.955282 
L 528.282504 309.812032 
L 532.256785 309.812032 
L 533.581545 309.668783 
L 536.231065 309.668783 
L 537.555825 309.525533 
L 548.153906 309.525533 
L 550.803426 309.239034 
L 552.128187 308.809286 
L 554.777707 308.809286 
L 556.102467 308.379537 
L 561.401507 307.806539 
L 565.375788 307.806539 
L 566.700548 307.233542 
L 569.350068 306.660544 
L 573.324348 306.660544 
L 574.649108 306.230795 
L 577.298629 305.944296 
L 578.623389 305.944296 
L 579.948149 305.801047 
L 581.272909 305.084799 
L 583.922429 305.084799 
L 585.247189 304.94155 
L 586.57195 304.655051 
L 587.89671 304.655051 
L 590.54623 304.082053 
L 591.87099 303.938804 
L 594.52051 303.938804 
L 595.84527 303.795554 
L 599.819551 303.795554 
L 602.469071 303.509055 
L 606.443351 303.509055 
L 607.768111 303.365806 
L 610.417632 303.365806 
L 611.742392 303.222556 
L 613.067152 303.222556 
L 614.391912 303.079307 
L 618.366192 303.079307 
L 619.690952 302.792808 
L 622.340473 302.792808 
L 623.665233 302.649558 
L 624.989993 302.649558 
L 627.639513 302.363059 
L 628.964273 302.363059 
L 631.613793 302.076561 
L 632.938554 302.076561 
L 634.263314 301.933311 
L 636.912834 301.933311 
L 638.237594 301.790062 
L 639.562354 301.360313 
L 647.510915 301.360313 
L 648.835675 301.217064 
L 650.160435 301.217064 
L 652.809955 300.930565 
L 654.134715 300.930565 
L 655.459475 300.500816 
L 656.784236 300.357567 
L 658.108996 300.357567 
L 659.433756 300.071068 
L 662.083276 300.071068 
L 663.408036 299.784569 
L 667.382317 299.784569 
L 668.707077 299.64132 
L 676.655637 299.64132 
L 679.305158 299.354821 
L 685.928958 299.354821 
L 687.253718 299.211571 
L 689.903238 299.211571 
L 691.227999 299.068322 
L 693.877519 299.068322 
L 695.202279 298.781823 
L 696.527039 298.781823 
L 697.851799 298.638573 
L 699.176559 298.638573 
L 700.501319 298.352074 
L 701.826079 298.208825 
L 704.4756 298.208825 
L 705.80036 298.065575 
L 708.44988 298.065575 
L 709.77464 297.922326 
L 717.723201 297.922326 
L 719.047961 297.779076 
L 721.697481 297.779076 
L 723.022241 297.635827 
L 728.321282 297.635827 
L 729.646042 297.492577 
L 737.594603 297.492577 
L 738.919363 297.349328 
L 741.568883 297.349328 
L 744.218403 297.062829 
L 745.543163 296.77633 
L 760.115525 296.77633 
L 761.440285 296.633081 
L 762.765045 296.633081 
L 764.089805 296.489831 
L 768.064085 296.489831 
L 769.388845 296.346582 
L 770.713605 296.060083 
L 776.012646 296.060083 
L 777.337406 295.916833 
L 785.285967 295.916833 
L 786.610727 295.773584 
L 787.935487 295.773584 
L 789.260247 295.630334 
L 797.208808 295.630334 
L 798.533568 295.487085 
L 801.183088 295.487085 
L 802.507848 295.200586 
L 805.157368 295.200586 
L 806.482129 294.914087 
L 809.131649 294.914087 
L 811.781169 294.627588 
L 813.105929 294.627588 
L 814.430689 294.05459 
L 818.40497 294.05459 
L 819.72973 293.624842 
L 822.37925 293.624842 
L 826.35353 293.195093 
L 829.00305 293.195093 
L 830.327811 293.051844 
L 832.977331 293.051844 
L 835.626851 292.192347 
L 836.951611 292.192347 
L 838.276371 291.762598 
L 839.601131 291.619349 
L 840.925892 291.619349 
L 842.250652 291.4761 
L 843.575412 290.759852 
L 847.549692 290.759852 
L 848.874452 290.616603 
L 851.523972 290.616603 
L 852.848733 290.330104 
L 854.173493 289.900355 
L 855.498253 289.757106 
L 856.823013 289.757106 
L 858.147773 289.327357 
L 859.472533 287.751613 
L 863.446813 287.321865 
L 864.771574 286.892116 
L 870.070614 286.319119 
L 871.395374 286.319119 
L 872.720134 285.746121 
L 874.044894 285.459622 
L 875.369655 285.316372 
L 876.694415 285.029873 
L 879.343935 285.029873 
L 880.668695 284.886624 
L 881.993455 284.600125 
L 889.942016 284.600125 
L 891.266776 284.456875 
L 893.916296 284.456875 
L 895.241056 284.313626 
L 899.215337 284.313626 
L 900.540097 284.170376 
L 904.514377 284.170376 
L 905.839137 283.740628 
L 907.163897 283.740628 
L 908.488657 283.597379 
L 909.813417 283.597379 
L 912.462938 283.31088 
L 916.437218 283.31088 
L 917.761978 282.881131 
L 924.385779 282.881131 
L 927.035299 282.308133 
L 931.009579 282.308133 
L 932.334339 282.164884 
L 933.6591 281.735135 
L 934.98386 281.448636 
L 944.25718 281.448636 
L 945.581941 281.305387 
L 946.906701 281.305387 
L 948.231461 281.162138 
L 949.556221 281.162138 
L 950.880981 281.018888 
L 954.855261 281.018888 
L 956.180022 280.875639 
L 957.504782 280.875639 
L 958.829542 280.732389 
L 961.479062 280.732389 
L 964.128582 280.44589 
L 966.778102 280.44589 
L 968.102863 280.159391 
L 969.427623 280.159391 
L 970.752383 280.016142 
L 972.077143 280.016142 
L 973.401903 279.586393 
L 974.726663 278.870146 
L 977.376183 278.870146 
L 978.700943 278.726896 
L 980.025704 277.580901 
L 982.675224 277.580901 
L 983.999984 277.437651 
L 989.299024 277.437651 
L 991.948545 277.151152 
L 994.598065 277.151152 
L 995.922825 277.007903 
L 997.247585 277.007903 
L 999.897105 276.721404 
L 1001.221865 276.721404 
L 1002.546626 276.434905 
L 1005.196146 276.434905 
L 1007.845666 276.148406 
L 1018.443747 276.148406 
L 1019.768507 275.861907 
L 1023.742787 275.432159 
L 1025.067547 275.00241 
L 1027.717068 275.00241 
L 1030.366588 272.567169 
L 1031.691348 272.28067 
L 1033.016108 272.137421 
L 1034.340868 271.134674 
L 1036.990389 269.988679 
L 1038.315149 268.699433 
L 1039.639909 267.983186 
L 1040.964669 267.696687 
L 1042.289429 267.553438 
L 1043.614189 266.83719 
L 1044.938949 266.264192 
L 1046.263709 264.974947 
L 1047.588469 264.11545 
L 1048.91323 263.542452 
L 1050.23799 259.961216 
L 1051.56275 257.382725 
L 1052.88751 252.082495 
L 1054.21227 245.349769 
L 1055.53703 240.049539 
L 1056.86179 234.17631 
L 1058.18655 229.305828 
L 1059.51131 217.84587 
L 1060.836071 215.26738 
L 1063.485591 211.256395 
L 1064.810351 210.110399 
L 1066.135111 209.250902 
L 1067.459871 208.534655 
L 1068.784631 208.104906 
L 1070.109391 207.961657 
L 1071.434151 207.675158 
L 1072.758912 207.531908 
L 1074.083672 206.958911 
L 1075.408432 206.099414 
L 1076.733192 205.526416 
L 1078.057952 203.950672 
L 1079.382712 202.661426 
L 1080.707472 200.942433 
L 1082.032232 199.509938 
L 1083.356993 198.93694 
L 1084.681753 198.507192 
L 1086.006513 198.220693 
L 1087.331273 198.077443 
L 1088.656033 197.790944 
L 1089.980793 197.647695 
L 1091.305553 197.647695 
L 1095.279834 197.217946 
L 1097.929354 197.217946 
L 1099.254114 197.074697 
L 1101.903634 197.074697 
L 1103.228394 196.644949 
L 1105.877914 196.35845 
L 1107.202675 196.35845 
L 1108.527435 195.928701 
L 1111.176955 195.642202 
L 1112.501715 194.782705 
L 1113.826475 194.066458 
L 1115.151235 192.777213 
L 1116.475995 191.774466 
L 1117.800756 191.201469 
L 1119.125516 190.91497 
L 1120.450276 190.341972 
L 1121.775036 188.336479 
L 1124.424556 188.04998 
L 1125.749316 187.190483 
L 1127.074076 185.47149 
L 1128.398836 182.74975 
L 1129.723597 179.311762 
L 1131.048357 174.011532 
L 1132.373117 170.716794 
L 1133.697877 164.270568 
L 1137.672157 140.634405 
L 1138.996917 131.609688 
L 1140.321677 127.455453 
L 1141.646438 123.874216 
L 1142.971198 120.722728 
L 1144.295958 119.433483 
L 1148.270238 107.687026 
L 1149.594998 102.673294 
L 1150.919758 100.238053 
L 1153.569279 98.089311 
L 1154.894039 97.802812 
L 1156.218799 97.229814 
L 1160.193079 96.800066 
L 1161.517839 96.800066 
L 1162.842599 96.370317 
L 1164.16736 95.79732 
L 1165.49212 95.79732 
L 1166.81688 95.65407 
L 1168.14164 95.65407 
L 1169.4664 95.510821 
L 1172.11592 95.510821 
L 1173.44068 95.367571 
L 1174.76544 95.367571 
L 1176.090201 95.224322 
L 1188.013042 95.224322 
L 1189.337802 94.937823 
L 1191.987322 94.937823 
L 1193.312082 94.794573 
L 1197.286362 94.794573 
L 1198.611123 94.651324 
L 1217.157764 94.651324 
L 1218.482524 93.648577 
L 1219.807284 91.356586 
L 1222.456805 89.064594 
L 1223.781565 88.205098 
L 1225.106325 83.048117 
L 1226.431085 78.464133 
L 1227.755845 76.172142 
L 1229.080605 75.169395 
L 1230.405365 73.593651 
L 1231.730125 72.590905 
L 1233.054885 72.017907 
L 1234.379646 71.015161 
L 1235.704406 70.155664 
L 1243.652966 70.155664 
L 1244.977727 69.869165 
L 1246.302487 69.725916 
L 1251.601527 69.725916 
L 1252.926287 69.582666 
L 1254.251047 69.296167 
L 1255.575807 68.866419 
L 1256.900568 68.723169 
L 1262.199608 68.723169 
L 1263.524368 68.293421 
L 1264.849128 68.150171 
L 1266.173888 67.577173 
L 1267.498648 67.577173 
L 1270.148169 67.290674 
L 1271.472929 66.144679 
L 1272.797689 65.428431 
L 1276.771969 65.428431 
L 1278.096729 65.141932 
L 1279.42149 64.998683 
L 1280.74625 64.998683 
L 1282.07101 64.855433 
L 1283.39577 64.282436 
L 1286.04529 63.995937 
L 1287.37005 63.279689 
L 1288.69481 62.849941 
L 1290.01957 62.706691 
L 1291.344331 62.420192 
L 1292.669091 61.847195 
L 1293.993851 61.560696 
L 1295.318611 61.417446 
L 1296.643371 61.130947 
L 1297.968131 59.984951 
L 1299.292891 59.411953 
L 1299.292891 59.411953 
" clip-path="url(#pf92138ccbb)" style="fill: none; stroke: #0000ff; stroke-width: 1.5; stroke-linecap: square"/>
   </g>
   <g id="line2d_18">
    <path d="M 1059.51131 208.599556 
L 1060.836071 210.339096 
L 1062.160831 210.22638 
L 1063.485591 208.887917 
L 1066.135111 208.138619 
L 1067.459871 207.678841 
L 1068.784631 207.525009 
L 1070.109391 207.664529 
L 1071.434151 207.384913 
L 1072.758912 207.336857 
L 1074.083672 206.519104 
L 1075.408432 205.387819 
L 1076.733192 204.904575 
L 1078.057952 202.711091 
L 1079.382712 201.389683 
L 1080.707472 199.381054 
L 1082.032232 198.032023 
L 1083.356993 198.045042 
L 1086.006513 197.826317 
L 1087.331273 197.845695 
L 1088.656033 197.52374 
L 1089.980793 197.460763 
L 1091.305553 197.581818 
L 1095.279834 197.078083 
L 1097.929354 197.200577 
L 1099.254114 196.975808 
L 1101.903634 197.062416 
L 1103.228394 196.362319 
L 1107.202675 196.301867 
L 1108.527435 195.630459 
L 1111.176955 195.479704 
L 1112.501715 194.168836 
L 1113.826475 193.38629 
L 1115.151235 191.702611 
L 1116.475995 190.746398 
L 1117.800756 190.4681 
L 1119.125516 190.47099 
L 1120.450276 189.814441 
L 1121.775036 186.851832 
L 1123.099796 187.577261 
L 1124.424556 187.740141 
L 1125.749316 186.52469 
L 1127.074076 184.123652 
L 1128.398836 180.512184 
L 1129.723597 176.296813 
L 1131.048357 169.516652 
L 1132.373117 166.999117 
L 1133.697877 158.785903 
L 1135.022637 149.592827 
L 1136.347397 141.5797 
L 1137.672157 132.659065 
L 1138.996917 122.95478 
L 1140.321677 121.715146 
L 1142.971198 117.151655 
L 1144.295958 117.340103 
L 1145.620718 112.087292 
L 1146.945478 107.40266 
L 1148.270238 104.005576 
L 1149.594998 98.129069 
L 1150.919758 97.05959 
L 1152.244518 97.229804 
L 1153.569279 96.783668 
L 1154.894039 97.157159 
L 1156.218799 96.631212 
L 1157.543559 96.782845 
L 1161.517839 96.742561 
L 1164.16736 95.321033 
L 1165.49212 95.629473 
L 1166.81688 95.502152 
L 1168.14164 95.600533 
L 1169.4664 95.399187 
L 1172.11592 95.496957 
L 1173.44068 95.269918 
L 1174.76544 95.333157 
L 1176.090201 95.119427 
L 1180.064481 95.219731 
L 1188.013042 95.224313 
L 1189.337802 94.752285 
L 1191.987322 94.914781 
L 1193.312082 94.693686 
L 1197.286362 94.790158 
L 1198.611123 94.557001 
L 1202.585403 94.647196 
L 1217.157764 94.651324 
L 1218.482524 92.999207 
L 1219.807284 89.643467 
L 1221.132044 88.864736 
L 1222.456805 87.848167 
L 1223.781565 87.219816 
L 1225.106325 79.361275 
L 1226.431085 74.19631 
L 1227.755845 73.183852 
L 1229.080605 73.466928 
L 1230.405365 71.973249 
L 1231.730125 71.370492 
L 1233.054885 71.216755 
L 1234.379646 70.083458 
L 1235.704406 69.270721 
L 1237.029166 69.843803 
L 1238.353926 70.045762 
L 1242.328206 70.150854 
L 1243.652966 70.153969 
L 1244.977727 69.683033 
L 1246.302487 69.567554 
L 1248.952007 69.706248 
L 1251.601527 69.723473 
L 1252.926287 69.489038 
L 1254.251047 69.077637 
L 1255.575807 68.511105 
L 1256.900568 68.505187 
L 1259.550088 68.696098 
L 1262.199608 68.719807 
L 1263.524368 68.013934 
L 1264.849128 67.958911 
L 1266.173888 67.138703 
L 1267.498648 67.422653 
L 1270.148169 67.146025 
L 1271.472929 65.351565 
L 1272.797689 64.685096 
L 1274.122449 65.166474 
L 1276.771969 65.395899 
L 1278.096729 64.944933 
L 1279.42149 64.836492 
L 1280.74625 64.941525 
L 1282.07101 64.742523 
L 1283.39577 63.871576 
L 1284.72053 63.901629 
L 1286.04529 63.819452 
L 1287.37005 62.753659 
L 1288.69481 62.386262 
L 1290.01957 62.45052 
L 1291.344331 62.144381 
L 1292.669091 61.378928 
L 1293.993851 61.21014 
L 1295.318611 61.20114 
L 1296.643371 60.869185 
L 1297.968131 59.150566 
L 1299.292891 58.746841 
L 1299.292891 58.746841 
" clip-path="url(#pf92138ccbb)" style="fill: none; stroke: #ffa500; stroke-width: 1.5; stroke-linecap: square"/>
   </g>
   <g id="line2d_19">
    <path d="M 1299.292891 58.746841 
L 1300.617651 58.081728 
L 1301.942411 57.416615 
L 1303.267172 56.751502 
L 1304.591932 56.08639 
L 1305.916692 55.421277 
L 1307.241452 54.756164 
L 1308.566212 54.091051 
L 1309.890972 53.425939 
L 1311.215732 52.760826 
L 1312.540492 52.095713 
L 1313.865252 51.4306 
L 1315.190013 50.765488 
L 1316.514773 50.100375 
" clip-path="url(#pf92138ccbb)" style="fill: none; stroke: #ff0000; stroke-width: 1.5; stroke-linecap: square"/>
   </g>
   <g id="patch_3">
    <path d="M 38.1875 367.620375 
L 38.1875 34.980375 
" style="fill: none; stroke: #000000; stroke-width: 0.8; stroke-linejoin: miter; stroke-linecap: square"/>
   </g>
   <g id="patch_4">
    <path d="M 1377.3875 367.620375 
L 1377.3875 34.980375 
" style="fill: none; stroke: #000000; stroke-width: 0.8; stroke-linejoin: miter; stroke-linecap: square"/>
   </g>
   <g id="patch_5">
    <path d="M 38.1875 367.620375 
L 1377.3875 367.620375 
" style="fill: none; stroke: #000000; stroke-width: 0.8; stroke-linejoin: miter; stroke-linecap: square"/>
   </g>
   <g id="patch_6">
    <path d="M 38.1875 34.980375 
L 1377.3875 34.980375 
" style="fill: none; stroke: #000000; stroke-width: 0.8; stroke-linejoin: miter; stroke-linecap: square"/>
   </g>
   <g id="text_17">
    <!-- 累计确诊预测 - 天津 -->
    <g transform="translate(654.390313 16.96125)scale(0.12 -0.12)">
     <defs>
      <path id="WenQuanYiZenHei-7d2f" d="M 5963 -681 
Q 5363 -81 4706 456 
L 5000 819 
Q 5675 269 6294 -350 
L 5963 -681 
z
M 1944 738 
Q 2094 556 2281 413 
Q 1575 -356 375 -706 
Q 350 -481 200 -319 
Q 725 -181 1122 69 
Q 1519 319 1944 738 
z
M 3244 -169 
L 3244 1063 
L 869 881 
L 850 1181 
Q 1431 1325 2969 1988 
L 1119 1931 
L 1113 2231 
Q 1350 2263 1862 2497 
Q 2375 2731 2800 2988 
L 1094 2988 
Q 1169 4006 1094 5019 
L 5506 5019 
Q 5425 4006 5500 2988 
L 3431 2988 
Q 3475 2931 3525 2875 
Q 2856 2494 2281 2256 
L 3388 2269 
L 3650 2288 
Q 4338 2606 4650 2800 
Q 4744 2563 4881 2344 
Q 4644 2225 3975 1956 
L 2269 1281 
L 4444 1425 
L 4813 1469 
L 4681 1588 
L 4988 1938 
Q 5481 1500 5863 963 
L 5481 694 
Q 5300 950 5081 1188 
L 4463 1163 
L 3669 1100 
L 3669 -250 
Q 3669 -444 3488 -594 
Q 3225 -819 2569 -813 
Q 2638 -513 2431 -294 
Q 2619 -319 2900 -322 
Q 3181 -325 3212 -294 
Q 3244 -263 3244 -169 
z
M 3513 4131 
L 5081 4131 
L 5081 4725 
L 3513 4725 
L 3513 4131 
z
M 3088 4131 
L 3088 4725 
L 1519 4725 
L 1519 4131 
L 3088 4131 
z
M 3513 3856 
L 3513 3288 
L 5081 3288 
L 5081 3856 
L 3513 3856 
z
M 3088 3856 
L 1519 3856 
L 1519 3288 
L 3088 3288 
L 3088 3856 
z
" transform="scale(0.015625)"/>
      <path id="WenQuanYiZenHei-8ba1" d="M 4569 -769 
Q 4313 -738 4056 -769 
Q 4081 -294 4081 175 
L 4081 2806 
L 3213 2806 
Q 2813 2806 2413 2788 
Q 2438 3000 2413 3219 
Q 2813 3200 3213 3200 
L 4081 3200 
L 4081 4313 
Q 4081 4788 4056 5263 
Q 4313 5231 4569 5263 
Q 4550 4788 4550 4313 
L 4550 3200 
L 5381 3200 
Q 5781 3200 6181 3219 
Q 6163 3000 6181 2788 
Q 5781 2806 5381 2806 
L 4550 2806 
L 4550 175 
Q 4550 -294 4569 -769 
z
M 38 2725 
Q 63 2931 38 3138 
Q 419 3119 800 3119 
L 1481 3119 
L 1481 425 
L 2044 1150 
L 2250 1488 
L 2525 1188 
L 2313 950 
L 1294 -488 
L 963 -231 
Q 1025 -94 1025 63 
L 1025 2744 
L 800 2744 
Q 419 2744 38 2725 
z
M 1450 3913 
Q 1094 4438 600 4831 
L 913 5225 
Q 1488 4769 1869 4194 
L 1450 3913 
z
" transform="scale(0.015625)"/>
      <path id="WenQuanYiZenHei-786e" d="M 4794 -769 
Q 4563 -744 4331 -769 
Q 4350 -344 4350 81 
L 4350 1081 
L 3419 1081 
L 3419 788 
Q 3419 225 3150 -194 
Q 2881 -613 2456 -806 
Q 2375 -569 2150 -444 
Q 2531 -344 2765 -15 
Q 3000 313 3000 788 
L 2994 2919 
L 2888 2813 
Q 2769 3000 2563 3081 
Q 3044 3494 3309 3969 
Q 3575 4444 3763 5119 
Q 3981 5044 4213 5013 
Q 4144 4700 4025 4400 
L 5238 4400 
L 5306 4050 
Q 5213 4031 5163 3947 
Q 5113 3863 4813 3325 
L 5994 3325 
L 5994 -150 
Q 5981 -519 5738 -656 
Q 5469 -806 5069 -806 
Q 5125 -525 4956 -294 
Q 5100 -313 5290 -316 
Q 5481 -319 5525 -278 
Q 5569 -238 5569 25 
L 5569 1081 
L 4769 1081 
L 4769 81 
Q 4769 -344 4794 -769 
z
M 4769 1344 
L 5569 1344 
L 5569 2100 
L 4769 2100 
L 4769 1344 
z
M 4350 1344 
L 4350 2100 
L 3413 2100 
L 3419 1344 
L 4350 1344 
z
M 4769 2363 
L 5569 2363 
L 5569 3038 
L 4769 3038 
L 4769 2363 
z
M 4350 2363 
L 4350 3038 
L 3413 3038 
L 3413 2363 
L 4350 2363 
z
M 3375 3325 
L 4350 3325 
L 4344 3331 
L 4775 4113 
L 3894 4113 
Q 3688 3700 3375 3325 
z
M 481 1069 
Q 281 1194 -25 1188 
Q 775 2750 1244 4294 
L 869 4294 
Q 563 4294 250 4275 
Q 269 4438 250 4594 
Q 563 4581 869 4581 
L 2156 4581 
Q 2463 4581 2775 4594 
Q 2756 4438 2775 4275 
Q 2463 4294 2156 4294 
L 1744 4294 
L 1181 2763 
L 2494 2763 
L 2494 -338 
L 2050 -338 
L 2050 156 
L 1406 156 
Q 1406 -94 1419 -350 
Q 1181 -325 938 -350 
Q 956 75 956 500 
L 956 2181 
L 769 1713 
Q 631 1388 481 1069 
z
M 2050 2475 
L 1400 2475 
L 1400 425 
L 2050 425 
L 2050 2475 
z
" transform="scale(0.015625)"/>
      <path id="WenQuanYiZenHei-8bca" d="M 5369 1456 
Q 5556 1256 5775 1100 
Q 5038 344 4081 -225 
Q 3106 -819 1788 -1006 
Q 1788 -725 1631 -500 
Q 3363 -306 4406 519 
Q 4919 956 5369 1456 
z
M 4594 2219 
Q 4781 2031 5013 1881 
Q 3625 394 2150 -25 
Q 2113 250 1913 444 
Q 2475 594 3015 850 
Q 3556 1106 3919 1463 
Q 4275 1819 4594 2219 
z
M 3969 3188 
Q 4150 3013 4356 2881 
Q 3625 1913 2306 1275 
Q 2244 1500 2056 1644 
Q 2619 1900 3053 2256 
Q 3488 2613 3969 3188 
z
M 5813 2194 
Q 4525 2913 3731 4188 
Q 2919 2844 1813 2163 
Q 1700 2413 1456 2550 
Q 1950 2844 2400 3231 
Q 2850 3619 3113 4063 
Q 3413 4581 3644 5163 
Q 3881 5038 4144 4963 
Q 4056 4775 3963 4594 
Q 4325 3919 4844 3441 
Q 5363 2963 6175 2538 
Q 5931 2431 5813 2194 
z
M 31 2613 
Q 50 2775 31 2938 
Q 325 2925 619 2925 
L 1275 2925 
L 1275 506 
L 1675 1006 
L 1831 1250 
L 2038 1013 
L 1881 838 
L 1100 -256 
L 825 -25 
Q 869 81 869 200 
L 869 2625 
L 31 2613 
z
M 950 3713 
Q 606 4325 200 4881 
L 556 5163 
Q 981 4588 1338 3944 
L 950 3713 
z
" transform="scale(0.015625)"/>
      <path id="WenQuanYiZenHei-9884" d="M 1206 19 
L 1206 2888 
L 669 2888 
Q 356 2888 50 2869 
Q 63 3044 50 3213 
Q 363 3194 669 3194 
L 1250 3194 
Q 950 3631 606 4031 
L 963 4338 
L 1263 3975 
L 1913 4719 
L 731 4719 
Q 419 4719 106 4706 
Q 125 4875 106 5044 
Q 419 5031 731 5031 
L 2481 5031 
L 2544 4663 
Q 2394 4613 2256 4466 
Q 2119 4319 1525 3631 
Q 1656 3444 1788 3250 
L 1700 3194 
L 2700 3194 
L 2763 2825 
Q 2656 2819 2613 2763 
L 2100 2038 
L 1750 2288 
L 2175 2888 
L 1638 2888 
L 1638 -150 
Q 1638 -525 1363 -669 
Q 1075 -819 525 -813 
Q 594 -513 388 -294 
Q 575 -313 837 -316 
Q 1100 -319 1153 -272 
Q 1206 -225 1206 19 
z
M 5813 -888 
Q 5100 -225 4306 375 
L 4669 719 
Q 5481 106 6219 -575 
L 5813 -888 
z
M 2375 -906 
Q 2294 -631 2025 -506 
Q 2769 -431 3353 19 
Q 3938 469 3938 1069 
L 3938 2200 
Q 3938 2625 3913 3050 
Q 4188 3025 4456 3050 
Q 4431 2625 4431 2200 
L 4431 1069 
Q 4431 681 4225 319 
Q 3644 -606 2375 -906 
z
M 3444 488 
Q 3169 513 2894 488 
Q 2919 913 2919 1338 
L 2919 3675 
Q 3219 3675 3525 3675 
Q 3750 4013 3931 4525 
L 3238 4525 
Q 2888 4525 2538 4513 
Q 2556 4669 2538 4831 
Q 2888 4813 3238 4813 
L 5313 4813 
Q 5663 4813 6006 4831 
Q 5988 4669 6006 4513 
Q 5663 4525 5313 4525 
L 4481 4525 
Q 4388 4088 4088 3675 
L 5644 3675 
L 5644 513 
L 5144 513 
L 5144 3388 
L 3894 3388 
L 3875 3363 
Q 3863 3375 3844 3388 
Q 3631 3388 3413 3388 
L 3419 1338 
Q 3419 913 3444 488 
z
" transform="scale(0.015625)"/>
      <path id="WenQuanYiZenHei-6d4b" d="M 5450 138 
L 5450 4306 
Q 5450 4750 5425 5188 
Q 5663 5163 5906 5188 
Q 5881 4750 5881 4306 
L 5881 -38 
Q 5888 -569 5519 -719 
Q 5194 -831 4825 -813 
Q 4894 -519 4694 -281 
Q 4869 -306 5094 -309 
Q 5319 -313 5384 -256 
Q 5450 -200 5450 138 
z
M 4900 938 
Q 4663 963 4419 938 
Q 4444 1375 4444 1819 
L 4444 3381 
Q 4444 3819 4419 4263 
Q 4663 4238 4900 4263 
Q 4875 3819 4875 3381 
L 4875 1819 
Q 4875 1375 4900 938 
z
M 2750 2025 
L 2750 3038 
Q 2750 3481 2725 3919 
Q 2963 3894 3206 3919 
Q 3181 3481 3181 3038 
L 3181 2025 
Q 3181 1263 2919 625 
L 3231 956 
Q 3781 431 4256 -150 
L 3888 -456 
Q 3431 106 2906 600 
Q 2531 -288 1738 -769 
Q 1606 -519 1338 -450 
Q 1988 -156 2369 478 
Q 2750 1113 2750 2025 
z
M 2363 969 
Q 2119 994 1881 969 
Q 1906 1406 1906 1850 
L 1906 5038 
L 3956 5031 
L 3956 1200 
L 3525 1200 
L 3525 4713 
L 2338 4713 
L 2338 1850 
Q 2338 1406 2363 969 
z
M 663 -738 
Q 481 -588 206 -575 
Q 400 -69 606 581 
Q 813 1231 1200 2838 
L 1381 2706 
L 875 338 
L 663 -738 
z
M 1006 2856 
L 731 2550 
L 75 3400 
L 350 3713 
L 1006 2856 
z
M 1088 3913 
Q 781 4388 425 4800 
L 694 5125 
Q 1069 4688 1388 4188 
L 1088 3913 
z
" transform="scale(0.015625)"/>
      <path id="WenQuanYiZenHei-20" transform="scale(0.015625)"/>
      <path id="WenQuanYiZenHei-5929" d="M 1306 2594 
Q 906 2594 506 2575 
Q 531 2788 506 3006 
Q 906 2988 1306 2988 
L 2888 2988 
L 2888 4575 
L 1838 4575 
Q 1438 4575 1038 4556 
Q 1063 4775 1038 4988 
Q 1438 4969 1838 4969 
L 4519 4969 
Q 4919 4969 5319 4988 
Q 5294 4775 5319 4556 
Q 4919 4575 4519 4575 
L 3350 4575 
L 3350 2988 
L 5081 2988 
Q 5475 2988 5875 3006 
Q 5856 2788 5875 2575 
Q 5475 2594 5081 2594 
L 3413 2594 
Q 3719 1519 4250 888 
Q 4956 63 6119 -219 
Q 5900 -388 5831 -656 
Q 4931 -425 4256 250 
Q 3581 925 3200 1881 
Q 2938 1019 2275 328 
Q 1613 -363 669 -681 
Q 550 -388 244 -288 
Q 1331 -38 2053 771 
Q 2775 1581 2875 2594 
L 1306 2594 
z
" transform="scale(0.015625)"/>
      <path id="WenQuanYiZenHei-6d25" d="M 4000 -769 
Q 3763 -744 3525 -769 
Q 3544 -325 3544 113 
L 3544 556 
L 2419 556 
Q 2094 556 1769 538 
Q 1788 713 1769 888 
Q 2094 875 2419 875 
L 3544 875 
L 3544 1450 
L 2806 1450 
Q 2481 1450 2156 1438 
Q 2175 1613 2156 1788 
Q 2481 1769 2806 1769 
L 3544 1769 
L 3544 2475 
L 2863 2475 
Q 2538 2475 2219 2456 
Q 2238 2631 2219 2806 
Q 2538 2794 2863 2794 
L 3544 2794 
L 3544 3388 
L 2581 3388 
Q 2256 3388 1931 3369 
Q 1950 3544 1931 3719 
Q 2256 3706 2581 3706 
L 3544 3706 
L 3544 4300 
L 2850 4300 
Q 2525 4300 2200 4281 
Q 2219 4456 2200 4631 
Q 2525 4619 2850 4619 
L 3544 4619 
Q 3538 4938 3525 5256 
Q 3763 5231 4000 5256 
Q 3981 4938 3981 4619 
L 5394 4619 
L 5394 3706 
L 6169 3719 
Q 6150 3544 6169 3369 
L 5394 3388 
L 5394 2200 
L 4956 2200 
L 4956 2475 
L 3975 2475 
L 3975 1769 
L 5075 1769 
Q 5400 1769 5719 1788 
Q 5700 1613 5719 1438 
Q 5400 1450 5075 1450 
L 3975 1450 
L 3975 875 
L 5431 875 
Q 5756 875 6081 888 
Q 6063 713 6081 538 
Q 5756 556 5431 556 
L 3975 556 
L 3975 113 
Q 3975 -325 4000 -769 
z
M 3975 2794 
L 4956 2794 
L 4956 3388 
L 3975 3388 
L 3975 2794 
z
M 3975 3706 
L 4956 3706 
L 4956 4300 
L 3975 4300 
L 3975 3706 
z
M 788 -738 
Q 575 -588 250 -575 
Q 481 -69 725 581 
Q 969 1231 1438 2838 
L 1650 2706 
L 1044 338 
L 788 -738 
z
M 1206 2856 
L 869 2550 
L 88 3400 
L 425 3713 
L 1206 2856 
z
M 1300 3913 
Q 938 4388 513 4800 
L 825 5125 
Q 1275 4688 1663 4188 
L 1300 3913 
z
" transform="scale(0.015625)"/>
     </defs>
     <use xlink:href="#WenQuanYiZenHei-7d2f"/>
     <use xlink:href="#WenQuanYiZenHei-8ba1" x="100"/>
     <use xlink:href="#WenQuanYiZenHei-786e" x="200"/>
     <use xlink:href="#WenQuanYiZenHei-8bca" x="300"/>
     <use xlink:href="#WenQuanYiZenHei-9884" x="400"/>
     <use xlink:href="#WenQuanYiZenHei-6d4b" x="500"/>
     <use xlink:href="#WenQuanYiZenHei-20" x="600"/>
     <use xlink:href="#WenQuanYiZenHei-2d" x="629.980469"/>
     <use xlink:href="#WenQuanYiZenHei-20" x="659.960938"/>
     <use xlink:href="#WenQuanYiZenHei-5929" x="689.941406"/>
     <use xlink:href="#WenQuanYiZenHei-6d25" x="789.941406"/>
    </g>
    <!-- ARIMA (0, 2, 1)x(0, 0, 0, 7) (R2 = 0.998745) -->
    <g transform="translate(589.179688 28.980375)scale(0.12 -0.12)">
     <defs>
      <path id="WenQuanYiZenHei-41" d="M 3550 0 
L 2988 0 
L 2550 1281 
L 919 1281 
L 531 0 
L 69 0 
L 1494 4388 
L 2125 4388 
L 3550 0 
z
M 2425 1694 
L 1756 3800 
L 1075 1694 
L 2425 1694 
z
" transform="scale(0.015625)"/>
      <path id="WenQuanYiZenHei-52" d="M 3675 0 
L 3100 0 
L 2288 1900 
L 1069 1900 
L 1069 0 
L 519 0 
L 519 4388 
L 2163 4388 
Q 3006 4388 3400 3900 
Q 3581 3663 3625 3325 
Q 3631 3250 3631 3163 
Q 3631 2594 3219 2244 
Q 3038 2100 2813 2038 
L 3675 0 
z
M 3081 3169 
Q 3081 3825 2356 3906 
Q 2263 3919 2163 3919 
L 1069 3919 
L 1069 2350 
L 2100 2350 
Q 2906 2350 3044 2919 
Q 3081 3031 3081 3169 
z
" transform="scale(0.015625)"/>
      <path id="WenQuanYiZenHei-49" d="M 1100 0 
L 550 0 
L 550 4388 
L 1100 4388 
L 1100 0 
z
" transform="scale(0.015625)"/>
      <path id="WenQuanYiZenHei-4d" d="M 4756 0 
L 4206 0 
L 4206 3831 
L 4181 3831 
L 2788 0 
L 2419 0 
L 1000 3831 
L 975 3831 
L 975 0 
L 513 0 
L 513 4388 
L 1331 4388 
L 2656 875 
L 3950 4388 
L 4756 4388 
L 4756 0 
z
" transform="scale(0.015625)"/>
      <path id="WenQuanYiZenHei-28" d="M 1606 -1094 
L 1275 -1094 
Q 475 -100 338 1231 
Q 319 1438 319 1656 
Q 319 3031 1156 4244 
Q 1213 4313 1269 4388 
L 1600 4388 
Q 806 3169 794 1681 
Q 794 188 1606 -1094 
z
" transform="scale(0.015625)"/>
      <path id="WenQuanYiZenHei-2c" d="M 1363 75 
L 881 -825 
L 606 -825 
L 994 0 
L 656 0 
L 656 738 
L 1363 738 
L 1363 75 
z
" transform="scale(0.015625)"/>
      <path id="WenQuanYiZenHei-29" d="M 1600 1656 
Q 1600 306 869 -788 
Q 769 -950 644 -1094 
L 313 -1094 
Q 1125 188 1125 1681 
Q 1125 3169 338 4363 
Q 325 4375 319 4388 
L 650 4388 
Q 1525 3231 1594 1863 
Q 1600 1763 1600 1656 
z
" transform="scale(0.015625)"/>
      <path id="WenQuanYiZenHei-78" d="M 2806 0 
L 2213 0 
L 1394 1319 
L 544 0 
L 50 0 
L 1144 1681 
L 163 3250 
L 744 3250 
L 1431 2138 
L 2144 3250 
L 2631 3250 
L 1681 1794 
L 2806 0 
z
" transform="scale(0.015625)"/>
      <path id="WenQuanYiZenHei-3d" d="M 3569 2256 
L 263 2256 
L 263 2675 
L 3569 2675 
L 3569 2256 
z
M 3569 1019 
L 263 1019 
L 263 1431 
L 3569 1431 
L 3569 1019 
z
" transform="scale(0.015625)"/>
      <path id="WenQuanYiZenHei-2e" d="M 1344 0 
L 631 0 
L 631 725 
L 1344 725 
L 1344 0 
z
" transform="scale(0.015625)"/>
      <path id="WenQuanYiZenHei-39" d="M 3544 2300 
Q 3544 1163 3019 513 
Q 2563 -63 1775 -63 
Q 956 -63 563 488 
Q 463 631 394 813 
L 838 975 
Q 1025 494 1550 388 
Q 1656 369 1775 369 
Q 2594 369 2900 1325 
Q 3044 1769 3038 2313 
L 3025 2313 
Q 2675 1638 1944 1544 
Q 1844 1531 1744 1531 
Q 1050 1531 625 2031 
Q 294 2419 294 2963 
Q 294 3656 813 4094 
Q 1238 4456 1819 4456 
Q 2988 4456 3381 3363 
Q 3544 2900 3544 2300 
z
M 2925 2994 
Q 2925 3563 2469 3844 
Q 2206 4006 1863 4006 
Q 1275 4006 988 3563 
Q 844 3344 825 3056 
Q 819 3006 819 2956 
Q 819 2413 1269 2131 
Q 1538 1963 1875 1963 
Q 2363 1963 2681 2350 
Q 2925 2638 2925 2994 
z
" transform="scale(0.015625)"/>
      <path id="WenQuanYiZenHei-38" d="M 3619 1175 
Q 3619 431 2850 100 
Q 2444 -63 1944 -63 
Q 1231 -63 725 269 
Q 225 594 225 1125 
Q 225 1881 1269 2281 
Q 719 2481 519 2938 
Q 444 3119 444 3319 
Q 444 4000 1144 4294 
Q 1519 4456 1963 4456 
Q 2669 4456 3094 4094 
Q 3425 3813 3425 3369 
Q 3425 2638 2575 2356 
Q 3231 2056 3450 1725 
Q 3619 1488 3619 1175 
z
M 2944 3344 
Q 2944 3906 2288 4019 
Q 2138 4044 1969 4044 
Q 1438 4044 1163 3775 
Q 1000 3613 1000 3375 
Q 1000 2925 1594 2663 
Q 1756 2588 1931 2550 
Q 2581 2725 2788 2956 
Q 2944 3125 2944 3344 
z
M 3075 1094 
Q 3075 1738 1875 2050 
Q 1094 1881 850 1463 
Q 763 1313 763 1131 
Q 763 569 1456 406 
Q 1681 344 1944 344 
Q 2519 344 2850 619 
Q 3075 813 3075 1094 
z
" transform="scale(0.015625)"/>
     </defs>
     <use xlink:href="#WenQuanYiZenHei-41"/>
     <use xlink:href="#WenQuanYiZenHei-52" x="55.957031"/>
     <use xlink:href="#WenQuanYiZenHei-49" x="117.871094"/>
     <use xlink:href="#WenQuanYiZenHei-4d" x="143.847656"/>
     <use xlink:href="#WenQuanYiZenHei-41" x="225.78125"/>
     <use xlink:href="#WenQuanYiZenHei-20" x="281.738281"/>
     <use xlink:href="#WenQuanYiZenHei-28" x="311.71875"/>
     <use xlink:href="#WenQuanYiZenHei-30" x="341.699219"/>
     <use xlink:href="#WenQuanYiZenHei-2c" x="401.660156"/>
     <use xlink:href="#WenQuanYiZenHei-20" x="431.640625"/>
     <use xlink:href="#WenQuanYiZenHei-32" x="461.621094"/>
     <use xlink:href="#WenQuanYiZenHei-2c" x="521.582031"/>
     <use xlink:href="#WenQuanYiZenHei-20" x="551.5625"/>
     <use xlink:href="#WenQuanYiZenHei-31" x="581.542969"/>
     <use xlink:href="#WenQuanYiZenHei-29" x="641.503906"/>
     <use xlink:href="#WenQuanYiZenHei-78" x="671.484375"/>
     <use xlink:href="#WenQuanYiZenHei-28" x="715.429688"/>
     <use xlink:href="#WenQuanYiZenHei-30" x="745.410156"/>
     <use xlink:href="#WenQuanYiZenHei-2c" x="805.371094"/>
     <use xlink:href="#WenQuanYiZenHei-20" x="835.351562"/>
     <use xlink:href="#WenQuanYiZenHei-30" x="865.332031"/>
     <use xlink:href="#WenQuanYiZenHei-2c" x="925.292969"/>
     <use xlink:href="#WenQuanYiZenHei-20" x="955.273438"/>
     <use xlink:href="#WenQuanYiZenHei-30" x="985.253906"/>
     <use xlink:href="#WenQuanYiZenHei-2c" x="1045.214844"/>
     <use xlink:href="#WenQuanYiZenHei-20" x="1075.195312"/>
     <use xlink:href="#WenQuanYiZenHei-37" x="1105.175781"/>
     <use xlink:href="#WenQuanYiZenHei-29" x="1165.136719"/>
     <use xlink:href="#WenQuanYiZenHei-20" x="1195.117188"/>
     <use xlink:href="#WenQuanYiZenHei-28" x="1225.097656"/>
     <use xlink:href="#WenQuanYiZenHei-52" x="1255.078125"/>
     <use xlink:href="#WenQuanYiZenHei-32" x="1316.992188"/>
     <use xlink:href="#WenQuanYiZenHei-20" x="1376.953125"/>
     <use xlink:href="#WenQuanYiZenHei-3d" x="1406.933594"/>
     <use xlink:href="#WenQuanYiZenHei-20" x="1466.894531"/>
     <use xlink:href="#WenQuanYiZenHei-30" x="1496.875"/>
     <use xlink:href="#WenQuanYiZenHei-2e" x="1556.835938"/>
     <use xlink:href="#WenQuanYiZenHei-39" x="1586.816406"/>
     <use xlink:href="#WenQuanYiZenHei-39" x="1646.777344"/>
     <use xlink:href="#WenQuanYiZenHei-38" x="1706.738281"/>
     <use xlink:href="#WenQuanYiZenHei-37" x="1766.699219"/>
     <use xlink:href="#WenQuanYiZenHei-34" x="1826.660156"/>
     <use xlink:href="#WenQuanYiZenHei-35" x="1886.621094"/>
     <use xlink:href="#WenQuanYiZenHei-29" x="1946.582031"/>
    </g>
   </g>
   <g id="legend_1">
    <g id="patch_7">
     <path d="M 45.1875 86.975687 
L 107.1875 86.975687 
Q 109.1875 86.975687 109.1875 84.975687 
L 109.1875 41.980375 
Q 109.1875 39.980375 107.1875 39.980375 
L 45.1875 39.980375 
Q 43.1875 39.980375 43.1875 41.980375 
L 43.1875 84.975687 
Q 43.1875 86.975687 45.1875 86.975687 
z
" style="fill: #ffffff; opacity: 0.8; stroke: #cccccc; stroke-linejoin: miter"/>
    </g>
    <g id="line2d_20">
     <path d="M 47.1875 48.61475 
L 57.1875 48.61475 
L 67.1875 48.61475 
" style="fill: none; stroke: #0000ff; stroke-width: 1.5; stroke-linecap: square"/>
    </g>
    <g id="text_18">
     <!-- 实际值 -->
     <g transform="translate(75.1875 52.11475)scale(0.1 -0.1)">
      <defs>
       <path id="WenQuanYiZenHei-5b9e" d="M 1025 1175 
Q 694 1175 356 1163 
Q 375 1344 356 1525 
Q 694 1506 1025 1506 
L 3363 1506 
L 3363 2625 
Q 3363 3075 3338 3519 
Q 3581 3494 3825 3519 
Q 3800 3075 3800 2625 
L 3800 1506 
L 5406 1506 
Q 5744 1506 6075 1525 
Q 6056 1344 6075 1163 
Q 5744 1175 5406 1175 
L 4038 1175 
L 4981 456 
L 6131 -488 
L 5819 -856 
L 4681 75 
L 3638 875 
Q 3313 231 2475 -231 
Q 1638 -694 700 -825 
Q 638 -519 344 -400 
Q 1450 -319 2406 244 
Q 3113 656 3300 1175 
L 1025 1175 
z
M 2263 1581 
Q 1763 2081 1200 2513 
L 1494 2894 
Q 2081 2444 2600 1919 
L 2263 1581 
z
M 2638 2500 
Q 2219 2963 1731 3363 
L 2044 3738 
Q 2556 3313 3000 2819 
L 2638 2500 
z
M 919 3156 
L 481 3156 
L 481 4344 
L 3069 4344 
Q 2794 4731 2469 5081 
L 2825 5413 
Q 3256 4944 3613 4413 
L 3513 4344 
L 5869 4344 
L 5869 3156 
L 5425 3156 
L 5425 4013 
L 919 4013 
L 919 3156 
z
" transform="scale(0.015625)"/>
       <path id="WenQuanYiZenHei-9645" d="M 6000 431 
L 5569 194 
L 4963 1219 
L 4313 2219 
L 4719 2494 
L 5375 1481 
L 6000 431 
z
M 2956 2450 
Q 3181 2344 3419 2294 
Q 3006 1038 1944 -188 
Q 1794 -6 1569 56 
Q 2069 600 2372 1156 
Q 2675 1713 2956 2450 
z
M 3750 25 
L 3750 2913 
L 2819 2913 
Q 2475 2913 2125 2894 
Q 2144 3081 2125 3269 
Q 2475 3256 2819 3256 
L 5469 3256 
Q 5819 3256 6163 3269 
Q 6144 3081 6163 2894 
Q 5813 2913 5469 2913 
L 4194 2913 
L 4194 -144 
Q 4194 -725 3456 -813 
L 3263 -825 
Q 3325 -506 3125 -250 
Q 3250 -281 3394 -306 
Q 3663 -313 3706 -272 
Q 3750 -231 3750 25 
z
M 5544 4950 
Q 5525 4756 5544 4569 
Q 5194 4588 4844 4588 
L 3325 4588 
Q 2975 4588 2625 4569 
Q 2644 4756 2625 4950 
Q 2975 4931 3325 4931 
L 4844 4931 
Q 5194 4931 5544 4950 
z
M 819 -850 
Q 581 -825 344 -850 
Q 369 -419 369 19 
L 363 4938 
L 2256 4938 
L 2256 4625 
Q 2150 4513 2075 4375 
L 1481 3238 
Q 2181 2319 2181 1156 
Q 2144 400 1569 163 
L 1406 88 
Q 1288 300 1138 481 
Q 1294 538 1450 606 
Q 1763 744 1794 1156 
Q 1794 1744 1600 2300 
Q 1406 2856 1038 3313 
L 1725 4625 
L 788 4625 
L 794 19 
Q 794 -419 819 -850 
z
" transform="scale(0.015625)"/>
       <path id="WenQuanYiZenHei-503c" d="M 6175 -219 
Q 6156 -388 6175 -556 
Q 5863 -544 5550 -544 
L 2313 -544 
Q 2000 -544 1688 -556 
Q 1706 -388 1688 -219 
L 2506 -231 
L 2506 3469 
L 3644 3469 
L 3644 4119 
L 2638 4119 
Q 2325 4119 2013 4100 
Q 2031 4269 2013 4438 
Q 2325 4425 2638 4425 
L 3638 4425 
Q 3638 4719 3619 5013 
Q 3856 4988 4094 5013 
Q 4075 4719 4075 4425 
L 5344 4425 
Q 5650 4425 5963 4438 
Q 5950 4269 5963 4100 
Q 5656 4119 5344 4119 
L 4069 4119 
L 4069 3469 
L 5300 3469 
L 5300 -231 
L 5550 -231 
Q 5863 -231 6175 -219 
z
M 4869 2556 
L 4869 3156 
L 2931 3156 
Q 2931 2850 2931 2556 
L 4869 2556 
z
M 4869 1669 
L 4869 2250 
L 2931 2250 
L 2931 1669 
L 4869 1669 
z
M 4869 731 
L 4869 1363 
L 2931 1363 
L 2931 731 
L 4869 731 
z
M 4869 -231 
L 4869 425 
L 2931 425 
L 2931 -231 
L 4869 -231 
z
M 2106 4925 
Q 1856 4075 1463 3338 
L 1463 31 
Q 1463 -413 1481 -850 
Q 1256 -825 1031 -850 
Q 1050 -413 1050 31 
L 1050 2681 
Q 750 2269 375 1931 
Q 238 2156 0 2256 
Q 331 2544 619 2875 
Q 1094 3425 1300 3950 
Q 1494 4469 1625 5050 
Q 1850 4963 2106 4925 
z
" transform="scale(0.015625)"/>
      </defs>
      <use xlink:href="#WenQuanYiZenHei-5b9e"/>
      <use xlink:href="#WenQuanYiZenHei-9645" x="100"/>
      <use xlink:href="#WenQuanYiZenHei-503c" x="200"/>
     </g>
    </g>
    <g id="line2d_21">
     <path d="M 47.1875 63.292875 
L 57.1875 63.292875 
L 67.1875 63.292875 
" style="fill: none; stroke: #ffa500; stroke-width: 1.5; stroke-linecap: square"/>
    </g>
    <g id="text_19">
     <!-- 校验值 -->
     <g transform="translate(75.1875 66.792875)scale(0.1 -0.1)">
      <defs>
       <path id="WenQuanYiZenHei-6821" d="M 5256 2463 
Q 5025 1475 4494 706 
Q 5125 -94 6175 -544 
Q 5950 -663 5850 -900 
Q 4906 -494 4250 381 
Q 3931 0 3475 -350 
Q 3019 -700 2388 -919 
Q 2338 -656 2138 -475 
Q 3306 -69 4006 738 
Q 3563 1444 3300 2331 
Q 3050 2050 2706 1800 
Q 2606 2000 2406 2106 
Q 2900 2444 3181 2938 
Q 3350 3225 3488 3538 
Q 3700 3431 3925 3369 
Q 3763 2894 3425 2475 
L 3650 2531 
Q 3888 1675 4244 1075 
Q 4469 1444 4603 1937 
Q 4738 2431 4775 2688 
Q 4963 2644 5150 2625 
Q 4919 2969 4663 3294 
L 5038 3588 
Q 5544 2925 5975 2213 
L 5569 1969 
L 5256 2463 
z
M 6006 4050 
Q 5988 3881 6006 3713 
Q 5694 3725 5381 3725 
L 3413 3725 
Q 3100 3725 2788 3713 
Q 2806 3881 2788 4050 
Q 3100 4031 3413 4031 
L 4325 4031 
Q 4019 4525 3644 4969 
L 4000 5275 
Q 4413 4788 4750 4244 
L 4406 4031 
L 5381 4031 
Q 5694 4031 6006 4050 
z
M 406 263 
Q 238 431 -25 469 
Q 194 825 466 1337 
Q 738 1850 925 2406 
Q 1113 2963 1256 3519 
L 825 3519 
Q 506 3519 188 3500 
Q 206 3700 188 3900 
Q 506 3881 825 3881 
L 1363 3881 
L 1363 4263 
Q 1363 4719 1338 5175 
Q 1556 5150 1775 5175 
Q 1756 4719 1756 4263 
L 1756 3881 
L 2525 3900 
Q 2506 3700 2525 3500 
L 1756 3519 
L 1756 2738 
L 1931 2881 
Q 2306 2300 2613 1650 
L 2231 1413 
Q 2081 1725 1919 2019 
L 1756 2300 
L 1756 69 
Q 1756 -388 1775 -850 
Q 1556 -825 1338 -850 
Q 1363 -388 1363 69 
L 1363 2438 
Q 925 1144 406 263 
z
" transform="scale(0.015625)"/>
       <path id="WenQuanYiZenHei-9a8c" d="M 5981 -106 
Q 5963 -275 5981 -444 
Q 5669 -431 5356 -431 
L 2969 -431 
Q 2656 -431 2350 -444 
Q 2363 -275 2350 -106 
Q 2656 -125 2969 -125 
L 4369 -125 
Q 4600 431 4881 1288 
L 5206 2300 
Q 5425 2206 5663 2163 
Q 5375 1188 4831 -125 
L 5356 -125 
Q 5669 -125 5981 -106 
z
M 4063 594 
Q 3788 1425 3425 2219 
L 3856 2419 
Q 4225 1600 4513 744 
L 4063 594 
z
M 3163 363 
Q 2931 1200 2613 2006 
L 3056 2175 
Q 3381 1350 3619 488 
L 3163 363 
z
M 4581 2550 
L 3513 2550 
Q 3200 2550 2888 2538 
Q 2900 2663 2894 2769 
Q 2569 2488 2206 2300 
Q 2113 2550 1894 2700 
Q 2488 2975 2975 3463 
Q 3269 3756 3394 4006 
Q 3644 4513 3794 5063 
Q 4038 4975 4294 4931 
Q 4250 4806 4206 4681 
Q 4475 3888 5025 3388 
Q 5519 2938 6169 2650 
Q 5938 2538 5838 2300 
Q 5513 2456 5200 2700 
Q 5200 2619 5206 2538 
Q 4894 2550 4581 2550 
z
M 3513 2863 
L 4994 2869 
Q 4344 3438 3988 4194 
Q 3594 3406 3013 2869 
Q 3263 2863 3513 2863 
z
M 206 444 
Q 188 756 44 963 
Q 319 956 650 1003 
Q 981 1050 1731 1281 
L 1738 1006 
Q 800 719 206 444 
z
M 525 4000 
Q 744 3950 994 3944 
Q 925 3519 875 3081 
L 763 2144 
L 1475 2144 
L 1831 4444 
L 663 4444 
Q 350 4444 38 4431 
Q 56 4600 38 4769 
Q 350 4756 663 4756 
L 2313 4756 
L 1913 2144 
L 2375 2144 
L 2200 -200 
Q 2188 -425 1988 -588 
Q 1694 -800 1181 -788 
L 944 -788 
Q 1000 -450 788 -269 
Q 1013 -294 1334 -287 
Q 1656 -281 1715 -243 
Q 1775 -206 1781 -50 
L 1925 1831 
L 294 1831 
L 444 3131 
Q 500 3569 525 4000 
z
" transform="scale(0.015625)"/>
      </defs>
      <use xlink:href="#WenQuanYiZenHei-6821"/>
      <use xlink:href="#WenQuanYiZenHei-9a8c" x="100"/>
      <use xlink:href="#WenQuanYiZenHei-503c" x="200"/>
     </g>
    </g>
    <g id="line2d_22">
     <path d="M 47.1875 77.81475 
L 57.1875 77.81475 
L 67.1875 77.81475 
" style="fill: none; stroke: #ff0000; stroke-width: 1.5; stroke-linecap: square"/>
    </g>
    <g id="text_20">
     <!-- 预测值 -->
     <g transform="translate(75.1875 81.31475)scale(0.1 -0.1)">
      <use xlink:href="#WenQuanYiZenHei-9884"/>
      <use xlink:href="#WenQuanYiZenHei-6d4b" x="100"/>
      <use xlink:href="#WenQuanYiZenHei-503c" x="200"/>
     </g>
    </g>
   </g>
  </g>
 </g>
 <defs>
  <clipPath id="pf92138ccbb">
   <rect x="38.1875" y="34.980375" width="1339.2" height="332.64"/>
  </clipPath>
 </defs>
</svg>
