<?xml version="1.0" encoding="utf-8" standalone="no"?>
<!DOCTYPE svg PUBLIC "-//W3C//DTD SVG 1.1//EN"
  "http://www.w3.org/Graphics/SVG/1.1/DTD/svg11.dtd">
<svg xmlns:xlink="http://www.w3.org/1999/xlink" width="1384.5875pt" height="390.337563pt" viewBox="0 0 1384.5875 390.337563" xmlns="http://www.w3.org/2000/svg" version="1.1">
 <metadata>
  <rdf:RDF xmlns:dc="http://purl.org/dc/elements/1.1/" xmlns:cc="http://creativecommons.org/ns#" xmlns:rdf="http://www.w3.org/1999/02/22-rdf-syntax-ns#">
   <cc:Work>
    <dc:type rdf:resource="http://purl.org/dc/dcmitype/StillImage"/>
    <dc:date>2022-07-08T18:19:35.670547</dc:date>
    <dc:format>image/svg+xml</dc:format>
    <dc:creator>
     <cc:Agent>
      <dc:title>Matplotlib v3.5.2, https://matplotlib.org/</dc:title>
     </cc:Agent>
    </dc:creator>
   </cc:Work>
  </rdf:RDF>
 </metadata>
 <defs>
  <style type="text/css">*{stroke-linejoin: round; stroke-linecap: butt}</style>
 </defs>
 <g id="figure_1">
  <g id="patch_1">
   <path d="M 0 390.337563 
L 1384.5875 390.337563 
L 1384.5875 0 
L 0 0 
z
" style="fill: #ffffff"/>
  </g>
  <g id="axes_1">
   <g id="patch_2">
    <path d="M 38.1875 367.620375 
L 1377.3875 367.620375 
L 1377.3875 34.980375 
L 38.1875 34.980375 
z
" style="fill: #ffffff"/>
   </g>
   <g id="matplotlib.axis_1">
    <g id="xtick_1">
     <g id="line2d_1">
      <defs>
       <path id="m9d8972d783" d="M 0 0 
L 0 3.5 
" style="stroke: #000000; stroke-width: 0.8"/>
      </defs>
      <g>
       <use xlink:href="#m9d8972d783" x="70.965122" y="367.620375" style="stroke: #000000; stroke-width: 0.8"/>
      </g>
     </g>
     <g id="text_1">
      <!-- 2020-01 -->
      <g transform="translate(51.475279 381.476625)scale(0.1 -0.1)">
       <defs>
        <path id="WenQuanYiZenHei-32" d="M 3488 0 
L 369 0 
L 369 456 
L 2150 1850 
Q 2931 2463 2931 3144 
Q 2931 3619 2488 3863 
Q 2231 4013 1931 4013 
Q 1425 4013 1113 3619 
Q 894 3356 881 3013 
L 369 3169 
Q 531 3981 1213 4300 
Q 1544 4456 1950 4456 
Q 2631 4456 3088 4044 
L 3225 3888 
L 3350 3706 
Q 3481 3444 3481 3144 
Q 3481 2313 2519 1569 
L 1069 456 
L 3488 456 
L 3488 0 
z
" transform="scale(0.015625)"/>
        <path id="WenQuanYiZenHei-30" d="M 3581 2175 
Q 3581 1288 3169 638 
Q 2713 -63 1938 -63 
Q 1025 -63 563 831 
Q 256 1425 256 2188 
Q 256 3188 700 3819 
Q 1138 4456 1888 4456 
Q 2863 4456 3306 3500 
Q 3581 2925 3581 2175 
z
M 3019 2100 
Q 3019 3356 2500 3806 
L 2350 3919 
Q 2144 4031 1888 4031 
Q 1100 4031 888 2956 
Q 819 2625 819 2225 
Q 819 1013 1338 569 
Q 1588 356 1938 356 
Q 2675 356 2925 1294 
Q 3019 1663 3019 2100 
z
" transform="scale(0.015625)"/>
        <path id="WenQuanYiZenHei-2d" d="M 1363 1444 
L 0 1444 
L 0 1844 
L 1363 1844 
L 1363 1444 
z
" transform="scale(0.015625)"/>
        <path id="WenQuanYiZenHei-31" d="M 3556 0 
L 488 0 
L 488 406 
L 1800 406 
L 1800 3725 
Q 1231 3125 588 2788 
L 588 3338 
Q 1456 3781 1931 4388 
L 2331 4388 
L 2331 406 
L 3556 406 
L 3556 0 
z
" transform="scale(0.015625)"/>
       </defs>
       <use xlink:href="#WenQuanYiZenHei-32"/>
       <use xlink:href="#WenQuanYiZenHei-30" x="59.960938"/>
       <use xlink:href="#WenQuanYiZenHei-32" x="119.921875"/>
       <use xlink:href="#WenQuanYiZenHei-30" x="179.882812"/>
       <use xlink:href="#WenQuanYiZenHei-2d" x="239.84375"/>
       <use xlink:href="#WenQuanYiZenHei-30" x="269.824219"/>
       <use xlink:href="#WenQuanYiZenHei-31" x="329.785156"/>
      </g>
     </g>
    </g>
    <g id="xtick_2">
     <g id="line2d_2">
      <g>
       <use xlink:href="#m9d8972d783" x="192.710577" y="367.620375" style="stroke: #000000; stroke-width: 0.8"/>
      </g>
     </g>
     <g id="text_2">
      <!-- 2020-04 -->
      <g transform="translate(173.220733 381.476625)scale(0.1 -0.1)">
       <defs>
        <path id="WenQuanYiZenHei-34" d="M 3631 1025 
L 2913 1025 
L 2913 0 
L 2381 0 
L 2381 1025 
L 219 1025 
L 219 1388 
L 2225 4388 
L 2913 4388 
L 2913 1444 
L 3631 1444 
L 3631 1025 
z
M 2381 1444 
L 2381 3963 
L 788 1444 
L 2381 1444 
z
" transform="scale(0.015625)"/>
       </defs>
       <use xlink:href="#WenQuanYiZenHei-32"/>
       <use xlink:href="#WenQuanYiZenHei-30" x="59.960938"/>
       <use xlink:href="#WenQuanYiZenHei-32" x="119.921875"/>
       <use xlink:href="#WenQuanYiZenHei-30" x="179.882812"/>
       <use xlink:href="#WenQuanYiZenHei-2d" x="239.84375"/>
       <use xlink:href="#WenQuanYiZenHei-30" x="269.824219"/>
       <use xlink:href="#WenQuanYiZenHei-34" x="329.785156"/>
      </g>
     </g>
    </g>
    <g id="xtick_3">
     <g id="line2d_3">
      <g>
       <use xlink:href="#m9d8972d783" x="314.456031" y="367.620375" style="stroke: #000000; stroke-width: 0.8"/>
      </g>
     </g>
     <g id="text_3">
      <!-- 2020-07 -->
      <g transform="translate(294.966188 381.476625)scale(0.1 -0.1)">
       <defs>
        <path id="WenQuanYiZenHei-37" d="M 3400 4056 
Q 1838 2175 1838 0 
L 1275 0 
Q 1269 1438 2056 2825 
Q 2381 3400 2825 3913 
L 444 3913 
L 500 4388 
L 3400 4388 
L 3400 4056 
z
" transform="scale(0.015625)"/>
       </defs>
       <use xlink:href="#WenQuanYiZenHei-32"/>
       <use xlink:href="#WenQuanYiZenHei-30" x="59.960938"/>
       <use xlink:href="#WenQuanYiZenHei-32" x="119.921875"/>
       <use xlink:href="#WenQuanYiZenHei-30" x="179.882812"/>
       <use xlink:href="#WenQuanYiZenHei-2d" x="239.84375"/>
       <use xlink:href="#WenQuanYiZenHei-30" x="269.824219"/>
       <use xlink:href="#WenQuanYiZenHei-37" x="329.785156"/>
      </g>
     </g>
    </g>
    <g id="xtick_4">
     <g id="line2d_4">
      <g>
       <use xlink:href="#m9d8972d783" x="437.539348" y="367.620375" style="stroke: #000000; stroke-width: 0.8"/>
      </g>
     </g>
     <g id="text_4">
      <!-- 2020-10 -->
      <g transform="translate(418.049504 381.476625)scale(0.1 -0.1)">
       <use xlink:href="#WenQuanYiZenHei-32"/>
       <use xlink:href="#WenQuanYiZenHei-30" x="59.960938"/>
       <use xlink:href="#WenQuanYiZenHei-32" x="119.921875"/>
       <use xlink:href="#WenQuanYiZenHei-30" x="179.882812"/>
       <use xlink:href="#WenQuanYiZenHei-2d" x="239.84375"/>
       <use xlink:href="#WenQuanYiZenHei-31" x="269.824219"/>
       <use xlink:href="#WenQuanYiZenHei-30" x="329.785156"/>
      </g>
     </g>
    </g>
    <g id="xtick_5">
     <g id="line2d_5">
      <g>
       <use xlink:href="#m9d8972d783" x="560.622665" y="367.620375" style="stroke: #000000; stroke-width: 0.8"/>
      </g>
     </g>
     <g id="text_5">
      <!-- 2021-01 -->
      <g transform="translate(541.132821 381.476625)scale(0.1 -0.1)">
       <use xlink:href="#WenQuanYiZenHei-32"/>
       <use xlink:href="#WenQuanYiZenHei-30" x="59.960938"/>
       <use xlink:href="#WenQuanYiZenHei-32" x="119.921875"/>
       <use xlink:href="#WenQuanYiZenHei-31" x="179.882812"/>
       <use xlink:href="#WenQuanYiZenHei-2d" x="239.84375"/>
       <use xlink:href="#WenQuanYiZenHei-30" x="269.824219"/>
       <use xlink:href="#WenQuanYiZenHei-31" x="329.785156"/>
      </g>
     </g>
    </g>
    <g id="xtick_6">
     <g id="line2d_6">
      <g>
       <use xlink:href="#m9d8972d783" x="681.030257" y="367.620375" style="stroke: #000000; stroke-width: 0.8"/>
      </g>
     </g>
     <g id="text_6">
      <!-- 2021-04 -->
      <g transform="translate(661.540413 381.476625)scale(0.1 -0.1)">
       <use xlink:href="#WenQuanYiZenHei-32"/>
       <use xlink:href="#WenQuanYiZenHei-30" x="59.960938"/>
       <use xlink:href="#WenQuanYiZenHei-32" x="119.921875"/>
       <use xlink:href="#WenQuanYiZenHei-31" x="179.882812"/>
       <use xlink:href="#WenQuanYiZenHei-2d" x="239.84375"/>
       <use xlink:href="#WenQuanYiZenHei-30" x="269.824219"/>
       <use xlink:href="#WenQuanYiZenHei-34" x="329.785156"/>
      </g>
     </g>
    </g>
    <g id="xtick_7">
     <g id="line2d_7">
      <g>
       <use xlink:href="#m9d8972d783" x="802.775712" y="367.620375" style="stroke: #000000; stroke-width: 0.8"/>
      </g>
     </g>
     <g id="text_7">
      <!-- 2021-07 -->
      <g transform="translate(783.285868 381.476625)scale(0.1 -0.1)">
       <use xlink:href="#WenQuanYiZenHei-32"/>
       <use xlink:href="#WenQuanYiZenHei-30" x="59.960938"/>
       <use xlink:href="#WenQuanYiZenHei-32" x="119.921875"/>
       <use xlink:href="#WenQuanYiZenHei-31" x="179.882812"/>
       <use xlink:href="#WenQuanYiZenHei-2d" x="239.84375"/>
       <use xlink:href="#WenQuanYiZenHei-30" x="269.824219"/>
       <use xlink:href="#WenQuanYiZenHei-37" x="329.785156"/>
      </g>
     </g>
    </g>
    <g id="xtick_8">
     <g id="line2d_8">
      <g>
       <use xlink:href="#m9d8972d783" x="925.859028" y="367.620375" style="stroke: #000000; stroke-width: 0.8"/>
      </g>
     </g>
     <g id="text_8">
      <!-- 2021-10 -->
      <g transform="translate(906.369185 381.476625)scale(0.1 -0.1)">
       <use xlink:href="#WenQuanYiZenHei-32"/>
       <use xlink:href="#WenQuanYiZenHei-30" x="59.960938"/>
       <use xlink:href="#WenQuanYiZenHei-32" x="119.921875"/>
       <use xlink:href="#WenQuanYiZenHei-31" x="179.882812"/>
       <use xlink:href="#WenQuanYiZenHei-2d" x="239.84375"/>
       <use xlink:href="#WenQuanYiZenHei-31" x="269.824219"/>
       <use xlink:href="#WenQuanYiZenHei-30" x="329.785156"/>
      </g>
     </g>
    </g>
    <g id="xtick_9">
     <g id="line2d_9">
      <g>
       <use xlink:href="#m9d8972d783" x="1048.942345" y="367.620375" style="stroke: #000000; stroke-width: 0.8"/>
      </g>
     </g>
     <g id="text_9">
      <!-- 2022-01 -->
      <g transform="translate(1029.452501 381.476625)scale(0.1 -0.1)">
       <use xlink:href="#WenQuanYiZenHei-32"/>
       <use xlink:href="#WenQuanYiZenHei-30" x="59.960938"/>
       <use xlink:href="#WenQuanYiZenHei-32" x="119.921875"/>
       <use xlink:href="#WenQuanYiZenHei-32" x="179.882812"/>
       <use xlink:href="#WenQuanYiZenHei-2d" x="239.84375"/>
       <use xlink:href="#WenQuanYiZenHei-30" x="269.824219"/>
       <use xlink:href="#WenQuanYiZenHei-31" x="329.785156"/>
      </g>
     </g>
    </g>
    <g id="xtick_10">
     <g id="line2d_10">
      <g>
       <use xlink:href="#m9d8972d783" x="1169.349938" y="367.620375" style="stroke: #000000; stroke-width: 0.8"/>
      </g>
     </g>
     <g id="text_10">
      <!-- 2022-04 -->
      <g transform="translate(1149.860094 381.476625)scale(0.1 -0.1)">
       <use xlink:href="#WenQuanYiZenHei-32"/>
       <use xlink:href="#WenQuanYiZenHei-30" x="59.960938"/>
       <use xlink:href="#WenQuanYiZenHei-32" x="119.921875"/>
       <use xlink:href="#WenQuanYiZenHei-32" x="179.882812"/>
       <use xlink:href="#WenQuanYiZenHei-2d" x="239.84375"/>
       <use xlink:href="#WenQuanYiZenHei-30" x="269.824219"/>
       <use xlink:href="#WenQuanYiZenHei-34" x="329.785156"/>
      </g>
     </g>
    </g>
    <g id="xtick_11">
     <g id="line2d_11">
      <g>
       <use xlink:href="#m9d8972d783" x="1291.095392" y="367.620375" style="stroke: #000000; stroke-width: 0.8"/>
      </g>
     </g>
     <g id="text_11">
      <!-- 2022-07 -->
      <g transform="translate(1271.605548 381.476625)scale(0.1 -0.1)">
       <use xlink:href="#WenQuanYiZenHei-32"/>
       <use xlink:href="#WenQuanYiZenHei-30" x="59.960938"/>
       <use xlink:href="#WenQuanYiZenHei-32" x="119.921875"/>
       <use xlink:href="#WenQuanYiZenHei-32" x="179.882812"/>
       <use xlink:href="#WenQuanYiZenHei-2d" x="239.84375"/>
       <use xlink:href="#WenQuanYiZenHei-30" x="269.824219"/>
       <use xlink:href="#WenQuanYiZenHei-37" x="329.785156"/>
      </g>
     </g>
    </g>
   </g>
   <g id="matplotlib.axis_2">
    <g id="ytick_1">
     <g id="line2d_12">
      <defs>
       <path id="mc485edb997" d="M 0 0 
L -3.5 0 
" style="stroke: #000000; stroke-width: 0.8"/>
      </defs>
      <g>
       <use xlink:href="#mc485edb997" x="38.1875" y="353.084591" style="stroke: #000000; stroke-width: 0.8"/>
      </g>
     </g>
     <g id="text_12">
      <!-- 0 -->
      <g transform="translate(25.190625 356.512716)scale(0.1 -0.1)">
       <use xlink:href="#WenQuanYiZenHei-30"/>
      </g>
     </g>
    </g>
    <g id="ytick_2">
     <g id="line2d_13">
      <g>
       <use xlink:href="#mc485edb997" x="38.1875" y="280.057593" style="stroke: #000000; stroke-width: 0.8"/>
      </g>
     </g>
     <g id="text_13">
      <!-- 500 -->
      <g transform="translate(13.196875 283.485718)scale(0.1 -0.1)">
       <defs>
        <path id="WenQuanYiZenHei-35" d="M 3531 1488 
Q 3531 688 2913 250 
Q 2456 -63 1844 -63 
Q 1175 -63 706 350 
Q 413 613 306 975 
L 781 1131 
Q 1000 538 1569 406 
Q 1706 369 1856 369 
Q 2550 369 2850 869 
Q 3000 1131 3000 1494 
Q 3000 2056 2581 2356 
Q 2319 2538 1969 2538 
Q 1400 2538 1031 2075 
Q 981 2013 938 1938 
L 500 2031 
L 644 4388 
L 3244 4388 
L 3200 3919 
L 1044 3919 
L 950 2500 
Q 1431 2975 2006 2975 
Q 2713 2975 3163 2475 
Q 3531 2063 3531 1488 
z
" transform="scale(0.015625)"/>
       </defs>
       <use xlink:href="#WenQuanYiZenHei-35"/>
       <use xlink:href="#WenQuanYiZenHei-30" x="59.960938"/>
       <use xlink:href="#WenQuanYiZenHei-30" x="119.921875"/>
      </g>
     </g>
    </g>
    <g id="ytick_3">
     <g id="line2d_14">
      <g>
       <use xlink:href="#mc485edb997" x="38.1875" y="207.030595" style="stroke: #000000; stroke-width: 0.8"/>
      </g>
     </g>
     <g id="text_14">
      <!-- 1000 -->
      <g transform="translate(7.2 210.45872)scale(0.1 -0.1)">
       <use xlink:href="#WenQuanYiZenHei-31"/>
       <use xlink:href="#WenQuanYiZenHei-30" x="59.960938"/>
       <use xlink:href="#WenQuanYiZenHei-30" x="119.921875"/>
       <use xlink:href="#WenQuanYiZenHei-30" x="179.882812"/>
      </g>
     </g>
    </g>
    <g id="ytick_4">
     <g id="line2d_15">
      <g>
       <use xlink:href="#mc485edb997" x="38.1875" y="134.003598" style="stroke: #000000; stroke-width: 0.8"/>
      </g>
     </g>
     <g id="text_15">
      <!-- 1500 -->
      <g transform="translate(7.2 137.431723)scale(0.1 -0.1)">
       <use xlink:href="#WenQuanYiZenHei-31"/>
       <use xlink:href="#WenQuanYiZenHei-35" x="59.960938"/>
       <use xlink:href="#WenQuanYiZenHei-30" x="119.921875"/>
       <use xlink:href="#WenQuanYiZenHei-30" x="179.882812"/>
      </g>
     </g>
    </g>
    <g id="ytick_5">
     <g id="line2d_16">
      <g>
       <use xlink:href="#mc485edb997" x="38.1875" y="60.9766" style="stroke: #000000; stroke-width: 0.8"/>
      </g>
     </g>
     <g id="text_16">
      <!-- 2000 -->
      <g transform="translate(7.2 64.404725)scale(0.1 -0.1)">
       <use xlink:href="#WenQuanYiZenHei-32"/>
       <use xlink:href="#WenQuanYiZenHei-30" x="59.960938"/>
       <use xlink:href="#WenQuanYiZenHei-30" x="119.921875"/>
       <use xlink:href="#WenQuanYiZenHei-30" x="179.882812"/>
      </g>
     </g>
    </g>
   </g>
   <g id="line2d_17">
    <path d="M 99.060227 352.500375 
L 100.398089 352.500375 
L 101.735952 351.916159 
L 103.073814 351.624051 
L 104.411676 351.039835 
L 105.749538 349.725349 
L 107.0874 349.579295 
L 108.425262 349.141133 
L 109.763124 348.556917 
L 111.100987 348.410863 
L 112.438849 347.096377 
L 113.776711 346.073999 
L 115.114573 344.321351 
L 116.452435 343.298973 
L 117.790297 343.006865 
L 119.128159 341.546325 
L 120.466021 341.254217 
L 121.803884 340.231839 
L 123.141746 339.793677 
L 124.479608 339.209461 
L 125.81747 337.602867 
L 127.155332 336.726543 
L 128.493194 335.704166 
L 129.831056 335.558112 
L 132.506781 334.973896 
L 133.844643 334.827842 
L 135.182505 334.38968 
L 136.520367 334.097572 
L 139.196091 333.805464 
L 140.533954 333.367302 
L 145.885402 333.367302 
L 147.223264 333.221248 
L 173.980507 333.221248 
L 175.318369 333.075194 
L 179.331956 333.075194 
L 182.00768 331.906762 
L 183.345542 331.906762 
L 184.683404 331.030438 
L 186.021266 330.446222 
L 187.359128 329.569898 
L 188.696991 328.839628 
L 190.034853 327.671196 
L 191.372715 327.671196 
L 192.710577 327.379088 
L 194.048439 327.379088 
L 195.386301 326.794872 
L 202.075612 326.794872 
L 203.413474 326.502764 
L 204.751336 326.35671 
L 207.42706 326.35671 
L 210.102785 326.064602 
L 211.440647 326.064602 
L 212.778509 325.918548 
L 214.116371 325.480386 
L 222.143544 325.480386 
L 223.481406 325.334332 
L 240.873614 325.334332 
L 242.211476 325.188278 
L 251.576511 325.188278 
L 252.914373 325.042224 
L 279.671616 325.042224 
L 281.009478 324.89617 
L 283.685202 324.89617 
L 286.360927 324.604062 
L 287.698789 324.604062 
L 289.036651 324.458008 
L 294.388099 324.458008 
L 295.725962 324.311954 
L 301.07741 324.311954 
L 302.415272 324.1659 
L 317.131756 324.1659 
L 318.469618 324.019846 
L 326.496791 324.019846 
L 327.834653 323.43563 
L 345.226861 323.43563 
L 346.564723 323.289576 
L 351.916171 323.289576 
L 353.254033 323.143522 
L 373.321966 323.143522 
L 374.659828 322.851414 
L 375.99769 322.851414 
L 377.335552 322.559306 
L 378.673414 322.559306 
L 380.011276 322.413252 
L 381.349138 321.536928 
L 382.687 321.536928 
L 384.024863 321.24482 
L 385.362725 321.24482 
L 388.038449 320.952712 
L 392.052035 320.952712 
L 393.389898 320.806658 
L 394.72776 320.076388 
L 396.065622 319.638226 
L 398.741346 319.638226 
L 401.41707 319.346118 
L 402.754933 319.346118 
L 405.430657 319.05401 
L 410.782105 319.05401 
L 412.119968 318.907956 
L 417.471416 318.907956 
L 418.809278 318.469794 
L 422.822865 318.469794 
L 425.498589 318.177686 
L 428.174313 318.177686 
L 429.512175 318.031632 
L 438.87721 318.031632 
L 440.215072 317.885578 
L 441.552935 317.885578 
L 442.890797 317.739524 
L 446.904383 317.739524 
L 448.242245 317.447416 
L 449.580107 317.447416 
L 450.91797 317.301362 
L 454.931556 317.301362 
L 456.269418 317.009254 
L 457.60728 316.425038 
L 458.945142 316.278984 
L 461.620867 315.694768 
L 465.634453 315.694768 
L 466.972315 315.256606 
L 468.310177 315.110552 
L 470.985902 315.110552 
L 472.323764 314.964498 
L 474.999488 314.380282 
L 476.33735 313.650012 
L 477.675212 313.650012 
L 479.013074 313.503958 
L 480.350937 313.21185 
L 483.026661 313.21185 
L 484.364523 312.919742 
L 487.040247 312.919742 
L 489.715972 312.627634 
L 491.053834 311.75131 
L 492.391696 311.459202 
L 493.729558 311.459202 
L 496.405282 310.874986 
L 497.743144 310.874986 
L 500.418869 310.582878 
L 503.094593 310.582878 
L 504.432455 309.852608 
L 508.446041 309.414446 
L 512.459628 309.414446 
L 513.79749 309.268392 
L 523.162525 309.268392 
L 524.500387 309.122338 
L 531.189698 309.122338 
L 532.52756 308.976284 
L 536.541146 308.976284 
L 537.879008 308.83023 
L 540.554733 308.83023 
L 541.892595 308.684176 
L 552.595492 308.684176 
L 555.271216 308.392068 
L 556.609078 307.953906 
L 559.284803 307.953906 
L 560.622665 307.515744 
L 565.974113 306.931528 
L 569.9877 306.931528 
L 571.325562 306.347312 
L 574.001286 305.763096 
L 578.014873 305.763096 
L 579.352735 305.324934 
L 582.028459 305.032826 
L 583.366321 305.032826 
L 584.704183 304.886772 
L 586.042045 304.156502 
L 588.71777 304.156502 
L 590.055632 304.010448 
L 591.393494 303.71834 
L 592.731356 303.71834 
L 595.40708 303.134124 
L 596.744943 302.98807 
L 599.420667 302.98807 
L 600.758529 302.842016 
L 604.772115 302.842016 
L 607.44784 302.549908 
L 611.461426 302.549908 
L 612.799288 302.403855 
L 615.475012 302.403855 
L 616.812875 302.257801 
L 618.150737 302.257801 
L 619.488599 302.111747 
L 623.502185 302.111747 
L 624.840047 301.819639 
L 627.515772 301.819639 
L 628.853634 301.673585 
L 630.191496 301.673585 
L 632.86722 301.381477 
L 634.205082 301.381477 
L 636.880807 301.089369 
L 638.218669 301.089369 
L 639.556531 300.943315 
L 642.232255 300.943315 
L 643.570117 300.797261 
L 644.90798 300.359099 
L 652.935152 300.359099 
L 654.273014 300.213045 
L 655.610877 300.213045 
L 658.286601 299.920937 
L 659.624463 299.920937 
L 660.962325 299.482775 
L 662.300187 299.336721 
L 663.638049 299.336721 
L 664.975912 299.044613 
L 667.651636 299.044613 
L 668.989498 298.752505 
L 673.003084 298.752505 
L 674.340947 298.606451 
L 682.368119 298.606451 
L 685.043844 298.314343 
L 691.733154 298.314343 
L 693.071016 298.168289 
L 695.746741 298.168289 
L 697.084603 298.022235 
L 699.760327 298.022235 
L 701.098189 297.730127 
L 702.436051 297.730127 
L 703.773914 297.584073 
L 705.111776 297.584073 
L 706.449638 297.291965 
L 707.7875 297.145911 
L 710.463224 297.145911 
L 711.801086 296.999857 
L 714.476811 296.999857 
L 715.814673 296.853803 
L 723.841846 296.853803 
L 725.179708 296.707749 
L 727.855432 296.707749 
L 729.193294 296.561695 
L 734.544743 296.561695 
L 735.882605 296.415641 
L 743.909778 296.415641 
L 745.24764 296.269587 
L 747.923364 296.269587 
L 750.599088 295.977479 
L 751.936951 295.685371 
L 766.653434 295.685371 
L 767.991296 295.539317 
L 769.329158 295.539317 
L 770.66702 295.393263 
L 774.680607 295.393263 
L 776.018469 295.247209 
L 777.356331 294.955101 
L 782.70778 294.955101 
L 784.045642 294.809047 
L 792.072815 294.809047 
L 793.410677 294.662993 
L 794.748539 294.662993 
L 796.086401 294.516939 
L 804.113574 294.516939 
L 805.451436 294.370885 
L 808.12716 294.370885 
L 809.465022 294.078777 
L 812.140747 294.078777 
L 813.478609 293.786669 
L 816.154333 293.786669 
L 818.830057 293.494561 
L 820.16792 293.494561 
L 821.505782 292.910345 
L 825.519368 292.910345 
L 826.85723 292.472183 
L 829.532955 292.472183 
L 833.546541 292.034021 
L 836.222265 292.034021 
L 837.560127 291.887967 
L 840.235852 291.887967 
L 842.911576 291.011643 
L 844.249438 291.011643 
L 845.5873 290.573481 
L 846.925162 290.427427 
L 848.263024 290.427427 
L 849.600887 290.281373 
L 850.938749 289.551103 
L 854.952335 289.551103 
L 856.290197 289.405049 
L 858.965922 289.405049 
L 860.303784 289.112941 
L 861.641646 288.674779 
L 862.979508 288.528725 
L 864.31737 288.528725 
L 865.655232 288.090563 
L 866.993094 286.483969 
L 871.006681 286.045807 
L 872.344543 285.607645 
L 877.695992 285.023429 
L 879.033854 285.023429 
L 880.371716 284.439213 
L 881.709578 284.147105 
L 883.04744 284.001051 
L 884.385302 283.708943 
L 887.061026 283.708943 
L 888.398889 283.562889 
L 889.736751 283.270781 
L 897.763924 283.270781 
L 899.101786 283.124727 
L 901.77751 283.124727 
L 903.115372 282.978673 
L 907.128959 282.978673 
L 908.466821 282.832619 
L 912.480407 282.832619 
L 913.818269 282.394457 
L 915.156131 282.394457 
L 916.493994 282.248403 
L 917.831856 282.248403 
L 920.50758 281.956295 
L 924.521166 281.956295 
L 925.859028 281.518133 
L 932.548339 281.518133 
L 935.224063 280.933917 
L 939.23765 280.933917 
L 940.575512 280.787863 
L 941.913374 280.349701 
L 943.251236 280.057593 
L 952.616271 280.057593 
L 953.954133 279.911539 
L 955.291996 279.911539 
L 956.629858 279.765485 
L 957.96772 279.765485 
L 959.305582 279.619431 
L 963.319168 279.619431 
L 964.65703 279.473377 
L 965.994893 279.473377 
L 967.332755 279.327323 
L 970.008479 279.327323 
L 972.684203 279.035215 
L 975.359928 279.035215 
L 976.69779 278.743107 
L 978.035652 278.743107 
L 979.373514 278.597053 
L 980.711376 278.597053 
L 982.049238 278.158891 
L 983.3871 277.428621 
L 986.062825 277.428621 
L 987.400687 277.282567 
L 988.738549 276.114135 
L 991.414273 276.114135 
L 992.752135 275.968081 
L 998.103584 275.968081 
L 1000.779308 275.675973 
L 1003.455032 275.675973 
L 1004.792895 275.529919 
L 1006.130757 275.529919 
L 1008.806481 275.237811 
L 1010.144343 275.237811 
L 1011.482205 274.945703 
L 1014.15793 274.945703 
L 1016.833654 274.653595 
L 1027.536551 274.653595 
L 1028.874413 274.361487 
L 1032.888 273.923325 
L 1034.225862 273.485163 
L 1036.901586 273.485163 
L 1039.57731 271.002245 
L 1040.915172 270.710137 
L 1042.253034 270.564083 
L 1043.590897 269.541705 
L 1046.266621 268.373274 
L 1047.604483 267.058788 
L 1048.942345 266.328518 
L 1050.280207 266.03641 
L 1051.618069 265.890356 
L 1052.955932 265.160086 
L 1054.293794 264.57587 
L 1055.631656 263.261384 
L 1056.969518 262.38506 
L 1058.30738 261.800844 
L 1059.645242 258.149494 
L 1060.983104 255.520522 
L 1062.320967 250.116524 
L 1063.658829 243.251986 
L 1064.996691 237.847988 
L 1066.334553 231.859775 
L 1067.672415 226.893939 
L 1069.010277 215.209619 
L 1070.348139 212.580647 
L 1073.023864 208.491135 
L 1074.361726 207.322703 
L 1075.699588 206.446379 
L 1077.03745 205.716109 
L 1078.375312 205.277947 
L 1079.713174 205.131893 
L 1081.051036 204.839785 
L 1082.388899 204.693731 
L 1083.726761 204.109515 
L 1085.064623 203.233191 
L 1086.402485 202.648975 
L 1087.740347 201.042382 
L 1089.078209 199.727896 
L 1090.416071 197.975248 
L 1091.753934 196.514708 
L 1093.091796 195.930492 
L 1094.429658 195.49233 
L 1095.76752 195.200222 
L 1097.105382 195.054168 
L 1098.443244 194.76206 
L 1099.781106 194.616006 
L 1101.118969 194.616006 
L 1105.132555 194.177844 
L 1107.808279 194.177844 
L 1109.146141 194.03179 
L 1111.821866 194.03179 
L 1113.159728 193.593628 
L 1115.835452 193.30152 
L 1117.173314 193.30152 
L 1118.511176 192.863358 
L 1121.186901 192.57125 
L 1122.524763 191.694926 
L 1123.862625 190.964656 
L 1125.200487 189.65017 
L 1126.538349 188.627792 
L 1127.876211 188.043576 
L 1129.214073 187.751468 
L 1130.551936 187.167252 
L 1131.889798 185.122496 
L 1134.565522 184.830388 
L 1135.903384 183.954064 
L 1137.241246 182.201416 
L 1138.579108 179.42639 
L 1139.916971 175.921094 
L 1141.254833 170.517096 
L 1142.592695 167.157855 
L 1143.930557 160.585425 
L 1147.944143 136.486515 
L 1149.282005 127.285114 
L 1150.619868 123.049548 
L 1151.95773 119.398198 
L 1153.295592 116.18501 
L 1154.633454 114.870524 
L 1158.64704 102.894096 
L 1159.984903 97.782207 
L 1161.322765 95.299289 
L 1163.998489 93.108479 
L 1165.336351 92.816371 
L 1166.674213 92.232155 
L 1170.6878 91.793993 
L 1172.025662 91.793993 
L 1173.363524 91.355831 
L 1174.701386 90.771615 
L 1176.039248 90.771615 
L 1177.37711 90.625561 
L 1178.714973 90.625561 
L 1180.052835 90.479507 
L 1182.728559 90.479507 
L 1184.066421 90.333453 
L 1185.404283 90.333453 
L 1186.742145 90.187399 
L 1198.782905 90.187399 
L 1200.120767 89.895291 
L 1202.796491 89.895291 
L 1204.134353 89.749237 
L 1208.14794 89.749237 
L 1209.485802 89.603183 
L 1228.215872 89.603183 
L 1229.553734 88.580805 
L 1230.891596 86.243941 
L 1233.56732 83.907077 
L 1234.905182 83.030753 
L 1236.243044 77.772809 
L 1237.580907 73.099081 
L 1238.918769 70.762217 
L 1240.256631 69.739839 
L 1241.594493 68.133246 
L 1242.932355 67.110868 
L 1244.270217 66.526652 
L 1245.608079 65.504274 
L 1246.945942 64.62795 
L 1254.973114 64.62795 
L 1256.310977 64.335842 
L 1257.648839 64.189788 
L 1263.000287 64.189788 
L 1264.338149 64.043734 
L 1265.676011 63.751626 
L 1267.013874 63.313464 
L 1268.351736 63.16741 
L 1273.703184 63.16741 
L 1275.041046 62.729248 
L 1276.378909 62.583194 
L 1277.716771 61.998978 
L 1279.054633 61.998978 
L 1281.730357 61.70687 
L 1283.068219 60.538438 
L 1284.406081 59.808168 
L 1288.419668 59.808168 
L 1289.75753 59.51606 
L 1291.095392 59.370006 
L 1292.433254 59.370006 
L 1293.771116 59.223952 
L 1295.108979 58.639736 
L 1297.784703 58.347628 
L 1299.122565 57.617358 
L 1299.122565 57.617358 
" clip-path="url(#p5f8cea1e97)" style="fill: none; stroke: #0000ff; stroke-width: 1.5; stroke-linecap: square"/>
   </g>
   <g id="line2d_18">
    <path d="M 1059.645242 255.53157 
L 1060.983104 252.89543 
L 1062.320967 245.688534 
L 1063.658829 237.243214 
L 1064.996691 232.231581 
L 1066.334553 226.002147 
L 1067.672415 221.614888 
L 1069.010277 205.77496 
L 1070.348139 207.56138 
L 1071.686001 207.446427 
L 1073.023864 206.079456 
L 1075.699588 205.3141 
L 1077.03745 204.844645 
L 1078.375312 204.687601 
L 1079.713174 204.829795 
L 1081.051036 204.544169 
L 1082.388899 204.495148 
L 1083.726761 203.660741 
L 1085.064623 202.507032 
L 1086.402485 202.014906 
L 1087.740347 199.777358 
L 1089.078209 198.430782 
L 1090.416071 196.382593 
L 1091.753934 195.007766 
L 1093.091796 195.022196 
L 1095.76752 194.798823 
L 1097.105382 194.818431 
L 1098.443244 194.489751 
L 1099.781106 194.425608 
L 1101.118969 194.549134 
L 1105.132555 194.03522 
L 1107.808279 194.16025 
L 1109.146141 193.930854 
L 1111.821866 194.019339 
L 1113.159728 193.304984 
L 1117.173314 193.244045 
L 1118.511176 192.558901 
L 1121.186901 192.405656 
L 1122.524763 191.068225 
L 1123.862625 190.270761 
L 1125.200487 188.553648 
L 1126.538349 187.579373 
L 1127.876211 187.296323 
L 1129.214073 187.299504 
L 1130.551936 186.629485 
L 1131.889798 183.607025 
L 1133.22766 184.349421 
L 1134.565522 184.515409 
L 1135.903384 183.274896 
L 1137.241246 180.825796 
L 1138.579108 177.142864 
L 1139.916971 172.844909 
L 1141.254833 165.930673 
L 1142.592695 163.367602 
L 1143.930557 154.990152 
L 1145.268419 145.616465 
L 1146.606281 137.448176 
L 1147.944143 128.353138 
L 1149.282005 118.458824 
L 1150.619868 117.201627 
L 1153.295592 112.546971 
L 1154.633454 112.739959 
L 1155.971316 107.379522 
L 1157.309178 102.602825 
L 1158.64704 99.140446 
L 1159.984903 93.147358 
L 1161.322765 92.060569 
L 1162.660627 92.235298 
L 1163.998489 91.779422 
L 1165.336351 92.160065 
L 1166.674213 91.62262 
L 1168.012075 91.777263 
L 1172.025662 91.735643 
L 1174.701386 90.285548 
L 1176.039248 90.600898 
L 1177.37711 90.470845 
L 1178.714973 90.571221 
L 1180.052835 90.365665 
L 1182.728559 90.465464 
L 1184.066421 90.233764 
L 1185.404283 90.29844 
L 1186.742145 90.080345 
L 1190.755732 90.182761 
L 1198.782905 90.18739 
L 1200.120767 89.705774 
L 1202.796491 89.871913 
L 1204.134353 89.646269 
L 1208.14794 89.744776 
L 1209.485802 89.506859 
L 1213.499388 89.59901 
L 1228.215872 89.603183 
L 1229.553734 87.917507 
L 1230.891596 84.494867 
L 1232.229458 83.703144 
L 1233.56732 82.66702 
L 1234.905182 82.026679 
L 1236.243044 74.008911 
L 1237.580907 68.744904 
L 1238.918769 67.716832 
L 1240.256631 68.00694 
L 1241.594493 66.482291 
L 1242.932355 65.867721 
L 1244.270217 65.711006 
L 1245.608079 64.554504 
L 1246.945942 63.72583 
L 1248.283804 64.311107 
L 1249.621666 64.516668 
L 1253.635252 64.623128 
L 1254.973114 64.626256 
L 1256.310977 64.145733 
L 1257.648839 64.028261 
L 1260.324563 64.169862 
L 1263.000287 64.18733 
L 1264.338149 63.948114 
L 1265.676011 63.528528 
L 1267.013874 62.950837 
L 1268.351736 62.945291 
L 1271.02746 63.14001 
L 1273.703184 63.16403 
L 1275.041046 62.44379 
L 1276.378909 62.388178 
L 1277.716771 61.551457 
L 1279.054633 61.841799 
L 1281.730357 61.559443 
L 1283.068219 59.728604 
L 1284.406081 59.049953 
L 1285.743944 59.541867 
L 1287.081806 59.714638 
L 1288.419668 59.775318 
L 1289.75753 59.315009 
L 1291.095392 59.204636 
L 1292.433254 59.311924 
L 1293.771116 59.108796 
L 1295.108979 58.220263 
L 1296.446841 58.251598 
L 1297.784703 58.167846 
L 1299.122565 57.080431 
L 1299.122565 57.080431 
" clip-path="url(#p5f8cea1e97)" style="fill: none; stroke: #ffa500; stroke-width: 1.5; stroke-linecap: square"/>
   </g>
   <g id="line2d_19">
    <path d="M 1299.122565 57.080431 
L 1300.460427 56.543503 
L 1301.798289 56.006576 
L 1303.136151 55.469648 
L 1304.474013 54.932721 
L 1305.811876 54.395794 
L 1307.149738 53.858866 
L 1308.4876 53.321939 
L 1309.825462 52.785012 
L 1311.163324 52.248084 
L 1312.501186 51.711157 
L 1313.839048 51.17423 
L 1315.176911 50.637302 
L 1316.514773 50.100375 
" clip-path="url(#p5f8cea1e97)" style="fill: none; stroke: #ff0000; stroke-width: 1.5; stroke-linecap: square"/>
   </g>
   <g id="patch_3">
    <path d="M 38.1875 367.620375 
L 38.1875 34.980375 
" style="fill: none; stroke: #000000; stroke-width: 0.8; stroke-linejoin: miter; stroke-linecap: square"/>
   </g>
   <g id="patch_4">
    <path d="M 1377.3875 367.620375 
L 1377.3875 34.980375 
" style="fill: none; stroke: #000000; stroke-width: 0.8; stroke-linejoin: miter; stroke-linecap: square"/>
   </g>
   <g id="patch_5">
    <path d="M 38.1875 367.620375 
L 1377.3875 367.620375 
" style="fill: none; stroke: #000000; stroke-width: 0.8; stroke-linejoin: miter; stroke-linecap: square"/>
   </g>
   <g id="patch_6">
    <path d="M 38.1875 34.980375 
L 1377.3875 34.980375 
" style="fill: none; stroke: #000000; stroke-width: 0.8; stroke-linejoin: miter; stroke-linecap: square"/>
   </g>
   <g id="text_17">
    <!-- 累计确诊预测 - 天津 -->
    <g transform="translate(654.390313 16.96125)scale(0.12 -0.12)">
     <defs>
      <path id="WenQuanYiZenHei-7d2f" d="M 5963 -681 
Q 5363 -81 4706 456 
L 5000 819 
Q 5675 269 6294 -350 
L 5963 -681 
z
M 1944 738 
Q 2094 556 2281 413 
Q 1575 -356 375 -706 
Q 350 -481 200 -319 
Q 725 -181 1122 69 
Q 1519 319 1944 738 
z
M 3244 -169 
L 3244 1063 
L 869 881 
L 850 1181 
Q 1431 1325 2969 1988 
L 1119 1931 
L 1113 2231 
Q 1350 2263 1862 2497 
Q 2375 2731 2800 2988 
L 1094 2988 
Q 1169 4006 1094 5019 
L 5506 5019 
Q 5425 4006 5500 2988 
L 3431 2988 
Q 3475 2931 3525 2875 
Q 2856 2494 2281 2256 
L 3388 2269 
L 3650 2288 
Q 4338 2606 4650 2800 
Q 4744 2563 4881 2344 
Q 4644 2225 3975 1956 
L 2269 1281 
L 4444 1425 
L 4813 1469 
L 4681 1588 
L 4988 1938 
Q 5481 1500 5863 963 
L 5481 694 
Q 5300 950 5081 1188 
L 4463 1163 
L 3669 1100 
L 3669 -250 
Q 3669 -444 3488 -594 
Q 3225 -819 2569 -813 
Q 2638 -513 2431 -294 
Q 2619 -319 2900 -322 
Q 3181 -325 3212 -294 
Q 3244 -263 3244 -169 
z
M 3513 4131 
L 5081 4131 
L 5081 4725 
L 3513 4725 
L 3513 4131 
z
M 3088 4131 
L 3088 4725 
L 1519 4725 
L 1519 4131 
L 3088 4131 
z
M 3513 3856 
L 3513 3288 
L 5081 3288 
L 5081 3856 
L 3513 3856 
z
M 3088 3856 
L 1519 3856 
L 1519 3288 
L 3088 3288 
L 3088 3856 
z
" transform="scale(0.015625)"/>
      <path id="WenQuanYiZenHei-8ba1" d="M 4569 -769 
Q 4313 -738 4056 -769 
Q 4081 -294 4081 175 
L 4081 2806 
L 3213 2806 
Q 2813 2806 2413 2788 
Q 2438 3000 2413 3219 
Q 2813 3200 3213 3200 
L 4081 3200 
L 4081 4313 
Q 4081 4788 4056 5263 
Q 4313 5231 4569 5263 
Q 4550 4788 4550 4313 
L 4550 3200 
L 5381 3200 
Q 5781 3200 6181 3219 
Q 6163 3000 6181 2788 
Q 5781 2806 5381 2806 
L 4550 2806 
L 4550 175 
Q 4550 -294 4569 -769 
z
M 38 2725 
Q 63 2931 38 3138 
Q 419 3119 800 3119 
L 1481 3119 
L 1481 425 
L 2044 1150 
L 2250 1488 
L 2525 1188 
L 2313 950 
L 1294 -488 
L 963 -231 
Q 1025 -94 1025 63 
L 1025 2744 
L 800 2744 
Q 419 2744 38 2725 
z
M 1450 3913 
Q 1094 4438 600 4831 
L 913 5225 
Q 1488 4769 1869 4194 
L 1450 3913 
z
" transform="scale(0.015625)"/>
      <path id="WenQuanYiZenHei-786e" d="M 4794 -769 
Q 4563 -744 4331 -769 
Q 4350 -344 4350 81 
L 4350 1081 
L 3419 1081 
L 3419 788 
Q 3419 225 3150 -194 
Q 2881 -613 2456 -806 
Q 2375 -569 2150 -444 
Q 2531 -344 2765 -15 
Q 3000 313 3000 788 
L 2994 2919 
L 2888 2813 
Q 2769 3000 2563 3081 
Q 3044 3494 3309 3969 
Q 3575 4444 3763 5119 
Q 3981 5044 4213 5013 
Q 4144 4700 4025 4400 
L 5238 4400 
L 5306 4050 
Q 5213 4031 5163 3947 
Q 5113 3863 4813 3325 
L 5994 3325 
L 5994 -150 
Q 5981 -519 5738 -656 
Q 5469 -806 5069 -806 
Q 5125 -525 4956 -294 
Q 5100 -313 5290 -316 
Q 5481 -319 5525 -278 
Q 5569 -238 5569 25 
L 5569 1081 
L 4769 1081 
L 4769 81 
Q 4769 -344 4794 -769 
z
M 4769 1344 
L 5569 1344 
L 5569 2100 
L 4769 2100 
L 4769 1344 
z
M 4350 1344 
L 4350 2100 
L 3413 2100 
L 3419 1344 
L 4350 1344 
z
M 4769 2363 
L 5569 2363 
L 5569 3038 
L 4769 3038 
L 4769 2363 
z
M 4350 2363 
L 4350 3038 
L 3413 3038 
L 3413 2363 
L 4350 2363 
z
M 3375 3325 
L 4350 3325 
L 4344 3331 
L 4775 4113 
L 3894 4113 
Q 3688 3700 3375 3325 
z
M 481 1069 
Q 281 1194 -25 1188 
Q 775 2750 1244 4294 
L 869 4294 
Q 563 4294 250 4275 
Q 269 4438 250 4594 
Q 563 4581 869 4581 
L 2156 4581 
Q 2463 4581 2775 4594 
Q 2756 4438 2775 4275 
Q 2463 4294 2156 4294 
L 1744 4294 
L 1181 2763 
L 2494 2763 
L 2494 -338 
L 2050 -338 
L 2050 156 
L 1406 156 
Q 1406 -94 1419 -350 
Q 1181 -325 938 -350 
Q 956 75 956 500 
L 956 2181 
L 769 1713 
Q 631 1388 481 1069 
z
M 2050 2475 
L 1400 2475 
L 1400 425 
L 2050 425 
L 2050 2475 
z
" transform="scale(0.015625)"/>
      <path id="WenQuanYiZenHei-8bca" d="M 5369 1456 
Q 5556 1256 5775 1100 
Q 5038 344 4081 -225 
Q 3106 -819 1788 -1006 
Q 1788 -725 1631 -500 
Q 3363 -306 4406 519 
Q 4919 956 5369 1456 
z
M 4594 2219 
Q 4781 2031 5013 1881 
Q 3625 394 2150 -25 
Q 2113 250 1913 444 
Q 2475 594 3015 850 
Q 3556 1106 3919 1463 
Q 4275 1819 4594 2219 
z
M 3969 3188 
Q 4150 3013 4356 2881 
Q 3625 1913 2306 1275 
Q 2244 1500 2056 1644 
Q 2619 1900 3053 2256 
Q 3488 2613 3969 3188 
z
M 5813 2194 
Q 4525 2913 3731 4188 
Q 2919 2844 1813 2163 
Q 1700 2413 1456 2550 
Q 1950 2844 2400 3231 
Q 2850 3619 3113 4063 
Q 3413 4581 3644 5163 
Q 3881 5038 4144 4963 
Q 4056 4775 3963 4594 
Q 4325 3919 4844 3441 
Q 5363 2963 6175 2538 
Q 5931 2431 5813 2194 
z
M 31 2613 
Q 50 2775 31 2938 
Q 325 2925 619 2925 
L 1275 2925 
L 1275 506 
L 1675 1006 
L 1831 1250 
L 2038 1013 
L 1881 838 
L 1100 -256 
L 825 -25 
Q 869 81 869 200 
L 869 2625 
L 31 2613 
z
M 950 3713 
Q 606 4325 200 4881 
L 556 5163 
Q 981 4588 1338 3944 
L 950 3713 
z
" transform="scale(0.015625)"/>
      <path id="WenQuanYiZenHei-9884" d="M 1206 19 
L 1206 2888 
L 669 2888 
Q 356 2888 50 2869 
Q 63 3044 50 3213 
Q 363 3194 669 3194 
L 1250 3194 
Q 950 3631 606 4031 
L 963 4338 
L 1263 3975 
L 1913 4719 
L 731 4719 
Q 419 4719 106 4706 
Q 125 4875 106 5044 
Q 419 5031 731 5031 
L 2481 5031 
L 2544 4663 
Q 2394 4613 2256 4466 
Q 2119 4319 1525 3631 
Q 1656 3444 1788 3250 
L 1700 3194 
L 2700 3194 
L 2763 2825 
Q 2656 2819 2613 2763 
L 2100 2038 
L 1750 2288 
L 2175 2888 
L 1638 2888 
L 1638 -150 
Q 1638 -525 1363 -669 
Q 1075 -819 525 -813 
Q 594 -513 388 -294 
Q 575 -313 837 -316 
Q 1100 -319 1153 -272 
Q 1206 -225 1206 19 
z
M 5813 -888 
Q 5100 -225 4306 375 
L 4669 719 
Q 5481 106 6219 -575 
L 5813 -888 
z
M 2375 -906 
Q 2294 -631 2025 -506 
Q 2769 -431 3353 19 
Q 3938 469 3938 1069 
L 3938 2200 
Q 3938 2625 3913 3050 
Q 4188 3025 4456 3050 
Q 4431 2625 4431 2200 
L 4431 1069 
Q 4431 681 4225 319 
Q 3644 -606 2375 -906 
z
M 3444 488 
Q 3169 513 2894 488 
Q 2919 913 2919 1338 
L 2919 3675 
Q 3219 3675 3525 3675 
Q 3750 4013 3931 4525 
L 3238 4525 
Q 2888 4525 2538 4513 
Q 2556 4669 2538 4831 
Q 2888 4813 3238 4813 
L 5313 4813 
Q 5663 4813 6006 4831 
Q 5988 4669 6006 4513 
Q 5663 4525 5313 4525 
L 4481 4525 
Q 4388 4088 4088 3675 
L 5644 3675 
L 5644 513 
L 5144 513 
L 5144 3388 
L 3894 3388 
L 3875 3363 
Q 3863 3375 3844 3388 
Q 3631 3388 3413 3388 
L 3419 1338 
Q 3419 913 3444 488 
z
" transform="scale(0.015625)"/>
      <path id="WenQuanYiZenHei-6d4b" d="M 5450 138 
L 5450 4306 
Q 5450 4750 5425 5188 
Q 5663 5163 5906 5188 
Q 5881 4750 5881 4306 
L 5881 -38 
Q 5888 -569 5519 -719 
Q 5194 -831 4825 -813 
Q 4894 -519 4694 -281 
Q 4869 -306 5094 -309 
Q 5319 -313 5384 -256 
Q 5450 -200 5450 138 
z
M 4900 938 
Q 4663 963 4419 938 
Q 4444 1375 4444 1819 
L 4444 3381 
Q 4444 3819 4419 4263 
Q 4663 4238 4900 4263 
Q 4875 3819 4875 3381 
L 4875 1819 
Q 4875 1375 4900 938 
z
M 2750 2025 
L 2750 3038 
Q 2750 3481 2725 3919 
Q 2963 3894 3206 3919 
Q 3181 3481 3181 3038 
L 3181 2025 
Q 3181 1263 2919 625 
L 3231 956 
Q 3781 431 4256 -150 
L 3888 -456 
Q 3431 106 2906 600 
Q 2531 -288 1738 -769 
Q 1606 -519 1338 -450 
Q 1988 -156 2369 478 
Q 2750 1113 2750 2025 
z
M 2363 969 
Q 2119 994 1881 969 
Q 1906 1406 1906 1850 
L 1906 5038 
L 3956 5031 
L 3956 1200 
L 3525 1200 
L 3525 4713 
L 2338 4713 
L 2338 1850 
Q 2338 1406 2363 969 
z
M 663 -738 
Q 481 -588 206 -575 
Q 400 -69 606 581 
Q 813 1231 1200 2838 
L 1381 2706 
L 875 338 
L 663 -738 
z
M 1006 2856 
L 731 2550 
L 75 3400 
L 350 3713 
L 1006 2856 
z
M 1088 3913 
Q 781 4388 425 4800 
L 694 5125 
Q 1069 4688 1388 4188 
L 1088 3913 
z
" transform="scale(0.015625)"/>
      <path id="WenQuanYiZenHei-20" transform="scale(0.015625)"/>
      <path id="WenQuanYiZenHei-5929" d="M 1306 2594 
Q 906 2594 506 2575 
Q 531 2788 506 3006 
Q 906 2988 1306 2988 
L 2888 2988 
L 2888 4575 
L 1838 4575 
Q 1438 4575 1038 4556 
Q 1063 4775 1038 4988 
Q 1438 4969 1838 4969 
L 4519 4969 
Q 4919 4969 5319 4988 
Q 5294 4775 5319 4556 
Q 4919 4575 4519 4575 
L 3350 4575 
L 3350 2988 
L 5081 2988 
Q 5475 2988 5875 3006 
Q 5856 2788 5875 2575 
Q 5475 2594 5081 2594 
L 3413 2594 
Q 3719 1519 4250 888 
Q 4956 63 6119 -219 
Q 5900 -388 5831 -656 
Q 4931 -425 4256 250 
Q 3581 925 3200 1881 
Q 2938 1019 2275 328 
Q 1613 -363 669 -681 
Q 550 -388 244 -288 
Q 1331 -38 2053 771 
Q 2775 1581 2875 2594 
L 1306 2594 
z
" transform="scale(0.015625)"/>
      <path id="WenQuanYiZenHei-6d25" d="M 4000 -769 
Q 3763 -744 3525 -769 
Q 3544 -325 3544 113 
L 3544 556 
L 2419 556 
Q 2094 556 1769 538 
Q 1788 713 1769 888 
Q 2094 875 2419 875 
L 3544 875 
L 3544 1450 
L 2806 1450 
Q 2481 1450 2156 1438 
Q 2175 1613 2156 1788 
Q 2481 1769 2806 1769 
L 3544 1769 
L 3544 2475 
L 2863 2475 
Q 2538 2475 2219 2456 
Q 2238 2631 2219 2806 
Q 2538 2794 2863 2794 
L 3544 2794 
L 3544 3388 
L 2581 3388 
Q 2256 3388 1931 3369 
Q 1950 3544 1931 3719 
Q 2256 3706 2581 3706 
L 3544 3706 
L 3544 4300 
L 2850 4300 
Q 2525 4300 2200 4281 
Q 2219 4456 2200 4631 
Q 2525 4619 2850 4619 
L 3544 4619 
Q 3538 4938 3525 5256 
Q 3763 5231 4000 5256 
Q 3981 4938 3981 4619 
L 5394 4619 
L 5394 3706 
L 6169 3719 
Q 6150 3544 6169 3369 
L 5394 3388 
L 5394 2200 
L 4956 2200 
L 4956 2475 
L 3975 2475 
L 3975 1769 
L 5075 1769 
Q 5400 1769 5719 1788 
Q 5700 1613 5719 1438 
Q 5400 1450 5075 1450 
L 3975 1450 
L 3975 875 
L 5431 875 
Q 5756 875 6081 888 
Q 6063 713 6081 538 
Q 5756 556 5431 556 
L 3975 556 
L 3975 113 
Q 3975 -325 4000 -769 
z
M 3975 2794 
L 4956 2794 
L 4956 3388 
L 3975 3388 
L 3975 2794 
z
M 3975 3706 
L 4956 3706 
L 4956 4300 
L 3975 4300 
L 3975 3706 
z
M 788 -738 
Q 575 -588 250 -575 
Q 481 -69 725 581 
Q 969 1231 1438 2838 
L 1650 2706 
L 1044 338 
L 788 -738 
z
M 1206 2856 
L 869 2550 
L 88 3400 
L 425 3713 
L 1206 2856 
z
M 1300 3913 
Q 938 4388 513 4800 
L 825 5125 
Q 1275 4688 1663 4188 
L 1300 3913 
z
" transform="scale(0.015625)"/>
     </defs>
     <use xlink:href="#WenQuanYiZenHei-7d2f"/>
     <use xlink:href="#WenQuanYiZenHei-8ba1" x="100"/>
     <use xlink:href="#WenQuanYiZenHei-786e" x="200"/>
     <use xlink:href="#WenQuanYiZenHei-8bca" x="300"/>
     <use xlink:href="#WenQuanYiZenHei-9884" x="400"/>
     <use xlink:href="#WenQuanYiZenHei-6d4b" x="500"/>
     <use xlink:href="#WenQuanYiZenHei-20" x="600"/>
     <use xlink:href="#WenQuanYiZenHei-2d" x="629.980469"/>
     <use xlink:href="#WenQuanYiZenHei-20" x="659.960938"/>
     <use xlink:href="#WenQuanYiZenHei-5929" x="689.941406"/>
     <use xlink:href="#WenQuanYiZenHei-6d25" x="789.941406"/>
    </g>
    <!-- ARIMA (0, 2, 1)x(0, 0, 0, 7) (R2 = 0.998630) -->
    <g transform="translate(589.179688 28.980375)scale(0.12 -0.12)">
     <defs>
      <path id="WenQuanYiZenHei-41" d="M 3550 0 
L 2988 0 
L 2550 1281 
L 919 1281 
L 531 0 
L 69 0 
L 1494 4388 
L 2125 4388 
L 3550 0 
z
M 2425 1694 
L 1756 3800 
L 1075 1694 
L 2425 1694 
z
" transform="scale(0.015625)"/>
      <path id="WenQuanYiZenHei-52" d="M 3675 0 
L 3100 0 
L 2288 1900 
L 1069 1900 
L 1069 0 
L 519 0 
L 519 4388 
L 2163 4388 
Q 3006 4388 3400 3900 
Q 3581 3663 3625 3325 
Q 3631 3250 3631 3163 
Q 3631 2594 3219 2244 
Q 3038 2100 2813 2038 
L 3675 0 
z
M 3081 3169 
Q 3081 3825 2356 3906 
Q 2263 3919 2163 3919 
L 1069 3919 
L 1069 2350 
L 2100 2350 
Q 2906 2350 3044 2919 
Q 3081 3031 3081 3169 
z
" transform="scale(0.015625)"/>
      <path id="WenQuanYiZenHei-49" d="M 1100 0 
L 550 0 
L 550 4388 
L 1100 4388 
L 1100 0 
z
" transform="scale(0.015625)"/>
      <path id="WenQuanYiZenHei-4d" d="M 4756 0 
L 4206 0 
L 4206 3831 
L 4181 3831 
L 2788 0 
L 2419 0 
L 1000 3831 
L 975 3831 
L 975 0 
L 513 0 
L 513 4388 
L 1331 4388 
L 2656 875 
L 3950 4388 
L 4756 4388 
L 4756 0 
z
" transform="scale(0.015625)"/>
      <path id="WenQuanYiZenHei-28" d="M 1606 -1094 
L 1275 -1094 
Q 475 -100 338 1231 
Q 319 1438 319 1656 
Q 319 3031 1156 4244 
Q 1213 4313 1269 4388 
L 1600 4388 
Q 806 3169 794 1681 
Q 794 188 1606 -1094 
z
" transform="scale(0.015625)"/>
      <path id="WenQuanYiZenHei-2c" d="M 1363 75 
L 881 -825 
L 606 -825 
L 994 0 
L 656 0 
L 656 738 
L 1363 738 
L 1363 75 
z
" transform="scale(0.015625)"/>
      <path id="WenQuanYiZenHei-29" d="M 1600 1656 
Q 1600 306 869 -788 
Q 769 -950 644 -1094 
L 313 -1094 
Q 1125 188 1125 1681 
Q 1125 3169 338 4363 
Q 325 4375 319 4388 
L 650 4388 
Q 1525 3231 1594 1863 
Q 1600 1763 1600 1656 
z
" transform="scale(0.015625)"/>
      <path id="WenQuanYiZenHei-78" d="M 2806 0 
L 2213 0 
L 1394 1319 
L 544 0 
L 50 0 
L 1144 1681 
L 163 3250 
L 744 3250 
L 1431 2138 
L 2144 3250 
L 2631 3250 
L 1681 1794 
L 2806 0 
z
" transform="scale(0.015625)"/>
      <path id="WenQuanYiZenHei-3d" d="M 3569 2256 
L 263 2256 
L 263 2675 
L 3569 2675 
L 3569 2256 
z
M 3569 1019 
L 263 1019 
L 263 1431 
L 3569 1431 
L 3569 1019 
z
" transform="scale(0.015625)"/>
      <path id="WenQuanYiZenHei-2e" d="M 1344 0 
L 631 0 
L 631 725 
L 1344 725 
L 1344 0 
z
" transform="scale(0.015625)"/>
      <path id="WenQuanYiZenHei-39" d="M 3544 2300 
Q 3544 1163 3019 513 
Q 2563 -63 1775 -63 
Q 956 -63 563 488 
Q 463 631 394 813 
L 838 975 
Q 1025 494 1550 388 
Q 1656 369 1775 369 
Q 2594 369 2900 1325 
Q 3044 1769 3038 2313 
L 3025 2313 
Q 2675 1638 1944 1544 
Q 1844 1531 1744 1531 
Q 1050 1531 625 2031 
Q 294 2419 294 2963 
Q 294 3656 813 4094 
Q 1238 4456 1819 4456 
Q 2988 4456 3381 3363 
Q 3544 2900 3544 2300 
z
M 2925 2994 
Q 2925 3563 2469 3844 
Q 2206 4006 1863 4006 
Q 1275 4006 988 3563 
Q 844 3344 825 3056 
Q 819 3006 819 2956 
Q 819 2413 1269 2131 
Q 1538 1963 1875 1963 
Q 2363 1963 2681 2350 
Q 2925 2638 2925 2994 
z
" transform="scale(0.015625)"/>
      <path id="WenQuanYiZenHei-38" d="M 3619 1175 
Q 3619 431 2850 100 
Q 2444 -63 1944 -63 
Q 1231 -63 725 269 
Q 225 594 225 1125 
Q 225 1881 1269 2281 
Q 719 2481 519 2938 
Q 444 3119 444 3319 
Q 444 4000 1144 4294 
Q 1519 4456 1963 4456 
Q 2669 4456 3094 4094 
Q 3425 3813 3425 3369 
Q 3425 2638 2575 2356 
Q 3231 2056 3450 1725 
Q 3619 1488 3619 1175 
z
M 2944 3344 
Q 2944 3906 2288 4019 
Q 2138 4044 1969 4044 
Q 1438 4044 1163 3775 
Q 1000 3613 1000 3375 
Q 1000 2925 1594 2663 
Q 1756 2588 1931 2550 
Q 2581 2725 2788 2956 
Q 2944 3125 2944 3344 
z
M 3075 1094 
Q 3075 1738 1875 2050 
Q 1094 1881 850 1463 
Q 763 1313 763 1131 
Q 763 569 1456 406 
Q 1681 344 1944 344 
Q 2519 344 2850 619 
Q 3075 813 3075 1094 
z
" transform="scale(0.015625)"/>
      <path id="WenQuanYiZenHei-36" d="M 3550 1431 
Q 3550 725 3006 288 
Q 2581 -63 1994 -63 
Q 1013 -63 563 825 
Q 288 1363 288 2081 
Q 288 3294 856 3938 
Q 1319 4456 2075 4456 
Q 2969 4456 3363 3756 
Q 3431 3631 3481 3481 
L 2988 3350 
Q 2750 3994 2075 4006 
Q 1056 4006 844 2669 
Q 794 2356 794 1981 
L 806 1981 
Q 1006 2506 1544 2744 
Q 1819 2869 2119 2869 
Q 2788 2869 3213 2375 
Q 3550 1975 3550 1431 
z
M 3038 1406 
Q 3038 1906 2656 2213 
Q 2381 2431 2038 2431 
Q 1525 2431 1181 2044 
Q 919 1744 919 1356 
Q 919 881 1344 581 
Q 1631 375 1981 375 
Q 2519 375 2838 781 
Q 3038 1050 3038 1406 
z
" transform="scale(0.015625)"/>
      <path id="WenQuanYiZenHei-33" d="M 3588 1231 
Q 3588 494 2875 144 
Q 2450 -63 1925 -63 
Q 1044 -63 556 488 
Q 356 706 256 1000 
L 769 1169 
Q 994 375 1913 375 
Q 2631 375 2900 788 
Q 3019 975 3019 1231 
Q 3019 1638 2638 1881 
Q 2325 2081 1613 2069 
L 1338 2069 
L 1338 2494 
Q 1969 2494 2094 2506 
Q 2325 2544 2463 2613 
Q 2763 2756 2844 3100 
Q 2863 3169 2863 3244 
Q 2863 3744 2381 3944 
L 2163 4006 
Q 2056 4025 1931 4025 
Q 1388 4025 1075 3631 
Q 969 3488 906 3313 
L 419 3456 
Q 675 4150 1400 4369 
Q 1669 4456 1975 4456 
Q 2694 4456 3106 4050 
Q 3419 3744 3419 3275 
Q 3419 2813 3025 2513 
Q 2825 2356 2575 2319 
L 2575 2306 
Q 3181 2213 3450 1769 
Q 3588 1525 3588 1231 
z
" transform="scale(0.015625)"/>
     </defs>
     <use xlink:href="#WenQuanYiZenHei-41"/>
     <use xlink:href="#WenQuanYiZenHei-52" x="55.957031"/>
     <use xlink:href="#WenQuanYiZenHei-49" x="117.871094"/>
     <use xlink:href="#WenQuanYiZenHei-4d" x="143.847656"/>
     <use xlink:href="#WenQuanYiZenHei-41" x="225.78125"/>
     <use xlink:href="#WenQuanYiZenHei-20" x="281.738281"/>
     <use xlink:href="#WenQuanYiZenHei-28" x="311.71875"/>
     <use xlink:href="#WenQuanYiZenHei-30" x="341.699219"/>
     <use xlink:href="#WenQuanYiZenHei-2c" x="401.660156"/>
     <use xlink:href="#WenQuanYiZenHei-20" x="431.640625"/>
     <use xlink:href="#WenQuanYiZenHei-32" x="461.621094"/>
     <use xlink:href="#WenQuanYiZenHei-2c" x="521.582031"/>
     <use xlink:href="#WenQuanYiZenHei-20" x="551.5625"/>
     <use xlink:href="#WenQuanYiZenHei-31" x="581.542969"/>
     <use xlink:href="#WenQuanYiZenHei-29" x="641.503906"/>
     <use xlink:href="#WenQuanYiZenHei-78" x="671.484375"/>
     <use xlink:href="#WenQuanYiZenHei-28" x="715.429688"/>
     <use xlink:href="#WenQuanYiZenHei-30" x="745.410156"/>
     <use xlink:href="#WenQuanYiZenHei-2c" x="805.371094"/>
     <use xlink:href="#WenQuanYiZenHei-20" x="835.351562"/>
     <use xlink:href="#WenQuanYiZenHei-30" x="865.332031"/>
     <use xlink:href="#WenQuanYiZenHei-2c" x="925.292969"/>
     <use xlink:href="#WenQuanYiZenHei-20" x="955.273438"/>
     <use xlink:href="#WenQuanYiZenHei-30" x="985.253906"/>
     <use xlink:href="#WenQuanYiZenHei-2c" x="1045.214844"/>
     <use xlink:href="#WenQuanYiZenHei-20" x="1075.195312"/>
     <use xlink:href="#WenQuanYiZenHei-37" x="1105.175781"/>
     <use xlink:href="#WenQuanYiZenHei-29" x="1165.136719"/>
     <use xlink:href="#WenQuanYiZenHei-20" x="1195.117188"/>
     <use xlink:href="#WenQuanYiZenHei-28" x="1225.097656"/>
     <use xlink:href="#WenQuanYiZenHei-52" x="1255.078125"/>
     <use xlink:href="#WenQuanYiZenHei-32" x="1316.992188"/>
     <use xlink:href="#WenQuanYiZenHei-20" x="1376.953125"/>
     <use xlink:href="#WenQuanYiZenHei-3d" x="1406.933594"/>
     <use xlink:href="#WenQuanYiZenHei-20" x="1466.894531"/>
     <use xlink:href="#WenQuanYiZenHei-30" x="1496.875"/>
     <use xlink:href="#WenQuanYiZenHei-2e" x="1556.835938"/>
     <use xlink:href="#WenQuanYiZenHei-39" x="1586.816406"/>
     <use xlink:href="#WenQuanYiZenHei-39" x="1646.777344"/>
     <use xlink:href="#WenQuanYiZenHei-38" x="1706.738281"/>
     <use xlink:href="#WenQuanYiZenHei-36" x="1766.699219"/>
     <use xlink:href="#WenQuanYiZenHei-33" x="1826.660156"/>
     <use xlink:href="#WenQuanYiZenHei-30" x="1886.621094"/>
     <use xlink:href="#WenQuanYiZenHei-29" x="1946.582031"/>
    </g>
   </g>
   <g id="legend_1">
    <g id="patch_7">
     <path d="M 45.1875 86.975687 
L 107.1875 86.975687 
Q 109.1875 86.975687 109.1875 84.975687 
L 109.1875 41.980375 
Q 109.1875 39.980375 107.1875 39.980375 
L 45.1875 39.980375 
Q 43.1875 39.980375 43.1875 41.980375 
L 43.1875 84.975687 
Q 43.1875 86.975687 45.1875 86.975687 
z
" style="fill: #ffffff; opacity: 0.8; stroke: #cccccc; stroke-linejoin: miter"/>
    </g>
    <g id="line2d_20">
     <path d="M 47.1875 48.61475 
L 57.1875 48.61475 
L 67.1875 48.61475 
" style="fill: none; stroke: #0000ff; stroke-width: 1.5; stroke-linecap: square"/>
    </g>
    <g id="text_18">
     <!-- 实际值 -->
     <g transform="translate(75.1875 52.11475)scale(0.1 -0.1)">
      <defs>
       <path id="WenQuanYiZenHei-5b9e" d="M 1025 1175 
Q 694 1175 356 1163 
Q 375 1344 356 1525 
Q 694 1506 1025 1506 
L 3363 1506 
L 3363 2625 
Q 3363 3075 3338 3519 
Q 3581 3494 3825 3519 
Q 3800 3075 3800 2625 
L 3800 1506 
L 5406 1506 
Q 5744 1506 6075 1525 
Q 6056 1344 6075 1163 
Q 5744 1175 5406 1175 
L 4038 1175 
L 4981 456 
L 6131 -488 
L 5819 -856 
L 4681 75 
L 3638 875 
Q 3313 231 2475 -231 
Q 1638 -694 700 -825 
Q 638 -519 344 -400 
Q 1450 -319 2406 244 
Q 3113 656 3300 1175 
L 1025 1175 
z
M 2263 1581 
Q 1763 2081 1200 2513 
L 1494 2894 
Q 2081 2444 2600 1919 
L 2263 1581 
z
M 2638 2500 
Q 2219 2963 1731 3363 
L 2044 3738 
Q 2556 3313 3000 2819 
L 2638 2500 
z
M 919 3156 
L 481 3156 
L 481 4344 
L 3069 4344 
Q 2794 4731 2469 5081 
L 2825 5413 
Q 3256 4944 3613 4413 
L 3513 4344 
L 5869 4344 
L 5869 3156 
L 5425 3156 
L 5425 4013 
L 919 4013 
L 919 3156 
z
" transform="scale(0.015625)"/>
       <path id="WenQuanYiZenHei-9645" d="M 6000 431 
L 5569 194 
L 4963 1219 
L 4313 2219 
L 4719 2494 
L 5375 1481 
L 6000 431 
z
M 2956 2450 
Q 3181 2344 3419 2294 
Q 3006 1038 1944 -188 
Q 1794 -6 1569 56 
Q 2069 600 2372 1156 
Q 2675 1713 2956 2450 
z
M 3750 25 
L 3750 2913 
L 2819 2913 
Q 2475 2913 2125 2894 
Q 2144 3081 2125 3269 
Q 2475 3256 2819 3256 
L 5469 3256 
Q 5819 3256 6163 3269 
Q 6144 3081 6163 2894 
Q 5813 2913 5469 2913 
L 4194 2913 
L 4194 -144 
Q 4194 -725 3456 -813 
L 3263 -825 
Q 3325 -506 3125 -250 
Q 3250 -281 3394 -306 
Q 3663 -313 3706 -272 
Q 3750 -231 3750 25 
z
M 5544 4950 
Q 5525 4756 5544 4569 
Q 5194 4588 4844 4588 
L 3325 4588 
Q 2975 4588 2625 4569 
Q 2644 4756 2625 4950 
Q 2975 4931 3325 4931 
L 4844 4931 
Q 5194 4931 5544 4950 
z
M 819 -850 
Q 581 -825 344 -850 
Q 369 -419 369 19 
L 363 4938 
L 2256 4938 
L 2256 4625 
Q 2150 4513 2075 4375 
L 1481 3238 
Q 2181 2319 2181 1156 
Q 2144 400 1569 163 
L 1406 88 
Q 1288 300 1138 481 
Q 1294 538 1450 606 
Q 1763 744 1794 1156 
Q 1794 1744 1600 2300 
Q 1406 2856 1038 3313 
L 1725 4625 
L 788 4625 
L 794 19 
Q 794 -419 819 -850 
z
" transform="scale(0.015625)"/>
       <path id="WenQuanYiZenHei-503c" d="M 6175 -219 
Q 6156 -388 6175 -556 
Q 5863 -544 5550 -544 
L 2313 -544 
Q 2000 -544 1688 -556 
Q 1706 -388 1688 -219 
L 2506 -231 
L 2506 3469 
L 3644 3469 
L 3644 4119 
L 2638 4119 
Q 2325 4119 2013 4100 
Q 2031 4269 2013 4438 
Q 2325 4425 2638 4425 
L 3638 4425 
Q 3638 4719 3619 5013 
Q 3856 4988 4094 5013 
Q 4075 4719 4075 4425 
L 5344 4425 
Q 5650 4425 5963 4438 
Q 5950 4269 5963 4100 
Q 5656 4119 5344 4119 
L 4069 4119 
L 4069 3469 
L 5300 3469 
L 5300 -231 
L 5550 -231 
Q 5863 -231 6175 -219 
z
M 4869 2556 
L 4869 3156 
L 2931 3156 
Q 2931 2850 2931 2556 
L 4869 2556 
z
M 4869 1669 
L 4869 2250 
L 2931 2250 
L 2931 1669 
L 4869 1669 
z
M 4869 731 
L 4869 1363 
L 2931 1363 
L 2931 731 
L 4869 731 
z
M 4869 -231 
L 4869 425 
L 2931 425 
L 2931 -231 
L 4869 -231 
z
M 2106 4925 
Q 1856 4075 1463 3338 
L 1463 31 
Q 1463 -413 1481 -850 
Q 1256 -825 1031 -850 
Q 1050 -413 1050 31 
L 1050 2681 
Q 750 2269 375 1931 
Q 238 2156 0 2256 
Q 331 2544 619 2875 
Q 1094 3425 1300 3950 
Q 1494 4469 1625 5050 
Q 1850 4963 2106 4925 
z
" transform="scale(0.015625)"/>
      </defs>
      <use xlink:href="#WenQuanYiZenHei-5b9e"/>
      <use xlink:href="#WenQuanYiZenHei-9645" x="100"/>
      <use xlink:href="#WenQuanYiZenHei-503c" x="200"/>
     </g>
    </g>
    <g id="line2d_21">
     <path d="M 47.1875 63.292875 
L 57.1875 63.292875 
L 67.1875 63.292875 
" style="fill: none; stroke: #ffa500; stroke-width: 1.5; stroke-linecap: square"/>
    </g>
    <g id="text_19">
     <!-- 校验值 -->
     <g transform="translate(75.1875 66.792875)scale(0.1 -0.1)">
      <defs>
       <path id="WenQuanYiZenHei-6821" d="M 5256 2463 
Q 5025 1475 4494 706 
Q 5125 -94 6175 -544 
Q 5950 -663 5850 -900 
Q 4906 -494 4250 381 
Q 3931 0 3475 -350 
Q 3019 -700 2388 -919 
Q 2338 -656 2138 -475 
Q 3306 -69 4006 738 
Q 3563 1444 3300 2331 
Q 3050 2050 2706 1800 
Q 2606 2000 2406 2106 
Q 2900 2444 3181 2938 
Q 3350 3225 3488 3538 
Q 3700 3431 3925 3369 
Q 3763 2894 3425 2475 
L 3650 2531 
Q 3888 1675 4244 1075 
Q 4469 1444 4603 1937 
Q 4738 2431 4775 2688 
Q 4963 2644 5150 2625 
Q 4919 2969 4663 3294 
L 5038 3588 
Q 5544 2925 5975 2213 
L 5569 1969 
L 5256 2463 
z
M 6006 4050 
Q 5988 3881 6006 3713 
Q 5694 3725 5381 3725 
L 3413 3725 
Q 3100 3725 2788 3713 
Q 2806 3881 2788 4050 
Q 3100 4031 3413 4031 
L 4325 4031 
Q 4019 4525 3644 4969 
L 4000 5275 
Q 4413 4788 4750 4244 
L 4406 4031 
L 5381 4031 
Q 5694 4031 6006 4050 
z
M 406 263 
Q 238 431 -25 469 
Q 194 825 466 1337 
Q 738 1850 925 2406 
Q 1113 2963 1256 3519 
L 825 3519 
Q 506 3519 188 3500 
Q 206 3700 188 3900 
Q 506 3881 825 3881 
L 1363 3881 
L 1363 4263 
Q 1363 4719 1338 5175 
Q 1556 5150 1775 5175 
Q 1756 4719 1756 4263 
L 1756 3881 
L 2525 3900 
Q 2506 3700 2525 3500 
L 1756 3519 
L 1756 2738 
L 1931 2881 
Q 2306 2300 2613 1650 
L 2231 1413 
Q 2081 1725 1919 2019 
L 1756 2300 
L 1756 69 
Q 1756 -388 1775 -850 
Q 1556 -825 1338 -850 
Q 1363 -388 1363 69 
L 1363 2438 
Q 925 1144 406 263 
z
" transform="scale(0.015625)"/>
       <path id="WenQuanYiZenHei-9a8c" d="M 5981 -106 
Q 5963 -275 5981 -444 
Q 5669 -431 5356 -431 
L 2969 -431 
Q 2656 -431 2350 -444 
Q 2363 -275 2350 -106 
Q 2656 -125 2969 -125 
L 4369 -125 
Q 4600 431 4881 1288 
L 5206 2300 
Q 5425 2206 5663 2163 
Q 5375 1188 4831 -125 
L 5356 -125 
Q 5669 -125 5981 -106 
z
M 4063 594 
Q 3788 1425 3425 2219 
L 3856 2419 
Q 4225 1600 4513 744 
L 4063 594 
z
M 3163 363 
Q 2931 1200 2613 2006 
L 3056 2175 
Q 3381 1350 3619 488 
L 3163 363 
z
M 4581 2550 
L 3513 2550 
Q 3200 2550 2888 2538 
Q 2900 2663 2894 2769 
Q 2569 2488 2206 2300 
Q 2113 2550 1894 2700 
Q 2488 2975 2975 3463 
Q 3269 3756 3394 4006 
Q 3644 4513 3794 5063 
Q 4038 4975 4294 4931 
Q 4250 4806 4206 4681 
Q 4475 3888 5025 3388 
Q 5519 2938 6169 2650 
Q 5938 2538 5838 2300 
Q 5513 2456 5200 2700 
Q 5200 2619 5206 2538 
Q 4894 2550 4581 2550 
z
M 3513 2863 
L 4994 2869 
Q 4344 3438 3988 4194 
Q 3594 3406 3013 2869 
Q 3263 2863 3513 2863 
z
M 206 444 
Q 188 756 44 963 
Q 319 956 650 1003 
Q 981 1050 1731 1281 
L 1738 1006 
Q 800 719 206 444 
z
M 525 4000 
Q 744 3950 994 3944 
Q 925 3519 875 3081 
L 763 2144 
L 1475 2144 
L 1831 4444 
L 663 4444 
Q 350 4444 38 4431 
Q 56 4600 38 4769 
Q 350 4756 663 4756 
L 2313 4756 
L 1913 2144 
L 2375 2144 
L 2200 -200 
Q 2188 -425 1988 -588 
Q 1694 -800 1181 -788 
L 944 -788 
Q 1000 -450 788 -269 
Q 1013 -294 1334 -287 
Q 1656 -281 1715 -243 
Q 1775 -206 1781 -50 
L 1925 1831 
L 294 1831 
L 444 3131 
Q 500 3569 525 4000 
z
" transform="scale(0.015625)"/>
      </defs>
      <use xlink:href="#WenQuanYiZenHei-6821"/>
      <use xlink:href="#WenQuanYiZenHei-9a8c" x="100"/>
      <use xlink:href="#WenQuanYiZenHei-503c" x="200"/>
     </g>
    </g>
    <g id="line2d_22">
     <path d="M 47.1875 77.81475 
L 57.1875 77.81475 
L 67.1875 77.81475 
" style="fill: none; stroke: #ff0000; stroke-width: 1.5; stroke-linecap: square"/>
    </g>
    <g id="text_20">
     <!-- 预测值 -->
     <g transform="translate(75.1875 81.31475)scale(0.1 -0.1)">
      <use xlink:href="#WenQuanYiZenHei-9884"/>
      <use xlink:href="#WenQuanYiZenHei-6d4b" x="100"/>
      <use xlink:href="#WenQuanYiZenHei-503c" x="200"/>
     </g>
    </g>
   </g>
  </g>
 </g>
 <defs>
  <clipPath id="p5f8cea1e97">
   <rect x="38.1875" y="34.980375" width="1339.2" height="332.64"/>
  </clipPath>
 </defs>
</svg>
