<?xml version="1.0" encoding="utf-8" standalone="no"?>
<!DOCTYPE svg PUBLIC "-//W3C//DTD SVG 1.1//EN"
  "http://www.w3.org/Graphics/SVG/1.1/DTD/svg11.dtd">
<svg xmlns:xlink="http://www.w3.org/1999/xlink" width="1384.5875pt" height="390.337563pt" viewBox="0 0 1384.5875 390.337563" xmlns="http://www.w3.org/2000/svg" version="1.1">
 <metadata>
  <rdf:RDF xmlns:dc="http://purl.org/dc/elements/1.1/" xmlns:cc="http://creativecommons.org/ns#" xmlns:rdf="http://www.w3.org/1999/02/22-rdf-syntax-ns#">
   <cc:Work>
    <dc:type rdf:resource="http://purl.org/dc/dcmitype/StillImage"/>
    <dc:date>2022-06-24T18:24:20.625442</dc:date>
    <dc:format>image/svg+xml</dc:format>
    <dc:creator>
     <cc:Agent>
      <dc:title>Matplotlib v3.5.2, https://matplotlib.org/</dc:title>
     </cc:Agent>
    </dc:creator>
   </cc:Work>
  </rdf:RDF>
 </metadata>
 <defs>
  <style type="text/css">*{stroke-linejoin: round; stroke-linecap: butt}</style>
 </defs>
 <g id="figure_1">
  <g id="patch_1">
   <path d="M 0 390.337563 
L 1384.5875 390.337563 
L 1384.5875 0 
L 0 0 
z
" style="fill: #ffffff"/>
  </g>
  <g id="axes_1">
   <g id="patch_2">
    <path d="M 38.1875 367.620375 
L 1377.3875 367.620375 
L 1377.3875 34.980375 
L 38.1875 34.980375 
z
" style="fill: #ffffff"/>
   </g>
   <g id="matplotlib.axis_1">
    <g id="xtick_1">
     <g id="line2d_1">
      <defs>
       <path id="mac99273232" d="M 0 0 
L 0 3.5 
" style="stroke: #000000; stroke-width: 0.8"/>
      </defs>
      <g>
       <use xlink:href="#mac99273232" x="70.526136" y="367.620375" style="stroke: #000000; stroke-width: 0.8"/>
      </g>
     </g>
     <g id="text_1">
      <!-- 2020-01 -->
      <g transform="translate(51.036293 381.476625)scale(0.1 -0.1)">
       <defs>
        <path id="WenQuanYiZenHei-32" d="M 3488 0 
L 369 0 
L 369 456 
L 2150 1850 
Q 2931 2463 2931 3144 
Q 2931 3619 2488 3863 
Q 2231 4013 1931 4013 
Q 1425 4013 1113 3619 
Q 894 3356 881 3013 
L 369 3169 
Q 531 3981 1213 4300 
Q 1544 4456 1950 4456 
Q 2631 4456 3088 4044 
L 3225 3888 
L 3350 3706 
Q 3481 3444 3481 3144 
Q 3481 2313 2519 1569 
L 1069 456 
L 3488 456 
L 3488 0 
z
" transform="scale(0.015625)"/>
        <path id="WenQuanYiZenHei-30" d="M 3581 2175 
Q 3581 1288 3169 638 
Q 2713 -63 1938 -63 
Q 1025 -63 563 831 
Q 256 1425 256 2188 
Q 256 3188 700 3819 
Q 1138 4456 1888 4456 
Q 2863 4456 3306 3500 
Q 3581 2925 3581 2175 
z
M 3019 2100 
Q 3019 3356 2500 3806 
L 2350 3919 
Q 2144 4031 1888 4031 
Q 1100 4031 888 2956 
Q 819 2625 819 2225 
Q 819 1013 1338 569 
Q 1588 356 1938 356 
Q 2675 356 2925 1294 
Q 3019 1663 3019 2100 
z
" transform="scale(0.015625)"/>
        <path id="WenQuanYiZenHei-2d" d="M 1363 1444 
L 0 1444 
L 0 1844 
L 1363 1844 
L 1363 1444 
z
" transform="scale(0.015625)"/>
        <path id="WenQuanYiZenHei-31" d="M 3556 0 
L 488 0 
L 488 406 
L 1800 406 
L 1800 3725 
Q 1231 3125 588 2788 
L 588 3338 
Q 1456 3781 1931 4388 
L 2331 4388 
L 2331 406 
L 3556 406 
L 3556 0 
z
" transform="scale(0.015625)"/>
       </defs>
       <use xlink:href="#WenQuanYiZenHei-32"/>
       <use xlink:href="#WenQuanYiZenHei-30" x="59.960938"/>
       <use xlink:href="#WenQuanYiZenHei-32" x="119.921875"/>
       <use xlink:href="#WenQuanYiZenHei-30" x="179.882812"/>
       <use xlink:href="#WenQuanYiZenHei-2d" x="239.84375"/>
       <use xlink:href="#WenQuanYiZenHei-30" x="269.824219"/>
       <use xlink:href="#WenQuanYiZenHei-31" x="329.785156"/>
      </g>
     </g>
    </g>
    <g id="xtick_2">
     <g id="line2d_2">
      <g>
       <use xlink:href="#mac99273232" x="194.173864" y="367.620375" style="stroke: #000000; stroke-width: 0.8"/>
      </g>
     </g>
     <g id="text_2">
      <!-- 2020-04 -->
      <g transform="translate(174.68402 381.476625)scale(0.1 -0.1)">
       <defs>
        <path id="WenQuanYiZenHei-34" d="M 3631 1025 
L 2913 1025 
L 2913 0 
L 2381 0 
L 2381 1025 
L 219 1025 
L 219 1388 
L 2225 4388 
L 2913 4388 
L 2913 1444 
L 3631 1444 
L 3631 1025 
z
M 2381 1444 
L 2381 3963 
L 788 1444 
L 2381 1444 
z
" transform="scale(0.015625)"/>
       </defs>
       <use xlink:href="#WenQuanYiZenHei-32"/>
       <use xlink:href="#WenQuanYiZenHei-30" x="59.960938"/>
       <use xlink:href="#WenQuanYiZenHei-32" x="119.921875"/>
       <use xlink:href="#WenQuanYiZenHei-30" x="179.882812"/>
       <use xlink:href="#WenQuanYiZenHei-2d" x="239.84375"/>
       <use xlink:href="#WenQuanYiZenHei-30" x="269.824219"/>
       <use xlink:href="#WenQuanYiZenHei-34" x="329.785156"/>
      </g>
     </g>
    </g>
    <g id="xtick_3">
     <g id="line2d_3">
      <g>
       <use xlink:href="#mac99273232" x="317.821591" y="367.620375" style="stroke: #000000; stroke-width: 0.8"/>
      </g>
     </g>
     <g id="text_3">
      <!-- 2020-07 -->
      <g transform="translate(298.331747 381.476625)scale(0.1 -0.1)">
       <defs>
        <path id="WenQuanYiZenHei-37" d="M 3400 4056 
Q 1838 2175 1838 0 
L 1275 0 
Q 1269 1438 2056 2825 
Q 2381 3400 2825 3913 
L 444 3913 
L 500 4388 
L 3400 4388 
L 3400 4056 
z
" transform="scale(0.015625)"/>
       </defs>
       <use xlink:href="#WenQuanYiZenHei-32"/>
       <use xlink:href="#WenQuanYiZenHei-30" x="59.960938"/>
       <use xlink:href="#WenQuanYiZenHei-32" x="119.921875"/>
       <use xlink:href="#WenQuanYiZenHei-30" x="179.882812"/>
       <use xlink:href="#WenQuanYiZenHei-2d" x="239.84375"/>
       <use xlink:href="#WenQuanYiZenHei-30" x="269.824219"/>
       <use xlink:href="#WenQuanYiZenHei-37" x="329.785156"/>
      </g>
     </g>
    </g>
    <g id="xtick_4">
     <g id="line2d_4">
      <g>
       <use xlink:href="#mac99273232" x="442.828084" y="367.620375" style="stroke: #000000; stroke-width: 0.8"/>
      </g>
     </g>
     <g id="text_4">
      <!-- 2020-10 -->
      <g transform="translate(423.338241 381.476625)scale(0.1 -0.1)">
       <use xlink:href="#WenQuanYiZenHei-32"/>
       <use xlink:href="#WenQuanYiZenHei-30" x="59.960938"/>
       <use xlink:href="#WenQuanYiZenHei-32" x="119.921875"/>
       <use xlink:href="#WenQuanYiZenHei-30" x="179.882812"/>
       <use xlink:href="#WenQuanYiZenHei-2d" x="239.84375"/>
       <use xlink:href="#WenQuanYiZenHei-31" x="269.824219"/>
       <use xlink:href="#WenQuanYiZenHei-30" x="329.785156"/>
      </g>
     </g>
    </g>
    <g id="xtick_5">
     <g id="line2d_5">
      <g>
       <use xlink:href="#mac99273232" x="567.834578" y="367.620375" style="stroke: #000000; stroke-width: 0.8"/>
      </g>
     </g>
     <g id="text_5">
      <!-- 2021-01 -->
      <g transform="translate(548.344734 381.476625)scale(0.1 -0.1)">
       <use xlink:href="#WenQuanYiZenHei-32"/>
       <use xlink:href="#WenQuanYiZenHei-30" x="59.960938"/>
       <use xlink:href="#WenQuanYiZenHei-32" x="119.921875"/>
       <use xlink:href="#WenQuanYiZenHei-31" x="179.882812"/>
       <use xlink:href="#WenQuanYiZenHei-2d" x="239.84375"/>
       <use xlink:href="#WenQuanYiZenHei-30" x="269.824219"/>
       <use xlink:href="#WenQuanYiZenHei-31" x="329.785156"/>
      </g>
     </g>
    </g>
    <g id="xtick_6">
     <g id="line2d_6">
      <g>
       <use xlink:href="#mac99273232" x="690.123539" y="367.620375" style="stroke: #000000; stroke-width: 0.8"/>
      </g>
     </g>
     <g id="text_6">
      <!-- 2021-04 -->
      <g transform="translate(670.633695 381.476625)scale(0.1 -0.1)">
       <use xlink:href="#WenQuanYiZenHei-32"/>
       <use xlink:href="#WenQuanYiZenHei-30" x="59.960938"/>
       <use xlink:href="#WenQuanYiZenHei-32" x="119.921875"/>
       <use xlink:href="#WenQuanYiZenHei-31" x="179.882812"/>
       <use xlink:href="#WenQuanYiZenHei-2d" x="239.84375"/>
       <use xlink:href="#WenQuanYiZenHei-30" x="269.824219"/>
       <use xlink:href="#WenQuanYiZenHei-34" x="329.785156"/>
      </g>
     </g>
    </g>
    <g id="xtick_7">
     <g id="line2d_7">
      <g>
       <use xlink:href="#mac99273232" x="813.771266" y="367.620375" style="stroke: #000000; stroke-width: 0.8"/>
      </g>
     </g>
     <g id="text_7">
      <!-- 2021-07 -->
      <g transform="translate(794.281422 381.476625)scale(0.1 -0.1)">
       <use xlink:href="#WenQuanYiZenHei-32"/>
       <use xlink:href="#WenQuanYiZenHei-30" x="59.960938"/>
       <use xlink:href="#WenQuanYiZenHei-32" x="119.921875"/>
       <use xlink:href="#WenQuanYiZenHei-31" x="179.882812"/>
       <use xlink:href="#WenQuanYiZenHei-2d" x="239.84375"/>
       <use xlink:href="#WenQuanYiZenHei-30" x="269.824219"/>
       <use xlink:href="#WenQuanYiZenHei-37" x="329.785156"/>
      </g>
     </g>
    </g>
    <g id="xtick_8">
     <g id="line2d_8">
      <g>
       <use xlink:href="#mac99273232" x="938.77776" y="367.620375" style="stroke: #000000; stroke-width: 0.8"/>
      </g>
     </g>
     <g id="text_8">
      <!-- 2021-10 -->
      <g transform="translate(919.287916 381.476625)scale(0.1 -0.1)">
       <use xlink:href="#WenQuanYiZenHei-32"/>
       <use xlink:href="#WenQuanYiZenHei-30" x="59.960938"/>
       <use xlink:href="#WenQuanYiZenHei-32" x="119.921875"/>
       <use xlink:href="#WenQuanYiZenHei-31" x="179.882812"/>
       <use xlink:href="#WenQuanYiZenHei-2d" x="239.84375"/>
       <use xlink:href="#WenQuanYiZenHei-31" x="269.824219"/>
       <use xlink:href="#WenQuanYiZenHei-30" x="329.785156"/>
      </g>
     </g>
    </g>
    <g id="xtick_9">
     <g id="line2d_9">
      <g>
       <use xlink:href="#mac99273232" x="1063.784253" y="367.620375" style="stroke: #000000; stroke-width: 0.8"/>
      </g>
     </g>
     <g id="text_9">
      <!-- 2022-01 -->
      <g transform="translate(1044.294409 381.476625)scale(0.1 -0.1)">
       <use xlink:href="#WenQuanYiZenHei-32"/>
       <use xlink:href="#WenQuanYiZenHei-30" x="59.960938"/>
       <use xlink:href="#WenQuanYiZenHei-32" x="119.921875"/>
       <use xlink:href="#WenQuanYiZenHei-32" x="179.882812"/>
       <use xlink:href="#WenQuanYiZenHei-2d" x="239.84375"/>
       <use xlink:href="#WenQuanYiZenHei-30" x="269.824219"/>
       <use xlink:href="#WenQuanYiZenHei-31" x="329.785156"/>
      </g>
     </g>
    </g>
    <g id="xtick_10">
     <g id="line2d_10">
      <g>
       <use xlink:href="#mac99273232" x="1186.073214" y="367.620375" style="stroke: #000000; stroke-width: 0.8"/>
      </g>
     </g>
     <g id="text_10">
      <!-- 2022-04 -->
      <g transform="translate(1166.583371 381.476625)scale(0.1 -0.1)">
       <use xlink:href="#WenQuanYiZenHei-32"/>
       <use xlink:href="#WenQuanYiZenHei-30" x="59.960938"/>
       <use xlink:href="#WenQuanYiZenHei-32" x="119.921875"/>
       <use xlink:href="#WenQuanYiZenHei-32" x="179.882812"/>
       <use xlink:href="#WenQuanYiZenHei-2d" x="239.84375"/>
       <use xlink:href="#WenQuanYiZenHei-30" x="269.824219"/>
       <use xlink:href="#WenQuanYiZenHei-34" x="329.785156"/>
      </g>
     </g>
    </g>
    <g id="xtick_11">
     <g id="line2d_11">
      <g>
       <use xlink:href="#mac99273232" x="1309.720942" y="367.620375" style="stroke: #000000; stroke-width: 0.8"/>
      </g>
     </g>
     <g id="text_11">
      <!-- 2022-07 -->
      <g transform="translate(1290.231098 381.476625)scale(0.1 -0.1)">
       <use xlink:href="#WenQuanYiZenHei-32"/>
       <use xlink:href="#WenQuanYiZenHei-30" x="59.960938"/>
       <use xlink:href="#WenQuanYiZenHei-32" x="119.921875"/>
       <use xlink:href="#WenQuanYiZenHei-32" x="179.882812"/>
       <use xlink:href="#WenQuanYiZenHei-2d" x="239.84375"/>
       <use xlink:href="#WenQuanYiZenHei-30" x="269.824219"/>
       <use xlink:href="#WenQuanYiZenHei-37" x="329.785156"/>
      </g>
     </g>
    </g>
   </g>
   <g id="matplotlib.axis_2">
    <g id="ytick_1">
     <g id="line2d_12">
      <defs>
       <path id="m5da4274c31" d="M 0 0 
L -3.5 0 
" style="stroke: #000000; stroke-width: 0.8"/>
      </defs>
      <g>
       <use xlink:href="#m5da4274c31" x="38.1875" y="353.103859" style="stroke: #000000; stroke-width: 0.8"/>
      </g>
     </g>
     <g id="text_12">
      <!-- 0 -->
      <g transform="translate(25.190625 356.531984)scale(0.1 -0.1)">
       <use xlink:href="#WenQuanYiZenHei-30"/>
      </g>
     </g>
    </g>
    <g id="ytick_2">
     <g id="line2d_13">
      <g>
       <use xlink:href="#m5da4274c31" x="38.1875" y="315.386115" style="stroke: #000000; stroke-width: 0.8"/>
      </g>
     </g>
     <g id="text_13">
      <!-- 250 -->
      <g transform="translate(13.196875 318.81424)scale(0.1 -0.1)">
       <defs>
        <path id="WenQuanYiZenHei-35" d="M 3531 1488 
Q 3531 688 2913 250 
Q 2456 -63 1844 -63 
Q 1175 -63 706 350 
Q 413 613 306 975 
L 781 1131 
Q 1000 538 1569 406 
Q 1706 369 1856 369 
Q 2550 369 2850 869 
Q 3000 1131 3000 1494 
Q 3000 2056 2581 2356 
Q 2319 2538 1969 2538 
Q 1400 2538 1031 2075 
Q 981 2013 938 1938 
L 500 2031 
L 644 4388 
L 3244 4388 
L 3200 3919 
L 1044 3919 
L 950 2500 
Q 1431 2975 2006 2975 
Q 2713 2975 3163 2475 
Q 3531 2063 3531 1488 
z
" transform="scale(0.015625)"/>
       </defs>
       <use xlink:href="#WenQuanYiZenHei-32"/>
       <use xlink:href="#WenQuanYiZenHei-35" x="59.960938"/>
       <use xlink:href="#WenQuanYiZenHei-30" x="119.921875"/>
      </g>
     </g>
    </g>
    <g id="ytick_3">
     <g id="line2d_14">
      <g>
       <use xlink:href="#m5da4274c31" x="38.1875" y="277.668372" style="stroke: #000000; stroke-width: 0.8"/>
      </g>
     </g>
     <g id="text_14">
      <!-- 500 -->
      <g transform="translate(13.196875 281.096497)scale(0.1 -0.1)">
       <use xlink:href="#WenQuanYiZenHei-35"/>
       <use xlink:href="#WenQuanYiZenHei-30" x="59.960938"/>
       <use xlink:href="#WenQuanYiZenHei-30" x="119.921875"/>
      </g>
     </g>
    </g>
    <g id="ytick_4">
     <g id="line2d_15">
      <g>
       <use xlink:href="#m5da4274c31" x="38.1875" y="239.950628" style="stroke: #000000; stroke-width: 0.8"/>
      </g>
     </g>
     <g id="text_15">
      <!-- 750 -->
      <g transform="translate(13.196875 243.378753)scale(0.1 -0.1)">
       <use xlink:href="#WenQuanYiZenHei-37"/>
       <use xlink:href="#WenQuanYiZenHei-35" x="59.960938"/>
       <use xlink:href="#WenQuanYiZenHei-30" x="119.921875"/>
      </g>
     </g>
    </g>
    <g id="ytick_5">
     <g id="line2d_16">
      <g>
       <use xlink:href="#m5da4274c31" x="38.1875" y="202.232885" style="stroke: #000000; stroke-width: 0.8"/>
      </g>
     </g>
     <g id="text_16">
      <!-- 1000 -->
      <g transform="translate(7.2 205.66101)scale(0.1 -0.1)">
       <use xlink:href="#WenQuanYiZenHei-31"/>
       <use xlink:href="#WenQuanYiZenHei-30" x="59.960938"/>
       <use xlink:href="#WenQuanYiZenHei-30" x="119.921875"/>
       <use xlink:href="#WenQuanYiZenHei-30" x="179.882812"/>
      </g>
     </g>
    </g>
    <g id="ytick_6">
     <g id="line2d_17">
      <g>
       <use xlink:href="#m5da4274c31" x="38.1875" y="164.515141" style="stroke: #000000; stroke-width: 0.8"/>
      </g>
     </g>
     <g id="text_17">
      <!-- 1250 -->
      <g transform="translate(7.2 167.943266)scale(0.1 -0.1)">
       <use xlink:href="#WenQuanYiZenHei-31"/>
       <use xlink:href="#WenQuanYiZenHei-32" x="59.960938"/>
       <use xlink:href="#WenQuanYiZenHei-35" x="119.921875"/>
       <use xlink:href="#WenQuanYiZenHei-30" x="179.882812"/>
      </g>
     </g>
    </g>
    <g id="ytick_7">
     <g id="line2d_18">
      <g>
       <use xlink:href="#m5da4274c31" x="38.1875" y="126.797398" style="stroke: #000000; stroke-width: 0.8"/>
      </g>
     </g>
     <g id="text_18">
      <!-- 1500 -->
      <g transform="translate(7.2 130.225523)scale(0.1 -0.1)">
       <use xlink:href="#WenQuanYiZenHei-31"/>
       <use xlink:href="#WenQuanYiZenHei-35" x="59.960938"/>
       <use xlink:href="#WenQuanYiZenHei-30" x="119.921875"/>
       <use xlink:href="#WenQuanYiZenHei-30" x="179.882812"/>
      </g>
     </g>
    </g>
    <g id="ytick_8">
     <g id="line2d_19">
      <g>
       <use xlink:href="#m5da4274c31" x="38.1875" y="89.079654" style="stroke: #000000; stroke-width: 0.8"/>
      </g>
     </g>
     <g id="text_19">
      <!-- 1750 -->
      <g transform="translate(7.2 92.507779)scale(0.1 -0.1)">
       <use xlink:href="#WenQuanYiZenHei-31"/>
       <use xlink:href="#WenQuanYiZenHei-37" x="59.960938"/>
       <use xlink:href="#WenQuanYiZenHei-35" x="119.921875"/>
       <use xlink:href="#WenQuanYiZenHei-30" x="179.882812"/>
      </g>
     </g>
    </g>
    <g id="ytick_9">
     <g id="line2d_20">
      <g>
       <use xlink:href="#m5da4274c31" x="38.1875" y="51.361911" style="stroke: #000000; stroke-width: 0.8"/>
      </g>
     </g>
     <g id="text_20">
      <!-- 2000 -->
      <g transform="translate(7.2 54.790036)scale(0.1 -0.1)">
       <use xlink:href="#WenQuanYiZenHei-32"/>
       <use xlink:href="#WenQuanYiZenHei-30" x="59.960938"/>
       <use xlink:href="#WenQuanYiZenHei-30" x="119.921875"/>
       <use xlink:href="#WenQuanYiZenHei-30" x="179.882812"/>
      </g>
     </g>
    </g>
   </g>
   <g id="line2d_21">
    <path d="M 99.060227 352.500375 
L 100.418994 352.500375 
L 101.77776 351.896891 
L 103.136526 351.595149 
L 104.495292 350.991665 
L 105.854058 349.633826 
L 107.212825 349.482956 
L 108.571591 349.030343 
L 109.930357 348.426859 
L 111.289123 348.275988 
L 112.64789 346.918149 
L 114.006656 345.862052 
L 115.365422 344.0516 
L 116.724188 342.995504 
L 118.082955 342.693762 
L 119.441721 341.185052 
L 120.800487 340.88331 
L 122.159253 339.827213 
L 123.518019 339.3746 
L 124.876786 338.771116 
L 126.235552 337.111536 
L 127.594318 336.20631 
L 128.953084 335.150213 
L 130.311851 334.999342 
L 133.029383 334.395858 
L 134.388149 334.244987 
L 135.746916 333.792374 
L 137.105682 333.490632 
L 139.823214 333.18889 
L 141.181981 332.736277 
L 146.617045 332.736277 
L 147.975812 332.585406 
L 175.151136 332.585406 
L 176.509903 332.434535 
L 180.586201 332.434535 
L 183.303734 331.227568 
L 184.6625 331.227568 
L 186.021266 330.322342 
L 187.380032 329.718858 
L 188.738799 328.813632 
L 190.097565 328.059277 
L 191.456331 326.852309 
L 192.815097 326.852309 
L 194.173864 326.550567 
L 195.53263 326.550567 
L 196.891396 325.947084 
L 203.685227 325.947084 
L 205.043994 325.645342 
L 206.40276 325.494471 
L 209.120292 325.494471 
L 211.837825 325.192729 
L 213.196591 325.192729 
L 214.555357 325.041858 
L 215.914123 324.589245 
L 224.066721 324.589245 
L 225.425487 324.438374 
L 243.089448 324.438374 
L 244.448214 324.287503 
L 253.959578 324.287503 
L 255.318344 324.136632 
L 282.493669 324.136632 
L 283.852435 323.985761 
L 286.569968 323.985761 
L 289.2875 323.684019 
L 290.646266 323.684019 
L 292.005032 323.533148 
L 297.440097 323.533148 
L 298.798864 323.382277 
L 304.233929 323.382277 
L 305.592695 323.231406 
L 320.539123 323.231406 
L 321.89789 323.080535 
L 330.050487 323.080535 
L 331.409253 322.477051 
L 349.073214 322.477051 
L 350.431981 322.32618 
L 355.867045 322.32618 
L 357.225812 322.175309 
L 377.607305 322.175309 
L 378.966071 321.873567 
L 380.324838 321.873567 
L 381.683604 321.571825 
L 383.04237 321.571825 
L 384.401136 321.420954 
L 385.759903 320.515728 
L 387.118669 320.515728 
L 388.477435 320.213987 
L 389.836201 320.213987 
L 392.553734 319.912245 
L 396.630032 319.912245 
L 397.988799 319.761374 
L 399.347565 319.007019 
L 400.706331 318.554406 
L 403.423864 318.554406 
L 406.141396 318.252664 
L 407.500162 318.252664 
L 410.217695 317.950922 
L 415.65276 317.950922 
L 417.011526 317.800051 
L 422.446591 317.800051 
L 423.805357 317.347438 
L 427.881656 317.347438 
L 430.599188 317.045696 
L 433.316721 317.045696 
L 434.675487 316.894825 
L 444.186851 316.894825 
L 445.545617 316.743954 
L 446.904383 316.743954 
L 448.263149 316.593083 
L 452.339448 316.593083 
L 453.698214 316.291341 
L 455.056981 316.291341 
L 456.415747 316.14047 
L 460.492045 316.14047 
L 461.850812 315.838728 
L 463.209578 315.235244 
L 464.568344 315.084373 
L 467.285877 314.48089 
L 471.362175 314.48089 
L 472.720942 314.028277 
L 474.079708 313.877406 
L 476.79724 313.877406 
L 478.156006 313.726535 
L 480.873539 313.123051 
L 482.232305 312.368696 
L 483.591071 312.368696 
L 484.949838 312.217825 
L 486.308604 311.916083 
L 489.026136 311.916083 
L 490.384903 311.614341 
L 493.102435 311.614341 
L 495.819968 311.312599 
L 497.178734 310.407373 
L 498.5375 310.105631 
L 499.896266 310.105631 
L 502.613799 309.502147 
L 503.972565 309.502147 
L 506.690097 309.200405 
L 509.40763 309.200405 
L 510.766396 308.446051 
L 514.842695 307.993438 
L 518.918994 307.993438 
L 520.27776 307.842567 
L 529.789123 307.842567 
L 531.14789 307.691696 
L 537.941721 307.691696 
L 539.300487 307.540825 
L 543.376786 307.540825 
L 544.735552 307.389954 
L 547.453084 307.389954 
L 548.811851 307.239083 
L 559.681981 307.239083 
L 562.399513 306.937341 
L 563.758279 306.484728 
L 566.475812 306.484728 
L 567.834578 306.032115 
L 573.269643 305.428631 
L 577.345942 305.428631 
L 578.704708 304.825147 
L 581.42224 304.221663 
L 585.498539 304.221663 
L 586.857305 303.76905 
L 589.574838 303.467308 
L 590.933604 303.467308 
L 592.29237 303.316437 
L 593.651136 302.562083 
L 596.368669 302.562083 
L 597.727435 302.411212 
L 599.086201 302.10947 
L 600.444968 302.10947 
L 603.1625 301.505986 
L 604.521266 301.355115 
L 607.238799 301.355115 
L 608.597565 301.204244 
L 612.673864 301.204244 
L 615.391396 300.902502 
L 619.467695 300.902502 
L 620.826461 300.751631 
L 623.543994 300.751631 
L 624.90276 300.60076 
L 626.261526 300.60076 
L 627.620292 300.449889 
L 631.696591 300.449889 
L 633.055357 300.148147 
L 635.77289 300.148147 
L 637.131656 299.997276 
L 638.490422 299.997276 
L 641.207955 299.695534 
L 642.566721 299.695534 
L 645.284253 299.393792 
L 646.643019 299.393792 
L 648.001786 299.242921 
L 650.719318 299.242921 
L 652.078084 299.09205 
L 653.436851 298.639437 
L 661.589448 298.639437 
L 662.948214 298.488566 
L 664.306981 298.488566 
L 667.024513 298.186824 
L 668.383279 298.186824 
L 669.742045 297.734211 
L 671.100812 297.58334 
L 672.459578 297.58334 
L 673.818344 297.281598 
L 676.535877 297.281598 
L 677.894643 296.979857 
L 681.970942 296.979857 
L 683.329708 296.828986 
L 691.482305 296.828986 
L 694.199838 296.527244 
L 700.993669 296.527244 
L 702.352435 296.376373 
L 705.069968 296.376373 
L 706.428734 296.225502 
L 709.146266 296.225502 
L 710.505032 295.92376 
L 711.863799 295.92376 
L 713.222565 295.772889 
L 714.581331 295.772889 
L 715.940097 295.471147 
L 717.298864 295.320276 
L 720.016396 295.320276 
L 721.375162 295.169405 
L 724.092695 295.169405 
L 725.451461 295.018534 
L 733.604058 295.018534 
L 734.962825 294.867663 
L 737.680357 294.867663 
L 739.039123 294.716792 
L 744.474188 294.716792 
L 745.832955 294.565921 
L 753.985552 294.565921 
L 755.344318 294.41505 
L 758.061851 294.41505 
L 760.779383 294.113308 
L 762.138149 293.811566 
L 777.084578 293.811566 
L 778.443344 293.660695 
L 779.80211 293.660695 
L 781.160877 293.509824 
L 785.237175 293.509824 
L 786.595942 293.358953 
L 787.954708 293.057211 
L 793.389773 293.057211 
L 794.748539 292.90634 
L 802.901136 292.90634 
L 804.259903 292.755469 
L 805.618669 292.755469 
L 806.977435 292.604598 
L 815.130032 292.604598 
L 816.488799 292.453727 
L 819.206331 292.453727 
L 820.565097 292.151985 
L 823.28263 292.151985 
L 824.641396 291.850243 
L 827.358929 291.850243 
L 830.076461 291.548501 
L 831.435227 291.548501 
L 832.793994 290.945018 
L 836.870292 290.945018 
L 838.229058 290.492405 
L 840.946591 290.492405 
L 845.02289 290.039792 
L 847.740422 290.039792 
L 849.099188 289.888921 
L 851.816721 289.888921 
L 854.534253 288.983695 
L 855.893019 288.983695 
L 857.251786 288.531082 
L 858.610552 288.380211 
L 859.969318 288.380211 
L 861.328084 288.22934 
L 862.686851 287.474985 
L 866.763149 287.474985 
L 868.121916 287.324114 
L 870.839448 287.324114 
L 872.198214 287.022372 
L 873.556981 286.569759 
L 874.915747 286.418888 
L 876.274513 286.418888 
L 877.633279 285.966275 
L 878.992045 284.306695 
L 883.068344 283.854082 
L 884.42711 283.401469 
L 889.862175 282.797985 
L 891.220942 282.797985 
L 892.579708 282.194501 
L 893.938474 281.892759 
L 895.29724 281.741888 
L 896.656006 281.440146 
L 899.373539 281.440146 
L 900.732305 281.289275 
L 902.091071 280.987533 
L 910.243669 280.987533 
L 911.602435 280.836662 
L 914.319968 280.836662 
L 915.678734 280.685791 
L 919.755032 280.685791 
L 921.113799 280.53492 
L 925.190097 280.53492 
L 926.548864 280.082307 
L 927.90763 280.082307 
L 929.266396 279.931436 
L 930.625162 279.931436 
L 933.342695 279.629694 
L 937.418994 279.629694 
L 938.77776 279.177082 
L 945.571591 279.177082 
L 948.289123 278.573598 
L 952.365422 278.573598 
L 953.724188 278.422727 
L 955.082955 277.970114 
L 956.441721 277.668372 
L 965.953084 277.668372 
L 967.311851 277.517501 
L 968.670617 277.517501 
L 970.029383 277.36663 
L 971.388149 277.36663 
L 972.746916 277.215759 
L 976.823214 277.215759 
L 978.181981 277.064888 
L 979.540747 277.064888 
L 980.899513 276.914017 
L 983.617045 276.914017 
L 986.334578 276.612275 
L 989.05211 276.612275 
L 990.410877 276.310533 
L 991.769643 276.310533 
L 993.128409 276.159662 
L 994.487175 276.159662 
L 995.845942 275.707049 
L 997.204708 274.952694 
L 999.92224 274.952694 
L 1001.281006 274.801823 
L 1002.639773 273.594856 
L 1005.357305 273.594856 
L 1006.716071 273.443985 
L 1012.151136 273.443985 
L 1014.868669 273.142243 
L 1017.586201 273.142243 
L 1018.944968 272.991372 
L 1020.303734 272.991372 
L 1023.021266 272.68963 
L 1024.380032 272.68963 
L 1025.738799 272.387888 
L 1028.456331 272.387888 
L 1031.173864 272.086146 
L 1042.043994 272.086146 
L 1043.40276 271.784404 
L 1047.479058 271.331791 
L 1048.837825 270.879178 
L 1051.555357 270.879178 
L 1054.27289 268.314371 
L 1055.631656 268.012629 
L 1056.990422 267.861758 
L 1058.349188 266.805662 
L 1061.066721 265.598694 
L 1062.425487 264.240855 
L 1063.784253 263.4865 
L 1065.143019 263.184758 
L 1066.501786 263.033887 
L 1067.860552 262.279532 
L 1069.219318 261.676049 
L 1070.578084 260.31821 
L 1071.936851 259.412984 
L 1073.295617 258.8095 
L 1074.654383 255.037726 
L 1076.013149 252.322048 
L 1077.371916 246.739822 
L 1078.730682 239.648886 
L 1080.089448 234.06666 
L 1081.448214 227.88095 
L 1082.806981 222.751337 
L 1084.165747 210.681659 
L 1085.524513 207.965982 
L 1088.242045 203.741594 
L 1089.600812 202.534627 
L 1090.959578 201.629401 
L 1092.318344 200.875046 
L 1093.67711 200.422433 
L 1095.035877 200.271562 
L 1096.394643 199.96982 
L 1097.753409 199.818949 
L 1099.112175 199.215465 
L 1100.470942 198.310239 
L 1101.829708 197.706755 
L 1103.188474 196.047175 
L 1104.54724 194.689336 
L 1105.906006 192.878884 
L 1107.264773 191.370175 
L 1108.623539 190.766691 
L 1109.982305 190.314078 
L 1111.341071 190.012336 
L 1112.699838 189.861465 
L 1114.058604 189.559723 
L 1115.41737 189.408852 
L 1116.776136 189.408852 
L 1120.852435 188.956239 
L 1123.569968 188.956239 
L 1124.928734 188.805368 
L 1127.646266 188.805368 
L 1129.005032 188.352755 
L 1131.722565 188.051013 
L 1133.081331 188.051013 
L 1134.440097 187.5984 
L 1137.15763 187.296658 
L 1138.516396 186.391432 
L 1139.875162 185.637078 
L 1141.233929 184.279239 
L 1142.592695 183.223142 
L 1143.951461 182.619658 
L 1145.310227 182.317916 
L 1146.668994 181.714432 
L 1148.02776 179.602239 
L 1150.745292 179.300497 
L 1152.104058 178.395271 
L 1153.462825 176.584819 
L 1154.821591 173.718271 
L 1156.180357 170.097367 
L 1157.539123 164.515141 
L 1158.89789 161.045109 
L 1160.256656 154.255915 
L 1164.332955 129.362204 
L 1165.691721 119.857333 
L 1167.050487 115.482075 
L 1168.409253 111.7103 
L 1169.768019 108.391139 
L 1171.126786 107.0333 
L 1175.203084 94.66188 
L 1176.561851 89.381396 
L 1177.920617 86.816589 
L 1179.279383 85.609622 
L 1180.638149 84.553525 
L 1181.996916 84.251783 
L 1183.355682 83.648299 
L 1187.431981 83.195686 
L 1188.790747 83.195686 
L 1190.149513 82.743073 
L 1191.508279 82.139589 
L 1192.867045 82.139589 
L 1194.225812 81.988718 
L 1195.584578 81.988718 
L 1196.943344 81.837847 
L 1199.660877 81.837847 
L 1201.019643 81.686976 
L 1202.378409 81.686976 
L 1203.737175 81.536105 
L 1215.966071 81.536105 
L 1217.324838 81.234363 
L 1220.04237 81.234363 
L 1221.401136 81.083492 
L 1225.477435 81.083492 
L 1226.836201 80.932621 
L 1245.858929 80.932621 
L 1247.217695 79.876525 
L 1248.576461 77.462589 
L 1251.293994 75.048653 
L 1252.65276 74.143428 
L 1254.011526 68.712073 
L 1255.370292 63.884201 
L 1256.729058 61.470266 
L 1258.087825 60.414169 
L 1259.446591 58.754588 
L 1260.805357 57.698491 
L 1262.164123 57.095008 
L 1263.52289 56.038911 
L 1264.881656 55.133685 
L 1273.034253 55.133685 
L 1274.393019 54.831943 
L 1275.751786 54.681072 
L 1281.186851 54.681072 
L 1282.545617 54.530201 
L 1283.904383 54.228459 
L 1285.263149 53.775846 
L 1286.621916 53.624975 
L 1292.056981 53.624975 
L 1293.415747 53.172362 
L 1294.774513 53.021491 
L 1296.133279 52.418007 
L 1297.492045 52.418007 
L 1298.850812 52.267136 
L 1298.850812 52.267136 
" clip-path="url(#pf0b5d6c530)" style="fill: none; stroke: #0000ff; stroke-width: 1.5; stroke-linecap: square"/>
   </g>
   <g id="line2d_22">
    <path d="M 1059.707955 265.532742 
L 1061.066721 264.97212 
L 1062.425487 263.139034 
L 1063.784253 262.610497 
L 1066.501786 262.759808 
L 1067.860552 261.693323 
L 1069.219318 261.078613 
L 1070.578084 259.22659 
L 1071.936851 258.442501 
L 1073.295617 258.077529 
L 1074.654383 252.330194 
L 1076.013149 249.609222 
L 1077.371916 242.16218 
L 1078.730682 233.437861 
L 1080.089448 228.26429 
L 1081.448214 221.829449 
L 1082.806981 217.298969 
L 1084.165747 200.928718 
L 1085.524513 202.786541 
L 1086.883279 202.667743 
L 1088.242045 201.253443 
L 1090.959578 200.461497 
L 1092.318344 199.975907 
L 1093.67711 199.81349 
L 1095.035877 199.960319 
L 1096.394643 199.664752 
L 1097.753409 199.614093 
L 1099.112175 198.751542 
L 1100.470942 197.559515 
L 1101.829708 197.051722 
L 1103.188474 194.739289 
L 1104.54724 193.348986 
L 1105.906006 191.233016 
L 1107.264773 189.813445 
L 1108.623539 189.829473 
L 1111.341071 189.598375 
L 1112.699838 189.618485 
L 1114.058604 189.278554 
L 1115.41737 189.212363 
L 1116.776136 189.340061 
L 1120.852435 188.80889 
L 1123.569968 188.938178 
L 1124.928734 188.700994 
L 1127.646266 188.792575 
L 1129.005032 188.054124 
L 1133.081331 187.991852 
L 1134.440097 187.283536 
L 1137.15763 187.125686 
L 1138.516396 185.743271 
L 1139.875162 184.919901 
L 1141.233929 183.145698 
L 1142.592695 182.139932 
L 1143.951461 181.848221 
L 1145.310227 181.851733 
L 1146.668994 181.159018 
L 1148.02776 178.035077 
L 1149.386526 178.80465 
L 1150.745292 178.976028 
L 1152.104058 177.69337 
L 1153.462825 175.162474 
L 1154.821591 171.357341 
L 1156.180357 166.917584 
L 1157.539123 159.774016 
L 1158.89789 157.130064 
L 1160.256656 148.472968 
L 1161.615422 138.789522 
L 1162.974188 130.353509 
L 1164.332955 120.958746 
L 1165.691721 110.738069 
L 1167.050487 109.445928 
L 1169.768019 104.635968 
L 1171.126786 104.836149 
L 1172.485552 99.294266 
L 1173.844318 94.359698 
L 1175.203084 90.784311 
L 1176.561851 84.592076 
L 1177.920617 83.472975 
L 1179.279383 83.654609 
L 1180.638149 83.182715 
L 1181.996916 83.575758 
L 1183.355682 83.019418 
L 1184.714448 83.179205 
L 1188.790747 83.135684 
L 1191.508279 81.637049 
L 1192.867045 81.963649 
L 1194.225812 81.82907 
L 1195.584578 81.932825 
L 1196.943344 81.720228 
L 1199.660877 81.823431 
L 1201.019643 81.583878 
L 1202.378409 81.650881 
L 1203.737175 81.425418 
L 1207.813474 81.531355 
L 1215.966071 81.536097 
L 1217.324838 81.038259 
L 1220.04237 81.210327 
L 1221.401136 80.977026 
L 1225.477435 81.078924 
L 1226.836201 80.832971 
L 1230.9125 80.928345 
L 1245.858929 80.932621 
L 1247.217695 79.19017 
L 1248.576461 75.653484 
L 1249.935227 74.837844 
L 1251.293994 73.767881 
L 1252.65276 73.106722 
L 1254.011526 64.819295 
L 1255.370292 59.383709 
L 1256.729058 58.325821 
L 1258.087825 58.626936 
L 1259.446591 57.050316 
L 1260.805357 56.415467 
L 1262.164123 56.253615 
L 1263.52289 55.057982 
L 1264.881656 54.201955 
L 1266.240422 54.807484 
L 1267.599188 55.019481 
L 1270.316721 55.119687 
L 1273.034253 55.131969 
L 1274.393019 54.635241 
L 1275.751786 54.514155 
L 1278.469318 54.660613 
L 1281.186851 54.678564 
L 1282.545617 54.431272 
L 1283.904383 53.997723 
L 1285.263149 53.400913 
L 1286.621916 53.395659 
L 1289.339448 53.596868 
L 1292.056981 53.62153 
L 1293.415747 52.877004 
L 1294.774513 52.820035 
L 1296.133279 51.955274 
L 1297.492045 52.256003 
L 1298.850812 52.112368 
L 1298.850812 52.112368 
" clip-path="url(#pf0b5d6c530)" style="fill: none; stroke: #ffa500; stroke-width: 1.5; stroke-linecap: square"/>
   </g>
   <g id="line2d_23">
    <path d="M 1298.850812 52.112368 
L 1300.209578 51.957599 
L 1301.568344 51.80283 
L 1302.92711 51.648062 
L 1304.285877 51.493293 
L 1305.644643 51.338524 
L 1307.003409 51.183756 
L 1308.362175 51.028987 
L 1309.720942 50.874218 
L 1311.079708 50.71945 
L 1312.438474 50.564681 
L 1313.79724 50.409912 
L 1315.156006 50.255144 
L 1316.514773 50.100375 
" clip-path="url(#pf0b5d6c530)" style="fill: none; stroke: #ff0000; stroke-width: 1.5; stroke-linecap: square"/>
   </g>
   <g id="patch_3">
    <path d="M 38.1875 367.620375 
L 38.1875 34.980375 
" style="fill: none; stroke: #000000; stroke-width: 0.8; stroke-linejoin: miter; stroke-linecap: square"/>
   </g>
   <g id="patch_4">
    <path d="M 1377.3875 367.620375 
L 1377.3875 34.980375 
" style="fill: none; stroke: #000000; stroke-width: 0.8; stroke-linejoin: miter; stroke-linecap: square"/>
   </g>
   <g id="patch_5">
    <path d="M 38.1875 367.620375 
L 1377.3875 367.620375 
" style="fill: none; stroke: #000000; stroke-width: 0.8; stroke-linejoin: miter; stroke-linecap: square"/>
   </g>
   <g id="patch_6">
    <path d="M 38.1875 34.980375 
L 1377.3875 34.980375 
" style="fill: none; stroke: #000000; stroke-width: 0.8; stroke-linejoin: miter; stroke-linecap: square"/>
   </g>
   <g id="text_21">
    <!-- 累计确诊预测 - 天津 -->
    <g transform="translate(654.390313 16.96125)scale(0.12 -0.12)">
     <defs>
      <path id="WenQuanYiZenHei-7d2f" d="M 5963 -681 
Q 5363 -81 4706 456 
L 5000 819 
Q 5675 269 6294 -350 
L 5963 -681 
z
M 1944 738 
Q 2094 556 2281 413 
Q 1575 -356 375 -706 
Q 350 -481 200 -319 
Q 725 -181 1122 69 
Q 1519 319 1944 738 
z
M 3244 -169 
L 3244 1063 
L 869 881 
L 850 1181 
Q 1431 1325 2969 1988 
L 1119 1931 
L 1113 2231 
Q 1350 2263 1862 2497 
Q 2375 2731 2800 2988 
L 1094 2988 
Q 1169 4006 1094 5019 
L 5506 5019 
Q 5425 4006 5500 2988 
L 3431 2988 
Q 3475 2931 3525 2875 
Q 2856 2494 2281 2256 
L 3388 2269 
L 3650 2288 
Q 4338 2606 4650 2800 
Q 4744 2563 4881 2344 
Q 4644 2225 3975 1956 
L 2269 1281 
L 4444 1425 
L 4813 1469 
L 4681 1588 
L 4988 1938 
Q 5481 1500 5863 963 
L 5481 694 
Q 5300 950 5081 1188 
L 4463 1163 
L 3669 1100 
L 3669 -250 
Q 3669 -444 3488 -594 
Q 3225 -819 2569 -813 
Q 2638 -513 2431 -294 
Q 2619 -319 2900 -322 
Q 3181 -325 3212 -294 
Q 3244 -263 3244 -169 
z
M 3513 4131 
L 5081 4131 
L 5081 4725 
L 3513 4725 
L 3513 4131 
z
M 3088 4131 
L 3088 4725 
L 1519 4725 
L 1519 4131 
L 3088 4131 
z
M 3513 3856 
L 3513 3288 
L 5081 3288 
L 5081 3856 
L 3513 3856 
z
M 3088 3856 
L 1519 3856 
L 1519 3288 
L 3088 3288 
L 3088 3856 
z
" transform="scale(0.015625)"/>
      <path id="WenQuanYiZenHei-8ba1" d="M 4569 -769 
Q 4313 -738 4056 -769 
Q 4081 -294 4081 175 
L 4081 2806 
L 3213 2806 
Q 2813 2806 2413 2788 
Q 2438 3000 2413 3219 
Q 2813 3200 3213 3200 
L 4081 3200 
L 4081 4313 
Q 4081 4788 4056 5263 
Q 4313 5231 4569 5263 
Q 4550 4788 4550 4313 
L 4550 3200 
L 5381 3200 
Q 5781 3200 6181 3219 
Q 6163 3000 6181 2788 
Q 5781 2806 5381 2806 
L 4550 2806 
L 4550 175 
Q 4550 -294 4569 -769 
z
M 38 2725 
Q 63 2931 38 3138 
Q 419 3119 800 3119 
L 1481 3119 
L 1481 425 
L 2044 1150 
L 2250 1488 
L 2525 1188 
L 2313 950 
L 1294 -488 
L 963 -231 
Q 1025 -94 1025 63 
L 1025 2744 
L 800 2744 
Q 419 2744 38 2725 
z
M 1450 3913 
Q 1094 4438 600 4831 
L 913 5225 
Q 1488 4769 1869 4194 
L 1450 3913 
z
" transform="scale(0.015625)"/>
      <path id="WenQuanYiZenHei-786e" d="M 4794 -769 
Q 4563 -744 4331 -769 
Q 4350 -344 4350 81 
L 4350 1081 
L 3419 1081 
L 3419 788 
Q 3419 225 3150 -194 
Q 2881 -613 2456 -806 
Q 2375 -569 2150 -444 
Q 2531 -344 2765 -15 
Q 3000 313 3000 788 
L 2994 2919 
L 2888 2813 
Q 2769 3000 2563 3081 
Q 3044 3494 3309 3969 
Q 3575 4444 3763 5119 
Q 3981 5044 4213 5013 
Q 4144 4700 4025 4400 
L 5238 4400 
L 5306 4050 
Q 5213 4031 5163 3947 
Q 5113 3863 4813 3325 
L 5994 3325 
L 5994 -150 
Q 5981 -519 5738 -656 
Q 5469 -806 5069 -806 
Q 5125 -525 4956 -294 
Q 5100 -313 5290 -316 
Q 5481 -319 5525 -278 
Q 5569 -238 5569 25 
L 5569 1081 
L 4769 1081 
L 4769 81 
Q 4769 -344 4794 -769 
z
M 4769 1344 
L 5569 1344 
L 5569 2100 
L 4769 2100 
L 4769 1344 
z
M 4350 1344 
L 4350 2100 
L 3413 2100 
L 3419 1344 
L 4350 1344 
z
M 4769 2363 
L 5569 2363 
L 5569 3038 
L 4769 3038 
L 4769 2363 
z
M 4350 2363 
L 4350 3038 
L 3413 3038 
L 3413 2363 
L 4350 2363 
z
M 3375 3325 
L 4350 3325 
L 4344 3331 
L 4775 4113 
L 3894 4113 
Q 3688 3700 3375 3325 
z
M 481 1069 
Q 281 1194 -25 1188 
Q 775 2750 1244 4294 
L 869 4294 
Q 563 4294 250 4275 
Q 269 4438 250 4594 
Q 563 4581 869 4581 
L 2156 4581 
Q 2463 4581 2775 4594 
Q 2756 4438 2775 4275 
Q 2463 4294 2156 4294 
L 1744 4294 
L 1181 2763 
L 2494 2763 
L 2494 -338 
L 2050 -338 
L 2050 156 
L 1406 156 
Q 1406 -94 1419 -350 
Q 1181 -325 938 -350 
Q 956 75 956 500 
L 956 2181 
L 769 1713 
Q 631 1388 481 1069 
z
M 2050 2475 
L 1400 2475 
L 1400 425 
L 2050 425 
L 2050 2475 
z
" transform="scale(0.015625)"/>
      <path id="WenQuanYiZenHei-8bca" d="M 5369 1456 
Q 5556 1256 5775 1100 
Q 5038 344 4081 -225 
Q 3106 -819 1788 -1006 
Q 1788 -725 1631 -500 
Q 3363 -306 4406 519 
Q 4919 956 5369 1456 
z
M 4594 2219 
Q 4781 2031 5013 1881 
Q 3625 394 2150 -25 
Q 2113 250 1913 444 
Q 2475 594 3015 850 
Q 3556 1106 3919 1463 
Q 4275 1819 4594 2219 
z
M 3969 3188 
Q 4150 3013 4356 2881 
Q 3625 1913 2306 1275 
Q 2244 1500 2056 1644 
Q 2619 1900 3053 2256 
Q 3488 2613 3969 3188 
z
M 5813 2194 
Q 4525 2913 3731 4188 
Q 2919 2844 1813 2163 
Q 1700 2413 1456 2550 
Q 1950 2844 2400 3231 
Q 2850 3619 3113 4063 
Q 3413 4581 3644 5163 
Q 3881 5038 4144 4963 
Q 4056 4775 3963 4594 
Q 4325 3919 4844 3441 
Q 5363 2963 6175 2538 
Q 5931 2431 5813 2194 
z
M 31 2613 
Q 50 2775 31 2938 
Q 325 2925 619 2925 
L 1275 2925 
L 1275 506 
L 1675 1006 
L 1831 1250 
L 2038 1013 
L 1881 838 
L 1100 -256 
L 825 -25 
Q 869 81 869 200 
L 869 2625 
L 31 2613 
z
M 950 3713 
Q 606 4325 200 4881 
L 556 5163 
Q 981 4588 1338 3944 
L 950 3713 
z
" transform="scale(0.015625)"/>
      <path id="WenQuanYiZenHei-9884" d="M 1206 19 
L 1206 2888 
L 669 2888 
Q 356 2888 50 2869 
Q 63 3044 50 3213 
Q 363 3194 669 3194 
L 1250 3194 
Q 950 3631 606 4031 
L 963 4338 
L 1263 3975 
L 1913 4719 
L 731 4719 
Q 419 4719 106 4706 
Q 125 4875 106 5044 
Q 419 5031 731 5031 
L 2481 5031 
L 2544 4663 
Q 2394 4613 2256 4466 
Q 2119 4319 1525 3631 
Q 1656 3444 1788 3250 
L 1700 3194 
L 2700 3194 
L 2763 2825 
Q 2656 2819 2613 2763 
L 2100 2038 
L 1750 2288 
L 2175 2888 
L 1638 2888 
L 1638 -150 
Q 1638 -525 1363 -669 
Q 1075 -819 525 -813 
Q 594 -513 388 -294 
Q 575 -313 837 -316 
Q 1100 -319 1153 -272 
Q 1206 -225 1206 19 
z
M 5813 -888 
Q 5100 -225 4306 375 
L 4669 719 
Q 5481 106 6219 -575 
L 5813 -888 
z
M 2375 -906 
Q 2294 -631 2025 -506 
Q 2769 -431 3353 19 
Q 3938 469 3938 1069 
L 3938 2200 
Q 3938 2625 3913 3050 
Q 4188 3025 4456 3050 
Q 4431 2625 4431 2200 
L 4431 1069 
Q 4431 681 4225 319 
Q 3644 -606 2375 -906 
z
M 3444 488 
Q 3169 513 2894 488 
Q 2919 913 2919 1338 
L 2919 3675 
Q 3219 3675 3525 3675 
Q 3750 4013 3931 4525 
L 3238 4525 
Q 2888 4525 2538 4513 
Q 2556 4669 2538 4831 
Q 2888 4813 3238 4813 
L 5313 4813 
Q 5663 4813 6006 4831 
Q 5988 4669 6006 4513 
Q 5663 4525 5313 4525 
L 4481 4525 
Q 4388 4088 4088 3675 
L 5644 3675 
L 5644 513 
L 5144 513 
L 5144 3388 
L 3894 3388 
L 3875 3363 
Q 3863 3375 3844 3388 
Q 3631 3388 3413 3388 
L 3419 1338 
Q 3419 913 3444 488 
z
" transform="scale(0.015625)"/>
      <path id="WenQuanYiZenHei-6d4b" d="M 5450 138 
L 5450 4306 
Q 5450 4750 5425 5188 
Q 5663 5163 5906 5188 
Q 5881 4750 5881 4306 
L 5881 -38 
Q 5888 -569 5519 -719 
Q 5194 -831 4825 -813 
Q 4894 -519 4694 -281 
Q 4869 -306 5094 -309 
Q 5319 -313 5384 -256 
Q 5450 -200 5450 138 
z
M 4900 938 
Q 4663 963 4419 938 
Q 4444 1375 4444 1819 
L 4444 3381 
Q 4444 3819 4419 4263 
Q 4663 4238 4900 4263 
Q 4875 3819 4875 3381 
L 4875 1819 
Q 4875 1375 4900 938 
z
M 2750 2025 
L 2750 3038 
Q 2750 3481 2725 3919 
Q 2963 3894 3206 3919 
Q 3181 3481 3181 3038 
L 3181 2025 
Q 3181 1263 2919 625 
L 3231 956 
Q 3781 431 4256 -150 
L 3888 -456 
Q 3431 106 2906 600 
Q 2531 -288 1738 -769 
Q 1606 -519 1338 -450 
Q 1988 -156 2369 478 
Q 2750 1113 2750 2025 
z
M 2363 969 
Q 2119 994 1881 969 
Q 1906 1406 1906 1850 
L 1906 5038 
L 3956 5031 
L 3956 1200 
L 3525 1200 
L 3525 4713 
L 2338 4713 
L 2338 1850 
Q 2338 1406 2363 969 
z
M 663 -738 
Q 481 -588 206 -575 
Q 400 -69 606 581 
Q 813 1231 1200 2838 
L 1381 2706 
L 875 338 
L 663 -738 
z
M 1006 2856 
L 731 2550 
L 75 3400 
L 350 3713 
L 1006 2856 
z
M 1088 3913 
Q 781 4388 425 4800 
L 694 5125 
Q 1069 4688 1388 4188 
L 1088 3913 
z
" transform="scale(0.015625)"/>
      <path id="WenQuanYiZenHei-20" transform="scale(0.015625)"/>
      <path id="WenQuanYiZenHei-5929" d="M 1306 2594 
Q 906 2594 506 2575 
Q 531 2788 506 3006 
Q 906 2988 1306 2988 
L 2888 2988 
L 2888 4575 
L 1838 4575 
Q 1438 4575 1038 4556 
Q 1063 4775 1038 4988 
Q 1438 4969 1838 4969 
L 4519 4969 
Q 4919 4969 5319 4988 
Q 5294 4775 5319 4556 
Q 4919 4575 4519 4575 
L 3350 4575 
L 3350 2988 
L 5081 2988 
Q 5475 2988 5875 3006 
Q 5856 2788 5875 2575 
Q 5475 2594 5081 2594 
L 3413 2594 
Q 3719 1519 4250 888 
Q 4956 63 6119 -219 
Q 5900 -388 5831 -656 
Q 4931 -425 4256 250 
Q 3581 925 3200 1881 
Q 2938 1019 2275 328 
Q 1613 -363 669 -681 
Q 550 -388 244 -288 
Q 1331 -38 2053 771 
Q 2775 1581 2875 2594 
L 1306 2594 
z
" transform="scale(0.015625)"/>
      <path id="WenQuanYiZenHei-6d25" d="M 4000 -769 
Q 3763 -744 3525 -769 
Q 3544 -325 3544 113 
L 3544 556 
L 2419 556 
Q 2094 556 1769 538 
Q 1788 713 1769 888 
Q 2094 875 2419 875 
L 3544 875 
L 3544 1450 
L 2806 1450 
Q 2481 1450 2156 1438 
Q 2175 1613 2156 1788 
Q 2481 1769 2806 1769 
L 3544 1769 
L 3544 2475 
L 2863 2475 
Q 2538 2475 2219 2456 
Q 2238 2631 2219 2806 
Q 2538 2794 2863 2794 
L 3544 2794 
L 3544 3388 
L 2581 3388 
Q 2256 3388 1931 3369 
Q 1950 3544 1931 3719 
Q 2256 3706 2581 3706 
L 3544 3706 
L 3544 4300 
L 2850 4300 
Q 2525 4300 2200 4281 
Q 2219 4456 2200 4631 
Q 2525 4619 2850 4619 
L 3544 4619 
Q 3538 4938 3525 5256 
Q 3763 5231 4000 5256 
Q 3981 4938 3981 4619 
L 5394 4619 
L 5394 3706 
L 6169 3719 
Q 6150 3544 6169 3369 
L 5394 3388 
L 5394 2200 
L 4956 2200 
L 4956 2475 
L 3975 2475 
L 3975 1769 
L 5075 1769 
Q 5400 1769 5719 1788 
Q 5700 1613 5719 1438 
Q 5400 1450 5075 1450 
L 3975 1450 
L 3975 875 
L 5431 875 
Q 5756 875 6081 888 
Q 6063 713 6081 538 
Q 5756 556 5431 556 
L 3975 556 
L 3975 113 
Q 3975 -325 4000 -769 
z
M 3975 2794 
L 4956 2794 
L 4956 3388 
L 3975 3388 
L 3975 2794 
z
M 3975 3706 
L 4956 3706 
L 4956 4300 
L 3975 4300 
L 3975 3706 
z
M 788 -738 
Q 575 -588 250 -575 
Q 481 -69 725 581 
Q 969 1231 1438 2838 
L 1650 2706 
L 1044 338 
L 788 -738 
z
M 1206 2856 
L 869 2550 
L 88 3400 
L 425 3713 
L 1206 2856 
z
M 1300 3913 
Q 938 4388 513 4800 
L 825 5125 
Q 1275 4688 1663 4188 
L 1300 3913 
z
" transform="scale(0.015625)"/>
     </defs>
     <use xlink:href="#WenQuanYiZenHei-7d2f"/>
     <use xlink:href="#WenQuanYiZenHei-8ba1" x="100"/>
     <use xlink:href="#WenQuanYiZenHei-786e" x="200"/>
     <use xlink:href="#WenQuanYiZenHei-8bca" x="300"/>
     <use xlink:href="#WenQuanYiZenHei-9884" x="400"/>
     <use xlink:href="#WenQuanYiZenHei-6d4b" x="500"/>
     <use xlink:href="#WenQuanYiZenHei-20" x="600"/>
     <use xlink:href="#WenQuanYiZenHei-2d" x="629.980469"/>
     <use xlink:href="#WenQuanYiZenHei-20" x="659.960938"/>
     <use xlink:href="#WenQuanYiZenHei-5929" x="689.941406"/>
     <use xlink:href="#WenQuanYiZenHei-6d25" x="789.941406"/>
    </g>
    <!-- ARIMA (0, 2, 1)x(0, 0, 0, 7) (R2 = 0.998855) -->
    <g transform="translate(589.179688 28.980375)scale(0.12 -0.12)">
     <defs>
      <path id="WenQuanYiZenHei-41" d="M 3550 0 
L 2988 0 
L 2550 1281 
L 919 1281 
L 531 0 
L 69 0 
L 1494 4388 
L 2125 4388 
L 3550 0 
z
M 2425 1694 
L 1756 3800 
L 1075 1694 
L 2425 1694 
z
" transform="scale(0.015625)"/>
      <path id="WenQuanYiZenHei-52" d="M 3675 0 
L 3100 0 
L 2288 1900 
L 1069 1900 
L 1069 0 
L 519 0 
L 519 4388 
L 2163 4388 
Q 3006 4388 3400 3900 
Q 3581 3663 3625 3325 
Q 3631 3250 3631 3163 
Q 3631 2594 3219 2244 
Q 3038 2100 2813 2038 
L 3675 0 
z
M 3081 3169 
Q 3081 3825 2356 3906 
Q 2263 3919 2163 3919 
L 1069 3919 
L 1069 2350 
L 2100 2350 
Q 2906 2350 3044 2919 
Q 3081 3031 3081 3169 
z
" transform="scale(0.015625)"/>
      <path id="WenQuanYiZenHei-49" d="M 1100 0 
L 550 0 
L 550 4388 
L 1100 4388 
L 1100 0 
z
" transform="scale(0.015625)"/>
      <path id="WenQuanYiZenHei-4d" d="M 4756 0 
L 4206 0 
L 4206 3831 
L 4181 3831 
L 2788 0 
L 2419 0 
L 1000 3831 
L 975 3831 
L 975 0 
L 513 0 
L 513 4388 
L 1331 4388 
L 2656 875 
L 3950 4388 
L 4756 4388 
L 4756 0 
z
" transform="scale(0.015625)"/>
      <path id="WenQuanYiZenHei-28" d="M 1606 -1094 
L 1275 -1094 
Q 475 -100 338 1231 
Q 319 1438 319 1656 
Q 319 3031 1156 4244 
Q 1213 4313 1269 4388 
L 1600 4388 
Q 806 3169 794 1681 
Q 794 188 1606 -1094 
z
" transform="scale(0.015625)"/>
      <path id="WenQuanYiZenHei-2c" d="M 1363 75 
L 881 -825 
L 606 -825 
L 994 0 
L 656 0 
L 656 738 
L 1363 738 
L 1363 75 
z
" transform="scale(0.015625)"/>
      <path id="WenQuanYiZenHei-29" d="M 1600 1656 
Q 1600 306 869 -788 
Q 769 -950 644 -1094 
L 313 -1094 
Q 1125 188 1125 1681 
Q 1125 3169 338 4363 
Q 325 4375 319 4388 
L 650 4388 
Q 1525 3231 1594 1863 
Q 1600 1763 1600 1656 
z
" transform="scale(0.015625)"/>
      <path id="WenQuanYiZenHei-78" d="M 2806 0 
L 2213 0 
L 1394 1319 
L 544 0 
L 50 0 
L 1144 1681 
L 163 3250 
L 744 3250 
L 1431 2138 
L 2144 3250 
L 2631 3250 
L 1681 1794 
L 2806 0 
z
" transform="scale(0.015625)"/>
      <path id="WenQuanYiZenHei-3d" d="M 3569 2256 
L 263 2256 
L 263 2675 
L 3569 2675 
L 3569 2256 
z
M 3569 1019 
L 263 1019 
L 263 1431 
L 3569 1431 
L 3569 1019 
z
" transform="scale(0.015625)"/>
      <path id="WenQuanYiZenHei-2e" d="M 1344 0 
L 631 0 
L 631 725 
L 1344 725 
L 1344 0 
z
" transform="scale(0.015625)"/>
      <path id="WenQuanYiZenHei-39" d="M 3544 2300 
Q 3544 1163 3019 513 
Q 2563 -63 1775 -63 
Q 956 -63 563 488 
Q 463 631 394 813 
L 838 975 
Q 1025 494 1550 388 
Q 1656 369 1775 369 
Q 2594 369 2900 1325 
Q 3044 1769 3038 2313 
L 3025 2313 
Q 2675 1638 1944 1544 
Q 1844 1531 1744 1531 
Q 1050 1531 625 2031 
Q 294 2419 294 2963 
Q 294 3656 813 4094 
Q 1238 4456 1819 4456 
Q 2988 4456 3381 3363 
Q 3544 2900 3544 2300 
z
M 2925 2994 
Q 2925 3563 2469 3844 
Q 2206 4006 1863 4006 
Q 1275 4006 988 3563 
Q 844 3344 825 3056 
Q 819 3006 819 2956 
Q 819 2413 1269 2131 
Q 1538 1963 1875 1963 
Q 2363 1963 2681 2350 
Q 2925 2638 2925 2994 
z
" transform="scale(0.015625)"/>
      <path id="WenQuanYiZenHei-38" d="M 3619 1175 
Q 3619 431 2850 100 
Q 2444 -63 1944 -63 
Q 1231 -63 725 269 
Q 225 594 225 1125 
Q 225 1881 1269 2281 
Q 719 2481 519 2938 
Q 444 3119 444 3319 
Q 444 4000 1144 4294 
Q 1519 4456 1963 4456 
Q 2669 4456 3094 4094 
Q 3425 3813 3425 3369 
Q 3425 2638 2575 2356 
Q 3231 2056 3450 1725 
Q 3619 1488 3619 1175 
z
M 2944 3344 
Q 2944 3906 2288 4019 
Q 2138 4044 1969 4044 
Q 1438 4044 1163 3775 
Q 1000 3613 1000 3375 
Q 1000 2925 1594 2663 
Q 1756 2588 1931 2550 
Q 2581 2725 2788 2956 
Q 2944 3125 2944 3344 
z
M 3075 1094 
Q 3075 1738 1875 2050 
Q 1094 1881 850 1463 
Q 763 1313 763 1131 
Q 763 569 1456 406 
Q 1681 344 1944 344 
Q 2519 344 2850 619 
Q 3075 813 3075 1094 
z
" transform="scale(0.015625)"/>
     </defs>
     <use xlink:href="#WenQuanYiZenHei-41"/>
     <use xlink:href="#WenQuanYiZenHei-52" x="55.957031"/>
     <use xlink:href="#WenQuanYiZenHei-49" x="117.871094"/>
     <use xlink:href="#WenQuanYiZenHei-4d" x="143.847656"/>
     <use xlink:href="#WenQuanYiZenHei-41" x="225.78125"/>
     <use xlink:href="#WenQuanYiZenHei-20" x="281.738281"/>
     <use xlink:href="#WenQuanYiZenHei-28" x="311.71875"/>
     <use xlink:href="#WenQuanYiZenHei-30" x="341.699219"/>
     <use xlink:href="#WenQuanYiZenHei-2c" x="401.660156"/>
     <use xlink:href="#WenQuanYiZenHei-20" x="431.640625"/>
     <use xlink:href="#WenQuanYiZenHei-32" x="461.621094"/>
     <use xlink:href="#WenQuanYiZenHei-2c" x="521.582031"/>
     <use xlink:href="#WenQuanYiZenHei-20" x="551.5625"/>
     <use xlink:href="#WenQuanYiZenHei-31" x="581.542969"/>
     <use xlink:href="#WenQuanYiZenHei-29" x="641.503906"/>
     <use xlink:href="#WenQuanYiZenHei-78" x="671.484375"/>
     <use xlink:href="#WenQuanYiZenHei-28" x="715.429688"/>
     <use xlink:href="#WenQuanYiZenHei-30" x="745.410156"/>
     <use xlink:href="#WenQuanYiZenHei-2c" x="805.371094"/>
     <use xlink:href="#WenQuanYiZenHei-20" x="835.351562"/>
     <use xlink:href="#WenQuanYiZenHei-30" x="865.332031"/>
     <use xlink:href="#WenQuanYiZenHei-2c" x="925.292969"/>
     <use xlink:href="#WenQuanYiZenHei-20" x="955.273438"/>
     <use xlink:href="#WenQuanYiZenHei-30" x="985.253906"/>
     <use xlink:href="#WenQuanYiZenHei-2c" x="1045.214844"/>
     <use xlink:href="#WenQuanYiZenHei-20" x="1075.195312"/>
     <use xlink:href="#WenQuanYiZenHei-37" x="1105.175781"/>
     <use xlink:href="#WenQuanYiZenHei-29" x="1165.136719"/>
     <use xlink:href="#WenQuanYiZenHei-20" x="1195.117188"/>
     <use xlink:href="#WenQuanYiZenHei-28" x="1225.097656"/>
     <use xlink:href="#WenQuanYiZenHei-52" x="1255.078125"/>
     <use xlink:href="#WenQuanYiZenHei-32" x="1316.992188"/>
     <use xlink:href="#WenQuanYiZenHei-20" x="1376.953125"/>
     <use xlink:href="#WenQuanYiZenHei-3d" x="1406.933594"/>
     <use xlink:href="#WenQuanYiZenHei-20" x="1466.894531"/>
     <use xlink:href="#WenQuanYiZenHei-30" x="1496.875"/>
     <use xlink:href="#WenQuanYiZenHei-2e" x="1556.835938"/>
     <use xlink:href="#WenQuanYiZenHei-39" x="1586.816406"/>
     <use xlink:href="#WenQuanYiZenHei-39" x="1646.777344"/>
     <use xlink:href="#WenQuanYiZenHei-38" x="1706.738281"/>
     <use xlink:href="#WenQuanYiZenHei-38" x="1766.699219"/>
     <use xlink:href="#WenQuanYiZenHei-35" x="1826.660156"/>
     <use xlink:href="#WenQuanYiZenHei-35" x="1886.621094"/>
     <use xlink:href="#WenQuanYiZenHei-29" x="1946.582031"/>
    </g>
   </g>
   <g id="legend_1">
    <g id="patch_7">
     <path d="M 45.1875 86.975687 
L 107.1875 86.975687 
Q 109.1875 86.975687 109.1875 84.975687 
L 109.1875 41.980375 
Q 109.1875 39.980375 107.1875 39.980375 
L 45.1875 39.980375 
Q 43.1875 39.980375 43.1875 41.980375 
L 43.1875 84.975687 
Q 43.1875 86.975687 45.1875 86.975687 
z
" style="fill: #ffffff; opacity: 0.8; stroke: #cccccc; stroke-linejoin: miter"/>
    </g>
    <g id="line2d_24">
     <path d="M 47.1875 48.61475 
L 57.1875 48.61475 
L 67.1875 48.61475 
" style="fill: none; stroke: #0000ff; stroke-width: 1.5; stroke-linecap: square"/>
    </g>
    <g id="text_22">
     <!-- 实际值 -->
     <g transform="translate(75.1875 52.11475)scale(0.1 -0.1)">
      <defs>
       <path id="WenQuanYiZenHei-5b9e" d="M 1025 1175 
Q 694 1175 356 1163 
Q 375 1344 356 1525 
Q 694 1506 1025 1506 
L 3363 1506 
L 3363 2625 
Q 3363 3075 3338 3519 
Q 3581 3494 3825 3519 
Q 3800 3075 3800 2625 
L 3800 1506 
L 5406 1506 
Q 5744 1506 6075 1525 
Q 6056 1344 6075 1163 
Q 5744 1175 5406 1175 
L 4038 1175 
L 4981 456 
L 6131 -488 
L 5819 -856 
L 4681 75 
L 3638 875 
Q 3313 231 2475 -231 
Q 1638 -694 700 -825 
Q 638 -519 344 -400 
Q 1450 -319 2406 244 
Q 3113 656 3300 1175 
L 1025 1175 
z
M 2263 1581 
Q 1763 2081 1200 2513 
L 1494 2894 
Q 2081 2444 2600 1919 
L 2263 1581 
z
M 2638 2500 
Q 2219 2963 1731 3363 
L 2044 3738 
Q 2556 3313 3000 2819 
L 2638 2500 
z
M 919 3156 
L 481 3156 
L 481 4344 
L 3069 4344 
Q 2794 4731 2469 5081 
L 2825 5413 
Q 3256 4944 3613 4413 
L 3513 4344 
L 5869 4344 
L 5869 3156 
L 5425 3156 
L 5425 4013 
L 919 4013 
L 919 3156 
z
" transform="scale(0.015625)"/>
       <path id="WenQuanYiZenHei-9645" d="M 6000 431 
L 5569 194 
L 4963 1219 
L 4313 2219 
L 4719 2494 
L 5375 1481 
L 6000 431 
z
M 2956 2450 
Q 3181 2344 3419 2294 
Q 3006 1038 1944 -188 
Q 1794 -6 1569 56 
Q 2069 600 2372 1156 
Q 2675 1713 2956 2450 
z
M 3750 25 
L 3750 2913 
L 2819 2913 
Q 2475 2913 2125 2894 
Q 2144 3081 2125 3269 
Q 2475 3256 2819 3256 
L 5469 3256 
Q 5819 3256 6163 3269 
Q 6144 3081 6163 2894 
Q 5813 2913 5469 2913 
L 4194 2913 
L 4194 -144 
Q 4194 -725 3456 -813 
L 3263 -825 
Q 3325 -506 3125 -250 
Q 3250 -281 3394 -306 
Q 3663 -313 3706 -272 
Q 3750 -231 3750 25 
z
M 5544 4950 
Q 5525 4756 5544 4569 
Q 5194 4588 4844 4588 
L 3325 4588 
Q 2975 4588 2625 4569 
Q 2644 4756 2625 4950 
Q 2975 4931 3325 4931 
L 4844 4931 
Q 5194 4931 5544 4950 
z
M 819 -850 
Q 581 -825 344 -850 
Q 369 -419 369 19 
L 363 4938 
L 2256 4938 
L 2256 4625 
Q 2150 4513 2075 4375 
L 1481 3238 
Q 2181 2319 2181 1156 
Q 2144 400 1569 163 
L 1406 88 
Q 1288 300 1138 481 
Q 1294 538 1450 606 
Q 1763 744 1794 1156 
Q 1794 1744 1600 2300 
Q 1406 2856 1038 3313 
L 1725 4625 
L 788 4625 
L 794 19 
Q 794 -419 819 -850 
z
" transform="scale(0.015625)"/>
       <path id="WenQuanYiZenHei-503c" d="M 6175 -219 
Q 6156 -388 6175 -556 
Q 5863 -544 5550 -544 
L 2313 -544 
Q 2000 -544 1688 -556 
Q 1706 -388 1688 -219 
L 2506 -231 
L 2506 3469 
L 3644 3469 
L 3644 4119 
L 2638 4119 
Q 2325 4119 2013 4100 
Q 2031 4269 2013 4438 
Q 2325 4425 2638 4425 
L 3638 4425 
Q 3638 4719 3619 5013 
Q 3856 4988 4094 5013 
Q 4075 4719 4075 4425 
L 5344 4425 
Q 5650 4425 5963 4438 
Q 5950 4269 5963 4100 
Q 5656 4119 5344 4119 
L 4069 4119 
L 4069 3469 
L 5300 3469 
L 5300 -231 
L 5550 -231 
Q 5863 -231 6175 -219 
z
M 4869 2556 
L 4869 3156 
L 2931 3156 
Q 2931 2850 2931 2556 
L 4869 2556 
z
M 4869 1669 
L 4869 2250 
L 2931 2250 
L 2931 1669 
L 4869 1669 
z
M 4869 731 
L 4869 1363 
L 2931 1363 
L 2931 731 
L 4869 731 
z
M 4869 -231 
L 4869 425 
L 2931 425 
L 2931 -231 
L 4869 -231 
z
M 2106 4925 
Q 1856 4075 1463 3338 
L 1463 31 
Q 1463 -413 1481 -850 
Q 1256 -825 1031 -850 
Q 1050 -413 1050 31 
L 1050 2681 
Q 750 2269 375 1931 
Q 238 2156 0 2256 
Q 331 2544 619 2875 
Q 1094 3425 1300 3950 
Q 1494 4469 1625 5050 
Q 1850 4963 2106 4925 
z
" transform="scale(0.015625)"/>
      </defs>
      <use xlink:href="#WenQuanYiZenHei-5b9e"/>
      <use xlink:href="#WenQuanYiZenHei-9645" x="100"/>
      <use xlink:href="#WenQuanYiZenHei-503c" x="200"/>
     </g>
    </g>
    <g id="line2d_25">
     <path d="M 47.1875 63.292875 
L 57.1875 63.292875 
L 67.1875 63.292875 
" style="fill: none; stroke: #ffa500; stroke-width: 1.5; stroke-linecap: square"/>
    </g>
    <g id="text_23">
     <!-- 校验值 -->
     <g transform="translate(75.1875 66.792875)scale(0.1 -0.1)">
      <defs>
       <path id="WenQuanYiZenHei-6821" d="M 5256 2463 
Q 5025 1475 4494 706 
Q 5125 -94 6175 -544 
Q 5950 -663 5850 -900 
Q 4906 -494 4250 381 
Q 3931 0 3475 -350 
Q 3019 -700 2388 -919 
Q 2338 -656 2138 -475 
Q 3306 -69 4006 738 
Q 3563 1444 3300 2331 
Q 3050 2050 2706 1800 
Q 2606 2000 2406 2106 
Q 2900 2444 3181 2938 
Q 3350 3225 3488 3538 
Q 3700 3431 3925 3369 
Q 3763 2894 3425 2475 
L 3650 2531 
Q 3888 1675 4244 1075 
Q 4469 1444 4603 1937 
Q 4738 2431 4775 2688 
Q 4963 2644 5150 2625 
Q 4919 2969 4663 3294 
L 5038 3588 
Q 5544 2925 5975 2213 
L 5569 1969 
L 5256 2463 
z
M 6006 4050 
Q 5988 3881 6006 3713 
Q 5694 3725 5381 3725 
L 3413 3725 
Q 3100 3725 2788 3713 
Q 2806 3881 2788 4050 
Q 3100 4031 3413 4031 
L 4325 4031 
Q 4019 4525 3644 4969 
L 4000 5275 
Q 4413 4788 4750 4244 
L 4406 4031 
L 5381 4031 
Q 5694 4031 6006 4050 
z
M 406 263 
Q 238 431 -25 469 
Q 194 825 466 1337 
Q 738 1850 925 2406 
Q 1113 2963 1256 3519 
L 825 3519 
Q 506 3519 188 3500 
Q 206 3700 188 3900 
Q 506 3881 825 3881 
L 1363 3881 
L 1363 4263 
Q 1363 4719 1338 5175 
Q 1556 5150 1775 5175 
Q 1756 4719 1756 4263 
L 1756 3881 
L 2525 3900 
Q 2506 3700 2525 3500 
L 1756 3519 
L 1756 2738 
L 1931 2881 
Q 2306 2300 2613 1650 
L 2231 1413 
Q 2081 1725 1919 2019 
L 1756 2300 
L 1756 69 
Q 1756 -388 1775 -850 
Q 1556 -825 1338 -850 
Q 1363 -388 1363 69 
L 1363 2438 
Q 925 1144 406 263 
z
" transform="scale(0.015625)"/>
       <path id="WenQuanYiZenHei-9a8c" d="M 5981 -106 
Q 5963 -275 5981 -444 
Q 5669 -431 5356 -431 
L 2969 -431 
Q 2656 -431 2350 -444 
Q 2363 -275 2350 -106 
Q 2656 -125 2969 -125 
L 4369 -125 
Q 4600 431 4881 1288 
L 5206 2300 
Q 5425 2206 5663 2163 
Q 5375 1188 4831 -125 
L 5356 -125 
Q 5669 -125 5981 -106 
z
M 4063 594 
Q 3788 1425 3425 2219 
L 3856 2419 
Q 4225 1600 4513 744 
L 4063 594 
z
M 3163 363 
Q 2931 1200 2613 2006 
L 3056 2175 
Q 3381 1350 3619 488 
L 3163 363 
z
M 4581 2550 
L 3513 2550 
Q 3200 2550 2888 2538 
Q 2900 2663 2894 2769 
Q 2569 2488 2206 2300 
Q 2113 2550 1894 2700 
Q 2488 2975 2975 3463 
Q 3269 3756 3394 4006 
Q 3644 4513 3794 5063 
Q 4038 4975 4294 4931 
Q 4250 4806 4206 4681 
Q 4475 3888 5025 3388 
Q 5519 2938 6169 2650 
Q 5938 2538 5838 2300 
Q 5513 2456 5200 2700 
Q 5200 2619 5206 2538 
Q 4894 2550 4581 2550 
z
M 3513 2863 
L 4994 2869 
Q 4344 3438 3988 4194 
Q 3594 3406 3013 2869 
Q 3263 2863 3513 2863 
z
M 206 444 
Q 188 756 44 963 
Q 319 956 650 1003 
Q 981 1050 1731 1281 
L 1738 1006 
Q 800 719 206 444 
z
M 525 4000 
Q 744 3950 994 3944 
Q 925 3519 875 3081 
L 763 2144 
L 1475 2144 
L 1831 4444 
L 663 4444 
Q 350 4444 38 4431 
Q 56 4600 38 4769 
Q 350 4756 663 4756 
L 2313 4756 
L 1913 2144 
L 2375 2144 
L 2200 -200 
Q 2188 -425 1988 -588 
Q 1694 -800 1181 -788 
L 944 -788 
Q 1000 -450 788 -269 
Q 1013 -294 1334 -287 
Q 1656 -281 1715 -243 
Q 1775 -206 1781 -50 
L 1925 1831 
L 294 1831 
L 444 3131 
Q 500 3569 525 4000 
z
" transform="scale(0.015625)"/>
      </defs>
      <use xlink:href="#WenQuanYiZenHei-6821"/>
      <use xlink:href="#WenQuanYiZenHei-9a8c" x="100"/>
      <use xlink:href="#WenQuanYiZenHei-503c" x="200"/>
     </g>
    </g>
    <g id="line2d_26">
     <path d="M 47.1875 77.81475 
L 57.1875 77.81475 
L 67.1875 77.81475 
" style="fill: none; stroke: #ff0000; stroke-width: 1.5; stroke-linecap: square"/>
    </g>
    <g id="text_24">
     <!-- 预测值 -->
     <g transform="translate(75.1875 81.31475)scale(0.1 -0.1)">
      <use xlink:href="#WenQuanYiZenHei-9884"/>
      <use xlink:href="#WenQuanYiZenHei-6d4b" x="100"/>
      <use xlink:href="#WenQuanYiZenHei-503c" x="200"/>
     </g>
    </g>
   </g>
  </g>
 </g>
 <defs>
  <clipPath id="pf0b5d6c530">
   <rect x="38.1875" y="34.980375" width="1339.2" height="332.64"/>
  </clipPath>
 </defs>
</svg>
