<?xml version="1.0" encoding="utf-8" standalone="no"?>
<!DOCTYPE svg PUBLIC "-//W3C//DTD SVG 1.1//EN"
  "http://www.w3.org/Graphics/SVG/1.1/DTD/svg11.dtd">
<svg xmlns:xlink="http://www.w3.org/1999/xlink" width="1372.59375pt" height="390.418188pt" viewBox="0 0 1372.59375 390.418188" xmlns="http://www.w3.org/2000/svg" version="1.1">
 <metadata>
  <rdf:RDF xmlns:dc="http://purl.org/dc/elements/1.1/" xmlns:cc="http://creativecommons.org/ns#" xmlns:rdf="http://www.w3.org/1999/02/22-rdf-syntax-ns#">
   <cc:Work>
    <dc:type rdf:resource="http://purl.org/dc/dcmitype/StillImage"/>
    <dc:date>2022-07-03T18:19:39.788645</dc:date>
    <dc:format>image/svg+xml</dc:format>
    <dc:creator>
     <cc:Agent>
      <dc:title>Matplotlib v3.5.2, https://matplotlib.org/</dc:title>
     </cc:Agent>
    </dc:creator>
   </cc:Work>
  </rdf:RDF>
 </metadata>
 <defs>
  <style type="text/css">*{stroke-linejoin: round; stroke-linecap: butt}</style>
 </defs>
 <g id="figure_1">
  <g id="patch_1">
   <path d="M 0 390.418188 
L 1372.59375 390.418188 
L 1372.59375 -0 
L 0 -0 
z
" style="fill: #ffffff"/>
  </g>
  <g id="axes_1">
   <g id="patch_2">
    <path d="M 26.19375 367.701 
L 1365.39375 367.701 
L 1365.39375 35.061 
L 26.19375 35.061 
z
" style="fill: #ffffff"/>
   </g>
   <g id="matplotlib.axis_1">
    <g id="xtick_1">
     <g id="line2d_1">
      <defs>
       <path id="ma4de32f6de" d="M 0 0 
L 0 3.5 
" style="stroke: #000000; stroke-width: 0.8"/>
      </defs>
      <g>
       <use xlink:href="#ma4de32f6de" x="57.438159" y="367.701" style="stroke: #000000; stroke-width: 0.8"/>
      </g>
     </g>
     <g id="text_1">
      <!-- 2020-01 -->
      <g transform="translate(37.948315 381.55725)scale(0.1 -0.1)">
       <defs>
        <path id="WenQuanYiZenHei-32" d="M 3488 0 
L 369 0 
L 369 456 
L 2150 1850 
Q 2931 2463 2931 3144 
Q 2931 3619 2488 3863 
Q 2231 4013 1931 4013 
Q 1425 4013 1113 3619 
Q 894 3356 881 3013 
L 369 3169 
Q 531 3981 1213 4300 
Q 1544 4456 1950 4456 
Q 2631 4456 3088 4044 
L 3225 3888 
L 3350 3706 
Q 3481 3444 3481 3144 
Q 3481 2313 2519 1569 
L 1069 456 
L 3488 456 
L 3488 0 
z
" transform="scale(0.015625)"/>
        <path id="WenQuanYiZenHei-30" d="M 3581 2175 
Q 3581 1288 3169 638 
Q 2713 -63 1938 -63 
Q 1025 -63 563 831 
Q 256 1425 256 2188 
Q 256 3188 700 3819 
Q 1138 4456 1888 4456 
Q 2863 4456 3306 3500 
Q 3581 2925 3581 2175 
z
M 3019 2100 
Q 3019 3356 2500 3806 
L 2350 3919 
Q 2144 4031 1888 4031 
Q 1100 4031 888 2956 
Q 819 2625 819 2225 
Q 819 1013 1338 569 
Q 1588 356 1938 356 
Q 2675 356 2925 1294 
Q 3019 1663 3019 2100 
z
" transform="scale(0.015625)"/>
        <path id="WenQuanYiZenHei-2d" d="M 1363 1444 
L 0 1444 
L 0 1844 
L 1363 1844 
L 1363 1444 
z
" transform="scale(0.015625)"/>
        <path id="WenQuanYiZenHei-31" d="M 3556 0 
L 488 0 
L 488 406 
L 1800 406 
L 1800 3725 
Q 1231 3125 588 2788 
L 588 3338 
Q 1456 3781 1931 4388 
L 2331 4388 
L 2331 406 
L 3556 406 
L 3556 0 
z
" transform="scale(0.015625)"/>
       </defs>
       <use xlink:href="#WenQuanYiZenHei-32"/>
       <use xlink:href="#WenQuanYiZenHei-30" x="59.960938"/>
       <use xlink:href="#WenQuanYiZenHei-32" x="119.921875"/>
       <use xlink:href="#WenQuanYiZenHei-30" x="179.882812"/>
       <use xlink:href="#WenQuanYiZenHei-2d" x="239.84375"/>
       <use xlink:href="#WenQuanYiZenHei-30" x="269.824219"/>
       <use xlink:href="#WenQuanYiZenHei-31" x="329.785156"/>
      </g>
     </g>
    </g>
    <g id="xtick_2">
     <g id="line2d_2">
      <g>
       <use xlink:href="#ma4de32f6de" x="179.991658" y="367.701" style="stroke: #000000; stroke-width: 0.8"/>
      </g>
     </g>
     <g id="text_2">
      <!-- 2020-04 -->
      <g transform="translate(160.501815 381.55725)scale(0.1 -0.1)">
       <defs>
        <path id="WenQuanYiZenHei-34" d="M 3631 1025 
L 2913 1025 
L 2913 0 
L 2381 0 
L 2381 1025 
L 219 1025 
L 219 1388 
L 2225 4388 
L 2913 4388 
L 2913 1444 
L 3631 1444 
L 3631 1025 
z
M 2381 1444 
L 2381 3963 
L 788 1444 
L 2381 1444 
z
" transform="scale(0.015625)"/>
       </defs>
       <use xlink:href="#WenQuanYiZenHei-32"/>
       <use xlink:href="#WenQuanYiZenHei-30" x="59.960938"/>
       <use xlink:href="#WenQuanYiZenHei-32" x="119.921875"/>
       <use xlink:href="#WenQuanYiZenHei-30" x="179.882812"/>
       <use xlink:href="#WenQuanYiZenHei-2d" x="239.84375"/>
       <use xlink:href="#WenQuanYiZenHei-30" x="269.824219"/>
       <use xlink:href="#WenQuanYiZenHei-34" x="329.785156"/>
      </g>
     </g>
    </g>
    <g id="xtick_3">
     <g id="line2d_3">
      <g>
       <use xlink:href="#ma4de32f6de" x="302.545158" y="367.701" style="stroke: #000000; stroke-width: 0.8"/>
      </g>
     </g>
     <g id="text_3">
      <!-- 2020-07 -->
      <g transform="translate(283.055314 381.55725)scale(0.1 -0.1)">
       <defs>
        <path id="WenQuanYiZenHei-37" d="M 3400 4056 
Q 1838 2175 1838 0 
L 1275 0 
Q 1269 1438 2056 2825 
Q 2381 3400 2825 3913 
L 444 3913 
L 500 4388 
L 3400 4388 
L 3400 4056 
z
" transform="scale(0.015625)"/>
       </defs>
       <use xlink:href="#WenQuanYiZenHei-32"/>
       <use xlink:href="#WenQuanYiZenHei-30" x="59.960938"/>
       <use xlink:href="#WenQuanYiZenHei-32" x="119.921875"/>
       <use xlink:href="#WenQuanYiZenHei-30" x="179.882812"/>
       <use xlink:href="#WenQuanYiZenHei-2d" x="239.84375"/>
       <use xlink:href="#WenQuanYiZenHei-30" x="269.824219"/>
       <use xlink:href="#WenQuanYiZenHei-37" x="329.785156"/>
      </g>
     </g>
    </g>
    <g id="xtick_4">
     <g id="line2d_4">
      <g>
       <use xlink:href="#ma4de32f6de" x="426.445399" y="367.701" style="stroke: #000000; stroke-width: 0.8"/>
      </g>
     </g>
     <g id="text_4">
      <!-- 2020-10 -->
      <g transform="translate(406.955555 381.55725)scale(0.1 -0.1)">
       <use xlink:href="#WenQuanYiZenHei-32"/>
       <use xlink:href="#WenQuanYiZenHei-30" x="59.960938"/>
       <use xlink:href="#WenQuanYiZenHei-32" x="119.921875"/>
       <use xlink:href="#WenQuanYiZenHei-30" x="179.882812"/>
       <use xlink:href="#WenQuanYiZenHei-2d" x="239.84375"/>
       <use xlink:href="#WenQuanYiZenHei-31" x="269.824219"/>
       <use xlink:href="#WenQuanYiZenHei-30" x="329.785156"/>
      </g>
     </g>
    </g>
    <g id="xtick_5">
     <g id="line2d_5">
      <g>
       <use xlink:href="#ma4de32f6de" x="550.345641" y="367.701" style="stroke: #000000; stroke-width: 0.8"/>
      </g>
     </g>
     <g id="text_5">
      <!-- 2021-01 -->
      <g transform="translate(530.855797 381.55725)scale(0.1 -0.1)">
       <use xlink:href="#WenQuanYiZenHei-32"/>
       <use xlink:href="#WenQuanYiZenHei-30" x="59.960938"/>
       <use xlink:href="#WenQuanYiZenHei-32" x="119.921875"/>
       <use xlink:href="#WenQuanYiZenHei-31" x="179.882812"/>
       <use xlink:href="#WenQuanYiZenHei-2d" x="239.84375"/>
       <use xlink:href="#WenQuanYiZenHei-30" x="269.824219"/>
       <use xlink:href="#WenQuanYiZenHei-31" x="329.785156"/>
      </g>
     </g>
    </g>
    <g id="xtick_6">
     <g id="line2d_6">
      <g>
       <use xlink:href="#ma4de32f6de" x="671.552398" y="367.701" style="stroke: #000000; stroke-width: 0.8"/>
      </g>
     </g>
     <g id="text_6">
      <!-- 2021-04 -->
      <g transform="translate(652.062555 381.55725)scale(0.1 -0.1)">
       <use xlink:href="#WenQuanYiZenHei-32"/>
       <use xlink:href="#WenQuanYiZenHei-30" x="59.960938"/>
       <use xlink:href="#WenQuanYiZenHei-32" x="119.921875"/>
       <use xlink:href="#WenQuanYiZenHei-31" x="179.882812"/>
       <use xlink:href="#WenQuanYiZenHei-2d" x="239.84375"/>
       <use xlink:href="#WenQuanYiZenHei-30" x="269.824219"/>
       <use xlink:href="#WenQuanYiZenHei-34" x="329.785156"/>
      </g>
     </g>
    </g>
    <g id="xtick_7">
     <g id="line2d_7">
      <g>
       <use xlink:href="#ma4de32f6de" x="794.105898" y="367.701" style="stroke: #000000; stroke-width: 0.8"/>
      </g>
     </g>
     <g id="text_7">
      <!-- 2021-07 -->
      <g transform="translate(774.616054 381.55725)scale(0.1 -0.1)">
       <use xlink:href="#WenQuanYiZenHei-32"/>
       <use xlink:href="#WenQuanYiZenHei-30" x="59.960938"/>
       <use xlink:href="#WenQuanYiZenHei-32" x="119.921875"/>
       <use xlink:href="#WenQuanYiZenHei-31" x="179.882812"/>
       <use xlink:href="#WenQuanYiZenHei-2d" x="239.84375"/>
       <use xlink:href="#WenQuanYiZenHei-30" x="269.824219"/>
       <use xlink:href="#WenQuanYiZenHei-37" x="329.785156"/>
      </g>
     </g>
    </g>
    <g id="xtick_8">
     <g id="line2d_8">
      <g>
       <use xlink:href="#ma4de32f6de" x="918.006139" y="367.701" style="stroke: #000000; stroke-width: 0.8"/>
      </g>
     </g>
     <g id="text_8">
      <!-- 2021-10 -->
      <g transform="translate(898.516296 381.55725)scale(0.1 -0.1)">
       <use xlink:href="#WenQuanYiZenHei-32"/>
       <use xlink:href="#WenQuanYiZenHei-30" x="59.960938"/>
       <use xlink:href="#WenQuanYiZenHei-32" x="119.921875"/>
       <use xlink:href="#WenQuanYiZenHei-31" x="179.882812"/>
       <use xlink:href="#WenQuanYiZenHei-2d" x="239.84375"/>
       <use xlink:href="#WenQuanYiZenHei-31" x="269.824219"/>
       <use xlink:href="#WenQuanYiZenHei-30" x="329.785156"/>
      </g>
     </g>
    </g>
    <g id="xtick_9">
     <g id="line2d_9">
      <g>
       <use xlink:href="#ma4de32f6de" x="1041.906381" y="367.701" style="stroke: #000000; stroke-width: 0.8"/>
      </g>
     </g>
     <g id="text_9">
      <!-- 2022-01 -->
      <g transform="translate(1022.416537 381.55725)scale(0.1 -0.1)">
       <use xlink:href="#WenQuanYiZenHei-32"/>
       <use xlink:href="#WenQuanYiZenHei-30" x="59.960938"/>
       <use xlink:href="#WenQuanYiZenHei-32" x="119.921875"/>
       <use xlink:href="#WenQuanYiZenHei-32" x="179.882812"/>
       <use xlink:href="#WenQuanYiZenHei-2d" x="239.84375"/>
       <use xlink:href="#WenQuanYiZenHei-30" x="269.824219"/>
       <use xlink:href="#WenQuanYiZenHei-31" x="329.785156"/>
      </g>
     </g>
    </g>
    <g id="xtick_10">
     <g id="line2d_10">
      <g>
       <use xlink:href="#ma4de32f6de" x="1163.113139" y="367.701" style="stroke: #000000; stroke-width: 0.8"/>
      </g>
     </g>
     <g id="text_10">
      <!-- 2022-04 -->
      <g transform="translate(1143.623295 381.55725)scale(0.1 -0.1)">
       <use xlink:href="#WenQuanYiZenHei-32"/>
       <use xlink:href="#WenQuanYiZenHei-30" x="59.960938"/>
       <use xlink:href="#WenQuanYiZenHei-32" x="119.921875"/>
       <use xlink:href="#WenQuanYiZenHei-32" x="179.882812"/>
       <use xlink:href="#WenQuanYiZenHei-2d" x="239.84375"/>
       <use xlink:href="#WenQuanYiZenHei-30" x="269.824219"/>
       <use xlink:href="#WenQuanYiZenHei-34" x="329.785156"/>
      </g>
     </g>
    </g>
    <g id="xtick_11">
     <g id="line2d_11">
      <g>
       <use xlink:href="#ma4de32f6de" x="1285.666638" y="367.701" style="stroke: #000000; stroke-width: 0.8"/>
      </g>
     </g>
     <g id="text_11">
      <!-- 2022-07 -->
      <g transform="translate(1266.176794 381.55725)scale(0.1 -0.1)">
       <use xlink:href="#WenQuanYiZenHei-32"/>
       <use xlink:href="#WenQuanYiZenHei-30" x="59.960938"/>
       <use xlink:href="#WenQuanYiZenHei-32" x="119.921875"/>
       <use xlink:href="#WenQuanYiZenHei-32" x="179.882812"/>
       <use xlink:href="#WenQuanYiZenHei-2d" x="239.84375"/>
       <use xlink:href="#WenQuanYiZenHei-30" x="269.824219"/>
       <use xlink:href="#WenQuanYiZenHei-37" x="329.785156"/>
      </g>
     </g>
    </g>
   </g>
   <g id="matplotlib.axis_2">
    <g id="ytick_1">
     <g id="line2d_12">
      <defs>
       <path id="mb72b41176d" d="M 0 0 
L -3.5 0 
" style="stroke: #000000; stroke-width: 0.8"/>
      </defs>
      <g>
       <use xlink:href="#mb72b41176d" x="26.19375" y="352.581" style="stroke: #000000; stroke-width: 0.8"/>
      </g>
     </g>
     <g id="text_12">
      <!-- 0 -->
      <g transform="translate(13.196875 356.009125)scale(0.1 -0.1)">
       <use xlink:href="#WenQuanYiZenHei-30"/>
      </g>
     </g>
    </g>
    <g id="ytick_2">
     <g id="line2d_13">
      <g>
       <use xlink:href="#mb72b41176d" x="26.19375" y="314.781" style="stroke: #000000; stroke-width: 0.8"/>
      </g>
     </g>
     <g id="text_13">
      <!-- 10 -->
      <g transform="translate(7.2 318.209125)scale(0.1 -0.1)">
       <use xlink:href="#WenQuanYiZenHei-31"/>
       <use xlink:href="#WenQuanYiZenHei-30" x="59.960938"/>
      </g>
     </g>
    </g>
    <g id="ytick_3">
     <g id="line2d_14">
      <g>
       <use xlink:href="#mb72b41176d" x="26.19375" y="276.981" style="stroke: #000000; stroke-width: 0.8"/>
      </g>
     </g>
     <g id="text_14">
      <!-- 20 -->
      <g transform="translate(7.2 280.409125)scale(0.1 -0.1)">
       <use xlink:href="#WenQuanYiZenHei-32"/>
       <use xlink:href="#WenQuanYiZenHei-30" x="59.960938"/>
      </g>
     </g>
    </g>
    <g id="ytick_4">
     <g id="line2d_15">
      <g>
       <use xlink:href="#mb72b41176d" x="26.19375" y="239.181" style="stroke: #000000; stroke-width: 0.8"/>
      </g>
     </g>
     <g id="text_15">
      <!-- 30 -->
      <g transform="translate(7.2 242.609125)scale(0.1 -0.1)">
       <defs>
        <path id="WenQuanYiZenHei-33" d="M 3588 1231 
Q 3588 494 2875 144 
Q 2450 -63 1925 -63 
Q 1044 -63 556 488 
Q 356 706 256 1000 
L 769 1169 
Q 994 375 1913 375 
Q 2631 375 2900 788 
Q 3019 975 3019 1231 
Q 3019 1638 2638 1881 
Q 2325 2081 1613 2069 
L 1338 2069 
L 1338 2494 
Q 1969 2494 2094 2506 
Q 2325 2544 2463 2613 
Q 2763 2756 2844 3100 
Q 2863 3169 2863 3244 
Q 2863 3744 2381 3944 
L 2163 4006 
Q 2056 4025 1931 4025 
Q 1388 4025 1075 3631 
Q 969 3488 906 3313 
L 419 3456 
Q 675 4150 1400 4369 
Q 1669 4456 1975 4456 
Q 2694 4456 3106 4050 
Q 3419 3744 3419 3275 
Q 3419 2813 3025 2513 
Q 2825 2356 2575 2319 
L 2575 2306 
Q 3181 2213 3450 1769 
Q 3588 1525 3588 1231 
z
" transform="scale(0.015625)"/>
       </defs>
       <use xlink:href="#WenQuanYiZenHei-33"/>
       <use xlink:href="#WenQuanYiZenHei-30" x="59.960938"/>
      </g>
     </g>
    </g>
    <g id="ytick_5">
     <g id="line2d_16">
      <g>
       <use xlink:href="#mb72b41176d" x="26.19375" y="201.381" style="stroke: #000000; stroke-width: 0.8"/>
      </g>
     </g>
     <g id="text_16">
      <!-- 40 -->
      <g transform="translate(7.2 204.809125)scale(0.1 -0.1)">
       <use xlink:href="#WenQuanYiZenHei-34"/>
       <use xlink:href="#WenQuanYiZenHei-30" x="59.960938"/>
      </g>
     </g>
    </g>
    <g id="ytick_6">
     <g id="line2d_17">
      <g>
       <use xlink:href="#mb72b41176d" x="26.19375" y="163.581" style="stroke: #000000; stroke-width: 0.8"/>
      </g>
     </g>
     <g id="text_17">
      <!-- 50 -->
      <g transform="translate(7.2 167.009125)scale(0.1 -0.1)">
       <defs>
        <path id="WenQuanYiZenHei-35" d="M 3531 1488 
Q 3531 688 2913 250 
Q 2456 -63 1844 -63 
Q 1175 -63 706 350 
Q 413 613 306 975 
L 781 1131 
Q 1000 538 1569 406 
Q 1706 369 1856 369 
Q 2550 369 2850 869 
Q 3000 1131 3000 1494 
Q 3000 2056 2581 2356 
Q 2319 2538 1969 2538 
Q 1400 2538 1031 2075 
Q 981 2013 938 1938 
L 500 2031 
L 644 4388 
L 3244 4388 
L 3200 3919 
L 1044 3919 
L 950 2500 
Q 1431 2975 2006 2975 
Q 2713 2975 3163 2475 
Q 3531 2063 3531 1488 
z
" transform="scale(0.015625)"/>
       </defs>
       <use xlink:href="#WenQuanYiZenHei-35"/>
       <use xlink:href="#WenQuanYiZenHei-30" x="59.960938"/>
      </g>
     </g>
    </g>
    <g id="ytick_7">
     <g id="line2d_18">
      <g>
       <use xlink:href="#mb72b41176d" x="26.19375" y="125.781" style="stroke: #000000; stroke-width: 0.8"/>
      </g>
     </g>
     <g id="text_18">
      <!-- 60 -->
      <g transform="translate(7.2 129.209125)scale(0.1 -0.1)">
       <defs>
        <path id="WenQuanYiZenHei-36" d="M 3550 1431 
Q 3550 725 3006 288 
Q 2581 -63 1994 -63 
Q 1013 -63 563 825 
Q 288 1363 288 2081 
Q 288 3294 856 3938 
Q 1319 4456 2075 4456 
Q 2969 4456 3363 3756 
Q 3431 3631 3481 3481 
L 2988 3350 
Q 2750 3994 2075 4006 
Q 1056 4006 844 2669 
Q 794 2356 794 1981 
L 806 1981 
Q 1006 2506 1544 2744 
Q 1819 2869 2119 2869 
Q 2788 2869 3213 2375 
Q 3550 1975 3550 1431 
z
M 3038 1406 
Q 3038 1906 2656 2213 
Q 2381 2431 2038 2431 
Q 1525 2431 1181 2044 
Q 919 1744 919 1356 
Q 919 881 1344 581 
Q 1631 375 1981 375 
Q 2519 375 2838 781 
Q 3038 1050 3038 1406 
z
" transform="scale(0.015625)"/>
       </defs>
       <use xlink:href="#WenQuanYiZenHei-36"/>
       <use xlink:href="#WenQuanYiZenHei-30" x="59.960938"/>
      </g>
     </g>
    </g>
    <g id="ytick_8">
     <g id="line2d_19">
      <g>
       <use xlink:href="#mb72b41176d" x="26.19375" y="87.981" style="stroke: #000000; stroke-width: 0.8"/>
      </g>
     </g>
     <g id="text_19">
      <!-- 70 -->
      <g transform="translate(7.2 91.409125)scale(0.1 -0.1)">
       <use xlink:href="#WenQuanYiZenHei-37"/>
       <use xlink:href="#WenQuanYiZenHei-30" x="59.960938"/>
      </g>
     </g>
    </g>
    <g id="ytick_9">
     <g id="line2d_20">
      <g>
       <use xlink:href="#mb72b41176d" x="26.19375" y="50.181" style="stroke: #000000; stroke-width: 0.8"/>
      </g>
     </g>
     <g id="text_20">
      <!-- 80 -->
      <g transform="translate(7.2 53.609125)scale(0.1 -0.1)">
       <defs>
        <path id="WenQuanYiZenHei-38" d="M 3619 1175 
Q 3619 431 2850 100 
Q 2444 -63 1944 -63 
Q 1231 -63 725 269 
Q 225 594 225 1125 
Q 225 1881 1269 2281 
Q 719 2481 519 2938 
Q 444 3119 444 3319 
Q 444 4000 1144 4294 
Q 1519 4456 1963 4456 
Q 2669 4456 3094 4094 
Q 3425 3813 3425 3369 
Q 3425 2638 2575 2356 
Q 3231 2056 3450 1725 
Q 3619 1488 3619 1175 
z
M 2944 3344 
Q 2944 3906 2288 4019 
Q 2138 4044 1969 4044 
Q 1438 4044 1163 3775 
Q 1000 3613 1000 3375 
Q 1000 2925 1594 2663 
Q 1756 2588 1931 2550 
Q 2581 2725 2788 2956 
Q 2944 3125 2944 3344 
z
M 3075 1094 
Q 3075 1738 1875 2050 
Q 1094 1881 850 1463 
Q 763 1313 763 1131 
Q 763 569 1456 406 
Q 1681 344 1944 344 
Q 2519 344 2850 619 
Q 3075 813 3075 1094 
z
" transform="scale(0.015625)"/>
       </defs>
       <use xlink:href="#WenQuanYiZenHei-38"/>
       <use xlink:href="#WenQuanYiZenHei-30" x="59.960938"/>
      </g>
     </g>
    </g>
   </g>
   <g id="line2d_21">
    <path d="M 87.066477 352.581 
L 88.413219 337.461 
L 89.759961 345.021 
L 91.106703 337.461 
L 92.453444 318.561 
L 93.800186 348.801 
L 95.146928 341.241 
L 96.49367 337.461 
L 97.840411 348.801 
L 99.187153 318.561 
L 100.533895 326.121 
L 101.880637 307.221 
L 104.57412 345.021 
L 105.920862 314.781 
L 107.267604 345.021 
L 108.614345 326.121 
L 109.961087 341.241 
L 111.307829 337.461 
L 112.654571 311.001 
L 114.001312 329.901 
L 115.348054 326.121 
L 116.694796 348.801 
L 118.041538 345.021 
L 119.388279 345.021 
L 120.735021 348.801 
L 122.081763 341.241 
L 124.775246 348.801 
L 126.121988 348.801 
L 127.46873 341.241 
L 128.815472 352.581 
L 132.855697 352.581 
L 134.202439 348.801 
L 135.54918 352.581 
L 161.137274 352.581 
L 162.484015 348.801 
L 163.830757 352.581 
L 166.524241 352.581 
L 167.870983 337.461 
L 169.217724 337.461 
L 170.564466 352.581 
L 171.911208 329.901 
L 173.25795 337.461 
L 174.604691 329.901 
L 175.951433 333.681 
L 177.298175 322.341 
L 178.644917 352.581 
L 179.991658 345.021 
L 181.3384 352.581 
L 182.685142 337.461 
L 184.031884 352.581 
L 189.418851 352.581 
L 190.765592 345.021 
L 193.459076 352.581 
L 194.805818 352.581 
L 196.152559 348.801 
L 197.499301 348.801 
L 198.846043 352.581 
L 200.192785 348.801 
L 201.539526 341.241 
L 202.886268 352.581 
L 209.619977 352.581 
L 210.966719 348.801 
L 212.31346 352.581 
L 228.474361 352.581 
L 229.821103 348.801 
L 231.167845 352.581 
L 239.248295 352.581 
L 240.595037 348.801 
L 241.941779 352.581 
L 267.529872 352.581 
L 268.876614 348.801 
L 270.223356 352.581 
L 271.570098 352.581 
L 272.916839 348.801 
L 274.263581 348.801 
L 275.610323 352.581 
L 276.957065 348.801 
L 278.303806 352.581 
L 282.344032 352.581 
L 283.690773 348.801 
L 285.037515 352.581 
L 289.07774 352.581 
L 290.424482 348.801 
L 291.771224 352.581 
L 305.238641 352.581 
L 306.585383 348.801 
L 307.932125 352.581 
L 314.665834 352.581 
L 316.012575 337.461 
L 317.359317 352.581 
L 333.520218 352.581 
L 334.86696 348.801 
L 336.213702 352.581 
L 340.253927 352.581 
L 341.600669 348.801 
L 342.94741 352.581 
L 361.801795 352.581 
L 363.148537 345.021 
L 364.495279 352.581 
L 365.84202 345.021 
L 367.188762 352.581 
L 368.535504 348.801 
L 369.882246 329.901 
L 371.228987 352.581 
L 372.575729 345.021 
L 373.922471 352.581 
L 375.269213 348.801 
L 376.615954 348.801 
L 377.962696 352.581 
L 380.65618 352.581 
L 382.002921 348.801 
L 383.349663 333.681 
L 384.696405 341.241 
L 386.043147 352.581 
L 387.389888 352.581 
L 388.73663 348.801 
L 390.083372 348.801 
L 391.430114 352.581 
L 392.776855 348.801 
L 394.123597 348.801 
L 395.470339 352.581 
L 399.510564 352.581 
L 400.857306 348.801 
L 402.204048 352.581 
L 406.244273 352.581 
L 407.591015 341.241 
L 408.937756 352.581 
L 411.63124 352.581 
L 412.977982 348.801 
L 414.324723 348.801 
L 415.671465 352.581 
L 417.018207 352.581 
L 418.364949 348.801 
L 419.71169 352.581 
L 427.792141 352.581 
L 429.138883 348.801 
L 430.485624 352.581 
L 431.832366 348.801 
L 433.179108 352.581 
L 435.872592 352.581 
L 437.219333 345.021 
L 438.566075 352.581 
L 439.912817 348.801 
L 441.259559 352.581 
L 443.953042 352.581 
L 446.646526 337.461 
L 447.993267 348.801 
L 449.340009 345.021 
L 450.686751 345.021 
L 452.033493 352.581 
L 454.726976 352.581 
L 456.073718 341.241 
L 457.42046 348.801 
L 458.767201 352.581 
L 460.113943 352.581 
L 462.807427 345.021 
L 464.154168 345.021 
L 465.50091 333.681 
L 466.847652 352.581 
L 469.541135 345.021 
L 470.887877 352.581 
L 472.234619 352.581 
L 473.581361 345.021 
L 474.928102 352.581 
L 476.274844 352.581 
L 477.621586 348.801 
L 478.968328 348.801 
L 480.315069 329.901 
L 481.661811 345.021 
L 483.008553 352.581 
L 484.355295 345.021 
L 485.702036 345.021 
L 487.048778 352.581 
L 488.39552 348.801 
L 489.742262 348.801 
L 491.089003 352.581 
L 492.435745 352.581 
L 493.782487 333.681 
L 495.129229 348.801 
L 497.822712 348.801 
L 499.169454 352.581 
L 501.862937 352.581 
L 503.209679 348.801 
L 504.556421 352.581 
L 512.636871 352.581 
L 513.983613 348.801 
L 515.330355 352.581 
L 520.717322 352.581 
L 522.064064 348.801 
L 523.410806 352.581 
L 526.104289 352.581 
L 527.451031 348.801 
L 528.797773 352.581 
L 530.144514 352.581 
L 531.491256 348.801 
L 532.837998 352.581 
L 542.26519 352.581 
L 543.611932 348.801 
L 544.958674 348.801 
L 546.305415 341.241 
L 547.652157 352.581 
L 548.998899 352.581 
L 550.345641 341.241 
L 551.692382 348.801 
L 555.732608 348.801 
L 557.079349 352.581 
L 559.772833 352.581 
L 561.119575 337.461 
L 562.466316 345.021 
L 563.813058 345.021 
L 565.1598 352.581 
L 567.853283 352.581 
L 569.200025 341.241 
L 570.546767 348.801 
L 571.893509 348.801 
L 573.24025 352.581 
L 574.586992 348.801 
L 575.933734 333.681 
L 577.280476 352.581 
L 578.627217 352.581 
L 581.320701 345.021 
L 582.667443 352.581 
L 584.014184 345.021 
L 585.360926 345.021 
L 588.05441 352.581 
L 589.401151 352.581 
L 590.747893 348.801 
L 592.094635 352.581 
L 594.788118 352.581 
L 596.13486 348.801 
L 597.481602 348.801 
L 598.828344 352.581 
L 601.521827 352.581 
L 602.868569 348.801 
L 604.215311 352.581 
L 605.562052 352.581 
L 606.908794 348.801 
L 608.255536 352.581 
L 609.602278 348.801 
L 610.94902 352.581 
L 613.642503 352.581 
L 614.989245 345.021 
L 616.335987 352.581 
L 617.682728 352.581 
L 619.02947 348.801 
L 620.376212 352.581 
L 621.722954 348.801 
L 623.069695 348.801 
L 624.416437 352.581 
L 625.763179 348.801 
L 627.109921 348.801 
L 628.456662 352.581 
L 629.803404 348.801 
L 631.150146 352.581 
L 632.496888 352.581 
L 633.843629 348.801 
L 635.190371 341.241 
L 636.537113 352.581 
L 643.270822 352.581 
L 644.617563 348.801 
L 645.964305 352.581 
L 647.311047 348.801 
L 648.657789 348.801 
L 650.00453 352.581 
L 651.351272 341.241 
L 652.698014 348.801 
L 654.044756 352.581 
L 655.391497 345.021 
L 656.738239 352.581 
L 658.084981 352.581 
L 659.431723 345.021 
L 660.778464 352.581 
L 663.471948 352.581 
L 664.81869 348.801 
L 666.165431 352.581 
L 672.89914 352.581 
L 674.245882 348.801 
L 675.592624 348.801 
L 676.939365 352.581 
L 682.326332 352.581 
L 683.673074 348.801 
L 685.019816 352.581 
L 686.366558 352.581 
L 687.713299 348.801 
L 689.060041 352.581 
L 690.406783 352.581 
L 691.753525 345.021 
L 693.100266 352.581 
L 694.447008 348.801 
L 695.79375 352.581 
L 697.140492 345.021 
L 699.833975 352.581 
L 701.180717 352.581 
L 702.527459 348.801 
L 703.874201 352.581 
L 705.220942 352.581 
L 706.567684 348.801 
L 707.914426 352.581 
L 714.648135 352.581 
L 715.994876 348.801 
L 717.341618 352.581 
L 718.68836 352.581 
L 720.035102 348.801 
L 721.381843 352.581 
L 725.422069 352.581 
L 726.76881 348.801 
L 728.115552 352.581 
L 734.849261 352.581 
L 736.196003 348.801 
L 737.542744 352.581 
L 738.889486 352.581 
L 740.236228 348.801 
L 741.58297 348.801 
L 742.929711 345.021 
L 744.276453 352.581 
L 757.743871 352.581 
L 759.090612 348.801 
L 760.437354 352.581 
L 761.784096 348.801 
L 763.130838 352.581 
L 765.824321 352.581 
L 768.517805 345.021 
L 769.864546 352.581 
L 773.904772 352.581 
L 775.251513 348.801 
L 776.598255 352.581 
L 783.331964 352.581 
L 784.678706 348.801 
L 786.025448 352.581 
L 787.372189 348.801 
L 788.718931 352.581 
L 795.45264 352.581 
L 796.799382 348.801 
L 798.146123 352.581 
L 799.492865 352.581 
L 800.839607 345.021 
L 802.186349 352.581 
L 803.53309 352.581 
L 804.879832 345.021 
L 806.226574 352.581 
L 807.573316 352.581 
L 808.920057 348.801 
L 810.266799 348.801 
L 811.613541 352.581 
L 812.960283 337.461 
L 814.307024 352.581 
L 817.000508 352.581 
L 818.34725 341.241 
L 819.693991 352.581 
L 821.040733 352.581 
L 822.387475 348.801 
L 825.080958 348.801 
L 826.4277 352.581 
L 827.774442 352.581 
L 829.121184 348.801 
L 830.467925 352.581 
L 831.814667 352.581 
L 833.161409 341.241 
L 834.508151 341.241 
L 835.854892 352.581 
L 837.201634 341.241 
L 838.548376 348.801 
L 839.895118 352.581 
L 841.241859 348.801 
L 842.588601 333.681 
L 843.935343 352.581 
L 846.628826 352.581 
L 847.975568 348.801 
L 849.32231 352.581 
L 850.669052 352.581 
L 852.015793 345.021 
L 853.362535 341.241 
L 854.709277 348.801 
L 856.056019 352.581 
L 857.40276 341.241 
L 858.749502 311.001 
L 860.096244 348.801 
L 862.789727 348.801 
L 864.136469 341.241 
L 865.483211 348.801 
L 869.523436 348.801 
L 870.870178 352.581 
L 872.21692 337.461 
L 873.563662 345.021 
L 874.910403 348.801 
L 876.257145 345.021 
L 877.603887 352.581 
L 878.950629 352.581 
L 881.644112 345.021 
L 882.990854 352.581 
L 889.724563 352.581 
L 891.071304 348.801 
L 892.418046 352.581 
L 893.764788 352.581 
L 895.11153 348.801 
L 896.458271 352.581 
L 899.151755 352.581 
L 900.498497 348.801 
L 901.845238 352.581 
L 904.538722 352.581 
L 905.885464 341.241 
L 907.232205 352.581 
L 908.578947 348.801 
L 909.925689 352.581 
L 911.272431 348.801 
L 912.619172 348.801 
L 913.965914 352.581 
L 916.659398 352.581 
L 918.006139 341.241 
L 919.352881 352.581 
L 924.739848 352.581 
L 926.08659 345.021 
L 927.433332 345.021 
L 928.780073 352.581 
L 931.473557 352.581 
L 932.820299 348.801 
L 934.16704 341.241 
L 935.513782 345.021 
L 936.860524 352.581 
L 944.940974 352.581 
L 946.287716 348.801 
L 947.634458 352.581 
L 948.9812 348.801 
L 950.327941 352.581 
L 951.674683 348.801 
L 953.021425 352.581 
L 955.714908 352.581 
L 957.06165 348.801 
L 958.408392 352.581 
L 959.755134 348.801 
L 961.101876 352.581 
L 962.448617 352.581 
L 963.795359 348.801 
L 965.142101 348.801 
L 966.488843 352.581 
L 967.835584 352.581 
L 969.182326 345.021 
L 970.529068 352.581 
L 971.87581 348.801 
L 973.222551 352.581 
L 974.569293 341.241 
L 975.916035 333.681 
L 977.262777 352.581 
L 978.609518 352.581 
L 979.95626 348.801 
L 981.303002 322.341 
L 982.649744 352.581 
L 983.996485 352.581 
L 985.343227 348.801 
L 986.689969 352.581 
L 990.730194 352.581 
L 992.076936 348.801 
L 993.423678 348.801 
L 994.770419 352.581 
L 996.117161 352.581 
L 997.463903 348.801 
L 998.810645 352.581 
L 1000.157386 348.801 
L 1001.504128 348.801 
L 1002.85087 352.581 
L 1004.197612 345.021 
L 1005.544353 352.581 
L 1006.891095 352.581 
L 1008.237837 348.801 
L 1009.584579 348.801 
L 1010.93132 352.581 
L 1020.358513 352.581 
L 1021.705254 345.021 
L 1023.051996 348.801 
L 1025.74548 348.801 
L 1027.092221 341.241 
L 1028.438963 352.581 
L 1029.785705 352.581 
L 1031.132447 318.561 
L 1032.479188 322.341 
L 1033.82593 345.021 
L 1035.172672 348.801 
L 1036.519414 326.121 
L 1037.866155 337.461 
L 1039.212897 337.461 
L 1040.559639 318.561 
L 1041.906381 333.681 
L 1043.253122 345.021 
L 1044.599864 348.801 
L 1045.946606 333.681 
L 1047.293348 337.461 
L 1048.64009 318.561 
L 1049.986831 329.901 
L 1051.333573 337.461 
L 1052.680315 258.081 
L 1054.027057 284.541 
L 1055.373798 212.721 
L 1056.72054 174.921 
L 1058.067282 212.721 
L 1059.414024 197.601 
L 1060.760765 224.061 
L 1062.107507 50.181 
L 1063.454249 284.541 
L 1064.800991 299.661 
L 1066.147732 299.661 
L 1067.494474 322.341 
L 1068.841216 329.901 
L 1070.187958 333.681 
L 1072.881441 348.801 
L 1074.228183 345.021 
L 1075.574925 348.801 
L 1076.921666 337.461 
L 1078.268408 329.901 
L 1079.61515 337.461 
L 1080.961892 311.001 
L 1082.308633 318.561 
L 1083.655375 307.221 
L 1085.002117 314.781 
L 1086.348859 337.461 
L 1090.389084 348.801 
L 1091.735826 345.021 
L 1094.429309 352.581 
L 1095.776051 348.801 
L 1098.469534 348.801 
L 1099.816276 352.581 
L 1101.163018 352.581 
L 1102.50976 348.801 
L 1103.856501 352.581 
L 1105.203243 352.581 
L 1106.549985 341.241 
L 1107.896727 348.801 
L 1109.243468 348.801 
L 1110.59021 352.581 
L 1111.936952 341.241 
L 1113.283694 348.801 
L 1114.630435 348.801 
L 1115.977177 329.901 
L 1117.323919 333.681 
L 1118.670661 318.561 
L 1120.017402 326.121 
L 1121.364144 337.461 
L 1122.710886 345.021 
L 1124.057628 337.461 
L 1125.404369 299.661 
L 1126.751111 348.801 
L 1128.097853 348.801 
L 1129.444595 329.901 
L 1130.791336 307.221 
L 1132.138078 280.761 
L 1133.48482 261.861 
L 1134.831562 212.721 
L 1136.178303 265.641 
L 1137.525045 182.481 
L 1138.871787 148.461 
L 1140.218529 152.241 
L 1142.912012 114.441 
L 1144.258754 242.961 
L 1145.605496 258.081 
L 1146.952238 269.421 
L 1148.298979 318.561 
L 1149.645721 246.741 
L 1150.992463 242.961 
L 1152.339205 258.081 
L 1153.685946 220.281 
L 1155.032688 288.321 
L 1156.37943 322.341 
L 1157.726172 326.121 
L 1159.072913 345.021 
L 1160.419655 337.461 
L 1161.766397 348.801 
L 1164.45988 348.801 
L 1165.806622 352.581 
L 1167.153364 341.241 
L 1168.500106 337.461 
L 1169.846847 352.581 
L 1171.193589 348.801 
L 1172.540331 352.581 
L 1173.887073 348.801 
L 1175.233814 352.581 
L 1176.580556 352.581 
L 1177.927298 348.801 
L 1179.27404 352.581 
L 1180.620781 348.801 
L 1181.967523 352.581 
L 1192.741457 352.581 
L 1194.088199 345.021 
L 1195.434941 352.581 
L 1196.781682 352.581 
L 1198.128424 348.801 
L 1199.475166 352.581 
L 1202.168649 352.581 
L 1203.515391 348.801 
L 1204.862133 352.581 
L 1222.369776 352.581 
L 1223.716517 326.121 
L 1225.063259 292.101 
L 1226.410001 322.341 
L 1227.756743 322.341 
L 1229.103485 329.901 
L 1230.450226 216.501 
L 1231.796968 231.621 
L 1233.14371 292.101 
L 1234.490452 326.121 
L 1235.837193 311.001 
L 1237.183935 326.121 
L 1238.530677 337.461 
L 1239.877419 326.121 
L 1241.22416 329.901 
L 1242.570902 352.581 
L 1249.304611 352.581 
L 1250.651353 345.021 
L 1253.344836 352.581 
L 1257.385061 352.581 
L 1261.425287 341.241 
L 1262.772028 348.801 
L 1264.11877 352.581 
L 1268.158995 352.581 
L 1269.505737 341.241 
L 1270.852479 348.801 
L 1272.199221 337.461 
L 1273.545962 352.581 
L 1274.892704 348.801 
L 1276.239446 348.801 
L 1277.586188 322.341 
L 1278.932929 333.681 
L 1280.279671 352.581 
L 1282.973155 352.581 
L 1284.319896 345.021 
L 1287.01338 352.581 
L 1287.01338 352.581 
" clip-path="url(#p5c049b290b)" style="fill: none; stroke: #0000ff; stroke-width: 1.5; stroke-linecap: square"/>
   </g>
   <g id="line2d_22">
    <path d="M 1047.293348 337.614131 
L 1048.64009 325.242051 
L 1049.986831 328.267322 
L 1051.333573 334.237203 
L 1052.680315 284.785456 
L 1054.027057 284.626719 
L 1055.373798 237.935008 
L 1056.72054 197.017096 
L 1058.067282 207.214368 
L 1059.414024 200.971963 
L 1060.760765 215.964743 
L 1062.107507 108.313687 
L 1063.454249 222.746237 
L 1064.800991 272.690552 
L 1066.147732 290.203712 
L 1067.494474 311.07194 
L 1068.841216 323.29852 
L 1071.534699 337.313449 
L 1072.881441 344.772847 
L 1074.228183 344.933984 
L 1075.574925 347.445017 
L 1076.921666 340.961933 
L 1078.268408 333.779557 
L 1079.61515 336.170088 
L 1080.961892 319.826635 
L 1082.308633 319.004799 
L 1083.655375 311.353033 
L 1085.002117 313.578971 
L 1086.348859 329.086678 
L 1087.6956 336.979042 
L 1089.042342 342.201057 
L 1090.389084 346.486706 
L 1091.735826 345.534955 
L 1093.082567 347.655749 
L 1094.429309 350.853942 
L 1095.776051 349.520872 
L 1097.122793 349.053426 
L 1098.469534 348.889514 
L 1099.816276 351.286567 
L 1101.163018 352.127102 
L 1102.50976 349.96731 
L 1103.856501 351.6645 
L 1105.203243 352.259626 
L 1106.549985 345.104722 
L 1107.896727 347.504886 
L 1109.243468 348.346513 
L 1110.59021 351.096161 
L 1111.936952 344.696749 
L 1113.283694 347.361829 
L 1114.630435 348.296349 
L 1115.977177 336.351398 
L 1117.323919 334.617385 
L 1118.670661 324.191231 
L 1120.017402 325.444319 
L 1122.710886 340.89251 
L 1124.057628 338.664272 
L 1125.404369 313.337642 
L 1126.751111 336.365642 
L 1128.097853 344.440495 
L 1129.444595 334.999328 
L 1130.791336 316.961574 
L 1132.138078 293.454866 
L 1133.48482 272.939507 
L 1134.831562 233.836843 
L 1136.178303 254.488754 
L 1137.525045 207.730787 
L 1138.871787 169.244171 
L 1140.218529 158.203225 
L 1141.565271 142.059032 
L 1142.912012 124.125366 
L 1144.258754 201.290843 
L 1145.605496 238.16732 
L 1146.952238 258.461781 
L 1148.298979 297.486985 
L 1149.645721 264.535269 
L 1150.992463 250.526098 
L 1152.339205 255.431845 
L 1153.685946 232.606775 
L 1156.37943 303.561249 
L 1157.726172 318.210339 
L 1159.072913 335.619742 
L 1160.419655 336.815356 
L 1161.766397 344.598189 
L 1163.113139 347.327269 
L 1164.45988 348.284231 
L 1165.806622 351.074322 
L 1167.153364 344.689091 
L 1168.500106 339.995557 
L 1169.846847 348.167868 
L 1171.193589 348.57899 
L 1172.540331 351.17768 
L 1173.887073 349.634392 
L 1175.233814 351.547761 
L 1176.580556 352.218691 
L 1177.927298 349.999426 
L 1179.27404 351.675761 
L 1180.620781 349.809046 
L 1181.967523 351.609004 
L 1183.314265 352.240166 
L 1184.661007 352.461485 
L 1187.35449 352.566305 
L 1192.741457 352.580778 
L 1194.088199 347.671864 
L 1195.434941 350.859593 
L 1196.781682 351.977382 
L 1198.128424 349.91481 
L 1199.475166 351.646091 
L 1200.821908 352.253171 
L 1202.168649 352.466045 
L 1203.515391 350.086162 
L 1204.862133 351.706176 
L 1206.208875 352.27424 
L 1207.555616 352.473433 
L 1211.595842 352.576362 
L 1222.369776 352.580999 
L 1223.716517 335.399297 
L 1225.063259 307.283709 
L 1226.410001 317.061105 
L 1227.756743 320.489585 
L 1229.103485 326.600852 
L 1230.450226 255.107923 
L 1231.796968 239.856777 
L 1234.490452 307.767914 
L 1235.837193 309.867306 
L 1238.530677 331.486065 
L 1239.877419 328.00228 
L 1241.22416 329.235207 
L 1242.570902 344.394711 
L 1243.917644 349.710447 
L 1245.264386 351.57443 
L 1246.611127 352.228042 
L 1247.957869 352.457234 
L 1249.304611 352.537601 
L 1250.651353 347.656724 
L 1251.998094 348.399755 
L 1253.344836 351.114831 
L 1254.691578 352.066882 
L 1256.03832 352.400723 
L 1257.385061 352.517785 
L 1258.731803 350.104305 
L 1260.078545 346.80348 
L 1261.425287 343.191504 
L 1264.11877 350.565796 
L 1265.465512 351.874361 
L 1266.812254 352.333215 
L 1268.158995 352.494113 
L 1269.505737 345.186946 
L 1270.852479 347.533719 
L 1272.199221 340.993036 
L 1273.545962 348.517637 
L 1274.892704 348.701638 
L 1276.239446 348.766158 
L 1277.586188 331.60708 
L 1278.932929 332.953772 
L 1280.279671 345.69864 
L 1281.626413 350.167675 
L 1282.973155 351.734758 
L 1284.319896 347.375204 
L 1285.666638 348.301039 
L 1287.01338 351.080216 
L 1287.01338 351.080216 
" clip-path="url(#p5c049b290b)" style="fill: none; stroke: #ffa500; stroke-width: 1.5; stroke-linecap: square"/>
   </g>
   <g id="line2d_23">
    <path d="M 1287.01338 351.080216 
L 1288.360122 351.080216 
L 1289.706863 351.080216 
L 1291.053605 351.080216 
L 1292.400347 351.080216 
L 1293.747089 351.080216 
L 1295.09383 351.080216 
L 1296.440572 351.080216 
L 1297.787314 351.080216 
L 1299.134056 351.080216 
L 1300.480797 351.080216 
L 1301.827539 351.080216 
L 1303.174281 351.080216 
L 1304.521023 351.080216 
" clip-path="url(#p5c049b290b)" style="fill: none; stroke: #ff0000; stroke-width: 1.5; stroke-linecap: square"/>
   </g>
   <g id="patch_3">
    <path d="M 26.19375 367.701 
L 26.19375 35.061 
" style="fill: none; stroke: #000000; stroke-width: 0.8; stroke-linejoin: miter; stroke-linecap: square"/>
   </g>
   <g id="patch_4">
    <path d="M 1365.39375 367.701 
L 1365.39375 35.061 
" style="fill: none; stroke: #000000; stroke-width: 0.8; stroke-linejoin: miter; stroke-linecap: square"/>
   </g>
   <g id="patch_5">
    <path d="M 26.19375 367.701 
L 1365.39375 367.701 
" style="fill: none; stroke: #000000; stroke-width: 0.8; stroke-linejoin: miter; stroke-linecap: square"/>
   </g>
   <g id="patch_6">
    <path d="M 26.19375 35.061 
L 1365.39375 35.061 
" style="fill: none; stroke: #000000; stroke-width: 0.8; stroke-linejoin: miter; stroke-linecap: square"/>
   </g>
   <g id="text_21">
    <!-- 每日新增预测 - 天津 -->
    <g transform="translate(642.396563 17.041875)scale(0.12 -0.12)">
     <defs>
      <path id="WenQuanYiZenHei-6bcf" d="M 6138 2181 
Q 6113 1988 6138 1800 
Q 5788 1819 5438 1819 
L 4975 1819 
L 4863 738 
L 5806 738 
L 5806 394 
L 4831 394 
L 4775 -144 
Q 4719 -563 4350 -725 
Q 4013 -856 3550 -825 
L 3288 -819 
Q 3331 -663 3275 -519 
Q 3219 -375 3113 -288 
Q 3381 -313 3759 -303 
Q 4138 -294 4231 -238 
Q 4338 -163 4350 88 
L 4381 394 
L 1025 394 
L 1244 1819 
L 813 1819 
Q 463 1819 113 1800 
Q 138 1988 113 2181 
Q 463 2163 813 2163 
L 1294 2163 
L 1488 3431 
L 1488 3581 
L 1506 3581 
L 1513 3613 
L 1713 3581 
L 5156 3581 
L 5013 2163 
L 5438 2163 
Q 5788 2163 6138 2181 
z
M 5588 4463 
Q 5569 4269 5588 4081 
Q 5244 4100 4894 4100 
L 1813 4100 
Q 1344 3463 606 2788 
Q 481 2988 256 3069 
Q 744 3494 1116 3972 
Q 1488 4450 1919 5181 
Q 2119 5044 2344 4950 
Q 2213 4688 2050 4444 
L 4894 4444 
Q 5238 4444 5588 4463 
z
M 2844 3238 
L 1906 3238 
L 1744 2163 
L 3244 2163 
L 2581 3038 
L 2844 3238 
z
M 3250 2163 
L 4563 2163 
L 4669 3238 
L 3044 3238 
L 3638 2456 
L 3250 2163 
z
M 2944 1819 
Q 3275 1394 3550 938 
L 3213 738 
L 4419 738 
L 4525 1819 
L 2944 1819 
z
M 2656 1819 
L 1694 1819 
L 1525 738 
L 3094 738 
Q 2806 1219 2450 1650 
L 2656 1819 
z
" transform="scale(0.015625)"/>
      <path id="WenQuanYiZenHei-65e5" d="M 1494 -775 
Q 1244 -750 988 -775 
Q 1013 -313 1013 156 
L 1013 4875 
L 5269 4875 
L 5269 -763 
L 4813 -763 
L 4813 156 
L 1469 156 
Q 1469 -313 1494 -775 
z
M 4813 2700 
L 4813 4500 
L 1469 4500 
L 1469 2700 
L 4813 2700 
z
M 4813 531 
L 4813 2325 
L 1469 2325 
L 1469 531 
L 4813 531 
z
" transform="scale(0.015625)"/>
      <path id="WenQuanYiZenHei-65b0" d="M 5419 -763 
Q 5188 -738 4963 -763 
Q 4981 -344 4981 75 
L 4981 2819 
L 4188 2819 
L 4188 1706 
Q 4188 63 3163 -738 
Q 3019 -519 2769 -469 
Q 3769 131 3769 1706 
L 3769 4769 
L 3875 4769 
L 3844 4831 
L 4294 4781 
Q 4438 4769 4894 4816 
Q 5350 4863 5512 4931 
Q 5675 5000 5763 5094 
Q 5850 4881 5981 4694 
Q 5713 4544 5263 4519 
L 4188 4438 
L 4188 3100 
L 5563 3100 
Q 5850 3100 6131 3113 
Q 6119 2956 6131 2806 
L 5394 2819 
L 5394 75 
Q 5394 -344 5419 -763 
z
M 2981 213 
Q 2656 744 2256 1225 
L 2606 1513 
Q 3025 1006 3369 450 
L 2981 213 
z
M 1169 1525 
Q 1375 1419 1594 1363 
Q 1281 488 469 -469 
Q 331 -300 119 -244 
Q 575 263 888 900 
Q 1038 1206 1169 1525 
z
M 1825 6 
L 1825 1769 
L 1081 1769 
Q 794 1769 513 1756 
Q 525 1913 513 2063 
Q 794 2050 1081 2050 
L 1825 2050 
L 1825 2775 
L 994 2775 
Q 706 2775 425 2763 
Q 438 2919 425 3075 
Q 706 3056 994 3056 
L 1825 3056 
L 1825 3088 
L 1906 3088 
Q 2288 3656 2588 4381 
Q 2794 4269 3013 4206 
Q 2800 3675 2381 3056 
L 3013 3056 
Q 3294 3056 3581 3075 
Q 3563 2919 3581 2763 
Q 3294 2775 3013 2775 
L 2238 2775 
L 2238 2050 
L 2925 2050 
Q 3206 2050 3494 2063 
Q 3475 1913 3494 1756 
Q 3206 1769 2925 1769 
L 2238 1769 
L 2238 -156 
Q 2238 -413 2075 -581 
Q 1844 -794 1306 -794 
Q 1363 -519 1188 -288 
Q 1338 -313 1534 -316 
Q 1731 -319 1778 -278 
Q 1825 -238 1825 6 
z
M 1875 3388 
L 1500 3131 
L 825 4088 
L 1200 4350 
L 1875 3388 
z
M 3419 4713 
Q 3400 4563 3419 4406 
Q 3131 4419 2850 4419 
L 1125 4419 
Q 838 4419 556 4406 
Q 569 4563 556 4713 
Q 838 4700 1125 4700 
L 1763 4700 
L 1388 5088 
L 1719 5406 
L 2288 4813 
L 2175 4700 
L 2850 4700 
Q 3131 4700 3419 4713 
z
" transform="scale(0.015625)"/>
      <path id="WenQuanYiZenHei-589e" d="M 3138 -769 
Q 2913 -744 2688 -769 
Q 2706 -356 2706 56 
L 2706 1719 
L 5706 1719 
L 5706 -756 
L 5300 -756 
L 5300 -338 
L 3119 -338 
Q 3125 -550 3138 -769 
z
M 5113 3569 
Q 5344 3606 5563 3688 
Q 5669 3175 5256 2694 
Q 5113 2519 4975 2506 
Q 4831 2725 4588 2813 
Q 4806 2831 4997 3068 
Q 5188 3306 5113 3569 
z
M 3850 2763 
L 3469 2538 
L 2925 3456 
L 3313 3681 
L 3850 2763 
z
M 2400 2100 
Q 2469 3138 2400 4175 
L 3413 4175 
Q 3138 4550 2825 4888 
L 3156 5194 
Q 3581 4725 3938 4206 
L 3900 4175 
L 4456 4175 
Q 4863 4575 5131 5163 
Q 5325 5044 5538 4975 
Q 5369 4575 5013 4175 
L 6056 4175 
Q 5981 3138 6056 2100 
L 2400 2100 
z
M 5300 806 
L 5300 1450 
L 3113 1450 
Q 3113 1125 3113 806 
L 5300 806 
z
M 5300 563 
L 3113 563 
L 3113 -94 
L 5300 -94 
L 5300 563 
z
M 4431 3913 
L 4431 2363 
L 5650 2363 
L 5650 3913 
L 4756 3913 
L 4700 3856 
Q 4681 3888 4656 3913 
L 4431 3913 
z
M 4025 3913 
L 2806 3913 
L 2806 2363 
L 4025 2363 
L 4025 3913 
z
M -31 625 
Q 506 763 1006 975 
L 1006 3206 
L 669 3206 
Q 369 3206 75 3188 
Q 94 3356 75 3531 
Q 369 3513 669 3513 
L 1006 3513 
L 1006 4263 
Q 1006 4700 981 5131 
Q 1206 5106 1431 5131 
Q 1413 4700 1413 4263 
L 1413 3513 
L 2238 3531 
Q 2219 3356 2238 3188 
L 1413 3206 
L 1413 1163 
L 2150 1531 
L 2194 1256 
Q 1269 775 813 519 
L 194 144 
Q 138 438 -31 625 
z
" transform="scale(0.015625)"/>
      <path id="WenQuanYiZenHei-9884" d="M 1206 19 
L 1206 2888 
L 669 2888 
Q 356 2888 50 2869 
Q 63 3044 50 3213 
Q 363 3194 669 3194 
L 1250 3194 
Q 950 3631 606 4031 
L 963 4338 
L 1263 3975 
L 1913 4719 
L 731 4719 
Q 419 4719 106 4706 
Q 125 4875 106 5044 
Q 419 5031 731 5031 
L 2481 5031 
L 2544 4663 
Q 2394 4613 2256 4466 
Q 2119 4319 1525 3631 
Q 1656 3444 1788 3250 
L 1700 3194 
L 2700 3194 
L 2763 2825 
Q 2656 2819 2613 2763 
L 2100 2038 
L 1750 2288 
L 2175 2888 
L 1638 2888 
L 1638 -150 
Q 1638 -525 1363 -669 
Q 1075 -819 525 -813 
Q 594 -513 388 -294 
Q 575 -313 837 -316 
Q 1100 -319 1153 -272 
Q 1206 -225 1206 19 
z
M 5813 -888 
Q 5100 -225 4306 375 
L 4669 719 
Q 5481 106 6219 -575 
L 5813 -888 
z
M 2375 -906 
Q 2294 -631 2025 -506 
Q 2769 -431 3353 19 
Q 3938 469 3938 1069 
L 3938 2200 
Q 3938 2625 3913 3050 
Q 4188 3025 4456 3050 
Q 4431 2625 4431 2200 
L 4431 1069 
Q 4431 681 4225 319 
Q 3644 -606 2375 -906 
z
M 3444 488 
Q 3169 513 2894 488 
Q 2919 913 2919 1338 
L 2919 3675 
Q 3219 3675 3525 3675 
Q 3750 4013 3931 4525 
L 3238 4525 
Q 2888 4525 2538 4513 
Q 2556 4669 2538 4831 
Q 2888 4813 3238 4813 
L 5313 4813 
Q 5663 4813 6006 4831 
Q 5988 4669 6006 4513 
Q 5663 4525 5313 4525 
L 4481 4525 
Q 4388 4088 4088 3675 
L 5644 3675 
L 5644 513 
L 5144 513 
L 5144 3388 
L 3894 3388 
L 3875 3363 
Q 3863 3375 3844 3388 
Q 3631 3388 3413 3388 
L 3419 1338 
Q 3419 913 3444 488 
z
" transform="scale(0.015625)"/>
      <path id="WenQuanYiZenHei-6d4b" d="M 5450 138 
L 5450 4306 
Q 5450 4750 5425 5188 
Q 5663 5163 5906 5188 
Q 5881 4750 5881 4306 
L 5881 -38 
Q 5888 -569 5519 -719 
Q 5194 -831 4825 -813 
Q 4894 -519 4694 -281 
Q 4869 -306 5094 -309 
Q 5319 -313 5384 -256 
Q 5450 -200 5450 138 
z
M 4900 938 
Q 4663 963 4419 938 
Q 4444 1375 4444 1819 
L 4444 3381 
Q 4444 3819 4419 4263 
Q 4663 4238 4900 4263 
Q 4875 3819 4875 3381 
L 4875 1819 
Q 4875 1375 4900 938 
z
M 2750 2025 
L 2750 3038 
Q 2750 3481 2725 3919 
Q 2963 3894 3206 3919 
Q 3181 3481 3181 3038 
L 3181 2025 
Q 3181 1263 2919 625 
L 3231 956 
Q 3781 431 4256 -150 
L 3888 -456 
Q 3431 106 2906 600 
Q 2531 -288 1738 -769 
Q 1606 -519 1338 -450 
Q 1988 -156 2369 478 
Q 2750 1113 2750 2025 
z
M 2363 969 
Q 2119 994 1881 969 
Q 1906 1406 1906 1850 
L 1906 5038 
L 3956 5031 
L 3956 1200 
L 3525 1200 
L 3525 4713 
L 2338 4713 
L 2338 1850 
Q 2338 1406 2363 969 
z
M 663 -738 
Q 481 -588 206 -575 
Q 400 -69 606 581 
Q 813 1231 1200 2838 
L 1381 2706 
L 875 338 
L 663 -738 
z
M 1006 2856 
L 731 2550 
L 75 3400 
L 350 3713 
L 1006 2856 
z
M 1088 3913 
Q 781 4388 425 4800 
L 694 5125 
Q 1069 4688 1388 4188 
L 1088 3913 
z
" transform="scale(0.015625)"/>
      <path id="WenQuanYiZenHei-20" transform="scale(0.015625)"/>
      <path id="WenQuanYiZenHei-5929" d="M 1306 2594 
Q 906 2594 506 2575 
Q 531 2788 506 3006 
Q 906 2988 1306 2988 
L 2888 2988 
L 2888 4575 
L 1838 4575 
Q 1438 4575 1038 4556 
Q 1063 4775 1038 4988 
Q 1438 4969 1838 4969 
L 4519 4969 
Q 4919 4969 5319 4988 
Q 5294 4775 5319 4556 
Q 4919 4575 4519 4575 
L 3350 4575 
L 3350 2988 
L 5081 2988 
Q 5475 2988 5875 3006 
Q 5856 2788 5875 2575 
Q 5475 2594 5081 2594 
L 3413 2594 
Q 3719 1519 4250 888 
Q 4956 63 6119 -219 
Q 5900 -388 5831 -656 
Q 4931 -425 4256 250 
Q 3581 925 3200 1881 
Q 2938 1019 2275 328 
Q 1613 -363 669 -681 
Q 550 -388 244 -288 
Q 1331 -38 2053 771 
Q 2775 1581 2875 2594 
L 1306 2594 
z
" transform="scale(0.015625)"/>
      <path id="WenQuanYiZenHei-6d25" d="M 4000 -769 
Q 3763 -744 3525 -769 
Q 3544 -325 3544 113 
L 3544 556 
L 2419 556 
Q 2094 556 1769 538 
Q 1788 713 1769 888 
Q 2094 875 2419 875 
L 3544 875 
L 3544 1450 
L 2806 1450 
Q 2481 1450 2156 1438 
Q 2175 1613 2156 1788 
Q 2481 1769 2806 1769 
L 3544 1769 
L 3544 2475 
L 2863 2475 
Q 2538 2475 2219 2456 
Q 2238 2631 2219 2806 
Q 2538 2794 2863 2794 
L 3544 2794 
L 3544 3388 
L 2581 3388 
Q 2256 3388 1931 3369 
Q 1950 3544 1931 3719 
Q 2256 3706 2581 3706 
L 3544 3706 
L 3544 4300 
L 2850 4300 
Q 2525 4300 2200 4281 
Q 2219 4456 2200 4631 
Q 2525 4619 2850 4619 
L 3544 4619 
Q 3538 4938 3525 5256 
Q 3763 5231 4000 5256 
Q 3981 4938 3981 4619 
L 5394 4619 
L 5394 3706 
L 6169 3719 
Q 6150 3544 6169 3369 
L 5394 3388 
L 5394 2200 
L 4956 2200 
L 4956 2475 
L 3975 2475 
L 3975 1769 
L 5075 1769 
Q 5400 1769 5719 1788 
Q 5700 1613 5719 1438 
Q 5400 1450 5075 1450 
L 3975 1450 
L 3975 875 
L 5431 875 
Q 5756 875 6081 888 
Q 6063 713 6081 538 
Q 5756 556 5431 556 
L 3975 556 
L 3975 113 
Q 3975 -325 4000 -769 
z
M 3975 2794 
L 4956 2794 
L 4956 3388 
L 3975 3388 
L 3975 2794 
z
M 3975 3706 
L 4956 3706 
L 4956 4300 
L 3975 4300 
L 3975 3706 
z
M 788 -738 
Q 575 -588 250 -575 
Q 481 -69 725 581 
Q 969 1231 1438 2838 
L 1650 2706 
L 1044 338 
L 788 -738 
z
M 1206 2856 
L 869 2550 
L 88 3400 
L 425 3713 
L 1206 2856 
z
M 1300 3913 
Q 938 4388 513 4800 
L 825 5125 
Q 1275 4688 1663 4188 
L 1300 3913 
z
" transform="scale(0.015625)"/>
     </defs>
     <use xlink:href="#WenQuanYiZenHei-6bcf"/>
     <use xlink:href="#WenQuanYiZenHei-65e5" x="100"/>
     <use xlink:href="#WenQuanYiZenHei-65b0" x="200"/>
     <use xlink:href="#WenQuanYiZenHei-589e" x="300"/>
     <use xlink:href="#WenQuanYiZenHei-9884" x="400"/>
     <use xlink:href="#WenQuanYiZenHei-6d4b" x="500"/>
     <use xlink:href="#WenQuanYiZenHei-20" x="600"/>
     <use xlink:href="#WenQuanYiZenHei-2d" x="629.980469"/>
     <use xlink:href="#WenQuanYiZenHei-20" x="659.960938"/>
     <use xlink:href="#WenQuanYiZenHei-5929" x="689.941406"/>
     <use xlink:href="#WenQuanYiZenHei-6d25" x="789.941406"/>
    </g>
    <!-- ARIMA (0, 1, 1)x(0, 0, 0, 7) (R2 = 0.957561) -->
    <g transform="translate(577.185938 29.061)scale(0.12 -0.12)">
     <defs>
      <path id="WenQuanYiZenHei-41" d="M 3550 0 
L 2988 0 
L 2550 1281 
L 919 1281 
L 531 0 
L 69 0 
L 1494 4388 
L 2125 4388 
L 3550 0 
z
M 2425 1694 
L 1756 3800 
L 1075 1694 
L 2425 1694 
z
" transform="scale(0.015625)"/>
      <path id="WenQuanYiZenHei-52" d="M 3675 0 
L 3100 0 
L 2288 1900 
L 1069 1900 
L 1069 0 
L 519 0 
L 519 4388 
L 2163 4388 
Q 3006 4388 3400 3900 
Q 3581 3663 3625 3325 
Q 3631 3250 3631 3163 
Q 3631 2594 3219 2244 
Q 3038 2100 2813 2038 
L 3675 0 
z
M 3081 3169 
Q 3081 3825 2356 3906 
Q 2263 3919 2163 3919 
L 1069 3919 
L 1069 2350 
L 2100 2350 
Q 2906 2350 3044 2919 
Q 3081 3031 3081 3169 
z
" transform="scale(0.015625)"/>
      <path id="WenQuanYiZenHei-49" d="M 1100 0 
L 550 0 
L 550 4388 
L 1100 4388 
L 1100 0 
z
" transform="scale(0.015625)"/>
      <path id="WenQuanYiZenHei-4d" d="M 4756 0 
L 4206 0 
L 4206 3831 
L 4181 3831 
L 2788 0 
L 2419 0 
L 1000 3831 
L 975 3831 
L 975 0 
L 513 0 
L 513 4388 
L 1331 4388 
L 2656 875 
L 3950 4388 
L 4756 4388 
L 4756 0 
z
" transform="scale(0.015625)"/>
      <path id="WenQuanYiZenHei-28" d="M 1606 -1094 
L 1275 -1094 
Q 475 -100 338 1231 
Q 319 1438 319 1656 
Q 319 3031 1156 4244 
Q 1213 4313 1269 4388 
L 1600 4388 
Q 806 3169 794 1681 
Q 794 188 1606 -1094 
z
" transform="scale(0.015625)"/>
      <path id="WenQuanYiZenHei-2c" d="M 1363 75 
L 881 -825 
L 606 -825 
L 994 0 
L 656 0 
L 656 738 
L 1363 738 
L 1363 75 
z
" transform="scale(0.015625)"/>
      <path id="WenQuanYiZenHei-29" d="M 1600 1656 
Q 1600 306 869 -788 
Q 769 -950 644 -1094 
L 313 -1094 
Q 1125 188 1125 1681 
Q 1125 3169 338 4363 
Q 325 4375 319 4388 
L 650 4388 
Q 1525 3231 1594 1863 
Q 1600 1763 1600 1656 
z
" transform="scale(0.015625)"/>
      <path id="WenQuanYiZenHei-78" d="M 2806 0 
L 2213 0 
L 1394 1319 
L 544 0 
L 50 0 
L 1144 1681 
L 163 3250 
L 744 3250 
L 1431 2138 
L 2144 3250 
L 2631 3250 
L 1681 1794 
L 2806 0 
z
" transform="scale(0.015625)"/>
      <path id="WenQuanYiZenHei-3d" d="M 3569 2256 
L 263 2256 
L 263 2675 
L 3569 2675 
L 3569 2256 
z
M 3569 1019 
L 263 1019 
L 263 1431 
L 3569 1431 
L 3569 1019 
z
" transform="scale(0.015625)"/>
      <path id="WenQuanYiZenHei-2e" d="M 1344 0 
L 631 0 
L 631 725 
L 1344 725 
L 1344 0 
z
" transform="scale(0.015625)"/>
      <path id="WenQuanYiZenHei-39" d="M 3544 2300 
Q 3544 1163 3019 513 
Q 2563 -63 1775 -63 
Q 956 -63 563 488 
Q 463 631 394 813 
L 838 975 
Q 1025 494 1550 388 
Q 1656 369 1775 369 
Q 2594 369 2900 1325 
Q 3044 1769 3038 2313 
L 3025 2313 
Q 2675 1638 1944 1544 
Q 1844 1531 1744 1531 
Q 1050 1531 625 2031 
Q 294 2419 294 2963 
Q 294 3656 813 4094 
Q 1238 4456 1819 4456 
Q 2988 4456 3381 3363 
Q 3544 2900 3544 2300 
z
M 2925 2994 
Q 2925 3563 2469 3844 
Q 2206 4006 1863 4006 
Q 1275 4006 988 3563 
Q 844 3344 825 3056 
Q 819 3006 819 2956 
Q 819 2413 1269 2131 
Q 1538 1963 1875 1963 
Q 2363 1963 2681 2350 
Q 2925 2638 2925 2994 
z
" transform="scale(0.015625)"/>
     </defs>
     <use xlink:href="#WenQuanYiZenHei-41"/>
     <use xlink:href="#WenQuanYiZenHei-52" x="55.957031"/>
     <use xlink:href="#WenQuanYiZenHei-49" x="117.871094"/>
     <use xlink:href="#WenQuanYiZenHei-4d" x="143.847656"/>
     <use xlink:href="#WenQuanYiZenHei-41" x="225.78125"/>
     <use xlink:href="#WenQuanYiZenHei-20" x="281.738281"/>
     <use xlink:href="#WenQuanYiZenHei-28" x="311.71875"/>
     <use xlink:href="#WenQuanYiZenHei-30" x="341.699219"/>
     <use xlink:href="#WenQuanYiZenHei-2c" x="401.660156"/>
     <use xlink:href="#WenQuanYiZenHei-20" x="431.640625"/>
     <use xlink:href="#WenQuanYiZenHei-31" x="461.621094"/>
     <use xlink:href="#WenQuanYiZenHei-2c" x="521.582031"/>
     <use xlink:href="#WenQuanYiZenHei-20" x="551.5625"/>
     <use xlink:href="#WenQuanYiZenHei-31" x="581.542969"/>
     <use xlink:href="#WenQuanYiZenHei-29" x="641.503906"/>
     <use xlink:href="#WenQuanYiZenHei-78" x="671.484375"/>
     <use xlink:href="#WenQuanYiZenHei-28" x="715.429688"/>
     <use xlink:href="#WenQuanYiZenHei-30" x="745.410156"/>
     <use xlink:href="#WenQuanYiZenHei-2c" x="805.371094"/>
     <use xlink:href="#WenQuanYiZenHei-20" x="835.351562"/>
     <use xlink:href="#WenQuanYiZenHei-30" x="865.332031"/>
     <use xlink:href="#WenQuanYiZenHei-2c" x="925.292969"/>
     <use xlink:href="#WenQuanYiZenHei-20" x="955.273438"/>
     <use xlink:href="#WenQuanYiZenHei-30" x="985.253906"/>
     <use xlink:href="#WenQuanYiZenHei-2c" x="1045.214844"/>
     <use xlink:href="#WenQuanYiZenHei-20" x="1075.195312"/>
     <use xlink:href="#WenQuanYiZenHei-37" x="1105.175781"/>
     <use xlink:href="#WenQuanYiZenHei-29" x="1165.136719"/>
     <use xlink:href="#WenQuanYiZenHei-20" x="1195.117188"/>
     <use xlink:href="#WenQuanYiZenHei-28" x="1225.097656"/>
     <use xlink:href="#WenQuanYiZenHei-52" x="1255.078125"/>
     <use xlink:href="#WenQuanYiZenHei-32" x="1316.992188"/>
     <use xlink:href="#WenQuanYiZenHei-20" x="1376.953125"/>
     <use xlink:href="#WenQuanYiZenHei-3d" x="1406.933594"/>
     <use xlink:href="#WenQuanYiZenHei-20" x="1466.894531"/>
     <use xlink:href="#WenQuanYiZenHei-30" x="1496.875"/>
     <use xlink:href="#WenQuanYiZenHei-2e" x="1556.835938"/>
     <use xlink:href="#WenQuanYiZenHei-39" x="1586.816406"/>
     <use xlink:href="#WenQuanYiZenHei-35" x="1646.777344"/>
     <use xlink:href="#WenQuanYiZenHei-37" x="1706.738281"/>
     <use xlink:href="#WenQuanYiZenHei-35" x="1766.699219"/>
     <use xlink:href="#WenQuanYiZenHei-36" x="1826.660156"/>
     <use xlink:href="#WenQuanYiZenHei-31" x="1886.621094"/>
     <use xlink:href="#WenQuanYiZenHei-29" x="1946.582031"/>
    </g>
   </g>
   <g id="legend_1">
    <g id="patch_7">
     <path d="M 1296.39375 87.056312 
L 1358.39375 87.056312 
Q 1360.39375 87.056312 1360.39375 85.056312 
L 1360.39375 42.061 
Q 1360.39375 40.061 1358.39375 40.061 
L 1296.39375 40.061 
Q 1294.39375 40.061 1294.39375 42.061 
L 1294.39375 85.056312 
Q 1294.39375 87.056312 1296.39375 87.056312 
z
" style="fill: #ffffff; opacity: 0.8; stroke: #cccccc; stroke-linejoin: miter"/>
    </g>
    <g id="line2d_24">
     <path d="M 1298.39375 48.695375 
L 1308.39375 48.695375 
L 1318.39375 48.695375 
" style="fill: none; stroke: #0000ff; stroke-width: 1.5; stroke-linecap: square"/>
    </g>
    <g id="text_22">
     <!-- 实际值 -->
     <g transform="translate(1326.39375 52.195375)scale(0.1 -0.1)">
      <defs>
       <path id="WenQuanYiZenHei-5b9e" d="M 1025 1175 
Q 694 1175 356 1163 
Q 375 1344 356 1525 
Q 694 1506 1025 1506 
L 3363 1506 
L 3363 2625 
Q 3363 3075 3338 3519 
Q 3581 3494 3825 3519 
Q 3800 3075 3800 2625 
L 3800 1506 
L 5406 1506 
Q 5744 1506 6075 1525 
Q 6056 1344 6075 1163 
Q 5744 1175 5406 1175 
L 4038 1175 
L 4981 456 
L 6131 -488 
L 5819 -856 
L 4681 75 
L 3638 875 
Q 3313 231 2475 -231 
Q 1638 -694 700 -825 
Q 638 -519 344 -400 
Q 1450 -319 2406 244 
Q 3113 656 3300 1175 
L 1025 1175 
z
M 2263 1581 
Q 1763 2081 1200 2513 
L 1494 2894 
Q 2081 2444 2600 1919 
L 2263 1581 
z
M 2638 2500 
Q 2219 2963 1731 3363 
L 2044 3738 
Q 2556 3313 3000 2819 
L 2638 2500 
z
M 919 3156 
L 481 3156 
L 481 4344 
L 3069 4344 
Q 2794 4731 2469 5081 
L 2825 5413 
Q 3256 4944 3613 4413 
L 3513 4344 
L 5869 4344 
L 5869 3156 
L 5425 3156 
L 5425 4013 
L 919 4013 
L 919 3156 
z
" transform="scale(0.015625)"/>
       <path id="WenQuanYiZenHei-9645" d="M 6000 431 
L 5569 194 
L 4963 1219 
L 4313 2219 
L 4719 2494 
L 5375 1481 
L 6000 431 
z
M 2956 2450 
Q 3181 2344 3419 2294 
Q 3006 1038 1944 -188 
Q 1794 -6 1569 56 
Q 2069 600 2372 1156 
Q 2675 1713 2956 2450 
z
M 3750 25 
L 3750 2913 
L 2819 2913 
Q 2475 2913 2125 2894 
Q 2144 3081 2125 3269 
Q 2475 3256 2819 3256 
L 5469 3256 
Q 5819 3256 6163 3269 
Q 6144 3081 6163 2894 
Q 5813 2913 5469 2913 
L 4194 2913 
L 4194 -144 
Q 4194 -725 3456 -813 
L 3263 -825 
Q 3325 -506 3125 -250 
Q 3250 -281 3394 -306 
Q 3663 -313 3706 -272 
Q 3750 -231 3750 25 
z
M 5544 4950 
Q 5525 4756 5544 4569 
Q 5194 4588 4844 4588 
L 3325 4588 
Q 2975 4588 2625 4569 
Q 2644 4756 2625 4950 
Q 2975 4931 3325 4931 
L 4844 4931 
Q 5194 4931 5544 4950 
z
M 819 -850 
Q 581 -825 344 -850 
Q 369 -419 369 19 
L 363 4938 
L 2256 4938 
L 2256 4625 
Q 2150 4513 2075 4375 
L 1481 3238 
Q 2181 2319 2181 1156 
Q 2144 400 1569 163 
L 1406 88 
Q 1288 300 1138 481 
Q 1294 538 1450 606 
Q 1763 744 1794 1156 
Q 1794 1744 1600 2300 
Q 1406 2856 1038 3313 
L 1725 4625 
L 788 4625 
L 794 19 
Q 794 -419 819 -850 
z
" transform="scale(0.015625)"/>
       <path id="WenQuanYiZenHei-503c" d="M 6175 -219 
Q 6156 -388 6175 -556 
Q 5863 -544 5550 -544 
L 2313 -544 
Q 2000 -544 1688 -556 
Q 1706 -388 1688 -219 
L 2506 -231 
L 2506 3469 
L 3644 3469 
L 3644 4119 
L 2638 4119 
Q 2325 4119 2013 4100 
Q 2031 4269 2013 4438 
Q 2325 4425 2638 4425 
L 3638 4425 
Q 3638 4719 3619 5013 
Q 3856 4988 4094 5013 
Q 4075 4719 4075 4425 
L 5344 4425 
Q 5650 4425 5963 4438 
Q 5950 4269 5963 4100 
Q 5656 4119 5344 4119 
L 4069 4119 
L 4069 3469 
L 5300 3469 
L 5300 -231 
L 5550 -231 
Q 5863 -231 6175 -219 
z
M 4869 2556 
L 4869 3156 
L 2931 3156 
Q 2931 2850 2931 2556 
L 4869 2556 
z
M 4869 1669 
L 4869 2250 
L 2931 2250 
L 2931 1669 
L 4869 1669 
z
M 4869 731 
L 4869 1363 
L 2931 1363 
L 2931 731 
L 4869 731 
z
M 4869 -231 
L 4869 425 
L 2931 425 
L 2931 -231 
L 4869 -231 
z
M 2106 4925 
Q 1856 4075 1463 3338 
L 1463 31 
Q 1463 -413 1481 -850 
Q 1256 -825 1031 -850 
Q 1050 -413 1050 31 
L 1050 2681 
Q 750 2269 375 1931 
Q 238 2156 0 2256 
Q 331 2544 619 2875 
Q 1094 3425 1300 3950 
Q 1494 4469 1625 5050 
Q 1850 4963 2106 4925 
z
" transform="scale(0.015625)"/>
      </defs>
      <use xlink:href="#WenQuanYiZenHei-5b9e"/>
      <use xlink:href="#WenQuanYiZenHei-9645" x="100"/>
      <use xlink:href="#WenQuanYiZenHei-503c" x="200"/>
     </g>
    </g>
    <g id="line2d_25">
     <path d="M 1298.39375 63.3735 
L 1308.39375 63.3735 
L 1318.39375 63.3735 
" style="fill: none; stroke: #ffa500; stroke-width: 1.5; stroke-linecap: square"/>
    </g>
    <g id="text_23">
     <!-- 校验值 -->
     <g transform="translate(1326.39375 66.8735)scale(0.1 -0.1)">
      <defs>
       <path id="WenQuanYiZenHei-6821" d="M 5256 2463 
Q 5025 1475 4494 706 
Q 5125 -94 6175 -544 
Q 5950 -663 5850 -900 
Q 4906 -494 4250 381 
Q 3931 0 3475 -350 
Q 3019 -700 2388 -919 
Q 2338 -656 2138 -475 
Q 3306 -69 4006 738 
Q 3563 1444 3300 2331 
Q 3050 2050 2706 1800 
Q 2606 2000 2406 2106 
Q 2900 2444 3181 2938 
Q 3350 3225 3488 3538 
Q 3700 3431 3925 3369 
Q 3763 2894 3425 2475 
L 3650 2531 
Q 3888 1675 4244 1075 
Q 4469 1444 4603 1937 
Q 4738 2431 4775 2688 
Q 4963 2644 5150 2625 
Q 4919 2969 4663 3294 
L 5038 3588 
Q 5544 2925 5975 2213 
L 5569 1969 
L 5256 2463 
z
M 6006 4050 
Q 5988 3881 6006 3713 
Q 5694 3725 5381 3725 
L 3413 3725 
Q 3100 3725 2788 3713 
Q 2806 3881 2788 4050 
Q 3100 4031 3413 4031 
L 4325 4031 
Q 4019 4525 3644 4969 
L 4000 5275 
Q 4413 4788 4750 4244 
L 4406 4031 
L 5381 4031 
Q 5694 4031 6006 4050 
z
M 406 263 
Q 238 431 -25 469 
Q 194 825 466 1337 
Q 738 1850 925 2406 
Q 1113 2963 1256 3519 
L 825 3519 
Q 506 3519 188 3500 
Q 206 3700 188 3900 
Q 506 3881 825 3881 
L 1363 3881 
L 1363 4263 
Q 1363 4719 1338 5175 
Q 1556 5150 1775 5175 
Q 1756 4719 1756 4263 
L 1756 3881 
L 2525 3900 
Q 2506 3700 2525 3500 
L 1756 3519 
L 1756 2738 
L 1931 2881 
Q 2306 2300 2613 1650 
L 2231 1413 
Q 2081 1725 1919 2019 
L 1756 2300 
L 1756 69 
Q 1756 -388 1775 -850 
Q 1556 -825 1338 -850 
Q 1363 -388 1363 69 
L 1363 2438 
Q 925 1144 406 263 
z
" transform="scale(0.015625)"/>
       <path id="WenQuanYiZenHei-9a8c" d="M 5981 -106 
Q 5963 -275 5981 -444 
Q 5669 -431 5356 -431 
L 2969 -431 
Q 2656 -431 2350 -444 
Q 2363 -275 2350 -106 
Q 2656 -125 2969 -125 
L 4369 -125 
Q 4600 431 4881 1288 
L 5206 2300 
Q 5425 2206 5663 2163 
Q 5375 1188 4831 -125 
L 5356 -125 
Q 5669 -125 5981 -106 
z
M 4063 594 
Q 3788 1425 3425 2219 
L 3856 2419 
Q 4225 1600 4513 744 
L 4063 594 
z
M 3163 363 
Q 2931 1200 2613 2006 
L 3056 2175 
Q 3381 1350 3619 488 
L 3163 363 
z
M 4581 2550 
L 3513 2550 
Q 3200 2550 2888 2538 
Q 2900 2663 2894 2769 
Q 2569 2488 2206 2300 
Q 2113 2550 1894 2700 
Q 2488 2975 2975 3463 
Q 3269 3756 3394 4006 
Q 3644 4513 3794 5063 
Q 4038 4975 4294 4931 
Q 4250 4806 4206 4681 
Q 4475 3888 5025 3388 
Q 5519 2938 6169 2650 
Q 5938 2538 5838 2300 
Q 5513 2456 5200 2700 
Q 5200 2619 5206 2538 
Q 4894 2550 4581 2550 
z
M 3513 2863 
L 4994 2869 
Q 4344 3438 3988 4194 
Q 3594 3406 3013 2869 
Q 3263 2863 3513 2863 
z
M 206 444 
Q 188 756 44 963 
Q 319 956 650 1003 
Q 981 1050 1731 1281 
L 1738 1006 
Q 800 719 206 444 
z
M 525 4000 
Q 744 3950 994 3944 
Q 925 3519 875 3081 
L 763 2144 
L 1475 2144 
L 1831 4444 
L 663 4444 
Q 350 4444 38 4431 
Q 56 4600 38 4769 
Q 350 4756 663 4756 
L 2313 4756 
L 1913 2144 
L 2375 2144 
L 2200 -200 
Q 2188 -425 1988 -588 
Q 1694 -800 1181 -788 
L 944 -788 
Q 1000 -450 788 -269 
Q 1013 -294 1334 -287 
Q 1656 -281 1715 -243 
Q 1775 -206 1781 -50 
L 1925 1831 
L 294 1831 
L 444 3131 
Q 500 3569 525 4000 
z
" transform="scale(0.015625)"/>
      </defs>
      <use xlink:href="#WenQuanYiZenHei-6821"/>
      <use xlink:href="#WenQuanYiZenHei-9a8c" x="100"/>
      <use xlink:href="#WenQuanYiZenHei-503c" x="200"/>
     </g>
    </g>
    <g id="line2d_26">
     <path d="M 1298.39375 77.895375 
L 1308.39375 77.895375 
L 1318.39375 77.895375 
" style="fill: none; stroke: #ff0000; stroke-width: 1.5; stroke-linecap: square"/>
    </g>
    <g id="text_24">
     <!-- 预测值 -->
     <g transform="translate(1326.39375 81.395375)scale(0.1 -0.1)">
      <use xlink:href="#WenQuanYiZenHei-9884"/>
      <use xlink:href="#WenQuanYiZenHei-6d4b" x="100"/>
      <use xlink:href="#WenQuanYiZenHei-503c" x="200"/>
     </g>
    </g>
   </g>
  </g>
 </g>
 <defs>
  <clipPath id="p5c049b290b">
   <rect x="26.19375" y="35.061" width="1339.2" height="332.64"/>
  </clipPath>
 </defs>
</svg>
