<?xml version="1.0" encoding="utf-8" standalone="no"?>
<!DOCTYPE svg PUBLIC "-//W3C//DTD SVG 1.1//EN"
  "http://www.w3.org/Graphics/SVG/1.1/DTD/svg11.dtd">
<svg xmlns:xlink="http://www.w3.org/1999/xlink" width="1376.246875pt" height="390.418188pt" viewBox="0 0 1376.246875 390.418188" xmlns="http://www.w3.org/2000/svg" version="1.1">
 <metadata>
  <rdf:RDF xmlns:dc="http://purl.org/dc/elements/1.1/" xmlns:cc="http://creativecommons.org/ns#" xmlns:rdf="http://www.w3.org/1999/02/22-rdf-syntax-ns#">
   <cc:Work>
    <dc:type rdf:resource="http://purl.org/dc/dcmitype/StillImage"/>
    <dc:date>2022-07-08T18:19:57.658833</dc:date>
    <dc:format>image/svg+xml</dc:format>
    <dc:creator>
     <cc:Agent>
      <dc:title>Matplotlib v3.5.2, https://matplotlib.org/</dc:title>
     </cc:Agent>
    </dc:creator>
   </cc:Work>
  </rdf:RDF>
 </metadata>
 <defs>
  <style type="text/css">*{stroke-linejoin: round; stroke-linecap: butt}</style>
 </defs>
 <g id="figure_1">
  <g id="patch_1">
   <path d="M 0 390.418188 
L 1376.246875 390.418188 
L 1376.246875 -0 
L 0 -0 
z
" style="fill: #ffffff"/>
  </g>
  <g id="axes_1">
   <g id="patch_2">
    <path d="M 29.846875 367.701 
L 1369.046875 367.701 
L 1369.046875 35.061 
L 29.846875 35.061 
z
" style="fill: #ffffff"/>
   </g>
   <g id="matplotlib.axis_1">
    <g id="xtick_1">
     <g id="line2d_1">
      <defs>
       <path id="m23e26afeeb" d="M 0 0 
L 0 3.5 
" style="stroke: #000000; stroke-width: 0.8"/>
      </defs>
      <g>
       <use xlink:href="#m23e26afeeb" x="61.254256" y="367.701" style="stroke: #000000; stroke-width: 0.8"/>
      </g>
     </g>
     <g id="text_1">
      <!-- 2020-01 -->
      <g transform="translate(41.764412 381.55725)scale(0.1 -0.1)">
       <defs>
        <path id="WenQuanYiZenHei-32" d="M 3488 0 
L 369 0 
L 369 456 
L 2150 1850 
Q 2931 2463 2931 3144 
Q 2931 3619 2488 3863 
Q 2231 4013 1931 4013 
Q 1425 4013 1113 3619 
Q 894 3356 881 3013 
L 369 3169 
Q 531 3981 1213 4300 
Q 1544 4456 1950 4456 
Q 2631 4456 3088 4044 
L 3225 3888 
L 3350 3706 
Q 3481 3444 3481 3144 
Q 3481 2313 2519 1569 
L 1069 456 
L 3488 456 
L 3488 0 
z
" transform="scale(0.015625)"/>
        <path id="WenQuanYiZenHei-30" d="M 3581 2175 
Q 3581 1288 3169 638 
Q 2713 -63 1938 -63 
Q 1025 -63 563 831 
Q 256 1425 256 2188 
Q 256 3188 700 3819 
Q 1138 4456 1888 4456 
Q 2863 4456 3306 3500 
Q 3581 2925 3581 2175 
z
M 3019 2100 
Q 3019 3356 2500 3806 
L 2350 3919 
Q 2144 4031 1888 4031 
Q 1100 4031 888 2956 
Q 819 2625 819 2225 
Q 819 1013 1338 569 
Q 1588 356 1938 356 
Q 2675 356 2925 1294 
Q 3019 1663 3019 2100 
z
" transform="scale(0.015625)"/>
        <path id="WenQuanYiZenHei-2d" d="M 1363 1444 
L 0 1444 
L 0 1844 
L 1363 1844 
L 1363 1444 
z
" transform="scale(0.015625)"/>
        <path id="WenQuanYiZenHei-31" d="M 3556 0 
L 488 0 
L 488 406 
L 1800 406 
L 1800 3725 
Q 1231 3125 588 2788 
L 588 3338 
Q 1456 3781 1931 4388 
L 2331 4388 
L 2331 406 
L 3556 406 
L 3556 0 
z
" transform="scale(0.015625)"/>
       </defs>
       <use xlink:href="#WenQuanYiZenHei-32"/>
       <use xlink:href="#WenQuanYiZenHei-30" x="59.960938"/>
       <use xlink:href="#WenQuanYiZenHei-32" x="119.921875"/>
       <use xlink:href="#WenQuanYiZenHei-30" x="179.882812"/>
       <use xlink:href="#WenQuanYiZenHei-2d" x="239.84375"/>
       <use xlink:href="#WenQuanYiZenHei-30" x="269.824219"/>
       <use xlink:href="#WenQuanYiZenHei-31" x="329.785156"/>
      </g>
     </g>
    </g>
    <g id="xtick_2">
     <g id="line2d_2">
      <g>
       <use xlink:href="#m23e26afeeb" x="183.133644" y="367.701" style="stroke: #000000; stroke-width: 0.8"/>
      </g>
     </g>
     <g id="text_2">
      <!-- 2020-04 -->
      <g transform="translate(163.6438 381.55725)scale(0.1 -0.1)">
       <defs>
        <path id="WenQuanYiZenHei-34" d="M 3631 1025 
L 2913 1025 
L 2913 0 
L 2381 0 
L 2381 1025 
L 219 1025 
L 219 1388 
L 2225 4388 
L 2913 4388 
L 2913 1444 
L 3631 1444 
L 3631 1025 
z
M 2381 1444 
L 2381 3963 
L 788 1444 
L 2381 1444 
z
" transform="scale(0.015625)"/>
       </defs>
       <use xlink:href="#WenQuanYiZenHei-32"/>
       <use xlink:href="#WenQuanYiZenHei-30" x="59.960938"/>
       <use xlink:href="#WenQuanYiZenHei-32" x="119.921875"/>
       <use xlink:href="#WenQuanYiZenHei-30" x="179.882812"/>
       <use xlink:href="#WenQuanYiZenHei-2d" x="239.84375"/>
       <use xlink:href="#WenQuanYiZenHei-30" x="269.824219"/>
       <use xlink:href="#WenQuanYiZenHei-34" x="329.785156"/>
      </g>
     </g>
    </g>
    <g id="xtick_3">
     <g id="line2d_3">
      <g>
       <use xlink:href="#m23e26afeeb" x="305.013032" y="367.701" style="stroke: #000000; stroke-width: 0.8"/>
      </g>
     </g>
     <g id="text_3">
      <!-- 2020-07 -->
      <g transform="translate(285.523188 381.55725)scale(0.1 -0.1)">
       <defs>
        <path id="WenQuanYiZenHei-37" d="M 3400 4056 
Q 1838 2175 1838 0 
L 1275 0 
Q 1269 1438 2056 2825 
Q 2381 3400 2825 3913 
L 444 3913 
L 500 4388 
L 3400 4388 
L 3400 4056 
z
" transform="scale(0.015625)"/>
       </defs>
       <use xlink:href="#WenQuanYiZenHei-32"/>
       <use xlink:href="#WenQuanYiZenHei-30" x="59.960938"/>
       <use xlink:href="#WenQuanYiZenHei-32" x="119.921875"/>
       <use xlink:href="#WenQuanYiZenHei-30" x="179.882812"/>
       <use xlink:href="#WenQuanYiZenHei-2d" x="239.84375"/>
       <use xlink:href="#WenQuanYiZenHei-30" x="269.824219"/>
       <use xlink:href="#WenQuanYiZenHei-37" x="329.785156"/>
      </g>
     </g>
    </g>
    <g id="xtick_4">
     <g id="line2d_4">
      <g>
       <use xlink:href="#m23e26afeeb" x="428.231753" y="367.701" style="stroke: #000000; stroke-width: 0.8"/>
      </g>
     </g>
     <g id="text_4">
      <!-- 2020-10 -->
      <g transform="translate(408.74191 381.55725)scale(0.1 -0.1)">
       <use xlink:href="#WenQuanYiZenHei-32"/>
       <use xlink:href="#WenQuanYiZenHei-30" x="59.960938"/>
       <use xlink:href="#WenQuanYiZenHei-32" x="119.921875"/>
       <use xlink:href="#WenQuanYiZenHei-30" x="179.882812"/>
       <use xlink:href="#WenQuanYiZenHei-2d" x="239.84375"/>
       <use xlink:href="#WenQuanYiZenHei-31" x="269.824219"/>
       <use xlink:href="#WenQuanYiZenHei-30" x="329.785156"/>
      </g>
     </g>
    </g>
    <g id="xtick_5">
     <g id="line2d_5">
      <g>
       <use xlink:href="#m23e26afeeb" x="551.450475" y="367.701" style="stroke: #000000; stroke-width: 0.8"/>
      </g>
     </g>
     <g id="text_5">
      <!-- 2021-01 -->
      <g transform="translate(531.960632 381.55725)scale(0.1 -0.1)">
       <use xlink:href="#WenQuanYiZenHei-32"/>
       <use xlink:href="#WenQuanYiZenHei-30" x="59.960938"/>
       <use xlink:href="#WenQuanYiZenHei-32" x="119.921875"/>
       <use xlink:href="#WenQuanYiZenHei-31" x="179.882812"/>
       <use xlink:href="#WenQuanYiZenHei-2d" x="239.84375"/>
       <use xlink:href="#WenQuanYiZenHei-30" x="269.824219"/>
       <use xlink:href="#WenQuanYiZenHei-31" x="329.785156"/>
      </g>
     </g>
    </g>
    <g id="xtick_6">
     <g id="line2d_6">
      <g>
       <use xlink:href="#m23e26afeeb" x="671.990529" y="367.701" style="stroke: #000000; stroke-width: 0.8"/>
      </g>
     </g>
     <g id="text_6">
      <!-- 2021-04 -->
      <g transform="translate(652.500686 381.55725)scale(0.1 -0.1)">
       <use xlink:href="#WenQuanYiZenHei-32"/>
       <use xlink:href="#WenQuanYiZenHei-30" x="59.960938"/>
       <use xlink:href="#WenQuanYiZenHei-32" x="119.921875"/>
       <use xlink:href="#WenQuanYiZenHei-31" x="179.882812"/>
       <use xlink:href="#WenQuanYiZenHei-2d" x="239.84375"/>
       <use xlink:href="#WenQuanYiZenHei-30" x="269.824219"/>
       <use xlink:href="#WenQuanYiZenHei-34" x="329.785156"/>
      </g>
     </g>
    </g>
    <g id="xtick_7">
     <g id="line2d_7">
      <g>
       <use xlink:href="#m23e26afeeb" x="793.869917" y="367.701" style="stroke: #000000; stroke-width: 0.8"/>
      </g>
     </g>
     <g id="text_7">
      <!-- 2021-07 -->
      <g transform="translate(774.380074 381.55725)scale(0.1 -0.1)">
       <use xlink:href="#WenQuanYiZenHei-32"/>
       <use xlink:href="#WenQuanYiZenHei-30" x="59.960938"/>
       <use xlink:href="#WenQuanYiZenHei-32" x="119.921875"/>
       <use xlink:href="#WenQuanYiZenHei-31" x="179.882812"/>
       <use xlink:href="#WenQuanYiZenHei-2d" x="239.84375"/>
       <use xlink:href="#WenQuanYiZenHei-30" x="269.824219"/>
       <use xlink:href="#WenQuanYiZenHei-37" x="329.785156"/>
      </g>
     </g>
    </g>
    <g id="xtick_8">
     <g id="line2d_8">
      <g>
       <use xlink:href="#m23e26afeeb" x="917.088639" y="367.701" style="stroke: #000000; stroke-width: 0.8"/>
      </g>
     </g>
     <g id="text_8">
      <!-- 2021-10 -->
      <g transform="translate(897.598795 381.55725)scale(0.1 -0.1)">
       <use xlink:href="#WenQuanYiZenHei-32"/>
       <use xlink:href="#WenQuanYiZenHei-30" x="59.960938"/>
       <use xlink:href="#WenQuanYiZenHei-32" x="119.921875"/>
       <use xlink:href="#WenQuanYiZenHei-31" x="179.882812"/>
       <use xlink:href="#WenQuanYiZenHei-2d" x="239.84375"/>
       <use xlink:href="#WenQuanYiZenHei-31" x="269.824219"/>
       <use xlink:href="#WenQuanYiZenHei-30" x="329.785156"/>
      </g>
     </g>
    </g>
    <g id="xtick_9">
     <g id="line2d_9">
      <g>
       <use xlink:href="#m23e26afeeb" x="1040.307361" y="367.701" style="stroke: #000000; stroke-width: 0.8"/>
      </g>
     </g>
     <g id="text_9">
      <!-- 2022-01 -->
      <g transform="translate(1020.817517 381.55725)scale(0.1 -0.1)">
       <use xlink:href="#WenQuanYiZenHei-32"/>
       <use xlink:href="#WenQuanYiZenHei-30" x="59.960938"/>
       <use xlink:href="#WenQuanYiZenHei-32" x="119.921875"/>
       <use xlink:href="#WenQuanYiZenHei-32" x="179.882812"/>
       <use xlink:href="#WenQuanYiZenHei-2d" x="239.84375"/>
       <use xlink:href="#WenQuanYiZenHei-30" x="269.824219"/>
       <use xlink:href="#WenQuanYiZenHei-31" x="329.785156"/>
      </g>
     </g>
    </g>
    <g id="xtick_10">
     <g id="line2d_10">
      <g>
       <use xlink:href="#m23e26afeeb" x="1160.847415" y="367.701" style="stroke: #000000; stroke-width: 0.8"/>
      </g>
     </g>
     <g id="text_10">
      <!-- 2022-04 -->
      <g transform="translate(1141.357571 381.55725)scale(0.1 -0.1)">
       <use xlink:href="#WenQuanYiZenHei-32"/>
       <use xlink:href="#WenQuanYiZenHei-30" x="59.960938"/>
       <use xlink:href="#WenQuanYiZenHei-32" x="119.921875"/>
       <use xlink:href="#WenQuanYiZenHei-32" x="179.882812"/>
       <use xlink:href="#WenQuanYiZenHei-2d" x="239.84375"/>
       <use xlink:href="#WenQuanYiZenHei-30" x="269.824219"/>
       <use xlink:href="#WenQuanYiZenHei-34" x="329.785156"/>
      </g>
     </g>
    </g>
    <g id="xtick_11">
     <g id="line2d_11">
      <g>
       <use xlink:href="#m23e26afeeb" x="1282.726803" y="367.701" style="stroke: #000000; stroke-width: 0.8"/>
      </g>
     </g>
     <g id="text_11">
      <!-- 2022-07 -->
      <g transform="translate(1263.236959 381.55725)scale(0.1 -0.1)">
       <use xlink:href="#WenQuanYiZenHei-32"/>
       <use xlink:href="#WenQuanYiZenHei-30" x="59.960938"/>
       <use xlink:href="#WenQuanYiZenHei-32" x="119.921875"/>
       <use xlink:href="#WenQuanYiZenHei-32" x="179.882812"/>
       <use xlink:href="#WenQuanYiZenHei-2d" x="239.84375"/>
       <use xlink:href="#WenQuanYiZenHei-30" x="269.824219"/>
       <use xlink:href="#WenQuanYiZenHei-37" x="329.785156"/>
      </g>
     </g>
    </g>
   </g>
   <g id="matplotlib.axis_2">
    <g id="ytick_1">
     <g id="line2d_12">
      <defs>
       <path id="m4214c5eba8" d="M 0 0 
L -3.5 0 
" style="stroke: #000000; stroke-width: 0.8"/>
      </defs>
      <g>
       <use xlink:href="#m4214c5eba8" x="29.846875" y="342.666246" style="stroke: #000000; stroke-width: 0.8"/>
      </g>
     </g>
     <g id="text_12">
      <!-- −10 -->
      <g transform="translate(7.2 346.094371)scale(0.1 -0.1)">
       <defs>
        <path id="WenQuanYiZenHei-2212" d="M 213 0 
L 213 4263 
L 1913 4263 
L 1913 0 
L 213 0 
z
M 425 213 
L 1700 213 
L 1700 4050 
L 425 4050 
L 425 213 
z
" transform="scale(0.015625)"/>
       </defs>
       <use xlink:href="#WenQuanYiZenHei-2212"/>
       <use xlink:href="#WenQuanYiZenHei-31" x="36.523438"/>
       <use xlink:href="#WenQuanYiZenHei-30" x="96.484375"/>
      </g>
     </g>
    </g>
    <g id="ytick_2">
     <g id="line2d_13">
      <g>
       <use xlink:href="#m4214c5eba8" x="29.846875" y="293.092475" style="stroke: #000000; stroke-width: 0.8"/>
      </g>
     </g>
     <g id="text_13">
      <!-- 0 -->
      <g transform="translate(16.85 296.5206)scale(0.1 -0.1)">
       <use xlink:href="#WenQuanYiZenHei-30"/>
      </g>
     </g>
    </g>
    <g id="ytick_3">
     <g id="line2d_14">
      <g>
       <use xlink:href="#m4214c5eba8" x="29.846875" y="243.518705" style="stroke: #000000; stroke-width: 0.8"/>
      </g>
     </g>
     <g id="text_14">
      <!-- 10 -->
      <g transform="translate(10.853125 246.94683)scale(0.1 -0.1)">
       <use xlink:href="#WenQuanYiZenHei-31"/>
       <use xlink:href="#WenQuanYiZenHei-30" x="59.960938"/>
      </g>
     </g>
    </g>
    <g id="ytick_4">
     <g id="line2d_15">
      <g>
       <use xlink:href="#m4214c5eba8" x="29.846875" y="193.944934" style="stroke: #000000; stroke-width: 0.8"/>
      </g>
     </g>
     <g id="text_15">
      <!-- 20 -->
      <g transform="translate(10.853125 197.373059)scale(0.1 -0.1)">
       <use xlink:href="#WenQuanYiZenHei-32"/>
       <use xlink:href="#WenQuanYiZenHei-30" x="59.960938"/>
      </g>
     </g>
    </g>
    <g id="ytick_5">
     <g id="line2d_16">
      <g>
       <use xlink:href="#m4214c5eba8" x="29.846875" y="144.371164" style="stroke: #000000; stroke-width: 0.8"/>
      </g>
     </g>
     <g id="text_16">
      <!-- 30 -->
      <g transform="translate(10.853125 147.799289)scale(0.1 -0.1)">
       <defs>
        <path id="WenQuanYiZenHei-33" d="M 3588 1231 
Q 3588 494 2875 144 
Q 2450 -63 1925 -63 
Q 1044 -63 556 488 
Q 356 706 256 1000 
L 769 1169 
Q 994 375 1913 375 
Q 2631 375 2900 788 
Q 3019 975 3019 1231 
Q 3019 1638 2638 1881 
Q 2325 2081 1613 2069 
L 1338 2069 
L 1338 2494 
Q 1969 2494 2094 2506 
Q 2325 2544 2463 2613 
Q 2763 2756 2844 3100 
Q 2863 3169 2863 3244 
Q 2863 3744 2381 3944 
L 2163 4006 
Q 2056 4025 1931 4025 
Q 1388 4025 1075 3631 
Q 969 3488 906 3313 
L 419 3456 
Q 675 4150 1400 4369 
Q 1669 4456 1975 4456 
Q 2694 4456 3106 4050 
Q 3419 3744 3419 3275 
Q 3419 2813 3025 2513 
Q 2825 2356 2575 2319 
L 2575 2306 
Q 3181 2213 3450 1769 
Q 3588 1525 3588 1231 
z
" transform="scale(0.015625)"/>
       </defs>
       <use xlink:href="#WenQuanYiZenHei-33"/>
       <use xlink:href="#WenQuanYiZenHei-30" x="59.960938"/>
      </g>
     </g>
    </g>
    <g id="ytick_6">
     <g id="line2d_17">
      <g>
       <use xlink:href="#m4214c5eba8" x="29.846875" y="94.797393" style="stroke: #000000; stroke-width: 0.8"/>
      </g>
     </g>
     <g id="text_17">
      <!-- 40 -->
      <g transform="translate(10.853125 98.225518)scale(0.1 -0.1)">
       <use xlink:href="#WenQuanYiZenHei-34"/>
       <use xlink:href="#WenQuanYiZenHei-30" x="59.960938"/>
      </g>
     </g>
    </g>
    <g id="ytick_7">
     <g id="line2d_18">
      <g>
       <use xlink:href="#m4214c5eba8" x="29.846875" y="45.223623" style="stroke: #000000; stroke-width: 0.8"/>
      </g>
     </g>
     <g id="text_18">
      <!-- 50 -->
      <g transform="translate(10.853125 48.651748)scale(0.1 -0.1)">
       <defs>
        <path id="WenQuanYiZenHei-35" d="M 3531 1488 
Q 3531 688 2913 250 
Q 2456 -63 1844 -63 
Q 1175 -63 706 350 
Q 413 613 306 975 
L 781 1131 
Q 1000 538 1569 406 
Q 1706 369 1856 369 
Q 2550 369 2850 869 
Q 3000 1131 3000 1494 
Q 3000 2056 2581 2356 
Q 2319 2538 1969 2538 
Q 1400 2538 1031 2075 
Q 981 2013 938 1938 
L 500 2031 
L 644 4388 
L 3244 4388 
L 3200 3919 
L 1044 3919 
L 950 2500 
Q 1431 2975 2006 2975 
Q 2713 2975 3163 2475 
Q 3531 2063 3531 1488 
z
" transform="scale(0.015625)"/>
       </defs>
       <use xlink:href="#WenQuanYiZenHei-35"/>
       <use xlink:href="#WenQuanYiZenHei-30" x="59.960938"/>
      </g>
     </g>
    </g>
   </g>
   <g id="line2d_19">
    <path d="M 90.719602 288.135098 
L 92.058936 278.220344 
L 93.39827 263.348213 
L 94.737604 268.30559 
L 96.076938 243.518705 
L 97.416272 203.859689 
L 98.755606 238.561328 
L 100.09494 218.73182 
L 101.434274 228.646574 
L 102.773608 243.518705 
L 104.112942 233.603951 
L 105.452276 233.603951 
L 106.791609 268.30559 
L 108.130943 263.348213 
L 109.470277 268.30559 
L 110.809611 268.30559 
L 112.148945 293.092475 
L 113.488279 278.220344 
L 114.827613 253.433459 
L 116.166947 273.262967 
L 117.506281 288.135098 
L 118.845615 283.177721 
L 120.184949 263.348213 
L 121.524283 263.348213 
L 124.202951 293.092475 
L 125.542285 288.135098 
L 126.881618 293.092475 
L 128.220952 283.177721 
L 129.560286 293.092475 
L 160.364967 293.092475 
L 161.704301 283.177721 
L 163.043635 293.092475 
L 173.758306 293.092475 
L 175.09764 283.177721 
L 176.436974 283.177721 
L 177.776308 293.092475 
L 180.454976 293.092475 
L 181.79431 283.177721 
L 183.133644 293.092475 
L 184.472978 288.135098 
L 185.812312 288.135098 
L 187.151645 293.092475 
L 212.59899 293.092475 
L 213.938324 288.135098 
L 215.277658 293.092475 
L 305.013032 293.092475 
L 306.352366 288.135098 
L 307.691699 293.092475 
L 311.709701 293.092475 
L 313.049035 288.135098 
L 314.388369 293.092475 
L 321.085039 293.092475 
L 322.424373 288.135098 
L 323.763707 293.092475 
L 331.79971 293.092475 
L 333.139044 288.135098 
L 334.478378 293.092475 
L 338.49638 293.092475 
L 339.835714 288.135098 
L 341.175048 293.092475 
L 342.514382 288.135098 
L 343.853716 293.092475 
L 365.283059 293.092475 
L 366.622393 273.262967 
L 367.961726 293.092475 
L 374.658396 293.092475 
L 375.99773 278.220344 
L 377.337064 293.092475 
L 378.676398 288.135098 
L 380.015732 293.092475 
L 390.730403 293.092475 
L 392.069737 283.177721 
L 393.409071 293.092475 
L 402.784409 293.092475 
L 404.123743 283.177721 
L 405.463077 288.135098 
L 408.141744 288.135098 
L 409.481078 293.092475 
L 412.159746 293.092475 
L 413.49908 283.177721 
L 416.177748 293.092475 
L 429.571087 293.092475 
L 430.910421 283.177721 
L 432.249755 293.092475 
L 464.39377 293.092475 
L 465.733104 288.135098 
L 467.072438 288.135098 
L 468.411771 293.092475 
L 473.769107 293.092475 
L 475.108441 288.135098 
L 476.447775 293.092475 
L 485.823113 293.092475 
L 487.162447 278.220344 
L 488.50178 293.092475 
L 503.234454 293.092475 
L 504.573788 288.135098 
L 505.913122 288.135098 
L 507.252456 293.092475 
L 513.949125 293.092475 
L 515.288459 288.135098 
L 516.627793 288.135098 
L 517.967127 293.092475 
L 520.645795 293.092475 
L 521.985129 288.135098 
L 524.663797 288.135098 
L 526.003131 293.092475 
L 527.342465 293.092475 
L 528.681798 283.177721 
L 530.021132 293.092475 
L 531.360466 288.135098 
L 532.6998 293.092475 
L 540.735804 293.092475 
L 542.075138 283.177721 
L 543.414472 293.092475 
L 548.771807 293.092475 
L 550.111141 288.135098 
L 551.450475 293.092475 
L 562.165147 293.092475 
L 563.504481 288.135098 
L 564.843815 293.092475 
L 626.453176 293.092475 
L 627.79251 283.177721 
L 629.131843 293.092475 
L 630.471177 293.092475 
L 631.810511 288.135098 
L 633.149845 293.092475 
L 657.257856 293.092475 
L 658.59719 288.135098 
L 659.936524 293.092475 
L 667.972528 293.092475 
L 669.311861 263.348213 
L 670.651195 263.348213 
L 671.990529 273.262967 
L 673.329863 253.433459 
L 674.669197 243.518705 
L 676.008531 218.73182 
L 677.347865 218.73182 
L 678.687199 283.177721 
L 680.026533 238.561328 
L 681.365867 253.433459 
L 682.705201 288.135098 
L 684.044535 293.092475 
L 685.383869 283.177721 
L 686.723203 288.135098 
L 688.062537 288.135098 
L 689.40187 293.092475 
L 690.741204 288.135098 
L 693.419872 288.135098 
L 694.759206 283.177721 
L 696.09854 288.135098 
L 697.437874 283.177721 
L 698.777208 288.135098 
L 700.116542 278.220344 
L 701.455876 288.135098 
L 702.79521 293.092475 
L 704.134544 278.220344 
L 705.473878 293.092475 
L 706.813212 288.135098 
L 708.152546 293.092475 
L 709.49188 293.092475 
L 710.831213 288.135098 
L 712.170547 288.135098 
L 713.509881 293.092475 
L 714.849215 288.135098 
L 716.188549 293.092475 
L 717.527883 283.177721 
L 718.867217 293.092475 
L 721.545885 293.092475 
L 722.885219 288.135098 
L 724.224553 293.092475 
L 729.581889 293.092475 
L 730.921222 278.220344 
L 732.260556 293.092475 
L 738.957226 293.092475 
L 740.29656 288.135098 
L 741.635894 293.092475 
L 752.350565 293.092475 
L 753.689899 288.135098 
L 755.029233 293.092475 
L 756.368567 283.177721 
L 757.707901 288.135098 
L 759.047235 283.177721 
L 760.386569 283.177721 
L 763.065237 293.092475 
L 764.404571 288.135098 
L 765.743905 288.135098 
L 767.083239 263.348213 
L 768.422573 268.30559 
L 769.761907 283.177721 
L 772.440574 293.092475 
L 773.779908 278.220344 
L 775.119242 283.177721 
L 776.458576 283.177721 
L 777.79791 273.262967 
L 779.137244 278.220344 
L 780.476578 293.092475 
L 781.815912 293.092475 
L 783.155246 278.220344 
L 784.49458 283.177721 
L 785.833914 268.30559 
L 788.512582 268.30559 
L 789.851916 273.262967 
L 791.191249 283.177721 
L 792.530583 283.177721 
L 793.869917 293.092475 
L 795.209251 273.262967 
L 796.548585 273.262967 
L 797.887919 253.433459 
L 799.227253 238.561328 
L 800.566587 218.73182 
L 801.905921 283.177721 
L 803.245255 208.817066 
L 804.584589 238.561328 
L 805.923923 293.092475 
L 807.263257 154.285918 
L 808.602591 258.390836 
L 809.941925 238.561328 
L 811.281258 233.603951 
L 812.620592 218.73182 
L 813.959926 228.646574 
L 815.29926 233.603951 
L 816.638594 243.518705 
L 817.977928 50.181 
L 819.317262 293.092475 
L 820.656596 144.371164 
L 821.99593 228.646574 
L 823.335264 268.30559 
L 824.674598 258.390836 
L 826.013932 203.859689 
L 827.353266 198.902311 
L 828.6926 203.859689 
L 830.031934 213.774443 
L 831.371267 188.987557 
L 832.710601 248.476082 
L 834.049935 243.518705 
L 835.389269 208.817066 
L 836.728603 243.518705 
L 838.067937 243.518705 
L 839.407271 238.561328 
L 843.425273 238.561328 
L 844.764607 253.433459 
L 846.103941 238.561328 
L 847.443275 258.390836 
L 848.782609 253.433459 
L 850.121943 243.518705 
L 851.461276 263.348213 
L 852.80061 278.220344 
L 854.139944 238.561328 
L 855.479278 218.73182 
L 856.818612 253.433459 
L 858.157946 258.390836 
L 859.49728 253.433459 
L 860.836614 278.220344 
L 862.175948 258.390836 
L 863.515282 278.220344 
L 864.854616 273.262967 
L 867.533284 243.518705 
L 868.872618 253.433459 
L 870.211952 253.433459 
L 871.551285 208.817066 
L 872.890619 278.220344 
L 874.229953 184.03018 
L 875.569287 273.262967 
L 876.908621 248.476082 
L 878.247955 248.476082 
L 879.587289 258.390836 
L 880.926623 248.476082 
L 882.265957 273.262967 
L 883.605291 184.03018 
L 884.944625 248.476082 
L 886.283959 208.817066 
L 887.623293 273.262967 
L 888.962627 228.646574 
L 890.301961 238.561328 
L 891.641294 208.817066 
L 892.980628 223.689197 
L 894.319962 228.646574 
L 895.659296 179.072803 
L 896.99863 208.817066 
L 898.337964 248.476082 
L 901.016632 248.476082 
L 902.355966 233.603951 
L 903.6953 223.689197 
L 905.034634 268.30559 
L 906.373968 228.646574 
L 907.713302 258.390836 
L 909.052636 243.518705 
L 910.39197 233.603951 
L 911.731303 238.561328 
L 914.409971 268.30559 
L 915.749305 248.476082 
L 917.088639 223.689197 
L 918.427973 248.476082 
L 921.106641 268.30559 
L 922.445975 228.646574 
L 923.785309 228.646574 
L 925.124643 263.348213 
L 926.463977 278.220344 
L 927.803311 243.518705 
L 929.142645 223.689197 
L 930.481979 268.30559 
L 931.821312 268.30559 
L 933.160646 263.348213 
L 934.49998 278.220344 
L 935.839314 288.135098 
L 937.178648 283.177721 
L 938.517982 263.348213 
L 939.857316 273.262967 
L 941.19665 288.135098 
L 942.535984 293.092475 
L 943.875318 273.262967 
L 945.214652 283.177721 
L 947.89332 293.092475 
L 951.911321 293.092475 
L 953.250655 278.220344 
L 954.589989 293.092475 
L 957.268657 273.262967 
L 958.607991 283.177721 
L 959.947325 273.262967 
L 962.625993 283.177721 
L 963.965327 273.262967 
L 965.304661 233.603951 
L 966.643995 248.476082 
L 967.983329 273.262967 
L 969.322663 278.220344 
L 970.661997 253.433459 
L 972.00133 263.348213 
L 973.340664 258.390836 
L 974.679998 273.262967 
L 977.358666 263.348213 
L 980.037334 283.177721 
L 981.376668 288.135098 
L 984.055336 278.220344 
L 985.39467 263.348213 
L 986.734004 273.262967 
L 988.073338 268.30559 
L 989.412672 268.30559 
L 990.752006 293.092475 
L 992.091339 268.30559 
L 993.430673 253.433459 
L 994.770007 263.348213 
L 996.109341 283.177721 
L 997.448675 253.433459 
L 998.788009 278.220344 
L 1000.127343 243.518705 
L 1001.466677 258.390836 
L 1002.806011 248.476082 
L 1004.145345 263.348213 
L 1005.484679 258.390836 
L 1006.824013 278.220344 
L 1008.163347 278.220344 
L 1009.502681 263.348213 
L 1010.842015 283.177721 
L 1013.520682 283.177721 
L 1014.860016 278.220344 
L 1016.19935 278.220344 
L 1017.538684 288.135098 
L 1018.878018 268.30559 
L 1020.217352 288.135098 
L 1021.556686 278.220344 
L 1022.89602 283.177721 
L 1024.235354 293.092475 
L 1025.574688 273.262967 
L 1026.914022 288.135098 
L 1028.253356 278.220344 
L 1029.59269 263.348213 
L 1030.932024 273.262967 
L 1032.271357 293.092475 
L 1033.610691 278.220344 
L 1034.950025 278.220344 
L 1036.289359 273.262967 
L 1037.628693 283.177721 
L 1038.968027 283.177721 
L 1040.307361 288.135098 
L 1042.986029 278.220344 
L 1044.325363 293.092475 
L 1045.664697 283.177721 
L 1047.004031 288.135098 
L 1048.343365 278.220344 
L 1049.682699 288.135098 
L 1051.022033 263.348213 
L 1052.361366 283.177721 
L 1053.7007 293.092475 
L 1056.379368 293.092475 
L 1057.718702 283.177721 
L 1059.058036 278.220344 
L 1060.39737 283.177721 
L 1061.736704 273.262967 
L 1063.076038 288.135098 
L 1064.415372 283.177721 
L 1065.754706 293.092475 
L 1067.09404 288.135098 
L 1068.433374 268.30559 
L 1069.772708 268.30559 
L 1071.112042 273.262967 
L 1072.451375 293.092475 
L 1073.790709 268.30559 
L 1075.130043 268.30559 
L 1076.469377 293.092475 
L 1077.808711 273.262967 
L 1079.148045 293.092475 
L 1081.826713 293.092475 
L 1083.166047 288.135098 
L 1084.505381 293.092475 
L 1085.844715 283.177721 
L 1087.184049 293.092475 
L 1092.541384 293.092475 
L 1093.880718 288.135098 
L 1095.220052 293.092475 
L 1096.559386 283.177721 
L 1099.238054 293.092475 
L 1100.577388 278.220344 
L 1101.916722 283.177721 
L 1104.59539 273.262967 
L 1105.934724 278.220344 
L 1107.274058 273.262967 
L 1108.613392 263.348213 
L 1109.952726 268.30559 
L 1112.631393 268.30559 
L 1113.970727 248.476082 
L 1116.649395 278.220344 
L 1117.988729 243.518705 
L 1119.328063 278.220344 
L 1120.667397 288.135098 
L 1122.006731 263.348213 
L 1123.346065 283.177721 
L 1124.685399 273.262967 
L 1126.024733 273.262967 
L 1127.364067 263.348213 
L 1128.703401 268.30559 
L 1130.042735 268.30559 
L 1131.382069 263.348213 
L 1134.060736 283.177721 
L 1135.40007 268.30559 
L 1136.739404 273.262967 
L 1138.078738 258.390836 
L 1139.418072 263.348213 
L 1142.09674 263.348213 
L 1143.436074 273.262967 
L 1144.775408 273.262967 
L 1148.79341 288.135098 
L 1150.132744 278.220344 
L 1151.472078 288.135098 
L 1154.150745 288.135098 
L 1155.490079 283.177721 
L 1156.829413 273.262967 
L 1159.508081 293.092475 
L 1160.847415 278.220344 
L 1162.186749 293.092475 
L 1164.865417 283.177721 
L 1166.204751 283.177721 
L 1167.544085 288.135098 
L 1168.883419 278.220344 
L 1170.222753 293.092475 
L 1172.90142 283.177721 
L 1174.240754 288.135098 
L 1175.580088 288.135098 
L 1176.919422 263.348213 
L 1178.258756 198.902311 
L 1179.59809 352.581 
L 1180.937424 293.092475 
L 1182.276758 283.177721 
L 1183.616092 278.220344 
L 1184.955426 283.177721 
L 1186.29476 283.177721 
L 1187.634094 258.390836 
L 1188.973428 293.092475 
L 1190.312762 283.177721 
L 1191.652096 283.177721 
L 1192.991429 293.092475 
L 1195.670097 293.092475 
L 1198.348765 283.177721 
L 1199.688099 293.092475 
L 1203.706101 293.092475 
L 1205.045435 288.135098 
L 1206.384769 293.092475 
L 1211.742105 293.092475 
L 1213.081438 288.135098 
L 1214.420772 273.262967 
L 1215.760106 293.092475 
L 1217.09944 293.092475 
L 1218.438774 283.177721 
L 1219.778108 288.135098 
L 1221.117442 283.177721 
L 1222.456776 293.092475 
L 1223.79611 283.177721 
L 1226.474778 293.092475 
L 1227.814112 283.177721 
L 1229.153446 293.092475 
L 1230.49278 288.135098 
L 1231.832114 293.092475 
L 1233.171447 273.262967 
L 1234.510781 278.220344 
L 1235.850115 293.092475 
L 1237.189449 293.092475 
L 1238.528783 283.177721 
L 1239.868117 278.220344 
L 1241.207451 288.135098 
L 1242.546785 293.092475 
L 1245.225453 283.177721 
L 1246.564787 293.092475 
L 1247.904121 288.135098 
L 1249.243455 288.135098 
L 1250.582789 293.092475 
L 1251.922123 278.220344 
L 1253.261456 293.092475 
L 1262.636794 293.092475 
L 1263.976128 273.262967 
L 1265.315462 288.135098 
L 1266.654796 283.177721 
L 1267.99413 293.092475 
L 1272.012132 293.092475 
L 1273.351465 268.30559 
L 1274.690799 273.262967 
L 1276.030133 288.135098 
L 1277.369467 293.092475 
L 1285.405471 293.092475 
L 1286.744805 278.220344 
L 1288.084139 288.135098 
L 1289.423473 293.092475 
L 1290.762807 288.135098 
L 1290.762807 288.135098 
" clip-path="url(#pd311458b2d)" style="fill: none; stroke: #0000ff; stroke-width: 1.5; stroke-linecap: square"/>
   </g>
   <g id="line2d_20">
    <path d="M 1051.022033 283.227601 
L 1052.361366 278.32714 
L 1053.7007 280.641874 
L 1055.040034 284.653069 
L 1056.379368 287.371983 
L 1057.718702 288.462918 
L 1060.39737 284.13006 
L 1061.736704 283.071218 
L 1063.076038 281.039348 
L 1064.415372 282.949363 
L 1065.754706 283.774962 
L 1067.09404 286.40076 
L 1068.433374 285.455453 
L 1069.772708 279.930302 
L 1071.112042 276.561197 
L 1072.451375 277.002667 
L 1073.790709 280.30623 
L 1075.130043 276.439998 
L 1076.469377 275.699417 
L 1077.808711 279.798861 
L 1079.148045 279.197257 
L 1080.487379 283.673862 
L 1081.826713 286.708246 
L 1083.166047 288.389031 
L 1084.505381 288.683236 
L 1085.844715 289.351727 
L 1087.184049 288.114683 
L 1088.523383 289.718373 
L 1089.862717 290.805403 
L 1091.202051 291.542227 
L 1092.541384 292.041668 
L 1093.880718 292.004191 
L 1095.220052 291.133705 
L 1096.559386 291.012731 
L 1097.89872 288.86455 
L 1100.577388 289.194192 
L 1101.916722 286.034775 
L 1103.256056 284.738307 
L 1105.934724 279.739084 
L 1107.274058 278.873779 
L 1108.613392 276.314122 
L 1109.952726 272.512925 
L 1111.29206 271.157453 
L 1112.631393 270.238672 
L 1113.970727 268.111836 
L 1115.310061 262.913852 
L 1116.649395 264.181832 
L 1117.988729 266.072503 
L 1119.328063 261.438473 
L 1120.667397 267.597096 
L 1122.006731 272.333729 
L 1123.346065 270.942933 
L 1124.685399 274.132571 
L 1126.024733 273.852412 
L 1127.364067 272.910483 
L 1128.703401 270.205832 
L 1130.042735 269.593634 
L 1131.382069 268.802652 
L 1132.721402 267.79743 
L 1134.060736 270.310284 
L 1135.40007 273.327728 
L 1136.739404 272.085766 
L 1138.078738 271.336981 
L 1139.418072 267.542151 
L 1140.757406 266.190995 
L 1142.09674 265.27514 
L 1143.436074 265.406372 
L 1144.775408 267.937522 
L 1146.114742 270.029229 
L 1147.454076 273.044165 
L 1148.79341 276.684894 
L 1150.132744 279.621764 
L 1151.472078 279.922299 
L 1152.811411 282.568207 
L 1154.150745 284.361685 
L 1155.490079 285.201347 
L 1156.829413 283.79737 
L 1158.168747 281.155542 
L 1159.508081 282.559054 
L 1160.847415 284.824551 
L 1162.186749 283.824924 
L 1163.526083 286.434626 
L 1164.865417 286.606451 
L 1166.204751 285.501821 
L 1167.544085 285.129083 
L 1168.883419 285.345499 
L 1170.222753 284.178039 
L 1171.562087 286.673978 
L 1172.90142 286.768691 
L 1174.240754 285.987807 
L 1175.580088 286.679597 
L 1176.919422 285.268443 
L 1179.59809 261.000194 
L 1180.937424 285.992501 
L 1182.276758 287.527863 
L 1183.616092 285.750369 
L 1184.955426 283.700444 
L 1186.29476 283.532039 
L 1187.634094 281.537818 
L 1188.973428 276.712682 
L 1190.312762 281.237712 
L 1191.652096 281.862722 
L 1192.991429 283.038402 
L 1194.330763 286.277511 
L 1195.670097 288.47308 
L 1197.009431 289.585291 
L 1198.348765 288.74207 
L 1199.688099 287.701439 
L 1201.027433 289.438263 
L 1202.366767 290.615536 
L 1203.706101 291.413528 
L 1205.045435 291.578419 
L 1206.384769 290.845102 
L 1207.724103 291.569136 
L 1209.063437 292.059908 
L 1211.742105 292.618057 
L 1213.081438 292.394886 
L 1214.420772 289.894473 
L 1215.760106 286.040377 
L 1217.09944 288.312343 
L 1218.438774 289.100324 
L 1219.778108 287.568261 
L 1221.117442 287.374864 
L 1222.456776 286.774704 
L 1223.79611 288.058064 
L 1225.135444 286.861784 
L 1226.474778 287.648021 
L 1227.814112 288.650026 
L 1229.153446 287.639048 
L 1230.49278 289.019958 
L 1231.832114 289.110898 
L 1233.171447 288.889581 
L 1234.510781 284.231188 
L 1235.850115 283.422724 
L 1237.189449 286.538016 
L 1238.528783 287.89763 
L 1241.207451 284.24635 
L 1242.546785 285.875197 
L 1243.886119 287.824365 
L 1245.225453 287.548459 
L 1246.564787 286.892372 
L 1247.904121 288.513838 
L 1249.243455 288.39182 
L 1251.922123 288.976994 
L 1253.261456 286.63958 
L 1254.60079 288.718501 
L 1255.940124 290.127659 
L 1257.279458 291.082831 
L 1258.618792 291.730275 
L 1259.958126 292.169134 
L 1262.636794 292.668241 
L 1263.976128 291.300859 
L 1265.315462 286.617656 
L 1266.654796 286.730514 
L 1267.99413 286.337944 
L 1269.333464 288.514043 
L 1270.672798 289.989071 
L 1272.012132 290.988891 
L 1273.351465 289.786529 
L 1274.690799 283.242055 
L 1276.030133 281.155147 
L 1277.369467 283.779884 
L 1278.708801 286.78011 
L 1280.048135 288.813757 
L 1281.387469 290.192227 
L 1282.726803 291.126596 
L 1284.066137 291.759941 
L 1285.405471 292.189242 
L 1286.744805 291.352193 
L 1288.084139 287.87355 
L 1289.423473 288.333827 
L 1290.762807 289.490901 
L 1290.762807 289.490901 
" clip-path="url(#pd311458b2d)" style="fill: none; stroke: #ffa500; stroke-width: 1.5; stroke-linecap: square"/>
   </g>
   <g id="line2d_21">
    <path d="M 1290.762807 289.490901 
L 1292.102141 289.15694 
L 1293.441474 289.239201 
L 1294.780808 289.218939 
L 1296.120142 289.22393 
L 1297.459476 289.2227 
L 1298.79881 289.223003 
L 1300.138144 289.222929 
L 1301.477478 289.222947 
L 1302.816812 289.222942 
L 1304.156146 289.222944 
L 1305.49548 289.222943 
L 1306.834814 289.222943 
L 1308.174148 289.222943 
" clip-path="url(#pd311458b2d)" style="fill: none; stroke: #ff0000; stroke-width: 1.5; stroke-linecap: square"/>
   </g>
   <g id="patch_3">
    <path d="M 29.846875 367.701 
L 29.846875 35.061 
" style="fill: none; stroke: #000000; stroke-width: 0.8; stroke-linejoin: miter; stroke-linecap: square"/>
   </g>
   <g id="patch_4">
    <path d="M 1369.046875 367.701 
L 1369.046875 35.061 
" style="fill: none; stroke: #000000; stroke-width: 0.8; stroke-linejoin: miter; stroke-linecap: square"/>
   </g>
   <g id="patch_5">
    <path d="M 29.846875 367.701 
L 1369.046875 367.701 
" style="fill: none; stroke: #000000; stroke-width: 0.8; stroke-linejoin: miter; stroke-linecap: square"/>
   </g>
   <g id="patch_6">
    <path d="M 29.846875 35.061 
L 1369.046875 35.061 
" style="fill: none; stroke: #000000; stroke-width: 0.8; stroke-linejoin: miter; stroke-linecap: square"/>
   </g>
   <g id="text_19">
    <!-- 每日新增预测 - 云南 -->
    <g transform="translate(646.049688 17.041875)scale(0.12 -0.12)">
     <defs>
      <path id="WenQuanYiZenHei-6bcf" d="M 6138 2181 
Q 6113 1988 6138 1800 
Q 5788 1819 5438 1819 
L 4975 1819 
L 4863 738 
L 5806 738 
L 5806 394 
L 4831 394 
L 4775 -144 
Q 4719 -563 4350 -725 
Q 4013 -856 3550 -825 
L 3288 -819 
Q 3331 -663 3275 -519 
Q 3219 -375 3113 -288 
Q 3381 -313 3759 -303 
Q 4138 -294 4231 -238 
Q 4338 -163 4350 88 
L 4381 394 
L 1025 394 
L 1244 1819 
L 813 1819 
Q 463 1819 113 1800 
Q 138 1988 113 2181 
Q 463 2163 813 2163 
L 1294 2163 
L 1488 3431 
L 1488 3581 
L 1506 3581 
L 1513 3613 
L 1713 3581 
L 5156 3581 
L 5013 2163 
L 5438 2163 
Q 5788 2163 6138 2181 
z
M 5588 4463 
Q 5569 4269 5588 4081 
Q 5244 4100 4894 4100 
L 1813 4100 
Q 1344 3463 606 2788 
Q 481 2988 256 3069 
Q 744 3494 1116 3972 
Q 1488 4450 1919 5181 
Q 2119 5044 2344 4950 
Q 2213 4688 2050 4444 
L 4894 4444 
Q 5238 4444 5588 4463 
z
M 2844 3238 
L 1906 3238 
L 1744 2163 
L 3244 2163 
L 2581 3038 
L 2844 3238 
z
M 3250 2163 
L 4563 2163 
L 4669 3238 
L 3044 3238 
L 3638 2456 
L 3250 2163 
z
M 2944 1819 
Q 3275 1394 3550 938 
L 3213 738 
L 4419 738 
L 4525 1819 
L 2944 1819 
z
M 2656 1819 
L 1694 1819 
L 1525 738 
L 3094 738 
Q 2806 1219 2450 1650 
L 2656 1819 
z
" transform="scale(0.015625)"/>
      <path id="WenQuanYiZenHei-65e5" d="M 1494 -775 
Q 1244 -750 988 -775 
Q 1013 -313 1013 156 
L 1013 4875 
L 5269 4875 
L 5269 -763 
L 4813 -763 
L 4813 156 
L 1469 156 
Q 1469 -313 1494 -775 
z
M 4813 2700 
L 4813 4500 
L 1469 4500 
L 1469 2700 
L 4813 2700 
z
M 4813 531 
L 4813 2325 
L 1469 2325 
L 1469 531 
L 4813 531 
z
" transform="scale(0.015625)"/>
      <path id="WenQuanYiZenHei-65b0" d="M 5419 -763 
Q 5188 -738 4963 -763 
Q 4981 -344 4981 75 
L 4981 2819 
L 4188 2819 
L 4188 1706 
Q 4188 63 3163 -738 
Q 3019 -519 2769 -469 
Q 3769 131 3769 1706 
L 3769 4769 
L 3875 4769 
L 3844 4831 
L 4294 4781 
Q 4438 4769 4894 4816 
Q 5350 4863 5512 4931 
Q 5675 5000 5763 5094 
Q 5850 4881 5981 4694 
Q 5713 4544 5263 4519 
L 4188 4438 
L 4188 3100 
L 5563 3100 
Q 5850 3100 6131 3113 
Q 6119 2956 6131 2806 
L 5394 2819 
L 5394 75 
Q 5394 -344 5419 -763 
z
M 2981 213 
Q 2656 744 2256 1225 
L 2606 1513 
Q 3025 1006 3369 450 
L 2981 213 
z
M 1169 1525 
Q 1375 1419 1594 1363 
Q 1281 488 469 -469 
Q 331 -300 119 -244 
Q 575 263 888 900 
Q 1038 1206 1169 1525 
z
M 1825 6 
L 1825 1769 
L 1081 1769 
Q 794 1769 513 1756 
Q 525 1913 513 2063 
Q 794 2050 1081 2050 
L 1825 2050 
L 1825 2775 
L 994 2775 
Q 706 2775 425 2763 
Q 438 2919 425 3075 
Q 706 3056 994 3056 
L 1825 3056 
L 1825 3088 
L 1906 3088 
Q 2288 3656 2588 4381 
Q 2794 4269 3013 4206 
Q 2800 3675 2381 3056 
L 3013 3056 
Q 3294 3056 3581 3075 
Q 3563 2919 3581 2763 
Q 3294 2775 3013 2775 
L 2238 2775 
L 2238 2050 
L 2925 2050 
Q 3206 2050 3494 2063 
Q 3475 1913 3494 1756 
Q 3206 1769 2925 1769 
L 2238 1769 
L 2238 -156 
Q 2238 -413 2075 -581 
Q 1844 -794 1306 -794 
Q 1363 -519 1188 -288 
Q 1338 -313 1534 -316 
Q 1731 -319 1778 -278 
Q 1825 -238 1825 6 
z
M 1875 3388 
L 1500 3131 
L 825 4088 
L 1200 4350 
L 1875 3388 
z
M 3419 4713 
Q 3400 4563 3419 4406 
Q 3131 4419 2850 4419 
L 1125 4419 
Q 838 4419 556 4406 
Q 569 4563 556 4713 
Q 838 4700 1125 4700 
L 1763 4700 
L 1388 5088 
L 1719 5406 
L 2288 4813 
L 2175 4700 
L 2850 4700 
Q 3131 4700 3419 4713 
z
" transform="scale(0.015625)"/>
      <path id="WenQuanYiZenHei-589e" d="M 3138 -769 
Q 2913 -744 2688 -769 
Q 2706 -356 2706 56 
L 2706 1719 
L 5706 1719 
L 5706 -756 
L 5300 -756 
L 5300 -338 
L 3119 -338 
Q 3125 -550 3138 -769 
z
M 5113 3569 
Q 5344 3606 5563 3688 
Q 5669 3175 5256 2694 
Q 5113 2519 4975 2506 
Q 4831 2725 4588 2813 
Q 4806 2831 4997 3068 
Q 5188 3306 5113 3569 
z
M 3850 2763 
L 3469 2538 
L 2925 3456 
L 3313 3681 
L 3850 2763 
z
M 2400 2100 
Q 2469 3138 2400 4175 
L 3413 4175 
Q 3138 4550 2825 4888 
L 3156 5194 
Q 3581 4725 3938 4206 
L 3900 4175 
L 4456 4175 
Q 4863 4575 5131 5163 
Q 5325 5044 5538 4975 
Q 5369 4575 5013 4175 
L 6056 4175 
Q 5981 3138 6056 2100 
L 2400 2100 
z
M 5300 806 
L 5300 1450 
L 3113 1450 
Q 3113 1125 3113 806 
L 5300 806 
z
M 5300 563 
L 3113 563 
L 3113 -94 
L 5300 -94 
L 5300 563 
z
M 4431 3913 
L 4431 2363 
L 5650 2363 
L 5650 3913 
L 4756 3913 
L 4700 3856 
Q 4681 3888 4656 3913 
L 4431 3913 
z
M 4025 3913 
L 2806 3913 
L 2806 2363 
L 4025 2363 
L 4025 3913 
z
M -31 625 
Q 506 763 1006 975 
L 1006 3206 
L 669 3206 
Q 369 3206 75 3188 
Q 94 3356 75 3531 
Q 369 3513 669 3513 
L 1006 3513 
L 1006 4263 
Q 1006 4700 981 5131 
Q 1206 5106 1431 5131 
Q 1413 4700 1413 4263 
L 1413 3513 
L 2238 3531 
Q 2219 3356 2238 3188 
L 1413 3206 
L 1413 1163 
L 2150 1531 
L 2194 1256 
Q 1269 775 813 519 
L 194 144 
Q 138 438 -31 625 
z
" transform="scale(0.015625)"/>
      <path id="WenQuanYiZenHei-9884" d="M 1206 19 
L 1206 2888 
L 669 2888 
Q 356 2888 50 2869 
Q 63 3044 50 3213 
Q 363 3194 669 3194 
L 1250 3194 
Q 950 3631 606 4031 
L 963 4338 
L 1263 3975 
L 1913 4719 
L 731 4719 
Q 419 4719 106 4706 
Q 125 4875 106 5044 
Q 419 5031 731 5031 
L 2481 5031 
L 2544 4663 
Q 2394 4613 2256 4466 
Q 2119 4319 1525 3631 
Q 1656 3444 1788 3250 
L 1700 3194 
L 2700 3194 
L 2763 2825 
Q 2656 2819 2613 2763 
L 2100 2038 
L 1750 2288 
L 2175 2888 
L 1638 2888 
L 1638 -150 
Q 1638 -525 1363 -669 
Q 1075 -819 525 -813 
Q 594 -513 388 -294 
Q 575 -313 837 -316 
Q 1100 -319 1153 -272 
Q 1206 -225 1206 19 
z
M 5813 -888 
Q 5100 -225 4306 375 
L 4669 719 
Q 5481 106 6219 -575 
L 5813 -888 
z
M 2375 -906 
Q 2294 -631 2025 -506 
Q 2769 -431 3353 19 
Q 3938 469 3938 1069 
L 3938 2200 
Q 3938 2625 3913 3050 
Q 4188 3025 4456 3050 
Q 4431 2625 4431 2200 
L 4431 1069 
Q 4431 681 4225 319 
Q 3644 -606 2375 -906 
z
M 3444 488 
Q 3169 513 2894 488 
Q 2919 913 2919 1338 
L 2919 3675 
Q 3219 3675 3525 3675 
Q 3750 4013 3931 4525 
L 3238 4525 
Q 2888 4525 2538 4513 
Q 2556 4669 2538 4831 
Q 2888 4813 3238 4813 
L 5313 4813 
Q 5663 4813 6006 4831 
Q 5988 4669 6006 4513 
Q 5663 4525 5313 4525 
L 4481 4525 
Q 4388 4088 4088 3675 
L 5644 3675 
L 5644 513 
L 5144 513 
L 5144 3388 
L 3894 3388 
L 3875 3363 
Q 3863 3375 3844 3388 
Q 3631 3388 3413 3388 
L 3419 1338 
Q 3419 913 3444 488 
z
" transform="scale(0.015625)"/>
      <path id="WenQuanYiZenHei-6d4b" d="M 5450 138 
L 5450 4306 
Q 5450 4750 5425 5188 
Q 5663 5163 5906 5188 
Q 5881 4750 5881 4306 
L 5881 -38 
Q 5888 -569 5519 -719 
Q 5194 -831 4825 -813 
Q 4894 -519 4694 -281 
Q 4869 -306 5094 -309 
Q 5319 -313 5384 -256 
Q 5450 -200 5450 138 
z
M 4900 938 
Q 4663 963 4419 938 
Q 4444 1375 4444 1819 
L 4444 3381 
Q 4444 3819 4419 4263 
Q 4663 4238 4900 4263 
Q 4875 3819 4875 3381 
L 4875 1819 
Q 4875 1375 4900 938 
z
M 2750 2025 
L 2750 3038 
Q 2750 3481 2725 3919 
Q 2963 3894 3206 3919 
Q 3181 3481 3181 3038 
L 3181 2025 
Q 3181 1263 2919 625 
L 3231 956 
Q 3781 431 4256 -150 
L 3888 -456 
Q 3431 106 2906 600 
Q 2531 -288 1738 -769 
Q 1606 -519 1338 -450 
Q 1988 -156 2369 478 
Q 2750 1113 2750 2025 
z
M 2363 969 
Q 2119 994 1881 969 
Q 1906 1406 1906 1850 
L 1906 5038 
L 3956 5031 
L 3956 1200 
L 3525 1200 
L 3525 4713 
L 2338 4713 
L 2338 1850 
Q 2338 1406 2363 969 
z
M 663 -738 
Q 481 -588 206 -575 
Q 400 -69 606 581 
Q 813 1231 1200 2838 
L 1381 2706 
L 875 338 
L 663 -738 
z
M 1006 2856 
L 731 2550 
L 75 3400 
L 350 3713 
L 1006 2856 
z
M 1088 3913 
Q 781 4388 425 4800 
L 694 5125 
Q 1069 4688 1388 4188 
L 1088 3913 
z
" transform="scale(0.015625)"/>
      <path id="WenQuanYiZenHei-20" transform="scale(0.015625)"/>
      <path id="WenQuanYiZenHei-4e91" d="M 1094 2394 
Q 713 2394 331 2375 
Q 350 2581 331 2788 
Q 713 2769 1094 2769 
L 5206 2769 
Q 5588 2769 5969 2788 
Q 5944 2581 5969 2375 
Q 5588 2394 5206 2394 
L 3031 2394 
Q 2888 2156 2463 1519 
L 1388 -63 
L 4150 163 
L 4538 213 
L 3713 1500 
L 4131 1781 
L 4894 613 
L 5613 -594 
L 5175 -844 
L 4756 -144 
L 4181 -175 
L 750 -500 
L 719 -125 
Q 863 -100 956 19 
Q 1169 313 1659 1088 
Q 2150 1863 2419 2394 
L 1094 2394 
z
M 5250 4656 
Q 5225 4450 5250 4244 
Q 4869 4263 4488 4263 
L 1706 4263 
Q 1325 4263 944 4244 
Q 963 4450 944 4656 
Q 1325 4638 1706 4638 
L 4488 4638 
Q 4869 4638 5250 4656 
z
" transform="scale(0.015625)"/>
      <path id="WenQuanYiZenHei-5357" d="M 3363 -769 
Q 3125 -744 2888 -769 
Q 2906 -325 2906 113 
L 2906 700 
L 1906 700 
Q 1581 700 1263 681 
Q 1281 856 1263 1031 
Q 1581 1019 1906 1019 
L 2906 1019 
L 2906 1619 
L 2050 1619 
Q 1731 1619 1406 1606 
Q 1425 1781 1406 1956 
L 2281 1938 
Q 2013 2375 1694 2781 
L 2000 3025 
L 1013 3025 
L 1019 131 
Q 1019 -306 1044 -750 
Q 800 -725 563 -750 
Q 588 -306 581 131 
L 581 3344 
L 2906 3344 
L 2906 4075 
L 763 4075 
Q 438 4075 119 4056 
Q 131 4231 119 4406 
Q 438 4394 763 4394 
L 2906 4394 
Q 2906 4825 2888 5256 
Q 3125 5231 3363 5256 
Q 3344 4825 3344 4394 
L 5488 4394 
Q 5813 4394 6131 4406 
Q 6119 4231 6131 4056 
Q 5813 4075 5488 4075 
L 3344 4075 
L 3344 3344 
L 5663 3344 
L 5663 -125 
Q 5663 -506 5388 -650 
Q 5100 -806 4544 -800 
Q 4613 -494 4400 -269 
Q 4594 -294 4856 -297 
Q 5119 -300 5175 -253 
Q 5231 -206 5231 50 
L 5231 3025 
L 4063 3025 
Q 4238 2894 4431 2800 
Q 4269 2525 3831 1938 
L 4200 1938 
Q 4519 1938 4844 1956 
Q 4825 1781 4844 1606 
Q 4519 1619 4200 1619 
L 3600 1619 
Q 3588 1588 3569 1619 
L 3344 1619 
L 3344 1019 
L 4344 1019 
Q 4669 1019 4988 1031 
Q 4969 856 4988 681 
Q 4669 700 4344 700 
L 3344 700 
L 3344 113 
Q 3344 -325 3363 -769 
z
M 3300 1938 
Q 3394 2063 3475 2181 
L 4006 3025 
L 2113 3025 
Q 2500 2525 2819 1975 
L 2750 1938 
L 3300 1938 
z
" transform="scale(0.015625)"/>
     </defs>
     <use xlink:href="#WenQuanYiZenHei-6bcf"/>
     <use xlink:href="#WenQuanYiZenHei-65e5" x="100"/>
     <use xlink:href="#WenQuanYiZenHei-65b0" x="200"/>
     <use xlink:href="#WenQuanYiZenHei-589e" x="300"/>
     <use xlink:href="#WenQuanYiZenHei-9884" x="400"/>
     <use xlink:href="#WenQuanYiZenHei-6d4b" x="500"/>
     <use xlink:href="#WenQuanYiZenHei-20" x="600"/>
     <use xlink:href="#WenQuanYiZenHei-2d" x="629.980469"/>
     <use xlink:href="#WenQuanYiZenHei-20" x="659.960938"/>
     <use xlink:href="#WenQuanYiZenHei-4e91" x="689.941406"/>
     <use xlink:href="#WenQuanYiZenHei-5357" x="789.941406"/>
    </g>
    <!-- ARIMA (1, 1, 1)x(0, 0, 0, 7) (R2 = 0.191512) -->
    <g transform="translate(580.839063 29.061)scale(0.12 -0.12)">
     <defs>
      <path id="WenQuanYiZenHei-41" d="M 3550 0 
L 2988 0 
L 2550 1281 
L 919 1281 
L 531 0 
L 69 0 
L 1494 4388 
L 2125 4388 
L 3550 0 
z
M 2425 1694 
L 1756 3800 
L 1075 1694 
L 2425 1694 
z
" transform="scale(0.015625)"/>
      <path id="WenQuanYiZenHei-52" d="M 3675 0 
L 3100 0 
L 2288 1900 
L 1069 1900 
L 1069 0 
L 519 0 
L 519 4388 
L 2163 4388 
Q 3006 4388 3400 3900 
Q 3581 3663 3625 3325 
Q 3631 3250 3631 3163 
Q 3631 2594 3219 2244 
Q 3038 2100 2813 2038 
L 3675 0 
z
M 3081 3169 
Q 3081 3825 2356 3906 
Q 2263 3919 2163 3919 
L 1069 3919 
L 1069 2350 
L 2100 2350 
Q 2906 2350 3044 2919 
Q 3081 3031 3081 3169 
z
" transform="scale(0.015625)"/>
      <path id="WenQuanYiZenHei-49" d="M 1100 0 
L 550 0 
L 550 4388 
L 1100 4388 
L 1100 0 
z
" transform="scale(0.015625)"/>
      <path id="WenQuanYiZenHei-4d" d="M 4756 0 
L 4206 0 
L 4206 3831 
L 4181 3831 
L 2788 0 
L 2419 0 
L 1000 3831 
L 975 3831 
L 975 0 
L 513 0 
L 513 4388 
L 1331 4388 
L 2656 875 
L 3950 4388 
L 4756 4388 
L 4756 0 
z
" transform="scale(0.015625)"/>
      <path id="WenQuanYiZenHei-28" d="M 1606 -1094 
L 1275 -1094 
Q 475 -100 338 1231 
Q 319 1438 319 1656 
Q 319 3031 1156 4244 
Q 1213 4313 1269 4388 
L 1600 4388 
Q 806 3169 794 1681 
Q 794 188 1606 -1094 
z
" transform="scale(0.015625)"/>
      <path id="WenQuanYiZenHei-2c" d="M 1363 75 
L 881 -825 
L 606 -825 
L 994 0 
L 656 0 
L 656 738 
L 1363 738 
L 1363 75 
z
" transform="scale(0.015625)"/>
      <path id="WenQuanYiZenHei-29" d="M 1600 1656 
Q 1600 306 869 -788 
Q 769 -950 644 -1094 
L 313 -1094 
Q 1125 188 1125 1681 
Q 1125 3169 338 4363 
Q 325 4375 319 4388 
L 650 4388 
Q 1525 3231 1594 1863 
Q 1600 1763 1600 1656 
z
" transform="scale(0.015625)"/>
      <path id="WenQuanYiZenHei-78" d="M 2806 0 
L 2213 0 
L 1394 1319 
L 544 0 
L 50 0 
L 1144 1681 
L 163 3250 
L 744 3250 
L 1431 2138 
L 2144 3250 
L 2631 3250 
L 1681 1794 
L 2806 0 
z
" transform="scale(0.015625)"/>
      <path id="WenQuanYiZenHei-3d" d="M 3569 2256 
L 263 2256 
L 263 2675 
L 3569 2675 
L 3569 2256 
z
M 3569 1019 
L 263 1019 
L 263 1431 
L 3569 1431 
L 3569 1019 
z
" transform="scale(0.015625)"/>
      <path id="WenQuanYiZenHei-2e" d="M 1344 0 
L 631 0 
L 631 725 
L 1344 725 
L 1344 0 
z
" transform="scale(0.015625)"/>
      <path id="WenQuanYiZenHei-39" d="M 3544 2300 
Q 3544 1163 3019 513 
Q 2563 -63 1775 -63 
Q 956 -63 563 488 
Q 463 631 394 813 
L 838 975 
Q 1025 494 1550 388 
Q 1656 369 1775 369 
Q 2594 369 2900 1325 
Q 3044 1769 3038 2313 
L 3025 2313 
Q 2675 1638 1944 1544 
Q 1844 1531 1744 1531 
Q 1050 1531 625 2031 
Q 294 2419 294 2963 
Q 294 3656 813 4094 
Q 1238 4456 1819 4456 
Q 2988 4456 3381 3363 
Q 3544 2900 3544 2300 
z
M 2925 2994 
Q 2925 3563 2469 3844 
Q 2206 4006 1863 4006 
Q 1275 4006 988 3563 
Q 844 3344 825 3056 
Q 819 3006 819 2956 
Q 819 2413 1269 2131 
Q 1538 1963 1875 1963 
Q 2363 1963 2681 2350 
Q 2925 2638 2925 2994 
z
" transform="scale(0.015625)"/>
     </defs>
     <use xlink:href="#WenQuanYiZenHei-41"/>
     <use xlink:href="#WenQuanYiZenHei-52" x="55.957031"/>
     <use xlink:href="#WenQuanYiZenHei-49" x="117.871094"/>
     <use xlink:href="#WenQuanYiZenHei-4d" x="143.847656"/>
     <use xlink:href="#WenQuanYiZenHei-41" x="225.78125"/>
     <use xlink:href="#WenQuanYiZenHei-20" x="281.738281"/>
     <use xlink:href="#WenQuanYiZenHei-28" x="311.71875"/>
     <use xlink:href="#WenQuanYiZenHei-31" x="341.699219"/>
     <use xlink:href="#WenQuanYiZenHei-2c" x="401.660156"/>
     <use xlink:href="#WenQuanYiZenHei-20" x="431.640625"/>
     <use xlink:href="#WenQuanYiZenHei-31" x="461.621094"/>
     <use xlink:href="#WenQuanYiZenHei-2c" x="521.582031"/>
     <use xlink:href="#WenQuanYiZenHei-20" x="551.5625"/>
     <use xlink:href="#WenQuanYiZenHei-31" x="581.542969"/>
     <use xlink:href="#WenQuanYiZenHei-29" x="641.503906"/>
     <use xlink:href="#WenQuanYiZenHei-78" x="671.484375"/>
     <use xlink:href="#WenQuanYiZenHei-28" x="715.429688"/>
     <use xlink:href="#WenQuanYiZenHei-30" x="745.410156"/>
     <use xlink:href="#WenQuanYiZenHei-2c" x="805.371094"/>
     <use xlink:href="#WenQuanYiZenHei-20" x="835.351562"/>
     <use xlink:href="#WenQuanYiZenHei-30" x="865.332031"/>
     <use xlink:href="#WenQuanYiZenHei-2c" x="925.292969"/>
     <use xlink:href="#WenQuanYiZenHei-20" x="955.273438"/>
     <use xlink:href="#WenQuanYiZenHei-30" x="985.253906"/>
     <use xlink:href="#WenQuanYiZenHei-2c" x="1045.214844"/>
     <use xlink:href="#WenQuanYiZenHei-20" x="1075.195312"/>
     <use xlink:href="#WenQuanYiZenHei-37" x="1105.175781"/>
     <use xlink:href="#WenQuanYiZenHei-29" x="1165.136719"/>
     <use xlink:href="#WenQuanYiZenHei-20" x="1195.117188"/>
     <use xlink:href="#WenQuanYiZenHei-28" x="1225.097656"/>
     <use xlink:href="#WenQuanYiZenHei-52" x="1255.078125"/>
     <use xlink:href="#WenQuanYiZenHei-32" x="1316.992188"/>
     <use xlink:href="#WenQuanYiZenHei-20" x="1376.953125"/>
     <use xlink:href="#WenQuanYiZenHei-3d" x="1406.933594"/>
     <use xlink:href="#WenQuanYiZenHei-20" x="1466.894531"/>
     <use xlink:href="#WenQuanYiZenHei-30" x="1496.875"/>
     <use xlink:href="#WenQuanYiZenHei-2e" x="1556.835938"/>
     <use xlink:href="#WenQuanYiZenHei-31" x="1586.816406"/>
     <use xlink:href="#WenQuanYiZenHei-39" x="1646.777344"/>
     <use xlink:href="#WenQuanYiZenHei-31" x="1706.738281"/>
     <use xlink:href="#WenQuanYiZenHei-35" x="1766.699219"/>
     <use xlink:href="#WenQuanYiZenHei-31" x="1826.660156"/>
     <use xlink:href="#WenQuanYiZenHei-32" x="1886.621094"/>
     <use xlink:href="#WenQuanYiZenHei-29" x="1946.582031"/>
    </g>
   </g>
   <g id="legend_1">
    <g id="patch_7">
     <path d="M 1300.046875 87.056312 
L 1362.046875 87.056312 
Q 1364.046875 87.056312 1364.046875 85.056312 
L 1364.046875 42.061 
Q 1364.046875 40.061 1362.046875 40.061 
L 1300.046875 40.061 
Q 1298.046875 40.061 1298.046875 42.061 
L 1298.046875 85.056312 
Q 1298.046875 87.056312 1300.046875 87.056312 
z
" style="fill: #ffffff; opacity: 0.8; stroke: #cccccc; stroke-linejoin: miter"/>
    </g>
    <g id="line2d_22">
     <path d="M 1302.046875 48.695375 
L 1312.046875 48.695375 
L 1322.046875 48.695375 
" style="fill: none; stroke: #0000ff; stroke-width: 1.5; stroke-linecap: square"/>
    </g>
    <g id="text_20">
     <!-- 实际值 -->
     <g transform="translate(1330.046875 52.195375)scale(0.1 -0.1)">
      <defs>
       <path id="WenQuanYiZenHei-5b9e" d="M 1025 1175 
Q 694 1175 356 1163 
Q 375 1344 356 1525 
Q 694 1506 1025 1506 
L 3363 1506 
L 3363 2625 
Q 3363 3075 3338 3519 
Q 3581 3494 3825 3519 
Q 3800 3075 3800 2625 
L 3800 1506 
L 5406 1506 
Q 5744 1506 6075 1525 
Q 6056 1344 6075 1163 
Q 5744 1175 5406 1175 
L 4038 1175 
L 4981 456 
L 6131 -488 
L 5819 -856 
L 4681 75 
L 3638 875 
Q 3313 231 2475 -231 
Q 1638 -694 700 -825 
Q 638 -519 344 -400 
Q 1450 -319 2406 244 
Q 3113 656 3300 1175 
L 1025 1175 
z
M 2263 1581 
Q 1763 2081 1200 2513 
L 1494 2894 
Q 2081 2444 2600 1919 
L 2263 1581 
z
M 2638 2500 
Q 2219 2963 1731 3363 
L 2044 3738 
Q 2556 3313 3000 2819 
L 2638 2500 
z
M 919 3156 
L 481 3156 
L 481 4344 
L 3069 4344 
Q 2794 4731 2469 5081 
L 2825 5413 
Q 3256 4944 3613 4413 
L 3513 4344 
L 5869 4344 
L 5869 3156 
L 5425 3156 
L 5425 4013 
L 919 4013 
L 919 3156 
z
" transform="scale(0.015625)"/>
       <path id="WenQuanYiZenHei-9645" d="M 6000 431 
L 5569 194 
L 4963 1219 
L 4313 2219 
L 4719 2494 
L 5375 1481 
L 6000 431 
z
M 2956 2450 
Q 3181 2344 3419 2294 
Q 3006 1038 1944 -188 
Q 1794 -6 1569 56 
Q 2069 600 2372 1156 
Q 2675 1713 2956 2450 
z
M 3750 25 
L 3750 2913 
L 2819 2913 
Q 2475 2913 2125 2894 
Q 2144 3081 2125 3269 
Q 2475 3256 2819 3256 
L 5469 3256 
Q 5819 3256 6163 3269 
Q 6144 3081 6163 2894 
Q 5813 2913 5469 2913 
L 4194 2913 
L 4194 -144 
Q 4194 -725 3456 -813 
L 3263 -825 
Q 3325 -506 3125 -250 
Q 3250 -281 3394 -306 
Q 3663 -313 3706 -272 
Q 3750 -231 3750 25 
z
M 5544 4950 
Q 5525 4756 5544 4569 
Q 5194 4588 4844 4588 
L 3325 4588 
Q 2975 4588 2625 4569 
Q 2644 4756 2625 4950 
Q 2975 4931 3325 4931 
L 4844 4931 
Q 5194 4931 5544 4950 
z
M 819 -850 
Q 581 -825 344 -850 
Q 369 -419 369 19 
L 363 4938 
L 2256 4938 
L 2256 4625 
Q 2150 4513 2075 4375 
L 1481 3238 
Q 2181 2319 2181 1156 
Q 2144 400 1569 163 
L 1406 88 
Q 1288 300 1138 481 
Q 1294 538 1450 606 
Q 1763 744 1794 1156 
Q 1794 1744 1600 2300 
Q 1406 2856 1038 3313 
L 1725 4625 
L 788 4625 
L 794 19 
Q 794 -419 819 -850 
z
" transform="scale(0.015625)"/>
       <path id="WenQuanYiZenHei-503c" d="M 6175 -219 
Q 6156 -388 6175 -556 
Q 5863 -544 5550 -544 
L 2313 -544 
Q 2000 -544 1688 -556 
Q 1706 -388 1688 -219 
L 2506 -231 
L 2506 3469 
L 3644 3469 
L 3644 4119 
L 2638 4119 
Q 2325 4119 2013 4100 
Q 2031 4269 2013 4438 
Q 2325 4425 2638 4425 
L 3638 4425 
Q 3638 4719 3619 5013 
Q 3856 4988 4094 5013 
Q 4075 4719 4075 4425 
L 5344 4425 
Q 5650 4425 5963 4438 
Q 5950 4269 5963 4100 
Q 5656 4119 5344 4119 
L 4069 4119 
L 4069 3469 
L 5300 3469 
L 5300 -231 
L 5550 -231 
Q 5863 -231 6175 -219 
z
M 4869 2556 
L 4869 3156 
L 2931 3156 
Q 2931 2850 2931 2556 
L 4869 2556 
z
M 4869 1669 
L 4869 2250 
L 2931 2250 
L 2931 1669 
L 4869 1669 
z
M 4869 731 
L 4869 1363 
L 2931 1363 
L 2931 731 
L 4869 731 
z
M 4869 -231 
L 4869 425 
L 2931 425 
L 2931 -231 
L 4869 -231 
z
M 2106 4925 
Q 1856 4075 1463 3338 
L 1463 31 
Q 1463 -413 1481 -850 
Q 1256 -825 1031 -850 
Q 1050 -413 1050 31 
L 1050 2681 
Q 750 2269 375 1931 
Q 238 2156 0 2256 
Q 331 2544 619 2875 
Q 1094 3425 1300 3950 
Q 1494 4469 1625 5050 
Q 1850 4963 2106 4925 
z
" transform="scale(0.015625)"/>
      </defs>
      <use xlink:href="#WenQuanYiZenHei-5b9e"/>
      <use xlink:href="#WenQuanYiZenHei-9645" x="100"/>
      <use xlink:href="#WenQuanYiZenHei-503c" x="200"/>
     </g>
    </g>
    <g id="line2d_23">
     <path d="M 1302.046875 63.3735 
L 1312.046875 63.3735 
L 1322.046875 63.3735 
" style="fill: none; stroke: #ffa500; stroke-width: 1.5; stroke-linecap: square"/>
    </g>
    <g id="text_21">
     <!-- 校验值 -->
     <g transform="translate(1330.046875 66.8735)scale(0.1 -0.1)">
      <defs>
       <path id="WenQuanYiZenHei-6821" d="M 5256 2463 
Q 5025 1475 4494 706 
Q 5125 -94 6175 -544 
Q 5950 -663 5850 -900 
Q 4906 -494 4250 381 
Q 3931 0 3475 -350 
Q 3019 -700 2388 -919 
Q 2338 -656 2138 -475 
Q 3306 -69 4006 738 
Q 3563 1444 3300 2331 
Q 3050 2050 2706 1800 
Q 2606 2000 2406 2106 
Q 2900 2444 3181 2938 
Q 3350 3225 3488 3538 
Q 3700 3431 3925 3369 
Q 3763 2894 3425 2475 
L 3650 2531 
Q 3888 1675 4244 1075 
Q 4469 1444 4603 1937 
Q 4738 2431 4775 2688 
Q 4963 2644 5150 2625 
Q 4919 2969 4663 3294 
L 5038 3588 
Q 5544 2925 5975 2213 
L 5569 1969 
L 5256 2463 
z
M 6006 4050 
Q 5988 3881 6006 3713 
Q 5694 3725 5381 3725 
L 3413 3725 
Q 3100 3725 2788 3713 
Q 2806 3881 2788 4050 
Q 3100 4031 3413 4031 
L 4325 4031 
Q 4019 4525 3644 4969 
L 4000 5275 
Q 4413 4788 4750 4244 
L 4406 4031 
L 5381 4031 
Q 5694 4031 6006 4050 
z
M 406 263 
Q 238 431 -25 469 
Q 194 825 466 1337 
Q 738 1850 925 2406 
Q 1113 2963 1256 3519 
L 825 3519 
Q 506 3519 188 3500 
Q 206 3700 188 3900 
Q 506 3881 825 3881 
L 1363 3881 
L 1363 4263 
Q 1363 4719 1338 5175 
Q 1556 5150 1775 5175 
Q 1756 4719 1756 4263 
L 1756 3881 
L 2525 3900 
Q 2506 3700 2525 3500 
L 1756 3519 
L 1756 2738 
L 1931 2881 
Q 2306 2300 2613 1650 
L 2231 1413 
Q 2081 1725 1919 2019 
L 1756 2300 
L 1756 69 
Q 1756 -388 1775 -850 
Q 1556 -825 1338 -850 
Q 1363 -388 1363 69 
L 1363 2438 
Q 925 1144 406 263 
z
" transform="scale(0.015625)"/>
       <path id="WenQuanYiZenHei-9a8c" d="M 5981 -106 
Q 5963 -275 5981 -444 
Q 5669 -431 5356 -431 
L 2969 -431 
Q 2656 -431 2350 -444 
Q 2363 -275 2350 -106 
Q 2656 -125 2969 -125 
L 4369 -125 
Q 4600 431 4881 1288 
L 5206 2300 
Q 5425 2206 5663 2163 
Q 5375 1188 4831 -125 
L 5356 -125 
Q 5669 -125 5981 -106 
z
M 4063 594 
Q 3788 1425 3425 2219 
L 3856 2419 
Q 4225 1600 4513 744 
L 4063 594 
z
M 3163 363 
Q 2931 1200 2613 2006 
L 3056 2175 
Q 3381 1350 3619 488 
L 3163 363 
z
M 4581 2550 
L 3513 2550 
Q 3200 2550 2888 2538 
Q 2900 2663 2894 2769 
Q 2569 2488 2206 2300 
Q 2113 2550 1894 2700 
Q 2488 2975 2975 3463 
Q 3269 3756 3394 4006 
Q 3644 4513 3794 5063 
Q 4038 4975 4294 4931 
Q 4250 4806 4206 4681 
Q 4475 3888 5025 3388 
Q 5519 2938 6169 2650 
Q 5938 2538 5838 2300 
Q 5513 2456 5200 2700 
Q 5200 2619 5206 2538 
Q 4894 2550 4581 2550 
z
M 3513 2863 
L 4994 2869 
Q 4344 3438 3988 4194 
Q 3594 3406 3013 2869 
Q 3263 2863 3513 2863 
z
M 206 444 
Q 188 756 44 963 
Q 319 956 650 1003 
Q 981 1050 1731 1281 
L 1738 1006 
Q 800 719 206 444 
z
M 525 4000 
Q 744 3950 994 3944 
Q 925 3519 875 3081 
L 763 2144 
L 1475 2144 
L 1831 4444 
L 663 4444 
Q 350 4444 38 4431 
Q 56 4600 38 4769 
Q 350 4756 663 4756 
L 2313 4756 
L 1913 2144 
L 2375 2144 
L 2200 -200 
Q 2188 -425 1988 -588 
Q 1694 -800 1181 -788 
L 944 -788 
Q 1000 -450 788 -269 
Q 1013 -294 1334 -287 
Q 1656 -281 1715 -243 
Q 1775 -206 1781 -50 
L 1925 1831 
L 294 1831 
L 444 3131 
Q 500 3569 525 4000 
z
" transform="scale(0.015625)"/>
      </defs>
      <use xlink:href="#WenQuanYiZenHei-6821"/>
      <use xlink:href="#WenQuanYiZenHei-9a8c" x="100"/>
      <use xlink:href="#WenQuanYiZenHei-503c" x="200"/>
     </g>
    </g>
    <g id="line2d_24">
     <path d="M 1302.046875 77.895375 
L 1312.046875 77.895375 
L 1322.046875 77.895375 
" style="fill: none; stroke: #ff0000; stroke-width: 1.5; stroke-linecap: square"/>
    </g>
    <g id="text_22">
     <!-- 预测值 -->
     <g transform="translate(1330.046875 81.395375)scale(0.1 -0.1)">
      <use xlink:href="#WenQuanYiZenHei-9884"/>
      <use xlink:href="#WenQuanYiZenHei-6d4b" x="100"/>
      <use xlink:href="#WenQuanYiZenHei-503c" x="200"/>
     </g>
    </g>
   </g>
  </g>
 </g>
 <defs>
  <clipPath id="pd311458b2d">
   <rect x="29.846875" y="35.061" width="1339.2" height="332.64"/>
  </clipPath>
 </defs>
</svg>
