<?xml version="1.0" encoding="utf-8" standalone="no"?>
<!DOCTYPE svg PUBLIC "-//W3C//DTD SVG 1.1//EN"
  "http://www.w3.org/Graphics/SVG/1.1/DTD/svg11.dtd">
<svg xmlns:xlink="http://www.w3.org/1999/xlink" width="1376.246875pt" height="390.418188pt" viewBox="0 0 1376.246875 390.418188" xmlns="http://www.w3.org/2000/svg" version="1.1">
 <metadata>
  <rdf:RDF xmlns:dc="http://purl.org/dc/elements/1.1/" xmlns:cc="http://creativecommons.org/ns#" xmlns:rdf="http://www.w3.org/1999/02/22-rdf-syntax-ns#">
   <cc:Work>
    <dc:type rdf:resource="http://purl.org/dc/dcmitype/StillImage"/>
    <dc:date>2022-07-22T18:21:24.708032</dc:date>
    <dc:format>image/svg+xml</dc:format>
    <dc:creator>
     <cc:Agent>
      <dc:title>Matplotlib v3.5.2, https://matplotlib.org/</dc:title>
     </cc:Agent>
    </dc:creator>
   </cc:Work>
  </rdf:RDF>
 </metadata>
 <defs>
  <style type="text/css">*{stroke-linejoin: round; stroke-linecap: butt}</style>
 </defs>
 <g id="figure_1">
  <g id="patch_1">
   <path d="M 0 390.418188 
L 1376.246875 390.418188 
L 1376.246875 -0 
L 0 -0 
z
" style="fill: #ffffff"/>
  </g>
  <g id="axes_1">
   <g id="patch_2">
    <path d="M 29.846875 367.701 
L 1369.046875 367.701 
L 1369.046875 35.061 
L 29.846875 35.061 
z
" style="fill: #ffffff"/>
   </g>
   <g id="matplotlib.axis_1">
    <g id="xtick_1">
     <g id="line2d_1">
      <defs>
       <path id="mad17560c0e" d="M 0 0 
L 0 3.5 
" style="stroke: #000000; stroke-width: 0.8"/>
      </defs>
      <g>
       <use xlink:href="#mad17560c0e" x="61.701184" y="367.701" style="stroke: #000000; stroke-width: 0.8"/>
      </g>
     </g>
     <g id="text_1">
      <!-- 2020-01 -->
      <g transform="translate(42.21134 381.55725)scale(0.1 -0.1)">
       <defs>
        <path id="WenQuanYiZenHei-32" d="M 3488 0 
L 369 0 
L 369 456 
L 2150 1850 
Q 2931 2463 2931 3144 
Q 2931 3619 2488 3863 
Q 2231 4013 1931 4013 
Q 1425 4013 1113 3619 
Q 894 3356 881 3013 
L 369 3169 
Q 531 3981 1213 4300 
Q 1544 4456 1950 4456 
Q 2631 4456 3088 4044 
L 3225 3888 
L 3350 3706 
Q 3481 3444 3481 3144 
Q 3481 2313 2519 1569 
L 1069 456 
L 3488 456 
L 3488 0 
z
" transform="scale(0.015625)"/>
        <path id="WenQuanYiZenHei-30" d="M 3581 2175 
Q 3581 1288 3169 638 
Q 2713 -63 1938 -63 
Q 1025 -63 563 831 
Q 256 1425 256 2188 
Q 256 3188 700 3819 
Q 1138 4456 1888 4456 
Q 2863 4456 3306 3500 
Q 3581 2925 3581 2175 
z
M 3019 2100 
Q 3019 3356 2500 3806 
L 2350 3919 
Q 2144 4031 1888 4031 
Q 1100 4031 888 2956 
Q 819 2625 819 2225 
Q 819 1013 1338 569 
Q 1588 356 1938 356 
Q 2675 356 2925 1294 
Q 3019 1663 3019 2100 
z
" transform="scale(0.015625)"/>
        <path id="WenQuanYiZenHei-2d" d="M 1363 1444 
L 0 1444 
L 0 1844 
L 1363 1844 
L 1363 1444 
z
" transform="scale(0.015625)"/>
        <path id="WenQuanYiZenHei-31" d="M 3556 0 
L 488 0 
L 488 406 
L 1800 406 
L 1800 3725 
Q 1231 3125 588 2788 
L 588 3338 
Q 1456 3781 1931 4388 
L 2331 4388 
L 2331 406 
L 3556 406 
L 3556 0 
z
" transform="scale(0.015625)"/>
       </defs>
       <use xlink:href="#WenQuanYiZenHei-32"/>
       <use xlink:href="#WenQuanYiZenHei-30" x="59.960938"/>
       <use xlink:href="#WenQuanYiZenHei-32" x="119.921875"/>
       <use xlink:href="#WenQuanYiZenHei-30" x="179.882812"/>
       <use xlink:href="#WenQuanYiZenHei-2d" x="239.84375"/>
       <use xlink:href="#WenQuanYiZenHei-30" x="269.824219"/>
       <use xlink:href="#WenQuanYiZenHei-31" x="329.785156"/>
      </g>
     </g>
    </g>
    <g id="xtick_2">
     <g id="line2d_2">
      <g>
       <use xlink:href="#mad17560c0e" x="181.731914" y="367.701" style="stroke: #000000; stroke-width: 0.8"/>
      </g>
     </g>
     <g id="text_2">
      <!-- 2020-04 -->
      <g transform="translate(162.24207 381.55725)scale(0.1 -0.1)">
       <defs>
        <path id="WenQuanYiZenHei-34" d="M 3631 1025 
L 2913 1025 
L 2913 0 
L 2381 0 
L 2381 1025 
L 219 1025 
L 219 1388 
L 2225 4388 
L 2913 4388 
L 2913 1444 
L 3631 1444 
L 3631 1025 
z
M 2381 1444 
L 2381 3963 
L 788 1444 
L 2381 1444 
z
" transform="scale(0.015625)"/>
       </defs>
       <use xlink:href="#WenQuanYiZenHei-32"/>
       <use xlink:href="#WenQuanYiZenHei-30" x="59.960938"/>
       <use xlink:href="#WenQuanYiZenHei-32" x="119.921875"/>
       <use xlink:href="#WenQuanYiZenHei-30" x="179.882812"/>
       <use xlink:href="#WenQuanYiZenHei-2d" x="239.84375"/>
       <use xlink:href="#WenQuanYiZenHei-30" x="269.824219"/>
       <use xlink:href="#WenQuanYiZenHei-34" x="329.785156"/>
      </g>
     </g>
    </g>
    <g id="xtick_3">
     <g id="line2d_3">
      <g>
       <use xlink:href="#mad17560c0e" x="301.762644" y="367.701" style="stroke: #000000; stroke-width: 0.8"/>
      </g>
     </g>
     <g id="text_3">
      <!-- 2020-07 -->
      <g transform="translate(282.2728 381.55725)scale(0.1 -0.1)">
       <defs>
        <path id="WenQuanYiZenHei-37" d="M 3400 4056 
Q 1838 2175 1838 0 
L 1275 0 
Q 1269 1438 2056 2825 
Q 2381 3400 2825 3913 
L 444 3913 
L 500 4388 
L 3400 4388 
L 3400 4056 
z
" transform="scale(0.015625)"/>
       </defs>
       <use xlink:href="#WenQuanYiZenHei-32"/>
       <use xlink:href="#WenQuanYiZenHei-30" x="59.960938"/>
       <use xlink:href="#WenQuanYiZenHei-32" x="119.921875"/>
       <use xlink:href="#WenQuanYiZenHei-30" x="179.882812"/>
       <use xlink:href="#WenQuanYiZenHei-2d" x="239.84375"/>
       <use xlink:href="#WenQuanYiZenHei-30" x="269.824219"/>
       <use xlink:href="#WenQuanYiZenHei-37" x="329.785156"/>
      </g>
     </g>
    </g>
    <g id="xtick_4">
     <g id="line2d_4">
      <g>
       <use xlink:href="#mad17560c0e" x="423.112393" y="367.701" style="stroke: #000000; stroke-width: 0.8"/>
      </g>
     </g>
     <g id="text_4">
      <!-- 2020-10 -->
      <g transform="translate(403.622549 381.55725)scale(0.1 -0.1)">
       <use xlink:href="#WenQuanYiZenHei-32"/>
       <use xlink:href="#WenQuanYiZenHei-30" x="59.960938"/>
       <use xlink:href="#WenQuanYiZenHei-32" x="119.921875"/>
       <use xlink:href="#WenQuanYiZenHei-30" x="179.882812"/>
       <use xlink:href="#WenQuanYiZenHei-2d" x="239.84375"/>
       <use xlink:href="#WenQuanYiZenHei-31" x="269.824219"/>
       <use xlink:href="#WenQuanYiZenHei-30" x="329.785156"/>
      </g>
     </g>
    </g>
    <g id="xtick_5">
     <g id="line2d_5">
      <g>
       <use xlink:href="#mad17560c0e" x="544.462141" y="367.701" style="stroke: #000000; stroke-width: 0.8"/>
      </g>
     </g>
     <g id="text_5">
      <!-- 2021-01 -->
      <g transform="translate(524.972298 381.55725)scale(0.1 -0.1)">
       <use xlink:href="#WenQuanYiZenHei-32"/>
       <use xlink:href="#WenQuanYiZenHei-30" x="59.960938"/>
       <use xlink:href="#WenQuanYiZenHei-32" x="119.921875"/>
       <use xlink:href="#WenQuanYiZenHei-31" x="179.882812"/>
       <use xlink:href="#WenQuanYiZenHei-2d" x="239.84375"/>
       <use xlink:href="#WenQuanYiZenHei-30" x="269.824219"/>
       <use xlink:href="#WenQuanYiZenHei-31" x="329.785156"/>
      </g>
     </g>
    </g>
    <g id="xtick_6">
     <g id="line2d_6">
      <g>
       <use xlink:href="#mad17560c0e" x="663.173852" y="367.701" style="stroke: #000000; stroke-width: 0.8"/>
      </g>
     </g>
     <g id="text_6">
      <!-- 2021-04 -->
      <g transform="translate(643.684008 381.55725)scale(0.1 -0.1)">
       <use xlink:href="#WenQuanYiZenHei-32"/>
       <use xlink:href="#WenQuanYiZenHei-30" x="59.960938"/>
       <use xlink:href="#WenQuanYiZenHei-32" x="119.921875"/>
       <use xlink:href="#WenQuanYiZenHei-31" x="179.882812"/>
       <use xlink:href="#WenQuanYiZenHei-2d" x="239.84375"/>
       <use xlink:href="#WenQuanYiZenHei-30" x="269.824219"/>
       <use xlink:href="#WenQuanYiZenHei-34" x="329.785156"/>
      </g>
     </g>
    </g>
    <g id="xtick_7">
     <g id="line2d_7">
      <g>
       <use xlink:href="#mad17560c0e" x="783.204582" y="367.701" style="stroke: #000000; stroke-width: 0.8"/>
      </g>
     </g>
     <g id="text_7">
      <!-- 2021-07 -->
      <g transform="translate(763.714738 381.55725)scale(0.1 -0.1)">
       <use xlink:href="#WenQuanYiZenHei-32"/>
       <use xlink:href="#WenQuanYiZenHei-30" x="59.960938"/>
       <use xlink:href="#WenQuanYiZenHei-32" x="119.921875"/>
       <use xlink:href="#WenQuanYiZenHei-31" x="179.882812"/>
       <use xlink:href="#WenQuanYiZenHei-2d" x="239.84375"/>
       <use xlink:href="#WenQuanYiZenHei-30" x="269.824219"/>
       <use xlink:href="#WenQuanYiZenHei-37" x="329.785156"/>
      </g>
     </g>
    </g>
    <g id="xtick_8">
     <g id="line2d_8">
      <g>
       <use xlink:href="#mad17560c0e" x="904.554331" y="367.701" style="stroke: #000000; stroke-width: 0.8"/>
      </g>
     </g>
     <g id="text_8">
      <!-- 2021-10 -->
      <g transform="translate(885.064487 381.55725)scale(0.1 -0.1)">
       <use xlink:href="#WenQuanYiZenHei-32"/>
       <use xlink:href="#WenQuanYiZenHei-30" x="59.960938"/>
       <use xlink:href="#WenQuanYiZenHei-32" x="119.921875"/>
       <use xlink:href="#WenQuanYiZenHei-31" x="179.882812"/>
       <use xlink:href="#WenQuanYiZenHei-2d" x="239.84375"/>
       <use xlink:href="#WenQuanYiZenHei-31" x="269.824219"/>
       <use xlink:href="#WenQuanYiZenHei-30" x="329.785156"/>
      </g>
     </g>
    </g>
    <g id="xtick_9">
     <g id="line2d_9">
      <g>
       <use xlink:href="#mad17560c0e" x="1025.90408" y="367.701" style="stroke: #000000; stroke-width: 0.8"/>
      </g>
     </g>
     <g id="text_9">
      <!-- 2022-01 -->
      <g transform="translate(1006.414236 381.55725)scale(0.1 -0.1)">
       <use xlink:href="#WenQuanYiZenHei-32"/>
       <use xlink:href="#WenQuanYiZenHei-30" x="59.960938"/>
       <use xlink:href="#WenQuanYiZenHei-32" x="119.921875"/>
       <use xlink:href="#WenQuanYiZenHei-32" x="179.882812"/>
       <use xlink:href="#WenQuanYiZenHei-2d" x="239.84375"/>
       <use xlink:href="#WenQuanYiZenHei-30" x="269.824219"/>
       <use xlink:href="#WenQuanYiZenHei-31" x="329.785156"/>
      </g>
     </g>
    </g>
    <g id="xtick_10">
     <g id="line2d_10">
      <g>
       <use xlink:href="#mad17560c0e" x="1144.615791" y="367.701" style="stroke: #000000; stroke-width: 0.8"/>
      </g>
     </g>
     <g id="text_10">
      <!-- 2022-04 -->
      <g transform="translate(1125.125947 381.55725)scale(0.1 -0.1)">
       <use xlink:href="#WenQuanYiZenHei-32"/>
       <use xlink:href="#WenQuanYiZenHei-30" x="59.960938"/>
       <use xlink:href="#WenQuanYiZenHei-32" x="119.921875"/>
       <use xlink:href="#WenQuanYiZenHei-32" x="179.882812"/>
       <use xlink:href="#WenQuanYiZenHei-2d" x="239.84375"/>
       <use xlink:href="#WenQuanYiZenHei-30" x="269.824219"/>
       <use xlink:href="#WenQuanYiZenHei-34" x="329.785156"/>
      </g>
     </g>
    </g>
    <g id="xtick_11">
     <g id="line2d_11">
      <g>
       <use xlink:href="#mad17560c0e" x="1264.64652" y="367.701" style="stroke: #000000; stroke-width: 0.8"/>
      </g>
     </g>
     <g id="text_11">
      <!-- 2022-07 -->
      <g transform="translate(1245.156677 381.55725)scale(0.1 -0.1)">
       <use xlink:href="#WenQuanYiZenHei-32"/>
       <use xlink:href="#WenQuanYiZenHei-30" x="59.960938"/>
       <use xlink:href="#WenQuanYiZenHei-32" x="119.921875"/>
       <use xlink:href="#WenQuanYiZenHei-32" x="179.882812"/>
       <use xlink:href="#WenQuanYiZenHei-2d" x="239.84375"/>
       <use xlink:href="#WenQuanYiZenHei-30" x="269.824219"/>
       <use xlink:href="#WenQuanYiZenHei-37" x="329.785156"/>
      </g>
     </g>
    </g>
   </g>
   <g id="matplotlib.axis_2">
    <g id="ytick_1">
     <g id="line2d_12">
      <defs>
       <path id="md80053b5c0" d="M 0 0 
L -3.5 0 
" style="stroke: #000000; stroke-width: 0.8"/>
      </defs>
      <g>
       <use xlink:href="#md80053b5c0" x="29.846875" y="342.666246" style="stroke: #000000; stroke-width: 0.8"/>
      </g>
     </g>
     <g id="text_12">
      <!-- −10 -->
      <g transform="translate(7.2 346.094371)scale(0.1 -0.1)">
       <defs>
        <path id="WenQuanYiZenHei-2212" d="M 213 0 
L 213 4263 
L 1913 4263 
L 1913 0 
L 213 0 
z
M 425 213 
L 1700 213 
L 1700 4050 
L 425 4050 
L 425 213 
z
" transform="scale(0.015625)"/>
       </defs>
       <use xlink:href="#WenQuanYiZenHei-2212"/>
       <use xlink:href="#WenQuanYiZenHei-31" x="36.523438"/>
       <use xlink:href="#WenQuanYiZenHei-30" x="96.484375"/>
      </g>
     </g>
    </g>
    <g id="ytick_2">
     <g id="line2d_13">
      <g>
       <use xlink:href="#md80053b5c0" x="29.846875" y="293.092475" style="stroke: #000000; stroke-width: 0.8"/>
      </g>
     </g>
     <g id="text_13">
      <!-- 0 -->
      <g transform="translate(16.85 296.5206)scale(0.1 -0.1)">
       <use xlink:href="#WenQuanYiZenHei-30"/>
      </g>
     </g>
    </g>
    <g id="ytick_3">
     <g id="line2d_14">
      <g>
       <use xlink:href="#md80053b5c0" x="29.846875" y="243.518705" style="stroke: #000000; stroke-width: 0.8"/>
      </g>
     </g>
     <g id="text_14">
      <!-- 10 -->
      <g transform="translate(10.853125 246.94683)scale(0.1 -0.1)">
       <use xlink:href="#WenQuanYiZenHei-31"/>
       <use xlink:href="#WenQuanYiZenHei-30" x="59.960938"/>
      </g>
     </g>
    </g>
    <g id="ytick_4">
     <g id="line2d_15">
      <g>
       <use xlink:href="#md80053b5c0" x="29.846875" y="193.944934" style="stroke: #000000; stroke-width: 0.8"/>
      </g>
     </g>
     <g id="text_15">
      <!-- 20 -->
      <g transform="translate(10.853125 197.373059)scale(0.1 -0.1)">
       <use xlink:href="#WenQuanYiZenHei-32"/>
       <use xlink:href="#WenQuanYiZenHei-30" x="59.960938"/>
      </g>
     </g>
    </g>
    <g id="ytick_5">
     <g id="line2d_16">
      <g>
       <use xlink:href="#md80053b5c0" x="29.846875" y="144.371164" style="stroke: #000000; stroke-width: 0.8"/>
      </g>
     </g>
     <g id="text_16">
      <!-- 30 -->
      <g transform="translate(10.853125 147.799289)scale(0.1 -0.1)">
       <defs>
        <path id="WenQuanYiZenHei-33" d="M 3588 1231 
Q 3588 494 2875 144 
Q 2450 -63 1925 -63 
Q 1044 -63 556 488 
Q 356 706 256 1000 
L 769 1169 
Q 994 375 1913 375 
Q 2631 375 2900 788 
Q 3019 975 3019 1231 
Q 3019 1638 2638 1881 
Q 2325 2081 1613 2069 
L 1338 2069 
L 1338 2494 
Q 1969 2494 2094 2506 
Q 2325 2544 2463 2613 
Q 2763 2756 2844 3100 
Q 2863 3169 2863 3244 
Q 2863 3744 2381 3944 
L 2163 4006 
Q 2056 4025 1931 4025 
Q 1388 4025 1075 3631 
Q 969 3488 906 3313 
L 419 3456 
Q 675 4150 1400 4369 
Q 1669 4456 1975 4456 
Q 2694 4456 3106 4050 
Q 3419 3744 3419 3275 
Q 3419 2813 3025 2513 
Q 2825 2356 2575 2319 
L 2575 2306 
Q 3181 2213 3450 1769 
Q 3588 1525 3588 1231 
z
" transform="scale(0.015625)"/>
       </defs>
       <use xlink:href="#WenQuanYiZenHei-33"/>
       <use xlink:href="#WenQuanYiZenHei-30" x="59.960938"/>
      </g>
     </g>
    </g>
    <g id="ytick_6">
     <g id="line2d_17">
      <g>
       <use xlink:href="#md80053b5c0" x="29.846875" y="94.797393" style="stroke: #000000; stroke-width: 0.8"/>
      </g>
     </g>
     <g id="text_17">
      <!-- 40 -->
      <g transform="translate(10.853125 98.225518)scale(0.1 -0.1)">
       <use xlink:href="#WenQuanYiZenHei-34"/>
       <use xlink:href="#WenQuanYiZenHei-30" x="59.960938"/>
      </g>
     </g>
    </g>
    <g id="ytick_7">
     <g id="line2d_18">
      <g>
       <use xlink:href="#md80053b5c0" x="29.846875" y="45.223623" style="stroke: #000000; stroke-width: 0.8"/>
      </g>
     </g>
     <g id="text_18">
      <!-- 50 -->
      <g transform="translate(10.853125 48.651748)scale(0.1 -0.1)">
       <defs>
        <path id="WenQuanYiZenHei-35" d="M 3531 1488 
Q 3531 688 2913 250 
Q 2456 -63 1844 -63 
Q 1175 -63 706 350 
Q 413 613 306 975 
L 781 1131 
Q 1000 538 1569 406 
Q 1706 369 1856 369 
Q 2550 369 2850 869 
Q 3000 1131 3000 1494 
Q 3000 2056 2581 2356 
Q 2319 2538 1969 2538 
Q 1400 2538 1031 2075 
Q 981 2013 938 1938 
L 500 2031 
L 644 4388 
L 3244 4388 
L 3200 3919 
L 1044 3919 
L 950 2500 
Q 1431 2975 2006 2975 
Q 2713 2975 3163 2475 
Q 3531 2063 3531 1488 
z
" transform="scale(0.015625)"/>
       </defs>
       <use xlink:href="#WenQuanYiZenHei-35"/>
       <use xlink:href="#WenQuanYiZenHei-30" x="59.960938"/>
      </g>
     </g>
    </g>
   </g>
   <g id="line2d_19">
    <path d="M 90.719602 288.135098 
L 92.038621 278.220344 
L 93.35764 263.348213 
L 94.676659 268.30559 
L 95.995678 243.518705 
L 97.314697 203.859689 
L 98.633716 238.561328 
L 99.952735 218.73182 
L 101.271754 228.646574 
L 102.590773 243.518705 
L 103.909792 233.603951 
L 105.228811 233.603951 
L 106.54783 268.30559 
L 107.866849 263.348213 
L 109.185868 268.30559 
L 110.504887 268.30559 
L 111.823906 293.092475 
L 113.142925 278.220344 
L 114.461944 253.433459 
L 115.780963 273.262967 
L 117.099982 288.135098 
L 118.419001 283.177721 
L 119.73802 263.348213 
L 121.057039 263.348213 
L 123.695078 293.092475 
L 125.014097 288.135098 
L 126.333116 293.092475 
L 127.652135 283.177721 
L 128.971154 293.092475 
L 159.308591 293.092475 
L 160.62761 283.177721 
L 161.946629 293.092475 
L 172.498781 293.092475 
L 173.8178 283.177721 
L 175.136819 283.177721 
L 176.455838 293.092475 
L 179.093876 293.092475 
L 180.412895 283.177721 
L 181.731914 293.092475 
L 183.050933 288.135098 
L 184.369952 288.135098 
L 185.688971 293.092475 
L 210.750332 293.092475 
L 212.069351 288.135098 
L 213.38837 293.092475 
L 301.762644 293.092475 
L 303.081663 288.135098 
L 304.400682 293.092475 
L 308.357739 293.092475 
L 309.676758 288.135098 
L 310.995777 293.092475 
L 317.590872 293.092475 
L 318.909891 288.135098 
L 320.22891 293.092475 
L 328.143024 293.092475 
L 329.462043 288.135098 
L 330.781062 293.092475 
L 334.738119 293.092475 
L 336.057138 288.135098 
L 337.376157 293.092475 
L 338.695176 288.135098 
L 340.014195 293.092475 
L 361.118499 293.092475 
L 362.437518 273.262967 
L 363.756537 293.092475 
L 370.351632 293.092475 
L 371.670651 278.220344 
L 372.98967 293.092475 
L 374.308689 288.135098 
L 375.627708 293.092475 
L 386.17986 293.092475 
L 387.498879 283.177721 
L 388.817898 293.092475 
L 398.051031 293.092475 
L 399.37005 283.177721 
L 400.689069 288.135098 
L 403.327107 288.135098 
L 404.646126 293.092475 
L 407.284164 293.092475 
L 408.603183 283.177721 
L 411.241221 293.092475 
L 424.431412 293.092475 
L 425.750431 283.177721 
L 427.06945 293.092475 
L 458.725906 293.092475 
L 460.044925 288.135098 
L 461.363944 288.135098 
L 462.682963 293.092475 
L 467.959039 293.092475 
L 469.278058 288.135098 
L 470.597077 293.092475 
L 479.83021 293.092475 
L 481.149229 278.220344 
L 482.468248 293.092475 
L 496.977457 293.092475 
L 498.296476 288.135098 
L 499.615495 288.135098 
L 500.934514 293.092475 
L 507.529609 293.092475 
L 508.848628 288.135098 
L 510.167647 288.135098 
L 511.486666 293.092475 
L 514.124704 293.092475 
L 515.443723 288.135098 
L 518.081761 288.135098 
L 519.40078 293.092475 
L 520.719799 293.092475 
L 522.038818 283.177721 
L 523.357837 293.092475 
L 524.676856 288.135098 
L 525.995875 293.092475 
L 533.909989 293.092475 
L 535.229008 283.177721 
L 536.548027 293.092475 
L 541.824103 293.092475 
L 543.143122 288.135098 
L 544.462141 293.092475 
L 555.014293 293.092475 
L 556.333313 288.135098 
L 557.652332 293.092475 
L 618.327206 293.092475 
L 619.646225 283.177721 
L 620.965244 293.092475 
L 622.284263 293.092475 
L 623.603282 288.135098 
L 624.922301 293.092475 
L 648.664643 293.092475 
L 649.983662 288.135098 
L 651.302681 293.092475 
L 659.216795 293.092475 
L 660.535814 263.348213 
L 661.854833 263.348213 
L 663.173852 273.262967 
L 664.492871 253.433459 
L 665.81189 243.518705 
L 667.130909 218.73182 
L 668.449928 218.73182 
L 669.768947 283.177721 
L 671.087966 238.561328 
L 672.406985 253.433459 
L 673.726004 288.135098 
L 675.045023 293.092475 
L 676.364042 283.177721 
L 677.683061 288.135098 
L 679.00208 288.135098 
L 680.321099 293.092475 
L 681.640118 288.135098 
L 684.278156 288.135098 
L 685.597175 283.177721 
L 686.916194 288.135098 
L 688.235213 283.177721 
L 689.554232 288.135098 
L 690.873251 278.220344 
L 692.19227 288.135098 
L 693.511289 293.092475 
L 694.830308 278.220344 
L 696.149327 293.092475 
L 697.468346 288.135098 
L 698.787365 293.092475 
L 700.106385 293.092475 
L 701.425404 288.135098 
L 702.744423 288.135098 
L 704.063442 293.092475 
L 705.382461 288.135098 
L 706.70148 293.092475 
L 708.020499 283.177721 
L 709.339518 293.092475 
L 711.977556 293.092475 
L 713.296575 288.135098 
L 714.615594 293.092475 
L 719.89167 293.092475 
L 721.210689 278.220344 
L 722.529708 293.092475 
L 729.124803 293.092475 
L 730.443822 288.135098 
L 731.762841 293.092475 
L 742.314993 293.092475 
L 743.634012 288.135098 
L 744.953031 293.092475 
L 746.27205 283.177721 
L 747.591069 288.135098 
L 748.910088 283.177721 
L 750.229107 283.177721 
L 752.867145 293.092475 
L 754.186164 288.135098 
L 755.505183 288.135098 
L 756.824202 263.348213 
L 758.143221 268.30559 
L 759.46224 283.177721 
L 762.100278 293.092475 
L 763.419297 278.220344 
L 764.738316 283.177721 
L 766.057335 283.177721 
L 767.376354 273.262967 
L 768.695373 278.220344 
L 770.014392 293.092475 
L 771.333411 293.092475 
L 772.65243 278.220344 
L 773.971449 283.177721 
L 775.290468 268.30559 
L 777.928506 268.30559 
L 779.247525 273.262967 
L 780.566544 283.177721 
L 781.885563 283.177721 
L 783.204582 293.092475 
L 784.523601 273.262967 
L 785.84262 273.262967 
L 787.161639 253.433459 
L 788.480658 238.561328 
L 789.799677 218.73182 
L 791.118696 283.177721 
L 792.437715 208.817066 
L 793.756734 238.561328 
L 795.075753 293.092475 
L 796.394772 154.285918 
L 797.713791 258.390836 
L 799.03281 238.561328 
L 800.351829 233.603951 
L 801.670848 218.73182 
L 802.989867 228.646574 
L 804.308886 233.603951 
L 805.627905 243.518705 
L 806.946924 50.181 
L 808.265943 293.092475 
L 809.584962 144.371164 
L 810.903981 228.646574 
L 812.223 268.30559 
L 813.542019 258.390836 
L 814.861038 203.859689 
L 816.180057 198.902311 
L 817.499076 203.859689 
L 818.818095 213.774443 
L 820.137114 188.987557 
L 821.456133 248.476082 
L 822.775152 243.518705 
L 824.094171 208.817066 
L 825.41319 243.518705 
L 826.732209 243.518705 
L 828.051228 238.561328 
L 832.008285 238.561328 
L 833.327304 253.433459 
L 834.646323 238.561328 
L 835.965342 258.390836 
L 837.284361 253.433459 
L 838.60338 243.518705 
L 839.922399 263.348213 
L 841.241418 278.220344 
L 842.560437 238.561328 
L 843.879457 218.73182 
L 845.198476 253.433459 
L 846.517495 258.390836 
L 847.836514 253.433459 
L 849.155533 278.220344 
L 850.474552 258.390836 
L 851.793571 278.220344 
L 853.11259 273.262967 
L 855.750628 243.518705 
L 857.069647 253.433459 
L 858.388666 253.433459 
L 859.707685 208.817066 
L 861.026704 278.220344 
L 862.345723 184.03018 
L 863.664742 273.262967 
L 864.983761 248.476082 
L 866.30278 248.476082 
L 867.621799 258.390836 
L 868.940818 248.476082 
L 870.259837 273.262967 
L 871.578856 184.03018 
L 872.897875 248.476082 
L 874.216894 208.817066 
L 875.535913 273.262967 
L 876.854932 228.646574 
L 878.173951 238.561328 
L 879.49297 208.817066 
L 880.811989 223.689197 
L 882.131008 228.646574 
L 883.450027 179.072803 
L 884.769046 208.817066 
L 886.088065 248.476082 
L 888.726103 248.476082 
L 890.045122 233.603951 
L 891.364141 223.689197 
L 892.68316 268.30559 
L 894.002179 228.646574 
L 895.321198 258.390836 
L 896.640217 243.518705 
L 897.959236 233.603951 
L 899.278255 238.561328 
L 901.916293 268.30559 
L 903.235312 248.476082 
L 904.554331 223.689197 
L 905.87335 248.476082 
L 908.511388 268.30559 
L 909.830407 228.646574 
L 911.149426 228.646574 
L 912.468445 263.348213 
L 913.787464 278.220344 
L 915.106483 243.518705 
L 916.425502 223.689197 
L 917.744521 268.30559 
L 919.06354 268.30559 
L 920.382559 263.348213 
L 921.701578 278.220344 
L 923.020597 288.135098 
L 924.339616 283.177721 
L 925.658635 263.348213 
L 926.977654 273.262967 
L 928.296673 288.135098 
L 929.615692 293.092475 
L 930.934711 273.262967 
L 932.25373 283.177721 
L 934.891768 293.092475 
L 938.848825 293.092475 
L 940.167844 278.220344 
L 941.486863 293.092475 
L 944.124901 273.262967 
L 945.44392 283.177721 
L 946.762939 273.262967 
L 949.400977 283.177721 
L 950.719996 273.262967 
L 952.039015 233.603951 
L 953.358034 248.476082 
L 954.677053 273.262967 
L 955.996072 278.220344 
L 957.315091 253.433459 
L 958.63411 263.348213 
L 959.953129 258.390836 
L 961.272148 273.262967 
L 963.910186 263.348213 
L 966.548224 283.177721 
L 967.867243 288.135098 
L 970.505281 278.220344 
L 971.8243 263.348213 
L 973.143319 273.262967 
L 974.462338 268.30559 
L 975.781357 268.30559 
L 977.100376 293.092475 
L 978.419395 268.30559 
L 979.738414 253.433459 
L 981.057433 263.348213 
L 982.376452 283.177721 
L 983.695471 253.433459 
L 985.01449 278.220344 
L 986.333509 243.518705 
L 987.652529 258.390836 
L 988.971548 248.476082 
L 990.290567 263.348213 
L 991.609586 258.390836 
L 992.928605 278.220344 
L 994.247624 278.220344 
L 995.566643 263.348213 
L 996.885662 283.177721 
L 999.5237 283.177721 
L 1000.842719 278.220344 
L 1002.161738 278.220344 
L 1003.480757 288.135098 
L 1004.799776 268.30559 
L 1006.118795 288.135098 
L 1007.437814 278.220344 
L 1008.756833 283.177721 
L 1010.075852 293.092475 
L 1011.394871 273.262967 
L 1012.71389 288.135098 
L 1014.032909 278.220344 
L 1015.351928 263.348213 
L 1016.670947 273.262967 
L 1017.989966 293.092475 
L 1019.308985 278.220344 
L 1020.628004 278.220344 
L 1021.947023 273.262967 
L 1023.266042 283.177721 
L 1024.585061 283.177721 
L 1025.90408 288.135098 
L 1028.542118 278.220344 
L 1029.861137 293.092475 
L 1031.180156 283.177721 
L 1032.499175 288.135098 
L 1033.818194 278.220344 
L 1035.137213 288.135098 
L 1036.456232 263.348213 
L 1037.775251 283.177721 
L 1039.09427 293.092475 
L 1041.732308 293.092475 
L 1043.051327 283.177721 
L 1044.370346 278.220344 
L 1045.689365 283.177721 
L 1047.008384 273.262967 
L 1048.327403 288.135098 
L 1049.646422 283.177721 
L 1050.965441 293.092475 
L 1052.28446 288.135098 
L 1053.603479 268.30559 
L 1054.922498 268.30559 
L 1056.241517 273.262967 
L 1057.560536 293.092475 
L 1058.879555 268.30559 
L 1060.198574 268.30559 
L 1061.517593 293.092475 
L 1062.836612 273.262967 
L 1064.155631 293.092475 
L 1066.793669 293.092475 
L 1068.112688 288.135098 
L 1069.431707 293.092475 
L 1070.750726 283.177721 
L 1072.069745 293.092475 
L 1077.345821 293.092475 
L 1078.66484 288.135098 
L 1079.983859 293.092475 
L 1081.302878 283.177721 
L 1083.940916 293.092475 
L 1085.259935 278.220344 
L 1086.578954 283.177721 
L 1089.216992 273.262967 
L 1090.536011 278.220344 
L 1091.85503 273.262967 
L 1093.174049 263.348213 
L 1094.493068 268.30559 
L 1097.131106 268.30559 
L 1098.450125 248.476082 
L 1101.088163 278.220344 
L 1102.407182 243.518705 
L 1103.726201 278.220344 
L 1105.04522 288.135098 
L 1106.364239 263.348213 
L 1107.683258 283.177721 
L 1109.002277 273.262967 
L 1110.321296 273.262967 
L 1111.640315 263.348213 
L 1112.959334 268.30559 
L 1114.278353 268.30559 
L 1115.597372 263.348213 
L 1118.23541 283.177721 
L 1119.554429 268.30559 
L 1120.873448 273.262967 
L 1122.192467 258.390836 
L 1123.511486 263.348213 
L 1126.149524 263.348213 
L 1127.468543 273.262967 
L 1128.787562 273.262967 
L 1132.74462 288.135098 
L 1134.063639 278.220344 
L 1135.382658 288.135098 
L 1138.020696 288.135098 
L 1139.339715 283.177721 
L 1140.658734 273.262967 
L 1143.296772 293.092475 
L 1144.615791 278.220344 
L 1145.93481 293.092475 
L 1148.572848 283.177721 
L 1149.891867 283.177721 
L 1151.210886 288.135098 
L 1152.529905 278.220344 
L 1153.848924 293.092475 
L 1156.486962 283.177721 
L 1157.805981 288.135098 
L 1159.125 288.135098 
L 1160.444019 263.348213 
L 1161.763038 198.902311 
L 1163.082057 352.581 
L 1164.401076 293.092475 
L 1165.720095 283.177721 
L 1167.039114 278.220344 
L 1168.358133 283.177721 
L 1169.677152 283.177721 
L 1170.996171 258.390836 
L 1172.31519 293.092475 
L 1173.634209 283.177721 
L 1174.953228 283.177721 
L 1176.272247 293.092475 
L 1178.910285 293.092475 
L 1181.548323 283.177721 
L 1182.867342 293.092475 
L 1186.824399 293.092475 
L 1188.143418 288.135098 
L 1189.462437 293.092475 
L 1194.738513 293.092475 
L 1196.057532 288.135098 
L 1197.376551 273.262967 
L 1198.69557 293.092475 
L 1200.014589 293.092475 
L 1201.333608 283.177721 
L 1202.652627 288.135098 
L 1203.971646 283.177721 
L 1205.290665 293.092475 
L 1206.609684 283.177721 
L 1209.247722 293.092475 
L 1210.566741 283.177721 
L 1211.88576 293.092475 
L 1213.204779 288.135098 
L 1214.523798 293.092475 
L 1215.842817 273.262967 
L 1217.161836 278.220344 
L 1218.480855 293.092475 
L 1219.799874 293.092475 
L 1221.118893 283.177721 
L 1222.437912 278.220344 
L 1223.756931 288.135098 
L 1225.07595 293.092475 
L 1227.713988 283.177721 
L 1229.033007 293.092475 
L 1230.352026 288.135098 
L 1231.671045 288.135098 
L 1232.990064 293.092475 
L 1234.309083 278.220344 
L 1235.628102 293.092475 
L 1244.861235 293.092475 
L 1246.180254 273.262967 
L 1247.499273 288.135098 
L 1248.818292 283.177721 
L 1250.137311 293.092475 
L 1254.094368 293.092475 
L 1255.413387 268.30559 
L 1256.732406 273.262967 
L 1258.051425 288.135098 
L 1259.370444 293.092475 
L 1267.284558 293.092475 
L 1268.603577 278.220344 
L 1269.922596 288.135098 
L 1271.241615 293.092475 
L 1272.560634 288.135098 
L 1273.879653 293.092475 
L 1275.198672 288.135098 
L 1276.517692 293.092475 
L 1277.836711 283.177721 
L 1280.474749 283.177721 
L 1281.793768 278.220344 
L 1283.112787 288.135098 
L 1284.431806 283.177721 
L 1285.750825 293.092475 
L 1287.069844 273.262967 
L 1288.388863 293.092475 
L 1289.707882 263.348213 
L 1291.026901 293.092475 
L 1291.026901 293.092475 
" clip-path="url(#pbffab306c0)" style="fill: none; stroke: #0000ff; stroke-width: 1.5; stroke-linecap: square"/>
   </g>
   <g id="line2d_20">
    <path d="M 1050.965441 283.746361 
L 1052.28446 286.40567 
L 1053.603479 285.515232 
L 1054.922498 279.95116 
L 1056.241517 276.548412 
L 1057.560536 276.935772 
L 1058.879555 280.347439 
L 1060.198574 276.454174 
L 1061.517593 275.631622 
L 1062.836612 279.827331 
L 1064.155631 279.15458 
L 1065.47465 283.660859 
L 1066.793669 286.710207 
L 1068.112688 288.411271 
L 1069.431707 288.684377 
L 1070.750726 289.384774 
L 1072.069745 288.102755 
L 1073.388764 289.715988 
L 1074.707783 290.807644 
L 1076.026802 291.546356 
L 1077.345821 292.046234 
L 1078.66484 292.0221 
L 1079.983859 291.127784 
L 1081.302878 291.0382 
L 1082.621897 288.859214 
L 1083.940916 288.987495 
L 1085.259935 289.227495 
L 1086.578954 286.031154 
L 1087.897973 284.746212 
L 1090.536011 279.722979 
L 1091.85503 278.874765 
L 1093.174049 276.335617 
L 1094.493068 272.499038 
L 1095.812087 271.143249 
L 1097.131106 270.225802 
L 1098.450125 268.155394 
L 1099.769144 262.880037 
L 1101.088163 264.11859 
L 1102.407182 266.141078 
L 1103.726201 261.363778 
L 1105.04522 267.538487 
L 1106.364239 272.385626 
L 1107.683258 270.91331 
L 1109.002277 274.153742 
L 1110.321296 273.865744 
L 1111.640315 272.946069 
L 1112.959334 270.205369 
L 1114.278353 269.591149 
L 1115.597372 268.813118 
L 1116.916391 267.771043 
L 1118.23541 270.271435 
L 1119.554429 273.356997 
L 1120.873448 272.086216 
L 1122.192467 271.379486 
L 1123.511486 267.542505 
L 1124.830505 266.186443 
L 1126.149524 265.268811 
L 1127.468543 265.372651 
L 1128.787562 267.923679 
L 1130.106581 270.012327 
L 1131.4256 273.028467 
L 1132.74462 276.672231 
L 1134.063639 279.653514 
L 1135.382658 279.914945 
L 1136.701677 282.572613 
L 1138.020696 284.371028 
L 1139.339715 285.225599 
L 1140.658734 283.838706 
L 1141.977753 281.144241 
L 1143.296772 282.526479 
L 1144.615791 284.855399 
L 1145.93481 283.797397 
L 1147.253829 286.440205 
L 1148.572848 286.625788 
L 1149.891867 285.510989 
L 1151.210886 285.119013 
L 1152.529905 285.369356 
L 1153.848924 284.145186 
L 1155.167943 286.67555 
L 1156.486962 286.785043 
L 1157.805981 285.981151 
L 1159.125 286.677546 
L 1160.444019 285.336812 
L 1161.763038 273.51651 
L 1163.082057 260.627155 
L 1164.401076 286.008126 
L 1165.720095 287.573785 
L 1167.039114 285.790093 
L 1168.358133 283.705103 
L 1169.677152 283.534595 
L 1170.996171 281.607236 
L 1172.31519 276.63788 
L 1173.634209 281.233046 
L 1174.953228 281.861781 
L 1176.272247 283.01203 
L 1177.591266 286.271152 
L 1178.910285 288.476563 
L 1180.229304 289.606544 
L 1181.548323 288.768414 
L 1182.867342 287.685671 
L 1184.186361 289.433752 
L 1185.50538 290.616658 
L 1186.824399 291.417118 
L 1188.143418 291.596384 
L 1189.462437 290.839707 
L 1190.781456 291.568052 
L 1192.100475 292.060916 
L 1194.738513 292.620116 
L 1196.057532 292.41044 
L 1197.376551 289.940988 
L 1198.69557 285.998377 
L 1200.014589 288.291979 
L 1201.333608 289.119243 
L 1202.652627 287.560677 
L 1203.971646 287.383999 
L 1205.290665 286.748853 
L 1206.609684 288.075027 
L 1207.928703 286.854068 
L 1209.247722 287.630635 
L 1210.566741 288.671719 
L 1211.88576 287.620238 
L 1213.204779 289.027079 
L 1214.523798 289.101087 
L 1215.842817 288.941966 
L 1217.161836 284.235164 
L 1218.480855 283.377691 
L 1219.799874 286.518591 
L 1221.118893 287.919211 
L 1223.756931 284.225672 
L 1225.07595 285.852029 
L 1226.394969 287.830551 
L 1227.713988 287.566619 
L 1229.033007 286.87243 
L 1230.352026 288.521045 
L 1231.671045 288.396264 
L 1234.309083 289.015507 
L 1235.628102 286.612495 
L 1236.947121 288.707546 
L 1238.26614 290.125243 
L 1239.585159 291.084583 
L 1240.904178 291.733757 
L 1242.223197 292.173046 
L 1244.861235 292.671462 
L 1246.180254 291.357999 
L 1247.499273 286.594857 
L 1248.818292 286.730439 
L 1250.137311 286.306596 
L 1251.45633 288.500547 
L 1252.775349 289.98517 
L 1254.094368 290.989797 
L 1255.413387 289.857639 
L 1256.732406 283.252014 
L 1258.051425 281.109629 
L 1259.370444 283.743438 
L 1260.689463 286.766087 
L 1262.008482 288.81148 
L 1263.327501 290.195574 
L 1264.64652 291.132175 
L 1265.965539 291.765962 
L 1267.284558 292.194839 
L 1268.603577 291.397869 
L 1269.922596 287.862217 
L 1271.241615 288.312838 
L 1272.560634 289.495753 
L 1273.879653 289.418234 
L 1275.198672 290.243762 
L 1276.517692 289.924403 
L 1277.836711 290.223886 
L 1279.15573 287.945781 
L 1281.793768 284.998657 
L 1283.112787 283.531943 
L 1284.431806 284.657799 
L 1285.750825 284.904064 
L 1287.069844 286.101888 
L 1288.388863 283.400502 
L 1289.707882 284.359654 
L 1291.026901 279.74079 
L 1291.026901 279.74079 
" clip-path="url(#pbffab306c0)" style="fill: none; stroke: #ffa500; stroke-width: 1.5; stroke-linecap: square"/>
   </g>
   <g id="line2d_21">
    <path d="M 1291.026901 279.74079 
L 1292.34592 283.081503 
L 1293.664939 282.245626 
L 1294.983958 282.45477 
L 1296.302977 282.40244 
L 1297.621996 282.415534 
L 1298.941015 282.412258 
L 1300.260034 282.413077 
L 1301.579053 282.412872 
L 1302.898072 282.412924 
L 1304.217091 282.412911 
L 1305.53611 282.412914 
L 1306.855129 282.412913 
L 1308.174148 282.412913 
" clip-path="url(#pbffab306c0)" style="fill: none; stroke: #ff0000; stroke-width: 1.5; stroke-linecap: square"/>
   </g>
   <g id="patch_3">
    <path d="M 29.846875 367.701 
L 29.846875 35.061 
" style="fill: none; stroke: #000000; stroke-width: 0.8; stroke-linejoin: miter; stroke-linecap: square"/>
   </g>
   <g id="patch_4">
    <path d="M 1369.046875 367.701 
L 1369.046875 35.061 
" style="fill: none; stroke: #000000; stroke-width: 0.8; stroke-linejoin: miter; stroke-linecap: square"/>
   </g>
   <g id="patch_5">
    <path d="M 29.846875 367.701 
L 1369.046875 367.701 
" style="fill: none; stroke: #000000; stroke-width: 0.8; stroke-linejoin: miter; stroke-linecap: square"/>
   </g>
   <g id="patch_6">
    <path d="M 29.846875 35.061 
L 1369.046875 35.061 
" style="fill: none; stroke: #000000; stroke-width: 0.8; stroke-linejoin: miter; stroke-linecap: square"/>
   </g>
   <g id="text_19">
    <!-- 每日新增预测 - 云南 -->
    <g transform="translate(646.049688 17.041875)scale(0.12 -0.12)">
     <defs>
      <path id="WenQuanYiZenHei-6bcf" d="M 6138 2181 
Q 6113 1988 6138 1800 
Q 5788 1819 5438 1819 
L 4975 1819 
L 4863 738 
L 5806 738 
L 5806 394 
L 4831 394 
L 4775 -144 
Q 4719 -563 4350 -725 
Q 4013 -856 3550 -825 
L 3288 -819 
Q 3331 -663 3275 -519 
Q 3219 -375 3113 -288 
Q 3381 -313 3759 -303 
Q 4138 -294 4231 -238 
Q 4338 -163 4350 88 
L 4381 394 
L 1025 394 
L 1244 1819 
L 813 1819 
Q 463 1819 113 1800 
Q 138 1988 113 2181 
Q 463 2163 813 2163 
L 1294 2163 
L 1488 3431 
L 1488 3581 
L 1506 3581 
L 1513 3613 
L 1713 3581 
L 5156 3581 
L 5013 2163 
L 5438 2163 
Q 5788 2163 6138 2181 
z
M 5588 4463 
Q 5569 4269 5588 4081 
Q 5244 4100 4894 4100 
L 1813 4100 
Q 1344 3463 606 2788 
Q 481 2988 256 3069 
Q 744 3494 1116 3972 
Q 1488 4450 1919 5181 
Q 2119 5044 2344 4950 
Q 2213 4688 2050 4444 
L 4894 4444 
Q 5238 4444 5588 4463 
z
M 2844 3238 
L 1906 3238 
L 1744 2163 
L 3244 2163 
L 2581 3038 
L 2844 3238 
z
M 3250 2163 
L 4563 2163 
L 4669 3238 
L 3044 3238 
L 3638 2456 
L 3250 2163 
z
M 2944 1819 
Q 3275 1394 3550 938 
L 3213 738 
L 4419 738 
L 4525 1819 
L 2944 1819 
z
M 2656 1819 
L 1694 1819 
L 1525 738 
L 3094 738 
Q 2806 1219 2450 1650 
L 2656 1819 
z
" transform="scale(0.015625)"/>
      <path id="WenQuanYiZenHei-65e5" d="M 1494 -775 
Q 1244 -750 988 -775 
Q 1013 -313 1013 156 
L 1013 4875 
L 5269 4875 
L 5269 -763 
L 4813 -763 
L 4813 156 
L 1469 156 
Q 1469 -313 1494 -775 
z
M 4813 2700 
L 4813 4500 
L 1469 4500 
L 1469 2700 
L 4813 2700 
z
M 4813 531 
L 4813 2325 
L 1469 2325 
L 1469 531 
L 4813 531 
z
" transform="scale(0.015625)"/>
      <path id="WenQuanYiZenHei-65b0" d="M 5419 -763 
Q 5188 -738 4963 -763 
Q 4981 -344 4981 75 
L 4981 2819 
L 4188 2819 
L 4188 1706 
Q 4188 63 3163 -738 
Q 3019 -519 2769 -469 
Q 3769 131 3769 1706 
L 3769 4769 
L 3875 4769 
L 3844 4831 
L 4294 4781 
Q 4438 4769 4894 4816 
Q 5350 4863 5512 4931 
Q 5675 5000 5763 5094 
Q 5850 4881 5981 4694 
Q 5713 4544 5263 4519 
L 4188 4438 
L 4188 3100 
L 5563 3100 
Q 5850 3100 6131 3113 
Q 6119 2956 6131 2806 
L 5394 2819 
L 5394 75 
Q 5394 -344 5419 -763 
z
M 2981 213 
Q 2656 744 2256 1225 
L 2606 1513 
Q 3025 1006 3369 450 
L 2981 213 
z
M 1169 1525 
Q 1375 1419 1594 1363 
Q 1281 488 469 -469 
Q 331 -300 119 -244 
Q 575 263 888 900 
Q 1038 1206 1169 1525 
z
M 1825 6 
L 1825 1769 
L 1081 1769 
Q 794 1769 513 1756 
Q 525 1913 513 2063 
Q 794 2050 1081 2050 
L 1825 2050 
L 1825 2775 
L 994 2775 
Q 706 2775 425 2763 
Q 438 2919 425 3075 
Q 706 3056 994 3056 
L 1825 3056 
L 1825 3088 
L 1906 3088 
Q 2288 3656 2588 4381 
Q 2794 4269 3013 4206 
Q 2800 3675 2381 3056 
L 3013 3056 
Q 3294 3056 3581 3075 
Q 3563 2919 3581 2763 
Q 3294 2775 3013 2775 
L 2238 2775 
L 2238 2050 
L 2925 2050 
Q 3206 2050 3494 2063 
Q 3475 1913 3494 1756 
Q 3206 1769 2925 1769 
L 2238 1769 
L 2238 -156 
Q 2238 -413 2075 -581 
Q 1844 -794 1306 -794 
Q 1363 -519 1188 -288 
Q 1338 -313 1534 -316 
Q 1731 -319 1778 -278 
Q 1825 -238 1825 6 
z
M 1875 3388 
L 1500 3131 
L 825 4088 
L 1200 4350 
L 1875 3388 
z
M 3419 4713 
Q 3400 4563 3419 4406 
Q 3131 4419 2850 4419 
L 1125 4419 
Q 838 4419 556 4406 
Q 569 4563 556 4713 
Q 838 4700 1125 4700 
L 1763 4700 
L 1388 5088 
L 1719 5406 
L 2288 4813 
L 2175 4700 
L 2850 4700 
Q 3131 4700 3419 4713 
z
" transform="scale(0.015625)"/>
      <path id="WenQuanYiZenHei-589e" d="M 3138 -769 
Q 2913 -744 2688 -769 
Q 2706 -356 2706 56 
L 2706 1719 
L 5706 1719 
L 5706 -756 
L 5300 -756 
L 5300 -338 
L 3119 -338 
Q 3125 -550 3138 -769 
z
M 5113 3569 
Q 5344 3606 5563 3688 
Q 5669 3175 5256 2694 
Q 5113 2519 4975 2506 
Q 4831 2725 4588 2813 
Q 4806 2831 4997 3068 
Q 5188 3306 5113 3569 
z
M 3850 2763 
L 3469 2538 
L 2925 3456 
L 3313 3681 
L 3850 2763 
z
M 2400 2100 
Q 2469 3138 2400 4175 
L 3413 4175 
Q 3138 4550 2825 4888 
L 3156 5194 
Q 3581 4725 3938 4206 
L 3900 4175 
L 4456 4175 
Q 4863 4575 5131 5163 
Q 5325 5044 5538 4975 
Q 5369 4575 5013 4175 
L 6056 4175 
Q 5981 3138 6056 2100 
L 2400 2100 
z
M 5300 806 
L 5300 1450 
L 3113 1450 
Q 3113 1125 3113 806 
L 5300 806 
z
M 5300 563 
L 3113 563 
L 3113 -94 
L 5300 -94 
L 5300 563 
z
M 4431 3913 
L 4431 2363 
L 5650 2363 
L 5650 3913 
L 4756 3913 
L 4700 3856 
Q 4681 3888 4656 3913 
L 4431 3913 
z
M 4025 3913 
L 2806 3913 
L 2806 2363 
L 4025 2363 
L 4025 3913 
z
M -31 625 
Q 506 763 1006 975 
L 1006 3206 
L 669 3206 
Q 369 3206 75 3188 
Q 94 3356 75 3531 
Q 369 3513 669 3513 
L 1006 3513 
L 1006 4263 
Q 1006 4700 981 5131 
Q 1206 5106 1431 5131 
Q 1413 4700 1413 4263 
L 1413 3513 
L 2238 3531 
Q 2219 3356 2238 3188 
L 1413 3206 
L 1413 1163 
L 2150 1531 
L 2194 1256 
Q 1269 775 813 519 
L 194 144 
Q 138 438 -31 625 
z
" transform="scale(0.015625)"/>
      <path id="WenQuanYiZenHei-9884" d="M 1206 19 
L 1206 2888 
L 669 2888 
Q 356 2888 50 2869 
Q 63 3044 50 3213 
Q 363 3194 669 3194 
L 1250 3194 
Q 950 3631 606 4031 
L 963 4338 
L 1263 3975 
L 1913 4719 
L 731 4719 
Q 419 4719 106 4706 
Q 125 4875 106 5044 
Q 419 5031 731 5031 
L 2481 5031 
L 2544 4663 
Q 2394 4613 2256 4466 
Q 2119 4319 1525 3631 
Q 1656 3444 1788 3250 
L 1700 3194 
L 2700 3194 
L 2763 2825 
Q 2656 2819 2613 2763 
L 2100 2038 
L 1750 2288 
L 2175 2888 
L 1638 2888 
L 1638 -150 
Q 1638 -525 1363 -669 
Q 1075 -819 525 -813 
Q 594 -513 388 -294 
Q 575 -313 837 -316 
Q 1100 -319 1153 -272 
Q 1206 -225 1206 19 
z
M 5813 -888 
Q 5100 -225 4306 375 
L 4669 719 
Q 5481 106 6219 -575 
L 5813 -888 
z
M 2375 -906 
Q 2294 -631 2025 -506 
Q 2769 -431 3353 19 
Q 3938 469 3938 1069 
L 3938 2200 
Q 3938 2625 3913 3050 
Q 4188 3025 4456 3050 
Q 4431 2625 4431 2200 
L 4431 1069 
Q 4431 681 4225 319 
Q 3644 -606 2375 -906 
z
M 3444 488 
Q 3169 513 2894 488 
Q 2919 913 2919 1338 
L 2919 3675 
Q 3219 3675 3525 3675 
Q 3750 4013 3931 4525 
L 3238 4525 
Q 2888 4525 2538 4513 
Q 2556 4669 2538 4831 
Q 2888 4813 3238 4813 
L 5313 4813 
Q 5663 4813 6006 4831 
Q 5988 4669 6006 4513 
Q 5663 4525 5313 4525 
L 4481 4525 
Q 4388 4088 4088 3675 
L 5644 3675 
L 5644 513 
L 5144 513 
L 5144 3388 
L 3894 3388 
L 3875 3363 
Q 3863 3375 3844 3388 
Q 3631 3388 3413 3388 
L 3419 1338 
Q 3419 913 3444 488 
z
" transform="scale(0.015625)"/>
      <path id="WenQuanYiZenHei-6d4b" d="M 5450 138 
L 5450 4306 
Q 5450 4750 5425 5188 
Q 5663 5163 5906 5188 
Q 5881 4750 5881 4306 
L 5881 -38 
Q 5888 -569 5519 -719 
Q 5194 -831 4825 -813 
Q 4894 -519 4694 -281 
Q 4869 -306 5094 -309 
Q 5319 -313 5384 -256 
Q 5450 -200 5450 138 
z
M 4900 938 
Q 4663 963 4419 938 
Q 4444 1375 4444 1819 
L 4444 3381 
Q 4444 3819 4419 4263 
Q 4663 4238 4900 4263 
Q 4875 3819 4875 3381 
L 4875 1819 
Q 4875 1375 4900 938 
z
M 2750 2025 
L 2750 3038 
Q 2750 3481 2725 3919 
Q 2963 3894 3206 3919 
Q 3181 3481 3181 3038 
L 3181 2025 
Q 3181 1263 2919 625 
L 3231 956 
Q 3781 431 4256 -150 
L 3888 -456 
Q 3431 106 2906 600 
Q 2531 -288 1738 -769 
Q 1606 -519 1338 -450 
Q 1988 -156 2369 478 
Q 2750 1113 2750 2025 
z
M 2363 969 
Q 2119 994 1881 969 
Q 1906 1406 1906 1850 
L 1906 5038 
L 3956 5031 
L 3956 1200 
L 3525 1200 
L 3525 4713 
L 2338 4713 
L 2338 1850 
Q 2338 1406 2363 969 
z
M 663 -738 
Q 481 -588 206 -575 
Q 400 -69 606 581 
Q 813 1231 1200 2838 
L 1381 2706 
L 875 338 
L 663 -738 
z
M 1006 2856 
L 731 2550 
L 75 3400 
L 350 3713 
L 1006 2856 
z
M 1088 3913 
Q 781 4388 425 4800 
L 694 5125 
Q 1069 4688 1388 4188 
L 1088 3913 
z
" transform="scale(0.015625)"/>
      <path id="WenQuanYiZenHei-20" transform="scale(0.015625)"/>
      <path id="WenQuanYiZenHei-4e91" d="M 1094 2394 
Q 713 2394 331 2375 
Q 350 2581 331 2788 
Q 713 2769 1094 2769 
L 5206 2769 
Q 5588 2769 5969 2788 
Q 5944 2581 5969 2375 
Q 5588 2394 5206 2394 
L 3031 2394 
Q 2888 2156 2463 1519 
L 1388 -63 
L 4150 163 
L 4538 213 
L 3713 1500 
L 4131 1781 
L 4894 613 
L 5613 -594 
L 5175 -844 
L 4756 -144 
L 4181 -175 
L 750 -500 
L 719 -125 
Q 863 -100 956 19 
Q 1169 313 1659 1088 
Q 2150 1863 2419 2394 
L 1094 2394 
z
M 5250 4656 
Q 5225 4450 5250 4244 
Q 4869 4263 4488 4263 
L 1706 4263 
Q 1325 4263 944 4244 
Q 963 4450 944 4656 
Q 1325 4638 1706 4638 
L 4488 4638 
Q 4869 4638 5250 4656 
z
" transform="scale(0.015625)"/>
      <path id="WenQuanYiZenHei-5357" d="M 3363 -769 
Q 3125 -744 2888 -769 
Q 2906 -325 2906 113 
L 2906 700 
L 1906 700 
Q 1581 700 1263 681 
Q 1281 856 1263 1031 
Q 1581 1019 1906 1019 
L 2906 1019 
L 2906 1619 
L 2050 1619 
Q 1731 1619 1406 1606 
Q 1425 1781 1406 1956 
L 2281 1938 
Q 2013 2375 1694 2781 
L 2000 3025 
L 1013 3025 
L 1019 131 
Q 1019 -306 1044 -750 
Q 800 -725 563 -750 
Q 588 -306 581 131 
L 581 3344 
L 2906 3344 
L 2906 4075 
L 763 4075 
Q 438 4075 119 4056 
Q 131 4231 119 4406 
Q 438 4394 763 4394 
L 2906 4394 
Q 2906 4825 2888 5256 
Q 3125 5231 3363 5256 
Q 3344 4825 3344 4394 
L 5488 4394 
Q 5813 4394 6131 4406 
Q 6119 4231 6131 4056 
Q 5813 4075 5488 4075 
L 3344 4075 
L 3344 3344 
L 5663 3344 
L 5663 -125 
Q 5663 -506 5388 -650 
Q 5100 -806 4544 -800 
Q 4613 -494 4400 -269 
Q 4594 -294 4856 -297 
Q 5119 -300 5175 -253 
Q 5231 -206 5231 50 
L 5231 3025 
L 4063 3025 
Q 4238 2894 4431 2800 
Q 4269 2525 3831 1938 
L 4200 1938 
Q 4519 1938 4844 1956 
Q 4825 1781 4844 1606 
Q 4519 1619 4200 1619 
L 3600 1619 
Q 3588 1588 3569 1619 
L 3344 1619 
L 3344 1019 
L 4344 1019 
Q 4669 1019 4988 1031 
Q 4969 856 4988 681 
Q 4669 700 4344 700 
L 3344 700 
L 3344 113 
Q 3344 -325 3363 -769 
z
M 3300 1938 
Q 3394 2063 3475 2181 
L 4006 3025 
L 2113 3025 
Q 2500 2525 2819 1975 
L 2750 1938 
L 3300 1938 
z
" transform="scale(0.015625)"/>
     </defs>
     <use xlink:href="#WenQuanYiZenHei-6bcf"/>
     <use xlink:href="#WenQuanYiZenHei-65e5" x="100"/>
     <use xlink:href="#WenQuanYiZenHei-65b0" x="200"/>
     <use xlink:href="#WenQuanYiZenHei-589e" x="300"/>
     <use xlink:href="#WenQuanYiZenHei-9884" x="400"/>
     <use xlink:href="#WenQuanYiZenHei-6d4b" x="500"/>
     <use xlink:href="#WenQuanYiZenHei-20" x="600"/>
     <use xlink:href="#WenQuanYiZenHei-2d" x="629.980469"/>
     <use xlink:href="#WenQuanYiZenHei-20" x="659.960938"/>
     <use xlink:href="#WenQuanYiZenHei-4e91" x="689.941406"/>
     <use xlink:href="#WenQuanYiZenHei-5357" x="789.941406"/>
    </g>
    <!-- ARIMA (1, 1, 1)x(0, 0, 0, 7) (R2 = 0.185039) -->
    <g transform="translate(580.839063 29.061)scale(0.12 -0.12)">
     <defs>
      <path id="WenQuanYiZenHei-41" d="M 3550 0 
L 2988 0 
L 2550 1281 
L 919 1281 
L 531 0 
L 69 0 
L 1494 4388 
L 2125 4388 
L 3550 0 
z
M 2425 1694 
L 1756 3800 
L 1075 1694 
L 2425 1694 
z
" transform="scale(0.015625)"/>
      <path id="WenQuanYiZenHei-52" d="M 3675 0 
L 3100 0 
L 2288 1900 
L 1069 1900 
L 1069 0 
L 519 0 
L 519 4388 
L 2163 4388 
Q 3006 4388 3400 3900 
Q 3581 3663 3625 3325 
Q 3631 3250 3631 3163 
Q 3631 2594 3219 2244 
Q 3038 2100 2813 2038 
L 3675 0 
z
M 3081 3169 
Q 3081 3825 2356 3906 
Q 2263 3919 2163 3919 
L 1069 3919 
L 1069 2350 
L 2100 2350 
Q 2906 2350 3044 2919 
Q 3081 3031 3081 3169 
z
" transform="scale(0.015625)"/>
      <path id="WenQuanYiZenHei-49" d="M 1100 0 
L 550 0 
L 550 4388 
L 1100 4388 
L 1100 0 
z
" transform="scale(0.015625)"/>
      <path id="WenQuanYiZenHei-4d" d="M 4756 0 
L 4206 0 
L 4206 3831 
L 4181 3831 
L 2788 0 
L 2419 0 
L 1000 3831 
L 975 3831 
L 975 0 
L 513 0 
L 513 4388 
L 1331 4388 
L 2656 875 
L 3950 4388 
L 4756 4388 
L 4756 0 
z
" transform="scale(0.015625)"/>
      <path id="WenQuanYiZenHei-28" d="M 1606 -1094 
L 1275 -1094 
Q 475 -100 338 1231 
Q 319 1438 319 1656 
Q 319 3031 1156 4244 
Q 1213 4313 1269 4388 
L 1600 4388 
Q 806 3169 794 1681 
Q 794 188 1606 -1094 
z
" transform="scale(0.015625)"/>
      <path id="WenQuanYiZenHei-2c" d="M 1363 75 
L 881 -825 
L 606 -825 
L 994 0 
L 656 0 
L 656 738 
L 1363 738 
L 1363 75 
z
" transform="scale(0.015625)"/>
      <path id="WenQuanYiZenHei-29" d="M 1600 1656 
Q 1600 306 869 -788 
Q 769 -950 644 -1094 
L 313 -1094 
Q 1125 188 1125 1681 
Q 1125 3169 338 4363 
Q 325 4375 319 4388 
L 650 4388 
Q 1525 3231 1594 1863 
Q 1600 1763 1600 1656 
z
" transform="scale(0.015625)"/>
      <path id="WenQuanYiZenHei-78" d="M 2806 0 
L 2213 0 
L 1394 1319 
L 544 0 
L 50 0 
L 1144 1681 
L 163 3250 
L 744 3250 
L 1431 2138 
L 2144 3250 
L 2631 3250 
L 1681 1794 
L 2806 0 
z
" transform="scale(0.015625)"/>
      <path id="WenQuanYiZenHei-3d" d="M 3569 2256 
L 263 2256 
L 263 2675 
L 3569 2675 
L 3569 2256 
z
M 3569 1019 
L 263 1019 
L 263 1431 
L 3569 1431 
L 3569 1019 
z
" transform="scale(0.015625)"/>
      <path id="WenQuanYiZenHei-2e" d="M 1344 0 
L 631 0 
L 631 725 
L 1344 725 
L 1344 0 
z
" transform="scale(0.015625)"/>
      <path id="WenQuanYiZenHei-38" d="M 3619 1175 
Q 3619 431 2850 100 
Q 2444 -63 1944 -63 
Q 1231 -63 725 269 
Q 225 594 225 1125 
Q 225 1881 1269 2281 
Q 719 2481 519 2938 
Q 444 3119 444 3319 
Q 444 4000 1144 4294 
Q 1519 4456 1963 4456 
Q 2669 4456 3094 4094 
Q 3425 3813 3425 3369 
Q 3425 2638 2575 2356 
Q 3231 2056 3450 1725 
Q 3619 1488 3619 1175 
z
M 2944 3344 
Q 2944 3906 2288 4019 
Q 2138 4044 1969 4044 
Q 1438 4044 1163 3775 
Q 1000 3613 1000 3375 
Q 1000 2925 1594 2663 
Q 1756 2588 1931 2550 
Q 2581 2725 2788 2956 
Q 2944 3125 2944 3344 
z
M 3075 1094 
Q 3075 1738 1875 2050 
Q 1094 1881 850 1463 
Q 763 1313 763 1131 
Q 763 569 1456 406 
Q 1681 344 1944 344 
Q 2519 344 2850 619 
Q 3075 813 3075 1094 
z
" transform="scale(0.015625)"/>
      <path id="WenQuanYiZenHei-39" d="M 3544 2300 
Q 3544 1163 3019 513 
Q 2563 -63 1775 -63 
Q 956 -63 563 488 
Q 463 631 394 813 
L 838 975 
Q 1025 494 1550 388 
Q 1656 369 1775 369 
Q 2594 369 2900 1325 
Q 3044 1769 3038 2313 
L 3025 2313 
Q 2675 1638 1944 1544 
Q 1844 1531 1744 1531 
Q 1050 1531 625 2031 
Q 294 2419 294 2963 
Q 294 3656 813 4094 
Q 1238 4456 1819 4456 
Q 2988 4456 3381 3363 
Q 3544 2900 3544 2300 
z
M 2925 2994 
Q 2925 3563 2469 3844 
Q 2206 4006 1863 4006 
Q 1275 4006 988 3563 
Q 844 3344 825 3056 
Q 819 3006 819 2956 
Q 819 2413 1269 2131 
Q 1538 1963 1875 1963 
Q 2363 1963 2681 2350 
Q 2925 2638 2925 2994 
z
" transform="scale(0.015625)"/>
     </defs>
     <use xlink:href="#WenQuanYiZenHei-41"/>
     <use xlink:href="#WenQuanYiZenHei-52" x="55.957031"/>
     <use xlink:href="#WenQuanYiZenHei-49" x="117.871094"/>
     <use xlink:href="#WenQuanYiZenHei-4d" x="143.847656"/>
     <use xlink:href="#WenQuanYiZenHei-41" x="225.78125"/>
     <use xlink:href="#WenQuanYiZenHei-20" x="281.738281"/>
     <use xlink:href="#WenQuanYiZenHei-28" x="311.71875"/>
     <use xlink:href="#WenQuanYiZenHei-31" x="341.699219"/>
     <use xlink:href="#WenQuanYiZenHei-2c" x="401.660156"/>
     <use xlink:href="#WenQuanYiZenHei-20" x="431.640625"/>
     <use xlink:href="#WenQuanYiZenHei-31" x="461.621094"/>
     <use xlink:href="#WenQuanYiZenHei-2c" x="521.582031"/>
     <use xlink:href="#WenQuanYiZenHei-20" x="551.5625"/>
     <use xlink:href="#WenQuanYiZenHei-31" x="581.542969"/>
     <use xlink:href="#WenQuanYiZenHei-29" x="641.503906"/>
     <use xlink:href="#WenQuanYiZenHei-78" x="671.484375"/>
     <use xlink:href="#WenQuanYiZenHei-28" x="715.429688"/>
     <use xlink:href="#WenQuanYiZenHei-30" x="745.410156"/>
     <use xlink:href="#WenQuanYiZenHei-2c" x="805.371094"/>
     <use xlink:href="#WenQuanYiZenHei-20" x="835.351562"/>
     <use xlink:href="#WenQuanYiZenHei-30" x="865.332031"/>
     <use xlink:href="#WenQuanYiZenHei-2c" x="925.292969"/>
     <use xlink:href="#WenQuanYiZenHei-20" x="955.273438"/>
     <use xlink:href="#WenQuanYiZenHei-30" x="985.253906"/>
     <use xlink:href="#WenQuanYiZenHei-2c" x="1045.214844"/>
     <use xlink:href="#WenQuanYiZenHei-20" x="1075.195312"/>
     <use xlink:href="#WenQuanYiZenHei-37" x="1105.175781"/>
     <use xlink:href="#WenQuanYiZenHei-29" x="1165.136719"/>
     <use xlink:href="#WenQuanYiZenHei-20" x="1195.117188"/>
     <use xlink:href="#WenQuanYiZenHei-28" x="1225.097656"/>
     <use xlink:href="#WenQuanYiZenHei-52" x="1255.078125"/>
     <use xlink:href="#WenQuanYiZenHei-32" x="1316.992188"/>
     <use xlink:href="#WenQuanYiZenHei-20" x="1376.953125"/>
     <use xlink:href="#WenQuanYiZenHei-3d" x="1406.933594"/>
     <use xlink:href="#WenQuanYiZenHei-20" x="1466.894531"/>
     <use xlink:href="#WenQuanYiZenHei-30" x="1496.875"/>
     <use xlink:href="#WenQuanYiZenHei-2e" x="1556.835938"/>
     <use xlink:href="#WenQuanYiZenHei-31" x="1586.816406"/>
     <use xlink:href="#WenQuanYiZenHei-38" x="1646.777344"/>
     <use xlink:href="#WenQuanYiZenHei-35" x="1706.738281"/>
     <use xlink:href="#WenQuanYiZenHei-30" x="1766.699219"/>
     <use xlink:href="#WenQuanYiZenHei-33" x="1826.660156"/>
     <use xlink:href="#WenQuanYiZenHei-39" x="1886.621094"/>
     <use xlink:href="#WenQuanYiZenHei-29" x="1946.582031"/>
    </g>
   </g>
   <g id="legend_1">
    <g id="patch_7">
     <path d="M 1300.046875 87.056312 
L 1362.046875 87.056312 
Q 1364.046875 87.056312 1364.046875 85.056312 
L 1364.046875 42.061 
Q 1364.046875 40.061 1362.046875 40.061 
L 1300.046875 40.061 
Q 1298.046875 40.061 1298.046875 42.061 
L 1298.046875 85.056312 
Q 1298.046875 87.056312 1300.046875 87.056312 
z
" style="fill: #ffffff; opacity: 0.8; stroke: #cccccc; stroke-linejoin: miter"/>
    </g>
    <g id="line2d_22">
     <path d="M 1302.046875 48.695375 
L 1312.046875 48.695375 
L 1322.046875 48.695375 
" style="fill: none; stroke: #0000ff; stroke-width: 1.5; stroke-linecap: square"/>
    </g>
    <g id="text_20">
     <!-- 实际值 -->
     <g transform="translate(1330.046875 52.195375)scale(0.1 -0.1)">
      <defs>
       <path id="WenQuanYiZenHei-5b9e" d="M 1025 1175 
Q 694 1175 356 1163 
Q 375 1344 356 1525 
Q 694 1506 1025 1506 
L 3363 1506 
L 3363 2625 
Q 3363 3075 3338 3519 
Q 3581 3494 3825 3519 
Q 3800 3075 3800 2625 
L 3800 1506 
L 5406 1506 
Q 5744 1506 6075 1525 
Q 6056 1344 6075 1163 
Q 5744 1175 5406 1175 
L 4038 1175 
L 4981 456 
L 6131 -488 
L 5819 -856 
L 4681 75 
L 3638 875 
Q 3313 231 2475 -231 
Q 1638 -694 700 -825 
Q 638 -519 344 -400 
Q 1450 -319 2406 244 
Q 3113 656 3300 1175 
L 1025 1175 
z
M 2263 1581 
Q 1763 2081 1200 2513 
L 1494 2894 
Q 2081 2444 2600 1919 
L 2263 1581 
z
M 2638 2500 
Q 2219 2963 1731 3363 
L 2044 3738 
Q 2556 3313 3000 2819 
L 2638 2500 
z
M 919 3156 
L 481 3156 
L 481 4344 
L 3069 4344 
Q 2794 4731 2469 5081 
L 2825 5413 
Q 3256 4944 3613 4413 
L 3513 4344 
L 5869 4344 
L 5869 3156 
L 5425 3156 
L 5425 4013 
L 919 4013 
L 919 3156 
z
" transform="scale(0.015625)"/>
       <path id="WenQuanYiZenHei-9645" d="M 6000 431 
L 5569 194 
L 4963 1219 
L 4313 2219 
L 4719 2494 
L 5375 1481 
L 6000 431 
z
M 2956 2450 
Q 3181 2344 3419 2294 
Q 3006 1038 1944 -188 
Q 1794 -6 1569 56 
Q 2069 600 2372 1156 
Q 2675 1713 2956 2450 
z
M 3750 25 
L 3750 2913 
L 2819 2913 
Q 2475 2913 2125 2894 
Q 2144 3081 2125 3269 
Q 2475 3256 2819 3256 
L 5469 3256 
Q 5819 3256 6163 3269 
Q 6144 3081 6163 2894 
Q 5813 2913 5469 2913 
L 4194 2913 
L 4194 -144 
Q 4194 -725 3456 -813 
L 3263 -825 
Q 3325 -506 3125 -250 
Q 3250 -281 3394 -306 
Q 3663 -313 3706 -272 
Q 3750 -231 3750 25 
z
M 5544 4950 
Q 5525 4756 5544 4569 
Q 5194 4588 4844 4588 
L 3325 4588 
Q 2975 4588 2625 4569 
Q 2644 4756 2625 4950 
Q 2975 4931 3325 4931 
L 4844 4931 
Q 5194 4931 5544 4950 
z
M 819 -850 
Q 581 -825 344 -850 
Q 369 -419 369 19 
L 363 4938 
L 2256 4938 
L 2256 4625 
Q 2150 4513 2075 4375 
L 1481 3238 
Q 2181 2319 2181 1156 
Q 2144 400 1569 163 
L 1406 88 
Q 1288 300 1138 481 
Q 1294 538 1450 606 
Q 1763 744 1794 1156 
Q 1794 1744 1600 2300 
Q 1406 2856 1038 3313 
L 1725 4625 
L 788 4625 
L 794 19 
Q 794 -419 819 -850 
z
" transform="scale(0.015625)"/>
       <path id="WenQuanYiZenHei-503c" d="M 6175 -219 
Q 6156 -388 6175 -556 
Q 5863 -544 5550 -544 
L 2313 -544 
Q 2000 -544 1688 -556 
Q 1706 -388 1688 -219 
L 2506 -231 
L 2506 3469 
L 3644 3469 
L 3644 4119 
L 2638 4119 
Q 2325 4119 2013 4100 
Q 2031 4269 2013 4438 
Q 2325 4425 2638 4425 
L 3638 4425 
Q 3638 4719 3619 5013 
Q 3856 4988 4094 5013 
Q 4075 4719 4075 4425 
L 5344 4425 
Q 5650 4425 5963 4438 
Q 5950 4269 5963 4100 
Q 5656 4119 5344 4119 
L 4069 4119 
L 4069 3469 
L 5300 3469 
L 5300 -231 
L 5550 -231 
Q 5863 -231 6175 -219 
z
M 4869 2556 
L 4869 3156 
L 2931 3156 
Q 2931 2850 2931 2556 
L 4869 2556 
z
M 4869 1669 
L 4869 2250 
L 2931 2250 
L 2931 1669 
L 4869 1669 
z
M 4869 731 
L 4869 1363 
L 2931 1363 
L 2931 731 
L 4869 731 
z
M 4869 -231 
L 4869 425 
L 2931 425 
L 2931 -231 
L 4869 -231 
z
M 2106 4925 
Q 1856 4075 1463 3338 
L 1463 31 
Q 1463 -413 1481 -850 
Q 1256 -825 1031 -850 
Q 1050 -413 1050 31 
L 1050 2681 
Q 750 2269 375 1931 
Q 238 2156 0 2256 
Q 331 2544 619 2875 
Q 1094 3425 1300 3950 
Q 1494 4469 1625 5050 
Q 1850 4963 2106 4925 
z
" transform="scale(0.015625)"/>
      </defs>
      <use xlink:href="#WenQuanYiZenHei-5b9e"/>
      <use xlink:href="#WenQuanYiZenHei-9645" x="100"/>
      <use xlink:href="#WenQuanYiZenHei-503c" x="200"/>
     </g>
    </g>
    <g id="line2d_23">
     <path d="M 1302.046875 63.3735 
L 1312.046875 63.3735 
L 1322.046875 63.3735 
" style="fill: none; stroke: #ffa500; stroke-width: 1.5; stroke-linecap: square"/>
    </g>
    <g id="text_21">
     <!-- 校验值 -->
     <g transform="translate(1330.046875 66.8735)scale(0.1 -0.1)">
      <defs>
       <path id="WenQuanYiZenHei-6821" d="M 5256 2463 
Q 5025 1475 4494 706 
Q 5125 -94 6175 -544 
Q 5950 -663 5850 -900 
Q 4906 -494 4250 381 
Q 3931 0 3475 -350 
Q 3019 -700 2388 -919 
Q 2338 -656 2138 -475 
Q 3306 -69 4006 738 
Q 3563 1444 3300 2331 
Q 3050 2050 2706 1800 
Q 2606 2000 2406 2106 
Q 2900 2444 3181 2938 
Q 3350 3225 3488 3538 
Q 3700 3431 3925 3369 
Q 3763 2894 3425 2475 
L 3650 2531 
Q 3888 1675 4244 1075 
Q 4469 1444 4603 1937 
Q 4738 2431 4775 2688 
Q 4963 2644 5150 2625 
Q 4919 2969 4663 3294 
L 5038 3588 
Q 5544 2925 5975 2213 
L 5569 1969 
L 5256 2463 
z
M 6006 4050 
Q 5988 3881 6006 3713 
Q 5694 3725 5381 3725 
L 3413 3725 
Q 3100 3725 2788 3713 
Q 2806 3881 2788 4050 
Q 3100 4031 3413 4031 
L 4325 4031 
Q 4019 4525 3644 4969 
L 4000 5275 
Q 4413 4788 4750 4244 
L 4406 4031 
L 5381 4031 
Q 5694 4031 6006 4050 
z
M 406 263 
Q 238 431 -25 469 
Q 194 825 466 1337 
Q 738 1850 925 2406 
Q 1113 2963 1256 3519 
L 825 3519 
Q 506 3519 188 3500 
Q 206 3700 188 3900 
Q 506 3881 825 3881 
L 1363 3881 
L 1363 4263 
Q 1363 4719 1338 5175 
Q 1556 5150 1775 5175 
Q 1756 4719 1756 4263 
L 1756 3881 
L 2525 3900 
Q 2506 3700 2525 3500 
L 1756 3519 
L 1756 2738 
L 1931 2881 
Q 2306 2300 2613 1650 
L 2231 1413 
Q 2081 1725 1919 2019 
L 1756 2300 
L 1756 69 
Q 1756 -388 1775 -850 
Q 1556 -825 1338 -850 
Q 1363 -388 1363 69 
L 1363 2438 
Q 925 1144 406 263 
z
" transform="scale(0.015625)"/>
       <path id="WenQuanYiZenHei-9a8c" d="M 5981 -106 
Q 5963 -275 5981 -444 
Q 5669 -431 5356 -431 
L 2969 -431 
Q 2656 -431 2350 -444 
Q 2363 -275 2350 -106 
Q 2656 -125 2969 -125 
L 4369 -125 
Q 4600 431 4881 1288 
L 5206 2300 
Q 5425 2206 5663 2163 
Q 5375 1188 4831 -125 
L 5356 -125 
Q 5669 -125 5981 -106 
z
M 4063 594 
Q 3788 1425 3425 2219 
L 3856 2419 
Q 4225 1600 4513 744 
L 4063 594 
z
M 3163 363 
Q 2931 1200 2613 2006 
L 3056 2175 
Q 3381 1350 3619 488 
L 3163 363 
z
M 4581 2550 
L 3513 2550 
Q 3200 2550 2888 2538 
Q 2900 2663 2894 2769 
Q 2569 2488 2206 2300 
Q 2113 2550 1894 2700 
Q 2488 2975 2975 3463 
Q 3269 3756 3394 4006 
Q 3644 4513 3794 5063 
Q 4038 4975 4294 4931 
Q 4250 4806 4206 4681 
Q 4475 3888 5025 3388 
Q 5519 2938 6169 2650 
Q 5938 2538 5838 2300 
Q 5513 2456 5200 2700 
Q 5200 2619 5206 2538 
Q 4894 2550 4581 2550 
z
M 3513 2863 
L 4994 2869 
Q 4344 3438 3988 4194 
Q 3594 3406 3013 2869 
Q 3263 2863 3513 2863 
z
M 206 444 
Q 188 756 44 963 
Q 319 956 650 1003 
Q 981 1050 1731 1281 
L 1738 1006 
Q 800 719 206 444 
z
M 525 4000 
Q 744 3950 994 3944 
Q 925 3519 875 3081 
L 763 2144 
L 1475 2144 
L 1831 4444 
L 663 4444 
Q 350 4444 38 4431 
Q 56 4600 38 4769 
Q 350 4756 663 4756 
L 2313 4756 
L 1913 2144 
L 2375 2144 
L 2200 -200 
Q 2188 -425 1988 -588 
Q 1694 -800 1181 -788 
L 944 -788 
Q 1000 -450 788 -269 
Q 1013 -294 1334 -287 
Q 1656 -281 1715 -243 
Q 1775 -206 1781 -50 
L 1925 1831 
L 294 1831 
L 444 3131 
Q 500 3569 525 4000 
z
" transform="scale(0.015625)"/>
      </defs>
      <use xlink:href="#WenQuanYiZenHei-6821"/>
      <use xlink:href="#WenQuanYiZenHei-9a8c" x="100"/>
      <use xlink:href="#WenQuanYiZenHei-503c" x="200"/>
     </g>
    </g>
    <g id="line2d_24">
     <path d="M 1302.046875 77.895375 
L 1312.046875 77.895375 
L 1322.046875 77.895375 
" style="fill: none; stroke: #ff0000; stroke-width: 1.5; stroke-linecap: square"/>
    </g>
    <g id="text_22">
     <!-- 预测值 -->
     <g transform="translate(1330.046875 81.395375)scale(0.1 -0.1)">
      <use xlink:href="#WenQuanYiZenHei-9884"/>
      <use xlink:href="#WenQuanYiZenHei-6d4b" x="100"/>
      <use xlink:href="#WenQuanYiZenHei-503c" x="200"/>
     </g>
    </g>
   </g>
  </g>
 </g>
 <defs>
  <clipPath id="pbffab306c0">
   <rect x="29.846875" y="35.061" width="1339.2" height="332.64"/>
  </clipPath>
 </defs>
</svg>
