<?xml version="1.0" encoding="utf-8" standalone="no"?>
<!DOCTYPE svg PUBLIC "-//W3C//DTD SVG 1.1//EN"
  "http://www.w3.org/Graphics/SVG/1.1/DTD/svg11.dtd">
<svg xmlns:xlink="http://www.w3.org/1999/xlink" width="1378.590625pt" height="390.418188pt" viewBox="0 0 1378.590625 390.418188" xmlns="http://www.w3.org/2000/svg" version="1.1">
 <metadata>
  <rdf:RDF xmlns:dc="http://purl.org/dc/elements/1.1/" xmlns:cc="http://creativecommons.org/ns#" xmlns:rdf="http://www.w3.org/1999/02/22-rdf-syntax-ns#">
   <cc:Work>
    <dc:type rdf:resource="http://purl.org/dc/dcmitype/StillImage"/>
    <dc:date>2022-07-30T18:17:56.665030</dc:date>
    <dc:format>image/svg+xml</dc:format>
    <dc:creator>
     <cc:Agent>
      <dc:title>Matplotlib v3.5.2, https://matplotlib.org/</dc:title>
     </cc:Agent>
    </dc:creator>
   </cc:Work>
  </rdf:RDF>
 </metadata>
 <defs>
  <style type="text/css">*{stroke-linejoin: round; stroke-linecap: butt}</style>
 </defs>
 <g id="figure_1">
  <g id="patch_1">
   <path d="M 0 390.418188 
L 1378.590625 390.418188 
L 1378.590625 -0 
L 0 -0 
z
" style="fill: #ffffff"/>
  </g>
  <g id="axes_1">
   <g id="patch_2">
    <path d="M 32.190625 367.701 
L 1371.390625 367.701 
L 1371.390625 35.061 
L 32.190625 35.061 
z
" style="fill: #ffffff"/>
   </g>
   <g id="matplotlib.axis_1">
    <g id="xtick_1">
     <g id="line2d_1">
      <defs>
       <path id="m42f36af90e" d="M 0 0 
L 0 3.5 
" style="stroke: #000000; stroke-width: 0.8"/>
      </defs>
      <g>
       <use xlink:href="#m42f36af90e" x="64.294287" y="367.701" style="stroke: #000000; stroke-width: 0.8"/>
      </g>
     </g>
     <g id="text_1">
      <!-- 2020-01 -->
      <g transform="translate(44.804443 381.55725)scale(0.1 -0.1)">
       <defs>
        <path id="WenQuanYiZenHei-32" d="M 3488 0 
L 369 0 
L 369 456 
L 2150 1850 
Q 2931 2463 2931 3144 
Q 2931 3619 2488 3863 
Q 2231 4013 1931 4013 
Q 1425 4013 1113 3619 
Q 894 3356 881 3013 
L 369 3169 
Q 531 3981 1213 4300 
Q 1544 4456 1950 4456 
Q 2631 4456 3088 4044 
L 3225 3888 
L 3350 3706 
Q 3481 3444 3481 3144 
Q 3481 2313 2519 1569 
L 1069 456 
L 3488 456 
L 3488 0 
z
" transform="scale(0.015625)"/>
        <path id="WenQuanYiZenHei-30" d="M 3581 2175 
Q 3581 1288 3169 638 
Q 2713 -63 1938 -63 
Q 1025 -63 563 831 
Q 256 1425 256 2188 
Q 256 3188 700 3819 
Q 1138 4456 1888 4456 
Q 2863 4456 3306 3500 
Q 3581 2925 3581 2175 
z
M 3019 2100 
Q 3019 3356 2500 3806 
L 2350 3919 
Q 2144 4031 1888 4031 
Q 1100 4031 888 2956 
Q 819 2625 819 2225 
Q 819 1013 1338 569 
Q 1588 356 1938 356 
Q 2675 356 2925 1294 
Q 3019 1663 3019 2100 
z
" transform="scale(0.015625)"/>
        <path id="WenQuanYiZenHei-2d" d="M 1363 1444 
L 0 1444 
L 0 1844 
L 1363 1844 
L 1363 1444 
z
" transform="scale(0.015625)"/>
        <path id="WenQuanYiZenHei-31" d="M 3556 0 
L 488 0 
L 488 406 
L 1800 406 
L 1800 3725 
Q 1231 3125 588 2788 
L 588 3338 
Q 1456 3781 1931 4388 
L 2331 4388 
L 2331 406 
L 3556 406 
L 3556 0 
z
" transform="scale(0.015625)"/>
       </defs>
       <use xlink:href="#WenQuanYiZenHei-32"/>
       <use xlink:href="#WenQuanYiZenHei-30" x="59.960938"/>
       <use xlink:href="#WenQuanYiZenHei-32" x="119.921875"/>
       <use xlink:href="#WenQuanYiZenHei-30" x="179.882812"/>
       <use xlink:href="#WenQuanYiZenHei-2d" x="239.84375"/>
       <use xlink:href="#WenQuanYiZenHei-30" x="269.824219"/>
       <use xlink:href="#WenQuanYiZenHei-31" x="329.785156"/>
      </g>
     </g>
    </g>
    <g id="xtick_2">
     <g id="line2d_2">
      <g>
       <use xlink:href="#m42f36af90e" x="183.293603" y="367.701" style="stroke: #000000; stroke-width: 0.8"/>
      </g>
     </g>
     <g id="text_2">
      <!-- 2020-04 -->
      <g transform="translate(163.803759 381.55725)scale(0.1 -0.1)">
       <defs>
        <path id="WenQuanYiZenHei-34" d="M 3631 1025 
L 2913 1025 
L 2913 0 
L 2381 0 
L 2381 1025 
L 219 1025 
L 219 1388 
L 2225 4388 
L 2913 4388 
L 2913 1444 
L 3631 1444 
L 3631 1025 
z
M 2381 1444 
L 2381 3963 
L 788 1444 
L 2381 1444 
z
" transform="scale(0.015625)"/>
       </defs>
       <use xlink:href="#WenQuanYiZenHei-32"/>
       <use xlink:href="#WenQuanYiZenHei-30" x="59.960938"/>
       <use xlink:href="#WenQuanYiZenHei-32" x="119.921875"/>
       <use xlink:href="#WenQuanYiZenHei-30" x="179.882812"/>
       <use xlink:href="#WenQuanYiZenHei-2d" x="239.84375"/>
       <use xlink:href="#WenQuanYiZenHei-30" x="269.824219"/>
       <use xlink:href="#WenQuanYiZenHei-34" x="329.785156"/>
      </g>
     </g>
    </g>
    <g id="xtick_3">
     <g id="line2d_3">
      <g>
       <use xlink:href="#m42f36af90e" x="302.29292" y="367.701" style="stroke: #000000; stroke-width: 0.8"/>
      </g>
     </g>
     <g id="text_3">
      <!-- 2020-07 -->
      <g transform="translate(282.803076 381.55725)scale(0.1 -0.1)">
       <defs>
        <path id="WenQuanYiZenHei-37" d="M 3400 4056 
Q 1838 2175 1838 0 
L 1275 0 
Q 1269 1438 2056 2825 
Q 2381 3400 2825 3913 
L 444 3913 
L 500 4388 
L 3400 4388 
L 3400 4056 
z
" transform="scale(0.015625)"/>
       </defs>
       <use xlink:href="#WenQuanYiZenHei-32"/>
       <use xlink:href="#WenQuanYiZenHei-30" x="59.960938"/>
       <use xlink:href="#WenQuanYiZenHei-32" x="119.921875"/>
       <use xlink:href="#WenQuanYiZenHei-30" x="179.882812"/>
       <use xlink:href="#WenQuanYiZenHei-2d" x="239.84375"/>
       <use xlink:href="#WenQuanYiZenHei-30" x="269.824219"/>
       <use xlink:href="#WenQuanYiZenHei-37" x="329.785156"/>
      </g>
     </g>
    </g>
    <g id="xtick_4">
     <g id="line2d_4">
      <g>
       <use xlink:href="#m42f36af90e" x="422.599921" y="367.701" style="stroke: #000000; stroke-width: 0.8"/>
      </g>
     </g>
     <g id="text_4">
      <!-- 2020-10 -->
      <g transform="translate(403.110077 381.55725)scale(0.1 -0.1)">
       <use xlink:href="#WenQuanYiZenHei-32"/>
       <use xlink:href="#WenQuanYiZenHei-30" x="59.960938"/>
       <use xlink:href="#WenQuanYiZenHei-32" x="119.921875"/>
       <use xlink:href="#WenQuanYiZenHei-30" x="179.882812"/>
       <use xlink:href="#WenQuanYiZenHei-2d" x="239.84375"/>
       <use xlink:href="#WenQuanYiZenHei-31" x="269.824219"/>
       <use xlink:href="#WenQuanYiZenHei-30" x="329.785156"/>
      </g>
     </g>
    </g>
    <g id="xtick_5">
     <g id="line2d_5">
      <g>
       <use xlink:href="#m42f36af90e" x="542.906922" y="367.701" style="stroke: #000000; stroke-width: 0.8"/>
      </g>
     </g>
     <g id="text_5">
      <!-- 2021-01 -->
      <g transform="translate(523.417078 381.55725)scale(0.1 -0.1)">
       <use xlink:href="#WenQuanYiZenHei-32"/>
       <use xlink:href="#WenQuanYiZenHei-30" x="59.960938"/>
       <use xlink:href="#WenQuanYiZenHei-32" x="119.921875"/>
       <use xlink:href="#WenQuanYiZenHei-31" x="179.882812"/>
       <use xlink:href="#WenQuanYiZenHei-2d" x="239.84375"/>
       <use xlink:href="#WenQuanYiZenHei-30" x="269.824219"/>
       <use xlink:href="#WenQuanYiZenHei-31" x="329.785156"/>
      </g>
     </g>
    </g>
    <g id="xtick_6">
     <g id="line2d_6">
      <g>
       <use xlink:href="#m42f36af90e" x="660.598554" y="367.701" style="stroke: #000000; stroke-width: 0.8"/>
      </g>
     </g>
     <g id="text_6">
      <!-- 2021-04 -->
      <g transform="translate(641.10871 381.55725)scale(0.1 -0.1)">
       <use xlink:href="#WenQuanYiZenHei-32"/>
       <use xlink:href="#WenQuanYiZenHei-30" x="59.960938"/>
       <use xlink:href="#WenQuanYiZenHei-32" x="119.921875"/>
       <use xlink:href="#WenQuanYiZenHei-31" x="179.882812"/>
       <use xlink:href="#WenQuanYiZenHei-2d" x="239.84375"/>
       <use xlink:href="#WenQuanYiZenHei-30" x="269.824219"/>
       <use xlink:href="#WenQuanYiZenHei-34" x="329.785156"/>
      </g>
     </g>
    </g>
    <g id="xtick_7">
     <g id="line2d_7">
      <g>
       <use xlink:href="#m42f36af90e" x="779.59787" y="367.701" style="stroke: #000000; stroke-width: 0.8"/>
      </g>
     </g>
     <g id="text_7">
      <!-- 2021-07 -->
      <g transform="translate(760.108027 381.55725)scale(0.1 -0.1)">
       <use xlink:href="#WenQuanYiZenHei-32"/>
       <use xlink:href="#WenQuanYiZenHei-30" x="59.960938"/>
       <use xlink:href="#WenQuanYiZenHei-32" x="119.921875"/>
       <use xlink:href="#WenQuanYiZenHei-31" x="179.882812"/>
       <use xlink:href="#WenQuanYiZenHei-2d" x="239.84375"/>
       <use xlink:href="#WenQuanYiZenHei-30" x="269.824219"/>
       <use xlink:href="#WenQuanYiZenHei-37" x="329.785156"/>
      </g>
     </g>
    </g>
    <g id="xtick_8">
     <g id="line2d_8">
      <g>
       <use xlink:href="#m42f36af90e" x="899.904872" y="367.701" style="stroke: #000000; stroke-width: 0.8"/>
      </g>
     </g>
     <g id="text_8">
      <!-- 2021-10 -->
      <g transform="translate(880.415028 381.55725)scale(0.1 -0.1)">
       <use xlink:href="#WenQuanYiZenHei-32"/>
       <use xlink:href="#WenQuanYiZenHei-30" x="59.960938"/>
       <use xlink:href="#WenQuanYiZenHei-32" x="119.921875"/>
       <use xlink:href="#WenQuanYiZenHei-31" x="179.882812"/>
       <use xlink:href="#WenQuanYiZenHei-2d" x="239.84375"/>
       <use xlink:href="#WenQuanYiZenHei-31" x="269.824219"/>
       <use xlink:href="#WenQuanYiZenHei-30" x="329.785156"/>
      </g>
     </g>
    </g>
    <g id="xtick_9">
     <g id="line2d_9">
      <g>
       <use xlink:href="#m42f36af90e" x="1020.211873" y="367.701" style="stroke: #000000; stroke-width: 0.8"/>
      </g>
     </g>
     <g id="text_9">
      <!-- 2022-01 -->
      <g transform="translate(1000.722029 381.55725)scale(0.1 -0.1)">
       <use xlink:href="#WenQuanYiZenHei-32"/>
       <use xlink:href="#WenQuanYiZenHei-30" x="59.960938"/>
       <use xlink:href="#WenQuanYiZenHei-32" x="119.921875"/>
       <use xlink:href="#WenQuanYiZenHei-32" x="179.882812"/>
       <use xlink:href="#WenQuanYiZenHei-2d" x="239.84375"/>
       <use xlink:href="#WenQuanYiZenHei-30" x="269.824219"/>
       <use xlink:href="#WenQuanYiZenHei-31" x="329.785156"/>
      </g>
     </g>
    </g>
    <g id="xtick_10">
     <g id="line2d_10">
      <g>
       <use xlink:href="#m42f36af90e" x="1137.903505" y="367.701" style="stroke: #000000; stroke-width: 0.8"/>
      </g>
     </g>
     <g id="text_10">
      <!-- 2022-04 -->
      <g transform="translate(1118.413661 381.55725)scale(0.1 -0.1)">
       <use xlink:href="#WenQuanYiZenHei-32"/>
       <use xlink:href="#WenQuanYiZenHei-30" x="59.960938"/>
       <use xlink:href="#WenQuanYiZenHei-32" x="119.921875"/>
       <use xlink:href="#WenQuanYiZenHei-32" x="179.882812"/>
       <use xlink:href="#WenQuanYiZenHei-2d" x="239.84375"/>
       <use xlink:href="#WenQuanYiZenHei-30" x="269.824219"/>
       <use xlink:href="#WenQuanYiZenHei-34" x="329.785156"/>
      </g>
     </g>
    </g>
    <g id="xtick_11">
     <g id="line2d_11">
      <g>
       <use xlink:href="#m42f36af90e" x="1256.902821" y="367.701" style="stroke: #000000; stroke-width: 0.8"/>
      </g>
     </g>
     <g id="text_11">
      <!-- 2022-07 -->
      <g transform="translate(1237.412977 381.55725)scale(0.1 -0.1)">
       <use xlink:href="#WenQuanYiZenHei-32"/>
       <use xlink:href="#WenQuanYiZenHei-30" x="59.960938"/>
       <use xlink:href="#WenQuanYiZenHei-32" x="119.921875"/>
       <use xlink:href="#WenQuanYiZenHei-32" x="179.882812"/>
       <use xlink:href="#WenQuanYiZenHei-2d" x="239.84375"/>
       <use xlink:href="#WenQuanYiZenHei-30" x="269.824219"/>
       <use xlink:href="#WenQuanYiZenHei-37" x="329.785156"/>
      </g>
     </g>
    </g>
   </g>
   <g id="matplotlib.axis_2">
    <g id="ytick_1">
     <g id="line2d_12">
      <defs>
       <path id="m91d5b516bf" d="M 0 0 
L -3.5 0 
" style="stroke: #000000; stroke-width: 0.8"/>
      </defs>
      <g>
       <use xlink:href="#m91d5b516bf" x="32.190625" y="351.330281" style="stroke: #000000; stroke-width: 0.8"/>
      </g>
     </g>
     <g id="text_12">
      <!-- 0 -->
      <g transform="translate(19.19375 354.758406)scale(0.1 -0.1)">
       <use xlink:href="#WenQuanYiZenHei-30"/>
      </g>
     </g>
    </g>
    <g id="ytick_2">
     <g id="line2d_13">
      <g>
       <use xlink:href="#m91d5b516bf" x="32.190625" y="305.701602" style="stroke: #000000; stroke-width: 0.8"/>
      </g>
     </g>
     <g id="text_13">
      <!-- 20 -->
      <g transform="translate(13.196875 309.129727)scale(0.1 -0.1)">
       <use xlink:href="#WenQuanYiZenHei-32"/>
       <use xlink:href="#WenQuanYiZenHei-30" x="59.960938"/>
      </g>
     </g>
    </g>
    <g id="ytick_3">
     <g id="line2d_14">
      <g>
       <use xlink:href="#m91d5b516bf" x="32.190625" y="260.072923" style="stroke: #000000; stroke-width: 0.8"/>
      </g>
     </g>
     <g id="text_14">
      <!-- 40 -->
      <g transform="translate(13.196875 263.501048)scale(0.1 -0.1)">
       <use xlink:href="#WenQuanYiZenHei-34"/>
       <use xlink:href="#WenQuanYiZenHei-30" x="59.960938"/>
      </g>
     </g>
    </g>
    <g id="ytick_4">
     <g id="line2d_15">
      <g>
       <use xlink:href="#m91d5b516bf" x="32.190625" y="214.444244" style="stroke: #000000; stroke-width: 0.8"/>
      </g>
     </g>
     <g id="text_15">
      <!-- 60 -->
      <g transform="translate(13.196875 217.872369)scale(0.1 -0.1)">
       <defs>
        <path id="WenQuanYiZenHei-36" d="M 3550 1431 
Q 3550 725 3006 288 
Q 2581 -63 1994 -63 
Q 1013 -63 563 825 
Q 288 1363 288 2081 
Q 288 3294 856 3938 
Q 1319 4456 2075 4456 
Q 2969 4456 3363 3756 
Q 3431 3631 3481 3481 
L 2988 3350 
Q 2750 3994 2075 4006 
Q 1056 4006 844 2669 
Q 794 2356 794 1981 
L 806 1981 
Q 1006 2506 1544 2744 
Q 1819 2869 2119 2869 
Q 2788 2869 3213 2375 
Q 3550 1975 3550 1431 
z
M 3038 1406 
Q 3038 1906 2656 2213 
Q 2381 2431 2038 2431 
Q 1525 2431 1181 2044 
Q 919 1744 919 1356 
Q 919 881 1344 581 
Q 1631 375 1981 375 
Q 2519 375 2838 781 
Q 3038 1050 3038 1406 
z
" transform="scale(0.015625)"/>
       </defs>
       <use xlink:href="#WenQuanYiZenHei-36"/>
       <use xlink:href="#WenQuanYiZenHei-30" x="59.960938"/>
      </g>
     </g>
    </g>
    <g id="ytick_5">
     <g id="line2d_16">
      <g>
       <use xlink:href="#m91d5b516bf" x="32.190625" y="168.815565" style="stroke: #000000; stroke-width: 0.8"/>
      </g>
     </g>
     <g id="text_16">
      <!-- 80 -->
      <g transform="translate(13.196875 172.24369)scale(0.1 -0.1)">
       <defs>
        <path id="WenQuanYiZenHei-38" d="M 3619 1175 
Q 3619 431 2850 100 
Q 2444 -63 1944 -63 
Q 1231 -63 725 269 
Q 225 594 225 1125 
Q 225 1881 1269 2281 
Q 719 2481 519 2938 
Q 444 3119 444 3319 
Q 444 4000 1144 4294 
Q 1519 4456 1963 4456 
Q 2669 4456 3094 4094 
Q 3425 3813 3425 3369 
Q 3425 2638 2575 2356 
Q 3231 2056 3450 1725 
Q 3619 1488 3619 1175 
z
M 2944 3344 
Q 2944 3906 2288 4019 
Q 2138 4044 1969 4044 
Q 1438 4044 1163 3775 
Q 1000 3613 1000 3375 
Q 1000 2925 1594 2663 
Q 1756 2588 1931 2550 
Q 2581 2725 2788 2956 
Q 2944 3125 2944 3344 
z
M 3075 1094 
Q 3075 1738 1875 2050 
Q 1094 1881 850 1463 
Q 763 1313 763 1131 
Q 763 569 1456 406 
Q 1681 344 1944 344 
Q 2519 344 2850 619 
Q 3075 813 3075 1094 
z
" transform="scale(0.015625)"/>
       </defs>
       <use xlink:href="#WenQuanYiZenHei-38"/>
       <use xlink:href="#WenQuanYiZenHei-30" x="59.960938"/>
      </g>
     </g>
    </g>
    <g id="ytick_6">
     <g id="line2d_17">
      <g>
       <use xlink:href="#m91d5b516bf" x="32.190625" y="123.186886" style="stroke: #000000; stroke-width: 0.8"/>
      </g>
     </g>
     <g id="text_17">
      <!-- 100 -->
      <g transform="translate(7.2 126.615011)scale(0.1 -0.1)">
       <use xlink:href="#WenQuanYiZenHei-31"/>
       <use xlink:href="#WenQuanYiZenHei-30" x="59.960938"/>
       <use xlink:href="#WenQuanYiZenHei-30" x="119.921875"/>
      </g>
     </g>
    </g>
    <g id="ytick_7">
     <g id="line2d_18">
      <g>
       <use xlink:href="#m91d5b516bf" x="32.190625" y="77.558207" style="stroke: #000000; stroke-width: 0.8"/>
      </g>
     </g>
     <g id="text_18">
      <!-- 120 -->
      <g transform="translate(7.2 80.986332)scale(0.1 -0.1)">
       <use xlink:href="#WenQuanYiZenHei-31"/>
       <use xlink:href="#WenQuanYiZenHei-32" x="59.960938"/>
       <use xlink:href="#WenQuanYiZenHei-30" x="119.921875"/>
      </g>
     </g>
    </g>
   </g>
   <g id="line2d_19">
    <path d="M 93.063352 312.545904 
L 94.371037 314.827338 
L 95.678722 307.983036 
L 96.986407 255.510055 
L 98.294091 296.575866 
L 99.601776 248.665753 
L 100.909461 70.713906 
L 102.217146 50.181 
L 103.524831 100.372547 
L 104.832515 212.16281 
L 107.447885 207.599942 
L 108.75557 111.779717 
L 110.063255 200.755641 
L 112.678624 232.695716 
L 113.986309 255.510055 
L 115.293994 289.731565 
L 116.601679 312.545904 
L 117.909363 294.294432 
L 119.217048 319.390206 
L 120.524733 319.390206 
L 121.832418 328.515942 
L 123.140103 335.360244 
L 124.447787 339.923111 
L 125.755472 342.204545 
L 127.063157 349.048847 
L 128.370842 346.767413 
L 129.678527 349.048847 
L 130.986211 287.450131 
L 132.293896 346.767413 
L 133.601581 351.330281 
L 142.755375 351.330281 
L 144.063059 349.048847 
L 145.370744 335.360244 
L 146.678429 351.330281 
L 147.986114 346.767413 
L 149.293799 351.330281 
L 158.447592 351.330281 
L 159.755277 323.953074 
L 161.062962 342.204545 
L 162.370646 351.330281 
L 163.678331 349.048847 
L 164.986016 351.330281 
L 166.293701 349.048847 
L 167.601386 349.048847 
L 168.90907 346.767413 
L 170.216755 346.767413 
L 171.52444 351.330281 
L 172.832125 346.767413 
L 174.13981 349.048847 
L 175.447494 346.767413 
L 176.755179 342.204545 
L 178.062864 342.204545 
L 179.370549 344.485979 
L 180.678234 349.048847 
L 181.985918 346.767413 
L 183.293603 351.330281 
L 185.908973 346.767413 
L 187.216658 346.767413 
L 188.524342 349.048847 
L 193.755082 349.048847 
L 195.062766 351.330281 
L 200.293506 351.330281 
L 201.60119 349.048847 
L 202.908875 351.330281 
L 281.369963 351.330281 
L 282.677648 349.048847 
L 283.985333 351.330281 
L 314.062083 351.330281 
L 315.369768 349.048847 
L 316.677452 351.330281 
L 349.369572 351.330281 
L 350.677257 349.048847 
L 355.907996 349.048847 
L 357.215681 351.330281 
L 363.754105 351.330281 
L 365.06179 346.767413 
L 366.369475 351.330281 
L 379.446323 351.330281 
L 380.754007 349.048847 
L 382.061692 351.330281 
L 396.446225 351.330281 
L 397.75391 346.767413 
L 399.061595 351.330281 
L 400.369279 349.048847 
L 401.676964 349.048847 
L 402.984649 351.330281 
L 429.138345 351.330281 
L 430.44603 349.048847 
L 431.753715 351.330281 
L 459.215095 351.330281 
L 460.52278 344.485979 
L 461.830465 351.330281 
L 463.13815 351.330281 
L 464.445834 349.048847 
L 465.753519 351.330281 
L 467.061204 351.330281 
L 468.368889 349.048847 
L 469.676574 351.330281 
L 470.984258 346.767413 
L 472.291943 351.330281 
L 473.599628 349.048847 
L 474.907313 351.330281 
L 484.061106 351.330281 
L 485.368791 349.048847 
L 486.676476 351.330281 
L 487.984161 351.330281 
L 489.291846 349.048847 
L 490.59953 351.330281 
L 495.83027 351.330281 
L 497.137954 349.048847 
L 498.445639 351.330281 
L 507.599433 351.330281 
L 508.907118 349.048847 
L 510.214802 351.330281 
L 514.137857 351.330281 
L 515.445542 349.048847 
L 516.753226 351.330281 
L 518.060911 349.048847 
L 519.368596 351.330281 
L 523.29165 351.330281 
L 524.599335 349.048847 
L 525.90702 349.048847 
L 527.214705 351.330281 
L 528.522389 351.330281 
L 529.830074 349.048847 
L 531.137759 351.330281 
L 533.753129 351.330281 
L 535.060813 346.767413 
L 536.368498 344.485979 
L 537.676183 351.330281 
L 538.983868 349.048847 
L 540.291553 351.330281 
L 552.060716 351.330281 
L 553.368401 346.767413 
L 554.676085 351.330281 
L 558.59914 351.330281 
L 559.906825 349.048847 
L 561.214509 351.330281 
L 562.522194 351.330281 
L 563.829879 346.767413 
L 565.137564 344.485979 
L 566.445249 346.767413 
L 567.752933 351.330281 
L 591.29126 351.330281 
L 592.598945 349.048847 
L 593.906629 344.485979 
L 595.214314 351.330281 
L 610.906532 351.330281 
L 612.214216 349.048847 
L 613.521901 351.330281 
L 621.36801 351.330281 
L 622.675695 349.048847 
L 623.98338 351.330281 
L 642.290967 351.330281 
L 643.598652 349.048847 
L 644.906336 351.330281 
L 663.213924 351.330281 
L 664.521608 349.048847 
L 665.829293 351.330281 
L 669.752347 351.330281 
L 671.060032 349.048847 
L 672.367717 351.330281 
L 673.675402 351.330281 
L 674.983087 346.767413 
L 676.290771 351.330281 
L 678.906141 351.330281 
L 680.213826 349.048847 
L 681.521511 351.330281 
L 682.829195 351.330281 
L 684.13688 349.048847 
L 685.444565 351.330281 
L 686.75225 351.330281 
L 688.059935 346.767413 
L 689.367619 351.330281 
L 691.982989 351.330281 
L 693.290674 349.048847 
L 694.598359 351.330281 
L 695.906043 326.234508 
L 697.213728 351.330281 
L 698.521413 349.048847 
L 699.829098 351.330281 
L 706.367522 351.330281 
L 707.675207 349.048847 
L 708.982891 351.330281 
L 710.290576 349.048847 
L 711.598261 351.330281 
L 712.905946 349.048847 
L 714.213631 351.330281 
L 718.136685 351.330281 
L 719.44437 333.07881 
L 720.752055 349.048847 
L 722.059739 351.330281 
L 723.367424 339.923111 
L 724.675109 351.330281 
L 725.982794 351.330281 
L 727.290479 349.048847 
L 728.598163 351.330281 
L 729.905848 351.330281 
L 731.213533 349.048847 
L 732.521218 351.330281 
L 733.828903 351.330281 
L 735.136587 349.048847 
L 736.444272 351.330281 
L 741.675011 351.330281 
L 742.982696 349.048847 
L 744.290381 351.330281 
L 746.90575 346.767413 
L 748.213435 351.330281 
L 749.52112 351.330281 
L 750.828805 349.048847 
L 752.13649 349.048847 
L 753.444174 351.330281 
L 754.751859 346.767413 
L 756.059544 351.330281 
L 757.367229 349.048847 
L 758.674914 351.330281 
L 759.982598 351.330281 
L 761.290283 344.485979 
L 762.597968 349.048847 
L 763.905653 346.767413 
L 765.213338 351.330281 
L 766.521022 342.204545 
L 767.828707 351.330281 
L 769.136392 351.330281 
L 770.444077 349.048847 
L 771.751762 349.048847 
L 773.059446 351.330281 
L 774.367131 351.330281 
L 775.674816 349.048847 
L 776.982501 351.330281 
L 795.290088 351.330281 
L 796.597773 346.767413 
L 799.213142 346.767413 
L 800.520827 351.330281 
L 801.828512 349.048847 
L 803.136197 351.330281 
L 816.213045 351.330281 
L 817.520729 346.767413 
L 820.136099 351.330281 
L 821.443784 351.330281 
L 822.751469 346.767413 
L 824.059153 351.330281 
L 825.366838 351.330281 
L 826.674523 349.048847 
L 827.982208 351.330281 
L 829.289893 349.048847 
L 830.597577 351.330281 
L 831.905262 323.953074 
L 833.212947 351.330281 
L 837.136001 351.330281 
L 838.443686 339.923111 
L 839.751371 351.330281 
L 841.059056 351.330281 
L 842.366741 349.048847 
L 843.674425 351.330281 
L 844.98211 346.767413 
L 846.289795 351.330281 
L 847.59748 349.048847 
L 848.905165 335.360244 
L 850.212849 351.330281 
L 851.520534 349.048847 
L 852.828219 351.330281 
L 855.443589 351.330281 
L 856.751273 349.048847 
L 858.058958 351.330281 
L 859.366643 349.048847 
L 861.982013 349.048847 
L 863.289697 342.204545 
L 864.597382 351.330281 
L 865.905067 351.330281 
L 867.212752 349.048847 
L 868.520437 351.330281 
L 869.828121 349.048847 
L 871.135806 351.330281 
L 876.366545 351.330281 
L 877.67423 349.048847 
L 880.2896 349.048847 
L 881.597285 351.330281 
L 882.904969 351.330281 
L 884.212654 346.767413 
L 885.520339 346.767413 
L 886.828024 351.330281 
L 892.058763 351.330281 
L 893.366448 349.048847 
L 894.674132 351.330281 
L 895.981817 351.330281 
L 897.289502 349.048847 
L 898.597187 351.330281 
L 899.904872 349.048847 
L 901.212556 351.330281 
L 902.520241 349.048847 
L 903.827926 351.330281 
L 905.135611 351.330281 
L 906.443296 349.048847 
L 907.75098 351.330281 
L 909.058665 351.330281 
L 910.36635 349.048847 
L 911.674035 351.330281 
L 912.98172 351.330281 
L 914.289404 349.048847 
L 915.597089 349.048847 
L 916.904774 351.330281 
L 918.212459 346.767413 
L 920.827828 351.330281 
L 927.366252 351.330281 
L 928.673937 333.07881 
L 929.981622 351.330281 
L 932.596992 351.330281 
L 933.904676 333.07881 
L 935.212361 346.767413 
L 936.520046 342.204545 
L 937.827731 342.204545 
L 939.135416 330.797376 
L 940.4431 344.485979 
L 941.750785 349.048847 
L 943.05847 351.330281 
L 946.981524 351.330281 
L 948.289209 349.048847 
L 949.596894 351.330281 
L 952.212264 351.330281 
L 953.519948 349.048847 
L 954.827633 349.048847 
L 956.135318 351.330281 
L 957.443003 351.330281 
L 958.750687 349.048847 
L 960.058372 351.330281 
L 965.289111 351.330281 
L 966.596796 349.048847 
L 967.904481 351.330281 
L 984.904383 351.330281 
L 986.212068 349.048847 
L 987.519753 333.07881 
L 988.827438 323.953074 
L 990.135123 337.641677 
L 991.442807 271.480093 
L 992.750492 264.635791 
L 994.058177 180.222735 
L 995.365862 248.665753 
L 996.673547 246.38432 
L 997.981231 223.56998 
L 999.288916 250.947187 
L 1000.596601 175.659867 
L 1001.904286 280.605829 
L 1003.211971 323.953074 
L 1004.519655 326.234508 
L 1005.82734 349.048847 
L 1007.135025 346.767413 
L 1008.44271 349.048847 
L 1011.058079 349.048847 
L 1012.365764 346.767413 
L 1013.673449 346.767413 
L 1014.981134 342.204545 
L 1016.288819 344.485979 
L 1017.596503 349.048847 
L 1018.904188 351.330281 
L 1020.211873 330.797376 
L 1021.519558 321.67164 
L 1022.827243 337.641677 
L 1024.134927 346.767413 
L 1025.442612 323.953074 
L 1026.750297 342.204545 
L 1028.057982 342.204545 
L 1029.365666 330.797376 
L 1030.673351 344.485979 
L 1031.981036 335.360244 
L 1033.288721 349.048847 
L 1034.596406 342.204545 
L 1035.90409 344.485979 
L 1037.211775 344.485979 
L 1038.51946 351.330281 
L 1039.827145 346.767413 
L 1041.13483 351.330281 
L 1042.442514 351.330281 
L 1043.750199 344.485979 
L 1045.057884 351.330281 
L 1046.365569 346.767413 
L 1047.673254 337.641677 
L 1048.980938 346.767413 
L 1050.288623 344.485979 
L 1051.596308 351.330281 
L 1052.903993 328.515942 
L 1054.211678 312.545904 
L 1055.519362 310.26447 
L 1056.827047 301.138734 
L 1058.134732 296.575866 
L 1059.442417 321.67164 
L 1060.750102 317.108772 
L 1062.057786 349.048847 
L 1063.365471 346.767413 
L 1065.980841 346.767413 
L 1068.59621 351.330281 
L 1069.903895 351.330281 
L 1071.21158 349.048847 
L 1072.519265 344.485979 
L 1073.82695 351.330281 
L 1075.134634 349.048847 
L 1076.442319 351.330281 
L 1079.057689 351.330281 
L 1080.365374 342.204545 
L 1081.673058 351.330281 
L 1082.980743 346.767413 
L 1084.288428 344.485979 
L 1085.596113 351.330281 
L 1086.903798 346.767413 
L 1089.519167 351.330281 
L 1090.826852 349.048847 
L 1092.134537 342.204545 
L 1094.749906 351.330281 
L 1097.365276 351.330281 
L 1098.672961 349.048847 
L 1099.980646 330.797376 
L 1101.28833 346.767413 
L 1102.596015 333.07881 
L 1103.9037 349.048847 
L 1105.211385 337.641677 
L 1106.519069 349.048847 
L 1107.826754 337.641677 
L 1109.134439 310.26447 
L 1110.442124 296.575866 
L 1111.749809 228.132848 
L 1113.057493 317.108772 
L 1114.365178 253.228621 
L 1115.672863 351.330281 
L 1116.980548 200.755641 
L 1118.288233 278.324395 
L 1119.595917 298.8573 
L 1120.903602 282.887263 
L 1122.211287 344.485979 
L 1123.518972 323.953074 
L 1124.826657 326.234508 
L 1126.134341 326.234508 
L 1127.442026 342.204545 
L 1128.749711 337.641677 
L 1130.057396 346.767413 
L 1131.365081 339.923111 
L 1132.672765 342.204545 
L 1135.288135 323.953074 
L 1136.59582 351.330281 
L 1137.903505 282.887263 
L 1139.211189 326.234508 
L 1140.518874 333.07881 
L 1141.826559 312.545904 
L 1143.134244 312.545904 
L 1144.441929 319.390206 
L 1145.749613 333.07881 
L 1147.057298 317.108772 
L 1148.364983 314.827338 
L 1149.672668 330.797376 
L 1150.980353 326.234508 
L 1152.288037 323.953074 
L 1153.595722 330.797376 
L 1154.903407 351.330281 
L 1156.211092 289.731565 
L 1157.518777 326.234508 
L 1158.826461 273.761527 
L 1160.134146 346.767413 
L 1161.441831 330.797376 
L 1162.749516 339.923111 
L 1164.057201 317.108772 
L 1165.364885 328.515942 
L 1167.980255 319.390206 
L 1169.28794 333.07881 
L 1170.595625 312.545904 
L 1171.903309 246.38432 
L 1173.210994 278.324395 
L 1174.518679 333.07881 
L 1175.826364 351.330281 
L 1177.134048 346.767413 
L 1178.441733 351.330281 
L 1179.749418 344.485979 
L 1181.057103 328.515942 
L 1182.364788 351.330281 
L 1183.672472 346.767413 
L 1184.980157 349.048847 
L 1186.287842 349.048847 
L 1187.595527 351.330281 
L 1188.903212 346.767413 
L 1190.210896 351.330281 
L 1194.133951 351.330281 
L 1195.441636 346.767413 
L 1196.74932 351.330281 
L 1198.057005 351.330281 
L 1199.36469 349.048847 
L 1200.672375 351.330281 
L 1201.98006 349.048847 
L 1203.287744 351.330281 
L 1204.595429 351.330281 
L 1205.903114 346.767413 
L 1207.210799 351.330281 
L 1212.441538 351.330281 
L 1213.749223 349.048847 
L 1215.056908 351.330281 
L 1218.979962 351.330281 
L 1220.287647 349.048847 
L 1221.595332 351.330281 
L 1222.903016 349.048847 
L 1224.210701 351.330281 
L 1230.749125 351.330281 
L 1232.05681 344.485979 
L 1233.364495 351.330281 
L 1234.67218 346.767413 
L 1235.979864 346.767413 
L 1238.595234 351.330281 
L 1241.210604 351.330281 
L 1242.518288 346.767413 
L 1245.133658 351.330281 
L 1246.441343 351.330281 
L 1247.749027 346.767413 
L 1249.056712 351.330281 
L 1250.364397 346.767413 
L 1252.979767 351.330281 
L 1254.287451 351.330281 
L 1255.595136 346.767413 
L 1256.902821 346.767413 
L 1258.210506 351.330281 
L 1259.518191 346.767413 
L 1260.825875 349.048847 
L 1262.13356 344.485979 
L 1263.441245 351.330281 
L 1264.74893 349.048847 
L 1267.364299 349.048847 
L 1268.671984 346.767413 
L 1269.979669 346.767413 
L 1272.595039 351.330281 
L 1273.902723 346.767413 
L 1275.210408 326.234508 
L 1276.518093 349.048847 
L 1277.825778 346.767413 
L 1279.133463 349.048847 
L 1280.441147 349.048847 
L 1281.748832 351.330281 
L 1283.056517 349.048847 
L 1284.364202 351.330281 
L 1285.671887 346.767413 
L 1286.979571 351.330281 
L 1288.287256 344.485979 
L 1289.594941 351.330281 
L 1290.902626 349.048847 
L 1292.210311 351.330281 
L 1293.517995 351.330281 
L 1293.517995 351.330281 
" clip-path="url(#pc5657815e3)" style="fill: none; stroke: #0000ff; stroke-width: 1.5; stroke-linecap: square"/>
   </g>
   <g id="line2d_20">
    <path d="M 1054.211678 319.660769 
L 1055.519362 315.558022 
L 1058.134732 303.215236 
L 1059.442417 319.176917 
L 1060.750102 321.145783 
L 1062.057786 334.84099 
L 1063.365471 346.58315 
L 1064.673156 342.704988 
L 1065.980841 347.192956 
L 1067.288526 349.252354 
L 1068.59621 349.944325 
L 1069.903895 352.315409 
L 1071.21158 350.683412 
L 1072.519265 346.165053 
L 1073.82695 348.339725 
L 1075.134634 349.30122 
L 1076.442319 347.76145 
L 1077.750004 350.647265 
L 1079.057689 348.045345 
L 1080.365374 342.569871 
L 1081.673058 347.902358 
L 1082.980743 349.384605 
L 1084.288428 343.83473 
L 1085.596113 350.33329 
L 1086.903798 347.851996 
L 1088.211482 347.877265 
L 1089.519167 352.498402 
L 1090.826852 348.653373 
L 1092.134537 342.934127 
L 1093.442222 345.780566 
L 1094.749906 349.326285 
L 1096.057591 349.656424 
L 1097.365276 349.00149 
L 1098.672961 347.163648 
L 1099.980646 336.294241 
L 1101.28833 343.595322 
L 1102.596015 340.5747 
L 1103.9037 342.864336 
L 1106.519069 343.637645 
L 1107.826754 343.149824 
L 1109.134439 320.201307 
L 1110.442124 306.157698 
L 1111.749809 263.356841 
L 1113.057493 299.848098 
L 1114.365178 290.242931 
L 1115.672863 312.242011 
L 1116.980548 262.087531 
L 1118.288233 250.482738 
L 1119.595917 318.270282 
L 1120.903602 285.143916 
L 1122.211287 324.130184 
L 1123.518972 337.01763 
L 1124.826657 312.306381 
L 1126.134341 334.052454 
L 1127.442026 342.576416 
L 1128.749711 340.106732 
L 1130.057396 343.004521 
L 1131.365081 344.216978 
L 1132.672765 337.162447 
L 1133.98045 342.99807 
L 1135.288135 326.675781 
L 1136.59582 341.376539 
L 1137.903505 308.092434 
L 1139.211189 312.501798 
L 1140.518874 341.678296 
L 1141.826559 316.848386 
L 1143.134244 310.025428 
L 1144.441929 326.341879 
L 1145.749613 330.261481 
L 1147.057298 324.282747 
L 1148.364983 318.889416 
L 1149.672668 330.084156 
L 1150.980353 327.797534 
L 1152.288037 328.93396 
L 1153.595722 329.757965 
L 1154.903407 345.399944 
L 1156.211092 308.699746 
L 1157.518777 315.490565 
L 1158.826461 304.638029 
L 1160.134146 324.283852 
L 1161.441831 340.731292 
L 1162.749516 329.469295 
L 1164.057201 325.14173 
L 1165.364885 328.31674 
L 1166.67257 329.044282 
L 1167.980255 323.907416 
L 1169.28794 331.131893 
L 1170.595625 324.388362 
L 1171.903309 269.62345 
L 1173.210994 284.217958 
L 1174.518679 329.067533 
L 1175.826364 341.68947 
L 1177.134048 337.90737 
L 1178.441733 345.758079 
L 1179.749418 340.192469 
L 1181.057103 336.000108 
L 1182.364788 346.82898 
L 1183.672472 352.581 
L 1184.980157 344.01812 
L 1186.287842 350.700962 
L 1187.595527 349.893485 
L 1188.903212 351.658716 
L 1190.210896 347.924666 
L 1191.518581 350.288475 
L 1192.826266 347.360495 
L 1194.133951 350.868119 
L 1195.441636 346.222593 
L 1196.74932 348.711525 
L 1198.057005 347.823202 
L 1200.672375 350.415186 
L 1201.98006 351.205772 
L 1203.287744 348.8049 
L 1204.595429 351.918096 
L 1205.903114 347.656649 
L 1207.210799 351.738215 
L 1209.826168 349.096873 
L 1211.133853 348.865003 
L 1212.441538 350.978584 
L 1213.749223 347.659423 
L 1215.056908 349.590832 
L 1216.364592 348.774481 
L 1217.672277 350.484506 
L 1218.979962 350.894814 
L 1220.287647 350.161899 
L 1221.595332 349.198325 
L 1222.903016 350.393066 
L 1224.210701 349.700802 
L 1225.518386 352.285547 
L 1226.826071 349.678223 
L 1228.133756 349.818594 
L 1229.44144 349.457267 
L 1230.749125 350.784937 
L 1232.05681 345.183952 
L 1233.364495 348.592037 
L 1234.67218 347.211369 
L 1235.979864 345.640434 
L 1237.287549 348.965677 
L 1238.595234 350.564718 
L 1239.902919 349.283883 
L 1241.210604 350.979887 
L 1242.518288 347.41309 
L 1243.825973 348.722995 
L 1245.133658 350.424369 
L 1246.441343 349.763654 
L 1247.749027 346.554826 
L 1249.056712 349.897527 
L 1250.364397 347.139998 
L 1251.672082 347.221227 
L 1252.979767 349.929668 
L 1254.287451 350.086097 
L 1255.595136 347.09492 
L 1256.902821 347.041611 
L 1258.210506 349.243127 
L 1260.825875 347.247672 
L 1262.13356 346.632022 
L 1264.74893 349.561853 
L 1266.056615 347.029429 
L 1267.364299 349.056393 
L 1268.671984 346.281738 
L 1269.979669 346.061437 
L 1272.595039 350.044125 
L 1273.902723 347.076572 
L 1275.210408 333.290843 
L 1276.518093 343.095322 
L 1277.825778 350.460909 
L 1279.133463 344.697768 
L 1280.441147 348.951715 
L 1281.748832 349.046879 
L 1283.056517 347.665951 
L 1284.364202 350.136059 
L 1285.671887 348.323739 
L 1286.979571 348.438332 
L 1288.287256 346.651478 
L 1289.594941 347.930857 
L 1290.902626 350.221829 
L 1292.210311 349.893849 
L 1293.517995 349.964121 
L 1293.517995 349.964121 
" clip-path="url(#pc5657815e3)" style="fill: none; stroke: #ffa500; stroke-width: 1.5; stroke-linecap: square"/>
   </g>
   <g id="line2d_21">
    <path d="M 1293.517995 349.964121 
L 1294.82568 348.905937 
L 1296.133365 348.58384 
L 1297.44105 348.524614 
L 1298.748735 348.168881 
L 1300.056419 347.543546 
L 1301.364104 346.399094 
L 1302.671789 346.892644 
L 1303.979474 346.591125 
L 1305.287159 346.344546 
L 1306.594843 345.718312 
L 1307.902528 345.526091 
L 1309.210213 345.449559 
L 1310.517898 345.880743 
" clip-path="url(#pc5657815e3)" style="fill: none; stroke: #ff0000; stroke-width: 1.5; stroke-linecap: square"/>
   </g>
   <g id="patch_3">
    <path d="M 32.190625 367.701 
L 32.190625 35.061 
" style="fill: none; stroke: #000000; stroke-width: 0.8; stroke-linejoin: miter; stroke-linecap: square"/>
   </g>
   <g id="patch_4">
    <path d="M 1371.390625 367.701 
L 1371.390625 35.061 
" style="fill: none; stroke: #000000; stroke-width: 0.8; stroke-linejoin: miter; stroke-linecap: square"/>
   </g>
   <g id="patch_5">
    <path d="M 32.190625 367.701 
L 1371.390625 367.701 
" style="fill: none; stroke: #000000; stroke-width: 0.8; stroke-linejoin: miter; stroke-linecap: square"/>
   </g>
   <g id="patch_6">
    <path d="M 32.190625 35.061 
L 1371.390625 35.061 
" style="fill: none; stroke: #000000; stroke-width: 0.8; stroke-linejoin: miter; stroke-linecap: square"/>
   </g>
   <g id="text_19">
    <!-- 每日新增预测 - 浙江 -->
    <g transform="translate(648.393438 17.041875)scale(0.12 -0.12)">
     <defs>
      <path id="WenQuanYiZenHei-6bcf" d="M 6138 2181 
Q 6113 1988 6138 1800 
Q 5788 1819 5438 1819 
L 4975 1819 
L 4863 738 
L 5806 738 
L 5806 394 
L 4831 394 
L 4775 -144 
Q 4719 -563 4350 -725 
Q 4013 -856 3550 -825 
L 3288 -819 
Q 3331 -663 3275 -519 
Q 3219 -375 3113 -288 
Q 3381 -313 3759 -303 
Q 4138 -294 4231 -238 
Q 4338 -163 4350 88 
L 4381 394 
L 1025 394 
L 1244 1819 
L 813 1819 
Q 463 1819 113 1800 
Q 138 1988 113 2181 
Q 463 2163 813 2163 
L 1294 2163 
L 1488 3431 
L 1488 3581 
L 1506 3581 
L 1513 3613 
L 1713 3581 
L 5156 3581 
L 5013 2163 
L 5438 2163 
Q 5788 2163 6138 2181 
z
M 5588 4463 
Q 5569 4269 5588 4081 
Q 5244 4100 4894 4100 
L 1813 4100 
Q 1344 3463 606 2788 
Q 481 2988 256 3069 
Q 744 3494 1116 3972 
Q 1488 4450 1919 5181 
Q 2119 5044 2344 4950 
Q 2213 4688 2050 4444 
L 4894 4444 
Q 5238 4444 5588 4463 
z
M 2844 3238 
L 1906 3238 
L 1744 2163 
L 3244 2163 
L 2581 3038 
L 2844 3238 
z
M 3250 2163 
L 4563 2163 
L 4669 3238 
L 3044 3238 
L 3638 2456 
L 3250 2163 
z
M 2944 1819 
Q 3275 1394 3550 938 
L 3213 738 
L 4419 738 
L 4525 1819 
L 2944 1819 
z
M 2656 1819 
L 1694 1819 
L 1525 738 
L 3094 738 
Q 2806 1219 2450 1650 
L 2656 1819 
z
" transform="scale(0.015625)"/>
      <path id="WenQuanYiZenHei-65e5" d="M 1494 -775 
Q 1244 -750 988 -775 
Q 1013 -313 1013 156 
L 1013 4875 
L 5269 4875 
L 5269 -763 
L 4813 -763 
L 4813 156 
L 1469 156 
Q 1469 -313 1494 -775 
z
M 4813 2700 
L 4813 4500 
L 1469 4500 
L 1469 2700 
L 4813 2700 
z
M 4813 531 
L 4813 2325 
L 1469 2325 
L 1469 531 
L 4813 531 
z
" transform="scale(0.015625)"/>
      <path id="WenQuanYiZenHei-65b0" d="M 5419 -763 
Q 5188 -738 4963 -763 
Q 4981 -344 4981 75 
L 4981 2819 
L 4188 2819 
L 4188 1706 
Q 4188 63 3163 -738 
Q 3019 -519 2769 -469 
Q 3769 131 3769 1706 
L 3769 4769 
L 3875 4769 
L 3844 4831 
L 4294 4781 
Q 4438 4769 4894 4816 
Q 5350 4863 5512 4931 
Q 5675 5000 5763 5094 
Q 5850 4881 5981 4694 
Q 5713 4544 5263 4519 
L 4188 4438 
L 4188 3100 
L 5563 3100 
Q 5850 3100 6131 3113 
Q 6119 2956 6131 2806 
L 5394 2819 
L 5394 75 
Q 5394 -344 5419 -763 
z
M 2981 213 
Q 2656 744 2256 1225 
L 2606 1513 
Q 3025 1006 3369 450 
L 2981 213 
z
M 1169 1525 
Q 1375 1419 1594 1363 
Q 1281 488 469 -469 
Q 331 -300 119 -244 
Q 575 263 888 900 
Q 1038 1206 1169 1525 
z
M 1825 6 
L 1825 1769 
L 1081 1769 
Q 794 1769 513 1756 
Q 525 1913 513 2063 
Q 794 2050 1081 2050 
L 1825 2050 
L 1825 2775 
L 994 2775 
Q 706 2775 425 2763 
Q 438 2919 425 3075 
Q 706 3056 994 3056 
L 1825 3056 
L 1825 3088 
L 1906 3088 
Q 2288 3656 2588 4381 
Q 2794 4269 3013 4206 
Q 2800 3675 2381 3056 
L 3013 3056 
Q 3294 3056 3581 3075 
Q 3563 2919 3581 2763 
Q 3294 2775 3013 2775 
L 2238 2775 
L 2238 2050 
L 2925 2050 
Q 3206 2050 3494 2063 
Q 3475 1913 3494 1756 
Q 3206 1769 2925 1769 
L 2238 1769 
L 2238 -156 
Q 2238 -413 2075 -581 
Q 1844 -794 1306 -794 
Q 1363 -519 1188 -288 
Q 1338 -313 1534 -316 
Q 1731 -319 1778 -278 
Q 1825 -238 1825 6 
z
M 1875 3388 
L 1500 3131 
L 825 4088 
L 1200 4350 
L 1875 3388 
z
M 3419 4713 
Q 3400 4563 3419 4406 
Q 3131 4419 2850 4419 
L 1125 4419 
Q 838 4419 556 4406 
Q 569 4563 556 4713 
Q 838 4700 1125 4700 
L 1763 4700 
L 1388 5088 
L 1719 5406 
L 2288 4813 
L 2175 4700 
L 2850 4700 
Q 3131 4700 3419 4713 
z
" transform="scale(0.015625)"/>
      <path id="WenQuanYiZenHei-589e" d="M 3138 -769 
Q 2913 -744 2688 -769 
Q 2706 -356 2706 56 
L 2706 1719 
L 5706 1719 
L 5706 -756 
L 5300 -756 
L 5300 -338 
L 3119 -338 
Q 3125 -550 3138 -769 
z
M 5113 3569 
Q 5344 3606 5563 3688 
Q 5669 3175 5256 2694 
Q 5113 2519 4975 2506 
Q 4831 2725 4588 2813 
Q 4806 2831 4997 3068 
Q 5188 3306 5113 3569 
z
M 3850 2763 
L 3469 2538 
L 2925 3456 
L 3313 3681 
L 3850 2763 
z
M 2400 2100 
Q 2469 3138 2400 4175 
L 3413 4175 
Q 3138 4550 2825 4888 
L 3156 5194 
Q 3581 4725 3938 4206 
L 3900 4175 
L 4456 4175 
Q 4863 4575 5131 5163 
Q 5325 5044 5538 4975 
Q 5369 4575 5013 4175 
L 6056 4175 
Q 5981 3138 6056 2100 
L 2400 2100 
z
M 5300 806 
L 5300 1450 
L 3113 1450 
Q 3113 1125 3113 806 
L 5300 806 
z
M 5300 563 
L 3113 563 
L 3113 -94 
L 5300 -94 
L 5300 563 
z
M 4431 3913 
L 4431 2363 
L 5650 2363 
L 5650 3913 
L 4756 3913 
L 4700 3856 
Q 4681 3888 4656 3913 
L 4431 3913 
z
M 4025 3913 
L 2806 3913 
L 2806 2363 
L 4025 2363 
L 4025 3913 
z
M -31 625 
Q 506 763 1006 975 
L 1006 3206 
L 669 3206 
Q 369 3206 75 3188 
Q 94 3356 75 3531 
Q 369 3513 669 3513 
L 1006 3513 
L 1006 4263 
Q 1006 4700 981 5131 
Q 1206 5106 1431 5131 
Q 1413 4700 1413 4263 
L 1413 3513 
L 2238 3531 
Q 2219 3356 2238 3188 
L 1413 3206 
L 1413 1163 
L 2150 1531 
L 2194 1256 
Q 1269 775 813 519 
L 194 144 
Q 138 438 -31 625 
z
" transform="scale(0.015625)"/>
      <path id="WenQuanYiZenHei-9884" d="M 1206 19 
L 1206 2888 
L 669 2888 
Q 356 2888 50 2869 
Q 63 3044 50 3213 
Q 363 3194 669 3194 
L 1250 3194 
Q 950 3631 606 4031 
L 963 4338 
L 1263 3975 
L 1913 4719 
L 731 4719 
Q 419 4719 106 4706 
Q 125 4875 106 5044 
Q 419 5031 731 5031 
L 2481 5031 
L 2544 4663 
Q 2394 4613 2256 4466 
Q 2119 4319 1525 3631 
Q 1656 3444 1788 3250 
L 1700 3194 
L 2700 3194 
L 2763 2825 
Q 2656 2819 2613 2763 
L 2100 2038 
L 1750 2288 
L 2175 2888 
L 1638 2888 
L 1638 -150 
Q 1638 -525 1363 -669 
Q 1075 -819 525 -813 
Q 594 -513 388 -294 
Q 575 -313 837 -316 
Q 1100 -319 1153 -272 
Q 1206 -225 1206 19 
z
M 5813 -888 
Q 5100 -225 4306 375 
L 4669 719 
Q 5481 106 6219 -575 
L 5813 -888 
z
M 2375 -906 
Q 2294 -631 2025 -506 
Q 2769 -431 3353 19 
Q 3938 469 3938 1069 
L 3938 2200 
Q 3938 2625 3913 3050 
Q 4188 3025 4456 3050 
Q 4431 2625 4431 2200 
L 4431 1069 
Q 4431 681 4225 319 
Q 3644 -606 2375 -906 
z
M 3444 488 
Q 3169 513 2894 488 
Q 2919 913 2919 1338 
L 2919 3675 
Q 3219 3675 3525 3675 
Q 3750 4013 3931 4525 
L 3238 4525 
Q 2888 4525 2538 4513 
Q 2556 4669 2538 4831 
Q 2888 4813 3238 4813 
L 5313 4813 
Q 5663 4813 6006 4831 
Q 5988 4669 6006 4513 
Q 5663 4525 5313 4525 
L 4481 4525 
Q 4388 4088 4088 3675 
L 5644 3675 
L 5644 513 
L 5144 513 
L 5144 3388 
L 3894 3388 
L 3875 3363 
Q 3863 3375 3844 3388 
Q 3631 3388 3413 3388 
L 3419 1338 
Q 3419 913 3444 488 
z
" transform="scale(0.015625)"/>
      <path id="WenQuanYiZenHei-6d4b" d="M 5450 138 
L 5450 4306 
Q 5450 4750 5425 5188 
Q 5663 5163 5906 5188 
Q 5881 4750 5881 4306 
L 5881 -38 
Q 5888 -569 5519 -719 
Q 5194 -831 4825 -813 
Q 4894 -519 4694 -281 
Q 4869 -306 5094 -309 
Q 5319 -313 5384 -256 
Q 5450 -200 5450 138 
z
M 4900 938 
Q 4663 963 4419 938 
Q 4444 1375 4444 1819 
L 4444 3381 
Q 4444 3819 4419 4263 
Q 4663 4238 4900 4263 
Q 4875 3819 4875 3381 
L 4875 1819 
Q 4875 1375 4900 938 
z
M 2750 2025 
L 2750 3038 
Q 2750 3481 2725 3919 
Q 2963 3894 3206 3919 
Q 3181 3481 3181 3038 
L 3181 2025 
Q 3181 1263 2919 625 
L 3231 956 
Q 3781 431 4256 -150 
L 3888 -456 
Q 3431 106 2906 600 
Q 2531 -288 1738 -769 
Q 1606 -519 1338 -450 
Q 1988 -156 2369 478 
Q 2750 1113 2750 2025 
z
M 2363 969 
Q 2119 994 1881 969 
Q 1906 1406 1906 1850 
L 1906 5038 
L 3956 5031 
L 3956 1200 
L 3525 1200 
L 3525 4713 
L 2338 4713 
L 2338 1850 
Q 2338 1406 2363 969 
z
M 663 -738 
Q 481 -588 206 -575 
Q 400 -69 606 581 
Q 813 1231 1200 2838 
L 1381 2706 
L 875 338 
L 663 -738 
z
M 1006 2856 
L 731 2550 
L 75 3400 
L 350 3713 
L 1006 2856 
z
M 1088 3913 
Q 781 4388 425 4800 
L 694 5125 
Q 1069 4688 1388 4188 
L 1088 3913 
z
" transform="scale(0.015625)"/>
      <path id="WenQuanYiZenHei-20" transform="scale(0.015625)"/>
      <path id="WenQuanYiZenHei-6d59" d="M 5488 -769 
Q 5256 -744 5019 -769 
Q 5038 -331 5038 100 
L 5038 3000 
L 4338 3000 
L 4338 2269 
Q 4338 1438 4172 744 
Q 4006 50 3556 -556 
Q 3356 -375 3088 -400 
Q 3563 119 3734 759 
Q 3906 1400 3906 2269 
L 3906 4619 
L 4031 4619 
L 4025 4625 
Q 4488 4656 4863 4803 
Q 5238 4950 5675 5225 
Q 5788 5019 5938 4838 
Q 5294 4369 4338 4231 
L 4338 3306 
L 5538 3306 
Q 5850 3306 6163 3325 
Q 6144 3156 6163 2988 
L 5469 3000 
L 5469 100 
Q 5469 -331 5488 -769 
z
M 2538 169 
L 2538 1844 
Q 2169 1631 1806 1394 
Q 1750 1669 1563 1875 
Q 2031 1975 2538 2194 
L 2538 3544 
L 1681 3531 
Q 1700 3700 1681 3869 
L 2538 3856 
L 2538 4388 
Q 2538 4825 2513 5256 
Q 2750 5231 2988 5256 
Q 2963 4825 2963 4388 
L 2963 3856 
L 3594 3869 
Q 3575 3700 3594 3531 
L 2963 3544 
L 2963 2388 
L 3469 2650 
L 3525 2381 
L 2963 2081 
L 2963 -38 
Q 2975 -638 2475 -756 
Q 2256 -813 1938 -806 
Q 2000 -513 1806 -288 
Q 1981 -306 2197 -309 
Q 2413 -313 2475 -253 
Q 2538 -194 2538 169 
z
M 775 -738 
Q 563 -588 244 -575 
Q 469 -69 709 581 
Q 950 1231 1406 2838 
L 1619 2706 
L 1025 338 
L 775 -738 
z
M 1181 2856 
L 856 2550 
L 88 3400 
L 413 3713 
L 1181 2856 
z
M 1275 3913 
Q 919 4388 500 4800 
L 806 5125 
Q 1250 4688 1625 4188 
L 1275 3913 
z
" transform="scale(0.015625)"/>
      <path id="WenQuanYiZenHei-6c5f" d="M 6175 156 
Q 6150 -38 6175 -238 
Q 5806 -219 5444 -219 
L 2650 -219 
Q 2288 -219 1925 -238 
Q 1944 -38 1925 156 
Q 2288 144 2650 144 
L 3738 144 
L 3738 4275 
L 3013 4275 
Q 2650 4275 2281 4256 
Q 2306 4456 2281 4650 
Q 2650 4631 3013 4631 
L 5206 4631 
Q 5569 4631 5931 4650 
Q 5913 4456 5931 4256 
Q 5569 4275 5206 4275 
L 4194 4275 
L 4194 144 
L 5444 144 
Q 5806 144 6175 156 
z
M 919 -738 
Q 669 -588 288 -575 
Q 556 -69 840 581 
Q 1125 1231 1669 2838 
L 1919 2706 
L 1219 338 
L 919 -738 
z
M 1400 2856 
L 1013 2550 
L 100 3400 
L 494 3713 
L 1400 2856 
z
M 1513 3913 
Q 1088 4388 594 4800 
L 963 5125 
Q 1481 4688 1931 4188 
L 1513 3913 
z
" transform="scale(0.015625)"/>
     </defs>
     <use xlink:href="#WenQuanYiZenHei-6bcf"/>
     <use xlink:href="#WenQuanYiZenHei-65e5" x="100"/>
     <use xlink:href="#WenQuanYiZenHei-65b0" x="200"/>
     <use xlink:href="#WenQuanYiZenHei-589e" x="300"/>
     <use xlink:href="#WenQuanYiZenHei-9884" x="400"/>
     <use xlink:href="#WenQuanYiZenHei-6d4b" x="500"/>
     <use xlink:href="#WenQuanYiZenHei-20" x="600"/>
     <use xlink:href="#WenQuanYiZenHei-2d" x="629.980469"/>
     <use xlink:href="#WenQuanYiZenHei-20" x="659.960938"/>
     <use xlink:href="#WenQuanYiZenHei-6d59" x="689.941406"/>
     <use xlink:href="#WenQuanYiZenHei-6c5f" x="789.941406"/>
    </g>
    <!-- ARIMA (4, 0, 0)x(1, 0, 1, 7) (R2 = 0.836335) -->
    <g transform="translate(583.182813 29.061)scale(0.12 -0.12)">
     <defs>
      <path id="WenQuanYiZenHei-41" d="M 3550 0 
L 2988 0 
L 2550 1281 
L 919 1281 
L 531 0 
L 69 0 
L 1494 4388 
L 2125 4388 
L 3550 0 
z
M 2425 1694 
L 1756 3800 
L 1075 1694 
L 2425 1694 
z
" transform="scale(0.015625)"/>
      <path id="WenQuanYiZenHei-52" d="M 3675 0 
L 3100 0 
L 2288 1900 
L 1069 1900 
L 1069 0 
L 519 0 
L 519 4388 
L 2163 4388 
Q 3006 4388 3400 3900 
Q 3581 3663 3625 3325 
Q 3631 3250 3631 3163 
Q 3631 2594 3219 2244 
Q 3038 2100 2813 2038 
L 3675 0 
z
M 3081 3169 
Q 3081 3825 2356 3906 
Q 2263 3919 2163 3919 
L 1069 3919 
L 1069 2350 
L 2100 2350 
Q 2906 2350 3044 2919 
Q 3081 3031 3081 3169 
z
" transform="scale(0.015625)"/>
      <path id="WenQuanYiZenHei-49" d="M 1100 0 
L 550 0 
L 550 4388 
L 1100 4388 
L 1100 0 
z
" transform="scale(0.015625)"/>
      <path id="WenQuanYiZenHei-4d" d="M 4756 0 
L 4206 0 
L 4206 3831 
L 4181 3831 
L 2788 0 
L 2419 0 
L 1000 3831 
L 975 3831 
L 975 0 
L 513 0 
L 513 4388 
L 1331 4388 
L 2656 875 
L 3950 4388 
L 4756 4388 
L 4756 0 
z
" transform="scale(0.015625)"/>
      <path id="WenQuanYiZenHei-28" d="M 1606 -1094 
L 1275 -1094 
Q 475 -100 338 1231 
Q 319 1438 319 1656 
Q 319 3031 1156 4244 
Q 1213 4313 1269 4388 
L 1600 4388 
Q 806 3169 794 1681 
Q 794 188 1606 -1094 
z
" transform="scale(0.015625)"/>
      <path id="WenQuanYiZenHei-2c" d="M 1363 75 
L 881 -825 
L 606 -825 
L 994 0 
L 656 0 
L 656 738 
L 1363 738 
L 1363 75 
z
" transform="scale(0.015625)"/>
      <path id="WenQuanYiZenHei-29" d="M 1600 1656 
Q 1600 306 869 -788 
Q 769 -950 644 -1094 
L 313 -1094 
Q 1125 188 1125 1681 
Q 1125 3169 338 4363 
Q 325 4375 319 4388 
L 650 4388 
Q 1525 3231 1594 1863 
Q 1600 1763 1600 1656 
z
" transform="scale(0.015625)"/>
      <path id="WenQuanYiZenHei-78" d="M 2806 0 
L 2213 0 
L 1394 1319 
L 544 0 
L 50 0 
L 1144 1681 
L 163 3250 
L 744 3250 
L 1431 2138 
L 2144 3250 
L 2631 3250 
L 1681 1794 
L 2806 0 
z
" transform="scale(0.015625)"/>
      <path id="WenQuanYiZenHei-3d" d="M 3569 2256 
L 263 2256 
L 263 2675 
L 3569 2675 
L 3569 2256 
z
M 3569 1019 
L 263 1019 
L 263 1431 
L 3569 1431 
L 3569 1019 
z
" transform="scale(0.015625)"/>
      <path id="WenQuanYiZenHei-2e" d="M 1344 0 
L 631 0 
L 631 725 
L 1344 725 
L 1344 0 
z
" transform="scale(0.015625)"/>
      <path id="WenQuanYiZenHei-33" d="M 3588 1231 
Q 3588 494 2875 144 
Q 2450 -63 1925 -63 
Q 1044 -63 556 488 
Q 356 706 256 1000 
L 769 1169 
Q 994 375 1913 375 
Q 2631 375 2900 788 
Q 3019 975 3019 1231 
Q 3019 1638 2638 1881 
Q 2325 2081 1613 2069 
L 1338 2069 
L 1338 2494 
Q 1969 2494 2094 2506 
Q 2325 2544 2463 2613 
Q 2763 2756 2844 3100 
Q 2863 3169 2863 3244 
Q 2863 3744 2381 3944 
L 2163 4006 
Q 2056 4025 1931 4025 
Q 1388 4025 1075 3631 
Q 969 3488 906 3313 
L 419 3456 
Q 675 4150 1400 4369 
Q 1669 4456 1975 4456 
Q 2694 4456 3106 4050 
Q 3419 3744 3419 3275 
Q 3419 2813 3025 2513 
Q 2825 2356 2575 2319 
L 2575 2306 
Q 3181 2213 3450 1769 
Q 3588 1525 3588 1231 
z
" transform="scale(0.015625)"/>
      <path id="WenQuanYiZenHei-35" d="M 3531 1488 
Q 3531 688 2913 250 
Q 2456 -63 1844 -63 
Q 1175 -63 706 350 
Q 413 613 306 975 
L 781 1131 
Q 1000 538 1569 406 
Q 1706 369 1856 369 
Q 2550 369 2850 869 
Q 3000 1131 3000 1494 
Q 3000 2056 2581 2356 
Q 2319 2538 1969 2538 
Q 1400 2538 1031 2075 
Q 981 2013 938 1938 
L 500 2031 
L 644 4388 
L 3244 4388 
L 3200 3919 
L 1044 3919 
L 950 2500 
Q 1431 2975 2006 2975 
Q 2713 2975 3163 2475 
Q 3531 2063 3531 1488 
z
" transform="scale(0.015625)"/>
     </defs>
     <use xlink:href="#WenQuanYiZenHei-41"/>
     <use xlink:href="#WenQuanYiZenHei-52" x="55.957031"/>
     <use xlink:href="#WenQuanYiZenHei-49" x="117.871094"/>
     <use xlink:href="#WenQuanYiZenHei-4d" x="143.847656"/>
     <use xlink:href="#WenQuanYiZenHei-41" x="225.78125"/>
     <use xlink:href="#WenQuanYiZenHei-20" x="281.738281"/>
     <use xlink:href="#WenQuanYiZenHei-28" x="311.71875"/>
     <use xlink:href="#WenQuanYiZenHei-34" x="341.699219"/>
     <use xlink:href="#WenQuanYiZenHei-2c" x="401.660156"/>
     <use xlink:href="#WenQuanYiZenHei-20" x="431.640625"/>
     <use xlink:href="#WenQuanYiZenHei-30" x="461.621094"/>
     <use xlink:href="#WenQuanYiZenHei-2c" x="521.582031"/>
     <use xlink:href="#WenQuanYiZenHei-20" x="551.5625"/>
     <use xlink:href="#WenQuanYiZenHei-30" x="581.542969"/>
     <use xlink:href="#WenQuanYiZenHei-29" x="641.503906"/>
     <use xlink:href="#WenQuanYiZenHei-78" x="671.484375"/>
     <use xlink:href="#WenQuanYiZenHei-28" x="715.429688"/>
     <use xlink:href="#WenQuanYiZenHei-31" x="745.410156"/>
     <use xlink:href="#WenQuanYiZenHei-2c" x="805.371094"/>
     <use xlink:href="#WenQuanYiZenHei-20" x="835.351562"/>
     <use xlink:href="#WenQuanYiZenHei-30" x="865.332031"/>
     <use xlink:href="#WenQuanYiZenHei-2c" x="925.292969"/>
     <use xlink:href="#WenQuanYiZenHei-20" x="955.273438"/>
     <use xlink:href="#WenQuanYiZenHei-31" x="985.253906"/>
     <use xlink:href="#WenQuanYiZenHei-2c" x="1045.214844"/>
     <use xlink:href="#WenQuanYiZenHei-20" x="1075.195312"/>
     <use xlink:href="#WenQuanYiZenHei-37" x="1105.175781"/>
     <use xlink:href="#WenQuanYiZenHei-29" x="1165.136719"/>
     <use xlink:href="#WenQuanYiZenHei-20" x="1195.117188"/>
     <use xlink:href="#WenQuanYiZenHei-28" x="1225.097656"/>
     <use xlink:href="#WenQuanYiZenHei-52" x="1255.078125"/>
     <use xlink:href="#WenQuanYiZenHei-32" x="1316.992188"/>
     <use xlink:href="#WenQuanYiZenHei-20" x="1376.953125"/>
     <use xlink:href="#WenQuanYiZenHei-3d" x="1406.933594"/>
     <use xlink:href="#WenQuanYiZenHei-20" x="1466.894531"/>
     <use xlink:href="#WenQuanYiZenHei-30" x="1496.875"/>
     <use xlink:href="#WenQuanYiZenHei-2e" x="1556.835938"/>
     <use xlink:href="#WenQuanYiZenHei-38" x="1586.816406"/>
     <use xlink:href="#WenQuanYiZenHei-33" x="1646.777344"/>
     <use xlink:href="#WenQuanYiZenHei-36" x="1706.738281"/>
     <use xlink:href="#WenQuanYiZenHei-33" x="1766.699219"/>
     <use xlink:href="#WenQuanYiZenHei-33" x="1826.660156"/>
     <use xlink:href="#WenQuanYiZenHei-35" x="1886.621094"/>
     <use xlink:href="#WenQuanYiZenHei-29" x="1946.582031"/>
    </g>
   </g>
   <g id="legend_1">
    <g id="patch_7">
     <path d="M 1302.390625 87.056312 
L 1364.390625 87.056312 
Q 1366.390625 87.056312 1366.390625 85.056312 
L 1366.390625 42.061 
Q 1366.390625 40.061 1364.390625 40.061 
L 1302.390625 40.061 
Q 1300.390625 40.061 1300.390625 42.061 
L 1300.390625 85.056312 
Q 1300.390625 87.056312 1302.390625 87.056312 
z
" style="fill: #ffffff; opacity: 0.8; stroke: #cccccc; stroke-linejoin: miter"/>
    </g>
    <g id="line2d_22">
     <path d="M 1304.390625 48.695375 
L 1314.390625 48.695375 
L 1324.390625 48.695375 
" style="fill: none; stroke: #0000ff; stroke-width: 1.5; stroke-linecap: square"/>
    </g>
    <g id="text_20">
     <!-- 实际值 -->
     <g transform="translate(1332.390625 52.195375)scale(0.1 -0.1)">
      <defs>
       <path id="WenQuanYiZenHei-5b9e" d="M 1025 1175 
Q 694 1175 356 1163 
Q 375 1344 356 1525 
Q 694 1506 1025 1506 
L 3363 1506 
L 3363 2625 
Q 3363 3075 3338 3519 
Q 3581 3494 3825 3519 
Q 3800 3075 3800 2625 
L 3800 1506 
L 5406 1506 
Q 5744 1506 6075 1525 
Q 6056 1344 6075 1163 
Q 5744 1175 5406 1175 
L 4038 1175 
L 4981 456 
L 6131 -488 
L 5819 -856 
L 4681 75 
L 3638 875 
Q 3313 231 2475 -231 
Q 1638 -694 700 -825 
Q 638 -519 344 -400 
Q 1450 -319 2406 244 
Q 3113 656 3300 1175 
L 1025 1175 
z
M 2263 1581 
Q 1763 2081 1200 2513 
L 1494 2894 
Q 2081 2444 2600 1919 
L 2263 1581 
z
M 2638 2500 
Q 2219 2963 1731 3363 
L 2044 3738 
Q 2556 3313 3000 2819 
L 2638 2500 
z
M 919 3156 
L 481 3156 
L 481 4344 
L 3069 4344 
Q 2794 4731 2469 5081 
L 2825 5413 
Q 3256 4944 3613 4413 
L 3513 4344 
L 5869 4344 
L 5869 3156 
L 5425 3156 
L 5425 4013 
L 919 4013 
L 919 3156 
z
" transform="scale(0.015625)"/>
       <path id="WenQuanYiZenHei-9645" d="M 6000 431 
L 5569 194 
L 4963 1219 
L 4313 2219 
L 4719 2494 
L 5375 1481 
L 6000 431 
z
M 2956 2450 
Q 3181 2344 3419 2294 
Q 3006 1038 1944 -188 
Q 1794 -6 1569 56 
Q 2069 600 2372 1156 
Q 2675 1713 2956 2450 
z
M 3750 25 
L 3750 2913 
L 2819 2913 
Q 2475 2913 2125 2894 
Q 2144 3081 2125 3269 
Q 2475 3256 2819 3256 
L 5469 3256 
Q 5819 3256 6163 3269 
Q 6144 3081 6163 2894 
Q 5813 2913 5469 2913 
L 4194 2913 
L 4194 -144 
Q 4194 -725 3456 -813 
L 3263 -825 
Q 3325 -506 3125 -250 
Q 3250 -281 3394 -306 
Q 3663 -313 3706 -272 
Q 3750 -231 3750 25 
z
M 5544 4950 
Q 5525 4756 5544 4569 
Q 5194 4588 4844 4588 
L 3325 4588 
Q 2975 4588 2625 4569 
Q 2644 4756 2625 4950 
Q 2975 4931 3325 4931 
L 4844 4931 
Q 5194 4931 5544 4950 
z
M 819 -850 
Q 581 -825 344 -850 
Q 369 -419 369 19 
L 363 4938 
L 2256 4938 
L 2256 4625 
Q 2150 4513 2075 4375 
L 1481 3238 
Q 2181 2319 2181 1156 
Q 2144 400 1569 163 
L 1406 88 
Q 1288 300 1138 481 
Q 1294 538 1450 606 
Q 1763 744 1794 1156 
Q 1794 1744 1600 2300 
Q 1406 2856 1038 3313 
L 1725 4625 
L 788 4625 
L 794 19 
Q 794 -419 819 -850 
z
" transform="scale(0.015625)"/>
       <path id="WenQuanYiZenHei-503c" d="M 6175 -219 
Q 6156 -388 6175 -556 
Q 5863 -544 5550 -544 
L 2313 -544 
Q 2000 -544 1688 -556 
Q 1706 -388 1688 -219 
L 2506 -231 
L 2506 3469 
L 3644 3469 
L 3644 4119 
L 2638 4119 
Q 2325 4119 2013 4100 
Q 2031 4269 2013 4438 
Q 2325 4425 2638 4425 
L 3638 4425 
Q 3638 4719 3619 5013 
Q 3856 4988 4094 5013 
Q 4075 4719 4075 4425 
L 5344 4425 
Q 5650 4425 5963 4438 
Q 5950 4269 5963 4100 
Q 5656 4119 5344 4119 
L 4069 4119 
L 4069 3469 
L 5300 3469 
L 5300 -231 
L 5550 -231 
Q 5863 -231 6175 -219 
z
M 4869 2556 
L 4869 3156 
L 2931 3156 
Q 2931 2850 2931 2556 
L 4869 2556 
z
M 4869 1669 
L 4869 2250 
L 2931 2250 
L 2931 1669 
L 4869 1669 
z
M 4869 731 
L 4869 1363 
L 2931 1363 
L 2931 731 
L 4869 731 
z
M 4869 -231 
L 4869 425 
L 2931 425 
L 2931 -231 
L 4869 -231 
z
M 2106 4925 
Q 1856 4075 1463 3338 
L 1463 31 
Q 1463 -413 1481 -850 
Q 1256 -825 1031 -850 
Q 1050 -413 1050 31 
L 1050 2681 
Q 750 2269 375 1931 
Q 238 2156 0 2256 
Q 331 2544 619 2875 
Q 1094 3425 1300 3950 
Q 1494 4469 1625 5050 
Q 1850 4963 2106 4925 
z
" transform="scale(0.015625)"/>
      </defs>
      <use xlink:href="#WenQuanYiZenHei-5b9e"/>
      <use xlink:href="#WenQuanYiZenHei-9645" x="100"/>
      <use xlink:href="#WenQuanYiZenHei-503c" x="200"/>
     </g>
    </g>
    <g id="line2d_23">
     <path d="M 1304.390625 63.3735 
L 1314.390625 63.3735 
L 1324.390625 63.3735 
" style="fill: none; stroke: #ffa500; stroke-width: 1.5; stroke-linecap: square"/>
    </g>
    <g id="text_21">
     <!-- 校验值 -->
     <g transform="translate(1332.390625 66.8735)scale(0.1 -0.1)">
      <defs>
       <path id="WenQuanYiZenHei-6821" d="M 5256 2463 
Q 5025 1475 4494 706 
Q 5125 -94 6175 -544 
Q 5950 -663 5850 -900 
Q 4906 -494 4250 381 
Q 3931 0 3475 -350 
Q 3019 -700 2388 -919 
Q 2338 -656 2138 -475 
Q 3306 -69 4006 738 
Q 3563 1444 3300 2331 
Q 3050 2050 2706 1800 
Q 2606 2000 2406 2106 
Q 2900 2444 3181 2938 
Q 3350 3225 3488 3538 
Q 3700 3431 3925 3369 
Q 3763 2894 3425 2475 
L 3650 2531 
Q 3888 1675 4244 1075 
Q 4469 1444 4603 1937 
Q 4738 2431 4775 2688 
Q 4963 2644 5150 2625 
Q 4919 2969 4663 3294 
L 5038 3588 
Q 5544 2925 5975 2213 
L 5569 1969 
L 5256 2463 
z
M 6006 4050 
Q 5988 3881 6006 3713 
Q 5694 3725 5381 3725 
L 3413 3725 
Q 3100 3725 2788 3713 
Q 2806 3881 2788 4050 
Q 3100 4031 3413 4031 
L 4325 4031 
Q 4019 4525 3644 4969 
L 4000 5275 
Q 4413 4788 4750 4244 
L 4406 4031 
L 5381 4031 
Q 5694 4031 6006 4050 
z
M 406 263 
Q 238 431 -25 469 
Q 194 825 466 1337 
Q 738 1850 925 2406 
Q 1113 2963 1256 3519 
L 825 3519 
Q 506 3519 188 3500 
Q 206 3700 188 3900 
Q 506 3881 825 3881 
L 1363 3881 
L 1363 4263 
Q 1363 4719 1338 5175 
Q 1556 5150 1775 5175 
Q 1756 4719 1756 4263 
L 1756 3881 
L 2525 3900 
Q 2506 3700 2525 3500 
L 1756 3519 
L 1756 2738 
L 1931 2881 
Q 2306 2300 2613 1650 
L 2231 1413 
Q 2081 1725 1919 2019 
L 1756 2300 
L 1756 69 
Q 1756 -388 1775 -850 
Q 1556 -825 1338 -850 
Q 1363 -388 1363 69 
L 1363 2438 
Q 925 1144 406 263 
z
" transform="scale(0.015625)"/>
       <path id="WenQuanYiZenHei-9a8c" d="M 5981 -106 
Q 5963 -275 5981 -444 
Q 5669 -431 5356 -431 
L 2969 -431 
Q 2656 -431 2350 -444 
Q 2363 -275 2350 -106 
Q 2656 -125 2969 -125 
L 4369 -125 
Q 4600 431 4881 1288 
L 5206 2300 
Q 5425 2206 5663 2163 
Q 5375 1188 4831 -125 
L 5356 -125 
Q 5669 -125 5981 -106 
z
M 4063 594 
Q 3788 1425 3425 2219 
L 3856 2419 
Q 4225 1600 4513 744 
L 4063 594 
z
M 3163 363 
Q 2931 1200 2613 2006 
L 3056 2175 
Q 3381 1350 3619 488 
L 3163 363 
z
M 4581 2550 
L 3513 2550 
Q 3200 2550 2888 2538 
Q 2900 2663 2894 2769 
Q 2569 2488 2206 2300 
Q 2113 2550 1894 2700 
Q 2488 2975 2975 3463 
Q 3269 3756 3394 4006 
Q 3644 4513 3794 5063 
Q 4038 4975 4294 4931 
Q 4250 4806 4206 4681 
Q 4475 3888 5025 3388 
Q 5519 2938 6169 2650 
Q 5938 2538 5838 2300 
Q 5513 2456 5200 2700 
Q 5200 2619 5206 2538 
Q 4894 2550 4581 2550 
z
M 3513 2863 
L 4994 2869 
Q 4344 3438 3988 4194 
Q 3594 3406 3013 2869 
Q 3263 2863 3513 2863 
z
M 206 444 
Q 188 756 44 963 
Q 319 956 650 1003 
Q 981 1050 1731 1281 
L 1738 1006 
Q 800 719 206 444 
z
M 525 4000 
Q 744 3950 994 3944 
Q 925 3519 875 3081 
L 763 2144 
L 1475 2144 
L 1831 4444 
L 663 4444 
Q 350 4444 38 4431 
Q 56 4600 38 4769 
Q 350 4756 663 4756 
L 2313 4756 
L 1913 2144 
L 2375 2144 
L 2200 -200 
Q 2188 -425 1988 -588 
Q 1694 -800 1181 -788 
L 944 -788 
Q 1000 -450 788 -269 
Q 1013 -294 1334 -287 
Q 1656 -281 1715 -243 
Q 1775 -206 1781 -50 
L 1925 1831 
L 294 1831 
L 444 3131 
Q 500 3569 525 4000 
z
" transform="scale(0.015625)"/>
      </defs>
      <use xlink:href="#WenQuanYiZenHei-6821"/>
      <use xlink:href="#WenQuanYiZenHei-9a8c" x="100"/>
      <use xlink:href="#WenQuanYiZenHei-503c" x="200"/>
     </g>
    </g>
    <g id="line2d_24">
     <path d="M 1304.390625 77.895375 
L 1314.390625 77.895375 
L 1324.390625 77.895375 
" style="fill: none; stroke: #ff0000; stroke-width: 1.5; stroke-linecap: square"/>
    </g>
    <g id="text_22">
     <!-- 预测值 -->
     <g transform="translate(1332.390625 81.395375)scale(0.1 -0.1)">
      <use xlink:href="#WenQuanYiZenHei-9884"/>
      <use xlink:href="#WenQuanYiZenHei-6d4b" x="100"/>
      <use xlink:href="#WenQuanYiZenHei-503c" x="200"/>
     </g>
    </g>
   </g>
  </g>
 </g>
 <defs>
  <clipPath id="pc5657815e3">
   <rect x="32.190625" y="35.061" width="1339.2" height="332.64"/>
  </clipPath>
 </defs>
</svg>
