<?xml version="1.0" encoding="utf-8" standalone="no"?>
<!DOCTYPE svg PUBLIC "-//W3C//DTD SVG 1.1//EN"
  "http://www.w3.org/Graphics/SVG/1.1/DTD/svg11.dtd">
<svg xmlns:xlink="http://www.w3.org/1999/xlink" width="1378.590625pt" height="390.418188pt" viewBox="0 0 1378.590625 390.418188" xmlns="http://www.w3.org/2000/svg" version="1.1">
 <metadata>
  <rdf:RDF xmlns:dc="http://purl.org/dc/elements/1.1/" xmlns:cc="http://creativecommons.org/ns#" xmlns:rdf="http://www.w3.org/1999/02/22-rdf-syntax-ns#">
   <cc:Work>
    <dc:type rdf:resource="http://purl.org/dc/dcmitype/StillImage"/>
    <dc:date>2022-07-22T18:21:52.501606</dc:date>
    <dc:format>image/svg+xml</dc:format>
    <dc:creator>
     <cc:Agent>
      <dc:title>Matplotlib v3.5.2, https://matplotlib.org/</dc:title>
     </cc:Agent>
    </dc:creator>
   </cc:Work>
  </rdf:RDF>
 </metadata>
 <defs>
  <style type="text/css">*{stroke-linejoin: round; stroke-linecap: butt}</style>
 </defs>
 <g id="figure_1">
  <g id="patch_1">
   <path d="M 0 390.418188 
L 1378.590625 390.418188 
L 1378.590625 -0 
L 0 -0 
z
" style="fill: #ffffff"/>
  </g>
  <g id="axes_1">
   <g id="patch_2">
    <path d="M 32.190625 367.701 
L 1371.390625 367.701 
L 1371.390625 35.061 
L 32.190625 35.061 
z
" style="fill: #ffffff"/>
   </g>
   <g id="matplotlib.axis_1">
    <g id="xtick_1">
     <g id="line2d_1">
      <defs>
       <path id="m1b67b68122" d="M 0 0 
L 0 3.5 
" style="stroke: #000000; stroke-width: 0.8"/>
      </defs>
      <g>
       <use xlink:href="#m1b67b68122" x="64.044934" y="367.701" style="stroke: #000000; stroke-width: 0.8"/>
      </g>
     </g>
     <g id="text_1">
      <!-- 2020-01 -->
      <g transform="translate(44.55509 381.55725)scale(0.1 -0.1)">
       <defs>
        <path id="WenQuanYiZenHei-32" d="M 3488 0 
L 369 0 
L 369 456 
L 2150 1850 
Q 2931 2463 2931 3144 
Q 2931 3619 2488 3863 
Q 2231 4013 1931 4013 
Q 1425 4013 1113 3619 
Q 894 3356 881 3013 
L 369 3169 
Q 531 3981 1213 4300 
Q 1544 4456 1950 4456 
Q 2631 4456 3088 4044 
L 3225 3888 
L 3350 3706 
Q 3481 3444 3481 3144 
Q 3481 2313 2519 1569 
L 1069 456 
L 3488 456 
L 3488 0 
z
" transform="scale(0.015625)"/>
        <path id="WenQuanYiZenHei-30" d="M 3581 2175 
Q 3581 1288 3169 638 
Q 2713 -63 1938 -63 
Q 1025 -63 563 831 
Q 256 1425 256 2188 
Q 256 3188 700 3819 
Q 1138 4456 1888 4456 
Q 2863 4456 3306 3500 
Q 3581 2925 3581 2175 
z
M 3019 2100 
Q 3019 3356 2500 3806 
L 2350 3919 
Q 2144 4031 1888 4031 
Q 1100 4031 888 2956 
Q 819 2625 819 2225 
Q 819 1013 1338 569 
Q 1588 356 1938 356 
Q 2675 356 2925 1294 
Q 3019 1663 3019 2100 
z
" transform="scale(0.015625)"/>
        <path id="WenQuanYiZenHei-2d" d="M 1363 1444 
L 0 1444 
L 0 1844 
L 1363 1844 
L 1363 1444 
z
" transform="scale(0.015625)"/>
        <path id="WenQuanYiZenHei-31" d="M 3556 0 
L 488 0 
L 488 406 
L 1800 406 
L 1800 3725 
Q 1231 3125 588 2788 
L 588 3338 
Q 1456 3781 1931 4388 
L 2331 4388 
L 2331 406 
L 3556 406 
L 3556 0 
z
" transform="scale(0.015625)"/>
       </defs>
       <use xlink:href="#WenQuanYiZenHei-32"/>
       <use xlink:href="#WenQuanYiZenHei-30" x="59.960938"/>
       <use xlink:href="#WenQuanYiZenHei-32" x="119.921875"/>
       <use xlink:href="#WenQuanYiZenHei-30" x="179.882812"/>
       <use xlink:href="#WenQuanYiZenHei-2d" x="239.84375"/>
       <use xlink:href="#WenQuanYiZenHei-30" x="269.824219"/>
       <use xlink:href="#WenQuanYiZenHei-31" x="329.785156"/>
      </g>
     </g>
    </g>
    <g id="xtick_2">
     <g id="line2d_2">
      <g>
       <use xlink:href="#m1b67b68122" x="184.075664" y="367.701" style="stroke: #000000; stroke-width: 0.8"/>
      </g>
     </g>
     <g id="text_2">
      <!-- 2020-04 -->
      <g transform="translate(164.58582 381.55725)scale(0.1 -0.1)">
       <defs>
        <path id="WenQuanYiZenHei-34" d="M 3631 1025 
L 2913 1025 
L 2913 0 
L 2381 0 
L 2381 1025 
L 219 1025 
L 219 1388 
L 2225 4388 
L 2913 4388 
L 2913 1444 
L 3631 1444 
L 3631 1025 
z
M 2381 1444 
L 2381 3963 
L 788 1444 
L 2381 1444 
z
" transform="scale(0.015625)"/>
       </defs>
       <use xlink:href="#WenQuanYiZenHei-32"/>
       <use xlink:href="#WenQuanYiZenHei-30" x="59.960938"/>
       <use xlink:href="#WenQuanYiZenHei-32" x="119.921875"/>
       <use xlink:href="#WenQuanYiZenHei-30" x="179.882812"/>
       <use xlink:href="#WenQuanYiZenHei-2d" x="239.84375"/>
       <use xlink:href="#WenQuanYiZenHei-30" x="269.824219"/>
       <use xlink:href="#WenQuanYiZenHei-34" x="329.785156"/>
      </g>
     </g>
    </g>
    <g id="xtick_3">
     <g id="line2d_3">
      <g>
       <use xlink:href="#m1b67b68122" x="304.106394" y="367.701" style="stroke: #000000; stroke-width: 0.8"/>
      </g>
     </g>
     <g id="text_3">
      <!-- 2020-07 -->
      <g transform="translate(284.61655 381.55725)scale(0.1 -0.1)">
       <defs>
        <path id="WenQuanYiZenHei-37" d="M 3400 4056 
Q 1838 2175 1838 0 
L 1275 0 
Q 1269 1438 2056 2825 
Q 2381 3400 2825 3913 
L 444 3913 
L 500 4388 
L 3400 4388 
L 3400 4056 
z
" transform="scale(0.015625)"/>
       </defs>
       <use xlink:href="#WenQuanYiZenHei-32"/>
       <use xlink:href="#WenQuanYiZenHei-30" x="59.960938"/>
       <use xlink:href="#WenQuanYiZenHei-32" x="119.921875"/>
       <use xlink:href="#WenQuanYiZenHei-30" x="179.882812"/>
       <use xlink:href="#WenQuanYiZenHei-2d" x="239.84375"/>
       <use xlink:href="#WenQuanYiZenHei-30" x="269.824219"/>
       <use xlink:href="#WenQuanYiZenHei-37" x="329.785156"/>
      </g>
     </g>
    </g>
    <g id="xtick_4">
     <g id="line2d_4">
      <g>
       <use xlink:href="#m1b67b68122" x="425.456143" y="367.701" style="stroke: #000000; stroke-width: 0.8"/>
      </g>
     </g>
     <g id="text_4">
      <!-- 2020-10 -->
      <g transform="translate(405.966299 381.55725)scale(0.1 -0.1)">
       <use xlink:href="#WenQuanYiZenHei-32"/>
       <use xlink:href="#WenQuanYiZenHei-30" x="59.960938"/>
       <use xlink:href="#WenQuanYiZenHei-32" x="119.921875"/>
       <use xlink:href="#WenQuanYiZenHei-30" x="179.882812"/>
       <use xlink:href="#WenQuanYiZenHei-2d" x="239.84375"/>
       <use xlink:href="#WenQuanYiZenHei-31" x="269.824219"/>
       <use xlink:href="#WenQuanYiZenHei-30" x="329.785156"/>
      </g>
     </g>
    </g>
    <g id="xtick_5">
     <g id="line2d_5">
      <g>
       <use xlink:href="#m1b67b68122" x="546.805891" y="367.701" style="stroke: #000000; stroke-width: 0.8"/>
      </g>
     </g>
     <g id="text_5">
      <!-- 2021-01 -->
      <g transform="translate(527.316048 381.55725)scale(0.1 -0.1)">
       <use xlink:href="#WenQuanYiZenHei-32"/>
       <use xlink:href="#WenQuanYiZenHei-30" x="59.960938"/>
       <use xlink:href="#WenQuanYiZenHei-32" x="119.921875"/>
       <use xlink:href="#WenQuanYiZenHei-31" x="179.882812"/>
       <use xlink:href="#WenQuanYiZenHei-2d" x="239.84375"/>
       <use xlink:href="#WenQuanYiZenHei-30" x="269.824219"/>
       <use xlink:href="#WenQuanYiZenHei-31" x="329.785156"/>
      </g>
     </g>
    </g>
    <g id="xtick_6">
     <g id="line2d_6">
      <g>
       <use xlink:href="#m1b67b68122" x="665.517602" y="367.701" style="stroke: #000000; stroke-width: 0.8"/>
      </g>
     </g>
     <g id="text_6">
      <!-- 2021-04 -->
      <g transform="translate(646.027758 381.55725)scale(0.1 -0.1)">
       <use xlink:href="#WenQuanYiZenHei-32"/>
       <use xlink:href="#WenQuanYiZenHei-30" x="59.960938"/>
       <use xlink:href="#WenQuanYiZenHei-32" x="119.921875"/>
       <use xlink:href="#WenQuanYiZenHei-31" x="179.882812"/>
       <use xlink:href="#WenQuanYiZenHei-2d" x="239.84375"/>
       <use xlink:href="#WenQuanYiZenHei-30" x="269.824219"/>
       <use xlink:href="#WenQuanYiZenHei-34" x="329.785156"/>
      </g>
     </g>
    </g>
    <g id="xtick_7">
     <g id="line2d_7">
      <g>
       <use xlink:href="#m1b67b68122" x="785.548332" y="367.701" style="stroke: #000000; stroke-width: 0.8"/>
      </g>
     </g>
     <g id="text_7">
      <!-- 2021-07 -->
      <g transform="translate(766.058488 381.55725)scale(0.1 -0.1)">
       <use xlink:href="#WenQuanYiZenHei-32"/>
       <use xlink:href="#WenQuanYiZenHei-30" x="59.960938"/>
       <use xlink:href="#WenQuanYiZenHei-32" x="119.921875"/>
       <use xlink:href="#WenQuanYiZenHei-31" x="179.882812"/>
       <use xlink:href="#WenQuanYiZenHei-2d" x="239.84375"/>
       <use xlink:href="#WenQuanYiZenHei-30" x="269.824219"/>
       <use xlink:href="#WenQuanYiZenHei-37" x="329.785156"/>
      </g>
     </g>
    </g>
    <g id="xtick_8">
     <g id="line2d_8">
      <g>
       <use xlink:href="#m1b67b68122" x="906.898081" y="367.701" style="stroke: #000000; stroke-width: 0.8"/>
      </g>
     </g>
     <g id="text_8">
      <!-- 2021-10 -->
      <g transform="translate(887.408237 381.55725)scale(0.1 -0.1)">
       <use xlink:href="#WenQuanYiZenHei-32"/>
       <use xlink:href="#WenQuanYiZenHei-30" x="59.960938"/>
       <use xlink:href="#WenQuanYiZenHei-32" x="119.921875"/>
       <use xlink:href="#WenQuanYiZenHei-31" x="179.882812"/>
       <use xlink:href="#WenQuanYiZenHei-2d" x="239.84375"/>
       <use xlink:href="#WenQuanYiZenHei-31" x="269.824219"/>
       <use xlink:href="#WenQuanYiZenHei-30" x="329.785156"/>
      </g>
     </g>
    </g>
    <g id="xtick_9">
     <g id="line2d_9">
      <g>
       <use xlink:href="#m1b67b68122" x="1028.24783" y="367.701" style="stroke: #000000; stroke-width: 0.8"/>
      </g>
     </g>
     <g id="text_9">
      <!-- 2022-01 -->
      <g transform="translate(1008.757986 381.55725)scale(0.1 -0.1)">
       <use xlink:href="#WenQuanYiZenHei-32"/>
       <use xlink:href="#WenQuanYiZenHei-30" x="59.960938"/>
       <use xlink:href="#WenQuanYiZenHei-32" x="119.921875"/>
       <use xlink:href="#WenQuanYiZenHei-32" x="179.882812"/>
       <use xlink:href="#WenQuanYiZenHei-2d" x="239.84375"/>
       <use xlink:href="#WenQuanYiZenHei-30" x="269.824219"/>
       <use xlink:href="#WenQuanYiZenHei-31" x="329.785156"/>
      </g>
     </g>
    </g>
    <g id="xtick_10">
     <g id="line2d_10">
      <g>
       <use xlink:href="#m1b67b68122" x="1146.959541" y="367.701" style="stroke: #000000; stroke-width: 0.8"/>
      </g>
     </g>
     <g id="text_10">
      <!-- 2022-04 -->
      <g transform="translate(1127.469697 381.55725)scale(0.1 -0.1)">
       <use xlink:href="#WenQuanYiZenHei-32"/>
       <use xlink:href="#WenQuanYiZenHei-30" x="59.960938"/>
       <use xlink:href="#WenQuanYiZenHei-32" x="119.921875"/>
       <use xlink:href="#WenQuanYiZenHei-32" x="179.882812"/>
       <use xlink:href="#WenQuanYiZenHei-2d" x="239.84375"/>
       <use xlink:href="#WenQuanYiZenHei-30" x="269.824219"/>
       <use xlink:href="#WenQuanYiZenHei-34" x="329.785156"/>
      </g>
     </g>
    </g>
    <g id="xtick_11">
     <g id="line2d_11">
      <g>
       <use xlink:href="#m1b67b68122" x="1266.99027" y="367.701" style="stroke: #000000; stroke-width: 0.8"/>
      </g>
     </g>
     <g id="text_11">
      <!-- 2022-07 -->
      <g transform="translate(1247.500427 381.55725)scale(0.1 -0.1)">
       <use xlink:href="#WenQuanYiZenHei-32"/>
       <use xlink:href="#WenQuanYiZenHei-30" x="59.960938"/>
       <use xlink:href="#WenQuanYiZenHei-32" x="119.921875"/>
       <use xlink:href="#WenQuanYiZenHei-32" x="179.882812"/>
       <use xlink:href="#WenQuanYiZenHei-2d" x="239.84375"/>
       <use xlink:href="#WenQuanYiZenHei-30" x="269.824219"/>
       <use xlink:href="#WenQuanYiZenHei-37" x="329.785156"/>
      </g>
     </g>
    </g>
   </g>
   <g id="matplotlib.axis_2">
    <g id="ytick_1">
     <g id="line2d_12">
      <defs>
       <path id="m12b921e627" d="M 0 0 
L -3.5 0 
" style="stroke: #000000; stroke-width: 0.8"/>
      </defs>
      <g>
       <use xlink:href="#m12b921e627" x="32.190625" y="351.35921" style="stroke: #000000; stroke-width: 0.8"/>
      </g>
     </g>
     <g id="text_12">
      <!-- 0 -->
      <g transform="translate(19.19375 354.787335)scale(0.1 -0.1)">
       <use xlink:href="#WenQuanYiZenHei-30"/>
      </g>
     </g>
    </g>
    <g id="ytick_2">
     <g id="line2d_13">
      <g>
       <use xlink:href="#m12b921e627" x="32.190625" y="305.726148" style="stroke: #000000; stroke-width: 0.8"/>
      </g>
     </g>
     <g id="text_13">
      <!-- 20 -->
      <g transform="translate(13.196875 309.154273)scale(0.1 -0.1)">
       <use xlink:href="#WenQuanYiZenHei-32"/>
       <use xlink:href="#WenQuanYiZenHei-30" x="59.960938"/>
      </g>
     </g>
    </g>
    <g id="ytick_3">
     <g id="line2d_14">
      <g>
       <use xlink:href="#m12b921e627" x="32.190625" y="260.093086" style="stroke: #000000; stroke-width: 0.8"/>
      </g>
     </g>
     <g id="text_14">
      <!-- 40 -->
      <g transform="translate(13.196875 263.521211)scale(0.1 -0.1)">
       <use xlink:href="#WenQuanYiZenHei-34"/>
       <use xlink:href="#WenQuanYiZenHei-30" x="59.960938"/>
      </g>
     </g>
    </g>
    <g id="ytick_4">
     <g id="line2d_15">
      <g>
       <use xlink:href="#m12b921e627" x="32.190625" y="214.460023" style="stroke: #000000; stroke-width: 0.8"/>
      </g>
     </g>
     <g id="text_15">
      <!-- 60 -->
      <g transform="translate(13.196875 217.888148)scale(0.1 -0.1)">
       <defs>
        <path id="WenQuanYiZenHei-36" d="M 3550 1431 
Q 3550 725 3006 288 
Q 2581 -63 1994 -63 
Q 1013 -63 563 825 
Q 288 1363 288 2081 
Q 288 3294 856 3938 
Q 1319 4456 2075 4456 
Q 2969 4456 3363 3756 
Q 3431 3631 3481 3481 
L 2988 3350 
Q 2750 3994 2075 4006 
Q 1056 4006 844 2669 
Q 794 2356 794 1981 
L 806 1981 
Q 1006 2506 1544 2744 
Q 1819 2869 2119 2869 
Q 2788 2869 3213 2375 
Q 3550 1975 3550 1431 
z
M 3038 1406 
Q 3038 1906 2656 2213 
Q 2381 2431 2038 2431 
Q 1525 2431 1181 2044 
Q 919 1744 919 1356 
Q 919 881 1344 581 
Q 1631 375 1981 375 
Q 2519 375 2838 781 
Q 3038 1050 3038 1406 
z
" transform="scale(0.015625)"/>
       </defs>
       <use xlink:href="#WenQuanYiZenHei-36"/>
       <use xlink:href="#WenQuanYiZenHei-30" x="59.960938"/>
      </g>
     </g>
    </g>
    <g id="ytick_5">
     <g id="line2d_16">
      <g>
       <use xlink:href="#m12b921e627" x="32.190625" y="168.826961" style="stroke: #000000; stroke-width: 0.8"/>
      </g>
     </g>
     <g id="text_16">
      <!-- 80 -->
      <g transform="translate(13.196875 172.255086)scale(0.1 -0.1)">
       <defs>
        <path id="WenQuanYiZenHei-38" d="M 3619 1175 
Q 3619 431 2850 100 
Q 2444 -63 1944 -63 
Q 1231 -63 725 269 
Q 225 594 225 1125 
Q 225 1881 1269 2281 
Q 719 2481 519 2938 
Q 444 3119 444 3319 
Q 444 4000 1144 4294 
Q 1519 4456 1963 4456 
Q 2669 4456 3094 4094 
Q 3425 3813 3425 3369 
Q 3425 2638 2575 2356 
Q 3231 2056 3450 1725 
Q 3619 1488 3619 1175 
z
M 2944 3344 
Q 2944 3906 2288 4019 
Q 2138 4044 1969 4044 
Q 1438 4044 1163 3775 
Q 1000 3613 1000 3375 
Q 1000 2925 1594 2663 
Q 1756 2588 1931 2550 
Q 2581 2725 2788 2956 
Q 2944 3125 2944 3344 
z
M 3075 1094 
Q 3075 1738 1875 2050 
Q 1094 1881 850 1463 
Q 763 1313 763 1131 
Q 763 569 1456 406 
Q 1681 344 1944 344 
Q 2519 344 2850 619 
Q 3075 813 3075 1094 
z
" transform="scale(0.015625)"/>
       </defs>
       <use xlink:href="#WenQuanYiZenHei-38"/>
       <use xlink:href="#WenQuanYiZenHei-30" x="59.960938"/>
      </g>
     </g>
    </g>
    <g id="ytick_6">
     <g id="line2d_17">
      <g>
       <use xlink:href="#m12b921e627" x="32.190625" y="123.193899" style="stroke: #000000; stroke-width: 0.8"/>
      </g>
     </g>
     <g id="text_17">
      <!-- 100 -->
      <g transform="translate(7.2 126.622024)scale(0.1 -0.1)">
       <use xlink:href="#WenQuanYiZenHei-31"/>
       <use xlink:href="#WenQuanYiZenHei-30" x="59.960938"/>
       <use xlink:href="#WenQuanYiZenHei-30" x="119.921875"/>
      </g>
     </g>
    </g>
    <g id="ytick_7">
     <g id="line2d_18">
      <g>
       <use xlink:href="#m12b921e627" x="32.190625" y="77.560837" style="stroke: #000000; stroke-width: 0.8"/>
      </g>
     </g>
     <g id="text_18">
      <!-- 120 -->
      <g transform="translate(7.2 80.988962)scale(0.1 -0.1)">
       <use xlink:href="#WenQuanYiZenHei-31"/>
       <use xlink:href="#WenQuanYiZenHei-32" x="59.960938"/>
       <use xlink:href="#WenQuanYiZenHei-30" x="119.921875"/>
      </g>
     </g>
    </g>
   </g>
   <g id="line2d_19">
    <path d="M 93.063352 312.571107 
L 94.382371 314.85276 
L 95.70139 308.007801 
L 97.020409 255.529779 
L 98.339428 296.599535 
L 99.658447 248.68482 
L 100.977466 70.715878 
L 102.296485 50.181 
L 103.615504 100.377368 
L 104.934523 212.17837 
L 107.572561 207.615064 
L 108.89158 111.785634 
L 110.210599 200.770105 
L 112.848637 232.713248 
L 114.167656 255.529779 
L 115.486675 289.754576 
L 116.805694 312.571107 
L 118.124713 294.317882 
L 119.443732 319.416066 
L 120.762751 319.416066 
L 122.08177 328.542679 
L 123.400789 335.387638 
L 124.719808 339.950944 
L 126.038828 342.232597 
L 127.357847 349.077557 
L 128.676866 346.795903 
L 129.995885 349.077557 
L 131.314904 287.472923 
L 132.633923 346.795903 
L 133.952942 351.35921 
L 143.186075 351.35921 
L 144.505094 349.077557 
L 145.824113 335.387638 
L 147.143132 351.35921 
L 148.462151 346.795903 
L 149.78117 351.35921 
L 159.014303 351.35921 
L 160.333322 323.979372 
L 161.652341 342.232597 
L 162.97136 351.35921 
L 164.290379 349.077557 
L 165.609398 351.35921 
L 166.928417 349.077557 
L 168.247436 349.077557 
L 169.566455 346.795903 
L 170.885474 346.795903 
L 172.204493 351.35921 
L 173.523512 346.795903 
L 174.842531 349.077557 
L 176.16155 346.795903 
L 177.480569 342.232597 
L 178.799588 342.232597 
L 180.118607 344.51425 
L 181.437626 349.077557 
L 182.756645 346.795903 
L 184.075664 351.35921 
L 186.713702 346.795903 
L 188.032721 346.795903 
L 189.35174 349.077557 
L 194.627816 349.077557 
L 195.946835 351.35921 
L 201.222911 351.35921 
L 202.54193 349.077557 
L 203.860949 351.35921 
L 283.00209 351.35921 
L 284.321109 349.077557 
L 285.640128 351.35921 
L 315.977565 351.35921 
L 317.296584 349.077557 
L 318.615603 351.35921 
L 351.591078 351.35921 
L 352.910097 349.077557 
L 358.186173 349.077557 
L 359.505192 351.35921 
L 366.100287 351.35921 
L 367.419306 346.795903 
L 368.738325 351.35921 
L 381.928515 351.35921 
L 383.247534 349.077557 
L 384.566553 351.35921 
L 399.075762 351.35921 
L 400.394781 346.795903 
L 401.7138 351.35921 
L 403.032819 349.077557 
L 404.351838 349.077557 
L 405.670857 351.35921 
L 432.051238 351.35921 
L 433.370257 349.077557 
L 434.689276 351.35921 
L 462.388675 351.35921 
L 463.707694 344.51425 
L 465.026713 351.35921 
L 466.345732 351.35921 
L 467.664751 349.077557 
L 468.98377 351.35921 
L 470.302789 351.35921 
L 471.621808 349.077557 
L 472.940827 351.35921 
L 474.259846 346.795903 
L 475.578865 351.35921 
L 476.897884 349.077557 
L 478.216903 351.35921 
L 487.450036 351.35921 
L 488.769055 349.077557 
L 490.088074 351.35921 
L 491.407093 351.35921 
L 492.726112 349.077557 
L 494.045131 351.35921 
L 499.321207 351.35921 
L 500.640226 349.077557 
L 501.959245 351.35921 
L 511.192378 351.35921 
L 512.511397 349.077557 
L 513.830416 351.35921 
L 517.787473 351.35921 
L 519.106492 349.077557 
L 520.425511 351.35921 
L 521.74453 349.077557 
L 523.063549 351.35921 
L 527.020606 351.35921 
L 528.339625 349.077557 
L 529.658644 349.077557 
L 530.977663 351.35921 
L 532.296682 351.35921 
L 533.615701 349.077557 
L 534.93472 351.35921 
L 537.572758 351.35921 
L 538.891777 346.795903 
L 540.210796 344.51425 
L 541.529815 351.35921 
L 542.848834 349.077557 
L 544.167853 351.35921 
L 556.039024 351.35921 
L 557.358043 346.795903 
L 558.677063 351.35921 
L 562.63412 351.35921 
L 563.953139 349.077557 
L 565.272158 351.35921 
L 566.591177 351.35921 
L 567.910196 346.795903 
L 569.229215 344.51425 
L 570.548234 346.795903 
L 571.867253 351.35921 
L 595.609595 351.35921 
L 596.928614 349.077557 
L 598.247633 344.51425 
L 599.566652 351.35921 
L 615.39488 351.35921 
L 616.713899 349.077557 
L 618.032918 351.35921 
L 625.947032 351.35921 
L 627.266051 349.077557 
L 628.58507 351.35921 
L 647.051336 351.35921 
L 648.370355 349.077557 
L 649.689374 351.35921 
L 668.15564 351.35921 
L 669.474659 349.077557 
L 670.793678 351.35921 
L 674.750735 351.35921 
L 676.069754 349.077557 
L 677.388773 351.35921 
L 678.707792 351.35921 
L 680.026811 346.795903 
L 681.34583 351.35921 
L 683.983868 351.35921 
L 685.302887 349.077557 
L 686.621906 351.35921 
L 687.940925 351.35921 
L 689.259944 349.077557 
L 690.578963 351.35921 
L 691.897982 351.35921 
L 693.217001 346.795903 
L 694.53602 351.35921 
L 697.174058 351.35921 
L 698.493077 349.077557 
L 699.812096 351.35921 
L 701.131115 326.261026 
L 702.450135 351.35921 
L 703.769154 349.077557 
L 705.088173 351.35921 
L 711.683268 351.35921 
L 713.002287 349.077557 
L 714.321306 351.35921 
L 715.640325 349.077557 
L 716.959344 351.35921 
L 718.278363 349.077557 
L 719.597382 351.35921 
L 723.554439 351.35921 
L 724.873458 333.105985 
L 726.192477 349.077557 
L 727.511496 351.35921 
L 728.830515 339.950944 
L 730.149534 351.35921 
L 731.468553 351.35921 
L 732.787572 349.077557 
L 734.106591 351.35921 
L 735.42561 351.35921 
L 736.744629 349.077557 
L 738.063648 351.35921 
L 739.382667 351.35921 
L 740.701686 349.077557 
L 742.020705 351.35921 
L 747.296781 351.35921 
L 748.6158 349.077557 
L 749.934819 351.35921 
L 752.572857 346.795903 
L 753.891876 351.35921 
L 755.210895 351.35921 
L 756.529914 349.077557 
L 757.848933 349.077557 
L 759.167952 351.35921 
L 760.486971 346.795903 
L 761.80599 351.35921 
L 763.125009 349.077557 
L 764.444028 351.35921 
L 765.763047 351.35921 
L 767.082066 344.51425 
L 768.401085 349.077557 
L 769.720104 346.795903 
L 771.039123 351.35921 
L 772.358142 342.232597 
L 773.677161 351.35921 
L 774.99618 351.35921 
L 776.315199 349.077557 
L 777.634218 349.077557 
L 778.953237 351.35921 
L 780.272256 351.35921 
L 781.591275 349.077557 
L 782.910294 351.35921 
L 801.37656 351.35921 
L 802.695579 346.795903 
L 805.333617 346.795903 
L 806.652636 351.35921 
L 807.971655 349.077557 
L 809.290674 351.35921 
L 822.480864 351.35921 
L 823.799883 346.795903 
L 826.437921 351.35921 
L 827.75694 351.35921 
L 829.075959 346.795903 
L 830.394978 351.35921 
L 831.713997 351.35921 
L 833.033016 349.077557 
L 834.352035 351.35921 
L 835.671054 349.077557 
L 836.990073 351.35921 
L 838.309092 323.979372 
L 839.628111 351.35921 
L 843.585168 351.35921 
L 844.904187 339.950944 
L 846.223207 351.35921 
L 847.542226 351.35921 
L 848.861245 349.077557 
L 850.180264 351.35921 
L 851.499283 346.795903 
L 852.818302 351.35921 
L 854.137321 349.077557 
L 855.45634 335.387638 
L 856.775359 351.35921 
L 858.094378 349.077557 
L 859.413397 351.35921 
L 862.051435 351.35921 
L 863.370454 349.077557 
L 864.689473 351.35921 
L 866.008492 349.077557 
L 868.64653 349.077557 
L 869.965549 342.232597 
L 871.284568 351.35921 
L 872.603587 351.35921 
L 873.922606 349.077557 
L 875.241625 351.35921 
L 876.560644 349.077557 
L 877.879663 351.35921 
L 883.155739 351.35921 
L 884.474758 349.077557 
L 887.112796 349.077557 
L 888.431815 351.35921 
L 889.750834 351.35921 
L 891.069853 346.795903 
L 892.388872 346.795903 
L 893.707891 351.35921 
L 898.983967 351.35921 
L 900.302986 349.077557 
L 901.622005 351.35921 
L 902.941024 351.35921 
L 904.260043 349.077557 
L 905.579062 351.35921 
L 906.898081 349.077557 
L 908.2171 351.35921 
L 909.536119 349.077557 
L 910.855138 351.35921 
L 912.174157 351.35921 
L 913.493176 349.077557 
L 914.812195 351.35921 
L 916.131214 351.35921 
L 917.450233 349.077557 
L 918.769252 351.35921 
L 920.088271 351.35921 
L 921.40729 349.077557 
L 922.726309 349.077557 
L 924.045328 351.35921 
L 925.364347 346.795903 
L 928.002385 351.35921 
L 934.59748 351.35921 
L 935.916499 333.105985 
L 937.235518 351.35921 
L 939.873556 351.35921 
L 941.192575 333.105985 
L 942.511594 346.795903 
L 943.830613 342.232597 
L 945.149632 342.232597 
L 946.468651 330.824332 
L 947.78767 344.51425 
L 949.106689 349.077557 
L 950.425708 351.35921 
L 954.382765 351.35921 
L 955.701784 349.077557 
L 957.020803 351.35921 
L 959.658841 351.35921 
L 960.97786 349.077557 
L 962.296879 349.077557 
L 963.615898 351.35921 
L 964.934917 351.35921 
L 966.253936 349.077557 
L 967.572955 351.35921 
L 972.849031 351.35921 
L 974.16805 349.077557 
L 975.487069 351.35921 
L 992.634317 351.35921 
L 993.953336 349.077557 
L 995.272355 333.105985 
L 996.591374 323.979372 
L 997.910393 337.669291 
L 999.229412 271.501351 
L 1000.548431 264.656392 
L 1001.86745 180.235227 
L 1003.186469 248.68482 
L 1004.505488 246.403167 
L 1005.824507 223.586636 
L 1007.143526 250.966473 
L 1008.462545 175.671921 
L 1009.781564 280.627963 
L 1011.100583 323.979372 
L 1012.419602 326.261026 
L 1013.738621 349.077557 
L 1015.05764 346.795903 
L 1016.376659 349.077557 
L 1019.014697 349.077557 
L 1020.333716 346.795903 
L 1021.652735 346.795903 
L 1022.971754 342.232597 
L 1024.290773 344.51425 
L 1025.609792 349.077557 
L 1026.928811 351.35921 
L 1028.24783 330.824332 
L 1029.566849 321.697719 
L 1030.885868 337.669291 
L 1032.204887 346.795903 
L 1033.523906 323.979372 
L 1034.842925 342.232597 
L 1036.161944 342.232597 
L 1037.480963 330.824332 
L 1038.799982 344.51425 
L 1040.119001 335.387638 
L 1041.43802 349.077557 
L 1042.757039 342.232597 
L 1044.076058 344.51425 
L 1045.395077 344.51425 
L 1046.714096 351.35921 
L 1048.033115 346.795903 
L 1049.352134 351.35921 
L 1050.671153 351.35921 
L 1051.990172 344.51425 
L 1053.309191 351.35921 
L 1054.62821 346.795903 
L 1055.947229 337.669291 
L 1057.266248 346.795903 
L 1058.585267 344.51425 
L 1059.904286 351.35921 
L 1061.223305 328.542679 
L 1062.542324 312.571107 
L 1063.861343 310.289454 
L 1065.180362 301.162841 
L 1066.499381 296.599535 
L 1067.8184 321.697719 
L 1069.137419 317.134413 
L 1070.456438 349.077557 
L 1071.775457 346.795903 
L 1074.413495 346.795903 
L 1077.051533 351.35921 
L 1078.370552 351.35921 
L 1079.689571 349.077557 
L 1081.00859 344.51425 
L 1082.327609 351.35921 
L 1083.646628 349.077557 
L 1084.965647 351.35921 
L 1087.603685 351.35921 
L 1088.922704 342.232597 
L 1090.241723 351.35921 
L 1091.560742 346.795903 
L 1092.879761 344.51425 
L 1094.19878 351.35921 
L 1095.517799 346.795903 
L 1098.155837 351.35921 
L 1099.474856 349.077557 
L 1100.793875 342.232597 
L 1103.431913 351.35921 
L 1106.069951 351.35921 
L 1107.38897 349.077557 
L 1108.707989 330.824332 
L 1110.027008 346.795903 
L 1111.346027 333.105985 
L 1112.665046 349.077557 
L 1113.984065 337.669291 
L 1115.303084 349.077557 
L 1116.622103 337.669291 
L 1117.941122 310.289454 
L 1119.260141 296.599535 
L 1120.57916 228.149942 
L 1121.898179 317.134413 
L 1123.217198 253.248126 
L 1124.536217 351.35921 
L 1125.855236 200.770105 
L 1127.174255 278.34631 
L 1128.493274 298.881188 
L 1129.812293 282.909617 
L 1131.131312 344.51425 
L 1132.450331 323.979372 
L 1133.76935 326.261026 
L 1135.08837 326.261026 
L 1136.407389 342.232597 
L 1137.726408 337.669291 
L 1139.045427 346.795903 
L 1140.364446 339.950944 
L 1141.683465 342.232597 
L 1144.321503 323.979372 
L 1145.640522 351.35921 
L 1146.959541 282.909617 
L 1148.27856 326.261026 
L 1149.597579 333.105985 
L 1150.916598 312.571107 
L 1152.235617 312.571107 
L 1153.554636 319.416066 
L 1154.873655 333.105985 
L 1156.192674 317.134413 
L 1157.511693 314.85276 
L 1158.830712 330.824332 
L 1160.149731 326.261026 
L 1161.46875 323.979372 
L 1162.787769 330.824332 
L 1164.106788 351.35921 
L 1165.425807 289.754576 
L 1166.744826 326.261026 
L 1168.063845 273.783004 
L 1169.382864 346.795903 
L 1170.701883 330.824332 
L 1172.020902 339.950944 
L 1173.339921 317.134413 
L 1174.65894 328.542679 
L 1177.296978 319.416066 
L 1178.615997 333.105985 
L 1179.935016 312.571107 
L 1181.254035 246.403167 
L 1182.573054 278.34631 
L 1183.892073 333.105985 
L 1185.211092 351.35921 
L 1186.530111 346.795903 
L 1187.84913 351.35921 
L 1189.168149 344.51425 
L 1190.487168 328.542679 
L 1191.806187 351.35921 
L 1193.125206 346.795903 
L 1194.444225 349.077557 
L 1195.763244 349.077557 
L 1197.082263 351.35921 
L 1198.401282 346.795903 
L 1199.720301 351.35921 
L 1203.677358 351.35921 
L 1204.996377 346.795903 
L 1206.315396 351.35921 
L 1207.634415 351.35921 
L 1208.953434 349.077557 
L 1210.272453 351.35921 
L 1211.591472 349.077557 
L 1212.910491 351.35921 
L 1214.22951 351.35921 
L 1215.548529 346.795903 
L 1216.867548 351.35921 
L 1222.143624 351.35921 
L 1223.462643 349.077557 
L 1224.781662 351.35921 
L 1228.738719 351.35921 
L 1230.057738 349.077557 
L 1231.376757 351.35921 
L 1232.695776 349.077557 
L 1234.014795 351.35921 
L 1240.60989 351.35921 
L 1241.928909 344.51425 
L 1243.247928 351.35921 
L 1244.566947 346.795903 
L 1245.885966 346.795903 
L 1248.524004 351.35921 
L 1251.162042 351.35921 
L 1252.481061 346.795903 
L 1255.119099 351.35921 
L 1256.438118 351.35921 
L 1257.757137 346.795903 
L 1259.076156 351.35921 
L 1260.395175 346.795903 
L 1263.033213 351.35921 
L 1264.352232 351.35921 
L 1265.671251 346.795903 
L 1266.99027 346.795903 
L 1268.309289 351.35921 
L 1269.628308 346.795903 
L 1270.947327 349.077557 
L 1272.266346 344.51425 
L 1273.585365 351.35921 
L 1274.904384 349.077557 
L 1277.542422 349.077557 
L 1278.861442 346.795903 
L 1280.180461 346.795903 
L 1282.818499 351.35921 
L 1284.137518 346.795903 
L 1285.456537 326.261026 
L 1286.775556 349.077557 
L 1288.094575 346.795903 
L 1289.413594 349.077557 
L 1290.732613 349.077557 
L 1292.051632 351.35921 
L 1293.370651 349.077557 
L 1293.370651 349.077557 
" clip-path="url(#p6a355213d1)" style="fill: none; stroke: #0000ff; stroke-width: 1.5; stroke-linecap: square"/>
   </g>
   <g id="line2d_20">
    <path d="M 1053.309191 347.966936 
L 1054.62821 350.974578 
L 1055.947229 341.784455 
L 1057.266248 345.457711 
L 1058.585267 347.085936 
L 1059.904286 346.968267 
L 1061.223305 336.812669 
L 1062.542324 319.664604 
L 1063.861343 315.704849 
L 1066.499381 303.234873 
L 1067.8184 319.264435 
L 1069.137419 321.159155 
L 1070.456438 334.836543 
L 1071.775457 346.601023 
L 1073.094476 342.540848 
L 1074.413495 346.882274 
L 1075.732514 349.313075 
L 1077.051533 349.914163 
L 1078.370552 352.382559 
L 1079.689571 350.729008 
L 1081.00859 346.156011 
L 1082.327609 348.557666 
L 1083.646628 349.593565 
L 1084.965647 347.792515 
L 1086.284666 350.710801 
L 1087.603685 348.073998 
L 1088.922704 342.598908 
L 1090.241723 347.978786 
L 1091.560742 349.225963 
L 1092.879761 343.635587 
L 1094.19878 350.333452 
L 1095.517799 347.830045 
L 1096.836818 347.834408 
L 1098.155837 352.47757 
L 1099.474856 348.623063 
L 1100.793875 343.088866 
L 1102.112894 346.005118 
L 1103.431913 349.376263 
L 1104.750932 349.709448 
L 1106.069951 349.109374 
L 1107.38897 347.251731 
L 1108.707989 336.331659 
L 1110.027008 343.511623 
L 1111.346027 340.435574 
L 1112.665046 342.861566 
L 1115.303084 343.588892 
L 1116.622103 343.02259 
L 1117.941122 320.210755 
L 1119.260141 306.268962 
L 1120.57916 263.490802 
L 1121.898179 299.990651 
L 1123.217198 290.236084 
L 1124.536217 312.447304 
L 1125.855236 262.038153 
L 1127.174255 250.623061 
L 1128.493274 317.970278 
L 1129.812293 285.225114 
L 1131.131312 324.042992 
L 1132.450331 337.136087 
L 1133.76935 312.032807 
L 1135.08837 334.02852 
L 1136.407389 342.680697 
L 1137.726408 340.176227 
L 1139.045427 343.222678 
L 1140.364446 344.309186 
L 1141.683465 337.150883 
L 1143.002484 343.159618 
L 1144.321503 326.812331 
L 1145.640522 341.452549 
L 1146.959541 308.062938 
L 1148.27856 312.460449 
L 1149.597579 341.642605 
L 1150.916598 316.825581 
L 1152.235617 310.030627 
L 1153.554636 326.296677 
L 1154.873655 330.041698 
L 1157.511693 319.038215 
L 1158.830712 330.043073 
L 1160.149731 327.902516 
L 1162.787769 329.919393 
L 1164.106788 345.586172 
L 1165.425807 308.659139 
L 1166.744826 315.549822 
L 1168.063845 304.639334 
L 1169.382864 324.260746 
L 1170.701883 340.884676 
L 1172.020902 329.43742 
L 1173.339921 324.88887 
L 1174.65894 328.390228 
L 1175.977959 328.946884 
L 1177.296978 324.021661 
L 1178.615997 331.301277 
L 1179.935016 324.183903 
L 1181.254035 269.736118 
L 1182.573054 284.423891 
L 1183.892073 329.11566 
L 1185.211092 341.750097 
L 1186.530111 337.951317 
L 1187.84913 345.624168 
L 1189.168149 340.256676 
L 1190.487168 335.893164 
L 1191.806187 346.923213 
L 1193.125206 352.581 
L 1194.444225 344.060522 
L 1195.763244 350.714185 
L 1197.082263 350.024547 
L 1198.401282 351.453136 
L 1199.720301 348.140099 
L 1201.03932 350.279323 
L 1202.358339 347.443623 
L 1203.677358 350.881077 
L 1204.996377 346.282881 
L 1206.315396 348.650063 
L 1207.634415 348.11431 
L 1208.953434 348.986828 
L 1210.272453 350.440236 
L 1211.591472 351.126395 
L 1212.910491 348.833548 
L 1214.22951 351.882786 
L 1215.548529 347.733678 
L 1216.867548 351.468772 
L 1218.186567 350.63007 
L 1219.505586 349.124923 
L 1220.824605 349.006147 
L 1222.143624 350.981453 
L 1223.462643 347.735785 
L 1224.781662 349.585358 
L 1226.100681 349.081418 
L 1227.4197 350.36473 
L 1228.738719 350.898758 
L 1231.376757 349.2416 
L 1232.695776 350.34118 
L 1234.014795 349.741729 
L 1235.333814 352.032781 
L 1236.652833 349.821351 
L 1237.971852 349.85713 
L 1239.290871 349.609246 
L 1240.60989 350.770456 
L 1241.928909 345.28277 
L 1243.247928 348.610649 
L 1244.566947 347.473838 
L 1245.885966 345.561549 
L 1247.204985 348.959424 
L 1248.524004 350.461483 
L 1249.843023 349.324912 
L 1251.162042 350.927581 
L 1252.481061 347.427206 
L 1253.80008 348.515123 
L 1255.119099 350.538839 
L 1256.438118 349.819469 
L 1257.757137 346.689939 
L 1259.076156 349.89027 
L 1260.395175 347.224167 
L 1261.714194 347.249317 
L 1263.033213 350.157416 
L 1264.352232 350.02908 
L 1265.671251 347.070555 
L 1266.99027 346.966414 
L 1268.309289 349.294796 
L 1270.947327 347.279324 
L 1272.266346 346.470237 
L 1273.585365 348.147089 
L 1274.904384 349.608403 
L 1276.223403 347.153833 
L 1277.542422 349.027238 
L 1278.861442 346.381686 
L 1280.180461 346.071915 
L 1281.49948 348.216096 
L 1282.818499 350.015645 
L 1284.137518 347.06662 
L 1285.456537 333.219882 
L 1286.775556 343.174015 
L 1288.094575 350.388523 
L 1289.413594 344.736305 
L 1290.732613 348.845178 
L 1292.051632 349.104821 
L 1293.370651 347.656224 
L 1293.370651 347.656224 
" clip-path="url(#p6a355213d1)" style="fill: none; stroke: #ffa500; stroke-width: 1.5; stroke-linecap: square"/>
   </g>
   <g id="line2d_21">
    <path d="M 1293.370651 347.656224 
L 1294.68967 347.915881 
L 1296.008689 348.122266 
L 1297.327708 347.301585 
L 1298.646727 346.935932 
L 1299.965746 346.585191 
L 1301.284765 346.638516 
L 1302.603784 347.175928 
L 1303.922803 346.022991 
L 1305.241822 345.581834 
L 1306.560841 345.59614 
L 1307.87986 345.48896 
L 1309.198879 345.263354 
L 1310.517898 344.871249 
" clip-path="url(#p6a355213d1)" style="fill: none; stroke: #ff0000; stroke-width: 1.5; stroke-linecap: square"/>
   </g>
   <g id="patch_3">
    <path d="M 32.190625 367.701 
L 32.190625 35.061 
" style="fill: none; stroke: #000000; stroke-width: 0.8; stroke-linejoin: miter; stroke-linecap: square"/>
   </g>
   <g id="patch_4">
    <path d="M 1371.390625 367.701 
L 1371.390625 35.061 
" style="fill: none; stroke: #000000; stroke-width: 0.8; stroke-linejoin: miter; stroke-linecap: square"/>
   </g>
   <g id="patch_5">
    <path d="M 32.190625 367.701 
L 1371.390625 367.701 
" style="fill: none; stroke: #000000; stroke-width: 0.8; stroke-linejoin: miter; stroke-linecap: square"/>
   </g>
   <g id="patch_6">
    <path d="M 32.190625 35.061 
L 1371.390625 35.061 
" style="fill: none; stroke: #000000; stroke-width: 0.8; stroke-linejoin: miter; stroke-linecap: square"/>
   </g>
   <g id="text_19">
    <!-- 每日新增预测 - 浙江 -->
    <g transform="translate(648.393438 17.041875)scale(0.12 -0.12)">
     <defs>
      <path id="WenQuanYiZenHei-6bcf" d="M 6138 2181 
Q 6113 1988 6138 1800 
Q 5788 1819 5438 1819 
L 4975 1819 
L 4863 738 
L 5806 738 
L 5806 394 
L 4831 394 
L 4775 -144 
Q 4719 -563 4350 -725 
Q 4013 -856 3550 -825 
L 3288 -819 
Q 3331 -663 3275 -519 
Q 3219 -375 3113 -288 
Q 3381 -313 3759 -303 
Q 4138 -294 4231 -238 
Q 4338 -163 4350 88 
L 4381 394 
L 1025 394 
L 1244 1819 
L 813 1819 
Q 463 1819 113 1800 
Q 138 1988 113 2181 
Q 463 2163 813 2163 
L 1294 2163 
L 1488 3431 
L 1488 3581 
L 1506 3581 
L 1513 3613 
L 1713 3581 
L 5156 3581 
L 5013 2163 
L 5438 2163 
Q 5788 2163 6138 2181 
z
M 5588 4463 
Q 5569 4269 5588 4081 
Q 5244 4100 4894 4100 
L 1813 4100 
Q 1344 3463 606 2788 
Q 481 2988 256 3069 
Q 744 3494 1116 3972 
Q 1488 4450 1919 5181 
Q 2119 5044 2344 4950 
Q 2213 4688 2050 4444 
L 4894 4444 
Q 5238 4444 5588 4463 
z
M 2844 3238 
L 1906 3238 
L 1744 2163 
L 3244 2163 
L 2581 3038 
L 2844 3238 
z
M 3250 2163 
L 4563 2163 
L 4669 3238 
L 3044 3238 
L 3638 2456 
L 3250 2163 
z
M 2944 1819 
Q 3275 1394 3550 938 
L 3213 738 
L 4419 738 
L 4525 1819 
L 2944 1819 
z
M 2656 1819 
L 1694 1819 
L 1525 738 
L 3094 738 
Q 2806 1219 2450 1650 
L 2656 1819 
z
" transform="scale(0.015625)"/>
      <path id="WenQuanYiZenHei-65e5" d="M 1494 -775 
Q 1244 -750 988 -775 
Q 1013 -313 1013 156 
L 1013 4875 
L 5269 4875 
L 5269 -763 
L 4813 -763 
L 4813 156 
L 1469 156 
Q 1469 -313 1494 -775 
z
M 4813 2700 
L 4813 4500 
L 1469 4500 
L 1469 2700 
L 4813 2700 
z
M 4813 531 
L 4813 2325 
L 1469 2325 
L 1469 531 
L 4813 531 
z
" transform="scale(0.015625)"/>
      <path id="WenQuanYiZenHei-65b0" d="M 5419 -763 
Q 5188 -738 4963 -763 
Q 4981 -344 4981 75 
L 4981 2819 
L 4188 2819 
L 4188 1706 
Q 4188 63 3163 -738 
Q 3019 -519 2769 -469 
Q 3769 131 3769 1706 
L 3769 4769 
L 3875 4769 
L 3844 4831 
L 4294 4781 
Q 4438 4769 4894 4816 
Q 5350 4863 5512 4931 
Q 5675 5000 5763 5094 
Q 5850 4881 5981 4694 
Q 5713 4544 5263 4519 
L 4188 4438 
L 4188 3100 
L 5563 3100 
Q 5850 3100 6131 3113 
Q 6119 2956 6131 2806 
L 5394 2819 
L 5394 75 
Q 5394 -344 5419 -763 
z
M 2981 213 
Q 2656 744 2256 1225 
L 2606 1513 
Q 3025 1006 3369 450 
L 2981 213 
z
M 1169 1525 
Q 1375 1419 1594 1363 
Q 1281 488 469 -469 
Q 331 -300 119 -244 
Q 575 263 888 900 
Q 1038 1206 1169 1525 
z
M 1825 6 
L 1825 1769 
L 1081 1769 
Q 794 1769 513 1756 
Q 525 1913 513 2063 
Q 794 2050 1081 2050 
L 1825 2050 
L 1825 2775 
L 994 2775 
Q 706 2775 425 2763 
Q 438 2919 425 3075 
Q 706 3056 994 3056 
L 1825 3056 
L 1825 3088 
L 1906 3088 
Q 2288 3656 2588 4381 
Q 2794 4269 3013 4206 
Q 2800 3675 2381 3056 
L 3013 3056 
Q 3294 3056 3581 3075 
Q 3563 2919 3581 2763 
Q 3294 2775 3013 2775 
L 2238 2775 
L 2238 2050 
L 2925 2050 
Q 3206 2050 3494 2063 
Q 3475 1913 3494 1756 
Q 3206 1769 2925 1769 
L 2238 1769 
L 2238 -156 
Q 2238 -413 2075 -581 
Q 1844 -794 1306 -794 
Q 1363 -519 1188 -288 
Q 1338 -313 1534 -316 
Q 1731 -319 1778 -278 
Q 1825 -238 1825 6 
z
M 1875 3388 
L 1500 3131 
L 825 4088 
L 1200 4350 
L 1875 3388 
z
M 3419 4713 
Q 3400 4563 3419 4406 
Q 3131 4419 2850 4419 
L 1125 4419 
Q 838 4419 556 4406 
Q 569 4563 556 4713 
Q 838 4700 1125 4700 
L 1763 4700 
L 1388 5088 
L 1719 5406 
L 2288 4813 
L 2175 4700 
L 2850 4700 
Q 3131 4700 3419 4713 
z
" transform="scale(0.015625)"/>
      <path id="WenQuanYiZenHei-589e" d="M 3138 -769 
Q 2913 -744 2688 -769 
Q 2706 -356 2706 56 
L 2706 1719 
L 5706 1719 
L 5706 -756 
L 5300 -756 
L 5300 -338 
L 3119 -338 
Q 3125 -550 3138 -769 
z
M 5113 3569 
Q 5344 3606 5563 3688 
Q 5669 3175 5256 2694 
Q 5113 2519 4975 2506 
Q 4831 2725 4588 2813 
Q 4806 2831 4997 3068 
Q 5188 3306 5113 3569 
z
M 3850 2763 
L 3469 2538 
L 2925 3456 
L 3313 3681 
L 3850 2763 
z
M 2400 2100 
Q 2469 3138 2400 4175 
L 3413 4175 
Q 3138 4550 2825 4888 
L 3156 5194 
Q 3581 4725 3938 4206 
L 3900 4175 
L 4456 4175 
Q 4863 4575 5131 5163 
Q 5325 5044 5538 4975 
Q 5369 4575 5013 4175 
L 6056 4175 
Q 5981 3138 6056 2100 
L 2400 2100 
z
M 5300 806 
L 5300 1450 
L 3113 1450 
Q 3113 1125 3113 806 
L 5300 806 
z
M 5300 563 
L 3113 563 
L 3113 -94 
L 5300 -94 
L 5300 563 
z
M 4431 3913 
L 4431 2363 
L 5650 2363 
L 5650 3913 
L 4756 3913 
L 4700 3856 
Q 4681 3888 4656 3913 
L 4431 3913 
z
M 4025 3913 
L 2806 3913 
L 2806 2363 
L 4025 2363 
L 4025 3913 
z
M -31 625 
Q 506 763 1006 975 
L 1006 3206 
L 669 3206 
Q 369 3206 75 3188 
Q 94 3356 75 3531 
Q 369 3513 669 3513 
L 1006 3513 
L 1006 4263 
Q 1006 4700 981 5131 
Q 1206 5106 1431 5131 
Q 1413 4700 1413 4263 
L 1413 3513 
L 2238 3531 
Q 2219 3356 2238 3188 
L 1413 3206 
L 1413 1163 
L 2150 1531 
L 2194 1256 
Q 1269 775 813 519 
L 194 144 
Q 138 438 -31 625 
z
" transform="scale(0.015625)"/>
      <path id="WenQuanYiZenHei-9884" d="M 1206 19 
L 1206 2888 
L 669 2888 
Q 356 2888 50 2869 
Q 63 3044 50 3213 
Q 363 3194 669 3194 
L 1250 3194 
Q 950 3631 606 4031 
L 963 4338 
L 1263 3975 
L 1913 4719 
L 731 4719 
Q 419 4719 106 4706 
Q 125 4875 106 5044 
Q 419 5031 731 5031 
L 2481 5031 
L 2544 4663 
Q 2394 4613 2256 4466 
Q 2119 4319 1525 3631 
Q 1656 3444 1788 3250 
L 1700 3194 
L 2700 3194 
L 2763 2825 
Q 2656 2819 2613 2763 
L 2100 2038 
L 1750 2288 
L 2175 2888 
L 1638 2888 
L 1638 -150 
Q 1638 -525 1363 -669 
Q 1075 -819 525 -813 
Q 594 -513 388 -294 
Q 575 -313 837 -316 
Q 1100 -319 1153 -272 
Q 1206 -225 1206 19 
z
M 5813 -888 
Q 5100 -225 4306 375 
L 4669 719 
Q 5481 106 6219 -575 
L 5813 -888 
z
M 2375 -906 
Q 2294 -631 2025 -506 
Q 2769 -431 3353 19 
Q 3938 469 3938 1069 
L 3938 2200 
Q 3938 2625 3913 3050 
Q 4188 3025 4456 3050 
Q 4431 2625 4431 2200 
L 4431 1069 
Q 4431 681 4225 319 
Q 3644 -606 2375 -906 
z
M 3444 488 
Q 3169 513 2894 488 
Q 2919 913 2919 1338 
L 2919 3675 
Q 3219 3675 3525 3675 
Q 3750 4013 3931 4525 
L 3238 4525 
Q 2888 4525 2538 4513 
Q 2556 4669 2538 4831 
Q 2888 4813 3238 4813 
L 5313 4813 
Q 5663 4813 6006 4831 
Q 5988 4669 6006 4513 
Q 5663 4525 5313 4525 
L 4481 4525 
Q 4388 4088 4088 3675 
L 5644 3675 
L 5644 513 
L 5144 513 
L 5144 3388 
L 3894 3388 
L 3875 3363 
Q 3863 3375 3844 3388 
Q 3631 3388 3413 3388 
L 3419 1338 
Q 3419 913 3444 488 
z
" transform="scale(0.015625)"/>
      <path id="WenQuanYiZenHei-6d4b" d="M 5450 138 
L 5450 4306 
Q 5450 4750 5425 5188 
Q 5663 5163 5906 5188 
Q 5881 4750 5881 4306 
L 5881 -38 
Q 5888 -569 5519 -719 
Q 5194 -831 4825 -813 
Q 4894 -519 4694 -281 
Q 4869 -306 5094 -309 
Q 5319 -313 5384 -256 
Q 5450 -200 5450 138 
z
M 4900 938 
Q 4663 963 4419 938 
Q 4444 1375 4444 1819 
L 4444 3381 
Q 4444 3819 4419 4263 
Q 4663 4238 4900 4263 
Q 4875 3819 4875 3381 
L 4875 1819 
Q 4875 1375 4900 938 
z
M 2750 2025 
L 2750 3038 
Q 2750 3481 2725 3919 
Q 2963 3894 3206 3919 
Q 3181 3481 3181 3038 
L 3181 2025 
Q 3181 1263 2919 625 
L 3231 956 
Q 3781 431 4256 -150 
L 3888 -456 
Q 3431 106 2906 600 
Q 2531 -288 1738 -769 
Q 1606 -519 1338 -450 
Q 1988 -156 2369 478 
Q 2750 1113 2750 2025 
z
M 2363 969 
Q 2119 994 1881 969 
Q 1906 1406 1906 1850 
L 1906 5038 
L 3956 5031 
L 3956 1200 
L 3525 1200 
L 3525 4713 
L 2338 4713 
L 2338 1850 
Q 2338 1406 2363 969 
z
M 663 -738 
Q 481 -588 206 -575 
Q 400 -69 606 581 
Q 813 1231 1200 2838 
L 1381 2706 
L 875 338 
L 663 -738 
z
M 1006 2856 
L 731 2550 
L 75 3400 
L 350 3713 
L 1006 2856 
z
M 1088 3913 
Q 781 4388 425 4800 
L 694 5125 
Q 1069 4688 1388 4188 
L 1088 3913 
z
" transform="scale(0.015625)"/>
      <path id="WenQuanYiZenHei-20" transform="scale(0.015625)"/>
      <path id="WenQuanYiZenHei-6d59" d="M 5488 -769 
Q 5256 -744 5019 -769 
Q 5038 -331 5038 100 
L 5038 3000 
L 4338 3000 
L 4338 2269 
Q 4338 1438 4172 744 
Q 4006 50 3556 -556 
Q 3356 -375 3088 -400 
Q 3563 119 3734 759 
Q 3906 1400 3906 2269 
L 3906 4619 
L 4031 4619 
L 4025 4625 
Q 4488 4656 4863 4803 
Q 5238 4950 5675 5225 
Q 5788 5019 5938 4838 
Q 5294 4369 4338 4231 
L 4338 3306 
L 5538 3306 
Q 5850 3306 6163 3325 
Q 6144 3156 6163 2988 
L 5469 3000 
L 5469 100 
Q 5469 -331 5488 -769 
z
M 2538 169 
L 2538 1844 
Q 2169 1631 1806 1394 
Q 1750 1669 1563 1875 
Q 2031 1975 2538 2194 
L 2538 3544 
L 1681 3531 
Q 1700 3700 1681 3869 
L 2538 3856 
L 2538 4388 
Q 2538 4825 2513 5256 
Q 2750 5231 2988 5256 
Q 2963 4825 2963 4388 
L 2963 3856 
L 3594 3869 
Q 3575 3700 3594 3531 
L 2963 3544 
L 2963 2388 
L 3469 2650 
L 3525 2381 
L 2963 2081 
L 2963 -38 
Q 2975 -638 2475 -756 
Q 2256 -813 1938 -806 
Q 2000 -513 1806 -288 
Q 1981 -306 2197 -309 
Q 2413 -313 2475 -253 
Q 2538 -194 2538 169 
z
M 775 -738 
Q 563 -588 244 -575 
Q 469 -69 709 581 
Q 950 1231 1406 2838 
L 1619 2706 
L 1025 338 
L 775 -738 
z
M 1181 2856 
L 856 2550 
L 88 3400 
L 413 3713 
L 1181 2856 
z
M 1275 3913 
Q 919 4388 500 4800 
L 806 5125 
Q 1250 4688 1625 4188 
L 1275 3913 
z
" transform="scale(0.015625)"/>
      <path id="WenQuanYiZenHei-6c5f" d="M 6175 156 
Q 6150 -38 6175 -238 
Q 5806 -219 5444 -219 
L 2650 -219 
Q 2288 -219 1925 -238 
Q 1944 -38 1925 156 
Q 2288 144 2650 144 
L 3738 144 
L 3738 4275 
L 3013 4275 
Q 2650 4275 2281 4256 
Q 2306 4456 2281 4650 
Q 2650 4631 3013 4631 
L 5206 4631 
Q 5569 4631 5931 4650 
Q 5913 4456 5931 4256 
Q 5569 4275 5206 4275 
L 4194 4275 
L 4194 144 
L 5444 144 
Q 5806 144 6175 156 
z
M 919 -738 
Q 669 -588 288 -575 
Q 556 -69 840 581 
Q 1125 1231 1669 2838 
L 1919 2706 
L 1219 338 
L 919 -738 
z
M 1400 2856 
L 1013 2550 
L 100 3400 
L 494 3713 
L 1400 2856 
z
M 1513 3913 
Q 1088 4388 594 4800 
L 963 5125 
Q 1481 4688 1931 4188 
L 1513 3913 
z
" transform="scale(0.015625)"/>
     </defs>
     <use xlink:href="#WenQuanYiZenHei-6bcf"/>
     <use xlink:href="#WenQuanYiZenHei-65e5" x="100"/>
     <use xlink:href="#WenQuanYiZenHei-65b0" x="200"/>
     <use xlink:href="#WenQuanYiZenHei-589e" x="300"/>
     <use xlink:href="#WenQuanYiZenHei-9884" x="400"/>
     <use xlink:href="#WenQuanYiZenHei-6d4b" x="500"/>
     <use xlink:href="#WenQuanYiZenHei-20" x="600"/>
     <use xlink:href="#WenQuanYiZenHei-2d" x="629.980469"/>
     <use xlink:href="#WenQuanYiZenHei-20" x="659.960938"/>
     <use xlink:href="#WenQuanYiZenHei-6d59" x="689.941406"/>
     <use xlink:href="#WenQuanYiZenHei-6c5f" x="789.941406"/>
    </g>
    <!-- ARIMA (4, 0, 0)x(1, 0, 1, 7) (R2 = 0.834820) -->
    <g transform="translate(583.182813 29.061)scale(0.12 -0.12)">
     <defs>
      <path id="WenQuanYiZenHei-41" d="M 3550 0 
L 2988 0 
L 2550 1281 
L 919 1281 
L 531 0 
L 69 0 
L 1494 4388 
L 2125 4388 
L 3550 0 
z
M 2425 1694 
L 1756 3800 
L 1075 1694 
L 2425 1694 
z
" transform="scale(0.015625)"/>
      <path id="WenQuanYiZenHei-52" d="M 3675 0 
L 3100 0 
L 2288 1900 
L 1069 1900 
L 1069 0 
L 519 0 
L 519 4388 
L 2163 4388 
Q 3006 4388 3400 3900 
Q 3581 3663 3625 3325 
Q 3631 3250 3631 3163 
Q 3631 2594 3219 2244 
Q 3038 2100 2813 2038 
L 3675 0 
z
M 3081 3169 
Q 3081 3825 2356 3906 
Q 2263 3919 2163 3919 
L 1069 3919 
L 1069 2350 
L 2100 2350 
Q 2906 2350 3044 2919 
Q 3081 3031 3081 3169 
z
" transform="scale(0.015625)"/>
      <path id="WenQuanYiZenHei-49" d="M 1100 0 
L 550 0 
L 550 4388 
L 1100 4388 
L 1100 0 
z
" transform="scale(0.015625)"/>
      <path id="WenQuanYiZenHei-4d" d="M 4756 0 
L 4206 0 
L 4206 3831 
L 4181 3831 
L 2788 0 
L 2419 0 
L 1000 3831 
L 975 3831 
L 975 0 
L 513 0 
L 513 4388 
L 1331 4388 
L 2656 875 
L 3950 4388 
L 4756 4388 
L 4756 0 
z
" transform="scale(0.015625)"/>
      <path id="WenQuanYiZenHei-28" d="M 1606 -1094 
L 1275 -1094 
Q 475 -100 338 1231 
Q 319 1438 319 1656 
Q 319 3031 1156 4244 
Q 1213 4313 1269 4388 
L 1600 4388 
Q 806 3169 794 1681 
Q 794 188 1606 -1094 
z
" transform="scale(0.015625)"/>
      <path id="WenQuanYiZenHei-2c" d="M 1363 75 
L 881 -825 
L 606 -825 
L 994 0 
L 656 0 
L 656 738 
L 1363 738 
L 1363 75 
z
" transform="scale(0.015625)"/>
      <path id="WenQuanYiZenHei-29" d="M 1600 1656 
Q 1600 306 869 -788 
Q 769 -950 644 -1094 
L 313 -1094 
Q 1125 188 1125 1681 
Q 1125 3169 338 4363 
Q 325 4375 319 4388 
L 650 4388 
Q 1525 3231 1594 1863 
Q 1600 1763 1600 1656 
z
" transform="scale(0.015625)"/>
      <path id="WenQuanYiZenHei-78" d="M 2806 0 
L 2213 0 
L 1394 1319 
L 544 0 
L 50 0 
L 1144 1681 
L 163 3250 
L 744 3250 
L 1431 2138 
L 2144 3250 
L 2631 3250 
L 1681 1794 
L 2806 0 
z
" transform="scale(0.015625)"/>
      <path id="WenQuanYiZenHei-3d" d="M 3569 2256 
L 263 2256 
L 263 2675 
L 3569 2675 
L 3569 2256 
z
M 3569 1019 
L 263 1019 
L 263 1431 
L 3569 1431 
L 3569 1019 
z
" transform="scale(0.015625)"/>
      <path id="WenQuanYiZenHei-2e" d="M 1344 0 
L 631 0 
L 631 725 
L 1344 725 
L 1344 0 
z
" transform="scale(0.015625)"/>
      <path id="WenQuanYiZenHei-33" d="M 3588 1231 
Q 3588 494 2875 144 
Q 2450 -63 1925 -63 
Q 1044 -63 556 488 
Q 356 706 256 1000 
L 769 1169 
Q 994 375 1913 375 
Q 2631 375 2900 788 
Q 3019 975 3019 1231 
Q 3019 1638 2638 1881 
Q 2325 2081 1613 2069 
L 1338 2069 
L 1338 2494 
Q 1969 2494 2094 2506 
Q 2325 2544 2463 2613 
Q 2763 2756 2844 3100 
Q 2863 3169 2863 3244 
Q 2863 3744 2381 3944 
L 2163 4006 
Q 2056 4025 1931 4025 
Q 1388 4025 1075 3631 
Q 969 3488 906 3313 
L 419 3456 
Q 675 4150 1400 4369 
Q 1669 4456 1975 4456 
Q 2694 4456 3106 4050 
Q 3419 3744 3419 3275 
Q 3419 2813 3025 2513 
Q 2825 2356 2575 2319 
L 2575 2306 
Q 3181 2213 3450 1769 
Q 3588 1525 3588 1231 
z
" transform="scale(0.015625)"/>
     </defs>
     <use xlink:href="#WenQuanYiZenHei-41"/>
     <use xlink:href="#WenQuanYiZenHei-52" x="55.957031"/>
     <use xlink:href="#WenQuanYiZenHei-49" x="117.871094"/>
     <use xlink:href="#WenQuanYiZenHei-4d" x="143.847656"/>
     <use xlink:href="#WenQuanYiZenHei-41" x="225.78125"/>
     <use xlink:href="#WenQuanYiZenHei-20" x="281.738281"/>
     <use xlink:href="#WenQuanYiZenHei-28" x="311.71875"/>
     <use xlink:href="#WenQuanYiZenHei-34" x="341.699219"/>
     <use xlink:href="#WenQuanYiZenHei-2c" x="401.660156"/>
     <use xlink:href="#WenQuanYiZenHei-20" x="431.640625"/>
     <use xlink:href="#WenQuanYiZenHei-30" x="461.621094"/>
     <use xlink:href="#WenQuanYiZenHei-2c" x="521.582031"/>
     <use xlink:href="#WenQuanYiZenHei-20" x="551.5625"/>
     <use xlink:href="#WenQuanYiZenHei-30" x="581.542969"/>
     <use xlink:href="#WenQuanYiZenHei-29" x="641.503906"/>
     <use xlink:href="#WenQuanYiZenHei-78" x="671.484375"/>
     <use xlink:href="#WenQuanYiZenHei-28" x="715.429688"/>
     <use xlink:href="#WenQuanYiZenHei-31" x="745.410156"/>
     <use xlink:href="#WenQuanYiZenHei-2c" x="805.371094"/>
     <use xlink:href="#WenQuanYiZenHei-20" x="835.351562"/>
     <use xlink:href="#WenQuanYiZenHei-30" x="865.332031"/>
     <use xlink:href="#WenQuanYiZenHei-2c" x="925.292969"/>
     <use xlink:href="#WenQuanYiZenHei-20" x="955.273438"/>
     <use xlink:href="#WenQuanYiZenHei-31" x="985.253906"/>
     <use xlink:href="#WenQuanYiZenHei-2c" x="1045.214844"/>
     <use xlink:href="#WenQuanYiZenHei-20" x="1075.195312"/>
     <use xlink:href="#WenQuanYiZenHei-37" x="1105.175781"/>
     <use xlink:href="#WenQuanYiZenHei-29" x="1165.136719"/>
     <use xlink:href="#WenQuanYiZenHei-20" x="1195.117188"/>
     <use xlink:href="#WenQuanYiZenHei-28" x="1225.097656"/>
     <use xlink:href="#WenQuanYiZenHei-52" x="1255.078125"/>
     <use xlink:href="#WenQuanYiZenHei-32" x="1316.992188"/>
     <use xlink:href="#WenQuanYiZenHei-20" x="1376.953125"/>
     <use xlink:href="#WenQuanYiZenHei-3d" x="1406.933594"/>
     <use xlink:href="#WenQuanYiZenHei-20" x="1466.894531"/>
     <use xlink:href="#WenQuanYiZenHei-30" x="1496.875"/>
     <use xlink:href="#WenQuanYiZenHei-2e" x="1556.835938"/>
     <use xlink:href="#WenQuanYiZenHei-38" x="1586.816406"/>
     <use xlink:href="#WenQuanYiZenHei-33" x="1646.777344"/>
     <use xlink:href="#WenQuanYiZenHei-34" x="1706.738281"/>
     <use xlink:href="#WenQuanYiZenHei-38" x="1766.699219"/>
     <use xlink:href="#WenQuanYiZenHei-32" x="1826.660156"/>
     <use xlink:href="#WenQuanYiZenHei-30" x="1886.621094"/>
     <use xlink:href="#WenQuanYiZenHei-29" x="1946.582031"/>
    </g>
   </g>
   <g id="legend_1">
    <g id="patch_7">
     <path d="M 1302.390625 87.056312 
L 1364.390625 87.056312 
Q 1366.390625 87.056312 1366.390625 85.056312 
L 1366.390625 42.061 
Q 1366.390625 40.061 1364.390625 40.061 
L 1302.390625 40.061 
Q 1300.390625 40.061 1300.390625 42.061 
L 1300.390625 85.056312 
Q 1300.390625 87.056312 1302.390625 87.056312 
z
" style="fill: #ffffff; opacity: 0.8; stroke: #cccccc; stroke-linejoin: miter"/>
    </g>
    <g id="line2d_22">
     <path d="M 1304.390625 48.695375 
L 1314.390625 48.695375 
L 1324.390625 48.695375 
" style="fill: none; stroke: #0000ff; stroke-width: 1.5; stroke-linecap: square"/>
    </g>
    <g id="text_20">
     <!-- 实际值 -->
     <g transform="translate(1332.390625 52.195375)scale(0.1 -0.1)">
      <defs>
       <path id="WenQuanYiZenHei-5b9e" d="M 1025 1175 
Q 694 1175 356 1163 
Q 375 1344 356 1525 
Q 694 1506 1025 1506 
L 3363 1506 
L 3363 2625 
Q 3363 3075 3338 3519 
Q 3581 3494 3825 3519 
Q 3800 3075 3800 2625 
L 3800 1506 
L 5406 1506 
Q 5744 1506 6075 1525 
Q 6056 1344 6075 1163 
Q 5744 1175 5406 1175 
L 4038 1175 
L 4981 456 
L 6131 -488 
L 5819 -856 
L 4681 75 
L 3638 875 
Q 3313 231 2475 -231 
Q 1638 -694 700 -825 
Q 638 -519 344 -400 
Q 1450 -319 2406 244 
Q 3113 656 3300 1175 
L 1025 1175 
z
M 2263 1581 
Q 1763 2081 1200 2513 
L 1494 2894 
Q 2081 2444 2600 1919 
L 2263 1581 
z
M 2638 2500 
Q 2219 2963 1731 3363 
L 2044 3738 
Q 2556 3313 3000 2819 
L 2638 2500 
z
M 919 3156 
L 481 3156 
L 481 4344 
L 3069 4344 
Q 2794 4731 2469 5081 
L 2825 5413 
Q 3256 4944 3613 4413 
L 3513 4344 
L 5869 4344 
L 5869 3156 
L 5425 3156 
L 5425 4013 
L 919 4013 
L 919 3156 
z
" transform="scale(0.015625)"/>
       <path id="WenQuanYiZenHei-9645" d="M 6000 431 
L 5569 194 
L 4963 1219 
L 4313 2219 
L 4719 2494 
L 5375 1481 
L 6000 431 
z
M 2956 2450 
Q 3181 2344 3419 2294 
Q 3006 1038 1944 -188 
Q 1794 -6 1569 56 
Q 2069 600 2372 1156 
Q 2675 1713 2956 2450 
z
M 3750 25 
L 3750 2913 
L 2819 2913 
Q 2475 2913 2125 2894 
Q 2144 3081 2125 3269 
Q 2475 3256 2819 3256 
L 5469 3256 
Q 5819 3256 6163 3269 
Q 6144 3081 6163 2894 
Q 5813 2913 5469 2913 
L 4194 2913 
L 4194 -144 
Q 4194 -725 3456 -813 
L 3263 -825 
Q 3325 -506 3125 -250 
Q 3250 -281 3394 -306 
Q 3663 -313 3706 -272 
Q 3750 -231 3750 25 
z
M 5544 4950 
Q 5525 4756 5544 4569 
Q 5194 4588 4844 4588 
L 3325 4588 
Q 2975 4588 2625 4569 
Q 2644 4756 2625 4950 
Q 2975 4931 3325 4931 
L 4844 4931 
Q 5194 4931 5544 4950 
z
M 819 -850 
Q 581 -825 344 -850 
Q 369 -419 369 19 
L 363 4938 
L 2256 4938 
L 2256 4625 
Q 2150 4513 2075 4375 
L 1481 3238 
Q 2181 2319 2181 1156 
Q 2144 400 1569 163 
L 1406 88 
Q 1288 300 1138 481 
Q 1294 538 1450 606 
Q 1763 744 1794 1156 
Q 1794 1744 1600 2300 
Q 1406 2856 1038 3313 
L 1725 4625 
L 788 4625 
L 794 19 
Q 794 -419 819 -850 
z
" transform="scale(0.015625)"/>
       <path id="WenQuanYiZenHei-503c" d="M 6175 -219 
Q 6156 -388 6175 -556 
Q 5863 -544 5550 -544 
L 2313 -544 
Q 2000 -544 1688 -556 
Q 1706 -388 1688 -219 
L 2506 -231 
L 2506 3469 
L 3644 3469 
L 3644 4119 
L 2638 4119 
Q 2325 4119 2013 4100 
Q 2031 4269 2013 4438 
Q 2325 4425 2638 4425 
L 3638 4425 
Q 3638 4719 3619 5013 
Q 3856 4988 4094 5013 
Q 4075 4719 4075 4425 
L 5344 4425 
Q 5650 4425 5963 4438 
Q 5950 4269 5963 4100 
Q 5656 4119 5344 4119 
L 4069 4119 
L 4069 3469 
L 5300 3469 
L 5300 -231 
L 5550 -231 
Q 5863 -231 6175 -219 
z
M 4869 2556 
L 4869 3156 
L 2931 3156 
Q 2931 2850 2931 2556 
L 4869 2556 
z
M 4869 1669 
L 4869 2250 
L 2931 2250 
L 2931 1669 
L 4869 1669 
z
M 4869 731 
L 4869 1363 
L 2931 1363 
L 2931 731 
L 4869 731 
z
M 4869 -231 
L 4869 425 
L 2931 425 
L 2931 -231 
L 4869 -231 
z
M 2106 4925 
Q 1856 4075 1463 3338 
L 1463 31 
Q 1463 -413 1481 -850 
Q 1256 -825 1031 -850 
Q 1050 -413 1050 31 
L 1050 2681 
Q 750 2269 375 1931 
Q 238 2156 0 2256 
Q 331 2544 619 2875 
Q 1094 3425 1300 3950 
Q 1494 4469 1625 5050 
Q 1850 4963 2106 4925 
z
" transform="scale(0.015625)"/>
      </defs>
      <use xlink:href="#WenQuanYiZenHei-5b9e"/>
      <use xlink:href="#WenQuanYiZenHei-9645" x="100"/>
      <use xlink:href="#WenQuanYiZenHei-503c" x="200"/>
     </g>
    </g>
    <g id="line2d_23">
     <path d="M 1304.390625 63.3735 
L 1314.390625 63.3735 
L 1324.390625 63.3735 
" style="fill: none; stroke: #ffa500; stroke-width: 1.5; stroke-linecap: square"/>
    </g>
    <g id="text_21">
     <!-- 校验值 -->
     <g transform="translate(1332.390625 66.8735)scale(0.1 -0.1)">
      <defs>
       <path id="WenQuanYiZenHei-6821" d="M 5256 2463 
Q 5025 1475 4494 706 
Q 5125 -94 6175 -544 
Q 5950 -663 5850 -900 
Q 4906 -494 4250 381 
Q 3931 0 3475 -350 
Q 3019 -700 2388 -919 
Q 2338 -656 2138 -475 
Q 3306 -69 4006 738 
Q 3563 1444 3300 2331 
Q 3050 2050 2706 1800 
Q 2606 2000 2406 2106 
Q 2900 2444 3181 2938 
Q 3350 3225 3488 3538 
Q 3700 3431 3925 3369 
Q 3763 2894 3425 2475 
L 3650 2531 
Q 3888 1675 4244 1075 
Q 4469 1444 4603 1937 
Q 4738 2431 4775 2688 
Q 4963 2644 5150 2625 
Q 4919 2969 4663 3294 
L 5038 3588 
Q 5544 2925 5975 2213 
L 5569 1969 
L 5256 2463 
z
M 6006 4050 
Q 5988 3881 6006 3713 
Q 5694 3725 5381 3725 
L 3413 3725 
Q 3100 3725 2788 3713 
Q 2806 3881 2788 4050 
Q 3100 4031 3413 4031 
L 4325 4031 
Q 4019 4525 3644 4969 
L 4000 5275 
Q 4413 4788 4750 4244 
L 4406 4031 
L 5381 4031 
Q 5694 4031 6006 4050 
z
M 406 263 
Q 238 431 -25 469 
Q 194 825 466 1337 
Q 738 1850 925 2406 
Q 1113 2963 1256 3519 
L 825 3519 
Q 506 3519 188 3500 
Q 206 3700 188 3900 
Q 506 3881 825 3881 
L 1363 3881 
L 1363 4263 
Q 1363 4719 1338 5175 
Q 1556 5150 1775 5175 
Q 1756 4719 1756 4263 
L 1756 3881 
L 2525 3900 
Q 2506 3700 2525 3500 
L 1756 3519 
L 1756 2738 
L 1931 2881 
Q 2306 2300 2613 1650 
L 2231 1413 
Q 2081 1725 1919 2019 
L 1756 2300 
L 1756 69 
Q 1756 -388 1775 -850 
Q 1556 -825 1338 -850 
Q 1363 -388 1363 69 
L 1363 2438 
Q 925 1144 406 263 
z
" transform="scale(0.015625)"/>
       <path id="WenQuanYiZenHei-9a8c" d="M 5981 -106 
Q 5963 -275 5981 -444 
Q 5669 -431 5356 -431 
L 2969 -431 
Q 2656 -431 2350 -444 
Q 2363 -275 2350 -106 
Q 2656 -125 2969 -125 
L 4369 -125 
Q 4600 431 4881 1288 
L 5206 2300 
Q 5425 2206 5663 2163 
Q 5375 1188 4831 -125 
L 5356 -125 
Q 5669 -125 5981 -106 
z
M 4063 594 
Q 3788 1425 3425 2219 
L 3856 2419 
Q 4225 1600 4513 744 
L 4063 594 
z
M 3163 363 
Q 2931 1200 2613 2006 
L 3056 2175 
Q 3381 1350 3619 488 
L 3163 363 
z
M 4581 2550 
L 3513 2550 
Q 3200 2550 2888 2538 
Q 2900 2663 2894 2769 
Q 2569 2488 2206 2300 
Q 2113 2550 1894 2700 
Q 2488 2975 2975 3463 
Q 3269 3756 3394 4006 
Q 3644 4513 3794 5063 
Q 4038 4975 4294 4931 
Q 4250 4806 4206 4681 
Q 4475 3888 5025 3388 
Q 5519 2938 6169 2650 
Q 5938 2538 5838 2300 
Q 5513 2456 5200 2700 
Q 5200 2619 5206 2538 
Q 4894 2550 4581 2550 
z
M 3513 2863 
L 4994 2869 
Q 4344 3438 3988 4194 
Q 3594 3406 3013 2869 
Q 3263 2863 3513 2863 
z
M 206 444 
Q 188 756 44 963 
Q 319 956 650 1003 
Q 981 1050 1731 1281 
L 1738 1006 
Q 800 719 206 444 
z
M 525 4000 
Q 744 3950 994 3944 
Q 925 3519 875 3081 
L 763 2144 
L 1475 2144 
L 1831 4444 
L 663 4444 
Q 350 4444 38 4431 
Q 56 4600 38 4769 
Q 350 4756 663 4756 
L 2313 4756 
L 1913 2144 
L 2375 2144 
L 2200 -200 
Q 2188 -425 1988 -588 
Q 1694 -800 1181 -788 
L 944 -788 
Q 1000 -450 788 -269 
Q 1013 -294 1334 -287 
Q 1656 -281 1715 -243 
Q 1775 -206 1781 -50 
L 1925 1831 
L 294 1831 
L 444 3131 
Q 500 3569 525 4000 
z
" transform="scale(0.015625)"/>
      </defs>
      <use xlink:href="#WenQuanYiZenHei-6821"/>
      <use xlink:href="#WenQuanYiZenHei-9a8c" x="100"/>
      <use xlink:href="#WenQuanYiZenHei-503c" x="200"/>
     </g>
    </g>
    <g id="line2d_24">
     <path d="M 1304.390625 77.895375 
L 1314.390625 77.895375 
L 1324.390625 77.895375 
" style="fill: none; stroke: #ff0000; stroke-width: 1.5; stroke-linecap: square"/>
    </g>
    <g id="text_22">
     <!-- 预测值 -->
     <g transform="translate(1332.390625 81.395375)scale(0.1 -0.1)">
      <use xlink:href="#WenQuanYiZenHei-9884"/>
      <use xlink:href="#WenQuanYiZenHei-6d4b" x="100"/>
      <use xlink:href="#WenQuanYiZenHei-503c" x="200"/>
     </g>
    </g>
   </g>
  </g>
 </g>
 <defs>
  <clipPath id="p6a355213d1">
   <rect x="32.190625" y="35.061" width="1339.2" height="332.64"/>
  </clipPath>
 </defs>
</svg>
