<?xml version="1.0" encoding="utf-8" standalone="no"?>
<!DOCTYPE svg PUBLIC "-//W3C//DTD SVG 1.1//EN"
  "http://www.w3.org/Graphics/SVG/1.1/DTD/svg11.dtd">
<svg xmlns:xlink="http://www.w3.org/1999/xlink" width="1378.590625pt" height="390.418188pt" viewBox="0 0 1378.590625 390.418188" xmlns="http://www.w3.org/2000/svg" version="1.1">
 <metadata>
  <rdf:RDF xmlns:dc="http://purl.org/dc/elements/1.1/" xmlns:cc="http://creativecommons.org/ns#" xmlns:rdf="http://www.w3.org/1999/02/22-rdf-syntax-ns#">
   <cc:Work>
    <dc:type rdf:resource="http://purl.org/dc/dcmitype/StillImage"/>
    <dc:date>2022-07-23T18:20:03.239746</dc:date>
    <dc:format>image/svg+xml</dc:format>
    <dc:creator>
     <cc:Agent>
      <dc:title>Matplotlib v3.5.2, https://matplotlib.org/</dc:title>
     </cc:Agent>
    </dc:creator>
   </cc:Work>
  </rdf:RDF>
 </metadata>
 <defs>
  <style type="text/css">*{stroke-linejoin: round; stroke-linecap: butt}</style>
 </defs>
 <g id="figure_1">
  <g id="patch_1">
   <path d="M 0 390.418188 
L 1378.590625 390.418188 
L 1378.590625 -0 
L 0 -0 
z
" style="fill: #ffffff"/>
  </g>
  <g id="axes_1">
   <g id="patch_2">
    <path d="M 32.190625 367.701 
L 1371.390625 367.701 
L 1371.390625 35.061 
L 32.190625 35.061 
z
" style="fill: #ffffff"/>
   </g>
   <g id="matplotlib.axis_1">
    <g id="xtick_1">
     <g id="line2d_1">
      <defs>
       <path id="m6b7686eecd" d="M 0 0 
L 0 3.5 
" style="stroke: #000000; stroke-width: 0.8"/>
      </defs>
      <g>
       <use xlink:href="#m6b7686eecd" x="64.076339" y="367.701" style="stroke: #000000; stroke-width: 0.8"/>
      </g>
     </g>
     <g id="text_1">
      <!-- 2020-01 -->
      <g transform="translate(44.586496 381.55725)scale(0.1 -0.1)">
       <defs>
        <path id="WenQuanYiZenHei-32" d="M 3488 0 
L 369 0 
L 369 456 
L 2150 1850 
Q 2931 2463 2931 3144 
Q 2931 3619 2488 3863 
Q 2231 4013 1931 4013 
Q 1425 4013 1113 3619 
Q 894 3356 881 3013 
L 369 3169 
Q 531 3981 1213 4300 
Q 1544 4456 1950 4456 
Q 2631 4456 3088 4044 
L 3225 3888 
L 3350 3706 
Q 3481 3444 3481 3144 
Q 3481 2313 2519 1569 
L 1069 456 
L 3488 456 
L 3488 0 
z
" transform="scale(0.015625)"/>
        <path id="WenQuanYiZenHei-30" d="M 3581 2175 
Q 3581 1288 3169 638 
Q 2713 -63 1938 -63 
Q 1025 -63 563 831 
Q 256 1425 256 2188 
Q 256 3188 700 3819 
Q 1138 4456 1888 4456 
Q 2863 4456 3306 3500 
Q 3581 2925 3581 2175 
z
M 3019 2100 
Q 3019 3356 2500 3806 
L 2350 3919 
Q 2144 4031 1888 4031 
Q 1100 4031 888 2956 
Q 819 2625 819 2225 
Q 819 1013 1338 569 
Q 1588 356 1938 356 
Q 2675 356 2925 1294 
Q 3019 1663 3019 2100 
z
" transform="scale(0.015625)"/>
        <path id="WenQuanYiZenHei-2d" d="M 1363 1444 
L 0 1444 
L 0 1844 
L 1363 1844 
L 1363 1444 
z
" transform="scale(0.015625)"/>
        <path id="WenQuanYiZenHei-31" d="M 3556 0 
L 488 0 
L 488 406 
L 1800 406 
L 1800 3725 
Q 1231 3125 588 2788 
L 588 3338 
Q 1456 3781 1931 4388 
L 2331 4388 
L 2331 406 
L 3556 406 
L 3556 0 
z
" transform="scale(0.015625)"/>
       </defs>
       <use xlink:href="#WenQuanYiZenHei-32"/>
       <use xlink:href="#WenQuanYiZenHei-30" x="59.960938"/>
       <use xlink:href="#WenQuanYiZenHei-32" x="119.921875"/>
       <use xlink:href="#WenQuanYiZenHei-30" x="179.882812"/>
       <use xlink:href="#WenQuanYiZenHei-2d" x="239.84375"/>
       <use xlink:href="#WenQuanYiZenHei-30" x="269.824219"/>
       <use xlink:href="#WenQuanYiZenHei-31" x="329.785156"/>
      </g>
     </g>
    </g>
    <g id="xtick_2">
     <g id="line2d_2">
      <g>
       <use xlink:href="#m6b7686eecd" x="183.977166" y="367.701" style="stroke: #000000; stroke-width: 0.8"/>
      </g>
     </g>
     <g id="text_2">
      <!-- 2020-04 -->
      <g transform="translate(164.487322 381.55725)scale(0.1 -0.1)">
       <defs>
        <path id="WenQuanYiZenHei-34" d="M 3631 1025 
L 2913 1025 
L 2913 0 
L 2381 0 
L 2381 1025 
L 219 1025 
L 219 1388 
L 2225 4388 
L 2913 4388 
L 2913 1444 
L 3631 1444 
L 3631 1025 
z
M 2381 1444 
L 2381 3963 
L 788 1444 
L 2381 1444 
z
" transform="scale(0.015625)"/>
       </defs>
       <use xlink:href="#WenQuanYiZenHei-32"/>
       <use xlink:href="#WenQuanYiZenHei-30" x="59.960938"/>
       <use xlink:href="#WenQuanYiZenHei-32" x="119.921875"/>
       <use xlink:href="#WenQuanYiZenHei-30" x="179.882812"/>
       <use xlink:href="#WenQuanYiZenHei-2d" x="239.84375"/>
       <use xlink:href="#WenQuanYiZenHei-30" x="269.824219"/>
       <use xlink:href="#WenQuanYiZenHei-34" x="329.785156"/>
      </g>
     </g>
    </g>
    <g id="xtick_3">
     <g id="line2d_3">
      <g>
       <use xlink:href="#m6b7686eecd" x="303.877992" y="367.701" style="stroke: #000000; stroke-width: 0.8"/>
      </g>
     </g>
     <g id="text_3">
      <!-- 2020-07 -->
      <g transform="translate(284.388148 381.55725)scale(0.1 -0.1)">
       <defs>
        <path id="WenQuanYiZenHei-37" d="M 3400 4056 
Q 1838 2175 1838 0 
L 1275 0 
Q 1269 1438 2056 2825 
Q 2381 3400 2825 3913 
L 444 3913 
L 500 4388 
L 3400 4388 
L 3400 4056 
z
" transform="scale(0.015625)"/>
       </defs>
       <use xlink:href="#WenQuanYiZenHei-32"/>
       <use xlink:href="#WenQuanYiZenHei-30" x="59.960938"/>
       <use xlink:href="#WenQuanYiZenHei-32" x="119.921875"/>
       <use xlink:href="#WenQuanYiZenHei-30" x="179.882812"/>
       <use xlink:href="#WenQuanYiZenHei-2d" x="239.84375"/>
       <use xlink:href="#WenQuanYiZenHei-30" x="269.824219"/>
       <use xlink:href="#WenQuanYiZenHei-37" x="329.785156"/>
      </g>
     </g>
    </g>
    <g id="xtick_4">
     <g id="line2d_4">
      <g>
       <use xlink:href="#m6b7686eecd" x="425.09641" y="367.701" style="stroke: #000000; stroke-width: 0.8"/>
      </g>
     </g>
     <g id="text_4">
      <!-- 2020-10 -->
      <g transform="translate(405.606566 381.55725)scale(0.1 -0.1)">
       <use xlink:href="#WenQuanYiZenHei-32"/>
       <use xlink:href="#WenQuanYiZenHei-30" x="59.960938"/>
       <use xlink:href="#WenQuanYiZenHei-32" x="119.921875"/>
       <use xlink:href="#WenQuanYiZenHei-30" x="179.882812"/>
       <use xlink:href="#WenQuanYiZenHei-2d" x="239.84375"/>
       <use xlink:href="#WenQuanYiZenHei-31" x="269.824219"/>
       <use xlink:href="#WenQuanYiZenHei-30" x="329.785156"/>
      </g>
     </g>
    </g>
    <g id="xtick_5">
     <g id="line2d_5">
      <g>
       <use xlink:href="#m6b7686eecd" x="546.314828" y="367.701" style="stroke: #000000; stroke-width: 0.8"/>
      </g>
     </g>
     <g id="text_5">
      <!-- 2021-01 -->
      <g transform="translate(526.824984 381.55725)scale(0.1 -0.1)">
       <use xlink:href="#WenQuanYiZenHei-32"/>
       <use xlink:href="#WenQuanYiZenHei-30" x="59.960938"/>
       <use xlink:href="#WenQuanYiZenHei-32" x="119.921875"/>
       <use xlink:href="#WenQuanYiZenHei-31" x="179.882812"/>
       <use xlink:href="#WenQuanYiZenHei-2d" x="239.84375"/>
       <use xlink:href="#WenQuanYiZenHei-30" x="269.824219"/>
       <use xlink:href="#WenQuanYiZenHei-31" x="329.785156"/>
      </g>
     </g>
    </g>
    <g id="xtick_6">
     <g id="line2d_6">
      <g>
       <use xlink:href="#m6b7686eecd" x="664.898063" y="367.701" style="stroke: #000000; stroke-width: 0.8"/>
      </g>
     </g>
     <g id="text_6">
      <!-- 2021-04 -->
      <g transform="translate(645.408219 381.55725)scale(0.1 -0.1)">
       <use xlink:href="#WenQuanYiZenHei-32"/>
       <use xlink:href="#WenQuanYiZenHei-30" x="59.960938"/>
       <use xlink:href="#WenQuanYiZenHei-32" x="119.921875"/>
       <use xlink:href="#WenQuanYiZenHei-31" x="179.882812"/>
       <use xlink:href="#WenQuanYiZenHei-2d" x="239.84375"/>
       <use xlink:href="#WenQuanYiZenHei-30" x="269.824219"/>
       <use xlink:href="#WenQuanYiZenHei-34" x="329.785156"/>
      </g>
     </g>
    </g>
    <g id="xtick_7">
     <g id="line2d_7">
      <g>
       <use xlink:href="#m6b7686eecd" x="784.798889" y="367.701" style="stroke: #000000; stroke-width: 0.8"/>
      </g>
     </g>
     <g id="text_7">
      <!-- 2021-07 -->
      <g transform="translate(765.309046 381.55725)scale(0.1 -0.1)">
       <use xlink:href="#WenQuanYiZenHei-32"/>
       <use xlink:href="#WenQuanYiZenHei-30" x="59.960938"/>
       <use xlink:href="#WenQuanYiZenHei-32" x="119.921875"/>
       <use xlink:href="#WenQuanYiZenHei-31" x="179.882812"/>
       <use xlink:href="#WenQuanYiZenHei-2d" x="239.84375"/>
       <use xlink:href="#WenQuanYiZenHei-30" x="269.824219"/>
       <use xlink:href="#WenQuanYiZenHei-37" x="329.785156"/>
      </g>
     </g>
    </g>
    <g id="xtick_8">
     <g id="line2d_8">
      <g>
       <use xlink:href="#m6b7686eecd" x="906.017307" y="367.701" style="stroke: #000000; stroke-width: 0.8"/>
      </g>
     </g>
     <g id="text_8">
      <!-- 2021-10 -->
      <g transform="translate(886.527464 381.55725)scale(0.1 -0.1)">
       <use xlink:href="#WenQuanYiZenHei-32"/>
       <use xlink:href="#WenQuanYiZenHei-30" x="59.960938"/>
       <use xlink:href="#WenQuanYiZenHei-32" x="119.921875"/>
       <use xlink:href="#WenQuanYiZenHei-31" x="179.882812"/>
       <use xlink:href="#WenQuanYiZenHei-2d" x="239.84375"/>
       <use xlink:href="#WenQuanYiZenHei-31" x="269.824219"/>
       <use xlink:href="#WenQuanYiZenHei-30" x="329.785156"/>
      </g>
     </g>
    </g>
    <g id="xtick_9">
     <g id="line2d_9">
      <g>
       <use xlink:href="#m6b7686eecd" x="1027.235725" y="367.701" style="stroke: #000000; stroke-width: 0.8"/>
      </g>
     </g>
     <g id="text_9">
      <!-- 2022-01 -->
      <g transform="translate(1007.745882 381.55725)scale(0.1 -0.1)">
       <use xlink:href="#WenQuanYiZenHei-32"/>
       <use xlink:href="#WenQuanYiZenHei-30" x="59.960938"/>
       <use xlink:href="#WenQuanYiZenHei-32" x="119.921875"/>
       <use xlink:href="#WenQuanYiZenHei-32" x="179.882812"/>
       <use xlink:href="#WenQuanYiZenHei-2d" x="239.84375"/>
       <use xlink:href="#WenQuanYiZenHei-30" x="269.824219"/>
       <use xlink:href="#WenQuanYiZenHei-31" x="329.785156"/>
      </g>
     </g>
    </g>
    <g id="xtick_10">
     <g id="line2d_10">
      <g>
       <use xlink:href="#m6b7686eecd" x="1145.81896" y="367.701" style="stroke: #000000; stroke-width: 0.8"/>
      </g>
     </g>
     <g id="text_10">
      <!-- 2022-04 -->
      <g transform="translate(1126.329117 381.55725)scale(0.1 -0.1)">
       <use xlink:href="#WenQuanYiZenHei-32"/>
       <use xlink:href="#WenQuanYiZenHei-30" x="59.960938"/>
       <use xlink:href="#WenQuanYiZenHei-32" x="119.921875"/>
       <use xlink:href="#WenQuanYiZenHei-32" x="179.882812"/>
       <use xlink:href="#WenQuanYiZenHei-2d" x="239.84375"/>
       <use xlink:href="#WenQuanYiZenHei-30" x="269.824219"/>
       <use xlink:href="#WenQuanYiZenHei-34" x="329.785156"/>
      </g>
     </g>
    </g>
    <g id="xtick_11">
     <g id="line2d_11">
      <g>
       <use xlink:href="#m6b7686eecd" x="1265.719787" y="367.701" style="stroke: #000000; stroke-width: 0.8"/>
      </g>
     </g>
     <g id="text_11">
      <!-- 2022-07 -->
      <g transform="translate(1246.229943 381.55725)scale(0.1 -0.1)">
       <use xlink:href="#WenQuanYiZenHei-32"/>
       <use xlink:href="#WenQuanYiZenHei-30" x="59.960938"/>
       <use xlink:href="#WenQuanYiZenHei-32" x="119.921875"/>
       <use xlink:href="#WenQuanYiZenHei-32" x="179.882812"/>
       <use xlink:href="#WenQuanYiZenHei-2d" x="239.84375"/>
       <use xlink:href="#WenQuanYiZenHei-30" x="269.824219"/>
       <use xlink:href="#WenQuanYiZenHei-37" x="329.785156"/>
      </g>
     </g>
    </g>
   </g>
   <g id="matplotlib.axis_2">
    <g id="ytick_1">
     <g id="line2d_12">
      <defs>
       <path id="m106bbd5f7f" d="M 0 0 
L -3.5 0 
" style="stroke: #000000; stroke-width: 0.8"/>
      </defs>
      <g>
       <use xlink:href="#m106bbd5f7f" x="32.190625" y="351.360736" style="stroke: #000000; stroke-width: 0.8"/>
      </g>
     </g>
     <g id="text_12">
      <!-- 0 -->
      <g transform="translate(19.19375 354.788861)scale(0.1 -0.1)">
       <use xlink:href="#WenQuanYiZenHei-30"/>
      </g>
     </g>
    </g>
    <g id="ytick_2">
     <g id="line2d_13">
      <g>
       <use xlink:href="#m106bbd5f7f" x="32.190625" y="305.727443" style="stroke: #000000; stroke-width: 0.8"/>
      </g>
     </g>
     <g id="text_13">
      <!-- 20 -->
      <g transform="translate(13.196875 309.155568)scale(0.1 -0.1)">
       <use xlink:href="#WenQuanYiZenHei-32"/>
       <use xlink:href="#WenQuanYiZenHei-30" x="59.960938"/>
      </g>
     </g>
    </g>
    <g id="ytick_3">
     <g id="line2d_14">
      <g>
       <use xlink:href="#m106bbd5f7f" x="32.190625" y="260.094149" style="stroke: #000000; stroke-width: 0.8"/>
      </g>
     </g>
     <g id="text_14">
      <!-- 40 -->
      <g transform="translate(13.196875 263.522274)scale(0.1 -0.1)">
       <use xlink:href="#WenQuanYiZenHei-34"/>
       <use xlink:href="#WenQuanYiZenHei-30" x="59.960938"/>
      </g>
     </g>
    </g>
    <g id="ytick_4">
     <g id="line2d_15">
      <g>
       <use xlink:href="#m106bbd5f7f" x="32.190625" y="214.460856" style="stroke: #000000; stroke-width: 0.8"/>
      </g>
     </g>
     <g id="text_15">
      <!-- 60 -->
      <g transform="translate(13.196875 217.888981)scale(0.1 -0.1)">
       <defs>
        <path id="WenQuanYiZenHei-36" d="M 3550 1431 
Q 3550 725 3006 288 
Q 2581 -63 1994 -63 
Q 1013 -63 563 825 
Q 288 1363 288 2081 
Q 288 3294 856 3938 
Q 1319 4456 2075 4456 
Q 2969 4456 3363 3756 
Q 3431 3631 3481 3481 
L 2988 3350 
Q 2750 3994 2075 4006 
Q 1056 4006 844 2669 
Q 794 2356 794 1981 
L 806 1981 
Q 1006 2506 1544 2744 
Q 1819 2869 2119 2869 
Q 2788 2869 3213 2375 
Q 3550 1975 3550 1431 
z
M 3038 1406 
Q 3038 1906 2656 2213 
Q 2381 2431 2038 2431 
Q 1525 2431 1181 2044 
Q 919 1744 919 1356 
Q 919 881 1344 581 
Q 1631 375 1981 375 
Q 2519 375 2838 781 
Q 3038 1050 3038 1406 
z
" transform="scale(0.015625)"/>
       </defs>
       <use xlink:href="#WenQuanYiZenHei-36"/>
       <use xlink:href="#WenQuanYiZenHei-30" x="59.960938"/>
      </g>
     </g>
    </g>
    <g id="ytick_5">
     <g id="line2d_16">
      <g>
       <use xlink:href="#m106bbd5f7f" x="32.190625" y="168.827563" style="stroke: #000000; stroke-width: 0.8"/>
      </g>
     </g>
     <g id="text_16">
      <!-- 80 -->
      <g transform="translate(13.196875 172.255688)scale(0.1 -0.1)">
       <defs>
        <path id="WenQuanYiZenHei-38" d="M 3619 1175 
Q 3619 431 2850 100 
Q 2444 -63 1944 -63 
Q 1231 -63 725 269 
Q 225 594 225 1125 
Q 225 1881 1269 2281 
Q 719 2481 519 2938 
Q 444 3119 444 3319 
Q 444 4000 1144 4294 
Q 1519 4456 1963 4456 
Q 2669 4456 3094 4094 
Q 3425 3813 3425 3369 
Q 3425 2638 2575 2356 
Q 3231 2056 3450 1725 
Q 3619 1488 3619 1175 
z
M 2944 3344 
Q 2944 3906 2288 4019 
Q 2138 4044 1969 4044 
Q 1438 4044 1163 3775 
Q 1000 3613 1000 3375 
Q 1000 2925 1594 2663 
Q 1756 2588 1931 2550 
Q 2581 2725 2788 2956 
Q 2944 3125 2944 3344 
z
M 3075 1094 
Q 3075 1738 1875 2050 
Q 1094 1881 850 1463 
Q 763 1313 763 1131 
Q 763 569 1456 406 
Q 1681 344 1944 344 
Q 2519 344 2850 619 
Q 3075 813 3075 1094 
z
" transform="scale(0.015625)"/>
       </defs>
       <use xlink:href="#WenQuanYiZenHei-38"/>
       <use xlink:href="#WenQuanYiZenHei-30" x="59.960938"/>
      </g>
     </g>
    </g>
    <g id="ytick_6">
     <g id="line2d_17">
      <g>
       <use xlink:href="#m106bbd5f7f" x="32.190625" y="123.194269" style="stroke: #000000; stroke-width: 0.8"/>
      </g>
     </g>
     <g id="text_17">
      <!-- 100 -->
      <g transform="translate(7.2 126.622394)scale(0.1 -0.1)">
       <use xlink:href="#WenQuanYiZenHei-31"/>
       <use xlink:href="#WenQuanYiZenHei-30" x="59.960938"/>
       <use xlink:href="#WenQuanYiZenHei-30" x="119.921875"/>
      </g>
     </g>
    </g>
    <g id="ytick_7">
     <g id="line2d_18">
      <g>
       <use xlink:href="#m106bbd5f7f" x="32.190625" y="77.560976" style="stroke: #000000; stroke-width: 0.8"/>
      </g>
     </g>
     <g id="text_18">
      <!-- 120 -->
      <g transform="translate(7.2 80.989101)scale(0.1 -0.1)">
       <use xlink:href="#WenQuanYiZenHei-31"/>
       <use xlink:href="#WenQuanYiZenHei-32" x="59.960938"/>
       <use xlink:href="#WenQuanYiZenHei-30" x="119.921875"/>
      </g>
     </g>
    </g>
   </g>
   <g id="line2d_19">
    <path d="M 93.063352 312.572437 
L 94.380944 314.854102 
L 95.698535 308.009108 
L 97.016127 255.53082 
L 98.333718 296.600784 
L 99.65131 248.685826 
L 100.968901 70.715982 
L 102.286493 50.181 
L 103.604084 100.377623 
L 104.921676 212.179191 
L 107.556859 207.615862 
L 108.87445 111.785946 
L 110.192042 200.770868 
L 112.827225 232.714173 
L 114.144816 255.53082 
L 115.462408 289.75579 
L 116.779999 312.572437 
L 118.097591 294.31912 
L 119.415182 319.417431 
L 120.732774 319.417431 
L 122.050365 328.54409 
L 123.367957 335.389084 
L 124.685548 339.952413 
L 126.00314 342.234078 
L 127.320731 349.079072 
L 128.638323 346.797407 
L 129.955914 349.079072 
L 131.273506 287.474126 
L 132.591097 346.797407 
L 133.908689 351.360736 
L 143.131829 351.360736 
L 144.449421 349.079072 
L 145.767012 335.389084 
L 147.084604 351.360736 
L 148.402195 346.797407 
L 149.719787 351.360736 
L 158.942927 351.360736 
L 160.260519 323.98076 
L 161.57811 342.234078 
L 162.895702 351.360736 
L 164.213293 349.079072 
L 165.530885 351.360736 
L 166.848476 349.079072 
L 168.166068 349.079072 
L 169.483659 346.797407 
L 170.801251 346.797407 
L 172.118842 351.360736 
L 173.436434 346.797407 
L 174.754025 349.079072 
L 176.071617 346.797407 
L 177.389208 342.234078 
L 178.7068 342.234078 
L 180.024391 344.515742 
L 181.341983 349.079072 
L 182.659574 346.797407 
L 183.977166 351.360736 
L 186.612349 346.797407 
L 187.92994 346.797407 
L 189.247532 349.079072 
L 194.517898 349.079072 
L 195.835489 351.360736 
L 201.105855 351.360736 
L 202.423447 349.079072 
L 203.741038 351.360736 
L 282.796528 351.360736 
L 284.11412 349.079072 
L 285.431711 351.360736 
L 315.736316 351.360736 
L 317.053907 349.079072 
L 318.371499 351.360736 
L 351.311286 351.360736 
L 352.628878 349.079072 
L 357.899244 349.079072 
L 359.216835 351.360736 
L 365.804793 351.360736 
L 367.122384 346.797407 
L 368.439976 351.360736 
L 381.615891 351.360736 
L 382.933482 349.079072 
L 384.251074 351.360736 
L 398.74458 351.360736 
L 400.062172 346.797407 
L 401.379763 351.360736 
L 402.697355 349.079072 
L 404.014946 349.079072 
L 405.332538 351.360736 
L 431.684368 351.360736 
L 433.001959 349.079072 
L 434.319551 351.360736 
L 461.988972 351.360736 
L 463.306564 344.515742 
L 464.624155 351.360736 
L 465.941747 351.360736 
L 467.259338 349.079072 
L 468.57693 351.360736 
L 469.894521 351.360736 
L 471.212113 349.079072 
L 472.529704 351.360736 
L 473.847296 346.797407 
L 475.164887 351.360736 
L 476.482479 349.079072 
L 477.80007 351.360736 
L 487.023211 351.360736 
L 488.340802 349.079072 
L 489.658394 351.360736 
L 490.975985 351.360736 
L 492.293577 349.079072 
L 493.611168 351.360736 
L 498.881534 351.360736 
L 500.199126 349.079072 
L 501.516717 351.360736 
L 510.739858 351.360736 
L 512.057449 349.079072 
L 513.375041 351.360736 
L 517.327815 351.360736 
L 518.645407 349.079072 
L 519.962998 351.360736 
L 521.28059 349.079072 
L 522.598181 351.360736 
L 526.550956 351.360736 
L 527.868547 349.079072 
L 529.186139 349.079072 
L 530.50373 351.360736 
L 531.821322 351.360736 
L 533.138913 349.079072 
L 534.456505 351.360736 
L 537.091688 351.360736 
L 538.409279 346.797407 
L 539.726871 344.515742 
L 541.044462 351.360736 
L 542.362054 349.079072 
L 543.679645 351.360736 
L 555.537969 351.360736 
L 556.85556 346.797407 
L 558.173152 351.360736 
L 562.125926 351.360736 
L 563.443518 349.079072 
L 564.761109 351.360736 
L 566.078701 351.360736 
L 567.396292 346.797407 
L 568.713884 344.515742 
L 570.031475 346.797407 
L 571.349067 351.360736 
L 595.065714 351.360736 
L 596.383305 349.079072 
L 597.700897 344.515742 
L 599.018488 351.360736 
L 614.829586 351.360736 
L 616.147178 349.079072 
L 617.464769 351.360736 
L 625.370318 351.360736 
L 626.68791 349.079072 
L 628.005501 351.360736 
L 646.451782 351.360736 
L 647.769374 349.079072 
L 649.086965 351.360736 
L 667.533246 351.360736 
L 668.850838 349.079072 
L 670.168429 351.360736 
L 674.121204 351.360736 
L 675.438795 349.079072 
L 676.756387 351.360736 
L 678.073978 351.360736 
L 679.39157 346.797407 
L 680.709161 351.360736 
L 683.344344 351.360736 
L 684.661936 349.079072 
L 685.979527 351.360736 
L 687.297119 351.360736 
L 688.61471 349.079072 
L 689.932302 351.360736 
L 691.249893 351.360736 
L 692.567485 346.797407 
L 693.885076 351.360736 
L 696.520259 351.360736 
L 697.837851 349.079072 
L 699.155442 351.360736 
L 700.473034 326.262425 
L 701.790625 351.360736 
L 703.108216 349.079072 
L 704.425808 351.360736 
L 711.013765 351.360736 
L 712.331357 349.079072 
L 713.648948 351.360736 
L 714.96654 349.079072 
L 716.284131 351.360736 
L 717.601723 349.079072 
L 718.919314 351.360736 
L 722.872089 351.360736 
L 724.18968 333.107419 
L 725.507272 349.079072 
L 726.824863 351.360736 
L 728.142455 339.952413 
L 729.460046 351.360736 
L 730.777638 351.360736 
L 732.095229 349.079072 
L 733.412821 351.360736 
L 734.730412 351.360736 
L 736.048004 349.079072 
L 737.365595 351.360736 
L 738.683187 351.360736 
L 740.000778 349.079072 
L 741.31837 351.360736 
L 746.588736 351.360736 
L 747.906327 349.079072 
L 749.223919 351.360736 
L 751.859102 346.797407 
L 753.176693 351.360736 
L 754.494285 351.360736 
L 755.811876 349.079072 
L 757.129468 349.079072 
L 758.447059 351.360736 
L 759.764651 346.797407 
L 761.082242 351.360736 
L 762.399834 349.079072 
L 763.717425 351.360736 
L 765.035017 351.360736 
L 766.352608 344.515742 
L 767.6702 349.079072 
L 768.987791 346.797407 
L 770.305383 351.360736 
L 771.622974 342.234078 
L 772.940566 351.360736 
L 774.258157 351.360736 
L 775.575749 349.079072 
L 776.89334 349.079072 
L 778.210932 351.360736 
L 779.528523 351.360736 
L 780.846115 349.079072 
L 782.163706 351.360736 
L 800.609987 351.360736 
L 801.927579 346.797407 
L 804.562762 346.797407 
L 805.880353 351.360736 
L 807.197945 349.079072 
L 808.515536 351.360736 
L 821.691451 351.360736 
L 823.009043 346.797407 
L 825.644226 351.360736 
L 826.961817 351.360736 
L 828.279409 346.797407 
L 829.597 351.360736 
L 830.914592 351.360736 
L 832.232183 349.079072 
L 833.549775 351.360736 
L 834.867366 349.079072 
L 836.184958 351.360736 
L 837.502549 323.98076 
L 838.820141 351.360736 
L 842.772915 351.360736 
L 844.090507 339.952413 
L 845.408098 351.360736 
L 846.72569 351.360736 
L 848.043281 349.079072 
L 849.360873 351.360736 
L 850.678464 346.797407 
L 851.996056 351.360736 
L 853.313647 349.079072 
L 854.631239 335.389084 
L 855.94883 351.360736 
L 857.266422 349.079072 
L 858.584013 351.360736 
L 861.219196 351.360736 
L 862.536788 349.079072 
L 863.854379 351.360736 
L 865.171971 349.079072 
L 867.807154 349.079072 
L 869.124745 342.234078 
L 870.442337 351.360736 
L 871.759928 351.360736 
L 873.07752 349.079072 
L 874.395111 351.360736 
L 875.712703 349.079072 
L 877.030294 351.360736 
L 882.30066 351.360736 
L 883.618252 349.079072 
L 886.253435 349.079072 
L 887.571026 351.360736 
L 888.888618 351.360736 
L 890.206209 346.797407 
L 891.523801 346.797407 
L 892.841392 351.360736 
L 898.111758 351.360736 
L 899.42935 349.079072 
L 900.746941 351.360736 
L 902.064533 351.360736 
L 903.382124 349.079072 
L 904.699716 351.360736 
L 906.017307 349.079072 
L 907.334899 351.360736 
L 908.65249 349.079072 
L 909.970082 351.360736 
L 911.287673 351.360736 
L 912.605265 349.079072 
L 913.922856 351.360736 
L 915.240448 351.360736 
L 916.558039 349.079072 
L 917.875631 351.360736 
L 919.193222 351.360736 
L 920.510814 349.079072 
L 921.828405 349.079072 
L 923.145997 351.360736 
L 924.463588 346.797407 
L 927.098771 351.360736 
L 933.686729 351.360736 
L 935.00432 333.107419 
L 936.321912 351.360736 
L 938.957095 351.360736 
L 940.274686 333.107419 
L 941.592278 346.797407 
L 942.909869 342.234078 
L 944.227461 342.234078 
L 945.545052 330.825754 
L 946.862644 344.515742 
L 948.180235 349.079072 
L 949.497827 351.360736 
L 953.450601 351.360736 
L 954.768193 349.079072 
L 956.085784 351.360736 
L 958.720967 351.360736 
L 960.038559 349.079072 
L 961.35615 349.079072 
L 962.673742 351.360736 
L 963.991333 351.360736 
L 965.308925 349.079072 
L 966.626516 351.360736 
L 971.896882 351.360736 
L 973.214474 349.079072 
L 974.532065 351.360736 
L 991.660755 351.360736 
L 992.978346 349.079072 
L 994.295938 333.107419 
L 995.613529 323.98076 
L 996.931121 337.670748 
L 998.248712 271.502473 
L 999.566304 264.657479 
L 1000.883895 180.235886 
L 1002.201487 248.685826 
L 1003.519078 246.404161 
L 1004.83667 223.587515 
L 1006.154261 250.967491 
L 1007.471853 175.672557 
L 1008.789444 280.629132 
L 1010.107036 323.98076 
L 1011.424627 326.262425 
L 1012.742219 349.079072 
L 1014.05981 346.797407 
L 1015.377402 349.079072 
L 1018.012585 349.079072 
L 1019.330176 346.797407 
L 1020.647768 346.797407 
L 1021.965359 342.234078 
L 1023.282951 344.515742 
L 1024.600542 349.079072 
L 1025.918134 351.360736 
L 1027.235725 330.825754 
L 1028.553317 321.699096 
L 1029.870908 337.670748 
L 1031.1885 346.797407 
L 1032.506091 323.98076 
L 1033.823683 342.234078 
L 1035.141274 342.234078 
L 1036.458866 330.825754 
L 1037.776457 344.515742 
L 1039.094049 335.389084 
L 1040.41164 349.079072 
L 1041.729232 342.234078 
L 1043.046823 344.515742 
L 1044.364415 344.515742 
L 1045.682006 351.360736 
L 1046.999598 346.797407 
L 1048.317189 351.360736 
L 1049.634781 351.360736 
L 1050.952372 344.515742 
L 1052.269964 351.360736 
L 1053.587555 346.797407 
L 1054.905147 337.670748 
L 1056.222738 346.797407 
L 1057.54033 344.515742 
L 1058.857921 351.360736 
L 1060.175513 328.54409 
L 1061.493104 312.572437 
L 1062.810696 310.290772 
L 1064.128287 301.164114 
L 1065.445879 296.600784 
L 1066.76347 321.699096 
L 1068.081062 317.135766 
L 1069.398653 349.079072 
L 1070.716245 346.797407 
L 1073.351428 346.797407 
L 1075.986611 351.360736 
L 1077.304202 351.360736 
L 1078.621794 349.079072 
L 1079.939385 344.515742 
L 1081.256977 351.360736 
L 1082.574568 349.079072 
L 1083.89216 351.360736 
L 1086.527343 351.360736 
L 1087.844934 342.234078 
L 1089.162526 351.360736 
L 1090.480117 346.797407 
L 1091.797709 344.515742 
L 1093.1153 351.360736 
L 1094.432892 346.797407 
L 1097.068075 351.360736 
L 1098.385666 349.079072 
L 1099.703258 342.234078 
L 1102.338441 351.360736 
L 1104.973624 351.360736 
L 1106.291215 349.079072 
L 1107.608807 330.825754 
L 1108.926398 346.797407 
L 1110.24399 333.107419 
L 1111.561581 349.079072 
L 1112.879173 337.670748 
L 1114.196764 349.079072 
L 1115.514356 337.670748 
L 1116.831947 310.290772 
L 1118.149539 296.600784 
L 1119.46713 228.150844 
L 1120.784722 317.135766 
L 1122.102313 253.249155 
L 1123.419905 351.360736 
L 1124.737496 200.770868 
L 1126.055088 278.347467 
L 1127.372679 298.882449 
L 1128.690271 282.910796 
L 1130.007862 344.515742 
L 1131.325454 323.98076 
L 1132.643045 326.262425 
L 1133.960637 326.262425 
L 1135.278228 342.234078 
L 1136.59582 337.670748 
L 1137.913411 346.797407 
L 1139.231003 339.952413 
L 1140.548594 342.234078 
L 1143.183777 323.98076 
L 1144.501369 351.360736 
L 1145.81896 282.910796 
L 1147.136552 326.262425 
L 1148.454143 333.107419 
L 1149.771735 312.572437 
L 1151.089326 312.572437 
L 1152.406918 319.417431 
L 1153.724509 333.107419 
L 1155.042101 317.135766 
L 1156.359692 314.854102 
L 1157.677284 330.825754 
L 1158.994875 326.262425 
L 1160.312467 323.98076 
L 1161.630058 330.825754 
L 1162.94765 351.360736 
L 1164.265241 289.75579 
L 1165.582833 326.262425 
L 1166.900424 273.784138 
L 1168.218016 346.797407 
L 1169.535607 330.825754 
L 1170.853199 339.952413 
L 1172.17079 317.135766 
L 1173.488382 328.54409 
L 1176.123565 319.417431 
L 1177.441156 333.107419 
L 1178.758748 312.572437 
L 1180.076339 246.404161 
L 1181.393931 278.347467 
L 1182.711522 333.107419 
L 1184.029114 351.360736 
L 1185.346705 346.797407 
L 1186.664297 351.360736 
L 1187.981888 344.515742 
L 1189.29948 328.54409 
L 1190.617071 351.360736 
L 1191.934663 346.797407 
L 1193.252254 349.079072 
L 1194.569846 349.079072 
L 1195.887437 351.360736 
L 1197.205029 346.797407 
L 1198.52262 351.360736 
L 1202.475395 351.360736 
L 1203.792986 346.797407 
L 1205.110578 351.360736 
L 1206.428169 351.360736 
L 1207.745761 349.079072 
L 1209.063352 351.360736 
L 1210.380944 349.079072 
L 1211.698535 351.360736 
L 1213.016127 351.360736 
L 1214.333718 346.797407 
L 1215.65131 351.360736 
L 1220.921676 351.360736 
L 1222.239267 349.079072 
L 1223.556859 351.360736 
L 1227.509633 351.360736 
L 1228.827225 349.079072 
L 1230.144816 351.360736 
L 1231.462408 349.079072 
L 1232.779999 351.360736 
L 1239.367957 351.360736 
L 1240.685548 344.515742 
L 1242.00314 351.360736 
L 1243.320731 346.797407 
L 1244.638323 346.797407 
L 1247.273506 351.360736 
L 1249.908689 351.360736 
L 1251.22628 346.797407 
L 1253.861463 351.360736 
L 1255.179055 351.360736 
L 1256.496646 346.797407 
L 1257.814238 351.360736 
L 1259.131829 346.797407 
L 1261.767012 351.360736 
L 1263.084604 351.360736 
L 1264.402195 346.797407 
L 1265.719787 346.797407 
L 1267.037378 351.360736 
L 1268.35497 346.797407 
L 1269.672561 349.079072 
L 1270.990153 344.515742 
L 1272.307744 351.360736 
L 1273.625336 349.079072 
L 1276.260519 349.079072 
L 1277.57811 346.797407 
L 1278.895702 346.797407 
L 1281.530885 351.360736 
L 1282.848476 346.797407 
L 1284.166068 326.262425 
L 1285.483659 349.079072 
L 1286.801251 346.797407 
L 1288.118842 349.079072 
L 1289.436434 349.079072 
L 1290.754025 351.360736 
L 1292.071617 349.079072 
L 1293.389208 351.360736 
L 1293.389208 351.360736 
" clip-path="url(#p4c3488151f)" style="fill: none; stroke: #0000ff; stroke-width: 1.5; stroke-linecap: square"/>
   </g>
   <g id="line2d_20">
    <path d="M 1053.587555 350.990762 
L 1054.905147 341.830836 
L 1056.222738 345.453235 
L 1057.54033 347.091765 
L 1058.857921 346.981508 
L 1060.175513 336.814063 
L 1061.493104 319.66859 
L 1062.810696 315.694925 
L 1065.445879 303.23761 
L 1066.76347 319.255542 
L 1068.081062 321.166923 
L 1069.398653 334.850418 
L 1070.716245 346.610252 
L 1072.033836 342.571522 
L 1073.351428 346.935651 
L 1074.669019 349.306436 
L 1075.986611 349.926785 
L 1077.304202 352.372346 
L 1078.621794 350.723025 
L 1079.939385 346.163038 
L 1081.256977 348.53359 
L 1082.574568 349.558946 
L 1083.89216 347.79902 
L 1085.209751 350.709052 
L 1086.527343 348.084299 
L 1087.844934 342.608943 
L 1089.162526 347.974724 
L 1090.480117 349.256397 
L 1091.797709 343.671298 
L 1093.1153 350.337791 
L 1094.432892 347.841553 
L 1095.750483 347.845431 
L 1097.068075 352.48215 
L 1098.385666 348.635808 
L 1099.703258 343.076047 
L 1101.020849 345.97891 
L 1102.338441 349.379379 
L 1103.656032 349.709724 
L 1104.973624 349.102998 
L 1106.291215 347.251855 
L 1107.608807 336.335325 
L 1108.926398 343.526902 
L 1110.24399 340.461939 
L 1111.561581 342.866187 
L 1114.196764 343.602055 
L 1115.514356 343.049443 
L 1116.831947 320.212678 
L 1118.149539 306.260584 
L 1119.46713 263.472954 
L 1120.784722 299.968074 
L 1122.102313 290.242479 
L 1123.419905 312.420412 
L 1124.737496 262.062451 
L 1126.055088 250.603894 
L 1127.372679 318.029637 
L 1128.690271 285.207926 
L 1130.007862 324.068087 
L 1131.325454 337.114634 
L 1132.643045 312.104528 
L 1133.960637 334.028275 
L 1135.278228 342.655941 
L 1136.59582 340.173113 
L 1137.913411 343.192907 
L 1139.231003 344.297688 
L 1140.548594 337.171017 
L 1141.866186 343.123876 
L 1143.183777 326.803143 
L 1144.501369 341.458241 
L 1145.81896 308.074563 
L 1147.136552 312.471112 
L 1148.454143 341.657621 
L 1149.771735 316.830636 
L 1151.089326 310.051209 
L 1152.406918 326.298671 
L 1153.724509 330.085697 
L 1156.359692 319.015083 
L 1157.677284 330.057815 
L 1158.994875 327.899432 
L 1161.630058 329.906211 
L 1162.94765 345.564956 
L 1164.265241 308.678054 
L 1165.582833 315.543882 
L 1166.900424 304.642801 
L 1168.218016 324.26258 
L 1169.535607 340.879453 
L 1170.853199 329.441839 
L 1172.17079 324.945928 
L 1173.488382 328.377493 
L 1174.805973 328.976517 
L 1176.123565 324.002408 
L 1177.441156 331.282583 
L 1178.758748 324.215124 
L 1180.076339 269.732773 
L 1181.393931 284.381099 
L 1182.711522 329.115667 
L 1184.029114 341.747007 
L 1185.346705 337.958985 
L 1186.664297 345.655435 
L 1187.981888 340.277453 
L 1189.29948 335.908096 
L 1190.617071 346.90992 
L 1191.934663 352.581 
L 1193.252254 344.064096 
L 1194.569846 350.714379 
L 1195.887437 350.011469 
L 1197.205029 351.479035 
L 1198.52262 348.11824 
L 1199.840212 350.292193 
L 1201.157803 347.445907 
L 1202.475395 350.884853 
L 1203.792986 346.28569 
L 1205.110578 348.668186 
L 1206.428169 348.088386 
L 1207.745761 349.014173 
L 1209.063352 350.441675 
L 1210.380944 351.140897 
L 1211.698535 348.839764 
L 1213.016127 351.892294 
L 1214.333718 347.729048 
L 1215.65131 351.509116 
L 1216.968901 350.613919 
L 1218.286493 349.131118 
L 1219.604084 348.996965 
L 1220.921676 350.986651 
L 1222.239267 347.736346 
L 1223.556859 349.593758 
L 1224.87445 349.04962 
L 1226.192042 350.388642 
L 1227.509633 350.904164 
L 1230.144816 349.24512 
L 1231.462408 350.353326 
L 1232.779999 349.743438 
L 1234.097591 352.07314 
L 1235.415182 349.809817 
L 1236.732774 349.861333 
L 1238.050365 349.596971 
L 1239.367957 350.779137 
L 1240.685548 345.278524 
L 1242.00314 348.614689 
L 1243.320731 347.447473 
L 1244.638323 345.579112 
L 1245.955914 348.966195 
L 1247.273506 350.48252 
L 1248.591097 349.32959 
L 1249.908689 350.940224 
L 1251.22628 347.434017 
L 1252.543872 348.549753 
L 1253.861463 350.530558 
L 1255.179055 349.820122 
L 1256.496646 346.679657 
L 1257.814238 349.896562 
L 1259.131829 347.223087 
L 1260.449421 347.251754 
L 1261.767012 350.134131 
L 1263.084604 350.044589 
L 1264.402195 347.082347 
L 1265.719787 346.982528 
L 1267.037378 349.297086 
L 1269.672561 347.28216 
L 1270.990153 346.499186 
L 1272.307744 348.144473 
L 1273.625336 349.609777 
L 1274.942927 347.144461 
L 1276.260519 349.038198 
L 1277.57811 346.376739 
L 1278.895702 346.078624 
L 1280.213293 348.198109 
L 1281.530885 350.026123 
L 1282.848476 347.076209 
L 1284.166068 333.236408 
L 1285.483659 343.16897 
L 1286.801251 350.40563 
L 1288.118842 344.7379 
L 1289.436434 348.866502 
L 1290.754025 349.106321 
L 1292.071617 347.670664 
L 1293.389208 350.253591 
L 1293.389208 350.253591 
" clip-path="url(#p4c3488151f)" style="fill: none; stroke: #ffa500; stroke-width: 1.5; stroke-linecap: square"/>
   </g>
   <g id="line2d_21">
    <path d="M 1293.389208 350.253591 
L 1294.7068 350.507346 
L 1296.024391 348.820326 
L 1297.341983 348.69038 
L 1298.659574 348.052584 
L 1299.977166 348.136324 
L 1301.294757 348.677112 
L 1302.612349 347.398768 
L 1303.92994 346.815735 
L 1305.247532 346.726058 
L 1306.565123 346.531551 
L 1307.882715 346.236641 
L 1309.200306 345.758694 
L 1310.517898 344.752717 
" clip-path="url(#p4c3488151f)" style="fill: none; stroke: #ff0000; stroke-width: 1.5; stroke-linecap: square"/>
   </g>
   <g id="patch_3">
    <path d="M 32.190625 367.701 
L 32.190625 35.061 
" style="fill: none; stroke: #000000; stroke-width: 0.8; stroke-linejoin: miter; stroke-linecap: square"/>
   </g>
   <g id="patch_4">
    <path d="M 1371.390625 367.701 
L 1371.390625 35.061 
" style="fill: none; stroke: #000000; stroke-width: 0.8; stroke-linejoin: miter; stroke-linecap: square"/>
   </g>
   <g id="patch_5">
    <path d="M 32.190625 367.701 
L 1371.390625 367.701 
" style="fill: none; stroke: #000000; stroke-width: 0.8; stroke-linejoin: miter; stroke-linecap: square"/>
   </g>
   <g id="patch_6">
    <path d="M 32.190625 35.061 
L 1371.390625 35.061 
" style="fill: none; stroke: #000000; stroke-width: 0.8; stroke-linejoin: miter; stroke-linecap: square"/>
   </g>
   <g id="text_19">
    <!-- 每日新增预测 - 浙江 -->
    <g transform="translate(648.393438 17.041875)scale(0.12 -0.12)">
     <defs>
      <path id="WenQuanYiZenHei-6bcf" d="M 6138 2181 
Q 6113 1988 6138 1800 
Q 5788 1819 5438 1819 
L 4975 1819 
L 4863 738 
L 5806 738 
L 5806 394 
L 4831 394 
L 4775 -144 
Q 4719 -563 4350 -725 
Q 4013 -856 3550 -825 
L 3288 -819 
Q 3331 -663 3275 -519 
Q 3219 -375 3113 -288 
Q 3381 -313 3759 -303 
Q 4138 -294 4231 -238 
Q 4338 -163 4350 88 
L 4381 394 
L 1025 394 
L 1244 1819 
L 813 1819 
Q 463 1819 113 1800 
Q 138 1988 113 2181 
Q 463 2163 813 2163 
L 1294 2163 
L 1488 3431 
L 1488 3581 
L 1506 3581 
L 1513 3613 
L 1713 3581 
L 5156 3581 
L 5013 2163 
L 5438 2163 
Q 5788 2163 6138 2181 
z
M 5588 4463 
Q 5569 4269 5588 4081 
Q 5244 4100 4894 4100 
L 1813 4100 
Q 1344 3463 606 2788 
Q 481 2988 256 3069 
Q 744 3494 1116 3972 
Q 1488 4450 1919 5181 
Q 2119 5044 2344 4950 
Q 2213 4688 2050 4444 
L 4894 4444 
Q 5238 4444 5588 4463 
z
M 2844 3238 
L 1906 3238 
L 1744 2163 
L 3244 2163 
L 2581 3038 
L 2844 3238 
z
M 3250 2163 
L 4563 2163 
L 4669 3238 
L 3044 3238 
L 3638 2456 
L 3250 2163 
z
M 2944 1819 
Q 3275 1394 3550 938 
L 3213 738 
L 4419 738 
L 4525 1819 
L 2944 1819 
z
M 2656 1819 
L 1694 1819 
L 1525 738 
L 3094 738 
Q 2806 1219 2450 1650 
L 2656 1819 
z
" transform="scale(0.015625)"/>
      <path id="WenQuanYiZenHei-65e5" d="M 1494 -775 
Q 1244 -750 988 -775 
Q 1013 -313 1013 156 
L 1013 4875 
L 5269 4875 
L 5269 -763 
L 4813 -763 
L 4813 156 
L 1469 156 
Q 1469 -313 1494 -775 
z
M 4813 2700 
L 4813 4500 
L 1469 4500 
L 1469 2700 
L 4813 2700 
z
M 4813 531 
L 4813 2325 
L 1469 2325 
L 1469 531 
L 4813 531 
z
" transform="scale(0.015625)"/>
      <path id="WenQuanYiZenHei-65b0" d="M 5419 -763 
Q 5188 -738 4963 -763 
Q 4981 -344 4981 75 
L 4981 2819 
L 4188 2819 
L 4188 1706 
Q 4188 63 3163 -738 
Q 3019 -519 2769 -469 
Q 3769 131 3769 1706 
L 3769 4769 
L 3875 4769 
L 3844 4831 
L 4294 4781 
Q 4438 4769 4894 4816 
Q 5350 4863 5512 4931 
Q 5675 5000 5763 5094 
Q 5850 4881 5981 4694 
Q 5713 4544 5263 4519 
L 4188 4438 
L 4188 3100 
L 5563 3100 
Q 5850 3100 6131 3113 
Q 6119 2956 6131 2806 
L 5394 2819 
L 5394 75 
Q 5394 -344 5419 -763 
z
M 2981 213 
Q 2656 744 2256 1225 
L 2606 1513 
Q 3025 1006 3369 450 
L 2981 213 
z
M 1169 1525 
Q 1375 1419 1594 1363 
Q 1281 488 469 -469 
Q 331 -300 119 -244 
Q 575 263 888 900 
Q 1038 1206 1169 1525 
z
M 1825 6 
L 1825 1769 
L 1081 1769 
Q 794 1769 513 1756 
Q 525 1913 513 2063 
Q 794 2050 1081 2050 
L 1825 2050 
L 1825 2775 
L 994 2775 
Q 706 2775 425 2763 
Q 438 2919 425 3075 
Q 706 3056 994 3056 
L 1825 3056 
L 1825 3088 
L 1906 3088 
Q 2288 3656 2588 4381 
Q 2794 4269 3013 4206 
Q 2800 3675 2381 3056 
L 3013 3056 
Q 3294 3056 3581 3075 
Q 3563 2919 3581 2763 
Q 3294 2775 3013 2775 
L 2238 2775 
L 2238 2050 
L 2925 2050 
Q 3206 2050 3494 2063 
Q 3475 1913 3494 1756 
Q 3206 1769 2925 1769 
L 2238 1769 
L 2238 -156 
Q 2238 -413 2075 -581 
Q 1844 -794 1306 -794 
Q 1363 -519 1188 -288 
Q 1338 -313 1534 -316 
Q 1731 -319 1778 -278 
Q 1825 -238 1825 6 
z
M 1875 3388 
L 1500 3131 
L 825 4088 
L 1200 4350 
L 1875 3388 
z
M 3419 4713 
Q 3400 4563 3419 4406 
Q 3131 4419 2850 4419 
L 1125 4419 
Q 838 4419 556 4406 
Q 569 4563 556 4713 
Q 838 4700 1125 4700 
L 1763 4700 
L 1388 5088 
L 1719 5406 
L 2288 4813 
L 2175 4700 
L 2850 4700 
Q 3131 4700 3419 4713 
z
" transform="scale(0.015625)"/>
      <path id="WenQuanYiZenHei-589e" d="M 3138 -769 
Q 2913 -744 2688 -769 
Q 2706 -356 2706 56 
L 2706 1719 
L 5706 1719 
L 5706 -756 
L 5300 -756 
L 5300 -338 
L 3119 -338 
Q 3125 -550 3138 -769 
z
M 5113 3569 
Q 5344 3606 5563 3688 
Q 5669 3175 5256 2694 
Q 5113 2519 4975 2506 
Q 4831 2725 4588 2813 
Q 4806 2831 4997 3068 
Q 5188 3306 5113 3569 
z
M 3850 2763 
L 3469 2538 
L 2925 3456 
L 3313 3681 
L 3850 2763 
z
M 2400 2100 
Q 2469 3138 2400 4175 
L 3413 4175 
Q 3138 4550 2825 4888 
L 3156 5194 
Q 3581 4725 3938 4206 
L 3900 4175 
L 4456 4175 
Q 4863 4575 5131 5163 
Q 5325 5044 5538 4975 
Q 5369 4575 5013 4175 
L 6056 4175 
Q 5981 3138 6056 2100 
L 2400 2100 
z
M 5300 806 
L 5300 1450 
L 3113 1450 
Q 3113 1125 3113 806 
L 5300 806 
z
M 5300 563 
L 3113 563 
L 3113 -94 
L 5300 -94 
L 5300 563 
z
M 4431 3913 
L 4431 2363 
L 5650 2363 
L 5650 3913 
L 4756 3913 
L 4700 3856 
Q 4681 3888 4656 3913 
L 4431 3913 
z
M 4025 3913 
L 2806 3913 
L 2806 2363 
L 4025 2363 
L 4025 3913 
z
M -31 625 
Q 506 763 1006 975 
L 1006 3206 
L 669 3206 
Q 369 3206 75 3188 
Q 94 3356 75 3531 
Q 369 3513 669 3513 
L 1006 3513 
L 1006 4263 
Q 1006 4700 981 5131 
Q 1206 5106 1431 5131 
Q 1413 4700 1413 4263 
L 1413 3513 
L 2238 3531 
Q 2219 3356 2238 3188 
L 1413 3206 
L 1413 1163 
L 2150 1531 
L 2194 1256 
Q 1269 775 813 519 
L 194 144 
Q 138 438 -31 625 
z
" transform="scale(0.015625)"/>
      <path id="WenQuanYiZenHei-9884" d="M 1206 19 
L 1206 2888 
L 669 2888 
Q 356 2888 50 2869 
Q 63 3044 50 3213 
Q 363 3194 669 3194 
L 1250 3194 
Q 950 3631 606 4031 
L 963 4338 
L 1263 3975 
L 1913 4719 
L 731 4719 
Q 419 4719 106 4706 
Q 125 4875 106 5044 
Q 419 5031 731 5031 
L 2481 5031 
L 2544 4663 
Q 2394 4613 2256 4466 
Q 2119 4319 1525 3631 
Q 1656 3444 1788 3250 
L 1700 3194 
L 2700 3194 
L 2763 2825 
Q 2656 2819 2613 2763 
L 2100 2038 
L 1750 2288 
L 2175 2888 
L 1638 2888 
L 1638 -150 
Q 1638 -525 1363 -669 
Q 1075 -819 525 -813 
Q 594 -513 388 -294 
Q 575 -313 837 -316 
Q 1100 -319 1153 -272 
Q 1206 -225 1206 19 
z
M 5813 -888 
Q 5100 -225 4306 375 
L 4669 719 
Q 5481 106 6219 -575 
L 5813 -888 
z
M 2375 -906 
Q 2294 -631 2025 -506 
Q 2769 -431 3353 19 
Q 3938 469 3938 1069 
L 3938 2200 
Q 3938 2625 3913 3050 
Q 4188 3025 4456 3050 
Q 4431 2625 4431 2200 
L 4431 1069 
Q 4431 681 4225 319 
Q 3644 -606 2375 -906 
z
M 3444 488 
Q 3169 513 2894 488 
Q 2919 913 2919 1338 
L 2919 3675 
Q 3219 3675 3525 3675 
Q 3750 4013 3931 4525 
L 3238 4525 
Q 2888 4525 2538 4513 
Q 2556 4669 2538 4831 
Q 2888 4813 3238 4813 
L 5313 4813 
Q 5663 4813 6006 4831 
Q 5988 4669 6006 4513 
Q 5663 4525 5313 4525 
L 4481 4525 
Q 4388 4088 4088 3675 
L 5644 3675 
L 5644 513 
L 5144 513 
L 5144 3388 
L 3894 3388 
L 3875 3363 
Q 3863 3375 3844 3388 
Q 3631 3388 3413 3388 
L 3419 1338 
Q 3419 913 3444 488 
z
" transform="scale(0.015625)"/>
      <path id="WenQuanYiZenHei-6d4b" d="M 5450 138 
L 5450 4306 
Q 5450 4750 5425 5188 
Q 5663 5163 5906 5188 
Q 5881 4750 5881 4306 
L 5881 -38 
Q 5888 -569 5519 -719 
Q 5194 -831 4825 -813 
Q 4894 -519 4694 -281 
Q 4869 -306 5094 -309 
Q 5319 -313 5384 -256 
Q 5450 -200 5450 138 
z
M 4900 938 
Q 4663 963 4419 938 
Q 4444 1375 4444 1819 
L 4444 3381 
Q 4444 3819 4419 4263 
Q 4663 4238 4900 4263 
Q 4875 3819 4875 3381 
L 4875 1819 
Q 4875 1375 4900 938 
z
M 2750 2025 
L 2750 3038 
Q 2750 3481 2725 3919 
Q 2963 3894 3206 3919 
Q 3181 3481 3181 3038 
L 3181 2025 
Q 3181 1263 2919 625 
L 3231 956 
Q 3781 431 4256 -150 
L 3888 -456 
Q 3431 106 2906 600 
Q 2531 -288 1738 -769 
Q 1606 -519 1338 -450 
Q 1988 -156 2369 478 
Q 2750 1113 2750 2025 
z
M 2363 969 
Q 2119 994 1881 969 
Q 1906 1406 1906 1850 
L 1906 5038 
L 3956 5031 
L 3956 1200 
L 3525 1200 
L 3525 4713 
L 2338 4713 
L 2338 1850 
Q 2338 1406 2363 969 
z
M 663 -738 
Q 481 -588 206 -575 
Q 400 -69 606 581 
Q 813 1231 1200 2838 
L 1381 2706 
L 875 338 
L 663 -738 
z
M 1006 2856 
L 731 2550 
L 75 3400 
L 350 3713 
L 1006 2856 
z
M 1088 3913 
Q 781 4388 425 4800 
L 694 5125 
Q 1069 4688 1388 4188 
L 1088 3913 
z
" transform="scale(0.015625)"/>
      <path id="WenQuanYiZenHei-20" transform="scale(0.015625)"/>
      <path id="WenQuanYiZenHei-6d59" d="M 5488 -769 
Q 5256 -744 5019 -769 
Q 5038 -331 5038 100 
L 5038 3000 
L 4338 3000 
L 4338 2269 
Q 4338 1438 4172 744 
Q 4006 50 3556 -556 
Q 3356 -375 3088 -400 
Q 3563 119 3734 759 
Q 3906 1400 3906 2269 
L 3906 4619 
L 4031 4619 
L 4025 4625 
Q 4488 4656 4863 4803 
Q 5238 4950 5675 5225 
Q 5788 5019 5938 4838 
Q 5294 4369 4338 4231 
L 4338 3306 
L 5538 3306 
Q 5850 3306 6163 3325 
Q 6144 3156 6163 2988 
L 5469 3000 
L 5469 100 
Q 5469 -331 5488 -769 
z
M 2538 169 
L 2538 1844 
Q 2169 1631 1806 1394 
Q 1750 1669 1563 1875 
Q 2031 1975 2538 2194 
L 2538 3544 
L 1681 3531 
Q 1700 3700 1681 3869 
L 2538 3856 
L 2538 4388 
Q 2538 4825 2513 5256 
Q 2750 5231 2988 5256 
Q 2963 4825 2963 4388 
L 2963 3856 
L 3594 3869 
Q 3575 3700 3594 3531 
L 2963 3544 
L 2963 2388 
L 3469 2650 
L 3525 2381 
L 2963 2081 
L 2963 -38 
Q 2975 -638 2475 -756 
Q 2256 -813 1938 -806 
Q 2000 -513 1806 -288 
Q 1981 -306 2197 -309 
Q 2413 -313 2475 -253 
Q 2538 -194 2538 169 
z
M 775 -738 
Q 563 -588 244 -575 
Q 469 -69 709 581 
Q 950 1231 1406 2838 
L 1619 2706 
L 1025 338 
L 775 -738 
z
M 1181 2856 
L 856 2550 
L 88 3400 
L 413 3713 
L 1181 2856 
z
M 1275 3913 
Q 919 4388 500 4800 
L 806 5125 
Q 1250 4688 1625 4188 
L 1275 3913 
z
" transform="scale(0.015625)"/>
      <path id="WenQuanYiZenHei-6c5f" d="M 6175 156 
Q 6150 -38 6175 -238 
Q 5806 -219 5444 -219 
L 2650 -219 
Q 2288 -219 1925 -238 
Q 1944 -38 1925 156 
Q 2288 144 2650 144 
L 3738 144 
L 3738 4275 
L 3013 4275 
Q 2650 4275 2281 4256 
Q 2306 4456 2281 4650 
Q 2650 4631 3013 4631 
L 5206 4631 
Q 5569 4631 5931 4650 
Q 5913 4456 5931 4256 
Q 5569 4275 5206 4275 
L 4194 4275 
L 4194 144 
L 5444 144 
Q 5806 144 6175 156 
z
M 919 -738 
Q 669 -588 288 -575 
Q 556 -69 840 581 
Q 1125 1231 1669 2838 
L 1919 2706 
L 1219 338 
L 919 -738 
z
M 1400 2856 
L 1013 2550 
L 100 3400 
L 494 3713 
L 1400 2856 
z
M 1513 3913 
Q 1088 4388 594 4800 
L 963 5125 
Q 1481 4688 1931 4188 
L 1513 3913 
z
" transform="scale(0.015625)"/>
     </defs>
     <use xlink:href="#WenQuanYiZenHei-6bcf"/>
     <use xlink:href="#WenQuanYiZenHei-65e5" x="100"/>
     <use xlink:href="#WenQuanYiZenHei-65b0" x="200"/>
     <use xlink:href="#WenQuanYiZenHei-589e" x="300"/>
     <use xlink:href="#WenQuanYiZenHei-9884" x="400"/>
     <use xlink:href="#WenQuanYiZenHei-6d4b" x="500"/>
     <use xlink:href="#WenQuanYiZenHei-20" x="600"/>
     <use xlink:href="#WenQuanYiZenHei-2d" x="629.980469"/>
     <use xlink:href="#WenQuanYiZenHei-20" x="659.960938"/>
     <use xlink:href="#WenQuanYiZenHei-6d59" x="689.941406"/>
     <use xlink:href="#WenQuanYiZenHei-6c5f" x="789.941406"/>
    </g>
    <!-- ARIMA (4, 0, 0)x(1, 0, 1, 7) (R2 = 0.834863) -->
    <g transform="translate(583.182813 29.061)scale(0.12 -0.12)">
     <defs>
      <path id="WenQuanYiZenHei-41" d="M 3550 0 
L 2988 0 
L 2550 1281 
L 919 1281 
L 531 0 
L 69 0 
L 1494 4388 
L 2125 4388 
L 3550 0 
z
M 2425 1694 
L 1756 3800 
L 1075 1694 
L 2425 1694 
z
" transform="scale(0.015625)"/>
      <path id="WenQuanYiZenHei-52" d="M 3675 0 
L 3100 0 
L 2288 1900 
L 1069 1900 
L 1069 0 
L 519 0 
L 519 4388 
L 2163 4388 
Q 3006 4388 3400 3900 
Q 3581 3663 3625 3325 
Q 3631 3250 3631 3163 
Q 3631 2594 3219 2244 
Q 3038 2100 2813 2038 
L 3675 0 
z
M 3081 3169 
Q 3081 3825 2356 3906 
Q 2263 3919 2163 3919 
L 1069 3919 
L 1069 2350 
L 2100 2350 
Q 2906 2350 3044 2919 
Q 3081 3031 3081 3169 
z
" transform="scale(0.015625)"/>
      <path id="WenQuanYiZenHei-49" d="M 1100 0 
L 550 0 
L 550 4388 
L 1100 4388 
L 1100 0 
z
" transform="scale(0.015625)"/>
      <path id="WenQuanYiZenHei-4d" d="M 4756 0 
L 4206 0 
L 4206 3831 
L 4181 3831 
L 2788 0 
L 2419 0 
L 1000 3831 
L 975 3831 
L 975 0 
L 513 0 
L 513 4388 
L 1331 4388 
L 2656 875 
L 3950 4388 
L 4756 4388 
L 4756 0 
z
" transform="scale(0.015625)"/>
      <path id="WenQuanYiZenHei-28" d="M 1606 -1094 
L 1275 -1094 
Q 475 -100 338 1231 
Q 319 1438 319 1656 
Q 319 3031 1156 4244 
Q 1213 4313 1269 4388 
L 1600 4388 
Q 806 3169 794 1681 
Q 794 188 1606 -1094 
z
" transform="scale(0.015625)"/>
      <path id="WenQuanYiZenHei-2c" d="M 1363 75 
L 881 -825 
L 606 -825 
L 994 0 
L 656 0 
L 656 738 
L 1363 738 
L 1363 75 
z
" transform="scale(0.015625)"/>
      <path id="WenQuanYiZenHei-29" d="M 1600 1656 
Q 1600 306 869 -788 
Q 769 -950 644 -1094 
L 313 -1094 
Q 1125 188 1125 1681 
Q 1125 3169 338 4363 
Q 325 4375 319 4388 
L 650 4388 
Q 1525 3231 1594 1863 
Q 1600 1763 1600 1656 
z
" transform="scale(0.015625)"/>
      <path id="WenQuanYiZenHei-78" d="M 2806 0 
L 2213 0 
L 1394 1319 
L 544 0 
L 50 0 
L 1144 1681 
L 163 3250 
L 744 3250 
L 1431 2138 
L 2144 3250 
L 2631 3250 
L 1681 1794 
L 2806 0 
z
" transform="scale(0.015625)"/>
      <path id="WenQuanYiZenHei-3d" d="M 3569 2256 
L 263 2256 
L 263 2675 
L 3569 2675 
L 3569 2256 
z
M 3569 1019 
L 263 1019 
L 263 1431 
L 3569 1431 
L 3569 1019 
z
" transform="scale(0.015625)"/>
      <path id="WenQuanYiZenHei-2e" d="M 1344 0 
L 631 0 
L 631 725 
L 1344 725 
L 1344 0 
z
" transform="scale(0.015625)"/>
      <path id="WenQuanYiZenHei-33" d="M 3588 1231 
Q 3588 494 2875 144 
Q 2450 -63 1925 -63 
Q 1044 -63 556 488 
Q 356 706 256 1000 
L 769 1169 
Q 994 375 1913 375 
Q 2631 375 2900 788 
Q 3019 975 3019 1231 
Q 3019 1638 2638 1881 
Q 2325 2081 1613 2069 
L 1338 2069 
L 1338 2494 
Q 1969 2494 2094 2506 
Q 2325 2544 2463 2613 
Q 2763 2756 2844 3100 
Q 2863 3169 2863 3244 
Q 2863 3744 2381 3944 
L 2163 4006 
Q 2056 4025 1931 4025 
Q 1388 4025 1075 3631 
Q 969 3488 906 3313 
L 419 3456 
Q 675 4150 1400 4369 
Q 1669 4456 1975 4456 
Q 2694 4456 3106 4050 
Q 3419 3744 3419 3275 
Q 3419 2813 3025 2513 
Q 2825 2356 2575 2319 
L 2575 2306 
Q 3181 2213 3450 1769 
Q 3588 1525 3588 1231 
z
" transform="scale(0.015625)"/>
     </defs>
     <use xlink:href="#WenQuanYiZenHei-41"/>
     <use xlink:href="#WenQuanYiZenHei-52" x="55.957031"/>
     <use xlink:href="#WenQuanYiZenHei-49" x="117.871094"/>
     <use xlink:href="#WenQuanYiZenHei-4d" x="143.847656"/>
     <use xlink:href="#WenQuanYiZenHei-41" x="225.78125"/>
     <use xlink:href="#WenQuanYiZenHei-20" x="281.738281"/>
     <use xlink:href="#WenQuanYiZenHei-28" x="311.71875"/>
     <use xlink:href="#WenQuanYiZenHei-34" x="341.699219"/>
     <use xlink:href="#WenQuanYiZenHei-2c" x="401.660156"/>
     <use xlink:href="#WenQuanYiZenHei-20" x="431.640625"/>
     <use xlink:href="#WenQuanYiZenHei-30" x="461.621094"/>
     <use xlink:href="#WenQuanYiZenHei-2c" x="521.582031"/>
     <use xlink:href="#WenQuanYiZenHei-20" x="551.5625"/>
     <use xlink:href="#WenQuanYiZenHei-30" x="581.542969"/>
     <use xlink:href="#WenQuanYiZenHei-29" x="641.503906"/>
     <use xlink:href="#WenQuanYiZenHei-78" x="671.484375"/>
     <use xlink:href="#WenQuanYiZenHei-28" x="715.429688"/>
     <use xlink:href="#WenQuanYiZenHei-31" x="745.410156"/>
     <use xlink:href="#WenQuanYiZenHei-2c" x="805.371094"/>
     <use xlink:href="#WenQuanYiZenHei-20" x="835.351562"/>
     <use xlink:href="#WenQuanYiZenHei-30" x="865.332031"/>
     <use xlink:href="#WenQuanYiZenHei-2c" x="925.292969"/>
     <use xlink:href="#WenQuanYiZenHei-20" x="955.273438"/>
     <use xlink:href="#WenQuanYiZenHei-31" x="985.253906"/>
     <use xlink:href="#WenQuanYiZenHei-2c" x="1045.214844"/>
     <use xlink:href="#WenQuanYiZenHei-20" x="1075.195312"/>
     <use xlink:href="#WenQuanYiZenHei-37" x="1105.175781"/>
     <use xlink:href="#WenQuanYiZenHei-29" x="1165.136719"/>
     <use xlink:href="#WenQuanYiZenHei-20" x="1195.117188"/>
     <use xlink:href="#WenQuanYiZenHei-28" x="1225.097656"/>
     <use xlink:href="#WenQuanYiZenHei-52" x="1255.078125"/>
     <use xlink:href="#WenQuanYiZenHei-32" x="1316.992188"/>
     <use xlink:href="#WenQuanYiZenHei-20" x="1376.953125"/>
     <use xlink:href="#WenQuanYiZenHei-3d" x="1406.933594"/>
     <use xlink:href="#WenQuanYiZenHei-20" x="1466.894531"/>
     <use xlink:href="#WenQuanYiZenHei-30" x="1496.875"/>
     <use xlink:href="#WenQuanYiZenHei-2e" x="1556.835938"/>
     <use xlink:href="#WenQuanYiZenHei-38" x="1586.816406"/>
     <use xlink:href="#WenQuanYiZenHei-33" x="1646.777344"/>
     <use xlink:href="#WenQuanYiZenHei-34" x="1706.738281"/>
     <use xlink:href="#WenQuanYiZenHei-38" x="1766.699219"/>
     <use xlink:href="#WenQuanYiZenHei-36" x="1826.660156"/>
     <use xlink:href="#WenQuanYiZenHei-33" x="1886.621094"/>
     <use xlink:href="#WenQuanYiZenHei-29" x="1946.582031"/>
    </g>
   </g>
   <g id="legend_1">
    <g id="patch_7">
     <path d="M 1302.390625 87.056312 
L 1364.390625 87.056312 
Q 1366.390625 87.056312 1366.390625 85.056312 
L 1366.390625 42.061 
Q 1366.390625 40.061 1364.390625 40.061 
L 1302.390625 40.061 
Q 1300.390625 40.061 1300.390625 42.061 
L 1300.390625 85.056312 
Q 1300.390625 87.056312 1302.390625 87.056312 
z
" style="fill: #ffffff; opacity: 0.8; stroke: #cccccc; stroke-linejoin: miter"/>
    </g>
    <g id="line2d_22">
     <path d="M 1304.390625 48.695375 
L 1314.390625 48.695375 
L 1324.390625 48.695375 
" style="fill: none; stroke: #0000ff; stroke-width: 1.5; stroke-linecap: square"/>
    </g>
    <g id="text_20">
     <!-- 实际值 -->
     <g transform="translate(1332.390625 52.195375)scale(0.1 -0.1)">
      <defs>
       <path id="WenQuanYiZenHei-5b9e" d="M 1025 1175 
Q 694 1175 356 1163 
Q 375 1344 356 1525 
Q 694 1506 1025 1506 
L 3363 1506 
L 3363 2625 
Q 3363 3075 3338 3519 
Q 3581 3494 3825 3519 
Q 3800 3075 3800 2625 
L 3800 1506 
L 5406 1506 
Q 5744 1506 6075 1525 
Q 6056 1344 6075 1163 
Q 5744 1175 5406 1175 
L 4038 1175 
L 4981 456 
L 6131 -488 
L 5819 -856 
L 4681 75 
L 3638 875 
Q 3313 231 2475 -231 
Q 1638 -694 700 -825 
Q 638 -519 344 -400 
Q 1450 -319 2406 244 
Q 3113 656 3300 1175 
L 1025 1175 
z
M 2263 1581 
Q 1763 2081 1200 2513 
L 1494 2894 
Q 2081 2444 2600 1919 
L 2263 1581 
z
M 2638 2500 
Q 2219 2963 1731 3363 
L 2044 3738 
Q 2556 3313 3000 2819 
L 2638 2500 
z
M 919 3156 
L 481 3156 
L 481 4344 
L 3069 4344 
Q 2794 4731 2469 5081 
L 2825 5413 
Q 3256 4944 3613 4413 
L 3513 4344 
L 5869 4344 
L 5869 3156 
L 5425 3156 
L 5425 4013 
L 919 4013 
L 919 3156 
z
" transform="scale(0.015625)"/>
       <path id="WenQuanYiZenHei-9645" d="M 6000 431 
L 5569 194 
L 4963 1219 
L 4313 2219 
L 4719 2494 
L 5375 1481 
L 6000 431 
z
M 2956 2450 
Q 3181 2344 3419 2294 
Q 3006 1038 1944 -188 
Q 1794 -6 1569 56 
Q 2069 600 2372 1156 
Q 2675 1713 2956 2450 
z
M 3750 25 
L 3750 2913 
L 2819 2913 
Q 2475 2913 2125 2894 
Q 2144 3081 2125 3269 
Q 2475 3256 2819 3256 
L 5469 3256 
Q 5819 3256 6163 3269 
Q 6144 3081 6163 2894 
Q 5813 2913 5469 2913 
L 4194 2913 
L 4194 -144 
Q 4194 -725 3456 -813 
L 3263 -825 
Q 3325 -506 3125 -250 
Q 3250 -281 3394 -306 
Q 3663 -313 3706 -272 
Q 3750 -231 3750 25 
z
M 5544 4950 
Q 5525 4756 5544 4569 
Q 5194 4588 4844 4588 
L 3325 4588 
Q 2975 4588 2625 4569 
Q 2644 4756 2625 4950 
Q 2975 4931 3325 4931 
L 4844 4931 
Q 5194 4931 5544 4950 
z
M 819 -850 
Q 581 -825 344 -850 
Q 369 -419 369 19 
L 363 4938 
L 2256 4938 
L 2256 4625 
Q 2150 4513 2075 4375 
L 1481 3238 
Q 2181 2319 2181 1156 
Q 2144 400 1569 163 
L 1406 88 
Q 1288 300 1138 481 
Q 1294 538 1450 606 
Q 1763 744 1794 1156 
Q 1794 1744 1600 2300 
Q 1406 2856 1038 3313 
L 1725 4625 
L 788 4625 
L 794 19 
Q 794 -419 819 -850 
z
" transform="scale(0.015625)"/>
       <path id="WenQuanYiZenHei-503c" d="M 6175 -219 
Q 6156 -388 6175 -556 
Q 5863 -544 5550 -544 
L 2313 -544 
Q 2000 -544 1688 -556 
Q 1706 -388 1688 -219 
L 2506 -231 
L 2506 3469 
L 3644 3469 
L 3644 4119 
L 2638 4119 
Q 2325 4119 2013 4100 
Q 2031 4269 2013 4438 
Q 2325 4425 2638 4425 
L 3638 4425 
Q 3638 4719 3619 5013 
Q 3856 4988 4094 5013 
Q 4075 4719 4075 4425 
L 5344 4425 
Q 5650 4425 5963 4438 
Q 5950 4269 5963 4100 
Q 5656 4119 5344 4119 
L 4069 4119 
L 4069 3469 
L 5300 3469 
L 5300 -231 
L 5550 -231 
Q 5863 -231 6175 -219 
z
M 4869 2556 
L 4869 3156 
L 2931 3156 
Q 2931 2850 2931 2556 
L 4869 2556 
z
M 4869 1669 
L 4869 2250 
L 2931 2250 
L 2931 1669 
L 4869 1669 
z
M 4869 731 
L 4869 1363 
L 2931 1363 
L 2931 731 
L 4869 731 
z
M 4869 -231 
L 4869 425 
L 2931 425 
L 2931 -231 
L 4869 -231 
z
M 2106 4925 
Q 1856 4075 1463 3338 
L 1463 31 
Q 1463 -413 1481 -850 
Q 1256 -825 1031 -850 
Q 1050 -413 1050 31 
L 1050 2681 
Q 750 2269 375 1931 
Q 238 2156 0 2256 
Q 331 2544 619 2875 
Q 1094 3425 1300 3950 
Q 1494 4469 1625 5050 
Q 1850 4963 2106 4925 
z
" transform="scale(0.015625)"/>
      </defs>
      <use xlink:href="#WenQuanYiZenHei-5b9e"/>
      <use xlink:href="#WenQuanYiZenHei-9645" x="100"/>
      <use xlink:href="#WenQuanYiZenHei-503c" x="200"/>
     </g>
    </g>
    <g id="line2d_23">
     <path d="M 1304.390625 63.3735 
L 1314.390625 63.3735 
L 1324.390625 63.3735 
" style="fill: none; stroke: #ffa500; stroke-width: 1.5; stroke-linecap: square"/>
    </g>
    <g id="text_21">
     <!-- 校验值 -->
     <g transform="translate(1332.390625 66.8735)scale(0.1 -0.1)">
      <defs>
       <path id="WenQuanYiZenHei-6821" d="M 5256 2463 
Q 5025 1475 4494 706 
Q 5125 -94 6175 -544 
Q 5950 -663 5850 -900 
Q 4906 -494 4250 381 
Q 3931 0 3475 -350 
Q 3019 -700 2388 -919 
Q 2338 -656 2138 -475 
Q 3306 -69 4006 738 
Q 3563 1444 3300 2331 
Q 3050 2050 2706 1800 
Q 2606 2000 2406 2106 
Q 2900 2444 3181 2938 
Q 3350 3225 3488 3538 
Q 3700 3431 3925 3369 
Q 3763 2894 3425 2475 
L 3650 2531 
Q 3888 1675 4244 1075 
Q 4469 1444 4603 1937 
Q 4738 2431 4775 2688 
Q 4963 2644 5150 2625 
Q 4919 2969 4663 3294 
L 5038 3588 
Q 5544 2925 5975 2213 
L 5569 1969 
L 5256 2463 
z
M 6006 4050 
Q 5988 3881 6006 3713 
Q 5694 3725 5381 3725 
L 3413 3725 
Q 3100 3725 2788 3713 
Q 2806 3881 2788 4050 
Q 3100 4031 3413 4031 
L 4325 4031 
Q 4019 4525 3644 4969 
L 4000 5275 
Q 4413 4788 4750 4244 
L 4406 4031 
L 5381 4031 
Q 5694 4031 6006 4050 
z
M 406 263 
Q 238 431 -25 469 
Q 194 825 466 1337 
Q 738 1850 925 2406 
Q 1113 2963 1256 3519 
L 825 3519 
Q 506 3519 188 3500 
Q 206 3700 188 3900 
Q 506 3881 825 3881 
L 1363 3881 
L 1363 4263 
Q 1363 4719 1338 5175 
Q 1556 5150 1775 5175 
Q 1756 4719 1756 4263 
L 1756 3881 
L 2525 3900 
Q 2506 3700 2525 3500 
L 1756 3519 
L 1756 2738 
L 1931 2881 
Q 2306 2300 2613 1650 
L 2231 1413 
Q 2081 1725 1919 2019 
L 1756 2300 
L 1756 69 
Q 1756 -388 1775 -850 
Q 1556 -825 1338 -850 
Q 1363 -388 1363 69 
L 1363 2438 
Q 925 1144 406 263 
z
" transform="scale(0.015625)"/>
       <path id="WenQuanYiZenHei-9a8c" d="M 5981 -106 
Q 5963 -275 5981 -444 
Q 5669 -431 5356 -431 
L 2969 -431 
Q 2656 -431 2350 -444 
Q 2363 -275 2350 -106 
Q 2656 -125 2969 -125 
L 4369 -125 
Q 4600 431 4881 1288 
L 5206 2300 
Q 5425 2206 5663 2163 
Q 5375 1188 4831 -125 
L 5356 -125 
Q 5669 -125 5981 -106 
z
M 4063 594 
Q 3788 1425 3425 2219 
L 3856 2419 
Q 4225 1600 4513 744 
L 4063 594 
z
M 3163 363 
Q 2931 1200 2613 2006 
L 3056 2175 
Q 3381 1350 3619 488 
L 3163 363 
z
M 4581 2550 
L 3513 2550 
Q 3200 2550 2888 2538 
Q 2900 2663 2894 2769 
Q 2569 2488 2206 2300 
Q 2113 2550 1894 2700 
Q 2488 2975 2975 3463 
Q 3269 3756 3394 4006 
Q 3644 4513 3794 5063 
Q 4038 4975 4294 4931 
Q 4250 4806 4206 4681 
Q 4475 3888 5025 3388 
Q 5519 2938 6169 2650 
Q 5938 2538 5838 2300 
Q 5513 2456 5200 2700 
Q 5200 2619 5206 2538 
Q 4894 2550 4581 2550 
z
M 3513 2863 
L 4994 2869 
Q 4344 3438 3988 4194 
Q 3594 3406 3013 2869 
Q 3263 2863 3513 2863 
z
M 206 444 
Q 188 756 44 963 
Q 319 956 650 1003 
Q 981 1050 1731 1281 
L 1738 1006 
Q 800 719 206 444 
z
M 525 4000 
Q 744 3950 994 3944 
Q 925 3519 875 3081 
L 763 2144 
L 1475 2144 
L 1831 4444 
L 663 4444 
Q 350 4444 38 4431 
Q 56 4600 38 4769 
Q 350 4756 663 4756 
L 2313 4756 
L 1913 2144 
L 2375 2144 
L 2200 -200 
Q 2188 -425 1988 -588 
Q 1694 -800 1181 -788 
L 944 -788 
Q 1000 -450 788 -269 
Q 1013 -294 1334 -287 
Q 1656 -281 1715 -243 
Q 1775 -206 1781 -50 
L 1925 1831 
L 294 1831 
L 444 3131 
Q 500 3569 525 4000 
z
" transform="scale(0.015625)"/>
      </defs>
      <use xlink:href="#WenQuanYiZenHei-6821"/>
      <use xlink:href="#WenQuanYiZenHei-9a8c" x="100"/>
      <use xlink:href="#WenQuanYiZenHei-503c" x="200"/>
     </g>
    </g>
    <g id="line2d_24">
     <path d="M 1304.390625 77.895375 
L 1314.390625 77.895375 
L 1324.390625 77.895375 
" style="fill: none; stroke: #ff0000; stroke-width: 1.5; stroke-linecap: square"/>
    </g>
    <g id="text_22">
     <!-- 预测值 -->
     <g transform="translate(1332.390625 81.395375)scale(0.1 -0.1)">
      <use xlink:href="#WenQuanYiZenHei-9884"/>
      <use xlink:href="#WenQuanYiZenHei-6d4b" x="100"/>
      <use xlink:href="#WenQuanYiZenHei-503c" x="200"/>
     </g>
    </g>
   </g>
  </g>
 </g>
 <defs>
  <clipPath id="p4c3488151f">
   <rect x="32.190625" y="35.061" width="1339.2" height="332.64"/>
  </clipPath>
 </defs>
</svg>
