<?xml version="1.0" encoding="utf-8" standalone="no"?>
<!DOCTYPE svg PUBLIC "-//W3C//DTD SVG 1.1//EN"
  "http://www.w3.org/Graphics/SVG/1.1/DTD/svg11.dtd">
<svg xmlns:xlink="http://www.w3.org/1999/xlink" width="1384.5875pt" height="390.337563pt" viewBox="0 0 1384.5875 390.337563" xmlns="http://www.w3.org/2000/svg" version="1.1">
 <metadata>
  <rdf:RDF xmlns:dc="http://purl.org/dc/elements/1.1/" xmlns:cc="http://creativecommons.org/ns#" xmlns:rdf="http://www.w3.org/1999/02/22-rdf-syntax-ns#">
   <cc:Work>
    <dc:type rdf:resource="http://purl.org/dc/dcmitype/StillImage"/>
    <dc:date>2022-07-01T18:20:32.944800</dc:date>
    <dc:format>image/svg+xml</dc:format>
    <dc:creator>
     <cc:Agent>
      <dc:title>Matplotlib v3.5.2, https://matplotlib.org/</dc:title>
     </cc:Agent>
    </dc:creator>
   </cc:Work>
  </rdf:RDF>
 </metadata>
 <defs>
  <style type="text/css">*{stroke-linejoin: round; stroke-linecap: butt}</style>
 </defs>
 <g id="figure_1">
  <g id="patch_1">
   <path d="M 0 390.337563 
L 1384.5875 390.337563 
L 1384.5875 0 
L 0 0 
z
" style="fill: #ffffff"/>
  </g>
  <g id="axes_1">
   <g id="patch_2">
    <path d="M 38.1875 367.620375 
L 1377.3875 367.620375 
L 1377.3875 34.980375 
L 38.1875 34.980375 
z
" style="fill: #ffffff"/>
   </g>
   <g id="matplotlib.axis_1">
    <g id="xtick_1">
     <g id="line2d_1">
      <defs>
       <path id="m5ad8ff0a0e" d="M 0 0 
L 0 3.5 
" style="stroke: #000000; stroke-width: 0.8"/>
      </defs>
      <g>
       <use xlink:href="#m5ad8ff0a0e" x="70.747331" y="367.620375" style="stroke: #000000; stroke-width: 0.8"/>
      </g>
     </g>
     <g id="text_1">
      <!-- 2020-01 -->
      <g transform="translate(51.257487 381.476625)scale(0.1 -0.1)">
       <defs>
        <path id="WenQuanYiZenHei-32" d="M 3488 0 
L 369 0 
L 369 456 
L 2150 1850 
Q 2931 2463 2931 3144 
Q 2931 3619 2488 3863 
Q 2231 4013 1931 4013 
Q 1425 4013 1113 3619 
Q 894 3356 881 3013 
L 369 3169 
Q 531 3981 1213 4300 
Q 1544 4456 1950 4456 
Q 2631 4456 3088 4044 
L 3225 3888 
L 3350 3706 
Q 3481 3444 3481 3144 
Q 3481 2313 2519 1569 
L 1069 456 
L 3488 456 
L 3488 0 
z
" transform="scale(0.015625)"/>
        <path id="WenQuanYiZenHei-30" d="M 3581 2175 
Q 3581 1288 3169 638 
Q 2713 -63 1938 -63 
Q 1025 -63 563 831 
Q 256 1425 256 2188 
Q 256 3188 700 3819 
Q 1138 4456 1888 4456 
Q 2863 4456 3306 3500 
Q 3581 2925 3581 2175 
z
M 3019 2100 
Q 3019 3356 2500 3806 
L 2350 3919 
Q 2144 4031 1888 4031 
Q 1100 4031 888 2956 
Q 819 2625 819 2225 
Q 819 1013 1338 569 
Q 1588 356 1938 356 
Q 2675 356 2925 1294 
Q 3019 1663 3019 2100 
z
" transform="scale(0.015625)"/>
        <path id="WenQuanYiZenHei-2d" d="M 1363 1444 
L 0 1444 
L 0 1844 
L 1363 1844 
L 1363 1444 
z
" transform="scale(0.015625)"/>
        <path id="WenQuanYiZenHei-31" d="M 3556 0 
L 488 0 
L 488 406 
L 1800 406 
L 1800 3725 
Q 1231 3125 588 2788 
L 588 3338 
Q 1456 3781 1931 4388 
L 2331 4388 
L 2331 406 
L 3556 406 
L 3556 0 
z
" transform="scale(0.015625)"/>
       </defs>
       <use xlink:href="#WenQuanYiZenHei-32"/>
       <use xlink:href="#WenQuanYiZenHei-30" x="59.960938"/>
       <use xlink:href="#WenQuanYiZenHei-32" x="119.921875"/>
       <use xlink:href="#WenQuanYiZenHei-30" x="179.882812"/>
       <use xlink:href="#WenQuanYiZenHei-2d" x="239.84375"/>
       <use xlink:href="#WenQuanYiZenHei-30" x="269.824219"/>
       <use xlink:href="#WenQuanYiZenHei-31" x="329.785156"/>
      </g>
     </g>
    </g>
    <g id="xtick_2">
     <g id="line2d_2">
      <g>
       <use xlink:href="#m5ad8ff0a0e" x="193.436549" y="367.620375" style="stroke: #000000; stroke-width: 0.8"/>
      </g>
     </g>
     <g id="text_2">
      <!-- 2020-04 -->
      <g transform="translate(173.946705 381.476625)scale(0.1 -0.1)">
       <defs>
        <path id="WenQuanYiZenHei-34" d="M 3631 1025 
L 2913 1025 
L 2913 0 
L 2381 0 
L 2381 1025 
L 219 1025 
L 219 1388 
L 2225 4388 
L 2913 4388 
L 2913 1444 
L 3631 1444 
L 3631 1025 
z
M 2381 1444 
L 2381 3963 
L 788 1444 
L 2381 1444 
z
" transform="scale(0.015625)"/>
       </defs>
       <use xlink:href="#WenQuanYiZenHei-32"/>
       <use xlink:href="#WenQuanYiZenHei-30" x="59.960938"/>
       <use xlink:href="#WenQuanYiZenHei-32" x="119.921875"/>
       <use xlink:href="#WenQuanYiZenHei-30" x="179.882812"/>
       <use xlink:href="#WenQuanYiZenHei-2d" x="239.84375"/>
       <use xlink:href="#WenQuanYiZenHei-30" x="269.824219"/>
       <use xlink:href="#WenQuanYiZenHei-34" x="329.785156"/>
      </g>
     </g>
    </g>
    <g id="xtick_3">
     <g id="line2d_3">
      <g>
       <use xlink:href="#m5ad8ff0a0e" x="316.125766" y="367.620375" style="stroke: #000000; stroke-width: 0.8"/>
      </g>
     </g>
     <g id="text_3">
      <!-- 2020-07 -->
      <g transform="translate(296.635923 381.476625)scale(0.1 -0.1)">
       <defs>
        <path id="WenQuanYiZenHei-37" d="M 3400 4056 
Q 1838 2175 1838 0 
L 1275 0 
Q 1269 1438 2056 2825 
Q 2381 3400 2825 3913 
L 444 3913 
L 500 4388 
L 3400 4388 
L 3400 4056 
z
" transform="scale(0.015625)"/>
       </defs>
       <use xlink:href="#WenQuanYiZenHei-32"/>
       <use xlink:href="#WenQuanYiZenHei-30" x="59.960938"/>
       <use xlink:href="#WenQuanYiZenHei-32" x="119.921875"/>
       <use xlink:href="#WenQuanYiZenHei-30" x="179.882812"/>
       <use xlink:href="#WenQuanYiZenHei-2d" x="239.84375"/>
       <use xlink:href="#WenQuanYiZenHei-30" x="269.824219"/>
       <use xlink:href="#WenQuanYiZenHei-37" x="329.785156"/>
      </g>
     </g>
    </g>
    <g id="xtick_4">
     <g id="line2d_4">
      <g>
       <use xlink:href="#m5ad8ff0a0e" x="440.163217" y="367.620375" style="stroke: #000000; stroke-width: 0.8"/>
      </g>
     </g>
     <g id="text_4">
      <!-- 2020-10 -->
      <g transform="translate(420.673374 381.476625)scale(0.1 -0.1)">
       <use xlink:href="#WenQuanYiZenHei-32"/>
       <use xlink:href="#WenQuanYiZenHei-30" x="59.960938"/>
       <use xlink:href="#WenQuanYiZenHei-32" x="119.921875"/>
       <use xlink:href="#WenQuanYiZenHei-30" x="179.882812"/>
       <use xlink:href="#WenQuanYiZenHei-2d" x="239.84375"/>
       <use xlink:href="#WenQuanYiZenHei-31" x="269.824219"/>
       <use xlink:href="#WenQuanYiZenHei-30" x="329.785156"/>
      </g>
     </g>
    </g>
    <g id="xtick_5">
     <g id="line2d_5">
      <g>
       <use xlink:href="#m5ad8ff0a0e" x="564.200668" y="367.620375" style="stroke: #000000; stroke-width: 0.8"/>
      </g>
     </g>
     <g id="text_5">
      <!-- 2021-01 -->
      <g transform="translate(544.710824 381.476625)scale(0.1 -0.1)">
       <use xlink:href="#WenQuanYiZenHei-32"/>
       <use xlink:href="#WenQuanYiZenHei-30" x="59.960938"/>
       <use xlink:href="#WenQuanYiZenHei-32" x="119.921875"/>
       <use xlink:href="#WenQuanYiZenHei-31" x="179.882812"/>
       <use xlink:href="#WenQuanYiZenHei-2d" x="239.84375"/>
       <use xlink:href="#WenQuanYiZenHei-30" x="269.824219"/>
       <use xlink:href="#WenQuanYiZenHei-31" x="329.785156"/>
      </g>
     </g>
    </g>
    <g id="xtick_6">
     <g id="line2d_6">
      <g>
       <use xlink:href="#m5ad8ff0a0e" x="685.541653" y="367.620375" style="stroke: #000000; stroke-width: 0.8"/>
      </g>
     </g>
     <g id="text_6">
      <!-- 2021-04 -->
      <g transform="translate(666.051809 381.476625)scale(0.1 -0.1)">
       <use xlink:href="#WenQuanYiZenHei-32"/>
       <use xlink:href="#WenQuanYiZenHei-30" x="59.960938"/>
       <use xlink:href="#WenQuanYiZenHei-32" x="119.921875"/>
       <use xlink:href="#WenQuanYiZenHei-31" x="179.882812"/>
       <use xlink:href="#WenQuanYiZenHei-2d" x="239.84375"/>
       <use xlink:href="#WenQuanYiZenHei-30" x="269.824219"/>
       <use xlink:href="#WenQuanYiZenHei-34" x="329.785156"/>
      </g>
     </g>
    </g>
    <g id="xtick_7">
     <g id="line2d_7">
      <g>
       <use xlink:href="#m5ad8ff0a0e" x="808.230871" y="367.620375" style="stroke: #000000; stroke-width: 0.8"/>
      </g>
     </g>
     <g id="text_7">
      <!-- 2021-07 -->
      <g transform="translate(788.741027 381.476625)scale(0.1 -0.1)">
       <use xlink:href="#WenQuanYiZenHei-32"/>
       <use xlink:href="#WenQuanYiZenHei-30" x="59.960938"/>
       <use xlink:href="#WenQuanYiZenHei-32" x="119.921875"/>
       <use xlink:href="#WenQuanYiZenHei-31" x="179.882812"/>
       <use xlink:href="#WenQuanYiZenHei-2d" x="239.84375"/>
       <use xlink:href="#WenQuanYiZenHei-30" x="269.824219"/>
       <use xlink:href="#WenQuanYiZenHei-37" x="329.785156"/>
      </g>
     </g>
    </g>
    <g id="xtick_8">
     <g id="line2d_8">
      <g>
       <use xlink:href="#m5ad8ff0a0e" x="932.268322" y="367.620375" style="stroke: #000000; stroke-width: 0.8"/>
      </g>
     </g>
     <g id="text_8">
      <!-- 2021-10 -->
      <g transform="translate(912.778478 381.476625)scale(0.1 -0.1)">
       <use xlink:href="#WenQuanYiZenHei-32"/>
       <use xlink:href="#WenQuanYiZenHei-30" x="59.960938"/>
       <use xlink:href="#WenQuanYiZenHei-32" x="119.921875"/>
       <use xlink:href="#WenQuanYiZenHei-31" x="179.882812"/>
       <use xlink:href="#WenQuanYiZenHei-2d" x="239.84375"/>
       <use xlink:href="#WenQuanYiZenHei-31" x="269.824219"/>
       <use xlink:href="#WenQuanYiZenHei-30" x="329.785156"/>
      </g>
     </g>
    </g>
    <g id="xtick_9">
     <g id="line2d_9">
      <g>
       <use xlink:href="#m5ad8ff0a0e" x="1056.305772" y="367.620375" style="stroke: #000000; stroke-width: 0.8"/>
      </g>
     </g>
     <g id="text_9">
      <!-- 2022-01 -->
      <g transform="translate(1036.815929 381.476625)scale(0.1 -0.1)">
       <use xlink:href="#WenQuanYiZenHei-32"/>
       <use xlink:href="#WenQuanYiZenHei-30" x="59.960938"/>
       <use xlink:href="#WenQuanYiZenHei-32" x="119.921875"/>
       <use xlink:href="#WenQuanYiZenHei-32" x="179.882812"/>
       <use xlink:href="#WenQuanYiZenHei-2d" x="239.84375"/>
       <use xlink:href="#WenQuanYiZenHei-30" x="269.824219"/>
       <use xlink:href="#WenQuanYiZenHei-31" x="329.785156"/>
      </g>
     </g>
    </g>
    <g id="xtick_10">
     <g id="line2d_10">
      <g>
       <use xlink:href="#m5ad8ff0a0e" x="1177.646757" y="367.620375" style="stroke: #000000; stroke-width: 0.8"/>
      </g>
     </g>
     <g id="text_10">
      <!-- 2022-04 -->
      <g transform="translate(1158.156913 381.476625)scale(0.1 -0.1)">
       <use xlink:href="#WenQuanYiZenHei-32"/>
       <use xlink:href="#WenQuanYiZenHei-30" x="59.960938"/>
       <use xlink:href="#WenQuanYiZenHei-32" x="119.921875"/>
       <use xlink:href="#WenQuanYiZenHei-32" x="179.882812"/>
       <use xlink:href="#WenQuanYiZenHei-2d" x="239.84375"/>
       <use xlink:href="#WenQuanYiZenHei-30" x="269.824219"/>
       <use xlink:href="#WenQuanYiZenHei-34" x="329.785156"/>
      </g>
     </g>
    </g>
    <g id="xtick_11">
     <g id="line2d_11">
      <g>
       <use xlink:href="#m5ad8ff0a0e" x="1300.335975" y="367.620375" style="stroke: #000000; stroke-width: 0.8"/>
      </g>
     </g>
     <g id="text_11">
      <!-- 2022-07 -->
      <g transform="translate(1280.846131 381.476625)scale(0.1 -0.1)">
       <use xlink:href="#WenQuanYiZenHei-32"/>
       <use xlink:href="#WenQuanYiZenHei-30" x="59.960938"/>
       <use xlink:href="#WenQuanYiZenHei-32" x="119.921875"/>
       <use xlink:href="#WenQuanYiZenHei-32" x="179.882812"/>
       <use xlink:href="#WenQuanYiZenHei-2d" x="239.84375"/>
       <use xlink:href="#WenQuanYiZenHei-30" x="269.824219"/>
       <use xlink:href="#WenQuanYiZenHei-37" x="329.785156"/>
      </g>
     </g>
    </g>
   </g>
   <g id="matplotlib.axis_2">
    <g id="ytick_1">
     <g id="line2d_12">
      <defs>
       <path id="m4cbfea1c22" d="M 0 0 
L -3.5 0 
" style="stroke: #000000; stroke-width: 0.8"/>
      </defs>
      <g>
       <use xlink:href="#m4cbfea1c22" x="38.1875" y="353.45552" style="stroke: #000000; stroke-width: 0.8"/>
      </g>
     </g>
     <g id="text_12">
      <!-- 0 -->
      <g transform="translate(25.190625 356.883645)scale(0.1 -0.1)">
       <use xlink:href="#WenQuanYiZenHei-30"/>
      </g>
     </g>
    </g>
    <g id="ytick_2">
     <g id="line2d_13">
      <g>
       <use xlink:href="#m4cbfea1c22" x="38.1875" y="305.69825" style="stroke: #000000; stroke-width: 0.8"/>
      </g>
     </g>
     <g id="text_13">
      <!-- 500 -->
      <g transform="translate(13.196875 309.126375)scale(0.1 -0.1)">
       <defs>
        <path id="WenQuanYiZenHei-35" d="M 3531 1488 
Q 3531 688 2913 250 
Q 2456 -63 1844 -63 
Q 1175 -63 706 350 
Q 413 613 306 975 
L 781 1131 
Q 1000 538 1569 406 
Q 1706 369 1856 369 
Q 2550 369 2850 869 
Q 3000 1131 3000 1494 
Q 3000 2056 2581 2356 
Q 2319 2538 1969 2538 
Q 1400 2538 1031 2075 
Q 981 2013 938 1938 
L 500 2031 
L 644 4388 
L 3244 4388 
L 3200 3919 
L 1044 3919 
L 950 2500 
Q 1431 2975 2006 2975 
Q 2713 2975 3163 2475 
Q 3531 2063 3531 1488 
z
" transform="scale(0.015625)"/>
       </defs>
       <use xlink:href="#WenQuanYiZenHei-35"/>
       <use xlink:href="#WenQuanYiZenHei-30" x="59.960938"/>
       <use xlink:href="#WenQuanYiZenHei-30" x="119.921875"/>
      </g>
     </g>
    </g>
    <g id="ytick_3">
     <g id="line2d_14">
      <g>
       <use xlink:href="#m4cbfea1c22" x="38.1875" y="257.940979" style="stroke: #000000; stroke-width: 0.8"/>
      </g>
     </g>
     <g id="text_14">
      <!-- 1000 -->
      <g transform="translate(7.2 261.369104)scale(0.1 -0.1)">
       <use xlink:href="#WenQuanYiZenHei-31"/>
       <use xlink:href="#WenQuanYiZenHei-30" x="59.960938"/>
       <use xlink:href="#WenQuanYiZenHei-30" x="119.921875"/>
       <use xlink:href="#WenQuanYiZenHei-30" x="179.882812"/>
      </g>
     </g>
    </g>
    <g id="ytick_4">
     <g id="line2d_15">
      <g>
       <use xlink:href="#m4cbfea1c22" x="38.1875" y="210.183708" style="stroke: #000000; stroke-width: 0.8"/>
      </g>
     </g>
     <g id="text_15">
      <!-- 1500 -->
      <g transform="translate(7.2 213.611833)scale(0.1 -0.1)">
       <use xlink:href="#WenQuanYiZenHei-31"/>
       <use xlink:href="#WenQuanYiZenHei-35" x="59.960938"/>
       <use xlink:href="#WenQuanYiZenHei-30" x="119.921875"/>
       <use xlink:href="#WenQuanYiZenHei-30" x="179.882812"/>
      </g>
     </g>
    </g>
    <g id="ytick_5">
     <g id="line2d_16">
      <g>
       <use xlink:href="#m4cbfea1c22" x="38.1875" y="162.426437" style="stroke: #000000; stroke-width: 0.8"/>
      </g>
     </g>
     <g id="text_16">
      <!-- 2000 -->
      <g transform="translate(7.2 165.854562)scale(0.1 -0.1)">
       <use xlink:href="#WenQuanYiZenHei-32"/>
       <use xlink:href="#WenQuanYiZenHei-30" x="59.960938"/>
       <use xlink:href="#WenQuanYiZenHei-30" x="119.921875"/>
       <use xlink:href="#WenQuanYiZenHei-30" x="179.882812"/>
      </g>
     </g>
    </g>
    <g id="ytick_6">
     <g id="line2d_17">
      <g>
       <use xlink:href="#m4cbfea1c22" x="38.1875" y="114.669167" style="stroke: #000000; stroke-width: 0.8"/>
      </g>
     </g>
     <g id="text_17">
      <!-- 2500 -->
      <g transform="translate(7.2 118.097292)scale(0.1 -0.1)">
       <use xlink:href="#WenQuanYiZenHei-32"/>
       <use xlink:href="#WenQuanYiZenHei-35" x="59.960938"/>
       <use xlink:href="#WenQuanYiZenHei-30" x="119.921875"/>
       <use xlink:href="#WenQuanYiZenHei-30" x="179.882812"/>
      </g>
     </g>
    </g>
    <g id="ytick_7">
     <g id="line2d_18">
      <g>
       <use xlink:href="#m4cbfea1c22" x="38.1875" y="66.911896" style="stroke: #000000; stroke-width: 0.8"/>
      </g>
     </g>
     <g id="text_18">
      <!-- 3000 -->
      <g transform="translate(7.2 70.340021)scale(0.1 -0.1)">
       <defs>
        <path id="WenQuanYiZenHei-33" d="M 3588 1231 
Q 3588 494 2875 144 
Q 2450 -63 1925 -63 
Q 1044 -63 556 488 
Q 356 706 256 1000 
L 769 1169 
Q 994 375 1913 375 
Q 2631 375 2900 788 
Q 3019 975 3019 1231 
Q 3019 1638 2638 1881 
Q 2325 2081 1613 2069 
L 1338 2069 
L 1338 2494 
Q 1969 2494 2094 2506 
Q 2325 2544 2463 2613 
Q 2763 2756 2844 3100 
Q 2863 3169 2863 3244 
Q 2863 3744 2381 3944 
L 2163 4006 
Q 2056 4025 1931 4025 
Q 1388 4025 1075 3631 
Q 969 3488 906 3313 
L 419 3456 
Q 675 4150 1400 4369 
Q 1669 4456 1975 4456 
Q 2694 4456 3106 4050 
Q 3419 3744 3419 3275 
Q 3419 2813 3025 2513 
Q 2825 2356 2575 2319 
L 2575 2306 
Q 3181 2213 3450 1769 
Q 3588 1525 3588 1231 
z
" transform="scale(0.015625)"/>
       </defs>
       <use xlink:href="#WenQuanYiZenHei-33"/>
       <use xlink:href="#WenQuanYiZenHei-30" x="59.960938"/>
       <use xlink:href="#WenQuanYiZenHei-30" x="119.921875"/>
       <use xlink:href="#WenQuanYiZenHei-30" x="179.882812"/>
      </g>
     </g>
    </g>
   </g>
   <g id="line2d_19">
    <path d="M 99.060227 352.500375 
L 103.104927 347.533619 
L 104.45316 343.522008 
L 105.801393 341.229659 
L 107.149626 336.931505 
L 111.194326 302.068697 
L 115.239025 284.302992 
L 116.587258 274.273966 
L 117.935492 267.970006 
L 119.283725 262.334648 
L 120.631958 257.367892 
L 121.980191 253.356281 
L 123.328424 250.777388 
L 124.676657 249.153641 
L 126.024891 246.765778 
L 128.721357 244.09137 
L 130.06959 243.136225 
L 131.417823 242.467623 
L 134.114289 241.607992 
L 138.158989 241.225934 
L 139.507222 238.551527 
L 140.855455 238.360498 
L 152.989554 238.264983 
L 154.337787 237.596382 
L 155.68602 237.596382 
L 157.034253 237.405353 
L 167.820119 237.405353 
L 169.168352 236.259178 
L 170.516585 235.87712 
L 174.561284 235.781605 
L 178.605984 235.399547 
L 179.954217 235.208518 
L 181.30245 235.208518 
L 186.695383 234.348887 
L 189.391849 233.680285 
L 196.133015 233.107198 
L 198.829481 232.820655 
L 205.570647 232.438596 
L 294.554036 232.343082 
L 297.250502 232.247567 
L 364.66216 232.152053 
L 372.751559 231.67448 
L 379.492725 231.67448 
L 380.840958 231.483451 
L 413.198554 231.387936 
L 414.546787 231.196907 
L 417.243254 231.101393 
L 419.93972 231.005878 
L 477.913746 230.910364 
L 479.261979 230.62382 
L 486.003145 230.528306 
L 492.744311 230.146247 
L 507.574875 230.050733 
L 510.271342 229.955218 
L 527.798373 229.859704 
L 530.494839 229.764189 
L 537.236005 229.668675 
L 539.932471 229.57316 
L 545.325404 229.477646 
L 548.02187 229.382131 
L 554.763036 229.286616 
L 558.807736 228.809044 
L 561.504202 228.713529 
L 573.6383 228.713529 
L 574.986534 228.5225 
L 584.424166 228.426986 
L 589.817098 227.758384 
L 615.433528 227.662869 
L 616.781762 227.376326 
L 645.094658 227.280811 
L 647.791124 227.185297 
L 688.238119 227.089782 
L 690.934585 226.994268 
L 699.023984 226.898753 
L 700.372218 226.707724 
L 708.461617 226.612209 
L 711.158083 226.516695 
L 712.506316 226.516695 
L 713.854549 226.325666 
L 720.595715 226.230151 
L 721.943948 225.179491 
L 732.729814 225.083977 
L 736.774513 224.892948 
L 744.863912 224.797433 
L 746.212145 224.033317 
L 748.908611 223.937802 
L 750.256845 223.460229 
L 756.99801 223.364715 
L 759.694477 223.2692 
L 769.132109 223.173686 
L 775.873275 222.791628 
L 778.569741 222.696113 
L 785.310907 222.314055 
L 788.007373 222.314055 
L 789.355606 222.027511 
L 793.400306 221.740968 
L 794.748539 221.35891 
L 798.793238 221.263395 
L 801.489705 221.16788 
L 824.409669 221.072366 
L 828.454368 220.499279 
L 845.981399 220.403764 
L 848.677865 220.117221 
L 851.374332 220.117221 
L 852.722565 219.926191 
L 858.115498 219.830677 
L 860.811964 219.735162 
L 862.160197 218.588988 
L 867.55313 218.588988 
L 868.901363 218.111415 
L 874.294296 218.015901 
L 875.642529 217.824872 
L 878.338995 217.729357 
L 879.687228 217.060755 
L 886.428394 216.965241 
L 893.16956 216.583182 
L 894.517793 216.201124 
L 899.910726 216.10561 
L 902.607192 216.010095 
L 909.348358 215.914581 
L 913.393057 215.723552 
L 914.74129 215.723552 
L 917.437757 215.341493 
L 928.223622 215.245979 
L 932.268322 215.05495 
L 937.661254 214.959435 
L 940.35772 214.863921 
L 945.750653 214.768406 
L 953.840052 214.290833 
L 960.581218 214.290833 
L 961.929451 213.526717 
L 965.974151 213.526717 
L 967.322384 212.762601 
L 968.670617 212.571572 
L 971.367083 211.807455 
L 972.715316 210.947825 
L 974.06355 210.661281 
L 976.760016 210.565766 
L 986.197648 210.470252 
L 990.242347 210.279223 
L 999.67998 210.183708 
L 1002.376446 210.088194 
L 1021.25171 209.992679 
L 1022.599943 209.228563 
L 1023.948177 208.082388 
L 1025.29641 207.509301 
L 1027.992876 200.53674 
L 1029.341109 193.373149 
L 1032.037576 184.681326 
L 1033.385809 179.332511 
L 1034.734042 175.129871 
L 1036.082275 167.775252 
L 1037.430508 164.814301 
L 1040.126974 162.617467 
L 1046.86814 162.044379 
L 1049.564607 161.662321 
L 1052.261073 160.993719 
L 1054.957539 160.898205 
L 1056.305772 160.038574 
L 1057.654006 158.796885 
L 1059.002239 158.223798 
L 1060.350472 158.032769 
L 1061.698705 156.886594 
L 1064.395171 156.122478 
L 1065.743405 155.262847 
L 1067.091638 154.976303 
L 1068.439871 154.307701 
L 1069.788104 154.212187 
L 1072.48457 153.543585 
L 1073.832804 153.257041 
L 1075.181037 153.257041 
L 1076.52927 153.066012 
L 1079.225736 153.066012 
L 1080.573969 152.779469 
L 1081.922203 152.779469 
L 1083.270436 152.58844 
L 1084.618669 152.015352 
L 1088.663368 151.53778 
L 1090.011601 150.582634 
L 1092.708068 147.239625 
L 1095.404534 142.845956 
L 1096.752767 141.604267 
L 1098.101 140.171549 
L 1100.797467 139.885006 
L 1104.842166 139.407433 
L 1108.886866 139.311918 
L 1110.235099 139.025375 
L 1116.976265 138.92986 
L 1118.324498 138.547802 
L 1119.672731 138.547802 
L 1125.065664 137.8792 
L 1129.110363 137.688171 
L 1130.458596 137.306113 
L 1131.80683 137.115084 
L 1137.199762 137.019569 
L 1138.547995 136.159939 
L 1139.896228 135.968909 
L 1141.244462 135.204793 
L 1142.592695 135.109279 
L 1143.940928 134.536191 
L 1145.289161 134.440677 
L 1146.637394 133.86759 
L 1147.985627 132.148328 
L 1149.333861 129.855979 
L 1150.682094 124.698194 
L 1152.030327 123.265475 
L 1153.37856 119.15835 
L 1154.726793 119.15835 
L 1156.075026 112.85439 
L 1157.42326 109.797925 
L 1158.771493 107.601091 
L 1160.119726 104.735654 
L 1161.467959 104.449111 
L 1164.164425 102.252276 
L 1165.512659 101.201616 
L 1166.860892 100.819558 
L 1168.209125 100.246471 
L 1169.557358 100.055442 
L 1172.253824 99.195811 
L 1173.602058 98.431695 
L 1174.950291 97.28552 
L 1176.298524 97.28552 
L 1177.646757 94.420084 
L 1178.99499 93.369424 
L 1180.343223 92.605308 
L 1183.03969 89.357813 
L 1184.387923 88.02061 
L 1185.736156 87.256493 
L 1188.432622 84.295543 
L 1189.780855 83.435912 
L 1193.825555 80.379446 
L 1195.173788 80.379446 
L 1196.522021 77.800554 
L 1197.870254 76.749894 
L 1199.218488 73.502399 
L 1200.566721 73.31137 
L 1201.914954 72.451739 
L 1203.263187 71.974167 
L 1204.61142 70.541449 
L 1205.959653 69.586303 
L 1207.307887 68.440129 
L 1208.65612 67.102925 
L 1210.004353 66.338809 
L 1211.352586 64.715062 
L 1212.700819 60.321393 
L 1214.049052 57.264927 
L 1215.397286 56.500811 
L 1216.745519 56.500811 
L 1218.093752 56.309782 
L 1219.441985 56.309782 
L 1220.790218 56.023238 
L 1222.138451 55.068093 
L 1223.486685 55.068093 
L 1226.183151 54.781549 
L 1231.576084 54.495006 
L 1235.620783 54.495006 
L 1236.969016 54.303977 
L 1242.361949 54.208462 
L 1245.058415 54.112947 
L 1246.406648 54.112947 
L 1247.754881 53.921918 
L 1261.237213 53.826404 
L 1265.281913 53.635375 
L 1273.371312 53.635375 
L 1274.719545 53.348831 
L 1276.067778 53.348831 
L 1280.112477 52.871258 
L 1284.157177 52.871258 
L 1286.853643 52.584715 
L 1289.550109 52.584715 
L 1290.898343 52.393686 
L 1292.246576 52.393686 
L 1294.943042 52.107142 
L 1297.639508 52.107142 
L 1298.987742 51.916113 
L 1298.987742 51.916113 
" clip-path="url(#p4aadc67d4c)" style="fill: none; stroke: #0000ff; stroke-width: 1.5; stroke-linecap: square"/>
   </g>
   <g id="line2d_20">
    <path d="M 1059.002239 157.498496 
L 1060.350472 157.657456 
L 1061.698705 156.006308 
L 1063.046938 155.950627 
L 1064.395171 155.681144 
L 1065.743405 154.547497 
L 1067.091638 154.541854 
L 1068.439871 153.719864 
L 1069.788104 153.946859 
L 1071.136337 153.488333 
L 1073.832804 152.963924 
L 1075.181037 153.155938 
L 1076.52927 152.906001 
L 1079.225736 153.046975 
L 1080.573969 152.585195 
L 1081.922203 152.712459 
L 1083.270436 152.440188 
L 1084.618669 151.588801 
L 1085.966902 151.552057 
L 1087.315135 151.256161 
L 1088.663368 151.440643 
L 1090.011601 149.923436 
L 1091.359835 147.667836 
L 1092.708068 145.668064 
L 1095.404534 140.682525 
L 1096.752767 140.044647 
L 1098.101 138.69506 
L 1099.449234 139.504189 
L 1100.797467 139.562624 
L 1104.842166 139.273583 
L 1107.538633 139.391509 
L 1108.886866 139.243856 
L 1110.235099 138.814191 
L 1111.583332 138.952532 
L 1112.931565 138.842166 
L 1116.976265 138.926262 
L 1118.324498 138.296284 
L 1119.672731 138.461047 
L 1121.020964 138.201711 
L 1122.369197 137.829037 
L 1123.717431 137.987036 
L 1125.065664 137.725366 
L 1126.413897 137.668055 
L 1127.76213 137.743802 
L 1129.110363 137.611845 
L 1130.458596 137.029509 
L 1131.80683 136.894538 
L 1134.503296 137.088845 
L 1135.851529 137.106034 
L 1137.199762 136.953878 
L 1138.547995 135.574156 
L 1139.896228 135.641721 
L 1141.244462 134.591384 
L 1142.592695 134.83513 
L 1143.940928 134.066215 
L 1145.289161 134.216001 
L 1146.637394 133.414678 
L 1147.985627 130.86586 
L 1149.333861 127.911962 
L 1150.682094 120.648914 
L 1152.030327 120.930243 
L 1153.37856 115.662393 
L 1154.726793 117.952511 
L 1156.075026 108.308894 
L 1157.42326 106.227857 
L 1158.771493 104.930595 
L 1160.119726 101.937458 
L 1161.467959 103.296238 
L 1162.816192 102.154451 
L 1165.512659 100.139318 
L 1166.860892 100.202869 
L 1168.209125 99.658344 
L 1169.557358 99.727444 
L 1170.905591 99.151889 
L 1172.253824 98.798603 
L 1173.602058 97.794134 
L 1174.950291 96.314779 
L 1176.298524 96.950688 
L 1177.646757 92.427513 
L 1180.343223 91.630294 
L 1181.691457 89.581577 
L 1183.03969 87.811247 
L 1184.387923 86.611192 
L 1185.736156 86.269797 
L 1188.432622 82.853319 
L 1189.780855 82.375331 
L 1191.129089 81.33117 
L 1192.477322 80.124668 
L 1193.825555 79.431936 
L 1195.173788 80.052628 
L 1196.522021 75.998455 
L 1197.870254 75.440045 
L 1199.218488 70.923245 
L 1200.566721 72.29662 
L 1201.914954 71.538604 
L 1203.263187 71.346358 
L 1204.61142 69.386363 
L 1205.959653 68.562194 
L 1207.307887 67.336057 
L 1208.65612 65.846134 
L 1210.004353 65.404757 
L 1211.352586 63.329207 
L 1212.700819 56.96519 
L 1214.049052 54.105076 
L 1215.397286 54.910348 
L 1216.745519 55.952223 
L 1218.093752 55.995422 
L 1219.441985 56.201352 
L 1220.790218 55.79813 
L 1222.138451 54.364755 
L 1223.486685 54.825495 
L 1224.834918 54.668247 
L 1228.879617 54.64844 
L 1230.22785 54.3569 
L 1232.924317 54.478575 
L 1235.620783 54.493051 
L 1236.969016 54.178164 
L 1239.665482 54.289008 
L 1241.013716 54.14073 
L 1242.361949 54.1851 
L 1243.710182 54.04232 
L 1246.406648 54.104545 
L 1247.754881 53.793881 
L 1250.451348 53.906685 
L 1254.496047 53.921293 
L 1255.84428 53.763619 
L 1261.237213 53.825515 
L 1262.585446 53.668013 
L 1263.933679 53.709202 
L 1265.281913 53.565325 
L 1269.326612 53.6325 
L 1273.371312 53.635257 
L 1274.719545 53.161083 
L 1276.067778 53.284072 
L 1278.764244 52.790767 
L 1280.112477 52.74798 
L 1282.808944 52.856592 
L 1284.157177 52.866199 
L 1285.50541 52.553346 
L 1286.853643 52.47838 
L 1289.550109 52.572064 
L 1290.898343 52.264183 
L 1292.246576 52.349017 
L 1293.594809 52.062111 
L 1294.943042 51.996095 
L 1297.639508 52.093931 
L 1298.987742 51.786417 
L 1298.987742 51.786417 
" clip-path="url(#p4aadc67d4c)" style="fill: none; stroke: #ffa500; stroke-width: 1.5; stroke-linecap: square"/>
   </g>
   <g id="line2d_21">
    <path d="M 1298.987742 51.786417 
L 1300.335975 51.656722 
L 1301.684208 51.527026 
L 1303.032441 51.397331 
L 1304.380674 51.267635 
L 1305.728907 51.13794 
L 1307.077141 51.008244 
L 1308.425374 50.878548 
L 1309.773607 50.748853 
L 1311.12184 50.619157 
L 1312.470073 50.489462 
L 1313.818306 50.359766 
L 1315.16654 50.230071 
L 1316.514773 50.100375 
" clip-path="url(#p4aadc67d4c)" style="fill: none; stroke: #ff0000; stroke-width: 1.5; stroke-linecap: square"/>
   </g>
   <g id="patch_3">
    <path d="M 38.1875 367.620375 
L 38.1875 34.980375 
" style="fill: none; stroke: #000000; stroke-width: 0.8; stroke-linejoin: miter; stroke-linecap: square"/>
   </g>
   <g id="patch_4">
    <path d="M 1377.3875 367.620375 
L 1377.3875 34.980375 
" style="fill: none; stroke: #000000; stroke-width: 0.8; stroke-linejoin: miter; stroke-linecap: square"/>
   </g>
   <g id="patch_5">
    <path d="M 38.1875 367.620375 
L 1377.3875 367.620375 
" style="fill: none; stroke: #000000; stroke-width: 0.8; stroke-linejoin: miter; stroke-linecap: square"/>
   </g>
   <g id="patch_6">
    <path d="M 38.1875 34.980375 
L 1377.3875 34.980375 
" style="fill: none; stroke: #000000; stroke-width: 0.8; stroke-linejoin: miter; stroke-linecap: square"/>
   </g>
   <g id="text_19">
    <!-- 累计确诊预测 - 浙江 -->
    <g transform="translate(654.390313 16.96125)scale(0.12 -0.12)">
     <defs>
      <path id="WenQuanYiZenHei-7d2f" d="M 5963 -681 
Q 5363 -81 4706 456 
L 5000 819 
Q 5675 269 6294 -350 
L 5963 -681 
z
M 1944 738 
Q 2094 556 2281 413 
Q 1575 -356 375 -706 
Q 350 -481 200 -319 
Q 725 -181 1122 69 
Q 1519 319 1944 738 
z
M 3244 -169 
L 3244 1063 
L 869 881 
L 850 1181 
Q 1431 1325 2969 1988 
L 1119 1931 
L 1113 2231 
Q 1350 2263 1862 2497 
Q 2375 2731 2800 2988 
L 1094 2988 
Q 1169 4006 1094 5019 
L 5506 5019 
Q 5425 4006 5500 2988 
L 3431 2988 
Q 3475 2931 3525 2875 
Q 2856 2494 2281 2256 
L 3388 2269 
L 3650 2288 
Q 4338 2606 4650 2800 
Q 4744 2563 4881 2344 
Q 4644 2225 3975 1956 
L 2269 1281 
L 4444 1425 
L 4813 1469 
L 4681 1588 
L 4988 1938 
Q 5481 1500 5863 963 
L 5481 694 
Q 5300 950 5081 1188 
L 4463 1163 
L 3669 1100 
L 3669 -250 
Q 3669 -444 3488 -594 
Q 3225 -819 2569 -813 
Q 2638 -513 2431 -294 
Q 2619 -319 2900 -322 
Q 3181 -325 3212 -294 
Q 3244 -263 3244 -169 
z
M 3513 4131 
L 5081 4131 
L 5081 4725 
L 3513 4725 
L 3513 4131 
z
M 3088 4131 
L 3088 4725 
L 1519 4725 
L 1519 4131 
L 3088 4131 
z
M 3513 3856 
L 3513 3288 
L 5081 3288 
L 5081 3856 
L 3513 3856 
z
M 3088 3856 
L 1519 3856 
L 1519 3288 
L 3088 3288 
L 3088 3856 
z
" transform="scale(0.015625)"/>
      <path id="WenQuanYiZenHei-8ba1" d="M 4569 -769 
Q 4313 -738 4056 -769 
Q 4081 -294 4081 175 
L 4081 2806 
L 3213 2806 
Q 2813 2806 2413 2788 
Q 2438 3000 2413 3219 
Q 2813 3200 3213 3200 
L 4081 3200 
L 4081 4313 
Q 4081 4788 4056 5263 
Q 4313 5231 4569 5263 
Q 4550 4788 4550 4313 
L 4550 3200 
L 5381 3200 
Q 5781 3200 6181 3219 
Q 6163 3000 6181 2788 
Q 5781 2806 5381 2806 
L 4550 2806 
L 4550 175 
Q 4550 -294 4569 -769 
z
M 38 2725 
Q 63 2931 38 3138 
Q 419 3119 800 3119 
L 1481 3119 
L 1481 425 
L 2044 1150 
L 2250 1488 
L 2525 1188 
L 2313 950 
L 1294 -488 
L 963 -231 
Q 1025 -94 1025 63 
L 1025 2744 
L 800 2744 
Q 419 2744 38 2725 
z
M 1450 3913 
Q 1094 4438 600 4831 
L 913 5225 
Q 1488 4769 1869 4194 
L 1450 3913 
z
" transform="scale(0.015625)"/>
      <path id="WenQuanYiZenHei-786e" d="M 4794 -769 
Q 4563 -744 4331 -769 
Q 4350 -344 4350 81 
L 4350 1081 
L 3419 1081 
L 3419 788 
Q 3419 225 3150 -194 
Q 2881 -613 2456 -806 
Q 2375 -569 2150 -444 
Q 2531 -344 2765 -15 
Q 3000 313 3000 788 
L 2994 2919 
L 2888 2813 
Q 2769 3000 2563 3081 
Q 3044 3494 3309 3969 
Q 3575 4444 3763 5119 
Q 3981 5044 4213 5013 
Q 4144 4700 4025 4400 
L 5238 4400 
L 5306 4050 
Q 5213 4031 5163 3947 
Q 5113 3863 4813 3325 
L 5994 3325 
L 5994 -150 
Q 5981 -519 5738 -656 
Q 5469 -806 5069 -806 
Q 5125 -525 4956 -294 
Q 5100 -313 5290 -316 
Q 5481 -319 5525 -278 
Q 5569 -238 5569 25 
L 5569 1081 
L 4769 1081 
L 4769 81 
Q 4769 -344 4794 -769 
z
M 4769 1344 
L 5569 1344 
L 5569 2100 
L 4769 2100 
L 4769 1344 
z
M 4350 1344 
L 4350 2100 
L 3413 2100 
L 3419 1344 
L 4350 1344 
z
M 4769 2363 
L 5569 2363 
L 5569 3038 
L 4769 3038 
L 4769 2363 
z
M 4350 2363 
L 4350 3038 
L 3413 3038 
L 3413 2363 
L 4350 2363 
z
M 3375 3325 
L 4350 3325 
L 4344 3331 
L 4775 4113 
L 3894 4113 
Q 3688 3700 3375 3325 
z
M 481 1069 
Q 281 1194 -25 1188 
Q 775 2750 1244 4294 
L 869 4294 
Q 563 4294 250 4275 
Q 269 4438 250 4594 
Q 563 4581 869 4581 
L 2156 4581 
Q 2463 4581 2775 4594 
Q 2756 4438 2775 4275 
Q 2463 4294 2156 4294 
L 1744 4294 
L 1181 2763 
L 2494 2763 
L 2494 -338 
L 2050 -338 
L 2050 156 
L 1406 156 
Q 1406 -94 1419 -350 
Q 1181 -325 938 -350 
Q 956 75 956 500 
L 956 2181 
L 769 1713 
Q 631 1388 481 1069 
z
M 2050 2475 
L 1400 2475 
L 1400 425 
L 2050 425 
L 2050 2475 
z
" transform="scale(0.015625)"/>
      <path id="WenQuanYiZenHei-8bca" d="M 5369 1456 
Q 5556 1256 5775 1100 
Q 5038 344 4081 -225 
Q 3106 -819 1788 -1006 
Q 1788 -725 1631 -500 
Q 3363 -306 4406 519 
Q 4919 956 5369 1456 
z
M 4594 2219 
Q 4781 2031 5013 1881 
Q 3625 394 2150 -25 
Q 2113 250 1913 444 
Q 2475 594 3015 850 
Q 3556 1106 3919 1463 
Q 4275 1819 4594 2219 
z
M 3969 3188 
Q 4150 3013 4356 2881 
Q 3625 1913 2306 1275 
Q 2244 1500 2056 1644 
Q 2619 1900 3053 2256 
Q 3488 2613 3969 3188 
z
M 5813 2194 
Q 4525 2913 3731 4188 
Q 2919 2844 1813 2163 
Q 1700 2413 1456 2550 
Q 1950 2844 2400 3231 
Q 2850 3619 3113 4063 
Q 3413 4581 3644 5163 
Q 3881 5038 4144 4963 
Q 4056 4775 3963 4594 
Q 4325 3919 4844 3441 
Q 5363 2963 6175 2538 
Q 5931 2431 5813 2194 
z
M 31 2613 
Q 50 2775 31 2938 
Q 325 2925 619 2925 
L 1275 2925 
L 1275 506 
L 1675 1006 
L 1831 1250 
L 2038 1013 
L 1881 838 
L 1100 -256 
L 825 -25 
Q 869 81 869 200 
L 869 2625 
L 31 2613 
z
M 950 3713 
Q 606 4325 200 4881 
L 556 5163 
Q 981 4588 1338 3944 
L 950 3713 
z
" transform="scale(0.015625)"/>
      <path id="WenQuanYiZenHei-9884" d="M 1206 19 
L 1206 2888 
L 669 2888 
Q 356 2888 50 2869 
Q 63 3044 50 3213 
Q 363 3194 669 3194 
L 1250 3194 
Q 950 3631 606 4031 
L 963 4338 
L 1263 3975 
L 1913 4719 
L 731 4719 
Q 419 4719 106 4706 
Q 125 4875 106 5044 
Q 419 5031 731 5031 
L 2481 5031 
L 2544 4663 
Q 2394 4613 2256 4466 
Q 2119 4319 1525 3631 
Q 1656 3444 1788 3250 
L 1700 3194 
L 2700 3194 
L 2763 2825 
Q 2656 2819 2613 2763 
L 2100 2038 
L 1750 2288 
L 2175 2888 
L 1638 2888 
L 1638 -150 
Q 1638 -525 1363 -669 
Q 1075 -819 525 -813 
Q 594 -513 388 -294 
Q 575 -313 837 -316 
Q 1100 -319 1153 -272 
Q 1206 -225 1206 19 
z
M 5813 -888 
Q 5100 -225 4306 375 
L 4669 719 
Q 5481 106 6219 -575 
L 5813 -888 
z
M 2375 -906 
Q 2294 -631 2025 -506 
Q 2769 -431 3353 19 
Q 3938 469 3938 1069 
L 3938 2200 
Q 3938 2625 3913 3050 
Q 4188 3025 4456 3050 
Q 4431 2625 4431 2200 
L 4431 1069 
Q 4431 681 4225 319 
Q 3644 -606 2375 -906 
z
M 3444 488 
Q 3169 513 2894 488 
Q 2919 913 2919 1338 
L 2919 3675 
Q 3219 3675 3525 3675 
Q 3750 4013 3931 4525 
L 3238 4525 
Q 2888 4525 2538 4513 
Q 2556 4669 2538 4831 
Q 2888 4813 3238 4813 
L 5313 4813 
Q 5663 4813 6006 4831 
Q 5988 4669 6006 4513 
Q 5663 4525 5313 4525 
L 4481 4525 
Q 4388 4088 4088 3675 
L 5644 3675 
L 5644 513 
L 5144 513 
L 5144 3388 
L 3894 3388 
L 3875 3363 
Q 3863 3375 3844 3388 
Q 3631 3388 3413 3388 
L 3419 1338 
Q 3419 913 3444 488 
z
" transform="scale(0.015625)"/>
      <path id="WenQuanYiZenHei-6d4b" d="M 5450 138 
L 5450 4306 
Q 5450 4750 5425 5188 
Q 5663 5163 5906 5188 
Q 5881 4750 5881 4306 
L 5881 -38 
Q 5888 -569 5519 -719 
Q 5194 -831 4825 -813 
Q 4894 -519 4694 -281 
Q 4869 -306 5094 -309 
Q 5319 -313 5384 -256 
Q 5450 -200 5450 138 
z
M 4900 938 
Q 4663 963 4419 938 
Q 4444 1375 4444 1819 
L 4444 3381 
Q 4444 3819 4419 4263 
Q 4663 4238 4900 4263 
Q 4875 3819 4875 3381 
L 4875 1819 
Q 4875 1375 4900 938 
z
M 2750 2025 
L 2750 3038 
Q 2750 3481 2725 3919 
Q 2963 3894 3206 3919 
Q 3181 3481 3181 3038 
L 3181 2025 
Q 3181 1263 2919 625 
L 3231 956 
Q 3781 431 4256 -150 
L 3888 -456 
Q 3431 106 2906 600 
Q 2531 -288 1738 -769 
Q 1606 -519 1338 -450 
Q 1988 -156 2369 478 
Q 2750 1113 2750 2025 
z
M 2363 969 
Q 2119 994 1881 969 
Q 1906 1406 1906 1850 
L 1906 5038 
L 3956 5031 
L 3956 1200 
L 3525 1200 
L 3525 4713 
L 2338 4713 
L 2338 1850 
Q 2338 1406 2363 969 
z
M 663 -738 
Q 481 -588 206 -575 
Q 400 -69 606 581 
Q 813 1231 1200 2838 
L 1381 2706 
L 875 338 
L 663 -738 
z
M 1006 2856 
L 731 2550 
L 75 3400 
L 350 3713 
L 1006 2856 
z
M 1088 3913 
Q 781 4388 425 4800 
L 694 5125 
Q 1069 4688 1388 4188 
L 1088 3913 
z
" transform="scale(0.015625)"/>
      <path id="WenQuanYiZenHei-20" transform="scale(0.015625)"/>
      <path id="WenQuanYiZenHei-6d59" d="M 5488 -769 
Q 5256 -744 5019 -769 
Q 5038 -331 5038 100 
L 5038 3000 
L 4338 3000 
L 4338 2269 
Q 4338 1438 4172 744 
Q 4006 50 3556 -556 
Q 3356 -375 3088 -400 
Q 3563 119 3734 759 
Q 3906 1400 3906 2269 
L 3906 4619 
L 4031 4619 
L 4025 4625 
Q 4488 4656 4863 4803 
Q 5238 4950 5675 5225 
Q 5788 5019 5938 4838 
Q 5294 4369 4338 4231 
L 4338 3306 
L 5538 3306 
Q 5850 3306 6163 3325 
Q 6144 3156 6163 2988 
L 5469 3000 
L 5469 100 
Q 5469 -331 5488 -769 
z
M 2538 169 
L 2538 1844 
Q 2169 1631 1806 1394 
Q 1750 1669 1563 1875 
Q 2031 1975 2538 2194 
L 2538 3544 
L 1681 3531 
Q 1700 3700 1681 3869 
L 2538 3856 
L 2538 4388 
Q 2538 4825 2513 5256 
Q 2750 5231 2988 5256 
Q 2963 4825 2963 4388 
L 2963 3856 
L 3594 3869 
Q 3575 3700 3594 3531 
L 2963 3544 
L 2963 2388 
L 3469 2650 
L 3525 2381 
L 2963 2081 
L 2963 -38 
Q 2975 -638 2475 -756 
Q 2256 -813 1938 -806 
Q 2000 -513 1806 -288 
Q 1981 -306 2197 -309 
Q 2413 -313 2475 -253 
Q 2538 -194 2538 169 
z
M 775 -738 
Q 563 -588 244 -575 
Q 469 -69 709 581 
Q 950 1231 1406 2838 
L 1619 2706 
L 1025 338 
L 775 -738 
z
M 1181 2856 
L 856 2550 
L 88 3400 
L 413 3713 
L 1181 2856 
z
M 1275 3913 
Q 919 4388 500 4800 
L 806 5125 
Q 1250 4688 1625 4188 
L 1275 3913 
z
" transform="scale(0.015625)"/>
      <path id="WenQuanYiZenHei-6c5f" d="M 6175 156 
Q 6150 -38 6175 -238 
Q 5806 -219 5444 -219 
L 2650 -219 
Q 2288 -219 1925 -238 
Q 1944 -38 1925 156 
Q 2288 144 2650 144 
L 3738 144 
L 3738 4275 
L 3013 4275 
Q 2650 4275 2281 4256 
Q 2306 4456 2281 4650 
Q 2650 4631 3013 4631 
L 5206 4631 
Q 5569 4631 5931 4650 
Q 5913 4456 5931 4256 
Q 5569 4275 5206 4275 
L 4194 4275 
L 4194 144 
L 5444 144 
Q 5806 144 6175 156 
z
M 919 -738 
Q 669 -588 288 -575 
Q 556 -69 840 581 
Q 1125 1231 1669 2838 
L 1919 2706 
L 1219 338 
L 919 -738 
z
M 1400 2856 
L 1013 2550 
L 100 3400 
L 494 3713 
L 1400 2856 
z
M 1513 3913 
Q 1088 4388 594 4800 
L 963 5125 
Q 1481 4688 1931 4188 
L 1513 3913 
z
" transform="scale(0.015625)"/>
     </defs>
     <use xlink:href="#WenQuanYiZenHei-7d2f"/>
     <use xlink:href="#WenQuanYiZenHei-8ba1" x="100"/>
     <use xlink:href="#WenQuanYiZenHei-786e" x="200"/>
     <use xlink:href="#WenQuanYiZenHei-8bca" x="300"/>
     <use xlink:href="#WenQuanYiZenHei-9884" x="400"/>
     <use xlink:href="#WenQuanYiZenHei-6d4b" x="500"/>
     <use xlink:href="#WenQuanYiZenHei-20" x="600"/>
     <use xlink:href="#WenQuanYiZenHei-2d" x="629.980469"/>
     <use xlink:href="#WenQuanYiZenHei-20" x="659.960938"/>
     <use xlink:href="#WenQuanYiZenHei-6d59" x="689.941406"/>
     <use xlink:href="#WenQuanYiZenHei-6c5f" x="789.941406"/>
    </g>
    <!-- ARIMA (0, 2, 1)x(0, 0, 0, 7) (R2 = 0.999339) -->
    <g transform="translate(589.179688 28.980375)scale(0.12 -0.12)">
     <defs>
      <path id="WenQuanYiZenHei-41" d="M 3550 0 
L 2988 0 
L 2550 1281 
L 919 1281 
L 531 0 
L 69 0 
L 1494 4388 
L 2125 4388 
L 3550 0 
z
M 2425 1694 
L 1756 3800 
L 1075 1694 
L 2425 1694 
z
" transform="scale(0.015625)"/>
      <path id="WenQuanYiZenHei-52" d="M 3675 0 
L 3100 0 
L 2288 1900 
L 1069 1900 
L 1069 0 
L 519 0 
L 519 4388 
L 2163 4388 
Q 3006 4388 3400 3900 
Q 3581 3663 3625 3325 
Q 3631 3250 3631 3163 
Q 3631 2594 3219 2244 
Q 3038 2100 2813 2038 
L 3675 0 
z
M 3081 3169 
Q 3081 3825 2356 3906 
Q 2263 3919 2163 3919 
L 1069 3919 
L 1069 2350 
L 2100 2350 
Q 2906 2350 3044 2919 
Q 3081 3031 3081 3169 
z
" transform="scale(0.015625)"/>
      <path id="WenQuanYiZenHei-49" d="M 1100 0 
L 550 0 
L 550 4388 
L 1100 4388 
L 1100 0 
z
" transform="scale(0.015625)"/>
      <path id="WenQuanYiZenHei-4d" d="M 4756 0 
L 4206 0 
L 4206 3831 
L 4181 3831 
L 2788 0 
L 2419 0 
L 1000 3831 
L 975 3831 
L 975 0 
L 513 0 
L 513 4388 
L 1331 4388 
L 2656 875 
L 3950 4388 
L 4756 4388 
L 4756 0 
z
" transform="scale(0.015625)"/>
      <path id="WenQuanYiZenHei-28" d="M 1606 -1094 
L 1275 -1094 
Q 475 -100 338 1231 
Q 319 1438 319 1656 
Q 319 3031 1156 4244 
Q 1213 4313 1269 4388 
L 1600 4388 
Q 806 3169 794 1681 
Q 794 188 1606 -1094 
z
" transform="scale(0.015625)"/>
      <path id="WenQuanYiZenHei-2c" d="M 1363 75 
L 881 -825 
L 606 -825 
L 994 0 
L 656 0 
L 656 738 
L 1363 738 
L 1363 75 
z
" transform="scale(0.015625)"/>
      <path id="WenQuanYiZenHei-29" d="M 1600 1656 
Q 1600 306 869 -788 
Q 769 -950 644 -1094 
L 313 -1094 
Q 1125 188 1125 1681 
Q 1125 3169 338 4363 
Q 325 4375 319 4388 
L 650 4388 
Q 1525 3231 1594 1863 
Q 1600 1763 1600 1656 
z
" transform="scale(0.015625)"/>
      <path id="WenQuanYiZenHei-78" d="M 2806 0 
L 2213 0 
L 1394 1319 
L 544 0 
L 50 0 
L 1144 1681 
L 163 3250 
L 744 3250 
L 1431 2138 
L 2144 3250 
L 2631 3250 
L 1681 1794 
L 2806 0 
z
" transform="scale(0.015625)"/>
      <path id="WenQuanYiZenHei-3d" d="M 3569 2256 
L 263 2256 
L 263 2675 
L 3569 2675 
L 3569 2256 
z
M 3569 1019 
L 263 1019 
L 263 1431 
L 3569 1431 
L 3569 1019 
z
" transform="scale(0.015625)"/>
      <path id="WenQuanYiZenHei-2e" d="M 1344 0 
L 631 0 
L 631 725 
L 1344 725 
L 1344 0 
z
" transform="scale(0.015625)"/>
      <path id="WenQuanYiZenHei-39" d="M 3544 2300 
Q 3544 1163 3019 513 
Q 2563 -63 1775 -63 
Q 956 -63 563 488 
Q 463 631 394 813 
L 838 975 
Q 1025 494 1550 388 
Q 1656 369 1775 369 
Q 2594 369 2900 1325 
Q 3044 1769 3038 2313 
L 3025 2313 
Q 2675 1638 1944 1544 
Q 1844 1531 1744 1531 
Q 1050 1531 625 2031 
Q 294 2419 294 2963 
Q 294 3656 813 4094 
Q 1238 4456 1819 4456 
Q 2988 4456 3381 3363 
Q 3544 2900 3544 2300 
z
M 2925 2994 
Q 2925 3563 2469 3844 
Q 2206 4006 1863 4006 
Q 1275 4006 988 3563 
Q 844 3344 825 3056 
Q 819 3006 819 2956 
Q 819 2413 1269 2131 
Q 1538 1963 1875 1963 
Q 2363 1963 2681 2350 
Q 2925 2638 2925 2994 
z
" transform="scale(0.015625)"/>
     </defs>
     <use xlink:href="#WenQuanYiZenHei-41"/>
     <use xlink:href="#WenQuanYiZenHei-52" x="55.957031"/>
     <use xlink:href="#WenQuanYiZenHei-49" x="117.871094"/>
     <use xlink:href="#WenQuanYiZenHei-4d" x="143.847656"/>
     <use xlink:href="#WenQuanYiZenHei-41" x="225.78125"/>
     <use xlink:href="#WenQuanYiZenHei-20" x="281.738281"/>
     <use xlink:href="#WenQuanYiZenHei-28" x="311.71875"/>
     <use xlink:href="#WenQuanYiZenHei-30" x="341.699219"/>
     <use xlink:href="#WenQuanYiZenHei-2c" x="401.660156"/>
     <use xlink:href="#WenQuanYiZenHei-20" x="431.640625"/>
     <use xlink:href="#WenQuanYiZenHei-32" x="461.621094"/>
     <use xlink:href="#WenQuanYiZenHei-2c" x="521.582031"/>
     <use xlink:href="#WenQuanYiZenHei-20" x="551.5625"/>
     <use xlink:href="#WenQuanYiZenHei-31" x="581.542969"/>
     <use xlink:href="#WenQuanYiZenHei-29" x="641.503906"/>
     <use xlink:href="#WenQuanYiZenHei-78" x="671.484375"/>
     <use xlink:href="#WenQuanYiZenHei-28" x="715.429688"/>
     <use xlink:href="#WenQuanYiZenHei-30" x="745.410156"/>
     <use xlink:href="#WenQuanYiZenHei-2c" x="805.371094"/>
     <use xlink:href="#WenQuanYiZenHei-20" x="835.351562"/>
     <use xlink:href="#WenQuanYiZenHei-30" x="865.332031"/>
     <use xlink:href="#WenQuanYiZenHei-2c" x="925.292969"/>
     <use xlink:href="#WenQuanYiZenHei-20" x="955.273438"/>
     <use xlink:href="#WenQuanYiZenHei-30" x="985.253906"/>
     <use xlink:href="#WenQuanYiZenHei-2c" x="1045.214844"/>
     <use xlink:href="#WenQuanYiZenHei-20" x="1075.195312"/>
     <use xlink:href="#WenQuanYiZenHei-37" x="1105.175781"/>
     <use xlink:href="#WenQuanYiZenHei-29" x="1165.136719"/>
     <use xlink:href="#WenQuanYiZenHei-20" x="1195.117188"/>
     <use xlink:href="#WenQuanYiZenHei-28" x="1225.097656"/>
     <use xlink:href="#WenQuanYiZenHei-52" x="1255.078125"/>
     <use xlink:href="#WenQuanYiZenHei-32" x="1316.992188"/>
     <use xlink:href="#WenQuanYiZenHei-20" x="1376.953125"/>
     <use xlink:href="#WenQuanYiZenHei-3d" x="1406.933594"/>
     <use xlink:href="#WenQuanYiZenHei-20" x="1466.894531"/>
     <use xlink:href="#WenQuanYiZenHei-30" x="1496.875"/>
     <use xlink:href="#WenQuanYiZenHei-2e" x="1556.835938"/>
     <use xlink:href="#WenQuanYiZenHei-39" x="1586.816406"/>
     <use xlink:href="#WenQuanYiZenHei-39" x="1646.777344"/>
     <use xlink:href="#WenQuanYiZenHei-39" x="1706.738281"/>
     <use xlink:href="#WenQuanYiZenHei-33" x="1766.699219"/>
     <use xlink:href="#WenQuanYiZenHei-33" x="1826.660156"/>
     <use xlink:href="#WenQuanYiZenHei-39" x="1886.621094"/>
     <use xlink:href="#WenQuanYiZenHei-29" x="1946.582031"/>
    </g>
   </g>
   <g id="legend_1">
    <g id="patch_7">
     <path d="M 45.1875 86.975687 
L 107.1875 86.975687 
Q 109.1875 86.975687 109.1875 84.975687 
L 109.1875 41.980375 
Q 109.1875 39.980375 107.1875 39.980375 
L 45.1875 39.980375 
Q 43.1875 39.980375 43.1875 41.980375 
L 43.1875 84.975687 
Q 43.1875 86.975687 45.1875 86.975687 
z
" style="fill: #ffffff; opacity: 0.8; stroke: #cccccc; stroke-linejoin: miter"/>
    </g>
    <g id="line2d_22">
     <path d="M 47.1875 48.61475 
L 57.1875 48.61475 
L 67.1875 48.61475 
" style="fill: none; stroke: #0000ff; stroke-width: 1.5; stroke-linecap: square"/>
    </g>
    <g id="text_20">
     <!-- 实际值 -->
     <g transform="translate(75.1875 52.11475)scale(0.1 -0.1)">
      <defs>
       <path id="WenQuanYiZenHei-5b9e" d="M 1025 1175 
Q 694 1175 356 1163 
Q 375 1344 356 1525 
Q 694 1506 1025 1506 
L 3363 1506 
L 3363 2625 
Q 3363 3075 3338 3519 
Q 3581 3494 3825 3519 
Q 3800 3075 3800 2625 
L 3800 1506 
L 5406 1506 
Q 5744 1506 6075 1525 
Q 6056 1344 6075 1163 
Q 5744 1175 5406 1175 
L 4038 1175 
L 4981 456 
L 6131 -488 
L 5819 -856 
L 4681 75 
L 3638 875 
Q 3313 231 2475 -231 
Q 1638 -694 700 -825 
Q 638 -519 344 -400 
Q 1450 -319 2406 244 
Q 3113 656 3300 1175 
L 1025 1175 
z
M 2263 1581 
Q 1763 2081 1200 2513 
L 1494 2894 
Q 2081 2444 2600 1919 
L 2263 1581 
z
M 2638 2500 
Q 2219 2963 1731 3363 
L 2044 3738 
Q 2556 3313 3000 2819 
L 2638 2500 
z
M 919 3156 
L 481 3156 
L 481 4344 
L 3069 4344 
Q 2794 4731 2469 5081 
L 2825 5413 
Q 3256 4944 3613 4413 
L 3513 4344 
L 5869 4344 
L 5869 3156 
L 5425 3156 
L 5425 4013 
L 919 4013 
L 919 3156 
z
" transform="scale(0.015625)"/>
       <path id="WenQuanYiZenHei-9645" d="M 6000 431 
L 5569 194 
L 4963 1219 
L 4313 2219 
L 4719 2494 
L 5375 1481 
L 6000 431 
z
M 2956 2450 
Q 3181 2344 3419 2294 
Q 3006 1038 1944 -188 
Q 1794 -6 1569 56 
Q 2069 600 2372 1156 
Q 2675 1713 2956 2450 
z
M 3750 25 
L 3750 2913 
L 2819 2913 
Q 2475 2913 2125 2894 
Q 2144 3081 2125 3269 
Q 2475 3256 2819 3256 
L 5469 3256 
Q 5819 3256 6163 3269 
Q 6144 3081 6163 2894 
Q 5813 2913 5469 2913 
L 4194 2913 
L 4194 -144 
Q 4194 -725 3456 -813 
L 3263 -825 
Q 3325 -506 3125 -250 
Q 3250 -281 3394 -306 
Q 3663 -313 3706 -272 
Q 3750 -231 3750 25 
z
M 5544 4950 
Q 5525 4756 5544 4569 
Q 5194 4588 4844 4588 
L 3325 4588 
Q 2975 4588 2625 4569 
Q 2644 4756 2625 4950 
Q 2975 4931 3325 4931 
L 4844 4931 
Q 5194 4931 5544 4950 
z
M 819 -850 
Q 581 -825 344 -850 
Q 369 -419 369 19 
L 363 4938 
L 2256 4938 
L 2256 4625 
Q 2150 4513 2075 4375 
L 1481 3238 
Q 2181 2319 2181 1156 
Q 2144 400 1569 163 
L 1406 88 
Q 1288 300 1138 481 
Q 1294 538 1450 606 
Q 1763 744 1794 1156 
Q 1794 1744 1600 2300 
Q 1406 2856 1038 3313 
L 1725 4625 
L 788 4625 
L 794 19 
Q 794 -419 819 -850 
z
" transform="scale(0.015625)"/>
       <path id="WenQuanYiZenHei-503c" d="M 6175 -219 
Q 6156 -388 6175 -556 
Q 5863 -544 5550 -544 
L 2313 -544 
Q 2000 -544 1688 -556 
Q 1706 -388 1688 -219 
L 2506 -231 
L 2506 3469 
L 3644 3469 
L 3644 4119 
L 2638 4119 
Q 2325 4119 2013 4100 
Q 2031 4269 2013 4438 
Q 2325 4425 2638 4425 
L 3638 4425 
Q 3638 4719 3619 5013 
Q 3856 4988 4094 5013 
Q 4075 4719 4075 4425 
L 5344 4425 
Q 5650 4425 5963 4438 
Q 5950 4269 5963 4100 
Q 5656 4119 5344 4119 
L 4069 4119 
L 4069 3469 
L 5300 3469 
L 5300 -231 
L 5550 -231 
Q 5863 -231 6175 -219 
z
M 4869 2556 
L 4869 3156 
L 2931 3156 
Q 2931 2850 2931 2556 
L 4869 2556 
z
M 4869 1669 
L 4869 2250 
L 2931 2250 
L 2931 1669 
L 4869 1669 
z
M 4869 731 
L 4869 1363 
L 2931 1363 
L 2931 731 
L 4869 731 
z
M 4869 -231 
L 4869 425 
L 2931 425 
L 2931 -231 
L 4869 -231 
z
M 2106 4925 
Q 1856 4075 1463 3338 
L 1463 31 
Q 1463 -413 1481 -850 
Q 1256 -825 1031 -850 
Q 1050 -413 1050 31 
L 1050 2681 
Q 750 2269 375 1931 
Q 238 2156 0 2256 
Q 331 2544 619 2875 
Q 1094 3425 1300 3950 
Q 1494 4469 1625 5050 
Q 1850 4963 2106 4925 
z
" transform="scale(0.015625)"/>
      </defs>
      <use xlink:href="#WenQuanYiZenHei-5b9e"/>
      <use xlink:href="#WenQuanYiZenHei-9645" x="100"/>
      <use xlink:href="#WenQuanYiZenHei-503c" x="200"/>
     </g>
    </g>
    <g id="line2d_23">
     <path d="M 47.1875 63.292875 
L 57.1875 63.292875 
L 67.1875 63.292875 
" style="fill: none; stroke: #ffa500; stroke-width: 1.5; stroke-linecap: square"/>
    </g>
    <g id="text_21">
     <!-- 校验值 -->
     <g transform="translate(75.1875 66.792875)scale(0.1 -0.1)">
      <defs>
       <path id="WenQuanYiZenHei-6821" d="M 5256 2463 
Q 5025 1475 4494 706 
Q 5125 -94 6175 -544 
Q 5950 -663 5850 -900 
Q 4906 -494 4250 381 
Q 3931 0 3475 -350 
Q 3019 -700 2388 -919 
Q 2338 -656 2138 -475 
Q 3306 -69 4006 738 
Q 3563 1444 3300 2331 
Q 3050 2050 2706 1800 
Q 2606 2000 2406 2106 
Q 2900 2444 3181 2938 
Q 3350 3225 3488 3538 
Q 3700 3431 3925 3369 
Q 3763 2894 3425 2475 
L 3650 2531 
Q 3888 1675 4244 1075 
Q 4469 1444 4603 1937 
Q 4738 2431 4775 2688 
Q 4963 2644 5150 2625 
Q 4919 2969 4663 3294 
L 5038 3588 
Q 5544 2925 5975 2213 
L 5569 1969 
L 5256 2463 
z
M 6006 4050 
Q 5988 3881 6006 3713 
Q 5694 3725 5381 3725 
L 3413 3725 
Q 3100 3725 2788 3713 
Q 2806 3881 2788 4050 
Q 3100 4031 3413 4031 
L 4325 4031 
Q 4019 4525 3644 4969 
L 4000 5275 
Q 4413 4788 4750 4244 
L 4406 4031 
L 5381 4031 
Q 5694 4031 6006 4050 
z
M 406 263 
Q 238 431 -25 469 
Q 194 825 466 1337 
Q 738 1850 925 2406 
Q 1113 2963 1256 3519 
L 825 3519 
Q 506 3519 188 3500 
Q 206 3700 188 3900 
Q 506 3881 825 3881 
L 1363 3881 
L 1363 4263 
Q 1363 4719 1338 5175 
Q 1556 5150 1775 5175 
Q 1756 4719 1756 4263 
L 1756 3881 
L 2525 3900 
Q 2506 3700 2525 3500 
L 1756 3519 
L 1756 2738 
L 1931 2881 
Q 2306 2300 2613 1650 
L 2231 1413 
Q 2081 1725 1919 2019 
L 1756 2300 
L 1756 69 
Q 1756 -388 1775 -850 
Q 1556 -825 1338 -850 
Q 1363 -388 1363 69 
L 1363 2438 
Q 925 1144 406 263 
z
" transform="scale(0.015625)"/>
       <path id="WenQuanYiZenHei-9a8c" d="M 5981 -106 
Q 5963 -275 5981 -444 
Q 5669 -431 5356 -431 
L 2969 -431 
Q 2656 -431 2350 -444 
Q 2363 -275 2350 -106 
Q 2656 -125 2969 -125 
L 4369 -125 
Q 4600 431 4881 1288 
L 5206 2300 
Q 5425 2206 5663 2163 
Q 5375 1188 4831 -125 
L 5356 -125 
Q 5669 -125 5981 -106 
z
M 4063 594 
Q 3788 1425 3425 2219 
L 3856 2419 
Q 4225 1600 4513 744 
L 4063 594 
z
M 3163 363 
Q 2931 1200 2613 2006 
L 3056 2175 
Q 3381 1350 3619 488 
L 3163 363 
z
M 4581 2550 
L 3513 2550 
Q 3200 2550 2888 2538 
Q 2900 2663 2894 2769 
Q 2569 2488 2206 2300 
Q 2113 2550 1894 2700 
Q 2488 2975 2975 3463 
Q 3269 3756 3394 4006 
Q 3644 4513 3794 5063 
Q 4038 4975 4294 4931 
Q 4250 4806 4206 4681 
Q 4475 3888 5025 3388 
Q 5519 2938 6169 2650 
Q 5938 2538 5838 2300 
Q 5513 2456 5200 2700 
Q 5200 2619 5206 2538 
Q 4894 2550 4581 2550 
z
M 3513 2863 
L 4994 2869 
Q 4344 3438 3988 4194 
Q 3594 3406 3013 2869 
Q 3263 2863 3513 2863 
z
M 206 444 
Q 188 756 44 963 
Q 319 956 650 1003 
Q 981 1050 1731 1281 
L 1738 1006 
Q 800 719 206 444 
z
M 525 4000 
Q 744 3950 994 3944 
Q 925 3519 875 3081 
L 763 2144 
L 1475 2144 
L 1831 4444 
L 663 4444 
Q 350 4444 38 4431 
Q 56 4600 38 4769 
Q 350 4756 663 4756 
L 2313 4756 
L 1913 2144 
L 2375 2144 
L 2200 -200 
Q 2188 -425 1988 -588 
Q 1694 -800 1181 -788 
L 944 -788 
Q 1000 -450 788 -269 
Q 1013 -294 1334 -287 
Q 1656 -281 1715 -243 
Q 1775 -206 1781 -50 
L 1925 1831 
L 294 1831 
L 444 3131 
Q 500 3569 525 4000 
z
" transform="scale(0.015625)"/>
      </defs>
      <use xlink:href="#WenQuanYiZenHei-6821"/>
      <use xlink:href="#WenQuanYiZenHei-9a8c" x="100"/>
      <use xlink:href="#WenQuanYiZenHei-503c" x="200"/>
     </g>
    </g>
    <g id="line2d_24">
     <path d="M 47.1875 77.81475 
L 57.1875 77.81475 
L 67.1875 77.81475 
" style="fill: none; stroke: #ff0000; stroke-width: 1.5; stroke-linecap: square"/>
    </g>
    <g id="text_22">
     <!-- 预测值 -->
     <g transform="translate(75.1875 81.31475)scale(0.1 -0.1)">
      <use xlink:href="#WenQuanYiZenHei-9884"/>
      <use xlink:href="#WenQuanYiZenHei-6d4b" x="100"/>
      <use xlink:href="#WenQuanYiZenHei-503c" x="200"/>
     </g>
    </g>
   </g>
  </g>
 </g>
 <defs>
  <clipPath id="p4aadc67d4c">
   <rect x="38.1875" y="34.980375" width="1339.2" height="332.64"/>
  </clipPath>
 </defs>
</svg>
