<?xml version="1.0" encoding="utf-8" standalone="no"?>
<!DOCTYPE svg PUBLIC "-//W3C//DTD SVG 1.1//EN"
  "http://www.w3.org/Graphics/SVG/1.1/DTD/svg11.dtd">
<svg xmlns:xlink="http://www.w3.org/1999/xlink" width="1378.590625pt" height="390.418188pt" viewBox="0 0 1378.590625 390.418188" xmlns="http://www.w3.org/2000/svg" version="1.1">
 <metadata>
  <rdf:RDF xmlns:dc="http://purl.org/dc/elements/1.1/" xmlns:cc="http://creativecommons.org/ns#" xmlns:rdf="http://www.w3.org/1999/02/22-rdf-syntax-ns#">
   <cc:Work>
    <dc:type rdf:resource="http://purl.org/dc/dcmitype/StillImage"/>
    <dc:date>2022-06-28T18:25:30.858352</dc:date>
    <dc:format>image/svg+xml</dc:format>
    <dc:creator>
     <cc:Agent>
      <dc:title>Matplotlib v3.5.2, https://matplotlib.org/</dc:title>
     </cc:Agent>
    </dc:creator>
   </cc:Work>
  </rdf:RDF>
 </metadata>
 <defs>
  <style type="text/css">*{stroke-linejoin: round; stroke-linecap: butt}</style>
 </defs>
 <g id="figure_1">
  <g id="patch_1">
   <path d="M 0 390.418188 
L 1378.590625 390.418188 
L 1378.590625 -0 
L 0 -0 
z
" style="fill: #ffffff"/>
  </g>
  <g id="axes_1">
   <g id="patch_2">
    <path d="M 32.190625 367.701 
L 1371.390625 367.701 
L 1371.390625 35.061 
L 32.190625 35.061 
z
" style="fill: #ffffff"/>
   </g>
   <g id="matplotlib.axis_1">
    <g id="xtick_1">
     <g id="line2d_1">
      <defs>
       <path id="m485880d7f5" d="M 0 0 
L 0 3.5 
" style="stroke: #000000; stroke-width: 0.8"/>
      </defs>
      <g>
       <use xlink:href="#m485880d7f5" x="63.270249" y="367.701" style="stroke: #000000; stroke-width: 0.8"/>
      </g>
     </g>
     <g id="text_1">
      <!-- 2020-01 -->
      <g transform="translate(43.780405 381.55725)scale(0.1 -0.1)">
       <defs>
        <path id="WenQuanYiZenHei-32" d="M 3488 0 
L 369 0 
L 369 456 
L 2150 1850 
Q 2931 2463 2931 3144 
Q 2931 3619 2488 3863 
Q 2231 4013 1931 4013 
Q 1425 4013 1113 3619 
Q 894 3356 881 3013 
L 369 3169 
Q 531 3981 1213 4300 
Q 1544 4456 1950 4456 
Q 2631 4456 3088 4044 
L 3225 3888 
L 3350 3706 
Q 3481 3444 3481 3144 
Q 3481 2313 2519 1569 
L 1069 456 
L 3488 456 
L 3488 0 
z
" transform="scale(0.015625)"/>
        <path id="WenQuanYiZenHei-30" d="M 3581 2175 
Q 3581 1288 3169 638 
Q 2713 -63 1938 -63 
Q 1025 -63 563 831 
Q 256 1425 256 2188 
Q 256 3188 700 3819 
Q 1138 4456 1888 4456 
Q 2863 4456 3306 3500 
Q 3581 2925 3581 2175 
z
M 3019 2100 
Q 3019 3356 2500 3806 
L 2350 3919 
Q 2144 4031 1888 4031 
Q 1100 4031 888 2956 
Q 819 2625 819 2225 
Q 819 1013 1338 569 
Q 1588 356 1938 356 
Q 2675 356 2925 1294 
Q 3019 1663 3019 2100 
z
" transform="scale(0.015625)"/>
        <path id="WenQuanYiZenHei-2d" d="M 1363 1444 
L 0 1444 
L 0 1844 
L 1363 1844 
L 1363 1444 
z
" transform="scale(0.015625)"/>
        <path id="WenQuanYiZenHei-31" d="M 3556 0 
L 488 0 
L 488 406 
L 1800 406 
L 1800 3725 
Q 1231 3125 588 2788 
L 588 3338 
Q 1456 3781 1931 4388 
L 2331 4388 
L 2331 406 
L 3556 406 
L 3556 0 
z
" transform="scale(0.015625)"/>
       </defs>
       <use xlink:href="#WenQuanYiZenHei-32"/>
       <use xlink:href="#WenQuanYiZenHei-30" x="59.960938"/>
       <use xlink:href="#WenQuanYiZenHei-32" x="119.921875"/>
       <use xlink:href="#WenQuanYiZenHei-30" x="179.882812"/>
       <use xlink:href="#WenQuanYiZenHei-2d" x="239.84375"/>
       <use xlink:href="#WenQuanYiZenHei-30" x="269.824219"/>
       <use xlink:href="#WenQuanYiZenHei-31" x="329.785156"/>
      </g>
     </g>
    </g>
    <g id="xtick_2">
     <g id="line2d_2">
      <g>
       <use xlink:href="#m485880d7f5" x="186.505359" y="367.701" style="stroke: #000000; stroke-width: 0.8"/>
      </g>
     </g>
     <g id="text_2">
      <!-- 2020-04 -->
      <g transform="translate(167.015515 381.55725)scale(0.1 -0.1)">
       <defs>
        <path id="WenQuanYiZenHei-34" d="M 3631 1025 
L 2913 1025 
L 2913 0 
L 2381 0 
L 2381 1025 
L 219 1025 
L 219 1388 
L 2225 4388 
L 2913 4388 
L 2913 1444 
L 3631 1444 
L 3631 1025 
z
M 2381 1444 
L 2381 3963 
L 788 1444 
L 2381 1444 
z
" transform="scale(0.015625)"/>
       </defs>
       <use xlink:href="#WenQuanYiZenHei-32"/>
       <use xlink:href="#WenQuanYiZenHei-30" x="59.960938"/>
       <use xlink:href="#WenQuanYiZenHei-32" x="119.921875"/>
       <use xlink:href="#WenQuanYiZenHei-30" x="179.882812"/>
       <use xlink:href="#WenQuanYiZenHei-2d" x="239.84375"/>
       <use xlink:href="#WenQuanYiZenHei-30" x="269.824219"/>
       <use xlink:href="#WenQuanYiZenHei-34" x="329.785156"/>
      </g>
     </g>
    </g>
    <g id="xtick_3">
     <g id="line2d_3">
      <g>
       <use xlink:href="#m485880d7f5" x="309.740468" y="367.701" style="stroke: #000000; stroke-width: 0.8"/>
      </g>
     </g>
     <g id="text_3">
      <!-- 2020-07 -->
      <g transform="translate(290.250625 381.55725)scale(0.1 -0.1)">
       <defs>
        <path id="WenQuanYiZenHei-37" d="M 3400 4056 
Q 1838 2175 1838 0 
L 1275 0 
Q 1269 1438 2056 2825 
Q 2381 3400 2825 3913 
L 444 3913 
L 500 4388 
L 3400 4388 
L 3400 4056 
z
" transform="scale(0.015625)"/>
       </defs>
       <use xlink:href="#WenQuanYiZenHei-32"/>
       <use xlink:href="#WenQuanYiZenHei-30" x="59.960938"/>
       <use xlink:href="#WenQuanYiZenHei-32" x="119.921875"/>
       <use xlink:href="#WenQuanYiZenHei-30" x="179.882812"/>
       <use xlink:href="#WenQuanYiZenHei-2d" x="239.84375"/>
       <use xlink:href="#WenQuanYiZenHei-30" x="269.824219"/>
       <use xlink:href="#WenQuanYiZenHei-37" x="329.785156"/>
      </g>
     </g>
    </g>
    <g id="xtick_4">
     <g id="line2d_4">
      <g>
       <use xlink:href="#m485880d7f5" x="434.32981" y="367.701" style="stroke: #000000; stroke-width: 0.8"/>
      </g>
     </g>
     <g id="text_4">
      <!-- 2020-10 -->
      <g transform="translate(414.839966 381.55725)scale(0.1 -0.1)">
       <use xlink:href="#WenQuanYiZenHei-32"/>
       <use xlink:href="#WenQuanYiZenHei-30" x="59.960938"/>
       <use xlink:href="#WenQuanYiZenHei-32" x="119.921875"/>
       <use xlink:href="#WenQuanYiZenHei-30" x="179.882812"/>
       <use xlink:href="#WenQuanYiZenHei-2d" x="239.84375"/>
       <use xlink:href="#WenQuanYiZenHei-31" x="269.824219"/>
       <use xlink:href="#WenQuanYiZenHei-30" x="329.785156"/>
      </g>
     </g>
    </g>
    <g id="xtick_5">
     <g id="line2d_5">
      <g>
       <use xlink:href="#m485880d7f5" x="558.919152" y="367.701" style="stroke: #000000; stroke-width: 0.8"/>
      </g>
     </g>
     <g id="text_5">
      <!-- 2021-01 -->
      <g transform="translate(539.429308 381.55725)scale(0.1 -0.1)">
       <use xlink:href="#WenQuanYiZenHei-32"/>
       <use xlink:href="#WenQuanYiZenHei-30" x="59.960938"/>
       <use xlink:href="#WenQuanYiZenHei-32" x="119.921875"/>
       <use xlink:href="#WenQuanYiZenHei-31" x="179.882812"/>
       <use xlink:href="#WenQuanYiZenHei-2d" x="239.84375"/>
       <use xlink:href="#WenQuanYiZenHei-30" x="269.824219"/>
       <use xlink:href="#WenQuanYiZenHei-31" x="329.785156"/>
      </g>
     </g>
    </g>
    <g id="xtick_6">
     <g id="line2d_6">
      <g>
       <use xlink:href="#m485880d7f5" x="680.800029" y="367.701" style="stroke: #000000; stroke-width: 0.8"/>
      </g>
     </g>
     <g id="text_6">
      <!-- 2021-04 -->
      <g transform="translate(661.310186 381.55725)scale(0.1 -0.1)">
       <use xlink:href="#WenQuanYiZenHei-32"/>
       <use xlink:href="#WenQuanYiZenHei-30" x="59.960938"/>
       <use xlink:href="#WenQuanYiZenHei-32" x="119.921875"/>
       <use xlink:href="#WenQuanYiZenHei-31" x="179.882812"/>
       <use xlink:href="#WenQuanYiZenHei-2d" x="239.84375"/>
       <use xlink:href="#WenQuanYiZenHei-30" x="269.824219"/>
       <use xlink:href="#WenQuanYiZenHei-34" x="329.785156"/>
      </g>
     </g>
    </g>
    <g id="xtick_7">
     <g id="line2d_7">
      <g>
       <use xlink:href="#m485880d7f5" x="804.035139" y="367.701" style="stroke: #000000; stroke-width: 0.8"/>
      </g>
     </g>
     <g id="text_7">
      <!-- 2021-07 -->
      <g transform="translate(784.545295 381.55725)scale(0.1 -0.1)">
       <use xlink:href="#WenQuanYiZenHei-32"/>
       <use xlink:href="#WenQuanYiZenHei-30" x="59.960938"/>
       <use xlink:href="#WenQuanYiZenHei-32" x="119.921875"/>
       <use xlink:href="#WenQuanYiZenHei-31" x="179.882812"/>
       <use xlink:href="#WenQuanYiZenHei-2d" x="239.84375"/>
       <use xlink:href="#WenQuanYiZenHei-30" x="269.824219"/>
       <use xlink:href="#WenQuanYiZenHei-37" x="329.785156"/>
      </g>
     </g>
    </g>
    <g id="xtick_8">
     <g id="line2d_8">
      <g>
       <use xlink:href="#m485880d7f5" x="928.624481" y="367.701" style="stroke: #000000; stroke-width: 0.8"/>
      </g>
     </g>
     <g id="text_8">
      <!-- 2021-10 -->
      <g transform="translate(909.134637 381.55725)scale(0.1 -0.1)">
       <use xlink:href="#WenQuanYiZenHei-32"/>
       <use xlink:href="#WenQuanYiZenHei-30" x="59.960938"/>
       <use xlink:href="#WenQuanYiZenHei-32" x="119.921875"/>
       <use xlink:href="#WenQuanYiZenHei-31" x="179.882812"/>
       <use xlink:href="#WenQuanYiZenHei-2d" x="239.84375"/>
       <use xlink:href="#WenQuanYiZenHei-31" x="269.824219"/>
       <use xlink:href="#WenQuanYiZenHei-30" x="329.785156"/>
      </g>
     </g>
    </g>
    <g id="xtick_9">
     <g id="line2d_9">
      <g>
       <use xlink:href="#m485880d7f5" x="1053.213822" y="367.701" style="stroke: #000000; stroke-width: 0.8"/>
      </g>
     </g>
     <g id="text_9">
      <!-- 2022-01 -->
      <g transform="translate(1033.723979 381.55725)scale(0.1 -0.1)">
       <use xlink:href="#WenQuanYiZenHei-32"/>
       <use xlink:href="#WenQuanYiZenHei-30" x="59.960938"/>
       <use xlink:href="#WenQuanYiZenHei-32" x="119.921875"/>
       <use xlink:href="#WenQuanYiZenHei-32" x="179.882812"/>
       <use xlink:href="#WenQuanYiZenHei-2d" x="239.84375"/>
       <use xlink:href="#WenQuanYiZenHei-30" x="269.824219"/>
       <use xlink:href="#WenQuanYiZenHei-31" x="329.785156"/>
      </g>
     </g>
    </g>
    <g id="xtick_10">
     <g id="line2d_10">
      <g>
       <use xlink:href="#m485880d7f5" x="1175.0947" y="367.701" style="stroke: #000000; stroke-width: 0.8"/>
      </g>
     </g>
     <g id="text_10">
      <!-- 2022-04 -->
      <g transform="translate(1155.604856 381.55725)scale(0.1 -0.1)">
       <use xlink:href="#WenQuanYiZenHei-32"/>
       <use xlink:href="#WenQuanYiZenHei-30" x="59.960938"/>
       <use xlink:href="#WenQuanYiZenHei-32" x="119.921875"/>
       <use xlink:href="#WenQuanYiZenHei-32" x="179.882812"/>
       <use xlink:href="#WenQuanYiZenHei-2d" x="239.84375"/>
       <use xlink:href="#WenQuanYiZenHei-30" x="269.824219"/>
       <use xlink:href="#WenQuanYiZenHei-34" x="329.785156"/>
      </g>
     </g>
    </g>
    <g id="xtick_11">
     <g id="line2d_11">
      <g>
       <use xlink:href="#m485880d7f5" x="1298.32981" y="367.701" style="stroke: #000000; stroke-width: 0.8"/>
      </g>
     </g>
     <g id="text_11">
      <!-- 2022-07 -->
      <g transform="translate(1278.839966 381.55725)scale(0.1 -0.1)">
       <use xlink:href="#WenQuanYiZenHei-32"/>
       <use xlink:href="#WenQuanYiZenHei-30" x="59.960938"/>
       <use xlink:href="#WenQuanYiZenHei-32" x="119.921875"/>
       <use xlink:href="#WenQuanYiZenHei-32" x="179.882812"/>
       <use xlink:href="#WenQuanYiZenHei-2d" x="239.84375"/>
       <use xlink:href="#WenQuanYiZenHei-30" x="269.824219"/>
       <use xlink:href="#WenQuanYiZenHei-37" x="329.785156"/>
      </g>
     </g>
    </g>
   </g>
   <g id="matplotlib.axis_2">
    <g id="ytick_1">
     <g id="line2d_12">
      <defs>
       <path id="m832a9c4d92" d="M 0 0 
L -3.5 0 
" style="stroke: #000000; stroke-width: 0.8"/>
      </defs>
      <g>
       <use xlink:href="#m832a9c4d92" x="32.190625" y="352.581" style="stroke: #000000; stroke-width: 0.8"/>
      </g>
     </g>
     <g id="text_12">
      <!-- 0 -->
      <g transform="translate(19.19375 356.009125)scale(0.1 -0.1)">
       <use xlink:href="#WenQuanYiZenHei-30"/>
      </g>
     </g>
    </g>
    <g id="ytick_2">
     <g id="line2d_13">
      <g>
       <use xlink:href="#m832a9c4d92" x="32.190625" y="306.762818" style="stroke: #000000; stroke-width: 0.8"/>
      </g>
     </g>
     <g id="text_13">
      <!-- 20 -->
      <g transform="translate(13.196875 310.190943)scale(0.1 -0.1)">
       <use xlink:href="#WenQuanYiZenHei-32"/>
       <use xlink:href="#WenQuanYiZenHei-30" x="59.960938"/>
      </g>
     </g>
    </g>
    <g id="ytick_3">
     <g id="line2d_14">
      <g>
       <use xlink:href="#m832a9c4d92" x="32.190625" y="260.944636" style="stroke: #000000; stroke-width: 0.8"/>
      </g>
     </g>
     <g id="text_14">
      <!-- 40 -->
      <g transform="translate(13.196875 264.372761)scale(0.1 -0.1)">
       <use xlink:href="#WenQuanYiZenHei-34"/>
       <use xlink:href="#WenQuanYiZenHei-30" x="59.960938"/>
      </g>
     </g>
    </g>
    <g id="ytick_4">
     <g id="line2d_15">
      <g>
       <use xlink:href="#m832a9c4d92" x="32.190625" y="215.126455" style="stroke: #000000; stroke-width: 0.8"/>
      </g>
     </g>
     <g id="text_15">
      <!-- 60 -->
      <g transform="translate(13.196875 218.55458)scale(0.1 -0.1)">
       <defs>
        <path id="WenQuanYiZenHei-36" d="M 3550 1431 
Q 3550 725 3006 288 
Q 2581 -63 1994 -63 
Q 1013 -63 563 825 
Q 288 1363 288 2081 
Q 288 3294 856 3938 
Q 1319 4456 2075 4456 
Q 2969 4456 3363 3756 
Q 3431 3631 3481 3481 
L 2988 3350 
Q 2750 3994 2075 4006 
Q 1056 4006 844 2669 
Q 794 2356 794 1981 
L 806 1981 
Q 1006 2506 1544 2744 
Q 1819 2869 2119 2869 
Q 2788 2869 3213 2375 
Q 3550 1975 3550 1431 
z
M 3038 1406 
Q 3038 1906 2656 2213 
Q 2381 2431 2038 2431 
Q 1525 2431 1181 2044 
Q 919 1744 919 1356 
Q 919 881 1344 581 
Q 1631 375 1981 375 
Q 2519 375 2838 781 
Q 3038 1050 3038 1406 
z
" transform="scale(0.015625)"/>
       </defs>
       <use xlink:href="#WenQuanYiZenHei-36"/>
       <use xlink:href="#WenQuanYiZenHei-30" x="59.960938"/>
      </g>
     </g>
    </g>
    <g id="ytick_5">
     <g id="line2d_16">
      <g>
       <use xlink:href="#m832a9c4d92" x="32.190625" y="169.308273" style="stroke: #000000; stroke-width: 0.8"/>
      </g>
     </g>
     <g id="text_16">
      <!-- 80 -->
      <g transform="translate(13.196875 172.736398)scale(0.1 -0.1)">
       <defs>
        <path id="WenQuanYiZenHei-38" d="M 3619 1175 
Q 3619 431 2850 100 
Q 2444 -63 1944 -63 
Q 1231 -63 725 269 
Q 225 594 225 1125 
Q 225 1881 1269 2281 
Q 719 2481 519 2938 
Q 444 3119 444 3319 
Q 444 4000 1144 4294 
Q 1519 4456 1963 4456 
Q 2669 4456 3094 4094 
Q 3425 3813 3425 3369 
Q 3425 2638 2575 2356 
Q 3231 2056 3450 1725 
Q 3619 1488 3619 1175 
z
M 2944 3344 
Q 2944 3906 2288 4019 
Q 2138 4044 1969 4044 
Q 1438 4044 1163 3775 
Q 1000 3613 1000 3375 
Q 1000 2925 1594 2663 
Q 1756 2588 1931 2550 
Q 2581 2725 2788 2956 
Q 2944 3125 2944 3344 
z
M 3075 1094 
Q 3075 1738 1875 2050 
Q 1094 1881 850 1463 
Q 763 1313 763 1131 
Q 763 569 1456 406 
Q 1681 344 1944 344 
Q 2519 344 2850 619 
Q 3075 813 3075 1094 
z
" transform="scale(0.015625)"/>
       </defs>
       <use xlink:href="#WenQuanYiZenHei-38"/>
       <use xlink:href="#WenQuanYiZenHei-30" x="59.960938"/>
      </g>
     </g>
    </g>
    <g id="ytick_6">
     <g id="line2d_17">
      <g>
       <use xlink:href="#m832a9c4d92" x="32.190625" y="123.490091" style="stroke: #000000; stroke-width: 0.8"/>
      </g>
     </g>
     <g id="text_17">
      <!-- 100 -->
      <g transform="translate(7.2 126.918216)scale(0.1 -0.1)">
       <use xlink:href="#WenQuanYiZenHei-31"/>
       <use xlink:href="#WenQuanYiZenHei-30" x="59.960938"/>
       <use xlink:href="#WenQuanYiZenHei-30" x="119.921875"/>
      </g>
     </g>
    </g>
    <g id="ytick_7">
     <g id="line2d_18">
      <g>
       <use xlink:href="#m832a9c4d92" x="32.190625" y="77.671909" style="stroke: #000000; stroke-width: 0.8"/>
      </g>
     </g>
     <g id="text_18">
      <!-- 120 -->
      <g transform="translate(7.2 81.100034)scale(0.1 -0.1)">
       <use xlink:href="#WenQuanYiZenHei-31"/>
       <use xlink:href="#WenQuanYiZenHei-32" x="59.960938"/>
       <use xlink:href="#WenQuanYiZenHei-30" x="119.921875"/>
      </g>
     </g>
    </g>
   </g>
   <g id="line2d_19">
    <path d="M 93.063352 313.635545 
L 94.417584 315.926455 
L 95.771816 309.053727 
L 97.126048 256.362818 
L 98.48028 297.599182 
L 99.834512 249.490091 
L 101.188744 70.799182 
L 102.542976 50.181 
L 103.897208 100.581 
L 105.25144 212.835545 
L 107.959904 208.253727 
L 109.314136 112.035545 
L 110.668368 201.381 
L 113.376832 233.453727 
L 114.731064 256.362818 
L 116.085296 290.726455 
L 117.439528 313.635545 
L 118.79376 295.308273 
L 120.147992 320.508273 
L 121.502224 320.508273 
L 122.856456 329.671909 
L 124.210688 336.544636 
L 125.56492 341.126455 
L 126.919152 343.417364 
L 128.273384 350.290091 
L 129.627616 347.999182 
L 130.981848 350.290091 
L 132.33608 288.435545 
L 133.690312 347.999182 
L 135.044543 352.581 
L 144.524167 352.581 
L 145.878399 350.290091 
L 147.232631 336.544636 
L 148.586863 352.581 
L 149.941095 347.999182 
L 151.295327 352.581 
L 160.774951 352.581 
L 162.129183 325.090091 
L 163.483415 343.417364 
L 164.837647 352.581 
L 166.191879 350.290091 
L 167.546111 352.581 
L 168.900343 350.290091 
L 170.254575 350.290091 
L 171.608807 347.999182 
L 172.963039 347.999182 
L 174.317271 352.581 
L 175.671503 347.999182 
L 177.025735 350.290091 
L 178.379967 347.999182 
L 179.734199 343.417364 
L 181.088431 343.417364 
L 182.442663 345.708273 
L 183.796895 350.290091 
L 185.151127 347.999182 
L 186.505359 352.581 
L 189.213822 347.999182 
L 190.568054 347.999182 
L 191.922286 350.290091 
L 197.339214 350.290091 
L 198.693446 352.581 
L 204.110374 352.581 
L 205.464606 350.290091 
L 206.818838 352.581 
L 288.072757 352.581 
L 289.426989 350.290091 
L 290.781221 352.581 
L 321.928556 352.581 
L 323.282788 350.290091 
L 324.63702 352.581 
L 358.492819 352.581 
L 359.847051 350.290091 
L 365.263979 350.290091 
L 366.618211 352.581 
L 373.389371 352.581 
L 374.743603 347.999182 
L 376.097835 352.581 
L 389.640155 352.581 
L 390.994387 350.290091 
L 392.348619 352.581 
L 407.24517 352.581 
L 408.599402 347.999182 
L 409.953634 352.581 
L 411.307866 350.290091 
L 412.662098 350.290091 
L 414.01633 352.581 
L 441.10097 352.581 
L 442.455202 350.290091 
L 443.809434 352.581 
L 472.248305 352.581 
L 473.602537 345.708273 
L 474.956769 352.581 
L 476.311001 352.581 
L 477.665233 350.290091 
L 479.019465 352.581 
L 480.373697 352.581 
L 481.727929 350.290091 
L 483.082161 352.581 
L 484.436393 347.999182 
L 485.790625 352.581 
L 487.144857 350.290091 
L 488.499089 352.581 
L 497.978713 352.581 
L 499.332945 350.290091 
L 500.687177 352.581 
L 502.041409 352.581 
L 503.395641 350.290091 
L 504.749873 352.581 
L 510.166801 352.581 
L 511.521033 350.290091 
L 512.875264 352.581 
L 522.354888 352.581 
L 523.70912 350.290091 
L 525.063352 352.581 
L 529.126048 352.581 
L 530.48028 350.290091 
L 531.834512 352.581 
L 533.188744 350.290091 
L 534.542976 352.581 
L 538.605672 352.581 
L 539.959904 350.290091 
L 541.314136 350.290091 
L 542.668368 352.581 
L 544.0226 352.581 
L 545.376832 350.290091 
L 546.731064 352.581 
L 549.439528 352.581 
L 550.79376 347.999182 
L 552.147992 345.708273 
L 553.502224 352.581 
L 554.856456 350.290091 
L 556.210688 352.581 
L 568.398775 352.581 
L 569.753007 347.999182 
L 571.107239 352.581 
L 575.169935 352.581 
L 576.524167 350.290091 
L 577.878399 352.581 
L 579.232631 352.581 
L 580.586863 347.999182 
L 581.941095 345.708273 
L 583.295327 347.999182 
L 584.649559 352.581 
L 609.025735 352.581 
L 610.379967 350.290091 
L 611.734199 345.708273 
L 613.088431 352.581 
L 629.339214 352.581 
L 630.693446 350.290091 
L 632.047678 352.581 
L 640.17307 352.581 
L 641.527302 350.290091 
L 642.881534 352.581 
L 661.840782 352.581 
L 663.195014 350.290091 
L 664.549246 352.581 
L 683.508493 352.581 
L 684.862725 350.290091 
L 686.216957 352.581 
L 690.279653 352.581 
L 691.633885 350.290091 
L 692.988117 352.581 
L 694.342349 352.581 
L 695.696581 347.999182 
L 697.050813 352.581 
L 699.759277 352.581 
L 701.113509 350.290091 
L 702.467741 352.581 
L 703.821973 352.581 
L 705.176205 350.290091 
L 706.530437 352.581 
L 707.884669 352.581 
L 709.238901 347.999182 
L 710.593133 352.581 
L 713.301597 352.581 
L 714.655829 350.290091 
L 716.010061 352.581 
L 717.364293 327.381 
L 718.718525 352.581 
L 720.072757 350.290091 
L 721.426989 352.581 
L 728.198149 352.581 
L 729.55238 350.290091 
L 730.906612 352.581 
L 732.260844 350.290091 
L 733.615076 352.581 
L 734.969308 350.290091 
L 736.32354 352.581 
L 740.386236 352.581 
L 741.740468 334.253727 
L 743.0947 350.290091 
L 744.448932 352.581 
L 745.803164 341.126455 
L 747.157396 352.581 
L 748.511628 352.581 
L 749.86586 350.290091 
L 751.220092 352.581 
L 752.574324 352.581 
L 753.928556 350.290091 
L 755.282788 352.581 
L 756.63702 352.581 
L 757.991252 350.290091 
L 759.345484 352.581 
L 764.762412 352.581 
L 766.116644 350.290091 
L 767.470876 352.581 
L 770.17934 347.999182 
L 771.533572 352.581 
L 772.887804 352.581 
L 774.242036 350.290091 
L 775.596268 350.290091 
L 776.9505 352.581 
L 778.304732 347.999182 
L 779.658964 352.581 
L 781.013196 350.290091 
L 782.367428 352.581 
L 783.721659 352.581 
L 785.075891 345.708273 
L 786.430123 350.290091 
L 787.784355 347.999182 
L 789.138587 352.581 
L 790.492819 343.417364 
L 791.847051 352.581 
L 793.201283 352.581 
L 794.555515 350.290091 
L 795.909747 350.290091 
L 797.263979 352.581 
L 798.618211 352.581 
L 799.972443 350.290091 
L 801.326675 352.581 
L 820.285923 352.581 
L 821.640155 347.999182 
L 824.348619 347.999182 
L 825.702851 352.581 
L 827.057083 350.290091 
L 828.411315 352.581 
L 841.953634 352.581 
L 843.307866 347.999182 
L 846.01633 352.581 
L 847.370562 352.581 
L 848.724794 347.999182 
L 850.079026 352.581 
L 851.433258 352.581 
L 852.78749 350.290091 
L 854.141722 352.581 
L 855.495954 350.290091 
L 856.850186 352.581 
L 858.204418 325.090091 
L 859.55865 352.581 
L 863.621346 352.581 
L 864.975578 341.126455 
L 866.32981 352.581 
L 867.684042 352.581 
L 869.038274 350.290091 
L 870.392506 352.581 
L 871.746738 347.999182 
L 873.10097 352.581 
L 874.455202 350.290091 
L 875.809434 336.544636 
L 877.163666 352.581 
L 878.517898 350.290091 
L 879.87213 352.581 
L 882.580594 352.581 
L 883.934826 350.290091 
L 885.289058 352.581 
L 886.64329 350.290091 
L 889.351754 350.290091 
L 890.705986 343.417364 
L 892.060217 352.581 
L 893.414449 352.581 
L 894.768681 350.290091 
L 896.122913 352.581 
L 897.477145 350.290091 
L 898.831377 352.581 
L 904.248305 352.581 
L 905.602537 350.290091 
L 908.311001 350.290091 
L 909.665233 352.581 
L 911.019465 352.581 
L 912.373697 347.999182 
L 913.727929 347.999182 
L 915.082161 352.581 
L 920.499089 352.581 
L 921.853321 350.290091 
L 923.207553 352.581 
L 924.561785 352.581 
L 925.916017 350.290091 
L 927.270249 352.581 
L 928.624481 350.290091 
L 929.978713 352.581 
L 931.332945 350.290091 
L 932.687177 352.581 
L 934.041409 352.581 
L 935.395641 350.290091 
L 936.749873 352.581 
L 938.104105 352.581 
L 939.458337 350.290091 
L 940.812569 352.581 
L 942.166801 352.581 
L 943.521033 350.290091 
L 944.875264 350.290091 
L 946.229496 352.581 
L 947.583728 347.999182 
L 950.292192 352.581 
L 957.063352 352.581 
L 958.417584 334.253727 
L 959.771816 352.581 
L 962.48028 352.581 
L 963.834512 334.253727 
L 965.188744 347.999182 
L 966.542976 343.417364 
L 967.897208 343.417364 
L 969.25144 331.962818 
L 970.605672 345.708273 
L 971.959904 350.290091 
L 973.314136 352.581 
L 977.376832 352.581 
L 978.731064 350.290091 
L 980.085296 352.581 
L 982.79376 352.581 
L 984.147992 350.290091 
L 985.502224 350.290091 
L 986.856456 352.581 
L 988.210688 352.581 
L 989.56492 350.290091 
L 990.919152 352.581 
L 996.33608 352.581 
L 997.690312 350.290091 
L 999.044543 352.581 
L 1016.649559 352.581 
L 1018.003791 350.290091 
L 1019.358023 334.253727 
L 1020.712255 325.090091 
L 1022.066487 338.835545 
L 1023.420719 272.399182 
L 1024.774951 265.526455 
L 1026.129183 180.762818 
L 1027.483415 249.490091 
L 1028.837647 247.199182 
L 1030.191879 224.290091 
L 1031.546111 251.781 
L 1032.900343 176.181 
L 1034.254575 281.562818 
L 1035.608807 325.090091 
L 1036.963039 327.381 
L 1038.317271 350.290091 
L 1039.671503 347.999182 
L 1041.025735 350.290091 
L 1043.734199 350.290091 
L 1045.088431 347.999182 
L 1046.442663 347.999182 
L 1047.796895 343.417364 
L 1049.151127 345.708273 
L 1050.505359 350.290091 
L 1051.859591 352.581 
L 1053.213822 331.962818 
L 1054.568054 322.799182 
L 1055.922286 338.835545 
L 1057.276518 347.999182 
L 1058.63075 325.090091 
L 1059.984982 343.417364 
L 1061.339214 343.417364 
L 1062.693446 331.962818 
L 1064.047678 345.708273 
L 1065.40191 336.544636 
L 1066.756142 350.290091 
L 1068.110374 343.417364 
L 1069.464606 345.708273 
L 1070.818838 345.708273 
L 1072.17307 352.581 
L 1073.527302 347.999182 
L 1074.881534 352.581 
L 1076.235766 352.581 
L 1077.589998 345.708273 
L 1078.94423 352.581 
L 1080.298462 347.999182 
L 1081.652694 338.835545 
L 1083.006926 347.999182 
L 1084.361158 345.708273 
L 1085.71539 352.581 
L 1087.069622 329.671909 
L 1088.423854 313.635545 
L 1089.778086 311.344636 
L 1091.132318 302.181 
L 1092.48655 297.599182 
L 1093.840782 322.799182 
L 1095.195014 318.217364 
L 1096.549246 350.290091 
L 1097.903478 347.999182 
L 1100.611942 347.999182 
L 1103.320406 352.581 
L 1104.674638 352.581 
L 1106.02887 350.290091 
L 1107.383101 345.708273 
L 1108.737333 352.581 
L 1110.091565 350.290091 
L 1111.445797 352.581 
L 1114.154261 352.581 
L 1115.508493 343.417364 
L 1116.862725 352.581 
L 1118.216957 347.999182 
L 1119.571189 345.708273 
L 1120.925421 352.581 
L 1122.279653 347.999182 
L 1124.988117 352.581 
L 1126.342349 350.290091 
L 1127.696581 343.417364 
L 1130.405045 352.581 
L 1133.113509 352.581 
L 1134.467741 350.290091 
L 1135.821973 331.962818 
L 1137.176205 347.999182 
L 1138.530437 334.253727 
L 1139.884669 350.290091 
L 1141.238901 338.835545 
L 1142.593133 350.290091 
L 1143.947365 338.835545 
L 1145.301597 311.344636 
L 1146.655829 297.599182 
L 1148.010061 228.871909 
L 1149.364293 318.217364 
L 1150.718525 254.071909 
L 1152.072757 352.581 
L 1153.426989 201.381 
L 1154.781221 279.271909 
L 1156.135453 299.890091 
L 1157.489685 283.853727 
L 1158.843917 345.708273 
L 1160.198149 325.090091 
L 1161.55238 327.381 
L 1162.906612 327.381 
L 1164.260844 343.417364 
L 1165.615076 338.835545 
L 1166.969308 347.999182 
L 1168.32354 341.126455 
L 1169.677772 343.417364 
L 1172.386236 325.090091 
L 1173.740468 352.581 
L 1175.0947 283.853727 
L 1176.448932 327.381 
L 1177.803164 334.253727 
L 1179.157396 313.635545 
L 1180.511628 313.635545 
L 1181.86586 320.508273 
L 1183.220092 334.253727 
L 1184.574324 318.217364 
L 1185.928556 315.926455 
L 1187.282788 331.962818 
L 1188.63702 327.381 
L 1189.991252 325.090091 
L 1191.345484 331.962818 
L 1192.699716 352.581 
L 1194.053948 290.726455 
L 1195.40818 327.381 
L 1196.762412 274.690091 
L 1198.116644 347.999182 
L 1199.470876 331.962818 
L 1200.825108 341.126455 
L 1202.17934 318.217364 
L 1203.533572 329.671909 
L 1206.242036 320.508273 
L 1207.596268 334.253727 
L 1208.9505 313.635545 
L 1210.304732 247.199182 
L 1211.658964 279.271909 
L 1213.013196 334.253727 
L 1214.367428 352.581 
L 1215.721659 347.999182 
L 1217.075891 352.581 
L 1218.430123 345.708273 
L 1219.784355 329.671909 
L 1221.138587 352.581 
L 1222.492819 347.999182 
L 1223.847051 350.290091 
L 1225.201283 350.290091 
L 1226.555515 352.581 
L 1227.909747 347.999182 
L 1229.263979 352.581 
L 1233.326675 352.581 
L 1234.680907 347.999182 
L 1236.035139 352.581 
L 1237.389371 352.581 
L 1238.743603 350.290091 
L 1240.097835 352.581 
L 1241.452067 350.290091 
L 1242.806299 352.581 
L 1244.160531 352.581 
L 1245.514763 347.999182 
L 1246.868995 352.581 
L 1252.285923 352.581 
L 1253.640155 350.290091 
L 1254.994387 352.581 
L 1259.057083 352.581 
L 1260.411315 350.290091 
L 1261.765547 352.581 
L 1263.119779 350.290091 
L 1264.474011 352.581 
L 1271.24517 352.581 
L 1272.599402 345.708273 
L 1273.953634 352.581 
L 1275.307866 347.999182 
L 1276.662098 347.999182 
L 1279.370562 352.581 
L 1282.079026 352.581 
L 1283.433258 347.999182 
L 1286.141722 352.581 
L 1287.495954 352.581 
L 1288.850186 347.999182 
L 1290.204418 352.581 
L 1291.55865 347.999182 
L 1292.912882 350.290091 
L 1292.912882 350.290091 
" clip-path="url(#p24733c216a)" style="fill: none; stroke: #0000ff; stroke-width: 1.5; stroke-linecap: square"/>
   </g>
   <g id="line2d_20">
    <path d="M 1053.213822 338.604643 
L 1054.568054 328.250456 
L 1055.922286 335.184768 
L 1057.276518 343.579515 
L 1058.63075 331.467058 
L 1059.984982 339.295726 
L 1061.339214 341.995819 
L 1062.693446 335.423181 
L 1064.047678 342.160964 
L 1065.40191 338.481697 
L 1066.756142 346.217398 
L 1068.110374 344.38309 
L 1069.464606 345.25122 
L 1070.818838 345.550636 
L 1072.17307 350.156241 
L 1073.527302 348.743147 
L 1074.881534 351.257332 
L 1076.235766 352.124469 
L 1077.589998 347.921207 
L 1078.94423 350.973846 
L 1080.298462 349.025138 
L 1081.652694 342.349917 
L 1083.006926 346.050761 
L 1084.361158 345.826396 
L 1085.71539 350.25135 
L 1087.069622 336.769719 
L 1088.423854 321.614478 
L 1089.778086 314.886686 
L 1091.132318 306.563167 
L 1092.48655 300.690843 
L 1093.840782 315.174058 
L 1095.195014 317.167733 
L 1096.549246 338.866252 
L 1097.903478 344.849252 
L 1099.25771 346.912777 
L 1100.611942 347.624483 
L 1101.966174 349.370728 
L 1103.320406 351.473783 
L 1104.674638 352.199123 
L 1106.02887 350.948512 
L 1107.383101 347.515622 
L 1108.737333 350.833961 
L 1110.091565 350.477671 
L 1111.445797 351.855566 
L 1112.800029 352.330799 
L 1114.154261 352.494706 
L 1115.508493 346.548122 
L 1116.862725 350.500272 
L 1118.216957 348.861803 
L 1119.571189 346.795919 
L 1120.925421 350.585737 
L 1122.279653 348.89128 
L 1123.633885 349.807644 
L 1124.988117 351.624475 
L 1126.342349 350.750317 
L 1127.696581 345.946486 
L 1129.050813 347.291211 
L 1130.405045 350.756562 
L 1131.759277 351.951755 
L 1133.113509 352.363974 
L 1134.467741 351.005369 
L 1135.821973 338.530558 
L 1137.176205 344.733471 
L 1138.530437 337.868171 
L 1139.884669 346.005794 
L 1141.238901 341.308551 
L 1142.593133 347.192375 
L 1143.947365 341.7178 
L 1145.301597 321.820283 
L 1146.655829 305.952994 
L 1148.010061 255.45703 
L 1149.364293 296.571443 
L 1150.718525 268.729918 
L 1152.072757 323.66092 
L 1153.426989 243.555114 
L 1156.135453 288.530238 
L 1157.489685 285.466647 
L 1158.843917 324.93105 
L 1160.198149 325.035238 
L 1161.55238 326.571951 
L 1162.906612 327.101961 
L 1164.260844 337.790212 
L 1165.615076 338.475012 
L 1166.969308 344.714314 
L 1168.32354 342.3639 
L 1169.677772 343.054026 
L 1171.032004 337.288934 
L 1172.386236 329.297449 
L 1173.740468 344.550547 
L 1175.0947 304.787946 
L 1176.448932 319.588698 
L 1177.803164 329.195786 
L 1179.157396 319.002243 
L 1180.511628 315.486509 
L 1181.86586 318.776276 
L 1183.220092 328.915584 
L 1184.574324 321.90716 
L 1185.928556 317.989188 
L 1187.282788 327.14334 
L 1188.63702 327.299031 
L 1189.991252 325.85195 
L 1191.345484 329.855191 
L 1192.699716 344.742911 
L 1194.053948 309.356629 
L 1195.40818 321.164428 
L 1196.762412 290.719002 
L 1198.116644 328.243356 
L 1199.470876 330.679983 
L 1200.825108 337.523486 
L 1202.17934 324.876009 
L 1203.533572 328.017812 
L 1204.887804 326.099856 
L 1206.242036 322.436799 
L 1207.596268 330.178091 
L 1208.9505 319.341038 
L 1210.304732 272.080772 
L 1211.658964 276.791699 
L 1213.013196 314.435182 
L 1214.367428 339.424579 
L 1215.721659 345.041818 
L 1217.075891 349.98075 
L 1218.430123 347.181842 
L 1219.784355 335.711052 
L 1221.138587 346.762587 
L 1222.492819 347.572683 
L 1223.847051 349.352862 
L 1225.201283 349.966842 
L 1226.555515 351.679382 
L 1227.909747 349.268476 
L 1229.263979 351.438517 
L 1230.618211 352.18696 
L 1231.972443 352.445096 
L 1233.326675 352.534127 
L 1234.680907 349.563276 
L 1236.035139 351.540193 
L 1237.389371 352.222028 
L 1238.743603 350.956412 
L 1240.097835 352.020683 
L 1241.452067 350.886969 
L 1242.806299 351.996732 
L 1244.160531 352.379487 
L 1245.514763 349.509941 
L 1246.868995 351.521797 
L 1248.223227 352.215683 
L 1249.577459 352.455003 
L 1252.285923 352.566012 
L 1253.640155 351.075052 
L 1254.994387 352.061601 
L 1256.348619 352.40186 
L 1259.057083 352.55969 
L 1260.411315 351.072872 
L 1261.765547 352.060849 
L 1263.119779 350.900822 
L 1264.474011 352.00151 
L 1265.828243 352.381135 
L 1268.536707 352.557225 
L 1271.24517 352.578172 
L 1272.599402 348.077688 
L 1273.953634 351.027816 
L 1275.307866 349.043752 
L 1276.662098 348.359452 
L 1278.01633 349.624217 
L 1279.370562 351.561211 
L 1280.724794 352.229277 
L 1282.079026 352.459691 
L 1283.433258 349.537603 
L 1284.78749 350.030559 
L 1286.141722 351.701358 
L 1287.495954 352.277613 
L 1288.850186 349.474805 
L 1290.204418 351.509679 
L 1291.55865 349.209946 
L 1292.912882 349.917551 
L 1292.912882 349.917551 
" clip-path="url(#p24733c216a)" style="fill: none; stroke: #ffa500; stroke-width: 1.5; stroke-linecap: square"/>
   </g>
   <g id="line2d_21">
    <path d="M 1292.912882 349.917551 
L 1294.267114 349.917551 
L 1295.621346 349.917551 
L 1296.975578 349.917551 
L 1298.32981 349.917551 
L 1299.684042 349.917551 
L 1301.038274 349.917551 
L 1302.392506 349.917551 
L 1303.746738 349.917551 
L 1305.10097 349.917551 
L 1306.455202 349.917551 
L 1307.809434 349.917551 
L 1309.163666 349.917551 
L 1310.517898 349.917551 
" clip-path="url(#p24733c216a)" style="fill: none; stroke: #ff0000; stroke-width: 1.5; stroke-linecap: square"/>
   </g>
   <g id="patch_3">
    <path d="M 32.190625 367.701 
L 32.190625 35.061 
" style="fill: none; stroke: #000000; stroke-width: 0.8; stroke-linejoin: miter; stroke-linecap: square"/>
   </g>
   <g id="patch_4">
    <path d="M 1371.390625 367.701 
L 1371.390625 35.061 
" style="fill: none; stroke: #000000; stroke-width: 0.8; stroke-linejoin: miter; stroke-linecap: square"/>
   </g>
   <g id="patch_5">
    <path d="M 32.190625 367.701 
L 1371.390625 367.701 
" style="fill: none; stroke: #000000; stroke-width: 0.8; stroke-linejoin: miter; stroke-linecap: square"/>
   </g>
   <g id="patch_6">
    <path d="M 32.190625 35.061 
L 1371.390625 35.061 
" style="fill: none; stroke: #000000; stroke-width: 0.8; stroke-linejoin: miter; stroke-linecap: square"/>
   </g>
   <g id="text_19">
    <!-- 每日新增预测 - 浙江 -->
    <g transform="translate(648.393438 17.041875)scale(0.12 -0.12)">
     <defs>
      <path id="WenQuanYiZenHei-6bcf" d="M 6138 2181 
Q 6113 1988 6138 1800 
Q 5788 1819 5438 1819 
L 4975 1819 
L 4863 738 
L 5806 738 
L 5806 394 
L 4831 394 
L 4775 -144 
Q 4719 -563 4350 -725 
Q 4013 -856 3550 -825 
L 3288 -819 
Q 3331 -663 3275 -519 
Q 3219 -375 3113 -288 
Q 3381 -313 3759 -303 
Q 4138 -294 4231 -238 
Q 4338 -163 4350 88 
L 4381 394 
L 1025 394 
L 1244 1819 
L 813 1819 
Q 463 1819 113 1800 
Q 138 1988 113 2181 
Q 463 2163 813 2163 
L 1294 2163 
L 1488 3431 
L 1488 3581 
L 1506 3581 
L 1513 3613 
L 1713 3581 
L 5156 3581 
L 5013 2163 
L 5438 2163 
Q 5788 2163 6138 2181 
z
M 5588 4463 
Q 5569 4269 5588 4081 
Q 5244 4100 4894 4100 
L 1813 4100 
Q 1344 3463 606 2788 
Q 481 2988 256 3069 
Q 744 3494 1116 3972 
Q 1488 4450 1919 5181 
Q 2119 5044 2344 4950 
Q 2213 4688 2050 4444 
L 4894 4444 
Q 5238 4444 5588 4463 
z
M 2844 3238 
L 1906 3238 
L 1744 2163 
L 3244 2163 
L 2581 3038 
L 2844 3238 
z
M 3250 2163 
L 4563 2163 
L 4669 3238 
L 3044 3238 
L 3638 2456 
L 3250 2163 
z
M 2944 1819 
Q 3275 1394 3550 938 
L 3213 738 
L 4419 738 
L 4525 1819 
L 2944 1819 
z
M 2656 1819 
L 1694 1819 
L 1525 738 
L 3094 738 
Q 2806 1219 2450 1650 
L 2656 1819 
z
" transform="scale(0.015625)"/>
      <path id="WenQuanYiZenHei-65e5" d="M 1494 -775 
Q 1244 -750 988 -775 
Q 1013 -313 1013 156 
L 1013 4875 
L 5269 4875 
L 5269 -763 
L 4813 -763 
L 4813 156 
L 1469 156 
Q 1469 -313 1494 -775 
z
M 4813 2700 
L 4813 4500 
L 1469 4500 
L 1469 2700 
L 4813 2700 
z
M 4813 531 
L 4813 2325 
L 1469 2325 
L 1469 531 
L 4813 531 
z
" transform="scale(0.015625)"/>
      <path id="WenQuanYiZenHei-65b0" d="M 5419 -763 
Q 5188 -738 4963 -763 
Q 4981 -344 4981 75 
L 4981 2819 
L 4188 2819 
L 4188 1706 
Q 4188 63 3163 -738 
Q 3019 -519 2769 -469 
Q 3769 131 3769 1706 
L 3769 4769 
L 3875 4769 
L 3844 4831 
L 4294 4781 
Q 4438 4769 4894 4816 
Q 5350 4863 5512 4931 
Q 5675 5000 5763 5094 
Q 5850 4881 5981 4694 
Q 5713 4544 5263 4519 
L 4188 4438 
L 4188 3100 
L 5563 3100 
Q 5850 3100 6131 3113 
Q 6119 2956 6131 2806 
L 5394 2819 
L 5394 75 
Q 5394 -344 5419 -763 
z
M 2981 213 
Q 2656 744 2256 1225 
L 2606 1513 
Q 3025 1006 3369 450 
L 2981 213 
z
M 1169 1525 
Q 1375 1419 1594 1363 
Q 1281 488 469 -469 
Q 331 -300 119 -244 
Q 575 263 888 900 
Q 1038 1206 1169 1525 
z
M 1825 6 
L 1825 1769 
L 1081 1769 
Q 794 1769 513 1756 
Q 525 1913 513 2063 
Q 794 2050 1081 2050 
L 1825 2050 
L 1825 2775 
L 994 2775 
Q 706 2775 425 2763 
Q 438 2919 425 3075 
Q 706 3056 994 3056 
L 1825 3056 
L 1825 3088 
L 1906 3088 
Q 2288 3656 2588 4381 
Q 2794 4269 3013 4206 
Q 2800 3675 2381 3056 
L 3013 3056 
Q 3294 3056 3581 3075 
Q 3563 2919 3581 2763 
Q 3294 2775 3013 2775 
L 2238 2775 
L 2238 2050 
L 2925 2050 
Q 3206 2050 3494 2063 
Q 3475 1913 3494 1756 
Q 3206 1769 2925 1769 
L 2238 1769 
L 2238 -156 
Q 2238 -413 2075 -581 
Q 1844 -794 1306 -794 
Q 1363 -519 1188 -288 
Q 1338 -313 1534 -316 
Q 1731 -319 1778 -278 
Q 1825 -238 1825 6 
z
M 1875 3388 
L 1500 3131 
L 825 4088 
L 1200 4350 
L 1875 3388 
z
M 3419 4713 
Q 3400 4563 3419 4406 
Q 3131 4419 2850 4419 
L 1125 4419 
Q 838 4419 556 4406 
Q 569 4563 556 4713 
Q 838 4700 1125 4700 
L 1763 4700 
L 1388 5088 
L 1719 5406 
L 2288 4813 
L 2175 4700 
L 2850 4700 
Q 3131 4700 3419 4713 
z
" transform="scale(0.015625)"/>
      <path id="WenQuanYiZenHei-589e" d="M 3138 -769 
Q 2913 -744 2688 -769 
Q 2706 -356 2706 56 
L 2706 1719 
L 5706 1719 
L 5706 -756 
L 5300 -756 
L 5300 -338 
L 3119 -338 
Q 3125 -550 3138 -769 
z
M 5113 3569 
Q 5344 3606 5563 3688 
Q 5669 3175 5256 2694 
Q 5113 2519 4975 2506 
Q 4831 2725 4588 2813 
Q 4806 2831 4997 3068 
Q 5188 3306 5113 3569 
z
M 3850 2763 
L 3469 2538 
L 2925 3456 
L 3313 3681 
L 3850 2763 
z
M 2400 2100 
Q 2469 3138 2400 4175 
L 3413 4175 
Q 3138 4550 2825 4888 
L 3156 5194 
Q 3581 4725 3938 4206 
L 3900 4175 
L 4456 4175 
Q 4863 4575 5131 5163 
Q 5325 5044 5538 4975 
Q 5369 4575 5013 4175 
L 6056 4175 
Q 5981 3138 6056 2100 
L 2400 2100 
z
M 5300 806 
L 5300 1450 
L 3113 1450 
Q 3113 1125 3113 806 
L 5300 806 
z
M 5300 563 
L 3113 563 
L 3113 -94 
L 5300 -94 
L 5300 563 
z
M 4431 3913 
L 4431 2363 
L 5650 2363 
L 5650 3913 
L 4756 3913 
L 4700 3856 
Q 4681 3888 4656 3913 
L 4431 3913 
z
M 4025 3913 
L 2806 3913 
L 2806 2363 
L 4025 2363 
L 4025 3913 
z
M -31 625 
Q 506 763 1006 975 
L 1006 3206 
L 669 3206 
Q 369 3206 75 3188 
Q 94 3356 75 3531 
Q 369 3513 669 3513 
L 1006 3513 
L 1006 4263 
Q 1006 4700 981 5131 
Q 1206 5106 1431 5131 
Q 1413 4700 1413 4263 
L 1413 3513 
L 2238 3531 
Q 2219 3356 2238 3188 
L 1413 3206 
L 1413 1163 
L 2150 1531 
L 2194 1256 
Q 1269 775 813 519 
L 194 144 
Q 138 438 -31 625 
z
" transform="scale(0.015625)"/>
      <path id="WenQuanYiZenHei-9884" d="M 1206 19 
L 1206 2888 
L 669 2888 
Q 356 2888 50 2869 
Q 63 3044 50 3213 
Q 363 3194 669 3194 
L 1250 3194 
Q 950 3631 606 4031 
L 963 4338 
L 1263 3975 
L 1913 4719 
L 731 4719 
Q 419 4719 106 4706 
Q 125 4875 106 5044 
Q 419 5031 731 5031 
L 2481 5031 
L 2544 4663 
Q 2394 4613 2256 4466 
Q 2119 4319 1525 3631 
Q 1656 3444 1788 3250 
L 1700 3194 
L 2700 3194 
L 2763 2825 
Q 2656 2819 2613 2763 
L 2100 2038 
L 1750 2288 
L 2175 2888 
L 1638 2888 
L 1638 -150 
Q 1638 -525 1363 -669 
Q 1075 -819 525 -813 
Q 594 -513 388 -294 
Q 575 -313 837 -316 
Q 1100 -319 1153 -272 
Q 1206 -225 1206 19 
z
M 5813 -888 
Q 5100 -225 4306 375 
L 4669 719 
Q 5481 106 6219 -575 
L 5813 -888 
z
M 2375 -906 
Q 2294 -631 2025 -506 
Q 2769 -431 3353 19 
Q 3938 469 3938 1069 
L 3938 2200 
Q 3938 2625 3913 3050 
Q 4188 3025 4456 3050 
Q 4431 2625 4431 2200 
L 4431 1069 
Q 4431 681 4225 319 
Q 3644 -606 2375 -906 
z
M 3444 488 
Q 3169 513 2894 488 
Q 2919 913 2919 1338 
L 2919 3675 
Q 3219 3675 3525 3675 
Q 3750 4013 3931 4525 
L 3238 4525 
Q 2888 4525 2538 4513 
Q 2556 4669 2538 4831 
Q 2888 4813 3238 4813 
L 5313 4813 
Q 5663 4813 6006 4831 
Q 5988 4669 6006 4513 
Q 5663 4525 5313 4525 
L 4481 4525 
Q 4388 4088 4088 3675 
L 5644 3675 
L 5644 513 
L 5144 513 
L 5144 3388 
L 3894 3388 
L 3875 3363 
Q 3863 3375 3844 3388 
Q 3631 3388 3413 3388 
L 3419 1338 
Q 3419 913 3444 488 
z
" transform="scale(0.015625)"/>
      <path id="WenQuanYiZenHei-6d4b" d="M 5450 138 
L 5450 4306 
Q 5450 4750 5425 5188 
Q 5663 5163 5906 5188 
Q 5881 4750 5881 4306 
L 5881 -38 
Q 5888 -569 5519 -719 
Q 5194 -831 4825 -813 
Q 4894 -519 4694 -281 
Q 4869 -306 5094 -309 
Q 5319 -313 5384 -256 
Q 5450 -200 5450 138 
z
M 4900 938 
Q 4663 963 4419 938 
Q 4444 1375 4444 1819 
L 4444 3381 
Q 4444 3819 4419 4263 
Q 4663 4238 4900 4263 
Q 4875 3819 4875 3381 
L 4875 1819 
Q 4875 1375 4900 938 
z
M 2750 2025 
L 2750 3038 
Q 2750 3481 2725 3919 
Q 2963 3894 3206 3919 
Q 3181 3481 3181 3038 
L 3181 2025 
Q 3181 1263 2919 625 
L 3231 956 
Q 3781 431 4256 -150 
L 3888 -456 
Q 3431 106 2906 600 
Q 2531 -288 1738 -769 
Q 1606 -519 1338 -450 
Q 1988 -156 2369 478 
Q 2750 1113 2750 2025 
z
M 2363 969 
Q 2119 994 1881 969 
Q 1906 1406 1906 1850 
L 1906 5038 
L 3956 5031 
L 3956 1200 
L 3525 1200 
L 3525 4713 
L 2338 4713 
L 2338 1850 
Q 2338 1406 2363 969 
z
M 663 -738 
Q 481 -588 206 -575 
Q 400 -69 606 581 
Q 813 1231 1200 2838 
L 1381 2706 
L 875 338 
L 663 -738 
z
M 1006 2856 
L 731 2550 
L 75 3400 
L 350 3713 
L 1006 2856 
z
M 1088 3913 
Q 781 4388 425 4800 
L 694 5125 
Q 1069 4688 1388 4188 
L 1088 3913 
z
" transform="scale(0.015625)"/>
      <path id="WenQuanYiZenHei-20" transform="scale(0.015625)"/>
      <path id="WenQuanYiZenHei-6d59" d="M 5488 -769 
Q 5256 -744 5019 -769 
Q 5038 -331 5038 100 
L 5038 3000 
L 4338 3000 
L 4338 2269 
Q 4338 1438 4172 744 
Q 4006 50 3556 -556 
Q 3356 -375 3088 -400 
Q 3563 119 3734 759 
Q 3906 1400 3906 2269 
L 3906 4619 
L 4031 4619 
L 4025 4625 
Q 4488 4656 4863 4803 
Q 5238 4950 5675 5225 
Q 5788 5019 5938 4838 
Q 5294 4369 4338 4231 
L 4338 3306 
L 5538 3306 
Q 5850 3306 6163 3325 
Q 6144 3156 6163 2988 
L 5469 3000 
L 5469 100 
Q 5469 -331 5488 -769 
z
M 2538 169 
L 2538 1844 
Q 2169 1631 1806 1394 
Q 1750 1669 1563 1875 
Q 2031 1975 2538 2194 
L 2538 3544 
L 1681 3531 
Q 1700 3700 1681 3869 
L 2538 3856 
L 2538 4388 
Q 2538 4825 2513 5256 
Q 2750 5231 2988 5256 
Q 2963 4825 2963 4388 
L 2963 3856 
L 3594 3869 
Q 3575 3700 3594 3531 
L 2963 3544 
L 2963 2388 
L 3469 2650 
L 3525 2381 
L 2963 2081 
L 2963 -38 
Q 2975 -638 2475 -756 
Q 2256 -813 1938 -806 
Q 2000 -513 1806 -288 
Q 1981 -306 2197 -309 
Q 2413 -313 2475 -253 
Q 2538 -194 2538 169 
z
M 775 -738 
Q 563 -588 244 -575 
Q 469 -69 709 581 
Q 950 1231 1406 2838 
L 1619 2706 
L 1025 338 
L 775 -738 
z
M 1181 2856 
L 856 2550 
L 88 3400 
L 413 3713 
L 1181 2856 
z
M 1275 3913 
Q 919 4388 500 4800 
L 806 5125 
Q 1250 4688 1625 4188 
L 1275 3913 
z
" transform="scale(0.015625)"/>
      <path id="WenQuanYiZenHei-6c5f" d="M 6175 156 
Q 6150 -38 6175 -238 
Q 5806 -219 5444 -219 
L 2650 -219 
Q 2288 -219 1925 -238 
Q 1944 -38 1925 156 
Q 2288 144 2650 144 
L 3738 144 
L 3738 4275 
L 3013 4275 
Q 2650 4275 2281 4256 
Q 2306 4456 2281 4650 
Q 2650 4631 3013 4631 
L 5206 4631 
Q 5569 4631 5931 4650 
Q 5913 4456 5931 4256 
Q 5569 4275 5206 4275 
L 4194 4275 
L 4194 144 
L 5444 144 
Q 5806 144 6175 156 
z
M 919 -738 
Q 669 -588 288 -575 
Q 556 -69 840 581 
Q 1125 1231 1669 2838 
L 1919 2706 
L 1219 338 
L 919 -738 
z
M 1400 2856 
L 1013 2550 
L 100 3400 
L 494 3713 
L 1400 2856 
z
M 1513 3913 
Q 1088 4388 594 4800 
L 963 5125 
Q 1481 4688 1931 4188 
L 1513 3913 
z
" transform="scale(0.015625)"/>
     </defs>
     <use xlink:href="#WenQuanYiZenHei-6bcf"/>
     <use xlink:href="#WenQuanYiZenHei-65e5" x="100"/>
     <use xlink:href="#WenQuanYiZenHei-65b0" x="200"/>
     <use xlink:href="#WenQuanYiZenHei-589e" x="300"/>
     <use xlink:href="#WenQuanYiZenHei-9884" x="400"/>
     <use xlink:href="#WenQuanYiZenHei-6d4b" x="500"/>
     <use xlink:href="#WenQuanYiZenHei-20" x="600"/>
     <use xlink:href="#WenQuanYiZenHei-2d" x="629.980469"/>
     <use xlink:href="#WenQuanYiZenHei-20" x="659.960938"/>
     <use xlink:href="#WenQuanYiZenHei-6d59" x="689.941406"/>
     <use xlink:href="#WenQuanYiZenHei-6c5f" x="789.941406"/>
    </g>
    <!-- ARIMA (0, 1, 1)x(0, 0, 0, 7) (R2 = 0.908390) -->
    <g transform="translate(583.182813 29.061)scale(0.12 -0.12)">
     <defs>
      <path id="WenQuanYiZenHei-41" d="M 3550 0 
L 2988 0 
L 2550 1281 
L 919 1281 
L 531 0 
L 69 0 
L 1494 4388 
L 2125 4388 
L 3550 0 
z
M 2425 1694 
L 1756 3800 
L 1075 1694 
L 2425 1694 
z
" transform="scale(0.015625)"/>
      <path id="WenQuanYiZenHei-52" d="M 3675 0 
L 3100 0 
L 2288 1900 
L 1069 1900 
L 1069 0 
L 519 0 
L 519 4388 
L 2163 4388 
Q 3006 4388 3400 3900 
Q 3581 3663 3625 3325 
Q 3631 3250 3631 3163 
Q 3631 2594 3219 2244 
Q 3038 2100 2813 2038 
L 3675 0 
z
M 3081 3169 
Q 3081 3825 2356 3906 
Q 2263 3919 2163 3919 
L 1069 3919 
L 1069 2350 
L 2100 2350 
Q 2906 2350 3044 2919 
Q 3081 3031 3081 3169 
z
" transform="scale(0.015625)"/>
      <path id="WenQuanYiZenHei-49" d="M 1100 0 
L 550 0 
L 550 4388 
L 1100 4388 
L 1100 0 
z
" transform="scale(0.015625)"/>
      <path id="WenQuanYiZenHei-4d" d="M 4756 0 
L 4206 0 
L 4206 3831 
L 4181 3831 
L 2788 0 
L 2419 0 
L 1000 3831 
L 975 3831 
L 975 0 
L 513 0 
L 513 4388 
L 1331 4388 
L 2656 875 
L 3950 4388 
L 4756 4388 
L 4756 0 
z
" transform="scale(0.015625)"/>
      <path id="WenQuanYiZenHei-28" d="M 1606 -1094 
L 1275 -1094 
Q 475 -100 338 1231 
Q 319 1438 319 1656 
Q 319 3031 1156 4244 
Q 1213 4313 1269 4388 
L 1600 4388 
Q 806 3169 794 1681 
Q 794 188 1606 -1094 
z
" transform="scale(0.015625)"/>
      <path id="WenQuanYiZenHei-2c" d="M 1363 75 
L 881 -825 
L 606 -825 
L 994 0 
L 656 0 
L 656 738 
L 1363 738 
L 1363 75 
z
" transform="scale(0.015625)"/>
      <path id="WenQuanYiZenHei-29" d="M 1600 1656 
Q 1600 306 869 -788 
Q 769 -950 644 -1094 
L 313 -1094 
Q 1125 188 1125 1681 
Q 1125 3169 338 4363 
Q 325 4375 319 4388 
L 650 4388 
Q 1525 3231 1594 1863 
Q 1600 1763 1600 1656 
z
" transform="scale(0.015625)"/>
      <path id="WenQuanYiZenHei-78" d="M 2806 0 
L 2213 0 
L 1394 1319 
L 544 0 
L 50 0 
L 1144 1681 
L 163 3250 
L 744 3250 
L 1431 2138 
L 2144 3250 
L 2631 3250 
L 1681 1794 
L 2806 0 
z
" transform="scale(0.015625)"/>
      <path id="WenQuanYiZenHei-3d" d="M 3569 2256 
L 263 2256 
L 263 2675 
L 3569 2675 
L 3569 2256 
z
M 3569 1019 
L 263 1019 
L 263 1431 
L 3569 1431 
L 3569 1019 
z
" transform="scale(0.015625)"/>
      <path id="WenQuanYiZenHei-2e" d="M 1344 0 
L 631 0 
L 631 725 
L 1344 725 
L 1344 0 
z
" transform="scale(0.015625)"/>
      <path id="WenQuanYiZenHei-39" d="M 3544 2300 
Q 3544 1163 3019 513 
Q 2563 -63 1775 -63 
Q 956 -63 563 488 
Q 463 631 394 813 
L 838 975 
Q 1025 494 1550 388 
Q 1656 369 1775 369 
Q 2594 369 2900 1325 
Q 3044 1769 3038 2313 
L 3025 2313 
Q 2675 1638 1944 1544 
Q 1844 1531 1744 1531 
Q 1050 1531 625 2031 
Q 294 2419 294 2963 
Q 294 3656 813 4094 
Q 1238 4456 1819 4456 
Q 2988 4456 3381 3363 
Q 3544 2900 3544 2300 
z
M 2925 2994 
Q 2925 3563 2469 3844 
Q 2206 4006 1863 4006 
Q 1275 4006 988 3563 
Q 844 3344 825 3056 
Q 819 3006 819 2956 
Q 819 2413 1269 2131 
Q 1538 1963 1875 1963 
Q 2363 1963 2681 2350 
Q 2925 2638 2925 2994 
z
" transform="scale(0.015625)"/>
      <path id="WenQuanYiZenHei-33" d="M 3588 1231 
Q 3588 494 2875 144 
Q 2450 -63 1925 -63 
Q 1044 -63 556 488 
Q 356 706 256 1000 
L 769 1169 
Q 994 375 1913 375 
Q 2631 375 2900 788 
Q 3019 975 3019 1231 
Q 3019 1638 2638 1881 
Q 2325 2081 1613 2069 
L 1338 2069 
L 1338 2494 
Q 1969 2494 2094 2506 
Q 2325 2544 2463 2613 
Q 2763 2756 2844 3100 
Q 2863 3169 2863 3244 
Q 2863 3744 2381 3944 
L 2163 4006 
Q 2056 4025 1931 4025 
Q 1388 4025 1075 3631 
Q 969 3488 906 3313 
L 419 3456 
Q 675 4150 1400 4369 
Q 1669 4456 1975 4456 
Q 2694 4456 3106 4050 
Q 3419 3744 3419 3275 
Q 3419 2813 3025 2513 
Q 2825 2356 2575 2319 
L 2575 2306 
Q 3181 2213 3450 1769 
Q 3588 1525 3588 1231 
z
" transform="scale(0.015625)"/>
     </defs>
     <use xlink:href="#WenQuanYiZenHei-41"/>
     <use xlink:href="#WenQuanYiZenHei-52" x="55.957031"/>
     <use xlink:href="#WenQuanYiZenHei-49" x="117.871094"/>
     <use xlink:href="#WenQuanYiZenHei-4d" x="143.847656"/>
     <use xlink:href="#WenQuanYiZenHei-41" x="225.78125"/>
     <use xlink:href="#WenQuanYiZenHei-20" x="281.738281"/>
     <use xlink:href="#WenQuanYiZenHei-28" x="311.71875"/>
     <use xlink:href="#WenQuanYiZenHei-30" x="341.699219"/>
     <use xlink:href="#WenQuanYiZenHei-2c" x="401.660156"/>
     <use xlink:href="#WenQuanYiZenHei-20" x="431.640625"/>
     <use xlink:href="#WenQuanYiZenHei-31" x="461.621094"/>
     <use xlink:href="#WenQuanYiZenHei-2c" x="521.582031"/>
     <use xlink:href="#WenQuanYiZenHei-20" x="551.5625"/>
     <use xlink:href="#WenQuanYiZenHei-31" x="581.542969"/>
     <use xlink:href="#WenQuanYiZenHei-29" x="641.503906"/>
     <use xlink:href="#WenQuanYiZenHei-78" x="671.484375"/>
     <use xlink:href="#WenQuanYiZenHei-28" x="715.429688"/>
     <use xlink:href="#WenQuanYiZenHei-30" x="745.410156"/>
     <use xlink:href="#WenQuanYiZenHei-2c" x="805.371094"/>
     <use xlink:href="#WenQuanYiZenHei-20" x="835.351562"/>
     <use xlink:href="#WenQuanYiZenHei-30" x="865.332031"/>
     <use xlink:href="#WenQuanYiZenHei-2c" x="925.292969"/>
     <use xlink:href="#WenQuanYiZenHei-20" x="955.273438"/>
     <use xlink:href="#WenQuanYiZenHei-30" x="985.253906"/>
     <use xlink:href="#WenQuanYiZenHei-2c" x="1045.214844"/>
     <use xlink:href="#WenQuanYiZenHei-20" x="1075.195312"/>
     <use xlink:href="#WenQuanYiZenHei-37" x="1105.175781"/>
     <use xlink:href="#WenQuanYiZenHei-29" x="1165.136719"/>
     <use xlink:href="#WenQuanYiZenHei-20" x="1195.117188"/>
     <use xlink:href="#WenQuanYiZenHei-28" x="1225.097656"/>
     <use xlink:href="#WenQuanYiZenHei-52" x="1255.078125"/>
     <use xlink:href="#WenQuanYiZenHei-32" x="1316.992188"/>
     <use xlink:href="#WenQuanYiZenHei-20" x="1376.953125"/>
     <use xlink:href="#WenQuanYiZenHei-3d" x="1406.933594"/>
     <use xlink:href="#WenQuanYiZenHei-20" x="1466.894531"/>
     <use xlink:href="#WenQuanYiZenHei-30" x="1496.875"/>
     <use xlink:href="#WenQuanYiZenHei-2e" x="1556.835938"/>
     <use xlink:href="#WenQuanYiZenHei-39" x="1586.816406"/>
     <use xlink:href="#WenQuanYiZenHei-30" x="1646.777344"/>
     <use xlink:href="#WenQuanYiZenHei-38" x="1706.738281"/>
     <use xlink:href="#WenQuanYiZenHei-33" x="1766.699219"/>
     <use xlink:href="#WenQuanYiZenHei-39" x="1826.660156"/>
     <use xlink:href="#WenQuanYiZenHei-30" x="1886.621094"/>
     <use xlink:href="#WenQuanYiZenHei-29" x="1946.582031"/>
    </g>
   </g>
   <g id="legend_1">
    <g id="patch_7">
     <path d="M 1302.390625 87.056312 
L 1364.390625 87.056312 
Q 1366.390625 87.056312 1366.390625 85.056312 
L 1366.390625 42.061 
Q 1366.390625 40.061 1364.390625 40.061 
L 1302.390625 40.061 
Q 1300.390625 40.061 1300.390625 42.061 
L 1300.390625 85.056312 
Q 1300.390625 87.056312 1302.390625 87.056312 
z
" style="fill: #ffffff; opacity: 0.8; stroke: #cccccc; stroke-linejoin: miter"/>
    </g>
    <g id="line2d_22">
     <path d="M 1304.390625 48.695375 
L 1314.390625 48.695375 
L 1324.390625 48.695375 
" style="fill: none; stroke: #0000ff; stroke-width: 1.5; stroke-linecap: square"/>
    </g>
    <g id="text_20">
     <!-- 实际值 -->
     <g transform="translate(1332.390625 52.195375)scale(0.1 -0.1)">
      <defs>
       <path id="WenQuanYiZenHei-5b9e" d="M 1025 1175 
Q 694 1175 356 1163 
Q 375 1344 356 1525 
Q 694 1506 1025 1506 
L 3363 1506 
L 3363 2625 
Q 3363 3075 3338 3519 
Q 3581 3494 3825 3519 
Q 3800 3075 3800 2625 
L 3800 1506 
L 5406 1506 
Q 5744 1506 6075 1525 
Q 6056 1344 6075 1163 
Q 5744 1175 5406 1175 
L 4038 1175 
L 4981 456 
L 6131 -488 
L 5819 -856 
L 4681 75 
L 3638 875 
Q 3313 231 2475 -231 
Q 1638 -694 700 -825 
Q 638 -519 344 -400 
Q 1450 -319 2406 244 
Q 3113 656 3300 1175 
L 1025 1175 
z
M 2263 1581 
Q 1763 2081 1200 2513 
L 1494 2894 
Q 2081 2444 2600 1919 
L 2263 1581 
z
M 2638 2500 
Q 2219 2963 1731 3363 
L 2044 3738 
Q 2556 3313 3000 2819 
L 2638 2500 
z
M 919 3156 
L 481 3156 
L 481 4344 
L 3069 4344 
Q 2794 4731 2469 5081 
L 2825 5413 
Q 3256 4944 3613 4413 
L 3513 4344 
L 5869 4344 
L 5869 3156 
L 5425 3156 
L 5425 4013 
L 919 4013 
L 919 3156 
z
" transform="scale(0.015625)"/>
       <path id="WenQuanYiZenHei-9645" d="M 6000 431 
L 5569 194 
L 4963 1219 
L 4313 2219 
L 4719 2494 
L 5375 1481 
L 6000 431 
z
M 2956 2450 
Q 3181 2344 3419 2294 
Q 3006 1038 1944 -188 
Q 1794 -6 1569 56 
Q 2069 600 2372 1156 
Q 2675 1713 2956 2450 
z
M 3750 25 
L 3750 2913 
L 2819 2913 
Q 2475 2913 2125 2894 
Q 2144 3081 2125 3269 
Q 2475 3256 2819 3256 
L 5469 3256 
Q 5819 3256 6163 3269 
Q 6144 3081 6163 2894 
Q 5813 2913 5469 2913 
L 4194 2913 
L 4194 -144 
Q 4194 -725 3456 -813 
L 3263 -825 
Q 3325 -506 3125 -250 
Q 3250 -281 3394 -306 
Q 3663 -313 3706 -272 
Q 3750 -231 3750 25 
z
M 5544 4950 
Q 5525 4756 5544 4569 
Q 5194 4588 4844 4588 
L 3325 4588 
Q 2975 4588 2625 4569 
Q 2644 4756 2625 4950 
Q 2975 4931 3325 4931 
L 4844 4931 
Q 5194 4931 5544 4950 
z
M 819 -850 
Q 581 -825 344 -850 
Q 369 -419 369 19 
L 363 4938 
L 2256 4938 
L 2256 4625 
Q 2150 4513 2075 4375 
L 1481 3238 
Q 2181 2319 2181 1156 
Q 2144 400 1569 163 
L 1406 88 
Q 1288 300 1138 481 
Q 1294 538 1450 606 
Q 1763 744 1794 1156 
Q 1794 1744 1600 2300 
Q 1406 2856 1038 3313 
L 1725 4625 
L 788 4625 
L 794 19 
Q 794 -419 819 -850 
z
" transform="scale(0.015625)"/>
       <path id="WenQuanYiZenHei-503c" d="M 6175 -219 
Q 6156 -388 6175 -556 
Q 5863 -544 5550 -544 
L 2313 -544 
Q 2000 -544 1688 -556 
Q 1706 -388 1688 -219 
L 2506 -231 
L 2506 3469 
L 3644 3469 
L 3644 4119 
L 2638 4119 
Q 2325 4119 2013 4100 
Q 2031 4269 2013 4438 
Q 2325 4425 2638 4425 
L 3638 4425 
Q 3638 4719 3619 5013 
Q 3856 4988 4094 5013 
Q 4075 4719 4075 4425 
L 5344 4425 
Q 5650 4425 5963 4438 
Q 5950 4269 5963 4100 
Q 5656 4119 5344 4119 
L 4069 4119 
L 4069 3469 
L 5300 3469 
L 5300 -231 
L 5550 -231 
Q 5863 -231 6175 -219 
z
M 4869 2556 
L 4869 3156 
L 2931 3156 
Q 2931 2850 2931 2556 
L 4869 2556 
z
M 4869 1669 
L 4869 2250 
L 2931 2250 
L 2931 1669 
L 4869 1669 
z
M 4869 731 
L 4869 1363 
L 2931 1363 
L 2931 731 
L 4869 731 
z
M 4869 -231 
L 4869 425 
L 2931 425 
L 2931 -231 
L 4869 -231 
z
M 2106 4925 
Q 1856 4075 1463 3338 
L 1463 31 
Q 1463 -413 1481 -850 
Q 1256 -825 1031 -850 
Q 1050 -413 1050 31 
L 1050 2681 
Q 750 2269 375 1931 
Q 238 2156 0 2256 
Q 331 2544 619 2875 
Q 1094 3425 1300 3950 
Q 1494 4469 1625 5050 
Q 1850 4963 2106 4925 
z
" transform="scale(0.015625)"/>
      </defs>
      <use xlink:href="#WenQuanYiZenHei-5b9e"/>
      <use xlink:href="#WenQuanYiZenHei-9645" x="100"/>
      <use xlink:href="#WenQuanYiZenHei-503c" x="200"/>
     </g>
    </g>
    <g id="line2d_23">
     <path d="M 1304.390625 63.3735 
L 1314.390625 63.3735 
L 1324.390625 63.3735 
" style="fill: none; stroke: #ffa500; stroke-width: 1.5; stroke-linecap: square"/>
    </g>
    <g id="text_21">
     <!-- 校验值 -->
     <g transform="translate(1332.390625 66.8735)scale(0.1 -0.1)">
      <defs>
       <path id="WenQuanYiZenHei-6821" d="M 5256 2463 
Q 5025 1475 4494 706 
Q 5125 -94 6175 -544 
Q 5950 -663 5850 -900 
Q 4906 -494 4250 381 
Q 3931 0 3475 -350 
Q 3019 -700 2388 -919 
Q 2338 -656 2138 -475 
Q 3306 -69 4006 738 
Q 3563 1444 3300 2331 
Q 3050 2050 2706 1800 
Q 2606 2000 2406 2106 
Q 2900 2444 3181 2938 
Q 3350 3225 3488 3538 
Q 3700 3431 3925 3369 
Q 3763 2894 3425 2475 
L 3650 2531 
Q 3888 1675 4244 1075 
Q 4469 1444 4603 1937 
Q 4738 2431 4775 2688 
Q 4963 2644 5150 2625 
Q 4919 2969 4663 3294 
L 5038 3588 
Q 5544 2925 5975 2213 
L 5569 1969 
L 5256 2463 
z
M 6006 4050 
Q 5988 3881 6006 3713 
Q 5694 3725 5381 3725 
L 3413 3725 
Q 3100 3725 2788 3713 
Q 2806 3881 2788 4050 
Q 3100 4031 3413 4031 
L 4325 4031 
Q 4019 4525 3644 4969 
L 4000 5275 
Q 4413 4788 4750 4244 
L 4406 4031 
L 5381 4031 
Q 5694 4031 6006 4050 
z
M 406 263 
Q 238 431 -25 469 
Q 194 825 466 1337 
Q 738 1850 925 2406 
Q 1113 2963 1256 3519 
L 825 3519 
Q 506 3519 188 3500 
Q 206 3700 188 3900 
Q 506 3881 825 3881 
L 1363 3881 
L 1363 4263 
Q 1363 4719 1338 5175 
Q 1556 5150 1775 5175 
Q 1756 4719 1756 4263 
L 1756 3881 
L 2525 3900 
Q 2506 3700 2525 3500 
L 1756 3519 
L 1756 2738 
L 1931 2881 
Q 2306 2300 2613 1650 
L 2231 1413 
Q 2081 1725 1919 2019 
L 1756 2300 
L 1756 69 
Q 1756 -388 1775 -850 
Q 1556 -825 1338 -850 
Q 1363 -388 1363 69 
L 1363 2438 
Q 925 1144 406 263 
z
" transform="scale(0.015625)"/>
       <path id="WenQuanYiZenHei-9a8c" d="M 5981 -106 
Q 5963 -275 5981 -444 
Q 5669 -431 5356 -431 
L 2969 -431 
Q 2656 -431 2350 -444 
Q 2363 -275 2350 -106 
Q 2656 -125 2969 -125 
L 4369 -125 
Q 4600 431 4881 1288 
L 5206 2300 
Q 5425 2206 5663 2163 
Q 5375 1188 4831 -125 
L 5356 -125 
Q 5669 -125 5981 -106 
z
M 4063 594 
Q 3788 1425 3425 2219 
L 3856 2419 
Q 4225 1600 4513 744 
L 4063 594 
z
M 3163 363 
Q 2931 1200 2613 2006 
L 3056 2175 
Q 3381 1350 3619 488 
L 3163 363 
z
M 4581 2550 
L 3513 2550 
Q 3200 2550 2888 2538 
Q 2900 2663 2894 2769 
Q 2569 2488 2206 2300 
Q 2113 2550 1894 2700 
Q 2488 2975 2975 3463 
Q 3269 3756 3394 4006 
Q 3644 4513 3794 5063 
Q 4038 4975 4294 4931 
Q 4250 4806 4206 4681 
Q 4475 3888 5025 3388 
Q 5519 2938 6169 2650 
Q 5938 2538 5838 2300 
Q 5513 2456 5200 2700 
Q 5200 2619 5206 2538 
Q 4894 2550 4581 2550 
z
M 3513 2863 
L 4994 2869 
Q 4344 3438 3988 4194 
Q 3594 3406 3013 2869 
Q 3263 2863 3513 2863 
z
M 206 444 
Q 188 756 44 963 
Q 319 956 650 1003 
Q 981 1050 1731 1281 
L 1738 1006 
Q 800 719 206 444 
z
M 525 4000 
Q 744 3950 994 3944 
Q 925 3519 875 3081 
L 763 2144 
L 1475 2144 
L 1831 4444 
L 663 4444 
Q 350 4444 38 4431 
Q 56 4600 38 4769 
Q 350 4756 663 4756 
L 2313 4756 
L 1913 2144 
L 2375 2144 
L 2200 -200 
Q 2188 -425 1988 -588 
Q 1694 -800 1181 -788 
L 944 -788 
Q 1000 -450 788 -269 
Q 1013 -294 1334 -287 
Q 1656 -281 1715 -243 
Q 1775 -206 1781 -50 
L 1925 1831 
L 294 1831 
L 444 3131 
Q 500 3569 525 4000 
z
" transform="scale(0.015625)"/>
      </defs>
      <use xlink:href="#WenQuanYiZenHei-6821"/>
      <use xlink:href="#WenQuanYiZenHei-9a8c" x="100"/>
      <use xlink:href="#WenQuanYiZenHei-503c" x="200"/>
     </g>
    </g>
    <g id="line2d_24">
     <path d="M 1304.390625 77.895375 
L 1314.390625 77.895375 
L 1324.390625 77.895375 
" style="fill: none; stroke: #ff0000; stroke-width: 1.5; stroke-linecap: square"/>
    </g>
    <g id="text_22">
     <!-- 预测值 -->
     <g transform="translate(1332.390625 81.395375)scale(0.1 -0.1)">
      <use xlink:href="#WenQuanYiZenHei-9884"/>
      <use xlink:href="#WenQuanYiZenHei-6d4b" x="100"/>
      <use xlink:href="#WenQuanYiZenHei-503c" x="200"/>
     </g>
    </g>
   </g>
  </g>
 </g>
 <defs>
  <clipPath id="p24733c216a">
   <rect x="32.190625" y="35.061" width="1339.2" height="332.64"/>
  </clipPath>
 </defs>
</svg>
